M48
;Layer_Color=9474304
;FILE_FORMAT=4:4
METRIC,LZ
;TYPE=PLATED
T01F00S00C0.2000
T02F00S00C0.3000
T03F00S00C0.5000
T04F00S00C1.0200
T05F00S00C1.0700
%
T01
X0060452Y0039402
X0061452
X0062452
X0063452
X0064452
X0065452
Y0040402
Y0041402
Y0042402
Y0043402
Y0044402
Y0045402
Y0046402
Y0047402
Y0048402
Y0049402
X0066452
Y0048402
Y0047402
Y0046402
Y0045402
Y0044402
Y0043402
Y0042402
Y0041402
Y0040402
Y0039402
X0067452
X0068452
Y0040402
X0067452
Y0041402
Y0042402
X0068452
Y0041402
X0069452
Y0042402
Y0043402
X0068452
X0067452
Y0044402
X0068452
Y0045402
X0067452
Y0046402
Y0047402
X0068452
Y0046402
X0069452
Y0047402
Y0048402
X0068452
X0067452
Y0049402
X0068452
X0069452
X0070452
Y0048402
Y0047402
Y0046402
Y0045402
X0069452
Y0044402
X0070452
Y0043402
Y0042402
Y0041402
Y0040402
X0069452
Y0039402
X0070452
X0064452Y0040402
Y0041402
Y0042402
Y0043402
Y0044402
Y0045402
Y0046402
Y0047402
Y0048402
Y0049402
X0063452
X0062452
Y0048402
X0063452
Y0047402
Y0046402
X0062452
Y0047402
X0061452
Y0046402
Y0045402
X0062452
X0063452
Y0044402
X0062452
Y0043402
X0063452
Y0042402
Y0041402
X0062452
Y0042402
X0061452
Y0041402
Y0040402
X0062452
X0063452
X0060452
Y0041402
Y0042402
Y0043402
X0061452
Y0044402
X0060452
Y0045402
Y0046402
Y0047402
Y0048402
X0061452
Y0049402
X0060452
X0060452Y0112402
Y0113402
Y0114402
Y0115402
Y0116402
Y0117402
Y0118402
Y0119402
Y0120402
Y0121402
Y0122402
X0061452
Y0121402
Y0120402
Y0119402
Y0118402
Y0117402
Y0116402
Y0115402
Y0114402
Y0113402
Y0112402
X0062452
X0063452
Y0113402
X0062452
Y0114402
Y0115402
X0063452
Y0114402
X0064452
Y0115402
Y0116402
X0063452
X0062452
Y0117402
X0063452
Y0118402
X0062452
Y0119402
Y0120402
X0063452
Y0119402
X0064452
Y0120402
Y0121402
X0063452
X0062452
Y0122402
X0063452
X0064452
X0065452
X0066452
X0067452
X0068452
X0069452
X0070452
Y0121402
Y0120402
Y0119402
Y0118402
Y0117402
Y0116402
Y0115402
Y0114402
Y0113402
Y0112402
X0069452
Y0113402
Y0114402
Y0115402
Y0116402
Y0117402
Y0118402
Y0119402
Y0120402
Y0121402
X0068452
X0067452
Y0120402
X0068452
Y0119402
X0067452
Y0118402
X0068452
Y0117402
X0067452
Y0116402
X0068452
Y0115402
Y0114402
X0067452
Y0115402
X0066452
Y0114402
Y0113402
X0067452
X0068452
Y0112402
X0067452
X0066452
X0065452
X0064452
Y0113402
X0065452
Y0114402
Y0115402
Y0116402
X0066452
Y0117402
Y0118402
Y0119402
Y0120402
Y0121402
X0065452
Y0120402
Y0119402
Y0118402
X0064452
Y0117402
X0065452
X0065452Y0185402
X0064452
X0063452
X0062452
X0061452
X0060452
Y0186402
Y0187402
Y0188402
Y0189402
Y0190402
Y0191402
Y0192402
Y0193402
Y0194402
Y0195402
X0061452
Y0194402
Y0193402
Y0192402
Y0191402
Y0190402
Y0189402
Y0188402
Y0187402
Y0186402
X0062452
X0063452
Y0187402
X0062452
Y0188402
X0063452
Y0189402
X0062452
Y0190402
X0063452
Y0191402
X0062452
Y0192402
Y0193402
X0063452
Y0192402
X0064452
Y0193402
Y0194402
X0063452
X0062452
Y0195402
X0063452
X0064452
X0065452
X0066452
X0067452
X0068452
X0069452
X0070452
Y0194402
Y0193402
Y0192402
Y0191402
Y0190402
Y0189402
Y0188402
Y0187402
Y0186402
Y0185402
X0069452
Y0186402
Y0187402
Y0188402
Y0189402
Y0190402
Y0191402
Y0192402
Y0193402
Y0194402
X0068452
X0067452
Y0193402
X0068452
Y0192402
X0067452
Y0191402
X0068452
Y0190402
X0067452
Y0189402
X0068452
Y0188402
Y0187402
X0067452
Y0188402
X0066452
Y0187402
Y0186402
X0067452
X0068452
Y0185402
X0067452
X0066452
X0065452Y0186402
X0064452
Y0187402
Y0188402
Y0189402
Y0190402
Y0191402
X0065452
X0066452
Y0192402
Y0193402
Y0194402
X0065452
Y0193402
Y0192402
Y0190402
X0066452
Y0189402
X0065452
Y0188402
Y0187402
X0065452Y0258402
X0064452
X0063452
X0062452
X0061452
X0060452
Y0259402
Y0260402
Y0261402
Y0262402
Y0263402
Y0264402
Y0265402
Y0266402
Y0267402
Y0268402
X0061452
Y0267402
Y0266402
Y0265402
Y0264402
Y0263402
Y0262402
Y0261402
Y0260402
Y0259402
X0062452
X0063452
Y0260402
X0062452
Y0261402
X0063452
Y0262402
X0062452
Y0263402
X0063452
Y0264402
X0062452
Y0265402
Y0266402
X0063452
Y0265402
X0064452
Y0266402
Y0267402
X0063452
X0062452
Y0268402
X0063452
X0064452
X0065452
X0066452
X0067452
X0068452
X0069452
X0070452
Y0267402
Y0266402
Y0265402
Y0264402
Y0263402
Y0262402
Y0261402
Y0260402
Y0259402
Y0258402
X0069452
Y0259402
Y0260402
Y0261402
Y0262402
Y0263402
Y0264402
Y0265402
Y0266402
Y0267402
X0068452
X0067452
Y0266402
X0068452
Y0265402
X0067452
Y0264402
X0068452
Y0263402
X0067452
Y0262402
X0068452
Y0261402
Y0260402
X0067452
Y0261402
X0066452
Y0260402
Y0259402
X0067452
X0068452
Y0258402
X0067452
X0066452
X0065452Y0259402
X0064452
Y0260402
Y0261402
Y0262402
Y0263402
Y0264402
X0065452
X0066452
Y0265402
Y0266402
Y0267402
X0065452
Y0266402
Y0265402
Y0263402
X0066452
Y0262402
X0065452
Y0261402
Y0260402
X0065452Y0331402
X0064452
X0063452
X0062452
X0061452
X0060452
Y0332402
Y0333402
Y0334402
Y0335402
X0061452
Y0334402
Y0333402
Y0332402
X0062452
X0063452
Y0333402
X0062452
Y0334402
X0063452
Y0335402
X0062452
X0064452
Y0334402
Y0333402
Y0332402
X0065452
X0066452
X0067452
X0068452
X0069452
X0070452
Y0331402
X0069452
X0068452
X0067452
X0066452
Y0333402
Y0334402
X0067452
X0068452
Y0333402
X0067452
X0069452
Y0334402
X0070452
Y0333402
Y0335402
X0069452
X0068452
X0067452
X0066452
X0065452
Y0334402
Y0333402
Y0336402
X0064452
X0063452
X0062452
X0061452
X0060452
Y0337402
Y0338402
Y0339402
Y0340402
Y0341402
X0061452
Y0340402
Y0339402
Y0338402
Y0337402
X0062452
X0063452
Y0338402
X0062452
Y0339402
X0063452
Y0340402
X0062452
Y0341402
X0063452
X0064452
Y0340402
Y0339402
Y0338402
Y0337402
X0065452
X0066452
X0067452
X0068452
X0069452
X0070452
Y0338402
Y0339402
Y0340402
Y0341402
X0069452
Y0340402
Y0339402
Y0338402
X0068452
Y0339402
X0067452
Y0338402
X0066452
Y0339402
Y0340402
X0067452
X0068452
Y0341402
X0067452
X0066452
X0065452
Y0340402
Y0339402
Y0338402
X0066452Y0336402
X0067452
X0068452
X0069452
X0070452
T02
X005862Y00181102
X005964Y001812
X004828Y001998
X00458Y002084
X004438Y001904
X004336Y002332
X0046745Y0024765
X004846Y00311
X004725Y003273
Y003358
Y003442
Y003527
X00414933Y00387668
X00415033Y00425768
X004861Y00438467
X004945
X00494862Y00526106
X004864Y005261
X00415555Y00528955
X00415245Y00554355
X004154Y005674
X00331345Y00567055
X00331045Y00554355
X00330655Y00541655
X00331533Y00438467
X00331232Y00400368
X002816Y003484
X00206933Y00387668
X00173Y004006
X00123033Y00400368
X00123267Y00438467
X001224Y005422
X001222Y005546
X001228Y005668
X001618Y00579
X002122Y005796
X002078Y005544
Y005286
X0020692Y0028448
X002068Y00246
X0020692Y0023368
X0017422Y0027178
X0012312Y0028448
X0033188
X0033098Y0024638
X0036448Y0025908
X003648Y002968
X0051655Y0023495
X0053246Y0020066
X005748Y002374
X005744Y00247
X005956Y003136
X0063452Y0038028
X0069452Y003802
X0068952Y003526
X006794
X0071802Y0044402
X00718Y00464
X007534Y004588
Y004738
X007482Y004456
X00749Y004342
X00756Y00427
X00777Y004191
Y004106
Y004022
Y003937
X008256Y003798
X008202Y003472
X0082Y003086
X008196Y00279
X007928Y002744
X007794Y002826
X008708Y002796
Y003292
X00871Y003798
X008708Y004296
X00826Y00453
X00829353Y00479587
X008192Y005042
X008078Y005431
X00857
X008828Y00543
X007496Y005194
X007758Y00487
X00709Y005474
X00667Y005588
X006682Y005742
X006468Y00539
X006108Y005392
X005618Y005234
X0055624Y0049476
X005628Y004754
Y004648
X0056278Y0045402
X005594Y0041402
X005318Y00418
X005114Y00438467
X005029
X00503254Y00525754
X005117Y005261
X005422Y00572
X005926Y004742
X006936Y001832
X009478Y003718
X009884Y00377
Y003884
Y004006
Y004126
Y004228
Y004336
X0098963Y00493115
X00980705Y00493047
X0097063Y00492915
X010232Y004814
X0102363Y00464315
X0104943
X0107303
X0108539Y0049761
X0108601Y0052301
X0107962Y0053571
X0114101Y0052301
X0117336Y0049776
X0118757Y00498
X012234Y005358
X01240591Y00474317
X01259791Y00345317
X0126Y003138
X01242554Y0027416
X0111984Y0030376
X0108726Y0029106
X009358Y005432
X01391912Y005356
Y0052301
X0140961
X0145022Y0049761
X0148631Y0048491
X0149049Y0053571
X013508Y00485564
X013928Y003036
Y002908
X009106Y005824
X006936Y009132
X005964Y009112
X005862Y00911102
X005748Y009674
X0051655Y0096495
X0053246Y0093066
X004828Y009298
X00458Y009384
X004438Y009204
X004336Y009632
X0033098Y0097638
X002068Y00976
X0020692Y0096368
X00212145Y00592455
X001586Y006054
X00120455Y00592455
X003308Y005924
X00382655Y00592455
X00382445Y00579755
X0036448Y0098908
X003648Y010268
X0033188Y0101448
X002816Y010784
X00331232Y01130368
X00331533Y01168467
X00415033Y01155768
X00414933Y01117667
X004725Y010827
Y010742
Y010658
Y010573
X004846Y01041
X0046745Y0097765
X004861Y01168467
X004945
X00494861Y01256106
X004864Y012561
X00415555Y01258955
X00415245Y01284355
X004154Y012974
X00382445Y01309755
X00382655Y01322455
X003308Y013224
X00331345Y01297055
X00331045Y01284355
X00330655Y01271655
X002078Y012844
Y012586
X002122Y013096
X00212145Y01322455
X001618Y01309
X001586Y013354
X00120455Y01322455
X001228Y012968
X001222Y012846
X001224Y012722
X00123267Y01168467
X00123033Y01130368
X00173Y011306
X00206933Y01117667
X0020692Y0101448
X0017422Y0100178
X0012312Y0101448
X005744Y00977
X005956Y010436
X0063452Y0111028
X0069452Y011102
X0068952Y010826
X006794
X0071802Y0117402
X00718Y01194
X007534Y011888
Y012038
X007482Y011756
X00749Y011642
X00756Y01157
X00777Y011491
Y011406
Y011322
Y011237
X008256Y011098
X008202Y010772
X0082Y010386
X008196Y01009
X007928Y010044
X007794Y010126
X008708Y010096
Y010592
X00871Y011098
X008708Y011596
X00826Y01183
X00829353Y01209587
X008192Y012342
X008078Y012731
X00857
X008828Y01273
X007496Y012494
X007758Y01217
X00709Y012774
X00667Y012888
X006682Y013042
X006468Y01269
X006108Y012692
X005618Y012534
X0055624Y0122476
X005628Y012054
Y011948
X0056278Y0118402
X005594Y0114402
X005318Y01148
X005114Y01168467
X005029
X00503254Y01255754
X005117Y012561
X005422Y01302
X005926Y012042
X0097063Y01222915
X00980705Y01223047
X0098963Y01223115
X010232Y012114
X0102363Y01194315
X0104943
X0107303
X0108539Y0122761
X0108601Y0125301
X0107962Y0126571
X0114101Y0125301
X0117336Y0122776
X0118757Y01228
X012234Y012658
X01240591Y01204317
X01259791Y01075317
X0126Y010438
X01242554Y0100416
X0111984Y0103376
X0108726Y0102106
X009884Y01107
Y011184
Y011306
Y011426
Y011528
Y011636
X009478Y011018
X009358Y012732
X009106Y013124
X01391912Y012656
Y0125301
X0140961
X0145022Y0122761
X0148631Y0121491
X0149049Y0126571
X013508Y01215564
X013928Y010336
Y010208
X013928Y017508
Y017636
X01242554Y0173416
X0111984Y0176376
X0108726Y0175106
X008708Y017396
X008196Y01739
X0082Y017686
X007928Y017344
X007794Y017426
X006936Y016432
X005964Y016412
X005862Y01641102
X005748Y016974
X005744Y01707
X0051655Y0169495
X0053246Y0166066
X004828Y016598
X00458Y016684
X004438Y016504
X004336Y016932
X0046745Y0170765
X0036448Y0171908
X003648Y017568
X0033188Y0174448
X0033098Y0170638
X002068Y01706
X0020692Y0169368
Y0174448
X0017422Y0173178
X0012312Y0174448
X00123033Y01860367
X00123267Y01898468
X00173Y018606
X00206933Y01847668
X002816Y018084
X00331232Y01860367
X00331533Y01898468
X00415033Y01885768
X00414933Y01847668
X004725Y018127
Y018042
Y017958
Y017873
X004846Y01771
X004861Y01898468
X004945
X00494861Y01986106
X004864Y019861
X00415555Y01988955
X00415245Y02014355
X004154Y020274
X00382445Y02039755
X00382655Y02052455
X003308Y020524
X00331345Y02027055
X00331045Y02014355
X00330655Y02001655
X002078Y020144
Y019886
X002122Y020396
X00212145Y02052455
X001618Y02039
X001586Y020654
X00120455Y02052455
X001228Y020268
X001222Y020146
X001224Y020022
X00503254Y01985754
X005117Y019861
X005618Y019834
X0055624Y0195476
X005628Y019354
Y019248
X0056278Y0191402
X005594Y0187402
X005318Y01878
X005114Y01898468
X005029
X005926Y019342
X006108Y019992
X006468Y01999
X00667Y020188
X006682Y020342
X00709Y020074
X007496Y019794
X007534Y019338
Y019188
X007482Y019056
X00749Y018942
X00756Y01887
X00777Y018791
Y018706
Y018622
Y018537
X008256Y018398
X008202Y018072
X008708Y017892
X00871Y018398
X008708Y018896
X00826Y01913
X00829353Y01939587
X008192Y019642
X008078Y020031
X00857
X008828Y02003
X007758Y01947
X00718Y01924
X0071802Y0190402
X0069452Y018402
X0068952Y018126
X006794
X0063452Y0184028
X005956Y017736
X005422Y02032
X009106Y020424
X009358Y020032
X0097063Y01952915
X00980705Y01953047
X0098963Y01953115
X010232Y019414
X0102363Y01924315
X0104943
X0107303
X0108539Y0195761
X0108601Y0198301
X0107962Y0199571
X0114101Y0198301
X0117336Y0195776
X0118757Y01958
X012234Y019958
X01240591Y01934317
X01259791Y01805317
X0126Y017738
X009884Y01837
Y018484
Y018606
Y018726
Y018828
Y018936
X009478Y018318
X013508Y01945564
X01391912Y0198301
Y019956
X0140961Y0198301
X0145022Y0195761
X0148631Y0194491
X0149049Y0199571
X013928Y024808
Y024936
X0126Y025038
X01259791Y02535317
X01242554Y0246416
X0111984Y0249376
X0108726Y0248106
X009478Y025618
X008708Y025192
Y024696
X008196Y02469
X0082Y024986
X008202Y025372
X007928Y024644
X007794Y024726
X0068952Y025426
X006794
X005956Y025036
X005744Y02437
X005748Y024274
X0051655Y0242495
X0053246Y0239066
X005862Y02371102
X005964Y023712
X006936Y023732
X004828Y023898
X00458Y023984
X004438Y023804
X004336Y024232
X0046745Y0243765
X004846Y02501
X004725Y025173
Y025258
Y025342
Y025427
X003648Y024868
X0036448Y0244908
X0033098Y0243638
X0033188Y0247448
X002816Y025384
X0020692Y0247448
X002068Y02436
X0020692Y0242368
X0017422Y0246178
X0012312Y0247448
X00123032Y02590367
X00123267Y02628467
X00173Y025906
X00206932Y02577668
X00331232Y02590367
X00331532Y02628467
X00415032Y02615768
X00414932Y02577668
X004861Y02628467
X004945
X00494861Y02716106
X004864Y027161
X00415555Y02718955
X00415245Y02744355
X004154Y027574
X00382445Y02769755
X00382655Y02782455
X003308Y027824
X00331345Y02757055
X00331045Y02744355
X00330655Y02731655
X002078Y027444
Y027186
X002122Y027696
X00212145Y02782455
X001618Y02769
X001586Y027954
X00120455Y02782455
X001228Y027568
X001222Y027446
X001224Y027322
X00503254Y02715754
X005117Y027161
X005618Y027134
X0055624Y0268476
X005628Y026654
Y026548
X0056278Y0264402
X005594Y0260402
X005318Y02608
X005114Y02628467
X005029
X005926Y026642
X006108Y027292
X006468Y02729
X00667Y027488
X006682Y027642
X00709Y027374
X007496Y027094
X007534Y026638
Y026488
X007482Y026356
X00749Y026242
X00756Y02617
X00777Y026091
Y026006
Y025922
Y025837
X008256Y025698
X00871
X008708Y026196
X00826Y02643
X00829353Y02669587
X008192Y026942
X008078Y027331
X00857
X008828Y02733
X007758Y02677
X00718Y02654
X0071802Y0263402
X0069452Y025702
X0063452Y0257028
X005422Y02762
X009106Y027724
X009358Y027332
X0097063Y02682915
X00980705Y02683047
X0098963Y02683115
X010232Y026714
X0102363Y02654315
X0104943
X0107303
X0108539Y0268761
X0108601Y0271301
X0107962Y0272571
X0114101Y0271301
X0117336Y0268776
X0118757Y02688
X012234Y027258
X01240591Y02664317
X009884Y026236
Y026128
Y026026
Y025906
Y025784
Y02567
X013508Y02675564
X01391912Y0271301
Y027256
X0140961Y0271301
X0145022Y0268761
X0148631Y0267491
X0149049Y0272571
X013928Y032108
Y032236
X0126Y032338
X01259791Y03265317
X01242554Y0319416
X0111984Y0322376
X0108726Y0321106
X009884Y03297
Y033084
Y033206
Y033326
Y033428
Y033536
X009478Y032918
X00871Y032998
X008256
X008202Y032672
X0082Y032286
X008196Y03199
X007928Y031944
X007794Y032026
X008708Y031996
Y032492
Y033496
X00777Y033391
Y033306
Y033222
Y033137
X00756Y03347
X00749Y033542
X0069452Y033002
X0068952Y032726
X006794
X0063452Y0330028
X005956Y032336
X005744Y03167
X005748Y031574
X0051655Y0315495
X0053246Y0312066
X005862Y03101102
X005964Y031012
X006936Y031032
X005594Y0333402
X005318Y03338
X00415032Y03345768
X00414932Y03307668
X004725Y032727
Y032642
Y032558
Y032473
X004846Y03231
X0046745Y0316765
X004336Y031532
X00458Y031284
X004438Y031104
X004828Y031198
X0036448Y0317908
X003648Y032168
X0033188Y0320448
X0033098Y0316638
X002068Y03166
X0020692Y0315368
Y0320448
X0017422Y0319178
X0012312Y0320448
X00123032Y03320367
X00173Y033206
X00206932Y03307668
X002816Y032684
X00331232Y03320367
X00331532Y03358467
X00330655Y03461655
X00331045Y03474355
X00331345Y03487055
X003308Y035124
X00382655Y03512455
X00382445Y03499755
X004154Y034874
X00415245Y03474355
X00415555Y03448955
X004864Y034461
X00494861Y03446106
X004945Y03358467
X004861
X00123267
X001224Y034622
X001222Y034746
X001228Y034868
X00120455Y03512455
X001586Y035254
X001618Y03499
X002122Y034996
X00212145Y03512455
X002078Y034744
Y034486
X00503254Y03445754
X005117Y034461
X005618Y034434
X0055624Y0341476
X005628Y033954
Y033848
X0056278Y0337402
X005926Y033942
X006108Y034592
X006468Y03459
X00667Y034788
X006682Y034942
X00709Y034674
X007496Y034394
X007534Y033938
Y033788
X007482Y033656
X0071802Y0336402
X00718Y03384
X007758Y03407
X008192Y034242
X00829353Y03399587
X00826Y03373
X008078Y034631
X00857
X008828Y03463
X005422Y03492
X005114Y03358467
X005029
X0097063Y03412915
X00980705Y03413047
X0098963Y03413115
X010232Y034014
X0102363Y03384315
X0104943
X0107303
X0108539Y0341761
X0108601Y0344301
X0107962Y0345571
X0114101Y0344301
X0117336Y0341776
X0118757Y03418
X012234Y034558
X01240591Y03394317
X009358Y034632
X009106Y035024
X01391912Y034556
Y0344301
X0140961
X0145022Y0341761
X0148631Y0340491
X0149049Y0345571
X013508Y03405564
T03
X013096Y00036687
X013262
X013428
X013594
X01376
X013926
X01408815
X01425415
X01442015
X01458615
X01475215
X015048Y00163
Y001796
X01546Y001792
Y001626
X014286Y001616
Y001782
X013776Y001778
Y001612
X013008Y00154
X012844Y001538
X012926Y001656
X01244Y001664
X012438Y001538
X01193Y001574
X011764
X011598
X01156215Y00036687
X0114
X011234
X011068
X010902
X010736
X01057
X00982415
X00965815
X00949215
X00932615
X00916015
X008998
X009072Y001712
X009238
X010338Y001624
X01172815Y00036687
X01189415
X01206015
X01222615
X008832
X008666
X0085
X008334
X008168
X0079Y001358
X00749218Y00135244
X00735018Y00134844
X00721458Y00080149
X00659Y000854
X006424
X006258
X006092
X005926
X005848Y00036687
X005682
X005516
X00535
X005184
X006014
X00617615
X00634215
X00650815
X00667415
X00684015
X00611Y001686
X00512Y001746
X008574Y001712
X00874
X008906
X004968Y001824
X0039543Y00051375
X0037883
X0036223
X0034563
X0032903
X00312815Y00051287
X00296215
X00279615
X00263015
X00246415
X00229815
X00213215
X00196615
X00180015
X00163415
X001472Y000512
X001306
X00114
X000974
X000808
X000642
X00032113Y00169
Y001856
Y002022
Y002188
Y002354
Y00252
Y00268215
Y00284815
Y00301415
Y00318015
Y00334615
Y004172
Y004338
Y004504
Y00467
Y004836
Y005002
Y00516415
Y00533015
Y00549615
Y00566215
X00114Y005096
X001902Y004848
X002118Y005048
X00306Y005162
X003306Y005166
X002978Y005778
X002558Y005676
X002776Y00405
X002788Y003736
X00304Y00412
X003738Y00378
X004044Y003278
X004452Y00323
X004437Y002974
X004578Y003718
X004694Y003712
X004404Y004144
X004296Y005072
X00417Y005078
X0039813Y004898
X003178Y003182
X002978Y002296
Y002172
X003334Y002134
X002282Y002024
X001994Y001956
X001844Y001954
X001254Y002092
X00111Y002094
X001086Y003214
X001688Y00326
X00169Y003148
X001898Y0033
X002054Y003054
X00238Y002814
X002166Y003624
X001656Y00376
X004704Y001838
X005036Y00239
X005738Y002054
X006292Y002044
X00645Y002052
X006594Y002056
X00672Y002052
X006534Y002756
X006536Y002882
X006852Y003086
X006994
X007698Y002638
X007888Y002576
X008028Y002232
X008152
X008372Y002384
X008494Y00239
X008496Y002904
X008502Y0034
X008496Y003912
X00851Y0044
X008492Y0049
X00790058Y00504549
X007936Y005466
X008224Y005528
X007262Y005456
X005746Y005334
X005246Y005066
X005844Y002642
X007902Y003446
X00791058Y00434749
X00928505Y00434447
X00929105Y00421647
X00925905Y00385847
X00926Y003708
X00942Y00334
X009422Y003192
X009648Y003232
X009646Y003426
X009874Y00345
X009876Y003188
X009874Y002774
X009512Y002746
X00934
X010238Y00291
X010334Y002656
X010238Y00218
X010626Y001888
X010792
X010958
X010878Y003366
X011452Y00337
X01173Y003436
X011726Y003298
X011734Y003634
X011736Y00447
X011902
X012068
X012234
X01235191Y00496317
X012922Y004902
X01134991Y00496317
X01135005Y00474676
X01072391Y00444317
X01050591Y00444517
X010238Y004452
X009798Y004442
X009692Y004624
X00945705Y00473447
X00923505Y00467247
X00924305Y00483447
X009296Y00524
X009462
X009628
X009794
X010464Y005226
X010576
X010336Y004874
X01014Y003634
X013432Y003658
X013598
X013764
X01446Y00367
X01459
Y003504
X01446
X01456Y003294
X01456336Y0030593
X015048Y00212648
Y00196049
X013488Y002634
X013216Y0029
X01343291Y00438224
X01359891
X01392091
X01408691
X014016Y005106
X01415858Y00570549
X01382858Y00572349
X01513691Y00488624
X01530291
X01502909Y00424976
X01486309
X01356291Y00594224
X01339691
X012948Y00690313
X013096Y00766687
X013262
X013428
X013594
X01376
X013926
X01408815
X01425415
X01442015
X01458615
X01475215
X015048Y00893
Y009096
Y00926048
Y00942648
X01546Y009092
Y008926
X014286Y008916
Y009082
X013776Y009078
Y008912
X013008Y00884
X012844Y008838
X012926Y008956
X01244Y008964
X012438Y008838
X01193Y008874
X011764
X011598
X010958Y009188
X010792
X010626
X010338Y008924
X010238Y00948
X009238Y009012
X009072
X008998Y00766687
X00916015
X00932615
X00949215
X00965815
X00982415
X01057
X010736
X010902
X011068
X011234
X0114
X01156215
X01172815
X01189415
X01206015
X01222615
X012284Y00690313
X01245
X012616
X012782
X012118
X01195585
X01178985
X01162385
X01145785
X01129185
X010016
X00985
X009684
X009518
X009352
X009186
X00902385
X012404Y006064
X00885785Y00690313
X00869185
X00852585
X00835985
X008334Y00766687
X0085
X008666
X008832
X008168
X0079Y008658
X00749218Y00865244
X00735018Y00864844
X00721458Y00810149
X00659Y008154
X006424
X006258
X006092
X005926
X005848Y00766687
X006014
X00617615
X00634215
X00650815
X00667415
X00684015
X006768Y00690313
X006934
X0071
X006602
X006436
X00627
X00610785
X00594185
X00577585
X00560985
X00544385
X005516Y00766687
X005682
X00535
X005184
X00512Y009046
X005036Y00969
X005738Y009354
X006292Y009344
X00645Y009352
X006594Y009356
X00672Y009352
X00611Y008986
X008028Y009532
X008152
X008372Y009684
X008494Y00969
X008574Y009012
X00874
X008906
X006552Y005893
X004358Y005804
X004386Y006056
X003838Y00690313
X003672
X003506
X00334
X003174
X003008
X00284585
X00267985
X00251385
X00234785
X00218185
X0022219Y006203
X002254Y006098
X002122Y006054
X002574Y00614
X002688
X00159Y006244
X00163415Y00781287
X001472Y007812
X001306
X00114
X00180015Y00781287
X00196615
X00213215
X00229815
X00246415
X00263015
X00279615
X00296215
X00312815
X0032903Y00781375
X0034563
X0036223
X0037883
X0039543
X004704Y009138
X004968Y009124
X003334Y009434
X002978Y009472
Y009596
X002282Y009324
X001994Y009256
X001844Y009254
X001254Y009392
X00111Y009394
X00032113Y009322
Y009488
Y009654
Y009156
Y00899
X000642Y007812
X000808
X000974
X00032113Y00582815
X00032113Y00982
Y00998215
Y01014815
Y01031415
Y01048015
Y01064615
Y011472
Y011638
Y011804
Y01197
Y012136
Y012302
Y01246415
Y01263015
Y01279615
Y01296215
Y01312815
X00114Y012396
X001902Y012148
X002118Y012348
X002122Y013354
X002254Y013398
X0022219Y013503
X002574Y01344
X002688
X002558Y012976
X002978Y013078
X00306Y012462
X003306Y012466
X0039813Y012198
X00417Y012378
X004296Y012372
X004358Y013104
X004386Y013356
X004404Y011444
X004578Y011018
X004694Y011012
X004452Y01053
X004437Y010274
X004044Y010578
X003738Y01108
X002788Y011036
X002776Y01135
X00304Y01142
X003178Y010482
X00238Y010114
X002054Y010354
X001898Y0106
X001688Y01056
X00169Y010448
X001656Y01106
X002166Y010924
X001086Y010514
X00159Y013544
X005246Y012366
X005746Y012634
X006552Y013193
X007262Y012756
X007936Y012766
X008224Y012828
X00790058Y01234549
X00791058Y01164749
X00851Y0117
X008496Y011212
X008502Y0107
X008496Y010204
X007888Y009876
X007698Y009938
X007902Y010746
X006994Y010386
X006852
X006536Y010182
X006534Y010056
X005844Y009942
X008492Y0122
X00924305Y01213447
X00923505Y01197247
X00945705Y01203447
X009692Y011924
X009798Y011742
X010238Y011752
X01050591Y01174517
X01072391Y01174317
X010336Y012174
X010464Y012526
X010576
X009794Y01254
X009628
X009462
X009296
X00928505Y01164447
X00929105Y01151647
X00925905Y01115847
X00926Y011008
X00942Y01064
X009422Y010492
X009648Y010532
X009646Y010726
X009874Y01075
X009876Y010488
X009874Y010074
X009512Y010046
X00934
X010238Y01021
X010334Y009956
X01014Y010934
X010878Y010666
X011452Y01067
X01173Y010736
X011726Y010598
X011734Y010934
X011736Y01177
X011902
X012068
X012234
X01235191Y01226317
X012922Y012202
X01134991Y01226317
X01135005Y01204676
X012404Y013364
X01339691Y01324224
X01356291
X01382858Y01302349
X01415858Y01300549
X014016Y012406
X01408691Y01168224
X01392091
X01359891
X01343291
X013432Y010958
X013598
X013764
X01446Y01097
X01459
Y010804
X01446
X01456Y010594
X01456336Y0103593
X01486309Y01154976
X01502909
X01513691Y01218624
X01530291
X013488Y009934
X013216Y0102
X012948Y01420313
X013096Y01496687
X013262
X013428
X013594
X01376
X013926
X01408815
X01425415
X01442015
X01458615
X01475215
X015048Y01623
Y016396
Y01656048
Y01672648
X01546Y016392
Y016226
X014286Y016216
Y016382
X013776Y016378
Y016212
X013008Y01614
X013216Y0175
X013488Y017234
X01456336Y0176593
X012926Y016256
X012844Y016138
X012438
X01244Y016264
X01193Y016174
X011764
X011598
X010958Y016488
X010792
X010626
X010338Y016224
X010238Y01678
X010334Y017256
X010238Y01751
X009874Y017374
X009512Y017346
X00934
X009238Y016312
X009072
X008998Y01496687
X00916015
X00932615
X00949215
X00965815
X00982415
X01057
X010736
X010902
X011068
X011234
X0114
X01156215
X01172815
X01189415
X01206015
X01222615
X012284Y01420313
X012118
X01195585
X01178985
X01162385
X01145785
X01129185
X01245
X012616
X012782
X010016
X00985
X009684
X009518
X009352
X009186
X00902385
X00885785
X00869185
X00852585
X00835985
X008334Y01496687
X0085
X008666
X008832
X008168
X0079Y015958
X00749218Y01595244
X00735018Y01594844
X00721458Y01540149
X00659Y015454
X006424
X006258
X006092
X005926
X005848Y01496687
X006014
X00617615
X00634215
X00650815
X00667415
X00684015
X006768Y01420313
X006602
X006436
X00627
X00610785
X00594185
X00577585
X00560985
X00544385
X005516Y01496687
X005682
X00535
X005184
X00512Y016346
X005036Y01699
X005738Y016654
X006292Y016644
X00645Y016652
X006594Y016656
X00672Y016652
X006534Y017356
X006536Y017482
X006852Y017686
X006994
X007698Y017238
X007888Y017176
X008028Y016832
X008152
X008372Y016984
X008494Y01699
X008496Y017504
X008574Y016312
X00874
X008906
X00611Y016286
X005844Y017242
X006934Y01420313
X0071
X003838
X003672
X003506
X00334
X003174
X003008
X00284585
X00267985
X00251385
X00234785
X00218185
X00213215Y01511287
X00229815
X00246415
X00263015
X00279615
X00296215
X00312815
X0032903Y01511375
X0034563
X0036223
X0037883
X0039543
X00196615Y01511287
X00180015
X00163415
X001472Y015112
X001306
X00114
X00111Y016694
X001254Y016692
X001844Y016554
X001994Y016556
X002282Y016624
X002978Y016772
Y016896
X003334Y016734
X00238Y017414
X002054Y017654
X004437Y017574
X004704Y016438
X004968Y016424
X00032113Y016456
Y016622
Y016788
Y016954
Y01712
Y01728215
Y01744815
Y01761415
Y01629
X000642Y015112
X000808
X000974
X00032113Y01778015
Y01794615
Y018772
Y018938
Y019104
Y01927
Y019436
Y019602
Y01976415
Y01993015
Y02009615
Y02026215
Y02042815
X00114Y019696
X001902Y019448
X002118Y019648
X002122Y020654
X002254Y020698
X0022219Y020803
X002574Y02074
X002688
X002558Y020276
X002978Y020378
X00306Y019762
X003306Y019766
X0039813Y019498
X00417Y019678
X004296Y019672
X004358Y020404
X004386Y020656
X003838Y02150313
X003672
X003506
X00334
X003174
X003008
X00284585
X00267985
X00251385
X00234785
X00218185
X00159Y020844
X001656Y01836
X001688Y01786
X00169Y017748
X001898Y0179
X002166Y018224
X002788Y018336
X002776Y01865
X00304Y01872
X003738Y01838
X004044Y017878
X004452Y01783
X004578Y018318
X004694Y018312
X004404Y018744
X003178Y017782
X001086Y017814
X005246Y019666
X005746Y019934
X006552Y020493
X006602Y02150313
X006436
X00627
X00610785
X00594185
X00577585
X00560985
X00544385
X006768
X006934
X0071
X00835985
X00852585
X00869185
X00885785
X008224Y020128
X007936Y020066
X00790058Y01964549
X00791058Y01894749
X00851Y019
X008496Y018512
X008502Y018
X007902Y018046
X008492Y0195
X007262Y020056
X009296Y01984
X009462
X009628
X009794
X010464Y019826
X010576
X010336Y019474
X010238Y019052
X01050591Y01904517
X01072391Y01904317
X009798Y019042
X009692Y019224
X00945705Y01933447
X00923505Y01927247
X00924305Y01943447
X00928505Y01894447
X00929105Y01881647
X00925905Y01845847
X00926Y018308
X00942Y01794
X009422Y017792
X009648Y017832
X009646Y018026
X009874Y01805
X009876Y017788
X01014Y018234
X010878Y017966
X011452Y01797
X01173Y018036
X011726Y017898
X011734Y018234
X011736Y01907
X011902
X012068
X012234
X01235191Y01956317
X012922Y019502
X01134991Y01956317
X01135005Y01934676
X01129185Y02150313
X01145785
X01162385
X01178985
X01195585
X012118
X012284
X01245
X012616
X012782
X012404Y020664
X010016Y02150313
X00985
X009684
X009518
X009352
X009186
X00902385
X012948
X01339691Y02054224
X01356291
X01382858Y02032349
X01415858Y02030549
X014016Y019706
X01408691Y01898224
X01392091
X01359891
X01343291
X013432Y018258
X013598
X013764
X01446Y01827
X01459
Y018104
X01446
X01456Y017894
X01486308Y01884976
X01502908
X01513691Y01948624
X01530291
X01475215Y02226687
X01458615
X01442015
X01425415
X01408815
X013926
X01376
X013594
X013428
X013262
X013096
X013008Y02344
X013776Y023512
Y023678
X014286Y023682
Y023516
X015048Y02353
Y023696
Y02386048
Y02402648
X01546Y023692
Y023526
X01456335Y0249593
X01456Y025194
X01459Y025404
X01446
Y02557
X01459
X013764Y025558
X013598
X013432
X013216Y0248
X013488Y024534
X012926Y023556
X012844Y023438
X012438
X01244Y023564
X01193Y023474
X011764
X011598
X010958Y023788
X010792
X010626
X010338Y023524
X010238Y02408
X010334Y024556
X010238Y02481
X009874Y024674
X009512Y024646
X00934
X009422Y025092
X00942Y02524
X009646Y025326
X009648Y025132
X009876Y025088
X009874Y02535
X01014Y025534
X00926Y025608
X010878Y025266
X011452Y02527
X01173Y025336
X011726Y025198
X011734Y025534
X01172815Y02226687
X01189415
X01206015
X01222615
X01156215
X0114
X011234
X011068
X010902
X010736
X01057
X00982415
X00965815
X00949215
X00932615
X00916015
X008998
X009072Y023612
X009238
X008906
X00874
X008574
X008494Y02429
X008372Y024284
X008152Y024132
X008028
X007888Y024476
X007698Y024538
X007902Y025346
X008502Y0253
X008496Y024804
X006994Y024986
X006852
X006536Y024782
X006534Y024656
X006594Y023956
X00672Y023952
X00645
X006292Y023944
X00611Y023586
X005738Y023954
X005844Y024542
X005036Y02429
X00512Y023646
X005184Y02226687
X00535
X005516
X005682
X005848
X006014
X00617615
X00634215
X00650815
X00667415
X00684015
X00659Y022754
X006424
X006258
X006092
X005926
X00721458Y02270149
X00735018Y02324844
X00749218Y02325244
X0079Y023258
X008168Y02226687
X008334
X0085
X008666
X008832
X0039543Y02241375
X0037883
X0036223
X0034563
X0032903
X00312815Y02241287
X00296215
X00279615
X00263015
X00246415
X00229815
X00213215
X00196615
X00180015
X00163415
X001472Y022412
X001306
X00114
X00111Y023994
X001254Y023992
X001844Y023854
X001994Y023856
X002282Y023924
X002978Y024072
Y024196
X003334Y024034
X003178Y025082
X002788Y025636
X002166Y025524
X001898Y0252
X001688Y02516
X00169Y025048
X002054Y024954
X00238Y024714
X001086Y025114
X004044Y025178
X004452Y02513
X004437Y024874
X004578Y025618
X004694Y025612
X004704Y023738
X004968Y023724
X00032113Y023756
Y023922
Y024088
Y024254
Y02442
Y02458215
Y02474815
Y02491415
Y02508015
Y02524615
Y02359
X000642Y022412
X000808
X000974
X00032113Y026072
Y026238
Y026404
Y02657
Y026736
Y026902
Y02706415
Y02723015
Y02739615
Y02756215
Y02772815
X00114Y026996
X001902Y026748
X002118Y026948
X002122Y027954
X002254Y027998
X0022219Y028103
X002574Y02804
X002688
X002558Y027576
X002978Y027678
X00306Y027062
X003306Y027066
X0039813Y026798
X00417Y026978
X004296Y026972
X004358Y027704
X004386Y027956
X003838Y02880313
X003672
X003506
X00334
X003174
X003008
X00284585
X00267985
X00251385
X00234785
X00218185
X00159Y028144
X001656Y02566
X002776Y02595
X00304Y02602
X003738Y02568
X004404Y026044
X005246Y026966
X005746Y027234
X006552Y027793
X006602Y02880313
X006436
X00627
X00610785
X00594185
X00577585
X00560985
X00544385
X005516Y02956687
X005682
X005848
X006014
X00617615
X00634215
X00650815
X00667415
X00684015
X006768Y02880313
X006934
X0071
X00835985
X00852585
X00869185
X00885785
X008832Y02956687
X008666
X0085
X008334
X008168
X008224Y027428
X007936Y027366
X00790058Y02694549
X00791058Y02624749
X00851Y0263
X008496Y025812
X008492Y0268
X007262Y027356
X00535Y02956687
X005184
X008998
X00916015
X00932615
X00949215
X00965815
X00982415
X01057
X010736
X010902
X011068
X011234
X0114
X01156215
X01172815
X01189415
X01206015
X01222615
X012284Y02880313
X012118
X01195585
X01178985
X01162385
X01145785
X01129185
X01245
X012616
X012782
X012404Y027964
X01235191Y02686317
X012234Y02637
X012068
X011902
X011736
X01135005Y02664676
X01134991Y02686317
X010576Y027126
X010464
X010336Y026774
X010238Y026352
X01050591Y02634517
X01072391Y02634317
X009798Y026342
X009692Y026524
X00945705Y02663447
X00923505Y02657247
X00924305Y02673447
X009296Y02714
X009462
X009628
X009794
X00928505Y02624447
X00929105Y02611647
X00925905Y02575847
X009186Y02880313
X00902385
X009352
X009518
X009684
X00985
X010016
X012922Y026802
X01343291Y02628224
X01359891
X01392091
X01408691
X014016Y027006
X01415858Y02760549
X01382858Y02762349
X01356291Y02784225
X01339691
X012948Y02880313
X013096Y02956687
X013262
X013428
X013594
X01376
X013926
X01408815
X01425415
X01442015
X01458615
X01475215
X01513691Y02678624
X01530291
X01502908Y02614976
X01486308
X015048Y03083
Y030996
Y03116048
Y03132648
X01546Y030992
Y030826
X014286Y030816
Y030982
X013776Y030978
Y030812
X013008Y03074
X013216Y0321
X013488Y031834
X013432Y032858
X013598
X013764
X01446Y03287
X01459
Y032704
X01446
X01456Y032494
X01456335Y0322593
X01486308Y03344976
X01502908
X011734Y032834
X01173Y032636
X011726Y032498
X011452Y03257
X010878Y032566
X01014Y032834
X009874Y03265
X009646Y032626
X009648Y032432
X009422Y032392
X00942Y03254
X00926Y032908
X00925905Y03305847
X00929105Y03341647
X00928505Y03354447
X00934Y031946
X009512
X009874Y031974
X009876Y032388
X010238Y03211
X010334Y031856
X010238Y03138
X010338Y030824
X010626Y031088
X010792
X010958
X011598Y030774
X011764
X01193
X012438Y030738
X01244Y030864
X012926Y030856
X012844Y030738
X009238Y030912
X009072
X008906
X00874
X008574
X008494Y03159
X008372Y031584
X008152Y031432
X008028
X007888Y031776
X007698Y031838
X007902Y032646
X008502Y0326
X008496Y032104
Y033112
X00791058Y03354749
X006994Y032286
X006852
X006536Y032082
X006534Y031956
X006594Y031256
X00672Y031252
X00645
X006292Y031244
X00611Y030886
X005738Y031254
X005844Y031842
X005036Y03159
X00512Y030946
X005926Y030054
X006092
X006258
X006424
X00659
X00721458Y03000149
X00735018Y03054844
X00749218Y03055244
X0079Y030558
X004968Y031024
X004704Y031038
X004437Y032174
X004452Y03243
X004044Y032478
X003738Y03298
X004578Y032918
X004694Y032912
X004404Y033344
X00304Y03332
X002776Y03325
X002788Y032936
X002166Y032824
X001898Y0325
X001688Y03246
X00169Y032348
X002054Y032254
X00238Y032014
X002282Y031224
X001994Y031156
X001844Y031154
X001254Y031292
X00111Y031294
X001086Y032414
X001656Y03296
X003178Y032382
X002978Y031496
Y031372
X003334Y031334
X0032903Y02971375
X00312815Y02971287
X00296215
X00279615
X00263015
X00246415
X00229815
X00213215
X00196615
X00180015
X00163415
X001472Y029712
X001306
X00114
X0034563Y02971375
X0036223
X0037883
X0039543
X000974Y029712
X000808
X000642
X00032113Y03089
Y031056
Y031222
Y031388
Y031554
Y03172
Y03188215
Y03204815
Y03221415
Y03238015
Y03254615
Y033372
Y033538
Y033704
Y03387
Y034036
Y034202
Y03436415
Y03453015
Y03469615
Y03486215
Y03502815
X00114Y034296
X001902Y034048
X002118Y034248
X002122Y035254
X002254Y035298
X0022219Y035403
X002574Y03534
X002688
X002558Y034876
X002978Y034978
X00306Y034362
X003306Y034366
X0039813Y034098
X00417Y034278
X004296Y034272
X004358Y035004
X004386Y035256
X003838Y03610312
X003672
X003506
X00334
X003174
X003008
X00284585
X00267985
X00251385
X00234785
X00218185
X00159Y035444
X00544385Y03610312
X00560985
X00577585
X00594185
X00610785
X00627
X006436
X006602
X006768
X006934
X0071
X00835985
X00852585
X00869185
X00885785
X008224Y034728
X007936Y034666
X00790058Y03424549
X008492Y0341
X00851Y0336
X007262Y034656
X006552Y035093
X005746Y034534
X005246Y034266
X009296Y03444
X009462
X009628
X009794
X010464Y034426
X010576
X010336Y034074
X010238Y033652
X01050591Y03364517
X01072391Y03364317
X009798Y033642
X009692Y033824
X00945705Y03393447
X00923505Y03387247
X00924305Y03403447
X009186Y03610312
X00902385
X009352
X009518
X009684
X00985
X010016
X01129185
X01145785
X01162385
X01178985
X01195585
X012118
X012284
X01245
X012616
X012782
X012404Y035264
X01235191Y03416317
X012234Y03367
X012068
X011902
X011736
X01135005Y03394676
X01134991Y03416317
X012922Y034102
X01343291Y03358224
X01359891
X01392091
X01408691
X014016Y034306
X01415858Y03490549
X01382858Y03492349
X01356291Y03514224
X01339691
X012948Y03610312
X01513691Y03408624
X01530291
T04
X0053594Y0011684
X0056134
X006262Y00631
X006516
X00677
X007024
X0056134Y0084684
X0053594
X006262Y01361
X006516
X00677
X007024
X0056134Y0157684
X0053594
X006262Y02091
X006516
X00677
X007024
X0056134Y0230684
X0053594
X006262Y02821
X006516
X00677
X007024
X0056134Y0303684
X0053594
X006262Y03551
X006516
X00677
X007024
T05
X0129407Y001046
Y0013
X0131947
Y001046
X0134527
X0137067
Y0013
X0134527
X0139607
Y001046
X0142147
Y0013
X0144727
Y001046
X0147267
Y0013
X0149807
Y001046
X0152347
Y0013
X0154887
Y001046
X0126867
X0124327
Y0013
X0126867
X0121747
X0119207
X0116647
X0114107
X0111567
X0109027
Y001046
X0111567
X0114107
X0116647
X0119187
X0121747
X0106447
X0103907
X0101367
X0098827
Y0013
X0101367
X0103907
X0106447
X0096247
X0093707
Y001046
X0096247
X0041148
Y0013
X0038608
Y001046
X0036068
Y0013
X0033528
Y001046
X0030988
Y0013
X0028408
Y001046
X0025868
Y0013
X0023328
X0020788
Y001046
X0023328
X0018208
Y0013
X0015668
Y001046
X0013128
Y0013
X0010588
Y001046
X0008008
Y0013
X0005468
Y001046
X0129407Y008346
X0131947
Y0086
X0129407
X0134527
X0137067
X0139607
X0142147
Y008346
X0139607
X0137067
X0134527
X0144727
X0147267
X0149807
X0152347
X0154887
Y0086
X0152347
X0149807
X0147267
X0144727
X0126867
Y008346
X0124327
Y0086
X0121747
Y008346
X0119187
X0116647
Y0086
X0114107
Y008346
X0111567
Y0086
X0109027
Y008346
X0106447
Y0086
X0103907
Y008346
X0101367
Y0086
X0098827
Y008346
X0096247
Y0086
X0093707
Y008346
X00932889Y0063789
X00958289
Y0061249
X00932889
X00907089
Y0063789
X0119207Y0086
X00881689Y0063789
Y0061249
X00856289
Y0063789
X00830889
Y0061249
X00805489
Y0063789
X0041148Y008346
X0038608
X0036068
X0033528
X0030988
Y0086
X0033528
X0036068
X0038608
X0041148
X0028408
X0025868
X0023328
Y008346
X0020788
Y0086
X0018208
X0015668
X0013128
X0010588
Y008346
X0013128
X0015668
X0018208
X0025868
X0028408
X0008008
X0005468
Y0086
X0008008
X00805489Y0134249
Y0136789
X00830889
Y0134249
X00856289
Y0136789
X00881689
Y0134249
X00907089
Y0136789
X00932889
Y0134249
X00958289
Y0136789
X0129407Y015646
X0131947
Y0159
X0129407
X0134527
X0137067
X0139607
X0142147
Y015646
X0139607
X0137067
X0134527
X0144727
X0147267
X0149807
X0152347
X0154887
Y0159
X0152347
X0149807
X0147267
X0144727
X0126867
Y015646
X0124327
Y0159
X0121747
Y015646
X0119187
X0116647
Y0159
X0114107
Y015646
X0111567
Y0159
X0109027
Y015646
X0106447
Y0159
X0103907
Y015646
X0101367
Y0159
X0098827
Y015646
X0096247
Y0159
X0093707
Y015646
X0119207Y0159
X0041148
X0038608
X0036068
X0033528
X0030988
Y015646
X0033528
X0036068
X0038608
X0041148
X0028408
X0025868
X0023328
X0020788
Y0159
X0023328
X0025868
X0028408
X0018208
X0015668
X0013128
X0010588
Y015646
X0013128
X0015668
X0018208
X0008008
X0005468
Y0159
X0008008
X00805489Y0207249
Y0209789
X00830889
Y0207249
X00856289
Y0209789
X00881689
Y0207249
X00907089
Y0209789
X00932889
Y0207249
X00958289
Y0209789
X0129407Y022946
X0131947
Y0232
X0129407
X0134527
X0137067
X0139607
X0142147
Y022946
X0139607
X0137067
X0134527
X0144727
X0147267
X0149807
X0152347
X0154887
Y0232
X0152347
X0149807
X0147267
X0144727
X0126867
Y022946
X0124327
Y0232
X0121747
Y022946
X0119187
X0116647
Y0232
X0114107
Y022946
X0111567
Y0232
X0109027
Y022946
X0106447
Y0232
X0103907
Y022946
X0101367
Y0232
X0098827
Y022946
X0096247
Y0232
X0093707
Y022946
X0119207Y0232
X0041148
X0038608
X0036068
X0033528
X0030988
Y022946
X0033528
X0036068
X0038608
X0041148
X0028408
X0025868
X0023328
X0020788
Y0232
X0023328
X0025868
X0028408
X0018208
X0015668
X0013128
X0010588
Y022946
X0013128
X0015668
X0018208
X0008008
X0005468
Y0232
X0008008
X00805489Y0280249
Y0282789
X00830889
Y0280249
X00856289
Y0282789
X00881689
Y0280249
X00907089
Y0282789
X00932889
Y0280249
X00958289
Y0282789
X0129407Y030246
X0131947
Y0305
X0129407
X0134527
X0137067
X0139607
X0142147
Y030246
X0139607
X0137067
X0134527
X0144727
X0147267
X0149807
X0152347
X0154887
Y0305
X0152347
X0149807
X0147267
X0144727
X0126867
Y030246
X0124327
Y0305
X0121747
Y030246
X0119187
X0116647
Y0305
X0114107
Y030246
X0111567
Y0305
X0109027
Y030246
X0106447
Y0305
X0103907
Y030246
X0101367
Y0305
X0098827
Y030246
X0096247
Y0305
X0093707
Y030246
X0119207Y0305
X0041148
X0038608
X0036068
X0033528
X0030988
Y030246
X0033528
X0036068
X0038608
X0041148
X0028408
X0025868
X0023328
X0020788
Y0305
X0023328
X0025868
X0028408
X0018208
X0015668
X0013128
X0010588
Y030246
X0013128
X0015668
X0018208
X0008008
X0005468
Y0305
X0008008
X00805489Y0353249
Y0355789
X00830889
Y0353249
X00856289
Y0355789
X00881689
Y0353249
X00907089
Y0355789
X00932889
Y0353249
X00958289
Y0355789
M30
