G04*
G04 #@! TF.GenerationSoftware,Altium Limited,Altium Designer,25.3.3 (18)*
G04*
G04 Layer_Color=0*
%FSLAX44Y44*%
%MOMM*%
G71*
G04*
G04 #@! TF.SameCoordinates,C1B4E693-D7F7-4543-9357-B74F73BC7D76*
G04*
G04*
G04 #@! TF.FilePolarity,Positive*
G04*
G01*
G75*
%ADD83C,0.0500*%
D83*
X512000Y3241300D02*
Y3278300D01*
X486000Y3241300D02*
X512000D01*
X486000D02*
Y3278300D01*
X512000D01*
X786200Y3205500D02*
X812200D01*
X786200D02*
Y3242500D01*
X812200D01*
Y3205500D02*
Y3242500D01*
X512000Y2511300D02*
Y2548300D01*
X486000Y2511300D02*
X512000D01*
X486000D02*
Y2548300D01*
X512000D01*
X786200Y2475500D02*
X812200D01*
X786200D02*
Y2512500D01*
X812200D01*
Y2475500D02*
Y2512500D01*
X512000Y1781300D02*
Y1818300D01*
X486000Y1781300D02*
X512000D01*
X486000D02*
Y1818300D01*
X512000D01*
X786200Y1745500D02*
X812200D01*
X786200D02*
Y1782500D01*
X812200D01*
Y1745500D02*
Y1782500D01*
X512000Y1051300D02*
Y1088300D01*
X486000Y1051300D02*
X512000D01*
X486000D02*
Y1088300D01*
X512000D01*
X786200Y1015500D02*
X812200D01*
X786200D02*
Y1052500D01*
X812200D01*
Y1015500D02*
Y1052500D01*
X812200Y285500D02*
Y322500D01*
X786200D02*
X812200D01*
X786200Y285500D02*
Y322500D01*
Y285500D02*
X812200D01*
X486000Y358300D02*
X512000D01*
X486000Y321300D02*
Y358300D01*
Y321300D02*
X512000D01*
Y358300D01*
M02*
