G04*
G04 #@! TF.GenerationSoftware,Altium Limited,Altium Designer,25.3.3 (18)*
G04*
G04 Layer_Color=32768*
%FSLAX44Y44*%
%MOMM*%
G71*
G04*
G04 #@! TF.SameCoordinates,C1B4E693-D7F7-4543-9357-B74F73BC7D76*
G04*
G04*
G04 #@! TF.FilePolarity,Positive*
G04*
G01*
G75*
%ADD13C,0.1000*%
%ADD83C,0.0500*%
D13*
X91850Y3211200D02*
X117350Y3211200D01*
Y3197200D02*
Y3211200D01*
X91850Y3197200D02*
X117350D01*
X91850Y3197200D02*
Y3211200D01*
X209950Y3536600D02*
Y3550600D01*
X184450Y3536600D02*
X209950D01*
X184450D02*
Y3550600D01*
Y3550600D02*
X209950Y3550600D01*
X209750Y3227800D02*
Y3241800D01*
X184250Y3227800D02*
X209750D01*
X184250D02*
Y3241800D01*
Y3241800D02*
X209750Y3241800D01*
X240350Y3130800D02*
Y3144800D01*
X214850Y3144800D02*
X240350D01*
X214850Y3130800D02*
Y3144800D01*
Y3130800D02*
X240350Y3130800D01*
X240650Y3197400D02*
Y3211400D01*
X215150Y3211400D02*
X240650D01*
X215150Y3197400D02*
Y3211400D01*
Y3197400D02*
X240650Y3197400D01*
X91850Y3395600D02*
X117350Y3395600D01*
Y3381600D02*
Y3395600D01*
X91850Y3381600D02*
X117350D01*
X91850Y3381600D02*
Y3395600D01*
X240650Y3300880D02*
Y3314880D01*
X215150Y3314880D02*
X240650D01*
X215150Y3300880D02*
Y3314880D01*
Y3300880D02*
X240650Y3300880D01*
X91850Y3313800D02*
Y3327800D01*
Y3313800D02*
X117350D01*
Y3327800D01*
X91850Y3327800D02*
X117350Y3327800D01*
X92850Y3180950D02*
X116350D01*
Y3195450D01*
X92850Y3180950D02*
Y3195450D01*
X116350D01*
X215850Y3146550D02*
X239350D01*
Y3161050D01*
X215850Y3146550D02*
Y3161050D01*
X239350D01*
X208150Y3352250D02*
Y3375750D01*
X222650D01*
X208150Y3352250D02*
X222650D01*
Y3375750D01*
X216150Y3213150D02*
X239650D01*
Y3227650D01*
X216150Y3213150D02*
Y3227650D01*
X239650D01*
X92850Y3365350D02*
X116350D01*
Y3379850D01*
X92850Y3365350D02*
Y3379850D01*
X116350D01*
X216150Y3316550D02*
X239650D01*
Y3331050D01*
X216150Y3316550D02*
Y3331050D01*
X239650D01*
X92850Y3312050D02*
X116350D01*
X92850Y3297550D02*
Y3312050D01*
X116350Y3297550D02*
Y3312050D01*
X92850Y3297550D02*
X116350D01*
X529650Y3440000D02*
Y3454000D01*
Y3454000D02*
X555150D01*
Y3440000D02*
Y3454000D01*
X529650Y3440000D02*
X555150Y3440000D01*
X633400Y3217250D02*
X647400D01*
X633400D02*
Y3242750D01*
X647400D01*
X647400Y3217250D02*
X647400Y3242750D01*
X786800Y3374650D02*
X800800D01*
X786800D02*
Y3400150D01*
X800800D01*
X800800Y3374650D02*
X800800Y3400150D01*
X681800Y3514550D02*
X695800D01*
X681800Y3489050D02*
Y3514550D01*
Y3489050D02*
X695800D01*
X695800Y3514550D02*
X695800Y3489050D01*
X548750Y3073200D02*
Y3087200D01*
X523250Y3073200D02*
X548750D01*
X523250D02*
Y3087200D01*
Y3087200D02*
X548750Y3087200D01*
X418380Y3381200D02*
Y3395200D01*
X392880Y3381200D02*
X418380D01*
X392880D02*
Y3395200D01*
Y3395200D02*
X418380Y3395200D01*
X662200Y3514550D02*
X662200Y3489050D01*
X648200D02*
X662200D01*
X648200D02*
Y3514550D01*
X648200D02*
X662200D01*
X644333D02*
X644333Y3489050D01*
X630333D02*
X644333D01*
X630333D02*
Y3514550D01*
X630333D02*
X644333D01*
X540400Y3332550D02*
X540400Y3307050D01*
X540400Y3332550D02*
X554400D01*
Y3307050D02*
Y3332550D01*
X540400Y3307050D02*
X554400D01*
X710200Y3496350D02*
X724200D01*
X724200Y3470850D02*
Y3496350D01*
X710200Y3470850D02*
X724200D01*
X710200D02*
X710200Y3496350D01*
X530250Y3424000D02*
Y3438000D01*
Y3438000D02*
X555750D01*
Y3424000D02*
Y3438000D01*
X530250Y3424000D02*
X555750Y3424000D01*
X784950Y3356600D02*
Y3370600D01*
X759450Y3356600D02*
X784950D01*
X759450D02*
Y3370600D01*
Y3370600D02*
X784950Y3370600D01*
Y3372020D02*
Y3386020D01*
X759450Y3372020D02*
X784950D01*
X759450D02*
Y3386020D01*
Y3386020D02*
X784950Y3386020D01*
X784940Y3387320D02*
Y3401320D01*
X759440Y3387320D02*
X784940D01*
X759440D02*
Y3401320D01*
Y3401320D02*
X784940Y3401320D01*
X617800Y3217250D02*
X631800D01*
X617800D02*
Y3242750D01*
X631800D01*
X631800Y3217250D02*
X631800Y3242750D01*
X210150Y3382800D02*
Y3396800D01*
X184650Y3382800D02*
X210150D01*
X184650D02*
Y3396800D01*
Y3396800D02*
X210150Y3396800D01*
X298320Y3394840D02*
X323820Y3394840D01*
Y3380840D02*
Y3394840D01*
X298320Y3380840D02*
X323820D01*
X298320Y3380840D02*
Y3394840D01*
X429200Y3504850D02*
X429200Y3530350D01*
X415200D02*
X429200D01*
X415200Y3504850D02*
Y3530350D01*
X415200Y3504850D02*
X429200D01*
X298320Y3327320D02*
X323820Y3327320D01*
Y3313320D02*
Y3327320D01*
X298320Y3313320D02*
X323820D01*
X298320Y3313320D02*
Y3327320D01*
X554480Y3515240D02*
X568480D01*
X568480Y3489740D02*
Y3515240D01*
X554480Y3489740D02*
X568480D01*
X554480D02*
X554480Y3515240D01*
X662750Y3514000D02*
Y3528000D01*
X637250Y3514000D02*
X662750D01*
X637250D02*
Y3528000D01*
Y3528000D02*
X662750Y3528000D01*
X446760Y3269800D02*
Y3283800D01*
X421260Y3283800D02*
X446760D01*
X421260Y3269800D02*
Y3283800D01*
Y3269800D02*
X446760Y3269800D01*
Y3339120D02*
Y3353120D01*
X421260Y3353120D02*
X446760D01*
X421260Y3339120D02*
Y3353120D01*
Y3339120D02*
X446760Y3339120D01*
X298320Y3206650D02*
Y3220650D01*
Y3206650D02*
X323820D01*
Y3220650D01*
X298320Y3220650D02*
X323820Y3220650D01*
X374140Y3156780D02*
X399640Y3156780D01*
X374140Y3156780D02*
Y3170780D01*
X399640D01*
Y3156780D02*
Y3170780D01*
X412400Y3237430D02*
X426400D01*
X426400Y3211930D02*
Y3237430D01*
X412400Y3211930D02*
X426400D01*
X412400D02*
X412400Y3237430D01*
X747200Y3089180D02*
X747200Y3063680D01*
X733200D02*
X747200D01*
X733200D02*
Y3089180D01*
X733200D02*
X747200D01*
X569580Y3198200D02*
X583580D01*
X569580D02*
Y3223700D01*
X583580D01*
X583580Y3198200D02*
X583580Y3223700D01*
X1409650Y3132590D02*
X1435150Y3132590D01*
Y3132590D02*
Y3146590D01*
X1409650D02*
X1435150D01*
X1409650Y3132590D02*
Y3146590D01*
X1326500Y3218160D02*
X1326500Y3243660D01*
X1326500Y3218160D02*
X1340500D01*
Y3243660D01*
X1326500D02*
X1340500D01*
X1212230Y3450460D02*
X1212230Y3475960D01*
X1198230D02*
X1212230D01*
X1198230Y3450460D02*
Y3475960D01*
X1198230Y3450460D02*
X1212230D01*
X1329260Y3205010D02*
X1354760Y3205010D01*
X1329260Y3191010D02*
Y3205010D01*
Y3191010D02*
X1354760D01*
Y3191010D02*
Y3205010D01*
X843300Y3242544D02*
X843300Y3217044D01*
X843300Y3242544D02*
X857300D01*
Y3217044D02*
Y3242544D01*
X843300Y3217044D02*
X857300D01*
X857300Y3192670D02*
X857300Y3167170D01*
X843300D02*
X857300D01*
X843300D02*
Y3192670D01*
X843300D02*
X857300D01*
X1165240Y3460960D02*
X1165240Y3435460D01*
X1151240D02*
X1165240D01*
X1151240D02*
Y3460960D01*
X1151240D02*
X1165240D01*
X843300Y3442040D02*
X857300D01*
X857300Y3416540D02*
Y3442040D01*
X843300Y3416540D02*
X857300D01*
X843300D02*
X843300Y3442040D01*
X1458031Y3173350D02*
X1483531Y3173350D01*
Y3173350D02*
Y3187350D01*
X1458031D02*
X1483531D01*
X1458031Y3173350D02*
Y3187350D01*
X1352800Y3176850D02*
X1366800D01*
X1366800D02*
Y3202350D01*
X1352800D02*
X1366800D01*
X1352800D02*
X1352800Y3176850D01*
X1487530Y3189760D02*
Y3230260D01*
X1469030D02*
X1487530D01*
X1469030D02*
X1469030Y3189760D01*
X1487530D01*
X1449690Y3192760D02*
X1449690Y3218260D01*
X1449690Y3192760D02*
X1463690D01*
Y3218260D01*
X1449690D02*
X1463690D01*
X1447390Y3450460D02*
X1447390Y3475960D01*
X1447390Y3450460D02*
X1461390D01*
Y3475960D01*
X1447390D02*
X1461390D01*
X1198230Y3384660D02*
X1198230Y3410160D01*
X1198230Y3384660D02*
X1212230D01*
Y3410160D01*
X1198230D02*
X1212230D01*
X1054050Y3437310D02*
X1079550Y3437310D01*
X1054050Y3423310D02*
Y3437310D01*
Y3423310D02*
X1079550D01*
Y3423310D02*
Y3437310D01*
X1152050Y3115780D02*
X1177550Y3115780D01*
X1152050Y3101780D02*
Y3115780D01*
Y3101780D02*
X1177550D01*
Y3101780D02*
Y3115780D01*
X1196570Y3124828D02*
X1237070D01*
X1196570Y3106328D02*
Y3124828D01*
Y3106328D02*
X1237070Y3106328D01*
Y3124828D01*
X1196570Y3147688D02*
X1237070D01*
X1196570Y3129188D02*
Y3147688D01*
Y3129188D02*
X1237070Y3129189D01*
Y3147688D01*
X1057860Y3205360D02*
X1083360Y3205360D01*
X1057860Y3191360D02*
Y3205360D01*
Y3191360D02*
X1083360D01*
Y3191360D02*
Y3205360D01*
X1423020Y3460960D02*
X1423020Y3435460D01*
X1423020Y3460960D02*
X1437020D01*
Y3435460D02*
Y3460960D01*
X1423020Y3435460D02*
X1437020D01*
X639430Y3138270D02*
X653430D01*
X639430D02*
Y3163770D01*
X653430D01*
X653430Y3138270D02*
X653430Y3163770D01*
X657500Y3135270D02*
Y3175770D01*
Y3135270D02*
X676000D01*
X676000Y3175770D02*
X676000Y3135270D01*
X657500Y3175770D02*
X676000D01*
X843300Y3442040D02*
X857300D01*
X843300Y3416540D02*
Y3442040D01*
Y3416540D02*
X857300D01*
X857300Y3442040D02*
X857300Y3416540D01*
X781600Y3163570D02*
X795600D01*
X795600Y3138070D02*
Y3163570D01*
X781600Y3138070D02*
X795600D01*
X781600D02*
X781600Y3163570D01*
X777460Y3135070D02*
Y3175570D01*
X758960D02*
X777460D01*
X758960D02*
X758960Y3135070D01*
X777460D01*
X1178610Y3400680D02*
Y3414680D01*
X1153110Y3414680D02*
X1178610D01*
X1153110Y3400680D02*
Y3414680D01*
Y3400680D02*
X1178610Y3400680D01*
X842800Y3292418D02*
X856800D01*
X856800Y3266918D02*
Y3292418D01*
X842800Y3266918D02*
X856800D01*
X842800D02*
X842800Y3292418D01*
X1181050Y3437310D02*
X1206550Y3437310D01*
X1181050Y3423310D02*
Y3437310D01*
Y3423310D02*
X1206550D01*
Y3423310D02*
Y3437310D01*
X842800Y3242544D02*
X856800D01*
X856800Y3217044D02*
Y3242544D01*
X842800Y3217044D02*
X856800D01*
X842800D02*
X842800Y3242544D01*
X1229980Y3152360D02*
X1229980Y3177860D01*
X1229980Y3152360D02*
X1243980D01*
Y3177860D01*
X1229980D02*
X1243980D01*
X1213210Y3190110D02*
Y3230610D01*
X1194710D02*
X1213210D01*
X1194710D02*
X1194710Y3190110D01*
X1213210D01*
X1177910Y3193110D02*
X1177910Y3218610D01*
X1177910Y3193110D02*
X1191910D01*
Y3218610D01*
X1177910D02*
X1191910D01*
X1461390Y3384660D02*
X1461390Y3410160D01*
X1447390D02*
X1461390D01*
X1447390Y3384660D02*
Y3410160D01*
X1447390Y3384660D02*
X1461390D01*
X1050910Y3244010D02*
X1064910D01*
X1064910Y3218510D02*
Y3244010D01*
X1050910Y3218510D02*
X1064910D01*
X1050910D02*
X1050910Y3244010D01*
X759210Y3020540D02*
X777710D01*
X759210Y3061040D02*
X759210Y3020540D01*
X759210Y3061040D02*
X777710D01*
Y3020540D02*
Y3061040D01*
X783340Y3020540D02*
X801840D01*
X783340Y3061040D02*
X783340Y3020540D01*
X783340Y3061040D02*
X801840D01*
Y3020540D02*
Y3061040D01*
X831310Y3048460D02*
X845310D01*
X845310Y3022960D02*
Y3048460D01*
X831310Y3022960D02*
X845310D01*
X831310D02*
X831310Y3048460D01*
X809720D02*
X823720D01*
X823720Y3022960D02*
Y3048460D01*
X809720Y3022960D02*
X823720D01*
X809720D02*
X809720Y3048460D01*
X595090Y3024230D02*
X609090D01*
X595090D02*
Y3049730D01*
X609090D01*
X609090Y3024230D02*
X609090Y3049730D01*
X612870Y3024230D02*
X626870D01*
X612870D02*
Y3049730D01*
X626870D01*
X626870Y3024230D02*
X626870Y3049730D01*
X632210Y3064850D02*
X650710D01*
X650710Y3024350D01*
X632210D02*
X650710D01*
X632210D02*
Y3064850D01*
X655070D02*
X673570D01*
X673570Y3024350D01*
X655070D02*
X673570D01*
X655070D02*
Y3064850D01*
X1335390Y3450460D02*
X1335390Y3475960D01*
X1335390Y3450460D02*
X1349390D01*
Y3475960D01*
X1335390D02*
X1349390D01*
X1429970Y3397010D02*
X1455470Y3397010D01*
Y3383010D02*
Y3397010D01*
X1429970Y3383010D02*
X1455470D01*
X1429970Y3383010D02*
Y3397010D01*
X843300Y3292418D02*
X857300D01*
X843300Y3266918D02*
Y3292418D01*
Y3266918D02*
X857300D01*
X857300Y3292418D02*
X857300Y3266918D01*
X843300Y3167170D02*
X843300Y3192670D01*
X843300Y3167170D02*
X857300D01*
Y3192670D01*
X843300D02*
X857300D01*
X1044700Y3180780D02*
X1058700D01*
X1058700D02*
Y3206280D01*
X1044700D02*
X1058700D01*
X1044700D02*
X1044700Y3180780D01*
X843300Y3392166D02*
X843300Y3366666D01*
X843300Y3392166D02*
X857300D01*
Y3366666D02*
Y3392166D01*
X843300Y3366666D02*
X857300D01*
X1357040Y3412564D02*
X1382540Y3412564D01*
Y3398564D02*
Y3412564D01*
X1357040Y3398564D02*
X1382540D01*
X1357040Y3398564D02*
Y3412564D01*
X1044560Y3450460D02*
X1044560Y3475960D01*
X1044560Y3450460D02*
X1058560D01*
Y3475960D01*
X1044560D02*
X1058560D01*
X1357040Y3382052D02*
X1382540Y3382052D01*
X1357040Y3382052D02*
Y3396052D01*
X1382540D01*
Y3382052D02*
Y3396052D01*
X857300Y3342292D02*
X857300Y3316792D01*
X843300D02*
X857300D01*
X843300D02*
Y3342292D01*
X843300D02*
X857300D01*
X1046430Y3473100D02*
X1071930Y3473100D01*
Y3459100D02*
Y3473100D01*
X1046430Y3459100D02*
X1071930D01*
X1046430Y3459100D02*
Y3473100D01*
X843300Y3366666D02*
X843300Y3392166D01*
X843300Y3366666D02*
X857300D01*
Y3392166D01*
X843300D02*
X857300D01*
X1061800Y3437850D02*
X1075800D01*
X1061800Y3412350D02*
Y3437850D01*
Y3412350D02*
X1075800D01*
X1075800Y3437850D02*
X1075800Y3412350D01*
X843300Y3342292D02*
X857300D01*
X857300Y3316792D02*
Y3342292D01*
X843300Y3316792D02*
X857300D01*
X843300D02*
X843300Y3342292D01*
X299320Y3364880D02*
X322820D01*
Y3379380D01*
X299320Y3364880D02*
Y3379380D01*
X322820D01*
X603450Y3471750D02*
X626950D01*
X603450D02*
Y3486250D01*
X626950Y3471750D02*
Y3486250D01*
X603450D02*
X626950D01*
X736250Y3515350D02*
X759750D01*
X736250D02*
Y3529850D01*
X759750Y3515350D02*
Y3529850D01*
X736250D02*
X759750D01*
X299320Y3297560D02*
X322820D01*
Y3312060D01*
X299320Y3297560D02*
Y3312060D01*
X322820D01*
X735850Y3498950D02*
X759350D01*
X735850D02*
Y3513450D01*
X759350Y3498950D02*
Y3513450D01*
X735850D02*
X759350D01*
X422260Y3285660D02*
X445760D01*
Y3300160D01*
X422260Y3285660D02*
Y3300160D01*
X445760D01*
X422260Y3354980D02*
X445760D01*
Y3369480D01*
X422260Y3354980D02*
Y3369480D01*
X445760D01*
X299320Y3204390D02*
X322820D01*
X299320Y3189890D02*
Y3204390D01*
X322820Y3189890D02*
Y3204390D01*
X299320Y3189890D02*
X322820D01*
X763430Y3064680D02*
Y3088180D01*
Y3064680D02*
X777930D01*
X763430Y3088180D02*
X777930D01*
Y3064680D02*
Y3088180D01*
X746920Y3064680D02*
Y3088180D01*
Y3064680D02*
X761420D01*
X746920Y3088180D02*
X761420D01*
Y3064680D02*
Y3088180D01*
X375140Y3186270D02*
X398640D01*
X375140Y3171770D02*
Y3186270D01*
X398640Y3171770D02*
Y3186270D01*
X375140Y3171770D02*
X398640D01*
X798990Y3064680D02*
Y3088180D01*
Y3064680D02*
X813490D01*
X798990Y3088180D02*
X813490D01*
Y3064680D02*
Y3088180D01*
X781210Y3064680D02*
Y3088180D01*
Y3064680D02*
X795710D01*
X781210Y3088180D02*
X795710D01*
Y3064680D02*
Y3088180D01*
X385250Y3241050D02*
X408750D01*
Y3226550D02*
Y3241050D01*
X385250Y3226550D02*
Y3241050D01*
Y3226550D02*
X408750D01*
X700550Y3064680D02*
Y3088180D01*
Y3064680D02*
X715050D01*
X700550Y3088180D02*
X715050D01*
Y3064680D02*
Y3088180D01*
X731250Y3064680D02*
Y3088180D01*
X716750D02*
X731250D01*
X716750Y3064680D02*
X731250D01*
X716750D02*
Y3088180D01*
X648050Y3064680D02*
Y3088180D01*
X633550D02*
X648050D01*
X633550Y3064680D02*
X648050D01*
X633550D02*
Y3088180D01*
X651750Y3064680D02*
Y3088180D01*
Y3064680D02*
X666250D01*
X651750Y3088180D02*
X666250D01*
Y3064680D02*
Y3088180D01*
X567320Y3199200D02*
Y3222700D01*
X552820Y3199200D02*
X567320D01*
X552820Y3222700D02*
X567320D01*
X552820Y3199200D02*
Y3222700D01*
X465450Y3173800D02*
Y3197300D01*
X450950Y3173800D02*
X465450D01*
X450950Y3197300D02*
X465450D01*
X450950Y3173800D02*
Y3197300D01*
X465450Y3135850D02*
Y3159350D01*
X450950Y3135850D02*
X465450D01*
X450950Y3159350D02*
X465450D01*
X450950Y3135850D02*
Y3159350D01*
X569050Y3138000D02*
Y3161500D01*
X554550Y3138000D02*
X569050D01*
X554550Y3161500D02*
X569050D01*
X554550Y3138000D02*
Y3161500D01*
X554550Y3163250D02*
Y3186750D01*
X569050D01*
X554550Y3163250D02*
X569050D01*
Y3186750D01*
X1342260Y3219160D02*
Y3242660D01*
X1356760D01*
X1342260Y3219160D02*
X1356760D01*
Y3242660D01*
X1410770Y3116020D02*
X1434270D01*
X1410770D02*
Y3130520D01*
X1434270Y3116020D02*
Y3130520D01*
X1410770D02*
X1434270D01*
X498910Y3113410D02*
X522410D01*
X498910D02*
Y3127910D01*
X522410Y3113410D02*
Y3127910D01*
X498910D02*
X522410D01*
X1195970Y3451460D02*
Y3474960D01*
X1181470Y3451460D02*
X1195970D01*
X1181470Y3474960D02*
X1195970D01*
X1181470Y3451460D02*
Y3474960D01*
X1439280Y3120340D02*
Y3143840D01*
X1453780D01*
X1439280Y3120340D02*
X1453780D01*
Y3143840D01*
X1416050Y3177850D02*
Y3201350D01*
X1401550D02*
X1416050D01*
X1401550Y3177850D02*
X1416050D01*
X1401550D02*
Y3201350D01*
X1218830Y3436460D02*
Y3459960D01*
X1204330D02*
X1218830D01*
X1204330Y3436460D02*
X1218830D01*
X1204330D02*
Y3459960D01*
X915130Y3218044D02*
Y3241544D01*
X900630D02*
X915130D01*
X900630Y3218044D02*
X915130D01*
X900630D02*
Y3241544D01*
X915130Y3417540D02*
Y3441040D01*
X900630Y3417540D02*
X915130D01*
X900630Y3441040D02*
X915130D01*
X900630Y3417540D02*
Y3441040D01*
X1385850Y3263650D02*
X1409350D01*
Y3249150D02*
Y3263650D01*
X1385850Y3249150D02*
Y3263650D01*
Y3249150D02*
X1409350D01*
X800670Y3468430D02*
Y3491930D01*
X815170D01*
X800670Y3468430D02*
X815170D01*
Y3491930D01*
X1456031Y3120340D02*
Y3143840D01*
X1470531D01*
X1456031Y3120340D02*
X1470531D01*
Y3143840D01*
X1391950Y3119020D02*
Y3142520D01*
X1406450D01*
X1391950Y3119020D02*
X1406450D01*
Y3142520D01*
X840782Y3468430D02*
Y3491930D01*
X826282Y3468430D02*
X840782D01*
X826282Y3491930D02*
X840782D01*
X826282Y3468430D02*
Y3491930D01*
X1201050Y3436460D02*
Y3459960D01*
X1186550D02*
X1201050D01*
X1186550Y3436460D02*
X1201050D01*
X1186550D02*
Y3459960D01*
X1399883Y3177850D02*
Y3201350D01*
X1385383D02*
X1399883D01*
X1385383Y3177850D02*
X1399883D01*
X1385383D02*
Y3201350D01*
X1183270Y3436460D02*
Y3459960D01*
X1168770D02*
X1183270D01*
X1168770Y3436460D02*
X1183270D01*
X1168770D02*
Y3459960D01*
X849893Y3468430D02*
Y3491930D01*
X864393D01*
X849893Y3468430D02*
X864393D01*
Y3491930D01*
X1459032Y3171090D02*
X1482531D01*
Y3156590D02*
Y3171090D01*
X1459032Y3156590D02*
Y3171090D01*
Y3156590D02*
X1482531D01*
X1383717Y3177850D02*
Y3201350D01*
X1369217D02*
X1383717D01*
X1369217Y3177850D02*
X1383717D01*
X1369217D02*
Y3201350D01*
X875905Y3468430D02*
Y3491930D01*
X890405D01*
X875905Y3468430D02*
X890405D01*
Y3491930D01*
X928728Y3468430D02*
Y3491930D01*
X943228D01*
X928728Y3468430D02*
X943228D01*
Y3491930D01*
X1181470Y3385660D02*
Y3409160D01*
X1195970D01*
X1181470Y3385660D02*
X1195970D01*
Y3409160D01*
X903117Y3468430D02*
Y3491930D01*
X917617D01*
X903117Y3468430D02*
X917617D01*
Y3491930D01*
X954340Y3468430D02*
Y3491930D01*
X968840D01*
X954340Y3468430D02*
X968840D01*
Y3491930D01*
X1465950Y3451460D02*
Y3474960D01*
X1480450D01*
X1465950Y3451460D02*
X1480450D01*
Y3474960D01*
X1208670Y3153360D02*
Y3176860D01*
X1194170Y3153360D02*
X1208670D01*
X1194170Y3176860D02*
X1208670D01*
X1194170Y3153360D02*
Y3176860D01*
X1153050Y3131850D02*
X1176550D01*
Y3117350D02*
Y3131850D01*
X1153050Y3117350D02*
Y3131850D01*
Y3117350D02*
X1176550D01*
X1485530Y3436460D02*
Y3459960D01*
X1471030D02*
X1485530D01*
X1471030Y3436460D02*
X1485530D01*
X1471030D02*
Y3459960D01*
X1183320Y3400430D02*
X1206820D01*
Y3414930D01*
X1183320Y3400430D02*
Y3414930D01*
X1206820D01*
X1469020Y3436460D02*
Y3459960D01*
X1454520D02*
X1469020D01*
X1454520Y3436460D02*
X1469020D01*
X1454520D02*
Y3459960D01*
X914630Y3267918D02*
Y3291418D01*
X900130Y3267918D02*
X914630D01*
X900130Y3291418D02*
X914630D01*
X900130Y3267918D02*
Y3291418D01*
X900630Y3417540D02*
Y3441040D01*
Y3417540D02*
X915130D01*
X900630Y3441040D02*
X915130D01*
Y3417540D02*
Y3441040D01*
X1225180Y3385650D02*
Y3409150D01*
X1210680D02*
X1225180D01*
X1210680Y3385650D02*
X1225180D01*
X1210680D02*
Y3409150D01*
X1183320Y3397150D02*
X1206820D01*
X1183320Y3382650D02*
Y3397150D01*
X1206820Y3382650D02*
Y3397150D01*
X1183320Y3382650D02*
X1206820D01*
X635900Y3139270D02*
Y3162770D01*
X621400Y3139270D02*
X635900D01*
X621400Y3162770D02*
X635900D01*
X621400Y3139270D02*
Y3162770D01*
X1438010Y3436460D02*
Y3459960D01*
Y3436460D02*
X1452510D01*
X1438010Y3459960D02*
X1452510D01*
Y3436460D02*
Y3459960D01*
X1154110Y3382650D02*
X1177610D01*
Y3397150D01*
X1154110Y3382650D02*
Y3397150D01*
X1177610D01*
X1125850Y3148250D02*
X1149350D01*
Y3133750D02*
Y3148250D01*
X1125850Y3133750D02*
Y3148250D01*
Y3133750D02*
X1149350D01*
X1226450Y3153360D02*
Y3176860D01*
X1211950Y3153360D02*
X1226450D01*
X1211950Y3176860D02*
X1226450D01*
X1211950Y3153360D02*
Y3176860D01*
X1247510Y3153360D02*
Y3176860D01*
X1262010D01*
X1247510Y3153360D02*
X1262010D01*
Y3176860D01*
X1480450Y3385660D02*
Y3409160D01*
X1465950Y3385660D02*
X1480450D01*
X1465950Y3409160D02*
X1480450D01*
X1465950Y3385660D02*
Y3409160D01*
X758960Y3066010D02*
X777960D01*
Y3107010D01*
X758960Y3066010D02*
Y3107010D01*
X777960D01*
X1457760Y3382760D02*
X1481260D01*
Y3397260D01*
X1457760Y3382760D02*
Y3397260D01*
X1481260D01*
X1318630Y3451460D02*
Y3474960D01*
X1333130D01*
X1318630Y3451460D02*
X1333130D01*
Y3474960D01*
X1483730Y3370760D02*
Y3394260D01*
Y3370760D02*
X1498230D01*
X1483730Y3394260D02*
X1498230D01*
Y3370760D02*
Y3394260D01*
X1457640Y3366960D02*
X1481140D01*
Y3381460D01*
X1457640Y3366960D02*
Y3381460D01*
X1481140D01*
X1082940Y3219510D02*
Y3243010D01*
X1068440Y3219510D02*
X1082940D01*
X1068440Y3243010D02*
X1082940D01*
X1068440Y3219510D02*
Y3243010D01*
X900630Y3267918D02*
Y3291418D01*
Y3267918D02*
X915130D01*
X900630Y3291418D02*
X915130D01*
Y3267918D02*
Y3291418D01*
X1096520Y3181780D02*
Y3205280D01*
Y3181780D02*
X1111020D01*
X1096520Y3205280D02*
X1111020D01*
Y3181780D02*
Y3205280D01*
X1430970Y3381460D02*
X1454470D01*
X1430970Y3366960D02*
Y3381460D01*
X1454470Y3366960D02*
Y3381460D01*
X1430970Y3366960D02*
X1454470D01*
X1112650Y3263850D02*
X1136150D01*
Y3249350D02*
Y3263850D01*
X1112650Y3249350D02*
Y3263850D01*
Y3249350D02*
X1136150D01*
X1357650Y3462850D02*
X1381150D01*
X1357650Y3448350D02*
Y3462850D01*
X1381150Y3448350D02*
Y3462850D01*
X1357650Y3448350D02*
X1381150D01*
X1080010Y3181780D02*
Y3205280D01*
Y3181780D02*
X1094510D01*
X1080010Y3205280D02*
X1094510D01*
Y3181780D02*
Y3205280D01*
X1340550Y3436050D02*
Y3459550D01*
Y3436050D02*
X1355050D01*
X1340550Y3459550D02*
X1355050D01*
Y3436050D02*
Y3459550D01*
X915130Y3367666D02*
Y3391166D01*
X900630D02*
X915130D01*
X900630Y3367666D02*
X915130D01*
X900630D02*
Y3391166D01*
X1358040Y3446338D02*
X1381540D01*
X1358040Y3431838D02*
Y3446338D01*
X1381540Y3431838D02*
Y3446338D01*
X1358040Y3431838D02*
X1381540D01*
X1062230Y3181780D02*
Y3205280D01*
Y3181780D02*
X1076730D01*
X1062230Y3205280D02*
X1076730D01*
Y3181780D02*
Y3205280D01*
X1358040Y3429826D02*
X1381540D01*
X1358040Y3415326D02*
Y3429826D01*
X1381540Y3415326D02*
Y3429826D01*
X1358040Y3415326D02*
X1381540D01*
X1062090Y3451460D02*
Y3474960D01*
X1076590D01*
X1062090Y3451460D02*
X1076590D01*
Y3474960D01*
X1358040Y3365790D02*
X1381540D01*
Y3380290D01*
X1358040Y3365790D02*
Y3380290D01*
X1381540D01*
X1075370Y3458850D02*
X1098870D01*
Y3473350D01*
X1075370Y3458850D02*
Y3473350D01*
X1098870D01*
X915130Y3317792D02*
Y3341292D01*
X900630D02*
X915130D01*
X900630Y3317792D02*
X915130D01*
X900630D02*
Y3341292D01*
X1115960Y3463240D02*
Y3486740D01*
X1101460D02*
X1115960D01*
X1101460Y3463240D02*
X1115960D01*
X1101460D02*
Y3486740D01*
X1074100Y3475360D02*
X1097600D01*
Y3489860D01*
X1074100Y3475360D02*
Y3489860D01*
X1097600D01*
X900630Y3367666D02*
Y3391166D01*
X915130D01*
X900630Y3367666D02*
X915130D01*
Y3391166D01*
X914630Y3317792D02*
Y3341292D01*
X900130Y3317792D02*
X914630D01*
X900130Y3341292D02*
X914630D01*
X900130Y3317792D02*
Y3341292D01*
X1047830Y3395060D02*
X1071330D01*
Y3409560D01*
X1047830Y3395060D02*
Y3409560D01*
X1071330D01*
X1047430Y3489860D02*
X1070930D01*
X1047430Y3475360D02*
Y3489860D01*
X1070930Y3475360D02*
Y3489860D01*
X1047430Y3475360D02*
X1070930D01*
X1059330Y3413420D02*
Y3436920D01*
X1044830D02*
X1059330D01*
X1044830Y3413420D02*
X1059330D01*
X1044830D02*
Y3436920D01*
X1395810Y3198010D02*
X1405810D01*
X1400810Y3193010D02*
Y3203010D01*
X1130300Y3425310D02*
Y3435310D01*
X1125300Y3430310D02*
X1135300D01*
X712550Y3172520D02*
X722550D01*
X717550Y3167520D02*
Y3177520D01*
X753550Y3129020D02*
Y3216020D01*
X681550Y3129020D02*
Y3216020D01*
X753550D01*
X681550Y3129020D02*
X753550D01*
X680390Y3017610D02*
X752390D01*
X680390Y3104610D02*
X752390D01*
X680390Y3017610D02*
Y3104610D01*
X752390Y3017610D02*
Y3104610D01*
X716390Y3056110D02*
Y3066110D01*
X711390Y3061110D02*
X721390D01*
X552250Y3072400D02*
Y3086400D01*
Y3086400D02*
X577750D01*
Y3072400D02*
Y3086400D01*
X552250Y3072400D02*
X577750Y3072400D01*
X524850Y3054750D02*
X548350D01*
X524850D02*
Y3069250D01*
X548350Y3054750D02*
Y3069250D01*
X524850D02*
X548350D01*
X552130Y3069490D02*
X575630D01*
Y3054990D02*
Y3069490D01*
X552130Y3054990D02*
Y3069490D01*
Y3054990D02*
X575630D01*
X524600Y3332750D02*
X524600Y3307250D01*
X524600Y3332750D02*
X538600D01*
Y3307250D02*
Y3332750D01*
X524600Y3307250D02*
X538600D01*
X1348790Y3423540D02*
Y3437540D01*
X1323290Y3423540D02*
X1348790D01*
X1323290D02*
Y3437540D01*
Y3437540D02*
X1348790Y3437540D01*
X1474640Y3423540D02*
Y3437540D01*
X1449140Y3423540D02*
X1474640D01*
X1449140D02*
Y3437540D01*
Y3437540D02*
X1474640Y3437540D01*
X1130300Y3193360D02*
Y3203360D01*
X1125300Y3198360D02*
X1135300D01*
X914630Y3218044D02*
Y3241544D01*
X900130Y3218044D02*
X914630D01*
X900130Y3241544D02*
X914630D01*
X900130Y3218044D02*
Y3241544D01*
X900630Y3168170D02*
Y3191670D01*
X915130D01*
X900630Y3168170D02*
X915130D01*
Y3191670D01*
X900630Y3168170D02*
Y3191670D01*
Y3168170D02*
X915130D01*
X900630Y3191670D02*
X915130D01*
Y3168170D02*
Y3191670D01*
X1400810Y3425310D02*
Y3435310D01*
X1395810Y3430310D02*
X1405810D01*
X1177550Y3133980D02*
Y3147980D01*
X1152050Y3133980D02*
X1177550D01*
X1152050D02*
Y3147980D01*
Y3147980D02*
X1177550Y3147980D01*
X612800Y3514550D02*
X626800D01*
X612800Y3489050D02*
Y3514550D01*
Y3489050D02*
X626800D01*
X626800Y3514550D02*
X626800Y3489050D01*
X674050Y3248200D02*
X699550Y3248200D01*
X674050Y3248200D02*
Y3262200D01*
X699550D01*
Y3248200D02*
Y3262200D01*
X91850Y2481200D02*
X117350Y2481200D01*
Y2467200D02*
Y2481200D01*
X91850Y2467200D02*
X117350D01*
X91850Y2467200D02*
Y2481200D01*
X209950Y2806600D02*
Y2820600D01*
X184450Y2806600D02*
X209950D01*
X184450D02*
Y2820600D01*
Y2820600D02*
X209950Y2820600D01*
X209750Y2497800D02*
Y2511800D01*
X184250Y2497800D02*
X209750D01*
X184250D02*
Y2511800D01*
Y2511800D02*
X209750Y2511800D01*
X240350Y2400800D02*
Y2414800D01*
X214850Y2414800D02*
X240350D01*
X214850Y2400800D02*
Y2414800D01*
Y2400800D02*
X240350Y2400800D01*
X240650Y2467400D02*
Y2481400D01*
X215150Y2481400D02*
X240650D01*
X215150Y2467400D02*
Y2481400D01*
Y2467400D02*
X240650Y2467400D01*
X91850Y2665600D02*
X117350Y2665600D01*
Y2651600D02*
Y2665600D01*
X91850Y2651600D02*
X117350D01*
X91850Y2651600D02*
Y2665600D01*
X240650Y2570880D02*
Y2584880D01*
X215150Y2584880D02*
X240650D01*
X215150Y2570880D02*
Y2584880D01*
Y2570880D02*
X240650Y2570880D01*
X91850Y2583800D02*
Y2597800D01*
Y2583800D02*
X117350D01*
Y2597800D01*
X91850Y2597800D02*
X117350Y2597800D01*
X92850Y2450950D02*
X116350D01*
Y2465450D01*
X92850Y2450950D02*
Y2465450D01*
X116350D01*
X215850Y2416550D02*
X239350D01*
Y2431050D01*
X215850Y2416550D02*
Y2431050D01*
X239350D01*
X208150Y2622250D02*
Y2645750D01*
X222650D01*
X208150Y2622250D02*
X222650D01*
Y2645750D01*
X216150Y2483150D02*
X239650D01*
Y2497650D01*
X216150Y2483150D02*
Y2497650D01*
X239650D01*
X92850Y2635350D02*
X116350D01*
Y2649850D01*
X92850Y2635350D02*
Y2649850D01*
X116350D01*
X216150Y2586550D02*
X239650D01*
Y2601050D01*
X216150Y2586550D02*
Y2601050D01*
X239650D01*
X92850Y2582050D02*
X116350D01*
X92850Y2567550D02*
Y2582050D01*
X116350Y2567550D02*
Y2582050D01*
X92850Y2567550D02*
X116350D01*
X529650Y2710000D02*
Y2724000D01*
Y2724000D02*
X555150D01*
Y2710000D02*
Y2724000D01*
X529650Y2710000D02*
X555150Y2710000D01*
X633400Y2487250D02*
X647400D01*
X633400D02*
Y2512750D01*
X647400D01*
X647400Y2487250D02*
X647400Y2512750D01*
X786800Y2644650D02*
X800800D01*
X786800D02*
Y2670150D01*
X800800D01*
X800800Y2644650D02*
X800800Y2670150D01*
X681800Y2784550D02*
X695800D01*
X681800Y2759050D02*
Y2784550D01*
Y2759050D02*
X695800D01*
X695800Y2784550D02*
X695800Y2759050D01*
X548750Y2343200D02*
Y2357200D01*
X523250Y2343200D02*
X548750D01*
X523250D02*
Y2357200D01*
Y2357200D02*
X548750Y2357200D01*
X418380Y2651200D02*
Y2665200D01*
X392880Y2651200D02*
X418380D01*
X392880D02*
Y2665200D01*
Y2665200D02*
X418380Y2665200D01*
X662200Y2784550D02*
X662200Y2759050D01*
X648200D02*
X662200D01*
X648200D02*
Y2784550D01*
X648200D02*
X662200D01*
X644333D02*
X644333Y2759050D01*
X630333D02*
X644333D01*
X630333D02*
Y2784550D01*
X630333D02*
X644333D01*
X540400Y2602550D02*
X540400Y2577050D01*
X540400Y2602550D02*
X554400D01*
Y2577050D02*
Y2602550D01*
X540400Y2577050D02*
X554400D01*
X710200Y2766350D02*
X724200D01*
X724200Y2740850D02*
Y2766350D01*
X710200Y2740850D02*
X724200D01*
X710200D02*
X710200Y2766350D01*
X530250Y2694000D02*
Y2708000D01*
Y2708000D02*
X555750D01*
Y2694000D02*
Y2708000D01*
X530250Y2694000D02*
X555750Y2694000D01*
X784950Y2626600D02*
Y2640600D01*
X759450Y2626600D02*
X784950D01*
X759450D02*
Y2640600D01*
Y2640600D02*
X784950Y2640600D01*
Y2642020D02*
Y2656020D01*
X759450Y2642020D02*
X784950D01*
X759450D02*
Y2656020D01*
Y2656020D02*
X784950Y2656020D01*
X784940Y2657320D02*
Y2671320D01*
X759440Y2657320D02*
X784940D01*
X759440D02*
Y2671320D01*
Y2671320D02*
X784940Y2671320D01*
X617800Y2487250D02*
X631800D01*
X617800D02*
Y2512750D01*
X631800D01*
X631800Y2487250D02*
X631800Y2512750D01*
X210150Y2652800D02*
Y2666800D01*
X184650Y2652800D02*
X210150D01*
X184650D02*
Y2666800D01*
Y2666800D02*
X210150Y2666800D01*
X298320Y2664840D02*
X323820Y2664840D01*
Y2650840D02*
Y2664840D01*
X298320Y2650840D02*
X323820D01*
X298320Y2650840D02*
Y2664840D01*
X429200Y2774850D02*
X429200Y2800350D01*
X415200D02*
X429200D01*
X415200Y2774850D02*
Y2800350D01*
X415200Y2774850D02*
X429200D01*
X298320Y2597320D02*
X323820Y2597320D01*
Y2583320D02*
Y2597320D01*
X298320Y2583320D02*
X323820D01*
X298320Y2583320D02*
Y2597320D01*
X554480Y2785240D02*
X568480D01*
X568480Y2759740D02*
Y2785240D01*
X554480Y2759740D02*
X568480D01*
X554480D02*
X554480Y2785240D01*
X662750Y2784000D02*
Y2798000D01*
X637250Y2784000D02*
X662750D01*
X637250D02*
Y2798000D01*
Y2798000D02*
X662750Y2798000D01*
X446760Y2539800D02*
Y2553800D01*
X421260Y2553800D02*
X446760D01*
X421260Y2539800D02*
Y2553800D01*
Y2539800D02*
X446760Y2539800D01*
Y2609120D02*
Y2623120D01*
X421260Y2623120D02*
X446760D01*
X421260Y2609120D02*
Y2623120D01*
Y2609120D02*
X446760Y2609120D01*
X298320Y2476650D02*
Y2490650D01*
Y2476650D02*
X323820D01*
Y2490650D01*
X298320Y2490650D02*
X323820Y2490650D01*
X374140Y2426780D02*
X399640Y2426780D01*
X374140Y2426780D02*
Y2440780D01*
X399640D01*
Y2426780D02*
Y2440780D01*
X412400Y2507430D02*
X426400D01*
X426400Y2481930D02*
Y2507430D01*
X412400Y2481930D02*
X426400D01*
X412400D02*
X412400Y2507430D01*
X747200Y2359180D02*
X747200Y2333680D01*
X733200D02*
X747200D01*
X733200D02*
Y2359180D01*
X733200D02*
X747200D01*
X569580Y2468200D02*
X583580D01*
X569580D02*
Y2493700D01*
X583580D01*
X583580Y2468200D02*
X583580Y2493700D01*
X1409650Y2402590D02*
X1435150Y2402590D01*
Y2402590D02*
Y2416590D01*
X1409650D02*
X1435150D01*
X1409650Y2402590D02*
Y2416590D01*
X1326500Y2488160D02*
X1326500Y2513660D01*
X1326500Y2488160D02*
X1340500D01*
Y2513660D01*
X1326500D02*
X1340500D01*
X1212230Y2720460D02*
X1212230Y2745960D01*
X1198230D02*
X1212230D01*
X1198230Y2720460D02*
Y2745960D01*
X1198230Y2720460D02*
X1212230D01*
X1329260Y2475010D02*
X1354760Y2475010D01*
X1329260Y2461010D02*
Y2475010D01*
Y2461010D02*
X1354760D01*
Y2461010D02*
Y2475010D01*
X843300Y2512544D02*
X843300Y2487044D01*
X843300Y2512544D02*
X857300D01*
Y2487044D02*
Y2512544D01*
X843300Y2487044D02*
X857300D01*
X857300Y2462670D02*
X857300Y2437170D01*
X843300D02*
X857300D01*
X843300D02*
Y2462670D01*
X843300D02*
X857300D01*
X1165240Y2730960D02*
X1165240Y2705460D01*
X1151240D02*
X1165240D01*
X1151240D02*
Y2730960D01*
X1151240D02*
X1165240D01*
X843300Y2712040D02*
X857300D01*
X857300Y2686540D02*
Y2712040D01*
X843300Y2686540D02*
X857300D01*
X843300D02*
X843300Y2712040D01*
X1458031Y2443350D02*
X1483531Y2443350D01*
Y2443350D02*
Y2457350D01*
X1458031D02*
X1483531D01*
X1458031Y2443350D02*
Y2457350D01*
X1352800Y2446850D02*
X1366800D01*
X1366800D02*
Y2472350D01*
X1352800D02*
X1366800D01*
X1352800D02*
X1352800Y2446850D01*
X1487530Y2459760D02*
Y2500260D01*
X1469030D02*
X1487530D01*
X1469030D02*
X1469030Y2459760D01*
X1487530D01*
X1449690Y2462760D02*
X1449690Y2488260D01*
X1449690Y2462760D02*
X1463690D01*
Y2488260D01*
X1449690D02*
X1463690D01*
X1447390Y2720460D02*
X1447390Y2745960D01*
X1447390Y2720460D02*
X1461390D01*
Y2745960D01*
X1447390D02*
X1461390D01*
X1198230Y2654660D02*
X1198230Y2680160D01*
X1198230Y2654660D02*
X1212230D01*
Y2680160D01*
X1198230D02*
X1212230D01*
X1054050Y2707310D02*
X1079550Y2707310D01*
X1054050Y2693310D02*
Y2707310D01*
Y2693310D02*
X1079550D01*
Y2693310D02*
Y2707310D01*
X1152050Y2385780D02*
X1177550Y2385780D01*
X1152050Y2371780D02*
Y2385780D01*
Y2371780D02*
X1177550D01*
Y2371780D02*
Y2385780D01*
X1196570Y2394828D02*
X1237070D01*
X1196570Y2376328D02*
Y2394828D01*
Y2376328D02*
X1237070Y2376328D01*
Y2394828D01*
X1196570Y2417688D02*
X1237070D01*
X1196570Y2399188D02*
Y2417688D01*
Y2399188D02*
X1237070Y2399188D01*
Y2417688D01*
X1057860Y2475360D02*
X1083360Y2475360D01*
X1057860Y2461360D02*
Y2475360D01*
Y2461360D02*
X1083360D01*
Y2461360D02*
Y2475360D01*
X1423020Y2730960D02*
X1423020Y2705460D01*
X1423020Y2730960D02*
X1437020D01*
Y2705460D02*
Y2730960D01*
X1423020Y2705460D02*
X1437020D01*
X639430Y2408270D02*
X653430D01*
X639430D02*
Y2433770D01*
X653430D01*
X653430Y2408270D02*
X653430Y2433770D01*
X657500Y2405270D02*
Y2445770D01*
Y2405270D02*
X676000D01*
X676000Y2445770D02*
X676000Y2405270D01*
X657500Y2445770D02*
X676000D01*
X843300Y2712040D02*
X857300D01*
X843300Y2686540D02*
Y2712040D01*
Y2686540D02*
X857300D01*
X857300Y2712040D02*
X857300Y2686540D01*
X781600Y2433570D02*
X795600D01*
X795600Y2408070D02*
Y2433570D01*
X781600Y2408070D02*
X795600D01*
X781600D02*
X781600Y2433570D01*
X777460Y2405070D02*
Y2445570D01*
X758960D02*
X777460D01*
X758960D02*
X758960Y2405070D01*
X777460D01*
X1178610Y2670680D02*
Y2684680D01*
X1153110Y2684680D02*
X1178610D01*
X1153110Y2670680D02*
Y2684680D01*
Y2670680D02*
X1178610Y2670680D01*
X842800Y2562418D02*
X856800D01*
X856800Y2536918D02*
Y2562418D01*
X842800Y2536918D02*
X856800D01*
X842800D02*
X842800Y2562418D01*
X1181050Y2707310D02*
X1206550Y2707310D01*
X1181050Y2693310D02*
Y2707310D01*
Y2693310D02*
X1206550D01*
Y2693310D02*
Y2707310D01*
X842800Y2512544D02*
X856800D01*
X856800Y2487044D02*
Y2512544D01*
X842800Y2487044D02*
X856800D01*
X842800D02*
X842800Y2512544D01*
X1229980Y2422360D02*
X1229980Y2447860D01*
X1229980Y2422360D02*
X1243980D01*
Y2447860D01*
X1229980D02*
X1243980D01*
X1213210Y2460110D02*
Y2500610D01*
X1194710D02*
X1213210D01*
X1194710D02*
X1194710Y2460110D01*
X1213210D01*
X1177910Y2463110D02*
X1177910Y2488610D01*
X1177910Y2463110D02*
X1191910D01*
Y2488610D01*
X1177910D02*
X1191910D01*
X1461390Y2654660D02*
X1461390Y2680160D01*
X1447390D02*
X1461390D01*
X1447390Y2654660D02*
Y2680160D01*
X1447390Y2654660D02*
X1461390D01*
X1050910Y2514010D02*
X1064910D01*
X1064910Y2488510D02*
Y2514010D01*
X1050910Y2488510D02*
X1064910D01*
X1050910D02*
X1050910Y2514010D01*
X759210Y2290540D02*
X777710D01*
X759210Y2331040D02*
X759210Y2290540D01*
X759210Y2331040D02*
X777710D01*
Y2290540D02*
Y2331040D01*
X783340Y2290540D02*
X801840D01*
X783340Y2331040D02*
X783340Y2290540D01*
X783340Y2331040D02*
X801840D01*
Y2290540D02*
Y2331040D01*
X831310Y2318460D02*
X845310D01*
X845310Y2292960D02*
Y2318460D01*
X831310Y2292960D02*
X845310D01*
X831310D02*
X831310Y2318460D01*
X809720D02*
X823720D01*
X823720Y2292960D02*
Y2318460D01*
X809720Y2292960D02*
X823720D01*
X809720D02*
X809720Y2318460D01*
X595090Y2294230D02*
X609090D01*
X595090D02*
Y2319730D01*
X609090D01*
X609090Y2294230D02*
X609090Y2319730D01*
X612870Y2294230D02*
X626870D01*
X612870D02*
Y2319730D01*
X626870D01*
X626870Y2294230D02*
X626870Y2319730D01*
X632210Y2334850D02*
X650710D01*
X650710Y2294350D01*
X632210D02*
X650710D01*
X632210D02*
Y2334850D01*
X655070D02*
X673570D01*
X673570Y2294350D01*
X655070D02*
X673570D01*
X655070D02*
Y2334850D01*
X1335390Y2720460D02*
X1335390Y2745960D01*
X1335390Y2720460D02*
X1349390D01*
Y2745960D01*
X1335390D02*
X1349390D01*
X1429970Y2667010D02*
X1455470Y2667010D01*
Y2653010D02*
Y2667010D01*
X1429970Y2653010D02*
X1455470D01*
X1429970Y2653010D02*
Y2667010D01*
X843300Y2562418D02*
X857300D01*
X843300Y2536918D02*
Y2562418D01*
Y2536918D02*
X857300D01*
X857300Y2562418D02*
X857300Y2536918D01*
X843300Y2437170D02*
X843300Y2462670D01*
X843300Y2437170D02*
X857300D01*
Y2462670D01*
X843300D02*
X857300D01*
X1044700Y2450780D02*
X1058700D01*
X1058700D02*
Y2476280D01*
X1044700D02*
X1058700D01*
X1044700D02*
X1044700Y2450780D01*
X843300Y2662166D02*
X843300Y2636666D01*
X843300Y2662166D02*
X857300D01*
Y2636666D02*
Y2662166D01*
X843300Y2636666D02*
X857300D01*
X1357040Y2682564D02*
X1382540Y2682564D01*
Y2668564D02*
Y2682564D01*
X1357040Y2668564D02*
X1382540D01*
X1357040Y2668564D02*
Y2682564D01*
X1044560Y2720460D02*
X1044560Y2745960D01*
X1044560Y2720460D02*
X1058560D01*
Y2745960D01*
X1044560D02*
X1058560D01*
X1357040Y2652052D02*
X1382540Y2652052D01*
X1357040Y2652052D02*
Y2666052D01*
X1382540D01*
Y2652052D02*
Y2666052D01*
X857300Y2612292D02*
X857300Y2586792D01*
X843300D02*
X857300D01*
X843300D02*
Y2612292D01*
X843300D02*
X857300D01*
X1046430Y2743100D02*
X1071930Y2743100D01*
Y2729100D02*
Y2743100D01*
X1046430Y2729100D02*
X1071930D01*
X1046430Y2729100D02*
Y2743100D01*
X843300Y2636666D02*
X843300Y2662166D01*
X843300Y2636666D02*
X857300D01*
Y2662166D01*
X843300D02*
X857300D01*
X1061800Y2707850D02*
X1075800D01*
X1061800Y2682350D02*
Y2707850D01*
Y2682350D02*
X1075800D01*
X1075800Y2707850D02*
X1075800Y2682350D01*
X843300Y2612292D02*
X857300D01*
X857300Y2586792D02*
Y2612292D01*
X843300Y2586792D02*
X857300D01*
X843300D02*
X843300Y2612292D01*
X299320Y2634880D02*
X322820D01*
Y2649380D01*
X299320Y2634880D02*
Y2649380D01*
X322820D01*
X603450Y2741750D02*
X626950D01*
X603450D02*
Y2756250D01*
X626950Y2741750D02*
Y2756250D01*
X603450D02*
X626950D01*
X736250Y2785350D02*
X759750D01*
X736250D02*
Y2799850D01*
X759750Y2785350D02*
Y2799850D01*
X736250D02*
X759750D01*
X299320Y2567560D02*
X322820D01*
Y2582060D01*
X299320Y2567560D02*
Y2582060D01*
X322820D01*
X735850Y2768950D02*
X759350D01*
X735850D02*
Y2783450D01*
X759350Y2768950D02*
Y2783450D01*
X735850D02*
X759350D01*
X422260Y2555660D02*
X445760D01*
Y2570160D01*
X422260Y2555660D02*
Y2570160D01*
X445760D01*
X422260Y2624980D02*
X445760D01*
Y2639480D01*
X422260Y2624980D02*
Y2639480D01*
X445760D01*
X299320Y2474390D02*
X322820D01*
X299320Y2459890D02*
Y2474390D01*
X322820Y2459890D02*
Y2474390D01*
X299320Y2459890D02*
X322820D01*
X763430Y2334680D02*
Y2358180D01*
Y2334680D02*
X777930D01*
X763430Y2358180D02*
X777930D01*
Y2334680D02*
Y2358180D01*
X746920Y2334680D02*
Y2358180D01*
Y2334680D02*
X761420D01*
X746920Y2358180D02*
X761420D01*
Y2334680D02*
Y2358180D01*
X375140Y2456270D02*
X398640D01*
X375140Y2441770D02*
Y2456270D01*
X398640Y2441770D02*
Y2456270D01*
X375140Y2441770D02*
X398640D01*
X798990Y2334680D02*
Y2358180D01*
Y2334680D02*
X813490D01*
X798990Y2358180D02*
X813490D01*
Y2334680D02*
Y2358180D01*
X781210Y2334680D02*
Y2358180D01*
Y2334680D02*
X795710D01*
X781210Y2358180D02*
X795710D01*
Y2334680D02*
Y2358180D01*
X385250Y2511050D02*
X408750D01*
Y2496550D02*
Y2511050D01*
X385250Y2496550D02*
Y2511050D01*
Y2496550D02*
X408750D01*
X700550Y2334680D02*
Y2358180D01*
Y2334680D02*
X715050D01*
X700550Y2358180D02*
X715050D01*
Y2334680D02*
Y2358180D01*
X731250Y2334680D02*
Y2358180D01*
X716750D02*
X731250D01*
X716750Y2334680D02*
X731250D01*
X716750D02*
Y2358180D01*
X648050Y2334680D02*
Y2358180D01*
X633550D02*
X648050D01*
X633550Y2334680D02*
X648050D01*
X633550D02*
Y2358180D01*
X651750Y2334680D02*
Y2358180D01*
Y2334680D02*
X666250D01*
X651750Y2358180D02*
X666250D01*
Y2334680D02*
Y2358180D01*
X567320Y2469200D02*
Y2492700D01*
X552820Y2469200D02*
X567320D01*
X552820Y2492700D02*
X567320D01*
X552820Y2469200D02*
Y2492700D01*
X465450Y2443800D02*
Y2467300D01*
X450950Y2443800D02*
X465450D01*
X450950Y2467300D02*
X465450D01*
X450950Y2443800D02*
Y2467300D01*
X465450Y2405850D02*
Y2429350D01*
X450950Y2405850D02*
X465450D01*
X450950Y2429350D02*
X465450D01*
X450950Y2405850D02*
Y2429350D01*
X569050Y2408000D02*
Y2431500D01*
X554550Y2408000D02*
X569050D01*
X554550Y2431500D02*
X569050D01*
X554550Y2408000D02*
Y2431500D01*
X554550Y2433250D02*
Y2456750D01*
X569050D01*
X554550Y2433250D02*
X569050D01*
Y2456750D01*
X1342260Y2489160D02*
Y2512660D01*
X1356760D01*
X1342260Y2489160D02*
X1356760D01*
Y2512660D01*
X1410770Y2386020D02*
X1434270D01*
X1410770D02*
Y2400520D01*
X1434270Y2386020D02*
Y2400520D01*
X1410770D02*
X1434270D01*
X498910Y2383410D02*
X522410D01*
X498910D02*
Y2397910D01*
X522410Y2383410D02*
Y2397910D01*
X498910D02*
X522410D01*
X1195970Y2721460D02*
Y2744960D01*
X1181470Y2721460D02*
X1195970D01*
X1181470Y2744960D02*
X1195970D01*
X1181470Y2721460D02*
Y2744960D01*
X1439280Y2390340D02*
Y2413840D01*
X1453780D01*
X1439280Y2390340D02*
X1453780D01*
Y2413840D01*
X1416050Y2447850D02*
Y2471350D01*
X1401550D02*
X1416050D01*
X1401550Y2447850D02*
X1416050D01*
X1401550D02*
Y2471350D01*
X1218830Y2706460D02*
Y2729960D01*
X1204330D02*
X1218830D01*
X1204330Y2706460D02*
X1218830D01*
X1204330D02*
Y2729960D01*
X915130Y2488044D02*
Y2511544D01*
X900630D02*
X915130D01*
X900630Y2488044D02*
X915130D01*
X900630D02*
Y2511544D01*
X915130Y2687540D02*
Y2711040D01*
X900630Y2687540D02*
X915130D01*
X900630Y2711040D02*
X915130D01*
X900630Y2687540D02*
Y2711040D01*
X1385850Y2533650D02*
X1409350D01*
Y2519150D02*
Y2533650D01*
X1385850Y2519150D02*
Y2533650D01*
Y2519150D02*
X1409350D01*
X800670Y2738430D02*
Y2761930D01*
X815170D01*
X800670Y2738430D02*
X815170D01*
Y2761930D01*
X1456032Y2390340D02*
Y2413840D01*
X1470532D01*
X1456032Y2390340D02*
X1470532D01*
Y2413840D01*
X1391950Y2389020D02*
Y2412520D01*
X1406450D01*
X1391950Y2389020D02*
X1406450D01*
Y2412520D01*
X840782Y2738430D02*
Y2761930D01*
X826282Y2738430D02*
X840782D01*
X826282Y2761930D02*
X840782D01*
X826282Y2738430D02*
Y2761930D01*
X1201050Y2706460D02*
Y2729960D01*
X1186550D02*
X1201050D01*
X1186550Y2706460D02*
X1201050D01*
X1186550D02*
Y2729960D01*
X1399883Y2447850D02*
Y2471350D01*
X1385383D02*
X1399883D01*
X1385383Y2447850D02*
X1399883D01*
X1385383D02*
Y2471350D01*
X1183270Y2706460D02*
Y2729960D01*
X1168770D02*
X1183270D01*
X1168770Y2706460D02*
X1183270D01*
X1168770D02*
Y2729960D01*
X849893Y2738430D02*
Y2761930D01*
X864393D01*
X849893Y2738430D02*
X864393D01*
Y2761930D01*
X1459032Y2441090D02*
X1482531D01*
Y2426590D02*
Y2441090D01*
X1459032Y2426590D02*
Y2441090D01*
Y2426590D02*
X1482531D01*
X1383717Y2447850D02*
Y2471350D01*
X1369217D02*
X1383717D01*
X1369217Y2447850D02*
X1383717D01*
X1369217D02*
Y2471350D01*
X875905Y2738430D02*
Y2761930D01*
X890405D01*
X875905Y2738430D02*
X890405D01*
Y2761930D01*
X928728Y2738430D02*
Y2761930D01*
X943228D01*
X928728Y2738430D02*
X943228D01*
Y2761930D01*
X1181470Y2655660D02*
Y2679160D01*
X1195970D01*
X1181470Y2655660D02*
X1195970D01*
Y2679160D01*
X903117Y2738430D02*
Y2761930D01*
X917617D01*
X903117Y2738430D02*
X917617D01*
Y2761930D01*
X954340Y2738430D02*
Y2761930D01*
X968840D01*
X954340Y2738430D02*
X968840D01*
Y2761930D01*
X1465950Y2721460D02*
Y2744960D01*
X1480450D01*
X1465950Y2721460D02*
X1480450D01*
Y2744960D01*
X1208670Y2423360D02*
Y2446860D01*
X1194170Y2423360D02*
X1208670D01*
X1194170Y2446860D02*
X1208670D01*
X1194170Y2423360D02*
Y2446860D01*
X1153050Y2401850D02*
X1176550D01*
Y2387350D02*
Y2401850D01*
X1153050Y2387350D02*
Y2401850D01*
Y2387350D02*
X1176550D01*
X1485530Y2706460D02*
Y2729960D01*
X1471030D02*
X1485530D01*
X1471030Y2706460D02*
X1485530D01*
X1471030D02*
Y2729960D01*
X1183320Y2670430D02*
X1206820D01*
Y2684930D01*
X1183320Y2670430D02*
Y2684930D01*
X1206820D01*
X1469020Y2706460D02*
Y2729960D01*
X1454520D02*
X1469020D01*
X1454520Y2706460D02*
X1469020D01*
X1454520D02*
Y2729960D01*
X914630Y2537918D02*
Y2561418D01*
X900130Y2537918D02*
X914630D01*
X900130Y2561418D02*
X914630D01*
X900130Y2537918D02*
Y2561418D01*
X900630Y2687540D02*
Y2711040D01*
Y2687540D02*
X915130D01*
X900630Y2711040D02*
X915130D01*
Y2687540D02*
Y2711040D01*
X1225180Y2655650D02*
Y2679150D01*
X1210680D02*
X1225180D01*
X1210680Y2655650D02*
X1225180D01*
X1210680D02*
Y2679150D01*
X1183320Y2667150D02*
X1206820D01*
X1183320Y2652650D02*
Y2667150D01*
X1206820Y2652650D02*
Y2667150D01*
X1183320Y2652650D02*
X1206820D01*
X635900Y2409270D02*
Y2432770D01*
X621400Y2409270D02*
X635900D01*
X621400Y2432770D02*
X635900D01*
X621400Y2409270D02*
Y2432770D01*
X1438010Y2706460D02*
Y2729960D01*
Y2706460D02*
X1452510D01*
X1438010Y2729960D02*
X1452510D01*
Y2706460D02*
Y2729960D01*
X1154110Y2652650D02*
X1177610D01*
Y2667150D01*
X1154110Y2652650D02*
Y2667150D01*
X1177610D01*
X1125850Y2418250D02*
X1149350D01*
Y2403750D02*
Y2418250D01*
X1125850Y2403750D02*
Y2418250D01*
Y2403750D02*
X1149350D01*
X1226450Y2423360D02*
Y2446860D01*
X1211950Y2423360D02*
X1226450D01*
X1211950Y2446860D02*
X1226450D01*
X1211950Y2423360D02*
Y2446860D01*
X1247510Y2423360D02*
Y2446860D01*
X1262010D01*
X1247510Y2423360D02*
X1262010D01*
Y2446860D01*
X1480450Y2655660D02*
Y2679160D01*
X1465950Y2655660D02*
X1480450D01*
X1465950Y2679160D02*
X1480450D01*
X1465950Y2655660D02*
Y2679160D01*
X758960Y2336010D02*
X777960D01*
Y2377010D01*
X758960Y2336010D02*
Y2377010D01*
X777960D01*
X1457760Y2652760D02*
X1481260D01*
Y2667260D01*
X1457760Y2652760D02*
Y2667260D01*
X1481260D01*
X1318630Y2721460D02*
Y2744960D01*
X1333130D01*
X1318630Y2721460D02*
X1333130D01*
Y2744960D01*
X1483730Y2640760D02*
Y2664260D01*
Y2640760D02*
X1498230D01*
X1483730Y2664260D02*
X1498230D01*
Y2640760D02*
Y2664260D01*
X1457640Y2636960D02*
X1481140D01*
Y2651460D01*
X1457640Y2636960D02*
Y2651460D01*
X1481140D01*
X1082940Y2489510D02*
Y2513010D01*
X1068440Y2489510D02*
X1082940D01*
X1068440Y2513010D02*
X1082940D01*
X1068440Y2489510D02*
Y2513010D01*
X900630Y2537918D02*
Y2561418D01*
Y2537918D02*
X915130D01*
X900630Y2561418D02*
X915130D01*
Y2537918D02*
Y2561418D01*
X1096520Y2451780D02*
Y2475280D01*
Y2451780D02*
X1111020D01*
X1096520Y2475280D02*
X1111020D01*
Y2451780D02*
Y2475280D01*
X1430970Y2651460D02*
X1454470D01*
X1430970Y2636960D02*
Y2651460D01*
X1454470Y2636960D02*
Y2651460D01*
X1430970Y2636960D02*
X1454470D01*
X1112650Y2533850D02*
X1136150D01*
Y2519350D02*
Y2533850D01*
X1112650Y2519350D02*
Y2533850D01*
Y2519350D02*
X1136150D01*
X1357650Y2732850D02*
X1381150D01*
X1357650Y2718350D02*
Y2732850D01*
X1381150Y2718350D02*
Y2732850D01*
X1357650Y2718350D02*
X1381150D01*
X1080010Y2451780D02*
Y2475280D01*
Y2451780D02*
X1094510D01*
X1080010Y2475280D02*
X1094510D01*
Y2451780D02*
Y2475280D01*
X1340550Y2706050D02*
Y2729550D01*
Y2706050D02*
X1355050D01*
X1340550Y2729550D02*
X1355050D01*
Y2706050D02*
Y2729550D01*
X915130Y2637666D02*
Y2661166D01*
X900630D02*
X915130D01*
X900630Y2637666D02*
X915130D01*
X900630D02*
Y2661166D01*
X1358040Y2716338D02*
X1381540D01*
X1358040Y2701838D02*
Y2716338D01*
X1381540Y2701838D02*
Y2716338D01*
X1358040Y2701838D02*
X1381540D01*
X1062230Y2451780D02*
Y2475280D01*
Y2451780D02*
X1076730D01*
X1062230Y2475280D02*
X1076730D01*
Y2451780D02*
Y2475280D01*
X1358040Y2699826D02*
X1381540D01*
X1358040Y2685326D02*
Y2699826D01*
X1381540Y2685326D02*
Y2699826D01*
X1358040Y2685326D02*
X1381540D01*
X1062090Y2721460D02*
Y2744960D01*
X1076590D01*
X1062090Y2721460D02*
X1076590D01*
Y2744960D01*
X1358040Y2635790D02*
X1381540D01*
Y2650290D01*
X1358040Y2635790D02*
Y2650290D01*
X1381540D01*
X1075370Y2728850D02*
X1098870D01*
Y2743350D01*
X1075370Y2728850D02*
Y2743350D01*
X1098870D01*
X915130Y2587792D02*
Y2611292D01*
X900630D02*
X915130D01*
X900630Y2587792D02*
X915130D01*
X900630D02*
Y2611292D01*
X1115960Y2733240D02*
Y2756740D01*
X1101460D02*
X1115960D01*
X1101460Y2733240D02*
X1115960D01*
X1101460D02*
Y2756740D01*
X1074100Y2745360D02*
X1097600D01*
Y2759860D01*
X1074100Y2745360D02*
Y2759860D01*
X1097600D01*
X900630Y2637666D02*
Y2661166D01*
X915130D01*
X900630Y2637666D02*
X915130D01*
Y2661166D01*
X914630Y2587792D02*
Y2611292D01*
X900130Y2587792D02*
X914630D01*
X900130Y2611292D02*
X914630D01*
X900130Y2587792D02*
Y2611292D01*
X1047830Y2665060D02*
X1071330D01*
Y2679560D01*
X1047830Y2665060D02*
Y2679560D01*
X1071330D01*
X1047430Y2759860D02*
X1070930D01*
X1047430Y2745360D02*
Y2759860D01*
X1070930Y2745360D02*
Y2759860D01*
X1047430Y2745360D02*
X1070930D01*
X1059330Y2683420D02*
Y2706920D01*
X1044830D02*
X1059330D01*
X1044830Y2683420D02*
X1059330D01*
X1044830D02*
Y2706920D01*
X1395810Y2468010D02*
X1405810D01*
X1400810Y2463010D02*
Y2473010D01*
X1130300Y2695310D02*
Y2705310D01*
X1125300Y2700310D02*
X1135300D01*
X712550Y2442520D02*
X722550D01*
X717550Y2437520D02*
Y2447520D01*
X753550Y2399020D02*
Y2486020D01*
X681550Y2399020D02*
Y2486020D01*
X753550D01*
X681550Y2399020D02*
X753550D01*
X680390Y2287610D02*
X752390D01*
X680390Y2374610D02*
X752390D01*
X680390Y2287610D02*
Y2374610D01*
X752390Y2287610D02*
Y2374610D01*
X716390Y2326110D02*
Y2336110D01*
X711390Y2331110D02*
X721390D01*
X552250Y2342400D02*
Y2356400D01*
Y2356400D02*
X577750D01*
Y2342400D02*
Y2356400D01*
X552250Y2342400D02*
X577750Y2342400D01*
X524850Y2324750D02*
X548350D01*
X524850D02*
Y2339250D01*
X548350Y2324750D02*
Y2339250D01*
X524850D02*
X548350D01*
X552130Y2339490D02*
X575630D01*
Y2324990D02*
Y2339490D01*
X552130Y2324990D02*
Y2339490D01*
Y2324990D02*
X575630D01*
X524600Y2602750D02*
X524600Y2577250D01*
X524600Y2602750D02*
X538600D01*
Y2577250D02*
Y2602750D01*
X524600Y2577250D02*
X538600D01*
X1348790Y2693540D02*
Y2707540D01*
X1323290Y2693540D02*
X1348790D01*
X1323290D02*
Y2707540D01*
Y2707540D02*
X1348790Y2707540D01*
X1474640Y2693540D02*
Y2707540D01*
X1449140Y2693540D02*
X1474640D01*
X1449140D02*
Y2707540D01*
Y2707540D02*
X1474640Y2707540D01*
X1130300Y2463360D02*
Y2473360D01*
X1125300Y2468360D02*
X1135300D01*
X914630Y2488044D02*
Y2511544D01*
X900130Y2488044D02*
X914630D01*
X900130Y2511544D02*
X914630D01*
X900130Y2488044D02*
Y2511544D01*
X900630Y2438170D02*
Y2461670D01*
X915130D01*
X900630Y2438170D02*
X915130D01*
Y2461670D01*
X900630Y2438170D02*
Y2461670D01*
Y2438170D02*
X915130D01*
X900630Y2461670D02*
X915130D01*
Y2438170D02*
Y2461670D01*
X1400810Y2695310D02*
Y2705310D01*
X1395810Y2700310D02*
X1405810D01*
X1177550Y2403980D02*
Y2417980D01*
X1152050Y2403980D02*
X1177550D01*
X1152050D02*
Y2417980D01*
Y2417980D02*
X1177550Y2417980D01*
X612800Y2784550D02*
X626800D01*
X612800Y2759050D02*
Y2784550D01*
Y2759050D02*
X626800D01*
X626800Y2784550D02*
X626800Y2759050D01*
X674050Y2518200D02*
X699550Y2518200D01*
X674050Y2518200D02*
Y2532200D01*
X699550D01*
Y2518200D02*
Y2532200D01*
X91850Y1751200D02*
X117350Y1751200D01*
Y1737200D02*
Y1751200D01*
X91850Y1737200D02*
X117350D01*
X91850Y1737200D02*
Y1751200D01*
X209950Y2076600D02*
Y2090600D01*
X184450Y2076600D02*
X209950D01*
X184450D02*
Y2090600D01*
Y2090600D02*
X209950Y2090600D01*
X209750Y1767800D02*
Y1781800D01*
X184250Y1767800D02*
X209750D01*
X184250D02*
Y1781800D01*
Y1781800D02*
X209750Y1781800D01*
X240350Y1670800D02*
Y1684800D01*
X214850Y1684800D02*
X240350D01*
X214850Y1670800D02*
Y1684800D01*
Y1670800D02*
X240350Y1670800D01*
X240650Y1737400D02*
Y1751400D01*
X215150Y1751400D02*
X240650D01*
X215150Y1737400D02*
Y1751400D01*
Y1737400D02*
X240650Y1737400D01*
X91850Y1935600D02*
X117350Y1935600D01*
Y1921600D02*
Y1935600D01*
X91850Y1921600D02*
X117350D01*
X91850Y1921600D02*
Y1935600D01*
X240650Y1840880D02*
Y1854880D01*
X215150Y1854880D02*
X240650D01*
X215150Y1840880D02*
Y1854880D01*
Y1840880D02*
X240650Y1840880D01*
X91850Y1853800D02*
Y1867800D01*
Y1853800D02*
X117350D01*
Y1867800D01*
X91850Y1867800D02*
X117350Y1867800D01*
X92850Y1720950D02*
X116350D01*
Y1735450D01*
X92850Y1720950D02*
Y1735450D01*
X116350D01*
X215850Y1686550D02*
X239350D01*
Y1701050D01*
X215850Y1686550D02*
Y1701050D01*
X239350D01*
X208150Y1892250D02*
Y1915750D01*
X222650D01*
X208150Y1892250D02*
X222650D01*
Y1915750D01*
X216150Y1753150D02*
X239650D01*
Y1767650D01*
X216150Y1753150D02*
Y1767650D01*
X239650D01*
X92850Y1905350D02*
X116350D01*
Y1919850D01*
X92850Y1905350D02*
Y1919850D01*
X116350D01*
X216150Y1856550D02*
X239650D01*
Y1871050D01*
X216150Y1856550D02*
Y1871050D01*
X239650D01*
X92850Y1852050D02*
X116350D01*
X92850Y1837550D02*
Y1852050D01*
X116350Y1837550D02*
Y1852050D01*
X92850Y1837550D02*
X116350D01*
X529650Y1980000D02*
Y1994000D01*
Y1994000D02*
X555150D01*
Y1980000D02*
Y1994000D01*
X529650Y1980000D02*
X555150Y1980000D01*
X633400Y1757250D02*
X647400D01*
X633400D02*
Y1782750D01*
X647400D01*
X647400Y1757250D02*
X647400Y1782750D01*
X786800Y1914650D02*
X800800D01*
X786800D02*
Y1940150D01*
X800800D01*
X800800Y1914650D02*
X800800Y1940150D01*
X681800Y2054550D02*
X695800D01*
X681800Y2029050D02*
Y2054550D01*
Y2029050D02*
X695800D01*
X695800Y2054550D02*
X695800Y2029050D01*
X548750Y1613200D02*
Y1627200D01*
X523250Y1613200D02*
X548750D01*
X523250D02*
Y1627200D01*
Y1627200D02*
X548750Y1627200D01*
X418380Y1921200D02*
Y1935200D01*
X392880Y1921200D02*
X418380D01*
X392880D02*
Y1935200D01*
Y1935200D02*
X418380Y1935200D01*
X662200Y2054550D02*
X662200Y2029050D01*
X648200D02*
X662200D01*
X648200D02*
Y2054550D01*
X648200D02*
X662200D01*
X644333D02*
X644333Y2029050D01*
X630333D02*
X644333D01*
X630333D02*
Y2054550D01*
X630333D02*
X644333D01*
X540400Y1872550D02*
X540400Y1847050D01*
X540400Y1872550D02*
X554400D01*
Y1847050D02*
Y1872550D01*
X540400Y1847050D02*
X554400D01*
X710200Y2036350D02*
X724200D01*
X724200Y2010850D02*
Y2036350D01*
X710200Y2010850D02*
X724200D01*
X710200D02*
X710200Y2036350D01*
X530250Y1964000D02*
Y1978000D01*
Y1978000D02*
X555750D01*
Y1964000D02*
Y1978000D01*
X530250Y1964000D02*
X555750Y1964000D01*
X784950Y1896600D02*
Y1910600D01*
X759450Y1896600D02*
X784950D01*
X759450D02*
Y1910600D01*
Y1910600D02*
X784950Y1910600D01*
Y1912020D02*
Y1926020D01*
X759450Y1912020D02*
X784950D01*
X759450D02*
Y1926020D01*
Y1926020D02*
X784950Y1926020D01*
X784940Y1927320D02*
Y1941320D01*
X759440Y1927320D02*
X784940D01*
X759440D02*
Y1941320D01*
Y1941320D02*
X784940Y1941320D01*
X617800Y1757250D02*
X631800D01*
X617800D02*
Y1782750D01*
X631800D01*
X631800Y1757250D02*
X631800Y1782750D01*
X210150Y1922800D02*
Y1936800D01*
X184650Y1922800D02*
X210150D01*
X184650D02*
Y1936800D01*
Y1936800D02*
X210150Y1936800D01*
X298320Y1934840D02*
X323820Y1934840D01*
Y1920840D02*
Y1934840D01*
X298320Y1920840D02*
X323820D01*
X298320Y1920840D02*
Y1934840D01*
X429200Y2044850D02*
X429200Y2070350D01*
X415200D02*
X429200D01*
X415200Y2044850D02*
Y2070350D01*
X415200Y2044850D02*
X429200D01*
X298320Y1867320D02*
X323820Y1867320D01*
Y1853320D02*
Y1867320D01*
X298320Y1853320D02*
X323820D01*
X298320Y1853320D02*
Y1867320D01*
X554480Y2055240D02*
X568480D01*
X568480Y2029740D02*
Y2055240D01*
X554480Y2029740D02*
X568480D01*
X554480D02*
X554480Y2055240D01*
X662750Y2054000D02*
Y2068000D01*
X637250Y2054000D02*
X662750D01*
X637250D02*
Y2068000D01*
Y2068000D02*
X662750Y2068000D01*
X446760Y1809800D02*
Y1823800D01*
X421260Y1823800D02*
X446760D01*
X421260Y1809800D02*
Y1823800D01*
Y1809800D02*
X446760Y1809800D01*
Y1879120D02*
Y1893120D01*
X421260Y1893120D02*
X446760D01*
X421260Y1879120D02*
Y1893120D01*
Y1879120D02*
X446760Y1879120D01*
X298320Y1746650D02*
Y1760650D01*
Y1746650D02*
X323820D01*
Y1760650D01*
X298320Y1760650D02*
X323820Y1760650D01*
X374140Y1696780D02*
X399640Y1696780D01*
X374140Y1696780D02*
Y1710780D01*
X399640D01*
Y1696780D02*
Y1710780D01*
X412400Y1777430D02*
X426400D01*
X426400Y1751930D02*
Y1777430D01*
X412400Y1751930D02*
X426400D01*
X412400D02*
X412400Y1777430D01*
X747200Y1629180D02*
X747200Y1603680D01*
X733200D02*
X747200D01*
X733200D02*
Y1629180D01*
X733200D02*
X747200D01*
X569580Y1738200D02*
X583580D01*
X569580D02*
Y1763700D01*
X583580D01*
X583580Y1738200D02*
X583580Y1763700D01*
X1409650Y1672590D02*
X1435150Y1672590D01*
Y1672590D02*
Y1686590D01*
X1409650D02*
X1435150D01*
X1409650Y1672590D02*
Y1686590D01*
X1326500Y1758160D02*
X1326500Y1783660D01*
X1326500Y1758160D02*
X1340500D01*
Y1783660D01*
X1326500D02*
X1340500D01*
X1212230Y1990460D02*
X1212230Y2015960D01*
X1198230D02*
X1212230D01*
X1198230Y1990460D02*
Y2015960D01*
X1198230Y1990460D02*
X1212230D01*
X1329260Y1745010D02*
X1354760Y1745010D01*
X1329260Y1731010D02*
Y1745010D01*
Y1731010D02*
X1354760D01*
Y1731010D02*
Y1745010D01*
X843300Y1782544D02*
X843300Y1757044D01*
X843300Y1782544D02*
X857300D01*
Y1757044D02*
Y1782544D01*
X843300Y1757044D02*
X857300D01*
X857300Y1732670D02*
X857300Y1707170D01*
X843300D02*
X857300D01*
X843300D02*
Y1732670D01*
X843300D02*
X857300D01*
X1165240Y2000960D02*
X1165240Y1975460D01*
X1151240D02*
X1165240D01*
X1151240D02*
Y2000960D01*
X1151240D02*
X1165240D01*
X843300Y1982040D02*
X857300D01*
X857300Y1956540D02*
Y1982040D01*
X843300Y1956540D02*
X857300D01*
X843300D02*
X843300Y1982040D01*
X1458032Y1713350D02*
X1483532Y1713350D01*
Y1713350D02*
Y1727350D01*
X1458032D02*
X1483532D01*
X1458032Y1713350D02*
Y1727350D01*
X1352800Y1716850D02*
X1366800D01*
X1366800D02*
Y1742350D01*
X1352800D02*
X1366800D01*
X1352800D02*
X1352800Y1716850D01*
X1487530Y1729760D02*
Y1770260D01*
X1469030D02*
X1487530D01*
X1469030D02*
X1469030Y1729760D01*
X1487530D01*
X1449690Y1732760D02*
X1449690Y1758260D01*
X1449690Y1732760D02*
X1463690D01*
Y1758260D01*
X1449690D02*
X1463690D01*
X1447390Y1990460D02*
X1447390Y2015960D01*
X1447390Y1990460D02*
X1461390D01*
Y2015960D01*
X1447390D02*
X1461390D01*
X1198230Y1924660D02*
X1198230Y1950160D01*
X1198230Y1924660D02*
X1212230D01*
Y1950160D01*
X1198230D02*
X1212230D01*
X1054050Y1977310D02*
X1079550Y1977310D01*
X1054050Y1963310D02*
Y1977310D01*
Y1963310D02*
X1079550D01*
Y1963310D02*
Y1977310D01*
X1152050Y1655780D02*
X1177550Y1655780D01*
X1152050Y1641780D02*
Y1655780D01*
Y1641780D02*
X1177550D01*
Y1641780D02*
Y1655780D01*
X1196570Y1664828D02*
X1237070D01*
X1196570Y1646328D02*
Y1664828D01*
Y1646328D02*
X1237070Y1646328D01*
Y1664828D01*
X1196570Y1687688D02*
X1237070D01*
X1196570Y1669188D02*
Y1687688D01*
Y1669188D02*
X1237070Y1669188D01*
Y1687688D01*
X1057860Y1745360D02*
X1083360Y1745360D01*
X1057860Y1731360D02*
Y1745360D01*
Y1731360D02*
X1083360D01*
Y1731360D02*
Y1745360D01*
X1423020Y2000960D02*
X1423020Y1975460D01*
X1423020Y2000960D02*
X1437020D01*
Y1975460D02*
Y2000960D01*
X1423020Y1975460D02*
X1437020D01*
X639430Y1678270D02*
X653430D01*
X639430D02*
Y1703770D01*
X653430D01*
X653430Y1678270D02*
X653430Y1703770D01*
X657500Y1675270D02*
Y1715770D01*
Y1675270D02*
X676000D01*
X676000Y1715770D02*
X676000Y1675270D01*
X657500Y1715770D02*
X676000D01*
X843300Y1982040D02*
X857300D01*
X843300Y1956540D02*
Y1982040D01*
Y1956540D02*
X857300D01*
X857300Y1982040D02*
X857300Y1956540D01*
X781600Y1703570D02*
X795600D01*
X795600Y1678070D02*
Y1703570D01*
X781600Y1678070D02*
X795600D01*
X781600D02*
X781600Y1703570D01*
X777460Y1675070D02*
Y1715570D01*
X758960D02*
X777460D01*
X758960D02*
X758960Y1675070D01*
X777460D01*
X1178610Y1940680D02*
Y1954680D01*
X1153110Y1954680D02*
X1178610D01*
X1153110Y1940680D02*
Y1954680D01*
Y1940680D02*
X1178610Y1940680D01*
X842800Y1832418D02*
X856800D01*
X856800Y1806918D02*
Y1832418D01*
X842800Y1806918D02*
X856800D01*
X842800D02*
X842800Y1832418D01*
X1181050Y1977310D02*
X1206550Y1977310D01*
X1181050Y1963310D02*
Y1977310D01*
Y1963310D02*
X1206550D01*
Y1963310D02*
Y1977310D01*
X842800Y1782544D02*
X856800D01*
X856800Y1757044D02*
Y1782544D01*
X842800Y1757044D02*
X856800D01*
X842800D02*
X842800Y1782544D01*
X1229980Y1692360D02*
X1229980Y1717860D01*
X1229980Y1692360D02*
X1243980D01*
Y1717860D01*
X1229980D02*
X1243980D01*
X1213210Y1730110D02*
Y1770610D01*
X1194710D02*
X1213210D01*
X1194710D02*
X1194710Y1730110D01*
X1213210D01*
X1177910Y1733110D02*
X1177910Y1758610D01*
X1177910Y1733110D02*
X1191910D01*
Y1758610D01*
X1177910D02*
X1191910D01*
X1461390Y1924660D02*
X1461390Y1950160D01*
X1447390D02*
X1461390D01*
X1447390Y1924660D02*
Y1950160D01*
X1447390Y1924660D02*
X1461390D01*
X1050910Y1784010D02*
X1064910D01*
X1064910Y1758510D02*
Y1784010D01*
X1050910Y1758510D02*
X1064910D01*
X1050910D02*
X1050910Y1784010D01*
X759210Y1560540D02*
X777710D01*
X759210Y1601040D02*
X759210Y1560540D01*
X759210Y1601040D02*
X777710D01*
Y1560540D02*
Y1601040D01*
X783340Y1560540D02*
X801840D01*
X783340Y1601040D02*
X783340Y1560540D01*
X783340Y1601040D02*
X801840D01*
Y1560540D02*
Y1601040D01*
X831310Y1588460D02*
X845310D01*
X845310Y1562960D02*
Y1588460D01*
X831310Y1562960D02*
X845310D01*
X831310D02*
X831310Y1588460D01*
X809720D02*
X823720D01*
X823720Y1562960D02*
Y1588460D01*
X809720Y1562960D02*
X823720D01*
X809720D02*
X809720Y1588460D01*
X595090Y1564230D02*
X609090D01*
X595090D02*
Y1589730D01*
X609090D01*
X609090Y1564230D02*
X609090Y1589730D01*
X612870Y1564230D02*
X626870D01*
X612870D02*
Y1589730D01*
X626870D01*
X626870Y1564230D02*
X626870Y1589730D01*
X632210Y1604850D02*
X650710D01*
X650710Y1564350D01*
X632210D02*
X650710D01*
X632210D02*
Y1604850D01*
X655070D02*
X673570D01*
X673570Y1564350D01*
X655070D02*
X673570D01*
X655070D02*
Y1604850D01*
X1335390Y1990460D02*
X1335390Y2015960D01*
X1335390Y1990460D02*
X1349390D01*
Y2015960D01*
X1335390D02*
X1349390D01*
X1429970Y1937010D02*
X1455470Y1937010D01*
Y1923010D02*
Y1937010D01*
X1429970Y1923010D02*
X1455470D01*
X1429970Y1923010D02*
Y1937010D01*
X843300Y1832418D02*
X857300D01*
X843300Y1806918D02*
Y1832418D01*
Y1806918D02*
X857300D01*
X857300Y1832418D02*
X857300Y1806918D01*
X843300Y1707170D02*
X843300Y1732670D01*
X843300Y1707170D02*
X857300D01*
Y1732670D01*
X843300D02*
X857300D01*
X1044700Y1720780D02*
X1058700D01*
X1058700D02*
Y1746280D01*
X1044700D02*
X1058700D01*
X1044700D02*
X1044700Y1720780D01*
X843300Y1932166D02*
X843300Y1906666D01*
X843300Y1932166D02*
X857300D01*
Y1906666D02*
Y1932166D01*
X843300Y1906666D02*
X857300D01*
X1357040Y1952564D02*
X1382540Y1952564D01*
Y1938564D02*
Y1952564D01*
X1357040Y1938564D02*
X1382540D01*
X1357040Y1938564D02*
Y1952564D01*
X1044560Y1990460D02*
X1044560Y2015960D01*
X1044560Y1990460D02*
X1058560D01*
Y2015960D01*
X1044560D02*
X1058560D01*
X1357040Y1922052D02*
X1382540Y1922052D01*
X1357040Y1922052D02*
Y1936052D01*
X1382540D01*
Y1922052D02*
Y1936052D01*
X857300Y1882292D02*
X857300Y1856792D01*
X843300D02*
X857300D01*
X843300D02*
Y1882292D01*
X843300D02*
X857300D01*
X1046430Y2013100D02*
X1071930Y2013100D01*
Y1999100D02*
Y2013100D01*
X1046430Y1999100D02*
X1071930D01*
X1046430Y1999100D02*
Y2013100D01*
X843300Y1906666D02*
X843300Y1932166D01*
X843300Y1906666D02*
X857300D01*
Y1932166D01*
X843300D02*
X857300D01*
X1061800Y1977850D02*
X1075800D01*
X1061800Y1952350D02*
Y1977850D01*
Y1952350D02*
X1075800D01*
X1075800Y1977850D02*
X1075800Y1952350D01*
X843300Y1882292D02*
X857300D01*
X857300Y1856792D02*
Y1882292D01*
X843300Y1856792D02*
X857300D01*
X843300D02*
X843300Y1882292D01*
X299320Y1904880D02*
X322820D01*
Y1919380D01*
X299320Y1904880D02*
Y1919380D01*
X322820D01*
X603450Y2011750D02*
X626950D01*
X603450D02*
Y2026250D01*
X626950Y2011750D02*
Y2026250D01*
X603450D02*
X626950D01*
X736250Y2055350D02*
X759750D01*
X736250D02*
Y2069850D01*
X759750Y2055350D02*
Y2069850D01*
X736250D02*
X759750D01*
X299320Y1837560D02*
X322820D01*
Y1852060D01*
X299320Y1837560D02*
Y1852060D01*
X322820D01*
X735850Y2038950D02*
X759350D01*
X735850D02*
Y2053450D01*
X759350Y2038950D02*
Y2053450D01*
X735850D02*
X759350D01*
X422260Y1825660D02*
X445760D01*
Y1840160D01*
X422260Y1825660D02*
Y1840160D01*
X445760D01*
X422260Y1894980D02*
X445760D01*
Y1909480D01*
X422260Y1894980D02*
Y1909480D01*
X445760D01*
X299320Y1744390D02*
X322820D01*
X299320Y1729890D02*
Y1744390D01*
X322820Y1729890D02*
Y1744390D01*
X299320Y1729890D02*
X322820D01*
X763430Y1604680D02*
Y1628180D01*
Y1604680D02*
X777930D01*
X763430Y1628180D02*
X777930D01*
Y1604680D02*
Y1628180D01*
X746920Y1604680D02*
Y1628180D01*
Y1604680D02*
X761420D01*
X746920Y1628180D02*
X761420D01*
Y1604680D02*
Y1628180D01*
X375140Y1726270D02*
X398640D01*
X375140Y1711770D02*
Y1726270D01*
X398640Y1711770D02*
Y1726270D01*
X375140Y1711770D02*
X398640D01*
X798990Y1604680D02*
Y1628180D01*
Y1604680D02*
X813490D01*
X798990Y1628180D02*
X813490D01*
Y1604680D02*
Y1628180D01*
X781210Y1604680D02*
Y1628180D01*
Y1604680D02*
X795710D01*
X781210Y1628180D02*
X795710D01*
Y1604680D02*
Y1628180D01*
X385250Y1781050D02*
X408750D01*
Y1766550D02*
Y1781050D01*
X385250Y1766550D02*
Y1781050D01*
Y1766550D02*
X408750D01*
X700550Y1604680D02*
Y1628180D01*
Y1604680D02*
X715050D01*
X700550Y1628180D02*
X715050D01*
Y1604680D02*
Y1628180D01*
X731250Y1604680D02*
Y1628180D01*
X716750D02*
X731250D01*
X716750Y1604680D02*
X731250D01*
X716750D02*
Y1628180D01*
X648050Y1604680D02*
Y1628180D01*
X633550D02*
X648050D01*
X633550Y1604680D02*
X648050D01*
X633550D02*
Y1628180D01*
X651750Y1604680D02*
Y1628180D01*
Y1604680D02*
X666250D01*
X651750Y1628180D02*
X666250D01*
Y1604680D02*
Y1628180D01*
X567320Y1739200D02*
Y1762700D01*
X552820Y1739200D02*
X567320D01*
X552820Y1762700D02*
X567320D01*
X552820Y1739200D02*
Y1762700D01*
X465450Y1713800D02*
Y1737300D01*
X450950Y1713800D02*
X465450D01*
X450950Y1737300D02*
X465450D01*
X450950Y1713800D02*
Y1737300D01*
X465450Y1675850D02*
Y1699350D01*
X450950Y1675850D02*
X465450D01*
X450950Y1699350D02*
X465450D01*
X450950Y1675850D02*
Y1699350D01*
X569050Y1678000D02*
Y1701500D01*
X554550Y1678000D02*
X569050D01*
X554550Y1701500D02*
X569050D01*
X554550Y1678000D02*
Y1701500D01*
X554550Y1703250D02*
Y1726750D01*
X569050D01*
X554550Y1703250D02*
X569050D01*
Y1726750D01*
X1342260Y1759160D02*
Y1782660D01*
X1356760D01*
X1342260Y1759160D02*
X1356760D01*
Y1782660D01*
X1410770Y1656020D02*
X1434270D01*
X1410770D02*
Y1670520D01*
X1434270Y1656020D02*
Y1670520D01*
X1410770D02*
X1434270D01*
X498910Y1653410D02*
X522410D01*
X498910D02*
Y1667910D01*
X522410Y1653410D02*
Y1667910D01*
X498910D02*
X522410D01*
X1195970Y1991460D02*
Y2014960D01*
X1181470Y1991460D02*
X1195970D01*
X1181470Y2014960D02*
X1195970D01*
X1181470Y1991460D02*
Y2014960D01*
X1439280Y1660340D02*
Y1683840D01*
X1453780D01*
X1439280Y1660340D02*
X1453780D01*
Y1683840D01*
X1416050Y1717850D02*
Y1741350D01*
X1401550D02*
X1416050D01*
X1401550Y1717850D02*
X1416050D01*
X1401550D02*
Y1741350D01*
X1218830Y1976460D02*
Y1999960D01*
X1204330D02*
X1218830D01*
X1204330Y1976460D02*
X1218830D01*
X1204330D02*
Y1999960D01*
X915130Y1758044D02*
Y1781544D01*
X900630D02*
X915130D01*
X900630Y1758044D02*
X915130D01*
X900630D02*
Y1781544D01*
X915130Y1957540D02*
Y1981040D01*
X900630Y1957540D02*
X915130D01*
X900630Y1981040D02*
X915130D01*
X900630Y1957540D02*
Y1981040D01*
X1385850Y1803650D02*
X1409350D01*
Y1789150D02*
Y1803650D01*
X1385850Y1789150D02*
Y1803650D01*
Y1789150D02*
X1409350D01*
X800670Y2008430D02*
Y2031930D01*
X815170D01*
X800670Y2008430D02*
X815170D01*
Y2031930D01*
X1456032Y1660340D02*
Y1683840D01*
X1470532D01*
X1456032Y1660340D02*
X1470532D01*
Y1683840D01*
X1391950Y1659020D02*
Y1682520D01*
X1406450D01*
X1391950Y1659020D02*
X1406450D01*
Y1682520D01*
X840782Y2008430D02*
Y2031930D01*
X826282Y2008430D02*
X840782D01*
X826282Y2031930D02*
X840782D01*
X826282Y2008430D02*
Y2031930D01*
X1201050Y1976460D02*
Y1999960D01*
X1186550D02*
X1201050D01*
X1186550Y1976460D02*
X1201050D01*
X1186550D02*
Y1999960D01*
X1399883Y1717850D02*
Y1741350D01*
X1385383D02*
X1399883D01*
X1385383Y1717850D02*
X1399883D01*
X1385383D02*
Y1741350D01*
X1183270Y1976460D02*
Y1999960D01*
X1168770D02*
X1183270D01*
X1168770Y1976460D02*
X1183270D01*
X1168770D02*
Y1999960D01*
X849893Y2008430D02*
Y2031930D01*
X864393D01*
X849893Y2008430D02*
X864393D01*
Y2031930D01*
X1459032Y1711090D02*
X1482532D01*
Y1696590D02*
Y1711090D01*
X1459032Y1696590D02*
Y1711090D01*
Y1696590D02*
X1482532D01*
X1383717Y1717850D02*
Y1741350D01*
X1369217D02*
X1383717D01*
X1369217Y1717850D02*
X1383717D01*
X1369217D02*
Y1741350D01*
X875905Y2008430D02*
Y2031930D01*
X890405D01*
X875905Y2008430D02*
X890405D01*
Y2031930D01*
X928728Y2008430D02*
Y2031930D01*
X943228D01*
X928728Y2008430D02*
X943228D01*
Y2031930D01*
X1181470Y1925660D02*
Y1949160D01*
X1195970D01*
X1181470Y1925660D02*
X1195970D01*
Y1949160D01*
X903117Y2008430D02*
Y2031930D01*
X917617D01*
X903117Y2008430D02*
X917617D01*
Y2031930D01*
X954340Y2008430D02*
Y2031930D01*
X968840D01*
X954340Y2008430D02*
X968840D01*
Y2031930D01*
X1465950Y1991460D02*
Y2014960D01*
X1480450D01*
X1465950Y1991460D02*
X1480450D01*
Y2014960D01*
X1208670Y1693360D02*
Y1716860D01*
X1194170Y1693360D02*
X1208670D01*
X1194170Y1716860D02*
X1208670D01*
X1194170Y1693360D02*
Y1716860D01*
X1153050Y1671850D02*
X1176550D01*
Y1657350D02*
Y1671850D01*
X1153050Y1657350D02*
Y1671850D01*
Y1657350D02*
X1176550D01*
X1485530Y1976460D02*
Y1999960D01*
X1471030D02*
X1485530D01*
X1471030Y1976460D02*
X1485530D01*
X1471030D02*
Y1999960D01*
X1183320Y1940430D02*
X1206820D01*
Y1954930D01*
X1183320Y1940430D02*
Y1954930D01*
X1206820D01*
X1469020Y1976460D02*
Y1999960D01*
X1454520D02*
X1469020D01*
X1454520Y1976460D02*
X1469020D01*
X1454520D02*
Y1999960D01*
X914630Y1807918D02*
Y1831418D01*
X900130Y1807918D02*
X914630D01*
X900130Y1831418D02*
X914630D01*
X900130Y1807918D02*
Y1831418D01*
X900630Y1957540D02*
Y1981040D01*
Y1957540D02*
X915130D01*
X900630Y1981040D02*
X915130D01*
Y1957540D02*
Y1981040D01*
X1225180Y1925650D02*
Y1949150D01*
X1210680D02*
X1225180D01*
X1210680Y1925650D02*
X1225180D01*
X1210680D02*
Y1949150D01*
X1183320Y1937150D02*
X1206820D01*
X1183320Y1922650D02*
Y1937150D01*
X1206820Y1922650D02*
Y1937150D01*
X1183320Y1922650D02*
X1206820D01*
X635900Y1679270D02*
Y1702770D01*
X621400Y1679270D02*
X635900D01*
X621400Y1702770D02*
X635900D01*
X621400Y1679270D02*
Y1702770D01*
X1438010Y1976460D02*
Y1999960D01*
Y1976460D02*
X1452510D01*
X1438010Y1999960D02*
X1452510D01*
Y1976460D02*
Y1999960D01*
X1154110Y1922650D02*
X1177610D01*
Y1937150D01*
X1154110Y1922650D02*
Y1937150D01*
X1177610D01*
X1125850Y1688250D02*
X1149350D01*
Y1673750D02*
Y1688250D01*
X1125850Y1673750D02*
Y1688250D01*
Y1673750D02*
X1149350D01*
X1226450Y1693360D02*
Y1716860D01*
X1211950Y1693360D02*
X1226450D01*
X1211950Y1716860D02*
X1226450D01*
X1211950Y1693360D02*
Y1716860D01*
X1247510Y1693360D02*
Y1716860D01*
X1262010D01*
X1247510Y1693360D02*
X1262010D01*
Y1716860D01*
X1480450Y1925660D02*
Y1949160D01*
X1465950Y1925660D02*
X1480450D01*
X1465950Y1949160D02*
X1480450D01*
X1465950Y1925660D02*
Y1949160D01*
X758960Y1606010D02*
X777960D01*
Y1647010D01*
X758960Y1606010D02*
Y1647010D01*
X777960D01*
X1457760Y1922760D02*
X1481260D01*
Y1937260D01*
X1457760Y1922760D02*
Y1937260D01*
X1481260D01*
X1318630Y1991460D02*
Y2014960D01*
X1333130D01*
X1318630Y1991460D02*
X1333130D01*
Y2014960D01*
X1483730Y1910760D02*
Y1934260D01*
Y1910760D02*
X1498230D01*
X1483730Y1934260D02*
X1498230D01*
Y1910760D02*
Y1934260D01*
X1457640Y1906960D02*
X1481140D01*
Y1921460D01*
X1457640Y1906960D02*
Y1921460D01*
X1481140D01*
X1082940Y1759510D02*
Y1783010D01*
X1068440Y1759510D02*
X1082940D01*
X1068440Y1783010D02*
X1082940D01*
X1068440Y1759510D02*
Y1783010D01*
X900630Y1807918D02*
Y1831418D01*
Y1807918D02*
X915130D01*
X900630Y1831418D02*
X915130D01*
Y1807918D02*
Y1831418D01*
X1096520Y1721780D02*
Y1745280D01*
Y1721780D02*
X1111020D01*
X1096520Y1745280D02*
X1111020D01*
Y1721780D02*
Y1745280D01*
X1430970Y1921460D02*
X1454470D01*
X1430970Y1906960D02*
Y1921460D01*
X1454470Y1906960D02*
Y1921460D01*
X1430970Y1906960D02*
X1454470D01*
X1112650Y1803850D02*
X1136150D01*
Y1789350D02*
Y1803850D01*
X1112650Y1789350D02*
Y1803850D01*
Y1789350D02*
X1136150D01*
X1357650Y2002850D02*
X1381150D01*
X1357650Y1988350D02*
Y2002850D01*
X1381150Y1988350D02*
Y2002850D01*
X1357650Y1988350D02*
X1381150D01*
X1080010Y1721780D02*
Y1745280D01*
Y1721780D02*
X1094510D01*
X1080010Y1745280D02*
X1094510D01*
Y1721780D02*
Y1745280D01*
X1340550Y1976050D02*
Y1999550D01*
Y1976050D02*
X1355050D01*
X1340550Y1999550D02*
X1355050D01*
Y1976050D02*
Y1999550D01*
X915130Y1907666D02*
Y1931166D01*
X900630D02*
X915130D01*
X900630Y1907666D02*
X915130D01*
X900630D02*
Y1931166D01*
X1358040Y1986338D02*
X1381540D01*
X1358040Y1971838D02*
Y1986338D01*
X1381540Y1971838D02*
Y1986338D01*
X1358040Y1971838D02*
X1381540D01*
X1062230Y1721780D02*
Y1745280D01*
Y1721780D02*
X1076730D01*
X1062230Y1745280D02*
X1076730D01*
Y1721780D02*
Y1745280D01*
X1358040Y1969826D02*
X1381540D01*
X1358040Y1955326D02*
Y1969826D01*
X1381540Y1955326D02*
Y1969826D01*
X1358040Y1955326D02*
X1381540D01*
X1062090Y1991460D02*
Y2014960D01*
X1076590D01*
X1062090Y1991460D02*
X1076590D01*
Y2014960D01*
X1358040Y1905790D02*
X1381540D01*
Y1920290D01*
X1358040Y1905790D02*
Y1920290D01*
X1381540D01*
X1075370Y1998850D02*
X1098870D01*
Y2013350D01*
X1075370Y1998850D02*
Y2013350D01*
X1098870D01*
X915130Y1857792D02*
Y1881292D01*
X900630D02*
X915130D01*
X900630Y1857792D02*
X915130D01*
X900630D02*
Y1881292D01*
X1115960Y2003240D02*
Y2026740D01*
X1101460D02*
X1115960D01*
X1101460Y2003240D02*
X1115960D01*
X1101460D02*
Y2026740D01*
X1074100Y2015360D02*
X1097600D01*
Y2029860D01*
X1074100Y2015360D02*
Y2029860D01*
X1097600D01*
X900630Y1907666D02*
Y1931166D01*
X915130D01*
X900630Y1907666D02*
X915130D01*
Y1931166D01*
X914630Y1857792D02*
Y1881292D01*
X900130Y1857792D02*
X914630D01*
X900130Y1881292D02*
X914630D01*
X900130Y1857792D02*
Y1881292D01*
X1047830Y1935060D02*
X1071330D01*
Y1949560D01*
X1047830Y1935060D02*
Y1949560D01*
X1071330D01*
X1047430Y2029860D02*
X1070930D01*
X1047430Y2015360D02*
Y2029860D01*
X1070930Y2015360D02*
Y2029860D01*
X1047430Y2015360D02*
X1070930D01*
X1059330Y1953420D02*
Y1976920D01*
X1044830D02*
X1059330D01*
X1044830Y1953420D02*
X1059330D01*
X1044830D02*
Y1976920D01*
X1395810Y1738010D02*
X1405810D01*
X1400810Y1733010D02*
Y1743010D01*
X1130300Y1965310D02*
Y1975310D01*
X1125300Y1970310D02*
X1135300D01*
X712550Y1712520D02*
X722550D01*
X717550Y1707520D02*
Y1717520D01*
X753550Y1669020D02*
Y1756020D01*
X681550Y1669020D02*
Y1756020D01*
X753550D01*
X681550Y1669020D02*
X753550D01*
X680390Y1557610D02*
X752390D01*
X680390Y1644610D02*
X752390D01*
X680390Y1557610D02*
Y1644610D01*
X752390Y1557610D02*
Y1644610D01*
X716390Y1596110D02*
Y1606110D01*
X711390Y1601110D02*
X721390D01*
X552250Y1612400D02*
Y1626400D01*
Y1626400D02*
X577750D01*
Y1612400D02*
Y1626400D01*
X552250Y1612400D02*
X577750Y1612400D01*
X524850Y1594750D02*
X548350D01*
X524850D02*
Y1609250D01*
X548350Y1594750D02*
Y1609250D01*
X524850D02*
X548350D01*
X552130Y1609490D02*
X575630D01*
Y1594990D02*
Y1609490D01*
X552130Y1594990D02*
Y1609490D01*
Y1594990D02*
X575630D01*
X524600Y1872750D02*
X524600Y1847250D01*
X524600Y1872750D02*
X538600D01*
Y1847250D02*
Y1872750D01*
X524600Y1847250D02*
X538600D01*
X1348790Y1963540D02*
Y1977540D01*
X1323290Y1963540D02*
X1348790D01*
X1323290D02*
Y1977540D01*
Y1977540D02*
X1348790Y1977540D01*
X1474640Y1963540D02*
Y1977540D01*
X1449140Y1963540D02*
X1474640D01*
X1449140D02*
Y1977540D01*
Y1977540D02*
X1474640Y1977540D01*
X1130300Y1733360D02*
Y1743360D01*
X1125300Y1738360D02*
X1135300D01*
X914630Y1758044D02*
Y1781544D01*
X900130Y1758044D02*
X914630D01*
X900130Y1781544D02*
X914630D01*
X900130Y1758044D02*
Y1781544D01*
X900630Y1708170D02*
Y1731670D01*
X915130D01*
X900630Y1708170D02*
X915130D01*
Y1731670D01*
X900630Y1708170D02*
Y1731670D01*
Y1708170D02*
X915130D01*
X900630Y1731670D02*
X915130D01*
Y1708170D02*
Y1731670D01*
X1400810Y1965310D02*
Y1975310D01*
X1395810Y1970310D02*
X1405810D01*
X1177550Y1673980D02*
Y1687980D01*
X1152050Y1673980D02*
X1177550D01*
X1152050D02*
Y1687980D01*
Y1687980D02*
X1177550Y1687980D01*
X612800Y2054550D02*
X626800D01*
X612800Y2029050D02*
Y2054550D01*
Y2029050D02*
X626800D01*
X626800Y2054550D02*
X626800Y2029050D01*
X674050Y1788200D02*
X699550Y1788200D01*
X674050Y1788200D02*
Y1802200D01*
X699550D01*
Y1788200D02*
Y1802200D01*
X91850Y1021200D02*
X117350Y1021200D01*
Y1007200D02*
Y1021200D01*
X91850Y1007200D02*
X117350D01*
X91850Y1007200D02*
Y1021200D01*
X209950Y1346600D02*
Y1360600D01*
X184450Y1346600D02*
X209950D01*
X184450D02*
Y1360600D01*
Y1360600D02*
X209950Y1360600D01*
X209750Y1037800D02*
Y1051800D01*
X184250Y1037800D02*
X209750D01*
X184250D02*
Y1051800D01*
Y1051800D02*
X209750Y1051800D01*
X240350Y940800D02*
Y954800D01*
X214850Y954800D02*
X240350D01*
X214850Y940800D02*
Y954800D01*
Y940800D02*
X240350Y940800D01*
X240650Y1007400D02*
Y1021400D01*
X215150Y1021400D02*
X240650D01*
X215150Y1007400D02*
Y1021400D01*
Y1007400D02*
X240650Y1007400D01*
X91850Y1205600D02*
X117350Y1205600D01*
Y1191600D02*
Y1205600D01*
X91850Y1191600D02*
X117350D01*
X91850Y1191600D02*
Y1205600D01*
X240650Y1110880D02*
Y1124880D01*
X215150Y1124880D02*
X240650D01*
X215150Y1110880D02*
Y1124880D01*
Y1110880D02*
X240650Y1110880D01*
X91850Y1123800D02*
Y1137800D01*
Y1123800D02*
X117350D01*
Y1137800D01*
X91850Y1137800D02*
X117350Y1137800D01*
X92850Y990950D02*
X116350D01*
Y1005450D01*
X92850Y990950D02*
Y1005450D01*
X116350D01*
X215850Y956550D02*
X239350D01*
Y971050D01*
X215850Y956550D02*
Y971050D01*
X239350D01*
X208150Y1162250D02*
Y1185750D01*
X222650D01*
X208150Y1162250D02*
X222650D01*
Y1185750D01*
X216150Y1023150D02*
X239650D01*
Y1037650D01*
X216150Y1023150D02*
Y1037650D01*
X239650D01*
X92850Y1175350D02*
X116350D01*
Y1189850D01*
X92850Y1175350D02*
Y1189850D01*
X116350D01*
X216150Y1126550D02*
X239650D01*
Y1141050D01*
X216150Y1126550D02*
Y1141050D01*
X239650D01*
X92850Y1122050D02*
X116350D01*
X92850Y1107550D02*
Y1122050D01*
X116350Y1107550D02*
Y1122050D01*
X92850Y1107550D02*
X116350D01*
X529650Y1250000D02*
Y1264000D01*
Y1264000D02*
X555150D01*
Y1250000D02*
Y1264000D01*
X529650Y1250000D02*
X555150Y1250000D01*
X633400Y1027250D02*
X647400D01*
X633400D02*
Y1052750D01*
X647400D01*
X647400Y1027250D02*
X647400Y1052750D01*
X786800Y1184650D02*
X800800D01*
X786800D02*
Y1210150D01*
X800800D01*
X800800Y1184650D02*
X800800Y1210150D01*
X681800Y1324550D02*
X695800D01*
X681800Y1299050D02*
Y1324550D01*
Y1299050D02*
X695800D01*
X695800Y1324550D02*
X695800Y1299050D01*
X548750Y883200D02*
Y897200D01*
X523250Y883200D02*
X548750D01*
X523250D02*
Y897200D01*
Y897200D02*
X548750Y897200D01*
X418380Y1191200D02*
Y1205200D01*
X392880Y1191200D02*
X418380D01*
X392880D02*
Y1205200D01*
Y1205200D02*
X418380Y1205200D01*
X662200Y1324550D02*
X662200Y1299050D01*
X648200D02*
X662200D01*
X648200D02*
Y1324550D01*
X648200D02*
X662200D01*
X644333D02*
X644333Y1299050D01*
X630333D02*
X644333D01*
X630333D02*
Y1324550D01*
X630333D02*
X644333D01*
X540400Y1142550D02*
X540400Y1117050D01*
X540400Y1142550D02*
X554400D01*
Y1117050D02*
Y1142550D01*
X540400Y1117050D02*
X554400D01*
X710200Y1306350D02*
X724200D01*
X724200Y1280850D02*
Y1306350D01*
X710200Y1280850D02*
X724200D01*
X710200D02*
X710200Y1306350D01*
X530250Y1234000D02*
Y1248000D01*
Y1248000D02*
X555750D01*
Y1234000D02*
Y1248000D01*
X530250Y1234000D02*
X555750Y1234000D01*
X784950Y1166600D02*
Y1180600D01*
X759450Y1166600D02*
X784950D01*
X759450D02*
Y1180600D01*
Y1180600D02*
X784950Y1180600D01*
Y1182020D02*
Y1196020D01*
X759450Y1182020D02*
X784950D01*
X759450D02*
Y1196020D01*
Y1196020D02*
X784950Y1196020D01*
X784940Y1197320D02*
Y1211320D01*
X759440Y1197320D02*
X784940D01*
X759440D02*
Y1211320D01*
Y1211320D02*
X784940Y1211320D01*
X617800Y1027250D02*
X631800D01*
X617800D02*
Y1052750D01*
X631800D01*
X631800Y1027250D02*
X631800Y1052750D01*
X210150Y1192800D02*
Y1206800D01*
X184650Y1192800D02*
X210150D01*
X184650D02*
Y1206800D01*
Y1206800D02*
X210150Y1206800D01*
X298320Y1204840D02*
X323820Y1204840D01*
Y1190840D02*
Y1204840D01*
X298320Y1190840D02*
X323820D01*
X298320Y1190840D02*
Y1204840D01*
X429200Y1314850D02*
X429200Y1340350D01*
X415200D02*
X429200D01*
X415200Y1314850D02*
Y1340350D01*
X415200Y1314850D02*
X429200D01*
X298320Y1137320D02*
X323820Y1137320D01*
Y1123320D02*
Y1137320D01*
X298320Y1123320D02*
X323820D01*
X298320Y1123320D02*
Y1137320D01*
X554480Y1325240D02*
X568480D01*
X568480Y1299740D02*
Y1325240D01*
X554480Y1299740D02*
X568480D01*
X554480D02*
X554480Y1325240D01*
X662750Y1324000D02*
Y1338000D01*
X637250Y1324000D02*
X662750D01*
X637250D02*
Y1338000D01*
Y1338000D02*
X662750Y1338000D01*
X446760Y1079800D02*
Y1093800D01*
X421260Y1093800D02*
X446760D01*
X421260Y1079800D02*
Y1093800D01*
Y1079800D02*
X446760Y1079800D01*
Y1149120D02*
Y1163120D01*
X421260Y1163120D02*
X446760D01*
X421260Y1149120D02*
Y1163120D01*
Y1149120D02*
X446760Y1149120D01*
X298320Y1016650D02*
Y1030650D01*
Y1016650D02*
X323820D01*
Y1030650D01*
X298320Y1030650D02*
X323820Y1030650D01*
X374140Y966780D02*
X399640Y966780D01*
X374140Y966780D02*
Y980780D01*
X399640D01*
Y966780D02*
Y980780D01*
X412400Y1047430D02*
X426400D01*
X426400Y1021930D02*
Y1047430D01*
X412400Y1021930D02*
X426400D01*
X412400D02*
X412400Y1047430D01*
X747200Y899180D02*
X747200Y873680D01*
X733200D02*
X747200D01*
X733200D02*
Y899180D01*
X733200D02*
X747200D01*
X569580Y1008200D02*
X583580D01*
X569580D02*
Y1033700D01*
X583580D01*
X583580Y1008200D02*
X583580Y1033700D01*
X1409650Y942590D02*
X1435150Y942590D01*
Y942590D02*
Y956590D01*
X1409650D02*
X1435150D01*
X1409650Y942590D02*
Y956590D01*
X1326500Y1028160D02*
X1326500Y1053660D01*
X1326500Y1028160D02*
X1340500D01*
Y1053660D01*
X1326500D02*
X1340500D01*
X1212230Y1260460D02*
X1212230Y1285960D01*
X1198230D02*
X1212230D01*
X1198230Y1260460D02*
Y1285960D01*
X1198230Y1260460D02*
X1212230D01*
X1329260Y1015010D02*
X1354760Y1015010D01*
X1329260Y1001010D02*
Y1015010D01*
Y1001010D02*
X1354760D01*
Y1001010D02*
Y1015010D01*
X843300Y1052544D02*
X843300Y1027044D01*
X843300Y1052544D02*
X857300D01*
Y1027044D02*
Y1052544D01*
X843300Y1027044D02*
X857300D01*
X857300Y1002670D02*
X857300Y977170D01*
X843300D02*
X857300D01*
X843300D02*
Y1002670D01*
X843300D02*
X857300D01*
X1165240Y1270960D02*
X1165240Y1245460D01*
X1151240D02*
X1165240D01*
X1151240D02*
Y1270960D01*
X1151240D02*
X1165240D01*
X843300Y1252040D02*
X857300D01*
X857300Y1226540D02*
Y1252040D01*
X843300Y1226540D02*
X857300D01*
X843300D02*
X843300Y1252040D01*
X1458032Y983350D02*
X1483532Y983350D01*
Y983350D02*
Y997350D01*
X1458032D02*
X1483532D01*
X1458032Y983350D02*
Y997350D01*
X1352800Y986850D02*
X1366800D01*
X1366800D02*
Y1012350D01*
X1352800D02*
X1366800D01*
X1352800D02*
X1352800Y986850D01*
X1487530Y999760D02*
Y1040260D01*
X1469030D02*
X1487530D01*
X1469030D02*
X1469030Y999760D01*
X1487530D01*
X1449690Y1002760D02*
X1449690Y1028260D01*
X1449690Y1002760D02*
X1463690D01*
Y1028260D01*
X1449690D02*
X1463690D01*
X1447390Y1260460D02*
X1447390Y1285960D01*
X1447390Y1260460D02*
X1461390D01*
Y1285960D01*
X1447390D02*
X1461390D01*
X1198230Y1194660D02*
X1198230Y1220160D01*
X1198230Y1194660D02*
X1212230D01*
Y1220160D01*
X1198230D02*
X1212230D01*
X1054050Y1247310D02*
X1079550Y1247310D01*
X1054050Y1233310D02*
Y1247310D01*
Y1233310D02*
X1079550D01*
Y1233310D02*
Y1247310D01*
X1152050Y925780D02*
X1177550Y925780D01*
X1152050Y911780D02*
Y925780D01*
Y911780D02*
X1177550D01*
Y911780D02*
Y925780D01*
X1196570Y934828D02*
X1237070D01*
X1196570Y916328D02*
Y934828D01*
Y916328D02*
X1237070Y916328D01*
Y934828D01*
X1196570Y957688D02*
X1237070D01*
X1196570Y939188D02*
Y957688D01*
Y939188D02*
X1237070Y939188D01*
Y957688D01*
X1057860Y1015360D02*
X1083360Y1015360D01*
X1057860Y1001360D02*
Y1015360D01*
Y1001360D02*
X1083360D01*
Y1001360D02*
Y1015360D01*
X1423020Y1270960D02*
X1423020Y1245460D01*
X1423020Y1270960D02*
X1437020D01*
Y1245460D02*
Y1270960D01*
X1423020Y1245460D02*
X1437020D01*
X639430Y948270D02*
X653430D01*
X639430D02*
Y973770D01*
X653430D01*
X653430Y948270D02*
X653430Y973770D01*
X657500Y945270D02*
Y985770D01*
Y945270D02*
X676000D01*
X676000Y985770D02*
X676000Y945270D01*
X657500Y985770D02*
X676000D01*
X843300Y1252040D02*
X857300D01*
X843300Y1226540D02*
Y1252040D01*
Y1226540D02*
X857300D01*
X857300Y1252040D02*
X857300Y1226540D01*
X781600Y973570D02*
X795600D01*
X795600Y948070D02*
Y973570D01*
X781600Y948070D02*
X795600D01*
X781600D02*
X781600Y973570D01*
X777460Y945070D02*
Y985570D01*
X758960D02*
X777460D01*
X758960D02*
X758960Y945070D01*
X777460D01*
X1178610Y1210680D02*
Y1224680D01*
X1153110Y1224680D02*
X1178610D01*
X1153110Y1210680D02*
Y1224680D01*
Y1210680D02*
X1178610Y1210680D01*
X842800Y1102418D02*
X856800D01*
X856800Y1076918D02*
Y1102418D01*
X842800Y1076918D02*
X856800D01*
X842800D02*
X842800Y1102418D01*
X1181050Y1247310D02*
X1206550Y1247310D01*
X1181050Y1233310D02*
Y1247310D01*
Y1233310D02*
X1206550D01*
Y1233310D02*
Y1247310D01*
X842800Y1052544D02*
X856800D01*
X856800Y1027044D02*
Y1052544D01*
X842800Y1027044D02*
X856800D01*
X842800D02*
X842800Y1052544D01*
X1229980Y962360D02*
X1229980Y987860D01*
X1229980Y962360D02*
X1243980D01*
Y987860D01*
X1229980D02*
X1243980D01*
X1213210Y1000110D02*
Y1040610D01*
X1194710D02*
X1213210D01*
X1194710D02*
X1194710Y1000110D01*
X1213210D01*
X1177910Y1003110D02*
X1177910Y1028610D01*
X1177910Y1003110D02*
X1191910D01*
Y1028610D01*
X1177910D02*
X1191910D01*
X1461390Y1194660D02*
X1461390Y1220160D01*
X1447390D02*
X1461390D01*
X1447390Y1194660D02*
Y1220160D01*
X1447390Y1194660D02*
X1461390D01*
X1050910Y1054010D02*
X1064910D01*
X1064910Y1028510D02*
Y1054010D01*
X1050910Y1028510D02*
X1064910D01*
X1050910D02*
X1050910Y1054010D01*
X759210Y830540D02*
X777710D01*
X759210Y871040D02*
X759210Y830540D01*
X759210Y871040D02*
X777710D01*
Y830540D02*
Y871040D01*
X783340Y830540D02*
X801840D01*
X783340Y871040D02*
X783340Y830540D01*
X783340Y871040D02*
X801840D01*
Y830540D02*
Y871040D01*
X831310Y858460D02*
X845310D01*
X845310Y832960D02*
Y858460D01*
X831310Y832960D02*
X845310D01*
X831310D02*
X831310Y858460D01*
X809720D02*
X823720D01*
X823720Y832960D02*
Y858460D01*
X809720Y832960D02*
X823720D01*
X809720D02*
X809720Y858460D01*
X595090Y834230D02*
X609090D01*
X595090D02*
Y859730D01*
X609090D01*
X609090Y834230D02*
X609090Y859730D01*
X612870Y834230D02*
X626870D01*
X612870D02*
Y859730D01*
X626870D01*
X626870Y834230D02*
X626870Y859730D01*
X632210Y874850D02*
X650710D01*
X650710Y834350D01*
X632210D02*
X650710D01*
X632210D02*
Y874850D01*
X655070D02*
X673570D01*
X673570Y834350D01*
X655070D02*
X673570D01*
X655070D02*
Y874850D01*
X1335390Y1260460D02*
X1335390Y1285960D01*
X1335390Y1260460D02*
X1349390D01*
Y1285960D01*
X1335390D02*
X1349390D01*
X1429970Y1207010D02*
X1455470Y1207010D01*
Y1193010D02*
Y1207010D01*
X1429970Y1193010D02*
X1455470D01*
X1429970Y1193010D02*
Y1207010D01*
X843300Y1102418D02*
X857300D01*
X843300Y1076918D02*
Y1102418D01*
Y1076918D02*
X857300D01*
X857300Y1102418D02*
X857300Y1076918D01*
X843300Y977170D02*
X843300Y1002670D01*
X843300Y977170D02*
X857300D01*
Y1002670D01*
X843300D02*
X857300D01*
X1044700Y990780D02*
X1058700D01*
X1058700D02*
Y1016280D01*
X1044700D02*
X1058700D01*
X1044700D02*
X1044700Y990780D01*
X843300Y1202166D02*
X843300Y1176666D01*
X843300Y1202166D02*
X857300D01*
Y1176666D02*
Y1202166D01*
X843300Y1176666D02*
X857300D01*
X1357040Y1222564D02*
X1382540Y1222564D01*
Y1208564D02*
Y1222564D01*
X1357040Y1208564D02*
X1382540D01*
X1357040Y1208564D02*
Y1222564D01*
X1044560Y1260460D02*
X1044560Y1285960D01*
X1044560Y1260460D02*
X1058560D01*
Y1285960D01*
X1044560D02*
X1058560D01*
X1357040Y1192052D02*
X1382540Y1192052D01*
X1357040Y1192052D02*
Y1206052D01*
X1382540D01*
Y1192052D02*
Y1206052D01*
X857300Y1152292D02*
X857300Y1126792D01*
X843300D02*
X857300D01*
X843300D02*
Y1152292D01*
X843300D02*
X857300D01*
X1046430Y1283100D02*
X1071930Y1283100D01*
Y1269100D02*
Y1283100D01*
X1046430Y1269100D02*
X1071930D01*
X1046430Y1269100D02*
Y1283100D01*
X843300Y1176666D02*
X843300Y1202166D01*
X843300Y1176666D02*
X857300D01*
Y1202166D01*
X843300D02*
X857300D01*
X1061800Y1247850D02*
X1075800D01*
X1061800Y1222350D02*
Y1247850D01*
Y1222350D02*
X1075800D01*
X1075800Y1247850D02*
X1075800Y1222350D01*
X843300Y1152292D02*
X857300D01*
X857300Y1126792D02*
Y1152292D01*
X843300Y1126792D02*
X857300D01*
X843300D02*
X843300Y1152292D01*
X299320Y1174880D02*
X322820D01*
Y1189380D01*
X299320Y1174880D02*
Y1189380D01*
X322820D01*
X603450Y1281750D02*
X626950D01*
X603450D02*
Y1296250D01*
X626950Y1281750D02*
Y1296250D01*
X603450D02*
X626950D01*
X736250Y1325350D02*
X759750D01*
X736250D02*
Y1339850D01*
X759750Y1325350D02*
Y1339850D01*
X736250D02*
X759750D01*
X299320Y1107560D02*
X322820D01*
Y1122060D01*
X299320Y1107560D02*
Y1122060D01*
X322820D01*
X735850Y1308950D02*
X759350D01*
X735850D02*
Y1323450D01*
X759350Y1308950D02*
Y1323450D01*
X735850D02*
X759350D01*
X422260Y1095660D02*
X445760D01*
Y1110160D01*
X422260Y1095660D02*
Y1110160D01*
X445760D01*
X422260Y1164980D02*
X445760D01*
Y1179480D01*
X422260Y1164980D02*
Y1179480D01*
X445760D01*
X299320Y1014390D02*
X322820D01*
X299320Y999890D02*
Y1014390D01*
X322820Y999890D02*
Y1014390D01*
X299320Y999890D02*
X322820D01*
X763430Y874680D02*
Y898180D01*
Y874680D02*
X777930D01*
X763430Y898180D02*
X777930D01*
Y874680D02*
Y898180D01*
X746920Y874680D02*
Y898180D01*
Y874680D02*
X761420D01*
X746920Y898180D02*
X761420D01*
Y874680D02*
Y898180D01*
X375140Y996270D02*
X398640D01*
X375140Y981770D02*
Y996270D01*
X398640Y981770D02*
Y996270D01*
X375140Y981770D02*
X398640D01*
X798990Y874680D02*
Y898180D01*
Y874680D02*
X813490D01*
X798990Y898180D02*
X813490D01*
Y874680D02*
Y898180D01*
X781210Y874680D02*
Y898180D01*
Y874680D02*
X795710D01*
X781210Y898180D02*
X795710D01*
Y874680D02*
Y898180D01*
X385250Y1051050D02*
X408750D01*
Y1036550D02*
Y1051050D01*
X385250Y1036550D02*
Y1051050D01*
Y1036550D02*
X408750D01*
X700550Y874680D02*
Y898180D01*
Y874680D02*
X715050D01*
X700550Y898180D02*
X715050D01*
Y874680D02*
Y898180D01*
X731250Y874680D02*
Y898180D01*
X716750D02*
X731250D01*
X716750Y874680D02*
X731250D01*
X716750D02*
Y898180D01*
X648050Y874680D02*
Y898180D01*
X633550D02*
X648050D01*
X633550Y874680D02*
X648050D01*
X633550D02*
Y898180D01*
X651750Y874680D02*
Y898180D01*
Y874680D02*
X666250D01*
X651750Y898180D02*
X666250D01*
Y874680D02*
Y898180D01*
X567320Y1009200D02*
Y1032700D01*
X552820Y1009200D02*
X567320D01*
X552820Y1032700D02*
X567320D01*
X552820Y1009200D02*
Y1032700D01*
X465450Y983800D02*
Y1007300D01*
X450950Y983800D02*
X465450D01*
X450950Y1007300D02*
X465450D01*
X450950Y983800D02*
Y1007300D01*
X465450Y945850D02*
Y969350D01*
X450950Y945850D02*
X465450D01*
X450950Y969350D02*
X465450D01*
X450950Y945850D02*
Y969350D01*
X569050Y948000D02*
Y971500D01*
X554550Y948000D02*
X569050D01*
X554550Y971500D02*
X569050D01*
X554550Y948000D02*
Y971500D01*
X554550Y973250D02*
Y996750D01*
X569050D01*
X554550Y973250D02*
X569050D01*
Y996750D01*
X1342260Y1029160D02*
Y1052660D01*
X1356760D01*
X1342260Y1029160D02*
X1356760D01*
Y1052660D01*
X1410770Y926020D02*
X1434270D01*
X1410770D02*
Y940520D01*
X1434270Y926020D02*
Y940520D01*
X1410770D02*
X1434270D01*
X498910Y923410D02*
X522410D01*
X498910D02*
Y937910D01*
X522410Y923410D02*
Y937910D01*
X498910D02*
X522410D01*
X1195970Y1261460D02*
Y1284960D01*
X1181470Y1261460D02*
X1195970D01*
X1181470Y1284960D02*
X1195970D01*
X1181470Y1261460D02*
Y1284960D01*
X1439280Y930340D02*
Y953840D01*
X1453780D01*
X1439280Y930340D02*
X1453780D01*
Y953840D01*
X1416050Y987850D02*
Y1011350D01*
X1401550D02*
X1416050D01*
X1401550Y987850D02*
X1416050D01*
X1401550D02*
Y1011350D01*
X1218830Y1246460D02*
Y1269960D01*
X1204330D02*
X1218830D01*
X1204330Y1246460D02*
X1218830D01*
X1204330D02*
Y1269960D01*
X915130Y1028044D02*
Y1051544D01*
X900630D02*
X915130D01*
X900630Y1028044D02*
X915130D01*
X900630D02*
Y1051544D01*
X915130Y1227540D02*
Y1251040D01*
X900630Y1227540D02*
X915130D01*
X900630Y1251040D02*
X915130D01*
X900630Y1227540D02*
Y1251040D01*
X1385850Y1073650D02*
X1409350D01*
Y1059150D02*
Y1073650D01*
X1385850Y1059150D02*
Y1073650D01*
Y1059150D02*
X1409350D01*
X800670Y1278430D02*
Y1301930D01*
X815170D01*
X800670Y1278430D02*
X815170D01*
Y1301930D01*
X1456032Y930340D02*
Y953840D01*
X1470532D01*
X1456032Y930340D02*
X1470532D01*
Y953840D01*
X1391950Y929020D02*
Y952520D01*
X1406450D01*
X1391950Y929020D02*
X1406450D01*
Y952520D01*
X840782Y1278430D02*
Y1301930D01*
X826282Y1278430D02*
X840782D01*
X826282Y1301930D02*
X840782D01*
X826282Y1278430D02*
Y1301930D01*
X1201050Y1246460D02*
Y1269960D01*
X1186550D02*
X1201050D01*
X1186550Y1246460D02*
X1201050D01*
X1186550D02*
Y1269960D01*
X1399883Y987850D02*
Y1011350D01*
X1385383D02*
X1399883D01*
X1385383Y987850D02*
X1399883D01*
X1385383D02*
Y1011350D01*
X1183270Y1246460D02*
Y1269960D01*
X1168770D02*
X1183270D01*
X1168770Y1246460D02*
X1183270D01*
X1168770D02*
Y1269960D01*
X849893Y1278430D02*
Y1301930D01*
X864393D01*
X849893Y1278430D02*
X864393D01*
Y1301930D01*
X1459032Y981090D02*
X1482532D01*
Y966590D02*
Y981090D01*
X1459032Y966590D02*
Y981090D01*
Y966590D02*
X1482532D01*
X1383717Y987850D02*
Y1011350D01*
X1369217D02*
X1383717D01*
X1369217Y987850D02*
X1383717D01*
X1369217D02*
Y1011350D01*
X875905Y1278430D02*
Y1301930D01*
X890405D01*
X875905Y1278430D02*
X890405D01*
Y1301930D01*
X928728Y1278430D02*
Y1301930D01*
X943228D01*
X928728Y1278430D02*
X943228D01*
Y1301930D01*
X1181470Y1195660D02*
Y1219160D01*
X1195970D01*
X1181470Y1195660D02*
X1195970D01*
Y1219160D01*
X903117Y1278430D02*
Y1301930D01*
X917617D01*
X903117Y1278430D02*
X917617D01*
Y1301930D01*
X954340Y1278430D02*
Y1301930D01*
X968840D01*
X954340Y1278430D02*
X968840D01*
Y1301930D01*
X1465950Y1261460D02*
Y1284960D01*
X1480450D01*
X1465950Y1261460D02*
X1480450D01*
Y1284960D01*
X1208670Y963360D02*
Y986860D01*
X1194170Y963360D02*
X1208670D01*
X1194170Y986860D02*
X1208670D01*
X1194170Y963360D02*
Y986860D01*
X1153050Y941850D02*
X1176550D01*
Y927350D02*
Y941850D01*
X1153050Y927350D02*
Y941850D01*
Y927350D02*
X1176550D01*
X1485530Y1246460D02*
Y1269960D01*
X1471030D02*
X1485530D01*
X1471030Y1246460D02*
X1485530D01*
X1471030D02*
Y1269960D01*
X1183320Y1210430D02*
X1206820D01*
Y1224930D01*
X1183320Y1210430D02*
Y1224930D01*
X1206820D01*
X1469020Y1246460D02*
Y1269960D01*
X1454520D02*
X1469020D01*
X1454520Y1246460D02*
X1469020D01*
X1454520D02*
Y1269960D01*
X914630Y1077918D02*
Y1101418D01*
X900130Y1077918D02*
X914630D01*
X900130Y1101418D02*
X914630D01*
X900130Y1077918D02*
Y1101418D01*
X900630Y1227540D02*
Y1251040D01*
Y1227540D02*
X915130D01*
X900630Y1251040D02*
X915130D01*
Y1227540D02*
Y1251040D01*
X1225180Y1195650D02*
Y1219150D01*
X1210680D02*
X1225180D01*
X1210680Y1195650D02*
X1225180D01*
X1210680D02*
Y1219150D01*
X1183320Y1207150D02*
X1206820D01*
X1183320Y1192650D02*
Y1207150D01*
X1206820Y1192650D02*
Y1207150D01*
X1183320Y1192650D02*
X1206820D01*
X635900Y949270D02*
Y972770D01*
X621400Y949270D02*
X635900D01*
X621400Y972770D02*
X635900D01*
X621400Y949270D02*
Y972770D01*
X1438010Y1246460D02*
Y1269960D01*
Y1246460D02*
X1452510D01*
X1438010Y1269960D02*
X1452510D01*
Y1246460D02*
Y1269960D01*
X1154110Y1192650D02*
X1177610D01*
Y1207150D01*
X1154110Y1192650D02*
Y1207150D01*
X1177610D01*
X1125850Y958250D02*
X1149350D01*
Y943750D02*
Y958250D01*
X1125850Y943750D02*
Y958250D01*
Y943750D02*
X1149350D01*
X1226450Y963360D02*
Y986860D01*
X1211950Y963360D02*
X1226450D01*
X1211950Y986860D02*
X1226450D01*
X1211950Y963360D02*
Y986860D01*
X1247510Y963360D02*
Y986860D01*
X1262010D01*
X1247510Y963360D02*
X1262010D01*
Y986860D01*
X1480450Y1195660D02*
Y1219160D01*
X1465950Y1195660D02*
X1480450D01*
X1465950Y1219160D02*
X1480450D01*
X1465950Y1195660D02*
Y1219160D01*
X758960Y876010D02*
X777960D01*
Y917010D01*
X758960Y876010D02*
Y917010D01*
X777960D01*
X1457760Y1192760D02*
X1481260D01*
Y1207260D01*
X1457760Y1192760D02*
Y1207260D01*
X1481260D01*
X1318630Y1261460D02*
Y1284960D01*
X1333130D01*
X1318630Y1261460D02*
X1333130D01*
Y1284960D01*
X1483730Y1180760D02*
Y1204260D01*
Y1180760D02*
X1498230D01*
X1483730Y1204260D02*
X1498230D01*
Y1180760D02*
Y1204260D01*
X1457640Y1176960D02*
X1481140D01*
Y1191460D01*
X1457640Y1176960D02*
Y1191460D01*
X1481140D01*
X1082940Y1029510D02*
Y1053010D01*
X1068440Y1029510D02*
X1082940D01*
X1068440Y1053010D02*
X1082940D01*
X1068440Y1029510D02*
Y1053010D01*
X900630Y1077918D02*
Y1101418D01*
Y1077918D02*
X915130D01*
X900630Y1101418D02*
X915130D01*
Y1077918D02*
Y1101418D01*
X1096520Y991780D02*
Y1015280D01*
Y991780D02*
X1111020D01*
X1096520Y1015280D02*
X1111020D01*
Y991780D02*
Y1015280D01*
X1430970Y1191460D02*
X1454470D01*
X1430970Y1176960D02*
Y1191460D01*
X1454470Y1176960D02*
Y1191460D01*
X1430970Y1176960D02*
X1454470D01*
X1112650Y1073850D02*
X1136150D01*
Y1059350D02*
Y1073850D01*
X1112650Y1059350D02*
Y1073850D01*
Y1059350D02*
X1136150D01*
X1357650Y1272850D02*
X1381150D01*
X1357650Y1258350D02*
Y1272850D01*
X1381150Y1258350D02*
Y1272850D01*
X1357650Y1258350D02*
X1381150D01*
X1080010Y991780D02*
Y1015280D01*
Y991780D02*
X1094510D01*
X1080010Y1015280D02*
X1094510D01*
Y991780D02*
Y1015280D01*
X1340550Y1246050D02*
Y1269550D01*
Y1246050D02*
X1355050D01*
X1340550Y1269550D02*
X1355050D01*
Y1246050D02*
Y1269550D01*
X915130Y1177666D02*
Y1201166D01*
X900630D02*
X915130D01*
X900630Y1177666D02*
X915130D01*
X900630D02*
Y1201166D01*
X1358040Y1256338D02*
X1381540D01*
X1358040Y1241838D02*
Y1256338D01*
X1381540Y1241838D02*
Y1256338D01*
X1358040Y1241838D02*
X1381540D01*
X1062230Y991780D02*
Y1015280D01*
Y991780D02*
X1076730D01*
X1062230Y1015280D02*
X1076730D01*
Y991780D02*
Y1015280D01*
X1358040Y1239826D02*
X1381540D01*
X1358040Y1225326D02*
Y1239826D01*
X1381540Y1225326D02*
Y1239826D01*
X1358040Y1225326D02*
X1381540D01*
X1062090Y1261460D02*
Y1284960D01*
X1076590D01*
X1062090Y1261460D02*
X1076590D01*
Y1284960D01*
X1358040Y1175790D02*
X1381540D01*
Y1190290D01*
X1358040Y1175790D02*
Y1190290D01*
X1381540D01*
X1075370Y1268850D02*
X1098870D01*
Y1283350D01*
X1075370Y1268850D02*
Y1283350D01*
X1098870D01*
X915130Y1127792D02*
Y1151292D01*
X900630D02*
X915130D01*
X900630Y1127792D02*
X915130D01*
X900630D02*
Y1151292D01*
X1115960Y1273240D02*
Y1296740D01*
X1101460D02*
X1115960D01*
X1101460Y1273240D02*
X1115960D01*
X1101460D02*
Y1296740D01*
X1074100Y1285360D02*
X1097600D01*
Y1299860D01*
X1074100Y1285360D02*
Y1299860D01*
X1097600D01*
X900630Y1177666D02*
Y1201166D01*
X915130D01*
X900630Y1177666D02*
X915130D01*
Y1201166D01*
X914630Y1127792D02*
Y1151292D01*
X900130Y1127792D02*
X914630D01*
X900130Y1151292D02*
X914630D01*
X900130Y1127792D02*
Y1151292D01*
X1047830Y1205060D02*
X1071330D01*
Y1219560D01*
X1047830Y1205060D02*
Y1219560D01*
X1071330D01*
X1047430Y1299860D02*
X1070930D01*
X1047430Y1285360D02*
Y1299860D01*
X1070930Y1285360D02*
Y1299860D01*
X1047430Y1285360D02*
X1070930D01*
X1059330Y1223420D02*
Y1246920D01*
X1044830D02*
X1059330D01*
X1044830Y1223420D02*
X1059330D01*
X1044830D02*
Y1246920D01*
X1395810Y1008010D02*
X1405810D01*
X1400810Y1003010D02*
Y1013010D01*
X1130300Y1235310D02*
Y1245310D01*
X1125300Y1240310D02*
X1135300D01*
X712550Y982520D02*
X722550D01*
X717550Y977520D02*
Y987520D01*
X753550Y939020D02*
Y1026020D01*
X681550Y939020D02*
Y1026020D01*
X753550D01*
X681550Y939020D02*
X753550D01*
X680390Y827610D02*
X752390D01*
X680390Y914610D02*
X752390D01*
X680390Y827610D02*
Y914610D01*
X752390Y827610D02*
Y914610D01*
X716390Y866110D02*
Y876110D01*
X711390Y871110D02*
X721390D01*
X552250Y882400D02*
Y896400D01*
Y896400D02*
X577750D01*
Y882400D02*
Y896400D01*
X552250Y882400D02*
X577750Y882400D01*
X524850Y864750D02*
X548350D01*
X524850D02*
Y879250D01*
X548350Y864750D02*
Y879250D01*
X524850D02*
X548350D01*
X552130Y879490D02*
X575630D01*
Y864990D02*
Y879490D01*
X552130Y864990D02*
Y879490D01*
Y864990D02*
X575630D01*
X524600Y1142750D02*
X524600Y1117250D01*
X524600Y1142750D02*
X538600D01*
Y1117250D02*
Y1142750D01*
X524600Y1117250D02*
X538600D01*
X1348790Y1233540D02*
Y1247540D01*
X1323290Y1233540D02*
X1348790D01*
X1323290D02*
Y1247540D01*
Y1247540D02*
X1348790Y1247540D01*
X1474640Y1233540D02*
Y1247540D01*
X1449140Y1233540D02*
X1474640D01*
X1449140D02*
Y1247540D01*
Y1247540D02*
X1474640Y1247540D01*
X1130300Y1003360D02*
Y1013360D01*
X1125300Y1008360D02*
X1135300D01*
X914630Y1028044D02*
Y1051544D01*
X900130Y1028044D02*
X914630D01*
X900130Y1051544D02*
X914630D01*
X900130Y1028044D02*
Y1051544D01*
X900630Y978170D02*
Y1001670D01*
X915130D01*
X900630Y978170D02*
X915130D01*
Y1001670D01*
X900630Y978170D02*
Y1001670D01*
Y978170D02*
X915130D01*
X900630Y1001670D02*
X915130D01*
Y978170D02*
Y1001670D01*
X1400810Y1235310D02*
Y1245310D01*
X1395810Y1240310D02*
X1405810D01*
X1177550Y943980D02*
Y957980D01*
X1152050Y943980D02*
X1177550D01*
X1152050D02*
Y957980D01*
Y957980D02*
X1177550Y957980D01*
X612800Y1324550D02*
X626800D01*
X612800Y1299050D02*
Y1324550D01*
Y1299050D02*
X626800D01*
X626800Y1324550D02*
X626800Y1299050D01*
X674050Y1058200D02*
X699550Y1058200D01*
X674050Y1058200D02*
Y1072200D01*
X699550D01*
Y1058200D02*
Y1072200D01*
X1355050Y516050D02*
Y539550D01*
X1340550D02*
X1355050D01*
X1340550Y516050D02*
X1355050D01*
X1340550D02*
Y539550D01*
X1357650Y528350D02*
X1381150D01*
Y542850D01*
X1357650Y528350D02*
Y542850D01*
X1381150D01*
X1358040Y511838D02*
X1381540D01*
Y526338D01*
X1358040Y511838D02*
Y526338D01*
X1381540D01*
X1358040Y495326D02*
X1381540D01*
Y509826D01*
X1358040Y495326D02*
Y509826D01*
X1381540D01*
X1357040Y478564D02*
Y492564D01*
Y478564D02*
X1382540D01*
Y492564D01*
X1357040Y492564D02*
X1382540Y492564D01*
X1382540Y462052D02*
Y476052D01*
X1357040Y476052D02*
X1382540D01*
X1357040Y462052D02*
Y476052D01*
Y462052D02*
X1382540Y462052D01*
X1358040Y460290D02*
X1381540D01*
X1358040Y445790D02*
Y460290D01*
X1381540Y445790D02*
Y460290D01*
X1358040Y445790D02*
X1381540D01*
X1423020Y515460D02*
X1437020D01*
X1437020D02*
Y540960D01*
X1423020D02*
X1437020D01*
X1423020D02*
X1423020Y515460D01*
X1452510Y516460D02*
Y539960D01*
X1438010D02*
X1452510D01*
X1438010Y516460D02*
X1452510D01*
X1438010D02*
Y539960D01*
X1454520Y516460D02*
Y539960D01*
Y516460D02*
X1469020D01*
X1454520Y539960D02*
X1469020D01*
Y516460D02*
Y539960D01*
X1471030Y516460D02*
Y539960D01*
Y516460D02*
X1485530D01*
X1471030Y539960D02*
X1485530D01*
Y516460D02*
Y539960D01*
X1498230Y450760D02*
Y474260D01*
X1483730D02*
X1498230D01*
X1483730Y450760D02*
X1498230D01*
X1483730D02*
Y474260D01*
X1457640Y461460D02*
X1481140D01*
X1457640Y446960D02*
Y461460D01*
X1481140Y446960D02*
Y461460D01*
X1457640Y446960D02*
X1481140D01*
X1457760Y477260D02*
X1481260D01*
X1457760Y462760D02*
Y477260D01*
X1481260Y462760D02*
Y477260D01*
X1457760Y462760D02*
X1481260D01*
X1430970Y446960D02*
X1454470D01*
Y461460D01*
X1430970Y446960D02*
Y461460D01*
X1454470D01*
X1429970Y463010D02*
Y477010D01*
Y463010D02*
X1455470D01*
Y477010D01*
X1429970Y477010D02*
X1455470Y477010D01*
X1369217Y257850D02*
Y281350D01*
Y257850D02*
X1383717D01*
X1369217Y281350D02*
X1383717D01*
Y257850D02*
Y281350D01*
X1352800Y282350D02*
X1352800Y256850D01*
X1352800Y282350D02*
X1366800D01*
Y256850D02*
Y282350D01*
X1352800Y256850D02*
X1366800D01*
X1385383Y257850D02*
Y281350D01*
Y257850D02*
X1399883D01*
X1385383Y281350D02*
X1399883D01*
Y257850D02*
Y281350D01*
X1401550Y257850D02*
Y281350D01*
Y257850D02*
X1416050D01*
X1401550Y281350D02*
X1416050D01*
Y257850D02*
Y281350D01*
X1183320Y462650D02*
X1206820D01*
Y477150D01*
X1183320Y462650D02*
Y477150D01*
X1206820D01*
X1183320Y494930D02*
X1206820D01*
X1183320Y480430D02*
Y494930D01*
X1206820Y480430D02*
Y494930D01*
X1183320Y480430D02*
X1206820D01*
X1210680Y465650D02*
Y489150D01*
Y465650D02*
X1225180D01*
X1210680Y489150D02*
X1225180D01*
Y465650D02*
Y489150D01*
X1154110Y477150D02*
X1177610D01*
X1154110Y462650D02*
Y477150D01*
X1177610Y462650D02*
Y477150D01*
X1154110Y462650D02*
X1177610D01*
X1153110Y480680D02*
X1178610Y480680D01*
X1153110Y480680D02*
Y494680D01*
X1178610D01*
Y480680D02*
Y494680D01*
X1168770Y516460D02*
Y539960D01*
Y516460D02*
X1183270D01*
X1168770Y539960D02*
X1183270D01*
Y516460D02*
Y539960D01*
X1151240Y540960D02*
X1165240D01*
X1151240Y515460D02*
Y540960D01*
Y515460D02*
X1165240D01*
X1165240Y540960D02*
X1165240Y515460D01*
X1186550Y516460D02*
Y539960D01*
Y516460D02*
X1201050D01*
X1186550Y539960D02*
X1201050D01*
Y516460D02*
Y539960D01*
X1204330Y516460D02*
Y539960D01*
Y516460D02*
X1218830D01*
X1204330Y539960D02*
X1218830D01*
Y516460D02*
Y539960D01*
X1101460Y543240D02*
Y566740D01*
Y543240D02*
X1115960D01*
X1101460Y566740D02*
X1115960D01*
Y543240D02*
Y566740D01*
X1075370Y553350D02*
X1098870D01*
X1075370Y538850D02*
Y553350D01*
X1098870Y538850D02*
Y553350D01*
X1075370Y538850D02*
X1098870D01*
X1074100Y569860D02*
X1097600D01*
X1074100Y555360D02*
Y569860D01*
X1097600Y555360D02*
Y569860D01*
X1074100Y555360D02*
X1097600D01*
X1047430D02*
X1070930D01*
Y569860D01*
X1047430Y555360D02*
Y569860D01*
X1070930D01*
X1046430Y539100D02*
Y553100D01*
Y539100D02*
X1071930D01*
Y553100D01*
X1046430Y553100D02*
X1071930Y553100D01*
X1075800Y517850D02*
X1075800Y492350D01*
X1061800D02*
X1075800D01*
X1061800D02*
Y517850D01*
X1061800D02*
X1075800D01*
X1044830Y493420D02*
Y516920D01*
Y493420D02*
X1059330D01*
X1044830Y516920D02*
X1059330D01*
Y493420D02*
Y516920D01*
X1047830Y489560D02*
X1071330D01*
X1047830Y475060D02*
Y489560D01*
X1071330Y475060D02*
Y489560D01*
X1047830Y475060D02*
X1071330D01*
X1076730Y261780D02*
Y285280D01*
X1062230D02*
X1076730D01*
X1062230Y261780D02*
X1076730D01*
X1062230D02*
Y285280D01*
X1094510Y261780D02*
Y285280D01*
X1080010D02*
X1094510D01*
X1080010Y261780D02*
X1094510D01*
X1080010D02*
Y285280D01*
X1111020Y261780D02*
Y285280D01*
X1096520D02*
X1111020D01*
X1096520Y261780D02*
X1111020D01*
X1096520D02*
Y285280D01*
X1044700Y286280D02*
X1044700Y260780D01*
X1044700Y286280D02*
X1058700D01*
Y260780D02*
Y286280D01*
X1044700Y260780D02*
X1058700D01*
X915130Y248170D02*
Y271670D01*
X900630D02*
X915130D01*
X900630Y248170D02*
X915130D01*
X900630D02*
Y271670D01*
X843300Y272670D02*
X857300D01*
X843300Y247170D02*
Y272670D01*
Y247170D02*
X857300D01*
X857300Y272670D02*
X857300Y247170D01*
X843300Y297044D02*
X857300D01*
X857300D02*
Y322544D01*
X843300D02*
X857300D01*
X843300D02*
X843300Y297044D01*
X900630Y298044D02*
Y321544D01*
Y298044D02*
X915130D01*
X900630Y321544D02*
X915130D01*
Y298044D02*
Y321544D01*
Y347918D02*
Y371418D01*
X900630D02*
X915130D01*
X900630Y347918D02*
X915130D01*
X900630D02*
Y371418D01*
X857300Y372418D02*
X857300Y346918D01*
X843300D02*
X857300D01*
X843300D02*
Y372418D01*
X843300D02*
X857300D01*
X843300Y422292D02*
X857300D01*
X843300Y396792D02*
Y422292D01*
Y396792D02*
X857300D01*
X857300Y422292D02*
X857300Y396792D01*
X900630Y397792D02*
Y421292D01*
Y397792D02*
X915130D01*
X900630Y421292D02*
X915130D01*
Y397792D02*
Y421292D01*
X900630Y447666D02*
Y471166D01*
Y447666D02*
X915130D01*
X900630Y471166D02*
X915130D01*
Y447666D02*
Y471166D01*
X843300Y446666D02*
X857300D01*
X857300D02*
Y472166D01*
X843300D02*
X857300D01*
X843300D02*
X843300Y446666D01*
X915130Y497540D02*
Y521040D01*
X900630D02*
X915130D01*
X900630Y497540D02*
X915130D01*
X900630D02*
Y521040D01*
X857300Y522040D02*
X857300Y496540D01*
X843300D02*
X857300D01*
X843300D02*
Y522040D01*
X843300D02*
X857300D01*
X630333Y594550D02*
X644333D01*
X630333Y569050D02*
Y594550D01*
Y569050D02*
X644333D01*
X644333Y594550D02*
X644333Y569050D01*
X626800Y594550D02*
X626800Y569050D01*
X612800D02*
X626800D01*
X612800D02*
Y594550D01*
X612800D02*
X626800D01*
X648200D02*
X662200D01*
X648200Y569050D02*
Y594550D01*
Y569050D02*
X662200D01*
X662200Y594550D02*
X662200Y569050D01*
X695800Y594550D02*
X695800Y569050D01*
X681800D02*
X695800D01*
X681800D02*
Y594550D01*
X681800D02*
X695800D01*
X699550Y328200D02*
Y342200D01*
X674050Y342200D02*
X699550D01*
X674050Y328200D02*
Y342200D01*
Y328200D02*
X699550Y328200D01*
X715050Y144680D02*
Y168180D01*
X700550D02*
X715050D01*
X700550Y144680D02*
X715050D01*
X700550D02*
Y168180D01*
X716750Y144680D02*
Y168180D01*
Y144680D02*
X731250D01*
X716750Y168180D02*
X731250D01*
Y144680D02*
Y168180D01*
X733200Y169180D02*
X747200D01*
X733200Y143680D02*
Y169180D01*
Y143680D02*
X747200D01*
X747200Y169180D02*
X747200Y143680D01*
X761420Y144680D02*
Y168180D01*
X746920D02*
X761420D01*
X746920Y144680D02*
X761420D01*
X746920D02*
Y168180D01*
X777930Y144680D02*
Y168180D01*
X763430D02*
X777930D01*
X763430Y144680D02*
X777930D01*
X763430D02*
Y168180D01*
X795710Y144680D02*
Y168180D01*
X781210D02*
X795710D01*
X781210Y144680D02*
X795710D01*
X781210D02*
Y168180D01*
X813490Y144680D02*
Y168180D01*
X798990D02*
X813490D01*
X798990Y144680D02*
X813490D01*
X798990D02*
Y168180D01*
X666250Y144680D02*
Y168180D01*
X651750D02*
X666250D01*
X651750Y144680D02*
X666250D01*
X651750D02*
Y168180D01*
X633550Y144680D02*
Y168180D01*
Y144680D02*
X648050D01*
X633550Y168180D02*
X648050D01*
Y144680D02*
Y168180D01*
X422260Y449480D02*
X445760D01*
X422260Y434980D02*
Y449480D01*
X445760Y434980D02*
Y449480D01*
X422260Y434980D02*
X445760D01*
X421260Y419120D02*
X446760Y419120D01*
X421260Y419120D02*
Y433120D01*
X446760D01*
Y419120D02*
Y433120D01*
X524600Y387250D02*
X538600D01*
X538600D02*
Y412750D01*
X524600D02*
X538600D01*
X524600D02*
X524600Y387250D01*
X540400Y387050D02*
X554400D01*
X554400D02*
Y412550D01*
X540400D02*
X554400D01*
X540400D02*
X540400Y387050D01*
X422260Y380160D02*
X445760D01*
X422260Y365660D02*
Y380160D01*
X445760Y365660D02*
Y380160D01*
X422260Y365660D02*
X445760D01*
X421260Y349800D02*
X446760Y349800D01*
X421260Y349800D02*
Y363800D01*
X446760D01*
Y349800D02*
Y363800D01*
X298320Y460840D02*
Y474840D01*
Y460840D02*
X323820D01*
Y474840D01*
X298320Y474840D02*
X323820Y474840D01*
X299320Y459380D02*
X322820D01*
X299320Y444880D02*
Y459380D01*
X322820Y444880D02*
Y459380D01*
X299320Y444880D02*
X322820D01*
X298320Y393320D02*
Y407320D01*
Y393320D02*
X323820D01*
Y407320D01*
X298320Y407320D02*
X323820Y407320D01*
X299320Y392060D02*
X322820D01*
X299320Y377560D02*
Y392060D01*
X322820Y377560D02*
Y392060D01*
X299320Y377560D02*
X322820D01*
X375140Y251770D02*
X398640D01*
Y266270D01*
X375140Y251770D02*
Y266270D01*
X398640D01*
X399640Y236780D02*
Y250780D01*
X374140Y250780D02*
X399640D01*
X374140Y236780D02*
Y250780D01*
Y236780D02*
X399640Y236780D01*
X298320Y300650D02*
X323820Y300650D01*
Y286650D02*
Y300650D01*
X298320Y286650D02*
X323820D01*
X298320Y286650D02*
Y300650D01*
X299320Y269890D02*
X322820D01*
Y284390D01*
X299320Y269890D02*
Y284390D01*
X322820D01*
X214850Y210800D02*
X240350Y210800D01*
X214850Y210800D02*
Y224800D01*
X240350D01*
Y210800D02*
Y224800D01*
X215850Y241050D02*
X239350D01*
X215850Y226550D02*
Y241050D01*
X239350Y226550D02*
Y241050D01*
X215850Y226550D02*
X239350D01*
X215150Y277400D02*
X240650Y277400D01*
X215150Y277400D02*
Y291400D01*
X240650D01*
Y277400D02*
Y291400D01*
X216150Y307650D02*
X239650D01*
X216150Y293150D02*
Y307650D01*
X239650Y293150D02*
Y307650D01*
X216150Y293150D02*
X239650D01*
X215150Y380880D02*
X240650Y380880D01*
X215150Y380880D02*
Y394880D01*
X240650D01*
Y380880D02*
Y394880D01*
X216150Y411050D02*
X239650D01*
X216150Y396550D02*
Y411050D01*
X239650Y396550D02*
Y411050D01*
X216150Y396550D02*
X239650D01*
X91850Y461600D02*
Y475600D01*
Y461600D02*
X117350D01*
Y475600D01*
X91850Y475600D02*
X117350Y475600D01*
X92850Y459850D02*
X116350D01*
X92850Y445350D02*
Y459850D01*
X116350Y445350D02*
Y459850D01*
X92850Y445350D02*
X116350D01*
X91850Y407800D02*
X117350Y407800D01*
Y393800D02*
Y407800D01*
X91850Y393800D02*
X117350D01*
X91850Y393800D02*
Y407800D01*
X92850Y377550D02*
X116350D01*
Y392050D01*
X92850Y377550D02*
Y392050D01*
X116350D01*
X91850Y277200D02*
Y291200D01*
Y277200D02*
X117350D01*
Y291200D01*
X91850Y291200D02*
X117350Y291200D01*
X92850Y275450D02*
X116350D01*
X92850Y260950D02*
Y275450D01*
X116350Y260950D02*
Y275450D01*
X92850Y260950D02*
X116350D01*
X1395810Y510310D02*
X1405810D01*
X1400810Y505310D02*
Y515310D01*
X1480450Y531460D02*
Y554960D01*
X1465950Y531460D02*
X1480450D01*
X1465950Y554960D02*
X1480450D01*
X1465950Y531460D02*
Y554960D01*
X1447390Y555960D02*
X1461390D01*
X1461390Y530460D02*
Y555960D01*
X1447390Y530460D02*
X1461390D01*
X1447390D02*
X1447390Y555960D01*
X1449140Y517540D02*
X1474640Y517540D01*
X1449140Y503540D02*
Y517540D01*
Y503540D02*
X1474640D01*
Y503540D02*
Y517540D01*
X1465950Y465660D02*
Y489160D01*
X1480450D01*
X1465950Y465660D02*
X1480450D01*
Y489160D01*
X1447390Y464660D02*
X1461390D01*
X1447390D02*
Y490160D01*
X1461390D01*
X1461390Y464660D02*
X1461390Y490160D01*
X1323290Y517540D02*
X1348790Y517540D01*
X1323290Y503540D02*
Y517540D01*
Y503540D02*
X1348790D01*
Y503540D02*
Y517540D01*
X1335390Y555960D02*
X1349390D01*
X1349390Y530460D02*
Y555960D01*
X1335390Y530460D02*
X1349390D01*
X1335390D02*
X1335390Y555960D01*
X1333130Y531460D02*
Y554960D01*
X1318630Y531460D02*
X1333130D01*
X1318630Y554960D02*
X1333130D01*
X1318630Y531460D02*
Y554960D01*
X1385850Y329150D02*
X1409350D01*
X1385850D02*
Y343650D01*
X1409350Y329150D02*
Y343650D01*
X1385850D02*
X1409350D01*
X1400810Y273010D02*
Y283010D01*
X1395810Y278010D02*
X1405810D01*
X1356760Y299160D02*
Y322660D01*
X1342260Y299160D02*
X1356760D01*
X1342260Y322660D02*
X1356760D01*
X1342260Y299160D02*
Y322660D01*
X1326500Y323660D02*
X1340500D01*
X1340500Y298160D02*
Y323660D01*
X1326500Y298160D02*
X1340500D01*
X1326500D02*
X1326500Y323660D01*
X1354760Y271010D02*
Y285010D01*
X1329260Y271010D02*
X1354760D01*
X1329260D02*
Y285010D01*
Y285010D02*
X1354760Y285010D01*
X1449690Y298260D02*
X1463690D01*
X1463690Y272760D02*
Y298260D01*
X1449690Y272760D02*
X1463690D01*
X1449690D02*
X1449690Y298260D01*
X1469030Y269760D02*
X1487530D01*
X1469030Y310260D02*
X1469030Y269760D01*
X1469030Y310260D02*
X1487530D01*
Y269760D02*
Y310260D01*
X1458032Y253350D02*
Y267350D01*
Y267350D02*
X1483532D01*
Y253350D02*
Y267350D01*
X1458032Y253350D02*
X1483532Y253350D01*
X1459032Y236590D02*
X1482532D01*
X1459032D02*
Y251090D01*
X1482532Y236590D02*
Y251090D01*
X1459032D02*
X1482532D01*
X1470532Y200340D02*
Y223840D01*
X1456032Y200340D02*
X1470532D01*
X1456032Y223840D02*
X1470532D01*
X1456032Y200340D02*
Y223840D01*
X1453780Y200340D02*
Y223840D01*
X1439280Y200340D02*
X1453780D01*
X1439280Y223840D02*
X1453780D01*
X1439280Y200340D02*
Y223840D01*
X1409650Y212590D02*
Y226590D01*
Y226590D02*
X1435150D01*
Y212590D02*
Y226590D01*
X1409650Y212590D02*
X1435150Y212590D01*
X1410770Y210520D02*
X1434270D01*
Y196020D02*
Y210520D01*
X1410770Y196020D02*
Y210520D01*
Y196020D02*
X1434270D01*
X1406450Y199020D02*
Y222520D01*
X1391950Y199020D02*
X1406450D01*
X1391950Y222520D02*
X1406450D01*
X1391950Y199020D02*
Y222520D01*
X1194710Y270110D02*
X1213210D01*
X1194710Y310610D02*
X1194710Y270110D01*
X1194710Y310610D02*
X1213210D01*
Y270110D02*
Y310610D01*
X1177910Y298610D02*
X1191910D01*
X1191910Y273110D02*
Y298610D01*
X1177910Y273110D02*
X1191910D01*
X1177910D02*
X1177910Y298610D01*
X1262010Y233360D02*
Y256860D01*
X1247510Y233360D02*
X1262010D01*
X1247510Y256860D02*
X1262010D01*
X1247510Y233360D02*
Y256860D01*
X1229980Y257860D02*
X1243980D01*
X1243980Y232360D02*
Y257860D01*
X1229980Y232360D02*
X1243980D01*
X1229980D02*
X1229980Y257860D01*
X1211950Y233360D02*
Y256860D01*
X1226450D01*
X1211950Y233360D02*
X1226450D01*
Y256860D01*
X1194170Y233360D02*
Y256860D01*
X1208670D01*
X1194170Y233360D02*
X1208670D01*
Y256860D01*
X1125300Y278360D02*
X1135300D01*
X1130300Y273360D02*
Y283360D01*
X1237070Y209188D02*
Y227688D01*
X1196570Y209188D02*
X1237070Y209188D01*
X1196570Y209188D02*
Y227688D01*
X1237070D01*
Y186328D02*
Y204828D01*
X1196570Y186328D02*
X1237070Y186328D01*
X1196570Y186328D02*
Y204828D01*
X1237070D01*
X1152050Y227980D02*
X1177550Y227980D01*
X1152050Y213980D02*
Y227980D01*
Y213980D02*
X1177550D01*
Y213980D02*
Y227980D01*
X1153050Y197350D02*
X1176550D01*
X1153050D02*
Y211850D01*
X1176550Y197350D02*
Y211850D01*
X1153050D02*
X1176550D01*
X1177550Y181780D02*
Y195780D01*
X1152050Y181780D02*
X1177550D01*
X1152050D02*
Y195780D01*
Y195780D02*
X1177550Y195780D01*
X1125850Y213750D02*
X1149350D01*
X1125850D02*
Y228250D01*
X1149350Y213750D02*
Y228250D01*
X1125850D02*
X1149350D01*
X1112650Y329350D02*
X1136150D01*
X1112650D02*
Y343850D01*
X1136150Y329350D02*
Y343850D01*
X1112650D02*
X1136150D01*
X1083360Y271360D02*
Y285360D01*
X1057860Y271360D02*
X1083360D01*
X1057860D02*
Y285360D01*
Y285360D02*
X1083360Y285360D01*
X1068440Y299510D02*
Y323010D01*
X1082940D01*
X1068440Y299510D02*
X1082940D01*
Y323010D01*
X1050910Y298510D02*
X1050910Y324010D01*
X1050910Y298510D02*
X1064910D01*
Y324010D01*
X1050910D02*
X1064910D01*
X1195970Y465660D02*
Y489160D01*
X1181470Y465660D02*
X1195970D01*
X1181470Y489160D02*
X1195970D01*
X1181470Y465660D02*
Y489160D01*
X1198230Y490160D02*
X1212230D01*
X1212230Y464660D02*
Y490160D01*
X1198230Y464660D02*
X1212230D01*
X1198230D02*
X1198230Y490160D01*
X1206550Y503310D02*
Y517310D01*
X1181050Y503310D02*
X1206550D01*
X1181050D02*
Y517310D01*
Y517310D02*
X1206550Y517310D01*
X1198230Y530460D02*
X1212230D01*
X1198230D02*
Y555960D01*
X1212230D01*
X1212230Y530460D02*
X1212230Y555960D01*
X1181470Y531460D02*
Y554960D01*
X1195970D01*
X1181470Y531460D02*
X1195970D01*
Y554960D01*
X1079550Y503310D02*
Y517310D01*
X1054050Y503310D02*
X1079550D01*
X1054050D02*
Y517310D01*
Y517310D02*
X1079550Y517310D01*
X1044560Y555960D02*
X1058560D01*
X1058560Y530460D02*
Y555960D01*
X1044560Y530460D02*
X1058560D01*
X1044560D02*
X1044560Y555960D01*
X1076590Y531460D02*
Y554960D01*
X1062090Y531460D02*
X1076590D01*
X1062090Y554960D02*
X1076590D01*
X1062090Y531460D02*
Y554960D01*
X1125300Y510310D02*
X1135300D01*
X1130300Y505310D02*
Y515310D01*
X968840Y548430D02*
Y571930D01*
X954340Y548430D02*
X968840D01*
X954340Y571930D02*
X968840D01*
X954340Y548430D02*
Y571930D01*
X943228Y548430D02*
Y571930D01*
X928728Y548430D02*
X943228D01*
X928728Y571930D02*
X943228D01*
X928728Y548430D02*
Y571930D01*
X917617Y548430D02*
Y571930D01*
X903117Y548430D02*
X917617D01*
X903117Y571930D02*
X917617D01*
X903117Y548430D02*
Y571930D01*
X890405Y548430D02*
Y571930D01*
X875905Y548430D02*
X890405D01*
X875905Y571930D02*
X890405D01*
X875905Y548430D02*
Y571930D01*
X864393Y548430D02*
Y571930D01*
X849893Y548430D02*
X864393D01*
X849893Y571930D02*
X864393D01*
X849893Y548430D02*
Y571930D01*
X826282Y548430D02*
Y571930D01*
X840782D01*
X826282Y548430D02*
X840782D01*
Y571930D01*
X815170Y548430D02*
Y571930D01*
X800670Y548430D02*
X815170D01*
X800670Y571930D02*
X815170D01*
X800670Y548430D02*
Y571930D01*
X900630Y497540D02*
Y521040D01*
X915130D01*
X900630Y497540D02*
X915130D01*
Y521040D01*
X843300Y496540D02*
X843300Y522040D01*
X843300Y496540D02*
X857300D01*
Y522040D01*
X843300D02*
X857300D01*
X915130Y447666D02*
Y471166D01*
X900630Y447666D02*
X915130D01*
X900630Y471166D02*
X915130D01*
X900630Y447666D02*
Y471166D01*
X900130Y397792D02*
Y421292D01*
X914630D01*
X900130Y397792D02*
X914630D01*
Y421292D01*
X843300Y472166D02*
X857300D01*
X857300Y446666D02*
Y472166D01*
X843300Y446666D02*
X857300D01*
X843300D02*
X843300Y472166D01*
X843300Y396792D02*
X843300Y422292D01*
X843300Y396792D02*
X857300D01*
Y422292D01*
X843300D02*
X857300D01*
X842800Y346918D02*
X842800Y372418D01*
X842800Y346918D02*
X856800D01*
Y372418D01*
X842800D02*
X856800D01*
X842800Y297044D02*
X842800Y322544D01*
X842800Y297044D02*
X856800D01*
Y322544D01*
X842800D02*
X856800D01*
X900130Y347918D02*
Y371418D01*
X914630D01*
X900130Y347918D02*
X914630D01*
Y371418D01*
X900130Y298044D02*
Y321544D01*
X914630D01*
X900130Y298044D02*
X914630D01*
Y321544D01*
X915130Y248170D02*
Y271670D01*
X900630Y248170D02*
X915130D01*
X900630Y271670D02*
X915130D01*
X900630Y248170D02*
Y271670D01*
X843300Y272670D02*
X857300D01*
X857300Y247170D02*
Y272670D01*
X843300Y247170D02*
X857300D01*
X843300D02*
X843300Y272670D01*
X758960Y187010D02*
X777960D01*
X758960Y146010D02*
Y187010D01*
X777960Y146010D02*
Y187010D01*
X758960Y146010D02*
X777960D01*
X777710Y100540D02*
Y141040D01*
X759210D02*
X777710D01*
X759210D02*
X759210Y100540D01*
X777710D01*
X801840D02*
Y141040D01*
X783340D02*
X801840D01*
X783340D02*
X783340Y100540D01*
X801840D01*
X831310Y102960D02*
X831310Y128460D01*
X831310Y102960D02*
X845310D01*
Y128460D01*
X831310D02*
X845310D01*
X809720Y102960D02*
X809720Y128460D01*
X809720Y102960D02*
X823720D01*
Y128460D01*
X809720D02*
X823720D01*
X631800Y297250D02*
X631800Y322750D01*
X617800D02*
X631800D01*
X617800Y297250D02*
Y322750D01*
X617800Y297250D02*
X631800D01*
X647400D02*
X647400Y322750D01*
X633400D02*
X647400D01*
X633400Y297250D02*
Y322750D01*
X633400Y297250D02*
X647400D01*
X711390Y141110D02*
X721390D01*
X716390Y136110D02*
Y146110D01*
X752390Y97610D02*
Y184610D01*
X680390Y97610D02*
Y184610D01*
X752390D01*
X680390Y97610D02*
X752390D01*
X681550Y209020D02*
X753550D01*
X681550Y296020D02*
X753550D01*
X681550Y209020D02*
Y296020D01*
X753550Y209020D02*
Y296020D01*
X717550Y247520D02*
Y257520D01*
X712550Y252520D02*
X722550D01*
X653430Y218270D02*
X653430Y243770D01*
X639430D02*
X653430D01*
X639430Y218270D02*
Y243770D01*
X639430Y218270D02*
X653430D01*
X621400Y219270D02*
Y242770D01*
X635900D01*
X621400Y219270D02*
X635900D01*
Y242770D01*
X657500Y255770D02*
X676000D01*
X676000Y215270D01*
X657500D02*
X676000D01*
X657500D02*
Y255770D01*
X781600Y218070D02*
X781600Y243570D01*
X781600Y218070D02*
X795600D01*
Y243570D01*
X781600D02*
X795600D01*
X758960Y215070D02*
X777460D01*
X758960Y255570D02*
X758960Y215070D01*
X758960Y255570D02*
X777460D01*
Y215070D02*
Y255570D01*
X800800Y454650D02*
X800800Y480150D01*
X786800D02*
X800800D01*
X786800Y454650D02*
Y480150D01*
X786800Y454650D02*
X800800D01*
X759450Y450600D02*
X784950Y450600D01*
X759450Y436600D02*
Y450600D01*
Y436600D02*
X784950D01*
Y436600D02*
Y450600D01*
X759450Y466020D02*
X784950Y466020D01*
X759450Y452020D02*
Y466020D01*
Y452020D02*
X784950D01*
Y452020D02*
Y466020D01*
X759440Y481320D02*
X784940Y481320D01*
X759440Y467320D02*
Y481320D01*
Y467320D02*
X784940D01*
Y467320D02*
Y481320D01*
X736250Y609850D02*
X759750D01*
Y595350D02*
Y609850D01*
X736250Y595350D02*
Y609850D01*
Y595350D02*
X759750D01*
X735850Y593450D02*
X759350D01*
Y578950D02*
Y593450D01*
X735850Y578950D02*
Y593450D01*
Y578950D02*
X759350D01*
X710200Y550850D02*
X710200Y576350D01*
X710200Y550850D02*
X724200D01*
Y576350D01*
X710200D02*
X724200D01*
X637250Y608000D02*
X662750Y608000D01*
X637250Y594000D02*
Y608000D01*
Y594000D02*
X662750D01*
Y594000D02*
Y608000D01*
X603450Y566250D02*
X626950D01*
Y551750D02*
Y566250D01*
X603450Y551750D02*
Y566250D01*
Y551750D02*
X626950D01*
X554480Y569740D02*
X554480Y595240D01*
X554480Y569740D02*
X568480D01*
Y595240D01*
X554480D02*
X568480D01*
X529650Y520000D02*
X555150Y520000D01*
Y520000D02*
Y534000D01*
X529650D02*
X555150D01*
X529650Y520000D02*
Y534000D01*
X530250Y504000D02*
X555750Y504000D01*
Y504000D02*
Y518000D01*
X530250D02*
X555750D01*
X530250Y504000D02*
Y518000D01*
X583580Y278200D02*
X583580Y303700D01*
X569580D02*
X583580D01*
X569580Y278200D02*
Y303700D01*
X569580Y278200D02*
X583580D01*
X552820Y279200D02*
Y302700D01*
X567320D01*
X552820Y279200D02*
X567320D01*
Y302700D01*
X569050Y243250D02*
Y266750D01*
X554550Y243250D02*
X569050D01*
X554550Y266750D02*
X569050D01*
X554550Y243250D02*
Y266750D01*
X554550Y218000D02*
Y241500D01*
X569050D01*
X554550Y218000D02*
X569050D01*
Y241500D01*
X450950Y253800D02*
Y277300D01*
X465450D01*
X450950Y253800D02*
X465450D01*
Y277300D01*
X450950Y215850D02*
Y239350D01*
X465450D01*
X450950Y215850D02*
X465450D01*
Y239350D01*
X412400Y291930D02*
X412400Y317430D01*
X412400Y291930D02*
X426400D01*
Y317430D01*
X412400D02*
X426400D01*
X385250Y306550D02*
X408750D01*
X385250D02*
Y321050D01*
X408750Y306550D02*
Y321050D01*
X385250D02*
X408750D01*
X392880Y475200D02*
X418380Y475200D01*
X392880Y461200D02*
Y475200D01*
Y461200D02*
X418380D01*
Y461200D02*
Y475200D01*
X415200Y584850D02*
X429200D01*
X415200D02*
Y610350D01*
X429200D01*
X429200Y584850D02*
X429200Y610350D01*
X184450Y630600D02*
X209950Y630600D01*
X184450Y616600D02*
Y630600D01*
Y616600D02*
X209950D01*
Y616600D02*
Y630600D01*
X184650Y476800D02*
X210150Y476800D01*
X184650Y462800D02*
Y476800D01*
Y462800D02*
X210150D01*
Y462800D02*
Y476800D01*
X222650Y432250D02*
Y455750D01*
X208150Y432250D02*
X222650D01*
X208150Y455750D02*
X222650D01*
X208150Y432250D02*
Y455750D01*
X184250Y321800D02*
X209750Y321800D01*
X184250Y307800D02*
Y321800D01*
Y307800D02*
X209750D01*
Y307800D02*
Y321800D01*
X498910Y207910D02*
X522410D01*
Y193410D02*
Y207910D01*
X498910Y193410D02*
Y207910D01*
Y193410D02*
X522410D01*
X523250Y167200D02*
X548750Y167200D01*
X523250Y153200D02*
Y167200D01*
Y153200D02*
X548750D01*
Y153200D02*
Y167200D01*
X552250Y152400D02*
X577750Y152400D01*
Y152400D02*
Y166400D01*
X552250D02*
X577750D01*
X552250Y152400D02*
Y166400D01*
X552130Y134990D02*
X575630D01*
X552130D02*
Y149490D01*
X575630Y134990D02*
Y149490D01*
X552130D02*
X575630D01*
X524850Y149250D02*
X548350D01*
Y134750D02*
Y149250D01*
X524850Y134750D02*
Y149250D01*
Y134750D02*
X548350D01*
X655070Y104350D02*
Y144850D01*
Y104350D02*
X673570D01*
X673570Y144850D02*
X673570Y104350D01*
X655070Y144850D02*
X673570D01*
X632210Y104350D02*
Y144850D01*
Y104350D02*
X650710D01*
X650710Y144850D02*
X650710Y104350D01*
X632210Y144850D02*
X650710D01*
X626870Y104230D02*
X626870Y129730D01*
X612870D02*
X626870D01*
X612870Y104230D02*
Y129730D01*
X612870Y104230D02*
X626870D01*
X609090D02*
X609090Y129730D01*
X595090D02*
X609090D01*
X595090Y104230D02*
Y129730D01*
X595090Y104230D02*
X609090D01*
D83*
X480300Y3408200D02*
X517300D01*
X480300D02*
Y3434200D01*
X517300D01*
Y3408200D02*
Y3434200D01*
X517500Y3408400D02*
Y3434400D01*
X480500Y3408400D02*
X517500D01*
X480500D02*
Y3434400D01*
X517500D01*
X567520Y3277020D02*
Y3451020D01*
X741520D01*
Y3277020D02*
Y3451020D01*
X567520Y3277020D02*
X741520D01*
X128110Y3133330D02*
Y3224830D01*
Y3133330D02*
X202310D01*
Y3224830D01*
X128110D02*
X202310D01*
X128110Y3532805D02*
X202310D01*
Y3441305D02*
Y3532805D01*
X128110Y3441305D02*
X202310D01*
X128110D02*
Y3532805D01*
Y3287318D02*
Y3378817D01*
Y3287318D02*
X202310D01*
Y3378817D01*
X128110D02*
X202310D01*
X919570Y3009400D02*
Y3065200D01*
X1566570D01*
Y3009400D02*
Y3065200D01*
X919570Y3009400D02*
X1566570D01*
X37380D02*
X429180D01*
Y3065200D01*
X37380D02*
X429180D01*
X37380Y3009400D02*
Y3065200D01*
X975989Y3517290D02*
Y3573090D01*
X787789D02*
X975989D01*
X787789Y3517290D02*
Y3573090D01*
Y3517290D02*
X975989D01*
X517100Y3322600D02*
Y3348600D01*
X480100D02*
X517100D01*
X480100Y3322600D02*
Y3348600D01*
Y3322600D02*
X517100D01*
X480100Y3322600D02*
X517100D01*
Y3348600D01*
X480100D02*
X517100D01*
X480100Y3322600D02*
Y3348600D01*
X707300Y3502000D02*
Y3528000D01*
X670300Y3502000D02*
X707300D01*
X670300D02*
Y3528000D01*
X707300D01*
X563640Y3241100D02*
Y3267100D01*
Y3241100D02*
X600640D01*
Y3267100D01*
X563640D02*
X600640D01*
X784466Y3307700D02*
Y3344700D01*
Y3307700D02*
X810466D01*
Y3344700D01*
X784466D02*
X810466D01*
X811400Y3205500D02*
Y3242500D01*
X785400Y3205500D02*
X811400D01*
X785400D02*
Y3242500D01*
X811400D01*
X785400Y3309600D02*
X811400D01*
X785400Y3272600D02*
Y3309600D01*
Y3272600D02*
X811400D01*
Y3309600D01*
X336280Y3378817D02*
X410480D01*
Y3287318D02*
Y3378817D01*
X336280Y3287318D02*
X410480D01*
X336280D02*
Y3378817D01*
X1362710Y3152510D02*
Y3243510D01*
X1438910Y3152510D02*
Y3243510D01*
X1362710D02*
X1438910D01*
X1362710Y3152510D02*
X1438910D01*
X1092200Y3384810D02*
X1168400D01*
X1092200Y3475810D02*
X1168400D01*
Y3384810D02*
Y3475810D01*
X1092200Y3384810D02*
Y3475810D01*
X336280Y3532805D02*
X410480D01*
Y3441305D02*
Y3532805D01*
X336280Y3441305D02*
X410480D01*
X336280D02*
Y3532805D01*
Y3224830D02*
X410480D01*
Y3133330D02*
Y3224830D01*
X336280Y3133330D02*
X410480D01*
X336280D02*
Y3224830D01*
X472170Y3226100D02*
X546370D01*
Y3134600D02*
Y3226100D01*
X472170Y3134600D02*
X546370D01*
X472170D02*
Y3226100D01*
X573000Y3490450D02*
X631000Y3490600D01*
Y3529950D01*
X573000D02*
X631000D01*
X573000Y3490450D02*
Y3529950D01*
X511800Y3241500D02*
Y3278500D01*
X485800Y3241500D02*
X511800D01*
X485800D02*
Y3278500D01*
X511800D01*
X486000Y3241300D02*
Y3278300D01*
X512000D01*
Y3241300D02*
Y3278300D01*
X486000Y3241300D02*
X512000D01*
X1092200Y3152860D02*
X1168400D01*
X1092200Y3243860D02*
X1168400D01*
Y3152860D02*
Y3243860D01*
X1092200Y3152860D02*
Y3243860D01*
X786200Y3242500D02*
X812200D01*
Y3205500D02*
Y3242500D01*
X786200Y3205500D02*
X812200D01*
X786200D02*
Y3242500D01*
X1362710Y3384810D02*
X1438910D01*
X1362710Y3475810D02*
X1438910D01*
Y3384810D02*
Y3475810D01*
X1362710Y3384810D02*
Y3475810D01*
X480300Y2678200D02*
X517300D01*
X480300D02*
Y2704200D01*
X517300D01*
Y2678200D02*
Y2704200D01*
X517500Y2678400D02*
Y2704400D01*
X480500Y2678400D02*
X517500D01*
X480500D02*
Y2704400D01*
X517500D01*
X567520Y2547020D02*
Y2721020D01*
X741520D01*
Y2547020D02*
Y2721020D01*
X567520Y2547020D02*
X741520D01*
X128110Y2403330D02*
Y2494830D01*
Y2403330D02*
X202310D01*
Y2494830D01*
X128110D02*
X202310D01*
X128110Y2802805D02*
X202310D01*
Y2711305D02*
Y2802805D01*
X128110Y2711305D02*
X202310D01*
X128110D02*
Y2802805D01*
Y2557318D02*
Y2648817D01*
Y2557318D02*
X202310D01*
Y2648817D01*
X128110D02*
X202310D01*
X919570Y2279400D02*
Y2335200D01*
X1566570D01*
Y2279400D02*
Y2335200D01*
X919570Y2279400D02*
X1566570D01*
X37380D02*
X429180D01*
Y2335200D01*
X37380D02*
X429180D01*
X37380Y2279400D02*
Y2335200D01*
X975989Y2787290D02*
Y2843090D01*
X787789D02*
X975989D01*
X787789Y2787290D02*
Y2843090D01*
Y2787290D02*
X975989D01*
X517100Y2592600D02*
Y2618600D01*
X480100D02*
X517100D01*
X480100Y2592600D02*
Y2618600D01*
Y2592600D02*
X517100D01*
X480100Y2592600D02*
X517100D01*
Y2618600D01*
X480100D02*
X517100D01*
X480100Y2592600D02*
Y2618600D01*
X707300Y2772000D02*
Y2798000D01*
X670300Y2772000D02*
X707300D01*
X670300D02*
Y2798000D01*
X707300D01*
X563640Y2511100D02*
Y2537100D01*
Y2511100D02*
X600640D01*
Y2537100D01*
X563640D02*
X600640D01*
X784466Y2577700D02*
Y2614700D01*
Y2577700D02*
X810466D01*
Y2614700D01*
X784466D02*
X810466D01*
X811400Y2475500D02*
Y2512500D01*
X785400Y2475500D02*
X811400D01*
X785400D02*
Y2512500D01*
X811400D01*
X785400Y2579600D02*
X811400D01*
X785400Y2542600D02*
Y2579600D01*
Y2542600D02*
X811400D01*
Y2579600D01*
X336280Y2648817D02*
X410480D01*
Y2557318D02*
Y2648817D01*
X336280Y2557318D02*
X410480D01*
X336280D02*
Y2648817D01*
X1362710Y2422510D02*
Y2513510D01*
X1438910Y2422510D02*
Y2513510D01*
X1362710D02*
X1438910D01*
X1362710Y2422510D02*
X1438910D01*
X1092200Y2654810D02*
X1168400D01*
X1092200Y2745810D02*
X1168400D01*
Y2654810D02*
Y2745810D01*
X1092200Y2654810D02*
Y2745810D01*
X336280Y2802805D02*
X410480D01*
Y2711305D02*
Y2802805D01*
X336280Y2711305D02*
X410480D01*
X336280D02*
Y2802805D01*
Y2494830D02*
X410480D01*
Y2403330D02*
Y2494830D01*
X336280Y2403330D02*
X410480D01*
X336280D02*
Y2494830D01*
X472170Y2496100D02*
X546370D01*
Y2404600D02*
Y2496100D01*
X472170Y2404600D02*
X546370D01*
X472170D02*
Y2496100D01*
X573000Y2760450D02*
X631000Y2760600D01*
Y2799950D01*
X573000D02*
X631000D01*
X573000Y2760450D02*
Y2799950D01*
X511800Y2511500D02*
Y2548500D01*
X485800Y2511500D02*
X511800D01*
X485800D02*
Y2548500D01*
X511800D01*
X486000Y2511300D02*
Y2548300D01*
X512000D01*
Y2511300D02*
Y2548300D01*
X486000Y2511300D02*
X512000D01*
X1092200Y2422860D02*
X1168400D01*
X1092200Y2513860D02*
X1168400D01*
Y2422860D02*
Y2513860D01*
X1092200Y2422860D02*
Y2513860D01*
X786200Y2512500D02*
X812200D01*
Y2475500D02*
Y2512500D01*
X786200Y2475500D02*
X812200D01*
X786200D02*
Y2512500D01*
X1362710Y2654810D02*
X1438910D01*
X1362710Y2745810D02*
X1438910D01*
Y2654810D02*
Y2745810D01*
X1362710Y2654810D02*
Y2745810D01*
X480300Y1948200D02*
X517300D01*
X480300D02*
Y1974200D01*
X517300D01*
Y1948200D02*
Y1974200D01*
X517500Y1948400D02*
Y1974400D01*
X480500Y1948400D02*
X517500D01*
X480500D02*
Y1974400D01*
X517500D01*
X567520Y1817020D02*
Y1991020D01*
X741520D01*
Y1817020D02*
Y1991020D01*
X567520Y1817020D02*
X741520D01*
X128110Y1673330D02*
Y1764830D01*
Y1673330D02*
X202310D01*
Y1764830D01*
X128110D02*
X202310D01*
X128110Y2072805D02*
X202310D01*
Y1981305D02*
Y2072805D01*
X128110Y1981305D02*
X202310D01*
X128110D02*
Y2072805D01*
Y1827318D02*
Y1918817D01*
Y1827318D02*
X202310D01*
Y1918817D01*
X128110D02*
X202310D01*
X919570Y1549400D02*
Y1605200D01*
X1566570D01*
Y1549400D02*
Y1605200D01*
X919570Y1549400D02*
X1566570D01*
X37380D02*
X429180D01*
Y1605200D01*
X37380D02*
X429180D01*
X37380Y1549400D02*
Y1605200D01*
X975989Y2057290D02*
Y2113090D01*
X787789D02*
X975989D01*
X787789Y2057290D02*
Y2113090D01*
Y2057290D02*
X975989D01*
X517100Y1862600D02*
Y1888600D01*
X480100D02*
X517100D01*
X480100Y1862600D02*
Y1888600D01*
Y1862600D02*
X517100D01*
X480100Y1862600D02*
X517100D01*
Y1888600D01*
X480100D02*
X517100D01*
X480100Y1862600D02*
Y1888600D01*
X707300Y2042000D02*
Y2068000D01*
X670300Y2042000D02*
X707300D01*
X670300D02*
Y2068000D01*
X707300D01*
X563640Y1781100D02*
Y1807100D01*
Y1781100D02*
X600640D01*
Y1807100D01*
X563640D02*
X600640D01*
X784466Y1847700D02*
Y1884700D01*
Y1847700D02*
X810466D01*
Y1884700D01*
X784466D02*
X810466D01*
X811400Y1745500D02*
Y1782500D01*
X785400Y1745500D02*
X811400D01*
X785400D02*
Y1782500D01*
X811400D01*
X785400Y1849600D02*
X811400D01*
X785400Y1812600D02*
Y1849600D01*
Y1812600D02*
X811400D01*
Y1849600D01*
X336280Y1918817D02*
X410480D01*
Y1827318D02*
Y1918817D01*
X336280Y1827318D02*
X410480D01*
X336280D02*
Y1918817D01*
X1362710Y1692510D02*
Y1783510D01*
X1438910Y1692510D02*
Y1783510D01*
X1362710D02*
X1438910D01*
X1362710Y1692510D02*
X1438910D01*
X1092200Y1924810D02*
X1168400D01*
X1092200Y2015810D02*
X1168400D01*
Y1924810D02*
Y2015810D01*
X1092200Y1924810D02*
Y2015810D01*
X336280Y2072805D02*
X410480D01*
Y1981305D02*
Y2072805D01*
X336280Y1981305D02*
X410480D01*
X336280D02*
Y2072805D01*
Y1764830D02*
X410480D01*
Y1673330D02*
Y1764830D01*
X336280Y1673330D02*
X410480D01*
X336280D02*
Y1764830D01*
X472170Y1766100D02*
X546370D01*
Y1674600D02*
Y1766100D01*
X472170Y1674600D02*
X546370D01*
X472170D02*
Y1766100D01*
X573000Y2030450D02*
X631000Y2030600D01*
Y2069950D01*
X573000D02*
X631000D01*
X573000Y2030450D02*
Y2069950D01*
X511800Y1781500D02*
Y1818500D01*
X485800Y1781500D02*
X511800D01*
X485800D02*
Y1818500D01*
X511800D01*
X486000Y1781300D02*
Y1818300D01*
X512000D01*
Y1781300D02*
Y1818300D01*
X486000Y1781300D02*
X512000D01*
X1092200Y1692860D02*
X1168400D01*
X1092200Y1783860D02*
X1168400D01*
Y1692860D02*
Y1783860D01*
X1092200Y1692860D02*
Y1783860D01*
X786200Y1782500D02*
X812200D01*
Y1745500D02*
Y1782500D01*
X786200Y1745500D02*
X812200D01*
X786200D02*
Y1782500D01*
X1362710Y1924810D02*
X1438910D01*
X1362710Y2015810D02*
X1438910D01*
Y1924810D02*
Y2015810D01*
X1362710Y1924810D02*
Y2015810D01*
X480300Y1218200D02*
X517300D01*
X480300D02*
Y1244200D01*
X517300D01*
Y1218200D02*
Y1244200D01*
X517500Y1218400D02*
Y1244400D01*
X480500Y1218400D02*
X517500D01*
X480500D02*
Y1244400D01*
X517500D01*
X567520Y1087020D02*
Y1261020D01*
X741520D01*
Y1087020D02*
Y1261020D01*
X567520Y1087020D02*
X741520D01*
X128110Y943330D02*
Y1034830D01*
Y943330D02*
X202310D01*
Y1034830D01*
X128110D02*
X202310D01*
X128110Y1342805D02*
X202310D01*
Y1251305D02*
Y1342805D01*
X128110Y1251305D02*
X202310D01*
X128110D02*
Y1342805D01*
Y1097318D02*
Y1188818D01*
Y1097318D02*
X202310D01*
Y1188818D01*
X128110D02*
X202310D01*
X919570Y819400D02*
Y875200D01*
X1566570D01*
Y819400D02*
Y875200D01*
X919570Y819400D02*
X1566570D01*
X37380D02*
X429180D01*
Y875200D01*
X37380D02*
X429180D01*
X37380Y819400D02*
Y875200D01*
X975989Y1327290D02*
Y1383090D01*
X787789D02*
X975989D01*
X787789Y1327290D02*
Y1383090D01*
Y1327290D02*
X975989D01*
X517100Y1132600D02*
Y1158600D01*
X480100D02*
X517100D01*
X480100Y1132600D02*
Y1158600D01*
Y1132600D02*
X517100D01*
X480100Y1132600D02*
X517100D01*
Y1158600D01*
X480100D02*
X517100D01*
X480100Y1132600D02*
Y1158600D01*
X707300Y1312000D02*
Y1338000D01*
X670300Y1312000D02*
X707300D01*
X670300D02*
Y1338000D01*
X707300D01*
X563640Y1051100D02*
Y1077100D01*
Y1051100D02*
X600640D01*
Y1077100D01*
X563640D02*
X600640D01*
X784466Y1117700D02*
Y1154700D01*
Y1117700D02*
X810466D01*
Y1154700D01*
X784466D02*
X810466D01*
X811400Y1015500D02*
Y1052500D01*
X785400Y1015500D02*
X811400D01*
X785400D02*
Y1052500D01*
X811400D01*
X785400Y1119600D02*
X811400D01*
X785400Y1082600D02*
Y1119600D01*
Y1082600D02*
X811400D01*
Y1119600D01*
X336280Y1188818D02*
X410480D01*
Y1097318D02*
Y1188818D01*
X336280Y1097318D02*
X410480D01*
X336280D02*
Y1188818D01*
X1362710Y962510D02*
Y1053510D01*
X1438910Y962510D02*
Y1053510D01*
X1362710D02*
X1438910D01*
X1362710Y962510D02*
X1438910D01*
X1092200Y1194810D02*
X1168400D01*
X1092200Y1285810D02*
X1168400D01*
Y1194810D02*
Y1285810D01*
X1092200Y1194810D02*
Y1285810D01*
X336280Y1342805D02*
X410480D01*
Y1251305D02*
Y1342805D01*
X336280Y1251305D02*
X410480D01*
X336280D02*
Y1342805D01*
Y1034830D02*
X410480D01*
Y943330D02*
Y1034830D01*
X336280Y943330D02*
X410480D01*
X336280D02*
Y1034830D01*
X472170Y1036100D02*
X546370D01*
Y944600D02*
Y1036100D01*
X472170Y944600D02*
X546370D01*
X472170D02*
Y1036100D01*
X573000Y1300450D02*
X631000Y1300600D01*
Y1339950D01*
X573000D02*
X631000D01*
X573000Y1300450D02*
Y1339950D01*
X511800Y1051500D02*
Y1088500D01*
X485800Y1051500D02*
X511800D01*
X485800D02*
Y1088500D01*
X511800D01*
X486000Y1051300D02*
Y1088300D01*
X512000D01*
Y1051300D02*
Y1088300D01*
X486000Y1051300D02*
X512000D01*
X1092200Y962860D02*
X1168400D01*
X1092200Y1053860D02*
X1168400D01*
Y962860D02*
Y1053860D01*
X1092200Y962860D02*
Y1053860D01*
X786200Y1052500D02*
X812200D01*
Y1015500D02*
Y1052500D01*
X786200Y1015500D02*
X812200D01*
X786200D02*
Y1052500D01*
X1362710Y1194810D02*
X1438910D01*
X1362710Y1285810D02*
X1438910D01*
Y1194810D02*
Y1285810D01*
X1362710Y1194810D02*
Y1285810D01*
X784466Y424700D02*
X810466D01*
Y387700D02*
Y424700D01*
X784466Y387700D02*
X810466D01*
X784466D02*
Y424700D01*
X786200Y285500D02*
Y322500D01*
Y285500D02*
X812200D01*
Y322500D01*
X786200D02*
X812200D01*
X480100Y402600D02*
Y428600D01*
X517100D01*
Y402600D02*
Y428600D01*
X480100Y402600D02*
X517100D01*
X563640Y347100D02*
X600640D01*
Y321100D02*
Y347100D01*
X563640Y321100D02*
X600640D01*
X563640D02*
Y347100D01*
X1362710Y464810D02*
Y555810D01*
X1438910Y464810D02*
Y555810D01*
X1362710D02*
X1438910D01*
X1362710Y464810D02*
X1438910D01*
X1362710Y232510D02*
X1438910D01*
X1362710Y323510D02*
X1438910D01*
Y232510D02*
Y323510D01*
X1362710Y232510D02*
Y323510D01*
X1092200Y232860D02*
Y323860D01*
X1168400Y232860D02*
Y323860D01*
X1092200D02*
X1168400D01*
X1092200Y232860D02*
X1168400D01*
X1092200Y464810D02*
Y555810D01*
X1168400Y464810D02*
Y555810D01*
X1092200D02*
X1168400D01*
X1092200Y464810D02*
X1168400D01*
X919570Y89400D02*
X1566570D01*
Y145200D01*
X919570D02*
X1566570D01*
X919570Y89400D02*
Y145200D01*
X785400Y322500D02*
X811400D01*
X785400Y285500D02*
Y322500D01*
Y285500D02*
X811400D01*
Y322500D01*
Y352600D02*
Y389600D01*
X785400Y352600D02*
X811400D01*
X785400D02*
Y389600D01*
X811400D01*
X787789Y597290D02*
X975989D01*
X787789D02*
Y653090D01*
X975989D01*
Y597290D02*
Y653090D01*
X670300Y608000D02*
X707300D01*
X670300Y582000D02*
Y608000D01*
Y582000D02*
X707300D01*
Y608000D01*
X573000Y570450D02*
Y609950D01*
X631000D01*
Y570600D02*
Y609950D01*
X573000Y570450D02*
X631000Y570600D01*
X567520Y357020D02*
X741520D01*
Y531020D01*
X567520D02*
X741520D01*
X567520Y357020D02*
Y531020D01*
X517300Y488200D02*
Y514200D01*
X480300D02*
X517300D01*
X480300Y488200D02*
Y514200D01*
Y488200D02*
X517300D01*
X480100Y402600D02*
X517100D01*
X480100D02*
Y428600D01*
X517100D01*
Y402600D02*
Y428600D01*
X485800Y358500D02*
X511800D01*
X485800Y321500D02*
Y358500D01*
Y321500D02*
X511800D01*
Y358500D01*
X472170Y214600D02*
Y306100D01*
Y214600D02*
X546370D01*
Y306100D01*
X472170D02*
X546370D01*
X336280Y213330D02*
Y304830D01*
Y213330D02*
X410480D01*
Y304830D01*
X336280D02*
X410480D01*
X336280Y367318D02*
Y458817D01*
Y367318D02*
X410480D01*
Y458817D01*
X336280D02*
X410480D01*
X336280Y521305D02*
Y612805D01*
Y521305D02*
X410480D01*
Y612805D01*
X336280D02*
X410480D01*
X128110Y521305D02*
Y612805D01*
Y521305D02*
X202310D01*
Y612805D01*
X128110D02*
X202310D01*
X128110Y458817D02*
X202310D01*
Y367318D02*
Y458817D01*
X128110Y367318D02*
X202310D01*
X128110D02*
Y458817D01*
Y304830D02*
X202310D01*
Y213330D02*
Y304830D01*
X128110Y213330D02*
X202310D01*
X128110D02*
Y304830D01*
X37380Y89400D02*
Y145200D01*
X429180D01*
Y89400D02*
Y145200D01*
X37380Y89400D02*
X429180D01*
X480500Y514400D02*
X517500D01*
X480500Y488400D02*
Y514400D01*
Y488400D02*
X517500D01*
Y514400D01*
X486000Y321300D02*
X512000D01*
Y358300D01*
X486000D02*
X512000D01*
X486000Y321300D02*
Y358300D01*
M02*
