G04*
G04 #@! TF.GenerationSoftware,Altium Limited,Altium Designer,25.3.3 (18)*
G04*
G04 Layer_Color=255*
%FSLAX44Y44*%
%MOMM*%
G71*
G04*
G04 #@! TF.SameCoordinates,C1B4E693-D7F7-4543-9357-B74F73BC7D76*
G04*
G04*
G04 #@! TF.FilePolarity,Positive*
G04*
G01*
G75*
G04:AMPARAMS|DCode=18|XSize=0.8mm|YSize=0.8mm|CornerRadius=0.12mm|HoleSize=0mm|Usage=FLASHONLY|Rotation=270.000|XOffset=0mm|YOffset=0mm|HoleType=Round|Shape=RoundedRectangle|*
%AMROUNDEDRECTD18*
21,1,0.8000,0.5600,0,0,270.0*
21,1,0.5600,0.8000,0,0,270.0*
1,1,0.2400,-0.2800,-0.2800*
1,1,0.2400,-0.2800,0.2800*
1,1,0.2400,0.2800,0.2800*
1,1,0.2400,0.2800,-0.2800*
%
%ADD18ROUNDEDRECTD18*%
%ADD19R,0.6400X0.7000*%
%ADD20R,0.5000X0.7000*%
G04:AMPARAMS|DCode=21|XSize=0.9mm|YSize=0.6mm|CornerRadius=0.09mm|HoleSize=0mm|Usage=FLASHONLY|Rotation=0.000|XOffset=0mm|YOffset=0mm|HoleType=Round|Shape=RoundedRectangle|*
%AMROUNDEDRECTD21*
21,1,0.9000,0.4200,0,0,0.0*
21,1,0.7200,0.6000,0,0,0.0*
1,1,0.1800,0.3600,-0.2100*
1,1,0.1800,-0.3600,-0.2100*
1,1,0.1800,-0.3600,0.2100*
1,1,0.1800,0.3600,0.2100*
%
%ADD21ROUNDEDRECTD21*%
G04:AMPARAMS|DCode=26|XSize=0.8mm|YSize=0.8mm|CornerRadius=0.12mm|HoleSize=0mm|Usage=FLASHONLY|Rotation=180.000|XOffset=0mm|YOffset=0mm|HoleType=Round|Shape=RoundedRectangle|*
%AMROUNDEDRECTD26*
21,1,0.8000,0.5600,0,0,180.0*
21,1,0.5600,0.8000,0,0,180.0*
1,1,0.2400,-0.2800,0.2800*
1,1,0.2400,0.2800,0.2800*
1,1,0.2400,0.2800,-0.2800*
1,1,0.2400,-0.2800,-0.2800*
%
%ADD26ROUNDEDRECTD26*%
%ADD29R,0.9000X0.9500*%
G04:AMPARAMS|DCode=32|XSize=0.9mm|YSize=0.6mm|CornerRadius=0.09mm|HoleSize=0mm|Usage=FLASHONLY|Rotation=90.000|XOffset=0mm|YOffset=0mm|HoleType=Round|Shape=RoundedRectangle|*
%AMROUNDEDRECTD32*
21,1,0.9000,0.4200,0,0,90.0*
21,1,0.7200,0.6000,0,0,90.0*
1,1,0.1800,0.2100,0.3600*
1,1,0.1800,0.2100,-0.3600*
1,1,0.1800,-0.2100,-0.3600*
1,1,0.1800,-0.2100,0.3600*
%
%ADD32ROUNDEDRECTD32*%
%ADD33R,0.7000X0.6400*%
%ADD34R,0.7000X0.5000*%
%ADD59C,4.1000*%
%ADD72C,1.2000*%
%ADD73C,0.3000*%
%ADD74C,1.6050*%
%ADD75R,1.6050X1.6050*%
%ADD76C,1.5200*%
%ADD77R,1.5200X1.5200*%
%ADD81R,0.9500X0.9000*%
D18*
X97100Y3204200D02*
D03*
X112100D02*
D03*
X220100Y3137800D02*
D03*
X235100D02*
D03*
X220400Y3204400D02*
D03*
X235400D02*
D03*
X97100Y3388600D02*
D03*
X112100D02*
D03*
X220400Y3307880D02*
D03*
X235400D02*
D03*
X112100Y3320800D02*
D03*
X97100D02*
D03*
X303570Y3387840D02*
D03*
X318570D02*
D03*
X303570Y3320320D02*
D03*
X318570D02*
D03*
X426510Y3276800D02*
D03*
X441510D02*
D03*
X426510Y3346120D02*
D03*
X441510D02*
D03*
X318570Y3213650D02*
D03*
X303570D02*
D03*
X394390Y3163780D02*
D03*
X379390D02*
D03*
X1158360Y3407680D02*
D03*
X1173360D02*
D03*
X1435220Y3390010D02*
D03*
X1450220D02*
D03*
X1362290Y3405564D02*
D03*
X1377290D02*
D03*
Y3389052D02*
D03*
X1362290D02*
D03*
X1051680Y3466100D02*
D03*
X1066680D02*
D03*
X694300Y3255200D02*
D03*
X679300D02*
D03*
X97100Y2474200D02*
D03*
X112100D02*
D03*
X220100Y2407800D02*
D03*
X235100D02*
D03*
X220400Y2474400D02*
D03*
X235400D02*
D03*
X97100Y2658600D02*
D03*
X112100D02*
D03*
X220400Y2577880D02*
D03*
X235400D02*
D03*
X112100Y2590800D02*
D03*
X97100D02*
D03*
X303570Y2657840D02*
D03*
X318570D02*
D03*
X303570Y2590320D02*
D03*
X318570D02*
D03*
X426510Y2546800D02*
D03*
X441510D02*
D03*
X426510Y2616120D02*
D03*
X441510D02*
D03*
X318570Y2483650D02*
D03*
X303570D02*
D03*
X394390Y2433780D02*
D03*
X379390D02*
D03*
X1158360Y2677680D02*
D03*
X1173360D02*
D03*
X1435220Y2660010D02*
D03*
X1450220D02*
D03*
X1362290Y2675564D02*
D03*
X1377290D02*
D03*
Y2659052D02*
D03*
X1362290D02*
D03*
X1051680Y2736100D02*
D03*
X1066680D02*
D03*
X694300Y2525200D02*
D03*
X679300D02*
D03*
X97100Y1744200D02*
D03*
X112100D02*
D03*
X220100Y1677800D02*
D03*
X235100D02*
D03*
X220400Y1744400D02*
D03*
X235400D02*
D03*
X97100Y1928600D02*
D03*
X112100D02*
D03*
X220400Y1847880D02*
D03*
X235400D02*
D03*
X112100Y1860800D02*
D03*
X97100D02*
D03*
X303570Y1927840D02*
D03*
X318570D02*
D03*
X303570Y1860320D02*
D03*
X318570D02*
D03*
X426510Y1816800D02*
D03*
X441510D02*
D03*
X426510Y1886120D02*
D03*
X441510D02*
D03*
X318570Y1753650D02*
D03*
X303570D02*
D03*
X394390Y1703780D02*
D03*
X379390D02*
D03*
X1158360Y1947680D02*
D03*
X1173360D02*
D03*
X1435220Y1930010D02*
D03*
X1450220D02*
D03*
X1362290Y1945564D02*
D03*
X1377290D02*
D03*
Y1929052D02*
D03*
X1362290D02*
D03*
X1051680Y2006100D02*
D03*
X1066680D02*
D03*
X694300Y1795200D02*
D03*
X679300D02*
D03*
X97100Y1014200D02*
D03*
X112100D02*
D03*
X220100Y947800D02*
D03*
X235100D02*
D03*
X220400Y1014400D02*
D03*
X235400D02*
D03*
X97100Y1198600D02*
D03*
X112100D02*
D03*
X220400Y1117880D02*
D03*
X235400D02*
D03*
X112100Y1130800D02*
D03*
X97100D02*
D03*
X303570Y1197840D02*
D03*
X318570D02*
D03*
X303570Y1130320D02*
D03*
X318570D02*
D03*
X426510Y1086800D02*
D03*
X441510D02*
D03*
X426510Y1156120D02*
D03*
X441510D02*
D03*
X318570Y1023650D02*
D03*
X303570D02*
D03*
X394390Y973780D02*
D03*
X379390D02*
D03*
X1158360Y1217680D02*
D03*
X1173360D02*
D03*
X1435220Y1200010D02*
D03*
X1450220D02*
D03*
X1362290Y1215564D02*
D03*
X1377290D02*
D03*
Y1199052D02*
D03*
X1362290D02*
D03*
X1051680Y1276100D02*
D03*
X1066680D02*
D03*
X694300Y1065200D02*
D03*
X679300D02*
D03*
X1377290Y485564D02*
D03*
X1362290D02*
D03*
Y469052D02*
D03*
X1377290D02*
D03*
X1450220Y470010D02*
D03*
X1435220D02*
D03*
X1173360Y487680D02*
D03*
X1158360D02*
D03*
X1066680Y546100D02*
D03*
X1051680D02*
D03*
X679300Y335200D02*
D03*
X694300D02*
D03*
X441510Y426120D02*
D03*
X426510D02*
D03*
X441510Y356800D02*
D03*
X426510D02*
D03*
X318570Y467840D02*
D03*
X303570D02*
D03*
X318570Y400320D02*
D03*
X303570D02*
D03*
X379390Y243780D02*
D03*
X394390D02*
D03*
X303570Y293650D02*
D03*
X318570D02*
D03*
X235100Y217800D02*
D03*
X220100D02*
D03*
X235400Y284400D02*
D03*
X220400D02*
D03*
X235400Y387880D02*
D03*
X220400D02*
D03*
X112100Y468600D02*
D03*
X97100D02*
D03*
Y400800D02*
D03*
X112100D02*
D03*
Y284200D02*
D03*
X97100D02*
D03*
D19*
X511700Y3414400D02*
D03*
X486300D02*
D03*
Y3428400D02*
D03*
X511700D02*
D03*
X485900Y3328600D02*
D03*
X511300D02*
D03*
Y3342600D02*
D03*
X485900D02*
D03*
X569440Y3247100D02*
D03*
X594840D02*
D03*
Y3261100D02*
D03*
X569440D02*
D03*
X511700Y2684400D02*
D03*
X486300D02*
D03*
Y2698400D02*
D03*
X511700D02*
D03*
X485900Y2598600D02*
D03*
X511300D02*
D03*
Y2612600D02*
D03*
X485900D02*
D03*
X569440Y2517100D02*
D03*
X594840D02*
D03*
Y2531100D02*
D03*
X569440D02*
D03*
X511700Y1954400D02*
D03*
X486300D02*
D03*
Y1968400D02*
D03*
X511700D02*
D03*
X485900Y1868600D02*
D03*
X511300D02*
D03*
Y1882600D02*
D03*
X485900D02*
D03*
X569440Y1787100D02*
D03*
X594840D02*
D03*
Y1801100D02*
D03*
X569440D02*
D03*
X511700Y1224400D02*
D03*
X486300D02*
D03*
Y1238400D02*
D03*
X511700D02*
D03*
X485900Y1138600D02*
D03*
X511300D02*
D03*
Y1152600D02*
D03*
X485900D02*
D03*
X569440Y1057100D02*
D03*
X594840D02*
D03*
Y1071100D02*
D03*
X569440D02*
D03*
X485900Y422600D02*
D03*
X511300D02*
D03*
Y408600D02*
D03*
X485900D02*
D03*
X569440Y341100D02*
D03*
X594840D02*
D03*
Y327100D02*
D03*
X569440D02*
D03*
X511700Y508400D02*
D03*
X486300D02*
D03*
Y494400D02*
D03*
X511700D02*
D03*
D20*
X503000Y3414400D02*
D03*
X495000D02*
D03*
Y3428400D02*
D03*
X503000D02*
D03*
X494600Y3328600D02*
D03*
X502600D02*
D03*
Y3342600D02*
D03*
X494600D02*
D03*
X578140Y3247100D02*
D03*
X586140D02*
D03*
Y3261100D02*
D03*
X578140D02*
D03*
X503000Y2684400D02*
D03*
X495000D02*
D03*
Y2698400D02*
D03*
X503000D02*
D03*
X494600Y2598600D02*
D03*
X502600D02*
D03*
Y2612600D02*
D03*
X494600D02*
D03*
X578140Y2517100D02*
D03*
X586140D02*
D03*
Y2531100D02*
D03*
X578140D02*
D03*
X503000Y1954400D02*
D03*
X495000D02*
D03*
Y1968400D02*
D03*
X503000D02*
D03*
X494600Y1868600D02*
D03*
X502600D02*
D03*
Y1882600D02*
D03*
X494600D02*
D03*
X578140Y1787100D02*
D03*
X586140D02*
D03*
Y1801100D02*
D03*
X578140D02*
D03*
X503000Y1224400D02*
D03*
X495000D02*
D03*
Y1238400D02*
D03*
X503000D02*
D03*
X494600Y1138600D02*
D03*
X502600D02*
D03*
Y1152600D02*
D03*
X494600D02*
D03*
X578140Y1057100D02*
D03*
X586140D02*
D03*
Y1071100D02*
D03*
X578140D02*
D03*
X494600Y422600D02*
D03*
X502600D02*
D03*
Y408600D02*
D03*
X494600D02*
D03*
X578140Y341100D02*
D03*
X586140D02*
D03*
Y327100D02*
D03*
X578140D02*
D03*
X503000Y508400D02*
D03*
X495000D02*
D03*
Y494400D02*
D03*
X503000D02*
D03*
D21*
X770680Y3068930D02*
D03*
Y3083930D02*
D03*
X754170Y3068930D02*
D03*
Y3083930D02*
D03*
X806240Y3068930D02*
D03*
Y3083930D02*
D03*
X788460Y3068930D02*
D03*
Y3083930D02*
D03*
X707800Y3068930D02*
D03*
Y3083930D02*
D03*
X724000D02*
D03*
Y3068930D02*
D03*
X640800Y3083930D02*
D03*
Y3068930D02*
D03*
X659000D02*
D03*
Y3083930D02*
D03*
X1408800Y3197100D02*
D03*
Y3182100D02*
D03*
X1211580Y3455710D02*
D03*
Y3440710D02*
D03*
X907880Y3237294D02*
D03*
Y3222294D02*
D03*
X1193800Y3455710D02*
D03*
Y3440710D02*
D03*
X1392633Y3197100D02*
D03*
Y3182100D02*
D03*
X1176020Y3455710D02*
D03*
Y3440710D02*
D03*
X1376467Y3197100D02*
D03*
Y3182100D02*
D03*
X1478280Y3455710D02*
D03*
Y3440710D02*
D03*
X1461770Y3455710D02*
D03*
Y3440710D02*
D03*
X907880Y3421790D02*
D03*
Y3436790D02*
D03*
X1217930Y3404900D02*
D03*
Y3389900D02*
D03*
X1445260Y3440710D02*
D03*
Y3455710D02*
D03*
X1490980Y3375010D02*
D03*
Y3390010D02*
D03*
X907880Y3272168D02*
D03*
Y3287168D02*
D03*
X1103770Y3186030D02*
D03*
Y3201030D02*
D03*
X1087260Y3186030D02*
D03*
Y3201030D02*
D03*
X1347800Y3440300D02*
D03*
Y3455300D02*
D03*
X907880Y3386916D02*
D03*
Y3371916D02*
D03*
X1069480Y3186030D02*
D03*
Y3201030D02*
D03*
X907880Y3337042D02*
D03*
Y3322042D02*
D03*
X1108710Y3482490D02*
D03*
Y3467490D02*
D03*
X1052080Y3432670D02*
D03*
Y3417670D02*
D03*
X907880Y3172420D02*
D03*
Y3187420D02*
D03*
X770680Y2338930D02*
D03*
Y2353930D02*
D03*
X754170Y2338930D02*
D03*
Y2353930D02*
D03*
X806240Y2338930D02*
D03*
Y2353930D02*
D03*
X788460Y2338930D02*
D03*
Y2353930D02*
D03*
X707800Y2338930D02*
D03*
Y2353930D02*
D03*
X724000D02*
D03*
Y2338930D02*
D03*
X640800Y2353930D02*
D03*
Y2338930D02*
D03*
X659000D02*
D03*
Y2353930D02*
D03*
X1408800Y2467100D02*
D03*
Y2452100D02*
D03*
X1211580Y2725710D02*
D03*
Y2710710D02*
D03*
X907880Y2507294D02*
D03*
Y2492294D02*
D03*
X1193800Y2725710D02*
D03*
Y2710710D02*
D03*
X1392633Y2467100D02*
D03*
Y2452100D02*
D03*
X1176020Y2725710D02*
D03*
Y2710710D02*
D03*
X1376467Y2467100D02*
D03*
Y2452100D02*
D03*
X1478280Y2725710D02*
D03*
Y2710710D02*
D03*
X1461770Y2725710D02*
D03*
Y2710710D02*
D03*
X907880Y2691790D02*
D03*
Y2706790D02*
D03*
X1217930Y2674900D02*
D03*
Y2659900D02*
D03*
X1445260Y2710710D02*
D03*
Y2725710D02*
D03*
X1490980Y2645010D02*
D03*
Y2660010D02*
D03*
X907880Y2542168D02*
D03*
Y2557168D02*
D03*
X1103770Y2456030D02*
D03*
Y2471030D02*
D03*
X1087260Y2456030D02*
D03*
Y2471030D02*
D03*
X1347800Y2710300D02*
D03*
Y2725300D02*
D03*
X907880Y2656916D02*
D03*
Y2641916D02*
D03*
X1069480Y2456030D02*
D03*
Y2471030D02*
D03*
X907880Y2607042D02*
D03*
Y2592042D02*
D03*
X1108710Y2752490D02*
D03*
Y2737490D02*
D03*
X1052080Y2702670D02*
D03*
Y2687670D02*
D03*
X907880Y2442420D02*
D03*
Y2457420D02*
D03*
X770680Y1608930D02*
D03*
Y1623930D02*
D03*
X754170Y1608930D02*
D03*
Y1623930D02*
D03*
X806240Y1608930D02*
D03*
Y1623930D02*
D03*
X788460Y1608930D02*
D03*
Y1623930D02*
D03*
X707800Y1608930D02*
D03*
Y1623930D02*
D03*
X724000D02*
D03*
Y1608930D02*
D03*
X640800Y1623930D02*
D03*
Y1608930D02*
D03*
X659000D02*
D03*
Y1623930D02*
D03*
X1408800Y1737100D02*
D03*
Y1722100D02*
D03*
X1211580Y1995710D02*
D03*
Y1980710D02*
D03*
X907880Y1777294D02*
D03*
Y1762294D02*
D03*
X1193800Y1995710D02*
D03*
Y1980710D02*
D03*
X1392633Y1737100D02*
D03*
Y1722100D02*
D03*
X1176020Y1995710D02*
D03*
Y1980710D02*
D03*
X1376467Y1737100D02*
D03*
Y1722100D02*
D03*
X1478280Y1995710D02*
D03*
Y1980710D02*
D03*
X1461770Y1995710D02*
D03*
Y1980710D02*
D03*
X907880Y1961790D02*
D03*
Y1976790D02*
D03*
X1217930Y1944900D02*
D03*
Y1929900D02*
D03*
X1445260Y1980710D02*
D03*
Y1995710D02*
D03*
X1490980Y1915010D02*
D03*
Y1930010D02*
D03*
X907880Y1812168D02*
D03*
Y1827168D02*
D03*
X1103770Y1726030D02*
D03*
Y1741030D02*
D03*
X1087260Y1726030D02*
D03*
Y1741030D02*
D03*
X1347800Y1980300D02*
D03*
Y1995300D02*
D03*
X907880Y1926916D02*
D03*
Y1911916D02*
D03*
X1069480Y1726030D02*
D03*
Y1741030D02*
D03*
X907880Y1877042D02*
D03*
Y1862042D02*
D03*
X1108710Y2022490D02*
D03*
Y2007490D02*
D03*
X1052080Y1972670D02*
D03*
Y1957670D02*
D03*
X907880Y1712420D02*
D03*
Y1727420D02*
D03*
X770680Y878930D02*
D03*
Y893930D02*
D03*
X754170Y878930D02*
D03*
Y893930D02*
D03*
X806240Y878930D02*
D03*
Y893930D02*
D03*
X788460Y878930D02*
D03*
Y893930D02*
D03*
X707800Y878930D02*
D03*
Y893930D02*
D03*
X724000D02*
D03*
Y878930D02*
D03*
X640800Y893930D02*
D03*
Y878930D02*
D03*
X659000D02*
D03*
Y893930D02*
D03*
X1408800Y1007100D02*
D03*
Y992100D02*
D03*
X1211580Y1265710D02*
D03*
Y1250710D02*
D03*
X907880Y1047294D02*
D03*
Y1032294D02*
D03*
X1193800Y1265710D02*
D03*
Y1250710D02*
D03*
X1392633Y1007100D02*
D03*
Y992100D02*
D03*
X1176020Y1265710D02*
D03*
Y1250710D02*
D03*
X1376467Y1007100D02*
D03*
Y992100D02*
D03*
X1478280Y1265710D02*
D03*
Y1250710D02*
D03*
X1461770Y1265710D02*
D03*
Y1250710D02*
D03*
X907880Y1231790D02*
D03*
Y1246790D02*
D03*
X1217930Y1214900D02*
D03*
Y1199900D02*
D03*
X1445260Y1250710D02*
D03*
Y1265710D02*
D03*
X1490980Y1185010D02*
D03*
Y1200010D02*
D03*
X907880Y1082168D02*
D03*
Y1097168D02*
D03*
X1103770Y996030D02*
D03*
Y1011030D02*
D03*
X1087260Y996030D02*
D03*
Y1011030D02*
D03*
X1347800Y1250300D02*
D03*
Y1265300D02*
D03*
X907880Y1196916D02*
D03*
Y1181916D02*
D03*
X1069480Y996030D02*
D03*
Y1011030D02*
D03*
X907880Y1147042D02*
D03*
Y1132042D02*
D03*
X1108710Y1292490D02*
D03*
Y1277490D02*
D03*
X1052080Y1242670D02*
D03*
Y1227670D02*
D03*
X907880Y982420D02*
D03*
Y997420D02*
D03*
X1347800Y535300D02*
D03*
Y520300D02*
D03*
X1445260Y535710D02*
D03*
Y520710D02*
D03*
X1461770D02*
D03*
Y535710D02*
D03*
X1478280Y520710D02*
D03*
Y535710D02*
D03*
X1490980Y470010D02*
D03*
Y455010D02*
D03*
X1376467Y262100D02*
D03*
Y277100D02*
D03*
X1392633Y262100D02*
D03*
Y277100D02*
D03*
X1408800Y262100D02*
D03*
Y277100D02*
D03*
X1217930Y469900D02*
D03*
Y484900D02*
D03*
X1176020Y520710D02*
D03*
Y535710D02*
D03*
X1193800Y520710D02*
D03*
Y535710D02*
D03*
X1211580Y520710D02*
D03*
Y535710D02*
D03*
X1108710Y547490D02*
D03*
Y562490D02*
D03*
X1052080Y497670D02*
D03*
Y512670D02*
D03*
X1069480Y281030D02*
D03*
Y266030D02*
D03*
X1087260Y281030D02*
D03*
Y266030D02*
D03*
X1103770Y281030D02*
D03*
Y266030D02*
D03*
X907880Y267420D02*
D03*
Y252420D02*
D03*
Y302294D02*
D03*
Y317294D02*
D03*
Y367168D02*
D03*
Y352168D02*
D03*
Y402042D02*
D03*
Y417042D02*
D03*
Y451916D02*
D03*
Y466916D02*
D03*
Y516790D02*
D03*
Y501790D02*
D03*
X707800Y163930D02*
D03*
Y148930D02*
D03*
X724000D02*
D03*
Y163930D02*
D03*
X754170D02*
D03*
Y148930D02*
D03*
X770680Y163930D02*
D03*
Y148930D02*
D03*
X788460Y163930D02*
D03*
Y148930D02*
D03*
X806240Y163930D02*
D03*
Y148930D02*
D03*
X659000Y163930D02*
D03*
Y148930D02*
D03*
X640800D02*
D03*
Y163930D02*
D03*
D26*
X688800Y3494300D02*
D03*
Y3509300D02*
D03*
X655200D02*
D03*
Y3494300D02*
D03*
X637333Y3509300D02*
D03*
Y3494300D02*
D03*
X547400Y3312300D02*
D03*
Y3327300D02*
D03*
X740200Y3083930D02*
D03*
Y3068930D02*
D03*
X850300Y3222294D02*
D03*
Y3237294D02*
D03*
X850300Y3187420D02*
D03*
Y3172420D02*
D03*
X1158240Y3455710D02*
D03*
Y3440710D02*
D03*
X1359800Y3197100D02*
D03*
Y3182100D02*
D03*
X1430020Y3440710D02*
D03*
Y3455710D02*
D03*
X850300Y3421790D02*
D03*
Y3436790D02*
D03*
Y3272168D02*
D03*
Y3287168D02*
D03*
X1051700Y3201030D02*
D03*
Y3186030D02*
D03*
X850300Y3371916D02*
D03*
Y3386916D02*
D03*
X850300Y3337042D02*
D03*
Y3322042D02*
D03*
X1068800Y3417600D02*
D03*
Y3432600D02*
D03*
X531600Y3312500D02*
D03*
Y3327500D02*
D03*
X619800Y3494300D02*
D03*
Y3509300D02*
D03*
X688800Y2764300D02*
D03*
Y2779300D02*
D03*
X655200D02*
D03*
Y2764300D02*
D03*
X637333Y2779300D02*
D03*
Y2764300D02*
D03*
X547400Y2582300D02*
D03*
Y2597300D02*
D03*
X740200Y2353930D02*
D03*
Y2338930D02*
D03*
X850300Y2492294D02*
D03*
Y2507294D02*
D03*
X850300Y2457420D02*
D03*
Y2442420D02*
D03*
X1158240Y2725710D02*
D03*
Y2710710D02*
D03*
X1359800Y2467100D02*
D03*
Y2452100D02*
D03*
X1430020Y2710710D02*
D03*
Y2725710D02*
D03*
X850300Y2691790D02*
D03*
Y2706790D02*
D03*
Y2542168D02*
D03*
Y2557168D02*
D03*
X1051700Y2471030D02*
D03*
Y2456030D02*
D03*
X850300Y2641916D02*
D03*
Y2656916D02*
D03*
X850300Y2607042D02*
D03*
Y2592042D02*
D03*
X1068800Y2687600D02*
D03*
Y2702600D02*
D03*
X531600Y2582500D02*
D03*
Y2597500D02*
D03*
X619800Y2764300D02*
D03*
Y2779300D02*
D03*
X688800Y2034300D02*
D03*
Y2049300D02*
D03*
X655200D02*
D03*
Y2034300D02*
D03*
X637333Y2049300D02*
D03*
Y2034300D02*
D03*
X547400Y1852300D02*
D03*
Y1867300D02*
D03*
X740200Y1623930D02*
D03*
Y1608930D02*
D03*
X850300Y1762294D02*
D03*
Y1777294D02*
D03*
X850300Y1727420D02*
D03*
Y1712420D02*
D03*
X1158240Y1995710D02*
D03*
Y1980710D02*
D03*
X1359800Y1737100D02*
D03*
Y1722100D02*
D03*
X1430020Y1980710D02*
D03*
Y1995710D02*
D03*
X850300Y1961790D02*
D03*
Y1976790D02*
D03*
Y1812168D02*
D03*
Y1827168D02*
D03*
X1051700Y1741030D02*
D03*
Y1726030D02*
D03*
X850300Y1911916D02*
D03*
Y1926916D02*
D03*
X850300Y1877042D02*
D03*
Y1862042D02*
D03*
X1068800Y1957600D02*
D03*
Y1972600D02*
D03*
X531600Y1852500D02*
D03*
Y1867500D02*
D03*
X619800Y2034300D02*
D03*
Y2049300D02*
D03*
X688800Y1304300D02*
D03*
Y1319300D02*
D03*
X655200D02*
D03*
Y1304300D02*
D03*
X637333Y1319300D02*
D03*
Y1304300D02*
D03*
X547400Y1122300D02*
D03*
Y1137300D02*
D03*
X740200Y893930D02*
D03*
Y878930D02*
D03*
X850300Y1032294D02*
D03*
Y1047294D02*
D03*
X850300Y997420D02*
D03*
Y982420D02*
D03*
X1158240Y1265710D02*
D03*
Y1250710D02*
D03*
X1359800Y1007100D02*
D03*
Y992100D02*
D03*
X1430020Y1250710D02*
D03*
Y1265710D02*
D03*
X850300Y1231790D02*
D03*
Y1246790D02*
D03*
Y1082168D02*
D03*
Y1097168D02*
D03*
X1051700Y1011030D02*
D03*
Y996030D02*
D03*
X850300Y1181916D02*
D03*
Y1196916D02*
D03*
X850300Y1147042D02*
D03*
Y1132042D02*
D03*
X1068800Y1227600D02*
D03*
Y1242600D02*
D03*
X531600Y1122500D02*
D03*
Y1137500D02*
D03*
X619800Y1304300D02*
D03*
Y1319300D02*
D03*
X1430020Y535710D02*
D03*
Y520710D02*
D03*
X1359800Y262100D02*
D03*
Y277100D02*
D03*
X1158240Y520710D02*
D03*
Y535710D02*
D03*
X1068800Y512600D02*
D03*
Y497600D02*
D03*
X1051700Y266030D02*
D03*
Y281030D02*
D03*
X850300Y252420D02*
D03*
Y267420D02*
D03*
X850300Y317294D02*
D03*
Y302294D02*
D03*
X850300Y367168D02*
D03*
Y352168D02*
D03*
Y402042D02*
D03*
Y417042D02*
D03*
X850300Y466916D02*
D03*
Y451916D02*
D03*
X850300Y516790D02*
D03*
Y501790D02*
D03*
X637333Y574300D02*
D03*
Y589300D02*
D03*
X619800D02*
D03*
Y574300D02*
D03*
X655200D02*
D03*
Y589300D02*
D03*
X688800D02*
D03*
Y574300D02*
D03*
X740200Y148930D02*
D03*
Y163930D02*
D03*
X531600Y407500D02*
D03*
Y392500D02*
D03*
X547400Y407300D02*
D03*
Y392300D02*
D03*
D29*
X674390Y3093930D02*
D03*
X683890Y3068930D02*
D03*
X693390Y3093930D02*
D03*
X889740Y3162420D02*
D03*
X880240Y3187420D02*
D03*
X870740Y3162420D02*
D03*
Y3411790D02*
D03*
X880240Y3436790D02*
D03*
X889740Y3411790D02*
D03*
Y3262168D02*
D03*
X880240Y3287168D02*
D03*
X870740Y3262168D02*
D03*
X889740Y3361916D02*
D03*
X880240Y3386916D02*
D03*
X870740Y3361916D02*
D03*
Y3212294D02*
D03*
X880240Y3237294D02*
D03*
X889740Y3212294D02*
D03*
X870740Y3312042D02*
D03*
X880240Y3337042D02*
D03*
X889740Y3312042D02*
D03*
X674390Y2363930D02*
D03*
X683890Y2338930D02*
D03*
X693390Y2363930D02*
D03*
X889740Y2432420D02*
D03*
X880240Y2457420D02*
D03*
X870740Y2432420D02*
D03*
Y2681790D02*
D03*
X880240Y2706790D02*
D03*
X889740Y2681790D02*
D03*
Y2532168D02*
D03*
X880240Y2557168D02*
D03*
X870740Y2532168D02*
D03*
X889740Y2631916D02*
D03*
X880240Y2656916D02*
D03*
X870740Y2631916D02*
D03*
Y2482294D02*
D03*
X880240Y2507294D02*
D03*
X889740Y2482294D02*
D03*
X870740Y2582042D02*
D03*
X880240Y2607042D02*
D03*
X889740Y2582042D02*
D03*
X674390Y1633930D02*
D03*
X683890Y1608930D02*
D03*
X693390Y1633930D02*
D03*
X889740Y1702420D02*
D03*
X880240Y1727420D02*
D03*
X870740Y1702420D02*
D03*
Y1951790D02*
D03*
X880240Y1976790D02*
D03*
X889740Y1951790D02*
D03*
Y1802168D02*
D03*
X880240Y1827168D02*
D03*
X870740Y1802168D02*
D03*
X889740Y1901916D02*
D03*
X880240Y1926916D02*
D03*
X870740Y1901916D02*
D03*
Y1752294D02*
D03*
X880240Y1777294D02*
D03*
X889740Y1752294D02*
D03*
X870740Y1852042D02*
D03*
X880240Y1877042D02*
D03*
X889740Y1852042D02*
D03*
X674390Y903930D02*
D03*
X683890Y878930D02*
D03*
X693390Y903930D02*
D03*
X889740Y972420D02*
D03*
X880240Y997420D02*
D03*
X870740Y972420D02*
D03*
Y1221790D02*
D03*
X880240Y1246790D02*
D03*
X889740Y1221790D02*
D03*
Y1072168D02*
D03*
X880240Y1097168D02*
D03*
X870740Y1072168D02*
D03*
X889740Y1171916D02*
D03*
X880240Y1196916D02*
D03*
X870740Y1171916D02*
D03*
Y1022294D02*
D03*
X880240Y1047294D02*
D03*
X889740Y1022294D02*
D03*
X870740Y1122042D02*
D03*
X880240Y1147042D02*
D03*
X889740Y1122042D02*
D03*
X870740Y242420D02*
D03*
X880240Y267420D02*
D03*
X889740Y242420D02*
D03*
Y292294D02*
D03*
X880240Y317294D02*
D03*
X870740Y292294D02*
D03*
Y342168D02*
D03*
X880240Y367168D02*
D03*
X889740Y342168D02*
D03*
Y392042D02*
D03*
X880240Y417042D02*
D03*
X870740Y392042D02*
D03*
Y441916D02*
D03*
X880240Y466916D02*
D03*
X889740Y441916D02*
D03*
Y491790D02*
D03*
X880240Y516790D02*
D03*
X870740Y491790D02*
D03*
X693390Y173930D02*
D03*
X683890Y148930D02*
D03*
X674390Y173930D02*
D03*
D32*
X112100Y3188200D02*
D03*
X97100D02*
D03*
X235100Y3153800D02*
D03*
X220100D02*
D03*
X235400Y3220400D02*
D03*
X220400D02*
D03*
X112100Y3372600D02*
D03*
X97100D02*
D03*
X235400Y3323800D02*
D03*
X220400D02*
D03*
X97100Y3304800D02*
D03*
X112100D02*
D03*
X318570Y3372130D02*
D03*
X303570D02*
D03*
X318570Y3304810D02*
D03*
X303570D02*
D03*
X441510Y3292910D02*
D03*
X426510D02*
D03*
X441510Y3362230D02*
D03*
X426510D02*
D03*
X303570Y3197140D02*
D03*
X318570D02*
D03*
X379390Y3179020D02*
D03*
X394390D02*
D03*
X1202570Y3407680D02*
D03*
X1187570D02*
D03*
Y3389900D02*
D03*
X1202570D02*
D03*
X1173360Y3389900D02*
D03*
X1158360D02*
D03*
X1477010Y3390010D02*
D03*
X1462010D02*
D03*
X1476890Y3374210D02*
D03*
X1461890D02*
D03*
X1435220D02*
D03*
X1450220D02*
D03*
X1361900Y3455600D02*
D03*
X1376900D02*
D03*
X1362290Y3439088D02*
D03*
X1377290D02*
D03*
X1362290Y3422576D02*
D03*
X1377290D02*
D03*
Y3373040D02*
D03*
X1362290D02*
D03*
X1094620Y3466100D02*
D03*
X1079620D02*
D03*
X1093350Y3482610D02*
D03*
X1078350D02*
D03*
X1067080Y3402310D02*
D03*
X1052080D02*
D03*
X1051680Y3482610D02*
D03*
X1066680D02*
D03*
X112100Y2458200D02*
D03*
X97100D02*
D03*
X235100Y2423800D02*
D03*
X220100D02*
D03*
X235400Y2490400D02*
D03*
X220400D02*
D03*
X112100Y2642600D02*
D03*
X97100D02*
D03*
X235400Y2593800D02*
D03*
X220400D02*
D03*
X97100Y2574800D02*
D03*
X112100D02*
D03*
X318570Y2642130D02*
D03*
X303570D02*
D03*
X318570Y2574810D02*
D03*
X303570D02*
D03*
X441510Y2562910D02*
D03*
X426510D02*
D03*
X441510Y2632230D02*
D03*
X426510D02*
D03*
X303570Y2467140D02*
D03*
X318570D02*
D03*
X379390Y2449020D02*
D03*
X394390D02*
D03*
X1202570Y2677680D02*
D03*
X1187570D02*
D03*
Y2659900D02*
D03*
X1202570D02*
D03*
X1173360Y2659900D02*
D03*
X1158360D02*
D03*
X1477010Y2660010D02*
D03*
X1462010D02*
D03*
X1476890Y2644210D02*
D03*
X1461890D02*
D03*
X1435220D02*
D03*
X1450220D02*
D03*
X1361900Y2725600D02*
D03*
X1376900D02*
D03*
X1362290Y2709088D02*
D03*
X1377290D02*
D03*
X1362290Y2692576D02*
D03*
X1377290D02*
D03*
Y2643040D02*
D03*
X1362290D02*
D03*
X1094620Y2736100D02*
D03*
X1079620D02*
D03*
X1093350Y2752610D02*
D03*
X1078350D02*
D03*
X1067080Y2672310D02*
D03*
X1052080D02*
D03*
X1051680Y2752610D02*
D03*
X1066680D02*
D03*
X112100Y1728200D02*
D03*
X97100D02*
D03*
X235100Y1693800D02*
D03*
X220100D02*
D03*
X235400Y1760400D02*
D03*
X220400D02*
D03*
X112100Y1912600D02*
D03*
X97100D02*
D03*
X235400Y1863800D02*
D03*
X220400D02*
D03*
X97100Y1844800D02*
D03*
X112100D02*
D03*
X318570Y1912130D02*
D03*
X303570D02*
D03*
X318570Y1844810D02*
D03*
X303570D02*
D03*
X441510Y1832910D02*
D03*
X426510D02*
D03*
X441510Y1902230D02*
D03*
X426510D02*
D03*
X303570Y1737140D02*
D03*
X318570D02*
D03*
X379390Y1719020D02*
D03*
X394390D02*
D03*
X1202570Y1947680D02*
D03*
X1187570D02*
D03*
Y1929900D02*
D03*
X1202570D02*
D03*
X1173360Y1929900D02*
D03*
X1158360D02*
D03*
X1477010Y1930010D02*
D03*
X1462010D02*
D03*
X1476890Y1914210D02*
D03*
X1461890D02*
D03*
X1435220D02*
D03*
X1450220D02*
D03*
X1361900Y1995600D02*
D03*
X1376900D02*
D03*
X1362290Y1979088D02*
D03*
X1377290D02*
D03*
X1362290Y1962576D02*
D03*
X1377290D02*
D03*
Y1913040D02*
D03*
X1362290D02*
D03*
X1094620Y2006100D02*
D03*
X1079620D02*
D03*
X1093350Y2022610D02*
D03*
X1078350D02*
D03*
X1067080Y1942310D02*
D03*
X1052080D02*
D03*
X1051680Y2022610D02*
D03*
X1066680D02*
D03*
X112100Y998200D02*
D03*
X97100D02*
D03*
X235100Y963800D02*
D03*
X220100D02*
D03*
X235400Y1030400D02*
D03*
X220400D02*
D03*
X112100Y1182600D02*
D03*
X97100D02*
D03*
X235400Y1133800D02*
D03*
X220400D02*
D03*
X97100Y1114800D02*
D03*
X112100D02*
D03*
X318570Y1182130D02*
D03*
X303570D02*
D03*
X318570Y1114810D02*
D03*
X303570D02*
D03*
X441510Y1102910D02*
D03*
X426510D02*
D03*
X441510Y1172230D02*
D03*
X426510D02*
D03*
X303570Y1007140D02*
D03*
X318570D02*
D03*
X379390Y989020D02*
D03*
X394390D02*
D03*
X1202570Y1217680D02*
D03*
X1187570D02*
D03*
Y1199900D02*
D03*
X1202570D02*
D03*
X1173360Y1199900D02*
D03*
X1158360D02*
D03*
X1477010Y1200010D02*
D03*
X1462010D02*
D03*
X1476890Y1184210D02*
D03*
X1461890D02*
D03*
X1435220D02*
D03*
X1450220D02*
D03*
X1361900Y1265600D02*
D03*
X1376900D02*
D03*
X1362290Y1249088D02*
D03*
X1377290D02*
D03*
X1362290Y1232576D02*
D03*
X1377290D02*
D03*
Y1183040D02*
D03*
X1362290D02*
D03*
X1094620Y1276100D02*
D03*
X1079620D02*
D03*
X1093350Y1292610D02*
D03*
X1078350D02*
D03*
X1067080Y1212310D02*
D03*
X1052080D02*
D03*
X1051680Y1292610D02*
D03*
X1066680D02*
D03*
X1376900Y535600D02*
D03*
X1361900D02*
D03*
X1377290Y519088D02*
D03*
X1362290D02*
D03*
X1377290Y502576D02*
D03*
X1362290D02*
D03*
Y453040D02*
D03*
X1377290D02*
D03*
X1461890Y454210D02*
D03*
X1476890D02*
D03*
X1462010Y470010D02*
D03*
X1477010D02*
D03*
X1450220Y454210D02*
D03*
X1435220D02*
D03*
X1202570Y469900D02*
D03*
X1187570D02*
D03*
Y487680D02*
D03*
X1202570D02*
D03*
X1158360Y469900D02*
D03*
X1173360D02*
D03*
X1079620Y546100D02*
D03*
X1094620D02*
D03*
X1078350Y562610D02*
D03*
X1093350D02*
D03*
X1066680Y562610D02*
D03*
X1051680D02*
D03*
X1052080Y482310D02*
D03*
X1067080D02*
D03*
X426510Y442230D02*
D03*
X441510D02*
D03*
X426510Y372910D02*
D03*
X441510D02*
D03*
X303570Y452130D02*
D03*
X318570D02*
D03*
X303570Y384810D02*
D03*
X318570D02*
D03*
X394390Y259020D02*
D03*
X379390D02*
D03*
X318570Y277140D02*
D03*
X303570D02*
D03*
X220100Y233800D02*
D03*
X235100D02*
D03*
X220400Y300400D02*
D03*
X235400D02*
D03*
X220400Y403800D02*
D03*
X235400D02*
D03*
X97100Y452600D02*
D03*
X112100D02*
D03*
Y384800D02*
D03*
X97100D02*
D03*
Y268200D02*
D03*
X112100D02*
D03*
D33*
X790466Y3338900D02*
D03*
Y3313500D02*
D03*
X804466D02*
D03*
Y3338900D02*
D03*
X492000Y3247100D02*
D03*
Y3272500D02*
D03*
X506000D02*
D03*
Y3247100D02*
D03*
X806200Y3236700D02*
D03*
Y3211300D02*
D03*
X792200D02*
D03*
Y3236700D02*
D03*
X790466Y2608900D02*
D03*
Y2583500D02*
D03*
X804466D02*
D03*
Y2608900D02*
D03*
X492000Y2517100D02*
D03*
Y2542500D02*
D03*
X506000D02*
D03*
Y2517100D02*
D03*
X806200Y2506700D02*
D03*
Y2481300D02*
D03*
X792200D02*
D03*
Y2506700D02*
D03*
X790466Y1878900D02*
D03*
Y1853500D02*
D03*
X804466D02*
D03*
Y1878900D02*
D03*
X492000Y1787100D02*
D03*
Y1812500D02*
D03*
X506000D02*
D03*
Y1787100D02*
D03*
X806200Y1776700D02*
D03*
Y1751300D02*
D03*
X792200D02*
D03*
Y1776700D02*
D03*
X790466Y1148900D02*
D03*
Y1123500D02*
D03*
X804466D02*
D03*
Y1148900D02*
D03*
X492000Y1057100D02*
D03*
Y1082500D02*
D03*
X506000D02*
D03*
Y1057100D02*
D03*
X806200Y1046700D02*
D03*
Y1021300D02*
D03*
X792200D02*
D03*
Y1046700D02*
D03*
X804466Y418900D02*
D03*
Y393500D02*
D03*
X790466D02*
D03*
Y418900D02*
D03*
X792200Y316700D02*
D03*
Y291300D02*
D03*
X806200D02*
D03*
Y316700D02*
D03*
X506000Y327100D02*
D03*
Y352500D02*
D03*
X492000D02*
D03*
Y327100D02*
D03*
D34*
X790466Y3330200D02*
D03*
Y3322200D02*
D03*
X804466D02*
D03*
Y3330200D02*
D03*
X492000Y3255800D02*
D03*
Y3263800D02*
D03*
X506000D02*
D03*
Y3255800D02*
D03*
X806200Y3228000D02*
D03*
Y3220000D02*
D03*
X792200D02*
D03*
Y3228000D02*
D03*
X790466Y2600200D02*
D03*
Y2592200D02*
D03*
X804466D02*
D03*
Y2600200D02*
D03*
X492000Y2525800D02*
D03*
Y2533800D02*
D03*
X506000D02*
D03*
Y2525800D02*
D03*
X806200Y2498000D02*
D03*
Y2490000D02*
D03*
X792200D02*
D03*
Y2498000D02*
D03*
X790466Y1870200D02*
D03*
Y1862200D02*
D03*
X804466D02*
D03*
Y1870200D02*
D03*
X492000Y1795800D02*
D03*
Y1803800D02*
D03*
X506000D02*
D03*
Y1795800D02*
D03*
X806200Y1768000D02*
D03*
Y1760000D02*
D03*
X792200D02*
D03*
Y1768000D02*
D03*
X790466Y1140200D02*
D03*
Y1132200D02*
D03*
X804466D02*
D03*
Y1140200D02*
D03*
X492000Y1065800D02*
D03*
Y1073800D02*
D03*
X506000D02*
D03*
Y1065800D02*
D03*
X806200Y1038000D02*
D03*
Y1030000D02*
D03*
X792200D02*
D03*
Y1038000D02*
D03*
X804466Y410200D02*
D03*
Y402200D02*
D03*
X790466D02*
D03*
Y410200D02*
D03*
X792200Y308000D02*
D03*
Y300000D02*
D03*
X806200D02*
D03*
Y308000D02*
D03*
X506000Y335800D02*
D03*
Y343800D02*
D03*
X492000D02*
D03*
Y335800D02*
D03*
D59*
X-48351Y3622367D02*
D03*
X1636666D02*
D03*
X1634934Y10100D02*
D03*
X-48266D02*
D03*
D72*
X-28400Y3568400D02*
D03*
X1625000D02*
D03*
X1653110Y61800D02*
D03*
X-70000D02*
D03*
D73*
X604520Y3414020D02*
D03*
Y3404020D02*
D03*
Y3394020D02*
D03*
Y3384020D02*
D03*
Y3374020D02*
D03*
Y3314020D02*
D03*
Y3324020D02*
D03*
Y3334020D02*
D03*
Y3344020D02*
D03*
Y3354020D02*
D03*
Y3364020D02*
D03*
X614520Y3414020D02*
D03*
Y3404020D02*
D03*
Y3394020D02*
D03*
Y3384020D02*
D03*
Y3374020D02*
D03*
Y3314020D02*
D03*
Y3324020D02*
D03*
Y3334020D02*
D03*
Y3344020D02*
D03*
Y3354020D02*
D03*
Y3364020D02*
D03*
X624520Y3414020D02*
D03*
Y3404020D02*
D03*
Y3394020D02*
D03*
Y3384020D02*
D03*
Y3374020D02*
D03*
Y3314020D02*
D03*
Y3324020D02*
D03*
Y3334020D02*
D03*
Y3344020D02*
D03*
Y3354020D02*
D03*
Y3364020D02*
D03*
X634520Y3414020D02*
D03*
Y3404020D02*
D03*
Y3394020D02*
D03*
Y3384020D02*
D03*
Y3374020D02*
D03*
Y3314020D02*
D03*
Y3324020D02*
D03*
Y3334020D02*
D03*
Y3344020D02*
D03*
Y3354020D02*
D03*
Y3364020D02*
D03*
X644520Y3414020D02*
D03*
Y3404020D02*
D03*
Y3394020D02*
D03*
Y3384020D02*
D03*
Y3374020D02*
D03*
Y3314020D02*
D03*
Y3324020D02*
D03*
Y3334020D02*
D03*
Y3344020D02*
D03*
Y3354020D02*
D03*
Y3364020D02*
D03*
X704520Y3414020D02*
D03*
Y3404020D02*
D03*
Y3394020D02*
D03*
Y3384020D02*
D03*
Y3374020D02*
D03*
Y3314020D02*
D03*
Y3324020D02*
D03*
Y3334020D02*
D03*
Y3344020D02*
D03*
Y3354020D02*
D03*
Y3364020D02*
D03*
X694520Y3414020D02*
D03*
Y3404020D02*
D03*
Y3394020D02*
D03*
Y3384020D02*
D03*
Y3374020D02*
D03*
Y3314020D02*
D03*
Y3324020D02*
D03*
Y3334020D02*
D03*
Y3344020D02*
D03*
Y3354020D02*
D03*
Y3364020D02*
D03*
X684520Y3414020D02*
D03*
Y3404020D02*
D03*
Y3394020D02*
D03*
Y3384020D02*
D03*
Y3374020D02*
D03*
Y3314020D02*
D03*
Y3324020D02*
D03*
Y3334020D02*
D03*
Y3344020D02*
D03*
Y3354020D02*
D03*
Y3364020D02*
D03*
X674520Y3414020D02*
D03*
Y3404020D02*
D03*
Y3394020D02*
D03*
Y3384020D02*
D03*
Y3374020D02*
D03*
Y3314020D02*
D03*
Y3324020D02*
D03*
Y3334020D02*
D03*
Y3344020D02*
D03*
Y3354020D02*
D03*
Y3364020D02*
D03*
X664520Y3414020D02*
D03*
Y3404020D02*
D03*
Y3394020D02*
D03*
Y3384020D02*
D03*
Y3374020D02*
D03*
Y3314020D02*
D03*
Y3324020D02*
D03*
Y3334020D02*
D03*
Y3344020D02*
D03*
Y3354020D02*
D03*
Y3364020D02*
D03*
X654520Y3414020D02*
D03*
Y3404020D02*
D03*
Y3394020D02*
D03*
Y3384020D02*
D03*
Y3374020D02*
D03*
Y3314020D02*
D03*
Y3324020D02*
D03*
Y3334020D02*
D03*
Y3344020D02*
D03*
Y3354020D02*
D03*
Y3364020D02*
D03*
X604520Y2684020D02*
D03*
Y2674020D02*
D03*
Y2664020D02*
D03*
Y2654020D02*
D03*
Y2644020D02*
D03*
Y2584020D02*
D03*
Y2594020D02*
D03*
Y2604020D02*
D03*
Y2614020D02*
D03*
Y2624020D02*
D03*
Y2634020D02*
D03*
X614520Y2684020D02*
D03*
Y2674020D02*
D03*
Y2664020D02*
D03*
Y2654020D02*
D03*
Y2644020D02*
D03*
Y2584020D02*
D03*
Y2594020D02*
D03*
Y2604020D02*
D03*
Y2614020D02*
D03*
Y2624020D02*
D03*
Y2634020D02*
D03*
X624520Y2684020D02*
D03*
Y2674020D02*
D03*
Y2664020D02*
D03*
Y2654020D02*
D03*
Y2644020D02*
D03*
Y2584020D02*
D03*
Y2594020D02*
D03*
Y2604020D02*
D03*
Y2614020D02*
D03*
Y2624020D02*
D03*
Y2634020D02*
D03*
X634520Y2684020D02*
D03*
Y2674020D02*
D03*
Y2664020D02*
D03*
Y2654020D02*
D03*
Y2644020D02*
D03*
Y2584020D02*
D03*
Y2594020D02*
D03*
Y2604020D02*
D03*
Y2614020D02*
D03*
Y2624020D02*
D03*
Y2634020D02*
D03*
X644520Y2684020D02*
D03*
Y2674020D02*
D03*
Y2664020D02*
D03*
Y2654020D02*
D03*
Y2644020D02*
D03*
Y2584020D02*
D03*
Y2594020D02*
D03*
Y2604020D02*
D03*
Y2614020D02*
D03*
Y2624020D02*
D03*
Y2634020D02*
D03*
X704520Y2684020D02*
D03*
Y2674020D02*
D03*
Y2664020D02*
D03*
Y2654020D02*
D03*
Y2644020D02*
D03*
Y2584020D02*
D03*
Y2594020D02*
D03*
Y2604020D02*
D03*
Y2614020D02*
D03*
Y2624020D02*
D03*
Y2634020D02*
D03*
X694520Y2684020D02*
D03*
Y2674020D02*
D03*
Y2664020D02*
D03*
Y2654020D02*
D03*
Y2644020D02*
D03*
Y2584020D02*
D03*
Y2594020D02*
D03*
Y2604020D02*
D03*
Y2614020D02*
D03*
Y2624020D02*
D03*
Y2634020D02*
D03*
X684520Y2684020D02*
D03*
Y2674020D02*
D03*
Y2664020D02*
D03*
Y2654020D02*
D03*
Y2644020D02*
D03*
Y2584020D02*
D03*
Y2594020D02*
D03*
Y2604020D02*
D03*
Y2614020D02*
D03*
Y2624020D02*
D03*
Y2634020D02*
D03*
X674520Y2684020D02*
D03*
Y2674020D02*
D03*
Y2664020D02*
D03*
Y2654020D02*
D03*
Y2644020D02*
D03*
Y2584020D02*
D03*
Y2594020D02*
D03*
Y2604020D02*
D03*
Y2614020D02*
D03*
Y2624020D02*
D03*
Y2634020D02*
D03*
X664520Y2684020D02*
D03*
Y2674020D02*
D03*
Y2664020D02*
D03*
Y2654020D02*
D03*
Y2644020D02*
D03*
Y2584020D02*
D03*
Y2594020D02*
D03*
Y2604020D02*
D03*
Y2614020D02*
D03*
Y2624020D02*
D03*
Y2634020D02*
D03*
X654520Y2684020D02*
D03*
Y2674020D02*
D03*
Y2664020D02*
D03*
Y2654020D02*
D03*
Y2644020D02*
D03*
Y2584020D02*
D03*
Y2594020D02*
D03*
Y2604020D02*
D03*
Y2614020D02*
D03*
Y2624020D02*
D03*
Y2634020D02*
D03*
X604520Y1954020D02*
D03*
Y1944020D02*
D03*
Y1934020D02*
D03*
Y1924020D02*
D03*
Y1914020D02*
D03*
Y1854020D02*
D03*
Y1864020D02*
D03*
Y1874020D02*
D03*
Y1884020D02*
D03*
Y1894020D02*
D03*
Y1904020D02*
D03*
X614520Y1954020D02*
D03*
Y1944020D02*
D03*
Y1934020D02*
D03*
Y1924020D02*
D03*
Y1914020D02*
D03*
Y1854020D02*
D03*
Y1864020D02*
D03*
Y1874020D02*
D03*
Y1884020D02*
D03*
Y1894020D02*
D03*
Y1904020D02*
D03*
X624520Y1954020D02*
D03*
Y1944020D02*
D03*
Y1934020D02*
D03*
Y1924020D02*
D03*
Y1914020D02*
D03*
Y1854020D02*
D03*
Y1864020D02*
D03*
Y1874020D02*
D03*
Y1884020D02*
D03*
Y1894020D02*
D03*
Y1904020D02*
D03*
X634520Y1954020D02*
D03*
Y1944020D02*
D03*
Y1934020D02*
D03*
Y1924020D02*
D03*
Y1914020D02*
D03*
Y1854020D02*
D03*
Y1864020D02*
D03*
Y1874020D02*
D03*
Y1884020D02*
D03*
Y1894020D02*
D03*
Y1904020D02*
D03*
X644520Y1954020D02*
D03*
Y1944020D02*
D03*
Y1934020D02*
D03*
Y1924020D02*
D03*
Y1914020D02*
D03*
Y1854020D02*
D03*
Y1864020D02*
D03*
Y1874020D02*
D03*
Y1884020D02*
D03*
Y1894020D02*
D03*
Y1904020D02*
D03*
X704520Y1954020D02*
D03*
Y1944020D02*
D03*
Y1934020D02*
D03*
Y1924020D02*
D03*
Y1914020D02*
D03*
Y1854020D02*
D03*
Y1864020D02*
D03*
Y1874020D02*
D03*
Y1884020D02*
D03*
Y1894020D02*
D03*
Y1904020D02*
D03*
X694520Y1954020D02*
D03*
Y1944020D02*
D03*
Y1934020D02*
D03*
Y1924020D02*
D03*
Y1914020D02*
D03*
Y1854020D02*
D03*
Y1864020D02*
D03*
Y1874020D02*
D03*
Y1884020D02*
D03*
Y1894020D02*
D03*
Y1904020D02*
D03*
X684520Y1954020D02*
D03*
Y1944020D02*
D03*
Y1934020D02*
D03*
Y1924020D02*
D03*
Y1914020D02*
D03*
Y1854020D02*
D03*
Y1864020D02*
D03*
Y1874020D02*
D03*
Y1884020D02*
D03*
Y1894020D02*
D03*
Y1904020D02*
D03*
X674520Y1954020D02*
D03*
Y1944020D02*
D03*
Y1934020D02*
D03*
Y1924020D02*
D03*
Y1914020D02*
D03*
Y1854020D02*
D03*
Y1864020D02*
D03*
Y1874020D02*
D03*
Y1884020D02*
D03*
Y1894020D02*
D03*
Y1904020D02*
D03*
X664520Y1954020D02*
D03*
Y1944020D02*
D03*
Y1934020D02*
D03*
Y1924020D02*
D03*
Y1914020D02*
D03*
Y1854020D02*
D03*
Y1864020D02*
D03*
Y1874020D02*
D03*
Y1884020D02*
D03*
Y1894020D02*
D03*
Y1904020D02*
D03*
X654520Y1954020D02*
D03*
Y1944020D02*
D03*
Y1934020D02*
D03*
Y1924020D02*
D03*
Y1914020D02*
D03*
Y1854020D02*
D03*
Y1864020D02*
D03*
Y1874020D02*
D03*
Y1884020D02*
D03*
Y1894020D02*
D03*
Y1904020D02*
D03*
X604520Y1224020D02*
D03*
Y1214020D02*
D03*
Y1204020D02*
D03*
Y1194020D02*
D03*
Y1184020D02*
D03*
Y1124020D02*
D03*
Y1134020D02*
D03*
Y1144020D02*
D03*
Y1154020D02*
D03*
Y1164020D02*
D03*
Y1174020D02*
D03*
X614520Y1224020D02*
D03*
Y1214020D02*
D03*
Y1204020D02*
D03*
Y1194020D02*
D03*
Y1184020D02*
D03*
Y1124020D02*
D03*
Y1134020D02*
D03*
Y1144020D02*
D03*
Y1154020D02*
D03*
Y1164020D02*
D03*
Y1174020D02*
D03*
X624520Y1224020D02*
D03*
Y1214020D02*
D03*
Y1204020D02*
D03*
Y1194020D02*
D03*
Y1184020D02*
D03*
Y1124020D02*
D03*
Y1134020D02*
D03*
Y1144020D02*
D03*
Y1154020D02*
D03*
Y1164020D02*
D03*
Y1174020D02*
D03*
X634520Y1224020D02*
D03*
Y1214020D02*
D03*
Y1204020D02*
D03*
Y1194020D02*
D03*
Y1184020D02*
D03*
Y1124020D02*
D03*
Y1134020D02*
D03*
Y1144020D02*
D03*
Y1154020D02*
D03*
Y1164020D02*
D03*
Y1174020D02*
D03*
X644520Y1224020D02*
D03*
Y1214020D02*
D03*
Y1204020D02*
D03*
Y1194020D02*
D03*
Y1184020D02*
D03*
Y1124020D02*
D03*
Y1134020D02*
D03*
Y1144020D02*
D03*
Y1154020D02*
D03*
Y1164020D02*
D03*
Y1174020D02*
D03*
X704520Y1224020D02*
D03*
Y1214020D02*
D03*
Y1204020D02*
D03*
Y1194020D02*
D03*
Y1184020D02*
D03*
Y1124020D02*
D03*
Y1134020D02*
D03*
Y1144020D02*
D03*
Y1154020D02*
D03*
Y1164020D02*
D03*
Y1174020D02*
D03*
X694520Y1224020D02*
D03*
Y1214020D02*
D03*
Y1204020D02*
D03*
Y1194020D02*
D03*
Y1184020D02*
D03*
Y1124020D02*
D03*
Y1134020D02*
D03*
Y1144020D02*
D03*
Y1154020D02*
D03*
Y1164020D02*
D03*
Y1174020D02*
D03*
X684520Y1224020D02*
D03*
Y1214020D02*
D03*
Y1204020D02*
D03*
Y1194020D02*
D03*
Y1184020D02*
D03*
Y1124020D02*
D03*
Y1134020D02*
D03*
Y1144020D02*
D03*
Y1154020D02*
D03*
Y1164020D02*
D03*
Y1174020D02*
D03*
X674520Y1224020D02*
D03*
Y1214020D02*
D03*
Y1204020D02*
D03*
Y1194020D02*
D03*
Y1184020D02*
D03*
Y1124020D02*
D03*
Y1134020D02*
D03*
Y1144020D02*
D03*
Y1154020D02*
D03*
Y1164020D02*
D03*
Y1174020D02*
D03*
X664520Y1224020D02*
D03*
Y1214020D02*
D03*
Y1204020D02*
D03*
Y1194020D02*
D03*
Y1184020D02*
D03*
Y1124020D02*
D03*
Y1134020D02*
D03*
Y1144020D02*
D03*
Y1154020D02*
D03*
Y1164020D02*
D03*
Y1174020D02*
D03*
X654520Y1224020D02*
D03*
Y1214020D02*
D03*
Y1204020D02*
D03*
Y1194020D02*
D03*
Y1184020D02*
D03*
Y1124020D02*
D03*
Y1134020D02*
D03*
Y1144020D02*
D03*
Y1154020D02*
D03*
Y1164020D02*
D03*
Y1174020D02*
D03*
X654520Y444020D02*
D03*
Y434020D02*
D03*
Y424020D02*
D03*
Y414020D02*
D03*
Y404020D02*
D03*
Y394020D02*
D03*
Y454020D02*
D03*
Y464020D02*
D03*
Y474020D02*
D03*
Y484020D02*
D03*
Y494020D02*
D03*
X664520Y444020D02*
D03*
Y434020D02*
D03*
Y424020D02*
D03*
Y414020D02*
D03*
Y404020D02*
D03*
Y394020D02*
D03*
Y454020D02*
D03*
Y464020D02*
D03*
Y474020D02*
D03*
Y484020D02*
D03*
Y494020D02*
D03*
X674520Y444020D02*
D03*
Y434020D02*
D03*
Y424020D02*
D03*
Y414020D02*
D03*
Y404020D02*
D03*
Y394020D02*
D03*
Y454020D02*
D03*
Y464020D02*
D03*
Y474020D02*
D03*
Y484020D02*
D03*
Y494020D02*
D03*
X684520Y444020D02*
D03*
Y434020D02*
D03*
Y424020D02*
D03*
Y414020D02*
D03*
Y404020D02*
D03*
Y394020D02*
D03*
Y454020D02*
D03*
Y464020D02*
D03*
Y474020D02*
D03*
Y484020D02*
D03*
Y494020D02*
D03*
X694520Y444020D02*
D03*
Y434020D02*
D03*
Y424020D02*
D03*
Y414020D02*
D03*
Y404020D02*
D03*
Y394020D02*
D03*
Y454020D02*
D03*
Y464020D02*
D03*
Y474020D02*
D03*
Y484020D02*
D03*
Y494020D02*
D03*
X704520Y444020D02*
D03*
Y434020D02*
D03*
Y424020D02*
D03*
Y414020D02*
D03*
Y404020D02*
D03*
Y394020D02*
D03*
Y454020D02*
D03*
Y464020D02*
D03*
Y474020D02*
D03*
Y484020D02*
D03*
Y494020D02*
D03*
X644520Y444020D02*
D03*
Y434020D02*
D03*
Y424020D02*
D03*
Y414020D02*
D03*
Y404020D02*
D03*
Y394020D02*
D03*
Y454020D02*
D03*
Y464020D02*
D03*
Y474020D02*
D03*
Y484020D02*
D03*
Y494020D02*
D03*
X634520Y444020D02*
D03*
Y434020D02*
D03*
Y424020D02*
D03*
Y414020D02*
D03*
Y404020D02*
D03*
Y394020D02*
D03*
Y454020D02*
D03*
Y464020D02*
D03*
Y474020D02*
D03*
Y484020D02*
D03*
Y494020D02*
D03*
X624520Y444020D02*
D03*
Y434020D02*
D03*
Y424020D02*
D03*
Y414020D02*
D03*
Y404020D02*
D03*
Y394020D02*
D03*
Y454020D02*
D03*
Y464020D02*
D03*
Y474020D02*
D03*
Y484020D02*
D03*
Y494020D02*
D03*
X614520Y444020D02*
D03*
Y434020D02*
D03*
Y424020D02*
D03*
Y414020D02*
D03*
Y404020D02*
D03*
Y394020D02*
D03*
Y454020D02*
D03*
Y464020D02*
D03*
Y474020D02*
D03*
Y484020D02*
D03*
Y494020D02*
D03*
X604520Y444020D02*
D03*
Y434020D02*
D03*
Y424020D02*
D03*
Y414020D02*
D03*
Y404020D02*
D03*
Y394020D02*
D03*
Y454020D02*
D03*
Y464020D02*
D03*
Y474020D02*
D03*
Y484020D02*
D03*
Y494020D02*
D03*
D74*
X1548870Y3024600D02*
D03*
X1523470D02*
D03*
Y3050000D02*
D03*
X1498070Y3024600D02*
D03*
Y3050000D02*
D03*
X1472670Y3024600D02*
D03*
Y3050000D02*
D03*
X1447270Y3024600D02*
D03*
X1421470D02*
D03*
Y3050000D02*
D03*
X1396070Y3024600D02*
D03*
Y3050000D02*
D03*
X1370670D02*
D03*
X1345270D02*
D03*
X1370670Y3024600D02*
D03*
X1345270D02*
D03*
X1447270Y3050000D02*
D03*
X1319470Y3024600D02*
D03*
Y3050000D02*
D03*
X1294070Y3024600D02*
D03*
Y3050000D02*
D03*
X1268670Y3024600D02*
D03*
Y3050000D02*
D03*
X1243270Y3024600D02*
D03*
X1217470D02*
D03*
Y3050000D02*
D03*
X1192070D02*
D03*
X1243270D02*
D03*
X1191870Y3024600D02*
D03*
X1166470D02*
D03*
Y3050000D02*
D03*
X1141070Y3024600D02*
D03*
Y3050000D02*
D03*
X1115670Y3024600D02*
D03*
Y3050000D02*
D03*
X1090270Y3024600D02*
D03*
X1064470D02*
D03*
Y3050000D02*
D03*
X1039070Y3024600D02*
D03*
Y3050000D02*
D03*
X1013670D02*
D03*
X988270D02*
D03*
X1013670Y3024600D02*
D03*
X988270D02*
D03*
X1090270Y3050000D02*
D03*
X962470Y3024600D02*
D03*
Y3050000D02*
D03*
X937070Y3024600D02*
D03*
Y3050000D02*
D03*
X105880D02*
D03*
X54680D02*
D03*
Y3024600D02*
D03*
X80080Y3050000D02*
D03*
Y3024600D02*
D03*
X105880D02*
D03*
X131280Y3050000D02*
D03*
Y3024600D02*
D03*
X156680Y3050000D02*
D03*
Y3024600D02*
D03*
X182080Y3050000D02*
D03*
Y3024600D02*
D03*
X309880Y3050000D02*
D03*
X207880Y3024600D02*
D03*
X233280D02*
D03*
X207880Y3050000D02*
D03*
X233280D02*
D03*
X258680D02*
D03*
Y3024600D02*
D03*
X284080Y3050000D02*
D03*
Y3024600D02*
D03*
X309880D02*
D03*
X335280Y3050000D02*
D03*
Y3024600D02*
D03*
X360680Y3050000D02*
D03*
Y3024600D02*
D03*
X386080Y3050000D02*
D03*
Y3024600D02*
D03*
X411480D02*
D03*
X805489Y3532490D02*
D03*
X830889D02*
D03*
Y3557890D02*
D03*
X856289Y3532490D02*
D03*
Y3557890D02*
D03*
X881689Y3532490D02*
D03*
Y3557890D02*
D03*
X907089Y3532490D02*
D03*
X932889D02*
D03*
Y3557890D02*
D03*
X958289Y3532490D02*
D03*
Y3557890D02*
D03*
X907089D02*
D03*
X1548870Y2294600D02*
D03*
X1523470D02*
D03*
Y2320000D02*
D03*
X1498070Y2294600D02*
D03*
Y2320000D02*
D03*
X1472670Y2294600D02*
D03*
Y2320000D02*
D03*
X1447270Y2294600D02*
D03*
X1421470D02*
D03*
Y2320000D02*
D03*
X1396070Y2294600D02*
D03*
Y2320000D02*
D03*
X1370670D02*
D03*
X1345270D02*
D03*
X1370670Y2294600D02*
D03*
X1345270D02*
D03*
X1447270Y2320000D02*
D03*
X1319470Y2294600D02*
D03*
Y2320000D02*
D03*
X1294070Y2294600D02*
D03*
Y2320000D02*
D03*
X1268670Y2294600D02*
D03*
Y2320000D02*
D03*
X1243270Y2294600D02*
D03*
X1217470D02*
D03*
Y2320000D02*
D03*
X1192070D02*
D03*
X1243270D02*
D03*
X1191870Y2294600D02*
D03*
X1166470D02*
D03*
Y2320000D02*
D03*
X1141070Y2294600D02*
D03*
Y2320000D02*
D03*
X1115670Y2294600D02*
D03*
Y2320000D02*
D03*
X1090270Y2294600D02*
D03*
X1064470D02*
D03*
Y2320000D02*
D03*
X1039070Y2294600D02*
D03*
Y2320000D02*
D03*
X1013670D02*
D03*
X988270D02*
D03*
X1013670Y2294600D02*
D03*
X988270D02*
D03*
X1090270Y2320000D02*
D03*
X962470Y2294600D02*
D03*
Y2320000D02*
D03*
X937070Y2294600D02*
D03*
Y2320000D02*
D03*
X105880D02*
D03*
X54680D02*
D03*
Y2294600D02*
D03*
X80080Y2320000D02*
D03*
Y2294600D02*
D03*
X105880D02*
D03*
X131280Y2320000D02*
D03*
Y2294600D02*
D03*
X156680Y2320000D02*
D03*
Y2294600D02*
D03*
X182080Y2320000D02*
D03*
Y2294600D02*
D03*
X309880Y2320000D02*
D03*
X207880Y2294600D02*
D03*
X233280D02*
D03*
X207880Y2320000D02*
D03*
X233280D02*
D03*
X258680D02*
D03*
Y2294600D02*
D03*
X284080Y2320000D02*
D03*
Y2294600D02*
D03*
X309880D02*
D03*
X335280Y2320000D02*
D03*
Y2294600D02*
D03*
X360680Y2320000D02*
D03*
Y2294600D02*
D03*
X386080Y2320000D02*
D03*
Y2294600D02*
D03*
X411480D02*
D03*
X805489Y2802490D02*
D03*
X830889D02*
D03*
Y2827890D02*
D03*
X856289Y2802490D02*
D03*
Y2827890D02*
D03*
X881689Y2802490D02*
D03*
Y2827890D02*
D03*
X907089Y2802490D02*
D03*
X932889D02*
D03*
Y2827890D02*
D03*
X958289Y2802490D02*
D03*
Y2827890D02*
D03*
X907089D02*
D03*
X1548870Y1564600D02*
D03*
X1523470D02*
D03*
Y1590000D02*
D03*
X1498070Y1564600D02*
D03*
Y1590000D02*
D03*
X1472670Y1564600D02*
D03*
Y1590000D02*
D03*
X1447270Y1564600D02*
D03*
X1421470D02*
D03*
Y1590000D02*
D03*
X1396070Y1564600D02*
D03*
Y1590000D02*
D03*
X1370670D02*
D03*
X1345270D02*
D03*
X1370670Y1564600D02*
D03*
X1345270D02*
D03*
X1447270Y1590000D02*
D03*
X1319470Y1564600D02*
D03*
Y1590000D02*
D03*
X1294070Y1564600D02*
D03*
Y1590000D02*
D03*
X1268670Y1564600D02*
D03*
Y1590000D02*
D03*
X1243270Y1564600D02*
D03*
X1217470D02*
D03*
Y1590000D02*
D03*
X1192070D02*
D03*
X1243270D02*
D03*
X1191870Y1564600D02*
D03*
X1166470D02*
D03*
Y1590000D02*
D03*
X1141070Y1564600D02*
D03*
Y1590000D02*
D03*
X1115670Y1564600D02*
D03*
Y1590000D02*
D03*
X1090270Y1564600D02*
D03*
X1064470D02*
D03*
Y1590000D02*
D03*
X1039070Y1564600D02*
D03*
Y1590000D02*
D03*
X1013670D02*
D03*
X988270D02*
D03*
X1013670Y1564600D02*
D03*
X988270D02*
D03*
X1090270Y1590000D02*
D03*
X962470Y1564600D02*
D03*
Y1590000D02*
D03*
X937070Y1564600D02*
D03*
Y1590000D02*
D03*
X105880D02*
D03*
X54680D02*
D03*
Y1564600D02*
D03*
X80080Y1590000D02*
D03*
Y1564600D02*
D03*
X105880D02*
D03*
X131280Y1590000D02*
D03*
Y1564600D02*
D03*
X156680Y1590000D02*
D03*
Y1564600D02*
D03*
X182080Y1590000D02*
D03*
Y1564600D02*
D03*
X309880Y1590000D02*
D03*
X207880Y1564600D02*
D03*
X233280D02*
D03*
X207880Y1590000D02*
D03*
X233280D02*
D03*
X258680D02*
D03*
Y1564600D02*
D03*
X284080Y1590000D02*
D03*
Y1564600D02*
D03*
X309880D02*
D03*
X335280Y1590000D02*
D03*
Y1564600D02*
D03*
X360680Y1590000D02*
D03*
Y1564600D02*
D03*
X386080Y1590000D02*
D03*
Y1564600D02*
D03*
X411480D02*
D03*
X805489Y2072490D02*
D03*
X830889D02*
D03*
Y2097890D02*
D03*
X856289Y2072490D02*
D03*
Y2097890D02*
D03*
X881689Y2072490D02*
D03*
Y2097890D02*
D03*
X907089Y2072490D02*
D03*
X932889D02*
D03*
Y2097890D02*
D03*
X958289Y2072490D02*
D03*
Y2097890D02*
D03*
X907089D02*
D03*
X1548870Y834600D02*
D03*
X1523470D02*
D03*
Y860000D02*
D03*
X1498070Y834600D02*
D03*
Y860000D02*
D03*
X1472670Y834600D02*
D03*
Y860000D02*
D03*
X1447270Y834600D02*
D03*
X1421470D02*
D03*
Y860000D02*
D03*
X1396070Y834600D02*
D03*
Y860000D02*
D03*
X1370670D02*
D03*
X1345270D02*
D03*
X1370670Y834600D02*
D03*
X1345270D02*
D03*
X1447270Y860000D02*
D03*
X1319470Y834600D02*
D03*
Y860000D02*
D03*
X1294070Y834600D02*
D03*
Y860000D02*
D03*
X1268670Y834600D02*
D03*
Y860000D02*
D03*
X1243270Y834600D02*
D03*
X1217470D02*
D03*
Y860000D02*
D03*
X1192070D02*
D03*
X1243270D02*
D03*
X1191870Y834600D02*
D03*
X1166470D02*
D03*
Y860000D02*
D03*
X1141070Y834600D02*
D03*
Y860000D02*
D03*
X1115670Y834600D02*
D03*
Y860000D02*
D03*
X1090270Y834600D02*
D03*
X1064470D02*
D03*
Y860000D02*
D03*
X1039070Y834600D02*
D03*
Y860000D02*
D03*
X1013670D02*
D03*
X988270D02*
D03*
X1013670Y834600D02*
D03*
X988270D02*
D03*
X1090270Y860000D02*
D03*
X962470Y834600D02*
D03*
Y860000D02*
D03*
X937070Y834600D02*
D03*
Y860000D02*
D03*
X105880D02*
D03*
X54680D02*
D03*
Y834600D02*
D03*
X80080Y860000D02*
D03*
Y834600D02*
D03*
X105880D02*
D03*
X131280Y860000D02*
D03*
Y834600D02*
D03*
X156680Y860000D02*
D03*
Y834600D02*
D03*
X182080Y860000D02*
D03*
Y834600D02*
D03*
X309880Y860000D02*
D03*
X207880Y834600D02*
D03*
X233280D02*
D03*
X207880Y860000D02*
D03*
X233280D02*
D03*
X258680D02*
D03*
Y834600D02*
D03*
X284080Y860000D02*
D03*
Y834600D02*
D03*
X309880D02*
D03*
X335280Y860000D02*
D03*
Y834600D02*
D03*
X360680Y860000D02*
D03*
Y834600D02*
D03*
X386080Y860000D02*
D03*
Y834600D02*
D03*
X411480D02*
D03*
X805489Y1342490D02*
D03*
X830889D02*
D03*
Y1367890D02*
D03*
X856289Y1342490D02*
D03*
Y1367890D02*
D03*
X881689Y1342490D02*
D03*
Y1367890D02*
D03*
X907089Y1342490D02*
D03*
X932889D02*
D03*
Y1367890D02*
D03*
X958289Y1342490D02*
D03*
Y1367890D02*
D03*
X907089D02*
D03*
X937070Y130000D02*
D03*
Y104600D02*
D03*
X962470Y130000D02*
D03*
Y104600D02*
D03*
X1090270Y130000D02*
D03*
X988270Y104600D02*
D03*
X1013670D02*
D03*
X988270Y130000D02*
D03*
X1013670D02*
D03*
X1039070D02*
D03*
Y104600D02*
D03*
X1064470Y130000D02*
D03*
Y104600D02*
D03*
X1090270D02*
D03*
X1115670Y130000D02*
D03*
Y104600D02*
D03*
X1141070Y130000D02*
D03*
Y104600D02*
D03*
X1166470Y130000D02*
D03*
Y104600D02*
D03*
X1191870D02*
D03*
X1243270Y130000D02*
D03*
X1192070D02*
D03*
X1217470D02*
D03*
Y104600D02*
D03*
X1243270D02*
D03*
X1268670Y130000D02*
D03*
Y104600D02*
D03*
X1294070Y130000D02*
D03*
Y104600D02*
D03*
X1319470Y130000D02*
D03*
Y104600D02*
D03*
X1447270Y130000D02*
D03*
X1345270Y104600D02*
D03*
X1370670D02*
D03*
X1345270Y130000D02*
D03*
X1370670D02*
D03*
X1396070D02*
D03*
Y104600D02*
D03*
X1421470Y130000D02*
D03*
Y104600D02*
D03*
X1447270D02*
D03*
X1472670Y130000D02*
D03*
Y104600D02*
D03*
X1498070Y130000D02*
D03*
Y104600D02*
D03*
X1523470Y130000D02*
D03*
Y104600D02*
D03*
X1548870D02*
D03*
X907089Y637890D02*
D03*
X958289D02*
D03*
Y612490D02*
D03*
X932889Y637890D02*
D03*
Y612490D02*
D03*
X907089D02*
D03*
X881689Y637890D02*
D03*
Y612490D02*
D03*
X856289Y637890D02*
D03*
Y612490D02*
D03*
X830889Y637890D02*
D03*
Y612490D02*
D03*
X805489D02*
D03*
X411480Y104600D02*
D03*
X386080D02*
D03*
Y130000D02*
D03*
X360680Y104600D02*
D03*
Y130000D02*
D03*
X335280Y104600D02*
D03*
Y130000D02*
D03*
X309880Y104600D02*
D03*
X284080D02*
D03*
Y130000D02*
D03*
X258680Y104600D02*
D03*
Y130000D02*
D03*
X233280D02*
D03*
X207880D02*
D03*
X233280Y104600D02*
D03*
X207880D02*
D03*
X309880Y130000D02*
D03*
X182080Y104600D02*
D03*
Y130000D02*
D03*
X156680Y104600D02*
D03*
Y130000D02*
D03*
X131280Y104600D02*
D03*
Y130000D02*
D03*
X105880Y104600D02*
D03*
X80080D02*
D03*
Y130000D02*
D03*
X54680Y104600D02*
D03*
Y130000D02*
D03*
X105880D02*
D03*
D75*
X1548870Y3050000D02*
D03*
X411480D02*
D03*
X805489Y3557890D02*
D03*
X1548870Y2320000D02*
D03*
X411480D02*
D03*
X805489Y2827890D02*
D03*
X1548870Y1590000D02*
D03*
X411480D02*
D03*
X805489Y2097890D02*
D03*
X1548870Y860000D02*
D03*
X411480D02*
D03*
X805489Y1367890D02*
D03*
X1548870Y130000D02*
D03*
X805489Y637890D02*
D03*
X411480Y130000D02*
D03*
D76*
X535940Y3036840D02*
D03*
X651600Y3551000D02*
D03*
X677000D02*
D03*
X702400D02*
D03*
X535940Y2306840D02*
D03*
X651600Y2821000D02*
D03*
X677000D02*
D03*
X702400D02*
D03*
X535940Y1576840D02*
D03*
X651600Y2091000D02*
D03*
X677000D02*
D03*
X702400D02*
D03*
X535940Y846840D02*
D03*
X651600Y1361000D02*
D03*
X677000D02*
D03*
X702400D02*
D03*
X535940Y116840D02*
D03*
X702400Y631000D02*
D03*
X677000D02*
D03*
X651600D02*
D03*
D77*
X561340Y3036840D02*
D03*
X626200Y3551000D02*
D03*
X561340Y2306840D02*
D03*
X626200Y2821000D02*
D03*
X561340Y1576840D02*
D03*
X626200Y2091000D02*
D03*
X561340Y846840D02*
D03*
X626200Y1361000D02*
D03*
X561340Y116840D02*
D03*
X626200Y631000D02*
D03*
D81*
X112100Y3154300D02*
D03*
X87100Y3163800D02*
D03*
X112100Y3173300D02*
D03*
X220400Y3187200D02*
D03*
X245400Y3177700D02*
D03*
X220400Y3168200D02*
D03*
Y3253900D02*
D03*
X245400Y3244400D02*
D03*
X220400Y3234900D02*
D03*
X112100Y3339300D02*
D03*
X87100Y3348800D02*
D03*
X112100Y3358300D02*
D03*
X220400Y3357100D02*
D03*
X245400Y3347600D02*
D03*
X220400Y3338100D02*
D03*
X112100Y3290100D02*
D03*
X87100Y3280600D02*
D03*
X112100Y3271100D02*
D03*
X318570Y3339160D02*
D03*
X293570Y3348660D02*
D03*
X318570Y3358160D02*
D03*
Y3271770D02*
D03*
X293570Y3281270D02*
D03*
X318570Y3290770D02*
D03*
X426510Y3307410D02*
D03*
X451510Y3316910D02*
D03*
X426510Y3326410D02*
D03*
Y3376330D02*
D03*
X451510Y3385830D02*
D03*
X426510Y3395330D02*
D03*
X318570Y3181240D02*
D03*
X293570Y3171740D02*
D03*
X318570Y3162240D02*
D03*
X379390Y3213920D02*
D03*
X404390Y3204420D02*
D03*
X379390Y3194920D02*
D03*
X112100Y2424300D02*
D03*
X87100Y2433800D02*
D03*
X112100Y2443300D02*
D03*
X220400Y2457200D02*
D03*
X245400Y2447700D02*
D03*
X220400Y2438200D02*
D03*
Y2523900D02*
D03*
X245400Y2514400D02*
D03*
X220400Y2504900D02*
D03*
X112100Y2609300D02*
D03*
X87100Y2618800D02*
D03*
X112100Y2628300D02*
D03*
X220400Y2627100D02*
D03*
X245400Y2617600D02*
D03*
X220400Y2608100D02*
D03*
X112100Y2560100D02*
D03*
X87100Y2550600D02*
D03*
X112100Y2541100D02*
D03*
X318570Y2609160D02*
D03*
X293570Y2618660D02*
D03*
X318570Y2628160D02*
D03*
Y2541770D02*
D03*
X293570Y2551270D02*
D03*
X318570Y2560770D02*
D03*
X426510Y2577410D02*
D03*
X451510Y2586910D02*
D03*
X426510Y2596410D02*
D03*
Y2646330D02*
D03*
X451510Y2655830D02*
D03*
X426510Y2665330D02*
D03*
X318570Y2451240D02*
D03*
X293570Y2441740D02*
D03*
X318570Y2432240D02*
D03*
X379390Y2483920D02*
D03*
X404390Y2474420D02*
D03*
X379390Y2464920D02*
D03*
X112100Y1694300D02*
D03*
X87100Y1703800D02*
D03*
X112100Y1713300D02*
D03*
X220400Y1727200D02*
D03*
X245400Y1717700D02*
D03*
X220400Y1708200D02*
D03*
Y1793900D02*
D03*
X245400Y1784400D02*
D03*
X220400Y1774900D02*
D03*
X112100Y1879300D02*
D03*
X87100Y1888800D02*
D03*
X112100Y1898300D02*
D03*
X220400Y1897100D02*
D03*
X245400Y1887600D02*
D03*
X220400Y1878100D02*
D03*
X112100Y1830100D02*
D03*
X87100Y1820600D02*
D03*
X112100Y1811100D02*
D03*
X318570Y1879160D02*
D03*
X293570Y1888660D02*
D03*
X318570Y1898160D02*
D03*
Y1811770D02*
D03*
X293570Y1821270D02*
D03*
X318570Y1830770D02*
D03*
X426510Y1847410D02*
D03*
X451510Y1856910D02*
D03*
X426510Y1866410D02*
D03*
Y1916330D02*
D03*
X451510Y1925830D02*
D03*
X426510Y1935330D02*
D03*
X318570Y1721240D02*
D03*
X293570Y1711740D02*
D03*
X318570Y1702240D02*
D03*
X379390Y1753920D02*
D03*
X404390Y1744420D02*
D03*
X379390Y1734920D02*
D03*
X112100Y964300D02*
D03*
X87100Y973800D02*
D03*
X112100Y983300D02*
D03*
X220400Y997200D02*
D03*
X245400Y987700D02*
D03*
X220400Y978200D02*
D03*
Y1063900D02*
D03*
X245400Y1054400D02*
D03*
X220400Y1044900D02*
D03*
X112100Y1149300D02*
D03*
X87100Y1158800D02*
D03*
X112100Y1168300D02*
D03*
X220400Y1167100D02*
D03*
X245400Y1157600D02*
D03*
X220400Y1148100D02*
D03*
X112100Y1100100D02*
D03*
X87100Y1090600D02*
D03*
X112100Y1081100D02*
D03*
X318570Y1149160D02*
D03*
X293570Y1158660D02*
D03*
X318570Y1168160D02*
D03*
Y1081770D02*
D03*
X293570Y1091270D02*
D03*
X318570Y1100770D02*
D03*
X426510Y1117410D02*
D03*
X451510Y1126910D02*
D03*
X426510Y1136410D02*
D03*
Y1186330D02*
D03*
X451510Y1195830D02*
D03*
X426510Y1205330D02*
D03*
X318570Y991240D02*
D03*
X293570Y981740D02*
D03*
X318570Y972240D02*
D03*
X379390Y1023920D02*
D03*
X404390Y1014420D02*
D03*
X379390Y1004920D02*
D03*
X426510Y475330D02*
D03*
X451510Y465830D02*
D03*
X426510Y456330D02*
D03*
Y406410D02*
D03*
X451510Y396910D02*
D03*
X426510Y387410D02*
D03*
X318570Y438160D02*
D03*
X293570Y428660D02*
D03*
X318570Y419160D02*
D03*
Y370770D02*
D03*
X293570Y361270D02*
D03*
X318570Y351770D02*
D03*
X379390Y274920D02*
D03*
X404390Y284420D02*
D03*
X379390Y293920D02*
D03*
X318570Y242240D02*
D03*
X293570Y251740D02*
D03*
X318570Y261240D02*
D03*
X220400Y248200D02*
D03*
X245400Y257700D02*
D03*
X220400Y267200D02*
D03*
Y314900D02*
D03*
X245400Y324400D02*
D03*
X220400Y333900D02*
D03*
Y418100D02*
D03*
X245400Y427600D02*
D03*
X220400Y437100D02*
D03*
X112100Y438300D02*
D03*
X87100Y428800D02*
D03*
X112100Y419300D02*
D03*
Y351100D02*
D03*
X87100Y360600D02*
D03*
X112100Y370100D02*
D03*
Y253300D02*
D03*
X87100Y243800D02*
D03*
X112100Y234300D02*
D03*
M02*
