G04*
G04 #@! TF.GenerationSoftware,Altium Limited,Altium Designer,25.3.3 (18)*
G04*
G04 Layer_Color=16711935*
%FSLAX44Y44*%
%MOMM*%
G71*
G04*
G04 #@! TF.SameCoordinates,C1B4E693-D7F7-4543-9357-B74F73BC7D76*
G04*
G04*
G04 #@! TF.FilePolarity,Negative*
G04*
G01*
G75*
%ADD29R,0.9000X0.9500*%
G04:AMPARAMS|DCode=40|XSize=1.0032mm|YSize=1.0032mm|CornerRadius=0.2216mm|HoleSize=0mm|Usage=FLASHONLY|Rotation=270.000|XOffset=0mm|YOffset=0mm|HoleType=Round|Shape=RoundedRectangle|*
%AMROUNDEDRECTD40*
21,1,1.0032,0.5600,0,0,270.0*
21,1,0.5600,1.0032,0,0,270.0*
1,1,0.4432,-0.2800,-0.2800*
1,1,0.4432,-0.2800,0.2800*
1,1,0.4432,0.2800,0.2800*
1,1,0.4432,0.2800,-0.2800*
%
%ADD40ROUNDEDRECTD40*%
%ADD41R,0.8432X0.9032*%
%ADD42R,0.7032X0.9032*%
G04:AMPARAMS|DCode=43|XSize=1.1032mm|YSize=0.8032mm|CornerRadius=0.1916mm|HoleSize=0mm|Usage=FLASHONLY|Rotation=0.000|XOffset=0mm|YOffset=0mm|HoleType=Round|Shape=RoundedRectangle|*
%AMROUNDEDRECTD43*
21,1,1.1032,0.4200,0,0,0.0*
21,1,0.7200,0.8032,0,0,0.0*
1,1,0.3832,0.3600,-0.2100*
1,1,0.3832,-0.3600,-0.2100*
1,1,0.3832,-0.3600,0.2100*
1,1,0.3832,0.3600,0.2100*
%
%ADD43ROUNDEDRECTD43*%
G04:AMPARAMS|DCode=45|XSize=1.0032mm|YSize=1.0032mm|CornerRadius=0.2216mm|HoleSize=0mm|Usage=FLASHONLY|Rotation=180.000|XOffset=0mm|YOffset=0mm|HoleType=Round|Shape=RoundedRectangle|*
%AMROUNDEDRECTD45*
21,1,1.0032,0.5600,0,0,180.0*
21,1,0.5600,1.0032,0,0,180.0*
1,1,0.4432,-0.2800,0.2800*
1,1,0.4432,0.2800,0.2800*
1,1,0.4432,0.2800,-0.2800*
1,1,0.4432,-0.2800,-0.2800*
%
%ADD45ROUNDEDRECTD45*%
%ADD48R,1.1032X1.1532*%
G04:AMPARAMS|DCode=51|XSize=1.1032mm|YSize=0.8032mm|CornerRadius=0.1916mm|HoleSize=0mm|Usage=FLASHONLY|Rotation=90.000|XOffset=0mm|YOffset=0mm|HoleType=Round|Shape=RoundedRectangle|*
%AMROUNDEDRECTD51*
21,1,1.1032,0.4200,0,0,90.0*
21,1,0.7200,0.8032,0,0,90.0*
1,1,0.3832,0.2100,0.3600*
1,1,0.3832,0.2100,-0.3600*
1,1,0.3832,-0.2100,-0.3600*
1,1,0.3832,-0.2100,0.3600*
%
%ADD51ROUNDEDRECTD51*%
%ADD52R,0.9032X0.8432*%
%ADD53R,0.9032X0.7032*%
%ADD59C,4.1000*%
%ADD60C,2.2000*%
%ADD61C,1.8082*%
%ADD62R,1.8082X1.8082*%
%ADD63C,1.7232*%
%ADD64R,1.7232X1.7232*%
%ADD65C,0.8032*%
%ADD66C,1.0032*%
%ADD67C,0.7032*%
%ADD81R,0.9500X0.9000*%
%ADD82R,1.1532X1.1032*%
D29*
X693390Y3093930D02*
D03*
X870740Y3162420D02*
D03*
Y3411790D02*
D03*
Y3262168D02*
D03*
Y3361916D02*
D03*
Y3212294D02*
D03*
Y3312042D02*
D03*
X693390Y2363930D02*
D03*
X870740Y2432420D02*
D03*
Y2681790D02*
D03*
Y2532168D02*
D03*
Y2631916D02*
D03*
Y2482294D02*
D03*
Y2582042D02*
D03*
X693390Y1633930D02*
D03*
X870740Y1702420D02*
D03*
Y1951790D02*
D03*
Y1802168D02*
D03*
Y1901916D02*
D03*
Y1752294D02*
D03*
Y1852042D02*
D03*
X693390Y903930D02*
D03*
X870740Y972420D02*
D03*
Y1221790D02*
D03*
Y1072168D02*
D03*
Y1171916D02*
D03*
Y1022294D02*
D03*
Y1122042D02*
D03*
X870740Y242420D02*
D03*
Y292294D02*
D03*
Y342168D02*
D03*
Y392042D02*
D03*
Y441916D02*
D03*
Y491790D02*
D03*
X693390Y173930D02*
D03*
D40*
X97100Y3204200D02*
D03*
X112100D02*
D03*
X220100Y3137800D02*
D03*
X235100D02*
D03*
X220400Y3204400D02*
D03*
X235400D02*
D03*
X97100Y3388600D02*
D03*
X112100D02*
D03*
X220400Y3307880D02*
D03*
X235400D02*
D03*
X112100Y3320800D02*
D03*
X97100D02*
D03*
X303570Y3387840D02*
D03*
X318570D02*
D03*
X303570Y3320320D02*
D03*
X318570D02*
D03*
X426510Y3276800D02*
D03*
X441510D02*
D03*
X426510Y3346120D02*
D03*
X441510D02*
D03*
X318570Y3213650D02*
D03*
X303570D02*
D03*
X394390Y3163780D02*
D03*
X379390D02*
D03*
X1158360Y3407680D02*
D03*
X1173360D02*
D03*
X1435220Y3390010D02*
D03*
X1450220D02*
D03*
X1362290Y3405564D02*
D03*
X1377290D02*
D03*
Y3389052D02*
D03*
X1362290D02*
D03*
X1051680Y3466100D02*
D03*
X1066680D02*
D03*
X694300Y3255200D02*
D03*
X679300D02*
D03*
X97100Y2474200D02*
D03*
X112100D02*
D03*
X220100Y2407800D02*
D03*
X235100D02*
D03*
X220400Y2474400D02*
D03*
X235400D02*
D03*
X97100Y2658600D02*
D03*
X112100D02*
D03*
X220400Y2577880D02*
D03*
X235400D02*
D03*
X112100Y2590800D02*
D03*
X97100D02*
D03*
X303570Y2657840D02*
D03*
X318570D02*
D03*
X303570Y2590320D02*
D03*
X318570D02*
D03*
X426510Y2546800D02*
D03*
X441510D02*
D03*
X426510Y2616120D02*
D03*
X441510D02*
D03*
X318570Y2483650D02*
D03*
X303570D02*
D03*
X394390Y2433780D02*
D03*
X379390D02*
D03*
X1158360Y2677680D02*
D03*
X1173360D02*
D03*
X1435220Y2660010D02*
D03*
X1450220D02*
D03*
X1362290Y2675564D02*
D03*
X1377290D02*
D03*
Y2659052D02*
D03*
X1362290D02*
D03*
X1051680Y2736100D02*
D03*
X1066680D02*
D03*
X694300Y2525200D02*
D03*
X679300D02*
D03*
X97100Y1744200D02*
D03*
X112100D02*
D03*
X220100Y1677800D02*
D03*
X235100D02*
D03*
X220400Y1744400D02*
D03*
X235400D02*
D03*
X97100Y1928600D02*
D03*
X112100D02*
D03*
X220400Y1847880D02*
D03*
X235400D02*
D03*
X112100Y1860800D02*
D03*
X97100D02*
D03*
X303570Y1927840D02*
D03*
X318570D02*
D03*
X303570Y1860320D02*
D03*
X318570D02*
D03*
X426510Y1816800D02*
D03*
X441510D02*
D03*
X426510Y1886120D02*
D03*
X441510D02*
D03*
X318570Y1753650D02*
D03*
X303570D02*
D03*
X394390Y1703780D02*
D03*
X379390D02*
D03*
X1158360Y1947680D02*
D03*
X1173360D02*
D03*
X1435220Y1930010D02*
D03*
X1450220D02*
D03*
X1362290Y1945564D02*
D03*
X1377290D02*
D03*
Y1929052D02*
D03*
X1362290D02*
D03*
X1051680Y2006100D02*
D03*
X1066680D02*
D03*
X694300Y1795200D02*
D03*
X679300D02*
D03*
X97100Y1014200D02*
D03*
X112100D02*
D03*
X220100Y947800D02*
D03*
X235100D02*
D03*
X220400Y1014400D02*
D03*
X235400D02*
D03*
X97100Y1198600D02*
D03*
X112100D02*
D03*
X220400Y1117880D02*
D03*
X235400D02*
D03*
X112100Y1130800D02*
D03*
X97100D02*
D03*
X303570Y1197840D02*
D03*
X318570D02*
D03*
X303570Y1130320D02*
D03*
X318570D02*
D03*
X426510Y1086800D02*
D03*
X441510D02*
D03*
X426510Y1156120D02*
D03*
X441510D02*
D03*
X318570Y1023650D02*
D03*
X303570D02*
D03*
X394390Y973780D02*
D03*
X379390D02*
D03*
X1158360Y1217680D02*
D03*
X1173360D02*
D03*
X1435220Y1200010D02*
D03*
X1450220D02*
D03*
X1362290Y1215564D02*
D03*
X1377290D02*
D03*
Y1199052D02*
D03*
X1362290D02*
D03*
X1051680Y1276100D02*
D03*
X1066680D02*
D03*
X694300Y1065200D02*
D03*
X679300D02*
D03*
X1377290Y485564D02*
D03*
X1362290D02*
D03*
Y469052D02*
D03*
X1377290D02*
D03*
X1450220Y470010D02*
D03*
X1435220D02*
D03*
X1173360Y487680D02*
D03*
X1158360D02*
D03*
X1066680Y546100D02*
D03*
X1051680D02*
D03*
X679300Y335200D02*
D03*
X694300D02*
D03*
X441510Y426120D02*
D03*
X426510D02*
D03*
X441510Y356800D02*
D03*
X426510D02*
D03*
X318570Y467840D02*
D03*
X303570D02*
D03*
X318570Y400320D02*
D03*
X303570D02*
D03*
X379390Y243780D02*
D03*
X394390D02*
D03*
X303570Y293650D02*
D03*
X318570D02*
D03*
X235100Y217800D02*
D03*
X220100D02*
D03*
X235400Y284400D02*
D03*
X220400D02*
D03*
X235400Y387880D02*
D03*
X220400D02*
D03*
X112100Y468600D02*
D03*
X97100D02*
D03*
Y400800D02*
D03*
X112100D02*
D03*
Y284200D02*
D03*
X97100D02*
D03*
D41*
X511700Y3414400D02*
D03*
X486300D02*
D03*
Y3428400D02*
D03*
X511700D02*
D03*
X485900Y3328600D02*
D03*
X511300D02*
D03*
Y3342600D02*
D03*
X485900D02*
D03*
X569440Y3247100D02*
D03*
X594840D02*
D03*
Y3261100D02*
D03*
X569440D02*
D03*
X511700Y2684400D02*
D03*
X486300D02*
D03*
Y2698400D02*
D03*
X511700D02*
D03*
X485900Y2598600D02*
D03*
X511300D02*
D03*
Y2612600D02*
D03*
X485900D02*
D03*
X569440Y2517100D02*
D03*
X594840D02*
D03*
Y2531100D02*
D03*
X569440D02*
D03*
X511700Y1954400D02*
D03*
X486300D02*
D03*
Y1968400D02*
D03*
X511700D02*
D03*
X485900Y1868600D02*
D03*
X511300D02*
D03*
Y1882600D02*
D03*
X485900D02*
D03*
X569440Y1787100D02*
D03*
X594840D02*
D03*
Y1801100D02*
D03*
X569440D02*
D03*
X511700Y1224400D02*
D03*
X486300D02*
D03*
Y1238400D02*
D03*
X511700D02*
D03*
X485900Y1138600D02*
D03*
X511300D02*
D03*
Y1152600D02*
D03*
X485900D02*
D03*
X569440Y1057100D02*
D03*
X594840D02*
D03*
Y1071100D02*
D03*
X569440D02*
D03*
X485900Y422600D02*
D03*
X511300D02*
D03*
Y408600D02*
D03*
X485900D02*
D03*
X569440Y341100D02*
D03*
X594840D02*
D03*
Y327100D02*
D03*
X569440D02*
D03*
X511700Y508400D02*
D03*
X486300D02*
D03*
Y494400D02*
D03*
X511700D02*
D03*
D42*
X503000Y3414400D02*
D03*
X495000D02*
D03*
Y3428400D02*
D03*
X503000D02*
D03*
X494600Y3328600D02*
D03*
X502600D02*
D03*
Y3342600D02*
D03*
X494600D02*
D03*
X578140Y3247100D02*
D03*
X586140D02*
D03*
Y3261100D02*
D03*
X578140D02*
D03*
X503000Y2684400D02*
D03*
X495000D02*
D03*
Y2698400D02*
D03*
X503000D02*
D03*
X494600Y2598600D02*
D03*
X502600D02*
D03*
Y2612600D02*
D03*
X494600D02*
D03*
X578140Y2517100D02*
D03*
X586140D02*
D03*
Y2531100D02*
D03*
X578140D02*
D03*
X503000Y1954400D02*
D03*
X495000D02*
D03*
Y1968400D02*
D03*
X503000D02*
D03*
X494600Y1868600D02*
D03*
X502600D02*
D03*
Y1882600D02*
D03*
X494600D02*
D03*
X578140Y1787100D02*
D03*
X586140D02*
D03*
Y1801100D02*
D03*
X578140D02*
D03*
X503000Y1224400D02*
D03*
X495000D02*
D03*
Y1238400D02*
D03*
X503000D02*
D03*
X494600Y1138600D02*
D03*
X502600D02*
D03*
Y1152600D02*
D03*
X494600D02*
D03*
X578140Y1057100D02*
D03*
X586140D02*
D03*
Y1071100D02*
D03*
X578140D02*
D03*
X494600Y422600D02*
D03*
X502600D02*
D03*
Y408600D02*
D03*
X494600D02*
D03*
X578140Y341100D02*
D03*
X586140D02*
D03*
Y327100D02*
D03*
X578140D02*
D03*
X503000Y508400D02*
D03*
X495000D02*
D03*
Y494400D02*
D03*
X503000D02*
D03*
D43*
X770680Y3068930D02*
D03*
Y3083930D02*
D03*
X754170Y3068930D02*
D03*
Y3083930D02*
D03*
X806240Y3068930D02*
D03*
Y3083930D02*
D03*
X788460Y3068930D02*
D03*
Y3083930D02*
D03*
X707800Y3068930D02*
D03*
Y3083930D02*
D03*
X724000D02*
D03*
Y3068930D02*
D03*
X640800Y3083930D02*
D03*
Y3068930D02*
D03*
X659000D02*
D03*
Y3083930D02*
D03*
X1408800Y3197100D02*
D03*
Y3182100D02*
D03*
X1211580Y3455710D02*
D03*
Y3440710D02*
D03*
X907880Y3237294D02*
D03*
Y3222294D02*
D03*
X1193800Y3455710D02*
D03*
Y3440710D02*
D03*
X1392633Y3197100D02*
D03*
Y3182100D02*
D03*
X1176020Y3455710D02*
D03*
Y3440710D02*
D03*
X1376467Y3197100D02*
D03*
Y3182100D02*
D03*
X1478280Y3455710D02*
D03*
Y3440710D02*
D03*
X1461770Y3455710D02*
D03*
Y3440710D02*
D03*
X907880Y3421790D02*
D03*
Y3436790D02*
D03*
X1217930Y3404900D02*
D03*
Y3389900D02*
D03*
X1445260Y3440710D02*
D03*
Y3455710D02*
D03*
X1490980Y3375010D02*
D03*
Y3390010D02*
D03*
X907880Y3272168D02*
D03*
Y3287168D02*
D03*
X1103770Y3186030D02*
D03*
Y3201030D02*
D03*
X1087260Y3186030D02*
D03*
Y3201030D02*
D03*
X1347800Y3440300D02*
D03*
Y3455300D02*
D03*
X907880Y3386916D02*
D03*
Y3371916D02*
D03*
X1069480Y3186030D02*
D03*
Y3201030D02*
D03*
X907880Y3337042D02*
D03*
Y3322042D02*
D03*
X1108710Y3482490D02*
D03*
Y3467490D02*
D03*
X1052080Y3432670D02*
D03*
Y3417670D02*
D03*
X907880Y3172420D02*
D03*
Y3187420D02*
D03*
X770680Y2338930D02*
D03*
Y2353930D02*
D03*
X754170Y2338930D02*
D03*
Y2353930D02*
D03*
X806240Y2338930D02*
D03*
Y2353930D02*
D03*
X788460Y2338930D02*
D03*
Y2353930D02*
D03*
X707800Y2338930D02*
D03*
Y2353930D02*
D03*
X724000D02*
D03*
Y2338930D02*
D03*
X640800Y2353930D02*
D03*
Y2338930D02*
D03*
X659000D02*
D03*
Y2353930D02*
D03*
X1408800Y2467100D02*
D03*
Y2452100D02*
D03*
X1211580Y2725710D02*
D03*
Y2710710D02*
D03*
X907880Y2507294D02*
D03*
Y2492294D02*
D03*
X1193800Y2725710D02*
D03*
Y2710710D02*
D03*
X1392633Y2467100D02*
D03*
Y2452100D02*
D03*
X1176020Y2725710D02*
D03*
Y2710710D02*
D03*
X1376467Y2467100D02*
D03*
Y2452100D02*
D03*
X1478280Y2725710D02*
D03*
Y2710710D02*
D03*
X1461770Y2725710D02*
D03*
Y2710710D02*
D03*
X907880Y2691790D02*
D03*
Y2706790D02*
D03*
X1217930Y2674900D02*
D03*
Y2659900D02*
D03*
X1445260Y2710710D02*
D03*
Y2725710D02*
D03*
X1490980Y2645010D02*
D03*
Y2660010D02*
D03*
X907880Y2542168D02*
D03*
Y2557168D02*
D03*
X1103770Y2456030D02*
D03*
Y2471030D02*
D03*
X1087260Y2456030D02*
D03*
Y2471030D02*
D03*
X1347800Y2710300D02*
D03*
Y2725300D02*
D03*
X907880Y2656916D02*
D03*
Y2641916D02*
D03*
X1069480Y2456030D02*
D03*
Y2471030D02*
D03*
X907880Y2607042D02*
D03*
Y2592042D02*
D03*
X1108710Y2752490D02*
D03*
Y2737490D02*
D03*
X1052080Y2702670D02*
D03*
Y2687670D02*
D03*
X907880Y2442420D02*
D03*
Y2457420D02*
D03*
X770680Y1608930D02*
D03*
Y1623930D02*
D03*
X754170Y1608930D02*
D03*
Y1623930D02*
D03*
X806240Y1608930D02*
D03*
Y1623930D02*
D03*
X788460Y1608930D02*
D03*
Y1623930D02*
D03*
X707800Y1608930D02*
D03*
Y1623930D02*
D03*
X724000D02*
D03*
Y1608930D02*
D03*
X640800Y1623930D02*
D03*
Y1608930D02*
D03*
X659000D02*
D03*
Y1623930D02*
D03*
X1408800Y1737100D02*
D03*
Y1722100D02*
D03*
X1211580Y1995710D02*
D03*
Y1980710D02*
D03*
X907880Y1777294D02*
D03*
Y1762294D02*
D03*
X1193800Y1995710D02*
D03*
Y1980710D02*
D03*
X1392633Y1737100D02*
D03*
Y1722100D02*
D03*
X1176020Y1995710D02*
D03*
Y1980710D02*
D03*
X1376467Y1737100D02*
D03*
Y1722100D02*
D03*
X1478280Y1995710D02*
D03*
Y1980710D02*
D03*
X1461770Y1995710D02*
D03*
Y1980710D02*
D03*
X907880Y1961790D02*
D03*
Y1976790D02*
D03*
X1217930Y1944900D02*
D03*
Y1929900D02*
D03*
X1445260Y1980710D02*
D03*
Y1995710D02*
D03*
X1490980Y1915010D02*
D03*
Y1930010D02*
D03*
X907880Y1812168D02*
D03*
Y1827168D02*
D03*
X1103770Y1726030D02*
D03*
Y1741030D02*
D03*
X1087260Y1726030D02*
D03*
Y1741030D02*
D03*
X1347800Y1980300D02*
D03*
Y1995300D02*
D03*
X907880Y1926916D02*
D03*
Y1911916D02*
D03*
X1069480Y1726030D02*
D03*
Y1741030D02*
D03*
X907880Y1877042D02*
D03*
Y1862042D02*
D03*
X1108710Y2022490D02*
D03*
Y2007490D02*
D03*
X1052080Y1972670D02*
D03*
Y1957670D02*
D03*
X907880Y1712420D02*
D03*
Y1727420D02*
D03*
X770680Y878930D02*
D03*
Y893930D02*
D03*
X754170Y878930D02*
D03*
Y893930D02*
D03*
X806240Y878930D02*
D03*
Y893930D02*
D03*
X788460Y878930D02*
D03*
Y893930D02*
D03*
X707800Y878930D02*
D03*
Y893930D02*
D03*
X724000D02*
D03*
Y878930D02*
D03*
X640800Y893930D02*
D03*
Y878930D02*
D03*
X659000D02*
D03*
Y893930D02*
D03*
X1408800Y1007100D02*
D03*
Y992100D02*
D03*
X1211580Y1265710D02*
D03*
Y1250710D02*
D03*
X907880Y1047294D02*
D03*
Y1032294D02*
D03*
X1193800Y1265710D02*
D03*
Y1250710D02*
D03*
X1392633Y1007100D02*
D03*
Y992100D02*
D03*
X1176020Y1265710D02*
D03*
Y1250710D02*
D03*
X1376467Y1007100D02*
D03*
Y992100D02*
D03*
X1478280Y1265710D02*
D03*
Y1250710D02*
D03*
X1461770Y1265710D02*
D03*
Y1250710D02*
D03*
X907880Y1231790D02*
D03*
Y1246790D02*
D03*
X1217930Y1214900D02*
D03*
Y1199900D02*
D03*
X1445260Y1250710D02*
D03*
Y1265710D02*
D03*
X1490980Y1185010D02*
D03*
Y1200010D02*
D03*
X907880Y1082168D02*
D03*
Y1097168D02*
D03*
X1103770Y996030D02*
D03*
Y1011030D02*
D03*
X1087260Y996030D02*
D03*
Y1011030D02*
D03*
X1347800Y1250300D02*
D03*
Y1265300D02*
D03*
X907880Y1196916D02*
D03*
Y1181916D02*
D03*
X1069480Y996030D02*
D03*
Y1011030D02*
D03*
X907880Y1147042D02*
D03*
Y1132042D02*
D03*
X1108710Y1292490D02*
D03*
Y1277490D02*
D03*
X1052080Y1242670D02*
D03*
Y1227670D02*
D03*
X907880Y982420D02*
D03*
Y997420D02*
D03*
X1347800Y535300D02*
D03*
Y520300D02*
D03*
X1445260Y535710D02*
D03*
Y520710D02*
D03*
X1461770D02*
D03*
Y535710D02*
D03*
X1478280Y520710D02*
D03*
Y535710D02*
D03*
X1490980Y470010D02*
D03*
Y455010D02*
D03*
X1376467Y262100D02*
D03*
Y277100D02*
D03*
X1392633Y262100D02*
D03*
Y277100D02*
D03*
X1408800Y262100D02*
D03*
Y277100D02*
D03*
X1217930Y469900D02*
D03*
Y484900D02*
D03*
X1176020Y520710D02*
D03*
Y535710D02*
D03*
X1193800Y520710D02*
D03*
Y535710D02*
D03*
X1211580Y520710D02*
D03*
Y535710D02*
D03*
X1108710Y547490D02*
D03*
Y562490D02*
D03*
X1052080Y497670D02*
D03*
Y512670D02*
D03*
X1069480Y281030D02*
D03*
Y266030D02*
D03*
X1087260Y281030D02*
D03*
Y266030D02*
D03*
X1103770Y281030D02*
D03*
Y266030D02*
D03*
X907880Y267420D02*
D03*
Y252420D02*
D03*
Y302294D02*
D03*
Y317294D02*
D03*
Y367168D02*
D03*
Y352168D02*
D03*
Y402042D02*
D03*
Y417042D02*
D03*
Y451916D02*
D03*
Y466916D02*
D03*
Y516790D02*
D03*
Y501790D02*
D03*
X707800Y163930D02*
D03*
Y148930D02*
D03*
X724000D02*
D03*
Y163930D02*
D03*
X754170D02*
D03*
Y148930D02*
D03*
X770680Y163930D02*
D03*
Y148930D02*
D03*
X788460Y163930D02*
D03*
Y148930D02*
D03*
X806240Y163930D02*
D03*
Y148930D02*
D03*
X659000Y163930D02*
D03*
Y148930D02*
D03*
X640800D02*
D03*
Y163930D02*
D03*
D45*
X688800Y3494300D02*
D03*
Y3509300D02*
D03*
X655200D02*
D03*
Y3494300D02*
D03*
X637333Y3509300D02*
D03*
Y3494300D02*
D03*
X547400Y3312300D02*
D03*
Y3327300D02*
D03*
X740200Y3083930D02*
D03*
Y3068930D02*
D03*
X850300Y3222294D02*
D03*
Y3237294D02*
D03*
X850300Y3187420D02*
D03*
Y3172420D02*
D03*
X1158240Y3455710D02*
D03*
Y3440710D02*
D03*
X1359800Y3197100D02*
D03*
Y3182100D02*
D03*
X1430020Y3440710D02*
D03*
Y3455710D02*
D03*
X850300Y3421790D02*
D03*
Y3436790D02*
D03*
Y3272168D02*
D03*
Y3287168D02*
D03*
X1051700Y3201030D02*
D03*
Y3186030D02*
D03*
X850300Y3371916D02*
D03*
Y3386916D02*
D03*
X850300Y3337042D02*
D03*
Y3322042D02*
D03*
X1068800Y3417600D02*
D03*
Y3432600D02*
D03*
X531600Y3312500D02*
D03*
Y3327500D02*
D03*
X619800Y3494300D02*
D03*
Y3509300D02*
D03*
X688800Y2764300D02*
D03*
Y2779300D02*
D03*
X655200D02*
D03*
Y2764300D02*
D03*
X637333Y2779300D02*
D03*
Y2764300D02*
D03*
X547400Y2582300D02*
D03*
Y2597300D02*
D03*
X740200Y2353930D02*
D03*
Y2338930D02*
D03*
X850300Y2492294D02*
D03*
Y2507294D02*
D03*
X850300Y2457420D02*
D03*
Y2442420D02*
D03*
X1158240Y2725710D02*
D03*
Y2710710D02*
D03*
X1359800Y2467100D02*
D03*
Y2452100D02*
D03*
X1430020Y2710710D02*
D03*
Y2725710D02*
D03*
X850300Y2691790D02*
D03*
Y2706790D02*
D03*
Y2542168D02*
D03*
Y2557168D02*
D03*
X1051700Y2471030D02*
D03*
Y2456030D02*
D03*
X850300Y2641916D02*
D03*
Y2656916D02*
D03*
X850300Y2607042D02*
D03*
Y2592042D02*
D03*
X1068800Y2687600D02*
D03*
Y2702600D02*
D03*
X531600Y2582500D02*
D03*
Y2597500D02*
D03*
X619800Y2764300D02*
D03*
Y2779300D02*
D03*
X688800Y2034300D02*
D03*
Y2049300D02*
D03*
X655200D02*
D03*
Y2034300D02*
D03*
X637333Y2049300D02*
D03*
Y2034300D02*
D03*
X547400Y1852300D02*
D03*
Y1867300D02*
D03*
X740200Y1623930D02*
D03*
Y1608930D02*
D03*
X850300Y1762294D02*
D03*
Y1777294D02*
D03*
X850300Y1727420D02*
D03*
Y1712420D02*
D03*
X1158240Y1995710D02*
D03*
Y1980710D02*
D03*
X1359800Y1737100D02*
D03*
Y1722100D02*
D03*
X1430020Y1980710D02*
D03*
Y1995710D02*
D03*
X850300Y1961790D02*
D03*
Y1976790D02*
D03*
Y1812168D02*
D03*
Y1827168D02*
D03*
X1051700Y1741030D02*
D03*
Y1726030D02*
D03*
X850300Y1911916D02*
D03*
Y1926916D02*
D03*
X850300Y1877042D02*
D03*
Y1862042D02*
D03*
X1068800Y1957600D02*
D03*
Y1972600D02*
D03*
X531600Y1852500D02*
D03*
Y1867500D02*
D03*
X619800Y2034300D02*
D03*
Y2049300D02*
D03*
X688800Y1304300D02*
D03*
Y1319300D02*
D03*
X655200D02*
D03*
Y1304300D02*
D03*
X637333Y1319300D02*
D03*
Y1304300D02*
D03*
X547400Y1122300D02*
D03*
Y1137300D02*
D03*
X740200Y893930D02*
D03*
Y878930D02*
D03*
X850300Y1032294D02*
D03*
Y1047294D02*
D03*
X850300Y997420D02*
D03*
Y982420D02*
D03*
X1158240Y1265710D02*
D03*
Y1250710D02*
D03*
X1359800Y1007100D02*
D03*
Y992100D02*
D03*
X1430020Y1250710D02*
D03*
Y1265710D02*
D03*
X850300Y1231790D02*
D03*
Y1246790D02*
D03*
Y1082168D02*
D03*
Y1097168D02*
D03*
X1051700Y1011030D02*
D03*
Y996030D02*
D03*
X850300Y1181916D02*
D03*
Y1196916D02*
D03*
X850300Y1147042D02*
D03*
Y1132042D02*
D03*
X1068800Y1227600D02*
D03*
Y1242600D02*
D03*
X531600Y1122500D02*
D03*
Y1137500D02*
D03*
X619800Y1304300D02*
D03*
Y1319300D02*
D03*
X1430020Y535710D02*
D03*
Y520710D02*
D03*
X1359800Y262100D02*
D03*
Y277100D02*
D03*
X1158240Y520710D02*
D03*
Y535710D02*
D03*
X1068800Y512600D02*
D03*
Y497600D02*
D03*
X1051700Y266030D02*
D03*
Y281030D02*
D03*
X850300Y252420D02*
D03*
Y267420D02*
D03*
X850300Y317294D02*
D03*
Y302294D02*
D03*
X850300Y367168D02*
D03*
Y352168D02*
D03*
Y402042D02*
D03*
Y417042D02*
D03*
X850300Y466916D02*
D03*
Y451916D02*
D03*
X850300Y516790D02*
D03*
Y501790D02*
D03*
X637333Y574300D02*
D03*
Y589300D02*
D03*
X619800D02*
D03*
Y574300D02*
D03*
X655200D02*
D03*
Y589300D02*
D03*
X688800D02*
D03*
Y574300D02*
D03*
X740200Y148930D02*
D03*
Y163930D02*
D03*
X531600Y407500D02*
D03*
Y392500D02*
D03*
X547400Y407300D02*
D03*
Y392300D02*
D03*
D48*
X674390Y3093930D02*
D03*
X683890Y3068930D02*
D03*
X889740Y3162420D02*
D03*
X880240Y3187420D02*
D03*
Y3436790D02*
D03*
X889740Y3411790D02*
D03*
Y3262168D02*
D03*
X880240Y3287168D02*
D03*
X889740Y3361916D02*
D03*
X880240Y3386916D02*
D03*
Y3237294D02*
D03*
X889740Y3212294D02*
D03*
X880240Y3337042D02*
D03*
X889740Y3312042D02*
D03*
X674390Y2363930D02*
D03*
X683890Y2338930D02*
D03*
X889740Y2432420D02*
D03*
X880240Y2457420D02*
D03*
Y2706790D02*
D03*
X889740Y2681790D02*
D03*
Y2532168D02*
D03*
X880240Y2557168D02*
D03*
X889740Y2631916D02*
D03*
X880240Y2656916D02*
D03*
Y2507294D02*
D03*
X889740Y2482294D02*
D03*
X880240Y2607042D02*
D03*
X889740Y2582042D02*
D03*
X674390Y1633930D02*
D03*
X683890Y1608930D02*
D03*
X889740Y1702420D02*
D03*
X880240Y1727420D02*
D03*
Y1976790D02*
D03*
X889740Y1951790D02*
D03*
Y1802168D02*
D03*
X880240Y1827168D02*
D03*
X889740Y1901916D02*
D03*
X880240Y1926916D02*
D03*
Y1777294D02*
D03*
X889740Y1752294D02*
D03*
X880240Y1877042D02*
D03*
X889740Y1852042D02*
D03*
X674390Y903930D02*
D03*
X683890Y878930D02*
D03*
X889740Y972420D02*
D03*
X880240Y997420D02*
D03*
Y1246790D02*
D03*
X889740Y1221790D02*
D03*
Y1072168D02*
D03*
X880240Y1097168D02*
D03*
X889740Y1171916D02*
D03*
X880240Y1196916D02*
D03*
Y1047294D02*
D03*
X889740Y1022294D02*
D03*
X880240Y1147042D02*
D03*
X889740Y1122042D02*
D03*
X880240Y267420D02*
D03*
X889740Y242420D02*
D03*
Y292294D02*
D03*
X880240Y317294D02*
D03*
Y367168D02*
D03*
X889740Y342168D02*
D03*
Y392042D02*
D03*
X880240Y417042D02*
D03*
Y466916D02*
D03*
X889740Y441916D02*
D03*
Y491790D02*
D03*
X880240Y516790D02*
D03*
X683890Y148930D02*
D03*
X674390Y173930D02*
D03*
D51*
X112100Y3188200D02*
D03*
X97100D02*
D03*
X235100Y3153800D02*
D03*
X220100D02*
D03*
X235400Y3220400D02*
D03*
X220400D02*
D03*
X112100Y3372600D02*
D03*
X97100D02*
D03*
X235400Y3323800D02*
D03*
X220400D02*
D03*
X97100Y3304800D02*
D03*
X112100D02*
D03*
X318570Y3372130D02*
D03*
X303570D02*
D03*
X318570Y3304810D02*
D03*
X303570D02*
D03*
X441510Y3292910D02*
D03*
X426510D02*
D03*
X441510Y3362230D02*
D03*
X426510D02*
D03*
X303570Y3197140D02*
D03*
X318570D02*
D03*
X379390Y3179020D02*
D03*
X394390D02*
D03*
X1202570Y3407680D02*
D03*
X1187570D02*
D03*
Y3389900D02*
D03*
X1202570D02*
D03*
X1173360Y3389900D02*
D03*
X1158360D02*
D03*
X1477010Y3390010D02*
D03*
X1462010D02*
D03*
X1476890Y3374210D02*
D03*
X1461890D02*
D03*
X1435220D02*
D03*
X1450220D02*
D03*
X1361900Y3455600D02*
D03*
X1376900D02*
D03*
X1362290Y3439088D02*
D03*
X1377290D02*
D03*
X1362290Y3422576D02*
D03*
X1377290D02*
D03*
Y3373040D02*
D03*
X1362290D02*
D03*
X1094620Y3466100D02*
D03*
X1079620D02*
D03*
X1093350Y3482610D02*
D03*
X1078350D02*
D03*
X1067080Y3402310D02*
D03*
X1052080D02*
D03*
X1051680Y3482610D02*
D03*
X1066680D02*
D03*
X112100Y2458200D02*
D03*
X97100D02*
D03*
X235100Y2423800D02*
D03*
X220100D02*
D03*
X235400Y2490400D02*
D03*
X220400D02*
D03*
X112100Y2642600D02*
D03*
X97100D02*
D03*
X235400Y2593800D02*
D03*
X220400D02*
D03*
X97100Y2574800D02*
D03*
X112100D02*
D03*
X318570Y2642130D02*
D03*
X303570D02*
D03*
X318570Y2574810D02*
D03*
X303570D02*
D03*
X441510Y2562910D02*
D03*
X426510D02*
D03*
X441510Y2632230D02*
D03*
X426510D02*
D03*
X303570Y2467140D02*
D03*
X318570D02*
D03*
X379390Y2449020D02*
D03*
X394390D02*
D03*
X1202570Y2677680D02*
D03*
X1187570D02*
D03*
Y2659900D02*
D03*
X1202570D02*
D03*
X1173360Y2659900D02*
D03*
X1158360D02*
D03*
X1477010Y2660010D02*
D03*
X1462010D02*
D03*
X1476890Y2644210D02*
D03*
X1461890D02*
D03*
X1435220D02*
D03*
X1450220D02*
D03*
X1361900Y2725600D02*
D03*
X1376900D02*
D03*
X1362290Y2709088D02*
D03*
X1377290D02*
D03*
X1362290Y2692576D02*
D03*
X1377290D02*
D03*
Y2643040D02*
D03*
X1362290D02*
D03*
X1094620Y2736100D02*
D03*
X1079620D02*
D03*
X1093350Y2752610D02*
D03*
X1078350D02*
D03*
X1067080Y2672310D02*
D03*
X1052080D02*
D03*
X1051680Y2752610D02*
D03*
X1066680D02*
D03*
X112100Y1728200D02*
D03*
X97100D02*
D03*
X235100Y1693800D02*
D03*
X220100D02*
D03*
X235400Y1760400D02*
D03*
X220400D02*
D03*
X112100Y1912600D02*
D03*
X97100D02*
D03*
X235400Y1863800D02*
D03*
X220400D02*
D03*
X97100Y1844800D02*
D03*
X112100D02*
D03*
X318570Y1912130D02*
D03*
X303570D02*
D03*
X318570Y1844810D02*
D03*
X303570D02*
D03*
X441510Y1832910D02*
D03*
X426510D02*
D03*
X441510Y1902230D02*
D03*
X426510D02*
D03*
X303570Y1737140D02*
D03*
X318570D02*
D03*
X379390Y1719020D02*
D03*
X394390D02*
D03*
X1202570Y1947680D02*
D03*
X1187570D02*
D03*
Y1929900D02*
D03*
X1202570D02*
D03*
X1173360Y1929900D02*
D03*
X1158360D02*
D03*
X1477010Y1930010D02*
D03*
X1462010D02*
D03*
X1476890Y1914210D02*
D03*
X1461890D02*
D03*
X1435220D02*
D03*
X1450220D02*
D03*
X1361900Y1995600D02*
D03*
X1376900D02*
D03*
X1362290Y1979088D02*
D03*
X1377290D02*
D03*
X1362290Y1962576D02*
D03*
X1377290D02*
D03*
Y1913040D02*
D03*
X1362290D02*
D03*
X1094620Y2006100D02*
D03*
X1079620D02*
D03*
X1093350Y2022610D02*
D03*
X1078350D02*
D03*
X1067080Y1942310D02*
D03*
X1052080D02*
D03*
X1051680Y2022610D02*
D03*
X1066680D02*
D03*
X112100Y998200D02*
D03*
X97100D02*
D03*
X235100Y963800D02*
D03*
X220100D02*
D03*
X235400Y1030400D02*
D03*
X220400D02*
D03*
X112100Y1182600D02*
D03*
X97100D02*
D03*
X235400Y1133800D02*
D03*
X220400D02*
D03*
X97100Y1114800D02*
D03*
X112100D02*
D03*
X318570Y1182130D02*
D03*
X303570D02*
D03*
X318570Y1114810D02*
D03*
X303570D02*
D03*
X441510Y1102910D02*
D03*
X426510D02*
D03*
X441510Y1172230D02*
D03*
X426510D02*
D03*
X303570Y1007140D02*
D03*
X318570D02*
D03*
X379390Y989020D02*
D03*
X394390D02*
D03*
X1202570Y1217680D02*
D03*
X1187570D02*
D03*
Y1199900D02*
D03*
X1202570D02*
D03*
X1173360Y1199900D02*
D03*
X1158360D02*
D03*
X1477010Y1200010D02*
D03*
X1462010D02*
D03*
X1476890Y1184210D02*
D03*
X1461890D02*
D03*
X1435220D02*
D03*
X1450220D02*
D03*
X1361900Y1265600D02*
D03*
X1376900D02*
D03*
X1362290Y1249088D02*
D03*
X1377290D02*
D03*
X1362290Y1232576D02*
D03*
X1377290D02*
D03*
Y1183040D02*
D03*
X1362290D02*
D03*
X1094620Y1276100D02*
D03*
X1079620D02*
D03*
X1093350Y1292610D02*
D03*
X1078350D02*
D03*
X1067080Y1212310D02*
D03*
X1052080D02*
D03*
X1051680Y1292610D02*
D03*
X1066680D02*
D03*
X1376900Y535600D02*
D03*
X1361900D02*
D03*
X1377290Y519088D02*
D03*
X1362290D02*
D03*
X1377290Y502576D02*
D03*
X1362290D02*
D03*
Y453040D02*
D03*
X1377290D02*
D03*
X1461890Y454210D02*
D03*
X1476890D02*
D03*
X1462010Y470010D02*
D03*
X1477010D02*
D03*
X1450220Y454210D02*
D03*
X1435220D02*
D03*
X1202570Y469900D02*
D03*
X1187570D02*
D03*
Y487680D02*
D03*
X1202570D02*
D03*
X1158360Y469900D02*
D03*
X1173360D02*
D03*
X1079620Y546100D02*
D03*
X1094620D02*
D03*
X1078350Y562610D02*
D03*
X1093350D02*
D03*
X1066680Y562610D02*
D03*
X1051680D02*
D03*
X1052080Y482310D02*
D03*
X1067080D02*
D03*
X426510Y442230D02*
D03*
X441510D02*
D03*
X426510Y372910D02*
D03*
X441510D02*
D03*
X303570Y452130D02*
D03*
X318570D02*
D03*
X303570Y384810D02*
D03*
X318570D02*
D03*
X394390Y259020D02*
D03*
X379390D02*
D03*
X318570Y277140D02*
D03*
X303570D02*
D03*
X220100Y233800D02*
D03*
X235100D02*
D03*
X220400Y300400D02*
D03*
X235400D02*
D03*
X220400Y403800D02*
D03*
X235400D02*
D03*
X97100Y452600D02*
D03*
X112100D02*
D03*
Y384800D02*
D03*
X97100D02*
D03*
Y268200D02*
D03*
X112100D02*
D03*
D52*
X790466Y3338900D02*
D03*
Y3313500D02*
D03*
X804466D02*
D03*
Y3338900D02*
D03*
X492000Y3247100D02*
D03*
Y3272500D02*
D03*
X506000D02*
D03*
Y3247100D02*
D03*
X806200Y3236700D02*
D03*
Y3211300D02*
D03*
X792200D02*
D03*
Y3236700D02*
D03*
X790466Y2608900D02*
D03*
Y2583500D02*
D03*
X804466D02*
D03*
Y2608900D02*
D03*
X492000Y2517100D02*
D03*
Y2542500D02*
D03*
X506000D02*
D03*
Y2517100D02*
D03*
X806200Y2506700D02*
D03*
Y2481300D02*
D03*
X792200D02*
D03*
Y2506700D02*
D03*
X790466Y1878900D02*
D03*
Y1853500D02*
D03*
X804466D02*
D03*
Y1878900D02*
D03*
X492000Y1787100D02*
D03*
Y1812500D02*
D03*
X506000D02*
D03*
Y1787100D02*
D03*
X806200Y1776700D02*
D03*
Y1751300D02*
D03*
X792200D02*
D03*
Y1776700D02*
D03*
X790466Y1148900D02*
D03*
Y1123500D02*
D03*
X804466D02*
D03*
Y1148900D02*
D03*
X492000Y1057100D02*
D03*
Y1082500D02*
D03*
X506000D02*
D03*
Y1057100D02*
D03*
X806200Y1046700D02*
D03*
Y1021300D02*
D03*
X792200D02*
D03*
Y1046700D02*
D03*
X804466Y418900D02*
D03*
Y393500D02*
D03*
X790466D02*
D03*
Y418900D02*
D03*
X792200Y316700D02*
D03*
Y291300D02*
D03*
X806200D02*
D03*
Y316700D02*
D03*
X506000Y327100D02*
D03*
Y352500D02*
D03*
X492000D02*
D03*
Y327100D02*
D03*
D53*
X790466Y3330200D02*
D03*
Y3322200D02*
D03*
X804466D02*
D03*
Y3330200D02*
D03*
X492000Y3255800D02*
D03*
Y3263800D02*
D03*
X506000D02*
D03*
Y3255800D02*
D03*
X806200Y3228000D02*
D03*
Y3220000D02*
D03*
X792200D02*
D03*
Y3228000D02*
D03*
X790466Y2600200D02*
D03*
Y2592200D02*
D03*
X804466D02*
D03*
Y2600200D02*
D03*
X492000Y2525800D02*
D03*
Y2533800D02*
D03*
X506000D02*
D03*
Y2525800D02*
D03*
X806200Y2498000D02*
D03*
Y2490000D02*
D03*
X792200D02*
D03*
Y2498000D02*
D03*
X790466Y1870200D02*
D03*
Y1862200D02*
D03*
X804466D02*
D03*
Y1870200D02*
D03*
X492000Y1795800D02*
D03*
Y1803800D02*
D03*
X506000D02*
D03*
Y1795800D02*
D03*
X806200Y1768000D02*
D03*
Y1760000D02*
D03*
X792200D02*
D03*
Y1768000D02*
D03*
X790466Y1140200D02*
D03*
Y1132200D02*
D03*
X804466D02*
D03*
Y1140200D02*
D03*
X492000Y1065800D02*
D03*
Y1073800D02*
D03*
X506000D02*
D03*
Y1065800D02*
D03*
X806200Y1038000D02*
D03*
Y1030000D02*
D03*
X792200D02*
D03*
Y1038000D02*
D03*
X804466Y410200D02*
D03*
Y402200D02*
D03*
X790466D02*
D03*
Y410200D02*
D03*
X792200Y308000D02*
D03*
Y300000D02*
D03*
X806200D02*
D03*
Y308000D02*
D03*
X506000Y335800D02*
D03*
Y343800D02*
D03*
X492000D02*
D03*
Y335800D02*
D03*
D59*
X-48351Y3622367D02*
D03*
X1636666D02*
D03*
X1634934Y10100D02*
D03*
X-48266D02*
D03*
D60*
X-28400Y3568400D02*
D03*
X1625000D02*
D03*
X1653110Y61800D02*
D03*
X-70000D02*
D03*
D61*
X1548870Y3024600D02*
D03*
X1523470D02*
D03*
Y3050000D02*
D03*
X1498070Y3024600D02*
D03*
Y3050000D02*
D03*
X1472670Y3024600D02*
D03*
Y3050000D02*
D03*
X1447270Y3024600D02*
D03*
X1421470D02*
D03*
Y3050000D02*
D03*
X1396070Y3024600D02*
D03*
Y3050000D02*
D03*
X1370670D02*
D03*
X1345270D02*
D03*
X1370670Y3024600D02*
D03*
X1345270D02*
D03*
X1447270Y3050000D02*
D03*
X1319470Y3024600D02*
D03*
Y3050000D02*
D03*
X1294070Y3024600D02*
D03*
Y3050000D02*
D03*
X1268670Y3024600D02*
D03*
Y3050000D02*
D03*
X1243270Y3024600D02*
D03*
X1217470D02*
D03*
Y3050000D02*
D03*
X1192070D02*
D03*
X1243270D02*
D03*
X1191870Y3024600D02*
D03*
X1166470D02*
D03*
Y3050000D02*
D03*
X1141070Y3024600D02*
D03*
Y3050000D02*
D03*
X1115670Y3024600D02*
D03*
Y3050000D02*
D03*
X1090270Y3024600D02*
D03*
X1064470D02*
D03*
Y3050000D02*
D03*
X1039070Y3024600D02*
D03*
Y3050000D02*
D03*
X1013670D02*
D03*
X988270D02*
D03*
X1013670Y3024600D02*
D03*
X988270D02*
D03*
X1090270Y3050000D02*
D03*
X962470Y3024600D02*
D03*
Y3050000D02*
D03*
X937070Y3024600D02*
D03*
Y3050000D02*
D03*
X105880D02*
D03*
X54680D02*
D03*
Y3024600D02*
D03*
X80080Y3050000D02*
D03*
Y3024600D02*
D03*
X105880D02*
D03*
X131280Y3050000D02*
D03*
Y3024600D02*
D03*
X156680Y3050000D02*
D03*
Y3024600D02*
D03*
X182080Y3050000D02*
D03*
Y3024600D02*
D03*
X309880Y3050000D02*
D03*
X207880Y3024600D02*
D03*
X233280D02*
D03*
X207880Y3050000D02*
D03*
X233280D02*
D03*
X258680D02*
D03*
Y3024600D02*
D03*
X284080Y3050000D02*
D03*
Y3024600D02*
D03*
X309880D02*
D03*
X335280Y3050000D02*
D03*
Y3024600D02*
D03*
X360680Y3050000D02*
D03*
Y3024600D02*
D03*
X386080Y3050000D02*
D03*
Y3024600D02*
D03*
X411480D02*
D03*
X805489Y3532490D02*
D03*
X830889D02*
D03*
Y3557890D02*
D03*
X856289Y3532490D02*
D03*
Y3557890D02*
D03*
X881689Y3532490D02*
D03*
Y3557890D02*
D03*
X907089Y3532490D02*
D03*
X932889D02*
D03*
Y3557890D02*
D03*
X958289Y3532490D02*
D03*
Y3557890D02*
D03*
X907089D02*
D03*
X1548870Y2294600D02*
D03*
X1523470D02*
D03*
Y2320000D02*
D03*
X1498070Y2294600D02*
D03*
Y2320000D02*
D03*
X1472670Y2294600D02*
D03*
Y2320000D02*
D03*
X1447270Y2294600D02*
D03*
X1421470D02*
D03*
Y2320000D02*
D03*
X1396070Y2294600D02*
D03*
Y2320000D02*
D03*
X1370670D02*
D03*
X1345270D02*
D03*
X1370670Y2294600D02*
D03*
X1345270D02*
D03*
X1447270Y2320000D02*
D03*
X1319470Y2294600D02*
D03*
Y2320000D02*
D03*
X1294070Y2294600D02*
D03*
Y2320000D02*
D03*
X1268670Y2294600D02*
D03*
Y2320000D02*
D03*
X1243270Y2294600D02*
D03*
X1217470D02*
D03*
Y2320000D02*
D03*
X1192070D02*
D03*
X1243270D02*
D03*
X1191870Y2294600D02*
D03*
X1166470D02*
D03*
Y2320000D02*
D03*
X1141070Y2294600D02*
D03*
Y2320000D02*
D03*
X1115670Y2294600D02*
D03*
Y2320000D02*
D03*
X1090270Y2294600D02*
D03*
X1064470D02*
D03*
Y2320000D02*
D03*
X1039070Y2294600D02*
D03*
Y2320000D02*
D03*
X1013670D02*
D03*
X988270D02*
D03*
X1013670Y2294600D02*
D03*
X988270D02*
D03*
X1090270Y2320000D02*
D03*
X962470Y2294600D02*
D03*
Y2320000D02*
D03*
X937070Y2294600D02*
D03*
Y2320000D02*
D03*
X105880D02*
D03*
X54680D02*
D03*
Y2294600D02*
D03*
X80080Y2320000D02*
D03*
Y2294600D02*
D03*
X105880D02*
D03*
X131280Y2320000D02*
D03*
Y2294600D02*
D03*
X156680Y2320000D02*
D03*
Y2294600D02*
D03*
X182080Y2320000D02*
D03*
Y2294600D02*
D03*
X309880Y2320000D02*
D03*
X207880Y2294600D02*
D03*
X233280D02*
D03*
X207880Y2320000D02*
D03*
X233280D02*
D03*
X258680D02*
D03*
Y2294600D02*
D03*
X284080Y2320000D02*
D03*
Y2294600D02*
D03*
X309880D02*
D03*
X335280Y2320000D02*
D03*
Y2294600D02*
D03*
X360680Y2320000D02*
D03*
Y2294600D02*
D03*
X386080Y2320000D02*
D03*
Y2294600D02*
D03*
X411480D02*
D03*
X805489Y2802490D02*
D03*
X830889D02*
D03*
Y2827890D02*
D03*
X856289Y2802490D02*
D03*
Y2827890D02*
D03*
X881689Y2802490D02*
D03*
Y2827890D02*
D03*
X907089Y2802490D02*
D03*
X932889D02*
D03*
Y2827890D02*
D03*
X958289Y2802490D02*
D03*
Y2827890D02*
D03*
X907089D02*
D03*
X1548870Y1564600D02*
D03*
X1523470D02*
D03*
Y1590000D02*
D03*
X1498070Y1564600D02*
D03*
Y1590000D02*
D03*
X1472670Y1564600D02*
D03*
Y1590000D02*
D03*
X1447270Y1564600D02*
D03*
X1421470D02*
D03*
Y1590000D02*
D03*
X1396070Y1564600D02*
D03*
Y1590000D02*
D03*
X1370670D02*
D03*
X1345270D02*
D03*
X1370670Y1564600D02*
D03*
X1345270D02*
D03*
X1447270Y1590000D02*
D03*
X1319470Y1564600D02*
D03*
Y1590000D02*
D03*
X1294070Y1564600D02*
D03*
Y1590000D02*
D03*
X1268670Y1564600D02*
D03*
Y1590000D02*
D03*
X1243270Y1564600D02*
D03*
X1217470D02*
D03*
Y1590000D02*
D03*
X1192070D02*
D03*
X1243270D02*
D03*
X1191870Y1564600D02*
D03*
X1166470D02*
D03*
Y1590000D02*
D03*
X1141070Y1564600D02*
D03*
Y1590000D02*
D03*
X1115670Y1564600D02*
D03*
Y1590000D02*
D03*
X1090270Y1564600D02*
D03*
X1064470D02*
D03*
Y1590000D02*
D03*
X1039070Y1564600D02*
D03*
Y1590000D02*
D03*
X1013670D02*
D03*
X988270D02*
D03*
X1013670Y1564600D02*
D03*
X988270D02*
D03*
X1090270Y1590000D02*
D03*
X962470Y1564600D02*
D03*
Y1590000D02*
D03*
X937070Y1564600D02*
D03*
Y1590000D02*
D03*
X105880D02*
D03*
X54680D02*
D03*
Y1564600D02*
D03*
X80080Y1590000D02*
D03*
Y1564600D02*
D03*
X105880D02*
D03*
X131280Y1590000D02*
D03*
Y1564600D02*
D03*
X156680Y1590000D02*
D03*
Y1564600D02*
D03*
X182080Y1590000D02*
D03*
Y1564600D02*
D03*
X309880Y1590000D02*
D03*
X207880Y1564600D02*
D03*
X233280D02*
D03*
X207880Y1590000D02*
D03*
X233280D02*
D03*
X258680D02*
D03*
Y1564600D02*
D03*
X284080Y1590000D02*
D03*
Y1564600D02*
D03*
X309880D02*
D03*
X335280Y1590000D02*
D03*
Y1564600D02*
D03*
X360680Y1590000D02*
D03*
Y1564600D02*
D03*
X386080Y1590000D02*
D03*
Y1564600D02*
D03*
X411480D02*
D03*
X805489Y2072490D02*
D03*
X830889D02*
D03*
Y2097890D02*
D03*
X856289Y2072490D02*
D03*
Y2097890D02*
D03*
X881689Y2072490D02*
D03*
Y2097890D02*
D03*
X907089Y2072490D02*
D03*
X932889D02*
D03*
Y2097890D02*
D03*
X958289Y2072490D02*
D03*
Y2097890D02*
D03*
X907089D02*
D03*
X1548870Y834600D02*
D03*
X1523470D02*
D03*
Y860000D02*
D03*
X1498070Y834600D02*
D03*
Y860000D02*
D03*
X1472670Y834600D02*
D03*
Y860000D02*
D03*
X1447270Y834600D02*
D03*
X1421470D02*
D03*
Y860000D02*
D03*
X1396070Y834600D02*
D03*
Y860000D02*
D03*
X1370670D02*
D03*
X1345270D02*
D03*
X1370670Y834600D02*
D03*
X1345270D02*
D03*
X1447270Y860000D02*
D03*
X1319470Y834600D02*
D03*
Y860000D02*
D03*
X1294070Y834600D02*
D03*
Y860000D02*
D03*
X1268670Y834600D02*
D03*
Y860000D02*
D03*
X1243270Y834600D02*
D03*
X1217470D02*
D03*
Y860000D02*
D03*
X1192070D02*
D03*
X1243270D02*
D03*
X1191870Y834600D02*
D03*
X1166470D02*
D03*
Y860000D02*
D03*
X1141070Y834600D02*
D03*
Y860000D02*
D03*
X1115670Y834600D02*
D03*
Y860000D02*
D03*
X1090270Y834600D02*
D03*
X1064470D02*
D03*
Y860000D02*
D03*
X1039070Y834600D02*
D03*
Y860000D02*
D03*
X1013670D02*
D03*
X988270D02*
D03*
X1013670Y834600D02*
D03*
X988270D02*
D03*
X1090270Y860000D02*
D03*
X962470Y834600D02*
D03*
Y860000D02*
D03*
X937070Y834600D02*
D03*
Y860000D02*
D03*
X105880D02*
D03*
X54680D02*
D03*
Y834600D02*
D03*
X80080Y860000D02*
D03*
Y834600D02*
D03*
X105880D02*
D03*
X131280Y860000D02*
D03*
Y834600D02*
D03*
X156680Y860000D02*
D03*
Y834600D02*
D03*
X182080Y860000D02*
D03*
Y834600D02*
D03*
X309880Y860000D02*
D03*
X207880Y834600D02*
D03*
X233280D02*
D03*
X207880Y860000D02*
D03*
X233280D02*
D03*
X258680D02*
D03*
Y834600D02*
D03*
X284080Y860000D02*
D03*
Y834600D02*
D03*
X309880D02*
D03*
X335280Y860000D02*
D03*
Y834600D02*
D03*
X360680Y860000D02*
D03*
Y834600D02*
D03*
X386080Y860000D02*
D03*
Y834600D02*
D03*
X411480D02*
D03*
X805489Y1342490D02*
D03*
X830889D02*
D03*
Y1367890D02*
D03*
X856289Y1342490D02*
D03*
Y1367890D02*
D03*
X881689Y1342490D02*
D03*
Y1367890D02*
D03*
X907089Y1342490D02*
D03*
X932889D02*
D03*
Y1367890D02*
D03*
X958289Y1342490D02*
D03*
Y1367890D02*
D03*
X907089D02*
D03*
X937070Y130000D02*
D03*
Y104600D02*
D03*
X962470Y130000D02*
D03*
Y104600D02*
D03*
X1090270Y130000D02*
D03*
X988270Y104600D02*
D03*
X1013670D02*
D03*
X988270Y130000D02*
D03*
X1013670D02*
D03*
X1039070D02*
D03*
Y104600D02*
D03*
X1064470Y130000D02*
D03*
Y104600D02*
D03*
X1090270D02*
D03*
X1115670Y130000D02*
D03*
Y104600D02*
D03*
X1141070Y130000D02*
D03*
Y104600D02*
D03*
X1166470Y130000D02*
D03*
Y104600D02*
D03*
X1191870D02*
D03*
X1243270Y130000D02*
D03*
X1192070D02*
D03*
X1217470D02*
D03*
Y104600D02*
D03*
X1243270D02*
D03*
X1268670Y130000D02*
D03*
Y104600D02*
D03*
X1294070Y130000D02*
D03*
Y104600D02*
D03*
X1319470Y130000D02*
D03*
Y104600D02*
D03*
X1447270Y130000D02*
D03*
X1345270Y104600D02*
D03*
X1370670D02*
D03*
X1345270Y130000D02*
D03*
X1370670D02*
D03*
X1396070D02*
D03*
Y104600D02*
D03*
X1421470Y130000D02*
D03*
Y104600D02*
D03*
X1447270D02*
D03*
X1472670Y130000D02*
D03*
Y104600D02*
D03*
X1498070Y130000D02*
D03*
Y104600D02*
D03*
X1523470Y130000D02*
D03*
Y104600D02*
D03*
X1548870D02*
D03*
X907089Y637890D02*
D03*
X958289D02*
D03*
Y612490D02*
D03*
X932889Y637890D02*
D03*
Y612490D02*
D03*
X907089D02*
D03*
X881689Y637890D02*
D03*
Y612490D02*
D03*
X856289Y637890D02*
D03*
Y612490D02*
D03*
X830889Y637890D02*
D03*
Y612490D02*
D03*
X805489D02*
D03*
X411480Y104600D02*
D03*
X386080D02*
D03*
Y130000D02*
D03*
X360680Y104600D02*
D03*
Y130000D02*
D03*
X335280Y104600D02*
D03*
Y130000D02*
D03*
X309880Y104600D02*
D03*
X284080D02*
D03*
Y130000D02*
D03*
X258680Y104600D02*
D03*
Y130000D02*
D03*
X233280D02*
D03*
X207880D02*
D03*
X233280Y104600D02*
D03*
X207880D02*
D03*
X309880Y130000D02*
D03*
X182080Y104600D02*
D03*
Y130000D02*
D03*
X156680Y104600D02*
D03*
Y130000D02*
D03*
X131280Y104600D02*
D03*
Y130000D02*
D03*
X105880Y104600D02*
D03*
X80080D02*
D03*
Y130000D02*
D03*
X54680Y104600D02*
D03*
Y130000D02*
D03*
X105880D02*
D03*
D62*
X1548870Y3050000D02*
D03*
X411480D02*
D03*
X805489Y3557890D02*
D03*
X1548870Y2320000D02*
D03*
X411480D02*
D03*
X805489Y2827890D02*
D03*
X1548870Y1590000D02*
D03*
X411480D02*
D03*
X805489Y2097890D02*
D03*
X1548870Y860000D02*
D03*
X411480D02*
D03*
X805489Y1367890D02*
D03*
X1548870Y130000D02*
D03*
X805489Y637890D02*
D03*
X411480Y130000D02*
D03*
D63*
X535940Y3036840D02*
D03*
X651600Y3551000D02*
D03*
X677000D02*
D03*
X702400D02*
D03*
X535940Y2306840D02*
D03*
X651600Y2821000D02*
D03*
X677000D02*
D03*
X702400D02*
D03*
X535940Y1576840D02*
D03*
X651600Y2091000D02*
D03*
X677000D02*
D03*
X702400D02*
D03*
X535940Y846840D02*
D03*
X651600Y1361000D02*
D03*
X677000D02*
D03*
X702400D02*
D03*
X535940Y116840D02*
D03*
X702400Y631000D02*
D03*
X677000D02*
D03*
X651600D02*
D03*
D64*
X561340Y3036840D02*
D03*
X626200Y3551000D02*
D03*
X561340Y2306840D02*
D03*
X626200Y2821000D02*
D03*
X561340Y1576840D02*
D03*
X626200Y2091000D02*
D03*
X561340Y846840D02*
D03*
X626200Y1361000D02*
D03*
X561340Y116840D02*
D03*
X626200Y631000D02*
D03*
D65*
X1486310Y3404910D02*
D03*
X1450220Y3417610D02*
D03*
X1490490Y3455710D02*
D03*
X1392800Y3223600D02*
D03*
Y3210800D02*
D03*
X1173360Y3417760D02*
D03*
X1187570Y3418000D02*
D03*
X1223400Y3455800D02*
D03*
X1085390Y3417610D02*
D03*
X1086010Y3443010D02*
D03*
X1079620Y3455710D02*
D03*
X1087260Y3211060D02*
D03*
X1119840Y3223760D02*
D03*
X988400Y3332600D02*
D03*
Y3297000D02*
D03*
Y3320600D02*
D03*
Y3342800D02*
D03*
Y3308400D02*
D03*
Y3353600D02*
D03*
X364480Y3179080D02*
D03*
X123120Y3204480D02*
D03*
X206932Y3307668D02*
D03*
X206920Y3204480D02*
D03*
Y3153680D02*
D03*
X331880Y3204480D02*
D03*
X331232Y3320367D02*
D03*
X331532Y3358467D02*
D03*
X415032Y3345768D02*
D03*
X414932Y3307668D02*
D03*
X207800Y3474400D02*
D03*
X331345Y3487055D02*
D03*
X330800Y3512400D02*
D03*
X330655Y3461655D02*
D03*
X415245Y3474355D02*
D03*
X415555Y3448955D02*
D03*
X382655Y3512455D02*
D03*
X364800Y3216800D02*
D03*
X331045Y3474355D02*
D03*
X330980Y3166380D02*
D03*
X207800Y3448600D02*
D03*
X212200Y3499600D02*
D03*
X206800Y3166000D02*
D03*
X173000Y3320600D02*
D03*
X174220Y3191780D02*
D03*
X574800Y3157400D02*
D03*
X559400Y3334020D02*
D03*
X212145Y3512455D02*
D03*
X123267Y3358467D02*
D03*
X123032Y3320367D02*
D03*
X122400Y3462200D02*
D03*
X122800Y3486800D02*
D03*
X120455Y3512455D02*
D03*
X122200Y3474600D02*
D03*
X158600Y3525400D02*
D03*
X511700Y3446100D02*
D03*
X486400D02*
D03*
X161800Y3499000D02*
D03*
X502900Y3358467D02*
D03*
X511400D02*
D03*
X494500D02*
D03*
X486100D02*
D03*
X494861Y3446106D02*
D03*
X503254Y3445754D02*
D03*
X472500Y3272700D02*
D03*
Y3264200D02*
D03*
Y3247300D02*
D03*
X382445Y3499755D02*
D03*
X458000Y3128400D02*
D03*
X667000Y3478800D02*
D03*
X482800Y3119800D02*
D03*
X574400Y3167000D02*
D03*
X718020Y3364020D02*
D03*
X562780Y3374020D02*
D03*
X562800Y3384800D02*
D03*
Y3395400D02*
D03*
X592600Y3394200D02*
D03*
X467450Y3167650D02*
D03*
X516550Y3154950D02*
D03*
X484600Y3231000D02*
D03*
X634520Y3300280D02*
D03*
X595600Y3233600D02*
D03*
X586200Y3101102D02*
D03*
X596400Y3101200D02*
D03*
X679400Y3272600D02*
D03*
X689520D02*
D03*
X694520Y3300200D02*
D03*
X1409610Y3443010D02*
D03*
X1391912D02*
D03*
Y3455600D02*
D03*
X1350800Y3405564D02*
D03*
X1141010Y3443010D02*
D03*
X532460Y3120660D02*
D03*
X472500Y3255800D02*
D03*
X433600Y3153200D02*
D03*
X443800Y3110400D02*
D03*
X718000Y3384000D02*
D03*
X749000Y3354200D02*
D03*
X792800Y3194400D02*
D03*
X779400Y3202600D02*
D03*
X748200Y3365600D02*
D03*
X753400Y3378800D02*
D03*
X756000Y3347000D02*
D03*
X777000Y3313700D02*
D03*
Y3322200D02*
D03*
Y3330600D02*
D03*
Y3339100D02*
D03*
X753400Y3393800D02*
D03*
X749600Y3439400D02*
D03*
X646800Y3459000D02*
D03*
X610800Y3459200D02*
D03*
X709000Y3467400D02*
D03*
X668200Y3494200D02*
D03*
X556240Y3414760D02*
D03*
X561800Y3443400D02*
D03*
X542200Y3492000D02*
D03*
X775800Y3407000D02*
D03*
X693600Y3103200D02*
D03*
X871000Y3299800D02*
D03*
X870800Y3349600D02*
D03*
Y3249200D02*
D03*
Y3199600D02*
D03*
X819600Y3199000D02*
D03*
X820000Y3228600D02*
D03*
X820200Y3267200D02*
D03*
X825600Y3299800D02*
D03*
X826000Y3373000D02*
D03*
X819200Y3424200D02*
D03*
X829353Y3399587D02*
D03*
X857000Y3463100D02*
D03*
X807800D02*
D03*
X882800Y3463000D02*
D03*
X935800Y3463200D02*
D03*
X910600Y3502400D02*
D03*
X415400Y3487400D02*
D03*
X980705Y3413047D02*
D03*
X970630Y3412915D02*
D03*
X989630Y3413115D02*
D03*
X1023200Y3401400D02*
D03*
X1049430Y3384315D02*
D03*
X1073030D02*
D03*
X1023630D02*
D03*
X1240591Y3394317D02*
D03*
X1259791Y3265317D02*
D03*
X1260000Y3233800D02*
D03*
X1242554Y3194160D02*
D03*
X281600Y3268400D02*
D03*
X531800Y3338000D02*
D03*
X1486310Y2674910D02*
D03*
X1450220Y2687610D02*
D03*
X1490490Y2725710D02*
D03*
X1392800Y2493600D02*
D03*
Y2480800D02*
D03*
X1173360Y2687760D02*
D03*
X1187570Y2688000D02*
D03*
X1223400Y2725800D02*
D03*
X1085390Y2687610D02*
D03*
X1086010Y2713010D02*
D03*
X1079620Y2725710D02*
D03*
X1087260Y2481060D02*
D03*
X1119840Y2493760D02*
D03*
X988400Y2602600D02*
D03*
Y2567000D02*
D03*
Y2590600D02*
D03*
Y2612800D02*
D03*
Y2578400D02*
D03*
Y2623600D02*
D03*
X364480Y2449080D02*
D03*
X123120Y2474480D02*
D03*
X206932Y2577668D02*
D03*
X206920Y2474480D02*
D03*
Y2423680D02*
D03*
X331880Y2474480D02*
D03*
X331232Y2590367D02*
D03*
X331532Y2628467D02*
D03*
X415032Y2615768D02*
D03*
X414932Y2577668D02*
D03*
X207800Y2744400D02*
D03*
X331345Y2757055D02*
D03*
X330800Y2782400D02*
D03*
X330655Y2731655D02*
D03*
X415245Y2744355D02*
D03*
X415555Y2718955D02*
D03*
X382655Y2782455D02*
D03*
X364800Y2486800D02*
D03*
X331045Y2744355D02*
D03*
X330980Y2436380D02*
D03*
X207800Y2718600D02*
D03*
X212200Y2769600D02*
D03*
X206800Y2436000D02*
D03*
X173000Y2590600D02*
D03*
X174220Y2461780D02*
D03*
X574800Y2427400D02*
D03*
X559400Y2604020D02*
D03*
X212145Y2782455D02*
D03*
X123267Y2628467D02*
D03*
X123032Y2590367D02*
D03*
X122400Y2732200D02*
D03*
X122800Y2756800D02*
D03*
X120455Y2782455D02*
D03*
X122200Y2744600D02*
D03*
X158600Y2795400D02*
D03*
X511700Y2716100D02*
D03*
X486400D02*
D03*
X161800Y2769000D02*
D03*
X502900Y2628467D02*
D03*
X511400D02*
D03*
X494500D02*
D03*
X486100D02*
D03*
X494861Y2716106D02*
D03*
X503254Y2715754D02*
D03*
X472500Y2542700D02*
D03*
Y2534200D02*
D03*
Y2517300D02*
D03*
X382445Y2769755D02*
D03*
X458000Y2398400D02*
D03*
X667000Y2748800D02*
D03*
X482800Y2389800D02*
D03*
X574400Y2437000D02*
D03*
X718020Y2634020D02*
D03*
X562780Y2644020D02*
D03*
X562800Y2654800D02*
D03*
Y2665400D02*
D03*
X592600Y2664200D02*
D03*
X467450Y2437650D02*
D03*
X516550Y2424950D02*
D03*
X484600Y2501000D02*
D03*
X634520Y2570280D02*
D03*
X595600Y2503600D02*
D03*
X586200Y2371102D02*
D03*
X596400Y2371200D02*
D03*
X679400Y2542600D02*
D03*
X689520D02*
D03*
X694520Y2570200D02*
D03*
X1409610Y2713010D02*
D03*
X1391912D02*
D03*
Y2725600D02*
D03*
X1350800Y2675564D02*
D03*
X1141010Y2713010D02*
D03*
X532460Y2390660D02*
D03*
X472500Y2525800D02*
D03*
X433600Y2423200D02*
D03*
X443800Y2380400D02*
D03*
X718000Y2654000D02*
D03*
X749000Y2624200D02*
D03*
X792800Y2464400D02*
D03*
X779400Y2472600D02*
D03*
X748200Y2635600D02*
D03*
X753400Y2648800D02*
D03*
X756000Y2617000D02*
D03*
X777000Y2583700D02*
D03*
Y2592200D02*
D03*
Y2600600D02*
D03*
Y2609100D02*
D03*
X753400Y2663800D02*
D03*
X749600Y2709400D02*
D03*
X646800Y2729000D02*
D03*
X610800Y2729200D02*
D03*
X709000Y2737400D02*
D03*
X668200Y2764200D02*
D03*
X556240Y2684760D02*
D03*
X561800Y2713400D02*
D03*
X542200Y2762000D02*
D03*
X775800Y2677000D02*
D03*
X693600Y2373200D02*
D03*
X871000Y2569800D02*
D03*
X870800Y2619600D02*
D03*
Y2519200D02*
D03*
Y2469600D02*
D03*
X819600Y2469000D02*
D03*
X820000Y2498600D02*
D03*
X820200Y2537200D02*
D03*
X825600Y2569800D02*
D03*
X826000Y2643000D02*
D03*
X819200Y2694200D02*
D03*
X829353Y2669587D02*
D03*
X857000Y2733100D02*
D03*
X807800D02*
D03*
X882800Y2733000D02*
D03*
X935800Y2733200D02*
D03*
X910600Y2772400D02*
D03*
X415400Y2757400D02*
D03*
X980705Y2683047D02*
D03*
X970630Y2682915D02*
D03*
X989630Y2683115D02*
D03*
X1023200Y2671400D02*
D03*
X1049430Y2654315D02*
D03*
X1073030D02*
D03*
X1023630D02*
D03*
X1240591Y2664317D02*
D03*
X1259791Y2535317D02*
D03*
X1260000Y2503800D02*
D03*
X1242554Y2464160D02*
D03*
X281600Y2538400D02*
D03*
X531800Y2608000D02*
D03*
X1486310Y1944910D02*
D03*
X1450220Y1957610D02*
D03*
X1490490Y1995710D02*
D03*
X1392800Y1763600D02*
D03*
Y1750800D02*
D03*
X1173360Y1957760D02*
D03*
X1187570Y1958000D02*
D03*
X1223400Y1995800D02*
D03*
X1085390Y1957610D02*
D03*
X1086010Y1983010D02*
D03*
X1079620Y1995710D02*
D03*
X1087260Y1751060D02*
D03*
X1119840Y1763760D02*
D03*
X988400Y1872600D02*
D03*
Y1837000D02*
D03*
Y1860600D02*
D03*
Y1882800D02*
D03*
Y1848400D02*
D03*
Y1893600D02*
D03*
X364480Y1719080D02*
D03*
X123120Y1744480D02*
D03*
X206933Y1847668D02*
D03*
X206920Y1744480D02*
D03*
Y1693680D02*
D03*
X331880Y1744480D02*
D03*
X331232Y1860367D02*
D03*
X331533Y1898468D02*
D03*
X415033Y1885768D02*
D03*
X414933Y1847668D02*
D03*
X207800Y2014400D02*
D03*
X331345Y2027055D02*
D03*
X330800Y2052400D02*
D03*
X330655Y2001655D02*
D03*
X415245Y2014355D02*
D03*
X415555Y1988955D02*
D03*
X382655Y2052455D02*
D03*
X364800Y1756800D02*
D03*
X331045Y2014355D02*
D03*
X330980Y1706380D02*
D03*
X207800Y1988600D02*
D03*
X212200Y2039600D02*
D03*
X206800Y1706000D02*
D03*
X173000Y1860600D02*
D03*
X174220Y1731780D02*
D03*
X574800Y1697400D02*
D03*
X559400Y1874020D02*
D03*
X212145Y2052455D02*
D03*
X123267Y1898468D02*
D03*
X123033Y1860367D02*
D03*
X122400Y2002200D02*
D03*
X122800Y2026800D02*
D03*
X120455Y2052455D02*
D03*
X122200Y2014600D02*
D03*
X158600Y2065400D02*
D03*
X511700Y1986100D02*
D03*
X486400D02*
D03*
X161800Y2039000D02*
D03*
X502900Y1898468D02*
D03*
X511400D02*
D03*
X494500D02*
D03*
X486100D02*
D03*
X494861Y1986106D02*
D03*
X503254Y1985754D02*
D03*
X472500Y1812700D02*
D03*
Y1804200D02*
D03*
Y1787300D02*
D03*
X382445Y2039755D02*
D03*
X458000Y1668400D02*
D03*
X667000Y2018800D02*
D03*
X482800Y1659800D02*
D03*
X574400Y1707000D02*
D03*
X718020Y1904020D02*
D03*
X562780Y1914020D02*
D03*
X562800Y1924800D02*
D03*
Y1935400D02*
D03*
X592600Y1934200D02*
D03*
X467450Y1707650D02*
D03*
X516550Y1694950D02*
D03*
X484600Y1771000D02*
D03*
X634520Y1840280D02*
D03*
X595600Y1773600D02*
D03*
X586200Y1641102D02*
D03*
X596400Y1641200D02*
D03*
X679400Y1812600D02*
D03*
X689520D02*
D03*
X694520Y1840200D02*
D03*
X1409610Y1983010D02*
D03*
X1391912D02*
D03*
Y1995600D02*
D03*
X1350800Y1945564D02*
D03*
X1141010Y1983010D02*
D03*
X532460Y1660660D02*
D03*
X472500Y1795800D02*
D03*
X433600Y1693200D02*
D03*
X443800Y1650400D02*
D03*
X718000Y1924000D02*
D03*
X749000Y1894200D02*
D03*
X792800Y1734400D02*
D03*
X779400Y1742600D02*
D03*
X748200Y1905600D02*
D03*
X753400Y1918800D02*
D03*
X756000Y1887000D02*
D03*
X777000Y1853700D02*
D03*
Y1862200D02*
D03*
Y1870600D02*
D03*
Y1879100D02*
D03*
X753400Y1933800D02*
D03*
X749600Y1979400D02*
D03*
X646800Y1999000D02*
D03*
X610800Y1999200D02*
D03*
X709000Y2007400D02*
D03*
X668200Y2034200D02*
D03*
X556240Y1954760D02*
D03*
X561800Y1983400D02*
D03*
X542200Y2032000D02*
D03*
X775800Y1947000D02*
D03*
X693600Y1643200D02*
D03*
X871000Y1839800D02*
D03*
X870800Y1889600D02*
D03*
Y1789200D02*
D03*
Y1739600D02*
D03*
X819600Y1739000D02*
D03*
X820000Y1768600D02*
D03*
X820200Y1807200D02*
D03*
X825600Y1839800D02*
D03*
X826000Y1913000D02*
D03*
X819200Y1964200D02*
D03*
X829353Y1939587D02*
D03*
X857000Y2003100D02*
D03*
X807800D02*
D03*
X882800Y2003000D02*
D03*
X935800Y2003200D02*
D03*
X910600Y2042400D02*
D03*
X415400Y2027400D02*
D03*
X980705Y1953047D02*
D03*
X970630Y1952915D02*
D03*
X989630Y1953115D02*
D03*
X1023200Y1941400D02*
D03*
X1049430Y1924315D02*
D03*
X1073030D02*
D03*
X1023630D02*
D03*
X1240591Y1934317D02*
D03*
X1259791Y1805317D02*
D03*
X1260000Y1773800D02*
D03*
X1242554Y1734160D02*
D03*
X281600Y1808400D02*
D03*
X531800Y1878000D02*
D03*
X1486310Y1214910D02*
D03*
X1450220Y1227610D02*
D03*
X1490490Y1265710D02*
D03*
X1392800Y1033600D02*
D03*
Y1020800D02*
D03*
X1173360Y1227760D02*
D03*
X1187570Y1228000D02*
D03*
X1223400Y1265800D02*
D03*
X1085390Y1227610D02*
D03*
X1086010Y1253010D02*
D03*
X1079620Y1265710D02*
D03*
X1087260Y1021060D02*
D03*
X1119840Y1033760D02*
D03*
X988400Y1142600D02*
D03*
Y1107000D02*
D03*
Y1130600D02*
D03*
Y1152800D02*
D03*
Y1118400D02*
D03*
Y1163600D02*
D03*
X364480Y989080D02*
D03*
X123120Y1014480D02*
D03*
X206933Y1117667D02*
D03*
X206920Y1014480D02*
D03*
Y963680D02*
D03*
X331880Y1014480D02*
D03*
X331232Y1130368D02*
D03*
X331533Y1168467D02*
D03*
X415033Y1155768D02*
D03*
X414933Y1117667D02*
D03*
X207800Y1284400D02*
D03*
X331345Y1297055D02*
D03*
X330800Y1322400D02*
D03*
X330655Y1271655D02*
D03*
X415245Y1284355D02*
D03*
X415555Y1258955D02*
D03*
X382655Y1322455D02*
D03*
X364800Y1026800D02*
D03*
X331045Y1284355D02*
D03*
X330980Y976380D02*
D03*
X207800Y1258600D02*
D03*
X212200Y1309600D02*
D03*
X206800Y976000D02*
D03*
X173000Y1130600D02*
D03*
X174220Y1001780D02*
D03*
X574800Y967400D02*
D03*
X559400Y1144020D02*
D03*
X212145Y1322455D02*
D03*
X123267Y1168467D02*
D03*
X123033Y1130368D02*
D03*
X122400Y1272200D02*
D03*
X122800Y1296800D02*
D03*
X120455Y1322455D02*
D03*
X122200Y1284600D02*
D03*
X158600Y1335400D02*
D03*
X511700Y1256100D02*
D03*
X486400D02*
D03*
X161800Y1309000D02*
D03*
X502900Y1168467D02*
D03*
X511400D02*
D03*
X494500D02*
D03*
X486100D02*
D03*
X494861Y1256106D02*
D03*
X503254Y1255754D02*
D03*
X472500Y1082700D02*
D03*
Y1074200D02*
D03*
Y1057300D02*
D03*
X382445Y1309755D02*
D03*
X458000Y938400D02*
D03*
X667000Y1288800D02*
D03*
X482800Y929800D02*
D03*
X574400Y977000D02*
D03*
X718020Y1174020D02*
D03*
X562780Y1184020D02*
D03*
X562800Y1194800D02*
D03*
Y1205400D02*
D03*
X592600Y1204200D02*
D03*
X467450Y977650D02*
D03*
X516550Y964950D02*
D03*
X484600Y1041000D02*
D03*
X634520Y1110280D02*
D03*
X595600Y1043600D02*
D03*
X586200Y911102D02*
D03*
X596400Y911200D02*
D03*
X679400Y1082600D02*
D03*
X689520D02*
D03*
X694520Y1110200D02*
D03*
X1409610Y1253010D02*
D03*
X1391912D02*
D03*
Y1265600D02*
D03*
X1350800Y1215564D02*
D03*
X1141010Y1253010D02*
D03*
X532460Y930660D02*
D03*
X472500Y1065800D02*
D03*
X433600Y963200D02*
D03*
X443800Y920400D02*
D03*
X718000Y1194000D02*
D03*
X749000Y1164200D02*
D03*
X792800Y1004400D02*
D03*
X779400Y1012600D02*
D03*
X748200Y1175600D02*
D03*
X753400Y1188800D02*
D03*
X756000Y1157000D02*
D03*
X777000Y1123700D02*
D03*
Y1132200D02*
D03*
Y1140600D02*
D03*
Y1149100D02*
D03*
X753400Y1203800D02*
D03*
X749600Y1249400D02*
D03*
X646800Y1269000D02*
D03*
X610800Y1269200D02*
D03*
X709000Y1277400D02*
D03*
X668200Y1304200D02*
D03*
X556240Y1224760D02*
D03*
X561800Y1253400D02*
D03*
X542200Y1302000D02*
D03*
X775800Y1217000D02*
D03*
X693600Y913200D02*
D03*
X871000Y1109800D02*
D03*
X870800Y1159600D02*
D03*
Y1059200D02*
D03*
Y1009600D02*
D03*
X819600Y1009000D02*
D03*
X820000Y1038600D02*
D03*
X820200Y1077200D02*
D03*
X825600Y1109800D02*
D03*
X826000Y1183000D02*
D03*
X819200Y1234200D02*
D03*
X829353Y1209587D02*
D03*
X857000Y1273100D02*
D03*
X807800D02*
D03*
X882800Y1273000D02*
D03*
X935800Y1273200D02*
D03*
X910600Y1312400D02*
D03*
X415400Y1297400D02*
D03*
X980705Y1223047D02*
D03*
X970630Y1222915D02*
D03*
X989630Y1223115D02*
D03*
X1023200Y1211400D02*
D03*
X1049430Y1194315D02*
D03*
X1073030D02*
D03*
X1023630D02*
D03*
X1240591Y1204317D02*
D03*
X1259791Y1075317D02*
D03*
X1260000Y1043800D02*
D03*
X1242554Y1004160D02*
D03*
X281600Y1078400D02*
D03*
X531800Y1148000D02*
D03*
X531800Y418000D02*
D03*
X281600Y348400D02*
D03*
X1242554Y274160D02*
D03*
X1260000Y313800D02*
D03*
X1259791Y345317D02*
D03*
X1240591Y474317D02*
D03*
X1023630Y464315D02*
D03*
X1073030D02*
D03*
X1049430D02*
D03*
X1023200Y481400D02*
D03*
X989630Y493115D02*
D03*
X970630Y492915D02*
D03*
X980705Y493047D02*
D03*
X415400Y567400D02*
D03*
X910600Y582400D02*
D03*
X935800Y543200D02*
D03*
X882800Y543000D02*
D03*
X807800Y543100D02*
D03*
X857000D02*
D03*
X829353Y479587D02*
D03*
X819200Y504200D02*
D03*
X826000Y453000D02*
D03*
X825600Y379800D02*
D03*
X820200Y347200D02*
D03*
X820000Y308600D02*
D03*
X819600Y279000D02*
D03*
X870800Y279600D02*
D03*
Y329200D02*
D03*
Y429600D02*
D03*
X871000Y379800D02*
D03*
X693600Y183200D02*
D03*
X775800Y487000D02*
D03*
X542200Y572000D02*
D03*
X561800Y523400D02*
D03*
X556240Y494760D02*
D03*
X668200Y574200D02*
D03*
X709000Y547400D02*
D03*
X610800Y539200D02*
D03*
X646800Y539000D02*
D03*
X749600Y519400D02*
D03*
X753400Y473800D02*
D03*
X777000Y419100D02*
D03*
Y410600D02*
D03*
Y402200D02*
D03*
Y393700D02*
D03*
X756000Y427000D02*
D03*
X753400Y458800D02*
D03*
X748200Y445600D02*
D03*
X779400Y282600D02*
D03*
X792800Y274400D02*
D03*
X749000Y434200D02*
D03*
X718000Y464000D02*
D03*
X443800Y190400D02*
D03*
X433600Y233200D02*
D03*
X472500Y335800D02*
D03*
X532460Y200660D02*
D03*
X1141010Y523010D02*
D03*
X1350800Y485564D02*
D03*
X1391912Y535600D02*
D03*
Y523010D02*
D03*
X1409610D02*
D03*
X694520Y380200D02*
D03*
X689520Y352600D02*
D03*
X679400D02*
D03*
X596400Y181200D02*
D03*
X586200Y181102D02*
D03*
X595600Y313600D02*
D03*
X634520Y380280D02*
D03*
X484600Y311000D02*
D03*
X516550Y234950D02*
D03*
X467450Y247650D02*
D03*
X592600Y474200D02*
D03*
X562800Y475400D02*
D03*
Y464800D02*
D03*
X562780Y454020D02*
D03*
X718020Y444020D02*
D03*
X574400Y247000D02*
D03*
X482800Y199800D02*
D03*
X667000Y558800D02*
D03*
X458000Y208400D02*
D03*
X382445Y579755D02*
D03*
X472500Y327300D02*
D03*
Y344200D02*
D03*
Y352700D02*
D03*
X503254Y525754D02*
D03*
X494862Y526106D02*
D03*
X486100Y438467D02*
D03*
X494500D02*
D03*
X511400D02*
D03*
X502900D02*
D03*
X161800Y579000D02*
D03*
X486400Y526100D02*
D03*
X511700D02*
D03*
X158600Y605400D02*
D03*
X122200Y554600D02*
D03*
X120455Y592455D02*
D03*
X122800Y566800D02*
D03*
X122400Y542200D02*
D03*
X123033Y400368D02*
D03*
X123267Y438467D02*
D03*
X212145Y592455D02*
D03*
X559400Y414020D02*
D03*
X574800Y237400D02*
D03*
X174220Y271780D02*
D03*
X173000Y400600D02*
D03*
X206800Y246000D02*
D03*
X212200Y579600D02*
D03*
X207800Y528600D02*
D03*
X330980Y246380D02*
D03*
X331045Y554355D02*
D03*
X364800Y296800D02*
D03*
X382655Y592455D02*
D03*
X415555Y528955D02*
D03*
X415245Y554355D02*
D03*
X330655Y541655D02*
D03*
X330800Y592400D02*
D03*
X331345Y567055D02*
D03*
X207800Y554400D02*
D03*
X414933Y387668D02*
D03*
X415033Y425768D02*
D03*
X331533Y438467D02*
D03*
X331232Y400368D02*
D03*
X331880Y284480D02*
D03*
X206920Y233680D02*
D03*
Y284480D02*
D03*
X206933Y387668D02*
D03*
X123120Y284480D02*
D03*
X364480Y259080D02*
D03*
X988400Y433600D02*
D03*
Y388400D02*
D03*
Y422800D02*
D03*
Y400600D02*
D03*
Y377000D02*
D03*
Y412600D02*
D03*
X1119840Y303760D02*
D03*
X1087260Y291060D02*
D03*
X1079620Y535710D02*
D03*
X1086010Y523010D02*
D03*
X1085390Y497610D02*
D03*
X1223400Y535800D02*
D03*
X1187570Y498000D02*
D03*
X1173360Y497760D02*
D03*
X1392800Y290800D02*
D03*
Y303600D02*
D03*
X1490490Y535710D02*
D03*
X1450220Y497610D02*
D03*
X1486310Y484910D02*
D03*
D66*
X1401600Y3430600D02*
D03*
X1456000Y3249400D02*
D03*
X1292200Y3410200D02*
D03*
X1033600Y3407400D02*
D03*
X1173400Y3283400D02*
D03*
X1014000D02*
D03*
X1033400Y3185600D02*
D03*
X1240400Y3526400D02*
D03*
X1321600Y3210000D02*
D03*
X443700Y3217400D02*
D03*
X512000Y3094600D02*
D03*
X404400Y3247800D02*
D03*
X190200Y3404800D02*
D03*
X189800Y3250000D02*
D03*
X212200Y3525400D02*
D03*
X228200Y3122400D02*
D03*
X611000Y3088600D02*
D03*
X802800Y3143200D02*
D03*
X769800Y3183800D02*
D03*
X438600Y3525600D02*
D03*
X1033800Y3082400D02*
D03*
X815200Y3143200D02*
D03*
X229815Y2971287D02*
D03*
X213215D02*
D03*
X196615D02*
D03*
X180015D02*
D03*
X163415D02*
D03*
X147200Y2971200D02*
D03*
X130600D02*
D03*
X114000D02*
D03*
X97400D02*
D03*
X80800D02*
D03*
X64200D02*
D03*
X395430Y2971375D02*
D03*
X378830D02*
D03*
X362230D02*
D03*
X345630D02*
D03*
X329030D02*
D03*
X312815Y2971287D02*
D03*
X296215D02*
D03*
X279615D02*
D03*
X263015D02*
D03*
X246415D02*
D03*
X982415Y2956687D02*
D03*
X965815D02*
D03*
X949215D02*
D03*
X932615D02*
D03*
X916015D02*
D03*
X899800D02*
D03*
X883200D02*
D03*
X866600D02*
D03*
X850000D02*
D03*
X833400D02*
D03*
X816800D02*
D03*
X684015D02*
D03*
X650815D02*
D03*
X634215D02*
D03*
X617615D02*
D03*
X601400D02*
D03*
X584800D02*
D03*
X568200D02*
D03*
X551600D02*
D03*
X535000D02*
D03*
X518400D02*
D03*
X1222615D02*
D03*
X1206015D02*
D03*
X1189415D02*
D03*
X1172815D02*
D03*
X1156215D02*
D03*
X1140000D02*
D03*
X1123400D02*
D03*
X1106800D02*
D03*
X1090200D02*
D03*
X1073600D02*
D03*
X1057000D02*
D03*
X1475215D02*
D03*
X1458615D02*
D03*
X1442015D02*
D03*
X1425415D02*
D03*
X1408815D02*
D03*
X1392600D02*
D03*
X1376000D02*
D03*
X1359400D02*
D03*
X1342800D02*
D03*
X1326200D02*
D03*
X1309600D02*
D03*
X32113Y3502815D02*
D03*
Y3486215D02*
D03*
Y3469615D02*
D03*
Y3453015D02*
D03*
Y3436415D02*
D03*
Y3420200D02*
D03*
Y3403600D02*
D03*
Y3387000D02*
D03*
Y3370400D02*
D03*
Y3353800D02*
D03*
Y3337200D02*
D03*
Y3254615D02*
D03*
Y3238015D02*
D03*
Y3221415D02*
D03*
Y3204815D02*
D03*
Y3188215D02*
D03*
Y3172000D02*
D03*
Y3155400D02*
D03*
Y3138800D02*
D03*
Y3122200D02*
D03*
Y3105600D02*
D03*
Y3089000D02*
D03*
X218185Y3610312D02*
D03*
X234785D02*
D03*
X251385D02*
D03*
X267985D02*
D03*
X284585D02*
D03*
X300800D02*
D03*
X317400D02*
D03*
X334000D02*
D03*
X350600D02*
D03*
X367200D02*
D03*
X383800D02*
D03*
X544385D02*
D03*
X560985D02*
D03*
X577585D02*
D03*
X594185D02*
D03*
X610785D02*
D03*
X627000D02*
D03*
X643600D02*
D03*
X660200D02*
D03*
X676800D02*
D03*
X693400D02*
D03*
X710000D02*
D03*
X835985D02*
D03*
X852585D02*
D03*
X869185D02*
D03*
X885785D02*
D03*
X902385D02*
D03*
X918600D02*
D03*
X935200D02*
D03*
X951800D02*
D03*
X968400D02*
D03*
X985000D02*
D03*
X1001600D02*
D03*
X1129185D02*
D03*
X1145785D02*
D03*
X1162385D02*
D03*
X1178985D02*
D03*
X1195585D02*
D03*
X1211800D02*
D03*
X1228400D02*
D03*
X1245000D02*
D03*
X1261600D02*
D03*
X1278200D02*
D03*
X1294800D02*
D03*
X979400Y3444000D02*
D03*
X962800D02*
D03*
X946200D02*
D03*
X929600D02*
D03*
X849200Y3410000D02*
D03*
X1173600Y3367000D02*
D03*
X1190200D02*
D03*
X1206800D02*
D03*
X1223400D02*
D03*
X849600Y3311200D02*
D03*
X851000Y3360000D02*
D03*
X850200Y3260000D02*
D03*
X849600Y3210400D02*
D03*
X849400Y3159000D02*
D03*
X923800Y3091200D02*
D03*
X907200D02*
D03*
X890600D02*
D03*
X874000D02*
D03*
X857400D02*
D03*
X1193000Y3077400D02*
D03*
X1176400D02*
D03*
X1159800D02*
D03*
X934000Y3194600D02*
D03*
X951200D02*
D03*
X964800Y3243200D02*
D03*
X964600Y3262600D02*
D03*
X987400Y3265000D02*
D03*
X987600Y3238800D02*
D03*
X987400Y3197400D02*
D03*
X1023800Y3138000D02*
D03*
Y3211000D02*
D03*
Y3365200D02*
D03*
X979800Y3364200D02*
D03*
X969200Y3382400D02*
D03*
X942000Y3254000D02*
D03*
X942200Y3239200D02*
D03*
X1062600Y3108800D02*
D03*
X1079200D02*
D03*
X1095800D02*
D03*
X788800Y3177600D02*
D03*
X837200Y3158400D02*
D03*
X790200Y3264600D02*
D03*
X926000Y3290800D02*
D03*
X925905Y3305847D02*
D03*
X929105Y3341647D02*
D03*
X928505Y3354447D02*
D03*
X923505Y3387247D02*
D03*
X924305Y3403447D02*
D03*
X945705Y3393447D02*
D03*
X1046400Y3442600D02*
D03*
X1057600D02*
D03*
X1050591Y3364517D02*
D03*
X1072391Y3364317D02*
D03*
X1135005Y3394676D02*
D03*
X1134991Y3416317D02*
D03*
X1235191D02*
D03*
X1173000Y3263600D02*
D03*
X1172600Y3249800D02*
D03*
X1145200Y3257000D02*
D03*
X1284400Y3073800D02*
D03*
X1300800Y3074000D02*
D03*
X1292600Y3085600D02*
D03*
X1243800Y3073800D02*
D03*
X1244000Y3086400D02*
D03*
X1087800Y3256600D02*
D03*
X1348800Y3183400D02*
D03*
X1343200Y3285800D02*
D03*
X1359800D02*
D03*
X1376400D02*
D03*
X1446000Y3287000D02*
D03*
Y3270400D02*
D03*
X1459000D02*
D03*
Y3287000D02*
D03*
X1428600Y3098200D02*
D03*
Y3081600D02*
D03*
X1504800Y3099600D02*
D03*
Y3083000D02*
D03*
X1377600Y3097800D02*
D03*
Y3081200D02*
D03*
X1546000Y3099200D02*
D03*
Y3082600D02*
D03*
X1456335Y3225930D02*
D03*
X1504800Y3116048D02*
D03*
Y3132648D02*
D03*
X1502908Y3344976D02*
D03*
X1486308D02*
D03*
X1392091Y3358224D02*
D03*
X1408691D02*
D03*
X1343291D02*
D03*
X1359891D02*
D03*
X1513691Y3408624D02*
D03*
X1530291D02*
D03*
X1339691Y3514224D02*
D03*
X1356291D02*
D03*
X1415858Y3490549D02*
D03*
X1382858Y3492349D02*
D03*
X790058Y3424549D02*
D03*
X791058Y3354749D02*
D03*
X667415Y2956687D02*
D03*
X642400Y3005400D02*
D03*
X592600D02*
D03*
X609200D02*
D03*
X625800D02*
D03*
X659000D02*
D03*
X721458Y3000149D02*
D03*
X749218Y3055244D02*
D03*
X735018Y3054844D02*
D03*
X790000Y3055800D02*
D03*
X629200Y3124400D02*
D03*
X645000Y3125200D02*
D03*
X659400Y3125600D02*
D03*
X653600Y3208200D02*
D03*
X653400Y3195600D02*
D03*
X685200Y3228600D02*
D03*
X699400D02*
D03*
X793600Y3466600D02*
D03*
X822400Y3472800D02*
D03*
X726200Y3465600D02*
D03*
X655200Y3509300D02*
D03*
X574600Y3453400D02*
D03*
X524600Y3426600D02*
D03*
X440400Y3334400D02*
D03*
X457800Y3291800D02*
D03*
X469400Y3291200D02*
D03*
X417000Y3427800D02*
D03*
X429600Y3427200D02*
D03*
X445200Y3243000D02*
D03*
X503600Y3159000D02*
D03*
X584400Y3184200D02*
D03*
X573800Y3125400D02*
D03*
X470400Y3103800D02*
D03*
X496800Y3102400D02*
D03*
X330600Y3436600D02*
D03*
X435800Y3500400D02*
D03*
X255800Y3487600D02*
D03*
X257400Y3534000D02*
D03*
X297800Y3497800D02*
D03*
X277600Y3325000D02*
D03*
X278800Y3293600D02*
D03*
X373800Y3298000D02*
D03*
X317800Y3238200D02*
D03*
X297800Y3137200D02*
D03*
Y3149600D02*
D03*
X333400Y3133400D02*
D03*
X304000Y3332000D02*
D03*
X306000Y3436200D02*
D03*
X222190Y3540300D02*
D03*
X225400Y3529800D02*
D03*
X268800Y3534000D02*
D03*
X159000Y3544400D02*
D03*
X165600Y3296000D02*
D03*
X168800Y3246000D02*
D03*
X211800Y3424800D02*
D03*
X216600Y3282400D02*
D03*
X238000Y3201400D02*
D03*
X205400Y3225400D02*
D03*
X111000Y3129400D02*
D03*
X125400Y3129200D02*
D03*
X184400Y3115400D02*
D03*
X199400Y3115600D02*
D03*
X108600Y3241400D02*
D03*
X114000Y3429600D02*
D03*
X169000Y3234800D02*
D03*
X672000Y3125200D02*
D03*
X398130Y3409800D02*
D03*
X1401600Y2700600D02*
D03*
X1456000Y2519400D02*
D03*
X1292200Y2680200D02*
D03*
X1033600Y2677400D02*
D03*
X1173400Y2553400D02*
D03*
X1014000D02*
D03*
X1033400Y2455600D02*
D03*
X1240400Y2796400D02*
D03*
X1321600Y2480000D02*
D03*
X443700Y2487400D02*
D03*
X512000Y2364600D02*
D03*
X404400Y2517800D02*
D03*
X190200Y2674800D02*
D03*
X189800Y2520000D02*
D03*
X212200Y2795400D02*
D03*
X228200Y2392400D02*
D03*
X611000Y2358600D02*
D03*
X802800Y2413200D02*
D03*
X769800Y2453800D02*
D03*
X438600Y2795600D02*
D03*
X1033800Y2352400D02*
D03*
X815200Y2413200D02*
D03*
X229815Y2241287D02*
D03*
X213215D02*
D03*
X196615D02*
D03*
X180015D02*
D03*
X163415D02*
D03*
X147200Y2241200D02*
D03*
X130600D02*
D03*
X114000D02*
D03*
X97400D02*
D03*
X80800D02*
D03*
X64200D02*
D03*
X395430Y2241375D02*
D03*
X378830D02*
D03*
X362230D02*
D03*
X345630D02*
D03*
X329030D02*
D03*
X312815Y2241287D02*
D03*
X296215D02*
D03*
X279615D02*
D03*
X263015D02*
D03*
X246415D02*
D03*
X982415Y2226687D02*
D03*
X965815D02*
D03*
X949215D02*
D03*
X932615D02*
D03*
X916015D02*
D03*
X899800D02*
D03*
X883200D02*
D03*
X866600D02*
D03*
X850000D02*
D03*
X833400D02*
D03*
X816800D02*
D03*
X684015D02*
D03*
X650815D02*
D03*
X634215D02*
D03*
X617615D02*
D03*
X601400D02*
D03*
X584800D02*
D03*
X568200D02*
D03*
X551600D02*
D03*
X535000D02*
D03*
X518400D02*
D03*
X1222615D02*
D03*
X1206015D02*
D03*
X1189415D02*
D03*
X1172815D02*
D03*
X1156215D02*
D03*
X1140000D02*
D03*
X1123400D02*
D03*
X1106800D02*
D03*
X1090200D02*
D03*
X1073600D02*
D03*
X1057000D02*
D03*
X1475215D02*
D03*
X1458615D02*
D03*
X1442015D02*
D03*
X1425415D02*
D03*
X1408815D02*
D03*
X1392600D02*
D03*
X1376000D02*
D03*
X1359400D02*
D03*
X1342800D02*
D03*
X1326200D02*
D03*
X1309600D02*
D03*
X32113Y2772815D02*
D03*
Y2756215D02*
D03*
Y2739615D02*
D03*
Y2723015D02*
D03*
Y2706415D02*
D03*
Y2690200D02*
D03*
Y2673600D02*
D03*
Y2657000D02*
D03*
Y2640400D02*
D03*
Y2623800D02*
D03*
Y2607200D02*
D03*
Y2524615D02*
D03*
Y2508015D02*
D03*
Y2491415D02*
D03*
Y2474815D02*
D03*
Y2458215D02*
D03*
Y2442000D02*
D03*
Y2425400D02*
D03*
Y2408800D02*
D03*
Y2392200D02*
D03*
Y2375600D02*
D03*
Y2359000D02*
D03*
X218185Y2880313D02*
D03*
X234785D02*
D03*
X251385D02*
D03*
X267985D02*
D03*
X284585D02*
D03*
X300800D02*
D03*
X317400D02*
D03*
X334000D02*
D03*
X350600D02*
D03*
X367200D02*
D03*
X383800D02*
D03*
X544385D02*
D03*
X560985D02*
D03*
X577585D02*
D03*
X594185D02*
D03*
X610785D02*
D03*
X627000D02*
D03*
X643600D02*
D03*
X660200D02*
D03*
X676800D02*
D03*
X693400D02*
D03*
X710000D02*
D03*
X835985D02*
D03*
X852585D02*
D03*
X869185D02*
D03*
X885785D02*
D03*
X902385D02*
D03*
X918600D02*
D03*
X935200D02*
D03*
X951800D02*
D03*
X968400D02*
D03*
X985000D02*
D03*
X1001600D02*
D03*
X1129185D02*
D03*
X1145785D02*
D03*
X1162385D02*
D03*
X1178985D02*
D03*
X1195585D02*
D03*
X1211800D02*
D03*
X1228400D02*
D03*
X1245000D02*
D03*
X1261600D02*
D03*
X1278200D02*
D03*
X1294800D02*
D03*
X979400Y2714000D02*
D03*
X962800D02*
D03*
X946200D02*
D03*
X929600D02*
D03*
X849200Y2680000D02*
D03*
X1173600Y2637000D02*
D03*
X1190200D02*
D03*
X1206800D02*
D03*
X1223400D02*
D03*
X849600Y2581200D02*
D03*
X851000Y2630000D02*
D03*
X850200Y2530000D02*
D03*
X849600Y2480400D02*
D03*
X849400Y2429000D02*
D03*
X923800Y2361200D02*
D03*
X907200D02*
D03*
X890600D02*
D03*
X874000D02*
D03*
X857400D02*
D03*
X1193000Y2347400D02*
D03*
X1176400D02*
D03*
X1159800D02*
D03*
X934000Y2464600D02*
D03*
X951200D02*
D03*
X964800Y2513200D02*
D03*
X964600Y2532600D02*
D03*
X987400Y2535000D02*
D03*
X987600Y2508800D02*
D03*
X987400Y2467400D02*
D03*
X1023800Y2408000D02*
D03*
Y2481000D02*
D03*
Y2635200D02*
D03*
X979800Y2634200D02*
D03*
X969200Y2652400D02*
D03*
X942000Y2524000D02*
D03*
X942200Y2509200D02*
D03*
X1062600Y2378800D02*
D03*
X1079200D02*
D03*
X1095800D02*
D03*
X788800Y2447600D02*
D03*
X837200Y2428400D02*
D03*
X790200Y2534600D02*
D03*
X926000Y2560800D02*
D03*
X925905Y2575847D02*
D03*
X929105Y2611647D02*
D03*
X928505Y2624447D02*
D03*
X923505Y2657247D02*
D03*
X924305Y2673447D02*
D03*
X945705Y2663447D02*
D03*
X1046400Y2712600D02*
D03*
X1057600D02*
D03*
X1050591Y2634517D02*
D03*
X1072391Y2634317D02*
D03*
X1135005Y2664676D02*
D03*
X1134991Y2686317D02*
D03*
X1235191D02*
D03*
X1173000Y2533600D02*
D03*
X1172600Y2519800D02*
D03*
X1145200Y2527000D02*
D03*
X1284400Y2343800D02*
D03*
X1300800Y2344000D02*
D03*
X1292600Y2355600D02*
D03*
X1243800Y2343800D02*
D03*
X1244000Y2356400D02*
D03*
X1087800Y2526600D02*
D03*
X1348800Y2453400D02*
D03*
X1343200Y2555800D02*
D03*
X1359800D02*
D03*
X1376400D02*
D03*
X1446000Y2557000D02*
D03*
Y2540400D02*
D03*
X1459000D02*
D03*
Y2557000D02*
D03*
X1428600Y2368200D02*
D03*
Y2351600D02*
D03*
X1504800Y2369600D02*
D03*
Y2353000D02*
D03*
X1377600Y2367800D02*
D03*
Y2351200D02*
D03*
X1546000Y2369200D02*
D03*
Y2352600D02*
D03*
X1456335Y2495930D02*
D03*
X1504800Y2386048D02*
D03*
Y2402648D02*
D03*
X1502908Y2614976D02*
D03*
X1486308D02*
D03*
X1392091Y2628224D02*
D03*
X1408691D02*
D03*
X1343291D02*
D03*
X1359891D02*
D03*
X1513691Y2678624D02*
D03*
X1530291D02*
D03*
X1339691Y2784225D02*
D03*
X1356291D02*
D03*
X1415858Y2760549D02*
D03*
X1382858Y2762349D02*
D03*
X790058Y2694549D02*
D03*
X791058Y2624749D02*
D03*
X667415Y2226687D02*
D03*
X642400Y2275400D02*
D03*
X592600D02*
D03*
X609200D02*
D03*
X625800D02*
D03*
X659000D02*
D03*
X721458Y2270149D02*
D03*
X749218Y2325244D02*
D03*
X735018Y2324844D02*
D03*
X790000Y2325800D02*
D03*
X629200Y2394400D02*
D03*
X645000Y2395200D02*
D03*
X659400Y2395600D02*
D03*
X653600Y2478200D02*
D03*
X653400Y2465600D02*
D03*
X685200Y2498600D02*
D03*
X699400D02*
D03*
X793600Y2736600D02*
D03*
X822400Y2742800D02*
D03*
X726200Y2735600D02*
D03*
X655200Y2779300D02*
D03*
X574600Y2723400D02*
D03*
X524600Y2696600D02*
D03*
X440400Y2604400D02*
D03*
X457800Y2561800D02*
D03*
X469400Y2561200D02*
D03*
X417000Y2697800D02*
D03*
X429600Y2697200D02*
D03*
X445200Y2513000D02*
D03*
X503600Y2429000D02*
D03*
X584400Y2454200D02*
D03*
X573800Y2395400D02*
D03*
X470400Y2373800D02*
D03*
X496800Y2372400D02*
D03*
X330600Y2706600D02*
D03*
X435800Y2770400D02*
D03*
X255800Y2757600D02*
D03*
X257400Y2804000D02*
D03*
X297800Y2767800D02*
D03*
X277600Y2595000D02*
D03*
X278800Y2563600D02*
D03*
X373800Y2568000D02*
D03*
X317800Y2508200D02*
D03*
X297800Y2407200D02*
D03*
Y2419600D02*
D03*
X333400Y2403400D02*
D03*
X304000Y2602000D02*
D03*
X306000Y2706200D02*
D03*
X222190Y2810300D02*
D03*
X225400Y2799800D02*
D03*
X268800Y2804000D02*
D03*
X159000Y2814400D02*
D03*
X165600Y2566000D02*
D03*
X168800Y2516000D02*
D03*
X211800Y2694800D02*
D03*
X216600Y2552400D02*
D03*
X238000Y2471400D02*
D03*
X205400Y2495400D02*
D03*
X111000Y2399400D02*
D03*
X125400Y2399200D02*
D03*
X184400Y2385400D02*
D03*
X199400Y2385600D02*
D03*
X108600Y2511400D02*
D03*
X114000Y2699600D02*
D03*
X169000Y2504800D02*
D03*
X672000Y2395200D02*
D03*
X398130Y2679800D02*
D03*
X1401600Y1970600D02*
D03*
X1456000Y1789400D02*
D03*
X1292200Y1950200D02*
D03*
X1033600Y1947400D02*
D03*
X1173400Y1823400D02*
D03*
X1014000D02*
D03*
X1033400Y1725600D02*
D03*
X1240400Y2066400D02*
D03*
X1321600Y1750000D02*
D03*
X443700Y1757400D02*
D03*
X512000Y1634600D02*
D03*
X404400Y1787800D02*
D03*
X190200Y1944800D02*
D03*
X189800Y1790000D02*
D03*
X212200Y2065400D02*
D03*
X228200Y1662400D02*
D03*
X611000Y1628600D02*
D03*
X802800Y1683200D02*
D03*
X769800Y1723800D02*
D03*
X438600Y2065600D02*
D03*
X1033800Y1622400D02*
D03*
X815200Y1683200D02*
D03*
X229815Y1511287D02*
D03*
X213215D02*
D03*
X196615D02*
D03*
X180015D02*
D03*
X163415D02*
D03*
X147200Y1511200D02*
D03*
X130600D02*
D03*
X114000D02*
D03*
X97400D02*
D03*
X80800D02*
D03*
X64200D02*
D03*
X395430Y1511375D02*
D03*
X378830D02*
D03*
X362230D02*
D03*
X345630D02*
D03*
X329030D02*
D03*
X312815Y1511287D02*
D03*
X296215D02*
D03*
X279615D02*
D03*
X263015D02*
D03*
X246415D02*
D03*
X982415Y1496687D02*
D03*
X965815D02*
D03*
X949215D02*
D03*
X932615D02*
D03*
X916015D02*
D03*
X899800D02*
D03*
X883200D02*
D03*
X866600D02*
D03*
X850000D02*
D03*
X833400D02*
D03*
X816800D02*
D03*
X684015D02*
D03*
X650815D02*
D03*
X634215D02*
D03*
X617615D02*
D03*
X601400D02*
D03*
X584800D02*
D03*
X568200D02*
D03*
X551600D02*
D03*
X535000D02*
D03*
X518400D02*
D03*
X1222615D02*
D03*
X1206015D02*
D03*
X1189415D02*
D03*
X1172815D02*
D03*
X1156215D02*
D03*
X1140000D02*
D03*
X1123400D02*
D03*
X1106800D02*
D03*
X1090200D02*
D03*
X1073600D02*
D03*
X1057000D02*
D03*
X1475215D02*
D03*
X1458615D02*
D03*
X1442015D02*
D03*
X1425415D02*
D03*
X1408815D02*
D03*
X1392600D02*
D03*
X1376000D02*
D03*
X1359400D02*
D03*
X1342800D02*
D03*
X1326200D02*
D03*
X1309600D02*
D03*
X32113Y2042815D02*
D03*
Y2026215D02*
D03*
Y2009615D02*
D03*
Y1993015D02*
D03*
Y1976415D02*
D03*
Y1960200D02*
D03*
Y1943600D02*
D03*
Y1927000D02*
D03*
Y1910400D02*
D03*
Y1893800D02*
D03*
Y1877200D02*
D03*
Y1794615D02*
D03*
Y1778015D02*
D03*
Y1761415D02*
D03*
Y1744815D02*
D03*
Y1728215D02*
D03*
Y1712000D02*
D03*
Y1695400D02*
D03*
Y1678800D02*
D03*
Y1662200D02*
D03*
Y1645600D02*
D03*
Y1629000D02*
D03*
X218185Y2150313D02*
D03*
X234785D02*
D03*
X251385D02*
D03*
X267985D02*
D03*
X284585D02*
D03*
X300800D02*
D03*
X317400D02*
D03*
X334000D02*
D03*
X350600D02*
D03*
X367200D02*
D03*
X383800D02*
D03*
X544385D02*
D03*
X560985D02*
D03*
X577585D02*
D03*
X594185D02*
D03*
X610785D02*
D03*
X627000D02*
D03*
X643600D02*
D03*
X660200D02*
D03*
X676800D02*
D03*
X693400D02*
D03*
X710000D02*
D03*
X835985D02*
D03*
X852585D02*
D03*
X869185D02*
D03*
X885785D02*
D03*
X902385D02*
D03*
X918600D02*
D03*
X935200D02*
D03*
X951800D02*
D03*
X968400D02*
D03*
X985000D02*
D03*
X1001600D02*
D03*
X1129185D02*
D03*
X1145785D02*
D03*
X1162385D02*
D03*
X1178985D02*
D03*
X1195585D02*
D03*
X1211800D02*
D03*
X1228400D02*
D03*
X1245000D02*
D03*
X1261600D02*
D03*
X1278200D02*
D03*
X1294800D02*
D03*
X979400Y1984000D02*
D03*
X962800D02*
D03*
X946200D02*
D03*
X929600D02*
D03*
X849200Y1950000D02*
D03*
X1173600Y1907000D02*
D03*
X1190200D02*
D03*
X1206800D02*
D03*
X1223400D02*
D03*
X849600Y1851200D02*
D03*
X851000Y1900000D02*
D03*
X850200Y1800000D02*
D03*
X849600Y1750400D02*
D03*
X849400Y1699000D02*
D03*
X923800Y1631200D02*
D03*
X907200D02*
D03*
X890600D02*
D03*
X874000D02*
D03*
X857400D02*
D03*
X1193000Y1617400D02*
D03*
X1176400D02*
D03*
X1159800D02*
D03*
X934000Y1734600D02*
D03*
X951200D02*
D03*
X964800Y1783200D02*
D03*
X964600Y1802600D02*
D03*
X987400Y1805000D02*
D03*
X987600Y1778800D02*
D03*
X987400Y1737400D02*
D03*
X1023800Y1678000D02*
D03*
Y1751000D02*
D03*
Y1905200D02*
D03*
X979800Y1904200D02*
D03*
X969200Y1922400D02*
D03*
X942000Y1794000D02*
D03*
X942200Y1779200D02*
D03*
X1062600Y1648800D02*
D03*
X1079200D02*
D03*
X1095800D02*
D03*
X788800Y1717600D02*
D03*
X837200Y1698400D02*
D03*
X790200Y1804600D02*
D03*
X926000Y1830800D02*
D03*
X925905Y1845847D02*
D03*
X929105Y1881647D02*
D03*
X928505Y1894447D02*
D03*
X923505Y1927247D02*
D03*
X924305Y1943447D02*
D03*
X945705Y1933447D02*
D03*
X1046400Y1982600D02*
D03*
X1057600D02*
D03*
X1050591Y1904517D02*
D03*
X1072391Y1904317D02*
D03*
X1135005Y1934676D02*
D03*
X1134991Y1956317D02*
D03*
X1235191D02*
D03*
X1173000Y1803600D02*
D03*
X1172600Y1789800D02*
D03*
X1145200Y1797000D02*
D03*
X1284400Y1613800D02*
D03*
X1300800Y1614000D02*
D03*
X1292600Y1625600D02*
D03*
X1243800Y1613800D02*
D03*
X1244000Y1626400D02*
D03*
X1087800Y1796600D02*
D03*
X1348800Y1723400D02*
D03*
X1343200Y1825800D02*
D03*
X1359800D02*
D03*
X1376400D02*
D03*
X1446000Y1827000D02*
D03*
Y1810400D02*
D03*
X1459000D02*
D03*
Y1827000D02*
D03*
X1428600Y1638200D02*
D03*
Y1621600D02*
D03*
X1504800Y1639600D02*
D03*
Y1623000D02*
D03*
X1377600Y1637800D02*
D03*
Y1621200D02*
D03*
X1546000Y1639200D02*
D03*
Y1622600D02*
D03*
X1456336Y1765930D02*
D03*
X1504800Y1656048D02*
D03*
Y1672648D02*
D03*
X1502908Y1884976D02*
D03*
X1486308D02*
D03*
X1392091Y1898224D02*
D03*
X1408691D02*
D03*
X1343291D02*
D03*
X1359891D02*
D03*
X1513691Y1948624D02*
D03*
X1530291D02*
D03*
X1339691Y2054224D02*
D03*
X1356291D02*
D03*
X1415858Y2030549D02*
D03*
X1382858Y2032349D02*
D03*
X790058Y1964549D02*
D03*
X791058Y1894749D02*
D03*
X667415Y1496687D02*
D03*
X642400Y1545400D02*
D03*
X592600D02*
D03*
X609200D02*
D03*
X625800D02*
D03*
X659000D02*
D03*
X721458Y1540149D02*
D03*
X749218Y1595244D02*
D03*
X735018Y1594844D02*
D03*
X790000Y1595800D02*
D03*
X629200Y1664400D02*
D03*
X645000Y1665200D02*
D03*
X659400Y1665600D02*
D03*
X653600Y1748200D02*
D03*
X653400Y1735600D02*
D03*
X685200Y1768600D02*
D03*
X699400D02*
D03*
X793600Y2006600D02*
D03*
X822400Y2012800D02*
D03*
X726200Y2005600D02*
D03*
X655200Y2049300D02*
D03*
X574600Y1993400D02*
D03*
X524600Y1966600D02*
D03*
X440400Y1874400D02*
D03*
X457800Y1831800D02*
D03*
X469400Y1831200D02*
D03*
X417000Y1967800D02*
D03*
X429600Y1967200D02*
D03*
X445200Y1783000D02*
D03*
X503600Y1699000D02*
D03*
X584400Y1724200D02*
D03*
X573800Y1665400D02*
D03*
X470400Y1643800D02*
D03*
X496800Y1642400D02*
D03*
X330600Y1976600D02*
D03*
X435800Y2040400D02*
D03*
X255800Y2027600D02*
D03*
X257400Y2074000D02*
D03*
X297800Y2037800D02*
D03*
X277600Y1865000D02*
D03*
X278800Y1833600D02*
D03*
X373800Y1838000D02*
D03*
X317800Y1778200D02*
D03*
X297800Y1677200D02*
D03*
Y1689600D02*
D03*
X333400Y1673400D02*
D03*
X304000Y1872000D02*
D03*
X306000Y1976200D02*
D03*
X222190Y2080300D02*
D03*
X225400Y2069800D02*
D03*
X268800Y2074000D02*
D03*
X159000Y2084400D02*
D03*
X165600Y1836000D02*
D03*
X168800Y1786000D02*
D03*
X211800Y1964800D02*
D03*
X216600Y1822400D02*
D03*
X238000Y1741400D02*
D03*
X205400Y1765400D02*
D03*
X111000Y1669400D02*
D03*
X125400Y1669200D02*
D03*
X184400Y1655400D02*
D03*
X199400Y1655600D02*
D03*
X108600Y1781400D02*
D03*
X114000Y1969600D02*
D03*
X169000Y1774800D02*
D03*
X672000Y1665200D02*
D03*
X398130Y1949800D02*
D03*
X1401600Y1240600D02*
D03*
X1456000Y1059400D02*
D03*
X1292200Y1220200D02*
D03*
X1033600Y1217400D02*
D03*
X1173400Y1093400D02*
D03*
X1014000D02*
D03*
X1033400Y995600D02*
D03*
X1240400Y1336400D02*
D03*
X1321600Y1020000D02*
D03*
X443700Y1027400D02*
D03*
X512000Y904600D02*
D03*
X404400Y1057800D02*
D03*
X190200Y1214800D02*
D03*
X189800Y1060000D02*
D03*
X212200Y1335400D02*
D03*
X228200Y932400D02*
D03*
X611000Y898600D02*
D03*
X802800Y953200D02*
D03*
X769800Y993800D02*
D03*
X438600Y1335600D02*
D03*
X1033800Y892400D02*
D03*
X815200Y953200D02*
D03*
X229815Y781287D02*
D03*
X213215D02*
D03*
X196615D02*
D03*
X180015D02*
D03*
X163415D02*
D03*
X147200Y781200D02*
D03*
X130600D02*
D03*
X114000D02*
D03*
X97400D02*
D03*
X80800D02*
D03*
X64200D02*
D03*
X395430Y781375D02*
D03*
X378830D02*
D03*
X362230D02*
D03*
X345630D02*
D03*
X329030D02*
D03*
X312815Y781287D02*
D03*
X296215D02*
D03*
X279615D02*
D03*
X263015D02*
D03*
X246415D02*
D03*
X982415Y766687D02*
D03*
X965815D02*
D03*
X949215D02*
D03*
X932615D02*
D03*
X916015D02*
D03*
X899800D02*
D03*
X883200D02*
D03*
X866600D02*
D03*
X850000D02*
D03*
X833400D02*
D03*
X816800D02*
D03*
X684015D02*
D03*
X650815D02*
D03*
X634215D02*
D03*
X617615D02*
D03*
X601400D02*
D03*
X584800D02*
D03*
X568200D02*
D03*
X551600D02*
D03*
X535000D02*
D03*
X518400D02*
D03*
X1222615D02*
D03*
X1206015D02*
D03*
X1189415D02*
D03*
X1172815D02*
D03*
X1156215D02*
D03*
X1140000D02*
D03*
X1123400D02*
D03*
X1106800D02*
D03*
X1090200D02*
D03*
X1073600D02*
D03*
X1057000D02*
D03*
X1475215D02*
D03*
X1458615D02*
D03*
X1442015D02*
D03*
X1425415D02*
D03*
X1408815D02*
D03*
X1392600D02*
D03*
X1376000D02*
D03*
X1359400D02*
D03*
X1342800D02*
D03*
X1326200D02*
D03*
X1309600D02*
D03*
X32113Y1312815D02*
D03*
Y1296215D02*
D03*
Y1279615D02*
D03*
Y1263015D02*
D03*
Y1246415D02*
D03*
Y1230200D02*
D03*
Y1213600D02*
D03*
Y1197000D02*
D03*
Y1180400D02*
D03*
Y1163800D02*
D03*
Y1147200D02*
D03*
Y1064615D02*
D03*
Y1048015D02*
D03*
Y1031415D02*
D03*
Y1014815D02*
D03*
Y998215D02*
D03*
Y982000D02*
D03*
Y965400D02*
D03*
Y948800D02*
D03*
Y932200D02*
D03*
Y915600D02*
D03*
Y899000D02*
D03*
X218185Y1420313D02*
D03*
X234785D02*
D03*
X251385D02*
D03*
X267985D02*
D03*
X284585D02*
D03*
X300800D02*
D03*
X317400D02*
D03*
X334000D02*
D03*
X350600D02*
D03*
X367200D02*
D03*
X383800D02*
D03*
X544385D02*
D03*
X560985D02*
D03*
X577585D02*
D03*
X594185D02*
D03*
X610785D02*
D03*
X627000D02*
D03*
X643600D02*
D03*
X660200D02*
D03*
X676800D02*
D03*
X693400D02*
D03*
X710000D02*
D03*
X835985D02*
D03*
X852585D02*
D03*
X869185D02*
D03*
X885785D02*
D03*
X902385D02*
D03*
X918600D02*
D03*
X935200D02*
D03*
X951800D02*
D03*
X968400D02*
D03*
X985000D02*
D03*
X1001600D02*
D03*
X1129185D02*
D03*
X1145785D02*
D03*
X1162385D02*
D03*
X1178985D02*
D03*
X1195585D02*
D03*
X1211800D02*
D03*
X1228400D02*
D03*
X1245000D02*
D03*
X1261600D02*
D03*
X1278200D02*
D03*
X1294800D02*
D03*
X979400Y1254000D02*
D03*
X962800D02*
D03*
X946200D02*
D03*
X929600D02*
D03*
X849200Y1220000D02*
D03*
X1173600Y1177000D02*
D03*
X1190200D02*
D03*
X1206800D02*
D03*
X1223400D02*
D03*
X849600Y1121200D02*
D03*
X851000Y1170000D02*
D03*
X850200Y1070000D02*
D03*
X849600Y1020400D02*
D03*
X849400Y969000D02*
D03*
X923800Y901200D02*
D03*
X907200D02*
D03*
X890600D02*
D03*
X874000D02*
D03*
X857400D02*
D03*
X1193000Y887400D02*
D03*
X1176400D02*
D03*
X1159800D02*
D03*
X934000Y1004600D02*
D03*
X951200D02*
D03*
X964800Y1053200D02*
D03*
X964600Y1072600D02*
D03*
X987400Y1075000D02*
D03*
X987600Y1048800D02*
D03*
X987400Y1007400D02*
D03*
X1023800Y948000D02*
D03*
Y1021000D02*
D03*
Y1175200D02*
D03*
X979800Y1174200D02*
D03*
X969200Y1192400D02*
D03*
X942000Y1064000D02*
D03*
X942200Y1049200D02*
D03*
X1062600Y918800D02*
D03*
X1079200D02*
D03*
X1095800D02*
D03*
X788800Y987600D02*
D03*
X837200Y968400D02*
D03*
X790200Y1074600D02*
D03*
X926000Y1100800D02*
D03*
X925905Y1115847D02*
D03*
X929105Y1151647D02*
D03*
X928505Y1164447D02*
D03*
X923505Y1197247D02*
D03*
X924305Y1213447D02*
D03*
X945705Y1203447D02*
D03*
X1046400Y1252600D02*
D03*
X1057600D02*
D03*
X1050591Y1174517D02*
D03*
X1072391Y1174317D02*
D03*
X1135005Y1204676D02*
D03*
X1134991Y1226317D02*
D03*
X1235191D02*
D03*
X1173000Y1073600D02*
D03*
X1172600Y1059800D02*
D03*
X1145200Y1067000D02*
D03*
X1284400Y883800D02*
D03*
X1300800Y884000D02*
D03*
X1292600Y895600D02*
D03*
X1243800Y883800D02*
D03*
X1244000Y896400D02*
D03*
X1087800Y1066600D02*
D03*
X1348800Y993400D02*
D03*
X1343200Y1095800D02*
D03*
X1359800D02*
D03*
X1376400D02*
D03*
X1446000Y1097000D02*
D03*
Y1080400D02*
D03*
X1459000D02*
D03*
Y1097000D02*
D03*
X1428600Y908200D02*
D03*
Y891600D02*
D03*
X1504800Y909600D02*
D03*
Y893000D02*
D03*
X1377600Y907800D02*
D03*
Y891200D02*
D03*
X1546000Y909200D02*
D03*
Y892600D02*
D03*
X1456336Y1035930D02*
D03*
X1504800Y926048D02*
D03*
Y942648D02*
D03*
X1502909Y1154976D02*
D03*
X1486309D02*
D03*
X1392091Y1168224D02*
D03*
X1408691D02*
D03*
X1343291D02*
D03*
X1359891D02*
D03*
X1513691Y1218624D02*
D03*
X1530291D02*
D03*
X1339691Y1324224D02*
D03*
X1356291D02*
D03*
X1415858Y1300549D02*
D03*
X1382858Y1302349D02*
D03*
X790058Y1234549D02*
D03*
X791058Y1164749D02*
D03*
X667415Y766687D02*
D03*
X642400Y815400D02*
D03*
X592600D02*
D03*
X609200D02*
D03*
X625800D02*
D03*
X659000D02*
D03*
X721458Y810149D02*
D03*
X749218Y865244D02*
D03*
X735018Y864844D02*
D03*
X790000Y865800D02*
D03*
X629200Y934400D02*
D03*
X645000Y935200D02*
D03*
X659400Y935600D02*
D03*
X653600Y1018200D02*
D03*
X653400Y1005600D02*
D03*
X685200Y1038600D02*
D03*
X699400D02*
D03*
X793600Y1276600D02*
D03*
X822400Y1282800D02*
D03*
X726200Y1275600D02*
D03*
X655200Y1319300D02*
D03*
X574600Y1263400D02*
D03*
X524600Y1236600D02*
D03*
X440400Y1144400D02*
D03*
X457800Y1101800D02*
D03*
X469400Y1101200D02*
D03*
X417000Y1237800D02*
D03*
X429600Y1237200D02*
D03*
X445200Y1053000D02*
D03*
X503600Y969000D02*
D03*
X584400Y994200D02*
D03*
X573800Y935400D02*
D03*
X470400Y913800D02*
D03*
X496800Y912400D02*
D03*
X330600Y1246600D02*
D03*
X435800Y1310400D02*
D03*
X255800Y1297600D02*
D03*
X257400Y1344000D02*
D03*
X297800Y1307800D02*
D03*
X277600Y1135000D02*
D03*
X278800Y1103600D02*
D03*
X373800Y1108000D02*
D03*
X317800Y1048200D02*
D03*
X297800Y947200D02*
D03*
Y959600D02*
D03*
X333400Y943400D02*
D03*
X304000Y1142000D02*
D03*
X306000Y1246200D02*
D03*
X222190Y1350300D02*
D03*
X225400Y1339800D02*
D03*
X268800Y1344000D02*
D03*
X159000Y1354400D02*
D03*
X165600Y1106000D02*
D03*
X168800Y1056000D02*
D03*
X211800Y1234800D02*
D03*
X216600Y1092400D02*
D03*
X238000Y1011400D02*
D03*
X205400Y1035400D02*
D03*
X111000Y939400D02*
D03*
X125400Y939200D02*
D03*
X184400Y925400D02*
D03*
X199400Y925600D02*
D03*
X108600Y1051400D02*
D03*
X114000Y1239600D02*
D03*
X169000Y1044800D02*
D03*
X672000Y935200D02*
D03*
X398130Y1219800D02*
D03*
X398130Y489800D02*
D03*
X672000Y205200D02*
D03*
X169000Y314800D02*
D03*
X114000Y509600D02*
D03*
X108600Y321400D02*
D03*
X199400Y195600D02*
D03*
X184400Y195400D02*
D03*
X125400Y209200D02*
D03*
X111000Y209400D02*
D03*
X205400Y305400D02*
D03*
X238000Y281400D02*
D03*
X216600Y362400D02*
D03*
X211800Y504800D02*
D03*
X168800Y326000D02*
D03*
X165600Y376000D02*
D03*
X159000Y624400D02*
D03*
X268800Y614000D02*
D03*
X225400Y609800D02*
D03*
X222190Y620300D02*
D03*
X306000Y516200D02*
D03*
X304000Y412000D02*
D03*
X333400Y213400D02*
D03*
X297800Y229600D02*
D03*
Y217200D02*
D03*
X317800Y318200D02*
D03*
X373800Y378000D02*
D03*
X278800Y373600D02*
D03*
X277600Y405000D02*
D03*
X297800Y577800D02*
D03*
X257400Y614000D02*
D03*
X255800Y567600D02*
D03*
X435800Y580400D02*
D03*
X330600Y516600D02*
D03*
X496800Y182400D02*
D03*
X470400Y183800D02*
D03*
X573800Y205400D02*
D03*
X584400Y264200D02*
D03*
X503600Y239000D02*
D03*
X445200Y323000D02*
D03*
X429600Y507200D02*
D03*
X417000Y507800D02*
D03*
X469400Y371200D02*
D03*
X457800Y371800D02*
D03*
X440400Y414400D02*
D03*
X524600Y506600D02*
D03*
X574600Y533400D02*
D03*
X655200Y589300D02*
D03*
X726200Y545600D02*
D03*
X822400Y552800D02*
D03*
X793600Y546600D02*
D03*
X699400Y308600D02*
D03*
X685200D02*
D03*
X653400Y275600D02*
D03*
X653600Y288200D02*
D03*
X659400Y205600D02*
D03*
X645000Y205200D02*
D03*
X629200Y204400D02*
D03*
X790000Y135800D02*
D03*
X735018Y134844D02*
D03*
X749218Y135244D02*
D03*
X721458Y80149D02*
D03*
X659000Y85400D02*
D03*
X625800D02*
D03*
X609200D02*
D03*
X592600D02*
D03*
X642400D02*
D03*
X667415Y36687D02*
D03*
X791058Y434749D02*
D03*
X790058Y504549D02*
D03*
X1382858Y572349D02*
D03*
X1415858Y570549D02*
D03*
X1356291Y594224D02*
D03*
X1339691D02*
D03*
X1530291Y488624D02*
D03*
X1513691D02*
D03*
X1359891Y438224D02*
D03*
X1343291D02*
D03*
X1408691D02*
D03*
X1392091D02*
D03*
X1486309Y424976D02*
D03*
X1502909D02*
D03*
X1504800Y212648D02*
D03*
Y196049D02*
D03*
X1456336Y305930D02*
D03*
X1546000Y162600D02*
D03*
Y179200D02*
D03*
X1377600Y161200D02*
D03*
Y177800D02*
D03*
X1504800Y163000D02*
D03*
Y179600D02*
D03*
X1428600Y161600D02*
D03*
Y178200D02*
D03*
X1459000Y367000D02*
D03*
Y350400D02*
D03*
X1446000D02*
D03*
Y367000D02*
D03*
X1376400Y365800D02*
D03*
X1359800D02*
D03*
X1343200D02*
D03*
X1348800Y263400D02*
D03*
X1087800Y336600D02*
D03*
X1244000Y166400D02*
D03*
X1243800Y153800D02*
D03*
X1292600Y165600D02*
D03*
X1300800Y154000D02*
D03*
X1284400Y153800D02*
D03*
X1145200Y337000D02*
D03*
X1172600Y329800D02*
D03*
X1173000Y343600D02*
D03*
X1235191Y496317D02*
D03*
X1134991D02*
D03*
X1135005Y474676D02*
D03*
X1072391Y444317D02*
D03*
X1050591Y444517D02*
D03*
X1057600Y522600D02*
D03*
X1046400D02*
D03*
X945705Y473447D02*
D03*
X924305Y483447D02*
D03*
X923505Y467247D02*
D03*
X928505Y434447D02*
D03*
X929105Y421647D02*
D03*
X925905Y385847D02*
D03*
X926000Y370800D02*
D03*
X790200Y344600D02*
D03*
X837200Y238400D02*
D03*
X788800Y257600D02*
D03*
X1095800Y188800D02*
D03*
X1079200D02*
D03*
X1062600D02*
D03*
X942200Y319200D02*
D03*
X942000Y334000D02*
D03*
X969200Y462400D02*
D03*
X979800Y444200D02*
D03*
X1023800Y445200D02*
D03*
Y291000D02*
D03*
Y218000D02*
D03*
X987400Y277400D02*
D03*
X987600Y318800D02*
D03*
X987400Y345000D02*
D03*
X964600Y342600D02*
D03*
X964800Y323200D02*
D03*
X951200Y274600D02*
D03*
X934000D02*
D03*
X1159800Y157400D02*
D03*
X1176400D02*
D03*
X1193000D02*
D03*
X857400Y171200D02*
D03*
X874000D02*
D03*
X890600D02*
D03*
X907200D02*
D03*
X923800D02*
D03*
X849400Y239000D02*
D03*
X849600Y290400D02*
D03*
X850200Y340000D02*
D03*
X851000Y440000D02*
D03*
X849600Y391200D02*
D03*
X1223400Y447000D02*
D03*
X1206800D02*
D03*
X1190200D02*
D03*
X1173600D02*
D03*
X849200Y490000D02*
D03*
X929600Y524000D02*
D03*
X946200D02*
D03*
X962800D02*
D03*
X979400D02*
D03*
X1294800Y690313D02*
D03*
X1278200D02*
D03*
X1261600D02*
D03*
X1245000D02*
D03*
X1228400D02*
D03*
X1211800D02*
D03*
X1195585D02*
D03*
X1178985D02*
D03*
X1162385D02*
D03*
X1145785D02*
D03*
X1129185D02*
D03*
X1001600D02*
D03*
X985000D02*
D03*
X968400D02*
D03*
X951800D02*
D03*
X935200D02*
D03*
X918600D02*
D03*
X902385D02*
D03*
X885785D02*
D03*
X869185D02*
D03*
X852585D02*
D03*
X835985D02*
D03*
X710000D02*
D03*
X693400D02*
D03*
X676800D02*
D03*
X660200D02*
D03*
X643600D02*
D03*
X627000D02*
D03*
X610785D02*
D03*
X594185D02*
D03*
X577585D02*
D03*
X560985D02*
D03*
X544385D02*
D03*
X383800D02*
D03*
X367200D02*
D03*
X350600D02*
D03*
X334000D02*
D03*
X317400D02*
D03*
X300800D02*
D03*
X284585D02*
D03*
X267985D02*
D03*
X251385D02*
D03*
X234785D02*
D03*
X218185D02*
D03*
X32113Y169000D02*
D03*
Y185600D02*
D03*
Y202200D02*
D03*
Y218800D02*
D03*
Y235400D02*
D03*
Y252000D02*
D03*
Y268215D02*
D03*
Y284815D02*
D03*
Y301415D02*
D03*
Y318015D02*
D03*
Y334615D02*
D03*
Y417200D02*
D03*
Y433800D02*
D03*
Y450400D02*
D03*
Y467000D02*
D03*
Y483600D02*
D03*
Y500200D02*
D03*
Y516415D02*
D03*
Y533015D02*
D03*
Y549615D02*
D03*
Y566215D02*
D03*
Y582815D02*
D03*
X1309600Y36687D02*
D03*
X1326200D02*
D03*
X1342800D02*
D03*
X1359400D02*
D03*
X1376000D02*
D03*
X1392600D02*
D03*
X1408815D02*
D03*
X1425415D02*
D03*
X1442015D02*
D03*
X1458615D02*
D03*
X1475215D02*
D03*
X1057000D02*
D03*
X1073600D02*
D03*
X1090200D02*
D03*
X1106800D02*
D03*
X1123400D02*
D03*
X1140000D02*
D03*
X1156215D02*
D03*
X1172815D02*
D03*
X1189415D02*
D03*
X1206015D02*
D03*
X1222615D02*
D03*
X518400D02*
D03*
X535000D02*
D03*
X551600D02*
D03*
X568200D02*
D03*
X584800D02*
D03*
X601400D02*
D03*
X617615D02*
D03*
X634215D02*
D03*
X650815D02*
D03*
X684015D02*
D03*
X816800D02*
D03*
X833400D02*
D03*
X850000D02*
D03*
X866600D02*
D03*
X883200D02*
D03*
X899800D02*
D03*
X916015D02*
D03*
X932615D02*
D03*
X949215D02*
D03*
X965815D02*
D03*
X982415D02*
D03*
X246415Y51287D02*
D03*
X263015D02*
D03*
X279615D02*
D03*
X296215D02*
D03*
X312815D02*
D03*
X329030Y51375D02*
D03*
X345630D02*
D03*
X362230D02*
D03*
X378830D02*
D03*
X395430D02*
D03*
X64200Y51200D02*
D03*
X80800D02*
D03*
X97400D02*
D03*
X114000D02*
D03*
X130600D02*
D03*
X147200D02*
D03*
X163415Y51287D02*
D03*
X180015D02*
D03*
X196615D02*
D03*
X213215D02*
D03*
X229815D02*
D03*
X815200Y223200D02*
D03*
X1033800Y162400D02*
D03*
X438600Y605600D02*
D03*
X769800Y263800D02*
D03*
X802800Y223200D02*
D03*
X611000Y168600D02*
D03*
X228200Y202400D02*
D03*
X212200Y605400D02*
D03*
X189800Y330000D02*
D03*
X190200Y484800D02*
D03*
X404400Y327800D02*
D03*
X512000Y174600D02*
D03*
X443700Y297400D02*
D03*
X1321600Y290000D02*
D03*
X1240400Y606400D02*
D03*
X1033400Y265600D02*
D03*
X1014000Y363400D02*
D03*
X1173400D02*
D03*
X1033600Y487400D02*
D03*
X1292200Y490200D02*
D03*
X1456000Y329400D02*
D03*
X1401600Y510600D02*
D03*
D67*
X947800Y3291800D02*
D03*
X947800Y2561800D02*
D03*
X947800Y1831800D02*
D03*
X947800Y1101800D02*
D03*
X947800Y371800D02*
D03*
D81*
X112100Y3154300D02*
D03*
X220400Y3187200D02*
D03*
Y3253900D02*
D03*
X112100Y3339300D02*
D03*
X220400Y3357100D02*
D03*
X112100Y3271100D02*
D03*
X318570Y3339160D02*
D03*
Y3271770D02*
D03*
X426510Y3326410D02*
D03*
Y3395330D02*
D03*
X318570Y3162240D02*
D03*
X379390Y3213920D02*
D03*
X112100Y2424300D02*
D03*
X220400Y2457200D02*
D03*
Y2523900D02*
D03*
X112100Y2609300D02*
D03*
X220400Y2627100D02*
D03*
X112100Y2541100D02*
D03*
X318570Y2609160D02*
D03*
Y2541770D02*
D03*
X426510Y2596410D02*
D03*
Y2665330D02*
D03*
X318570Y2432240D02*
D03*
X379390Y2483920D02*
D03*
X112100Y1694300D02*
D03*
X220400Y1727200D02*
D03*
Y1793900D02*
D03*
X112100Y1879300D02*
D03*
X220400Y1897100D02*
D03*
X112100Y1811100D02*
D03*
X318570Y1879160D02*
D03*
Y1811770D02*
D03*
X426510Y1866410D02*
D03*
Y1935330D02*
D03*
X318570Y1702240D02*
D03*
X379390Y1753920D02*
D03*
X112100Y964300D02*
D03*
X220400Y997200D02*
D03*
Y1063900D02*
D03*
X112100Y1149300D02*
D03*
X220400Y1167100D02*
D03*
X112100Y1081100D02*
D03*
X318570Y1149160D02*
D03*
Y1081770D02*
D03*
X426510Y1136410D02*
D03*
Y1205330D02*
D03*
X318570Y972240D02*
D03*
X379390Y1023920D02*
D03*
X426510Y475330D02*
D03*
Y406410D02*
D03*
X318570Y419160D02*
D03*
Y351770D02*
D03*
X379390Y293920D02*
D03*
X318570Y242240D02*
D03*
X220400Y267200D02*
D03*
Y333900D02*
D03*
Y437100D02*
D03*
X112100Y419300D02*
D03*
Y351100D02*
D03*
Y234300D02*
D03*
D82*
X87100Y3163800D02*
D03*
X112100Y3173300D02*
D03*
X245400Y3177700D02*
D03*
X220400Y3168200D02*
D03*
X245400Y3244400D02*
D03*
X220400Y3234900D02*
D03*
X87100Y3348800D02*
D03*
X112100Y3358300D02*
D03*
X245400Y3347600D02*
D03*
X220400Y3338100D02*
D03*
X112100Y3290100D02*
D03*
X87100Y3280600D02*
D03*
X293570Y3348660D02*
D03*
X318570Y3358160D02*
D03*
X293570Y3281270D02*
D03*
X318570Y3290770D02*
D03*
X426510Y3307410D02*
D03*
X451510Y3316910D02*
D03*
X426510Y3376330D02*
D03*
X451510Y3385830D02*
D03*
X318570Y3181240D02*
D03*
X293570Y3171740D02*
D03*
X404390Y3204420D02*
D03*
X379390Y3194920D02*
D03*
X87100Y2433800D02*
D03*
X112100Y2443300D02*
D03*
X245400Y2447700D02*
D03*
X220400Y2438200D02*
D03*
X245400Y2514400D02*
D03*
X220400Y2504900D02*
D03*
X87100Y2618800D02*
D03*
X112100Y2628300D02*
D03*
X245400Y2617600D02*
D03*
X220400Y2608100D02*
D03*
X112100Y2560100D02*
D03*
X87100Y2550600D02*
D03*
X293570Y2618660D02*
D03*
X318570Y2628160D02*
D03*
X293570Y2551270D02*
D03*
X318570Y2560770D02*
D03*
X426510Y2577410D02*
D03*
X451510Y2586910D02*
D03*
X426510Y2646330D02*
D03*
X451510Y2655830D02*
D03*
X318570Y2451240D02*
D03*
X293570Y2441740D02*
D03*
X404390Y2474420D02*
D03*
X379390Y2464920D02*
D03*
X87100Y1703800D02*
D03*
X112100Y1713300D02*
D03*
X245400Y1717700D02*
D03*
X220400Y1708200D02*
D03*
X245400Y1784400D02*
D03*
X220400Y1774900D02*
D03*
X87100Y1888800D02*
D03*
X112100Y1898300D02*
D03*
X245400Y1887600D02*
D03*
X220400Y1878100D02*
D03*
X112100Y1830100D02*
D03*
X87100Y1820600D02*
D03*
X293570Y1888660D02*
D03*
X318570Y1898160D02*
D03*
X293570Y1821270D02*
D03*
X318570Y1830770D02*
D03*
X426510Y1847410D02*
D03*
X451510Y1856910D02*
D03*
X426510Y1916330D02*
D03*
X451510Y1925830D02*
D03*
X318570Y1721240D02*
D03*
X293570Y1711740D02*
D03*
X404390Y1744420D02*
D03*
X379390Y1734920D02*
D03*
X87100Y973800D02*
D03*
X112100Y983300D02*
D03*
X245400Y987700D02*
D03*
X220400Y978200D02*
D03*
X245400Y1054400D02*
D03*
X220400Y1044900D02*
D03*
X87100Y1158800D02*
D03*
X112100Y1168300D02*
D03*
X245400Y1157600D02*
D03*
X220400Y1148100D02*
D03*
X112100Y1100100D02*
D03*
X87100Y1090600D02*
D03*
X293570Y1158660D02*
D03*
X318570Y1168160D02*
D03*
X293570Y1091270D02*
D03*
X318570Y1100770D02*
D03*
X426510Y1117410D02*
D03*
X451510Y1126910D02*
D03*
X426510Y1186330D02*
D03*
X451510Y1195830D02*
D03*
X318570Y991240D02*
D03*
X293570Y981740D02*
D03*
X404390Y1014420D02*
D03*
X379390Y1004920D02*
D03*
X451510Y465830D02*
D03*
X426510Y456330D02*
D03*
X451510Y396910D02*
D03*
X426510Y387410D02*
D03*
X318570Y438160D02*
D03*
X293570Y428660D02*
D03*
X318570Y370770D02*
D03*
X293570Y361270D02*
D03*
X379390Y274920D02*
D03*
X404390Y284420D02*
D03*
X293570Y251740D02*
D03*
X318570Y261240D02*
D03*
X220400Y248200D02*
D03*
X245400Y257700D02*
D03*
X220400Y314900D02*
D03*
X245400Y324400D02*
D03*
X220400Y418100D02*
D03*
X245400Y427600D02*
D03*
X112100Y438300D02*
D03*
X87100Y428800D02*
D03*
Y360600D02*
D03*
X112100Y370100D02*
D03*
Y253300D02*
D03*
X87100Y243800D02*
D03*
M02*
