G04*
G04 #@! TF.GenerationSoftware,Altium Limited,Altium Designer,23.1.1 (15)*
G04*
G04 Layer_Physical_Order=3*
G04 Layer_Color=16440176*
%FSAX44Y44*%
%MOMM*%
G71*
G04*
G04 #@! TF.SameCoordinates,A3571568-9A21-437D-865F-2304E57EA7B7*
G04*
G04*
G04 #@! TF.FilePolarity,Positive*
G04*
G01*
G75*
%ADD13C,0.5000*%
%ADD22C,0.2540*%
%ADD28C,0.2032*%
%ADD104C,1.1200*%
G04:AMPARAMS|DCode=106|XSize=1.55mm|YSize=1.55mm|CornerRadius=0.0465mm|HoleSize=0mm|Usage=FLASHONLY|Rotation=90.000|XOffset=0mm|YOffset=0mm|HoleType=Round|Shape=RoundedRectangle|*
%AMROUNDEDRECTD106*
21,1,1.5500,1.4570,0,0,90.0*
21,1,1.4570,1.5500,0,0,90.0*
1,1,0.0930,0.7285,0.7285*
1,1,0.0930,0.7285,-0.7285*
1,1,0.0930,-0.7285,-0.7285*
1,1,0.0930,-0.7285,0.7285*
%
%ADD106ROUNDEDRECTD106*%
%ADD107C,1.5500*%
%ADD108C,1.3500*%
G04:AMPARAMS|DCode=110|XSize=5mm|YSize=1.8mm|CornerRadius=0.9mm|HoleSize=0mm|Usage=FLASHONLY|Rotation=0.000|XOffset=0mm|YOffset=0mm|HoleType=Round|Shape=RoundedRectangle|*
%AMROUNDEDRECTD110*
21,1,5.0000,0.0000,0,0,0.0*
21,1,3.2000,1.8000,0,0,0.0*
1,1,1.8000,1.6000,0.0000*
1,1,1.8000,-1.6000,0.0000*
1,1,1.8000,-1.6000,0.0000*
1,1,1.8000,1.6000,0.0000*
%
%ADD110ROUNDEDRECTD110*%
G04:AMPARAMS|DCode=111|XSize=1.55mm|YSize=1.55mm|CornerRadius=0.0465mm|HoleSize=0mm|Usage=FLASHONLY|Rotation=180.000|XOffset=0mm|YOffset=0mm|HoleType=Round|Shape=RoundedRectangle|*
%AMROUNDEDRECTD111*
21,1,1.5500,1.4570,0,0,180.0*
21,1,1.4570,1.5500,0,0,180.0*
1,1,0.0930,-0.7285,0.7285*
1,1,0.0930,0.7285,0.7285*
1,1,0.0930,0.7285,-0.7285*
1,1,0.0930,-0.7285,-0.7285*
%
%ADD111ROUNDEDRECTD111*%
%ADD113C,2.1500*%
%ADD114C,2.2000*%
G04:AMPARAMS|DCode=115|XSize=2.2mm|YSize=2.2mm|CornerRadius=0.055mm|HoleSize=0mm|Usage=FLASHONLY|Rotation=270.000|XOffset=0mm|YOffset=0mm|HoleType=Round|Shape=RoundedRectangle|*
%AMROUNDEDRECTD115*
21,1,2.2000,2.0900,0,0,270.0*
21,1,2.0900,2.2000,0,0,270.0*
1,1,0.1100,-1.0450,-1.0450*
1,1,0.1100,-1.0450,1.0450*
1,1,0.1100,1.0450,1.0450*
1,1,0.1100,1.0450,-1.0450*
%
%ADD115ROUNDEDRECTD115*%
%ADD120R,1.8000X1.8000*%
%ADD121C,1.8000*%
%ADD122C,2.0320*%
%ADD123C,0.5080*%
G36*
X00180000Y01467013D02*
Y01240000D01*
X00140000Y01200000D01*
Y01197757D01*
X00155000Y01182757D01*
Y00943438D01*
X00135461Y00923900D01*
X00063990D01*
X00050005Y00937885D01*
Y01000000D01*
X00049932D01*
Y01199932D01*
X00060000Y01210000D01*
X00090000Y01210000D01*
X00160114Y01280114D01*
X00160114Y01468149D01*
X00178864D01*
X00180000Y01467013D01*
D02*
G37*
G36*
X00340180Y01464427D02*
X00340180Y01201602D01*
X00340180Y01200000D01*
X00340748Y01200567D01*
X00341450Y01200567D01*
X00390356D01*
Y01200144D01*
X00400500Y01190000D01*
Y01170144D01*
X00390356Y01160000D01*
X00330237D01*
Y01160057D01*
X00320295Y01170000D01*
Y01277528D01*
X00320295Y01465562D01*
X00339045D01*
X00340180Y01464427D01*
D02*
G37*
G36*
X01357947Y01397983D02*
X01707263Y01048667D01*
X01749960D01*
X01792258Y01006369D01*
X01792091Y00980475D01*
X01485659Y00980475D01*
X01415026Y00909843D01*
Y00909808D01*
X01261858D01*
X01241258Y00930408D01*
X01241258Y00972236D01*
X01257778Y00988757D01*
X01276822D01*
X01281188Y00989187D01*
X01285386Y00990460D01*
X01285742Y00990650D01*
X01299378D01*
X01303002Y00989551D01*
X01307616Y00989097D01*
X01312231Y00989551D01*
X01315854Y00990650D01*
X01429719D01*
X01439930Y01000862D01*
Y01154824D01*
X01210111Y01384643D01*
Y01503986D01*
X01253601Y01547475D01*
X01357947D01*
Y01397983D01*
D02*
G37*
G36*
X01142360Y01240941D02*
Y01157605D01*
X01133650Y01148895D01*
Y01095403D01*
X01132043Y01092397D01*
X01130697Y01087960D01*
X01130243Y01083345D01*
X01130697Y01078730D01*
X01132043Y01074293D01*
X01133650Y01071287D01*
Y01033082D01*
X01143794Y01022939D01*
X01156534Y01023141D01*
X01167162Y01012513D01*
X01167167Y01012498D01*
X01169352Y01008408D01*
X01172294Y01004824D01*
X01175879Y01001882D01*
X01176861Y01001357D01*
X01177074Y01001183D01*
X01180121Y00999554D01*
X01199981Y00979693D01*
X01199388Y00978491D01*
X01197466Y00978744D01*
X01194975Y00978416D01*
X01193528Y00977816D01*
X01192081Y00978416D01*
X01189591Y00978744D01*
X01187100Y00978416D01*
X01186170Y00978030D01*
X01185240Y00978416D01*
X01182749Y00978744D01*
X01180259Y00978416D01*
X01177938Y00977454D01*
X01175946Y00975925D01*
X01174416Y00973932D01*
X01173455Y00971612D01*
X01173127Y00969121D01*
X01173455Y00966631D01*
X01174416Y00964310D01*
X01175946Y00962317D01*
X01177938Y00960788D01*
X01180259Y00959827D01*
X01182749Y00959499D01*
X01185240Y00959827D01*
X01186170Y00960212D01*
X01187100Y00959827D01*
X01189591Y00959499D01*
X01192081Y00959827D01*
X01193528Y00960426D01*
X01194975Y00959827D01*
X01197466Y00959499D01*
X01199956Y00959827D01*
X01200887Y00960212D01*
X01201817Y00959827D01*
X01204307Y00959499D01*
X01206798Y00959827D01*
X01207617Y00960166D01*
X01208438Y00959827D01*
X01210928Y00959499D01*
X01213418Y00959827D01*
X01214349Y00960212D01*
X01215279Y00959827D01*
X01217769Y00959499D01*
X01217846Y00959432D01*
X01218177Y00917309D01*
X01213288Y00912419D01*
X01125431D01*
X01083467Y00867635D01*
Y00811550D01*
X01125431Y00769585D01*
Y00752382D01*
X01124147Y00751524D01*
X01123025Y00749843D01*
X01122630Y00747861D01*
X01123025Y00745879D01*
X01124147Y00744199D01*
X01125431Y00743341D01*
Y00659108D01*
X01103431Y00637108D01*
X01103431Y00525414D01*
X01109347Y00519498D01*
X01109321Y00498061D01*
X01110414Y00496968D01*
X01111035Y00495468D01*
X01112564Y00493475D01*
X01114557Y00491946D01*
X01116057Y00491325D01*
X01129244Y00478138D01*
X01210320D01*
X01215775Y00472683D01*
Y00424246D01*
X01204431Y00412902D01*
X00995618D01*
X00978215Y00430305D01*
Y00487651D01*
X00979316Y00491759D01*
X00980000Y00496958D01*
Y00502201D01*
X00979316Y00507400D01*
X00978215Y00511508D01*
Y00647931D01*
X00949090Y00677056D01*
Y00903723D01*
X00996206Y00951024D01*
X00997386Y00952205D01*
Y01003051D01*
X01023259Y01028749D01*
Y01244777D01*
X01034454Y01255972D01*
X01127328D01*
X01142360Y01240941D01*
D02*
G37*
G36*
X00290500Y01169500D02*
X00290500Y01063376D01*
X00331712Y01022164D01*
X00374921Y01022164D01*
X00379600Y01026843D01*
Y01055672D01*
X00394674Y01070745D01*
X00421730D01*
X00489100Y01003375D01*
Y00950900D01*
X00490000Y00950000D01*
X00480072Y00940072D01*
X00198616D01*
X00180000Y00958689D01*
Y01201260D01*
X00188740Y01210000D01*
X00190000D01*
X00250000Y01210000D01*
X00290500Y01169500D01*
D02*
G37*
G36*
X02728010Y00951910D02*
X02728471Y00559988D01*
X02728472D01*
Y00558718D01*
X02728472Y00518472D01*
X02699635Y00489635D01*
X02697206Y00489316D01*
X02692141Y00487958D01*
X02687297Y00485952D01*
X02682756Y00483330D01*
X02678596Y00480138D01*
X02674888Y00476430D01*
X02671696Y00472271D01*
X02669074Y00467729D01*
X02667068Y00462885D01*
X02665711Y00457820D01*
X02665391Y00455391D01*
X02638540Y00428540D01*
X02412509D01*
X02364981Y00476067D01*
X02326844D01*
X02241068Y00390291D01*
X02182747D01*
X02151712Y00359256D01*
X02138330D01*
Y00388715D01*
X02194767Y00445152D01*
X02152348D01*
X02120468Y00477033D01*
X02092182Y00477033D01*
X02044823Y00429674D01*
X02044290Y00429780D01*
X02042307Y00429386D01*
X02040627Y00428263D01*
X02039504Y00426583D01*
X02039420Y00426161D01*
X01954724D01*
X01945535Y00435350D01*
X01820350D01*
X01810000Y00425000D01*
Y00407007D01*
X01839337Y00377670D01*
X01935726D01*
X02017540Y00295855D01*
Y00247378D01*
X01994302D01*
X01893915Y00347765D01*
X01797735D01*
X01773056Y00372444D01*
Y00416456D01*
X01742505Y00447007D01*
X01705925D01*
X01705925Y00535756D01*
X01722768Y00553307D01*
X01724827Y00555586D01*
X01737997D01*
X01757006Y00574595D01*
X01788434D01*
X01790776Y00572253D01*
Y00551142D01*
X01782930Y00543296D01*
X01772606Y00532953D01*
Y00511254D01*
X01776731Y00507129D01*
X01995869D01*
X02012351Y00523281D01*
X02012351Y00641900D01*
X01984755Y00669496D01*
X01935396D01*
X01864618Y00740826D01*
X01844912Y00760533D01*
X01716208D01*
X01675088Y00718012D01*
X01278546Y00718012D01*
X01242305Y00754253D01*
X01159077D01*
X01110061Y00803269D01*
Y00878001D01*
X01127810Y00895750D01*
X01279169D01*
X01300483Y00874436D01*
X01440367D01*
X01449735Y00883804D01*
Y00914629D01*
X01504873Y00969767D01*
X01836626D01*
X01864048Y00942346D01*
X01935922D01*
X01977605Y00984028D01*
Y01041354D01*
X01995601Y01059350D01*
X02022378Y01059350D01*
X02038131Y01043598D01*
X02073106D01*
X02083275Y01033429D01*
X02083275Y01019276D01*
X02072405Y01008407D01*
X02041812D01*
X02041812Y00898000D01*
X02061810Y00878001D01*
X02225463D01*
X02417519Y01070058D01*
X02609863Y01070058D01*
X02728010Y00951910D01*
D02*
G37*
G36*
X00690000Y01169826D02*
Y01136649D01*
X00700000Y01126649D01*
Y01007250D01*
X00781695Y00925555D01*
Y00732045D01*
X00732180Y00682530D01*
Y00543301D01*
X00719466Y00531314D01*
X00688820D01*
X00668284Y00510778D01*
Y00450000D01*
X00606662D01*
X00594750Y00461912D01*
Y00543500D01*
X00594888Y00545238D01*
X00620000Y00570350D01*
X00685449Y00570350D01*
Y00621773D01*
X00672570Y00634651D01*
Y00635425D01*
X00589125D01*
X00540000Y00684550D01*
Y00695661D01*
X00540000Y00986910D01*
X00558209Y01005119D01*
X00599600D01*
X00619976Y01025495D01*
Y01166052D01*
X00643924Y01190000D01*
X00669826D01*
X00690000Y01169826D01*
D02*
G37*
G36*
X00124845Y00480000D02*
X00291021Y00481021D01*
X00322042Y00450000D01*
X00560000D01*
X00640000Y00370000D01*
X00974472Y00370000D01*
X01106222Y00238250D01*
X01471438Y00238250D01*
X01563221Y00330034D01*
X01839906D01*
X01870000Y00299940D01*
X01870000Y00145000D01*
X01845000Y00120000D01*
X01628316D01*
X01530000Y00020000D01*
X01280000D01*
X01210007Y00100000D01*
X00951161D01*
X00947820Y00100895D01*
X00942622Y00101580D01*
X00937378D01*
X00932180Y00100895D01*
X00928839Y00100000D01*
X00901161D01*
X00897820Y00100895D01*
X00892622Y00101580D01*
X00887378D01*
X00882180Y00100895D01*
X00878839Y00100000D01*
X00851161D01*
X00847820Y00100895D01*
X00842622Y00101580D01*
X00837378D01*
X00832180Y00100895D01*
X00828839Y00100000D01*
X00751161D01*
X00747820Y00100895D01*
X00742622Y00101580D01*
X00737378D01*
X00732180Y00100895D01*
X00728839Y00100000D01*
X00701161D01*
X00697820Y00100895D01*
X00692622Y00101580D01*
X00687378D01*
X00682180Y00100895D01*
X00678839Y00100000D01*
X00651161D01*
X00647820Y00100895D01*
X00642622Y00101580D01*
X00637378D01*
X00632180Y00100895D01*
X00628839Y00100000D01*
X00469630D01*
X00269973Y00307336D01*
X00270000Y00349570D01*
X00240000Y00379570D01*
Y00379709D01*
X00200291D01*
X00189729Y00390271D01*
X00086615Y00390403D01*
X00046004Y00431013D01*
Y00474715D01*
X00056289Y00485000D01*
X00119846D01*
X00124845Y00480000D01*
D02*
G37*
%LPC*%
G36*
X00122000Y01195640D02*
X00111000D01*
Y01189000D01*
X00132420D01*
X00132080Y01189820D01*
X00130230Y01192230D01*
X00127820Y01194080D01*
X00125013Y01195243D01*
X00122000Y01195640D01*
D02*
G37*
G36*
X00101000D02*
X00090000D01*
X00086987Y01195243D01*
X00084180Y01194080D01*
X00081770Y01192230D01*
X00079920Y01189820D01*
X00079580Y01189000D01*
X00101000D01*
Y01195640D01*
D02*
G37*
G36*
X00132420Y01179000D02*
X00111000D01*
Y01172361D01*
X00122000D01*
X00125013Y01172757D01*
X00127820Y01173920D01*
X00130230Y01175770D01*
X00132080Y01178180D01*
X00132420Y01179000D01*
D02*
G37*
G36*
X00101000D02*
X00079580D01*
X00079920Y01178180D01*
X00081770Y01175770D01*
X00084180Y01173920D01*
X00086987Y01172757D01*
X00090000Y01172361D01*
X00101000D01*
Y01179000D01*
D02*
G37*
G36*
X00085056Y01081416D02*
Y01074741D01*
X00091731D01*
X00091149Y01076146D01*
X00089113Y01078799D01*
X00086461Y01080835D01*
X00085056Y01081416D01*
D02*
G37*
G36*
X00075056Y01081416D02*
X00073651Y01080835D01*
X00070998Y01078799D01*
X00068962Y01076146D01*
X00068380Y01074741D01*
X00075056D01*
Y01081416D01*
D02*
G37*
G36*
Y01064741D02*
X00068380D01*
X00068962Y01063336D01*
X00070998Y01060683D01*
X00073651Y01058648D01*
X00075056Y01058066D01*
Y01064741D01*
D02*
G37*
G36*
X00091731D02*
X00085056D01*
Y01058066D01*
X00086461Y01058648D01*
X00089113Y01060683D01*
X00091149Y01063336D01*
X00091731Y01064741D01*
D02*
G37*
G36*
X00095720Y01023274D02*
X00089180D01*
Y01016734D01*
X00095720D01*
Y01023274D01*
D02*
G37*
G36*
X00079180D02*
X00072640D01*
Y01016734D01*
X00079180D01*
Y01023274D01*
D02*
G37*
G36*
X00095720Y01006734D02*
X00089180D01*
Y01000194D01*
X00095720D01*
Y01006734D01*
D02*
G37*
G36*
X00079180D02*
X00072640D01*
Y01000194D01*
X00079180D01*
Y01006734D01*
D02*
G37*
G36*
X00089180Y00958654D02*
Y00953234D01*
X00094600D01*
X00094260Y00954054D01*
X00092411Y00956465D01*
X00090000Y00958314D01*
X00089180Y00958654D01*
D02*
G37*
G36*
X00079180Y00958654D02*
X00078360Y00958314D01*
X00075950Y00956465D01*
X00074100Y00954054D01*
X00073760Y00953234D01*
X00079180D01*
Y00958654D01*
D02*
G37*
G36*
Y00943234D02*
X00073760D01*
X00074100Y00942414D01*
X00075950Y00940004D01*
X00078360Y00938154D01*
X00079180Y00937814D01*
Y00943234D01*
D02*
G37*
G36*
X00094600D02*
X00089180D01*
Y00937814D01*
X00090000Y00938154D01*
X00092411Y00940004D01*
X00094260Y00942414D01*
X00094600Y00943234D01*
D02*
G37*
G36*
X00378000Y01195640D02*
X00367000D01*
Y01189000D01*
X00388420D01*
X00388080Y01189820D01*
X00386230Y01192230D01*
X00383820Y01194080D01*
X00381013Y01195243D01*
X00378000Y01195640D01*
D02*
G37*
G36*
X00357000D02*
X00346000D01*
X00342988Y01195243D01*
X00340180Y01194080D01*
X00337770Y01192230D01*
X00335920Y01189820D01*
X00335580Y01189000D01*
X00357000D01*
Y01195640D01*
D02*
G37*
G36*
X00388420Y01179000D02*
X00367000D01*
Y01172361D01*
X00378000D01*
X00381013Y01172757D01*
X00383820Y01173920D01*
X00386230Y01175770D01*
X00388080Y01178180D01*
X00388420Y01179000D01*
D02*
G37*
G36*
X00357000D02*
X00335580D01*
X00335920Y01178180D01*
X00337770Y01175770D01*
X00340180Y01173920D01*
X00342988Y01172757D01*
X00346000Y01172361D01*
X00357000D01*
Y01179000D01*
D02*
G37*
G36*
X01258449Y01372457D02*
X01256467Y01372063D01*
X01254786Y01370940D01*
X01253663Y01369259D01*
X01253269Y01367277D01*
X01253663Y01365295D01*
X01254786Y01363615D01*
X01256467Y01362492D01*
X01258449Y01362098D01*
X01260431Y01362492D01*
X01262111Y01363615D01*
X01263234Y01365295D01*
X01263628Y01367277D01*
X01263234Y01369259D01*
X01262111Y01370940D01*
X01260431Y01372063D01*
X01258449Y01372457D01*
D02*
G37*
G36*
X01319289Y01368570D02*
X01317307Y01368176D01*
X01315627Y01367053D01*
X01314504Y01365373D01*
X01314110Y01363391D01*
X01314504Y01361408D01*
X01315627Y01359728D01*
X01317307Y01358605D01*
X01319289Y01358211D01*
X01321271Y01358605D01*
X01322952Y01359728D01*
X01324075Y01361408D01*
X01324469Y01363391D01*
X01324075Y01365373D01*
X01322952Y01367053D01*
X01321271Y01368176D01*
X01319289Y01368570D01*
D02*
G37*
G36*
X01361600Y01357479D02*
X01359618Y01357085D01*
X01357937Y01355962D01*
X01356815Y01354282D01*
X01356420Y01352300D01*
X01356815Y01350318D01*
X01357937Y01348637D01*
X01359618Y01347515D01*
X01361600Y01347120D01*
X01363582Y01347515D01*
X01365262Y01348637D01*
X01366385Y01350318D01*
X01366779Y01352300D01*
X01366385Y01354282D01*
X01365262Y01355962D01*
X01363582Y01357085D01*
X01361600Y01357479D01*
D02*
G37*
G36*
X01284143Y01335759D02*
X01282161Y01335365D01*
X01280481Y01334242D01*
X01279358Y01332562D01*
X01278964Y01330580D01*
X01279358Y01328598D01*
X01280481Y01326917D01*
X01282161Y01325795D01*
X01284143Y01325400D01*
X01286125Y01325795D01*
X01287806Y01326917D01*
X01288929Y01328598D01*
X01289323Y01330580D01*
X01288929Y01332562D01*
X01287806Y01334242D01*
X01286125Y01335365D01*
X01284143Y01335759D01*
D02*
G37*
G36*
X01334584Y01285319D02*
X01332602Y01284925D01*
X01330921Y01283802D01*
X01329798Y01282121D01*
X01329404Y01280139D01*
X01329798Y01278157D01*
X01330921Y01276477D01*
X01332602Y01275354D01*
X01334584Y01274960D01*
X01336566Y01275354D01*
X01338246Y01276477D01*
X01339369Y01278157D01*
X01339763Y01280139D01*
X01339369Y01282121D01*
X01338246Y01283802D01*
X01336566Y01284925D01*
X01334584Y01285319D01*
D02*
G37*
G36*
X01386999Y01254442D02*
X01385017Y01254047D01*
X01383337Y01252925D01*
X01382214Y01251244D01*
X01381820Y01249262D01*
X01382214Y01247280D01*
X01383337Y01245600D01*
X01385017Y01244477D01*
X01386999Y01244083D01*
X01388981Y01244477D01*
X01390662Y01245600D01*
X01391785Y01247280D01*
X01392179Y01249262D01*
X01391785Y01251244D01*
X01390662Y01252925D01*
X01388981Y01254047D01*
X01386999Y01254442D01*
D02*
G37*
G36*
X01388951Y01231641D02*
X01386969Y01231247D01*
X01385289Y01230124D01*
X01384166Y01228444D01*
X01383772Y01226462D01*
X01384166Y01224480D01*
X01385289Y01222799D01*
X01386969Y01221677D01*
X01388951Y01221282D01*
X01390933Y01221677D01*
X01392614Y01222799D01*
X01393737Y01224480D01*
X01394131Y01226462D01*
X01393737Y01228444D01*
X01392614Y01230124D01*
X01390933Y01231247D01*
X01388951Y01231641D01*
D02*
G37*
G36*
X01410290Y01219347D02*
X01408308Y01218953D01*
X01406628Y01217830D01*
X01405505Y01216150D01*
X01405111Y01214167D01*
X01405505Y01212185D01*
X01406628Y01210505D01*
X01408308Y01209382D01*
X01410290Y01208988D01*
X01412272Y01209382D01*
X01413953Y01210505D01*
X01415076Y01212185D01*
X01415470Y01214167D01*
X01415076Y01216150D01*
X01413953Y01217830D01*
X01412272Y01218953D01*
X01410290Y01219347D01*
D02*
G37*
G36*
X01436820Y01182504D02*
X01434838Y01182110D01*
X01433158Y01180987D01*
X01432035Y01179307D01*
X01431641Y01177325D01*
X01432035Y01175343D01*
X01433158Y01173662D01*
X01434838Y01172540D01*
X01436820Y01172145D01*
X01438803Y01172540D01*
X01440483Y01173662D01*
X01441606Y01175343D01*
X01442000Y01177325D01*
X01441606Y01179307D01*
X01440483Y01180987D01*
X01438803Y01182110D01*
X01436820Y01182504D01*
D02*
G37*
G36*
X01477438Y01138532D02*
X01475455Y01138137D01*
X01473775Y01137015D01*
X01472652Y01135334D01*
X01472258Y01133352D01*
X01472652Y01131370D01*
X01473775Y01129690D01*
X01475455Y01128567D01*
X01477438Y01128173D01*
X01479420Y01128567D01*
X01481100Y01129690D01*
X01482223Y01131370D01*
X01482617Y01133352D01*
X01482223Y01135334D01*
X01481100Y01137015D01*
X01479420Y01138137D01*
X01477438Y01138532D01*
D02*
G37*
G36*
X01518729Y01110707D02*
X01516747Y01110313D01*
X01515067Y01109190D01*
X01513944Y01107510D01*
X01513550Y01105527D01*
X01513944Y01103545D01*
X01515067Y01101865D01*
X01516747Y01100742D01*
X01518729Y01100348D01*
X01520711Y01100742D01*
X01522392Y01101865D01*
X01523515Y01103545D01*
X01523909Y01105527D01*
X01523515Y01107510D01*
X01522392Y01109190D01*
X01520711Y01110313D01*
X01518729Y01110707D01*
D02*
G37*
G36*
X01506298Y01110145D02*
X01504316Y01109751D01*
X01502636Y01108628D01*
X01501513Y01106948D01*
X01501119Y01104966D01*
X01501513Y01102984D01*
X01502636Y01101303D01*
X01504316Y01100181D01*
X01506298Y01099786D01*
X01508280Y01100181D01*
X01509961Y01101303D01*
X01511084Y01102984D01*
X01511478Y01104966D01*
X01511084Y01106948D01*
X01509961Y01108628D01*
X01508280Y01109751D01*
X01506298Y01110145D01*
D02*
G37*
G36*
X01493745D02*
X01491763Y01109751D01*
X01490083Y01108628D01*
X01488960Y01106948D01*
X01488566Y01104966D01*
X01488960Y01102984D01*
X01490083Y01101303D01*
X01491763Y01100181D01*
X01493745Y01099786D01*
X01495728Y01100181D01*
X01497408Y01101303D01*
X01498531Y01102984D01*
X01498925Y01104966D01*
X01498531Y01106948D01*
X01497408Y01108628D01*
X01495728Y01109751D01*
X01493745Y01110145D01*
D02*
G37*
G36*
X01477438Y01109765D02*
X01475455Y01109371D01*
X01473775Y01108248D01*
X01472652Y01106567D01*
X01472258Y01104585D01*
X01472652Y01102603D01*
X01473775Y01100923D01*
X01475455Y01099800D01*
X01477438Y01099406D01*
X01479420Y01099800D01*
X01481100Y01100923D01*
X01482223Y01102603D01*
X01482617Y01104585D01*
X01482223Y01106567D01*
X01481100Y01108248D01*
X01479420Y01109371D01*
X01477438Y01109765D01*
D02*
G37*
G36*
X01649482Y01091815D02*
X01647500Y01091421D01*
X01645820Y01090298D01*
X01644697Y01088617D01*
X01644303Y01086635D01*
X01644697Y01084653D01*
X01645820Y01082973D01*
X01647500Y01081850D01*
X01649482Y01081456D01*
X01651464Y01081850D01*
X01653145Y01082973D01*
X01654267Y01084653D01*
X01654662Y01086635D01*
X01654267Y01088617D01*
X01653145Y01090298D01*
X01651464Y01091421D01*
X01649482Y01091815D01*
D02*
G37*
G36*
X01519283Y01091130D02*
X01517301Y01090735D01*
X01515621Y01089613D01*
X01514498Y01087932D01*
X01514104Y01085950D01*
X01514498Y01083968D01*
X01515621Y01082288D01*
X01517301Y01081165D01*
X01519283Y01080771D01*
X01521265Y01081165D01*
X01522946Y01082288D01*
X01524068Y01083968D01*
X01524463Y01085950D01*
X01524068Y01087932D01*
X01522946Y01089613D01*
X01521265Y01090735D01*
X01519283Y01091130D01*
D02*
G37*
G36*
X01506298Y01090667D02*
X01504316Y01090273D01*
X01502636Y01089150D01*
X01501513Y01087470D01*
X01501119Y01085488D01*
X01501513Y01083505D01*
X01502636Y01081825D01*
X01504316Y01080702D01*
X01506298Y01080308D01*
X01508280Y01080702D01*
X01509961Y01081825D01*
X01511084Y01083505D01*
X01511478Y01085488D01*
X01511084Y01087470D01*
X01509961Y01089150D01*
X01508280Y01090273D01*
X01506298Y01090667D01*
D02*
G37*
G36*
X01493745D02*
X01491763Y01090273D01*
X01490083Y01089150D01*
X01488960Y01087470D01*
X01488566Y01085488D01*
X01488960Y01083505D01*
X01490083Y01081825D01*
X01491763Y01080702D01*
X01493745Y01080308D01*
X01495728Y01080702D01*
X01497408Y01081825D01*
X01498531Y01083505D01*
X01498925Y01085488D01*
X01498531Y01087470D01*
X01497408Y01089150D01*
X01495728Y01090273D01*
X01493745Y01090667D01*
D02*
G37*
G36*
X01477438Y01090286D02*
X01475455Y01089892D01*
X01473775Y01088770D01*
X01472652Y01087089D01*
X01472258Y01085107D01*
X01472652Y01083125D01*
X01473775Y01081444D01*
X01475455Y01080322D01*
X01477438Y01079928D01*
X01479420Y01080322D01*
X01481100Y01081444D01*
X01482223Y01083125D01*
X01482617Y01085107D01*
X01482223Y01087089D01*
X01481100Y01088770D01*
X01479420Y01089892D01*
X01477438Y01090286D01*
D02*
G37*
G36*
X01661556Y01089657D02*
X01659574Y01089262D01*
X01657894Y01088139D01*
X01656771Y01086459D01*
X01656377Y01084477D01*
X01656771Y01082495D01*
X01657894Y01080815D01*
X01659574Y01079692D01*
X01661556Y01079297D01*
X01663538Y01079692D01*
X01665219Y01080815D01*
X01666342Y01082495D01*
X01666736Y01084477D01*
X01666342Y01086459D01*
X01665219Y01088139D01*
X01663538Y01089262D01*
X01661556Y01089657D01*
D02*
G37*
G36*
X01506230Y01077570D02*
X01504248Y01077175D01*
X01502568Y01076052D01*
X01501445Y01074372D01*
X01501051Y01072390D01*
X01501445Y01070408D01*
X01502568Y01068728D01*
X01504248Y01067605D01*
X01506230Y01067210D01*
X01508212Y01067605D01*
X01509893Y01068728D01*
X01511016Y01070408D01*
X01511410Y01072390D01*
X01511016Y01074372D01*
X01509893Y01076052D01*
X01508212Y01077175D01*
X01506230Y01077570D01*
D02*
G37*
G36*
X01493745D02*
X01491763Y01077175D01*
X01490083Y01076052D01*
X01488960Y01074372D01*
X01488566Y01072390D01*
X01488960Y01070408D01*
X01490083Y01068728D01*
X01491763Y01067605D01*
X01493745Y01067210D01*
X01495728Y01067605D01*
X01497408Y01068728D01*
X01498531Y01070408D01*
X01498925Y01072390D01*
X01498531Y01074372D01*
X01497408Y01076052D01*
X01495728Y01077175D01*
X01493745Y01077570D01*
D02*
G37*
G36*
X01477370Y01077189D02*
X01475388Y01076795D01*
X01473707Y01075672D01*
X01472585Y01073992D01*
X01472190Y01072010D01*
X01472585Y01070027D01*
X01473707Y01068347D01*
X01475388Y01067224D01*
X01477370Y01066830D01*
X01479352Y01067224D01*
X01481032Y01068347D01*
X01482155Y01070027D01*
X01482549Y01072010D01*
X01482155Y01073992D01*
X01481032Y01075672D01*
X01479352Y01076795D01*
X01477370Y01077189D01*
D02*
G37*
G36*
X01546005Y01080513D02*
X01544023Y01080118D01*
X01542343Y01078996D01*
X01541220Y01077315D01*
X01540826Y01075333D01*
X01541220Y01073351D01*
X01542343Y01071671D01*
X01544023Y01070548D01*
X01545139Y01070326D01*
X01545313Y01069470D01*
X01545273Y01069005D01*
X01543711Y01067961D01*
X01542588Y01066280D01*
X01542194Y01064298D01*
X01542588Y01062316D01*
X01543711Y01060636D01*
X01545391Y01059513D01*
X01547373Y01059119D01*
X01549355Y01059513D01*
X01551036Y01060636D01*
X01552158Y01062316D01*
X01552553Y01064298D01*
X01552158Y01066280D01*
X01551036Y01067961D01*
X01549355Y01069083D01*
X01548239Y01069305D01*
X01548066Y01070162D01*
X01548105Y01070627D01*
X01549668Y01071671D01*
X01550790Y01073351D01*
X01551185Y01075333D01*
X01550790Y01077315D01*
X01549668Y01078996D01*
X01547987Y01080118D01*
X01546005Y01080513D01*
D02*
G37*
G36*
X01642998Y01077189D02*
X01641016Y01076795D01*
X01639336Y01075672D01*
X01638213Y01073992D01*
X01637819Y01072010D01*
X01638213Y01070027D01*
X01638361Y01069806D01*
X01637723Y01068474D01*
X01636400Y01068211D01*
X01634719Y01067088D01*
X01633596Y01065408D01*
X01633202Y01063426D01*
X01633596Y01061443D01*
X01634719Y01059763D01*
X01636400Y01058640D01*
X01638382Y01058246D01*
X01640364Y01058640D01*
X01642044Y01059763D01*
X01643167Y01061443D01*
X01643561Y01063426D01*
X01643167Y01065408D01*
X01643019Y01065630D01*
X01643657Y01066961D01*
X01644980Y01067224D01*
X01646661Y01068347D01*
X01647783Y01070027D01*
X01648178Y01072010D01*
X01647783Y01073992D01*
X01646661Y01075672D01*
X01644980Y01076795D01*
X01642998Y01077189D01*
D02*
G37*
G36*
X01733488Y01040266D02*
X01731506Y01039872D01*
X01729826Y01038749D01*
X01728703Y01037069D01*
X01728309Y01035087D01*
X01728703Y01033105D01*
X01729826Y01031424D01*
X01731506Y01030302D01*
X01733488Y01029907D01*
X01735471Y01030302D01*
X01737151Y01031424D01*
X01738274Y01033105D01*
X01738668Y01035087D01*
X01738274Y01037069D01*
X01737151Y01038749D01*
X01735471Y01039872D01*
X01733488Y01040266D01*
D02*
G37*
G36*
X01474381Y01031636D02*
X01472399Y01031242D01*
X01470719Y01030119D01*
X01469596Y01028439D01*
X01469202Y01026457D01*
X01469596Y01024474D01*
X01470719Y01022794D01*
X01472399Y01021671D01*
X01474381Y01021277D01*
X01476363Y01021671D01*
X01478044Y01022794D01*
X01479166Y01024474D01*
X01479561Y01026457D01*
X01479166Y01028439D01*
X01478044Y01030119D01*
X01476363Y01031242D01*
X01474381Y01031636D01*
D02*
G37*
G36*
X01734757Y01028685D02*
X01732775Y01028291D01*
X01731095Y01027168D01*
X01729972Y01025488D01*
X01729578Y01023506D01*
X01729972Y01021524D01*
X01731095Y01019843D01*
X01732775Y01018720D01*
X01734757Y01018326D01*
X01736739Y01018720D01*
X01738420Y01019843D01*
X01739542Y01021524D01*
X01739937Y01023506D01*
X01739542Y01025488D01*
X01738420Y01027168D01*
X01736739Y01028291D01*
X01734757Y01028685D01*
D02*
G37*
G36*
X01600000Y01025832D02*
X01598018Y01025438D01*
X01596337Y01024315D01*
X01595215Y01022635D01*
X01594821Y01020653D01*
X01595215Y01018671D01*
X01596337Y01016990D01*
X01598018Y01015867D01*
X01600000Y01015473D01*
X01601982Y01015867D01*
X01603663Y01016990D01*
X01604785Y01018671D01*
X01605179Y01020653D01*
X01604785Y01022635D01*
X01603663Y01024315D01*
X01601982Y01025438D01*
X01600000Y01025832D01*
D02*
G37*
G36*
X01505288Y01025346D02*
X01503306Y01024952D01*
X01501625Y01023829D01*
X01500503Y01022149D01*
X01500108Y01020167D01*
X01500503Y01018185D01*
X01501625Y01016504D01*
X01503306Y01015381D01*
X01505288Y01014987D01*
X01507270Y01015381D01*
X01508950Y01016504D01*
X01510073Y01018185D01*
X01510467Y01020167D01*
X01510073Y01022149D01*
X01508950Y01023829D01*
X01507270Y01024952D01*
X01505288Y01025346D01*
D02*
G37*
G36*
X01476889Y01012542D02*
X01474907Y01012148D01*
X01473226Y01011025D01*
X01472103Y01009345D01*
X01471709Y01007363D01*
X01472103Y01005381D01*
X01473226Y01003700D01*
X01474907Y01002578D01*
X01476889Y01002184D01*
X01478871Y01002578D01*
X01480551Y01003700D01*
X01481674Y01005381D01*
X01482068Y01007363D01*
X01481674Y01009345D01*
X01480551Y01011025D01*
X01478871Y01012148D01*
X01476889Y01012542D01*
D02*
G37*
G36*
X01752223Y01011646D02*
X01750241Y01011251D01*
X01748561Y01010129D01*
X01747438Y01008448D01*
X01747044Y01006466D01*
X01747438Y01004484D01*
X01748561Y01002804D01*
X01750241Y01001681D01*
X01752223Y01001287D01*
X01753587Y01001558D01*
X01754607Y01000948D01*
X01754797Y01000602D01*
X01755138Y00998884D01*
X01756261Y00997204D01*
X01757941Y00996081D01*
X01759924Y00995687D01*
X01761906Y00996081D01*
X01763586Y00997204D01*
X01764709Y00998884D01*
X01765103Y01000866D01*
X01764709Y01002849D01*
X01763586Y01004529D01*
X01761906Y01005652D01*
X01759924Y01006046D01*
X01758560Y01005775D01*
X01757540Y01006384D01*
X01757350Y01006730D01*
X01757009Y01008448D01*
X01755886Y01010129D01*
X01754205Y01011251D01*
X01752223Y01011646D01*
D02*
G37*
G36*
X01584200Y01002383D02*
X01582217Y01001989D01*
X01580537Y01000866D01*
X01579414Y00999186D01*
X01579020Y00997204D01*
X01579414Y00995222D01*
X01580537Y00993541D01*
X01582217Y00992419D01*
X01584200Y00992024D01*
X01586182Y00992419D01*
X01587862Y00993541D01*
X01588985Y00995222D01*
X01589379Y00997204D01*
X01588985Y00999186D01*
X01587862Y01000866D01*
X01586182Y01001989D01*
X01584200Y01002383D01*
D02*
G37*
G36*
X01777522Y00994207D02*
X01775539Y00993813D01*
X01773859Y00992690D01*
X01772736Y00991010D01*
X01772342Y00989028D01*
X01772736Y00987046D01*
X01773859Y00985365D01*
X01775539Y00984243D01*
X01777522Y00983848D01*
X01779504Y00984243D01*
X01781184Y00985365D01*
X01782307Y00987046D01*
X01782701Y00989028D01*
X01782307Y00991010D01*
X01781184Y00992690D01*
X01779504Y00993813D01*
X01777522Y00994207D01*
D02*
G37*
G36*
X01678083D02*
X01676101Y00993813D01*
X01674421Y00992690D01*
X01673298Y00991010D01*
X01672904Y00989028D01*
X01673298Y00987046D01*
X01674421Y00985365D01*
X01676101Y00984243D01*
X01678083Y00983848D01*
X01680065Y00984243D01*
X01681746Y00985365D01*
X01682868Y00987046D01*
X01683263Y00989028D01*
X01682868Y00991010D01*
X01681746Y00992690D01*
X01680065Y00993813D01*
X01678083Y00994207D01*
D02*
G37*
G36*
X01445051Y00991136D02*
X01443069Y00990742D01*
X01441388Y00989619D01*
X01440266Y00987939D01*
X01439871Y00985957D01*
X01440266Y00983975D01*
X01441388Y00982294D01*
X01443069Y00981171D01*
X01445051Y00980777D01*
X01447033Y00981171D01*
X01448713Y00982294D01*
X01449836Y00983975D01*
X01450230Y00985957D01*
X01449836Y00987939D01*
X01448713Y00989619D01*
X01447033Y00990742D01*
X01445051Y00991136D01*
D02*
G37*
G36*
X01034421Y01072158D02*
X01031930Y01071830D01*
X01029610Y01070869D01*
X01027617Y01069340D01*
X01026088Y01067347D01*
X01025126Y01065026D01*
X01024799Y01062536D01*
X01025126Y01060045D01*
X01025648Y01058786D01*
X01025126Y01057526D01*
X01024799Y01055036D01*
X01025126Y01052545D01*
X01025648Y01051286D01*
X01025126Y01050026D01*
X01024799Y01047536D01*
X01025126Y01045045D01*
X01026088Y01042725D01*
X01027617Y01040732D01*
X01029610Y01039203D01*
X01031930Y01038242D01*
X01034421Y01037914D01*
X01036911Y01038242D01*
X01039232Y01039203D01*
X01041225Y01040732D01*
X01042754Y01042725D01*
X01043715Y01045045D01*
X01044043Y01047536D01*
X01043715Y01050026D01*
X01043194Y01051286D01*
X01043715Y01052545D01*
X01044043Y01055036D01*
X01043715Y01057526D01*
X01043194Y01058786D01*
X01043715Y01060045D01*
X01044043Y01062536D01*
X01043715Y01065026D01*
X01042754Y01067347D01*
X01041225Y01069340D01*
X01039232Y01070869D01*
X01036911Y01071830D01*
X01034421Y01072158D01*
D02*
G37*
G36*
X01117633Y01012323D02*
X01115143Y01011995D01*
X01114212Y01011610D01*
X01113282Y01011995D01*
X01110792Y01012323D01*
X01108301Y01011995D01*
X01105981Y01011034D01*
X01103988Y01009504D01*
X01102459Y01007512D01*
X01101497Y01005191D01*
X01101170Y01002701D01*
X01101497Y01000210D01*
X01101783Y00999520D01*
X01101446Y00998705D01*
X01101118Y00996214D01*
X01101446Y00993724D01*
X01101524Y00993534D01*
X01101166Y00992669D01*
X01100838Y00990179D01*
X01101166Y00987688D01*
X01102127Y00985368D01*
X01103656Y00983375D01*
X01105649Y00981846D01*
X01107970Y00980884D01*
X01110460Y00980556D01*
X01112951Y00980884D01*
X01113881Y00981270D01*
X01114811Y00980884D01*
X01117302Y00980556D01*
X01119792Y00980884D01*
X01122113Y00981846D01*
X01124106Y00983375D01*
X01125635Y00985368D01*
X01126596Y00987688D01*
X01126924Y00990179D01*
X01126596Y00992669D01*
X01126518Y00992859D01*
X01126876Y00993724D01*
X01127204Y00996214D01*
X01126876Y00998705D01*
X01126590Y00999395D01*
X01126928Y01000210D01*
X01127255Y01002701D01*
X01126928Y01005191D01*
X01125966Y01007512D01*
X01124437Y01009504D01*
X01122444Y01011034D01*
X01120124Y01011995D01*
X01117633Y01012323D01*
D02*
G37*
G36*
X01063934Y01005837D02*
X01061443Y01005509D01*
X01060477Y01005109D01*
X01059511Y01005509D01*
X01057021Y01005837D01*
X01054530Y01005509D01*
X01053496Y01005080D01*
X01052799Y01005369D01*
X01050309Y01005697D01*
X01047818Y01005369D01*
X01045498Y01004408D01*
X01043505Y01002879D01*
X01041976Y01000886D01*
X01041460Y00999641D01*
X01040185Y00999473D01*
X01037864Y00998512D01*
X01035872Y00996983D01*
X01034342Y00994990D01*
X01033381Y00992669D01*
X01033053Y00990179D01*
X01033381Y00987688D01*
X01033759Y00986777D01*
X01033381Y00985865D01*
X01033053Y00983375D01*
X01033381Y00980884D01*
X01034342Y00978564D01*
X01035872Y00976571D01*
X01037864Y00975042D01*
X01040185Y00974080D01*
X01042676Y00973752D01*
X01045166Y00974080D01*
X01047487Y00975042D01*
X01049480Y00976571D01*
X01051009Y00978564D01*
X01051934Y00980798D01*
X01052591Y00980884D01*
X01053457Y00981243D01*
X01054322Y00980884D01*
X01056813Y00980556D01*
X01059303Y00980884D01*
X01060234Y00981270D01*
X01061164Y00980884D01*
X01063654Y00980556D01*
X01066145Y00980884D01*
X01068465Y00981846D01*
X01070458Y00983375D01*
X01071987Y00985368D01*
X01072949Y00987688D01*
X01073277Y00990179D01*
X01072949Y00992669D01*
X01072870Y00992859D01*
X01073229Y00993724D01*
X01073556Y00996214D01*
X01073229Y00998705D01*
X01072267Y01001026D01*
X01070738Y01003018D01*
X01068745Y01004548D01*
X01066424Y01005509D01*
X01063934Y01005837D01*
D02*
G37*
G36*
X01148680Y00999661D02*
X01146189Y00999333D01*
X01145430Y00999019D01*
X01144670Y00999333D01*
X01142180Y00999661D01*
X01139689Y00999333D01*
X01137368Y00998372D01*
X01135376Y00996843D01*
X01133846Y00994850D01*
X01132885Y00992529D01*
X01132557Y00990039D01*
X01132885Y00987549D01*
X01133846Y00985228D01*
X01135376Y00983235D01*
X01137368Y00981706D01*
X01139689Y00980744D01*
X01142180Y00980417D01*
X01144670Y00980744D01*
X01145430Y00981059D01*
X01146189Y00980744D01*
X01148680Y00980417D01*
X01151170Y00980744D01*
X01153491Y00981706D01*
X01155484Y00983235D01*
X01157013Y00985228D01*
X01157974Y00987549D01*
X01158302Y00990039D01*
X01157974Y00992529D01*
X01157013Y00994850D01*
X01155484Y00996843D01*
X01153491Y00998372D01*
X01151170Y00999333D01*
X01148680Y00999661D01*
D02*
G37*
G36*
X01150423Y00977248D02*
X01147933Y00976920D01*
X01147002Y00976535D01*
X01146072Y00976920D01*
X01143581Y00977248D01*
X01141091Y00976920D01*
X01138770Y00975959D01*
X01136777Y00974430D01*
X01135248Y00972437D01*
X01134287Y00970116D01*
X01133959Y00967626D01*
X01134287Y00965135D01*
X01135248Y00962815D01*
X01136777Y00960822D01*
X01138770Y00959293D01*
X01141091Y00958331D01*
X01143581Y00958003D01*
X01146072Y00958331D01*
X01147002Y00958717D01*
X01147933Y00958331D01*
X01150423Y00958003D01*
X01152913Y00958331D01*
X01155234Y00959293D01*
X01157227Y00960822D01*
X01158756Y00962815D01*
X01159717Y00965135D01*
X01160045Y00967626D01*
X01159717Y00970116D01*
X01158756Y00972437D01*
X01157227Y00974430D01*
X01155234Y00975959D01*
X01152913Y00976920D01*
X01150423Y00977248D01*
D02*
G37*
G36*
X01117633D02*
X01115143Y00976920D01*
X01114212Y00976535D01*
X01113282Y00976920D01*
X01110792Y00977248D01*
X01108301Y00976920D01*
X01105981Y00975959D01*
X01103988Y00974430D01*
X01102459Y00972437D01*
X01101497Y00970116D01*
X01101170Y00967626D01*
X01101497Y00965135D01*
X01102459Y00962815D01*
X01103988Y00960822D01*
X01105981Y00959293D01*
X01108301Y00958331D01*
X01110792Y00958003D01*
X01113282Y00958331D01*
X01114212Y00958717D01*
X01115143Y00958331D01*
X01117633Y00958003D01*
X01120124Y00958331D01*
X01122444Y00959293D01*
X01124437Y00960822D01*
X01125966Y00962815D01*
X01126928Y00965135D01*
X01127255Y00967626D01*
X01126928Y00970116D01*
X01125966Y00972437D01*
X01124437Y00974430D01*
X01122444Y00975959D01*
X01120124Y00976920D01*
X01117633Y00977248D01*
D02*
G37*
G36*
X01064199D02*
X01061709Y00976920D01*
X01060610Y00976465D01*
X01059511Y00976920D01*
X01057021Y00977248D01*
X01054530Y00976920D01*
X01052210Y00975959D01*
X01050217Y00974430D01*
X01048688Y00972437D01*
X01047726Y00970116D01*
X01047398Y00967626D01*
X01047726Y00965135D01*
X01048688Y00962815D01*
X01050217Y00960822D01*
X01052210Y00959293D01*
X01054530Y00958331D01*
X01057021Y00958003D01*
X01059511Y00958331D01*
X01060610Y00958786D01*
X01061709Y00958331D01*
X01064199Y00958003D01*
X01066690Y00958331D01*
X01069010Y00959293D01*
X01071003Y00960822D01*
X01072532Y00962815D01*
X01073494Y00965135D01*
X01073822Y00967626D01*
X01073494Y00970116D01*
X01072532Y00972437D01*
X01071003Y00974430D01*
X01069010Y00975959D01*
X01066690Y00976920D01*
X01064199Y00977248D01*
D02*
G37*
G36*
X01039206Y00897647D02*
X01036921D01*
Y00892298D01*
X01042270D01*
Y00894583D01*
X01042037Y00895756D01*
X01041372Y00896750D01*
X01040378Y00897414D01*
X01039206Y00897647D01*
D02*
G37*
G36*
X01026921D02*
X01024636D01*
X01023464Y00897414D01*
X01022469Y00896750D01*
X01021805Y00895756D01*
X01021572Y00894583D01*
Y00892298D01*
X01026921D01*
Y00897647D01*
D02*
G37*
G36*
X01042270Y00882299D02*
X01036921D01*
Y00876949D01*
X01039206D01*
X01040378Y00877183D01*
X01041372Y00877847D01*
X01042037Y00878841D01*
X01042270Y00880013D01*
Y00882299D01*
D02*
G37*
G36*
X01026921D02*
X01021572D01*
Y00880013D01*
X01021805Y00878841D01*
X01022469Y00877847D01*
X01023464Y00877183D01*
X01024636Y00876949D01*
X01026921D01*
Y00882299D01*
D02*
G37*
G36*
X01038706Y00771168D02*
X01036421D01*
Y00765819D01*
X01041770D01*
Y00768104D01*
X01041537Y00769277D01*
X01040873Y00770271D01*
X01039879Y00770935D01*
X01038706Y00771168D01*
D02*
G37*
G36*
X01026421D02*
X01024136D01*
X01022964Y00770935D01*
X01021970Y00770271D01*
X01021305Y00769277D01*
X01021072Y00768104D01*
Y00765819D01*
X01026421D01*
Y00771168D01*
D02*
G37*
G36*
X01041770Y00755819D02*
X01036421D01*
Y00750471D01*
X01038706D01*
X01039879Y00750704D01*
X01040873Y00751368D01*
X01041537Y00752362D01*
X01041770Y00753534D01*
Y00755819D01*
D02*
G37*
G36*
X01026421D02*
X01021072D01*
Y00753534D01*
X01021305Y00752362D01*
X01021970Y00751368D01*
X01022964Y00750704D01*
X01024136Y00750471D01*
X01026421D01*
Y00755819D01*
D02*
G37*
G36*
X01008376Y00576536D02*
X01005885Y00576208D01*
X01003565Y00575246D01*
X01001572Y00573717D01*
X01000043Y00571724D01*
X00999081Y00569404D01*
X00998754Y00566913D01*
X00999081Y00564423D01*
X00999603Y00563163D01*
X00999081Y00561904D01*
X00998754Y00559413D01*
X00999081Y00556923D01*
X00999603Y00555663D01*
X00999081Y00554404D01*
X00998754Y00551913D01*
X00999081Y00549423D01*
X01000043Y00547102D01*
X01001572Y00545109D01*
X01003565Y00543580D01*
X01005885Y00542619D01*
X01008376Y00542291D01*
X01010866Y00542619D01*
X01013187Y00543580D01*
X01015180Y00545109D01*
X01016709Y00547102D01*
X01017670Y00549423D01*
X01017998Y00551913D01*
X01017670Y00554404D01*
X01017149Y00555663D01*
X01017670Y00556923D01*
X01017998Y00559413D01*
X01017670Y00561904D01*
X01017149Y00563163D01*
X01017670Y00564423D01*
X01017998Y00566913D01*
X01017670Y00569404D01*
X01016709Y00571724D01*
X01015180Y00573717D01*
X01013187Y00575246D01*
X01010866Y00576208D01*
X01008376Y00576536D01*
D02*
G37*
G36*
X01071385Y00519536D02*
X01068894Y00519208D01*
X01066574Y00518246D01*
X01064581Y00516717D01*
X01063052Y00514724D01*
X01062090Y00512404D01*
X01061762Y00509913D01*
X01062090Y00507423D01*
X01062093Y00507417D01*
X01059874Y00506498D01*
X01057881Y00504969D01*
X01056352Y00502976D01*
X01055391Y00500655D01*
X01055063Y00498165D01*
X01055391Y00495675D01*
X01056352Y00493354D01*
X01057881Y00491361D01*
X01059874Y00489832D01*
X01062195Y00488871D01*
X01064685Y00488543D01*
X01067176Y00488871D01*
X01069497Y00489832D01*
X01070717Y00490768D01*
X01072065Y00489734D01*
X01074386Y00488772D01*
X01076876Y00488445D01*
X01079366Y00488772D01*
X01081687Y00489734D01*
X01083680Y00491263D01*
X01085209Y00493256D01*
X01086170Y00495576D01*
X01086498Y00498067D01*
X01086170Y00500557D01*
X01086017Y00500928D01*
X01086858Y00502957D01*
X01087186Y00505448D01*
X01086858Y00507938D01*
X01085897Y00510259D01*
X01084367Y00512252D01*
X01082374Y00513781D01*
X01080054Y00514742D01*
X01079665Y00514794D01*
X01078189Y00516717D01*
X01076196Y00518246D01*
X01073875Y00519208D01*
X01071385Y00519536D01*
D02*
G37*
G36*
X00234000Y01195640D02*
X00223000D01*
Y01189000D01*
X00244420D01*
X00244080Y01189820D01*
X00242230Y01192230D01*
X00239820Y01194080D01*
X00237013Y01195243D01*
X00234000Y01195640D01*
D02*
G37*
G36*
X00213000D02*
X00202000D01*
X00198987Y01195243D01*
X00196180Y01194080D01*
X00193770Y01192230D01*
X00191920Y01189820D01*
X00191580Y01189000D01*
X00213000D01*
Y01195640D01*
D02*
G37*
G36*
X00244420Y01179000D02*
X00223000D01*
Y01172361D01*
X00234000D01*
X00237013Y01172757D01*
X00239820Y01173920D01*
X00242230Y01175770D01*
X00244080Y01178180D01*
X00244420Y01179000D01*
D02*
G37*
G36*
X00213000D02*
X00191580D01*
X00191920Y01178180D01*
X00193770Y01175770D01*
X00196180Y01173920D01*
X00198987Y01172757D01*
X00202000Y01172361D01*
X00213000D01*
Y01179000D01*
D02*
G37*
G36*
X00409100Y01051242D02*
Y01048369D01*
X00411974D01*
X00410726Y01049995D01*
X00409100Y01051242D01*
D02*
G37*
G36*
X00399100D02*
X00397475Y01049995D01*
X00396227Y01048369D01*
X00399100D01*
Y01051242D01*
D02*
G37*
G36*
X00225000Y01046567D02*
Y01042500D01*
X00229067D01*
X00228988Y01042689D01*
X00227339Y01044839D01*
X00225189Y01046488D01*
X00225000Y01046567D01*
D02*
G37*
G36*
X00215000Y01046567D02*
X00214811Y01046488D01*
X00212661Y01044839D01*
X00211012Y01042689D01*
X00210933Y01042500D01*
X00215000D01*
Y01046567D01*
D02*
G37*
G36*
X00411974Y01038369D02*
X00409100D01*
Y01035496D01*
X00410726Y01036743D01*
X00411974Y01038369D01*
D02*
G37*
G36*
X00399100D02*
X00396227D01*
X00397475Y01036743D01*
X00399100Y01035496D01*
Y01038369D01*
D02*
G37*
G36*
X00215000Y01032500D02*
X00210933D01*
X00211012Y01032311D01*
X00212661Y01030161D01*
X00214811Y01028512D01*
X00215000Y01028433D01*
Y01032500D01*
D02*
G37*
G36*
X00229067D02*
X00225000D01*
Y01028433D01*
X00225189Y01028512D01*
X00227339Y01030161D01*
X00228988Y01032311D01*
X00229067Y01032500D01*
D02*
G37*
G36*
X00469750Y00978694D02*
Y00971109D01*
X00477335D01*
X00476577Y00972938D01*
X00474407Y00975766D01*
X00471578Y00977937D01*
X00469750Y00978694D01*
D02*
G37*
G36*
X00419750D02*
Y00971109D01*
X00427335D01*
X00426577Y00972938D01*
X00424407Y00975766D01*
X00421578Y00977937D01*
X00419750Y00978694D01*
D02*
G37*
G36*
X00369750D02*
Y00971109D01*
X00377335D01*
X00376577Y00972938D01*
X00374407Y00975766D01*
X00371578Y00977937D01*
X00369750Y00978694D01*
D02*
G37*
G36*
X00459750Y00978694D02*
X00457922Y00977937D01*
X00455093Y00975766D01*
X00452923Y00972938D01*
X00452165Y00971109D01*
X00459750D01*
Y00978694D01*
D02*
G37*
G36*
X00409750D02*
X00407922Y00977937D01*
X00405093Y00975766D01*
X00402923Y00972938D01*
X00402165Y00971109D01*
X00409750D01*
Y00978694D01*
D02*
G37*
G36*
X00359750D02*
X00357922Y00977937D01*
X00355093Y00975766D01*
X00352923Y00972938D01*
X00352165Y00971109D01*
X00359750D01*
Y00978694D01*
D02*
G37*
G36*
X00459750Y00961110D02*
X00452165D01*
X00452923Y00959281D01*
X00455093Y00956453D01*
X00457922Y00954282D01*
X00459750Y00953525D01*
Y00961110D01*
D02*
G37*
G36*
X00409750D02*
X00402165D01*
X00402923Y00959281D01*
X00405093Y00956453D01*
X00407922Y00954282D01*
X00409750Y00953525D01*
Y00961110D01*
D02*
G37*
G36*
X00359750D02*
X00352165D01*
X00352923Y00959281D01*
X00355093Y00956453D01*
X00357922Y00954282D01*
X00359750Y00953525D01*
Y00961110D01*
D02*
G37*
G36*
X00477335D02*
X00469750D01*
Y00953525D01*
X00471578Y00954282D01*
X00474407Y00956453D01*
X00476577Y00959281D01*
X00477335Y00961110D01*
D02*
G37*
G36*
X00427335D02*
X00419750D01*
Y00953525D01*
X00421578Y00954282D01*
X00424407Y00956453D01*
X00426577Y00959281D01*
X00427335Y00961110D01*
D02*
G37*
G36*
X00377335D02*
X00369750D01*
Y00953525D01*
X00371578Y00954282D01*
X00374407Y00956453D01*
X00376577Y00959281D01*
X00377335Y00961110D01*
D02*
G37*
G36*
X02577500Y01058314D02*
Y01051000D01*
X02584814D01*
X02584109Y01052702D01*
X02581978Y01055479D01*
X02579202Y01057609D01*
X02577500Y01058314D01*
D02*
G37*
G36*
X02567500D02*
X02565798Y01057609D01*
X02563022Y01055479D01*
X02560891Y01052702D01*
X02560186Y01051000D01*
X02567500D01*
Y01058314D01*
D02*
G37*
G36*
X02584814Y01041000D02*
X02577500D01*
Y01033686D01*
X02579202Y01034391D01*
X02581978Y01036522D01*
X02584109Y01039298D01*
X02584814Y01041000D01*
D02*
G37*
G36*
X02567500D02*
X02560186D01*
X02560891Y01039298D01*
X02563022Y01036522D01*
X02565798Y01034391D01*
X02567500Y01033686D01*
Y01041000D01*
D02*
G37*
G36*
X02071674Y01039589D02*
Y01032913D01*
X02078349D01*
X02077767Y01034318D01*
X02075732Y01036971D01*
X02073079Y01039007D01*
X02071674Y01039589D01*
D02*
G37*
G36*
X02061674D02*
X02060269Y01039007D01*
X02057616Y01036971D01*
X02055580Y01034318D01*
X02054998Y01032913D01*
X02061674D01*
Y01039589D01*
D02*
G37*
G36*
X02012300Y01038564D02*
Y01031250D01*
X02019614D01*
X02018909Y01032952D01*
X02016779Y01035729D01*
X02014002Y01037859D01*
X02012300Y01038564D01*
D02*
G37*
G36*
X02002300D02*
X02000598Y01037859D01*
X01997822Y01035729D01*
X01995691Y01032952D01*
X01994986Y01031250D01*
X02002300D01*
Y01038564D01*
D02*
G37*
G36*
X02078349Y01022913D02*
X02071674D01*
Y01016238D01*
X02073079Y01016820D01*
X02075732Y01018856D01*
X02077767Y01021508D01*
X02078349Y01022913D01*
D02*
G37*
G36*
X02061674D02*
X02054999D01*
X02055580Y01021508D01*
X02057616Y01018856D01*
X02060269Y01016820D01*
X02061674Y01016238D01*
Y01022913D01*
D02*
G37*
G36*
X02019614Y01021250D02*
X02012300D01*
Y01013936D01*
X02014002Y01014641D01*
X02016779Y01016771D01*
X02018909Y01019548D01*
X02019614Y01021250D01*
D02*
G37*
G36*
X02002300D02*
X01994986D01*
X01995691Y01019548D01*
X01997822Y01016771D01*
X02000598Y01014641D01*
X02002300Y01013936D01*
Y01021250D01*
D02*
G37*
G36*
X02577500Y00956314D02*
Y00949000D01*
X02584814D01*
X02584109Y00950702D01*
X02581978Y00953479D01*
X02579202Y00955609D01*
X02577500Y00956314D01*
D02*
G37*
G36*
X02567500D02*
X02565798Y00955609D01*
X02563022Y00953479D01*
X02560891Y00950702D01*
X02560186Y00949000D01*
X02567500D01*
Y00956314D01*
D02*
G37*
G36*
X01519793Y00954699D02*
Y00947385D01*
X01527107D01*
X01526402Y00949087D01*
X01524271Y00951863D01*
X01521495Y00953994D01*
X01519793Y00954699D01*
D02*
G37*
G36*
X01509793Y00954699D02*
X01508090Y00953994D01*
X01505314Y00951863D01*
X01503184Y00949087D01*
X01502479Y00947385D01*
X01509793D01*
Y00954699D01*
D02*
G37*
G36*
X02584814Y00939000D02*
X02577500D01*
Y00931686D01*
X02579202Y00932391D01*
X02581978Y00934521D01*
X02584109Y00937298D01*
X02584814Y00939000D01*
D02*
G37*
G36*
X02567500D02*
X02560186D01*
X02560891Y00937298D01*
X02563022Y00934521D01*
X02565798Y00932391D01*
X02567500Y00931686D01*
Y00939000D01*
D02*
G37*
G36*
X01527107Y00937385D02*
X01519793D01*
Y00930071D01*
X01521495Y00930776D01*
X01524271Y00932906D01*
X01526402Y00935682D01*
X01527107Y00937385D01*
D02*
G37*
G36*
X01509793D02*
X01502479D01*
X01503184Y00935682D01*
X01505314Y00932906D01*
X01508090Y00930776D01*
X01509793Y00930071D01*
Y00937385D01*
D02*
G37*
G36*
X02670976Y00901675D02*
Y00895000D01*
X02677652D01*
X02677070Y00896405D01*
X02675034Y00899058D01*
X02672381Y00901093D01*
X02670976Y00901675D01*
D02*
G37*
G36*
X02660977Y00901675D02*
X02659572Y00901093D01*
X02656919Y00899058D01*
X02654883Y00896405D01*
X02654301Y00895000D01*
X02660977D01*
Y00901675D01*
D02*
G37*
G36*
Y00885000D02*
X02654301D01*
X02654883Y00883595D01*
X02656919Y00880942D01*
X02659572Y00878907D01*
X02660977Y00878325D01*
Y00885000D01*
D02*
G37*
G36*
X02677652D02*
X02670976D01*
Y00878325D01*
X02672381Y00878907D01*
X02675034Y00880942D01*
X02677070Y00883595D01*
X02677652Y00885000D01*
D02*
G37*
G36*
X01134335Y00842314D02*
Y00835000D01*
X01141649D01*
X01140944Y00836702D01*
X01138813Y00839479D01*
X01136037Y00841609D01*
X01134335Y00842314D01*
D02*
G37*
G36*
X01124335Y00842314D02*
X01122632Y00841609D01*
X01119856Y00839479D01*
X01117726Y00836702D01*
X01117021Y00835000D01*
X01124335D01*
Y00842314D01*
D02*
G37*
G36*
X01141649Y00825000D02*
X01134335D01*
Y00817686D01*
X01136037Y00818391D01*
X01138813Y00820521D01*
X01140944Y00823298D01*
X01141649Y00825000D01*
D02*
G37*
G36*
X01124335D02*
X01117021D01*
X01117726Y00823298D01*
X01119856Y00820521D01*
X01122632Y00818391D01*
X01124335Y00817686D01*
Y00825000D01*
D02*
G37*
G36*
X02636335Y00823871D02*
Y00816557D01*
X02643650D01*
X02642944Y00818259D01*
X02640814Y00821035D01*
X02638038Y00823165D01*
X02636335Y00823871D01*
D02*
G37*
G36*
X02626335Y00823871D02*
X02624633Y00823165D01*
X02621857Y00821035D01*
X02619727Y00818259D01*
X02619022Y00816557D01*
X02626335D01*
Y00823871D01*
D02*
G37*
G36*
X01406638Y00860000D02*
X01402706D01*
X01398807Y00859487D01*
X01395008Y00858469D01*
X01391375Y00856964D01*
X01387969Y00854998D01*
X01384849Y00852604D01*
X01382068Y00849823D01*
X01379674Y00846703D01*
X01377708Y00843297D01*
X01376203Y00839664D01*
X01375185Y00835865D01*
X01374672Y00831966D01*
Y00828034D01*
X01375185Y00824135D01*
X01376203Y00820336D01*
X01377708Y00816703D01*
X01379674Y00813297D01*
X01382068Y00810177D01*
X01384849Y00807396D01*
X01387969Y00805002D01*
X01391375Y00803036D01*
X01395008Y00801531D01*
X01398807Y00800513D01*
X01402706Y00800000D01*
X01406638D01*
X01410537Y00800513D01*
X01414336Y00801531D01*
X01417969Y00803036D01*
X01421375Y00805002D01*
X01424495Y00807396D01*
X01427275Y00810177D01*
X01429669Y00813297D01*
X01431636Y00816703D01*
X01433141Y00820336D01*
X01434158Y00824135D01*
X01434672Y00828034D01*
Y00831966D01*
X01434158Y00835865D01*
X01433141Y00839664D01*
X01431636Y00843297D01*
X01429669Y00846703D01*
X01427275Y00849823D01*
X01424495Y00852604D01*
X01421375Y00854998D01*
X01417969Y00856964D01*
X01414336Y00858469D01*
X01410537Y00859487D01*
X01406638Y00860000D01*
D02*
G37*
G36*
X02626335Y00806557D02*
X02619022D01*
X02619727Y00804854D01*
X02621857Y00802078D01*
X02624633Y00799948D01*
X02626335Y00799243D01*
Y00806557D01*
D02*
G37*
G36*
X02643650D02*
X02636335D01*
Y00799243D01*
X02638038Y00799948D01*
X02640814Y00802078D01*
X02642944Y00804854D01*
X02643650Y00806557D01*
D02*
G37*
G36*
X02156908Y00802723D02*
X02154926Y00802328D01*
X02153246Y00801206D01*
X02152123Y00799525D01*
X02151729Y00797543D01*
X02152123Y00795561D01*
X02153246Y00793881D01*
X02154926Y00792758D01*
X02156908Y00792364D01*
X02158891Y00792758D01*
X02160571Y00793881D01*
X02161694Y00795561D01*
X02162088Y00797543D01*
X02161694Y00799525D01*
X02160571Y00801206D01*
X02158891Y00802328D01*
X02156908Y00802723D01*
D02*
G37*
G36*
X02212627Y00799060D02*
X02210645Y00798666D01*
X02208965Y00797543D01*
X02207842Y00795863D01*
X02207448Y00793881D01*
X02207842Y00791899D01*
X02208965Y00790218D01*
X02210645Y00789095D01*
X02212627Y00788701D01*
X02214609Y00789095D01*
X02216290Y00790218D01*
X02217412Y00791899D01*
X02217807Y00793881D01*
X02217412Y00795863D01*
X02216290Y00797543D01*
X02214609Y00798666D01*
X02212627Y00799060D01*
D02*
G37*
G36*
X01428065Y00781013D02*
X01291362D01*
X01291324Y00780975D01*
Y00763011D01*
X01307397Y00745371D01*
X01442210D01*
X01444710Y00747871D01*
X01442655Y00749926D01*
Y00766304D01*
X01428065Y00780894D01*
Y00781013D01*
D02*
G37*
G36*
X02103347Y00742314D02*
Y00735000D01*
X02110661D01*
X02109956Y00736702D01*
X02107825Y00739479D01*
X02105049Y00741609D01*
X02103347Y00742314D01*
D02*
G37*
G36*
X02093347D02*
X02091644Y00741609D01*
X02088868Y00739479D01*
X02086738Y00736702D01*
X02086033Y00735000D01*
X02093347D01*
Y00742314D01*
D02*
G37*
G36*
X02110661Y00725000D02*
X02103347D01*
Y00717686D01*
X02105049Y00718391D01*
X02107825Y00720521D01*
X02109956Y00723298D01*
X02110661Y00725000D01*
D02*
G37*
G36*
X02093347D02*
X02086033D01*
X02086738Y00723298D01*
X02088868Y00720521D01*
X02091644Y00718391D01*
X02093347Y00717686D01*
Y00725000D01*
D02*
G37*
G36*
X02102879Y00559799D02*
Y00553123D01*
X02109554D01*
X02108972Y00554528D01*
X02106937Y00557181D01*
X02104284Y00559217D01*
X02102879Y00559799D01*
D02*
G37*
G36*
X02092879D02*
X02091474Y00559217D01*
X02088821Y00557181D01*
X02086786Y00554528D01*
X02086204Y00553123D01*
X02092879D01*
Y00559799D01*
D02*
G37*
G36*
X02308886Y00749827D02*
X02179323D01*
Y00665863D01*
X02153241Y00639781D01*
X02153241Y00558740D01*
X02193204D01*
X02200817Y00566353D01*
X02200817Y00613319D01*
X02206479Y00618982D01*
X02207650Y00618356D01*
X02207448Y00617339D01*
X02207842Y00615356D01*
X02208965Y00613676D01*
X02210610Y00612577D01*
X02210645Y00612366D01*
Y00611476D01*
X02210610Y00611265D01*
X02208965Y00610166D01*
X02207842Y00608485D01*
X02207448Y00606503D01*
X02207842Y00604521D01*
X02208965Y00602841D01*
X02210645Y00601718D01*
X02212627Y00601324D01*
X02214609Y00601718D01*
X02216290Y00602841D01*
X02217412Y00604521D01*
X02217807Y00606503D01*
X02217412Y00608485D01*
X02216290Y00610166D01*
X02214644Y00611265D01*
X02214609Y00611476D01*
Y00612366D01*
X02214644Y00612577D01*
X02216290Y00613676D01*
X02217412Y00615356D01*
X02217807Y00617339D01*
X02217412Y00619321D01*
X02217143Y00619723D01*
X02217742Y00620843D01*
X02270427D01*
X02273817Y00617453D01*
Y00610166D01*
X02246296Y00582645D01*
Y00572973D01*
X02268860Y00550409D01*
X02375061D01*
X02483096Y00550117D01*
X02492391Y00559412D01*
Y00695884D01*
X02474432Y00713843D01*
X02473704Y00713115D01*
X02345597D01*
X02308886Y00749827D01*
D02*
G37*
G36*
X02109554Y00543123D02*
X02102879D01*
Y00536448D01*
X02104284Y00537030D01*
X02106937Y00539066D01*
X02108972Y00541718D01*
X02109554Y00543123D01*
D02*
G37*
G36*
X02092879D02*
X02086204D01*
X02086786Y00541718D01*
X02088821Y00539066D01*
X02091474Y00537030D01*
X02092879Y00536448D01*
Y00543123D01*
D02*
G37*
G36*
X02634342Y00576557D02*
X02629099D01*
X02623900Y00575872D01*
X02618835Y00574515D01*
X02613991Y00572509D01*
X02609450Y00569887D01*
X02605290Y00566695D01*
X02601582Y00562987D01*
X02598390Y00558827D01*
X02595769Y00554286D01*
X02593762Y00549442D01*
X02592405Y00544377D01*
X02591721Y00539178D01*
Y00533935D01*
X02592405Y00528736D01*
X02593762Y00523671D01*
X02595769Y00518827D01*
X02598390Y00514286D01*
X02601582Y00510126D01*
X02605290Y00506418D01*
X02609450Y00503227D01*
X02613991Y00500605D01*
X02618835Y00498598D01*
X02623900Y00497241D01*
X02629099Y00496557D01*
X02634342D01*
X02639541Y00497241D01*
X02644606Y00498598D01*
X02649450Y00500605D01*
X02653991Y00503227D01*
X02658151Y00506418D01*
X02661859Y00510126D01*
X02665051Y00514286D01*
X02667672Y00518827D01*
X02669679Y00523671D01*
X02671036Y00528736D01*
X02671721Y00533935D01*
Y00539178D01*
X02671036Y00544377D01*
X02669679Y00549442D01*
X02667672Y00554286D01*
X02665051Y00558827D01*
X02661859Y00562987D01*
X02658151Y00566695D01*
X02653991Y00569887D01*
X02649450Y00572509D01*
X02644606Y00574515D01*
X02639541Y00575872D01*
X02634342Y00576557D01*
D02*
G37*
G36*
X02014562Y00282504D02*
X02004203D01*
Y00272145D01*
X02014562D01*
Y00282504D01*
D02*
G37*
G36*
X02009382Y00263719D02*
X02007400Y00263325D01*
X02005720Y00262202D01*
X02004597Y00260522D01*
X02004203Y00258540D01*
X02004597Y00256558D01*
X02005720Y00254877D01*
X02007400Y00253755D01*
X02009382Y00253360D01*
X02011364Y00253755D01*
X02013045Y00254877D01*
X02014167Y00256558D01*
X02014562Y00258540D01*
X02014167Y00260522D01*
X02013045Y00262202D01*
X02011364Y00263325D01*
X02009382Y00263719D01*
D02*
G37*
G36*
X00670450Y01164601D02*
X00665000D01*
Y01156000D01*
X00673600D01*
Y01161450D01*
X00673361Y01162656D01*
X00672678Y01163678D01*
X00671656Y01164361D01*
X00670450Y01164601D01*
D02*
G37*
G36*
X00655000D02*
X00649550D01*
X00648344Y01164361D01*
X00647322Y01163678D01*
X00646639Y01162656D01*
X00646400Y01161450D01*
Y01156000D01*
X00655000D01*
Y01164601D01*
D02*
G37*
G36*
X00673600Y01146000D02*
X00665000D01*
Y01137400D01*
X00670450D01*
X00671656Y01137639D01*
X00672678Y01138322D01*
X00673361Y01139344D01*
X00673600Y01140550D01*
Y01146000D01*
D02*
G37*
G36*
X00655000D02*
X00646400D01*
Y01140550D01*
X00646639Y01139344D01*
X00647322Y01138322D01*
X00648344Y01137639D01*
X00649550Y01137400D01*
X00655000D01*
Y01146000D01*
D02*
G37*
G36*
X00675200Y00979710D02*
X00669750D01*
Y00971109D01*
X00678351D01*
Y00976559D01*
X00678111Y00977765D01*
X00677428Y00978787D01*
X00676406Y00979470D01*
X00675200Y00979710D01*
D02*
G37*
G36*
X00619750Y00978694D02*
Y00971109D01*
X00627335D01*
X00626577Y00972938D01*
X00624407Y00975766D01*
X00621578Y00977937D01*
X00619750Y00978694D01*
D02*
G37*
G36*
X00569750D02*
Y00971109D01*
X00577335D01*
X00576577Y00972938D01*
X00574407Y00975766D01*
X00571578Y00977937D01*
X00569750Y00978694D01*
D02*
G37*
G36*
X00609750Y00978694D02*
X00607922Y00977937D01*
X00605093Y00975766D01*
X00602923Y00972938D01*
X00602165Y00971109D01*
X00609750D01*
Y00978694D01*
D02*
G37*
G36*
X00559750D02*
X00557922Y00977937D01*
X00555093Y00975766D01*
X00552923Y00972938D01*
X00552165Y00971109D01*
X00559750D01*
Y00978694D01*
D02*
G37*
G36*
X00659750Y00979710D02*
X00654300D01*
X00653094Y00979470D01*
X00652072Y00978787D01*
X00651389Y00977765D01*
X00651150Y00976559D01*
Y00971109D01*
X00659750D01*
Y00979710D01*
D02*
G37*
G36*
X00609750Y00961110D02*
X00602165D01*
X00602923Y00959281D01*
X00605093Y00956453D01*
X00607922Y00954282D01*
X00609750Y00953525D01*
Y00961110D01*
D02*
G37*
G36*
X00559750D02*
X00552165D01*
X00552923Y00959281D01*
X00555093Y00956453D01*
X00557922Y00954282D01*
X00559750Y00953525D01*
Y00961110D01*
D02*
G37*
G36*
X00627335D02*
X00619750D01*
Y00953525D01*
X00621578Y00954282D01*
X00624407Y00956453D01*
X00626577Y00959281D01*
X00627335Y00961110D01*
D02*
G37*
G36*
X00577335D02*
X00569750D01*
Y00953525D01*
X00571578Y00954282D01*
X00574407Y00956453D01*
X00576577Y00959281D01*
X00577335Y00961110D01*
D02*
G37*
G36*
X00678351D02*
X00669750D01*
Y00952509D01*
X00675200D01*
X00676406Y00952749D01*
X00677428Y00953432D01*
X00678111Y00954454D01*
X00678351Y00955659D01*
Y00961110D01*
D02*
G37*
G36*
X00659750D02*
X00651150D01*
Y00955659D01*
X00651389Y00954454D01*
X00652072Y00953432D01*
X00653094Y00952749D01*
X00654300Y00952509D01*
X00659750D01*
Y00961110D01*
D02*
G37*
G36*
X00761921Y00896365D02*
Y00892298D01*
X00765988D01*
X00765909Y00892488D01*
X00764260Y00894637D01*
X00762110Y00896287D01*
X00761921Y00896365D01*
D02*
G37*
G36*
X00751921D02*
X00751731Y00896287D01*
X00749582Y00894637D01*
X00747933Y00892488D01*
X00747854Y00892298D01*
X00751921D01*
Y00896365D01*
D02*
G37*
G36*
X00765988Y00882299D02*
X00761921D01*
Y00878232D01*
X00762110Y00878310D01*
X00764260Y00879959D01*
X00765909Y00882109D01*
X00765988Y00882299D01*
D02*
G37*
G36*
X00751921D02*
X00747854D01*
X00747933Y00882109D01*
X00749582Y00879959D01*
X00751731Y00878310D01*
X00751921Y00878232D01*
Y00882299D01*
D02*
G37*
G36*
X00761421Y00769886D02*
Y00765819D01*
X00765488D01*
X00765409Y00766009D01*
X00763760Y00768158D01*
X00761610Y00769808D01*
X00761421Y00769886D01*
D02*
G37*
G36*
X00751421D02*
X00751232Y00769808D01*
X00749082Y00768158D01*
X00747433Y00766009D01*
X00747354Y00765819D01*
X00751421D01*
Y00769886D01*
D02*
G37*
G36*
X00765488Y00755819D02*
X00761421D01*
Y00751753D01*
X00761610Y00751831D01*
X00763760Y00753481D01*
X00765409Y00755630D01*
X00765488Y00755819D01*
D02*
G37*
G36*
X00751421D02*
X00747354D01*
X00747433Y00755630D01*
X00749082Y00753481D01*
X00751232Y00751831D01*
X00751421Y00751753D01*
Y00755819D01*
D02*
G37*
G36*
X00645000Y00512164D02*
Y00504580D01*
X00652585D01*
X00651827Y00506408D01*
X00649657Y00509236D01*
X00646828Y00511407D01*
X00645000Y00512164D01*
D02*
G37*
G36*
X00635000D02*
X00633172Y00511407D01*
X00630343Y00509236D01*
X00628173Y00506408D01*
X00627416Y00504580D01*
X00635000D01*
Y00512164D01*
D02*
G37*
G36*
Y00494580D02*
X00627416D01*
X00628173Y00492751D01*
X00630343Y00489923D01*
X00633172Y00487752D01*
X00635000Y00486995D01*
Y00494580D01*
D02*
G37*
G36*
X00652585D02*
X00645000D01*
Y00486995D01*
X00646828Y00487752D01*
X00649657Y00489923D01*
X00651827Y00492751D01*
X00652585Y00494580D01*
D02*
G37*
G36*
X00089180Y00470712D02*
Y00465292D01*
X00094600D01*
X00094260Y00466112D01*
X00092411Y00468523D01*
X00090000Y00470373D01*
X00089180Y00470712D01*
D02*
G37*
G36*
X00079180Y00470712D02*
X00078360Y00470373D01*
X00075950Y00468523D01*
X00074100Y00466112D01*
X00073760Y00465292D01*
X00079180D01*
Y00470712D01*
D02*
G37*
G36*
Y00455292D02*
X00073760D01*
X00074100Y00454473D01*
X00075950Y00452062D01*
X00078360Y00450212D01*
X00079180Y00449873D01*
Y00455292D01*
D02*
G37*
G36*
X00094600D02*
X00089180D01*
Y00449873D01*
X00090000Y00450212D01*
X00092411Y00452062D01*
X00094260Y00454473D01*
X00094600Y00455292D01*
D02*
G37*
G36*
X00116510Y00421547D02*
Y00414872D01*
X00123186D01*
X00122604Y00416277D01*
X00120568Y00418929D01*
X00117915Y00420965D01*
X00116510Y00421547D01*
D02*
G37*
G36*
X00106510D02*
X00105106Y00420965D01*
X00102453Y00418929D01*
X00100417Y00416277D01*
X00099835Y00414872D01*
X00106510D01*
Y00421547D01*
D02*
G37*
G36*
X00227285Y00417599D02*
X00225000D01*
Y00412250D01*
X00230349D01*
Y00414535D01*
X00230116Y00415708D01*
X00229452Y00416702D01*
X00228458Y00417366D01*
X00227285Y00417599D01*
D02*
G37*
G36*
X00215000D02*
X00212715D01*
X00211542Y00417366D01*
X00210548Y00416702D01*
X00209884Y00415708D01*
X00209651Y00414535D01*
Y00412250D01*
X00215000D01*
Y00417599D01*
D02*
G37*
G36*
X00123186Y00404872D02*
X00116510D01*
Y00398196D01*
X00117915Y00398778D01*
X00120568Y00400814D01*
X00122604Y00403467D01*
X00123186Y00404872D01*
D02*
G37*
G36*
X00106510D02*
X00099835D01*
X00100417Y00403467D01*
X00102453Y00400814D01*
X00105106Y00398778D01*
X00106510Y00398196D01*
Y00404872D01*
D02*
G37*
G36*
X00230349Y00402250D02*
X00225000D01*
Y00396901D01*
X00227285D01*
X00228458Y00397134D01*
X00229452Y00397799D01*
X00230116Y00398792D01*
X00230349Y00399965D01*
Y00402250D01*
D02*
G37*
G36*
X00215000D02*
X00209651D01*
Y00399965D01*
X00209884Y00398792D01*
X00210548Y00397799D01*
X00211542Y00397134D01*
X00212715Y00396901D01*
X00215000D01*
Y00402250D01*
D02*
G37*
G36*
X00514528Y00381697D02*
X00512038Y00381370D01*
X00511278Y00381055D01*
X00510518Y00381370D01*
X00508028Y00381697D01*
X00505537Y00381370D01*
X00504778Y00381055D01*
X00504018Y00381370D01*
X00501528Y00381697D01*
X00499038Y00381370D01*
X00498278Y00381055D01*
X00497518Y00381370D01*
X00495028Y00381697D01*
X00492537Y00381370D01*
X00491778Y00381055D01*
X00491018Y00381370D01*
X00488528Y00381697D01*
X00486037Y00381370D01*
X00485278Y00381055D01*
X00484518Y00381370D01*
X00482028Y00381697D01*
X00479538Y00381370D01*
X00478778Y00381055D01*
X00478018Y00381370D01*
X00475528Y00381697D01*
X00473037Y00381370D01*
X00472278Y00381055D01*
X00471518Y00381370D01*
X00469028Y00381697D01*
X00466538Y00381370D01*
X00465778Y00381055D01*
X00465018Y00381370D01*
X00462528Y00381697D01*
X00460037Y00381370D01*
X00459278Y00381055D01*
X00458518Y00381370D01*
X00456028Y00381697D01*
X00453537Y00381370D01*
X00452778Y00381055D01*
X00452018Y00381370D01*
X00449528Y00381697D01*
X00447038Y00381370D01*
X00446278Y00381055D01*
X00445518Y00381370D01*
X00443028Y00381697D01*
X00440537Y00381370D01*
X00439586Y00380976D01*
X00438895Y00381262D01*
X00436405Y00381590D01*
X00433914Y00381262D01*
X00433247Y00380986D01*
X00432320Y00381370D01*
X00429830Y00381697D01*
X00427340Y00381370D01*
X00426580Y00381055D01*
X00425821Y00381370D01*
X00423330Y00381697D01*
X00420840Y00381370D01*
X00420080Y00381055D01*
X00419320Y00381370D01*
X00416830Y00381697D01*
X00414340Y00381370D01*
X00413580Y00381055D01*
X00412820Y00381370D01*
X00410330Y00381697D01*
X00407840Y00381370D01*
X00407080Y00381055D01*
X00406320Y00381370D01*
X00403830Y00381697D01*
X00401340Y00381370D01*
X00400580Y00381055D01*
X00399820Y00381370D01*
X00397330Y00381697D01*
X00394840Y00381370D01*
X00394080Y00381055D01*
X00393320Y00381370D01*
X00390830Y00381697D01*
X00388340Y00381370D01*
X00387580Y00381055D01*
X00386820Y00381370D01*
X00384330Y00381697D01*
X00381840Y00381370D01*
X00381080Y00381055D01*
X00380320Y00381370D01*
X00377830Y00381697D01*
X00375340Y00381370D01*
X00374580Y00381055D01*
X00373820Y00381370D01*
X00371330Y00381697D01*
X00368840Y00381370D01*
X00368080Y00381055D01*
X00367320Y00381370D01*
X00364830Y00381697D01*
X00362340Y00381370D01*
X00361580Y00381055D01*
X00360820Y00381370D01*
X00358330Y00381697D01*
X00355840Y00381370D01*
X00355112Y00381068D01*
X00354645Y00381262D01*
X00352155Y00381590D01*
X00349664Y00381262D01*
X00348997Y00380986D01*
X00348070Y00381370D01*
X00345580Y00381697D01*
X00343089Y00381370D01*
X00342330Y00381055D01*
X00341570Y00381370D01*
X00339080Y00381697D01*
X00336590Y00381370D01*
X00335830Y00381055D01*
X00335070Y00381370D01*
X00332580Y00381697D01*
X00330089Y00381370D01*
X00329330Y00381055D01*
X00328570Y00381370D01*
X00326080Y00381697D01*
X00323590Y00381370D01*
X00322830Y00381055D01*
X00322070Y00381370D01*
X00319580Y00381697D01*
X00317090Y00381370D01*
X00314769Y00380408D01*
X00312776Y00378879D01*
X00311247Y00376886D01*
X00310285Y00374566D01*
X00310253Y00374317D01*
X00309578Y00373799D01*
X00308049Y00371806D01*
X00307087Y00369486D01*
X00306760Y00366995D01*
X00307087Y00364505D01*
X00308049Y00362184D01*
X00309578Y00360191D01*
X00311571Y00358662D01*
X00313892Y00357701D01*
X00316382Y00357373D01*
X00318872Y00357701D01*
X00319632Y00358015D01*
X00320392Y00357701D01*
X00322882Y00357373D01*
X00325373Y00357701D01*
X00326132Y00358015D01*
X00326892Y00357701D01*
X00329382Y00357373D01*
X00331872Y00357701D01*
X00332632Y00358015D01*
X00333392Y00357701D01*
X00335882Y00357373D01*
X00338372Y00357701D01*
X00339132Y00358015D01*
X00339892Y00357701D01*
X00342382Y00357373D01*
X00344872Y00357701D01*
X00345632Y00358015D01*
X00346392Y00357701D01*
X00348882Y00357373D01*
X00351372Y00357701D01*
X00352132Y00358015D01*
X00352892Y00357701D01*
X00355382Y00357373D01*
X00357872Y00357701D01*
X00358507Y00357963D01*
X00359142Y00357701D01*
X00361632Y00357373D01*
X00364123Y00357701D01*
X00364882Y00358015D01*
X00365642Y00357701D01*
X00368132Y00357373D01*
X00370622Y00357701D01*
X00371382Y00358015D01*
X00372142Y00357701D01*
X00374632Y00357373D01*
X00377122Y00357701D01*
X00377882Y00358015D01*
X00378642Y00357701D01*
X00381132Y00357373D01*
X00383623Y00357701D01*
X00384382Y00358015D01*
X00385142Y00357701D01*
X00387632Y00357373D01*
X00390122Y00357701D01*
X00390882Y00358015D01*
X00391642Y00357701D01*
X00394132Y00357373D01*
X00396623Y00357701D01*
X00397382Y00358015D01*
X00398142Y00357701D01*
X00400632Y00357373D01*
X00403122Y00357701D01*
X00403882Y00358015D01*
X00404642Y00357701D01*
X00407132Y00357373D01*
X00409622Y00357701D01*
X00410382Y00358015D01*
X00411142Y00357701D01*
X00413632Y00357373D01*
X00416123Y00357701D01*
X00416882Y00358015D01*
X00417642Y00357701D01*
X00420132Y00357373D01*
X00422622Y00357701D01*
X00423382Y00358015D01*
X00424142Y00357701D01*
X00426632Y00357373D01*
X00429123Y00357701D01*
X00429882Y00358015D01*
X00430642Y00357701D01*
X00433132Y00357373D01*
X00435622Y00357701D01*
X00436382Y00358015D01*
X00437142Y00357701D01*
X00439632Y00357373D01*
X00442122Y00357701D01*
X00442981Y00358056D01*
X00443839Y00357701D01*
X00446330Y00357373D01*
X00448820Y00357701D01*
X00449580Y00358015D01*
X00450340Y00357701D01*
X00452830Y00357373D01*
X00455320Y00357701D01*
X00456080Y00358015D01*
X00456839Y00357701D01*
X00459330Y00357373D01*
X00461820Y00357701D01*
X00462580Y00358015D01*
X00463340Y00357701D01*
X00465830Y00357373D01*
X00468320Y00357701D01*
X00469080Y00358015D01*
X00469840Y00357701D01*
X00472330Y00357373D01*
X00474820Y00357701D01*
X00475580Y00358015D01*
X00476339Y00357701D01*
X00478830Y00357373D01*
X00481320Y00357701D01*
X00482080Y00358015D01*
X00482840Y00357701D01*
X00485330Y00357373D01*
X00487820Y00357701D01*
X00488580Y00358015D01*
X00489339Y00357701D01*
X00491830Y00357373D01*
X00494320Y00357701D01*
X00495080Y00358015D01*
X00495840Y00357701D01*
X00498330Y00357373D01*
X00500820Y00357701D01*
X00501580Y00358015D01*
X00502340Y00357701D01*
X00504830Y00357373D01*
X00507320Y00357701D01*
X00508080Y00358015D01*
X00508839Y00357701D01*
X00511330Y00357373D01*
X00513820Y00357701D01*
X00514580Y00358015D01*
X00515340Y00357701D01*
X00517830Y00357373D01*
X00520320Y00357701D01*
X00521080Y00358015D01*
X00521839Y00357701D01*
X00524330Y00357373D01*
X00526820Y00357701D01*
X00529141Y00358662D01*
X00531134Y00360191D01*
X00532663Y00362184D01*
X00533624Y00364505D01*
X00533952Y00366995D01*
X00533624Y00369486D01*
X00532663Y00371806D01*
X00531134Y00373799D01*
X00530411Y00374354D01*
X00530397Y00374458D01*
X00529436Y00376779D01*
X00527907Y00378772D01*
X00525914Y00380301D01*
X00523593Y00381262D01*
X00521102Y00381590D01*
X00518612Y00381262D01*
X00517945Y00380986D01*
X00517018Y00381370D01*
X00514528Y00381697D01*
D02*
G37*
G36*
X00527080Y00318409D02*
X00524590Y00318081D01*
X00523830Y00317767D01*
X00523070Y00318081D01*
X00520580Y00318409D01*
X00518090Y00318081D01*
X00517330Y00317767D01*
X00516571Y00318081D01*
X00514080Y00318409D01*
X00511590Y00318081D01*
X00510830Y00317767D01*
X00510070Y00318081D01*
X00507580Y00318409D01*
X00505090Y00318081D01*
X00504330Y00317767D01*
X00503571Y00318081D01*
X00501080Y00318409D01*
X00498590Y00318081D01*
X00497830Y00317767D01*
X00497071Y00318081D01*
X00494580Y00318409D01*
X00492090Y00318081D01*
X00491330Y00317767D01*
X00490570Y00318081D01*
X00488080Y00318409D01*
X00485590Y00318081D01*
X00484955Y00317819D01*
X00484320Y00318081D01*
X00481830Y00318409D01*
X00479340Y00318081D01*
X00478580Y00317767D01*
X00477820Y00318081D01*
X00475330Y00318409D01*
X00472840Y00318081D01*
X00472080Y00317767D01*
X00471320Y00318081D01*
X00468830Y00318409D01*
X00466340Y00318081D01*
X00465580Y00317767D01*
X00464820Y00318081D01*
X00462330Y00318409D01*
X00459840Y00318081D01*
X00459080Y00317767D01*
X00458320Y00318081D01*
X00455830Y00318409D01*
X00453340Y00318081D01*
X00452580Y00317767D01*
X00451820Y00318081D01*
X00449330Y00318409D01*
X00446839Y00318081D01*
X00446080Y00317767D01*
X00445320Y00318081D01*
X00442830Y00318409D01*
X00440340Y00318081D01*
X00439580Y00317767D01*
X00438820Y00318081D01*
X00436330Y00318409D01*
X00433839Y00318081D01*
X00433080Y00317767D01*
X00432320Y00318081D01*
X00429830Y00318409D01*
X00427340Y00318081D01*
X00426580Y00317767D01*
X00425820Y00318081D01*
X00423330Y00318409D01*
X00420840Y00318081D01*
X00420080Y00317767D01*
X00419320Y00318081D01*
X00416830Y00318409D01*
X00414340Y00318081D01*
X00413580Y00317767D01*
X00412820Y00318081D01*
X00410330Y00318409D01*
X00407840Y00318081D01*
X00407080Y00317767D01*
X00406320Y00318081D01*
X00403830Y00318409D01*
X00401340Y00318081D01*
X00400481Y00317726D01*
X00399622Y00318081D01*
X00397132Y00318409D01*
X00394642Y00318081D01*
X00393882Y00317767D01*
X00393122Y00318081D01*
X00390632Y00318409D01*
X00388142Y00318081D01*
X00387382Y00317767D01*
X00386623Y00318081D01*
X00384132Y00318409D01*
X00381642Y00318081D01*
X00380882Y00317767D01*
X00380122Y00318081D01*
X00377632Y00318409D01*
X00375142Y00318081D01*
X00374382Y00317767D01*
X00373623Y00318081D01*
X00371132Y00318409D01*
X00368642Y00318081D01*
X00367882Y00317767D01*
X00367122Y00318081D01*
X00364632Y00318409D01*
X00362142Y00318081D01*
X00361382Y00317767D01*
X00360622Y00318081D01*
X00358132Y00318409D01*
X00355642Y00318081D01*
X00354882Y00317767D01*
X00354123Y00318081D01*
X00351632Y00318409D01*
X00349142Y00318081D01*
X00348382Y00317767D01*
X00347622Y00318081D01*
X00345132Y00318409D01*
X00342642Y00318081D01*
X00341882Y00317767D01*
X00341123Y00318081D01*
X00338632Y00318409D01*
X00336142Y00318081D01*
X00335382Y00317767D01*
X00334622Y00318081D01*
X00332132Y00318409D01*
X00329642Y00318081D01*
X00328882Y00317767D01*
X00328122Y00318081D01*
X00325632Y00318409D01*
X00323142Y00318081D01*
X00322382Y00317767D01*
X00321623Y00318081D01*
X00319132Y00318409D01*
X00316642Y00318081D01*
X00314321Y00317120D01*
X00312328Y00315591D01*
X00310799Y00313598D01*
X00309838Y00311277D01*
X00309510Y00308787D01*
X00309838Y00306297D01*
X00310799Y00303976D01*
X00312328Y00301983D01*
X00313051Y00301428D01*
X00313065Y00301324D01*
X00314026Y00299003D01*
X00315555Y00297011D01*
X00317548Y00295481D01*
X00319869Y00294520D01*
X00322360Y00294192D01*
X00324850Y00294520D01*
X00325517Y00294796D01*
X00326444Y00294412D01*
X00328934Y00294085D01*
X00331424Y00294412D01*
X00332184Y00294727D01*
X00332944Y00294412D01*
X00335434Y00294085D01*
X00337924Y00294412D01*
X00338684Y00294727D01*
X00339444Y00294412D01*
X00341934Y00294085D01*
X00344425Y00294412D01*
X00345184Y00294727D01*
X00345944Y00294412D01*
X00348434Y00294085D01*
X00350924Y00294412D01*
X00351684Y00294727D01*
X00352444Y00294412D01*
X00354934Y00294085D01*
X00357425Y00294412D01*
X00358184Y00294727D01*
X00358944Y00294412D01*
X00361434Y00294085D01*
X00363924Y00294412D01*
X00364684Y00294727D01*
X00365444Y00294412D01*
X00367934Y00294085D01*
X00370424Y00294412D01*
X00371184Y00294727D01*
X00371944Y00294412D01*
X00374434Y00294085D01*
X00376925Y00294412D01*
X00377684Y00294727D01*
X00378444Y00294412D01*
X00380934Y00294085D01*
X00383424Y00294412D01*
X00384184Y00294727D01*
X00384944Y00294412D01*
X00387434Y00294085D01*
X00389925Y00294412D01*
X00390684Y00294727D01*
X00391444Y00294412D01*
X00393934Y00294085D01*
X00396424Y00294412D01*
X00397184Y00294727D01*
X00397944Y00294412D01*
X00400434Y00294085D01*
X00402924Y00294412D01*
X00403876Y00294806D01*
X00404567Y00294520D01*
X00407057Y00294192D01*
X00409548Y00294520D01*
X00410215Y00294796D01*
X00411142Y00294412D01*
X00413632Y00294085D01*
X00416123Y00294412D01*
X00416882Y00294727D01*
X00417642Y00294412D01*
X00420132Y00294085D01*
X00422622Y00294412D01*
X00423382Y00294727D01*
X00424142Y00294412D01*
X00426632Y00294085D01*
X00429123Y00294412D01*
X00429882Y00294727D01*
X00430642Y00294412D01*
X00433132Y00294085D01*
X00435622Y00294412D01*
X00436382Y00294727D01*
X00437142Y00294412D01*
X00439632Y00294085D01*
X00442122Y00294412D01*
X00442882Y00294727D01*
X00443642Y00294412D01*
X00446132Y00294085D01*
X00448623Y00294412D01*
X00449382Y00294727D01*
X00450142Y00294412D01*
X00452632Y00294085D01*
X00455122Y00294412D01*
X00455882Y00294727D01*
X00456642Y00294412D01*
X00459132Y00294085D01*
X00461622Y00294412D01*
X00462382Y00294727D01*
X00463142Y00294412D01*
X00465632Y00294085D01*
X00468122Y00294412D01*
X00468882Y00294727D01*
X00469642Y00294412D01*
X00472132Y00294085D01*
X00474622Y00294412D01*
X00475382Y00294727D01*
X00476142Y00294412D01*
X00478632Y00294085D01*
X00481123Y00294412D01*
X00481882Y00294727D01*
X00482642Y00294412D01*
X00485132Y00294085D01*
X00487622Y00294412D01*
X00488350Y00294714D01*
X00488817Y00294520D01*
X00491307Y00294192D01*
X00493798Y00294520D01*
X00494465Y00294796D01*
X00495392Y00294412D01*
X00497882Y00294085D01*
X00500373Y00294412D01*
X00501132Y00294727D01*
X00501892Y00294412D01*
X00504382Y00294085D01*
X00506872Y00294412D01*
X00507632Y00294727D01*
X00508392Y00294412D01*
X00510882Y00294085D01*
X00513372Y00294412D01*
X00514132Y00294727D01*
X00514892Y00294412D01*
X00517382Y00294085D01*
X00519873Y00294412D01*
X00520632Y00294727D01*
X00521392Y00294412D01*
X00523882Y00294085D01*
X00526372Y00294412D01*
X00528693Y00295374D01*
X00530686Y00296903D01*
X00532215Y00298896D01*
X00533176Y00301217D01*
X00533209Y00301465D01*
X00533884Y00301983D01*
X00535413Y00303976D01*
X00536375Y00306297D01*
X00536702Y00308787D01*
X00536375Y00311277D01*
X00535413Y00313598D01*
X00533884Y00315591D01*
X00531891Y00317120D01*
X00529571Y00318081D01*
X00527080Y00318409D01*
D02*
G37*
G36*
X01491679Y00061784D02*
X01489395D01*
Y00056435D01*
X01494743D01*
Y00058720D01*
X01494510Y00059893D01*
X01493846Y00060887D01*
X01492852Y00061551D01*
X01491679Y00061784D01*
D02*
G37*
G36*
X01479395D02*
X01477109D01*
X01475937Y00061551D01*
X01474943Y00060887D01*
X01474279Y00059893D01*
X01474046Y00058720D01*
Y00056435D01*
X01479395D01*
Y00061784D01*
D02*
G37*
G36*
X01494743Y00046435D02*
X01489395D01*
Y00041086D01*
X01491679D01*
X01492852Y00041320D01*
X01493846Y00041984D01*
X01494510Y00042978D01*
X01494743Y00044150D01*
Y00046435D01*
D02*
G37*
G36*
X01479395D02*
X01474046D01*
Y00044150D01*
X01474279Y00042978D01*
X01474943Y00041984D01*
X01475937Y00041320D01*
X01477109Y00041086D01*
X01479395D01*
Y00046435D01*
D02*
G37*
%LPD*%
G54D13*
X01165938Y00600405D02*
X01236629D01*
X01147946Y00582414D02*
X01165938Y00600405D01*
X01231032Y00709120D02*
X01243240D01*
X01230700Y00709453D02*
X01231032Y00709120D01*
X01194891Y00709453D02*
X01230700D01*
X01146691Y00709636D02*
X01194708D01*
X01194891Y00709453D01*
X01749743Y00588777D02*
Y00623080D01*
X01773551Y00646888D01*
Y00737625D01*
X00552500Y01465616D02*
X00586884Y01500000D01*
X01013245D02*
X01030747Y01517501D01*
X00586884Y01500000D02*
X01013245D01*
X01030747Y01517501D02*
X01119005D01*
X01236629Y00600405D02*
X01250653Y00586382D01*
Y00477146D02*
X01263182Y00464617D01*
X01250653Y00477146D02*
Y00586382D01*
G54D22*
X01431636Y00635172D02*
Y00702794D01*
X01424495Y00709936D02*
X01431636Y00702794D01*
Y00635172D02*
X01442812Y00623996D01*
X01545451D01*
X00185235Y01532021D02*
X00185521Y01532308D01*
X00185235Y01519825D02*
Y01532021D01*
X00177365Y01511955D02*
X00185235Y01519825D01*
X00131025Y01511955D02*
X00177365D01*
X00124565Y01518415D02*
X00131025Y01511955D01*
X01076761Y01484500D02*
X01188234D01*
X00761695Y00990031D02*
Y01086701D01*
Y00990031D02*
X00840000Y00911726D01*
X00765735Y00992289D02*
X00844162Y00913861D01*
X00765735Y01085028D02*
X00815000Y01134293D01*
X00765735Y00992289D02*
Y01085028D01*
X00761695Y01086701D02*
X00810000Y01135006D01*
X00776355Y00998249D02*
X00790887Y00983717D01*
X00776355Y01075238D02*
X00824848Y01123731D01*
X00776355Y00998249D02*
Y01075238D01*
X00725575Y01057683D02*
Y01073857D01*
X00800995Y01149277D02*
Y01236689D01*
X00725575Y01073857D02*
X00800995Y01149277D01*
X00796955Y01150951D02*
Y01238362D01*
X00714111Y01068107D02*
X00796955Y01150951D01*
X00714111Y01028198D02*
Y01068107D01*
X00808355Y00643408D02*
Y00691646D01*
X00805359Y00591487D02*
Y00640412D01*
X00808355Y00691646D02*
X00857695Y00740986D01*
X00805359Y00640412D02*
X00808355Y00643408D01*
X01214914Y00250000D02*
X01245162D01*
X01349911Y00354749D02*
X01417984D01*
X01245162Y00250000D02*
X01349911Y00354749D01*
X01338478Y00358888D02*
X01341725D01*
X01355596Y00370361D02*
X01359581Y00374346D01*
X01341824Y00358789D02*
X01355596D01*
X01406788D01*
X01355596D02*
Y00370361D01*
X01359581Y00374346D02*
X01360334D01*
X01341725Y00358888D02*
X01341824Y00358789D01*
X01331278Y00351688D02*
X01338478Y00358888D01*
X01297525Y00351688D02*
X01331278D01*
X01222633Y00260350D02*
Y00276796D01*
X01297525Y00351688D01*
X01406788Y00358789D02*
X01409814Y00361815D01*
X01412455D01*
X01416179Y00365540D01*
X01416866D01*
X01417984Y00354749D02*
X01439290Y00376056D01*
X01500484Y00386107D02*
X01587875Y00473499D01*
X01237860Y00361750D02*
X01262217Y00386107D01*
X01500484D01*
X01200185Y00273046D02*
X01213427Y00259804D01*
X01200185Y00273046D02*
Y00334585D01*
X01184782Y00349988D02*
X01200185Y00334585D01*
X00761981Y00667399D02*
X00844162Y00749580D01*
X00760333Y00584733D02*
Y00612461D01*
X00745284Y00627510D02*
X00760333Y00612461D01*
X00815000Y01134293D02*
Y01217025D01*
X00844162Y00749580D02*
Y00913861D01*
X01563183Y00488646D02*
X01604591Y00530053D01*
X01189506Y01019789D02*
X01237452D01*
X01246106Y01011135D01*
X01276822D01*
X00447750Y01557503D02*
X00460253Y01545000D01*
X01138025D02*
X01151987Y01558962D01*
X00460253Y01545000D02*
X01138025D01*
X01201014Y01530000D02*
X01220380Y01549366D01*
X00288978Y01540721D02*
X00299699Y01530000D01*
X01201014D01*
X00283258Y01558521D02*
X00307739Y01534040D01*
X01199340D02*
X01216340Y01551039D01*
X00307739Y01534040D02*
X01199340D01*
X01118168Y01281797D02*
X01200514Y01364144D01*
X00824848Y01156124D02*
X00950522Y01281797D01*
X01118168D01*
X00514044Y01633207D02*
X00525882Y01621370D01*
X00617036Y01631225D02*
X00617800Y01631990D01*
X00541418Y01631225D02*
X00617036D01*
X00617800Y01631990D02*
X01117718D01*
X00525882Y01621370D02*
X01123187D01*
X00761981Y00638810D02*
Y00667399D01*
X00840000Y00751131D02*
Y00911726D01*
X00756671Y00667802D02*
X00840000Y00751131D01*
X00756671Y00656276D02*
Y00667802D01*
X00810000Y01135006D02*
Y01217739D01*
X01075581Y01477606D02*
X01180109D01*
X00815000Y01217025D02*
X01075581Y01477606D01*
X00810000Y01217739D02*
X01076761Y01484500D01*
X01188289Y01484445D02*
X01190082D01*
X01180109Y01477606D02*
X01190950Y01466765D01*
X01190082Y01484445D02*
X01190568Y01483959D01*
X01188234Y01484500D02*
X01188289Y01484445D01*
X00796955Y01238362D02*
X01055351Y01496757D01*
X00800995Y01236689D02*
X01057024Y01492717D01*
X01188206D01*
X01055351Y01496757D02*
X01185730D01*
X01240729Y01551755D01*
X01188206Y01492717D02*
X01254450Y01558962D01*
X01240729Y01551755D02*
Y01557940D01*
X01241750Y01558962D01*
X00283258Y01558521D02*
Y01617348D01*
X01220380Y01549366D02*
Y01550291D01*
X01216340Y01558951D02*
X01216350Y01558962D01*
X01216340Y01551039D02*
Y01558951D01*
X01220380Y01550291D02*
X01229050Y01558962D01*
X01439290Y00376056D02*
Y00378676D01*
X01222147Y00259864D02*
X01222633Y00260350D01*
X01276785Y00234349D02*
Y00245708D01*
X01492857Y00551187D02*
X01508574D01*
X01489870Y00548201D02*
X01492857Y00551187D01*
X01475528Y00548201D02*
X01489870D01*
X01403757Y00584592D02*
X01439137D01*
X01208860Y00578864D02*
X01223862Y00593865D01*
X01208860Y00536732D02*
Y00578864D01*
X01242908Y00524046D02*
Y00579433D01*
X01237356Y00584985D02*
X01242908Y00579433D01*
X01276822Y01011135D02*
X01336512Y01070824D01*
Y01139064D02*
X01362812Y01165365D01*
X01336512Y01070824D02*
Y01139064D01*
X01403872Y00578127D02*
X01404357Y00577642D01*
Y00574712D02*
Y00577642D01*
Y00574712D02*
X01453938Y00525131D01*
X01415563Y01462583D02*
X01504457Y01551477D01*
X01413440Y01387617D02*
Y01460628D01*
X01415395Y01462583D01*
X01415563D01*
X01504457Y01551477D02*
Y01553924D01*
X01564838Y01560113D02*
X01565164Y01560439D01*
X01564838Y01542633D02*
Y01560113D01*
X00933949Y00627016D02*
X00939633Y00632700D01*
X00933949Y00588884D02*
Y00627016D01*
X01117718Y01631990D02*
X01120258Y01634530D01*
X01126129Y01624312D02*
X01153829D01*
X00156895Y01638539D02*
X00534104D01*
X00541418Y01631225D01*
X01123187Y01621370D02*
X01126129Y01624312D01*
X01120258Y01634530D02*
X01154271D01*
X00857695Y00740986D02*
Y00916909D01*
X00790887Y00983717D02*
X00857695Y00916909D01*
X01665978Y01225470D02*
Y01282692D01*
X01665439Y01224931D02*
X01665978Y01225470D01*
X01540637Y01611535D02*
X01588429Y01563743D01*
Y01426611D02*
Y01563743D01*
X01444435Y01579102D02*
X01466247Y01600915D01*
X01542009D01*
X01558600Y01584323D01*
X01431465Y01579373D02*
X01463628Y01611535D01*
X01540637D01*
X01418250Y01568437D02*
Y01571660D01*
X01659340Y01163663D02*
Y01500224D01*
X01538437Y01621127D02*
X01659340Y01500224D01*
Y01163663D02*
X01725475Y01097529D01*
X01707721Y01092318D02*
Y01107446D01*
X01684738Y01130429D02*
X01707721Y01107446D01*
X01475243Y01302793D02*
X01531868D01*
X01541386Y01312310D01*
X01499667Y01317095D02*
X01524788D01*
X01408053Y01385495D02*
X01483632Y01309916D01*
X01440177Y01376586D02*
X01499667Y01317095D01*
X01408053Y01510663D02*
X01459400Y01562010D01*
X01483632Y01309916D02*
X01518273D01*
X01404014Y01374022D02*
X01475243Y01302793D01*
X01432931Y01437929D02*
Y01445645D01*
X01432022Y01446553D02*
X01432931Y01445645D01*
X01432022Y01446553D02*
Y01453581D01*
X01536498Y01558058D01*
X01425360Y01401578D02*
Y01452633D01*
X01532458Y01559731D01*
X01371780Y01426692D02*
Y01575127D01*
X01558600Y01550674D02*
Y01584323D01*
X01447791Y01378864D02*
Y01439865D01*
X01558600Y01550674D01*
X01520003Y01501580D02*
X01540772Y01522349D01*
X01489289Y01420714D02*
X01494450Y01415553D01*
X01454098Y01420714D02*
X01489289D01*
X01604591Y00683136D02*
X01628839Y00707385D01*
X01654113Y00545146D02*
X01681314Y00517945D01*
X01654113Y00707385D02*
X01676883D01*
X01654113Y00545146D02*
Y00707385D01*
X01628839D02*
X01654113D01*
X01682491Y01130429D02*
X01684738D01*
X01652053Y01160866D02*
X01682491Y01130429D01*
X01725475Y01097529D02*
X01744984D01*
X01504457Y01553924D02*
X01508402Y01557868D01*
X01453938Y00525130D02*
Y00525131D01*
X01460758Y00518311D02*
X01481290Y00497779D01*
X01460758Y00518311D02*
X01460758D01*
X01481290Y00497779D02*
X01507886D01*
X01453938Y00525130D02*
X01460758Y00518311D01*
X01365236Y01574296D02*
X01375010Y01584070D01*
X01365174Y01405931D02*
X01365236Y01405992D01*
Y01574296D01*
X01375010Y01584070D02*
X01392277D01*
X01388520Y01571660D02*
X01392850D01*
X01383617Y01580030D02*
X01388520Y01575127D01*
X01376683Y01580030D02*
X01383617D01*
X01371780Y01575127D02*
X01376683Y01580030D01*
X01388520Y01571660D02*
Y01575127D01*
X01404014Y01374022D02*
Y01543526D01*
X01408053Y01385495D02*
Y01510663D01*
X01404014Y01543526D02*
X01411078Y01550590D01*
X01434417D01*
X01200514Y01364144D02*
Y01447469D01*
X01198222Y01449761D02*
X01200514Y01447469D01*
X01198222Y01449761D02*
Y01450226D01*
X01540772Y01522349D02*
X01544554D01*
X01564838Y01542633D01*
X01471299Y01571660D02*
X01473380D01*
X01469631Y01569992D02*
X01471299Y01571660D01*
X01485448Y01587195D02*
X01527329D01*
X01473380Y01575127D02*
X01485448Y01587195D01*
X01440177Y01445575D02*
X01550606Y01556004D01*
X01473380Y01571660D02*
Y01575127D01*
X01536498Y01558058D02*
Y01578025D01*
X01440177Y01376586D02*
Y01445575D01*
X01527329Y01587195D02*
X01536498Y01578025D01*
X01604591Y00556233D02*
Y00683136D01*
Y00530053D02*
Y00556233D01*
X01619399Y01315004D02*
X01652053Y01282351D01*
Y01160866D02*
Y01282351D01*
X01665439Y01168397D02*
Y01224931D01*
Y01168397D02*
X01716849Y01116986D01*
X01545451Y00623996D02*
X01604591Y00683136D01*
X01439137Y00584592D02*
X01475528Y00548201D01*
X01587875Y00473499D02*
X01675708D01*
X01681314Y00479105D02*
Y00517945D01*
X01675708Y00473499D02*
X01681314Y00479105D01*
X01401220Y01571660D02*
X01405550D01*
X01401220D02*
Y01575127D01*
X01392277Y01584070D02*
X01401220Y01575127D01*
X00133640Y01542503D02*
Y01615284D01*
X00150620Y01632264D01*
X00156895Y01638539D01*
X01569350Y01351092D02*
X01569526Y01350915D01*
Y01228152D02*
Y01350915D01*
Y01228152D02*
X01575988Y01221690D01*
X01418250Y01571660D02*
Y01582701D01*
X01716849Y01116986D02*
X01734681D01*
X01456676Y01621127D02*
X01538437D01*
X01534016Y01596172D02*
X01550606Y01579582D01*
X01472297Y01596172D02*
X01534016D01*
X01550606Y01556004D02*
Y01579582D01*
X01434417Y01550590D02*
X01442984Y01559157D01*
X01418250Y01582701D02*
X01456676Y01621127D01*
X01430950Y01571660D02*
X01431465Y01572175D01*
Y01579373D01*
X01444435Y01572445D02*
Y01579102D01*
X01443650Y01571660D02*
X01444435Y01572445D01*
X01456350Y01580225D02*
X01472297Y01596172D01*
X01456350Y01571660D02*
Y01580225D01*
X01532458Y01559731D02*
Y01576352D01*
X01494108Y01583154D02*
X01525656D01*
X01532458Y01576352D01*
X01481750Y01570797D02*
X01494108Y01583154D01*
X00824848Y01123731D02*
Y01156124D01*
X01362812Y01165365D02*
Y01170966D01*
X01357491Y01176288D02*
Y01176421D01*
Y01176288D02*
X01362812Y01170966D01*
X00745284Y00627510D02*
X00750681D01*
X00761981Y00638810D01*
X00929062Y00583997D02*
X00933949Y00588884D01*
X01213427Y00251488D02*
Y00259804D01*
Y00251488D02*
X01214914Y00250000D01*
X01403757Y00584592D02*
X01403872Y00584707D01*
X01294839Y01082983D02*
Y01083109D01*
X01287933Y01076077D02*
X01294839Y01082983D01*
X01260505Y01076077D02*
X01287933D01*
X01162579Y00523594D02*
X01195722D01*
X01208860Y00536732D01*
X01147002Y00530587D02*
X01155586D01*
X01162579Y00523594D01*
X00995108Y-01689560D02*
Y-01638040D01*
X00693102Y-01687909D02*
X01352740D01*
Y-01532969D01*
X00301942Y-01687909D02*
Y-01532969D01*
X-00324168Y-01687909D02*
Y-01532969D01*
X-00324041Y-01687909D02*
X00076136D01*
X-00324041D02*
Y-01532969D01*
Y-01532969D02*
X01352740D01*
X-00324168Y-01687909D02*
X00693102D01*
X-00324168Y-01636262D02*
X01352232D01*
X-00324168Y-01584616D02*
X01352740D01*
X00623760D02*
Y-01532969D01*
X00837120Y-01584616D02*
Y-01532969D01*
G54D28*
X01048702Y-01655106D02*
X01058859D01*
X01053780D01*
Y-01670341D01*
X01074094Y-01655106D02*
X01063937D01*
Y-01670341D01*
X01074094D01*
X01063937Y-01662724D02*
X01069015D01*
X01079172Y-01655106D02*
X01089329Y-01670341D01*
Y-01655106D02*
X01079172Y-01670341D01*
X01094407D02*
Y-01660184D01*
X01099486Y-01655106D01*
X01104564Y-01660184D01*
Y-01670341D01*
Y-01662724D01*
X01094407D01*
X01119799Y-01657645D02*
X01117260Y-01655106D01*
X01112181D01*
X01109642Y-01657645D01*
Y-01660184D01*
X01112181Y-01662724D01*
X01117260D01*
X01119799Y-01665263D01*
Y-01667802D01*
X01117260Y-01670341D01*
X01112181D01*
X01109642Y-01667802D01*
X01140113Y-01655106D02*
X01145191D01*
X01142652D01*
Y-01670341D01*
X01140113D01*
X01145191D01*
X01152808D02*
Y-01655106D01*
X01162965Y-01670341D01*
Y-01655106D01*
X01178200Y-01657645D02*
X01175661Y-01655106D01*
X01170583D01*
X01168043Y-01657645D01*
Y-01660184D01*
X01170583Y-01662724D01*
X01175661D01*
X01178200Y-01665263D01*
Y-01667802D01*
X01175661Y-01670341D01*
X01170583D01*
X01168043Y-01667802D01*
X01183279Y-01655106D02*
X01193435D01*
X01188357D01*
Y-01670341D01*
X01198514D02*
Y-01655106D01*
X01206131D01*
X01208670Y-01657645D01*
Y-01662724D01*
X01206131Y-01665263D01*
X01198514D01*
X01203592D02*
X01208670Y-01670341D01*
X01213749Y-01655106D02*
Y-01667802D01*
X01216288Y-01670341D01*
X01221366D01*
X01223905Y-01667802D01*
Y-01655106D01*
X01228984Y-01670341D02*
Y-01655106D01*
X01234062Y-01660184D01*
X01239140Y-01655106D01*
Y-01670341D01*
X01254376Y-01655106D02*
X01244219D01*
Y-01670341D01*
X01254376D01*
X01244219Y-01662724D02*
X01249297D01*
X01259454Y-01670341D02*
Y-01655106D01*
X01269611Y-01670341D01*
Y-01655106D01*
X01274689D02*
X01284846D01*
X01279767D01*
Y-01670341D01*
X01300081Y-01657645D02*
X01297542Y-01655106D01*
X01292463D01*
X01289924Y-01657645D01*
Y-01660184D01*
X01292463Y-01662724D01*
X01297542D01*
X01300081Y-01665263D01*
Y-01667802D01*
X01297542Y-01670341D01*
X01292463D01*
X01289924Y-01667802D01*
X00727519Y-01670341D02*
X00732597D01*
X00730058D01*
Y-01655106D01*
X00727519Y-01657645D01*
X00740215D02*
X00742754Y-01655106D01*
X00747832D01*
X00750372Y-01657645D01*
Y-01667802D01*
X00747832Y-01670341D01*
X00742754D01*
X00740215Y-01667802D01*
Y-01657645D01*
X00755450Y-01660184D02*
X00757989D01*
Y-01662724D01*
X00755450D01*
Y-01660184D01*
Y-01667802D02*
X00757989D01*
Y-01670341D01*
X00755450D01*
Y-01667802D01*
X00778303Y-01670341D02*
X00768146D01*
X00778303Y-01660184D01*
Y-01657645D01*
X00775763Y-01655106D01*
X00770685D01*
X00768146Y-01657645D01*
X00783381Y-01655106D02*
X00793538D01*
Y-01657645D01*
X00783381Y-01667802D01*
Y-01670341D01*
X00798616Y-01660184D02*
X00801155D01*
Y-01662724D01*
X00798616D01*
Y-01660184D01*
Y-01667802D02*
X00801155D01*
Y-01670341D01*
X00798616D01*
Y-01667802D01*
X00811312Y-01657645D02*
X00813851Y-01655106D01*
X00818929D01*
X00821469Y-01657645D01*
Y-01660184D01*
X00818929Y-01662724D01*
X00816390D01*
X00818929D01*
X00821469Y-01665263D01*
Y-01667802D01*
X00818929Y-01670341D01*
X00813851D01*
X00811312Y-01667802D01*
X00826547Y-01655106D02*
X00836704D01*
Y-01657645D01*
X00826547Y-01667802D01*
Y-01670341D01*
X00857017D02*
Y-01660184D01*
X00862095Y-01655106D01*
X00867174Y-01660184D01*
Y-01670341D01*
Y-01662724D01*
X00857017D01*
X00872252Y-01670341D02*
Y-01655106D01*
X00877330Y-01660184D01*
X00882409Y-01655106D01*
Y-01670341D01*
X-00308039D02*
Y-01655106D01*
X-00300421D01*
X-00297882Y-01657645D01*
Y-01662724D01*
X-00300421Y-01665263D01*
X-00308039D01*
X-00292804Y-01655106D02*
Y-01670341D01*
X-00282647D01*
X-00269951Y-01655106D02*
X-00275030D01*
X-00277569Y-01657645D01*
Y-01667802D01*
X-00275030Y-01670341D01*
X-00269951D01*
X-00267412Y-01667802D01*
Y-01657645D01*
X-00269951Y-01655106D01*
X-00262334D02*
X-00252177D01*
X-00257255D01*
Y-01670341D01*
X-00231864D02*
Y-01655106D01*
X-00221707Y-01670341D01*
Y-01655106D01*
X-00216628Y-01670341D02*
Y-01660184D01*
X-00211550Y-01655106D01*
X-00206472Y-01660184D01*
Y-01670341D01*
Y-01662724D01*
X-00216628D01*
X-00201394Y-01670341D02*
Y-01655106D01*
X-00196315Y-01660184D01*
X-00191237Y-01655106D01*
Y-01670341D01*
X-00176002Y-01655106D02*
X-00186158D01*
Y-01670341D01*
X-00176002D01*
X-00186158Y-01662724D02*
X-00181080D01*
X-00155688Y-01665263D02*
X-00145532D01*
X-00155688Y-01660184D02*
X-00145532D01*
X-00308039Y-01602822D02*
Y-01618057D01*
X-00297882D01*
X-00292804D02*
Y-01607901D01*
X-00287726Y-01602822D01*
X-00282647Y-01607901D01*
Y-01618057D01*
Y-01610440D01*
X-00292804D01*
X-00277569Y-01602822D02*
Y-01605361D01*
X-00272491Y-01610440D01*
X-00267412Y-01605361D01*
Y-01602822D01*
X-00272491Y-01610440D02*
Y-01618057D01*
X-00252177Y-01602822D02*
X-00262334D01*
Y-01618057D01*
X-00252177D01*
X-00262334Y-01610440D02*
X-00257255D01*
X-00247099Y-01618057D02*
Y-01602822D01*
X-00239481D01*
X-00236942Y-01605361D01*
Y-01610440D01*
X-00239481Y-01612979D01*
X-00247099D01*
X-00242020D02*
X-00236942Y-01618057D01*
X-00216628D02*
Y-01602822D01*
X-00206472Y-01618057D01*
Y-01602822D01*
X-00201394Y-01618057D02*
Y-01607901D01*
X-00196315Y-01602822D01*
X-00191237Y-01607901D01*
Y-01618057D01*
Y-01610440D01*
X-00201394D01*
X-00186158Y-01618057D02*
Y-01602822D01*
X-00181080Y-01607901D01*
X-00176002Y-01602822D01*
Y-01618057D01*
X-00160767Y-01602822D02*
X-00170923D01*
Y-01618057D01*
X-00160767D01*
X-00170923Y-01610440D02*
X-00165845D01*
X-00140453Y-01612979D02*
X-00130296D01*
X-00140453Y-01607901D02*
X-00130296D01*
X00320992Y-01551304D02*
Y-01566539D01*
X00328610D01*
X00331149Y-01564000D01*
Y-01561461D01*
X00328610Y-01558922D01*
X00320992D01*
X00328610D01*
X00331149Y-01556383D01*
Y-01553844D01*
X00328610Y-01551304D01*
X00320992D01*
X00343845D02*
X00338766D01*
X00336227Y-01553844D01*
Y-01564000D01*
X00338766Y-01566539D01*
X00343845D01*
X00346384Y-01564000D01*
Y-01553844D01*
X00343845Y-01551304D01*
X00351462Y-01566539D02*
Y-01556383D01*
X00356540Y-01551304D01*
X00361619Y-01556383D01*
Y-01566539D01*
Y-01558922D01*
X00351462D01*
X00366697Y-01566539D02*
Y-01551304D01*
X00374315D01*
X00376854Y-01553844D01*
Y-01558922D01*
X00374315Y-01561461D01*
X00366697D01*
X00371776D02*
X00376854Y-01566539D01*
X00381932Y-01551304D02*
Y-01566539D01*
X00389550D01*
X00392089Y-01564000D01*
Y-01553844D01*
X00389550Y-01551304D01*
X00381932D01*
X00414942Y-01566539D02*
Y-01551304D01*
X00420020D02*
Y-01566539D01*
X00412402Y-01556383D02*
X00420020D01*
X00422559D01*
X00412402Y-01561461D02*
X00422559D01*
X00427637Y-01556383D02*
X00430177D01*
Y-01558922D01*
X00427637D01*
Y-01556383D01*
Y-01564000D02*
X00430177D01*
Y-01566539D01*
X00427637D01*
Y-01564000D01*
X00459549Y-01551304D02*
X00469706D01*
X00464627D01*
Y-01566539D01*
X00474784Y-01551304D02*
X00479862D01*
X00477323D01*
Y-01566539D01*
X00474784D01*
X00479862D01*
X00487480Y-01551304D02*
Y-01566539D01*
X00495098D01*
X00497637Y-01564000D01*
Y-01553844D01*
X00495098Y-01551304D01*
X00487480D01*
X00502715Y-01566539D02*
Y-01556383D01*
X00507793Y-01551304D01*
X00512872Y-01556383D01*
Y-01566539D01*
Y-01558922D01*
X00502715D01*
X00517950D02*
X00528107D01*
X00533185Y-01553844D02*
X00535724Y-01551304D01*
X00540803D01*
X00543342Y-01553844D01*
Y-01564000D01*
X00540803Y-01566539D01*
X00535724D01*
X00533185Y-01564000D01*
Y-01553844D01*
X00548420Y-01566539D02*
X00553499D01*
X00550960D01*
Y-01551304D01*
X00548420Y-01553844D01*
X00561116D02*
X00563655Y-01551304D01*
X00568734D01*
X00571273Y-01553844D01*
Y-01564000D01*
X00568734Y-01566539D01*
X00563655D01*
X00561116Y-01564000D01*
Y-01553844D01*
X00576351Y-01564000D02*
X00578890Y-01566539D01*
X00583969D01*
X00586508Y-01564000D01*
Y-01553844D01*
X00583969Y-01551304D01*
X00578890D01*
X00576351Y-01553844D01*
Y-01556383D01*
X00578890Y-01558922D01*
X00586508D01*
X00591586Y-01553844D02*
X00594126Y-01551304D01*
X00599204D01*
X00601743Y-01553844D01*
Y-01556383D01*
X00599204Y-01558922D01*
X00596665D01*
X00599204D01*
X00601743Y-01561461D01*
Y-01564000D01*
X00599204Y-01566539D01*
X00594126D01*
X00591586Y-01564000D01*
X00606821Y-01553844D02*
X00609361Y-01551304D01*
X00614439D01*
X00616978Y-01553844D01*
Y-01556383D01*
X00614439Y-01558922D01*
X00616978Y-01561461D01*
Y-01564000D01*
X00614439Y-01566539D01*
X00609361D01*
X00606821Y-01564000D01*
Y-01561461D01*
X00609361Y-01558922D01*
X00606821Y-01556383D01*
Y-01553844D01*
X00609361Y-01558922D02*
X00614439D01*
X00637291Y-01551304D02*
Y-01566539D01*
X00644909D01*
X00647448Y-01564000D01*
Y-01553844D01*
X00644909Y-01551304D01*
X00637291D01*
X00662683Y-01553844D02*
X00660144Y-01551304D01*
X00655066D01*
X00652527Y-01553844D01*
Y-01564000D01*
X00655066Y-01566539D01*
X00660144D01*
X00662683Y-01564000D01*
X00667762Y-01558922D02*
X00677918D01*
X00682997Y-01551304D02*
Y-01566539D01*
X00690614D01*
X00693154Y-01564000D01*
Y-01553844D01*
X00690614Y-01551304D01*
X00682997D01*
X00708389Y-01553844D02*
X00705849Y-01551304D01*
X00700771D01*
X00698232Y-01553844D01*
Y-01564000D01*
X00700771Y-01566539D01*
X00705849D01*
X00708389Y-01564000D01*
X00758250Y-01551304D02*
X00748093D01*
Y-01566539D01*
X00758250D01*
X00748093Y-01558922D02*
X00753171D01*
X00763328Y-01566539D02*
X00768406D01*
X00765867D01*
Y-01551304D01*
X00763328Y-01553844D01*
X-00308039Y-01566539D02*
Y-01556383D01*
X-00302961Y-01551304D01*
X-00297882Y-01556383D01*
Y-01566539D01*
Y-01558922D01*
X-00308039D01*
X-00292804Y-01551304D02*
Y-01566539D01*
X-00282647D01*
X-00277569Y-01551304D02*
Y-01566539D01*
X-00267412D01*
X-00247099D02*
Y-01556383D01*
X-00242020Y-01551304D01*
X-00236942Y-01556383D01*
Y-01566539D01*
Y-01558922D01*
X-00247099D01*
X-00231864Y-01566539D02*
Y-01551304D01*
X-00224246D01*
X-00221707Y-01553844D01*
Y-01558922D01*
X-00224246Y-01561461D01*
X-00231864D01*
X-00226785D02*
X-00221707Y-01566539D01*
X-00216628Y-01551304D02*
X-00206472D01*
X-00211550D01*
Y-01566539D01*
X-00201394Y-01551304D02*
Y-01566539D01*
X-00196315Y-01561461D01*
X-00191237Y-01566539D01*
Y-01551304D01*
X-00178541D02*
X-00183619D01*
X-00186158Y-01553844D01*
Y-01564000D01*
X-00183619Y-01566539D01*
X-00178541D01*
X-00176002Y-01564000D01*
Y-01553844D01*
X-00178541Y-01551304D01*
X-00170923Y-01566539D02*
Y-01551304D01*
X-00163306D01*
X-00160767Y-01553844D01*
Y-01558922D01*
X-00163306Y-01561461D01*
X-00170923D01*
X-00165845D02*
X-00160767Y-01566539D01*
X-00155688Y-01551304D02*
Y-01566539D01*
Y-01561461D01*
X-00145532Y-01551304D01*
X-00153149Y-01558922D01*
X-00145532Y-01566539D01*
X-00125218Y-01551304D02*
Y-01561461D01*
X-00120140Y-01566539D01*
X-00115061Y-01561461D01*
Y-01551304D01*
X-00109983D02*
X-00104905D01*
X-00107444D01*
Y-01566539D01*
X-00109983D01*
X-00104905D01*
X-00087130Y-01551304D02*
X-00097287D01*
Y-01566539D01*
X-00087130D01*
X-00097287Y-01558922D02*
X-00092209D01*
X-00082052Y-01551304D02*
Y-01566539D01*
X-00076974Y-01561461D01*
X-00071895Y-01566539D01*
Y-01551304D01*
X-00056660D02*
X-00066817D01*
Y-01566539D01*
X-00056660D01*
X-00066817Y-01558922D02*
X-00061739D01*
X-00051582Y-01551304D02*
Y-01566539D01*
X-00043964D01*
X-00041425Y-01564000D01*
Y-01553844D01*
X-00043964Y-01551304D01*
X-00051582D01*
X-00010955D02*
X-00021112D01*
Y-01558922D01*
X-00016033D01*
X-00021112D01*
Y-01566539D01*
X-00005877D02*
Y-01551304D01*
X00001741D01*
X00004280Y-01553844D01*
Y-01558922D01*
X00001741Y-01561461D01*
X-00005877D01*
X-00000798D02*
X00004280Y-01566539D01*
X00016976Y-01551304D02*
X00011897D01*
X00009358Y-01553844D01*
Y-01564000D01*
X00011897Y-01566539D01*
X00016976D01*
X00019515Y-01564000D01*
Y-01553844D01*
X00016976Y-01551304D01*
X00024593Y-01566539D02*
Y-01551304D01*
X00029672Y-01556383D01*
X00034750Y-01551304D01*
Y-01566539D01*
X00055064Y-01551304D02*
X00065220D01*
X00060142D01*
Y-01566539D01*
X00077916Y-01551304D02*
X00072838D01*
X00070299Y-01553844D01*
Y-01564000D01*
X00072838Y-01566539D01*
X00077916D01*
X00080455Y-01564000D01*
Y-01553844D01*
X00077916Y-01551304D01*
X00085534Y-01566539D02*
Y-01551304D01*
X00093151D01*
X00095690Y-01553844D01*
Y-01558922D01*
X00093151Y-01561461D01*
X00085534D01*
X00126161Y-01553844D02*
X00123621Y-01551304D01*
X00118543D01*
X00116004Y-01553844D01*
Y-01556383D01*
X00118543Y-01558922D01*
X00123621D01*
X00126161Y-01561461D01*
Y-01564000D01*
X00123621Y-01566539D01*
X00118543D01*
X00116004Y-01564000D01*
X00131239Y-01551304D02*
X00136317D01*
X00133778D01*
Y-01566539D01*
X00131239D01*
X00136317D01*
X00143935Y-01551304D02*
Y-01566539D01*
X00151552D01*
X00154092Y-01564000D01*
Y-01553844D01*
X00151552Y-01551304D01*
X00143935D01*
X00169327D02*
X00159170D01*
Y-01566539D01*
X00169327D01*
X00159170Y-01558922D02*
X00164248D01*
X00331657Y-01657645D02*
X00329118Y-01655106D01*
X00324039D01*
X00321500Y-01657645D01*
Y-01667802D01*
X00324039Y-01670341D01*
X00329118D01*
X00331657Y-01667802D01*
Y-01662724D01*
X00326578D01*
X00346892Y-01655106D02*
X00336735D01*
Y-01670341D01*
X00346892D01*
X00336735Y-01662724D02*
X00341813D01*
X00351970Y-01670341D02*
Y-01655106D01*
X00362127Y-01670341D01*
Y-01655106D01*
X00377362D02*
X00367205D01*
Y-01670341D01*
X00377362D01*
X00367205Y-01662724D02*
X00372284D01*
X00382440Y-01670341D02*
Y-01655106D01*
X00390058D01*
X00392597Y-01657645D01*
Y-01662724D01*
X00390058Y-01665263D01*
X00382440D01*
X00387519D02*
X00392597Y-01670341D01*
X00397675D02*
Y-01660184D01*
X00402754Y-01655106D01*
X00407832Y-01660184D01*
Y-01670341D01*
Y-01662724D01*
X00397675D01*
X00412910Y-01655106D02*
X00423067D01*
X00417989D01*
Y-01670341D01*
X00438302Y-01655106D02*
X00428145D01*
Y-01670341D01*
X00438302D01*
X00428145Y-01662724D02*
X00433224D01*
X00443381Y-01655106D02*
Y-01670341D01*
X00450998D01*
X00453537Y-01667802D01*
Y-01657645D01*
X00450998Y-01655106D01*
X00443381D01*
X00519556Y-01660184D02*
X00522095D01*
Y-01662724D01*
X00519556D01*
Y-01660184D01*
Y-01667802D02*
X00522095D01*
Y-01670341D01*
X00519556D01*
Y-01667802D01*
X00542353Y-01670341D02*
X00547431D01*
X00544892D01*
Y-01655106D01*
X00542353Y-01657645D01*
X00565206Y-01670341D02*
X00555049D01*
X00565206Y-01660184D01*
Y-01657645D01*
X00562666Y-01655106D01*
X00557588D01*
X00555049Y-01657645D01*
X00570284Y-01670341D02*
X00580441Y-01660184D01*
X00585519Y-01657645D02*
X00588058Y-01655106D01*
X00593137D01*
X00595676Y-01657645D01*
Y-01660184D01*
X00593137Y-01662724D01*
X00590597D01*
X00593137D01*
X00595676Y-01665263D01*
Y-01667802D01*
X00593137Y-01670341D01*
X00588058D01*
X00585519Y-01667802D01*
X00600754Y-01670341D02*
X00610911Y-01660184D01*
X00626146Y-01670341D02*
X00615989D01*
X00626146Y-01660184D01*
Y-01657645D01*
X00623607Y-01655106D01*
X00618528D01*
X00615989Y-01657645D01*
X00631224D02*
X00633764Y-01655106D01*
X00638842D01*
X00641381Y-01657645D01*
Y-01667802D01*
X00638842Y-01670341D01*
X00633764D01*
X00631224Y-01667802D01*
Y-01657645D01*
X00656616Y-01670341D02*
X00646459D01*
X00656616Y-01660184D01*
Y-01657645D01*
X00654077Y-01655106D01*
X00648998D01*
X00646459Y-01657645D01*
X00661694D02*
X00664234Y-01655106D01*
X00669312D01*
X00671851Y-01657645D01*
Y-01660184D01*
X00669312Y-01662724D01*
X00666773D01*
X00669312D01*
X00671851Y-01665263D01*
Y-01667802D01*
X00669312Y-01670341D01*
X00664234D01*
X00661694Y-01667802D01*
X-00103442Y-01655106D02*
X-00093285D01*
X-00098364D01*
Y-01670341D01*
X-00088207Y-01655106D02*
X-00083129D01*
X-00085668D01*
Y-01670341D01*
X-00088207D01*
X-00083129D01*
X-00075511Y-01655106D02*
Y-01670341D01*
X-00067894D01*
X-00065354Y-01667802D01*
Y-01657645D01*
X-00067894Y-01655106D01*
X-00075511D01*
X-00060276Y-01670341D02*
Y-01660184D01*
X-00055198Y-01655106D01*
X-00050119Y-01660184D01*
Y-01670341D01*
Y-01662724D01*
X-00060276D01*
X-00045041D02*
X-00034884D01*
X-00029806Y-01657645D02*
X-00027267Y-01655106D01*
X-00022188D01*
X-00019649Y-01657645D01*
Y-01667802D01*
X-00022188Y-01670341D01*
X-00027267D01*
X-00029806Y-01667802D01*
Y-01657645D01*
X-00014571Y-01670341D02*
X-00009492D01*
X-00012032D01*
Y-01655106D01*
X-00014571Y-01657645D01*
X-00001875D02*
X00000664Y-01655106D01*
X00005743D01*
X00008282Y-01657645D01*
Y-01667802D01*
X00005743Y-01670341D01*
X00000664D01*
X-00001875Y-01667802D01*
Y-01657645D01*
X00013360Y-01667802D02*
X00015899Y-01670341D01*
X00020978D01*
X00023517Y-01667802D01*
Y-01657645D01*
X00020978Y-01655106D01*
X00015899D01*
X00013360Y-01657645D01*
Y-01660184D01*
X00015899Y-01662724D01*
X00023517D01*
X00028595Y-01657645D02*
X00031135Y-01655106D01*
X00036213D01*
X00038752Y-01657645D01*
Y-01660184D01*
X00036213Y-01662724D01*
X00033674D01*
X00036213D01*
X00038752Y-01665263D01*
Y-01667802D01*
X00036213Y-01670341D01*
X00031135D01*
X00028595Y-01667802D01*
X00043830Y-01657645D02*
X00046370Y-01655106D01*
X00051448D01*
X00053987Y-01657645D01*
Y-01660184D01*
X00051448Y-01662724D01*
X00053987Y-01665263D01*
Y-01667802D01*
X00051448Y-01670341D01*
X00046370D01*
X00043830Y-01667802D01*
Y-01665263D01*
X00046370Y-01662724D01*
X00043830Y-01660184D01*
Y-01657645D01*
X00046370Y-01662724D02*
X00051448D01*
X00074300Y-01655106D02*
Y-01670341D01*
X00081918D01*
X00084457Y-01667802D01*
Y-01657645D01*
X00081918Y-01655106D01*
X00074300D01*
X00099692Y-01657645D02*
X00097153Y-01655106D01*
X00092075D01*
X00089536Y-01657645D01*
Y-01667802D01*
X00092075Y-01670341D01*
X00097153D01*
X00099692Y-01667802D01*
X00104771Y-01662724D02*
X00114927D01*
X00120006Y-01655106D02*
Y-01670341D01*
X00127623D01*
X00130162Y-01667802D01*
Y-01657645D01*
X00127623Y-01655106D01*
X00120006D01*
X00145398Y-01657645D02*
X00142858Y-01655106D01*
X00137780D01*
X00135241Y-01657645D01*
Y-01667802D01*
X00137780Y-01670341D01*
X00142858D01*
X00145398Y-01667802D01*
X00160633Y-01655106D02*
X00150476D01*
Y-01670341D01*
X00160633D01*
X00150476Y-01662724D02*
X00155554D01*
X00165711Y-01670341D02*
X00170789D01*
X00168250D01*
Y-01655106D01*
X00165711Y-01657645D01*
X00178407Y-01670341D02*
Y-01667802D01*
X00180946D01*
Y-01670341D01*
X00178407D01*
X00201259Y-01657645D02*
X00198720Y-01655106D01*
X00193642D01*
X00191103Y-01657645D01*
Y-01667802D01*
X00193642Y-01670341D01*
X00198720D01*
X00201259Y-01667802D01*
Y-01662724D01*
X00196181D01*
X00216495Y-01670341D02*
X00206338D01*
X00216495Y-01660184D01*
Y-01657645D01*
X00213955Y-01655106D01*
X00208877D01*
X00206338Y-01657645D01*
X00674052Y-01566539D02*
Y-01551304D01*
X00681670D01*
X00684209Y-01553844D01*
Y-01558922D01*
X00681670Y-01561461D01*
X00674052D01*
X00679130D02*
X00684209Y-01566539D01*
X00699444Y-01551304D02*
X00689287D01*
Y-01566539D01*
X00699444D01*
X00689287Y-01558922D02*
X00694365D01*
X00704522Y-01551304D02*
Y-01561461D01*
X00709601Y-01566539D01*
X00714679Y-01561461D01*
Y-01551304D01*
X00719757Y-01556383D02*
X00722296D01*
Y-01558922D01*
X00719757D01*
Y-01556383D01*
Y-01564000D02*
X00722296D01*
Y-01566539D01*
X00719757D01*
Y-01564000D01*
X00897061Y-01553844D02*
X00894522Y-01551304D01*
X00889443D01*
X00886904Y-01553844D01*
Y-01556383D01*
X00889443Y-01558922D01*
X00894522D01*
X00897061Y-01561461D01*
Y-01564000D01*
X00894522Y-01566539D01*
X00889443D01*
X00886904Y-01564000D01*
X00902139Y-01551304D02*
Y-01561461D01*
X00907217Y-01566539D01*
X00912296Y-01561461D01*
Y-01551304D01*
X00917374Y-01566539D02*
Y-01551304D01*
X00927531Y-01566539D01*
Y-01551304D01*
X00947844Y-01566539D02*
Y-01551304D01*
X00955462D01*
X00958001Y-01553844D01*
Y-01558922D01*
X00955462Y-01561461D01*
X00947844D01*
X00952923D02*
X00958001Y-01566539D01*
X00973236Y-01551304D02*
X00963079D01*
Y-01566539D01*
X00973236D01*
X00963079Y-01558922D02*
X00968158D01*
X00978315Y-01551304D02*
Y-01561461D01*
X00983393Y-01566539D01*
X00988471Y-01561461D01*
Y-01551304D01*
X00993549Y-01556383D02*
X00996089D01*
Y-01558922D01*
X00993549D01*
Y-01556383D01*
Y-01564000D02*
X00996089D01*
Y-01566539D01*
X00993549D01*
Y-01564000D01*
X01015428Y-01566539D02*
Y-01551304D01*
X01025585Y-01566539D01*
Y-01551304D01*
X01033202Y-01566539D02*
X01038281D01*
X01040820Y-01564000D01*
Y-01558922D01*
X01038281Y-01556383D01*
X01033202D01*
X01030663Y-01558922D01*
Y-01564000D01*
X01033202Y-01566539D01*
X01048437Y-01553844D02*
Y-01556383D01*
X01045898D01*
X01050976D01*
X01048437D01*
Y-01564000D01*
X01050976Y-01566539D01*
X01073829D02*
X01078907D01*
X01076368D01*
Y-01556383D01*
X01073829D01*
X01086525Y-01566539D02*
Y-01556383D01*
X01094143D01*
X01096682Y-01558922D01*
Y-01566539D01*
X01116995Y-01556383D02*
X01122074Y-01566539D01*
X01127152Y-01556383D01*
X01139848Y-01566539D02*
X01134769D01*
X01132230Y-01564000D01*
Y-01558922D01*
X01134769Y-01556383D01*
X01139848D01*
X01142387Y-01558922D01*
Y-01561461D01*
X01132230D01*
X01147465Y-01556383D02*
Y-01566539D01*
Y-01561461D01*
X01150005Y-01558922D01*
X01152544Y-01556383D01*
X01155083D01*
X01162700Y-01566539D02*
X01170318D01*
X01172857Y-01564000D01*
X01170318Y-01561461D01*
X01165240D01*
X01162700Y-01558922D01*
X01165240Y-01556383D01*
X01172857D01*
X01177935Y-01566539D02*
X01183014D01*
X01180475D01*
Y-01556383D01*
X01177935D01*
X01193170Y-01566539D02*
X01198249D01*
X01200788Y-01564000D01*
Y-01558922D01*
X01198249Y-01556383D01*
X01193170D01*
X01190631Y-01558922D01*
Y-01564000D01*
X01193170Y-01566539D01*
X01205866D02*
Y-01556383D01*
X01213484D01*
X01216023Y-01558922D01*
Y-01566539D01*
X01246493Y-01556383D02*
X01238876D01*
X01236337Y-01558922D01*
Y-01564000D01*
X01238876Y-01566539D01*
X01246493D01*
X01254111D02*
X01259189D01*
X01261728Y-01564000D01*
Y-01558922D01*
X01259189Y-01556383D01*
X01254111D01*
X01251572Y-01558922D01*
Y-01564000D01*
X01254111Y-01566539D01*
X01266807D02*
Y-01556383D01*
X01274424D01*
X01276963Y-01558922D01*
Y-01566539D01*
X01284581Y-01553844D02*
Y-01556383D01*
X01282042D01*
X01287120D01*
X01284581D01*
Y-01564000D01*
X01287120Y-01566539D01*
X01294738Y-01556383D02*
Y-01566539D01*
Y-01561461D01*
X01297277Y-01558922D01*
X01299816Y-01556383D01*
X01302355D01*
X01312512Y-01566539D02*
X01317590D01*
X01320129Y-01564000D01*
Y-01558922D01*
X01317590Y-01556383D01*
X01312512D01*
X01309973Y-01558922D01*
Y-01564000D01*
X01312512Y-01566539D01*
X01325208D02*
X01330286D01*
X01327747D01*
Y-01551304D01*
X01325208D01*
G54D104*
X01443650Y01558960D02*
D03*
X01456350D02*
D03*
X01507150D02*
D03*
X01392850Y01571660D02*
D03*
X01405550D02*
D03*
X01418250D02*
D03*
X01430950D02*
D03*
X01443650D02*
D03*
X01456350D02*
D03*
X01469050D02*
D03*
X01481750D02*
D03*
X01152850Y01558962D02*
D03*
X01216350D02*
D03*
X01229050D02*
D03*
X01241750D02*
D03*
X01254450D02*
D03*
G54D106*
X01484394Y00051435D02*
D03*
X00220000Y00407250D02*
D03*
G54D107*
X00756421Y00760819D02*
D03*
X00220000Y01037500D02*
D03*
X00756921Y00887298D02*
D03*
G54D108*
X00404100Y01043369D02*
D03*
G54D110*
X00218000Y01184000D02*
D03*
X00362000D02*
D03*
X00106000D02*
D03*
G54D111*
X01031421Y00760819D02*
D03*
X01031921Y00887298D02*
D03*
G54D113*
X02572500Y01046000D02*
D03*
Y00944000D02*
D03*
X02098347Y00730000D02*
D03*
X02007300Y01026250D02*
D03*
X01129335Y00830000D02*
D03*
X01514793Y00942385D02*
D03*
X02631335Y00811557D02*
D03*
G54D114*
X00364750Y00966109D02*
D03*
X00414750D02*
D03*
X00464750D02*
D03*
X00564750D02*
D03*
X00614750D02*
D03*
X00640000Y00499580D02*
D03*
G54D115*
X00664750Y00966109D02*
D03*
X00660000Y01151000D02*
D03*
G54D120*
X00084180Y01011734D02*
D03*
G54D121*
Y00948234D02*
D03*
Y00460292D02*
D03*
G54D122*
X02097879Y00548123D02*
D03*
X02665977Y00890000D02*
D03*
X00760333Y00579948D02*
D03*
X01354268Y00371689D02*
D03*
X01184782Y00352332D02*
D03*
X00185521Y01532308D02*
D03*
X00111510Y00409872D02*
D03*
X02066674Y01027913D02*
D03*
X00080056Y01069741D02*
D03*
G54D123*
X01284492Y01540268D02*
D03*
X01666866Y01015651D02*
D03*
X01678737Y01025438D02*
D03*
X01650292Y01025346D02*
D03*
X01678777Y01015578D02*
D03*
X01650108Y01015381D02*
D03*
X01666866Y01025438D02*
D03*
X01764937Y00983718D02*
D03*
X01278257Y01530759D02*
D03*
X01303192Y01533196D02*
D03*
X01317852Y01537037D02*
D03*
X01270330Y01484252D02*
D03*
X01274852Y01536444D02*
D03*
X01269079Y01530059D02*
D03*
X01278845Y01544076D02*
D03*
X01416866Y00365540D02*
D03*
X01237860Y00361750D02*
D03*
X00805359Y00591487D02*
D03*
X01740198Y01010216D02*
D03*
X01678777D02*
D03*
X01258773Y01399818D02*
D03*
Y01408176D02*
D03*
X01231451Y01399818D02*
D03*
X01231592Y01408176D02*
D03*
X01231657Y01415651D02*
D03*
X01034454Y01247073D02*
D03*
X01028856Y01237545D02*
D03*
X01041589Y01248457D02*
D03*
X01050582D02*
D03*
X01035320Y01240572D02*
D03*
X01046092D02*
D03*
X01055030Y01240672D02*
D03*
X01064312Y01240572D02*
D03*
X01189020Y01021550D02*
D03*
X01666866Y00994338D02*
D03*
X01746027D02*
D03*
X01740067D02*
D03*
X01670051Y01060132D02*
D03*
X01670420Y01070326D02*
D03*
X01190568Y01483959D02*
D03*
X01646968Y00983718D02*
D03*
X01646784Y00994338D02*
D03*
X01219173Y01469899D02*
D03*
X01761781Y00994338D02*
D03*
X01745625Y00982581D02*
D03*
X01740067D02*
D03*
X01748530Y01020653D02*
D03*
X01317852Y01484254D02*
D03*
Y01504736D02*
D03*
Y01526683D02*
D03*
X01740067Y01015651D02*
D03*
X01649923Y01045502D02*
D03*
Y01060132D02*
D03*
X01439290Y00378676D02*
D03*
X01712834Y00471143D02*
D03*
X01707357Y00475103D02*
D03*
X01222147Y00259864D02*
D03*
X01507886Y00551187D02*
D03*
X01204721Y00920546D02*
D03*
X01424495Y00709936D02*
D03*
X01223862Y00593865D02*
D03*
X01237356Y00584985D02*
D03*
X01403872Y00578127D02*
D03*
X01565164Y01560439D02*
D03*
X01243240Y00709120D02*
D03*
X00939633Y00632700D02*
D03*
X00541418Y01631225D02*
D03*
X00790887Y00983717D02*
D03*
X01146691Y00709636D02*
D03*
X01263182Y00464617D02*
D03*
X00929062Y00583997D02*
D03*
X01236640Y00600533D02*
D03*
X01098996Y00420083D02*
D03*
X01053218D02*
D03*
X01060848D02*
D03*
X01068477D02*
D03*
X01076107D02*
D03*
X01114255D02*
D03*
X01083736D02*
D03*
X01175292D02*
D03*
X01167663D02*
D03*
X01190552D02*
D03*
X01121885D02*
D03*
X01182922D02*
D03*
X01129514D02*
D03*
X01144774D02*
D03*
X01106626D02*
D03*
X01137144D02*
D03*
X01160033D02*
D03*
X01091366D02*
D03*
X01152403D02*
D03*
Y00432001D02*
D03*
X01091366D02*
D03*
X01160033D02*
D03*
X01137144D02*
D03*
X01106626D02*
D03*
X01144774D02*
D03*
X01129514D02*
D03*
X01182922D02*
D03*
X01121885D02*
D03*
X01190552D02*
D03*
X01167663D02*
D03*
X01175292D02*
D03*
X01083736D02*
D03*
X01114255D02*
D03*
X01076107D02*
D03*
X01068477D02*
D03*
X01060848D02*
D03*
X01053218D02*
D03*
X01098996D02*
D03*
X02218583Y00487958D02*
D03*
X02238083D02*
D03*
X02231583D02*
D03*
X02244583D02*
D03*
X02251083D02*
D03*
X02225083D02*
D03*
X02257583D02*
D03*
X02264083D02*
D03*
X02184559Y00511146D02*
D03*
Y00517646D02*
D03*
Y00524146D02*
D03*
Y00530646D02*
D03*
Y00537146D02*
D03*
Y00543646D02*
D03*
Y00550146D02*
D03*
Y00556646D02*
D03*
X02179082Y00515106D02*
D03*
Y00521606D02*
D03*
Y00528106D02*
D03*
Y00534606D02*
D03*
Y00541106D02*
D03*
Y00547606D02*
D03*
Y00554106D02*
D03*
X01665978Y01282692D02*
D03*
X01707721Y01092318D02*
D03*
X01773551Y00737625D02*
D03*
X01541386Y01312310D02*
D03*
X01518273Y01309916D02*
D03*
X01524788Y01317095D02*
D03*
X01707357Y00527103D02*
D03*
Y00533603D02*
D03*
Y00520603D02*
D03*
Y00514103D02*
D03*
Y00507603D02*
D03*
Y00501103D02*
D03*
Y00494603D02*
D03*
Y00488103D02*
D03*
Y00481603D02*
D03*
X01712834Y00523143D02*
D03*
Y00529643D02*
D03*
Y00516643D02*
D03*
Y00510143D02*
D03*
Y00536143D02*
D03*
Y00503643D02*
D03*
Y00497143D02*
D03*
Y00490643D02*
D03*
Y00484143D02*
D03*
Y00477643D02*
D03*
X01792358Y00447955D02*
D03*
X01785858D02*
D03*
X01753358D02*
D03*
X01779358D02*
D03*
X01772858D02*
D03*
X01759858D02*
D03*
X01766358D02*
D03*
X01746858D02*
D03*
X01113408Y01248457D02*
D03*
X01105778D02*
D03*
X01082889D02*
D03*
X01090519D02*
D03*
X01060000D02*
D03*
X01098148D02*
D03*
X01067630D02*
D03*
X01075259D02*
D03*
X01028530Y01215292D02*
D03*
Y01222922D02*
D03*
Y01192403D02*
D03*
Y01230552D02*
D03*
Y01200033D02*
D03*
Y01207663D02*
D03*
Y01184774D02*
D03*
Y01177144D02*
D03*
X01035320Y01234457D02*
D03*
Y01226827D02*
D03*
Y01188679D02*
D03*
Y01181049D02*
D03*
Y01211568D02*
D03*
Y01173420D02*
D03*
Y01203938D02*
D03*
Y01219197D02*
D03*
Y01196309D02*
D03*
X01432931Y01437929D02*
D03*
X01371780Y01426692D02*
D03*
X01520003Y01501580D02*
D03*
X01454098Y01420714D02*
D03*
X01676883Y00707385D02*
D03*
X01270330Y01467628D02*
D03*
X01218096Y01387881D02*
D03*
X01276785Y00245708D02*
D03*
X01771705Y00983718D02*
D03*
X01674667Y01050327D02*
D03*
X01680065Y01060132D02*
D03*
X01136836Y01204065D02*
D03*
Y01193954D02*
D03*
Y01183844D02*
D03*
Y01173734D02*
D03*
Y01163624D02*
D03*
X00447750Y01557503D02*
D03*
X01086005Y00745265D02*
D03*
X01092505D02*
D03*
X01073005D02*
D03*
X01079505D02*
D03*
X01053505D02*
D03*
X01060005D02*
D03*
X01066505D02*
D03*
X01047005D02*
D03*
X01040505D02*
D03*
X01086981Y01240672D02*
D03*
X01079351D02*
D03*
X01109870D02*
D03*
X01071722D02*
D03*
X01102240D02*
D03*
X01094611D02*
D03*
X01117499D02*
D03*
X01125129D02*
D03*
X01117745Y00667685D02*
D03*
Y00677796D02*
D03*
Y00687906D02*
D03*
Y00698016D02*
D03*
Y00708126D02*
D03*
X01752120Y00561698D02*
D03*
X01759524Y00562825D02*
D03*
X01766928D02*
D03*
X01774332D02*
D03*
X01781736D02*
D03*
X02260056Y00607388D02*
D03*
X02226259Y00605087D02*
D03*
X02236447Y00607388D02*
D03*
X02243647D02*
D03*
X02250677D02*
D03*
X01154271Y01634530D02*
D03*
X01153829Y01624312D02*
D03*
X00124565Y01518415D02*
D03*
X01249452Y01537037D02*
D03*
X01256039Y01543526D02*
D03*
X01341400Y01526683D02*
D03*
X01341146Y01537332D02*
D03*
X01413440Y01387617D02*
D03*
X01365174Y01405931D02*
D03*
X01588429Y01426611D02*
D03*
X01619399Y01315004D02*
D03*
X01563183Y00488711D02*
D03*
X01604591Y00556233D02*
D03*
X01507886Y00497779D02*
D03*
X01198222Y01450226D02*
D03*
X01447791Y01378864D02*
D03*
X01425360Y01401578D02*
D03*
X01119005Y01517501D02*
D03*
X01190950Y01466765D02*
D03*
X00133640Y01540042D02*
D03*
X00150620Y01632264D02*
D03*
X00165830Y01451982D02*
D03*
X00172330D02*
D03*
X00162528Y01457062D02*
D03*
X00169028D02*
D03*
X00175528D02*
D03*
X00178830Y01451982D02*
D03*
X00338508Y01453721D02*
D03*
X00325508D02*
D03*
X00332008D02*
D03*
X00322206Y01458801D02*
D03*
X00328706D02*
D03*
X00335206D02*
D03*
X00552500Y01465616D02*
D03*
X01744984Y01097104D02*
D03*
X01734681Y01116986D02*
D03*
X01749743Y00588777D02*
D03*
X01494450Y01415553D02*
D03*
X01569526Y01351071D02*
D03*
X01575988Y01221690D02*
D03*
X01357491Y01176421D02*
D03*
X01103162Y01214093D02*
D03*
X01080273D02*
D03*
X01095533D02*
D03*
X01126051D02*
D03*
X01087903D02*
D03*
X01118421D02*
D03*
X01110792D02*
D03*
X01072644D02*
D03*
X01133681D02*
D03*
X01065014D02*
D03*
X01122327Y01207303D02*
D03*
X01114697D02*
D03*
X01091808D02*
D03*
X01099438D02*
D03*
X01068919D02*
D03*
X01107067D02*
D03*
X01076549D02*
D03*
X01084178D02*
D03*
X01192448Y00930168D02*
D03*
X01198584D02*
D03*
X01186312D02*
D03*
X01204721D02*
D03*
X00725575Y01057683D02*
D03*
X00714111Y01028198D02*
D03*
X00745284Y00627510D02*
D03*
X00756671Y00656276D02*
D03*
X00514044Y01633207D02*
D03*
X00283258Y01617348D02*
D03*
X00288978Y01540721D02*
D03*
X01213427Y00259804D02*
D03*
X01403872Y00584707D02*
D03*
X01785009Y00396792D02*
D03*
X01798186D02*
D03*
X01811186D02*
D03*
X01804686D02*
D03*
X01801384Y00401872D02*
D03*
X01807884D02*
D03*
X01794884D02*
D03*
X01788384D02*
D03*
X01791686Y00396792D02*
D03*
X01805421Y00317263D02*
D03*
X01808723Y00312183D02*
D03*
X01802223D02*
D03*
X01789223D02*
D03*
X01795723D02*
D03*
X01792421Y00317263D02*
D03*
X01785921D02*
D03*
X01798921D02*
D03*
X01812098D02*
D03*
X02231581Y00450048D02*
D03*
X02228279Y00455128D02*
D03*
X02234779D02*
D03*
X02247779D02*
D03*
X02241279D02*
D03*
X02244581Y00450048D02*
D03*
X02251081D02*
D03*
X02238081D02*
D03*
X02224904D02*
D03*
X01294839Y01083109D02*
D03*
X01260505Y01076077D02*
D03*
X01242908Y00524046D02*
D03*
X01147002Y00530587D02*
D03*
X01180110Y00930168D02*
D03*
X01150508Y00930168D02*
D03*
X01144489D02*
D03*
X01138471D02*
D03*
X01132579Y00930045D02*
D03*
X01126561D02*
D03*
X01120542D02*
D03*
X01114524D02*
D03*
X01108505D02*
D03*
X01102360Y00930168D02*
D03*
X01078286D02*
D03*
X01096341D02*
D03*
X01090323D02*
D03*
X01072267D02*
D03*
X01162545D02*
D03*
X01156526D02*
D03*
X01168563D02*
D03*
X01174582Y00930168D02*
D03*
X01084304Y00930168D02*
D03*
X01750358Y00474367D02*
D03*
X01753556Y00479447D02*
D03*
X01766556D02*
D03*
X01769858Y00474367D02*
D03*
X01763358D02*
D03*
X01760056Y00479447D02*
D03*
X01773056D02*
D03*
X01776358Y00474367D02*
D03*
X01779556Y00479447D02*
D03*
X01782858Y00474367D02*
D03*
X01786056Y00479447D02*
D03*
X01756858Y00474367D02*
D03*
X01789358D02*
D03*
X01792556Y00479447D02*
D03*
X01795858Y00474367D02*
D03*
X01739627Y00470393D02*
D03*
Y00476893D02*
D03*
X01744707Y00480195D02*
D03*
X01739627Y00483393D02*
D03*
X01744707Y00486695D02*
D03*
X01739627Y00489893D02*
D03*
X01744707Y00493195D02*
D03*
Y00499695D02*
D03*
X01739627Y00496393D02*
D03*
Y00502893D02*
D03*
X01744707Y00506195D02*
D03*
X01739627Y00509393D02*
D03*
Y00541893D02*
D03*
X01744707Y00512695D02*
D03*
X01739627Y00515893D02*
D03*
X01744707Y00519195D02*
D03*
X01739627Y00522393D02*
D03*
X01744707Y00525695D02*
D03*
Y00538695D02*
D03*
X01739627Y00535393D02*
D03*
Y00528893D02*
D03*
X01744707Y00532195D02*
D03*
Y00545195D02*
D03*
X01739627Y00548393D02*
D03*
X01744707Y00551695D02*
D03*
X02218917Y00520490D02*
D03*
X02224500Y00517993D02*
D03*
X02263677D02*
D03*
X02257177D02*
D03*
X02237677D02*
D03*
X02270177D02*
D03*
X02266875Y00523073D02*
D03*
X02260375D02*
D03*
X02250677Y00517993D02*
D03*
X02244177D02*
D03*
X02240875Y00523073D02*
D03*
X02247375D02*
D03*
X02234375D02*
D03*
X02253875D02*
D03*
X02227875D02*
D03*
X02231177Y00517993D02*
D03*
X02539260Y00502108D02*
D03*
X02218065Y00526731D02*
D03*
X02212986Y00523429D02*
D03*
Y00516929D02*
D03*
X02218065Y00598231D02*
D03*
Y00591731D02*
D03*
X02212986Y00588429D02*
D03*
Y00575429D02*
D03*
Y00568929D02*
D03*
X02218065Y00585231D02*
D03*
Y00572231D02*
D03*
X02212986Y00581929D02*
D03*
X02218065Y00578731D02*
D03*
X02212986Y00594929D02*
D03*
Y00549429D02*
D03*
Y00529929D02*
D03*
Y00542929D02*
D03*
Y00536429D02*
D03*
X02218065Y00539731D02*
D03*
Y00546231D02*
D03*
X02212986Y00555929D02*
D03*
Y00562429D02*
D03*
X02218065Y00565731D02*
D03*
Y00533231D02*
D03*
Y00552731D02*
D03*
Y00559231D02*
D03*
X02498440Y00502108D02*
D03*
X02489568D02*
D03*
X02493902Y00506319D02*
D03*
X02534722D02*
D03*
X02485030D02*
D03*
X02480696Y00502108D02*
D03*
X02476159Y00506319D02*
D03*
X02530388Y00502108D02*
D03*
X02525850Y00506319D02*
D03*
X02516978D02*
D03*
X02521516Y00502108D02*
D03*
X02447349D02*
D03*
X02451683Y00506319D02*
D03*
X02438478Y00502108D02*
D03*
X02456221D02*
D03*
X02411413Y00506319D02*
D03*
X02433940D02*
D03*
X02442812D02*
D03*
X02393670D02*
D03*
X02398208Y00502108D02*
D03*
X02407079D02*
D03*
X02402542Y00506319D02*
D03*
X02415951Y00502108D02*
D03*
X01938226Y00464054D02*
D03*
X01947097D02*
D03*
X01942560Y00468265D02*
D03*
X01951431D02*
D03*
X01955969Y00464054D02*
D03*
X01975907Y00468265D02*
D03*
X01980444Y00464054D02*
D03*
X01984778Y00468265D02*
D03*
X01989316Y00464054D02*
D03*
X01998188D02*
D03*
X01993650Y00468265D02*
D03*
X02034470D02*
D03*
X02025598D02*
D03*
X02030136Y00464054D02*
D03*
X01893418Y00468265D02*
D03*
X01906827Y00464054D02*
D03*
X01911161Y00468265D02*
D03*
X01897956Y00464054D02*
D03*
X01902290Y00468265D02*
D03*
X01915699Y00464054D02*
D03*
X02021264D02*
D03*
X02016727Y00468265D02*
D03*
X01933688D02*
D03*
X01147946Y00582414D02*
D03*
X01100261Y00723379D02*
D03*
X01093761D02*
D03*
X01087261D02*
D03*
X01080761D02*
D03*
X01074261D02*
D03*
X01067761D02*
D03*
X01061261D02*
D03*
X01054761D02*
D03*
X01048261D02*
D03*
X01041761D02*
D03*
X01035261D02*
D03*
X01028761D02*
D03*
X01038563Y00718299D02*
D03*
X01045063D02*
D03*
X01064563D02*
D03*
X01058063D02*
D03*
X01051563D02*
D03*
X01077563D02*
D03*
X01071063D02*
D03*
X01097063D02*
D03*
X01090563D02*
D03*
X01084063D02*
D03*
X01103563D02*
D03*
M02*
