M48
;Layer_Color=9474304
;FILE_FORMAT=4:4
METRIC
;TYPE=PLATED
T1F00S00C0.2540
T2F00S00C0.7400
T3F00S00C0.8500
T4F00S00C1.0000
T5F00S00C1.0160
T7F00S00C1.3000
T8F00S00C1.4000
T9F00S00C1.5000
;TYPE=NON_PLATED
T10F00S00C4.4000
%
T01
X02059005Y00238086
X02087377Y00225650
X02133663Y00222271
X02073077Y00299940
X02112651Y00362485
X02103045Y00373727
X02130000Y00369662
X02129316Y00385907
X02129246Y00400195
X02044290Y00424601
X02224904Y00450048
X02231581
X02238081
X02244581
X02251081
X02247779Y00455128
X02241279
X02234779
X02228279
X02225815Y00370519
X02232315
X02238815
X02245315
X02251992
X02248617Y00365439
X02242117
X02235617
X02229117
X02027126Y00389446
X02030136Y00464054
X02034470Y00468265
X02025598
X02021264Y00464054
X02016727Y00468265
X01998188Y00464054
X01993650Y00468265
X01989316Y00464054
X01984778Y00468265
X01980444Y00464054
X01975907Y00468265
X01955969Y00464054
X01951431Y00468265
X01947097Y00464054
X01942560Y00468265
X01938226Y00464054
X01933688Y00468265
X01915699Y00464054
X01911161Y00468265
X01906827Y00464054
X01902290Y00468265
X01897956Y00464054
X01893418Y00468265
X01795858Y00474367
X01789358
X01782858
X01776358
X01769858
X01763358
X01756858
X01750358
X01739627Y00476893
Y00470393
X01712834Y00471143
X01707357Y00475103
X01746858Y00447955
X01753358
X01759858
X01766358
X01772858
X01779358
X01785858
X01792358
X01794884Y00401872
X01801384
X01807884
X01804686Y00396792
X01798186
X01791686
X01785009
X01788384Y00401872
X01811186Y00396792
X01812098Y00317263
X01805421
X01798921
X01792421
X01785921
X01789223Y00312183
X01795723
X01802223
X01808723
X02017013Y00317460
X02009382Y00277325
Y00258540
X01439290Y00378676
X01416866Y00365540
X01428616Y00406000
X01441371Y00447218
X01479395Y00424074
X01503533Y00455455
X01315490Y00459909
X01263182Y00464617
X01276785Y00245708
X01233110Y00244690
X01222147Y00259864
X01213427Y00259804
X01195269Y00259490
X01160917Y00252943
X01211385Y00285087
X01237860Y00347704
Y00361750
X01190552Y00420083
X01182922
X01175292
X01167663
X01160033
X01152403
X01144774
X01137144
X01129514
X01121885
X01114255
X01106626
X01098996
X01091366
X01083736
X01076107
X01068477
X01060848
X01053218
Y00432001
X01060848
X01068477
X01076107
X01083736
X01091366
X01098996
X01106626
X01114255
X01121885
X01129514
X01137144
X01144774
X01152403
X01160033
X01167663
X01175292
X01182922
X01190552
X00521102Y00371968
X00514528Y00372075
X00508028
X00501528
X00495028
X00488528
X00482028
X00475528
X00469028
X00462528
X00456028
X00449528
X00452830Y00366995
X00459330
X00465830
X00472330
X00478830
X00485330
X00491830
X00498330
X00504830
X00511330
X00517830
X00524330
X00527080Y00308787
X00520580
X00514080
X00507580
X00501080
X00494580
X00488080
X00481830
X00475330
X00468830
X00462330
X00455830
X00449330
X00452632Y00303707
X00459132
X00465632
X00472132
X00478632
X00485132
X00491307Y00303815
X00497882Y00303707
X00504382
X00510882
X00517382
X00523882
X00446132
X00439632
X00433132
X00426632
X00420132
X00413632
X00407057Y00303815
X00400434Y00303707
X00393934
X00387434
X00380934
X00374434
X00367934
X00361434
X00354934
X00348434
X00341934
X00335434
X00328934
X00322360Y00303815
X00319132Y00308787
X00325632
X00332132
X00338632
X00345132
X00351632
X00358132
X00364632
X00371132
X00377632
X00384132
X00390632
X00397132
X00403830
X00410330
X00416830
X00423330
X00429830
X00436330
X00442830
X00439632Y00366995
X00433132
X00426632
X00420132
X00413632
X00407132
X00400632
X00394132
X00387632
X00381132
X00374632
X00368132
X00361632
X00355382
X00348882
X00342382
X00335882
X00329382
X00322882
X00316382
X00319580Y00372075
X00326080
X00332580
X00339080
X00345580
X00352155Y00371968
X00358330Y00372075
X00364830
X00371330
X00377830
X00384330
X00390830
X00397330
X00403830
X00410330
X00416830
X00423330
X00429830
X00436405Y00371968
X00443028Y00372075
X00446330Y00366995
X00443104Y00486962
X00436604
X00430104
X00423604
X00417104
X00410604
X00404030Y00487070
X00397406Y00486962
X00390906
X00384406
X00377906
X00371406
X00364906
X00358406
X00351906
X00345406
X00338906
X00332406
X00325906
X00319331Y00487070
X00316104Y00492042
X00322604
X00329104
X00335604
X00342104
X00348604
X00355104
X00361604
X00368104
X00374604
X00381104
X00387604
X00394104
X00400802
X00407302
X00413802
X00420302
X00426802
X00433302
X00439802
X00446302
X00443302Y00550251
X00436604
X00430104
X00423604
X00417104
X00410604
X00404104
X00397604
X00391104
X00384604
X00378104
X00371604
X00365104
X00358604
X00352354
X00345854
X00339354
X00332854
X00326354
X00319854
X00313354
X00316552Y00555331
X00323052
X00329552
X00336052
X00342552
X00349127Y00555223
X00355302Y00555331
X00361802
X00368302
X00374802
X00381302
X00387802
X00394302
X00400802
X00407302
X00413802
X00420302
X00426802
X00433377Y00555223
X00440000Y00555331
X00446500
X00453000
X00459500
X00466000
X00472500
X00479000
X00485500
X00492000
X00498500
X00505000
X00511500
X00518075Y00555223
X00521302Y00550251
X00514802
X00508302
X00501802
X00495302
X00488802
X00482302
X00475802
X00469302
X00462802
X00456302
X00449802
X00452802Y00492042
X00459302
X00465802
X00472302
X00478802
X00485052
X00491552
X00498052
X00504552
X00511052
X00517552
X00524052
X00520854Y00486962
X00514354
X00507854
X00501354
X00494854
X00488279Y00487070
X00482104Y00486962
X00475604
X00469104
X00462604
X00456104
X00449604
X00749435Y00608466
X00745284Y00627510
X00756671Y00656276
X00803045Y00657791
X00805359Y00591487
X00929062Y00583997
X00934242Y00576387
X00940000Y00568132
X00947326Y00568316
X00947820Y00591487
X00922783Y00605513
X00939633Y00632700
X00944812Y00649836
X00924693Y00664974
Y00675073
X00909862Y00675401
X00905314Y00664056
X00890000Y00675301
X01028761Y00723379
X01035261
X01041761
X01048261
X01054761
X01061261
X01067761
X01074261
X01080761
X01087261
X01093761
X01100261
X01097063Y00718299
X01090563
X01084063
X01077563
X01071063
X01064563
X01058063
X01051563
X01045063
X01038563
X01040505Y00745265
X01047005
X01053505
X01060005
X01066505
X01073005
X01079505
X01086005
X01092505
X01127810Y00747861
X01147341Y00728216
X01146691Y00709636
Y00703056
X01146371Y00695286
X01146691Y00683652
Y00677056
Y00670474
X01145558Y00663129
X01117745Y00667685
Y00677796
Y00687906
Y00698016
Y00708126
X01103563Y00718299
X01197596Y00683556
X01212394Y00742551
X01184227Y00622791
X01184588Y00580177
X01147946Y00582414
X01144624Y00571642
X01144824Y00563387
X01149204Y00551692
X01146665Y00544035
X01152409Y00538096
X01147002Y00530587
X01148937Y00498603
X01145395Y00492281
X01156457
X01160523Y00498603
X01173185Y00498683
X01182919
X01180705Y00492361
X01190439
X01192665Y00498603
X01200185Y00492281
X01168043
X01137875Y00498603
X01129096Y00499803
X01119368Y00500279
X01120088Y00539677
X01119813Y00548607
Y00559118
Y00569629
Y00580140
X01141336Y00593791
X01148431Y00607975
X01223862Y00593865
X01236640Y00600533
X01237356Y00584985
X01197596Y00545296
X01077563Y00505448
X01076876Y00498067
X01071063Y00503470
X01071385Y00509913
X01064685Y00498165
X01008376Y00551913
Y00559413
Y00566913
X01268492Y00566001
X01266335Y00594219
X01322935Y00598905
X01325478Y00538573
X01335195Y00538823
X01314738Y00514194
X01311503Y00505698
X01316018Y00494781
X01292574Y00503935
X01279603
X01264510
X01242908Y00524046
X01401169Y00546893
X01403872Y00578127
Y00584707
X01406258Y00600405
X01392711Y00639165
X01416766Y00643034
X01390087Y00667907
X01394509Y00707192
X01424495Y00709936
X01436946Y00691186
X01424860Y00761304
X01414856
X01419706Y00766304
X01409701
X01404851Y00761304
X01394847
X01399697Y00766304
X01389692
X01384842Y00761304
X01374838
X01379688Y00766304
X01369683
X01364833Y00761304
X01354829
X01359679Y00766304
X01349674
X01344824Y00761304
X01334820
X01339670Y00766304
X01329665
X01324815Y00761304
X01314811
X01319661Y00766304
X01309656
X01243240Y00709120
X01466680Y00564559
X01507886Y00551187
Y00497779
X01497063Y00505105
X01484655
X01458564Y00506922
X01458169Y00494294
X01443775Y00488646
X01443521Y00500686
X01443348Y00512034
X01473107Y00487837
X01563183Y00488711
X01568309Y00502779
X01582028Y00561644
X01604591Y00556233
X01548123Y00611332
X01688306Y00596690
X01717467Y00609770
X01732067Y00637660
X01747335Y00639425
X01777696Y00630004
X01768833Y00588867
X01757006
X01749743Y00588777
X01736249Y00578916
X01735406Y00561095
X01739627Y00548393
Y00541893
Y00535393
Y00528893
Y00522393
Y00515893
Y00509393
Y00502893
Y00496393
Y00489893
Y00483393
X01744707Y00480195
Y00486695
Y00493195
Y00499695
Y00506195
Y00512695
Y00519195
Y00525695
Y00532195
Y00538695
Y00545195
Y00551695
X01752120Y00561698
X01759524Y00562825
X01766928
X01774332
X01781736
X01789444Y00588863
X01796006Y00589353
X01820350Y00554250
Y00547767
Y00540324
Y00533396
Y00525953
Y00519025
X01825775Y00521539
Y00514611
Y00528982
Y00535910
Y00543353
X01825997Y00550605
Y00558215
X01854953Y00559895
Y00551447
X01854868Y00544207
Y00536764
Y00529836
Y00522393
Y00515465
X01860087Y00519303
Y00526231
Y00533675
Y00540603
Y00548046
Y00555738
X01894724Y00552453
Y00559972
Y00567491
Y00575010
Y00582529
Y00590048
Y00597568
Y00605087
Y00612606
Y00620125
Y00627645
Y00635164
X01899652Y00631420
Y00638939
X01904724Y00635164
Y00627645
Y00620125
Y00612606
Y00605087
Y00597568
Y00590048
Y00582529
Y00575010
Y00567491
Y00559972
Y00552453
Y00544933
Y00537414
Y00529895
X01909652Y00533671
Y00541190
Y00548709
Y00556228
Y00563747
Y00571267
Y00578786
Y00586305
Y00593824
Y00601343
Y00608862
Y00616382
Y00623901
Y00631420
Y00638939
X01914724Y00635164
Y00627645
Y00620125
Y00612606
Y00605087
Y00597568
Y00590048
Y00582529
Y00575010
Y00567491
Y00559972
Y00552453
Y00544933
Y00537414
Y00529895
X01919652Y00533671
Y00541190
Y00548709
Y00556228
Y00563747
Y00571267
Y00578786
Y00586305
Y00593824
Y00601343
Y00608862
Y00616382
Y00623901
Y00631420
Y00638939
X01924724Y00635164
Y00627645
Y00620125
Y00612606
Y00605087
Y00597568
Y00590048
Y00582529
Y00575010
Y00567491
Y00559972
Y00552453
Y00544933
Y00537414
Y00529895
X01929652Y00533671
Y00541190
Y00548709
Y00556228
Y00563747
Y00571267
Y00578786
Y00586305
Y00593824
Y00601343
Y00608862
Y00616382
Y00623901
Y00631420
Y00638939
X01934724Y00635164
Y00627645
Y00620125
Y00612606
Y00605087
Y00597568
Y00590048
Y00582529
Y00575010
Y00567491
Y00559972
Y00552453
Y00544933
Y00537414
Y00529895
X01939652Y00533671
Y00541190
Y00548709
Y00556228
Y00563747
Y00571267
Y00578786
Y00586305
Y00593824
Y00601343
Y00608862
Y00616382
Y00623901
Y00631420
Y00638939
X01944724Y00635164
Y00627645
Y00620125
Y00612606
Y00605087
Y00597568
Y00590048
Y00582529
Y00575010
Y00567491
Y00559972
Y00552453
Y00544933
Y00537414
Y00529895
X01949652Y00533671
Y00541190
Y00548709
Y00556228
Y00563747
Y00571267
Y00578786
Y00586305
Y00593824
Y00601343
Y00608862
Y00616382
Y00623901
Y00631420
Y00638939
X01954724Y00635164
Y00627645
Y00620125
Y00612606
Y00605087
Y00597568
Y00590048
Y00582529
Y00575010
Y00567491
Y00559972
Y00552453
Y00544933
Y00537414
Y00529895
X01959652Y00533671
Y00541190
Y00548709
Y00556228
Y00563747
Y00571267
Y00578786
Y00586305
Y00593824
Y00601343
Y00608862
Y00616382
Y00623901
Y00631420
Y00638939
X01964724Y00635164
Y00627645
Y00620125
Y00612606
Y00605087
Y00597568
Y00590048
Y00582529
Y00575010
Y00567491
Y00559972
Y00552453
Y00544933
Y00537414
Y00529895
X01969652Y00533671
Y00541190
Y00548709
Y00556228
Y00563747
Y00571267
Y00578786
Y00586305
Y00593824
Y00601343
Y00608862
Y00616382
Y00623901
Y00631420
Y00638939
X01974724Y00635164
Y00627645
Y00620125
Y00612606
Y00605087
Y00597568
Y00590048
Y00582529
Y00575010
Y00567491
Y00559972
Y00552453
Y00544933
Y00537414
Y00529895
X01979652Y00533671
Y00541190
Y00548709
Y00556228
Y00563747
Y00571267
Y00578786
Y00586305
Y00593824
Y00601343
Y00608862
Y00616382
Y00623901
Y00631420
Y00638939
X01984657Y00635168
Y00627648
Y00620129
Y00612610
Y00605091
Y00597572
Y00590052
Y00582533
Y00575014
Y00567495
Y00559976
Y00552457
Y00544937
Y00537418
Y00529899
X01989586Y00533675
Y00541194
Y00548713
Y00556232
Y00563751
Y00571270
Y00578790
Y00586309
Y00593828
Y00601347
Y00608866
Y00616386
Y00623905
Y00631424
Y00638943
X01899652Y00623901
Y00616382
Y00608862
Y00601343
Y00593824
Y00586305
Y00578786
Y00571267
Y00563747
Y00556228
Y00548709
Y00541190
Y00533671
X01894724Y00537414
Y00529895
Y00544933
X01849567Y00616984
X01845029Y00621195
X01840695Y00616984
X01836157Y00621195
X01831823Y00616984
X01827285Y00621195
X01700555Y00637660
X01700898Y00695791
X01676883Y00707385
X01752463Y00699846
X01759441Y00741368
X01773551Y00737625
X01773056Y00479447
X01779556
X01786056
X01792556
X01766556
X01760056
X01753556
X01712834Y00477643
Y00484143
Y00490643
Y00497143
Y00503643
Y00510143
Y00516643
Y00523143
Y00529643
Y00536143
X01707357Y00533603
Y00527103
Y00520603
Y00514103
Y00507603
Y00501103
Y00494603
Y00488103
Y00481603
X02179082Y00515106
Y00521606
Y00528106
Y00534606
Y00541106
Y00547606
Y00554106
X02184559Y00556646
Y00550146
Y00543646
Y00537146
Y00530646
Y00524146
Y00517646
Y00511146
X02212986Y00516929
Y00523429
Y00529929
Y00536429
Y00542929
Y00549429
Y00555929
Y00562429
Y00568929
Y00575429
Y00581929
Y00588429
Y00594929
X02218065Y00591731
Y00598231
Y00585231
Y00578731
Y00572231
Y00565731
Y00559231
Y00552731
Y00546231
Y00539731
Y00533231
Y00526731
X02218917Y00520490
X02224500Y00517993
X02231177
X02237677
X02244177
X02250677
X02257177
X02263677
X02270177
X02266875Y00523073
X02260375
X02253875
X02247375
X02240875
X02234375
X02227875
X02225083Y00487958
X02231583
X02238083
X02244583
X02251083
X02257583
X02264083
X02218583
X02212627Y00606503
Y00617339
X02212480Y00630486
X02190262Y00615356
X02185762Y00645607
X02173983Y00637067
X02226259Y00605087
X02236447Y00607388
X02243647
X02250677
X02260056
X02263977Y00635665
X02271227
X02269915Y00684363
X02251081Y00695446
X02216988Y00690984
X02199771Y00734674
X02212627Y00793881
X02156908Y00797543
X02276407Y00743484
X02275036Y00734604
X02303754Y00664433
X02308291Y00660222
X02312625Y00664433
X02317163Y00660222
X02321497Y00664433
X02326035Y00660222
X02374484Y00662758
Y00655239
Y00647720
Y00640200
Y00632681
Y00625162
Y00617643
Y00610124
Y00602604
Y00595085
Y00587566
Y00580047
Y00572528
X02379412Y00576303
Y00583823
Y00591342
Y00598861
Y00606380
Y00613899
Y00621418
Y00628938
Y00636457
Y00643976
Y00651495
Y00659014
Y00666534
Y00674053
Y00681572
X02374484Y00677796
Y00670277
X02384484
Y00662758
Y00655239
Y00647720
Y00640200
Y00632681
Y00625162
Y00617643
Y00610124
Y00602604
Y00595085
Y00587566
Y00580047
Y00572528
X02389412Y00576303
Y00583823
Y00591342
Y00598861
Y00606380
Y00613899
Y00621418
Y00628938
Y00636457
Y00643976
Y00651495
Y00659014
Y00666534
Y00674053
Y00681572
X02384484Y00677796
X02394484
Y00670277
Y00662758
Y00655239
Y00647720
Y00640200
Y00632681
Y00625162
Y00617643
Y00610124
Y00602604
Y00595085
Y00587566
Y00580047
Y00572528
X02399412Y00576303
Y00583823
Y00591342
Y00598861
Y00606380
Y00613899
Y00621418
Y00628938
Y00636457
Y00643976
Y00651495
Y00659014
Y00666534
Y00674053
Y00681572
X02404484Y00677796
Y00670277
Y00662758
Y00655239
Y00647720
Y00640200
Y00632681
Y00625162
Y00617643
Y00610124
Y00602604
Y00595085
Y00587566
Y00580047
Y00572528
X02409412Y00576303
Y00583823
Y00591342
Y00598861
Y00606380
Y00613899
Y00621418
Y00628938
Y00636457
Y00643976
Y00651495
Y00659014
Y00666534
Y00674053
Y00681572
X02414484Y00677796
Y00670277
Y00662758
Y00655239
Y00647720
Y00640200
Y00632681
Y00625162
Y00617643
Y00610124
Y00602604
Y00595085
Y00587566
Y00580047
Y00572528
X02419412Y00576303
Y00583823
Y00591342
Y00598861
Y00606380
Y00613899
Y00621418
Y00628938
Y00636457
Y00643976
Y00651495
Y00659014
Y00666534
Y00674053
Y00681572
X02424484Y00677796
Y00670277
Y00662758
Y00655239
Y00647720
Y00640200
Y00632681
Y00625162
Y00617643
Y00610124
Y00602604
Y00595085
Y00587566
Y00580047
Y00572528
X02429412Y00576303
Y00583823
Y00591342
Y00598861
Y00606380
Y00613899
Y00621418
Y00628938
Y00636457
Y00643976
Y00651495
Y00659014
Y00666534
Y00674053
Y00681572
X02339719Y00593391
Y00585948
Y00579020
Y00571577
Y00564649
Y00557206
X02334625Y00561058
Y00568501
Y00575429
Y00582872
Y00589800
Y00597243
X02299008Y00596967
Y00589524
Y00582596
Y00575153
Y00568225
Y00560782
X02293823Y00557346
X02293823Y00564598
Y00572041
Y00578969
Y00586412
Y00593340
X02393670Y00506319
X02398208Y00502108
X02402542Y00506319
X02407079Y00502108
X02411413Y00506319
X02415951Y00502108
X02433940Y00506319
X02438478Y00502108
X02442812Y00506319
X02447349Y00502108
X02451683Y00506319
X02456221Y00502108
X02476159Y00506319
X02480696Y00502108
X02485030Y00506319
X02489568Y00502108
X02493902Y00506319
X02498440Y00502108
X02516978Y00506319
X02521516Y00502108
X02525850Y00506319
X02530388Y00502108
X02534722Y00506319
X02539260Y00502108
X02469345Y00576307
Y00583826
Y00591346
Y00598865
Y00606384
Y00613903
Y00621422
Y00628941
Y00636461
Y00643980
Y00651499
Y00659018
Y00666537
Y00674057
Y00681576
X02464417Y00677800
Y00670281
Y00662762
Y00655243
Y00647723
Y00640204
Y00632685
Y00625166
Y00617647
Y00610128
Y00602608
Y00595089
Y00587570
Y00580051
Y00572532
X02459412Y00576303
Y00583823
Y00591342
Y00598861
Y00606380
Y00613899
Y00621418
Y00628938
Y00636457
Y00643976
Y00651495
Y00659014
Y00666534
Y00674053
Y00681572
X02454484Y00677796
Y00670277
Y00662758
Y00655239
Y00647720
Y00640200
Y00632681
Y00625162
Y00617643
Y00610124
Y00602604
Y00595085
Y00587566
Y00580047
Y00572528
X02449412Y00576303
Y00583823
Y00591342
Y00598861
Y00606380
Y00613899
Y00621418
Y00628938
Y00636457
Y00643976
Y00651495
Y00659014
Y00666534
Y00674053
Y00681572
X02444484Y00677796
Y00670277
Y00662758
Y00655239
Y00647720
Y00640200
Y00632681
Y00625162
Y00617643
Y00610124
Y00602604
Y00595085
Y00587566
Y00580047
Y00572528
X02439412Y00576303
Y00583823
Y00591342
Y00598861
Y00606380
Y00613899
Y00621418
Y00628938
Y00636457
Y00643976
Y00651495
Y00659014
Y00666534
Y00674053
Y00681572
X02434484Y00677796
Y00670277
Y00662758
Y00655239
Y00647720
Y00640200
Y00632681
Y00625162
Y00617643
Y00610124
Y00602604
Y00595085
Y00587566
Y00580047
Y00572528
X02233169Y00963479
X02225650
X02218131
X02210611
X02203092
X02195573
X02188054
X02191797Y00968407
X02199317
X02206836
X02214355
X02221874
X02229393
X02236913
X02233169Y00973479
X02225650
X02218131
X02210611
X02203092
X02195573
X02188054
X02191797Y00978407
X02199317
X02206836
X02214355
X02221874
X02229393
X02236913
X02233169Y00983479
X02225650
X02218131
X02210611
X02203092
X02195573
X02188054
X02191797Y00988407
X02199317
X02206836
X02214355
X02221874
X02229393
X02236913
X02233169Y00993479
X02225650
X02218131
X02210611
X02203092
X02195573
X02188054
X02191797Y00998407
X02199317
X02206836
X02214355
X02221874
X02229393
X02236913
X02233169Y01003479
X02225650
X02218131
X02210611
X02203092
X02195573
X02188054
X02191797Y01008407
X02199317
X02206836
X02214355
X02221874
X02229393
X02236913
X02233169Y01013479
X02225650
X02218131
X02210611
X02203092
X02195573
X02188054
X02191797Y01018407
X02199317
X02206836
X02214355
X02221874
X02229393
X02236913
X02233169Y01023479
X02225650
X02218131
X02210611
X02203092
X02195573
X02188054
X01779994Y01048831
Y01059095
X01779809Y01067050
Y01074297
X01792664Y01074218
X01733665Y01071671
X01744984Y01097104
X01734681Y01116986
X01707721Y01092318
X01661556Y01084477
X01649482Y01086635
X01642998Y01072010
X01638382Y01063426
X01649923Y01060132
Y01045502
X01650292Y01025346
X01650108Y01015381
X01666866Y01015651
Y01025438
X01678737
X01678777Y01015578
Y01010216
X01678083Y00989028
X01666866Y00994338
X01646784
X01646968Y00983718
X01740067Y00982581
X01745625
X01746027Y00994338
X01740067
X01740198Y01010216
X01740067Y01015651
X01734757Y01023506
X01733488Y01035087
X01748530Y01020653
X01752223Y01006466
X01759924Y01000866
X01761781Y00994338
X01764937Y00983718
X01771705
X01777522Y00989028
X01674667Y01050327
X01670051Y01060132
X01680065
X01670420Y01070326
X01600000Y01020653
X01584200Y00997204
X01505288Y01020167
X01474381Y01026457
X01476889Y01007363
X01445051Y00985957
X01433984Y00886215
X01423979
X01428830Y00891215
X01418825
X01413975Y00886215
X01403970
X01408820Y00891215
X01398816
X01393966Y00886215
X01383961
X01388811Y00891215
X01378807
X01373957Y00886215
X01363952
X01368802Y00891215
X01358798
X01353948Y00886215
X01343943
X01348793Y00891215
X01338789
X01333939Y00886215
X01323934
X01328784Y00891215
X01318780
X01307616Y01012751
X01287892Y01049398
X01294839Y01083109
X01309066Y01078029
X01321783Y01077777
X01345639Y01080513
X01353311Y01081171
X01349156Y01085950
X01353311Y01092542
X01349156Y01074579
X01351855Y01036288
X01361058Y01118477
X01369522Y01118632
X01433144Y01123958
X01477438Y01133352
Y01104585
X01493745Y01104966
X01506298
X01518729Y01105527
X01519283Y01085950
X01506298Y01085488
X01493745
Y01072390
X01506230
X01477370Y01072010
X01477438Y01085107
X01546005Y01075333
X01547373Y01064298
X01575988Y01221690
X01410290Y01214167
X01388951Y01226462
X01386999Y01249262
X01357491Y01176421
X01351185Y01174540
X01298269Y01165072
Y01120167
X01266811Y01100013
X01260505Y01076077
X01263628Y01218262
X01436820Y01177325
X01223170Y01151104
X01174953Y01154376
X01174568Y01164996
Y01171576
Y01178665
X01174516Y01190186
X01175256Y01196724
X01179828Y01204425
X01172586Y01228674
X01203642Y01228745
X01184614Y01249317
X01149469Y01239636
X01125129Y01240672
X01117499
X01109870
X01102240
X01094611
X01086981
X01079351
X01071722
X01064312Y01240572
X01055030Y01240672
X01046092Y01240572
X01035320
Y01234457
Y01226827
Y01219197
Y01211568
Y01203938
Y01196309
Y01188679
Y01181049
Y01173420
X01028530Y01177144
Y01184774
Y01192403
Y01200033
Y01207663
Y01215292
Y01222922
Y01230552
X01028856Y01237545
X01034454Y01247073
X01041589Y01248457
X01050582
X01060000
X01067630
X01075259
X01082889
X01090519
X01098148
X01105778
X01113408
X01110792Y01214093
X01103162
X01095533
X01087903
X01080273
X01072644
X01065014
X01068919Y01207303
X01076549
X01084178
X01091808
X01099438
X01107067
X01114697
X01122327
X01126051Y01214093
X01118421
X01133681
X01136836Y01204065
Y01193954
Y01183844
Y01173734
Y01163624
X01171537Y01109994
X01172623Y01096114
X01175378Y01068486
X01174945Y01060843
X01174474Y01053805
X01175557Y01046002
X01176864Y01037960
X01184614Y01028994
X01189020Y01021550
X01226935Y01028168
X01228506Y01057516
X01224286Y00984719
Y00977878
X01217866Y00975288
X01217769Y00969121
X01210928
X01204307
X01197466
X01189591
X01182749
X01150423Y00967626
X01143581
X01142180Y00990039
X01148680
X01117302Y00990179
X01117581Y00996214
X01117633Y01002701
X01110792
X01110740Y00996214
X01110460Y00990179
X01110792Y00967626
X01117633
X01120542Y00930045
X01126561
X01132579
X01138471Y00930168
X01144489
X01150508
X01156526
X01162545
X01168563
X01174582Y00930168
X01180110
X01186312
X01192448
X01198584
X01204721
Y00920546
X01218096Y00982242
X01144198Y01037161
Y01044560
Y01056012
Y01065805
Y01076208
X01153897Y01083345
X01034421Y01062536
Y01055036
Y01047536
X01042676Y00990179
Y00983375
X01050101Y00990179
X01050309Y00996075
X01057021Y00996214
X01056813Y00990179
X01063654
X01063934Y00996214
X01064199Y00967626
X01057021
X01072267Y00930168
X01078286
X01084304
X01090323
X01096341
X01102360
X01108505Y00930045
X01114524
X00937829Y00996829
Y01007250
X00927804Y01014564
X00922494Y00998472
X00915221Y00986764
X00886116
X00885650Y01066488
X00874195Y01070303
X00870000Y01079895
X00910000Y01079959
X00919836
X00925240Y01069861
X00940000Y01037124
X00969891Y01050854
X01001390Y01270000
X01061299
X00925840
X00844880
X00760239
X00683570
X00725575Y01057683
X00714111Y01028198
X00771045Y01064434
X00795193Y00997155
X00790887Y00983717
X00338508Y01453721
X00332008
X00325508
X00328706Y01458801
X00335206
X00322206
X00288978Y01540721
X00283258Y01617348
X00218032Y01625452
X00156330Y01618503
X00150620Y01632264
X00143654Y01571453
X00133640Y01540042
X00124565Y01518415
X00162528Y01457062
X00169028
X00175528
X00172330Y01451982
X00165830
X00178830
X00400436Y01585465
X00447750Y01557503
X00511766Y01554911
X00514044Y01633207
X00541418Y01631225
X00620000Y01626680
X00696670
X00781311
X00761652Y01539690
Y01520650
Y01461954
X00748195Y01395000
X00766311Y01345000
X00803581Y01305000
X00718940
X00642271
X00605000Y01345000
X00586884Y01395000
X00663554
X00681670Y01345000
X00677011Y01461954
Y01520650
Y01539690
X00600341
Y01520650
Y01461954
X00552500Y01465616
X00538502Y01494856
X00842611Y01520650
Y01539690
Y01461954
X00829154Y01395000
X00847271Y01345000
X00922820
X00982729
X00972885Y01394304
X00904704Y01395000
X00918161Y01461954
Y01520650
Y01539690
X00978071
Y01520650
Y01461954
X00960091Y01305000
X01020000
X00884541
X01158448Y01291977
Y01283618
Y01276143
X01185564
X01185630Y01283618
X01185770Y01291977
X01187616Y01343737
X01225869Y01335303
X01218096Y01387881
X01231451Y01399818
X01231592Y01408176
X01231657Y01415651
X01219173Y01469899
X01190950Y01466765
X01190568Y01483959
X01198222Y01450226
X01119005Y01517501
X01115342Y01564365
Y01581180
Y01596004
X01115519Y01606729
Y01616060
X01115342Y01626680
X01115519Y01637300
X01154271Y01634530
X01153829Y01624312
X01092785Y01616060
X01092609Y01606729
X01092785Y01596162
Y01581180
Y01564371
X00997729Y01626680
X00937820
X00862271
X01249452Y01537037
X01256039Y01543526
X01278845Y01544076
X01284492Y01540268
X01274852Y01536444
X01278257Y01530759
X01269079Y01530059
X01303192Y01533196
X01317852Y01537037
Y01526683
Y01504736
Y01484254
X01270330Y01484252
Y01467628
X01258773Y01408176
Y01399818
X01258449Y01367277
X01284143Y01330580
X01319289Y01363391
X01361600Y01352300
X01365174Y01405931
X01371780Y01426692
X01382156Y01463841
X01388951Y01463693
X01396955Y01463841
X01392106Y01470069
X01385150
X01413363Y01467893
X01418619Y01473329
X01433303Y01471133
X01428123Y01465690
X01454367Y01468087
X01454098Y01420714
X01465977Y01414004
X01494450Y01415553
X01535377Y01387541
X01569526Y01351071
X01541386Y01312310
X01524788Y01317095
X01518273Y01309916
X01619399Y01315004
X01634215Y01343431
X01626553Y01439911
X01620391Y01452932
X01611820Y01453027
X01601931Y01453044
X01594811Y01452837
X01583089
X01588429Y01426611
X01580338Y01504693
X01573534Y01504648
X01597734
X01609164
X01622063
X01634164
X01536206Y01501580
X01520003
X01519637Y01490665
X01478855Y01533553
X01469631Y01527316
X01452428
X01445326Y01532677
X01435225Y01527316
X01410921Y01526683
Y01532677
X01397106Y01527316
X01390725Y01533924
X01383617Y01527316
X01341400Y01526683
X01341146Y01537332
X01432931Y01437929
X01425360Y01401578
X01413440Y01387617
X01447791Y01378864
X01459400Y01373364
X01334584Y01280139
X01565164Y01560439
X01538437Y01606225
X01647063Y01504648
X01664550
X01668456Y01462495
X01665889Y01452837
X01652511Y01453027
X01645766Y01452837
X01638627Y01453027
X01649884Y01343279
X01665978Y01282692
T02
X01140150Y01558962
X01152850
X01165550
X01178250
X01190950
X01203650
X01216350
X01229050
Y01571662
X01216350
X01203650
X01190950
X01178250
X01165550
X01152850
X01140150
X01241750
Y01558962
X01254450
X01267150
X01279850
Y01571662
X01267150
X01254450
X01380150Y01571660
Y01558960
X01392850
X01405550
X01418250
X01430950
X01443650
X01456350
X01469050
X01481750
X01494450
X01507150
X01519850
Y01571660
X01507150
X01494450
X01481750
X01469050
X01456350
X01443650
X01430950
X01418250
X01405550
X01392850
T03
X00539750Y01044434
X00589750
X00404100Y01043369
X00354100
T04
X00220000Y00062500
X01484394Y00051435
X02228567Y00037460
Y00312460
X01484394Y00326435
X00220000Y00337500
Y00407250
Y00682250
Y00762500
X00756421Y00760819
X01031421
X01031921Y00887298
X00756921
X00220000Y01037500
T05
X02039110Y00307899
X02116004Y00327768
X02113836Y00458870
X02023376Y00360835
X02034470Y00227654
X01354268Y00371689
X01306291Y00370139
X01309250Y00334585
X01263620Y00441410
X01232176Y00385931
X01184782Y00352332
X00111510Y00409872
X00078363Y00200500
X00026069Y00387250
X00032473Y00580000
X00084180Y00755215
X00789823Y00675786
X00760333Y00579948
X01284987Y00684654
X01476834Y00529806
X01580589Y00588704
X02097879Y00548123
X02665977Y00890000
X02066674Y01027913
X01920000Y00964771
X01257781Y01028749
X01244010Y01250973
X00743387Y01071997
X00743330Y01001802
X00080056Y01069741
X00185521Y01532308
X00289183Y01495894
X00308802Y01617663
X00371253Y01603353
X01105427Y01316220
X01544554Y01367245
X01642802Y01321685
T07
X00084180Y00261266
Y00324766
Y00460292
Y00523792
Y00806816
Y00870316
Y00948234
Y01011734
T08
X01129335Y00830000
X01404335
X01514793Y00667385
X01823347Y00730000
X02098347
X02631335Y00811557
Y00536557
X02572500Y00944000
Y01046000
X02197500
Y00944000
X02007300Y01026250
X01956500
X01905700
X01514793Y00942385
T09
X00640000Y00061580
X00690000
X00740000
X00840000
X00890000
X00940000
X01631100Y00061000
X01681100
X01731100
X01831100
X01881100
X01931100
X02705026Y00150000
Y00200000
Y00250000
Y00350000
Y00400000
Y00450000
X02355026
Y00400000
Y00350000
Y00250000
Y00200000
Y00150000
X01931100Y00411000
X01881100
X01831100
X01731100
X01681100
X01631100
X00414750Y00596109
X00364750
X00464750
X00564750
X00614750
X00664750
X00640000Y00499580
X00690000
X00740000
X00840000
X00890000
X00940000
X00960000Y01151000
X00910000
X00860000
X00760000
X00710000
X00660000
X00664750Y00966109
X00614750
X00564750
X00464750
X00414750
X00364750
X00660000Y01589000
X00710000
X00760000
X00860000
X00910000
X00960000
T10
X00049716Y00049603
X01151838Y00048695
X02699805Y00050346
X00050004Y00670459
X02700000Y01100000
X02113431Y01101228
X00050173Y01600894
X01112771Y01416528
X01649855Y01600172
M30
