G04*
G04 #@! TF.GenerationSoftware,Altium Limited,Altium Designer,23.1.1 (15)*
G04*
G04 Layer_Color=32896*
%FSAX44Y44*%
%MOMM*%
G71*
G04*
G04 #@! TF.SameCoordinates,A3571568-9A21-437D-865F-2304E57EA7B7*
G04*
G04*
G04 #@! TF.FilePolarity,Positive*
G04*
G01*
G75*
%ADD12C,0.2500*%
%ADD19C,0.1500*%
%ADD21C,0.1250*%
%ADD22C,0.2540*%
%ADD28C,0.2032*%
G54D12*
X02328317Y00615103D02*
G03*
X02328317Y00615103I-00001250J00000000D01*
G01*
X01853406Y00569345D02*
G03*
X01853406Y00569345I-00001250J00000000D01*
G01*
X01161081Y00966789D02*
G03*
X01161081Y00966789I-00001250J00000000D01*
G01*
Y01102000D02*
G03*
X01161081Y01102000I-00001250J00000000D01*
G01*
X01130624Y00474737D02*
G03*
X01130624Y00474737I-00001250J00000000D01*
G01*
G54D19*
X00091504Y00670459D02*
G03*
X00091504Y00670459I-00041500J00000000D01*
G01*
X01193338Y00048695D02*
G03*
X01193338Y00048695I-00041500J00000000D01*
G01*
X02154931Y01101228D02*
G03*
X02154931Y01101228I-00041500J00000000D01*
G01*
X01691355Y01600172D02*
G03*
X01691355Y01600172I-00041500J00000000D01*
G01*
X00091673Y01600894D02*
G03*
X00091673Y01600894I-00041500J00000000D01*
G01*
X00091216Y00049603D02*
G03*
X00091216Y00049603I-00041500J00000000D01*
G01*
X02741305Y00050346D02*
G03*
X02741305Y00050346I-00041500J00000000D01*
G01*
X02741500Y01100000D02*
G03*
X02741500Y01100000I-00041500J00000000D01*
G01*
X01154271Y01416528D02*
G03*
X01154271Y01416528I-00041500J00000000D01*
G01*
X02285572Y00623603D02*
X02305817D01*
X02210317D02*
X02212917D01*
X02285572Y00502603D02*
X02305817D01*
X02210317D02*
X02212917D01*
X01016874Y00722056D02*
Y00724656D01*
Y00629156D02*
Y00649401D01*
X01137875Y00722056D02*
Y00724656D01*
Y00629156D02*
Y00649401D01*
X02253915Y00394378D02*
Y00420878D01*
X02221415Y00394378D02*
Y00420878D01*
X01782171Y00343583D02*
Y00370083D01*
X01814671Y00343583D02*
Y00370083D01*
X01735406Y00456845D02*
X01738006D01*
X01810661D02*
X01830906D01*
X01735406Y00577845D02*
X01738006D01*
X01810661D02*
X01830906D01*
X01168332Y00988039D02*
Y01008284D01*
Y01080939D02*
Y01083539D01*
X01047331Y00988039D02*
Y01008284D01*
Y01080939D02*
Y01083539D01*
Y01216150D02*
Y01218749D01*
Y01123250D02*
Y01143494D01*
X01168332Y01216150D02*
Y01218749D01*
Y01123250D02*
Y01143494D01*
X01137875Y00495987D02*
Y00516232D01*
Y00588887D02*
Y00591487D01*
X01016874Y00495987D02*
Y00516232D01*
Y00588887D02*
Y00591487D01*
G54D21*
X-00103442Y-01613059D02*
Y-01618057D01*
X-00100943D01*
X-00100110Y-01617224D01*
Y-01616391D01*
X-00100943Y-01615558D01*
X-00103442D01*
X-00100943D01*
X-00100110Y-01614725D01*
Y-01613892D01*
X-00100943Y-01613059D01*
X-00103442D01*
X-00097611Y-01618057D02*
X-00095944D01*
X-00095111Y-01617224D01*
Y-01615558D01*
X-00095944Y-01614725D01*
X-00097611D01*
X-00098444Y-01615558D01*
Y-01617224D01*
X-00097611Y-01618057D01*
X-00092612Y-01613892D02*
Y-01614725D01*
X-00093445D01*
X-00091779D01*
X-00092612D01*
Y-01617224D01*
X-00091779Y-01618057D01*
X-00088447Y-01613892D02*
Y-01614725D01*
X-00089280D01*
X-00087614D01*
X-00088447D01*
Y-01617224D01*
X-00087614Y-01618057D01*
X-00084282D02*
X-00082615D01*
X-00081782Y-01617224D01*
Y-01615558D01*
X-00082615Y-01614725D01*
X-00084282D01*
X-00085115Y-01615558D01*
Y-01617224D01*
X-00084282Y-01618057D01*
X-00080116D02*
Y-01614725D01*
X-00079283D01*
X-00078450Y-01615558D01*
Y-01618057D01*
Y-01615558D01*
X-00077617Y-01614725D01*
X-00076784Y-01615558D01*
Y-01618057D01*
X-00067620Y-01613059D02*
X-00069286D01*
X-00070120Y-01613892D01*
Y-01617224D01*
X-00069286Y-01618057D01*
X-00067620D01*
X-00066787Y-01617224D01*
Y-01613892D01*
X-00067620Y-01613059D01*
X-00065121Y-01614725D02*
X-00063455Y-01618057D01*
X-00061789Y-01614725D01*
X-00057624Y-01618057D02*
X-00059290D01*
X-00060123Y-01617224D01*
Y-01615558D01*
X-00059290Y-01614725D01*
X-00057624D01*
X-00056790Y-01615558D01*
Y-01616391D01*
X-00060123D01*
X-00055124Y-01614725D02*
Y-01618057D01*
Y-01616391D01*
X-00054291Y-01615558D01*
X-00053458Y-01614725D01*
X-00052625D01*
X-00050126Y-01618057D02*
X-00048460D01*
X-00049293D01*
Y-01613059D01*
X-00050126D01*
X-00045128Y-01614725D02*
X-00043462D01*
X-00042628Y-01615558D01*
Y-01618057D01*
X-00045128D01*
X-00045961Y-01617224D01*
X-00045128Y-01616391D01*
X-00042628D01*
X-00040962Y-01614725D02*
Y-01617224D01*
X-00040129Y-01618057D01*
X-00037630D01*
Y-01618890D01*
X-00038463Y-01619724D01*
X-00039296D01*
X-00037630Y-01618057D02*
Y-01614725D01*
X02505415Y00071191D02*
X02508747D01*
Y00068692D01*
X02507081D01*
X02508747D01*
Y00066192D01*
X02503749Y00071191D02*
X02502083D01*
X02502916D01*
Y00066192D01*
X02503749D01*
X02502083D01*
X02499583Y00071191D02*
Y00066192D01*
X02497084D01*
X02496251Y00067025D01*
Y00070358D01*
X02497084Y00071191D01*
X02499583D01*
X02491253D02*
X02492919Y00070358D01*
X02494585Y00068692D01*
Y00067025D01*
X02493752Y00066192D01*
X02492086D01*
X02491253Y00067025D01*
Y00067858D01*
X02492086Y00068692D01*
X02494585D01*
X00107220Y00603627D02*
X00110553D01*
Y00601128D01*
X00108886D01*
X00110553D01*
Y00598629D01*
X00105554Y00603627D02*
X00103888D01*
X00104721D01*
Y00598629D01*
X00105554D01*
X00103888D01*
X00101389Y00603627D02*
Y00598629D01*
X00098890D01*
X00098057Y00599462D01*
Y00602794D01*
X00098890Y00603627D01*
X00101389D01*
X00093058D02*
X00096390D01*
Y00601128D01*
X00094724Y00601961D01*
X00093891D01*
X00093058Y00601128D01*
Y00599462D01*
X00093891Y00598629D01*
X00095557D01*
X00096390Y00599462D01*
X00055088Y01520914D02*
X00058421D01*
Y01518415D01*
X00056754D01*
X00058421D01*
Y01515916D01*
X00053422Y01520914D02*
X00051756D01*
X00052589D01*
Y01515916D01*
X00053422D01*
X00051756D01*
X00049257Y01520914D02*
Y01515916D01*
X00046758D01*
X00045925Y01516749D01*
Y01520081D01*
X00046758Y01520914D01*
X00049257D01*
X00041759Y01515916D02*
Y01520914D01*
X00044259Y01518415D01*
X00040926D01*
X00076106Y00725488D02*
Y00730486D01*
X00074440Y00728820D01*
X00072774Y00730486D01*
Y00725488D01*
X00071108D02*
Y00730486D01*
X00068609D01*
X00067776Y00729653D01*
Y00727987D01*
X00068609Y00727154D01*
X00071108D01*
X00066110Y00726321D02*
X00065277Y00725488D01*
X00063611D01*
X00062777Y00726321D01*
Y00729653D01*
X00063611Y00730486D01*
X00065277D01*
X00066110Y00729653D01*
Y00728820D01*
X00065277Y00727987D01*
X00062777D01*
X01162774Y00739905D02*
Y00735740D01*
X01161941Y00734906D01*
X01160275D01*
X01159442Y00735740D01*
Y00739905D01*
X01157776Y00734906D02*
X01156110D01*
X01156943D01*
Y00739905D01*
X01157776Y00739072D01*
X01150278Y00739905D02*
X01153611D01*
Y00737406D01*
X01151944Y00738239D01*
X01151111D01*
X01150278Y00737406D01*
Y00735740D01*
X01151111Y00734906D01*
X01152777D01*
X01153611Y00735740D01*
X01159514Y01452501D02*
Y01457499D01*
X01157848Y01455833D01*
X01156182Y01457499D01*
Y01452501D01*
X01154516D02*
Y01457499D01*
X01152017D01*
X01151184Y01456666D01*
Y01455000D01*
X01152017Y01454167D01*
X01154516D01*
X01149518Y01456666D02*
X01148685Y01457499D01*
X01147019D01*
X01146186Y01456666D01*
Y01455833D01*
X01147019Y01455000D01*
X01146186Y01454167D01*
Y01453334D01*
X01147019Y01452501D01*
X01148685D01*
X01149518Y01453334D01*
Y01454167D01*
X01148685Y01455000D01*
X01149518Y01455833D01*
Y01456666D01*
X01148685Y01455000D02*
X01147019D01*
X00993747Y00569143D02*
Y00574141D01*
X00991248D01*
X00990415Y00573308D01*
Y00571642D01*
X00991248Y00570809D01*
X00993747D01*
X00992081D02*
X00990415Y00569143D01*
X00988749D02*
X00987083D01*
X00987916D01*
Y00574141D01*
X00988749Y00573308D01*
X00984584D02*
X00983750Y00574141D01*
X00982084D01*
X00981251Y00573308D01*
Y00572475D01*
X00982084Y00571642D01*
X00982917D01*
X00982084D01*
X00981251Y00570809D01*
Y00569976D01*
X00982084Y00569143D01*
X00983750D01*
X00984584Y00569976D01*
X00979585Y00574141D02*
X00976253D01*
Y00573308D01*
X00979585Y00569976D01*
Y00569143D01*
X01028747Y01120750D02*
Y01125749D01*
X01026248D01*
X01025415Y01124916D01*
Y01123250D01*
X01026248Y01122417D01*
X01028747D01*
X01027081D02*
X01025415Y01120750D01*
X01023749D02*
X01022083D01*
X01022916D01*
Y01125749D01*
X01023749Y01124916D01*
X01019583D02*
X01018750Y01125749D01*
X01017084D01*
X01016251Y01124916D01*
Y01124083D01*
X01017084Y01123250D01*
X01017917D01*
X01017084D01*
X01016251Y01122417D01*
Y01121583D01*
X01017084Y01120750D01*
X01018750D01*
X01019583Y01121583D01*
X01012086Y01120750D02*
Y01125749D01*
X01014585Y01123250D01*
X01011253D01*
X02742352Y01137501D02*
Y01142499D01*
X02740686Y01140833D01*
X02739019Y01142499D01*
Y01137501D01*
X02737354D02*
Y01142499D01*
X02734854D01*
X02734021Y01141666D01*
Y01140000D01*
X02734854Y01139167D01*
X02737354D01*
X02732355Y01142499D02*
X02729023D01*
Y01141666D01*
X02732355Y01138334D01*
Y01137501D01*
X02742820Y00087501D02*
Y00092499D01*
X02741154Y00090833D01*
X02739487Y00092499D01*
Y00087501D01*
X02737821D02*
Y00092499D01*
X02735322D01*
X02734489Y00091666D01*
Y00090000D01*
X02735322Y00089167D01*
X02737821D01*
X02729491Y00092499D02*
X02731157Y00091666D01*
X02732823Y00090000D01*
Y00088334D01*
X02731990Y00087501D01*
X02730324D01*
X02729491Y00088334D01*
Y00089167D01*
X02730324Y00090000D01*
X02732823D01*
X00056665Y00097501D02*
Y00102499D01*
X00054998Y00100833D01*
X00053332Y00102499D01*
Y00097501D01*
X00051666D02*
Y00102499D01*
X00049167D01*
X00048334Y00101666D01*
Y00100000D01*
X00049167Y00099167D01*
X00051666D01*
X00043335Y00102499D02*
X00046668D01*
Y00100000D01*
X00045002Y00100833D01*
X00044169D01*
X00043335Y00100000D01*
Y00098334D01*
X00044169Y00097501D01*
X00045835D01*
X00046668Y00098334D01*
X00091122Y01649369D02*
Y01654368D01*
X00089456Y01652701D01*
X00087790Y01654368D01*
Y01649369D01*
X00086124D02*
Y01654368D01*
X00083624D01*
X00082791Y01653535D01*
Y01651868D01*
X00083624Y01651035D01*
X00086124D01*
X00078626Y01649369D02*
Y01654368D01*
X00081125Y01651868D01*
X00077793D01*
X01692869Y01637501D02*
Y01642499D01*
X01691203Y01640833D01*
X01689537Y01642499D01*
Y01637501D01*
X01687871D02*
Y01642499D01*
X01685372D01*
X01684539Y01641666D01*
Y01640000D01*
X01685372Y01639167D01*
X01687871D01*
X01682872Y01641666D02*
X01682039Y01642499D01*
X01680373D01*
X01679540Y01641666D01*
Y01640833D01*
X01680373Y01640000D01*
X01681206D01*
X01680373D01*
X01679540Y01639167D01*
Y01638334D01*
X01680373Y01637501D01*
X01682039D01*
X01682872Y01638334D01*
X02166664Y01134863D02*
Y01139861D01*
X02164998Y01138195D01*
X02163332Y01139861D01*
Y01134863D01*
X02161666D02*
Y01139861D01*
X02159167D01*
X02158334Y01139028D01*
Y01137362D01*
X02159167Y01136529D01*
X02161666D01*
X02153336Y01134863D02*
X02156668D01*
X02153336Y01138195D01*
Y01139028D01*
X02154169Y01139861D01*
X02155835D01*
X02156668Y01139028D01*
X01192720Y00097175D02*
Y00102174D01*
X01191054Y00100507D01*
X01189388Y00102174D01*
Y00097175D01*
X01187722D02*
Y00102174D01*
X01185222D01*
X01184389Y00101341D01*
Y00099674D01*
X01185222Y00098841D01*
X01187722D01*
X01182723Y00097175D02*
X01181057D01*
X01181890D01*
Y00102174D01*
X01182723Y00101341D01*
X01162774Y00601404D02*
Y00597239D01*
X01161941Y00596406D01*
X01160275D01*
X01159442Y00597239D01*
Y00601404D01*
X01157776Y00596406D02*
X01156110D01*
X01156943D01*
Y00601404D01*
X01157776Y00600571D01*
X01150278Y00596406D02*
X01153611D01*
X01150278Y00599738D01*
Y00600571D01*
X01151111Y00601404D01*
X01152777D01*
X01153611Y00600571D01*
X01186076Y01221697D02*
Y01217531D01*
X01185243Y01216698D01*
X01183577D01*
X01182744Y01217531D01*
Y01221697D01*
X01181078Y01216698D02*
X01179412D01*
X01180245D01*
Y01221697D01*
X01181078Y01220864D01*
X01176913D02*
X01176080Y01221697D01*
X01174414D01*
X01173580Y01220864D01*
Y01217531D01*
X01174414Y01216698D01*
X01176080D01*
X01176913Y01217531D01*
Y01220864D01*
X01189936Y01092499D02*
Y01088334D01*
X01189103Y01087501D01*
X01187437D01*
X01186603Y01088334D01*
Y01092499D01*
X01184937D02*
X01181605D01*
Y01091666D01*
X01184937Y01088334D01*
Y01087501D01*
X02316791Y00639566D02*
Y00635401D01*
X02315958Y00634568D01*
X02314292D01*
X02313458Y00635401D01*
Y00639566D01*
X02309293Y00634568D02*
Y00639566D01*
X02311792Y00637067D01*
X02308460D01*
X01844027Y00591480D02*
Y00587315D01*
X01843194Y00586482D01*
X01841528D01*
X01840695Y00587315D01*
Y00591480D01*
X01839029Y00586482D02*
X01837363D01*
X01838196D01*
Y00591480D01*
X01839029Y00590647D01*
X02211248Y00432501D02*
Y00437499D01*
X02208749D01*
X02207916Y00436666D01*
Y00435000D01*
X02208749Y00434167D01*
X02211248D01*
X02209582D02*
X02207916Y00432501D01*
X02206250D02*
X02204583D01*
X02205417D01*
Y00437499D01*
X02206250Y00436666D01*
X02202084D02*
X02201251Y00437499D01*
X02199585D01*
X02198752Y00436666D01*
Y00435833D01*
X02199585Y00435000D01*
X02198752Y00434167D01*
Y00433334D01*
X02199585Y00432501D01*
X02201251D01*
X02202084Y00433334D01*
Y00434167D01*
X02201251Y00435000D01*
X02202084Y00435833D01*
Y00436666D01*
X02201251Y00435000D02*
X02199585D01*
X01775081Y00386834D02*
Y00391832D01*
X01772582D01*
X01771749Y00390999D01*
Y00389333D01*
X01772582Y00388500D01*
X01775081D01*
X01773415D02*
X01771749Y00386834D01*
X01770083D02*
X01768417D01*
X01769250D01*
Y00391832D01*
X01770083Y00390999D01*
X01765918Y00391832D02*
X01762585D01*
Y00390999D01*
X01765918Y00387667D01*
Y00386834D01*
G54D22*
X00995108Y-01689560D02*
Y-01638040D01*
X00693102Y-01687909D02*
X01352740D01*
Y-01532969D01*
X00301942Y-01687909D02*
Y-01532969D01*
X-00324168Y-01687909D02*
Y-01532969D01*
X-00324041Y-01687909D02*
X00076136D01*
X-00324041D02*
Y-01532969D01*
Y-01532969D02*
X01352740D01*
X-00324168Y-01687909D02*
X00693102D01*
X-00324168Y-01636262D02*
X01352232D01*
X-00324168Y-01584616D02*
X01352740D01*
X00623760D02*
Y-01532969D01*
X00837120Y-01584616D02*
Y-01532969D01*
G54D28*
X01048702Y-01655106D02*
X01058859D01*
X01053780D01*
Y-01670341D01*
X01074094Y-01655106D02*
X01063937D01*
Y-01670341D01*
X01074094D01*
X01063937Y-01662724D02*
X01069015D01*
X01079172Y-01655106D02*
X01089329Y-01670341D01*
Y-01655106D02*
X01079172Y-01670341D01*
X01094407D02*
Y-01660184D01*
X01099486Y-01655106D01*
X01104564Y-01660184D01*
Y-01670341D01*
Y-01662724D01*
X01094407D01*
X01119799Y-01657645D02*
X01117260Y-01655106D01*
X01112181D01*
X01109642Y-01657645D01*
Y-01660184D01*
X01112181Y-01662724D01*
X01117260D01*
X01119799Y-01665263D01*
Y-01667802D01*
X01117260Y-01670341D01*
X01112181D01*
X01109642Y-01667802D01*
X01140113Y-01655106D02*
X01145191D01*
X01142652D01*
Y-01670341D01*
X01140113D01*
X01145191D01*
X01152808D02*
Y-01655106D01*
X01162965Y-01670341D01*
Y-01655106D01*
X01178200Y-01657645D02*
X01175661Y-01655106D01*
X01170583D01*
X01168043Y-01657645D01*
Y-01660184D01*
X01170583Y-01662724D01*
X01175661D01*
X01178200Y-01665263D01*
Y-01667802D01*
X01175661Y-01670341D01*
X01170583D01*
X01168043Y-01667802D01*
X01183279Y-01655106D02*
X01193435D01*
X01188357D01*
Y-01670341D01*
X01198514D02*
Y-01655106D01*
X01206131D01*
X01208670Y-01657645D01*
Y-01662724D01*
X01206131Y-01665263D01*
X01198514D01*
X01203592D02*
X01208670Y-01670341D01*
X01213749Y-01655106D02*
Y-01667802D01*
X01216288Y-01670341D01*
X01221366D01*
X01223905Y-01667802D01*
Y-01655106D01*
X01228984Y-01670341D02*
Y-01655106D01*
X01234062Y-01660184D01*
X01239140Y-01655106D01*
Y-01670341D01*
X01254376Y-01655106D02*
X01244219D01*
Y-01670341D01*
X01254376D01*
X01244219Y-01662724D02*
X01249297D01*
X01259454Y-01670341D02*
Y-01655106D01*
X01269611Y-01670341D01*
Y-01655106D01*
X01274689D02*
X01284846D01*
X01279767D01*
Y-01670341D01*
X01300081Y-01657645D02*
X01297542Y-01655106D01*
X01292463D01*
X01289924Y-01657645D01*
Y-01660184D01*
X01292463Y-01662724D01*
X01297542D01*
X01300081Y-01665263D01*
Y-01667802D01*
X01297542Y-01670341D01*
X01292463D01*
X01289924Y-01667802D01*
X00727519Y-01670341D02*
X00732597D01*
X00730058D01*
Y-01655106D01*
X00727519Y-01657645D01*
X00740215D02*
X00742754Y-01655106D01*
X00747832D01*
X00750372Y-01657645D01*
Y-01667802D01*
X00747832Y-01670341D01*
X00742754D01*
X00740215Y-01667802D01*
Y-01657645D01*
X00755450Y-01660184D02*
X00757989D01*
Y-01662724D01*
X00755450D01*
Y-01660184D01*
Y-01667802D02*
X00757989D01*
Y-01670341D01*
X00755450D01*
Y-01667802D01*
X00778303Y-01670341D02*
X00768146D01*
X00778303Y-01660184D01*
Y-01657645D01*
X00775763Y-01655106D01*
X00770685D01*
X00768146Y-01657645D01*
X00783381Y-01655106D02*
X00793538D01*
Y-01657645D01*
X00783381Y-01667802D01*
Y-01670341D01*
X00798616Y-01660184D02*
X00801155D01*
Y-01662724D01*
X00798616D01*
Y-01660184D01*
Y-01667802D02*
X00801155D01*
Y-01670341D01*
X00798616D01*
Y-01667802D01*
X00811312Y-01657645D02*
X00813851Y-01655106D01*
X00818929D01*
X00821469Y-01657645D01*
Y-01660184D01*
X00818929Y-01662724D01*
X00816390D01*
X00818929D01*
X00821469Y-01665263D01*
Y-01667802D01*
X00818929Y-01670341D01*
X00813851D01*
X00811312Y-01667802D01*
X00826547Y-01655106D02*
X00836704D01*
Y-01657645D01*
X00826547Y-01667802D01*
Y-01670341D01*
X00857017D02*
Y-01660184D01*
X00862095Y-01655106D01*
X00867174Y-01660184D01*
Y-01670341D01*
Y-01662724D01*
X00857017D01*
X00872252Y-01670341D02*
Y-01655106D01*
X00877330Y-01660184D01*
X00882409Y-01655106D01*
Y-01670341D01*
X-00308039D02*
Y-01655106D01*
X-00300421D01*
X-00297882Y-01657645D01*
Y-01662724D01*
X-00300421Y-01665263D01*
X-00308039D01*
X-00292804Y-01655106D02*
Y-01670341D01*
X-00282647D01*
X-00269951Y-01655106D02*
X-00275030D01*
X-00277569Y-01657645D01*
Y-01667802D01*
X-00275030Y-01670341D01*
X-00269951D01*
X-00267412Y-01667802D01*
Y-01657645D01*
X-00269951Y-01655106D01*
X-00262334D02*
X-00252177D01*
X-00257255D01*
Y-01670341D01*
X-00231864D02*
Y-01655106D01*
X-00221707Y-01670341D01*
Y-01655106D01*
X-00216628Y-01670341D02*
Y-01660184D01*
X-00211550Y-01655106D01*
X-00206472Y-01660184D01*
Y-01670341D01*
Y-01662724D01*
X-00216628D01*
X-00201394Y-01670341D02*
Y-01655106D01*
X-00196315Y-01660184D01*
X-00191237Y-01655106D01*
Y-01670341D01*
X-00176002Y-01655106D02*
X-00186158D01*
Y-01670341D01*
X-00176002D01*
X-00186158Y-01662724D02*
X-00181080D01*
X-00155688Y-01665263D02*
X-00145532D01*
X-00155688Y-01660184D02*
X-00145532D01*
X-00308039Y-01602822D02*
Y-01618057D01*
X-00297882D01*
X-00292804D02*
Y-01607901D01*
X-00287726Y-01602822D01*
X-00282647Y-01607901D01*
Y-01618057D01*
Y-01610440D01*
X-00292804D01*
X-00277569Y-01602822D02*
Y-01605361D01*
X-00272491Y-01610440D01*
X-00267412Y-01605361D01*
Y-01602822D01*
X-00272491Y-01610440D02*
Y-01618057D01*
X-00252177Y-01602822D02*
X-00262334D01*
Y-01618057D01*
X-00252177D01*
X-00262334Y-01610440D02*
X-00257255D01*
X-00247099Y-01618057D02*
Y-01602822D01*
X-00239481D01*
X-00236942Y-01605361D01*
Y-01610440D01*
X-00239481Y-01612979D01*
X-00247099D01*
X-00242020D02*
X-00236942Y-01618057D01*
X-00216628D02*
Y-01602822D01*
X-00206472Y-01618057D01*
Y-01602822D01*
X-00201394Y-01618057D02*
Y-01607901D01*
X-00196315Y-01602822D01*
X-00191237Y-01607901D01*
Y-01618057D01*
Y-01610440D01*
X-00201394D01*
X-00186158Y-01618057D02*
Y-01602822D01*
X-00181080Y-01607901D01*
X-00176002Y-01602822D01*
Y-01618057D01*
X-00160767Y-01602822D02*
X-00170923D01*
Y-01618057D01*
X-00160767D01*
X-00170923Y-01610440D02*
X-00165845D01*
X-00140453Y-01612979D02*
X-00130296D01*
X-00140453Y-01607901D02*
X-00130296D01*
X00320992Y-01551304D02*
Y-01566539D01*
X00328610D01*
X00331149Y-01564000D01*
Y-01561461D01*
X00328610Y-01558922D01*
X00320992D01*
X00328610D01*
X00331149Y-01556383D01*
Y-01553844D01*
X00328610Y-01551304D01*
X00320992D01*
X00343845D02*
X00338766D01*
X00336227Y-01553844D01*
Y-01564000D01*
X00338766Y-01566539D01*
X00343845D01*
X00346384Y-01564000D01*
Y-01553844D01*
X00343845Y-01551304D01*
X00351462Y-01566539D02*
Y-01556383D01*
X00356540Y-01551304D01*
X00361619Y-01556383D01*
Y-01566539D01*
Y-01558922D01*
X00351462D01*
X00366697Y-01566539D02*
Y-01551304D01*
X00374315D01*
X00376854Y-01553844D01*
Y-01558922D01*
X00374315Y-01561461D01*
X00366697D01*
X00371776D02*
X00376854Y-01566539D01*
X00381932Y-01551304D02*
Y-01566539D01*
X00389550D01*
X00392089Y-01564000D01*
Y-01553844D01*
X00389550Y-01551304D01*
X00381932D01*
X00414942Y-01566539D02*
Y-01551304D01*
X00420020D02*
Y-01566539D01*
X00412402Y-01556383D02*
X00420020D01*
X00422559D01*
X00412402Y-01561461D02*
X00422559D01*
X00427637Y-01556383D02*
X00430177D01*
Y-01558922D01*
X00427637D01*
Y-01556383D01*
Y-01564000D02*
X00430177D01*
Y-01566539D01*
X00427637D01*
Y-01564000D01*
X00459549Y-01551304D02*
X00469706D01*
X00464627D01*
Y-01566539D01*
X00474784Y-01551304D02*
X00479862D01*
X00477323D01*
Y-01566539D01*
X00474784D01*
X00479862D01*
X00487480Y-01551304D02*
Y-01566539D01*
X00495098D01*
X00497637Y-01564000D01*
Y-01553844D01*
X00495098Y-01551304D01*
X00487480D01*
X00502715Y-01566539D02*
Y-01556383D01*
X00507793Y-01551304D01*
X00512872Y-01556383D01*
Y-01566539D01*
Y-01558922D01*
X00502715D01*
X00517950D02*
X00528107D01*
X00533185Y-01553844D02*
X00535724Y-01551304D01*
X00540803D01*
X00543342Y-01553844D01*
Y-01564000D01*
X00540803Y-01566539D01*
X00535724D01*
X00533185Y-01564000D01*
Y-01553844D01*
X00548420Y-01566539D02*
X00553499D01*
X00550960D01*
Y-01551304D01*
X00548420Y-01553844D01*
X00561116D02*
X00563655Y-01551304D01*
X00568734D01*
X00571273Y-01553844D01*
Y-01564000D01*
X00568734Y-01566539D01*
X00563655D01*
X00561116Y-01564000D01*
Y-01553844D01*
X00576351Y-01564000D02*
X00578890Y-01566539D01*
X00583969D01*
X00586508Y-01564000D01*
Y-01553844D01*
X00583969Y-01551304D01*
X00578890D01*
X00576351Y-01553844D01*
Y-01556383D01*
X00578890Y-01558922D01*
X00586508D01*
X00591586Y-01553844D02*
X00594126Y-01551304D01*
X00599204D01*
X00601743Y-01553844D01*
Y-01556383D01*
X00599204Y-01558922D01*
X00596665D01*
X00599204D01*
X00601743Y-01561461D01*
Y-01564000D01*
X00599204Y-01566539D01*
X00594126D01*
X00591586Y-01564000D01*
X00606821Y-01553844D02*
X00609361Y-01551304D01*
X00614439D01*
X00616978Y-01553844D01*
Y-01556383D01*
X00614439Y-01558922D01*
X00616978Y-01561461D01*
Y-01564000D01*
X00614439Y-01566539D01*
X00609361D01*
X00606821Y-01564000D01*
Y-01561461D01*
X00609361Y-01558922D01*
X00606821Y-01556383D01*
Y-01553844D01*
X00609361Y-01558922D02*
X00614439D01*
X00637291Y-01551304D02*
Y-01566539D01*
X00644909D01*
X00647448Y-01564000D01*
Y-01553844D01*
X00644909Y-01551304D01*
X00637291D01*
X00662683Y-01553844D02*
X00660144Y-01551304D01*
X00655066D01*
X00652527Y-01553844D01*
Y-01564000D01*
X00655066Y-01566539D01*
X00660144D01*
X00662683Y-01564000D01*
X00667762Y-01558922D02*
X00677918D01*
X00682997Y-01551304D02*
Y-01566539D01*
X00690614D01*
X00693154Y-01564000D01*
Y-01553844D01*
X00690614Y-01551304D01*
X00682997D01*
X00708389Y-01553844D02*
X00705849Y-01551304D01*
X00700771D01*
X00698232Y-01553844D01*
Y-01564000D01*
X00700771Y-01566539D01*
X00705849D01*
X00708389Y-01564000D01*
X00758250Y-01551304D02*
X00748093D01*
Y-01566539D01*
X00758250D01*
X00748093Y-01558922D02*
X00753171D01*
X00763328Y-01566539D02*
X00768406D01*
X00765867D01*
Y-01551304D01*
X00763328Y-01553844D01*
X-00308039Y-01566539D02*
Y-01556383D01*
X-00302961Y-01551304D01*
X-00297882Y-01556383D01*
Y-01566539D01*
Y-01558922D01*
X-00308039D01*
X-00292804Y-01551304D02*
Y-01566539D01*
X-00282647D01*
X-00277569Y-01551304D02*
Y-01566539D01*
X-00267412D01*
X-00247099D02*
Y-01556383D01*
X-00242020Y-01551304D01*
X-00236942Y-01556383D01*
Y-01566539D01*
Y-01558922D01*
X-00247099D01*
X-00231864Y-01566539D02*
Y-01551304D01*
X-00224246D01*
X-00221707Y-01553844D01*
Y-01558922D01*
X-00224246Y-01561461D01*
X-00231864D01*
X-00226785D02*
X-00221707Y-01566539D01*
X-00216628Y-01551304D02*
X-00206472D01*
X-00211550D01*
Y-01566539D01*
X-00201394Y-01551304D02*
Y-01566539D01*
X-00196315Y-01561461D01*
X-00191237Y-01566539D01*
Y-01551304D01*
X-00178541D02*
X-00183619D01*
X-00186158Y-01553844D01*
Y-01564000D01*
X-00183619Y-01566539D01*
X-00178541D01*
X-00176002Y-01564000D01*
Y-01553844D01*
X-00178541Y-01551304D01*
X-00170923Y-01566539D02*
Y-01551304D01*
X-00163306D01*
X-00160767Y-01553844D01*
Y-01558922D01*
X-00163306Y-01561461D01*
X-00170923D01*
X-00165845D02*
X-00160767Y-01566539D01*
X-00155688Y-01551304D02*
Y-01566539D01*
Y-01561461D01*
X-00145532Y-01551304D01*
X-00153149Y-01558922D01*
X-00145532Y-01566539D01*
X-00125218Y-01551304D02*
Y-01561461D01*
X-00120140Y-01566539D01*
X-00115061Y-01561461D01*
Y-01551304D01*
X-00109983D02*
X-00104905D01*
X-00107444D01*
Y-01566539D01*
X-00109983D01*
X-00104905D01*
X-00087130Y-01551304D02*
X-00097287D01*
Y-01566539D01*
X-00087130D01*
X-00097287Y-01558922D02*
X-00092209D01*
X-00082052Y-01551304D02*
Y-01566539D01*
X-00076974Y-01561461D01*
X-00071895Y-01566539D01*
Y-01551304D01*
X-00056660D02*
X-00066817D01*
Y-01566539D01*
X-00056660D01*
X-00066817Y-01558922D02*
X-00061739D01*
X-00051582Y-01551304D02*
Y-01566539D01*
X-00043964D01*
X-00041425Y-01564000D01*
Y-01553844D01*
X-00043964Y-01551304D01*
X-00051582D01*
X-00010955D02*
X-00021112D01*
Y-01558922D01*
X-00016033D01*
X-00021112D01*
Y-01566539D01*
X-00005877D02*
Y-01551304D01*
X00001741D01*
X00004280Y-01553844D01*
Y-01558922D01*
X00001741Y-01561461D01*
X-00005877D01*
X-00000798D02*
X00004280Y-01566539D01*
X00016976Y-01551304D02*
X00011897D01*
X00009358Y-01553844D01*
Y-01564000D01*
X00011897Y-01566539D01*
X00016976D01*
X00019515Y-01564000D01*
Y-01553844D01*
X00016976Y-01551304D01*
X00024593Y-01566539D02*
Y-01551304D01*
X00029672Y-01556383D01*
X00034750Y-01551304D01*
Y-01566539D01*
X00055064Y-01551304D02*
X00065220D01*
X00060142D01*
Y-01566539D01*
X00077916Y-01551304D02*
X00072838D01*
X00070299Y-01553844D01*
Y-01564000D01*
X00072838Y-01566539D01*
X00077916D01*
X00080455Y-01564000D01*
Y-01553844D01*
X00077916Y-01551304D01*
X00085534Y-01566539D02*
Y-01551304D01*
X00093151D01*
X00095690Y-01553844D01*
Y-01558922D01*
X00093151Y-01561461D01*
X00085534D01*
X00126161Y-01553844D02*
X00123621Y-01551304D01*
X00118543D01*
X00116004Y-01553844D01*
Y-01556383D01*
X00118543Y-01558922D01*
X00123621D01*
X00126161Y-01561461D01*
Y-01564000D01*
X00123621Y-01566539D01*
X00118543D01*
X00116004Y-01564000D01*
X00131239Y-01551304D02*
X00136317D01*
X00133778D01*
Y-01566539D01*
X00131239D01*
X00136317D01*
X00143935Y-01551304D02*
Y-01566539D01*
X00151552D01*
X00154092Y-01564000D01*
Y-01553844D01*
X00151552Y-01551304D01*
X00143935D01*
X00169327D02*
X00159170D01*
Y-01566539D01*
X00169327D01*
X00159170Y-01558922D02*
X00164248D01*
X00331657Y-01657645D02*
X00329118Y-01655106D01*
X00324039D01*
X00321500Y-01657645D01*
Y-01667802D01*
X00324039Y-01670341D01*
X00329118D01*
X00331657Y-01667802D01*
Y-01662724D01*
X00326578D01*
X00346892Y-01655106D02*
X00336735D01*
Y-01670341D01*
X00346892D01*
X00336735Y-01662724D02*
X00341813D01*
X00351970Y-01670341D02*
Y-01655106D01*
X00362127Y-01670341D01*
Y-01655106D01*
X00377362D02*
X00367205D01*
Y-01670341D01*
X00377362D01*
X00367205Y-01662724D02*
X00372284D01*
X00382440Y-01670341D02*
Y-01655106D01*
X00390058D01*
X00392597Y-01657645D01*
Y-01662724D01*
X00390058Y-01665263D01*
X00382440D01*
X00387519D02*
X00392597Y-01670341D01*
X00397675D02*
Y-01660184D01*
X00402754Y-01655106D01*
X00407832Y-01660184D01*
Y-01670341D01*
Y-01662724D01*
X00397675D01*
X00412910Y-01655106D02*
X00423067D01*
X00417989D01*
Y-01670341D01*
X00438302Y-01655106D02*
X00428145D01*
Y-01670341D01*
X00438302D01*
X00428145Y-01662724D02*
X00433224D01*
X00443381Y-01655106D02*
Y-01670341D01*
X00450998D01*
X00453537Y-01667802D01*
Y-01657645D01*
X00450998Y-01655106D01*
X00443381D01*
X00519556Y-01660184D02*
X00522095D01*
Y-01662724D01*
X00519556D01*
Y-01660184D01*
Y-01667802D02*
X00522095D01*
Y-01670341D01*
X00519556D01*
Y-01667802D01*
X00542353Y-01670341D02*
X00547431D01*
X00544892D01*
Y-01655106D01*
X00542353Y-01657645D01*
X00565206Y-01670341D02*
X00555049D01*
X00565206Y-01660184D01*
Y-01657645D01*
X00562666Y-01655106D01*
X00557588D01*
X00555049Y-01657645D01*
X00570284Y-01670341D02*
X00580441Y-01660184D01*
X00585519Y-01657645D02*
X00588058Y-01655106D01*
X00593137D01*
X00595676Y-01657645D01*
Y-01660184D01*
X00593137Y-01662724D01*
X00590597D01*
X00593137D01*
X00595676Y-01665263D01*
Y-01667802D01*
X00593137Y-01670341D01*
X00588058D01*
X00585519Y-01667802D01*
X00600754Y-01670341D02*
X00610911Y-01660184D01*
X00626146Y-01670341D02*
X00615989D01*
X00626146Y-01660184D01*
Y-01657645D01*
X00623607Y-01655106D01*
X00618528D01*
X00615989Y-01657645D01*
X00631224D02*
X00633764Y-01655106D01*
X00638842D01*
X00641381Y-01657645D01*
Y-01667802D01*
X00638842Y-01670341D01*
X00633764D01*
X00631224Y-01667802D01*
Y-01657645D01*
X00656616Y-01670341D02*
X00646459D01*
X00656616Y-01660184D01*
Y-01657645D01*
X00654077Y-01655106D01*
X00648998D01*
X00646459Y-01657645D01*
X00661694D02*
X00664234Y-01655106D01*
X00669312D01*
X00671851Y-01657645D01*
Y-01660184D01*
X00669312Y-01662724D01*
X00666773D01*
X00669312D01*
X00671851Y-01665263D01*
Y-01667802D01*
X00669312Y-01670341D01*
X00664234D01*
X00661694Y-01667802D01*
X-00103442Y-01655106D02*
X-00093285D01*
X-00098364D01*
Y-01670341D01*
X-00088207Y-01655106D02*
X-00083129D01*
X-00085668D01*
Y-01670341D01*
X-00088207D01*
X-00083129D01*
X-00075511Y-01655106D02*
Y-01670341D01*
X-00067894D01*
X-00065354Y-01667802D01*
Y-01657645D01*
X-00067894Y-01655106D01*
X-00075511D01*
X-00060276Y-01670341D02*
Y-01660184D01*
X-00055198Y-01655106D01*
X-00050119Y-01660184D01*
Y-01670341D01*
Y-01662724D01*
X-00060276D01*
X-00045041D02*
X-00034884D01*
X-00029806Y-01657645D02*
X-00027267Y-01655106D01*
X-00022188D01*
X-00019649Y-01657645D01*
Y-01667802D01*
X-00022188Y-01670341D01*
X-00027267D01*
X-00029806Y-01667802D01*
Y-01657645D01*
X-00014571Y-01670341D02*
X-00009492D01*
X-00012032D01*
Y-01655106D01*
X-00014571Y-01657645D01*
X-00001875D02*
X00000664Y-01655106D01*
X00005743D01*
X00008282Y-01657645D01*
Y-01667802D01*
X00005743Y-01670341D01*
X00000664D01*
X-00001875Y-01667802D01*
Y-01657645D01*
X00013360Y-01667802D02*
X00015899Y-01670341D01*
X00020978D01*
X00023517Y-01667802D01*
Y-01657645D01*
X00020978Y-01655106D01*
X00015899D01*
X00013360Y-01657645D01*
Y-01660184D01*
X00015899Y-01662724D01*
X00023517D01*
X00028595Y-01657645D02*
X00031135Y-01655106D01*
X00036213D01*
X00038752Y-01657645D01*
Y-01660184D01*
X00036213Y-01662724D01*
X00033674D01*
X00036213D01*
X00038752Y-01665263D01*
Y-01667802D01*
X00036213Y-01670341D01*
X00031135D01*
X00028595Y-01667802D01*
X00043830Y-01657645D02*
X00046370Y-01655106D01*
X00051448D01*
X00053987Y-01657645D01*
Y-01660184D01*
X00051448Y-01662724D01*
X00053987Y-01665263D01*
Y-01667802D01*
X00051448Y-01670341D01*
X00046370D01*
X00043830Y-01667802D01*
Y-01665263D01*
X00046370Y-01662724D01*
X00043830Y-01660184D01*
Y-01657645D01*
X00046370Y-01662724D02*
X00051448D01*
X00074300Y-01655106D02*
Y-01670341D01*
X00081918D01*
X00084457Y-01667802D01*
Y-01657645D01*
X00081918Y-01655106D01*
X00074300D01*
X00099692Y-01657645D02*
X00097153Y-01655106D01*
X00092075D01*
X00089536Y-01657645D01*
Y-01667802D01*
X00092075Y-01670341D01*
X00097153D01*
X00099692Y-01667802D01*
X00104771Y-01662724D02*
X00114927D01*
X00120006Y-01655106D02*
Y-01670341D01*
X00127623D01*
X00130162Y-01667802D01*
Y-01657645D01*
X00127623Y-01655106D01*
X00120006D01*
X00145398Y-01657645D02*
X00142858Y-01655106D01*
X00137780D01*
X00135241Y-01657645D01*
Y-01667802D01*
X00137780Y-01670341D01*
X00142858D01*
X00145398Y-01667802D01*
X00160633Y-01655106D02*
X00150476D01*
Y-01670341D01*
X00160633D01*
X00150476Y-01662724D02*
X00155554D01*
X00165711Y-01670341D02*
X00170789D01*
X00168250D01*
Y-01655106D01*
X00165711Y-01657645D01*
X00178407Y-01670341D02*
Y-01667802D01*
X00180946D01*
Y-01670341D01*
X00178407D01*
X00201259Y-01657645D02*
X00198720Y-01655106D01*
X00193642D01*
X00191103Y-01657645D01*
Y-01667802D01*
X00193642Y-01670341D01*
X00198720D01*
X00201259Y-01667802D01*
Y-01662724D01*
X00196181D01*
X00206338Y-01655106D02*
Y-01670341D01*
X00213955D01*
X00216495Y-01667802D01*
Y-01665263D01*
X00213955Y-01662724D01*
X00206338D01*
X00213955D01*
X00216495Y-01660184D01*
Y-01657645D01*
X00213955Y-01655106D01*
X00206338D01*
X00229190D02*
X00224112D01*
X00221573Y-01657645D01*
Y-01667802D01*
X00224112Y-01670341D01*
X00229190D01*
X00231730Y-01667802D01*
Y-01657645D01*
X00229190Y-01655106D01*
X00674052Y-01566539D02*
Y-01551304D01*
X00681670D01*
X00684209Y-01553844D01*
Y-01558922D01*
X00681670Y-01561461D01*
X00674052D01*
X00679130D02*
X00684209Y-01566539D01*
X00699444Y-01551304D02*
X00689287D01*
Y-01566539D01*
X00699444D01*
X00689287Y-01558922D02*
X00694365D01*
X00704522Y-01551304D02*
Y-01561461D01*
X00709601Y-01566539D01*
X00714679Y-01561461D01*
Y-01551304D01*
X00719757Y-01556383D02*
X00722296D01*
Y-01558922D01*
X00719757D01*
Y-01556383D01*
Y-01564000D02*
X00722296D01*
Y-01566539D01*
X00719757D01*
Y-01564000D01*
X00897061Y-01553844D02*
X00894522Y-01551304D01*
X00889443D01*
X00886904Y-01553844D01*
Y-01556383D01*
X00889443Y-01558922D01*
X00894522D01*
X00897061Y-01561461D01*
Y-01564000D01*
X00894522Y-01566539D01*
X00889443D01*
X00886904Y-01564000D01*
X00902139Y-01551304D02*
Y-01561461D01*
X00907217Y-01566539D01*
X00912296Y-01561461D01*
Y-01551304D01*
X00917374Y-01566539D02*
Y-01551304D01*
X00927531Y-01566539D01*
Y-01551304D01*
X00947844Y-01566539D02*
Y-01551304D01*
X00955462D01*
X00958001Y-01553844D01*
Y-01558922D01*
X00955462Y-01561461D01*
X00947844D01*
X00952923D02*
X00958001Y-01566539D01*
X00973236Y-01551304D02*
X00963079D01*
Y-01566539D01*
X00973236D01*
X00963079Y-01558922D02*
X00968158D01*
X00978315Y-01551304D02*
Y-01561461D01*
X00983393Y-01566539D01*
X00988471Y-01561461D01*
Y-01551304D01*
X00993549Y-01556383D02*
X00996089D01*
Y-01558922D01*
X00993549D01*
Y-01556383D01*
Y-01564000D02*
X00996089D01*
Y-01566539D01*
X00993549D01*
Y-01564000D01*
X01015428Y-01566539D02*
Y-01551304D01*
X01025585Y-01566539D01*
Y-01551304D01*
X01033202Y-01566539D02*
X01038281D01*
X01040820Y-01564000D01*
Y-01558922D01*
X01038281Y-01556383D01*
X01033202D01*
X01030663Y-01558922D01*
Y-01564000D01*
X01033202Y-01566539D01*
X01048437Y-01553844D02*
Y-01556383D01*
X01045898D01*
X01050976D01*
X01048437D01*
Y-01564000D01*
X01050976Y-01566539D01*
X01073829D02*
X01078907D01*
X01076368D01*
Y-01556383D01*
X01073829D01*
X01086525Y-01566539D02*
Y-01556383D01*
X01094143D01*
X01096682Y-01558922D01*
Y-01566539D01*
X01116995Y-01556383D02*
X01122074Y-01566539D01*
X01127152Y-01556383D01*
X01139848Y-01566539D02*
X01134769D01*
X01132230Y-01564000D01*
Y-01558922D01*
X01134769Y-01556383D01*
X01139848D01*
X01142387Y-01558922D01*
Y-01561461D01*
X01132230D01*
X01147465Y-01556383D02*
Y-01566539D01*
Y-01561461D01*
X01150005Y-01558922D01*
X01152544Y-01556383D01*
X01155083D01*
X01162700Y-01566539D02*
X01170318D01*
X01172857Y-01564000D01*
X01170318Y-01561461D01*
X01165240D01*
X01162700Y-01558922D01*
X01165240Y-01556383D01*
X01172857D01*
X01177935Y-01566539D02*
X01183014D01*
X01180475D01*
Y-01556383D01*
X01177935D01*
X01193170Y-01566539D02*
X01198249D01*
X01200788Y-01564000D01*
Y-01558922D01*
X01198249Y-01556383D01*
X01193170D01*
X01190631Y-01558922D01*
Y-01564000D01*
X01193170Y-01566539D01*
X01205866D02*
Y-01556383D01*
X01213484D01*
X01216023Y-01558922D01*
Y-01566539D01*
X01246493Y-01556383D02*
X01238876D01*
X01236337Y-01558922D01*
Y-01564000D01*
X01238876Y-01566539D01*
X01246493D01*
X01254111D02*
X01259189D01*
X01261728Y-01564000D01*
Y-01558922D01*
X01259189Y-01556383D01*
X01254111D01*
X01251572Y-01558922D01*
Y-01564000D01*
X01254111Y-01566539D01*
X01266807D02*
Y-01556383D01*
X01274424D01*
X01276963Y-01558922D01*
Y-01566539D01*
X01284581Y-01553844D02*
Y-01556383D01*
X01282042D01*
X01287120D01*
X01284581D01*
Y-01564000D01*
X01287120Y-01566539D01*
X01294738Y-01556383D02*
Y-01566539D01*
Y-01561461D01*
X01297277Y-01558922D01*
X01299816Y-01556383D01*
X01302355D01*
X01312512Y-01566539D02*
X01317590D01*
X01320129Y-01564000D01*
Y-01558922D01*
X01317590Y-01556383D01*
X01312512D01*
X01309973Y-01558922D01*
Y-01564000D01*
X01312512Y-01566539D01*
X01325208D02*
X01330286D01*
X01327747D01*
Y-01551304D01*
X01325208D01*
M02*
