G04*
G04 #@! TF.GenerationSoftware,Altium Limited,Altium Designer,23.1.1 (15)*
G04*
G04 Layer_Color=128*
%FSAX44Y44*%
%MOMM*%
G71*
G04*
G04 #@! TF.SameCoordinates,A3571568-9A21-437D-865F-2304E57EA7B7*
G04*
G04*
G04 #@! TF.FilePolarity,Positive*
G04*
G01*
G75*
%ADD22C,0.2540*%
%ADD28C,0.2032*%
%ADD142C,0.0508*%
G54D22*
X00995108Y-01689560D02*
Y-01638040D01*
X00693102Y-01687909D02*
X01352740D01*
Y-01532969D01*
X00301942Y-01687909D02*
Y-01532969D01*
X-00324168Y-01687909D02*
Y-01532969D01*
X-00324041Y-01687909D02*
X00076136D01*
X-00324041D02*
Y-01532969D01*
Y-01532969D02*
X01352740D01*
X-00324168Y-01687909D02*
X00693102D01*
X-00324168Y-01636262D02*
X01352232D01*
X-00324168Y-01584616D02*
X01352740D01*
X00623760D02*
Y-01532969D01*
X00837120Y-01584616D02*
Y-01532969D01*
G54D28*
X01048702Y-01655106D02*
X01058859D01*
X01053780D01*
Y-01670341D01*
X01074094Y-01655106D02*
X01063937D01*
Y-01670341D01*
X01074094D01*
X01063937Y-01662724D02*
X01069015D01*
X01079172Y-01655106D02*
X01089329Y-01670341D01*
Y-01655106D02*
X01079172Y-01670341D01*
X01094407D02*
Y-01660184D01*
X01099486Y-01655106D01*
X01104564Y-01660184D01*
Y-01670341D01*
Y-01662724D01*
X01094407D01*
X01119799Y-01657645D02*
X01117260Y-01655106D01*
X01112181D01*
X01109642Y-01657645D01*
Y-01660184D01*
X01112181Y-01662724D01*
X01117260D01*
X01119799Y-01665263D01*
Y-01667802D01*
X01117260Y-01670341D01*
X01112181D01*
X01109642Y-01667802D01*
X01140113Y-01655106D02*
X01145191D01*
X01142652D01*
Y-01670341D01*
X01140113D01*
X01145191D01*
X01152808D02*
Y-01655106D01*
X01162965Y-01670341D01*
Y-01655106D01*
X01178200Y-01657645D02*
X01175661Y-01655106D01*
X01170583D01*
X01168043Y-01657645D01*
Y-01660184D01*
X01170583Y-01662724D01*
X01175661D01*
X01178200Y-01665263D01*
Y-01667802D01*
X01175661Y-01670341D01*
X01170583D01*
X01168043Y-01667802D01*
X01183279Y-01655106D02*
X01193435D01*
X01188357D01*
Y-01670341D01*
X01198514D02*
Y-01655106D01*
X01206131D01*
X01208670Y-01657645D01*
Y-01662724D01*
X01206131Y-01665263D01*
X01198514D01*
X01203592D02*
X01208670Y-01670341D01*
X01213749Y-01655106D02*
Y-01667802D01*
X01216288Y-01670341D01*
X01221366D01*
X01223905Y-01667802D01*
Y-01655106D01*
X01228984Y-01670341D02*
Y-01655106D01*
X01234062Y-01660184D01*
X01239140Y-01655106D01*
Y-01670341D01*
X01254376Y-01655106D02*
X01244219D01*
Y-01670341D01*
X01254376D01*
X01244219Y-01662724D02*
X01249297D01*
X01259454Y-01670341D02*
Y-01655106D01*
X01269611Y-01670341D01*
Y-01655106D01*
X01274689D02*
X01284846D01*
X01279767D01*
Y-01670341D01*
X01300081Y-01657645D02*
X01297542Y-01655106D01*
X01292463D01*
X01289924Y-01657645D01*
Y-01660184D01*
X01292463Y-01662724D01*
X01297542D01*
X01300081Y-01665263D01*
Y-01667802D01*
X01297542Y-01670341D01*
X01292463D01*
X01289924Y-01667802D01*
X00727519Y-01670341D02*
X00732597D01*
X00730058D01*
Y-01655106D01*
X00727519Y-01657645D01*
X00740215D02*
X00742754Y-01655106D01*
X00747832D01*
X00750372Y-01657645D01*
Y-01667802D01*
X00747832Y-01670341D01*
X00742754D01*
X00740215Y-01667802D01*
Y-01657645D01*
X00755450Y-01660184D02*
X00757989D01*
Y-01662724D01*
X00755450D01*
Y-01660184D01*
Y-01667802D02*
X00757989D01*
Y-01670341D01*
X00755450D01*
Y-01667802D01*
X00778303Y-01670341D02*
X00768146D01*
X00778303Y-01660184D01*
Y-01657645D01*
X00775763Y-01655106D01*
X00770685D01*
X00768146Y-01657645D01*
X00783381Y-01655106D02*
X00793538D01*
Y-01657645D01*
X00783381Y-01667802D01*
Y-01670341D01*
X00798616Y-01660184D02*
X00801155D01*
Y-01662724D01*
X00798616D01*
Y-01660184D01*
Y-01667802D02*
X00801155D01*
Y-01670341D01*
X00798616D01*
Y-01667802D01*
X00811312Y-01657645D02*
X00813851Y-01655106D01*
X00818929D01*
X00821469Y-01657645D01*
Y-01660184D01*
X00818929Y-01662724D01*
X00816390D01*
X00818929D01*
X00821469Y-01665263D01*
Y-01667802D01*
X00818929Y-01670341D01*
X00813851D01*
X00811312Y-01667802D01*
X00826547Y-01657645D02*
X00829086Y-01655106D01*
X00834165D01*
X00836704Y-01657645D01*
Y-01660184D01*
X00834165Y-01662724D01*
X00836704Y-01665263D01*
Y-01667802D01*
X00834165Y-01670341D01*
X00829086D01*
X00826547Y-01667802D01*
Y-01665263D01*
X00829086Y-01662724D01*
X00826547Y-01660184D01*
Y-01657645D01*
X00829086Y-01662724D02*
X00834165D01*
X00857017Y-01670341D02*
Y-01660184D01*
X00862095Y-01655106D01*
X00867174Y-01660184D01*
Y-01670341D01*
Y-01662724D01*
X00857017D01*
X00872252Y-01670341D02*
Y-01655106D01*
X00877330Y-01660184D01*
X00882409Y-01655106D01*
Y-01670341D01*
X-00308039D02*
Y-01655106D01*
X-00300421D01*
X-00297882Y-01657645D01*
Y-01662724D01*
X-00300421Y-01665263D01*
X-00308039D01*
X-00292804Y-01655106D02*
Y-01670341D01*
X-00282647D01*
X-00269951Y-01655106D02*
X-00275030D01*
X-00277569Y-01657645D01*
Y-01667802D01*
X-00275030Y-01670341D01*
X-00269951D01*
X-00267412Y-01667802D01*
Y-01657645D01*
X-00269951Y-01655106D01*
X-00262334D02*
X-00252177D01*
X-00257255D01*
Y-01670341D01*
X-00231864D02*
Y-01655106D01*
X-00221707Y-01670341D01*
Y-01655106D01*
X-00216628Y-01670341D02*
Y-01660184D01*
X-00211550Y-01655106D01*
X-00206472Y-01660184D01*
Y-01670341D01*
Y-01662724D01*
X-00216628D01*
X-00201394Y-01670341D02*
Y-01655106D01*
X-00196315Y-01660184D01*
X-00191237Y-01655106D01*
Y-01670341D01*
X-00176002Y-01655106D02*
X-00186158D01*
Y-01670341D01*
X-00176002D01*
X-00186158Y-01662724D02*
X-00181080D01*
X-00155688Y-01665263D02*
X-00145532D01*
X-00155688Y-01660184D02*
X-00145532D01*
X-00308039Y-01602822D02*
Y-01618057D01*
X-00297882D01*
X-00292804D02*
Y-01607901D01*
X-00287726Y-01602822D01*
X-00282647Y-01607901D01*
Y-01618057D01*
Y-01610440D01*
X-00292804D01*
X-00277569Y-01602822D02*
Y-01605361D01*
X-00272491Y-01610440D01*
X-00267412Y-01605361D01*
Y-01602822D01*
X-00272491Y-01610440D02*
Y-01618057D01*
X-00252177Y-01602822D02*
X-00262334D01*
Y-01618057D01*
X-00252177D01*
X-00262334Y-01610440D02*
X-00257255D01*
X-00247099Y-01618057D02*
Y-01602822D01*
X-00239481D01*
X-00236942Y-01605361D01*
Y-01610440D01*
X-00239481Y-01612979D01*
X-00247099D01*
X-00242020D02*
X-00236942Y-01618057D01*
X-00216628D02*
Y-01602822D01*
X-00206472Y-01618057D01*
Y-01602822D01*
X-00201394Y-01618057D02*
Y-01607901D01*
X-00196315Y-01602822D01*
X-00191237Y-01607901D01*
Y-01618057D01*
Y-01610440D01*
X-00201394D01*
X-00186158Y-01618057D02*
Y-01602822D01*
X-00181080Y-01607901D01*
X-00176002Y-01602822D01*
Y-01618057D01*
X-00160767Y-01602822D02*
X-00170923D01*
Y-01618057D01*
X-00160767D01*
X-00170923Y-01610440D02*
X-00165845D01*
X-00140453Y-01612979D02*
X-00130296D01*
X-00140453Y-01607901D02*
X-00130296D01*
X00320992Y-01551304D02*
Y-01566539D01*
X00328610D01*
X00331149Y-01564000D01*
Y-01561461D01*
X00328610Y-01558922D01*
X00320992D01*
X00328610D01*
X00331149Y-01556383D01*
Y-01553844D01*
X00328610Y-01551304D01*
X00320992D01*
X00343845D02*
X00338766D01*
X00336227Y-01553844D01*
Y-01564000D01*
X00338766Y-01566539D01*
X00343845D01*
X00346384Y-01564000D01*
Y-01553844D01*
X00343845Y-01551304D01*
X00351462Y-01566539D02*
Y-01556383D01*
X00356540Y-01551304D01*
X00361619Y-01556383D01*
Y-01566539D01*
Y-01558922D01*
X00351462D01*
X00366697Y-01566539D02*
Y-01551304D01*
X00374315D01*
X00376854Y-01553844D01*
Y-01558922D01*
X00374315Y-01561461D01*
X00366697D01*
X00371776D02*
X00376854Y-01566539D01*
X00381932Y-01551304D02*
Y-01566539D01*
X00389550D01*
X00392089Y-01564000D01*
Y-01553844D01*
X00389550Y-01551304D01*
X00381932D01*
X00414942Y-01566539D02*
Y-01551304D01*
X00420020D02*
Y-01566539D01*
X00412402Y-01556383D02*
X00420020D01*
X00422559D01*
X00412402Y-01561461D02*
X00422559D01*
X00427637Y-01556383D02*
X00430177D01*
Y-01558922D01*
X00427637D01*
Y-01556383D01*
Y-01564000D02*
X00430177D01*
Y-01566539D01*
X00427637D01*
Y-01564000D01*
X00459549Y-01551304D02*
X00469706D01*
X00464627D01*
Y-01566539D01*
X00474784Y-01551304D02*
X00479862D01*
X00477323D01*
Y-01566539D01*
X00474784D01*
X00479862D01*
X00487480Y-01551304D02*
Y-01566539D01*
X00495098D01*
X00497637Y-01564000D01*
Y-01553844D01*
X00495098Y-01551304D01*
X00487480D01*
X00502715Y-01566539D02*
Y-01556383D01*
X00507793Y-01551304D01*
X00512872Y-01556383D01*
Y-01566539D01*
Y-01558922D01*
X00502715D01*
X00517950D02*
X00528107D01*
X00533185Y-01553844D02*
X00535724Y-01551304D01*
X00540803D01*
X00543342Y-01553844D01*
Y-01564000D01*
X00540803Y-01566539D01*
X00535724D01*
X00533185Y-01564000D01*
Y-01553844D01*
X00548420Y-01566539D02*
X00553499D01*
X00550960D01*
Y-01551304D01*
X00548420Y-01553844D01*
X00561116D02*
X00563655Y-01551304D01*
X00568734D01*
X00571273Y-01553844D01*
Y-01564000D01*
X00568734Y-01566539D01*
X00563655D01*
X00561116Y-01564000D01*
Y-01553844D01*
X00576351Y-01564000D02*
X00578890Y-01566539D01*
X00583969D01*
X00586508Y-01564000D01*
Y-01553844D01*
X00583969Y-01551304D01*
X00578890D01*
X00576351Y-01553844D01*
Y-01556383D01*
X00578890Y-01558922D01*
X00586508D01*
X00591586Y-01553844D02*
X00594126Y-01551304D01*
X00599204D01*
X00601743Y-01553844D01*
Y-01556383D01*
X00599204Y-01558922D01*
X00596665D01*
X00599204D01*
X00601743Y-01561461D01*
Y-01564000D01*
X00599204Y-01566539D01*
X00594126D01*
X00591586Y-01564000D01*
X00606821Y-01553844D02*
X00609361Y-01551304D01*
X00614439D01*
X00616978Y-01553844D01*
Y-01556383D01*
X00614439Y-01558922D01*
X00616978Y-01561461D01*
Y-01564000D01*
X00614439Y-01566539D01*
X00609361D01*
X00606821Y-01564000D01*
Y-01561461D01*
X00609361Y-01558922D01*
X00606821Y-01556383D01*
Y-01553844D01*
X00609361Y-01558922D02*
X00614439D01*
X00637291Y-01551304D02*
Y-01566539D01*
X00644909D01*
X00647448Y-01564000D01*
Y-01553844D01*
X00644909Y-01551304D01*
X00637291D01*
X00662683Y-01553844D02*
X00660144Y-01551304D01*
X00655066D01*
X00652527Y-01553844D01*
Y-01564000D01*
X00655066Y-01566539D01*
X00660144D01*
X00662683Y-01564000D01*
X00667762Y-01558922D02*
X00677918D01*
X00682997Y-01551304D02*
Y-01566539D01*
X00690614D01*
X00693154Y-01564000D01*
Y-01553844D01*
X00690614Y-01551304D01*
X00682997D01*
X00708389Y-01553844D02*
X00705849Y-01551304D01*
X00700771D01*
X00698232Y-01553844D01*
Y-01564000D01*
X00700771Y-01566539D01*
X00705849D01*
X00708389Y-01564000D01*
X00758250Y-01551304D02*
X00748093D01*
Y-01566539D01*
X00758250D01*
X00748093Y-01558922D02*
X00753171D01*
X00763328Y-01566539D02*
X00768406D01*
X00765867D01*
Y-01551304D01*
X00763328Y-01553844D01*
X-00308039Y-01566539D02*
Y-01556383D01*
X-00302961Y-01551304D01*
X-00297882Y-01556383D01*
Y-01566539D01*
Y-01558922D01*
X-00308039D01*
X-00292804Y-01551304D02*
Y-01566539D01*
X-00282647D01*
X-00277569Y-01551304D02*
Y-01566539D01*
X-00267412D01*
X-00247099D02*
Y-01556383D01*
X-00242020Y-01551304D01*
X-00236942Y-01556383D01*
Y-01566539D01*
Y-01558922D01*
X-00247099D01*
X-00231864Y-01566539D02*
Y-01551304D01*
X-00224246D01*
X-00221707Y-01553844D01*
Y-01558922D01*
X-00224246Y-01561461D01*
X-00231864D01*
X-00226785D02*
X-00221707Y-01566539D01*
X-00216628Y-01551304D02*
X-00206472D01*
X-00211550D01*
Y-01566539D01*
X-00201394Y-01551304D02*
Y-01566539D01*
X-00196315Y-01561461D01*
X-00191237Y-01566539D01*
Y-01551304D01*
X-00178541D02*
X-00183619D01*
X-00186158Y-01553844D01*
Y-01564000D01*
X-00183619Y-01566539D01*
X-00178541D01*
X-00176002Y-01564000D01*
Y-01553844D01*
X-00178541Y-01551304D01*
X-00170923Y-01566539D02*
Y-01551304D01*
X-00163306D01*
X-00160767Y-01553844D01*
Y-01558922D01*
X-00163306Y-01561461D01*
X-00170923D01*
X-00165845D02*
X-00160767Y-01566539D01*
X-00155688Y-01551304D02*
Y-01566539D01*
Y-01561461D01*
X-00145532Y-01551304D01*
X-00153149Y-01558922D01*
X-00145532Y-01566539D01*
X-00125218Y-01551304D02*
Y-01561461D01*
X-00120140Y-01566539D01*
X-00115061Y-01561461D01*
Y-01551304D01*
X-00109983D02*
X-00104905D01*
X-00107444D01*
Y-01566539D01*
X-00109983D01*
X-00104905D01*
X-00087130Y-01551304D02*
X-00097287D01*
Y-01566539D01*
X-00087130D01*
X-00097287Y-01558922D02*
X-00092209D01*
X-00082052Y-01551304D02*
Y-01566539D01*
X-00076974Y-01561461D01*
X-00071895Y-01566539D01*
Y-01551304D01*
X-00056660D02*
X-00066817D01*
Y-01566539D01*
X-00056660D01*
X-00066817Y-01558922D02*
X-00061739D01*
X-00051582Y-01551304D02*
Y-01566539D01*
X-00043964D01*
X-00041425Y-01564000D01*
Y-01553844D01*
X-00043964Y-01551304D01*
X-00051582D01*
X-00010955D02*
X-00021112D01*
Y-01558922D01*
X-00016033D01*
X-00021112D01*
Y-01566539D01*
X-00005877D02*
Y-01551304D01*
X00001741D01*
X00004280Y-01553844D01*
Y-01558922D01*
X00001741Y-01561461D01*
X-00005877D01*
X-00000798D02*
X00004280Y-01566539D01*
X00016976Y-01551304D02*
X00011897D01*
X00009358Y-01553844D01*
Y-01564000D01*
X00011897Y-01566539D01*
X00016976D01*
X00019515Y-01564000D01*
Y-01553844D01*
X00016976Y-01551304D01*
X00024593Y-01566539D02*
Y-01551304D01*
X00029672Y-01556383D01*
X00034750Y-01551304D01*
Y-01566539D01*
X00055064Y-01551304D02*
X00065220D01*
X00060142D01*
Y-01566539D01*
X00077916Y-01551304D02*
X00072838D01*
X00070299Y-01553844D01*
Y-01564000D01*
X00072838Y-01566539D01*
X00077916D01*
X00080455Y-01564000D01*
Y-01553844D01*
X00077916Y-01551304D01*
X00085534Y-01566539D02*
Y-01551304D01*
X00093151D01*
X00095690Y-01553844D01*
Y-01558922D01*
X00093151Y-01561461D01*
X00085534D01*
X00126161Y-01553844D02*
X00123621Y-01551304D01*
X00118543D01*
X00116004Y-01553844D01*
Y-01556383D01*
X00118543Y-01558922D01*
X00123621D01*
X00126161Y-01561461D01*
Y-01564000D01*
X00123621Y-01566539D01*
X00118543D01*
X00116004Y-01564000D01*
X00131239Y-01551304D02*
X00136317D01*
X00133778D01*
Y-01566539D01*
X00131239D01*
X00136317D01*
X00143935Y-01551304D02*
Y-01566539D01*
X00151552D01*
X00154092Y-01564000D01*
Y-01553844D01*
X00151552Y-01551304D01*
X00143935D01*
X00169327D02*
X00159170D01*
Y-01566539D01*
X00169327D01*
X00159170Y-01558922D02*
X00164248D01*
X00331657Y-01657645D02*
X00329118Y-01655106D01*
X00324039D01*
X00321500Y-01657645D01*
Y-01667802D01*
X00324039Y-01670341D01*
X00329118D01*
X00331657Y-01667802D01*
Y-01662724D01*
X00326578D01*
X00346892Y-01655106D02*
X00336735D01*
Y-01670341D01*
X00346892D01*
X00336735Y-01662724D02*
X00341813D01*
X00351970Y-01670341D02*
Y-01655106D01*
X00362127Y-01670341D01*
Y-01655106D01*
X00377362D02*
X00367205D01*
Y-01670341D01*
X00377362D01*
X00367205Y-01662724D02*
X00372284D01*
X00382440Y-01670341D02*
Y-01655106D01*
X00390058D01*
X00392597Y-01657645D01*
Y-01662724D01*
X00390058Y-01665263D01*
X00382440D01*
X00387519D02*
X00392597Y-01670341D01*
X00397675D02*
Y-01660184D01*
X00402754Y-01655106D01*
X00407832Y-01660184D01*
Y-01670341D01*
Y-01662724D01*
X00397675D01*
X00412910Y-01655106D02*
X00423067D01*
X00417989D01*
Y-01670341D01*
X00438302Y-01655106D02*
X00428145D01*
Y-01670341D01*
X00438302D01*
X00428145Y-01662724D02*
X00433224D01*
X00443381Y-01655106D02*
Y-01670341D01*
X00450998D01*
X00453537Y-01667802D01*
Y-01657645D01*
X00450998Y-01655106D01*
X00443381D01*
X00519556Y-01660184D02*
X00522095D01*
Y-01662724D01*
X00519556D01*
Y-01660184D01*
Y-01667802D02*
X00522095D01*
Y-01670341D01*
X00519556D01*
Y-01667802D01*
X00542353Y-01670341D02*
X00547431D01*
X00544892D01*
Y-01655106D01*
X00542353Y-01657645D01*
X00565206Y-01670341D02*
X00555049D01*
X00565206Y-01660184D01*
Y-01657645D01*
X00562666Y-01655106D01*
X00557588D01*
X00555049Y-01657645D01*
X00570284Y-01670341D02*
X00580441Y-01660184D01*
X00585519Y-01657645D02*
X00588058Y-01655106D01*
X00593137D01*
X00595676Y-01657645D01*
Y-01660184D01*
X00593137Y-01662724D01*
X00590597D01*
X00593137D01*
X00595676Y-01665263D01*
Y-01667802D01*
X00593137Y-01670341D01*
X00588058D01*
X00585519Y-01667802D01*
X00600754Y-01670341D02*
X00610911Y-01660184D01*
X00626146Y-01670341D02*
X00615989D01*
X00626146Y-01660184D01*
Y-01657645D01*
X00623607Y-01655106D01*
X00618528D01*
X00615989Y-01657645D01*
X00631224D02*
X00633764Y-01655106D01*
X00638842D01*
X00641381Y-01657645D01*
Y-01667802D01*
X00638842Y-01670341D01*
X00633764D01*
X00631224Y-01667802D01*
Y-01657645D01*
X00656616Y-01670341D02*
X00646459D01*
X00656616Y-01660184D01*
Y-01657645D01*
X00654077Y-01655106D01*
X00648998D01*
X00646459Y-01657645D01*
X00661694D02*
X00664234Y-01655106D01*
X00669312D01*
X00671851Y-01657645D01*
Y-01660184D01*
X00669312Y-01662724D01*
X00666773D01*
X00669312D01*
X00671851Y-01665263D01*
Y-01667802D01*
X00669312Y-01670341D01*
X00664234D01*
X00661694Y-01667802D01*
X-00103442Y-01655106D02*
X-00093285D01*
X-00098364D01*
Y-01670341D01*
X-00088207Y-01655106D02*
X-00083129D01*
X-00085668D01*
Y-01670341D01*
X-00088207D01*
X-00083129D01*
X-00075511Y-01655106D02*
Y-01670341D01*
X-00067894D01*
X-00065354Y-01667802D01*
Y-01657645D01*
X-00067894Y-01655106D01*
X-00075511D01*
X-00060276Y-01670341D02*
Y-01660184D01*
X-00055198Y-01655106D01*
X-00050119Y-01660184D01*
Y-01670341D01*
Y-01662724D01*
X-00060276D01*
X-00045041D02*
X-00034884D01*
X-00029806Y-01657645D02*
X-00027267Y-01655106D01*
X-00022188D01*
X-00019649Y-01657645D01*
Y-01667802D01*
X-00022188Y-01670341D01*
X-00027267D01*
X-00029806Y-01667802D01*
Y-01657645D01*
X-00014571Y-01670341D02*
X-00009492D01*
X-00012032D01*
Y-01655106D01*
X-00014571Y-01657645D01*
X-00001875D02*
X00000664Y-01655106D01*
X00005743D01*
X00008282Y-01657645D01*
Y-01667802D01*
X00005743Y-01670341D01*
X00000664D01*
X-00001875Y-01667802D01*
Y-01657645D01*
X00013360Y-01667802D02*
X00015899Y-01670341D01*
X00020978D01*
X00023517Y-01667802D01*
Y-01657645D01*
X00020978Y-01655106D01*
X00015899D01*
X00013360Y-01657645D01*
Y-01660184D01*
X00015899Y-01662724D01*
X00023517D01*
X00028595Y-01657645D02*
X00031135Y-01655106D01*
X00036213D01*
X00038752Y-01657645D01*
Y-01660184D01*
X00036213Y-01662724D01*
X00033674D01*
X00036213D01*
X00038752Y-01665263D01*
Y-01667802D01*
X00036213Y-01670341D01*
X00031135D01*
X00028595Y-01667802D01*
X00043830Y-01657645D02*
X00046370Y-01655106D01*
X00051448D01*
X00053987Y-01657645D01*
Y-01660184D01*
X00051448Y-01662724D01*
X00053987Y-01665263D01*
Y-01667802D01*
X00051448Y-01670341D01*
X00046370D01*
X00043830Y-01667802D01*
Y-01665263D01*
X00046370Y-01662724D01*
X00043830Y-01660184D01*
Y-01657645D01*
X00046370Y-01662724D02*
X00051448D01*
X00074300Y-01655106D02*
Y-01670341D01*
X00081918D01*
X00084457Y-01667802D01*
Y-01657645D01*
X00081918Y-01655106D01*
X00074300D01*
X00099692Y-01657645D02*
X00097153Y-01655106D01*
X00092075D01*
X00089536Y-01657645D01*
Y-01667802D01*
X00092075Y-01670341D01*
X00097153D01*
X00099692Y-01667802D01*
X00104771Y-01662724D02*
X00114927D01*
X00120006Y-01655106D02*
Y-01670341D01*
X00127623D01*
X00130162Y-01667802D01*
Y-01657645D01*
X00127623Y-01655106D01*
X00120006D01*
X00145398Y-01657645D02*
X00142858Y-01655106D01*
X00137780D01*
X00135241Y-01657645D01*
Y-01667802D01*
X00137780Y-01670341D01*
X00142858D01*
X00145398Y-01667802D01*
X00160633Y-01655106D02*
X00150476D01*
Y-01670341D01*
X00160633D01*
X00150476Y-01662724D02*
X00155554D01*
X00165711Y-01670341D02*
X00170789D01*
X00168250D01*
Y-01655106D01*
X00165711Y-01657645D01*
X00178407Y-01670341D02*
Y-01667802D01*
X00180946D01*
Y-01670341D01*
X00178407D01*
X00201259Y-01657645D02*
X00198720Y-01655106D01*
X00193642D01*
X00191103Y-01657645D01*
Y-01667802D01*
X00193642Y-01670341D01*
X00198720D01*
X00201259Y-01667802D01*
Y-01662724D01*
X00196181D01*
X00216495Y-01657645D02*
X00213955Y-01655106D01*
X00208877D01*
X00206338Y-01657645D01*
Y-01667802D01*
X00208877Y-01670341D01*
X00213955D01*
X00216495Y-01667802D01*
Y-01662724D01*
X00211416D01*
X00221573Y-01670341D02*
X00226651D01*
X00224112D01*
Y-01655106D01*
X00221573Y-01657645D01*
X00674052Y-01566539D02*
Y-01551304D01*
X00681670D01*
X00684209Y-01553844D01*
Y-01558922D01*
X00681670Y-01561461D01*
X00674052D01*
X00679130D02*
X00684209Y-01566539D01*
X00699444Y-01551304D02*
X00689287D01*
Y-01566539D01*
X00699444D01*
X00689287Y-01558922D02*
X00694365D01*
X00704522Y-01551304D02*
Y-01561461D01*
X00709601Y-01566539D01*
X00714679Y-01561461D01*
Y-01551304D01*
X00719757Y-01556383D02*
X00722296D01*
Y-01558922D01*
X00719757D01*
Y-01556383D01*
Y-01564000D02*
X00722296D01*
Y-01566539D01*
X00719757D01*
Y-01564000D01*
X00897061Y-01553844D02*
X00894522Y-01551304D01*
X00889443D01*
X00886904Y-01553844D01*
Y-01556383D01*
X00889443Y-01558922D01*
X00894522D01*
X00897061Y-01561461D01*
Y-01564000D01*
X00894522Y-01566539D01*
X00889443D01*
X00886904Y-01564000D01*
X00902139Y-01551304D02*
Y-01561461D01*
X00907217Y-01566539D01*
X00912296Y-01561461D01*
Y-01551304D01*
X00917374Y-01566539D02*
Y-01551304D01*
X00927531Y-01566539D01*
Y-01551304D01*
X00947844Y-01566539D02*
Y-01551304D01*
X00955462D01*
X00958001Y-01553844D01*
Y-01558922D01*
X00955462Y-01561461D01*
X00947844D01*
X00952923D02*
X00958001Y-01566539D01*
X00973236Y-01551304D02*
X00963079D01*
Y-01566539D01*
X00973236D01*
X00963079Y-01558922D02*
X00968158D01*
X00978315Y-01551304D02*
Y-01561461D01*
X00983393Y-01566539D01*
X00988471Y-01561461D01*
Y-01551304D01*
X00993549Y-01556383D02*
X00996089D01*
Y-01558922D01*
X00993549D01*
Y-01556383D01*
Y-01564000D02*
X00996089D01*
Y-01566539D01*
X00993549D01*
Y-01564000D01*
X01015428Y-01566539D02*
Y-01551304D01*
X01025585Y-01566539D01*
Y-01551304D01*
X01033202Y-01566539D02*
X01038281D01*
X01040820Y-01564000D01*
Y-01558922D01*
X01038281Y-01556383D01*
X01033202D01*
X01030663Y-01558922D01*
Y-01564000D01*
X01033202Y-01566539D01*
X01048437Y-01553844D02*
Y-01556383D01*
X01045898D01*
X01050976D01*
X01048437D01*
Y-01564000D01*
X01050976Y-01566539D01*
X01073829D02*
X01078907D01*
X01076368D01*
Y-01556383D01*
X01073829D01*
X01086525Y-01566539D02*
Y-01556383D01*
X01094143D01*
X01096682Y-01558922D01*
Y-01566539D01*
X01116995Y-01556383D02*
X01122074Y-01566539D01*
X01127152Y-01556383D01*
X01139848Y-01566539D02*
X01134769D01*
X01132230Y-01564000D01*
Y-01558922D01*
X01134769Y-01556383D01*
X01139848D01*
X01142387Y-01558922D01*
Y-01561461D01*
X01132230D01*
X01147465Y-01556383D02*
Y-01566539D01*
Y-01561461D01*
X01150005Y-01558922D01*
X01152544Y-01556383D01*
X01155083D01*
X01162700Y-01566539D02*
X01170318D01*
X01172857Y-01564000D01*
X01170318Y-01561461D01*
X01165240D01*
X01162700Y-01558922D01*
X01165240Y-01556383D01*
X01172857D01*
X01177935Y-01566539D02*
X01183014D01*
X01180475D01*
Y-01556383D01*
X01177935D01*
X01193170Y-01566539D02*
X01198249D01*
X01200788Y-01564000D01*
Y-01558922D01*
X01198249Y-01556383D01*
X01193170D01*
X01190631Y-01558922D01*
Y-01564000D01*
X01193170Y-01566539D01*
X01205866D02*
Y-01556383D01*
X01213484D01*
X01216023Y-01558922D01*
Y-01566539D01*
X01246493Y-01556383D02*
X01238876D01*
X01236337Y-01558922D01*
Y-01564000D01*
X01238876Y-01566539D01*
X01246493D01*
X01254111D02*
X01259189D01*
X01261728Y-01564000D01*
Y-01558922D01*
X01259189Y-01556383D01*
X01254111D01*
X01251572Y-01558922D01*
Y-01564000D01*
X01254111Y-01566539D01*
X01266807D02*
Y-01556383D01*
X01274424D01*
X01276963Y-01558922D01*
Y-01566539D01*
X01284581Y-01553844D02*
Y-01556383D01*
X01282042D01*
X01287120D01*
X01284581D01*
Y-01564000D01*
X01287120Y-01566539D01*
X01294738Y-01556383D02*
Y-01566539D01*
Y-01561461D01*
X01297277Y-01558922D01*
X01299816Y-01556383D01*
X01302355D01*
X01312512Y-01566539D02*
X01317590D01*
X01320129Y-01564000D01*
Y-01558922D01*
X01317590Y-01556383D01*
X01312512D01*
X01309973Y-01558922D01*
Y-01564000D01*
X01312512Y-01566539D01*
X01325208D02*
X01330286D01*
X01327747D01*
Y-01551304D01*
X01325208D01*
G54D142*
X00077680Y01011734D02*
X00090680D01*
X00084180Y01005234D02*
Y01018234D01*
X00077680Y00948234D02*
X00090680D01*
X00084180Y00941734D02*
Y00954734D01*
X00079100Y00755215D02*
X00089260D01*
X00084180Y00750135D02*
Y00760295D01*
X00077680Y00523792D02*
X00090680D01*
X00084180Y00517292D02*
Y00530292D01*
X00077680Y00460292D02*
X00090680D01*
X00084180Y00453792D02*
Y00466792D01*
X00077680Y00261266D02*
X00090680D01*
X00084180Y00254766D02*
Y00267766D01*
X00077680Y00324766D02*
X00090680D01*
X00084180Y00318266D02*
Y00331266D01*
X00077680Y00806816D02*
X00090680D01*
X00084180Y00800316D02*
Y00813316D01*
X00077680Y00870316D02*
X00090680D01*
X00084180Y00863816D02*
Y00876816D01*
X01376450Y01558960D02*
X01383850D01*
X01380150Y01555260D02*
Y01562660D01*
X01389150Y01558960D02*
X01396550D01*
X01392850Y01555260D02*
Y01562660D01*
X01401850Y01558960D02*
X01409250D01*
X01405550Y01555260D02*
Y01562660D01*
X01414550Y01558960D02*
X01421950D01*
X01418250Y01555260D02*
Y01562660D01*
X01427250Y01558960D02*
X01434650D01*
X01430950Y01555260D02*
Y01562660D01*
X01439950Y01558960D02*
X01447350D01*
X01443650Y01555260D02*
Y01562660D01*
X01452650Y01558960D02*
X01460050D01*
X01456350Y01555260D02*
Y01562660D01*
X01465350Y01558960D02*
X01472750D01*
X01469050Y01555260D02*
Y01562660D01*
X01478050Y01558960D02*
X01485450D01*
X01481750Y01555260D02*
Y01562660D01*
X01490750Y01558960D02*
X01498150D01*
X01494450Y01555260D02*
Y01562660D01*
X01503450Y01558960D02*
X01510850D01*
X01507150Y01555260D02*
Y01562660D01*
X01516150Y01558960D02*
X01523550D01*
X01519850Y01555260D02*
Y01562660D01*
X01376450Y01571660D02*
X01383850D01*
X01380150Y01567960D02*
Y01575360D01*
X01389150Y01571660D02*
X01396550D01*
X01392850Y01567960D02*
Y01575360D01*
X01401850Y01571660D02*
X01409250D01*
X01405550Y01567960D02*
Y01575360D01*
X01414550Y01571660D02*
X01421950D01*
X01418250Y01567960D02*
Y01575360D01*
X01427250Y01571660D02*
X01434650D01*
X01430950Y01567960D02*
Y01575360D01*
X01439950Y01571660D02*
X01447350D01*
X01443650Y01567960D02*
Y01575360D01*
X01452650Y01571660D02*
X01460050D01*
X01456350Y01567960D02*
Y01575360D01*
X01465350Y01571660D02*
X01472750D01*
X01469050Y01567960D02*
Y01575360D01*
X01478050Y01571660D02*
X01485450D01*
X01481750Y01567960D02*
Y01575360D01*
X01490750Y01571660D02*
X01498150D01*
X01494450Y01567960D02*
Y01575360D01*
X01503450Y01571660D02*
X01510850D01*
X01507150Y01567960D02*
Y01575360D01*
X01516150Y01571660D02*
X01523550D01*
X01519850Y01567960D02*
Y01575360D01*
X00215000Y00062500D02*
X00225000D01*
X00220000Y00057500D02*
Y00067500D01*
X00215000Y00337500D02*
X00225000D01*
X00220000Y00332500D02*
Y00342500D01*
X00585500Y01044434D02*
X00594000D01*
X00589750Y01040184D02*
Y01048684D01*
X00535500Y01044434D02*
X00544000D01*
X00539750Y01040184D02*
Y01048684D01*
X00212000Y01184000D02*
X00224000D01*
X00218000Y01178000D02*
Y01190000D01*
X00356000Y01184000D02*
X00368000D01*
X00362000Y01178000D02*
Y01190000D01*
X00100000Y01184000D02*
X00112000D01*
X00106000Y01178000D02*
Y01190000D01*
X00468000Y01184000D02*
X00480000D01*
X00474000Y01178000D02*
Y01190000D01*
X00100000Y01361000D02*
X00112000D01*
X00106000Y01355000D02*
Y01367000D01*
X00468000Y01361000D02*
X00480000D01*
X00474000Y01355000D02*
Y01367000D01*
X02223567Y00037460D02*
X02233567D01*
X02228567Y00032460D02*
Y00042460D01*
X02223567Y00312460D02*
X02233567D01*
X02228567Y00307460D02*
Y00317460D01*
X01026421Y00760819D02*
X01036421D01*
X01031421Y00755819D02*
Y00765819D01*
X00751421Y00760819D02*
X00761421D01*
X00756421Y00755819D02*
Y00765819D01*
X02190500Y01046000D02*
X02204500D01*
X02197500Y01039000D02*
Y01053000D01*
X02565500Y01046000D02*
X02579500D01*
X02572500Y01039000D02*
Y01053000D01*
X02190500Y00944000D02*
X02204500D01*
X02197500Y00937000D02*
Y00951000D01*
X02565500Y00944000D02*
X02579500D01*
X02572500Y00937000D02*
Y00951000D01*
X02091347Y00730000D02*
X02105347D01*
X02098347Y00723000D02*
Y00737000D01*
X01816347Y00730000D02*
X01830347D01*
X01823347Y00723000D02*
Y00737000D01*
X00657250Y00596109D02*
X00672250D01*
X00664750Y00588609D02*
Y00603609D01*
X00607250Y00596109D02*
X00622250D01*
X00614750Y00588609D02*
Y00603609D01*
X00557250Y00596109D02*
X00572250D01*
X00564750Y00588609D02*
Y00603609D01*
X00457250Y00596109D02*
X00472250D01*
X00464750Y00588609D02*
Y00603609D01*
X00407250Y00596109D02*
X00422250D01*
X00414750Y00588609D02*
Y00603609D01*
X00357250Y00596109D02*
X00372250D01*
X00364750Y00588609D02*
Y00603609D01*
X00357250Y00966109D02*
X00372250D01*
X00364750Y00958609D02*
Y00973609D01*
X00407250Y00966109D02*
X00422250D01*
X00414750Y00958609D02*
Y00973609D01*
X00457250Y00966109D02*
X00472250D01*
X00464750Y00958609D02*
Y00973609D01*
X00557250Y00966109D02*
X00572250D01*
X00564750Y00958609D02*
Y00973609D01*
X00607250Y00966109D02*
X00622250D01*
X00614750Y00958609D02*
Y00973609D01*
X00657250Y00966109D02*
X00672250D01*
X00664750Y00958609D02*
Y00973609D01*
X00932500Y00061580D02*
X00947500D01*
X00940000Y00054080D02*
Y00069080D01*
X00882500Y00061580D02*
X00897500D01*
X00890000Y00054080D02*
Y00069080D01*
X00832500Y00061580D02*
X00847500D01*
X00840000Y00054080D02*
Y00069080D01*
X00732500Y00061580D02*
X00747500D01*
X00740000Y00054080D02*
Y00069080D01*
X00682500Y00061580D02*
X00697500D01*
X00690000Y00054080D02*
Y00069080D01*
X00632500Y00061580D02*
X00647500D01*
X00640000Y00054080D02*
Y00069080D01*
X00632500Y00499580D02*
X00647500D01*
X00640000Y00492080D02*
Y00507080D01*
X00682500Y00499580D02*
X00697500D01*
X00690000Y00492080D02*
Y00507080D01*
X00732500Y00499580D02*
X00747500D01*
X00740000Y00492080D02*
Y00507080D01*
X00832500Y00499580D02*
X00847500D01*
X00840000Y00492080D02*
Y00507080D01*
X00882500Y00499580D02*
X00897500D01*
X00890000Y00492080D02*
Y00507080D01*
X00932500Y00499580D02*
X00947500D01*
X00940000Y00492080D02*
Y00507080D01*
X02347526Y00450000D02*
X02362526D01*
X02355026Y00442500D02*
Y00457500D01*
X02347526Y00400000D02*
X02362526D01*
X02355026Y00392500D02*
Y00407500D01*
X02347526Y00350000D02*
X02362526D01*
X02355026Y00342500D02*
Y00357500D01*
X02347526Y00250000D02*
X02362526D01*
X02355026Y00242500D02*
Y00257500D01*
X02347526Y00200000D02*
X02362526D01*
X02355026Y00192500D02*
Y00207500D01*
X02347526Y00150000D02*
X02362526D01*
X02355026Y00142500D02*
Y00157500D01*
X02697526Y00150000D02*
X02712526D01*
X02705026Y00142500D02*
Y00157500D01*
X02697526Y00200000D02*
X02712526D01*
X02705026Y00192500D02*
Y00207500D01*
X02697526Y00250000D02*
X02712526D01*
X02705026Y00242500D02*
Y00257500D01*
X02697526Y00350000D02*
X02712526D01*
X02705026Y00342500D02*
Y00357500D01*
X02697526Y00400000D02*
X02712526D01*
X02705026Y00392500D02*
Y00407500D01*
X02697526Y00450000D02*
X02712526D01*
X02705026Y00442500D02*
Y00457500D01*
X00028004Y00670459D02*
X00072004D01*
X00050004Y00648459D02*
Y00692459D01*
X02000300Y01026250D02*
X02014300D01*
X02007300Y01019250D02*
Y01033250D01*
X01949500Y01026250D02*
X01963500D01*
X01956500Y01019250D02*
Y01033250D01*
X01898700Y01026250D02*
X01912700D01*
X01905700Y01019250D02*
Y01033250D01*
X01397335Y00830000D02*
X01411335D01*
X01404335Y00823000D02*
Y00837000D01*
X01122335Y00830000D02*
X01136335D01*
X01129335Y00823000D02*
Y00837000D01*
X01136450Y01558962D02*
X01143850D01*
X01140150Y01555262D02*
Y01562662D01*
X01149150Y01558962D02*
X01156550D01*
X01152850Y01555262D02*
Y01562662D01*
X01161850Y01558962D02*
X01169250D01*
X01165550Y01555262D02*
Y01562662D01*
X01174550Y01558962D02*
X01181950D01*
X01178250Y01555262D02*
Y01562662D01*
X01187250Y01558962D02*
X01194650D01*
X01190950Y01555262D02*
Y01562662D01*
X01199950Y01558962D02*
X01207350D01*
X01203650Y01555262D02*
Y01562662D01*
X01212650Y01558962D02*
X01220050D01*
X01216350Y01555262D02*
Y01562662D01*
X01225350Y01558962D02*
X01232750D01*
X01229050Y01555262D02*
Y01562662D01*
X01238050Y01558962D02*
X01245450D01*
X01241750Y01555262D02*
Y01562662D01*
X01250750Y01558962D02*
X01258150D01*
X01254450Y01555262D02*
Y01562662D01*
X01263450Y01558962D02*
X01270850D01*
X01267150Y01555262D02*
Y01562662D01*
X01276150Y01558962D02*
X01283550D01*
X01279850Y01555262D02*
Y01562662D01*
X01136450Y01571662D02*
X01143850D01*
X01140150Y01567962D02*
Y01575362D01*
X01149150Y01571662D02*
X01156550D01*
X01152850Y01567962D02*
Y01575362D01*
X01161850Y01571662D02*
X01169250D01*
X01165550Y01567962D02*
Y01575362D01*
X01174550Y01571662D02*
X01181950D01*
X01178250Y01567962D02*
Y01575362D01*
X01187250Y01571662D02*
X01194650D01*
X01190950Y01567962D02*
Y01575362D01*
X01199950Y01571662D02*
X01207350D01*
X01203650Y01567962D02*
Y01575362D01*
X01212650Y01571662D02*
X01220050D01*
X01216350Y01567962D02*
Y01575362D01*
X01225350Y01571662D02*
X01232750D01*
X01229050Y01567962D02*
Y01575362D01*
X01238050Y01571662D02*
X01245450D01*
X01241750Y01567962D02*
Y01575362D01*
X01250750Y01571662D02*
X01258150D01*
X01254450Y01567962D02*
Y01575362D01*
X01263450Y01571662D02*
X01270850D01*
X01267150Y01567962D02*
Y01575362D01*
X01276150Y01571662D02*
X01283550D01*
X01279850Y01567962D02*
Y01575362D01*
X01923600Y00061000D02*
X01938600D01*
X01931100Y00053500D02*
Y00068500D01*
X01873600Y00061000D02*
X01888600D01*
X01881100Y00053500D02*
Y00068500D01*
X01823600Y00061000D02*
X01838600D01*
X01831100Y00053500D02*
Y00068500D01*
X01723600Y00061000D02*
X01738600D01*
X01731100Y00053500D02*
Y00068500D01*
X01673600Y00061000D02*
X01688600D01*
X01681100Y00053500D02*
Y00068500D01*
X01623600Y00061000D02*
X01638600D01*
X01631100Y00053500D02*
Y00068500D01*
X01623600Y00411000D02*
X01638600D01*
X01631100Y00403500D02*
Y00418500D01*
X01673600Y00411000D02*
X01688600D01*
X01681100Y00403500D02*
Y00418500D01*
X01723600Y00411000D02*
X01738600D01*
X01731100Y00403500D02*
Y00418500D01*
X01823600Y00411000D02*
X01838600D01*
X01831100Y00403500D02*
Y00418500D01*
X01873600Y00411000D02*
X01888600D01*
X01881100Y00403500D02*
Y00418500D01*
X01923600Y00411000D02*
X01938600D01*
X01931100Y00403500D02*
Y00418500D01*
X00652500Y01589000D02*
X00667500D01*
X00660000Y01581500D02*
Y01596500D01*
X00702500Y01589000D02*
X00717500D01*
X00710000Y01581500D02*
Y01596500D01*
X00752500Y01589000D02*
X00767500D01*
X00760000Y01581500D02*
Y01596500D01*
X00852500Y01589000D02*
X00867500D01*
X00860000Y01581500D02*
Y01596500D01*
X00902500Y01589000D02*
X00917500D01*
X00910000Y01581500D02*
Y01596500D01*
X00952500Y01589000D02*
X00967500D01*
X00960000Y01581500D02*
Y01596500D01*
X00952500Y01151000D02*
X00967500D01*
X00960000Y01143500D02*
Y01158500D01*
X00902500Y01151000D02*
X00917500D01*
X00910000Y01143500D02*
Y01158500D01*
X00852500Y01151000D02*
X00867500D01*
X00860000Y01143500D02*
Y01158500D01*
X00752500Y01151000D02*
X00767500D01*
X00760000Y01143500D02*
Y01158500D01*
X00702500Y01151000D02*
X00717500D01*
X00710000Y01143500D02*
Y01158500D01*
X00652500Y01151000D02*
X00667500D01*
X00660000Y01143500D02*
Y01158500D01*
X00349850Y01043369D02*
X00358350D01*
X00354100Y01039119D02*
Y01047619D01*
X00399850Y01043369D02*
X00408350D01*
X00404100Y01039119D02*
Y01047619D01*
X01539474Y01367245D02*
X01549634D01*
X01544554Y01362165D02*
Y01372325D01*
X01575509Y00588704D02*
X01585669D01*
X01580589Y00583624D02*
Y00593784D01*
X01252701Y01028749D02*
X01262861D01*
X01257781Y01023669D02*
Y01033829D01*
X01279907Y00684654D02*
X01290067D01*
X01284987Y00679574D02*
Y00689734D01*
X01471754Y00529806D02*
X01481914D01*
X01476834Y00524726D02*
Y00534886D01*
X01258540Y00441410D02*
X01268700D01*
X01263620Y00436330D02*
Y00446490D01*
X00215000Y01037500D02*
X00225000D01*
X00220000Y01032500D02*
Y01042500D01*
X00215000Y00762500D02*
X00225000D01*
X00220000Y00757500D02*
Y00767500D01*
X01479394Y00051435D02*
X01489394D01*
X01484394Y00046435D02*
Y00056435D01*
X01479394Y00326435D02*
X01489394D01*
X01484394Y00321435D02*
Y00331435D01*
X01507793Y00942385D02*
X01521793D01*
X01514793Y00935385D02*
Y00949385D01*
X01507793Y00667385D02*
X01521793D01*
X01514793Y00660385D02*
Y00674385D01*
X02624336Y00536557D02*
X02638336D01*
X02631335Y00529557D02*
Y00543557D01*
X02624336Y00811557D02*
X02638336D01*
X02631335Y00804557D02*
Y00818557D01*
X00215000Y00407250D02*
X00225000D01*
X00220000Y00402250D02*
Y00412250D01*
X00215000Y00682250D02*
X00225000D01*
X00220000Y00677250D02*
Y00687250D01*
X00751921Y00887298D02*
X00761921D01*
X00756921Y00882298D02*
Y00892298D01*
X01026921Y00887298D02*
X01036921D01*
X01031921Y00882298D02*
Y00892298D01*
X01129838Y00048695D02*
X01173838D01*
X01151838Y00026695D02*
Y00070694D01*
X02091431Y01101228D02*
X02135431D01*
X02113431Y01079228D02*
Y01123228D01*
X01627855Y01600172D02*
X01671855D01*
X01649855Y01578172D02*
Y01622172D01*
X00028173Y01600894D02*
X00072173D01*
X00050173Y01578894D02*
Y01622894D01*
X00027716Y00049603D02*
X00071716D01*
X00049716Y00027603D02*
Y00071603D01*
X02677805Y00050346D02*
X02721805D01*
X02699805Y00028345D02*
Y00072345D01*
X02678000Y01100000D02*
X02722000D01*
X02700000Y01078000D02*
Y01122000D01*
X01090771Y01416528D02*
X01134771D01*
X01112771Y01394528D02*
Y01438528D01*
X02092799Y00548123D02*
X02102959D01*
X02097879Y00543043D02*
Y00553203D01*
X02110923Y00327768D02*
X02121084D01*
X02116004Y00322688D02*
Y00332848D01*
X02029390Y00227654D02*
X02039550D01*
X02034470Y00222574D02*
Y00232734D01*
X02660897Y00890000D02*
X02671057D01*
X02665977Y00884920D02*
Y00895080D01*
X02108756Y00458870D02*
X02118916D01*
X02113836Y00453790D02*
Y00463950D01*
X02018297Y00360835D02*
X02028457D01*
X02023376Y00355755D02*
Y00365915D01*
X00738307Y01071997D02*
X00748467D01*
X00743387Y01066917D02*
Y01077077D01*
X00738250Y01001802D02*
X00748410D01*
X00743330Y00996722D02*
Y01006882D01*
X01238931Y01250973D02*
X01249090D01*
X01244010Y01245893D02*
Y01256053D01*
X00784743Y00675786D02*
X00794903D01*
X00789823Y00670706D02*
Y00680866D01*
X00755253Y00579948D02*
X00765413D01*
X00760333Y00574868D02*
Y00585028D01*
X01349188Y00371689D02*
X01359348D01*
X01354268Y00366609D02*
Y00376769D01*
X00303722Y01617663D02*
X00313882D01*
X00308802Y01612583D02*
Y01622743D01*
X01179702Y00352332D02*
X01189862D01*
X01184782Y00347252D02*
Y00357412D01*
X01227096Y00385931D02*
X01237256D01*
X01232176Y00380851D02*
Y00391011D01*
X01301211Y00370139D02*
X01311371D01*
X01306291Y00365059D02*
Y00375219D01*
X00284103Y01495894D02*
X00294263D01*
X00289183Y01490814D02*
Y01500974D01*
X00180441Y01532308D02*
X00190601D01*
X00185521Y01527228D02*
Y01537388D01*
X01100347Y01316220D02*
X01110507D01*
X01105427Y01311140D02*
Y01321300D01*
X02034030Y00307899D02*
X02044190D01*
X02039110Y00302819D02*
Y00312979D01*
X00366173Y01603353D02*
X00376333D01*
X00371253Y01598273D02*
Y01608433D01*
X01637722Y01321685D02*
X01647882D01*
X01642802Y01316606D02*
Y01326765D01*
X01304170Y00334585D02*
X01314330D01*
X01309250Y00329505D02*
Y00339665D01*
X00027394Y00580000D02*
X00037554D01*
X00032473Y00574920D02*
Y00585080D01*
X01914920Y00964771D02*
X01925080D01*
X01920000Y00959691D02*
Y00969851D01*
X00106430Y00409872D02*
X00116590D01*
X00111510Y00404792D02*
Y00414952D01*
X02061594Y01027913D02*
X02071754D01*
X02066674Y01022833D02*
Y01032993D01*
X00020989Y00387250D02*
X00031149D01*
X00026069Y00382170D02*
Y00392330D01*
X00073283Y00200500D02*
X00083443D01*
X00078363Y00195420D02*
Y00205580D01*
X00074976Y01069741D02*
X00085136D01*
X00080056Y01064661D02*
Y01074821D01*
X01534107Y01387541D02*
X01536647D01*
X01535377Y01386271D02*
Y01388811D01*
X01581819Y01452837D02*
X01584359D01*
X01583089Y01451567D02*
Y01454107D01*
X01435676Y00691186D02*
X01438216D01*
X01436946Y00689915D02*
Y00692456D01*
X01582930Y00997204D02*
X01585470D01*
X01584200Y00995934D02*
Y00998474D01*
X01504018Y01020167D02*
X01506558D01*
X01505288Y01018897D02*
Y01021437D01*
X01517459Y01105527D02*
X01519999D01*
X01518729Y01104258D02*
Y01106797D01*
X01476168Y01133352D02*
X01478708D01*
X01477438Y01132082D02*
Y01134622D01*
X01435550Y01177325D02*
X01438090D01*
X01436820Y01176055D02*
Y01178595D01*
X01476168Y01085107D02*
X01478708D01*
X01477438Y01083837D02*
Y01086377D01*
X01476168Y01104585D02*
X01478708D01*
X01477438Y01103315D02*
Y01105855D01*
X01415496Y00643034D02*
X01418036D01*
X01416766Y00641764D02*
Y00644304D01*
X01409020Y01214167D02*
X01411560D01*
X01410290Y01212897D02*
Y01215437D01*
X01387681Y01226462D02*
X01390221D01*
X01388951Y01225192D02*
Y01227732D01*
X01283222Y01540268D02*
X01285762D01*
X01284492Y01538998D02*
Y01541538D01*
X01349915Y01174540D02*
X01352455D01*
X01351185Y01173270D02*
Y01175810D01*
X01665596Y01015651D02*
X01668136D01*
X01666866Y01014381D02*
Y01016921D01*
X01677467Y01025438D02*
X01680007D01*
X01678737Y01024168D02*
Y01026708D01*
X01649022Y01025346D02*
X01651562D01*
X01650292Y01024076D02*
Y01026616D01*
X01677507Y01015578D02*
X01680047D01*
X01678777Y01014308D02*
Y01016848D01*
X01648837Y01015381D02*
X01651378D01*
X01650108Y01014111D02*
Y01016651D01*
X01665596Y01025438D02*
X01668136D01*
X01666866Y01024168D02*
Y01026708D01*
X01763667Y00983718D02*
X01766207D01*
X01764937Y00982448D02*
Y00984988D01*
X00769775Y01064434D02*
X00772315D01*
X00771045Y01063164D02*
Y01065704D01*
X00801775Y00657791D02*
X00804315D01*
X00803045Y00656521D02*
Y00659061D01*
X01276987Y01530759D02*
X01279527D01*
X01278257Y01529489D02*
Y01532029D01*
X01301922Y01533196D02*
X01304462D01*
X01303192Y01531926D02*
Y01534466D01*
X01316582Y01537037D02*
X01319122D01*
X01317852Y01535767D02*
Y01538307D01*
X01269060Y01484252D02*
X01271600D01*
X01270330Y01482982D02*
Y01485522D01*
X01273582Y01536444D02*
X01276122D01*
X01274852Y01535174D02*
Y01537714D01*
X01267809Y01530059D02*
X01270349D01*
X01269079Y01528789D02*
Y01531329D01*
X01277575Y01544076D02*
X01280115D01*
X01278845Y01542806D02*
Y01545346D01*
X01734136Y00561095D02*
X01736676D01*
X01735406Y00559825D02*
Y00562365D01*
X01648614Y01343279D02*
X01651154D01*
X01649884Y01342009D02*
Y01344549D01*
X01415596Y00365540D02*
X01418136D01*
X01416866Y00364270D02*
Y00366810D01*
X01236590Y00361750D02*
X01239130D01*
X01237860Y00360480D02*
Y00363020D01*
X01210115Y00285087D02*
X01212655D01*
X01211385Y00283817D02*
Y00286357D01*
X00804089Y00591487D02*
X00806629D01*
X00805359Y00590217D02*
Y00592757D01*
X00748165Y00608466D02*
X00750705D01*
X00749435Y00607196D02*
Y00609736D01*
X01738928Y01010216D02*
X01741468D01*
X01740198Y01008946D02*
Y01011486D01*
X01677507Y01010216D02*
X01680047D01*
X01678777Y01008946D02*
Y01011486D01*
X02043020Y00424601D02*
X02045560D01*
X02044290Y00423331D02*
Y00425871D01*
X02025856Y00389446D02*
X02028396D01*
X02027126Y00388176D02*
Y00390716D01*
X02128046Y00385907D02*
X02130586D01*
X02129316Y00384637D02*
Y00387177D01*
X02127976Y00400195D02*
X02130516D01*
X02129246Y00398924D02*
Y00401465D01*
X02015743Y00317460D02*
X02018283D01*
X02017013Y00316190D02*
Y00318730D01*
X02057735Y00238086D02*
X02060275D01*
X02059005Y00236816D02*
Y00239356D01*
X02086107Y00225650D02*
X02088647D01*
X02087377Y00224380D02*
Y00226920D01*
X02008112Y00277325D02*
X02010652D01*
X02009382Y00276055D02*
Y00278595D01*
X02008112Y00258540D02*
X02010652D01*
X02009382Y00257270D02*
Y00259810D01*
X02071807Y00299940D02*
X02074347D01*
X02073077Y00298670D02*
Y00301210D01*
X01257503Y01399818D02*
X01260043D01*
X01258773Y01398548D02*
Y01401087D01*
X01257503Y01408176D02*
X01260043D01*
X01258773Y01406906D02*
Y01409446D01*
X01230181Y01399818D02*
X01232721D01*
X01231451Y01398548D02*
Y01401087D01*
X01230322Y01408176D02*
X01232862D01*
X01231592Y01406906D02*
Y01409446D01*
X01230387Y01415651D02*
X01232927D01*
X01231657Y01414381D02*
Y01416921D01*
X01216596Y00975288D02*
X01219136D01*
X01217866Y00974018D02*
Y00976559D01*
X01033151Y01055036D02*
X01035691D01*
X01034421Y01053766D02*
Y01056306D01*
X01033151Y01047536D02*
X01035691D01*
X01034421Y01046266D02*
Y01048806D01*
X01033151Y01062536D02*
X01035691D01*
X01034421Y01061266D02*
Y01063806D01*
X01007106Y00559413D02*
X01009646D01*
X01008376Y00558143D02*
Y00560683D01*
X01007106Y00551913D02*
X01009646D01*
X01008376Y00550643D02*
Y00553183D01*
X01007106Y00566913D02*
X01009646D01*
X01008376Y00565643D02*
Y00568183D01*
X00943542Y00649836D02*
X00946082D01*
X00944812Y00648566D02*
Y00651106D01*
X00923423Y00664974D02*
X00925963D01*
X00924693Y00663704D02*
Y00666244D01*
X00923970Y01069861D02*
X00926510D01*
X00925240Y01068591D02*
Y01071131D01*
X00918566Y01079959D02*
X00921106D01*
X00919836Y01078689D02*
Y01081229D01*
X00908730Y01079959D02*
X00911270D01*
X00910000Y01078689D02*
Y01081229D01*
X00868730Y01079895D02*
X00871270D01*
X00870000Y01078625D02*
Y01081165D01*
X01055751Y00967626D02*
X01058291D01*
X01057021Y00966356D02*
Y00968896D01*
X01041406Y00990179D02*
X01043946D01*
X01042676Y00988909D02*
Y00991449D01*
X01041406Y00983375D02*
X01043946D01*
X01042676Y00982105D02*
Y00984645D01*
X01049039Y00996075D02*
X01051579D01*
X01050309Y00994805D02*
Y00997345D01*
X01048831Y00990179D02*
X01051371D01*
X01050101Y00988909D02*
Y00991449D01*
X01223016Y00984719D02*
X01225556D01*
X01224286Y00983449D02*
Y00985989D01*
X01223016Y00977878D02*
X01225556D01*
X01224286Y00976608D02*
Y00979147D01*
X01216499Y00969121D02*
X01219039D01*
X01217769Y00967851D02*
Y00970391D01*
X01209658Y00969121D02*
X01212198D01*
X01210928Y00967851D02*
Y00970391D01*
X01203037Y00969121D02*
X01205577D01*
X01204307Y00967851D02*
Y00970391D01*
X01196196Y00969121D02*
X01198736D01*
X01197466Y00967851D02*
Y00970391D01*
X01188321Y00969121D02*
X01190861D01*
X01189591Y00967851D02*
Y00970391D01*
X01181479Y00969121D02*
X01184019D01*
X01182749Y00967851D02*
Y00970391D01*
X01149153Y00967626D02*
X01151693D01*
X01150423Y00966356D02*
Y00968896D01*
X01142311Y00967626D02*
X01144852D01*
X01143581Y00966356D02*
Y00968896D01*
X01116363Y00967626D02*
X01118903D01*
X01117633Y00966356D02*
Y00968896D01*
X01109522Y00967626D02*
X01112062D01*
X01110792Y00966356D02*
Y00968896D01*
X01033184Y01247073D02*
X01035724D01*
X01034454Y01245803D02*
Y01248343D01*
X01027586Y01237545D02*
X01030126D01*
X01028856Y01236275D02*
Y01238816D01*
X01040319Y01248457D02*
X01042859D01*
X01041589Y01247187D02*
Y01249727D01*
X01049312Y01248457D02*
X01051852D01*
X01050582Y01247187D02*
Y01249727D01*
X01034050Y01240572D02*
X01036590D01*
X01035320Y01239302D02*
Y01241842D01*
X01044822Y01240572D02*
X01047362D01*
X01046092Y01239302D02*
Y01241842D01*
X01053760Y01240672D02*
X01056300D01*
X01055030Y01239402D02*
Y01241942D01*
X01063042Y01240572D02*
X01065582D01*
X01064312Y01239302D02*
Y01241842D01*
X01320513Y01077777D02*
X01323053D01*
X01321783Y01076507D02*
Y01079047D01*
X00968621Y01050854D02*
X00971161D01*
X00969891Y01049584D02*
Y01052124D01*
X01062929Y00967626D02*
X01065469D01*
X01064199Y00966356D02*
Y00968896D01*
X00946056Y00568316D02*
X00948596D01*
X00947326Y00567046D02*
Y00569586D01*
X01187750Y01021550D02*
X01190290D01*
X01189020Y01020280D02*
Y01022820D01*
X01183344Y01028994D02*
X01185884D01*
X01184614Y01027724D02*
Y01030264D01*
X01175594Y01037960D02*
X01178134D01*
X01176864Y01036690D02*
Y01039230D01*
X01142928Y01065805D02*
X01145468D01*
X01144198Y01064535D02*
Y01067075D01*
X01142928Y01076208D02*
X01145468D01*
X01144198Y01074939D02*
Y01077478D01*
X01142928Y01037161D02*
X01145468D01*
X01144198Y01035891D02*
Y01038431D01*
X01142928Y01056012D02*
X01145468D01*
X01144198Y01054742D02*
Y01057282D01*
X01142928Y01044560D02*
X01145468D01*
X01144198Y01043290D02*
Y01045830D01*
X01225665Y01028168D02*
X01228205D01*
X01226935Y01026898D02*
Y01029438D01*
X01147410Y00990039D02*
X01149950D01*
X01148680Y00988769D02*
Y00991309D01*
X01140910Y00990039D02*
X01143450D01*
X01142180Y00988769D02*
Y00991309D01*
X01116363Y01002701D02*
X01118903D01*
X01117633Y01001431D02*
Y01003970D01*
X01109522Y01002701D02*
X01112062D01*
X01110792Y01001431D02*
Y01003970D01*
X00675741Y01539690D02*
X00678281D01*
X00677011Y01538420D02*
Y01540960D01*
X00916891Y01539690D02*
X00919431D01*
X00918161Y01538420D02*
Y01540960D01*
X00976801Y01539690D02*
X00979341D01*
X00978071Y01538420D02*
Y01540960D01*
X00599071Y01539690D02*
X00601611D01*
X00600341Y01538420D02*
Y01540960D01*
X00760382Y01539690D02*
X00762922D01*
X00761652Y01538420D02*
Y01540960D01*
X00841341Y01539690D02*
X00843882D01*
X00842611Y01538420D02*
Y01540960D01*
X00976801Y01520650D02*
X00979341D01*
X00978071Y01519380D02*
Y01521920D01*
X00916891Y01520650D02*
X00919431D01*
X00918161Y01519380D02*
Y01521920D01*
X00760382Y01520650D02*
X00762922D01*
X00761652Y01519380D02*
Y01521920D01*
X00841341Y01520650D02*
X00843882D01*
X00842611Y01519380D02*
Y01521920D01*
X00599071Y01520650D02*
X00601611D01*
X00600341Y01519380D02*
Y01521920D01*
X00675741Y01520650D02*
X00678281D01*
X00677011Y01519380D02*
Y01521920D01*
X01665596Y00994338D02*
X01668136D01*
X01666866Y00993068D02*
Y00995608D01*
X01744757Y00994338D02*
X01747297D01*
X01746027Y00993068D02*
Y00995608D01*
X01738797Y00994338D02*
X01741337D01*
X01740067Y00993068D02*
Y00995608D01*
X01668781Y01060132D02*
X01671321D01*
X01670051Y01058862D02*
Y01061402D01*
X01669150Y01070326D02*
X01671690D01*
X01670420Y01069056D02*
Y01071596D01*
X00946550Y00591487D02*
X00949090D01*
X00947820Y00590217D02*
Y00592757D01*
X00932972Y00576387D02*
X00935512D01*
X00934242Y00575117D02*
Y00577657D01*
X00908592Y00675401D02*
X00911132D01*
X00909862Y00674131D02*
Y00676671D01*
X00888730Y00675301D02*
X00891270D01*
X00890000Y00674031D02*
Y00676571D01*
X00923423Y00675073D02*
X00925963D01*
X00924693Y00673803D02*
Y00676344D01*
X00936559Y01007250D02*
X00939099D01*
X00937829Y01005980D02*
Y01008520D01*
X00884380Y01066488D02*
X00886920D01*
X00885650Y01065218D02*
Y01067758D01*
X00936559Y00996829D02*
X00939099D01*
X00937829Y00995558D02*
Y00998099D01*
X00913951Y00986764D02*
X00916491D01*
X00915221Y00985494D02*
Y00988034D01*
X00884846Y00986764D02*
X00887386D01*
X00886116Y00985494D02*
Y00988034D01*
X01060029Y01270000D02*
X01062569D01*
X01061299Y01268730D02*
Y01271270D01*
X01000120Y01270000D02*
X01002660D01*
X01001390Y01268730D02*
Y01271270D01*
X00924570Y01270000D02*
X00927110D01*
X00925840Y01268730D02*
Y01271270D01*
X00843610Y01270000D02*
X00846150D01*
X00844880Y01268730D02*
Y01271270D01*
X00758969Y01270000D02*
X00761509D01*
X00760239Y01268730D02*
Y01271270D01*
X00682300Y01270000D02*
X00684840D01*
X00683570Y01268730D02*
Y01271270D01*
X01018730Y01305000D02*
X01021270D01*
X01020000Y01303730D02*
Y01306270D01*
X00958821Y01305000D02*
X00961361D01*
X00960091Y01303730D02*
Y01306270D01*
X00883271Y01305000D02*
X00885811D01*
X00884541Y01303730D02*
Y01306270D01*
X00802311Y01305000D02*
X00804851D01*
X00803581Y01303730D02*
Y01306270D01*
X00717670Y01305000D02*
X00720210D01*
X00718940Y01303730D02*
Y01306270D01*
X00641001Y01305000D02*
X00643540D01*
X00642271Y01303730D02*
Y01306270D01*
X00971615Y01394304D02*
X00974155D01*
X00972885Y01393034D02*
Y01395574D01*
X00981460Y01345000D02*
X00983999D01*
X00982729Y01343730D02*
Y01346270D01*
X00921550Y01345000D02*
X00924090D01*
X00922820Y01343730D02*
Y01346270D01*
X00846001Y01345000D02*
X00848540D01*
X00847271Y01343730D02*
Y01346270D01*
X00765041Y01345000D02*
X00767581D01*
X00766311Y01343730D02*
Y01346270D01*
X00680400Y01345000D02*
X00682940D01*
X00681670Y01343730D02*
Y01346270D01*
X00603730Y01345000D02*
X00606270D01*
X00605000Y01343730D02*
Y01346270D01*
X01091515Y01616060D02*
X01094055D01*
X01092785Y01614790D02*
Y01617330D01*
X00996460Y01626680D02*
X00998999D01*
X00997729Y01625410D02*
Y01627950D01*
X00780041Y01626680D02*
X00782581D01*
X00781311Y01625410D02*
Y01627950D01*
X00936550Y01626680D02*
X00939090D01*
X00937820Y01625410D02*
Y01627950D01*
X00861001Y01626680D02*
X00863540D01*
X00862271Y01625410D02*
Y01627950D01*
X00618730Y01626680D02*
X00621270D01*
X00620000Y01625410D02*
Y01627950D01*
X00695400Y01626680D02*
X00697940D01*
X00696670Y01625410D02*
Y01627950D01*
X00903434Y01395000D02*
X00905974D01*
X00904704Y01393730D02*
Y01396270D01*
X00827884Y01395000D02*
X00830424D01*
X00829154Y01393730D02*
Y01396270D01*
X00746925Y01395000D02*
X00749465D01*
X00748195Y01393730D02*
Y01396270D01*
X00662284Y01395000D02*
X00664824D01*
X00663554Y01393730D02*
Y01396270D01*
X00585614Y01395000D02*
X00588154D01*
X00586884Y01393730D02*
Y01396270D01*
X00976801Y01461954D02*
X00979341D01*
X00978071Y01460684D02*
Y01463224D01*
X00916891Y01461954D02*
X00919431D01*
X00918161Y01460684D02*
Y01463224D01*
X00841341Y01461954D02*
X00843882D01*
X00842611Y01460684D02*
Y01463224D01*
X00760382Y01461954D02*
X00762922D01*
X00761652Y01460684D02*
Y01463224D01*
X00675741Y01461954D02*
X00678281D01*
X00677011Y01460684D02*
Y01463224D01*
X00599071Y01461954D02*
X00601611D01*
X00600341Y01460684D02*
Y01463224D01*
X01189298Y01483959D02*
X01191838D01*
X01190568Y01482689D02*
Y01485229D01*
X01645698Y00983718D02*
X01648238D01*
X01646968Y00982448D02*
Y00984988D01*
X01645514Y00994338D02*
X01648054D01*
X01646784Y00993068D02*
Y00995608D01*
X01333314Y01280139D02*
X01335854D01*
X01334584Y01278869D02*
Y01281409D01*
X01282873Y01330580D02*
X01285413D01*
X01284143Y01329310D02*
Y01331850D01*
X01443781Y00985957D02*
X01446321D01*
X01445051Y00984687D02*
Y00987227D01*
X01217903Y01469899D02*
X01220443D01*
X01219173Y01468629D02*
Y01471169D01*
X02155638Y00797543D02*
X02158178D01*
X02156908Y00796273D02*
Y00798813D01*
X01546103Y01064298D02*
X01548643D01*
X01547373Y01063028D02*
Y01065568D01*
X01760511Y00994338D02*
X01763051D01*
X01761781Y00993068D02*
Y00995608D01*
X01744355Y00982581D02*
X01746895D01*
X01745625Y00981311D02*
Y00983851D01*
X01758654Y01000866D02*
X01761194D01*
X01759924Y00999596D02*
Y01002136D01*
X01738797Y00982581D02*
X01741337D01*
X01740067Y00981311D02*
Y00983851D01*
X01750953Y01006466D02*
X01753493D01*
X01752223Y01005196D02*
Y01007736D01*
X01385729Y01249262D02*
X01388269D01*
X01386999Y01247992D02*
Y01250532D01*
X01747260Y01020653D02*
X01749800D01*
X01748530Y01019383D02*
Y01021923D01*
X01598730Y01020653D02*
X01601270D01*
X01600000Y01019383D02*
Y01021923D01*
X01544735Y01075333D02*
X01547275D01*
X01546005Y01074063D02*
Y01076603D01*
X01518013Y01085950D02*
X01520553D01*
X01519283Y01084680D02*
Y01087220D01*
X01316582Y01484254D02*
X01319122D01*
X01317852Y01482984D02*
Y01485524D01*
X01316582Y01504736D02*
X01319122D01*
X01317852Y01503466D02*
Y01506006D01*
X01316582Y01526683D02*
X01319122D01*
X01317852Y01525413D02*
Y01527953D01*
X01738797Y01015651D02*
X01741337D01*
X01740067Y01014381D02*
Y01016921D01*
X01733487Y01023506D02*
X01736027D01*
X01734757Y01022236D02*
Y01024776D01*
X01732218Y01035087D02*
X01734758D01*
X01733488Y01033817D02*
Y01036357D01*
X01231840Y00244690D02*
X01234380D01*
X01233110Y00243420D02*
Y00245960D01*
X01648653Y01045502D02*
X01651193D01*
X01649923Y01044232D02*
Y01046772D01*
X01648653Y01060132D02*
X01651193D01*
X01649923Y01058862D02*
Y01061402D01*
X01648212Y01086635D02*
X01650752D01*
X01649482Y01085365D02*
Y01087905D01*
X01438020Y00378676D02*
X01440560D01*
X01439290Y00377406D02*
Y00379946D01*
X01711564Y00471143D02*
X01714104D01*
X01712834Y00469873D02*
Y00472413D01*
X01706087Y00475103D02*
X01708627D01*
X01707357Y00473833D02*
Y00476373D01*
X01641728Y01072010D02*
X01644268D01*
X01642998Y01070740D02*
Y01073279D01*
X01637112Y01063426D02*
X01639652D01*
X01638382Y01062156D02*
Y01064696D01*
X01360330Y01352300D02*
X01362870D01*
X01361600Y01351030D02*
Y01353570D01*
X01220877Y00259864D02*
X01223417D01*
X01222147Y00258594D02*
Y00261134D01*
X01193999Y00259490D02*
X01196539D01*
X01195269Y00258220D02*
Y00260760D01*
X01506616Y00551187D02*
X01509156D01*
X01507886Y00549917D02*
Y00552457D01*
X01118818Y00539677D02*
X01121358D01*
X01120088Y00538407D02*
Y00540947D01*
X01203451Y00920546D02*
X01205991D01*
X01204721Y00919276D02*
Y00921815D01*
X01423225Y00709936D02*
X01425765D01*
X01424495Y00708665D02*
Y00711206D01*
X01174287Y01046002D02*
X01176827D01*
X01175557Y01044732D02*
Y01047272D01*
X01143354Y00571642D02*
X01145894D01*
X01144624Y00570372D02*
Y00572912D01*
X01145101Y00695286D02*
X01147641D01*
X01146371Y00694016D02*
Y00696556D01*
X01173204Y01053805D02*
X01175744D01*
X01174474Y01052535D02*
Y01055075D01*
X01145421Y00703056D02*
X01147961D01*
X01146691Y00701786D02*
Y00704326D01*
X01143554Y00563387D02*
X01146094D01*
X01144824Y00562117D02*
Y00564657D01*
X01222592Y00593865D02*
X01225132D01*
X01223862Y00592595D02*
Y00595135D01*
X01183344Y01249317D02*
X01185884D01*
X01184614Y01248047D02*
Y01250587D01*
X01236086Y00584985D02*
X01238626D01*
X01237356Y00583715D02*
Y00586255D01*
X01402602Y00578127D02*
X01405142D01*
X01403872Y00576857D02*
Y00579397D01*
X01477585Y01533553D02*
X01480125D01*
X01478855Y01532283D02*
Y01534823D01*
X01412094Y01467893D02*
X01414633D01*
X01413363Y01466623D02*
Y01469163D01*
X01579068Y01504693D02*
X01581608D01*
X01580338Y01503423D02*
Y01505963D01*
X01563894Y01560439D02*
X01566434D01*
X01565164Y01559169D02*
Y01561709D01*
X01767563Y00588867D02*
X01770103D01*
X01768833Y00587597D02*
Y00590137D01*
X01178558Y01204425D02*
X01181098D01*
X01179828Y01203155D02*
Y01205695D01*
X01318019Y01363391D02*
X01320559D01*
X01319289Y01362121D02*
Y01364660D01*
X01241970Y00709120D02*
X01244510D01*
X01243240Y00707850D02*
Y00710390D01*
X00938363Y00632700D02*
X00940903D01*
X00939633Y00631430D02*
Y00633970D01*
X01147161Y00607975D02*
X01149701D01*
X01148431Y00606705D02*
Y00609245D01*
X01147934Y00551692D02*
X01150474D01*
X01149204Y00550422D02*
Y00552962D01*
X02269957Y00635665D02*
X02272497D01*
X02271227Y00634395D02*
Y00636935D01*
X02262707Y00635665D02*
X02265247D01*
X02263977Y00634395D02*
Y00636935D01*
X02268645Y00684363D02*
X02271185D01*
X02269915Y00683093D02*
Y00685633D01*
X01321665Y00598905D02*
X01324205D01*
X01322935Y00597635D02*
Y00600175D01*
X01126540Y00747861D02*
X01129080D01*
X01127810Y00746591D02*
Y00749131D01*
X01114072Y01626680D02*
X01116612D01*
X01115342Y01625410D02*
Y01627950D01*
X00540148Y01631225D02*
X00542688D01*
X00541418Y01629955D02*
Y01632495D01*
X01114249Y01637300D02*
X01116789D01*
X01115519Y01636030D02*
Y01638570D01*
X01114249Y01616060D02*
X01116789D01*
X01115519Y01614790D02*
Y01617330D01*
X00789617Y00983717D02*
X00792157D01*
X00790887Y00982448D02*
Y00984987D01*
X01265541Y01100013D02*
X01268081D01*
X01266811Y01098743D02*
Y01101283D01*
X01286622Y01049398D02*
X01289162D01*
X01287892Y01048128D02*
Y01050668D01*
X01145421Y00709636D02*
X01147961D01*
X01146691Y00708366D02*
Y00710906D01*
X01261912Y00464617D02*
X01264452D01*
X01263182Y00463347D02*
Y00465887D01*
X00938730Y00568132D02*
X00941270D01*
X00940000Y00566862D02*
Y00569402D01*
X00927792Y00583997D02*
X00930332D01*
X00929062Y00582727D02*
Y00585267D01*
X01171353Y01096114D02*
X01173893D01*
X01172623Y01094844D02*
Y01097384D01*
X01140066Y00593791D02*
X01142606D01*
X01141336Y00592520D02*
Y00595061D01*
X01235370Y00600533D02*
X01237910D01*
X01236640Y00599263D02*
Y00601803D01*
X01182957Y00622791D02*
X01185497D01*
X01184227Y00621521D02*
Y00624061D01*
X01196326Y00683556D02*
X01198866D01*
X01197596Y00682286D02*
Y00684826D01*
X01145421Y00670474D02*
X01147961D01*
X01146691Y00669204D02*
Y00671744D01*
X01152627Y01083345D02*
X01155167D01*
X01153897Y01082075D02*
Y01084615D01*
X01109470Y00996214D02*
X01112010D01*
X01110740Y00994944D02*
Y00997484D01*
X01116311Y00996214D02*
X01118851D01*
X01117581Y00994944D02*
Y00997484D01*
X01109190Y00990179D02*
X01111730D01*
X01110460Y00988909D02*
Y00991449D01*
X01116032Y00990179D02*
X01118572D01*
X01117302Y00988909D02*
Y00991449D01*
X01062384Y00990179D02*
X01064924D01*
X01063654Y00988909D02*
Y00991449D01*
X01055543Y00990179D02*
X01058083D01*
X01056813Y00988909D02*
Y00991449D01*
X01181649Y00498683D02*
X01184189D01*
X01182919Y00497413D02*
Y00499953D01*
X01147667Y00498603D02*
X01150207D01*
X01148937Y00497333D02*
Y00499873D01*
X01159253Y00498603D02*
X01161793D01*
X01160523Y00497333D02*
Y00499873D01*
X01136605Y00498603D02*
X01139145D01*
X01137875Y00497333D02*
Y00499873D01*
X01171915Y00498683D02*
X01174455D01*
X01173185Y00497413D02*
Y00499953D01*
X01191395Y00498603D02*
X01193935D01*
X01192665Y00497333D02*
Y00499873D01*
X01118098Y00500279D02*
X01120638D01*
X01119368Y00499009D02*
Y00501549D01*
X01198915Y00492281D02*
X01201455D01*
X01200185Y00491011D02*
Y00493550D01*
X01179435Y00492361D02*
X01181975D01*
X01180705Y00491091D02*
Y00493631D01*
X01144125Y00492281D02*
X01146665D01*
X01145395Y00491011D02*
Y00493550D01*
X01097726Y00420083D02*
X01100266D01*
X01098996Y00418813D02*
Y00421353D01*
X01051948Y00420083D02*
X01054488D01*
X01053218Y00418813D02*
Y00421353D01*
X01059578Y00420083D02*
X01062118D01*
X01060848Y00418813D02*
Y00421353D01*
X01067207Y00420083D02*
X01069747D01*
X01068477Y00418813D02*
Y00421353D01*
X01074837Y00420083D02*
X01077377D01*
X01076107Y00418813D02*
Y00421353D01*
X01112985Y00420083D02*
X01115525D01*
X01114255Y00418813D02*
Y00421353D01*
X01082467Y00420083D02*
X01085006D01*
X01083736Y00418813D02*
Y00421353D01*
X01174022Y00420083D02*
X01176562D01*
X01175292Y00418813D02*
Y00421353D01*
X01166393Y00420083D02*
X01168933D01*
X01167663Y00418813D02*
Y00421353D01*
X01189282Y00420083D02*
X01191822D01*
X01190552Y00418813D02*
Y00421353D01*
X01120615Y00420083D02*
X01123155D01*
X01121885Y00418813D02*
Y00421353D01*
X01181652Y00420083D02*
X01184192D01*
X01182922Y00418813D02*
Y00421353D01*
X01128244Y00420083D02*
X01130784D01*
X01129514Y00418813D02*
Y00421353D01*
X01143504Y00420083D02*
X01146044D01*
X01144774Y00418813D02*
Y00421353D01*
X01105356Y00420083D02*
X01107896D01*
X01106626Y00418813D02*
Y00421353D01*
X01135874Y00420083D02*
X01138414D01*
X01137144Y00418813D02*
Y00421353D01*
X01158763Y00420083D02*
X01161303D01*
X01160033Y00418813D02*
Y00421353D01*
X01090096Y00420083D02*
X01092636D01*
X01091366Y00418813D02*
Y00421353D01*
X01151133Y00420083D02*
X01153673D01*
X01152403Y00418813D02*
Y00421353D01*
X01151133Y00432001D02*
X01153673D01*
X01152403Y00430731D02*
Y00433271D01*
X01090096Y00432001D02*
X01092636D01*
X01091366Y00430731D02*
Y00433271D01*
X01158763Y00432001D02*
X01161303D01*
X01160033Y00430731D02*
Y00433271D01*
X01135874Y00432001D02*
X01138414D01*
X01137144Y00430731D02*
Y00433271D01*
X01105356Y00432001D02*
X01107896D01*
X01106626Y00430731D02*
Y00433271D01*
X01143504Y00432001D02*
X01146044D01*
X01144774Y00430731D02*
Y00433271D01*
X01128244Y00432001D02*
X01130784D01*
X01129514Y00430731D02*
Y00433271D01*
X01181652Y00432001D02*
X01184192D01*
X01182922Y00430731D02*
Y00433271D01*
X01120615Y00432001D02*
X01123155D01*
X01121885Y00430731D02*
Y00433271D01*
X01189282Y00432001D02*
X01191822D01*
X01190552Y00430731D02*
Y00433271D01*
X01166393Y00432001D02*
X01168933D01*
X01167663Y00430731D02*
Y00433271D01*
X01174022Y00432001D02*
X01176562D01*
X01175292Y00430731D02*
Y00433271D01*
X01082467Y00432001D02*
X01085006D01*
X01083736Y00430731D02*
Y00433271D01*
X01112985Y00432001D02*
X01115525D01*
X01114255Y00430731D02*
Y00433271D01*
X01074837Y00432001D02*
X01077377D01*
X01076107Y00430731D02*
Y00433271D01*
X01067207Y00432001D02*
X01069747D01*
X01068477Y00430731D02*
Y00433271D01*
X01059578Y00432001D02*
X01062118D01*
X01060848Y00430731D02*
Y00433271D01*
X01051948Y00432001D02*
X01054488D01*
X01053218Y00430731D02*
Y00433271D01*
X01097726Y00432001D02*
X01100266D01*
X01098996Y00430731D02*
Y00433271D01*
X01791393Y01074218D02*
X01793934D01*
X01792664Y01072947D02*
Y01075488D01*
X01778724Y01048831D02*
X01781264D01*
X01779994Y01047561D02*
Y01050101D01*
X01778724Y01059095D02*
X01781264D01*
X01779994Y01057825D02*
Y01060365D01*
X01778539Y01067050D02*
X01781079D01*
X01779809Y01065780D02*
Y01068320D01*
X01778539Y01074297D02*
X01781079D01*
X01779809Y01073027D02*
Y01075567D01*
X01186346Y01343737D02*
X01188886D01*
X01187616Y01342466D02*
Y01345007D01*
X01184294Y01276143D02*
X01186834D01*
X01185564Y01274873D02*
Y01277413D01*
X01184360Y01283618D02*
X01186900D01*
X01185630Y01282348D02*
Y01284888D01*
X01184501Y01291977D02*
X01187040D01*
X01185770Y01290707D02*
Y01293247D01*
X01157178Y01276143D02*
X01159718D01*
X01158448Y01274873D02*
Y01277413D01*
X01157178Y01283618D02*
X01159718D01*
X01158448Y01282348D02*
Y01284888D01*
X01157178Y01291977D02*
X01159718D01*
X01158448Y01290707D02*
Y01293247D01*
X02217313Y00487958D02*
X02219853D01*
X02218583Y00486688D02*
Y00489229D01*
X02236813Y00487958D02*
X02239353D01*
X02238083Y00486688D02*
Y00489229D01*
X02230313Y00487958D02*
X02232853D01*
X02231583Y00486688D02*
Y00489229D01*
X02243313Y00487958D02*
X02245853D01*
X02244583Y00486688D02*
Y00489229D01*
X02249813Y00487958D02*
X02252353D01*
X02251083Y00486688D02*
Y00489229D01*
X02223813Y00487958D02*
X02226353D01*
X02225083Y00486688D02*
Y00489229D01*
X02256313Y00487958D02*
X02258853D01*
X02257583Y00486688D02*
Y00489229D01*
X02262813Y00487958D02*
X02265353D01*
X02264083Y00486688D02*
Y00489229D01*
X02183289Y00511146D02*
X02185829D01*
X02184559Y00509876D02*
Y00512416D01*
X02183289Y00517646D02*
X02185829D01*
X02184559Y00516376D02*
Y00518916D01*
X02183289Y00524146D02*
X02185829D01*
X02184559Y00522876D02*
Y00525416D01*
X02183289Y00530646D02*
X02185829D01*
X02184559Y00529376D02*
Y00531916D01*
X02183289Y00537146D02*
X02185829D01*
X02184559Y00535876D02*
Y00538416D01*
X02183289Y00543646D02*
X02185829D01*
X02184559Y00542376D02*
Y00544916D01*
X02183289Y00550146D02*
X02185829D01*
X02184559Y00548876D02*
Y00551416D01*
X02183289Y00556646D02*
X02185829D01*
X02184559Y00555376D02*
Y00557916D01*
X02177812Y00515106D02*
X02180352D01*
X02179082Y00513836D02*
Y00516376D01*
X02177812Y00521606D02*
X02180352D01*
X02179082Y00520336D02*
Y00522876D01*
X02177812Y00528106D02*
X02180352D01*
X02179082Y00526836D02*
Y00529376D01*
X02177812Y00534606D02*
X02180352D01*
X02179082Y00533336D02*
Y00535876D01*
X02177812Y00541106D02*
X02180352D01*
X02179082Y00539836D02*
Y00542376D01*
X02177812Y00547606D02*
X02180352D01*
X02179082Y00546336D02*
Y00548876D01*
X02177812Y00554106D02*
X02180352D01*
X02179082Y00552836D02*
Y00555376D01*
X01664708Y01282692D02*
X01667248D01*
X01665978Y01281422D02*
Y01283962D01*
X01537167Y01606225D02*
X01539707D01*
X01538437Y01604955D02*
Y01607495D01*
X01572264Y01504648D02*
X01574804D01*
X01573534Y01503378D02*
Y01505918D01*
X01607894Y01504648D02*
X01610434D01*
X01609164Y01503378D02*
Y01505918D01*
X01596464Y01504648D02*
X01599004D01*
X01597734Y01503378D02*
Y01505918D01*
X01664619Y01452837D02*
X01667159D01*
X01665889Y01451567D02*
Y01454107D01*
X01667186Y01462495D02*
X01669726D01*
X01668456Y01461225D02*
Y01463765D01*
X01706451Y01092318D02*
X01708991D01*
X01707721Y01091048D02*
Y01093588D01*
X01732395Y01071671D02*
X01734935D01*
X01733665Y01070401D02*
Y01072941D01*
X01663280Y01504648D02*
X01665820D01*
X01664550Y01503378D02*
Y01505918D01*
X01645793Y01504648D02*
X01648333D01*
X01647063Y01503378D02*
Y01505918D01*
X01173246Y01190186D02*
X01175786D01*
X01174516Y01188916D02*
Y01191456D01*
X01173986Y01196724D02*
X01176526D01*
X01175256Y01195454D02*
Y01197994D01*
X01262358Y01218262D02*
X01264898D01*
X01263628Y01216992D02*
Y01219532D01*
X01772281Y00737625D02*
X01774821D01*
X01773551Y00736355D02*
Y00738895D01*
X01758171Y00741368D02*
X01760711D01*
X01759441Y00740098D02*
Y00742638D01*
X01540116Y01312310D02*
X01542656D01*
X01541386Y01311040D02*
Y01313580D01*
X01517003Y01309916D02*
X01519543D01*
X01518273Y01308646D02*
Y01311186D01*
X01523518Y01317095D02*
X01526058D01*
X01524788Y01315825D02*
Y01318365D01*
X01706087Y00527103D02*
X01708627D01*
X01707357Y00525833D02*
Y00528373D01*
X01706087Y00533603D02*
X01708627D01*
X01707357Y00532333D02*
Y00534873D01*
X01706087Y00520603D02*
X01708627D01*
X01707357Y00519333D02*
Y00521873D01*
X01706087Y00514103D02*
X01708627D01*
X01707357Y00512833D02*
Y00515373D01*
X01706087Y00507603D02*
X01708627D01*
X01707357Y00506333D02*
Y00508873D01*
X01706087Y00501103D02*
X01708627D01*
X01707357Y00499833D02*
Y00502373D01*
X01706087Y00494603D02*
X01708627D01*
X01707357Y00493333D02*
Y00495873D01*
X01706087Y00488103D02*
X01708627D01*
X01707357Y00486833D02*
Y00489373D01*
X01706087Y00481603D02*
X01708627D01*
X01707357Y00480333D02*
Y00482873D01*
X01711564Y00523143D02*
X01714104D01*
X01712834Y00521873D02*
Y00524413D01*
X01711564Y00529643D02*
X01714104D01*
X01712834Y00528373D02*
Y00530913D01*
X01711564Y00516643D02*
X01714104D01*
X01712834Y00515373D02*
Y00517913D01*
X01711564Y00510143D02*
X01714104D01*
X01712834Y00508873D02*
Y00511413D01*
X01711564Y00536143D02*
X01714104D01*
X01712834Y00534873D02*
Y00537413D01*
X01711564Y00503643D02*
X01714104D01*
X01712834Y00502373D02*
Y00504913D01*
X01711564Y00497143D02*
X01714104D01*
X01712834Y00495873D02*
Y00498413D01*
X01711564Y00490643D02*
X01714104D01*
X01712834Y00489373D02*
Y00491913D01*
X01711564Y00484143D02*
X01714104D01*
X01712834Y00482873D02*
Y00485413D01*
X01711564Y00477643D02*
X01714104D01*
X01712834Y00476373D02*
Y00478913D01*
X01791088Y00447955D02*
X01793628D01*
X01792358Y00446685D02*
Y00449225D01*
X01784588Y00447955D02*
X01787128D01*
X01785858Y00446685D02*
Y00449225D01*
X01752088Y00447955D02*
X01754628D01*
X01753358Y00446685D02*
Y00449225D01*
X01778088Y00447955D02*
X01780628D01*
X01779358Y00446685D02*
Y00449225D01*
X01771588Y00447955D02*
X01774128D01*
X01772858Y00446685D02*
Y00449225D01*
X01758588Y00447955D02*
X01761128D01*
X01759858Y00446685D02*
Y00449225D01*
X01765088Y00447955D02*
X01767628D01*
X01766358Y00446685D02*
Y00449225D01*
X01745588Y00447955D02*
X01748128D01*
X01746858Y00446685D02*
Y00449225D01*
X01170267Y01109994D02*
X01172807D01*
X01171537Y01108724D02*
Y01111264D01*
X01112138Y01248457D02*
X01114678D01*
X01113408Y01247187D02*
Y01249727D01*
X01104508Y01248457D02*
X01107048D01*
X01105778Y01247187D02*
Y01249727D01*
X01081619Y01248457D02*
X01084159D01*
X01082889Y01247187D02*
Y01249727D01*
X01089249Y01248457D02*
X01091789D01*
X01090519Y01247187D02*
Y01249727D01*
X01058730Y01248457D02*
X01061270D01*
X01060000Y01247187D02*
Y01249727D01*
X01096878Y01248457D02*
X01099418D01*
X01098148Y01247187D02*
Y01249727D01*
X01066360Y01248457D02*
X01068900D01*
X01067630Y01247187D02*
Y01249727D01*
X01073989Y01248457D02*
X01076529D01*
X01075259Y01247187D02*
Y01249727D01*
X01027260Y01215292D02*
X01029800D01*
X01028530Y01214022D02*
Y01216562D01*
X01027260Y01222922D02*
X01029800D01*
X01028530Y01221652D02*
Y01224192D01*
X01027260Y01192403D02*
X01029800D01*
X01028530Y01191133D02*
Y01193673D01*
X01027260Y01230552D02*
X01029800D01*
X01028530Y01229282D02*
Y01231822D01*
X01027260Y01200033D02*
X01029800D01*
X01028530Y01198763D02*
Y01201303D01*
X01027260Y01207663D02*
X01029800D01*
X01028530Y01206393D02*
Y01208933D01*
X01027260Y01184774D02*
X01029800D01*
X01028530Y01183504D02*
Y01186044D01*
X01027260Y01177144D02*
X01029800D01*
X01028530Y01175874D02*
Y01178414D01*
X01034050Y01234457D02*
X01036590D01*
X01035320Y01233187D02*
Y01235727D01*
X01034050Y01226827D02*
X01036590D01*
X01035320Y01225557D02*
Y01228097D01*
X01034050Y01188679D02*
X01036590D01*
X01035320Y01187409D02*
Y01189949D01*
X01034050Y01181049D02*
X01036590D01*
X01035320Y01179779D02*
Y01182319D01*
X01034050Y01211568D02*
X01036590D01*
X01035320Y01210298D02*
Y01212838D01*
X01034050Y01173420D02*
X01036590D01*
X01035320Y01172150D02*
Y01174690D01*
X01034050Y01203938D02*
X01036590D01*
X01035320Y01202668D02*
Y01205208D01*
X01034050Y01219197D02*
X01036590D01*
X01035320Y01217927D02*
Y01220468D01*
X01034050Y01196309D02*
X01036590D01*
X01035320Y01195039D02*
Y01197579D01*
X01644496Y01452837D02*
X01647036D01*
X01645766Y01451567D02*
Y01454107D01*
X01619121Y01452932D02*
X01621661D01*
X01620391Y01451662D02*
Y01454202D01*
X01492475Y01085488D02*
X01495015D01*
X01493745Y01084218D02*
Y01086758D01*
X01492475Y01104966D02*
X01495015D01*
X01493745Y01103696D02*
Y01106236D01*
X01492475Y01072390D02*
X01495015D01*
X01493745Y01071120D02*
Y01073660D01*
X01426853Y01465690D02*
X01429393D01*
X01428123Y01464420D02*
Y01466960D01*
X01395685Y01463841D02*
X01398225D01*
X01396955Y01462571D02*
Y01465111D01*
X01387681Y01463693D02*
X01390221D01*
X01388951Y01462423D02*
Y01464963D01*
X01380886Y01463841D02*
X01383426D01*
X01382156Y01462571D02*
Y01465111D01*
X01389455Y01533924D02*
X01391995D01*
X01390725Y01532654D02*
Y01535194D01*
X01409651Y01532677D02*
X01412191D01*
X01410921Y01531407D02*
Y01533947D01*
X01444056Y01532677D02*
X01446596D01*
X01445326Y01531407D02*
Y01533947D01*
X01431661Y01437929D02*
X01434201D01*
X01432931Y01436659D02*
Y01439199D01*
X01370510Y01426692D02*
X01373050D01*
X01371780Y01425422D02*
Y01427962D01*
X01257179Y01367277D02*
X01259719D01*
X01258449Y01366007D02*
Y01368547D01*
X01518733Y01501580D02*
X01521273D01*
X01520003Y01500310D02*
Y01502850D01*
X01464707Y01414004D02*
X01467247D01*
X01465977Y01412734D02*
Y01415274D01*
X01452828Y01420714D02*
X01455368D01*
X01454098Y01419444D02*
Y01421984D01*
X01675613Y00707385D02*
X01678153D01*
X01676883Y00706115D02*
Y00708655D01*
X02172713Y00637067D02*
X02175253D01*
X02173983Y00635797D02*
Y00638337D01*
X01432033Y01471133D02*
X01434573D01*
X01433303Y01469863D02*
Y01472403D01*
X01269060Y01467628D02*
X01271600D01*
X01270330Y01466358D02*
Y01468898D01*
X01390836Y01470069D02*
X01393376D01*
X01392106Y01468799D02*
Y01471339D01*
X01417349Y01473329D02*
X01419889D01*
X01418619Y01472059D02*
Y01474599D01*
X01383880Y01470069D02*
X01386420D01*
X01385150Y01468799D02*
Y01471339D01*
X01216826Y01387881D02*
X01219366D01*
X01218096Y01386611D02*
Y01389151D01*
X01275515Y00245708D02*
X01278055D01*
X01276785Y00244438D02*
Y00246978D01*
X01159647Y00252943D02*
X01162187D01*
X01160917Y00251673D02*
Y00254213D01*
X02186784Y00973479D02*
X02189324D01*
X02188054Y00972209D02*
Y00974749D01*
X02186784Y00983479D02*
X02189324D01*
X02188054Y00982209D02*
Y00984749D01*
X02186784Y00993479D02*
X02189324D01*
X02188054Y00992209D02*
Y00994749D01*
X02190527Y00968407D02*
X02193067D01*
X02191797Y00967137D02*
Y00969677D01*
X02194303Y00963479D02*
X02196843D01*
X02195573Y00962209D02*
Y00964749D01*
X02186784Y00963479D02*
X02189324D01*
X02188054Y00962209D02*
Y00964749D01*
X02231899Y00973479D02*
X02234439D01*
X02233169Y00972209D02*
Y00974749D01*
X02224380Y00973479D02*
X02226920D01*
X02225650Y00972209D02*
Y00974749D01*
X02216861Y00973479D02*
X02219401D01*
X02218131Y00972209D02*
Y00974749D01*
X02235643Y00978407D02*
X02238183D01*
X02236913Y00977137D02*
Y00979677D01*
X02228123Y00978407D02*
X02230663D01*
X02229393Y00977137D02*
Y00979677D01*
X02220604Y00978407D02*
X02223144D01*
X02221874Y00977137D02*
Y00979677D01*
X02231899Y00983479D02*
X02234439D01*
X02233169Y00982209D02*
Y00984749D01*
X02216861Y00983479D02*
X02219401D01*
X02218131Y00982209D02*
Y00984749D01*
X02224380Y00983479D02*
X02226920D01*
X02225650Y00982209D02*
Y00984749D01*
X02228123Y00988407D02*
X02230663D01*
X02229393Y00987137D02*
Y00989677D01*
X02235643Y00988407D02*
X02238183D01*
X02236913Y00987137D02*
Y00989677D01*
X02235643Y00998407D02*
X02238183D01*
X02236913Y00997137D02*
Y00999677D01*
X02235643Y01008407D02*
X02238183D01*
X02236913Y01007137D02*
Y01009677D01*
X02235643Y01018407D02*
X02238183D01*
X02236913Y01017137D02*
Y01019677D01*
X02231899Y00993479D02*
X02234439D01*
X02233169Y00992209D02*
Y00994749D01*
X02231899Y01003479D02*
X02234439D01*
X02233169Y01002209D02*
Y01004749D01*
X02231899Y01013479D02*
X02234439D01*
X02233169Y01012209D02*
Y01014749D01*
X02228123Y00998407D02*
X02230663D01*
X02229393Y00997137D02*
Y00999677D01*
X02228123Y01018407D02*
X02230663D01*
X02229393Y01017137D02*
Y01019677D01*
X02228123Y01008407D02*
X02230663D01*
X02229393Y01007137D02*
Y01009677D01*
X02224380Y00993479D02*
X02226920D01*
X02225650Y00992209D02*
Y00994749D01*
X02224380Y01003479D02*
X02226920D01*
X02225650Y01002209D02*
Y01004749D01*
X02224380Y01013479D02*
X02226920D01*
X02225650Y01012209D02*
Y01014749D01*
X02220604Y00988407D02*
X02223144D01*
X02221874Y00987137D02*
Y00989677D01*
X02220604Y00998407D02*
X02223144D01*
X02221874Y00997137D02*
Y00999677D01*
X02220604Y01008407D02*
X02223144D01*
X02221874Y01007137D02*
Y01009677D01*
X02216861Y00993479D02*
X02219401D01*
X02218131Y00992209D02*
Y00994749D01*
X02216861Y01013479D02*
X02219401D01*
X02218131Y01012209D02*
Y01014749D01*
X02213085Y00988407D02*
X02215625D01*
X02214355Y00987137D02*
Y00989677D01*
X02213085Y00978407D02*
X02215625D01*
X02214355Y00977137D02*
Y00979677D01*
X02209341Y00973479D02*
X02211881D01*
X02210611Y00972209D02*
Y00974749D01*
X02209341Y00983479D02*
X02211881D01*
X02210611Y00982209D02*
Y00984749D01*
X02205566Y00988407D02*
X02208106D01*
X02206836Y00987137D02*
Y00989677D01*
X02205566Y00978407D02*
X02208106D01*
X02206836Y00977137D02*
Y00979677D01*
X02201822Y00983479D02*
X02204362D01*
X02203092Y00982209D02*
Y00984749D01*
X02201822Y00973479D02*
X02204362D01*
X02203092Y00972209D02*
Y00974749D01*
X02201822Y00993479D02*
X02204362D01*
X02203092Y00992209D02*
Y00994749D01*
X02198047Y00988407D02*
X02200587D01*
X02199317Y00987137D02*
Y00989677D01*
X02198047Y00978407D02*
X02200587D01*
X02199317Y00977137D02*
Y00979677D01*
X02194303Y00983479D02*
X02196843D01*
X02195573Y00982209D02*
Y00984749D01*
X02194303Y00973479D02*
X02196843D01*
X02195573Y00972209D02*
Y00974749D01*
X02194303Y00993479D02*
X02196843D01*
X02195573Y00992209D02*
Y00994749D01*
X02190527Y00988407D02*
X02193067D01*
X02191797Y00987137D02*
Y00989677D01*
X02190527Y00978407D02*
X02193067D01*
X02191797Y00977137D02*
Y00979677D01*
X02198047Y01018407D02*
X02200587D01*
X02199317Y01017137D02*
Y01019677D01*
X02194303Y01003479D02*
X02196843D01*
X02195573Y01002209D02*
Y01004749D01*
X02194303Y01013479D02*
X02196843D01*
X02195573Y01012209D02*
Y01014749D01*
X02190527Y00998407D02*
X02193067D01*
X02191797Y00997137D02*
Y00999677D01*
X02190527Y01008407D02*
X02193067D01*
X02191797Y01007137D02*
Y01009677D01*
X02190527Y01018407D02*
X02193067D01*
X02191797Y01017137D02*
Y01019677D01*
X02186784Y01003479D02*
X02189324D01*
X02188054Y01002209D02*
Y01004749D01*
X02186784Y01013479D02*
X02189324D01*
X02188054Y01012209D02*
Y01014749D01*
X02186784Y01023479D02*
X02189324D01*
X02188054Y01022209D02*
Y01024749D01*
X02213085Y01018407D02*
X02215625D01*
X02214355Y01017137D02*
Y01019677D01*
X02220604Y01018407D02*
X02223144D01*
X02221874Y01017137D02*
Y01019677D01*
X02224380Y01023479D02*
X02226920D01*
X02225650Y01022209D02*
Y01024749D01*
X02231899Y01023479D02*
X02234439D01*
X02233169Y01022209D02*
Y01024749D01*
X02216861Y01023479D02*
X02219401D01*
X02218131Y01022209D02*
Y01024749D01*
X02209341Y01023479D02*
X02211881D01*
X02210611Y01022209D02*
Y01024749D01*
X02201822Y01023479D02*
X02204362D01*
X02203092Y01022209D02*
Y01024749D01*
X02194303Y01023479D02*
X02196843D01*
X02195573Y01022209D02*
Y01024749D01*
X02209341Y00993479D02*
X02211881D01*
X02210611Y00992209D02*
Y00994749D01*
X02216861Y01003479D02*
X02219401D01*
X02218131Y01002209D02*
Y01004749D01*
X02213085Y00998407D02*
X02215625D01*
X02214355Y00997137D02*
Y00999677D01*
X02213085Y01008407D02*
X02215625D01*
X02214355Y01007137D02*
Y01009677D01*
X02209341Y01013479D02*
X02211881D01*
X02210611Y01012209D02*
Y01014749D01*
X02209341Y01003479D02*
X02211881D01*
X02210611Y01002209D02*
Y01004749D01*
X02205566Y01018407D02*
X02208106D01*
X02206836Y01017137D02*
Y01019677D01*
X02205566Y01008407D02*
X02208106D01*
X02206836Y01007137D02*
Y01009677D01*
X02205566Y00998407D02*
X02208106D01*
X02206836Y00997137D02*
Y00999677D01*
X02201822Y01003479D02*
X02204362D01*
X02203092Y01002209D02*
Y01004749D01*
X02201822Y01013479D02*
X02204362D01*
X02203092Y01012209D02*
Y01014749D01*
X02198047Y01008407D02*
X02200587D01*
X02199317Y01007137D02*
Y01009677D01*
X02198047Y00998407D02*
X02200587D01*
X02199317Y00997137D02*
Y00999677D01*
X02235643Y00968407D02*
X02238183D01*
X02236913Y00967137D02*
Y00969677D01*
X02231899Y00963479D02*
X02234439D01*
X02233169Y00962209D02*
Y00964749D01*
X02228123Y00968407D02*
X02230663D01*
X02229393Y00967137D02*
Y00969677D01*
X02224380Y00963479D02*
X02226920D01*
X02225650Y00962209D02*
Y00964749D01*
X02220604Y00968407D02*
X02223144D01*
X02221874Y00967137D02*
Y00969677D01*
X02216861Y00963479D02*
X02219401D01*
X02218131Y00962209D02*
Y00964749D01*
X02213085Y00968407D02*
X02215625D01*
X02214355Y00967137D02*
Y00969677D01*
X02209341Y00963479D02*
X02211881D01*
X02210611Y00962209D02*
Y00964749D01*
X02205566Y00968407D02*
X02208106D01*
X02206836Y00967137D02*
Y00969677D01*
X02201822Y00963479D02*
X02204362D01*
X02203092Y00962209D02*
Y00964749D01*
X02198047Y00968407D02*
X02200587D01*
X02199317Y00967137D02*
Y00969677D01*
X01676813Y00989028D02*
X01679353D01*
X01678083Y00987758D02*
Y00990298D01*
X01770435Y00983718D02*
X01772975D01*
X01771705Y00982448D02*
Y00984988D01*
X01776252Y00989028D02*
X01778792D01*
X01777522Y00987758D02*
Y00990298D01*
X01673397Y01050327D02*
X01675937D01*
X01674667Y01049057D02*
Y01051597D01*
X01678795Y01060132D02*
X01681335D01*
X01680065Y01058862D02*
Y01061402D01*
X01660286Y01084477D02*
X01662826D01*
X01661556Y01083207D02*
Y01085747D01*
X01344369Y01080513D02*
X01346909D01*
X01345639Y01079243D02*
Y01081783D01*
X01352041Y01092542D02*
X01354581D01*
X01353311Y01091272D02*
Y01093812D01*
X01352041Y01081171D02*
X01354581D01*
X01353311Y01079901D02*
Y01082441D01*
X01504960Y01072390D02*
X01507500D01*
X01506230Y01071120D02*
Y01073660D01*
X01505028Y01104966D02*
X01507568D01*
X01506298Y01103696D02*
Y01106236D01*
X01505028Y01085488D02*
X01507568D01*
X01506298Y01084218D02*
Y01086758D01*
X01135566Y01204065D02*
X01138106D01*
X01136836Y01202795D02*
Y01205335D01*
X01135566Y01193954D02*
X01138106D01*
X01136836Y01192684D02*
Y01195225D01*
X01135566Y01183844D02*
X01138106D01*
X01136836Y01182574D02*
Y01185114D01*
X01135566Y01173734D02*
X01138106D01*
X01136836Y01172464D02*
Y01175004D01*
X01135566Y01163624D02*
X01138106D01*
X01136836Y01162354D02*
Y01164894D01*
X00537232Y01494856D02*
X00539772D01*
X00538502Y01493586D02*
Y01496126D01*
X00446480Y01557503D02*
X00449020D01*
X00447750Y01556233D02*
Y01558773D01*
X01580758Y00561644D02*
X01583298D01*
X01582028Y00560374D02*
Y00562914D01*
X01433955Y01527316D02*
X01436495D01*
X01435225Y01526046D02*
Y01528586D01*
X01409651Y01526683D02*
X01412191D01*
X01410921Y01525413D02*
Y01527953D01*
X01395836Y01527316D02*
X01398376D01*
X01397106Y01526046D02*
Y01528586D01*
X01382347Y01527316D02*
X01384887D01*
X01383617Y01526046D02*
Y01528586D01*
X01084735Y00745265D02*
X01087275D01*
X01086005Y00743995D02*
Y00746535D01*
X01091235Y00745265D02*
X01093775D01*
X01092505Y00743995D02*
Y00746535D01*
X01071735Y00745265D02*
X01074275D01*
X01073005Y00743995D02*
Y00746535D01*
X01078235Y00745265D02*
X01080775D01*
X01079505Y00743995D02*
Y00746535D01*
X01052235Y00745265D02*
X01054775D01*
X01053505Y00743995D02*
Y00746535D01*
X01058735Y00745265D02*
X01061275D01*
X01060005Y00743995D02*
Y00746535D01*
X01065235Y00745265D02*
X01067775D01*
X01066505Y00743995D02*
Y00746535D01*
X01045735Y00745265D02*
X01048275D01*
X01047005Y00743995D02*
Y00746535D01*
X01039235Y00745265D02*
X01041775D01*
X01040505Y00743995D02*
Y00746535D01*
X01085711Y01240672D02*
X01088251D01*
X01086981Y01239402D02*
Y01241942D01*
X01078081Y01240672D02*
X01080621D01*
X01079351Y01239402D02*
Y01241942D01*
X01108600Y01240672D02*
X01111140D01*
X01109870Y01239402D02*
Y01241942D01*
X01070452Y01240672D02*
X01072992D01*
X01071722Y01239402D02*
Y01241942D01*
X01100970Y01240672D02*
X01103510D01*
X01102240Y01239402D02*
Y01241942D01*
X01093341Y01240672D02*
X01095881D01*
X01094611Y01239402D02*
Y01241942D01*
X01116229Y01240672D02*
X01118770D01*
X01117499Y01239402D02*
Y01241942D01*
X01123859Y01240672D02*
X01126399D01*
X01125129Y01239402D02*
Y01241942D01*
X01116475Y00667685D02*
X01119015D01*
X01117745Y00666415D02*
Y00668956D01*
X01116475Y00677796D02*
X01119015D01*
X01117745Y00676526D02*
Y00679066D01*
X01116475Y00687906D02*
X01119015D01*
X01117745Y00686636D02*
Y00689176D01*
X01116475Y00698016D02*
X01119015D01*
X01117745Y00696746D02*
Y00699286D01*
X01116475Y00708126D02*
X01119015D01*
X01117745Y00706856D02*
Y00709396D01*
X01853683Y00559895D02*
X01856223D01*
X01854953Y00558625D02*
Y00561165D01*
X01824727Y00558215D02*
X01827267D01*
X01825997Y00556945D02*
Y00559485D01*
X01750850Y00561698D02*
X01753390D01*
X01752120Y00560428D02*
Y00562967D01*
X01758254Y00562825D02*
X01760794D01*
X01759524Y00561555D02*
Y00564095D01*
X01765658Y00562825D02*
X01768198D01*
X01766928Y00561555D02*
Y00564095D01*
X01773062Y00562825D02*
X01775602D01*
X01774332Y00561555D02*
Y00564095D01*
X01780466Y00562825D02*
X01783006D01*
X01781736Y00561555D02*
Y00564095D01*
X01734979Y00578916D02*
X01737519D01*
X01736249Y00577646D02*
Y00580186D01*
X02258786Y00607388D02*
X02261326D01*
X02260056Y00606118D02*
Y00608658D01*
X02224989Y00605087D02*
X02227529D01*
X02226259Y00603817D02*
Y00606357D01*
X02235177Y00607388D02*
X02237717D01*
X02236447Y00606118D02*
Y00608658D01*
X02242377Y00607388D02*
X02244917D01*
X02243647Y00606118D02*
Y00608658D01*
X02249407Y00607388D02*
X02251947D01*
X02250677Y00606118D02*
Y00608658D01*
X01202372Y01228745D02*
X01204912D01*
X01203642Y01227475D02*
Y01230015D01*
X01091339Y01606729D02*
X01093879D01*
X01092609Y01605459D02*
Y01608000D01*
X01091515Y01596162D02*
X01094055D01*
X01092785Y01594892D02*
Y01597432D01*
X01091515Y01581180D02*
X01094055D01*
X01092785Y01579910D02*
Y01582450D01*
X01091515Y01564371D02*
X01094055D01*
X01092785Y01563101D02*
Y01565641D01*
X01114072Y01564365D02*
X01116612D01*
X01115342Y01563095D02*
Y01565635D01*
X01114072Y01581180D02*
X01116612D01*
X01115342Y01579910D02*
Y01582450D01*
X01114072Y01596004D02*
X01116612D01*
X01115342Y01594734D02*
Y01597274D01*
X01114249Y01606729D02*
X01116789D01*
X01115519Y01605459D02*
Y01608000D01*
X01153001Y01634530D02*
X01155541D01*
X01154271Y01633260D02*
Y01635800D01*
X01152559Y01624312D02*
X01155099D01*
X01153829Y01623042D02*
Y01625582D01*
X00142384Y01571453D02*
X00144924D01*
X00143654Y01570183D02*
Y01572723D01*
X00123295Y01518415D02*
X00125835D01*
X00124565Y01517145D02*
Y01519685D01*
X01632894Y01504648D02*
X01635434D01*
X01634164Y01503378D02*
Y01505918D01*
X01620793Y01504648D02*
X01623333D01*
X01622063Y01503378D02*
Y01505918D01*
X01468361Y01527316D02*
X01470901D01*
X01469631Y01526046D02*
Y01528586D01*
X01451158Y01527316D02*
X01453698D01*
X01452428Y01526046D02*
Y01528586D01*
X01248182Y01537037D02*
X01250722D01*
X01249452Y01535767D02*
Y01538307D01*
X01254769Y01543526D02*
X01257309D01*
X01256039Y01542256D02*
Y01544796D01*
X01340130Y01526683D02*
X01342670D01*
X01341400Y01525413D02*
Y01527953D01*
X01339876Y01537332D02*
X01342416D01*
X01341146Y01536062D02*
Y01538602D01*
X01518367Y01490665D02*
X01520907D01*
X01519637Y01489395D02*
Y01491935D01*
X01534936Y01501580D02*
X01537476D01*
X01536206Y01500310D02*
Y01502850D01*
X01453097Y01468087D02*
X01455637D01*
X01454367Y01466817D02*
Y01469357D01*
X01412170Y01387617D02*
X01414710D01*
X01413440Y01386348D02*
Y01388887D01*
X01363904Y01405931D02*
X01366444D01*
X01365174Y01404661D02*
Y01407201D01*
X01593541Y01452837D02*
X01596081D01*
X01594811Y01451567D02*
Y01454107D01*
X01600661Y01453044D02*
X01603201D01*
X01601931Y01451774D02*
Y01454314D01*
X01610550Y01453027D02*
X01613090D01*
X01611820Y01451757D02*
Y01454297D01*
X01637357Y01453027D02*
X01639897D01*
X01638627Y01451757D02*
Y01454297D01*
X01651241Y01453027D02*
X01653781D01*
X01652511Y01451757D02*
Y01454297D01*
X01625283Y01439911D02*
X01627823D01*
X01626553Y01438641D02*
Y01441181D01*
X01587159Y01426611D02*
X01589699D01*
X01588429Y01425341D02*
Y01427881D01*
X01618129Y01315004D02*
X01620669D01*
X01619399Y01313734D02*
Y01316274D01*
X01561913Y00488711D02*
X01564453D01*
X01563183Y00487441D02*
Y00489981D01*
X01603321Y00556233D02*
X01605861D01*
X01604591Y00554963D02*
Y00557503D01*
X01391441Y00639165D02*
X01393981D01*
X01392711Y00637895D02*
Y00640435D01*
X01495793Y00505105D02*
X01498333D01*
X01497063Y00503835D02*
Y00506375D01*
X01465410Y00564559D02*
X01467950D01*
X01466680Y00563289D02*
Y00565829D01*
X01506616Y00497779D02*
X01509156D01*
X01507886Y00496509D02*
Y00499049D01*
X01567039Y00502779D02*
X01569579D01*
X01568309Y00501509D02*
Y00504049D01*
X01196952Y01450226D02*
X01199492D01*
X01198222Y01448956D02*
Y01451496D01*
X01446521Y01378864D02*
X01449061D01*
X01447791Y01377594D02*
Y01380134D01*
X01458129Y01373364D02*
X01460670D01*
X01459400Y01372094D02*
Y01374634D01*
X01424090Y01401578D02*
X01426630D01*
X01425360Y01400308D02*
Y01402848D01*
X01117735Y01517501D02*
X01120275D01*
X01119005Y01516231D02*
Y01518771D01*
X01189680Y01466765D02*
X01192220D01*
X01190950Y01465495D02*
Y01468035D01*
X00132370Y01540042D02*
X00134910D01*
X00133640Y01538772D02*
Y01541312D01*
X00149350Y01632264D02*
X00151890D01*
X00150620Y01630994D02*
Y01633534D01*
X00164560Y01451982D02*
X00167100D01*
X00165830Y01450712D02*
Y01453252D01*
X00171060Y01451982D02*
X00173600D01*
X00172330Y01450712D02*
Y01453252D01*
X00161258Y01457062D02*
X00163798D01*
X00162528Y01455792D02*
Y01458332D01*
X00167758Y01457062D02*
X00170298D01*
X00169028Y01455792D02*
Y01458332D01*
X00174258Y01457062D02*
X00176798D01*
X00175528Y01455792D02*
Y01458332D01*
X00177560Y01451982D02*
X00180100D01*
X00178830Y01450712D02*
Y01453252D01*
X00337238Y01453721D02*
X00339778D01*
X00338508Y01452451D02*
Y01454991D01*
X00324238Y01453721D02*
X00326778D01*
X00325508Y01452451D02*
Y01454991D01*
X00330738Y01453721D02*
X00333278D01*
X00332008Y01452451D02*
Y01454991D01*
X00320936Y01458801D02*
X00323476D01*
X00322206Y01457531D02*
Y01460071D01*
X00327436Y01458801D02*
X00329976D01*
X00328706Y01457531D02*
Y01460071D01*
X00333936Y01458801D02*
X00336476D01*
X00335206Y01457531D02*
Y01460071D01*
X00551230Y01465616D02*
X00553770D01*
X00552500Y01464346D02*
Y01466886D01*
X01473111Y01026457D02*
X01475651D01*
X01474381Y01025187D02*
Y01027727D01*
X01475619Y01007363D02*
X01478159D01*
X01476889Y01006093D02*
Y01008633D01*
X01476100Y01072010D02*
X01478640D01*
X01477370Y01070740D02*
Y01073279D01*
X01224599Y01335303D02*
X01227139D01*
X01225869Y01334033D02*
Y01336573D01*
X01546853Y00611332D02*
X01549393D01*
X01548123Y00610062D02*
Y00612602D01*
X01743714Y01097104D02*
X01746254D01*
X01744984Y01095834D02*
Y01098373D01*
X01733411Y01116986D02*
X01735951D01*
X01734681Y01115716D02*
Y01118256D01*
X01632945Y01343431D02*
X01635485D01*
X01634215Y01342161D02*
Y01344701D01*
X02184492Y00645607D02*
X02187032D01*
X02185762Y00644337D02*
Y00646877D01*
X01748473Y00588777D02*
X01751013D01*
X01749743Y00587507D02*
Y00590047D01*
X01746065Y00639425D02*
X01748605D01*
X01747335Y00638155D02*
Y00640695D01*
X01730797Y00637660D02*
X01733337D01*
X01732067Y00636390D02*
Y00638930D01*
X01699285Y00637660D02*
X01701825D01*
X01700555Y00636390D02*
Y00638930D01*
X01716198Y00609770D02*
X01718737D01*
X01717467Y00608500D02*
Y00611040D01*
X01776426Y00630004D02*
X01778966D01*
X01777696Y00628734D02*
Y00631274D01*
X02198501Y00734674D02*
X02201040D01*
X02199771Y00733404D02*
Y00735944D01*
X02211357Y00793881D02*
X02213897D01*
X02212627Y00792611D02*
Y00795151D01*
X01493180Y01415553D02*
X01495720D01*
X01494450Y01414283D02*
Y01416823D01*
X01568256Y01351071D02*
X01570796D01*
X01569526Y01349801D02*
Y01352341D01*
X01574718Y01221690D02*
X01577258D01*
X01575988Y01220420D02*
Y01222960D01*
X01404988Y00600405D02*
X01407528D01*
X01406258Y00599135D02*
Y00601675D01*
X02275137Y00743484D02*
X02277677D01*
X02276407Y00742214D02*
Y00744754D01*
X02273766Y00734604D02*
X02276306D01*
X02275036Y00733334D02*
Y00735874D01*
X01393239Y00707192D02*
X01395779D01*
X01394509Y00705922D02*
Y00708462D01*
X00510496Y01554911D02*
X00513036D01*
X00511766Y01553641D02*
Y01556181D01*
X00793923Y00997155D02*
X00796463D01*
X00795193Y00995885D02*
Y00998425D01*
X00872925Y01070303D02*
X00875465D01*
X00874195Y01069033D02*
Y01071573D01*
X01356221Y01176421D02*
X01358761D01*
X01357491Y01175151D02*
Y01177691D01*
X01431874Y01123958D02*
X01434414D01*
X01433144Y01122688D02*
Y01125228D01*
X02338449Y00585948D02*
X02340989D01*
X02339719Y00584678D02*
Y00587218D01*
X02338449Y00557206D02*
X02340989D01*
X02339719Y00555936D02*
Y00558476D01*
X02338449Y00571577D02*
X02340989D01*
X02339719Y00570307D02*
Y00572847D01*
X02338449Y00564649D02*
X02340989D01*
X02339719Y00563379D02*
Y00565919D01*
X02338449Y00593391D02*
X02340989D01*
X02339719Y00592121D02*
Y00594661D01*
X02338449Y00579020D02*
X02340989D01*
X02339719Y00577750D02*
Y00580290D01*
X02292553Y00593340D02*
X02295093D01*
X02293823Y00592071D02*
Y00594610D01*
X02292553Y00564598D02*
X02295093D01*
X02293823Y00563328D02*
Y00565868D01*
X02292553Y00578969D02*
X02295093D01*
X02293823Y00577699D02*
Y00580239D01*
X02292553Y00572041D02*
X02295093D01*
X02293823Y00570771D02*
Y00573311D01*
X02292553Y00557346D02*
X02295093D01*
X02293823Y00556076D02*
Y00558616D01*
X02292553Y00586412D02*
X02295093D01*
X02293823Y00585142D02*
Y00587682D01*
X01858817Y00540603D02*
X01861357D01*
X01860087Y00539333D02*
Y00541873D01*
X01858817Y00555738D02*
X01861357D01*
X01860087Y00554468D02*
Y00557008D01*
X01858817Y00526231D02*
X01861357D01*
X01860087Y00524962D02*
Y00527501D01*
X01858817Y00519303D02*
X01861357D01*
X01860087Y00518033D02*
Y00520573D01*
X01858817Y00548046D02*
X01861357D01*
X01860087Y00546776D02*
Y00549316D01*
X01858817Y00533675D02*
X01861357D01*
X01860087Y00532405D02*
Y00534944D01*
X01819081Y00540324D02*
X01821620D01*
X01820350Y00539054D02*
Y00541594D01*
X01819081Y00554250D02*
X01821620D01*
X01820350Y00552980D02*
Y00555521D01*
X01819081Y00525953D02*
X01821620D01*
X01820350Y00524683D02*
Y00527223D01*
X01819081Y00519025D02*
X01821620D01*
X01820350Y00517755D02*
Y00520295D01*
X01819081Y00547767D02*
X01821620D01*
X01820350Y00546497D02*
Y00549037D01*
X01819081Y00533396D02*
X01821620D01*
X01820350Y00532126D02*
Y00534666D01*
X01146071Y00728216D02*
X01148611D01*
X01147341Y00726946D02*
Y00729486D01*
X01101892Y01214093D02*
X01104432D01*
X01103162Y01212823D02*
Y01215363D01*
X01079003Y01214093D02*
X01081543D01*
X01080273Y01212823D02*
Y01215363D01*
X01094262Y01214093D02*
X01096803D01*
X01095533Y01212823D02*
Y01215363D01*
X01124781Y01214093D02*
X01127321D01*
X01126051Y01212823D02*
Y01215363D01*
X01086633Y01214093D02*
X01089173D01*
X01087903Y01212823D02*
Y01215363D01*
X01117151Y01214093D02*
X01119691D01*
X01118421Y01212823D02*
Y01215363D01*
X01109522Y01214093D02*
X01112062D01*
X01110792Y01212823D02*
Y01215363D01*
X01071374Y01214093D02*
X01073913D01*
X01072644Y01212823D02*
Y01215363D01*
X01132411Y01214093D02*
X01134951D01*
X01133681Y01212823D02*
Y01215363D01*
X01063744Y01214093D02*
X01066284D01*
X01065014Y01212823D02*
Y01215363D01*
X01121057Y01207303D02*
X01123596D01*
X01122327Y01206033D02*
Y01208573D01*
X01113427Y01207303D02*
X01115967D01*
X01114697Y01206033D02*
Y01208573D01*
X01090538Y01207303D02*
X01093078D01*
X01091808Y01206033D02*
Y01208573D01*
X01098168Y01207303D02*
X01100708D01*
X01099438Y01206033D02*
Y01208573D01*
X01067649Y01207303D02*
X01070189D01*
X01068919Y01206033D02*
Y01208573D01*
X01105797Y01207303D02*
X01108337D01*
X01107067Y01206033D02*
Y01208573D01*
X01075279Y01207303D02*
X01077819D01*
X01076549Y01206033D02*
Y01208573D01*
X01082908Y01207303D02*
X01085448D01*
X01084178Y01206033D02*
Y01208573D01*
X01191178Y00930168D02*
X01193718D01*
X01192448Y00928898D02*
Y00931438D01*
X01197314Y00930168D02*
X01199854D01*
X01198584Y00928898D02*
Y00931438D01*
X01185042Y00930168D02*
X01187582D01*
X01186312Y00928898D02*
Y00931438D01*
X01203451Y00930168D02*
X01205991D01*
X01204721Y00928898D02*
Y00931438D01*
X01166773Y00492281D02*
X01169313D01*
X01168043Y00491011D02*
Y00493550D01*
X01155187Y00492281D02*
X01157727D01*
X01156457Y00491011D02*
Y00493550D01*
X01189169Y00492361D02*
X01191709D01*
X01190439Y00491091D02*
Y00493631D01*
X01069793Y00503470D02*
X01072333D01*
X01071063Y00502200D02*
Y00504740D01*
X01075606Y00498067D02*
X01078146D01*
X01076876Y00496797D02*
Y00499337D01*
X01076293Y00505448D02*
X01078833D01*
X01077563Y00504178D02*
Y00506718D01*
X01070115Y00509913D02*
X01072655D01*
X01071385Y00508643D02*
Y00511183D01*
X01063415Y00498165D02*
X01065955D01*
X01064685Y00496895D02*
Y00499435D01*
X01127826Y00499803D02*
X01130366D01*
X01129096Y00498533D02*
Y00501073D01*
X00724305Y01057683D02*
X00726845D01*
X00725575Y01056413D02*
Y01058953D01*
X00712841Y01028198D02*
X00715381D01*
X00714111Y01026928D02*
Y01029468D01*
X00744014Y00627510D02*
X00746554D01*
X00745284Y00626240D02*
Y00628780D01*
X00755401Y00656276D02*
X00757941D01*
X00756671Y00655006D02*
Y00657546D01*
X01687036Y00596690D02*
X01689577D01*
X01688306Y00595420D02*
Y00597960D01*
X01399899Y00546893D02*
X01402439D01*
X01401169Y00545623D02*
Y00548163D01*
X01483385Y00505105D02*
X01485925D01*
X01484655Y00503835D02*
Y00506375D01*
X01471837Y00487837D02*
X01474377D01*
X01473107Y00486567D02*
Y00489107D01*
X01457294Y00506922D02*
X01459834D01*
X01458564Y00505652D02*
Y00508192D01*
X01456899Y00494294D02*
X01459439D01*
X01458169Y00493024D02*
Y00495564D01*
X01442505Y00488646D02*
X01445045D01*
X01443775Y00487376D02*
Y00489916D01*
X01442251Y00500686D02*
X01444791D01*
X01443521Y00499416D02*
Y00501956D01*
X01502263Y00455455D02*
X01504803D01*
X01503533Y00454185D02*
Y00456725D01*
X01324208Y00538573D02*
X01326748D01*
X01325478Y00537304D02*
Y00539843D01*
X01333925Y00538823D02*
X01336465D01*
X01335195Y00537553D02*
Y00540093D01*
X01313468Y00514194D02*
X01316008D01*
X01314738Y00512924D02*
Y00515465D01*
X01310233Y00505698D02*
X01312773D01*
X01311503Y00504428D02*
Y00506968D01*
X01291304Y00503935D02*
X01293844D01*
X01292574Y00502665D02*
Y00505205D01*
X01278333Y00503935D02*
X01280873D01*
X01279603Y00502665D02*
Y00505205D01*
X01263240Y00503935D02*
X01265780D01*
X01264510Y00502665D02*
Y00505205D01*
X01347886Y01074579D02*
X01350426D01*
X01349156Y01073309D02*
Y01075849D01*
X01359788Y01118477D02*
X01362328D01*
X01361058Y01117207D02*
Y01119747D01*
X01368252Y01118632D02*
X01370792D01*
X01369522Y01117362D02*
Y01119902D01*
X01347886Y01085950D02*
X01350426D01*
X01349156Y01084680D02*
Y01087220D01*
X01307796Y01078029D02*
X01310336D01*
X01309066Y01076759D02*
Y01079299D01*
X01350585Y01036288D02*
X01353125D01*
X01351855Y01035018D02*
Y01037558D01*
X00926534Y01014564D02*
X00929074D01*
X00927804Y01013294D02*
Y01015834D01*
X00921224Y00998472D02*
X00923764D01*
X00922494Y00997202D02*
Y00999742D01*
X00921513Y00605513D02*
X00924053D01*
X00922783Y00604243D02*
Y00606782D01*
X02249811Y00695446D02*
X02252351D01*
X02251081Y00694176D02*
Y00696716D01*
X01794736Y00589353D02*
X01797276D01*
X01796006Y00588083D02*
Y00590623D01*
X01788174Y00588863D02*
X01790714D01*
X01789444Y00587593D02*
Y00590133D01*
X02215718Y00690984D02*
X02218258D01*
X02216988Y00689714D02*
Y00692253D01*
X02211210Y00630486D02*
X02213750D01*
X02212480Y00629216D02*
Y00631756D01*
X02211357Y00617339D02*
X02213897D01*
X02212627Y00616069D02*
Y00618609D01*
X02188992Y00615356D02*
X02191532D01*
X02190262Y00614086D02*
Y00616627D01*
X01308386Y00766304D02*
X01310926D01*
X01309656Y00765034D02*
Y00767574D01*
X01328395Y00766304D02*
X01330935D01*
X01329665Y00765034D02*
Y00767574D01*
X01378418Y00766304D02*
X01380958D01*
X01379688Y00765034D02*
Y00767574D01*
X01318391Y00766304D02*
X01320931D01*
X01319661Y00765034D02*
Y00767574D01*
X01418436Y00766304D02*
X01420976D01*
X01419706Y00765034D02*
Y00767574D01*
X01348404Y00766304D02*
X01350944D01*
X01349674Y00765034D02*
Y00767574D01*
X01338400Y00766304D02*
X01340940D01*
X01339670Y00765034D02*
Y00767574D01*
X01398427Y00766304D02*
X01400967D01*
X01399697Y00765034D02*
Y00767574D01*
X01408431Y00766304D02*
X01410971D01*
X01409701Y00765034D02*
Y00767574D01*
X01388422Y00766304D02*
X01390962D01*
X01389692Y00765034D02*
Y00767574D01*
X01358409Y00766304D02*
X01360949D01*
X01359679Y00765034D02*
Y00767574D01*
X01368413Y00766304D02*
X01370953D01*
X01369683Y00765034D02*
Y00767574D01*
X01373568Y00761304D02*
X01376108D01*
X01374838Y00760034D02*
Y00762574D01*
X01363563Y00761304D02*
X01366103D01*
X01364833Y00760034D02*
Y00762574D01*
X01393577Y00761304D02*
X01396117D01*
X01394847Y00760034D02*
Y00762574D01*
X01413586Y00761304D02*
X01416126D01*
X01414856Y00760034D02*
Y00762574D01*
X01403581Y00761304D02*
X01406121D01*
X01404851Y00760034D02*
Y00762574D01*
X01343554Y00761304D02*
X01346094D01*
X01344824Y00760034D02*
Y00762574D01*
X01353559Y00761304D02*
X01356099D01*
X01354829Y00760034D02*
Y00762574D01*
X01423590Y00761304D02*
X01426130D01*
X01424860Y00760034D02*
Y00762574D01*
X01323545Y00761304D02*
X01326085D01*
X01324815Y00760034D02*
Y00762574D01*
X01383572Y00761304D02*
X01386112D01*
X01384842Y00760034D02*
Y00762574D01*
X01333550Y00761304D02*
X01336090D01*
X01334820Y00760034D02*
Y00762574D01*
X01313541Y00761304D02*
X01316081D01*
X01314811Y00760034D02*
Y00762574D01*
X01322664Y00886215D02*
X01325204D01*
X01323934Y00884945D02*
Y00887485D01*
X01342673Y00886215D02*
X01345213D01*
X01343943Y00884945D02*
Y00887485D01*
X01392696Y00886215D02*
X01395236D01*
X01393966Y00884945D02*
Y00887485D01*
X01332669Y00886215D02*
X01335209D01*
X01333939Y00884945D02*
Y00887485D01*
X01432714Y00886215D02*
X01435254D01*
X01433984Y00884945D02*
Y00887485D01*
X01362682Y00886215D02*
X01365222D01*
X01363952Y00884945D02*
Y00887485D01*
X01352678Y00886215D02*
X01355218D01*
X01353948Y00884945D02*
Y00887485D01*
X01412705Y00886215D02*
X01415245D01*
X01413975Y00884945D02*
Y00887485D01*
X01422710Y00886215D02*
X01425249D01*
X01423979Y00884945D02*
Y00887485D01*
X01402700Y00886215D02*
X01405240D01*
X01403970Y00884945D02*
Y00887485D01*
X01372687Y00886215D02*
X01375227D01*
X01373957Y00884945D02*
Y00887485D01*
X01382691Y00886215D02*
X01385231D01*
X01383961Y00884945D02*
Y00887485D01*
X01377537Y00891215D02*
X01380077D01*
X01378807Y00889945D02*
Y00892485D01*
X01367532Y00891215D02*
X01370072D01*
X01368802Y00889945D02*
Y00892485D01*
X01397546Y00891215D02*
X01400086D01*
X01398816Y00889945D02*
Y00892485D01*
X01417555Y00891215D02*
X01420095D01*
X01418825Y00889945D02*
Y00892485D01*
X01407551Y00891215D02*
X01410090D01*
X01408820Y00889945D02*
Y00892485D01*
X01347523Y00891215D02*
X01350063D01*
X01348793Y00889945D02*
Y00892485D01*
X01357528Y00891215D02*
X01360068D01*
X01358798Y00889945D02*
Y00892485D01*
X01427560Y00891215D02*
X01430100D01*
X01428830Y00889945D02*
Y00892485D01*
X01327514Y00891215D02*
X01330054D01*
X01328784Y00889945D02*
Y00892485D01*
X01387541Y00891215D02*
X01390081D01*
X01388811Y00889945D02*
Y00892485D01*
X01337519Y00891215D02*
X01340059D01*
X01338789Y00889945D02*
Y00892485D01*
X02373214Y00677796D02*
X02375754D01*
X02374484Y00676526D02*
Y00679066D01*
X02373214Y00617643D02*
X02375754D01*
X02374484Y00616373D02*
Y00618913D01*
X02373214Y00632681D02*
X02375754D01*
X02374484Y00631411D02*
Y00633951D01*
X02373214Y00662758D02*
X02375754D01*
X02374484Y00661488D02*
Y00664028D01*
X02373214Y00655239D02*
X02375754D01*
X02374484Y00653969D02*
Y00656509D01*
X02373214Y00640200D02*
X02375754D01*
X02374484Y00638930D02*
Y00641470D01*
X02373214Y00610124D02*
X02375754D01*
X02374484Y00608854D02*
Y00611394D01*
X02373214Y00625162D02*
X02375754D01*
X02374484Y00623892D02*
Y00626432D01*
X02373214Y00647720D02*
X02375754D01*
X02374484Y00646450D02*
Y00648990D01*
X02373214Y00670277D02*
X02375754D01*
X02374484Y00669007D02*
Y00671547D01*
X02373214Y00595085D02*
X02375754D01*
X02374484Y00593815D02*
Y00596355D01*
X02373214Y00587566D02*
X02375754D01*
X02374484Y00586296D02*
Y00588836D01*
X02373214Y00580047D02*
X02375754D01*
X02374484Y00578777D02*
Y00581317D01*
X02373214Y00602604D02*
X02375754D01*
X02374484Y00601334D02*
Y00603875D01*
X02373214Y00572528D02*
X02375754D01*
X02374484Y00571258D02*
Y00573798D01*
X02383214Y00572528D02*
X02385754D01*
X02384484Y00571258D02*
Y00573798D01*
X02383214Y00602604D02*
X02385754D01*
X02384484Y00601334D02*
Y00603875D01*
X02383214Y00580047D02*
X02385754D01*
X02384484Y00578777D02*
Y00581317D01*
X02383214Y00587566D02*
X02385754D01*
X02384484Y00586296D02*
Y00588836D01*
X02383214Y00595085D02*
X02385754D01*
X02384484Y00593815D02*
Y00596355D01*
X02383214Y00670277D02*
X02385754D01*
X02384484Y00669007D02*
Y00671547D01*
X02383214Y00647720D02*
X02385754D01*
X02384484Y00646450D02*
Y00648990D01*
X02383214Y00625162D02*
X02385754D01*
X02384484Y00623892D02*
Y00626432D01*
X02383214Y00610124D02*
X02385754D01*
X02384484Y00608854D02*
Y00611394D01*
X02383214Y00640200D02*
X02385754D01*
X02384484Y00638930D02*
Y00641470D01*
X02383214Y00655239D02*
X02385754D01*
X02384484Y00653969D02*
Y00656509D01*
X02383214Y00662758D02*
X02385754D01*
X02384484Y00661488D02*
Y00664028D01*
X02383214Y00632681D02*
X02385754D01*
X02384484Y00631411D02*
Y00633951D01*
X02383214Y00617643D02*
X02385754D01*
X02384484Y00616373D02*
Y00618913D01*
X02383214Y00677796D02*
X02385754D01*
X02384484Y00676526D02*
Y00679066D01*
X02393214Y00572528D02*
X02395754D01*
X02394484Y00571258D02*
Y00573798D01*
X02393214Y00602604D02*
X02395754D01*
X02394484Y00601334D02*
Y00603875D01*
X02393214Y00580047D02*
X02395754D01*
X02394484Y00578777D02*
Y00581317D01*
X02393214Y00587566D02*
X02395754D01*
X02394484Y00586296D02*
Y00588836D01*
X02393214Y00595085D02*
X02395754D01*
X02394484Y00593815D02*
Y00596355D01*
X02393214Y00670277D02*
X02395754D01*
X02394484Y00669007D02*
Y00671547D01*
X02393214Y00647720D02*
X02395754D01*
X02394484Y00646450D02*
Y00648990D01*
X02393214Y00625162D02*
X02395754D01*
X02394484Y00623892D02*
Y00626432D01*
X02393214Y00610124D02*
X02395754D01*
X02394484Y00608854D02*
Y00611394D01*
X02393214Y00640200D02*
X02395754D01*
X02394484Y00638930D02*
Y00641470D01*
X02393214Y00655239D02*
X02395754D01*
X02394484Y00653969D02*
Y00656509D01*
X02393214Y00662758D02*
X02395754D01*
X02394484Y00661488D02*
Y00664028D01*
X02393214Y00632681D02*
X02395754D01*
X02394484Y00631411D02*
Y00633951D01*
X02393214Y00617643D02*
X02395754D01*
X02394484Y00616373D02*
Y00618913D01*
X02393214Y00677796D02*
X02395754D01*
X02394484Y00676526D02*
Y00679066D01*
X02403214Y00572528D02*
X02405754D01*
X02404484Y00571258D02*
Y00573798D01*
X02403214Y00602604D02*
X02405754D01*
X02404484Y00601334D02*
Y00603875D01*
X02403214Y00580047D02*
X02405754D01*
X02404484Y00578777D02*
Y00581317D01*
X02403214Y00587566D02*
X02405754D01*
X02404484Y00586296D02*
Y00588836D01*
X02403214Y00595085D02*
X02405754D01*
X02404484Y00593815D02*
Y00596355D01*
X02403214Y00670277D02*
X02405754D01*
X02404484Y00669007D02*
Y00671547D01*
X02403214Y00647720D02*
X02405754D01*
X02404484Y00646450D02*
Y00648990D01*
X02403214Y00625162D02*
X02405754D01*
X02404484Y00623892D02*
Y00626432D01*
X02403214Y00610124D02*
X02405754D01*
X02404484Y00608854D02*
Y00611394D01*
X02403214Y00640200D02*
X02405754D01*
X02404484Y00638930D02*
Y00641470D01*
X02403214Y00655239D02*
X02405754D01*
X02404484Y00653969D02*
Y00656509D01*
X02403214Y00662758D02*
X02405754D01*
X02404484Y00661488D02*
Y00664028D01*
X02403214Y00632681D02*
X02405754D01*
X02404484Y00631411D02*
Y00633951D01*
X02403214Y00617643D02*
X02405754D01*
X02404484Y00616373D02*
Y00618913D01*
X02403214Y00677796D02*
X02405754D01*
X02404484Y00676526D02*
Y00679066D01*
X02413214Y00572528D02*
X02415754D01*
X02414484Y00571258D02*
Y00573798D01*
X02413214Y00602604D02*
X02415754D01*
X02414484Y00601334D02*
Y00603875D01*
X02413214Y00580047D02*
X02415754D01*
X02414484Y00578777D02*
Y00581317D01*
X02413214Y00587566D02*
X02415754D01*
X02414484Y00586296D02*
Y00588836D01*
X02413214Y00595085D02*
X02415754D01*
X02414484Y00593815D02*
Y00596355D01*
X02413214Y00670277D02*
X02415754D01*
X02414484Y00669007D02*
Y00671547D01*
X02413214Y00647720D02*
X02415754D01*
X02414484Y00646450D02*
Y00648990D01*
X02413214Y00625162D02*
X02415754D01*
X02414484Y00623892D02*
Y00626432D01*
X02413214Y00610124D02*
X02415754D01*
X02414484Y00608854D02*
Y00611394D01*
X02413214Y00640200D02*
X02415754D01*
X02414484Y00638930D02*
Y00641470D01*
X02413214Y00655239D02*
X02415754D01*
X02414484Y00653969D02*
Y00656509D01*
X02413214Y00662758D02*
X02415754D01*
X02414484Y00661488D02*
Y00664028D01*
X02413214Y00632681D02*
X02415754D01*
X02414484Y00631411D02*
Y00633951D01*
X02413214Y00617643D02*
X02415754D01*
X02414484Y00616373D02*
Y00618913D01*
X02413214Y00677796D02*
X02415754D01*
X02414484Y00676526D02*
Y00679066D01*
X02423214Y00572528D02*
X02425754D01*
X02424484Y00571258D02*
Y00573798D01*
X02423214Y00602604D02*
X02425754D01*
X02424484Y00601334D02*
Y00603875D01*
X02423214Y00580047D02*
X02425754D01*
X02424484Y00578777D02*
Y00581317D01*
X02423214Y00587566D02*
X02425754D01*
X02424484Y00586296D02*
Y00588836D01*
X02423214Y00595085D02*
X02425754D01*
X02424484Y00593815D02*
Y00596355D01*
X02423214Y00670277D02*
X02425754D01*
X02424484Y00669007D02*
Y00671547D01*
X02423214Y00647720D02*
X02425754D01*
X02424484Y00646450D02*
Y00648990D01*
X02423214Y00625162D02*
X02425754D01*
X02424484Y00623892D02*
Y00626432D01*
X02423214Y00610124D02*
X02425754D01*
X02424484Y00608854D02*
Y00611394D01*
X02423214Y00640200D02*
X02425754D01*
X02424484Y00638930D02*
Y00641470D01*
X02423214Y00655239D02*
X02425754D01*
X02424484Y00653969D02*
Y00656509D01*
X02423214Y00662758D02*
X02425754D01*
X02424484Y00661488D02*
Y00664028D01*
X02423214Y00632681D02*
X02425754D01*
X02424484Y00631411D02*
Y00633951D01*
X02423214Y00617643D02*
X02425754D01*
X02424484Y00616373D02*
Y00618913D01*
X02423214Y00677796D02*
X02425754D01*
X02424484Y00676526D02*
Y00679066D01*
X02433214Y00572528D02*
X02435754D01*
X02434484Y00571258D02*
Y00573798D01*
X02433214Y00602604D02*
X02435754D01*
X02434484Y00601334D02*
Y00603875D01*
X02433214Y00580047D02*
X02435754D01*
X02434484Y00578777D02*
Y00581317D01*
X02433214Y00587566D02*
X02435754D01*
X02434484Y00586296D02*
Y00588836D01*
X02433214Y00595085D02*
X02435754D01*
X02434484Y00593815D02*
Y00596355D01*
X02433214Y00670277D02*
X02435754D01*
X02434484Y00669007D02*
Y00671547D01*
X02433214Y00647720D02*
X02435754D01*
X02434484Y00646450D02*
Y00648990D01*
X02433214Y00625162D02*
X02435754D01*
X02434484Y00623892D02*
Y00626432D01*
X02433214Y00610124D02*
X02435754D01*
X02434484Y00608854D02*
Y00611394D01*
X02433214Y00640200D02*
X02435754D01*
X02434484Y00638930D02*
Y00641470D01*
X02433214Y00655239D02*
X02435754D01*
X02434484Y00653969D02*
Y00656509D01*
X02433214Y00662758D02*
X02435754D01*
X02434484Y00661488D02*
Y00664028D01*
X02433214Y00632681D02*
X02435754D01*
X02434484Y00631411D02*
Y00633951D01*
X02433214Y00617643D02*
X02435754D01*
X02434484Y00616373D02*
Y00618913D01*
X02433214Y00677796D02*
X02435754D01*
X02434484Y00676526D02*
Y00679066D01*
X02443214Y00572528D02*
X02445754D01*
X02444484Y00571258D02*
Y00573798D01*
X02443214Y00602604D02*
X02445754D01*
X02444484Y00601334D02*
Y00603875D01*
X02443214Y00580047D02*
X02445754D01*
X02444484Y00578777D02*
Y00581317D01*
X02443214Y00587566D02*
X02445754D01*
X02444484Y00586296D02*
Y00588836D01*
X02443214Y00595085D02*
X02445754D01*
X02444484Y00593815D02*
Y00596355D01*
X02443214Y00670277D02*
X02445754D01*
X02444484Y00669007D02*
Y00671547D01*
X02443214Y00647720D02*
X02445754D01*
X02444484Y00646450D02*
Y00648990D01*
X02443214Y00625162D02*
X02445754D01*
X02444484Y00623892D02*
Y00626432D01*
X02443214Y00610124D02*
X02445754D01*
X02444484Y00608854D02*
Y00611394D01*
X02443214Y00640200D02*
X02445754D01*
X02444484Y00638930D02*
Y00641470D01*
X02443214Y00655239D02*
X02445754D01*
X02444484Y00653969D02*
Y00656509D01*
X02443214Y00662758D02*
X02445754D01*
X02444484Y00661488D02*
Y00664028D01*
X02443214Y00632681D02*
X02445754D01*
X02444484Y00631411D02*
Y00633951D01*
X02443214Y00617643D02*
X02445754D01*
X02444484Y00616373D02*
Y00618913D01*
X02443214Y00677796D02*
X02445754D01*
X02444484Y00676526D02*
Y00679066D01*
X02453214Y00572528D02*
X02455754D01*
X02454484Y00571258D02*
Y00573798D01*
X02453214Y00602604D02*
X02455754D01*
X02454484Y00601334D02*
Y00603875D01*
X02453214Y00580047D02*
X02455754D01*
X02454484Y00578777D02*
Y00581317D01*
X02453214Y00587566D02*
X02455754D01*
X02454484Y00586296D02*
Y00588836D01*
X02453214Y00595085D02*
X02455754D01*
X02454484Y00593815D02*
Y00596355D01*
X02453214Y00670277D02*
X02455754D01*
X02454484Y00669007D02*
Y00671547D01*
X02453214Y00647720D02*
X02455754D01*
X02454484Y00646450D02*
Y00648990D01*
X02453214Y00625162D02*
X02455754D01*
X02454484Y00623892D02*
Y00626432D01*
X02453214Y00610124D02*
X02455754D01*
X02454484Y00608854D02*
Y00611394D01*
X02453214Y00640200D02*
X02455754D01*
X02454484Y00638930D02*
Y00641470D01*
X02453214Y00655239D02*
X02455754D01*
X02454484Y00653969D02*
Y00656509D01*
X02453214Y00662758D02*
X02455754D01*
X02454484Y00661488D02*
Y00664028D01*
X02453214Y00632681D02*
X02455754D01*
X02454484Y00631411D02*
Y00633951D01*
X02453214Y00617643D02*
X02455754D01*
X02454484Y00616373D02*
Y00618913D01*
X02453214Y00677796D02*
X02455754D01*
X02454484Y00676526D02*
Y00679066D01*
X02463147Y00572532D02*
X02465687D01*
X02464417Y00571262D02*
Y00573802D01*
X02463147Y00602608D02*
X02465687D01*
X02464417Y00601338D02*
Y00603878D01*
X02463147Y00580051D02*
X02465687D01*
X02464417Y00578781D02*
Y00581321D01*
X02463147Y00587570D02*
X02465687D01*
X02464417Y00586300D02*
Y00588840D01*
X02463147Y00595089D02*
X02465687D01*
X02464417Y00593819D02*
Y00596359D01*
X02463147Y00670281D02*
X02465687D01*
X02464417Y00669011D02*
Y00671551D01*
X02463147Y00647723D02*
X02465687D01*
X02464417Y00646453D02*
Y00648994D01*
X02463147Y00625166D02*
X02465687D01*
X02464417Y00623896D02*
Y00626436D01*
X02463147Y00610128D02*
X02465687D01*
X02464417Y00608858D02*
Y00611398D01*
X02463147Y00640204D02*
X02465687D01*
X02464417Y00638934D02*
Y00641474D01*
X02463147Y00655243D02*
X02465687D01*
X02464417Y00653973D02*
Y00656513D01*
X02463147Y00662762D02*
X02465687D01*
X02464417Y00661492D02*
Y00664032D01*
X02463147Y00632685D02*
X02465687D01*
X02464417Y00631415D02*
Y00633955D01*
X02463147Y00617647D02*
X02465687D01*
X02464417Y00616377D02*
Y00618917D01*
X02463147Y00677800D02*
X02465687D01*
X02464417Y00676530D02*
Y00679070D01*
X02468075Y00681576D02*
X02470615D01*
X02469345Y00680306D02*
Y00682846D01*
X02468075Y00621422D02*
X02470615D01*
X02469345Y00620152D02*
Y00622692D01*
X02468075Y00636461D02*
X02470615D01*
X02469345Y00635191D02*
Y00637731D01*
X02468075Y00666537D02*
X02470615D01*
X02469345Y00665267D02*
Y00667807D01*
X02468075Y00659018D02*
X02470615D01*
X02469345Y00657748D02*
Y00660288D01*
X02468075Y00643980D02*
X02470615D01*
X02469345Y00642710D02*
Y00645250D01*
X02468075Y00613903D02*
X02470615D01*
X02469345Y00612633D02*
Y00615173D01*
X02468075Y00628941D02*
X02470615D01*
X02469345Y00627672D02*
Y00630211D01*
X02468075Y00651499D02*
X02470615D01*
X02469345Y00650229D02*
Y00652769D01*
X02468075Y00674057D02*
X02470615D01*
X02469345Y00672787D02*
Y00675327D01*
X02468075Y00598865D02*
X02470615D01*
X02469345Y00597595D02*
Y00600135D01*
X02468075Y00591346D02*
X02470615D01*
X02469345Y00590076D02*
Y00592616D01*
X02468075Y00583826D02*
X02470615D01*
X02469345Y00582556D02*
Y00585096D01*
X02468075Y00606384D02*
X02470615D01*
X02469345Y00605114D02*
Y00607654D01*
X02468075Y00576307D02*
X02470615D01*
X02469345Y00575037D02*
Y00577577D01*
X02458142Y00681572D02*
X02460682D01*
X02459412Y00680302D02*
Y00682842D01*
X02458142Y00621418D02*
X02460682D01*
X02459412Y00620148D02*
Y00622688D01*
X02458142Y00636457D02*
X02460682D01*
X02459412Y00635187D02*
Y00637727D01*
X02458142Y00666534D02*
X02460682D01*
X02459412Y00665264D02*
Y00667803D01*
X02458142Y00659014D02*
X02460682D01*
X02459412Y00657744D02*
Y00660284D01*
X02458142Y00643976D02*
X02460682D01*
X02459412Y00642706D02*
Y00645246D01*
X02458142Y00613899D02*
X02460682D01*
X02459412Y00612629D02*
Y00615169D01*
X02458142Y00628938D02*
X02460682D01*
X02459412Y00627668D02*
Y00630208D01*
X02458142Y00651495D02*
X02460682D01*
X02459412Y00650225D02*
Y00652765D01*
X02458142Y00674053D02*
X02460682D01*
X02459412Y00672783D02*
Y00675323D01*
X02458142Y00598861D02*
X02460682D01*
X02459412Y00597591D02*
Y00600131D01*
X02458142Y00591342D02*
X02460682D01*
X02459412Y00590072D02*
Y00592612D01*
X02458142Y00583823D02*
X02460682D01*
X02459412Y00582552D02*
Y00585093D01*
X02458142Y00606380D02*
X02460682D01*
X02459412Y00605110D02*
Y00607650D01*
X02458142Y00576303D02*
X02460682D01*
X02459412Y00575033D02*
Y00577573D01*
X02448142Y00681572D02*
X02450682D01*
X02449412Y00680302D02*
Y00682842D01*
X02448142Y00621418D02*
X02450682D01*
X02449412Y00620148D02*
Y00622688D01*
X02448142Y00636457D02*
X02450682D01*
X02449412Y00635187D02*
Y00637727D01*
X02448142Y00666534D02*
X02450682D01*
X02449412Y00665264D02*
Y00667803D01*
X02448142Y00659014D02*
X02450682D01*
X02449412Y00657744D02*
Y00660284D01*
X02448142Y00643976D02*
X02450682D01*
X02449412Y00642706D02*
Y00645246D01*
X02448142Y00613899D02*
X02450682D01*
X02449412Y00612629D02*
Y00615169D01*
X02448142Y00628938D02*
X02450682D01*
X02449412Y00627668D02*
Y00630208D01*
X02448142Y00651495D02*
X02450682D01*
X02449412Y00650225D02*
Y00652765D01*
X02448142Y00674053D02*
X02450682D01*
X02449412Y00672783D02*
Y00675323D01*
X02448142Y00598861D02*
X02450682D01*
X02449412Y00597591D02*
Y00600131D01*
X02448142Y00591342D02*
X02450682D01*
X02449412Y00590072D02*
Y00592612D01*
X02448142Y00583823D02*
X02450682D01*
X02449412Y00582552D02*
Y00585093D01*
X02448142Y00606380D02*
X02450682D01*
X02449412Y00605110D02*
Y00607650D01*
X02448142Y00576303D02*
X02450682D01*
X02449412Y00575033D02*
Y00577573D01*
X02438142Y00681572D02*
X02440682D01*
X02439412Y00680302D02*
Y00682842D01*
X02438142Y00621418D02*
X02440682D01*
X02439412Y00620148D02*
Y00622688D01*
X02438142Y00636457D02*
X02440682D01*
X02439412Y00635187D02*
Y00637727D01*
X02438142Y00666534D02*
X02440682D01*
X02439412Y00665264D02*
Y00667803D01*
X02438142Y00659014D02*
X02440682D01*
X02439412Y00657744D02*
Y00660284D01*
X02438142Y00643976D02*
X02440682D01*
X02439412Y00642706D02*
Y00645246D01*
X02438142Y00613899D02*
X02440682D01*
X02439412Y00612629D02*
Y00615169D01*
X02438142Y00628938D02*
X02440682D01*
X02439412Y00627668D02*
Y00630208D01*
X02438142Y00651495D02*
X02440682D01*
X02439412Y00650225D02*
Y00652765D01*
X02438142Y00674053D02*
X02440682D01*
X02439412Y00672783D02*
Y00675323D01*
X02438142Y00598861D02*
X02440682D01*
X02439412Y00597591D02*
Y00600131D01*
X02438142Y00591342D02*
X02440682D01*
X02439412Y00590072D02*
Y00592612D01*
X02438142Y00583823D02*
X02440682D01*
X02439412Y00582552D02*
Y00585093D01*
X02438142Y00606380D02*
X02440682D01*
X02439412Y00605110D02*
Y00607650D01*
X02438142Y00576303D02*
X02440682D01*
X02439412Y00575033D02*
Y00577573D01*
X02428142Y00681572D02*
X02430682D01*
X02429412Y00680302D02*
Y00682842D01*
X02428142Y00621418D02*
X02430682D01*
X02429412Y00620148D02*
Y00622688D01*
X02428142Y00636457D02*
X02430682D01*
X02429412Y00635187D02*
Y00637727D01*
X02428142Y00666534D02*
X02430682D01*
X02429412Y00665264D02*
Y00667803D01*
X02428142Y00659014D02*
X02430682D01*
X02429412Y00657744D02*
Y00660284D01*
X02428142Y00643976D02*
X02430682D01*
X02429412Y00642706D02*
Y00645246D01*
X02428142Y00613899D02*
X02430682D01*
X02429412Y00612629D02*
Y00615169D01*
X02428142Y00628938D02*
X02430682D01*
X02429412Y00627668D02*
Y00630208D01*
X02428142Y00651495D02*
X02430682D01*
X02429412Y00650225D02*
Y00652765D01*
X02428142Y00674053D02*
X02430682D01*
X02429412Y00672783D02*
Y00675323D01*
X02428142Y00598861D02*
X02430682D01*
X02429412Y00597591D02*
Y00600131D01*
X02428142Y00591342D02*
X02430682D01*
X02429412Y00590072D02*
Y00592612D01*
X02428142Y00583823D02*
X02430682D01*
X02429412Y00582552D02*
Y00585093D01*
X02428142Y00606380D02*
X02430682D01*
X02429412Y00605110D02*
Y00607650D01*
X02428142Y00576303D02*
X02430682D01*
X02429412Y00575033D02*
Y00577573D01*
X02418142Y00681572D02*
X02420682D01*
X02419412Y00680302D02*
Y00682842D01*
X02418142Y00621418D02*
X02420682D01*
X02419412Y00620148D02*
Y00622688D01*
X02418142Y00636457D02*
X02420682D01*
X02419412Y00635187D02*
Y00637727D01*
X02418142Y00666534D02*
X02420682D01*
X02419412Y00665264D02*
Y00667803D01*
X02418142Y00659014D02*
X02420682D01*
X02419412Y00657744D02*
Y00660284D01*
X02418142Y00643976D02*
X02420682D01*
X02419412Y00642706D02*
Y00645246D01*
X02418142Y00613899D02*
X02420682D01*
X02419412Y00612629D02*
Y00615169D01*
X02418142Y00628938D02*
X02420682D01*
X02419412Y00627668D02*
Y00630208D01*
X02418142Y00651495D02*
X02420682D01*
X02419412Y00650225D02*
Y00652765D01*
X02418142Y00674053D02*
X02420682D01*
X02419412Y00672783D02*
Y00675323D01*
X02418142Y00598861D02*
X02420682D01*
X02419412Y00597591D02*
Y00600131D01*
X02418142Y00591342D02*
X02420682D01*
X02419412Y00590072D02*
Y00592612D01*
X02418142Y00583823D02*
X02420682D01*
X02419412Y00582552D02*
Y00585093D01*
X02418142Y00606380D02*
X02420682D01*
X02419412Y00605110D02*
Y00607650D01*
X02418142Y00576303D02*
X02420682D01*
X02419412Y00575033D02*
Y00577573D01*
X02408142Y00681572D02*
X02410682D01*
X02409412Y00680302D02*
Y00682842D01*
X02408142Y00621418D02*
X02410682D01*
X02409412Y00620148D02*
Y00622688D01*
X02408142Y00636457D02*
X02410682D01*
X02409412Y00635187D02*
Y00637727D01*
X02408142Y00666534D02*
X02410682D01*
X02409412Y00665264D02*
Y00667803D01*
X02408142Y00659014D02*
X02410682D01*
X02409412Y00657744D02*
Y00660284D01*
X02408142Y00643976D02*
X02410682D01*
X02409412Y00642706D02*
Y00645246D01*
X02408142Y00613899D02*
X02410682D01*
X02409412Y00612629D02*
Y00615169D01*
X02408142Y00628938D02*
X02410682D01*
X02409412Y00627668D02*
Y00630208D01*
X02408142Y00651495D02*
X02410682D01*
X02409412Y00650225D02*
Y00652765D01*
X02408142Y00674053D02*
X02410682D01*
X02409412Y00672783D02*
Y00675323D01*
X02408142Y00598861D02*
X02410682D01*
X02409412Y00597591D02*
Y00600131D01*
X02408142Y00591342D02*
X02410682D01*
X02409412Y00590072D02*
Y00592612D01*
X02408142Y00583823D02*
X02410682D01*
X02409412Y00582552D02*
Y00585093D01*
X02408142Y00606380D02*
X02410682D01*
X02409412Y00605110D02*
Y00607650D01*
X02408142Y00576303D02*
X02410682D01*
X02409412Y00575033D02*
Y00577573D01*
X02398142Y00681572D02*
X02400682D01*
X02399412Y00680302D02*
Y00682842D01*
X02398142Y00621418D02*
X02400682D01*
X02399412Y00620148D02*
Y00622688D01*
X02398142Y00636457D02*
X02400682D01*
X02399412Y00635187D02*
Y00637727D01*
X02398142Y00666534D02*
X02400682D01*
X02399412Y00665264D02*
Y00667803D01*
X02398142Y00659014D02*
X02400682D01*
X02399412Y00657744D02*
Y00660284D01*
X02398142Y00643976D02*
X02400682D01*
X02399412Y00642706D02*
Y00645246D01*
X02398142Y00613899D02*
X02400682D01*
X02399412Y00612629D02*
Y00615169D01*
X02398142Y00628938D02*
X02400682D01*
X02399412Y00627668D02*
Y00630208D01*
X02398142Y00651495D02*
X02400682D01*
X02399412Y00650225D02*
Y00652765D01*
X02398142Y00674053D02*
X02400682D01*
X02399412Y00672783D02*
Y00675323D01*
X02398142Y00598861D02*
X02400682D01*
X02399412Y00597591D02*
Y00600131D01*
X02398142Y00591342D02*
X02400682D01*
X02399412Y00590072D02*
Y00592612D01*
X02398142Y00583823D02*
X02400682D01*
X02399412Y00582552D02*
Y00585093D01*
X02398142Y00606380D02*
X02400682D01*
X02399412Y00605110D02*
Y00607650D01*
X02398142Y00576303D02*
X02400682D01*
X02399412Y00575033D02*
Y00577573D01*
X02388142Y00681572D02*
X02390682D01*
X02389412Y00680302D02*
Y00682842D01*
X02388142Y00621418D02*
X02390682D01*
X02389412Y00620148D02*
Y00622688D01*
X02388142Y00636457D02*
X02390682D01*
X02389412Y00635187D02*
Y00637727D01*
X02388142Y00666534D02*
X02390682D01*
X02389412Y00665264D02*
Y00667803D01*
X02388142Y00659014D02*
X02390682D01*
X02389412Y00657744D02*
Y00660284D01*
X02388142Y00643976D02*
X02390682D01*
X02389412Y00642706D02*
Y00645246D01*
X02388142Y00613899D02*
X02390682D01*
X02389412Y00612629D02*
Y00615169D01*
X02388142Y00628938D02*
X02390682D01*
X02389412Y00627668D02*
Y00630208D01*
X02388142Y00651495D02*
X02390682D01*
X02389412Y00650225D02*
Y00652765D01*
X02388142Y00674053D02*
X02390682D01*
X02389412Y00672783D02*
Y00675323D01*
X02388142Y00598861D02*
X02390682D01*
X02389412Y00597591D02*
Y00600131D01*
X02388142Y00591342D02*
X02390682D01*
X02389412Y00590072D02*
Y00592612D01*
X02388142Y00583823D02*
X02390682D01*
X02389412Y00582552D02*
Y00585093D01*
X02388142Y00606380D02*
X02390682D01*
X02389412Y00605110D02*
Y00607650D01*
X02388142Y00576303D02*
X02390682D01*
X02389412Y00575033D02*
Y00577573D01*
X02378142Y00576303D02*
X02380682D01*
X02379412Y00575033D02*
Y00577573D01*
X02378142Y00606380D02*
X02380682D01*
X02379412Y00605110D02*
Y00607650D01*
X02378142Y00583823D02*
X02380682D01*
X02379412Y00582552D02*
Y00585093D01*
X02378142Y00591342D02*
X02380682D01*
X02379412Y00590072D02*
Y00592612D01*
X02378142Y00598861D02*
X02380682D01*
X02379412Y00597591D02*
Y00600131D01*
X02378142Y00674053D02*
X02380682D01*
X02379412Y00672783D02*
Y00675323D01*
X02378142Y00651495D02*
X02380682D01*
X02379412Y00650225D02*
Y00652765D01*
X02378142Y00628938D02*
X02380682D01*
X02379412Y00627668D02*
Y00630208D01*
X02378142Y00613899D02*
X02380682D01*
X02379412Y00612629D02*
Y00615169D01*
X02378142Y00643976D02*
X02380682D01*
X02379412Y00642706D02*
Y00645246D01*
X02378142Y00659014D02*
X02380682D01*
X02379412Y00657744D02*
Y00660284D01*
X02378142Y00666534D02*
X02380682D01*
X02379412Y00665264D02*
Y00667803D01*
X02378142Y00636457D02*
X02380682D01*
X02379412Y00635187D02*
Y00637727D01*
X02378142Y00621418D02*
X02380682D01*
X02379412Y00620148D02*
Y00622688D01*
X02378142Y00681572D02*
X02380682D01*
X02379412Y00680302D02*
Y00682842D01*
X01898382Y00638939D02*
X01900922D01*
X01899652Y00637669D02*
Y00640209D01*
X01898382Y00578786D02*
X01900922D01*
X01899652Y00577516D02*
Y00580056D01*
X01898382Y00593824D02*
X01900922D01*
X01899652Y00592554D02*
Y00595094D01*
X01898382Y00623901D02*
X01900922D01*
X01899652Y00622631D02*
Y00625171D01*
X01898382Y00616382D02*
X01900922D01*
X01899652Y00615112D02*
Y00617652D01*
X01898382Y00601343D02*
X01900922D01*
X01899652Y00600073D02*
Y00602613D01*
X01898382Y00571267D02*
X01900922D01*
X01899652Y00569996D02*
Y00572537D01*
X01898382Y00586305D02*
X01900922D01*
X01899652Y00585035D02*
Y00587575D01*
X01898382Y00608862D02*
X01900922D01*
X01899652Y00607592D02*
Y00610132D01*
X01898382Y00631420D02*
X01900922D01*
X01899652Y00630150D02*
Y00632690D01*
X01898382Y00556228D02*
X01900922D01*
X01899652Y00554958D02*
Y00557498D01*
X01898382Y00548709D02*
X01900922D01*
X01899652Y00547439D02*
Y00549979D01*
X01898382Y00541190D02*
X01900922D01*
X01899652Y00539920D02*
Y00542460D01*
X01898382Y00563747D02*
X01900922D01*
X01899652Y00562477D02*
Y00565017D01*
X01898382Y00533671D02*
X01900922D01*
X01899652Y00532401D02*
Y00534941D01*
X01908382Y00533671D02*
X01910922D01*
X01909652Y00532401D02*
Y00534941D01*
X01908382Y00563747D02*
X01910922D01*
X01909652Y00562477D02*
Y00565017D01*
X01908382Y00541190D02*
X01910922D01*
X01909652Y00539920D02*
Y00542460D01*
X01908382Y00548709D02*
X01910922D01*
X01909652Y00547439D02*
Y00549979D01*
X01908382Y00556228D02*
X01910922D01*
X01909652Y00554958D02*
Y00557498D01*
X01908382Y00631420D02*
X01910922D01*
X01909652Y00630150D02*
Y00632690D01*
X01908382Y00608862D02*
X01910922D01*
X01909652Y00607592D02*
Y00610132D01*
X01908382Y00586305D02*
X01910922D01*
X01909652Y00585035D02*
Y00587575D01*
X01908382Y00571267D02*
X01910922D01*
X01909652Y00569996D02*
Y00572537D01*
X01908382Y00601343D02*
X01910922D01*
X01909652Y00600073D02*
Y00602613D01*
X01908382Y00616382D02*
X01910922D01*
X01909652Y00615112D02*
Y00617652D01*
X01908382Y00623901D02*
X01910922D01*
X01909652Y00622631D02*
Y00625171D01*
X01908382Y00593824D02*
X01910922D01*
X01909652Y00592554D02*
Y00595094D01*
X01908382Y00578786D02*
X01910922D01*
X01909652Y00577516D02*
Y00580056D01*
X01908382Y00638939D02*
X01910922D01*
X01909652Y00637669D02*
Y00640209D01*
X01918382Y00533671D02*
X01920922D01*
X01919652Y00532401D02*
Y00534941D01*
X01918382Y00563747D02*
X01920922D01*
X01919652Y00562477D02*
Y00565017D01*
X01918382Y00541190D02*
X01920922D01*
X01919652Y00539920D02*
Y00542460D01*
X01918382Y00548709D02*
X01920922D01*
X01919652Y00547439D02*
Y00549979D01*
X01918382Y00556228D02*
X01920922D01*
X01919652Y00554958D02*
Y00557498D01*
X01918382Y00631420D02*
X01920922D01*
X01919652Y00630150D02*
Y00632690D01*
X01918382Y00608862D02*
X01920922D01*
X01919652Y00607592D02*
Y00610132D01*
X01918382Y00586305D02*
X01920922D01*
X01919652Y00585035D02*
Y00587575D01*
X01918382Y00571267D02*
X01920922D01*
X01919652Y00569996D02*
Y00572537D01*
X01918382Y00601343D02*
X01920922D01*
X01919652Y00600073D02*
Y00602613D01*
X01918382Y00616382D02*
X01920922D01*
X01919652Y00615112D02*
Y00617652D01*
X01918382Y00623901D02*
X01920922D01*
X01919652Y00622631D02*
Y00625171D01*
X01918382Y00593824D02*
X01920922D01*
X01919652Y00592554D02*
Y00595094D01*
X01918382Y00578786D02*
X01920922D01*
X01919652Y00577516D02*
Y00580056D01*
X01918382Y00638939D02*
X01920922D01*
X01919652Y00637669D02*
Y00640209D01*
X01928382Y00533671D02*
X01930922D01*
X01929652Y00532401D02*
Y00534941D01*
X01928382Y00563747D02*
X01930922D01*
X01929652Y00562477D02*
Y00565017D01*
X01928382Y00541190D02*
X01930922D01*
X01929652Y00539920D02*
Y00542460D01*
X01928382Y00548709D02*
X01930922D01*
X01929652Y00547439D02*
Y00549979D01*
X01928382Y00556228D02*
X01930922D01*
X01929652Y00554958D02*
Y00557498D01*
X01928382Y00631420D02*
X01930922D01*
X01929652Y00630150D02*
Y00632690D01*
X01928382Y00608862D02*
X01930922D01*
X01929652Y00607592D02*
Y00610132D01*
X01928382Y00586305D02*
X01930922D01*
X01929652Y00585035D02*
Y00587575D01*
X01928382Y00571267D02*
X01930922D01*
X01929652Y00569996D02*
Y00572537D01*
X01928382Y00601343D02*
X01930922D01*
X01929652Y00600073D02*
Y00602613D01*
X01928382Y00616382D02*
X01930922D01*
X01929652Y00615112D02*
Y00617652D01*
X01928382Y00623901D02*
X01930922D01*
X01929652Y00622631D02*
Y00625171D01*
X01928382Y00593824D02*
X01930922D01*
X01929652Y00592554D02*
Y00595094D01*
X01928382Y00578786D02*
X01930922D01*
X01929652Y00577516D02*
Y00580056D01*
X01928382Y00638939D02*
X01930922D01*
X01929652Y00637669D02*
Y00640209D01*
X01938382Y00533671D02*
X01940922D01*
X01939652Y00532401D02*
Y00534941D01*
X01938382Y00563747D02*
X01940922D01*
X01939652Y00562477D02*
Y00565017D01*
X01938382Y00541190D02*
X01940922D01*
X01939652Y00539920D02*
Y00542460D01*
X01938382Y00548709D02*
X01940922D01*
X01939652Y00547439D02*
Y00549979D01*
X01938382Y00556228D02*
X01940922D01*
X01939652Y00554958D02*
Y00557498D01*
X01938382Y00631420D02*
X01940922D01*
X01939652Y00630150D02*
Y00632690D01*
X01938382Y00608862D02*
X01940922D01*
X01939652Y00607592D02*
Y00610132D01*
X01938382Y00586305D02*
X01940922D01*
X01939652Y00585035D02*
Y00587575D01*
X01938382Y00571267D02*
X01940922D01*
X01939652Y00569996D02*
Y00572537D01*
X01938382Y00601343D02*
X01940922D01*
X01939652Y00600073D02*
Y00602613D01*
X01938382Y00616382D02*
X01940922D01*
X01939652Y00615112D02*
Y00617652D01*
X01938382Y00623901D02*
X01940922D01*
X01939652Y00622631D02*
Y00625171D01*
X01938382Y00593824D02*
X01940922D01*
X01939652Y00592554D02*
Y00595094D01*
X01938382Y00578786D02*
X01940922D01*
X01939652Y00577516D02*
Y00580056D01*
X01938382Y00638939D02*
X01940922D01*
X01939652Y00637669D02*
Y00640209D01*
X01948382Y00533671D02*
X01950922D01*
X01949652Y00532401D02*
Y00534941D01*
X01948382Y00563747D02*
X01950922D01*
X01949652Y00562477D02*
Y00565017D01*
X01948382Y00541190D02*
X01950922D01*
X01949652Y00539920D02*
Y00542460D01*
X01948382Y00548709D02*
X01950922D01*
X01949652Y00547439D02*
Y00549979D01*
X01948382Y00556228D02*
X01950922D01*
X01949652Y00554958D02*
Y00557498D01*
X01948382Y00631420D02*
X01950922D01*
X01949652Y00630150D02*
Y00632690D01*
X01948382Y00608862D02*
X01950922D01*
X01949652Y00607592D02*
Y00610132D01*
X01948382Y00586305D02*
X01950922D01*
X01949652Y00585035D02*
Y00587575D01*
X01948382Y00571267D02*
X01950922D01*
X01949652Y00569996D02*
Y00572537D01*
X01948382Y00601343D02*
X01950922D01*
X01949652Y00600073D02*
Y00602613D01*
X01948382Y00616382D02*
X01950922D01*
X01949652Y00615112D02*
Y00617652D01*
X01948382Y00623901D02*
X01950922D01*
X01949652Y00622631D02*
Y00625171D01*
X01948382Y00593824D02*
X01950922D01*
X01949652Y00592554D02*
Y00595094D01*
X01948382Y00578786D02*
X01950922D01*
X01949652Y00577516D02*
Y00580056D01*
X01948382Y00638939D02*
X01950922D01*
X01949652Y00637669D02*
Y00640209D01*
X01958382Y00533671D02*
X01960922D01*
X01959652Y00532401D02*
Y00534941D01*
X01958382Y00563747D02*
X01960922D01*
X01959652Y00562477D02*
Y00565017D01*
X01958382Y00541190D02*
X01960922D01*
X01959652Y00539920D02*
Y00542460D01*
X01958382Y00548709D02*
X01960922D01*
X01959652Y00547439D02*
Y00549979D01*
X01958382Y00556228D02*
X01960922D01*
X01959652Y00554958D02*
Y00557498D01*
X01958382Y00631420D02*
X01960922D01*
X01959652Y00630150D02*
Y00632690D01*
X01958382Y00608862D02*
X01960922D01*
X01959652Y00607592D02*
Y00610132D01*
X01958382Y00586305D02*
X01960922D01*
X01959652Y00585035D02*
Y00587575D01*
X01958382Y00571267D02*
X01960922D01*
X01959652Y00569996D02*
Y00572537D01*
X01958382Y00601343D02*
X01960922D01*
X01959652Y00600073D02*
Y00602613D01*
X01958382Y00616382D02*
X01960922D01*
X01959652Y00615112D02*
Y00617652D01*
X01958382Y00623901D02*
X01960922D01*
X01959652Y00622631D02*
Y00625171D01*
X01958382Y00593824D02*
X01960922D01*
X01959652Y00592554D02*
Y00595094D01*
X01958382Y00578786D02*
X01960922D01*
X01959652Y00577516D02*
Y00580056D01*
X01958382Y00638939D02*
X01960922D01*
X01959652Y00637669D02*
Y00640209D01*
X01968382Y00533671D02*
X01970922D01*
X01969652Y00532401D02*
Y00534941D01*
X01968382Y00563747D02*
X01970922D01*
X01969652Y00562477D02*
Y00565017D01*
X01968382Y00541190D02*
X01970922D01*
X01969652Y00539920D02*
Y00542460D01*
X01968382Y00548709D02*
X01970922D01*
X01969652Y00547439D02*
Y00549979D01*
X01968382Y00556228D02*
X01970922D01*
X01969652Y00554958D02*
Y00557498D01*
X01968382Y00631420D02*
X01970922D01*
X01969652Y00630150D02*
Y00632690D01*
X01968382Y00608862D02*
X01970922D01*
X01969652Y00607592D02*
Y00610132D01*
X01968382Y00586305D02*
X01970922D01*
X01969652Y00585035D02*
Y00587575D01*
X01968382Y00571267D02*
X01970922D01*
X01969652Y00569996D02*
Y00572537D01*
X01968382Y00601343D02*
X01970922D01*
X01969652Y00600073D02*
Y00602613D01*
X01968382Y00616382D02*
X01970922D01*
X01969652Y00615112D02*
Y00617652D01*
X01968382Y00623901D02*
X01970922D01*
X01969652Y00622631D02*
Y00625171D01*
X01968382Y00593824D02*
X01970922D01*
X01969652Y00592554D02*
Y00595094D01*
X01968382Y00578786D02*
X01970922D01*
X01969652Y00577516D02*
Y00580056D01*
X01968382Y00638939D02*
X01970922D01*
X01969652Y00637669D02*
Y00640209D01*
X01978382Y00533671D02*
X01980922D01*
X01979652Y00532401D02*
Y00534941D01*
X01978382Y00563747D02*
X01980922D01*
X01979652Y00562477D02*
Y00565017D01*
X01978382Y00541190D02*
X01980922D01*
X01979652Y00539920D02*
Y00542460D01*
X01978382Y00548709D02*
X01980922D01*
X01979652Y00547439D02*
Y00549979D01*
X01978382Y00556228D02*
X01980922D01*
X01979652Y00554958D02*
Y00557498D01*
X01978382Y00631420D02*
X01980922D01*
X01979652Y00630150D02*
Y00632690D01*
X01978382Y00608862D02*
X01980922D01*
X01979652Y00607592D02*
Y00610132D01*
X01978382Y00586305D02*
X01980922D01*
X01979652Y00585035D02*
Y00587575D01*
X01978382Y00571267D02*
X01980922D01*
X01979652Y00569996D02*
Y00572537D01*
X01978382Y00601343D02*
X01980922D01*
X01979652Y00600073D02*
Y00602613D01*
X01978382Y00616382D02*
X01980922D01*
X01979652Y00615112D02*
Y00617652D01*
X01978382Y00623901D02*
X01980922D01*
X01979652Y00622631D02*
Y00625171D01*
X01978382Y00593824D02*
X01980922D01*
X01979652Y00592554D02*
Y00595094D01*
X01978382Y00578786D02*
X01980922D01*
X01979652Y00577516D02*
Y00580056D01*
X01978382Y00638939D02*
X01980922D01*
X01979652Y00637669D02*
Y00640209D01*
X01988315Y00533675D02*
X01990856D01*
X01989586Y00532405D02*
Y00534944D01*
X01988315Y00563751D02*
X01990856D01*
X01989586Y00562481D02*
Y00565021D01*
X01988315Y00541194D02*
X01990856D01*
X01989586Y00539924D02*
Y00542464D01*
X01988315Y00548713D02*
X01990856D01*
X01989586Y00547443D02*
Y00549983D01*
X01988315Y00556232D02*
X01990856D01*
X01989586Y00554962D02*
Y00557502D01*
X01988315Y00631424D02*
X01990856D01*
X01989586Y00630154D02*
Y00632694D01*
X01988315Y00608866D02*
X01990856D01*
X01989586Y00607596D02*
Y00610136D01*
X01988315Y00586309D02*
X01990856D01*
X01989586Y00585039D02*
Y00587579D01*
X01988315Y00571270D02*
X01990856D01*
X01989586Y00570000D02*
Y00572540D01*
X01988315Y00601347D02*
X01990856D01*
X01989586Y00600077D02*
Y00602617D01*
X01988315Y00616386D02*
X01990856D01*
X01989586Y00615116D02*
Y00617656D01*
X01988315Y00623905D02*
X01990856D01*
X01989586Y00622635D02*
Y00625175D01*
X01988315Y00593828D02*
X01990856D01*
X01989586Y00592558D02*
Y00595098D01*
X01988315Y00578790D02*
X01990856D01*
X01989586Y00577520D02*
Y00580060D01*
X01988315Y00638943D02*
X01990856D01*
X01989586Y00637673D02*
Y00640213D01*
X01983387Y00635168D02*
X01985927D01*
X01984657Y00633898D02*
Y00636438D01*
X01983387Y00575014D02*
X01985927D01*
X01984657Y00573744D02*
Y00576284D01*
X01983387Y00590052D02*
X01985927D01*
X01984657Y00588783D02*
Y00591323D01*
X01983387Y00620129D02*
X01985927D01*
X01984657Y00618859D02*
Y00621399D01*
X01983387Y00612610D02*
X01985927D01*
X01984657Y00611340D02*
Y00613880D01*
X01983387Y00597572D02*
X01985927D01*
X01984657Y00596302D02*
Y00598842D01*
X01983387Y00567495D02*
X01985927D01*
X01984657Y00566225D02*
Y00568765D01*
X01983387Y00582533D02*
X01985927D01*
X01984657Y00581263D02*
Y00583803D01*
X01983387Y00605091D02*
X01985927D01*
X01984657Y00603821D02*
Y00606361D01*
X01983387Y00627648D02*
X01985927D01*
X01984657Y00626378D02*
Y00628918D01*
X01983387Y00552457D02*
X01985927D01*
X01984657Y00551186D02*
Y00553727D01*
X01983387Y00544937D02*
X01985927D01*
X01984657Y00543667D02*
Y00546207D01*
X01983387Y00537418D02*
X01985927D01*
X01984657Y00536148D02*
Y00538688D01*
X01983387Y00559976D02*
X01985927D01*
X01984657Y00558706D02*
Y00561246D01*
X01983387Y00529899D02*
X01985927D01*
X01984657Y00528629D02*
Y00531169D01*
X01973454Y00635164D02*
X01975994D01*
X01974724Y00633894D02*
Y00636434D01*
X01973454Y00575010D02*
X01975994D01*
X01974724Y00573740D02*
Y00576280D01*
X01973454Y00590048D02*
X01975994D01*
X01974724Y00588778D02*
Y00591319D01*
X01973454Y00620125D02*
X01975994D01*
X01974724Y00618855D02*
Y00621395D01*
X01973454Y00612606D02*
X01975994D01*
X01974724Y00611336D02*
Y00613876D01*
X01973454Y00597568D02*
X01975994D01*
X01974724Y00596298D02*
Y00598838D01*
X01973454Y00567491D02*
X01975994D01*
X01974724Y00566221D02*
Y00568761D01*
X01973454Y00582529D02*
X01975994D01*
X01974724Y00581259D02*
Y00583799D01*
X01973454Y00605087D02*
X01975994D01*
X01974724Y00603817D02*
Y00606357D01*
X01973454Y00627645D02*
X01975994D01*
X01974724Y00626375D02*
Y00628914D01*
X01973454Y00552453D02*
X01975994D01*
X01974724Y00551183D02*
Y00553723D01*
X01973454Y00544933D02*
X01975994D01*
X01974724Y00543663D02*
Y00546203D01*
X01973454Y00537414D02*
X01975994D01*
X01974724Y00536144D02*
Y00538684D01*
X01973454Y00559972D02*
X01975994D01*
X01974724Y00558702D02*
Y00561242D01*
X01973454Y00529895D02*
X01975994D01*
X01974724Y00528625D02*
Y00531165D01*
X01963454Y00635164D02*
X01965994D01*
X01964724Y00633894D02*
Y00636434D01*
X01963454Y00575010D02*
X01965994D01*
X01964724Y00573740D02*
Y00576280D01*
X01963454Y00590048D02*
X01965994D01*
X01964724Y00588778D02*
Y00591319D01*
X01963454Y00620125D02*
X01965994D01*
X01964724Y00618855D02*
Y00621395D01*
X01963454Y00612606D02*
X01965994D01*
X01964724Y00611336D02*
Y00613876D01*
X01963454Y00597568D02*
X01965994D01*
X01964724Y00596298D02*
Y00598838D01*
X01963454Y00567491D02*
X01965994D01*
X01964724Y00566221D02*
Y00568761D01*
X01963454Y00582529D02*
X01965994D01*
X01964724Y00581259D02*
Y00583799D01*
X01963454Y00605087D02*
X01965994D01*
X01964724Y00603817D02*
Y00606357D01*
X01963454Y00627645D02*
X01965994D01*
X01964724Y00626375D02*
Y00628914D01*
X01963454Y00552453D02*
X01965994D01*
X01964724Y00551183D02*
Y00553723D01*
X01963454Y00544933D02*
X01965994D01*
X01964724Y00543663D02*
Y00546203D01*
X01963454Y00537414D02*
X01965994D01*
X01964724Y00536144D02*
Y00538684D01*
X01963454Y00559972D02*
X01965994D01*
X01964724Y00558702D02*
Y00561242D01*
X01963454Y00529895D02*
X01965994D01*
X01964724Y00528625D02*
Y00531165D01*
X01953454Y00635164D02*
X01955994D01*
X01954724Y00633894D02*
Y00636434D01*
X01953454Y00575010D02*
X01955994D01*
X01954724Y00573740D02*
Y00576280D01*
X01953454Y00590048D02*
X01955994D01*
X01954724Y00588778D02*
Y00591319D01*
X01953454Y00620125D02*
X01955994D01*
X01954724Y00618855D02*
Y00621395D01*
X01953454Y00612606D02*
X01955994D01*
X01954724Y00611336D02*
Y00613876D01*
X01953454Y00597568D02*
X01955994D01*
X01954724Y00596298D02*
Y00598838D01*
X01953454Y00567491D02*
X01955994D01*
X01954724Y00566221D02*
Y00568761D01*
X01953454Y00582529D02*
X01955994D01*
X01954724Y00581259D02*
Y00583799D01*
X01953454Y00605087D02*
X01955994D01*
X01954724Y00603817D02*
Y00606357D01*
X01953454Y00627645D02*
X01955994D01*
X01954724Y00626375D02*
Y00628914D01*
X01953454Y00552453D02*
X01955994D01*
X01954724Y00551183D02*
Y00553723D01*
X01953454Y00544933D02*
X01955994D01*
X01954724Y00543663D02*
Y00546203D01*
X01953454Y00537414D02*
X01955994D01*
X01954724Y00536144D02*
Y00538684D01*
X01953454Y00559972D02*
X01955994D01*
X01954724Y00558702D02*
Y00561242D01*
X01953454Y00529895D02*
X01955994D01*
X01954724Y00528625D02*
Y00531165D01*
X01943454Y00635164D02*
X01945994D01*
X01944724Y00633894D02*
Y00636434D01*
X01943454Y00575010D02*
X01945994D01*
X01944724Y00573740D02*
Y00576280D01*
X01943454Y00590048D02*
X01945994D01*
X01944724Y00588778D02*
Y00591319D01*
X01943454Y00620125D02*
X01945994D01*
X01944724Y00618855D02*
Y00621395D01*
X01943454Y00612606D02*
X01945994D01*
X01944724Y00611336D02*
Y00613876D01*
X01943454Y00597568D02*
X01945994D01*
X01944724Y00596298D02*
Y00598838D01*
X01943454Y00567491D02*
X01945994D01*
X01944724Y00566221D02*
Y00568761D01*
X01943454Y00582529D02*
X01945994D01*
X01944724Y00581259D02*
Y00583799D01*
X01943454Y00605087D02*
X01945994D01*
X01944724Y00603817D02*
Y00606357D01*
X01943454Y00627645D02*
X01945994D01*
X01944724Y00626375D02*
Y00628914D01*
X01943454Y00552453D02*
X01945994D01*
X01944724Y00551183D02*
Y00553723D01*
X01943454Y00544933D02*
X01945994D01*
X01944724Y00543663D02*
Y00546203D01*
X01943454Y00537414D02*
X01945994D01*
X01944724Y00536144D02*
Y00538684D01*
X01943454Y00559972D02*
X01945994D01*
X01944724Y00558702D02*
Y00561242D01*
X01943454Y00529895D02*
X01945994D01*
X01944724Y00528625D02*
Y00531165D01*
X01933454Y00635164D02*
X01935994D01*
X01934724Y00633894D02*
Y00636434D01*
X01933454Y00575010D02*
X01935994D01*
X01934724Y00573740D02*
Y00576280D01*
X01933454Y00590048D02*
X01935994D01*
X01934724Y00588778D02*
Y00591319D01*
X01933454Y00620125D02*
X01935994D01*
X01934724Y00618855D02*
Y00621395D01*
X01933454Y00612606D02*
X01935994D01*
X01934724Y00611336D02*
Y00613876D01*
X01933454Y00597568D02*
X01935994D01*
X01934724Y00596298D02*
Y00598838D01*
X01933454Y00567491D02*
X01935994D01*
X01934724Y00566221D02*
Y00568761D01*
X01933454Y00582529D02*
X01935994D01*
X01934724Y00581259D02*
Y00583799D01*
X01933454Y00605087D02*
X01935994D01*
X01934724Y00603817D02*
Y00606357D01*
X01933454Y00627645D02*
X01935994D01*
X01934724Y00626375D02*
Y00628914D01*
X01933454Y00552453D02*
X01935994D01*
X01934724Y00551183D02*
Y00553723D01*
X01933454Y00544933D02*
X01935994D01*
X01934724Y00543663D02*
Y00546203D01*
X01933454Y00537414D02*
X01935994D01*
X01934724Y00536144D02*
Y00538684D01*
X01933454Y00559972D02*
X01935994D01*
X01934724Y00558702D02*
Y00561242D01*
X01933454Y00529895D02*
X01935994D01*
X01934724Y00528625D02*
Y00531165D01*
X01923454Y00635164D02*
X01925994D01*
X01924724Y00633894D02*
Y00636434D01*
X01923454Y00575010D02*
X01925994D01*
X01924724Y00573740D02*
Y00576280D01*
X01923454Y00590048D02*
X01925994D01*
X01924724Y00588778D02*
Y00591319D01*
X01923454Y00620125D02*
X01925994D01*
X01924724Y00618855D02*
Y00621395D01*
X01923454Y00612606D02*
X01925994D01*
X01924724Y00611336D02*
Y00613876D01*
X01923454Y00597568D02*
X01925994D01*
X01924724Y00596298D02*
Y00598838D01*
X01923454Y00567491D02*
X01925994D01*
X01924724Y00566221D02*
Y00568761D01*
X01923454Y00582529D02*
X01925994D01*
X01924724Y00581259D02*
Y00583799D01*
X01923454Y00605087D02*
X01925994D01*
X01924724Y00603817D02*
Y00606357D01*
X01923454Y00627645D02*
X01925994D01*
X01924724Y00626375D02*
Y00628914D01*
X01923454Y00552453D02*
X01925994D01*
X01924724Y00551183D02*
Y00553723D01*
X01923454Y00544933D02*
X01925994D01*
X01924724Y00543663D02*
Y00546203D01*
X01923454Y00537414D02*
X01925994D01*
X01924724Y00536144D02*
Y00538684D01*
X01923454Y00559972D02*
X01925994D01*
X01924724Y00558702D02*
Y00561242D01*
X01923454Y00529895D02*
X01925994D01*
X01924724Y00528625D02*
Y00531165D01*
X01913454Y00635164D02*
X01915994D01*
X01914724Y00633894D02*
Y00636434D01*
X01913454Y00575010D02*
X01915994D01*
X01914724Y00573740D02*
Y00576280D01*
X01913454Y00590048D02*
X01915994D01*
X01914724Y00588778D02*
Y00591319D01*
X01913454Y00620125D02*
X01915994D01*
X01914724Y00618855D02*
Y00621395D01*
X01913454Y00612606D02*
X01915994D01*
X01914724Y00611336D02*
Y00613876D01*
X01913454Y00597568D02*
X01915994D01*
X01914724Y00596298D02*
Y00598838D01*
X01913454Y00567491D02*
X01915994D01*
X01914724Y00566221D02*
Y00568761D01*
X01913454Y00582529D02*
X01915994D01*
X01914724Y00581259D02*
Y00583799D01*
X01913454Y00605087D02*
X01915994D01*
X01914724Y00603817D02*
Y00606357D01*
X01913454Y00627645D02*
X01915994D01*
X01914724Y00626375D02*
Y00628914D01*
X01913454Y00552453D02*
X01915994D01*
X01914724Y00551183D02*
Y00553723D01*
X01913454Y00544933D02*
X01915994D01*
X01914724Y00543663D02*
Y00546203D01*
X01913454Y00537414D02*
X01915994D01*
X01914724Y00536144D02*
Y00538684D01*
X01913454Y00559972D02*
X01915994D01*
X01914724Y00558702D02*
Y00561242D01*
X01913454Y00529895D02*
X01915994D01*
X01914724Y00528625D02*
Y00531165D01*
X01903454Y00635164D02*
X01905994D01*
X01904724Y00633894D02*
Y00636434D01*
X01903454Y00575010D02*
X01905994D01*
X01904724Y00573740D02*
Y00576280D01*
X01903454Y00590048D02*
X01905994D01*
X01904724Y00588778D02*
Y00591319D01*
X01903454Y00620125D02*
X01905994D01*
X01904724Y00618855D02*
Y00621395D01*
X01903454Y00612606D02*
X01905994D01*
X01904724Y00611336D02*
Y00613876D01*
X01903454Y00597568D02*
X01905994D01*
X01904724Y00596298D02*
Y00598838D01*
X01903454Y00567491D02*
X01905994D01*
X01904724Y00566221D02*
Y00568761D01*
X01903454Y00582529D02*
X01905994D01*
X01904724Y00581259D02*
Y00583799D01*
X01903454Y00605087D02*
X01905994D01*
X01904724Y00603817D02*
Y00606357D01*
X01903454Y00627645D02*
X01905994D01*
X01904724Y00626375D02*
Y00628914D01*
X01903454Y00552453D02*
X01905994D01*
X01904724Y00551183D02*
Y00553723D01*
X01903454Y00544933D02*
X01905994D01*
X01904724Y00543663D02*
Y00546203D01*
X01903454Y00537414D02*
X01905994D01*
X01904724Y00536144D02*
Y00538684D01*
X01903454Y00559972D02*
X01905994D01*
X01904724Y00558702D02*
Y00561242D01*
X01903454Y00529895D02*
X01905994D01*
X01904724Y00528625D02*
Y00531165D01*
X01893454Y00529895D02*
X01895994D01*
X01894724Y00528625D02*
Y00531165D01*
X01893454Y00559972D02*
X01895994D01*
X01894724Y00558702D02*
Y00561242D01*
X01893454Y00537414D02*
X01895994D01*
X01894724Y00536144D02*
Y00538684D01*
X01893454Y00544933D02*
X01895994D01*
X01894724Y00543663D02*
Y00546203D01*
X01893454Y00552453D02*
X01895994D01*
X01894724Y00551183D02*
Y00553723D01*
X01893454Y00627645D02*
X01895994D01*
X01894724Y00626375D02*
Y00628914D01*
X01893454Y00605087D02*
X01895994D01*
X01894724Y00603817D02*
Y00606357D01*
X01893454Y00582529D02*
X01895994D01*
X01894724Y00581259D02*
Y00583799D01*
X01893454Y00567491D02*
X01895994D01*
X01894724Y00566221D02*
Y00568761D01*
X01893454Y00597568D02*
X01895994D01*
X01894724Y00596298D02*
Y00598838D01*
X01893454Y00612606D02*
X01895994D01*
X01894724Y00611336D02*
Y00613876D01*
X01893454Y00620125D02*
X01895994D01*
X01894724Y00618855D02*
Y00621395D01*
X01893454Y00590048D02*
X01895994D01*
X01894724Y00588778D02*
Y00591319D01*
X01893454Y00575010D02*
X01895994D01*
X01894724Y00573740D02*
Y00576280D01*
X01893454Y00635164D02*
X01895994D01*
X01894724Y00633894D02*
Y00636434D01*
X01824505Y00528982D02*
X01827045D01*
X01825775Y00527712D02*
Y00530252D01*
X01824505Y00543353D02*
X01827045D01*
X01825775Y00542083D02*
Y00544623D01*
X01824505Y00514611D02*
X01827045D01*
X01825775Y00513341D02*
Y00515881D01*
X01824505Y00521539D02*
X01827045D01*
X01825775Y00520269D02*
Y00522809D01*
X01824727Y00550605D02*
X01827267D01*
X01825997Y00549335D02*
Y00551875D01*
X01824505Y00535910D02*
X01827045D01*
X01825775Y00534640D02*
Y00537180D01*
X01853683Y00551447D02*
X01856223D01*
X01854953Y00550177D02*
Y00552717D01*
X01853598Y00522393D02*
X01856138D01*
X01854868Y00521123D02*
Y00523663D01*
X01853598Y00536764D02*
X01856138D01*
X01854868Y00535494D02*
Y00538034D01*
X01853598Y00515465D02*
X01856138D01*
X01854868Y00514195D02*
Y00516735D01*
X01853598Y00544207D02*
X01856138D01*
X01854868Y00542937D02*
Y00545477D01*
X01853598Y00529836D02*
X01856138D01*
X01854868Y00528566D02*
Y00531106D01*
X00519832Y00371968D02*
X00522373D01*
X00521102Y00370698D02*
Y00373237D01*
X00523060Y00366995D02*
X00525600D01*
X00524330Y00365725D02*
Y00368265D01*
X00516560Y00366995D02*
X00519100D01*
X00517830Y00365725D02*
Y00368265D01*
X00513258Y00372075D02*
X00515798D01*
X00514528Y00370805D02*
Y00373345D01*
X00510060Y00366995D02*
X00512600D01*
X00511330Y00365725D02*
Y00368265D01*
X00506758Y00372075D02*
X00509298D01*
X00508028Y00370805D02*
Y00373345D01*
X00503560Y00366995D02*
X00506100D01*
X00504830Y00365725D02*
Y00368265D01*
X00500258Y00372075D02*
X00502798D01*
X00501528Y00370805D02*
Y00373345D01*
X00493758Y00372075D02*
X00496298D01*
X00495028Y00370805D02*
Y00373345D01*
X00497060Y00366995D02*
X00499600D01*
X00498330Y00365725D02*
Y00368265D01*
X00490560Y00366995D02*
X00493100D01*
X00491830Y00365725D02*
Y00368265D01*
X00487258Y00372075D02*
X00489798D01*
X00488528Y00370805D02*
Y00373345D01*
X00484060Y00366995D02*
X00486600D01*
X00485330Y00365725D02*
Y00368265D01*
X00451560Y00366995D02*
X00454100D01*
X00452830Y00365725D02*
Y00368265D01*
X00480758Y00372075D02*
X00483298D01*
X00482028Y00370805D02*
Y00373345D01*
X00477560Y00366995D02*
X00480100D01*
X00478830Y00365725D02*
Y00368265D01*
X00474258Y00372075D02*
X00476798D01*
X00475528Y00370805D02*
Y00373345D01*
X00471060Y00366995D02*
X00473600D01*
X00472330Y00365725D02*
Y00368265D01*
X00467758Y00372075D02*
X00470298D01*
X00469028Y00370805D02*
Y00373345D01*
X00454758Y00372075D02*
X00457298D01*
X00456028Y00370805D02*
Y00373345D01*
X00458060Y00366995D02*
X00460600D01*
X00459330Y00365725D02*
Y00368265D01*
X00464560Y00366995D02*
X00467100D01*
X00465830Y00365725D02*
Y00368265D01*
X00461258Y00372075D02*
X00463798D01*
X00462528Y00370805D02*
Y00373345D01*
X00448258Y00372075D02*
X00450798D01*
X00449528Y00370805D02*
Y00373345D01*
X00445060Y00366995D02*
X00447600D01*
X00446330Y00365725D02*
Y00368265D01*
X00441758Y00372075D02*
X00444298D01*
X00443028Y00370805D02*
Y00373345D01*
X00357060Y00372075D02*
X00359600D01*
X00358330Y00370805D02*
Y00373345D01*
X00360362Y00366995D02*
X00362902D01*
X00361632Y00365725D02*
Y00368265D01*
X00363560Y00372075D02*
X00366100D01*
X00364830Y00370805D02*
Y00373345D01*
X00376560Y00372075D02*
X00379100D01*
X00377830Y00370805D02*
Y00373345D01*
X00379862Y00366995D02*
X00382402D01*
X00381132Y00365725D02*
Y00368265D01*
X00373362Y00366995D02*
X00375902D01*
X00374632Y00365725D02*
Y00368265D01*
X00370060Y00372075D02*
X00372600D01*
X00371330Y00370805D02*
Y00373345D01*
X00383060Y00372075D02*
X00385600D01*
X00384330Y00370805D02*
Y00373345D01*
X00386362Y00366995D02*
X00388902D01*
X00387632Y00365725D02*
Y00368265D01*
X00389560Y00372075D02*
X00392100D01*
X00390830Y00370805D02*
Y00373345D01*
X00392862Y00366995D02*
X00395402D01*
X00394132Y00365725D02*
Y00368265D01*
X00396060Y00372075D02*
X00398600D01*
X00397330Y00370805D02*
Y00373345D01*
X00366862Y00366995D02*
X00369402D01*
X00368132Y00365725D02*
Y00368265D01*
X00399362Y00366995D02*
X00401902D01*
X00400632Y00365725D02*
Y00368265D01*
X00402560Y00372075D02*
X00405100D01*
X00403830Y00370805D02*
Y00373345D01*
X00405862Y00366995D02*
X00408402D01*
X00407132Y00365725D02*
Y00368265D01*
X00412362Y00366995D02*
X00414902D01*
X00413632Y00365725D02*
Y00368265D01*
X00409060Y00372075D02*
X00411600D01*
X00410330Y00370805D02*
Y00373345D01*
X00415560Y00372075D02*
X00418100D01*
X00416830Y00370805D02*
Y00373345D01*
X00418862Y00366995D02*
X00421402D01*
X00420132Y00365725D02*
Y00368265D01*
X00422060Y00372075D02*
X00424600D01*
X00423330Y00370805D02*
Y00373345D01*
X00425362Y00366995D02*
X00427902D01*
X00426632Y00365725D02*
Y00368265D01*
X00428560Y00372075D02*
X00431100D01*
X00429830Y00370805D02*
Y00373345D01*
X00431862Y00366995D02*
X00434402D01*
X00433132Y00365725D02*
Y00368265D01*
X00438362Y00366995D02*
X00440902D01*
X00439632Y00365725D02*
Y00368265D01*
X00435135Y00371968D02*
X00437675D01*
X00436405Y00370698D02*
Y00373237D01*
X00315112Y00366995D02*
X00317652D01*
X00316382Y00365725D02*
Y00368265D01*
X00318310Y00372075D02*
X00320850D01*
X00319580Y00370805D02*
Y00373345D01*
X00321612Y00366995D02*
X00324152D01*
X00322882Y00365725D02*
Y00368265D01*
X00328112Y00366995D02*
X00330652D01*
X00329382Y00365725D02*
Y00368265D01*
X00324810Y00372075D02*
X00327350D01*
X00326080Y00370805D02*
Y00373345D01*
X00331310Y00372075D02*
X00333850D01*
X00332580Y00370805D02*
Y00373345D01*
X00334612Y00366995D02*
X00337152D01*
X00335882Y00365725D02*
Y00368265D01*
X00337810Y00372075D02*
X00340350D01*
X00339080Y00370805D02*
Y00373345D01*
X00341112Y00366995D02*
X00343652D01*
X00342382Y00365725D02*
Y00368265D01*
X00344310Y00372075D02*
X00346850D01*
X00345580Y00370805D02*
Y00373345D01*
X00347612Y00366995D02*
X00350152D01*
X00348882Y00365725D02*
Y00368265D01*
X00354112Y00366995D02*
X00356652D01*
X00355382Y00365725D02*
Y00368265D01*
X00350885Y00371968D02*
X00353425D01*
X00352155Y00370698D02*
Y00373237D01*
X00490037Y00303815D02*
X00492578D01*
X00491307Y00302545D02*
Y00305085D01*
X00486810Y00308787D02*
X00489350D01*
X00488080Y00307517D02*
Y00310057D01*
X00493310Y00308787D02*
X00495850D01*
X00494580Y00307517D02*
Y00310057D01*
X00496612Y00303707D02*
X00499152D01*
X00497882Y00302437D02*
Y00304977D01*
X00499810Y00308787D02*
X00502350D01*
X00501080Y00307517D02*
Y00310057D01*
X00503112Y00303707D02*
X00505652D01*
X00504382Y00302437D02*
Y00304977D01*
X00506310Y00308787D02*
X00508850D01*
X00507580Y00307517D02*
Y00310057D01*
X00509612Y00303707D02*
X00512152D01*
X00510882Y00302437D02*
Y00304977D01*
X00516112Y00303707D02*
X00518652D01*
X00517382Y00302437D02*
Y00304977D01*
X00512810Y00308787D02*
X00515350D01*
X00514080Y00307517D02*
Y00310057D01*
X00519310Y00308787D02*
X00521850D01*
X00520580Y00307517D02*
Y00310057D01*
X00522612Y00303707D02*
X00525152D01*
X00523882Y00302437D02*
Y00304977D01*
X00525810Y00308787D02*
X00528350D01*
X00527080Y00307517D02*
Y00310057D01*
X00405787Y00303815D02*
X00408327D01*
X00407057Y00302545D02*
Y00305085D01*
X00402560Y00308787D02*
X00405100D01*
X00403830Y00307517D02*
Y00310057D01*
X00409060Y00308787D02*
X00411600D01*
X00410330Y00307517D02*
Y00310057D01*
X00412362Y00303707D02*
X00414902D01*
X00413632Y00302437D02*
Y00304977D01*
X00415560Y00308787D02*
X00418100D01*
X00416830Y00307517D02*
Y00310057D01*
X00418862Y00303707D02*
X00421402D01*
X00420132Y00302437D02*
Y00304977D01*
X00422060Y00308787D02*
X00424600D01*
X00423330Y00307517D02*
Y00310057D01*
X00425362Y00303707D02*
X00427902D01*
X00426632Y00302437D02*
Y00304977D01*
X00431862Y00303707D02*
X00434402D01*
X00433132Y00302437D02*
Y00304977D01*
X00428560Y00308787D02*
X00431100D01*
X00429830Y00307517D02*
Y00310057D01*
X00435060Y00308787D02*
X00437600D01*
X00436330Y00307517D02*
Y00310057D01*
X00438362Y00303707D02*
X00440902D01*
X00439632Y00302437D02*
Y00304977D01*
X00441560Y00308787D02*
X00444100D01*
X00442830Y00307517D02*
Y00310057D01*
X00474060Y00308787D02*
X00476600D01*
X00475330Y00307517D02*
Y00310057D01*
X00444862Y00303707D02*
X00447402D01*
X00446132Y00302437D02*
Y00304977D01*
X00448060Y00308787D02*
X00450600D01*
X00449330Y00307517D02*
Y00310057D01*
X00451362Y00303707D02*
X00453902D01*
X00452632Y00302437D02*
Y00304977D01*
X00454560Y00308787D02*
X00457100D01*
X00455830Y00307517D02*
Y00310057D01*
X00457862Y00303707D02*
X00460402D01*
X00459132Y00302437D02*
Y00304977D01*
X00470862Y00303707D02*
X00473402D01*
X00472132Y00302437D02*
Y00304977D01*
X00467560Y00308787D02*
X00470100D01*
X00468830Y00307517D02*
Y00310057D01*
X00461060Y00308787D02*
X00463600D01*
X00462330Y00307517D02*
Y00310057D01*
X00464362Y00303707D02*
X00466902D01*
X00465632Y00302437D02*
Y00304977D01*
X00477362Y00303707D02*
X00479902D01*
X00478632Y00302437D02*
Y00304977D01*
X00480560Y00308787D02*
X00483100D01*
X00481830Y00307517D02*
Y00310057D01*
X00483862Y00303707D02*
X00486402D01*
X00485132Y00302437D02*
Y00304977D01*
X00399164Y00303707D02*
X00401704D01*
X00400434Y00302437D02*
Y00304977D01*
X00395862Y00308787D02*
X00398402D01*
X00397132Y00307517D02*
Y00310057D01*
X00392664Y00303707D02*
X00395204D01*
X00393934Y00302437D02*
Y00304977D01*
X00379664Y00303707D02*
X00382204D01*
X00380934Y00302437D02*
Y00304977D01*
X00376362Y00308787D02*
X00378902D01*
X00377632Y00307517D02*
Y00310057D01*
X00382862Y00308787D02*
X00385402D01*
X00384132Y00307517D02*
Y00310057D01*
X00386164Y00303707D02*
X00388704D01*
X00387434Y00302437D02*
Y00304977D01*
X00373164Y00303707D02*
X00375704D01*
X00374434Y00302437D02*
Y00304977D01*
X00369862Y00308787D02*
X00372402D01*
X00371132Y00307517D02*
Y00310057D01*
X00366664Y00303707D02*
X00369204D01*
X00367934Y00302437D02*
Y00304977D01*
X00363362Y00308787D02*
X00365902D01*
X00364632Y00307517D02*
Y00310057D01*
X00360164Y00303707D02*
X00362704D01*
X00361434Y00302437D02*
Y00304977D01*
X00389362Y00308787D02*
X00391902D01*
X00390632Y00307517D02*
Y00310057D01*
X00356862Y00308787D02*
X00359402D01*
X00358132Y00307517D02*
Y00310057D01*
X00353664Y00303707D02*
X00356204D01*
X00354934Y00302437D02*
Y00304977D01*
X00350362Y00308787D02*
X00352902D01*
X00351632Y00307517D02*
Y00310057D01*
X00343862Y00308787D02*
X00346402D01*
X00345132Y00307517D02*
Y00310057D01*
X00347164Y00303707D02*
X00349704D01*
X00348434Y00302437D02*
Y00304977D01*
X00340664Y00303707D02*
X00343204D01*
X00341934Y00302437D02*
Y00304977D01*
X00337362Y00308787D02*
X00339902D01*
X00338632Y00307517D02*
Y00310057D01*
X00334164Y00303707D02*
X00336704D01*
X00335434Y00302437D02*
Y00304977D01*
X00330862Y00308787D02*
X00333402D01*
X00332132Y00307517D02*
Y00310057D01*
X00327664Y00303707D02*
X00330204D01*
X00328934Y00302437D02*
Y00304977D01*
X00324362Y00308787D02*
X00326902D01*
X00325632Y00307517D02*
Y00310057D01*
X00317862Y00308787D02*
X00320402D01*
X00319132Y00307517D02*
Y00310057D01*
X00321090Y00303815D02*
X00323629D01*
X00322360Y00302545D02*
Y00305085D01*
X00318062Y00487070D02*
X00320602D01*
X00319331Y00485800D02*
Y00488340D01*
X00314834Y00492042D02*
X00317374D01*
X00316104Y00490772D02*
Y00493312D01*
X00321334Y00492042D02*
X00323874D01*
X00322604Y00490772D02*
Y00493312D01*
X00324636Y00486962D02*
X00327176D01*
X00325906Y00485692D02*
Y00488232D01*
X00327834Y00492042D02*
X00330374D01*
X00329104Y00490772D02*
Y00493312D01*
X00331136Y00486962D02*
X00333676D01*
X00332406Y00485692D02*
Y00488232D01*
X00334334Y00492042D02*
X00336874D01*
X00335604Y00490772D02*
Y00493312D01*
X00337636Y00486962D02*
X00340176D01*
X00338906Y00485692D02*
Y00488232D01*
X00344136Y00486962D02*
X00346676D01*
X00345406Y00485692D02*
Y00488232D01*
X00340834Y00492042D02*
X00343374D01*
X00342104Y00490772D02*
Y00493312D01*
X00347334Y00492042D02*
X00349874D01*
X00348604Y00490772D02*
Y00493312D01*
X00350636Y00486962D02*
X00353176D01*
X00351906Y00485692D02*
Y00488232D01*
X00353834Y00492042D02*
X00356374D01*
X00355104Y00490772D02*
Y00493312D01*
X00386334Y00492042D02*
X00388874D01*
X00387604Y00490772D02*
Y00493312D01*
X00357136Y00486962D02*
X00359676D01*
X00358406Y00485692D02*
Y00488232D01*
X00360334Y00492042D02*
X00362874D01*
X00361604Y00490772D02*
Y00493312D01*
X00363636Y00486962D02*
X00366176D01*
X00364906Y00485692D02*
Y00488232D01*
X00366834Y00492042D02*
X00369374D01*
X00368104Y00490772D02*
Y00493312D01*
X00370136Y00486962D02*
X00372676D01*
X00371406Y00485692D02*
Y00488232D01*
X00383136Y00486962D02*
X00385676D01*
X00384406Y00485692D02*
Y00488232D01*
X00379834Y00492042D02*
X00382374D01*
X00381104Y00490772D02*
Y00493312D01*
X00373334Y00492042D02*
X00375874D01*
X00374604Y00490772D02*
Y00493312D01*
X00376636Y00486962D02*
X00379176D01*
X00377906Y00485692D02*
Y00488232D01*
X00389636Y00486962D02*
X00392176D01*
X00390906Y00485692D02*
Y00488232D01*
X00392834Y00492042D02*
X00395374D01*
X00394104Y00490772D02*
Y00493312D01*
X00396136Y00486962D02*
X00398676D01*
X00397406Y00485692D02*
Y00488232D01*
X00480834Y00486962D02*
X00483374D01*
X00482104Y00485692D02*
Y00488232D01*
X00477532Y00492042D02*
X00480072D01*
X00478802Y00490772D02*
Y00493312D01*
X00474334Y00486962D02*
X00476874D01*
X00475604Y00485692D02*
Y00488232D01*
X00461334Y00486962D02*
X00463874D01*
X00462604Y00485692D02*
Y00488232D01*
X00458032Y00492042D02*
X00460572D01*
X00459302Y00490772D02*
Y00493312D01*
X00464532Y00492042D02*
X00467072D01*
X00465802Y00490772D02*
Y00493312D01*
X00467834Y00486962D02*
X00470374D01*
X00469104Y00485692D02*
Y00488232D01*
X00454834Y00486962D02*
X00457374D01*
X00456104Y00485692D02*
Y00488232D01*
X00451532Y00492042D02*
X00454072D01*
X00452802Y00490772D02*
Y00493312D01*
X00448334Y00486962D02*
X00450874D01*
X00449604Y00485692D02*
Y00488232D01*
X00445032Y00492042D02*
X00447572D01*
X00446302Y00490772D02*
Y00493312D01*
X00441834Y00486962D02*
X00444374D01*
X00443104Y00485692D02*
Y00488232D01*
X00471032Y00492042D02*
X00473572D01*
X00472302Y00490772D02*
Y00493312D01*
X00438532Y00492042D02*
X00441072D01*
X00439802Y00490772D02*
Y00493312D01*
X00435334Y00486962D02*
X00437874D01*
X00436604Y00485692D02*
Y00488232D01*
X00432032Y00492042D02*
X00434572D01*
X00433302Y00490772D02*
Y00493312D01*
X00425532Y00492042D02*
X00428072D01*
X00426802Y00490772D02*
Y00493312D01*
X00428834Y00486962D02*
X00431374D01*
X00430104Y00485692D02*
Y00488232D01*
X00422334Y00486962D02*
X00424874D01*
X00423604Y00485692D02*
Y00488232D01*
X00419032Y00492042D02*
X00421572D01*
X00420302Y00490772D02*
Y00493312D01*
X00415834Y00486962D02*
X00418374D01*
X00417104Y00485692D02*
Y00488232D01*
X00412532Y00492042D02*
X00415072D01*
X00413802Y00490772D02*
Y00493312D01*
X00409334Y00486962D02*
X00411874D01*
X00410604Y00485692D02*
Y00488232D01*
X00406032Y00492042D02*
X00408572D01*
X00407302Y00490772D02*
Y00493312D01*
X00399532Y00492042D02*
X00402072D01*
X00400802Y00490772D02*
Y00493312D01*
X00402760Y00487070D02*
X00405299D01*
X00404030Y00485800D02*
Y00488340D01*
X00522782Y00492042D02*
X00525322D01*
X00524052Y00490772D02*
Y00493312D01*
X00519584Y00486962D02*
X00522124D01*
X00520854Y00485692D02*
Y00488232D01*
X00516282Y00492042D02*
X00518822D01*
X00517552Y00490772D02*
Y00493312D01*
X00509782Y00492042D02*
X00512322D01*
X00511052Y00490772D02*
Y00493312D01*
X00513084Y00486962D02*
X00515624D01*
X00514354Y00485692D02*
Y00488232D01*
X00506584Y00486962D02*
X00509124D01*
X00507854Y00485692D02*
Y00488232D01*
X00503282Y00492042D02*
X00505822D01*
X00504552Y00490772D02*
Y00493312D01*
X00500084Y00486962D02*
X00502624D01*
X00501354Y00485692D02*
Y00488232D01*
X00496782Y00492042D02*
X00499322D01*
X00498052Y00490772D02*
Y00493312D01*
X00493584Y00486962D02*
X00496124D01*
X00494854Y00485692D02*
Y00488232D01*
X00490282Y00492042D02*
X00492822D01*
X00491552Y00490772D02*
Y00493312D01*
X00483782Y00492042D02*
X00486322D01*
X00485052Y00490772D02*
Y00493312D01*
X00487010Y00487070D02*
X00489549D01*
X00488279Y00485800D02*
Y00488340D01*
X00347857Y00555223D02*
X00350397D01*
X00349127Y00553953D02*
Y00556493D01*
X00351084Y00550251D02*
X00353624D01*
X00352354Y00548980D02*
Y00551521D01*
X00344584Y00550251D02*
X00347124D01*
X00345854Y00548980D02*
Y00551521D01*
X00341282Y00555331D02*
X00343822D01*
X00342552Y00554061D02*
Y00556600D01*
X00338084Y00550251D02*
X00340624D01*
X00339354Y00548980D02*
Y00551521D01*
X00334782Y00555331D02*
X00337322D01*
X00336052Y00554061D02*
Y00556600D01*
X00331584Y00550251D02*
X00334124D01*
X00332854Y00548980D02*
Y00551521D01*
X00328282Y00555331D02*
X00330822D01*
X00329552Y00554061D02*
Y00556600D01*
X00321782Y00555331D02*
X00324322D01*
X00323052Y00554061D02*
Y00556600D01*
X00325084Y00550251D02*
X00327624D01*
X00326354Y00548980D02*
Y00551521D01*
X00318584Y00550251D02*
X00321124D01*
X00319854Y00548980D02*
Y00551521D01*
X00315282Y00555331D02*
X00317822D01*
X00316552Y00554061D02*
Y00556600D01*
X00312084Y00550251D02*
X00314624D01*
X00313354Y00548980D02*
Y00551521D01*
X00432107Y00555223D02*
X00434647D01*
X00433377Y00553953D02*
Y00556493D01*
X00435334Y00550251D02*
X00437874D01*
X00436604Y00548980D02*
Y00551521D01*
X00428834Y00550251D02*
X00431374D01*
X00430104Y00548980D02*
Y00551521D01*
X00425532Y00555331D02*
X00428072D01*
X00426802Y00554061D02*
Y00556600D01*
X00422334Y00550251D02*
X00424874D01*
X00423604Y00548980D02*
Y00551521D01*
X00419032Y00555331D02*
X00421572D01*
X00420302Y00554061D02*
Y00556600D01*
X00415834Y00550251D02*
X00418374D01*
X00417104Y00548980D02*
Y00551521D01*
X00412532Y00555331D02*
X00415072D01*
X00413802Y00554061D02*
Y00556600D01*
X00406032Y00555331D02*
X00408572D01*
X00407302Y00554061D02*
Y00556600D01*
X00409334Y00550251D02*
X00411874D01*
X00410604Y00548980D02*
Y00551521D01*
X00402834Y00550251D02*
X00405374D01*
X00404104Y00548980D02*
Y00551521D01*
X00399532Y00555331D02*
X00402072D01*
X00400802Y00554061D02*
Y00556600D01*
X00396334Y00550251D02*
X00398874D01*
X00397604Y00548980D02*
Y00551521D01*
X00363834Y00550251D02*
X00366374D01*
X00365104Y00548980D02*
Y00551521D01*
X00393032Y00555331D02*
X00395572D01*
X00394302Y00554061D02*
Y00556600D01*
X00389834Y00550251D02*
X00392374D01*
X00391104Y00548980D02*
Y00551521D01*
X00386532Y00555331D02*
X00389072D01*
X00387802Y00554061D02*
Y00556600D01*
X00383334Y00550251D02*
X00385874D01*
X00384604Y00548980D02*
Y00551521D01*
X00380032Y00555331D02*
X00382572D01*
X00381302Y00554061D02*
Y00556600D01*
X00367032Y00555331D02*
X00369572D01*
X00368302Y00554061D02*
Y00556600D01*
X00370334Y00550251D02*
X00372874D01*
X00371604Y00548980D02*
Y00551521D01*
X00376834Y00550251D02*
X00379374D01*
X00378104Y00548980D02*
Y00551521D01*
X00373532Y00555331D02*
X00376072D01*
X00374802Y00554061D02*
Y00556600D01*
X00360532Y00555331D02*
X00363072D01*
X00361802Y00554061D02*
Y00556600D01*
X00357334Y00550251D02*
X00359874D01*
X00358604Y00548980D02*
Y00551521D01*
X00354032Y00555331D02*
X00356572D01*
X00355302Y00554061D02*
Y00556600D01*
X00438730Y00555331D02*
X00441270D01*
X00440000Y00554061D02*
Y00556600D01*
X00442032Y00550251D02*
X00444572D01*
X00443302Y00548980D02*
Y00551521D01*
X00445230Y00555331D02*
X00447770D01*
X00446500Y00554061D02*
Y00556600D01*
X00458230Y00555331D02*
X00460770D01*
X00459500Y00554061D02*
Y00556600D01*
X00461532Y00550251D02*
X00464072D01*
X00462802Y00548980D02*
Y00551521D01*
X00455032Y00550251D02*
X00457572D01*
X00456302Y00548980D02*
Y00551521D01*
X00451730Y00555331D02*
X00454270D01*
X00453000Y00554061D02*
Y00556600D01*
X00464730Y00555331D02*
X00467270D01*
X00466000Y00554061D02*
Y00556600D01*
X00468032Y00550251D02*
X00470572D01*
X00469302Y00548980D02*
Y00551521D01*
X00471230Y00555331D02*
X00473770D01*
X00472500Y00554061D02*
Y00556600D01*
X00474532Y00550251D02*
X00477072D01*
X00475802Y00548980D02*
Y00551521D01*
X00477730Y00555331D02*
X00480270D01*
X00479000Y00554061D02*
Y00556600D01*
X00448532Y00550251D02*
X00451072D01*
X00449802Y00548980D02*
Y00551521D01*
X00481032Y00550251D02*
X00483572D01*
X00482302Y00548980D02*
Y00551521D01*
X00484230Y00555331D02*
X00486770D01*
X00485500Y00554061D02*
Y00556600D01*
X00487532Y00550251D02*
X00490072D01*
X00488802Y00548980D02*
Y00551521D01*
X00494032Y00550251D02*
X00496572D01*
X00495302Y00548980D02*
Y00551521D01*
X00490730Y00555331D02*
X00493270D01*
X00492000Y00554061D02*
Y00556600D01*
X00497230Y00555331D02*
X00499770D01*
X00498500Y00554061D02*
Y00556600D01*
X00500532Y00550251D02*
X00503072D01*
X00501802Y00548980D02*
Y00551521D01*
X00503730Y00555331D02*
X00506270D01*
X00505000Y00554061D02*
Y00556600D01*
X00507032Y00550251D02*
X00509572D01*
X00508302Y00548980D02*
Y00551521D01*
X00510230Y00555331D02*
X00512770D01*
X00511500Y00554061D02*
Y00556600D01*
X00513532Y00550251D02*
X00516072D01*
X00514802Y00548980D02*
Y00551521D01*
X00520032Y00550251D02*
X00522572D01*
X00521302Y00548980D02*
Y00551521D01*
X00516805Y00555223D02*
X00519345D01*
X00518075Y00553953D02*
Y00556493D01*
X01317510Y00891215D02*
X01320050D01*
X01318780Y00889945D02*
Y00892485D01*
X01173683Y01154376D02*
X01176223D01*
X01174953Y01153106D02*
Y01155646D01*
X01221900Y01151104D02*
X01224440D01*
X01223170Y01149834D02*
Y01152374D01*
X01296999Y01165072D02*
X01299539D01*
X01298269Y01163802D02*
Y01166342D01*
X00512775Y01633207D02*
X00515314D01*
X00514044Y01631937D02*
Y01634477D01*
X01173298Y01164996D02*
X01175838D01*
X01174568Y01163726D02*
Y01166266D01*
X01173298Y01171576D02*
X01175838D01*
X01174568Y01170306D02*
Y01172846D01*
X01171316Y01228674D02*
X01173856D01*
X01172586Y01227404D02*
Y01229944D01*
X01148199Y01239636D02*
X01150739D01*
X01149469Y01238366D02*
Y01240906D01*
X00281988Y01617348D02*
X00284528D01*
X00283258Y01616078D02*
Y01618618D01*
X00216761Y01625452D02*
X00219301D01*
X00218032Y01624182D02*
Y01626722D01*
X00155060Y01618503D02*
X00157600D01*
X00156330Y01617233D02*
Y01619773D01*
X00287708Y01540721D02*
X00290248D01*
X00288978Y01539451D02*
Y01541991D01*
X01236590Y00347704D02*
X01239130D01*
X01237860Y00346434D02*
Y00348974D01*
X00938730Y01037124D02*
X00941270D01*
X00940000Y01035854D02*
Y01038394D01*
X00399166Y01585465D02*
X00401706D01*
X00400436Y01584195D02*
Y01586735D01*
X02333355Y00582872D02*
X02335895D01*
X02334625Y00581602D02*
Y00584142D01*
X02333355Y00597243D02*
X02335895D01*
X02334625Y00595973D02*
Y00598513D01*
X02333355Y00568501D02*
X02335895D01*
X02334625Y00567231D02*
Y00569771D01*
X02333355Y00589800D02*
X02335895D01*
X02334625Y00588530D02*
Y00591070D01*
X02333355Y00575429D02*
X02335895D01*
X02334625Y00574159D02*
Y00576699D01*
X02333355Y00561058D02*
X02335895D01*
X02334625Y00559788D02*
Y00562328D01*
X02297738Y00589524D02*
X02300278D01*
X02299008Y00588254D02*
Y00590794D01*
X02297738Y00560782D02*
X02300278D01*
X02299008Y00559512D02*
Y00562052D01*
X02297738Y00575153D02*
X02300278D01*
X02299008Y00573883D02*
Y00576423D01*
X02297738Y00568225D02*
X02300278D01*
X02299008Y00566955D02*
Y00569495D01*
X02297738Y00596967D02*
X02300278D01*
X02299008Y00595697D02*
Y00598237D01*
X02297738Y00582596D02*
X02300278D01*
X02299008Y00581326D02*
Y00583866D01*
X02101775Y00373727D02*
X02104315D01*
X02103045Y00372457D02*
Y00374997D01*
X02132392Y00222271D02*
X02134933D01*
X02133663Y00221000D02*
Y00223540D01*
X02128730Y00369662D02*
X02131270D01*
X02130000Y00368392D02*
Y00370932D01*
X01212157Y00259804D02*
X01214697D01*
X01213427Y00258535D02*
Y00261075D01*
X01216826Y00982242D02*
X01219366D01*
X01218096Y00980972D02*
Y00983512D01*
X01062664Y00996214D02*
X01065204D01*
X01063934Y00994944D02*
Y00997484D01*
X01055751Y00996214D02*
X01058291D01*
X01057021Y00994944D02*
Y00997484D01*
X00904044Y00664056D02*
X00906584D01*
X00905314Y00662786D02*
Y00665326D01*
X01402602Y00584707D02*
X01405142D01*
X01403872Y00583437D02*
Y00585977D01*
X01751193Y00699846D02*
X01753733D01*
X01752463Y00698576D02*
Y00701116D01*
X01699628Y00695791D02*
X01702168D01*
X01700898Y00694521D02*
Y00697061D01*
X01755736Y00588867D02*
X01758276D01*
X01757006Y00587597D02*
Y00590137D01*
X01826015Y00621195D02*
X01828555D01*
X01827285Y00619925D02*
Y00622465D01*
X01834887Y00621195D02*
X01837427D01*
X01836157Y00619925D02*
Y00622465D01*
X01830553Y00616984D02*
X01833093D01*
X01831823Y00615714D02*
Y00618254D01*
X01388817Y00667907D02*
X01391357D01*
X01390087Y00666637D02*
Y00669177D01*
X01144288Y00663129D02*
X01146828D01*
X01145558Y00661859D02*
Y00664399D01*
X01783739Y00396792D02*
X01786279D01*
X01785009Y00395522D02*
Y00398062D01*
X01796916Y00396792D02*
X01799456D01*
X01798186Y00395522D02*
Y00398062D01*
X01809916Y00396792D02*
X01812456D01*
X01811186Y00395522D02*
Y00398062D01*
X01803416Y00396792D02*
X01805956D01*
X01804686Y00395522D02*
Y00398062D01*
X01800114Y00401872D02*
X01802654D01*
X01801384Y00400602D02*
Y00403142D01*
X01806614Y00401872D02*
X01809154D01*
X01807884Y00400602D02*
Y00403142D01*
X01793614Y00401872D02*
X01796154D01*
X01794884Y00400602D02*
Y00403142D01*
X01787114Y00401872D02*
X01789654D01*
X01788384Y00400602D02*
Y00403142D01*
X01790416Y00396792D02*
X01792956D01*
X01791686Y00395522D02*
Y00398062D01*
X01804151Y00317263D02*
X01806691D01*
X01805421Y00315993D02*
Y00318533D01*
X01807453Y00312183D02*
X01809993D01*
X01808723Y00310913D02*
Y00313453D01*
X01800953Y00312183D02*
X01803493D01*
X01802223Y00310913D02*
Y00313453D01*
X01787953Y00312183D02*
X01790493D01*
X01789223Y00310913D02*
Y00313453D01*
X01794453Y00312183D02*
X01796993D01*
X01795723Y00310913D02*
Y00313453D01*
X01791151Y00317263D02*
X01793690D01*
X01792421Y00315993D02*
Y00318533D01*
X01784651Y00317263D02*
X01787191D01*
X01785921Y00315993D02*
Y00318533D01*
X01797651Y00317263D02*
X01800191D01*
X01798921Y00315993D02*
Y00318533D01*
X01810828Y00317263D02*
X01813368D01*
X01812098Y00315993D02*
Y00318533D01*
X02250723Y00370519D02*
X02253262D01*
X02251992Y00369249D02*
Y00371789D01*
X02237545Y00370519D02*
X02240085D01*
X02238815Y00369249D02*
Y00371789D01*
X02224545Y00370519D02*
X02227085D01*
X02225815Y00369249D02*
Y00371789D01*
X02231045Y00370519D02*
X02233585D01*
X02232315Y00369249D02*
Y00371789D01*
X02234347Y00365439D02*
X02236887D01*
X02235617Y00364169D02*
Y00366709D01*
X02227847Y00365439D02*
X02230387D01*
X02229117Y00364169D02*
Y00366709D01*
X02240847Y00365439D02*
X02243387D01*
X02242117Y00364169D02*
Y00366709D01*
X02247347Y00365439D02*
X02249887D01*
X02248617Y00364169D02*
Y00366709D01*
X02244045Y00370519D02*
X02246585D01*
X02245315Y00369249D02*
Y00371789D01*
X02230311Y00450048D02*
X02232851D01*
X02231581Y00448778D02*
Y00451318D01*
X02227009Y00455128D02*
X02229549D01*
X02228279Y00453858D02*
Y00456398D01*
X02233509Y00455128D02*
X02236049D01*
X02234779Y00453858D02*
Y00456398D01*
X02246509Y00455128D02*
X02249049D01*
X02247779Y00453858D02*
Y00456398D01*
X02240009Y00455128D02*
X02242549D01*
X02241279Y00453858D02*
Y00456398D01*
X02243311Y00450048D02*
X02245851D01*
X02244581Y00448778D02*
Y00451318D01*
X02249811Y00450048D02*
X02252351D01*
X02251081Y00448778D02*
Y00451318D01*
X02236811Y00450048D02*
X02239351D01*
X02238081Y00448778D02*
Y00451318D01*
X02223634Y00450048D02*
X02226174D01*
X02224904Y00448778D02*
Y00451318D01*
X02111381Y00362485D02*
X02113921D01*
X02112651Y00361215D02*
Y00363755D01*
X02211357Y00606503D02*
X02213897D01*
X02212627Y00605233D02*
Y00607773D01*
X01478125Y00424074D02*
X01480665D01*
X01479395Y00422804D02*
Y00425344D01*
X01442078Y00512034D02*
X01444618D01*
X01443348Y00510764D02*
Y00513304D01*
X01440101Y00447218D02*
X01442641D01*
X01441371Y00445948D02*
Y00448488D01*
X01427346Y00406000D02*
X01429886D01*
X01428616Y00404730D02*
Y00407270D01*
X01211124Y00742551D02*
X01213664D01*
X01212394Y00741281D02*
Y00743821D01*
X01183318Y00580177D02*
X01185858D01*
X01184588Y00578907D02*
Y00581447D01*
X01173298Y01178665D02*
X01175838D01*
X01174568Y01177395D02*
Y01179935D01*
X01306346Y01012751D02*
X01308886D01*
X01307616Y01011481D02*
Y01014021D01*
X01296999Y01120167D02*
X01299539D01*
X01298269Y01118897D02*
Y01121437D01*
X01227236Y01057516D02*
X01229776D01*
X01228506Y01056246D02*
Y01058786D01*
X01293569Y01083109D02*
X01296109D01*
X01294839Y01081839D02*
Y01084379D01*
X01259235Y01076077D02*
X01261775D01*
X01260505Y01074807D02*
Y01077347D01*
X01173675Y01060843D02*
X01176215D01*
X01174945Y01059573D02*
Y01062113D01*
X01267222Y00566001D02*
X01269762D01*
X01268492Y00564731D02*
Y00567271D01*
X01241638Y00524046D02*
X01244178D01*
X01242908Y00522776D02*
Y00525316D01*
X01174108Y01068486D02*
X01176648D01*
X01175378Y01067216D02*
Y01069756D01*
X01145421Y00677056D02*
X01147961D01*
X01146691Y00675786D02*
Y00678326D01*
X01145421Y00683652D02*
X01147961D01*
X01146691Y00682382D02*
Y00684922D01*
X01196326Y00545296D02*
X01198866D01*
X01197596Y00544026D02*
Y00546566D01*
X01265065Y00594219D02*
X01267605D01*
X01266335Y00592949D02*
Y00595489D01*
X01314748Y00494781D02*
X01317288D01*
X01316018Y00493511D02*
Y00496050D01*
X01314220Y00459909D02*
X01316760D01*
X01315490Y00458639D02*
Y00461179D01*
X01145732Y00530587D02*
X01148272D01*
X01147002Y00529317D02*
Y00531857D01*
X01178840Y00930168D02*
X01181380D01*
X01180110Y00928898D02*
Y00931438D01*
X01149238Y00930168D02*
X01151778D01*
X01150508Y00928898D02*
Y00931438D01*
X01143219Y00930168D02*
X01145759D01*
X01144489Y00928898D02*
Y00931438D01*
X01137201Y00930168D02*
X01139741D01*
X01138471Y00928898D02*
Y00931438D01*
X01131309Y00930045D02*
X01133849D01*
X01132579Y00928775D02*
Y00931315D01*
X01125291Y00930045D02*
X01127831D01*
X01126561Y00928775D02*
Y00931315D01*
X01119272Y00930045D02*
X01121812D01*
X01120542Y00928775D02*
Y00931315D01*
X01113254Y00930045D02*
X01115794D01*
X01114524Y00928775D02*
Y00931315D01*
X01107235Y00930045D02*
X01109775D01*
X01108505Y00928775D02*
Y00931315D01*
X01101090Y00930168D02*
X01103630D01*
X01102360Y00928898D02*
Y00931438D01*
X01077016Y00930168D02*
X01079556D01*
X01078286Y00928898D02*
Y00931438D01*
X01095071Y00930168D02*
X01097611D01*
X01096341Y00928898D02*
Y00931438D01*
X01089053Y00930168D02*
X01091593D01*
X01090323Y00928898D02*
Y00931438D01*
X01070997Y00930168D02*
X01073537D01*
X01072267Y00928898D02*
Y00931438D01*
X01161275Y00930168D02*
X01163815D01*
X01162545Y00928898D02*
Y00931438D01*
X01155256Y00930168D02*
X01157796D01*
X01156526Y00928898D02*
Y00931438D01*
X01167293Y00930168D02*
X01169833D01*
X01168563Y00928898D02*
Y00931438D01*
X01173312Y00930168D02*
X01175852D01*
X01174582Y00928898D02*
Y00931438D01*
X01083034Y00930168D02*
X01085574D01*
X01084304Y00928898D02*
Y00931438D01*
X01749088Y00474367D02*
X01751628D01*
X01750358Y00473097D02*
Y00475637D01*
X01752286Y00479447D02*
X01754826D01*
X01753556Y00478177D02*
Y00480717D01*
X01765286Y00479447D02*
X01767826D01*
X01766556Y00478177D02*
Y00480717D01*
X01768588Y00474367D02*
X01771128D01*
X01769858Y00473097D02*
Y00475637D01*
X01762088Y00474367D02*
X01764628D01*
X01763358Y00473097D02*
Y00475637D01*
X01758786Y00479447D02*
X01761326D01*
X01760056Y00478177D02*
Y00480717D01*
X01771786Y00479447D02*
X01774326D01*
X01773056Y00478177D02*
Y00480717D01*
X01775088Y00474367D02*
X01777628D01*
X01776358Y00473097D02*
Y00475637D01*
X01778286Y00479447D02*
X01780826D01*
X01779556Y00478177D02*
Y00480717D01*
X01781588Y00474367D02*
X01784128D01*
X01782858Y00473097D02*
Y00475637D01*
X01784786Y00479447D02*
X01787326D01*
X01786056Y00478177D02*
Y00480717D01*
X01755588Y00474367D02*
X01758128D01*
X01756858Y00473097D02*
Y00475637D01*
X01788088Y00474367D02*
X01790628D01*
X01789358Y00473097D02*
Y00475637D01*
X01791286Y00479447D02*
X01793826D01*
X01792556Y00478177D02*
Y00480717D01*
X01794588Y00474367D02*
X01797128D01*
X01795858Y00473097D02*
Y00475637D01*
X01738357Y00470393D02*
X01740897D01*
X01739627Y00469123D02*
Y00471663D01*
X01738357Y00476893D02*
X01740897D01*
X01739627Y00475623D02*
Y00478163D01*
X01743437Y00480195D02*
X01745977D01*
X01744707Y00478925D02*
Y00481465D01*
X01738357Y00483393D02*
X01740897D01*
X01739627Y00482123D02*
Y00484663D01*
X01743437Y00486695D02*
X01745977D01*
X01744707Y00485425D02*
Y00487965D01*
X01738357Y00489893D02*
X01740897D01*
X01739627Y00488623D02*
Y00491163D01*
X01743437Y00493195D02*
X01745977D01*
X01744707Y00491925D02*
Y00494465D01*
X01743437Y00499695D02*
X01745977D01*
X01744707Y00498425D02*
Y00500965D01*
X01738357Y00496393D02*
X01740897D01*
X01739627Y00495123D02*
Y00497663D01*
X01738357Y00502893D02*
X01740897D01*
X01739627Y00501623D02*
Y00504163D01*
X01743437Y00506195D02*
X01745977D01*
X01744707Y00504925D02*
Y00507465D01*
X01738357Y00509393D02*
X01740897D01*
X01739627Y00508123D02*
Y00510663D01*
X01738357Y00541893D02*
X01740897D01*
X01739627Y00540623D02*
Y00543163D01*
X01743437Y00512695D02*
X01745977D01*
X01744707Y00511425D02*
Y00513965D01*
X01738357Y00515893D02*
X01740897D01*
X01739627Y00514623D02*
Y00517163D01*
X01743437Y00519195D02*
X01745977D01*
X01744707Y00517925D02*
Y00520465D01*
X01738357Y00522393D02*
X01740897D01*
X01739627Y00521123D02*
Y00523663D01*
X01743437Y00525695D02*
X01745977D01*
X01744707Y00524425D02*
Y00526965D01*
X01743437Y00538695D02*
X01745977D01*
X01744707Y00537425D02*
Y00539965D01*
X01738357Y00535393D02*
X01740897D01*
X01739627Y00534123D02*
Y00536663D01*
X01738357Y00528893D02*
X01740897D01*
X01739627Y00527623D02*
Y00530163D01*
X01743437Y00532195D02*
X01745977D01*
X01744707Y00530925D02*
Y00533465D01*
X01743437Y00545195D02*
X01745977D01*
X01744707Y00543925D02*
Y00546465D01*
X01738357Y00548393D02*
X01740897D01*
X01739627Y00547123D02*
Y00549663D01*
X01743437Y00551695D02*
X01745977D01*
X01744707Y00550425D02*
Y00552965D01*
X02217647Y00520490D02*
X02220187D01*
X02218917Y00519220D02*
Y00521760D01*
X02223230Y00517993D02*
X02225770D01*
X02224500Y00516723D02*
Y00519263D01*
X02262407Y00517993D02*
X02264947D01*
X02263677Y00516723D02*
Y00519263D01*
X02255907Y00517993D02*
X02258447D01*
X02257177Y00516723D02*
Y00519263D01*
X02236407Y00517993D02*
X02238947D01*
X02237677Y00516723D02*
Y00519263D01*
X02268907Y00517993D02*
X02271447D01*
X02270177Y00516723D02*
Y00519263D01*
X02265605Y00523073D02*
X02268145D01*
X02266875Y00521803D02*
Y00524343D01*
X02259105Y00523073D02*
X02261645D01*
X02260375Y00521803D02*
Y00524343D01*
X02249407Y00517993D02*
X02251947D01*
X02250677Y00516723D02*
Y00519263D01*
X02242907Y00517993D02*
X02245447D01*
X02244177Y00516723D02*
Y00519263D01*
X02239605Y00523073D02*
X02242145D01*
X02240875Y00521803D02*
Y00524343D01*
X02246105Y00523073D02*
X02248645D01*
X02247375Y00521803D02*
Y00524343D01*
X02233105Y00523073D02*
X02235645D01*
X02234375Y00521803D02*
Y00524343D01*
X02252605Y00523073D02*
X02255145D01*
X02253875Y00521803D02*
Y00524343D01*
X02226605Y00523073D02*
X02229145D01*
X02227875Y00521803D02*
Y00524343D01*
X02229907Y00517993D02*
X02232447D01*
X02231177Y00516723D02*
Y00519263D01*
X02537990Y00502108D02*
X02540530D01*
X02539260Y00500838D02*
Y00503378D01*
X02216796Y00526731D02*
X02219335D01*
X02218065Y00525461D02*
Y00528001D01*
X02211716Y00523429D02*
X02214256D01*
X02212986Y00522159D02*
Y00524699D01*
X02211716Y00516929D02*
X02214256D01*
X02212986Y00515659D02*
Y00518199D01*
X02320227Y00664433D02*
X02322767D01*
X02321497Y00663163D02*
Y00665703D01*
X02324765Y00660222D02*
X02327305D01*
X02326035Y00658952D02*
Y00661492D01*
X02315893Y00660222D02*
X02318433D01*
X02317163Y00658952D02*
Y00661492D01*
X02311355Y00664433D02*
X02313895D01*
X02312625Y00663163D02*
Y00665703D01*
X02307021Y00660222D02*
X02309561D01*
X02308291Y00658952D02*
Y00661492D01*
X02302484Y00664433D02*
X02305024D01*
X02303754Y00663163D02*
Y00665703D01*
X02216796Y00598231D02*
X02219335D01*
X02218065Y00596961D02*
Y00599501D01*
X02216796Y00591731D02*
X02219335D01*
X02218065Y00590461D02*
Y00593001D01*
X02211716Y00588429D02*
X02214256D01*
X02212986Y00587159D02*
Y00589699D01*
X02211716Y00575429D02*
X02214256D01*
X02212986Y00574159D02*
Y00576699D01*
X02211716Y00568929D02*
X02214256D01*
X02212986Y00567659D02*
Y00570199D01*
X02216796Y00585231D02*
X02219335D01*
X02218065Y00583961D02*
Y00586501D01*
X02216796Y00572231D02*
X02219335D01*
X02218065Y00570961D02*
Y00573501D01*
X02211716Y00581929D02*
X02214256D01*
X02212986Y00580659D02*
Y00583199D01*
X02216796Y00578731D02*
X02219335D01*
X02218065Y00577461D02*
Y00580001D01*
X02211716Y00594929D02*
X02214256D01*
X02212986Y00593659D02*
Y00596199D01*
X02211716Y00549429D02*
X02214256D01*
X02212986Y00548159D02*
Y00550699D01*
X02211716Y00529929D02*
X02214256D01*
X02212986Y00528659D02*
Y00531199D01*
X02211716Y00542929D02*
X02214256D01*
X02212986Y00541659D02*
Y00544199D01*
X02211716Y00536429D02*
X02214256D01*
X02212986Y00535159D02*
Y00537699D01*
X02216796Y00539731D02*
X02219335D01*
X02218065Y00538461D02*
Y00541001D01*
X02216796Y00546231D02*
X02219335D01*
X02218065Y00544961D02*
Y00547501D01*
X02211716Y00555929D02*
X02214256D01*
X02212986Y00554659D02*
Y00557199D01*
X02211716Y00562429D02*
X02214256D01*
X02212986Y00561159D02*
Y00563699D01*
X02216796Y00565731D02*
X02219335D01*
X02218065Y00564461D02*
Y00567001D01*
X02216796Y00533231D02*
X02219335D01*
X02218065Y00531961D02*
Y00534501D01*
X02216796Y00552731D02*
X02219335D01*
X02218065Y00551461D02*
Y00554001D01*
X02216796Y00559231D02*
X02219335D01*
X02218065Y00557961D02*
Y00560501D01*
X02497170Y00502108D02*
X02499710D01*
X02498440Y00500838D02*
Y00503378D01*
X02488298Y00502108D02*
X02490838D01*
X02489568Y00500838D02*
Y00503378D01*
X02492632Y00506319D02*
X02495172D01*
X02493902Y00505049D02*
Y00507589D01*
X02533452Y00506319D02*
X02535992D01*
X02534722Y00505049D02*
Y00507589D01*
X02483760Y00506319D02*
X02486300D01*
X02485030Y00505049D02*
Y00507589D01*
X02479426Y00502108D02*
X02481966D01*
X02480696Y00500838D02*
Y00503378D01*
X02474889Y00506319D02*
X02477429D01*
X02476159Y00505049D02*
Y00507589D01*
X02529118Y00502108D02*
X02531658D01*
X02530388Y00500838D02*
Y00503378D01*
X02524580Y00506319D02*
X02527120D01*
X02525850Y00505049D02*
Y00507589D01*
X02515708Y00506319D02*
X02518248D01*
X02516978Y00505049D02*
Y00507589D01*
X02520246Y00502108D02*
X02522786D01*
X02521516Y00500838D02*
Y00503378D01*
X02446079Y00502108D02*
X02448619D01*
X02447349Y00500838D02*
Y00503378D01*
X02450413Y00506319D02*
X02452953D01*
X02451683Y00505049D02*
Y00507589D01*
X02437208Y00502108D02*
X02439748D01*
X02438478Y00500838D02*
Y00503378D01*
X02454951Y00502108D02*
X02457491D01*
X02456221Y00500838D02*
Y00503378D01*
X02410143Y00506319D02*
X02412683D01*
X02411413Y00505049D02*
Y00507589D01*
X02432670Y00506319D02*
X02435210D01*
X02433940Y00505049D02*
Y00507589D01*
X02441542Y00506319D02*
X02444082D01*
X02442812Y00505049D02*
Y00507589D01*
X02392400Y00506319D02*
X02394940D01*
X02393670Y00505049D02*
Y00507589D01*
X02396938Y00502108D02*
X02399478D01*
X02398208Y00500838D02*
Y00503378D01*
X02405809Y00502108D02*
X02408349D01*
X02407079Y00500838D02*
Y00503378D01*
X02401272Y00506319D02*
X02403812D01*
X02402542Y00505049D02*
Y00507589D01*
X02414681Y00502108D02*
X02417221D01*
X02415951Y00500838D02*
Y00503378D01*
X01936956Y00464054D02*
X01939496D01*
X01938226Y00462785D02*
Y00465325D01*
X01945827Y00464054D02*
X01948367D01*
X01947097Y00462785D02*
Y00465325D01*
X01941290Y00468265D02*
X01943830D01*
X01942560Y00466995D02*
Y00469535D01*
X01950161Y00468265D02*
X01952701D01*
X01951431Y00466995D02*
Y00469535D01*
X01954699Y00464054D02*
X01957239D01*
X01955969Y00462785D02*
Y00465325D01*
X01974637Y00468265D02*
X01977177D01*
X01975907Y00466995D02*
Y00469535D01*
X01979174Y00464054D02*
X01981714D01*
X01980444Y00462785D02*
Y00465325D01*
X01983508Y00468265D02*
X01986048D01*
X01984778Y00466995D02*
Y00469535D01*
X01988046Y00464054D02*
X01990586D01*
X01989316Y00462785D02*
Y00465325D01*
X01996918Y00464054D02*
X01999458D01*
X01998188Y00462785D02*
Y00465325D01*
X01992380Y00468265D02*
X01994920D01*
X01993650Y00466995D02*
Y00469535D01*
X02033200Y00468265D02*
X02035740D01*
X02034470Y00466995D02*
Y00469535D01*
X02024328Y00468265D02*
X02026868D01*
X02025598Y00466995D02*
Y00469535D01*
X02028866Y00464054D02*
X02031406D01*
X02030136Y00462785D02*
Y00465325D01*
X01892148Y00468265D02*
X01894688D01*
X01893418Y00466995D02*
Y00469535D01*
X01905557Y00464054D02*
X01908097D01*
X01906827Y00462785D02*
Y00465325D01*
X01909891Y00468265D02*
X01912431D01*
X01911161Y00466995D02*
Y00469535D01*
X01896686Y00464054D02*
X01899226D01*
X01897956Y00462785D02*
Y00465325D01*
X01901020Y00468265D02*
X01903560D01*
X01902290Y00466995D02*
Y00469535D01*
X01914429Y00464054D02*
X01916969D01*
X01915699Y00462785D02*
Y00465325D01*
X02019994Y00464054D02*
X02022534D01*
X02021264Y00462785D02*
Y00465325D01*
X02015457Y00468265D02*
X02017997D01*
X02016727Y00466995D02*
Y00469535D01*
X01932418Y00468265D02*
X01934958D01*
X01933688Y00466995D02*
Y00469535D01*
X01146676Y00582414D02*
X01149216D01*
X01147946Y00581144D02*
Y00583684D01*
X01151139Y00538096D02*
X01153679D01*
X01152409Y00536826D02*
Y00539366D01*
X01843759Y00621195D02*
X01846299D01*
X01845029Y00619925D02*
Y00622465D01*
X01839425Y00616984D02*
X01841965D01*
X01840695Y00615714D02*
Y00618254D01*
X01848297Y00616984D02*
X01850837D01*
X01849567Y00615714D02*
Y00618254D01*
X01118543Y00548607D02*
X01121083D01*
X01119813Y00547337D02*
Y00549877D01*
X01145395Y00544035D02*
X01147934D01*
X01146665Y00542765D02*
Y00545305D01*
X01098991Y00723379D02*
X01101531D01*
X01100261Y00722109D02*
Y00724649D01*
X01092491Y00723379D02*
X01095031D01*
X01093761Y00722109D02*
Y00724649D01*
X01085991Y00723379D02*
X01088531D01*
X01087261Y00722109D02*
Y00724649D01*
X01079491Y00723379D02*
X01082031D01*
X01080761Y00722109D02*
Y00724649D01*
X01072991Y00723379D02*
X01075531D01*
X01074261Y00722109D02*
Y00724649D01*
X01066491Y00723379D02*
X01069031D01*
X01067761Y00722109D02*
Y00724649D01*
X01059991Y00723379D02*
X01062531D01*
X01061261Y00722109D02*
Y00724649D01*
X01053491Y00723379D02*
X01056031D01*
X01054761Y00722109D02*
Y00724649D01*
X01046991Y00723379D02*
X01049531D01*
X01048261Y00722109D02*
Y00724649D01*
X01040491Y00723379D02*
X01043031D01*
X01041761Y00722109D02*
Y00724649D01*
X01033991Y00723379D02*
X01036531D01*
X01035261Y00722109D02*
Y00724649D01*
X01027491Y00723379D02*
X01030031D01*
X01028761Y00722109D02*
Y00724649D01*
X01037293Y00718299D02*
X01039833D01*
X01038563Y00717029D02*
Y00719569D01*
X01043793Y00718299D02*
X01046333D01*
X01045063Y00717029D02*
Y00719569D01*
X01063293Y00718299D02*
X01065833D01*
X01064563Y00717029D02*
Y00719569D01*
X01056793Y00718299D02*
X01059333D01*
X01058063Y00717029D02*
Y00719569D01*
X01050293Y00718299D02*
X01052833D01*
X01051563Y00717029D02*
Y00719569D01*
X01076293Y00718299D02*
X01078833D01*
X01077563Y00717029D02*
Y00719569D01*
X01069793Y00718299D02*
X01072333D01*
X01071063Y00717029D02*
Y00719569D01*
X01095793Y00718299D02*
X01098333D01*
X01097063Y00717029D02*
Y00719569D01*
X01089293Y00718299D02*
X01091833D01*
X01090563Y00717029D02*
Y00719569D01*
X01082793Y00718299D02*
X01085333D01*
X01084063Y00717029D02*
Y00719569D01*
X01102293Y00718299D02*
X01104833D01*
X01103563Y00717029D02*
Y00719569D01*
X01118543Y00580140D02*
X01121083D01*
X01119813Y00578870D02*
Y00581410D01*
X01118543Y00569629D02*
X01121083D01*
X01119813Y00568359D02*
Y00570899D01*
X01118543Y00559118D02*
X01121083D01*
X01119813Y00557848D02*
Y00560388D01*
M02*
