G04*
G04 #@! TF.GenerationSoftware,Altium Limited,Altium Designer,23.1.1 (15)*
G04*
G04 Layer_Color=2752767*
%FSAX44Y44*%
%MOMM*%
G71*
G04*
G04 #@! TF.SameCoordinates,9B1E6CB6-7F21-4D16-986F-FEEA4F8F1DB9*
G04*
G04*
G04 #@! TF.FilePolarity,Positive*
G04*
G01*
G75*
%ADD19C,0.2540*%
%ADD22C,0.2032*%
%ADD197C,0.0508*%
%ADD198C,0.0677*%
%ADD199C,0.0339*%
G54D19*
X01038734Y00433739D02*
Y00588679D01*
X00412751D02*
X02089532D01*
X01360552Y00537032D02*
Y00588679D01*
X01573912Y00537032D02*
Y00588679D01*
X01731900Y00432088D02*
Y00483608D01*
X01429894Y00433739D02*
X02089532D01*
X00412751D02*
X00812928D01*
X00412624Y00537032D02*
X02089532D01*
X00412624Y00433739D02*
X01429894D01*
X00412624Y00485386D02*
X02089024D01*
X00412624Y00433739D02*
Y00588679D01*
X00412751Y00433739D02*
Y00588679D01*
X02089532Y00433739D02*
Y00588679D01*
G54D22*
X00428753Y00555109D02*
Y00558441D01*
X00430419Y00560107D01*
X00432085Y00558441D01*
Y00555109D01*
Y00557608D01*
X00428753D01*
X00433751Y00560107D02*
Y00555109D01*
X00437084D01*
X00438750Y00560107D02*
Y00555109D01*
X00442082D01*
X00448747D02*
Y00558441D01*
X00450413Y00560107D01*
X00452079Y00558441D01*
Y00555109D01*
Y00557608D01*
X00448747D01*
X00453745Y00555109D02*
Y00560107D01*
X00456244D01*
X00457077Y00559274D01*
Y00557608D01*
X00456244Y00556775D01*
X00453745D01*
X00455411D02*
X00457077Y00555109D01*
X00458743Y00560107D02*
X00462076D01*
X00460410D01*
Y00555109D01*
X00463742Y00560107D02*
Y00555109D01*
X00465408Y00556775D01*
X00467074Y00555109D01*
Y00560107D01*
X00471239D02*
X00469573D01*
X00468740Y00559274D01*
Y00555942D01*
X00469573Y00555109D01*
X00471239D01*
X00472072Y00555942D01*
Y00559274D01*
X00471239Y00560107D01*
X00473738Y00555109D02*
Y00560107D01*
X00476238D01*
X00477071Y00559274D01*
Y00557608D01*
X00476238Y00556775D01*
X00473738D01*
X00475405D02*
X00477071Y00555109D01*
X00478737Y00560107D02*
Y00555109D01*
Y00556775D01*
X00482069Y00560107D01*
X00479570Y00557608D01*
X00482069Y00555109D01*
X00488733Y00560107D02*
Y00556775D01*
X00490400Y00555109D01*
X00492066Y00556775D01*
Y00560107D01*
X00493732D02*
X00495398D01*
X00494565D01*
Y00555109D01*
X00493732D01*
X00495398D01*
X00501230Y00560107D02*
X00497897D01*
Y00555109D01*
X00501230D01*
X00497897Y00557608D02*
X00499563D01*
X00502896Y00560107D02*
Y00555109D01*
X00504562Y00556775D01*
X00506228Y00555109D01*
Y00560107D01*
X00511226D02*
X00507894D01*
Y00555109D01*
X00511226D01*
X00507894Y00557608D02*
X00509560D01*
X00512892Y00560107D02*
Y00555109D01*
X00515392D01*
X00516225Y00555942D01*
Y00559274D01*
X00515392Y00560107D01*
X00512892D01*
X00526221D02*
X00522889D01*
Y00557608D01*
X00524555D01*
X00522889D01*
Y00555109D01*
X00527887D02*
Y00560107D01*
X00530387D01*
X00531220Y00559274D01*
Y00557608D01*
X00530387Y00556775D01*
X00527887D01*
X00529553D02*
X00531220Y00555109D01*
X00535385Y00560107D02*
X00533719D01*
X00532886Y00559274D01*
Y00555942D01*
X00533719Y00555109D01*
X00535385D01*
X00536218Y00555942D01*
Y00559274D01*
X00535385Y00560107D01*
X00537884Y00555109D02*
Y00560107D01*
X00539550Y00558441D01*
X00541216Y00560107D01*
Y00555109D01*
X00547881Y00560107D02*
X00551213D01*
X00549547D01*
Y00555109D01*
X00555378Y00560107D02*
X00553712D01*
X00552879Y00559274D01*
Y00555942D01*
X00553712Y00555109D01*
X00555378D01*
X00556212Y00555942D01*
Y00559274D01*
X00555378Y00560107D01*
X00557878Y00555109D02*
Y00560107D01*
X00560377D01*
X00561210Y00559274D01*
Y00557608D01*
X00560377Y00556775D01*
X00557878D01*
X00571207Y00559274D02*
X00570373Y00560107D01*
X00568707D01*
X00567874Y00559274D01*
Y00558441D01*
X00568707Y00557608D01*
X00570373D01*
X00571207Y00556775D01*
Y00555942D01*
X00570373Y00555109D01*
X00568707D01*
X00567874Y00555942D01*
X00572873Y00560107D02*
X00574539D01*
X00573706D01*
Y00555109D01*
X00572873D01*
X00574539D01*
X00577038Y00560107D02*
Y00555109D01*
X00579537D01*
X00580370Y00555942D01*
Y00559274D01*
X00579537Y00560107D01*
X00577038D01*
X00585369D02*
X00582036D01*
Y00555109D01*
X00585369D01*
X00582036Y00557608D02*
X00583703D01*
X00428753Y00451307D02*
Y00456305D01*
X00431252D01*
X00432085Y00455472D01*
Y00453806D01*
X00431252Y00452973D01*
X00428753D01*
X00433751Y00456305D02*
Y00451307D01*
X00437084D01*
X00441249Y00456305D02*
X00439583D01*
X00438750Y00455472D01*
Y00452140D01*
X00439583Y00451307D01*
X00441249D01*
X00442082Y00452140D01*
Y00455472D01*
X00441249Y00456305D01*
X00443748D02*
X00447080D01*
X00445414D01*
Y00451307D01*
X00453745D02*
Y00456305D01*
X00457077Y00451307D01*
Y00456305D01*
X00458743Y00451307D02*
Y00454639D01*
X00460410Y00456305D01*
X00462076Y00454639D01*
Y00451307D01*
Y00453806D01*
X00458743D01*
X00463742Y00451307D02*
Y00456305D01*
X00465408Y00454639D01*
X00467074Y00456305D01*
Y00451307D01*
X00472072Y00456305D02*
X00468740D01*
Y00451307D01*
X00472072D01*
X00468740Y00453806D02*
X00470406D01*
X00478737Y00452973D02*
X00482069D01*
X00478737Y00454639D02*
X00482069D01*
X00428753Y00508589D02*
Y00503591D01*
X00432085D01*
X00433751D02*
Y00506923D01*
X00435418Y00508589D01*
X00437084Y00506923D01*
Y00503591D01*
Y00506090D01*
X00433751D01*
X00438750Y00508589D02*
Y00507756D01*
X00440416Y00506090D01*
X00442082Y00507756D01*
Y00508589D01*
X00440416Y00506090D02*
Y00503591D01*
X00447080Y00508589D02*
X00443748D01*
Y00503591D01*
X00447080D01*
X00443748Y00506090D02*
X00445414D01*
X00448747Y00503591D02*
Y00508589D01*
X00451246D01*
X00452079Y00507756D01*
Y00506090D01*
X00451246Y00505257D01*
X00448747D01*
X00450413D02*
X00452079Y00503591D01*
X00458743D02*
Y00508589D01*
X00462076Y00503591D01*
Y00508589D01*
X00463742Y00503591D02*
Y00506923D01*
X00465408Y00508589D01*
X00467074Y00506923D01*
Y00503591D01*
Y00506090D01*
X00463742D01*
X00468740Y00503591D02*
Y00508589D01*
X00470406Y00506923D01*
X00472072Y00508589D01*
Y00503591D01*
X00477071Y00508589D02*
X00473738D01*
Y00503591D01*
X00477071D01*
X00473738Y00506090D02*
X00475405D01*
X00483735Y00505257D02*
X00487067D01*
X00483735Y00506923D02*
X00487067D01*
X01057784Y00560107D02*
Y00555109D01*
X01060283D01*
X01061116Y00555942D01*
Y00556775D01*
X01060283Y00557608D01*
X01057784D01*
X01060283D01*
X01061116Y00558441D01*
Y00559274D01*
X01060283Y00560107D01*
X01057784D01*
X01065282D02*
X01063616D01*
X01062783Y00559274D01*
Y00555942D01*
X01063616Y00555109D01*
X01065282D01*
X01066115Y00555942D01*
Y00559274D01*
X01065282Y00560107D01*
X01067781Y00555109D02*
Y00558441D01*
X01069447Y00560107D01*
X01071113Y00558441D01*
Y00555109D01*
Y00557608D01*
X01067781D01*
X01072779Y00555109D02*
Y00560107D01*
X01075278D01*
X01076112Y00559274D01*
Y00557608D01*
X01075278Y00556775D01*
X01072779D01*
X01074445D02*
X01076112Y00555109D01*
X01077778Y00560107D02*
Y00555109D01*
X01080277D01*
X01081110Y00555942D01*
Y00559274D01*
X01080277Y00560107D01*
X01077778D01*
X01088607Y00555109D02*
Y00560107D01*
X01090274D02*
Y00555109D01*
X01087774Y00558441D02*
X01090274D01*
X01091107D01*
X01087774Y00556775D02*
X01091107D01*
X01092773Y00558441D02*
X01093606D01*
Y00557608D01*
X01092773D01*
Y00558441D01*
Y00555942D02*
X01093606D01*
Y00555109D01*
X01092773D01*
Y00555942D01*
X00633350Y00456305D02*
X00636682D01*
X00635016D01*
Y00451307D01*
X00638349Y00456305D02*
X00640015D01*
X00639182D01*
Y00451307D01*
X00638349D01*
X00640015D01*
X00642514Y00456305D02*
Y00451307D01*
X00645013D01*
X00645846Y00452140D01*
Y00455472D01*
X00645013Y00456305D01*
X00642514D01*
X00647512Y00451307D02*
Y00454639D01*
X00649178Y00456305D01*
X00650844Y00454639D01*
Y00451307D01*
Y00453806D01*
X00647512D01*
X00652511D02*
X00655843D01*
X00657509Y00455472D02*
X00658342Y00456305D01*
X00660008D01*
X00660841Y00455472D01*
Y00452140D01*
X00660008Y00451307D01*
X00658342D01*
X00657509Y00452140D01*
Y00455472D01*
X00662507Y00451307D02*
X00664173D01*
X00663340D01*
Y00456305D01*
X00662507Y00455472D01*
X00666673D02*
X00667506Y00456305D01*
X00669172D01*
X00670005Y00455472D01*
Y00452140D01*
X00669172Y00451307D01*
X00667506D01*
X00666673Y00452140D01*
Y00455472D01*
X00671671Y00452140D02*
X00672504Y00451307D01*
X00674170D01*
X00675003Y00452140D01*
Y00455472D01*
X00674170Y00456305D01*
X00672504D01*
X00671671Y00455472D01*
Y00454639D01*
X00672504Y00453806D01*
X00675003D01*
X00676669Y00455472D02*
X00677502Y00456305D01*
X00679168D01*
X00680002Y00455472D01*
Y00454639D01*
X00679168Y00453806D01*
X00678335D01*
X00679168D01*
X00680002Y00452973D01*
Y00452140D01*
X00679168Y00451307D01*
X00677502D01*
X00676669Y00452140D01*
X00681668Y00455472D02*
X00682501Y00456305D01*
X00684167D01*
X00685000Y00455472D01*
Y00454639D01*
X00684167Y00453806D01*
X00685000Y00452973D01*
Y00452140D01*
X00684167Y00451307D01*
X00682501D01*
X00681668Y00452140D01*
Y00452973D01*
X00682501Y00453806D01*
X00681668Y00454639D01*
Y00455472D01*
X00682501Y00453806D02*
X00684167D01*
X00691665Y00451307D02*
Y00454639D01*
X00693331Y00456305D01*
X00694997Y00454639D01*
Y00451307D01*
Y00453806D01*
X00691665D01*
X00699995Y00455472D02*
X00699162Y00456305D01*
X00697496D01*
X00696663Y00455472D01*
Y00452140D01*
X00697496Y00451307D01*
X00699162D01*
X00699995Y00452140D01*
X00701661Y00453806D02*
X00704993D01*
X00706659Y00456305D02*
Y00451307D01*
X00709159D01*
X00709992Y00452140D01*
Y00455472D01*
X00709159Y00456305D01*
X00706659D01*
X00714990Y00455472D02*
X00714157Y00456305D01*
X00712491D01*
X00711658Y00455472D01*
Y00452140D01*
X00712491Y00451307D01*
X00714157D01*
X00714990Y00452140D01*
X00719988Y00456305D02*
X00716656D01*
Y00451307D01*
X00719988D01*
X00716656Y00453806D02*
X00718322D01*
X00721655Y00451307D02*
X00723321D01*
X00722488D01*
Y00456305D01*
X00721655Y00455472D01*
X00725820Y00451307D02*
Y00452140D01*
X00726653D01*
Y00451307D01*
X00725820D01*
X00733317Y00455472D02*
X00732485Y00456305D01*
X00730818D01*
X00729985Y00455472D01*
Y00452140D01*
X00730818Y00451307D01*
X00732485D01*
X00733317Y00452140D01*
Y00453806D01*
X00731651D01*
X00734984Y00456305D02*
Y00451307D01*
X00737483D01*
X00738316Y00452140D01*
Y00455472D01*
X00737483Y00456305D01*
X00734984D01*
X00739982Y00451307D02*
X00741648D01*
X00740815D01*
Y00456305D01*
X00739982Y00455472D01*
X01752220Y00555109D02*
Y00560107D01*
X01755552Y00555109D01*
Y00560107D01*
X01758052Y00555109D02*
X01759718D01*
X01760551Y00555942D01*
Y00557608D01*
X01759718Y00558441D01*
X01758052D01*
X01757218Y00557608D01*
Y00555942D01*
X01758052Y00555109D01*
X01763050Y00559274D02*
Y00558441D01*
X01762217D01*
X01763883D01*
X01763050D01*
Y00555942D01*
X01763883Y00555109D01*
X01771381D02*
X01773047D01*
X01772214D01*
Y00558441D01*
X01771381D01*
X01775546Y00555109D02*
Y00558441D01*
X01778045D01*
X01778878Y00557608D01*
Y00555109D01*
X01785543Y00558441D02*
X01787209Y00555109D01*
X01788875Y00558441D01*
X01793040Y00555109D02*
X01791374D01*
X01790541Y00555942D01*
Y00557608D01*
X01791374Y00558441D01*
X01793040D01*
X01793873Y00557608D01*
Y00556775D01*
X01790541D01*
X01795539Y00558441D02*
Y00555109D01*
Y00556775D01*
X01796372Y00557608D01*
X01797206Y00558441D01*
X01798038D01*
X01800538Y00555109D02*
X01803037D01*
X01803870Y00555942D01*
X01803037Y00556775D01*
X01801371D01*
X01800538Y00557608D01*
X01801371Y00558441D01*
X01803870D01*
X01805536Y00555109D02*
X01807202D01*
X01806369D01*
Y00558441D01*
X01805536D01*
X01810535Y00555109D02*
X01812201D01*
X01813034Y00555942D01*
Y00557608D01*
X01812201Y00558441D01*
X01810535D01*
X01809701Y00557608D01*
Y00555942D01*
X01810535Y00555109D01*
X01814700D02*
Y00558441D01*
X01817199D01*
X01818032Y00557608D01*
Y00555109D01*
X01828029Y00558441D02*
X01825530D01*
X01824697Y00557608D01*
Y00555942D01*
X01825530Y00555109D01*
X01828029D01*
X01830528D02*
X01832194D01*
X01833027Y00555942D01*
Y00557608D01*
X01832194Y00558441D01*
X01830528D01*
X01829695Y00557608D01*
Y00555942D01*
X01830528Y00555109D01*
X01834693D02*
Y00558441D01*
X01837192D01*
X01838026Y00557608D01*
Y00555109D01*
X01840525Y00559274D02*
Y00558441D01*
X01839692D01*
X01841358D01*
X01840525D01*
Y00555942D01*
X01841358Y00555109D01*
X01843857Y00558441D02*
Y00555109D01*
Y00556775D01*
X01844690Y00557608D01*
X01845523Y00558441D01*
X01846356D01*
X01849688Y00555109D02*
X01851355D01*
X01852188Y00555942D01*
Y00557608D01*
X01851355Y00558441D01*
X01849688D01*
X01848855Y00557608D01*
Y00555942D01*
X01849688Y00555109D01*
X01853854D02*
X01855520D01*
X01854687D01*
Y00560107D01*
X01853854D01*
X01410844Y00555109D02*
Y00560107D01*
X01413343D01*
X01414176Y00559274D01*
Y00557608D01*
X01413343Y00556775D01*
X01410844D01*
X01412510D02*
X01414176Y00555109D01*
X01419175Y00560107D02*
X01415842D01*
Y00555109D01*
X01419175D01*
X01415842Y00557608D02*
X01417509D01*
X01420841Y00560107D02*
Y00556775D01*
X01422507Y00555109D01*
X01424173Y00556775D01*
Y00560107D01*
X01425839Y00558441D02*
X01426672D01*
Y00557608D01*
X01425839D01*
Y00558441D01*
Y00555942D02*
X01426672D01*
Y00555109D01*
X01425839D01*
Y00555942D01*
X01488217Y00560107D02*
X01484885D01*
Y00555109D01*
X01488217D01*
X01484885Y00557608D02*
X01486551D01*
X01489884Y00555109D02*
X01491550D01*
X01490717D01*
Y00560107D01*
X01489884Y00559274D01*
X01627028D02*
X01626195Y00560107D01*
X01624529D01*
X01623696Y00559274D01*
Y00558441D01*
X01624529Y00557608D01*
X01626195D01*
X01627028Y00556775D01*
Y00555942D01*
X01626195Y00555109D01*
X01624529D01*
X01623696Y00555942D01*
X01628694Y00560107D02*
Y00556775D01*
X01630361Y00555109D01*
X01632027Y00556775D01*
Y00560107D01*
X01633693Y00555109D02*
Y00560107D01*
X01637025Y00555109D01*
Y00560107D01*
X01643690Y00555109D02*
Y00560107D01*
X01646189D01*
X01647022Y00559274D01*
Y00557608D01*
X01646189Y00556775D01*
X01643690D01*
X01645356D02*
X01647022Y00555109D01*
X01652020Y00560107D02*
X01648688D01*
Y00555109D01*
X01652020D01*
X01648688Y00557608D02*
X01650354D01*
X01653686Y00560107D02*
Y00556775D01*
X01655352Y00555109D01*
X01657019Y00556775D01*
Y00560107D01*
X01658685Y00558441D02*
X01659518D01*
Y00557608D01*
X01658685D01*
Y00558441D01*
Y00555942D02*
X01659518D01*
Y00555109D01*
X01658685D01*
Y00555942D01*
X01785494Y00456305D02*
X01788826D01*
X01787160D01*
Y00451307D01*
X01793825Y00456305D02*
X01790493D01*
Y00451307D01*
X01793825D01*
X01790493Y00453806D02*
X01792159D01*
X01795491Y00456305D02*
X01798823Y00451307D01*
Y00456305D02*
X01795491Y00451307D01*
X01800489D02*
Y00454639D01*
X01802155Y00456305D01*
X01803822Y00454639D01*
Y00451307D01*
Y00453806D01*
X01800489D01*
X01808820Y00455472D02*
X01807987Y00456305D01*
X01806321D01*
X01805488Y00455472D01*
Y00454639D01*
X01806321Y00453806D01*
X01807987D01*
X01808820Y00452973D01*
Y00452140D01*
X01807987Y00451307D01*
X01806321D01*
X01805488Y00452140D01*
X01815484Y00456305D02*
X01817151D01*
X01816317D01*
Y00451307D01*
X01815484D01*
X01817151D01*
X01819650D02*
Y00456305D01*
X01822982Y00451307D01*
Y00456305D01*
X01827980Y00455472D02*
X01827147Y00456305D01*
X01825481D01*
X01824648Y00455472D01*
Y00454639D01*
X01825481Y00453806D01*
X01827147D01*
X01827980Y00452973D01*
Y00452140D01*
X01827147Y00451307D01*
X01825481D01*
X01824648Y00452140D01*
X01829646Y00456305D02*
X01832979D01*
X01831313D01*
Y00451307D01*
X01834645D02*
Y00456305D01*
X01837144D01*
X01837977Y00455472D01*
Y00453806D01*
X01837144Y00452973D01*
X01834645D01*
X01836311D02*
X01837977Y00451307D01*
X01839643Y00456305D02*
Y00452140D01*
X01840476Y00451307D01*
X01842142D01*
X01842975Y00452140D01*
Y00456305D01*
X01844642Y00451307D02*
Y00456305D01*
X01846308Y00454639D01*
X01847974Y00456305D01*
Y00451307D01*
X01852972Y00456305D02*
X01849640D01*
Y00451307D01*
X01852972D01*
X01849640Y00453806D02*
X01851306D01*
X01854638Y00451307D02*
Y00456305D01*
X01857970Y00451307D01*
Y00456305D01*
X01859637D02*
X01862969D01*
X01861303D01*
Y00451307D01*
X01867967Y00455472D02*
X01867134Y00456305D01*
X01865468D01*
X01864635Y00455472D01*
Y00454639D01*
X01865468Y00453806D01*
X01867134D01*
X01867967Y00452973D01*
Y00452140D01*
X01867134Y00451307D01*
X01865468D01*
X01864635Y00452140D01*
X01196341Y00560107D02*
X01199673D01*
X01198007D01*
Y00555109D01*
X01201339Y00560107D02*
X01203006D01*
X01202173D01*
Y00555109D01*
X01201339D01*
X01203006D01*
X01205505Y00560107D02*
Y00555109D01*
X01208004D01*
X01208837Y00555942D01*
Y00559274D01*
X01208004Y00560107D01*
X01205505D01*
X01210503Y00555109D02*
Y00558441D01*
X01212169Y00560107D01*
X01213836Y00558441D01*
Y00555109D01*
Y00557608D01*
X01210503D01*
X01215502D02*
X01218834D01*
X01220500Y00559274D02*
X01221333Y00560107D01*
X01222999D01*
X01223832Y00559274D01*
Y00555942D01*
X01222999Y00555109D01*
X01221333D01*
X01220500Y00555942D01*
Y00559274D01*
X01225498Y00555109D02*
X01227164D01*
X01226331D01*
Y00560107D01*
X01225498Y00559274D01*
X01229664D02*
X01230497Y00560107D01*
X01232163D01*
X01232996Y00559274D01*
Y00555942D01*
X01232163Y00555109D01*
X01230497D01*
X01229664Y00555942D01*
Y00559274D01*
X01234662Y00555942D02*
X01235495Y00555109D01*
X01237161D01*
X01237994Y00555942D01*
Y00559274D01*
X01237161Y00560107D01*
X01235495D01*
X01234662Y00559274D01*
Y00558441D01*
X01235495Y00557608D01*
X01237994D01*
X01239660Y00559274D02*
X01240493Y00560107D01*
X01242160D01*
X01242993Y00559274D01*
Y00558441D01*
X01242160Y00557608D01*
X01241327D01*
X01242160D01*
X01242993Y00556775D01*
Y00555942D01*
X01242160Y00555109D01*
X01240493D01*
X01239660Y00555942D01*
X01244659Y00559274D02*
X01245492Y00560107D01*
X01247158D01*
X01247991Y00559274D01*
Y00558441D01*
X01247158Y00557608D01*
X01247991Y00556775D01*
Y00555942D01*
X01247158Y00555109D01*
X01245492D01*
X01244659Y00555942D01*
Y00556775D01*
X01245492Y00557608D01*
X01244659Y00558441D01*
Y00559274D01*
X01245492Y00557608D02*
X01247158D01*
X01254656Y00555109D02*
Y00558441D01*
X01256322Y00560107D01*
X01257988Y00558441D01*
Y00555109D01*
Y00557608D01*
X01254656D01*
X01262986Y00559274D02*
X01262153Y00560107D01*
X01260487D01*
X01259654Y00559274D01*
Y00555942D01*
X01260487Y00555109D01*
X01262153D01*
X01262986Y00555942D01*
X01264652Y00557608D02*
X01267984D01*
X01269650Y00560107D02*
Y00555109D01*
X01272150D01*
X01272983Y00555942D01*
Y00559274D01*
X01272150Y00560107D01*
X01269650D01*
X01277981Y00559274D02*
X01277148Y00560107D01*
X01275482D01*
X01274649Y00559274D01*
Y00555942D01*
X01275482Y00555109D01*
X01277148D01*
X01277981Y00555942D01*
X01057784Y00508460D02*
X01061116D01*
X01059450D01*
Y00503462D01*
X01062783Y00508460D02*
X01064449D01*
X01063616D01*
Y00503462D01*
X01062783D01*
X01064449D01*
X01066948Y00508460D02*
Y00503462D01*
X01069447D01*
X01070280Y00504295D01*
Y00507627D01*
X01069447Y00508460D01*
X01066948D01*
X01077778Y00503462D02*
Y00508460D01*
X01079444D02*
Y00503462D01*
X01076945Y00506794D02*
X01079444D01*
X01080277D01*
X01076945Y00505128D02*
X01080277D01*
X01081943Y00506794D02*
X01082776D01*
Y00505961D01*
X01081943D01*
Y00506794D01*
Y00504295D02*
X01082776D01*
Y00503462D01*
X01081943D01*
Y00504295D01*
X01061624Y00455472D02*
X01060791Y00456305D01*
X01059125D01*
X01058292Y00455472D01*
Y00452140D01*
X01059125Y00451307D01*
X01060791D01*
X01061624Y00452140D01*
Y00453806D01*
X01059958D01*
X01066623Y00456305D02*
X01063290D01*
Y00451307D01*
X01066623D01*
X01063290Y00453806D02*
X01064957D01*
X01068289Y00451307D02*
Y00456305D01*
X01071621Y00451307D01*
Y00456305D01*
X01076619D02*
X01073287D01*
Y00451307D01*
X01076619D01*
X01073287Y00453806D02*
X01074953D01*
X01078286Y00451307D02*
Y00456305D01*
X01080785D01*
X01081618Y00455472D01*
Y00453806D01*
X01080785Y00452973D01*
X01078286D01*
X01079952D02*
X01081618Y00451307D01*
X01083284D02*
Y00454639D01*
X01084950Y00456305D01*
X01086616Y00454639D01*
Y00451307D01*
Y00453806D01*
X01083284D01*
X01088282Y00456305D02*
X01091615D01*
X01089949D01*
Y00451307D01*
X01096613Y00456305D02*
X01093281D01*
Y00451307D01*
X01096613D01*
X01093281Y00453806D02*
X01094947D01*
X01098279Y00456305D02*
Y00451307D01*
X01100778D01*
X01101611Y00452140D01*
Y00455472D01*
X01100778Y00456305D01*
X01098279D01*
X01123271Y00454639D02*
X01124104D01*
Y00453806D01*
X01123271D01*
Y00454639D01*
Y00452140D02*
X01124104D01*
Y00451307D01*
X01123271D01*
Y00452140D01*
X01464311Y00451307D02*
X01465977D01*
X01465144D01*
Y00456305D01*
X01464311Y00455472D01*
X01468477D02*
X01469310Y00456305D01*
X01470976D01*
X01471809Y00455472D01*
Y00452140D01*
X01470976Y00451307D01*
X01469310D01*
X01468477Y00452140D01*
Y00455472D01*
X01473475Y00454639D02*
X01474308D01*
Y00453806D01*
X01473475D01*
Y00454639D01*
Y00452140D02*
X01474308D01*
Y00451307D01*
X01473475D01*
Y00452140D01*
X01477640Y00451307D02*
X01479306D01*
X01478473D01*
Y00456305D01*
X01477640Y00455472D01*
X01484305Y00451307D02*
Y00456305D01*
X01481806Y00453806D01*
X01485138D01*
X01486804Y00454639D02*
X01487637D01*
Y00453806D01*
X01486804D01*
Y00454639D01*
Y00452140D02*
X01487637D01*
Y00451307D01*
X01486804D01*
Y00452140D01*
X01494301Y00456305D02*
X01490969D01*
Y00453806D01*
X01492635Y00454639D01*
X01493468D01*
X01494301Y00453806D01*
Y00452140D01*
X01493468Y00451307D01*
X01491802D01*
X01490969Y00452140D01*
X01499300Y00456305D02*
X01495968D01*
Y00453806D01*
X01497634Y00454639D01*
X01498467D01*
X01499300Y00453806D01*
Y00452140D01*
X01498467Y00451307D01*
X01496801D01*
X01495968Y00452140D01*
X01505964Y00451307D02*
Y00454639D01*
X01507630Y00456305D01*
X01509297Y00454639D01*
Y00451307D01*
Y00453806D01*
X01505964D01*
X01510963Y00451307D02*
Y00456305D01*
X01512629Y00454639D01*
X01514295Y00456305D01*
Y00451307D01*
X01196341Y00503462D02*
Y00506794D01*
X01198007Y00508460D01*
X01199673Y00506794D01*
Y00503462D01*
Y00505961D01*
X01196341D01*
X01201339Y00507627D02*
X01202173Y00508460D01*
X01203839D01*
X01204672Y00507627D01*
Y00504295D01*
X01203839Y00503462D01*
X01202173D01*
X01201339Y00504295D01*
Y00507627D01*
X01208837Y00503462D02*
Y00508460D01*
X01206338Y00505961D01*
X01209670D01*
X01211336Y00504295D02*
X01212169Y00503462D01*
X01213835D01*
X01214669Y00504295D01*
Y00507627D01*
X01213835Y00508460D01*
X01212169D01*
X01211336Y00507627D01*
Y00506794D01*
X01212169Y00505961D01*
X01214669D01*
X01216335Y00507627D02*
X01217168Y00508460D01*
X01218834D01*
X01219667Y00507627D01*
Y00506794D01*
X01218834Y00505961D01*
X01219667Y00505128D01*
Y00504295D01*
X01218834Y00503462D01*
X01217168D01*
X01216335Y00504295D01*
Y00505128D01*
X01217168Y00505961D01*
X01216335Y00506794D01*
Y00507627D01*
X01217168Y00505961D02*
X01218834D01*
X01221333Y00503462D02*
X01222999D01*
X01222166D01*
Y00508460D01*
X01221333Y00507627D01*
X01225498Y00508460D02*
X01228831D01*
Y00507627D01*
X01225498Y00504295D01*
Y00503462D01*
X01233829Y00508460D02*
X01232163Y00507627D01*
X01230497Y00505961D01*
Y00504295D01*
X01231330Y00503462D01*
X01232996D01*
X01233829Y00504295D01*
Y00505128D01*
X01232996Y00505961D01*
X01230497D01*
X01279145Y00451307D02*
X01280811D01*
X01279978D01*
Y00456305D01*
X01279145Y00455472D01*
X01286643Y00451307D02*
X01283311D01*
X01286643Y00454639D01*
Y00455472D01*
X01285810Y00456305D01*
X01284144D01*
X01283311Y00455472D01*
X01288309Y00451307D02*
X01291641Y00454639D01*
X01293307Y00455472D02*
X01294140Y00456305D01*
X01295806D01*
X01296640Y00455472D01*
Y00454639D01*
X01295806Y00453806D01*
X01294973D01*
X01295806D01*
X01296640Y00452973D01*
Y00452140D01*
X01295806Y00451307D01*
X01294140D01*
X01293307Y00452140D01*
X01298306Y00451307D02*
X01301638Y00454639D01*
X01306636Y00451307D02*
X01303304D01*
X01306636Y00454639D01*
Y00455472D01*
X01305803Y00456305D01*
X01304137D01*
X01303304Y00455472D01*
X01308302D02*
X01309135Y00456305D01*
X01310802D01*
X01311635Y00455472D01*
Y00452140D01*
X01310802Y00451307D01*
X01309135D01*
X01308302Y00452140D01*
Y00455472D01*
X01316633Y00451307D02*
X01313301D01*
X01316633Y00454639D01*
Y00455472D01*
X01315800Y00456305D01*
X01314134D01*
X01313301Y00455472D01*
X01318299D02*
X01319132Y00456305D01*
X01320798D01*
X01321631Y00455472D01*
Y00454639D01*
X01320798Y00453806D01*
X01319965D01*
X01320798D01*
X01321631Y00452973D01*
Y00452140D01*
X01320798Y00451307D01*
X01319132D01*
X01318299Y00452140D01*
X00633350Y00508589D02*
Y00503591D01*
X00635849D01*
X00636682Y00504424D01*
Y00507756D01*
X00635849Y00508589D01*
X00633350D01*
X00638349Y00506923D02*
Y00503591D01*
Y00505257D01*
X00639182Y00506090D01*
X00640015Y00506923D01*
X00640848D01*
X00643347Y00503591D02*
X00645013D01*
X00644180D01*
Y00506923D01*
X00643347D01*
X00647512Y00503591D02*
X00649178D01*
X00648345D01*
Y00508589D01*
X00647512D01*
X00651677Y00503591D02*
X00653344D01*
X00652511D01*
Y00508589D01*
X00651677D01*
X00660841D02*
Y00503591D01*
X00663340D01*
X00664174Y00504424D01*
Y00507756D01*
X00663340Y00508589D01*
X00660841D01*
X00665840Y00506923D02*
Y00503591D01*
Y00505257D01*
X00666673Y00506090D01*
X00667506Y00506923D01*
X00668339D01*
X00671671D02*
X00673337D01*
X00674170Y00506090D01*
Y00503591D01*
X00671671D01*
X00670838Y00504424D01*
X00671671Y00505257D01*
X00674170D01*
X00675836Y00506923D02*
Y00504424D01*
X00676669Y00503591D01*
X00677502Y00504424D01*
X00678335Y00503591D01*
X00679169Y00504424D01*
Y00506923D01*
X00680835Y00503591D02*
X00682501D01*
X00681668D01*
Y00506923D01*
X00680835D01*
X00685000Y00503591D02*
Y00506923D01*
X00687499D01*
X00688332Y00506090D01*
Y00503591D01*
X00691665Y00501925D02*
X00692497D01*
X00693331Y00502758D01*
Y00506923D01*
X00690831D01*
X00689998Y00506090D01*
Y00504424D01*
X00690831Y00503591D01*
X00693331D01*
G54D197*
X02841022Y03185435D02*
Y03180357D01*
Y03182896D01*
X02844407D01*
Y03185435D01*
Y03180357D01*
X02891022Y03185435D02*
Y03180357D01*
Y03182896D01*
X02894407D01*
Y03185435D01*
Y03180357D01*
X02941022Y03185435D02*
Y03180357D01*
Y03182896D01*
X02944407D01*
Y03185435D01*
Y03180357D01*
X03041022Y03185435D02*
Y03180357D01*
Y03182896D01*
X03044407D01*
Y03185435D01*
Y03180357D01*
X03091022Y03185435D02*
Y03180357D01*
Y03182896D01*
X03094407D01*
Y03185435D01*
Y03180357D01*
X03141022Y03185435D02*
Y03180357D01*
Y03182896D01*
X03144407D01*
Y03185435D01*
Y03180357D01*
X03141022Y02835435D02*
Y02830357D01*
Y02832896D01*
X03144407D01*
Y02835435D01*
Y02830357D01*
X03091022Y02835435D02*
Y02830357D01*
Y02832896D01*
X03094407D01*
Y02835435D01*
Y02830357D01*
X03041022Y02835435D02*
Y02830357D01*
Y02832896D01*
X03044407D01*
Y02835435D01*
Y02830357D01*
X02941022Y02835435D02*
Y02830357D01*
Y02832896D01*
X02944407D01*
Y02835435D01*
Y02830357D01*
X02891022Y02835435D02*
Y02830357D01*
Y02832896D01*
X02894407D01*
Y02835435D01*
Y02830357D01*
X02841022Y02835435D02*
Y02830357D01*
Y02832896D01*
X02844407D01*
Y02835435D01*
Y02830357D01*
X02176022Y03175435D02*
Y03170357D01*
Y03172896D01*
X02179408D01*
Y03175435D01*
Y03170357D01*
X02226022Y03175435D02*
Y03170357D01*
Y03172896D01*
X02229408D01*
Y03175435D01*
Y03170357D01*
X02276022Y03175435D02*
Y03170357D01*
Y03172896D01*
X02279408D01*
Y03175435D01*
Y03170357D01*
X02376022Y03175435D02*
Y03170357D01*
Y03172896D01*
X02379408D01*
Y03175435D01*
Y03170357D01*
X02426022Y03175435D02*
Y03170357D01*
Y03172896D01*
X02429408D01*
Y03175435D01*
Y03170357D01*
X02476022Y03175435D02*
Y03170357D01*
Y03172896D01*
X02479408D01*
Y03175435D01*
Y03170357D01*
X02476022Y02825435D02*
Y02820357D01*
Y02822896D01*
X02479408D01*
Y02825435D01*
Y02820357D01*
X02426022Y02825435D02*
Y02820357D01*
Y02822896D01*
X02429408D01*
Y02825435D01*
Y02820357D01*
X02376022Y02825435D02*
Y02820357D01*
Y02822896D01*
X02379408D01*
Y02825435D01*
Y02820357D01*
X02276022Y02825435D02*
Y02820357D01*
Y02822896D01*
X02279408D01*
Y02825435D01*
Y02820357D01*
X02226022Y02825435D02*
Y02820357D01*
Y02822896D01*
X02229408D01*
Y02825435D01*
Y02820357D01*
X02176022Y02825435D02*
Y02820357D01*
Y02822896D01*
X02179408D01*
Y02825435D01*
Y02820357D01*
X02503522Y01660435D02*
Y01655357D01*
X02506061D01*
X02506908Y01656203D01*
Y01659589D01*
X02506061Y01660435D01*
X02503522D01*
X03331022Y01972935D02*
Y01967857D01*
X03333561D01*
X03334408Y01968703D01*
Y01972089D01*
X03333561Y01972935D01*
X03331022D01*
X02766022Y02822935D02*
Y02817857D01*
X02768561D01*
X02769408Y02818703D01*
Y02822089D01*
X02768561Y02822935D01*
X02766022D01*
X02728522Y02890435D02*
Y02885357D01*
X02731061D01*
X02731908Y02886203D01*
Y02889589D01*
X02731061Y02890435D01*
X02728522D01*
X02216022Y02390435D02*
Y02385357D01*
X02218561D01*
X02219408Y02386203D01*
Y02389589D01*
X02218561Y02390435D01*
X02216022D01*
X01143522Y02147935D02*
Y02142857D01*
X01146061D01*
X01146908Y02143703D01*
Y02147089D01*
X01146061Y02147935D01*
X01143522D01*
X02553522Y02760435D02*
Y02755357D01*
X02556061D01*
X02556908Y02756203D01*
Y02759589D01*
X02556061Y02760435D01*
X02553522D01*
X01648522Y02630435D02*
Y02625357D01*
X01651061D01*
X01651908Y02626203D01*
Y02629589D01*
X01651061Y02630435D01*
X01648522D01*
X01083522Y02695435D02*
Y02690357D01*
X01086061D01*
X01086908Y02691203D01*
Y02694589D01*
X01086061Y02695435D01*
X01083522D01*
X00678522Y03035435D02*
Y03030357D01*
X00681061D01*
X00681908Y03031203D01*
Y03034589D01*
X00681061Y03035435D01*
X00678522D01*
X00756022Y02810435D02*
Y02805357D01*
X00758561D01*
X00759408Y02806203D01*
Y02809589D01*
X00758561Y02810435D01*
X00756022D01*
X03071022Y01622935D02*
Y01617857D01*
X03073561D01*
X03074408Y01618703D01*
Y01622089D01*
X03073561Y01622935D01*
X03071022D01*
X03331022Y02030435D02*
Y02025357D01*
X03333561D01*
X03334408Y02026203D01*
Y02029589D01*
X03333561Y02030435D01*
X03331022D01*
X01943522Y02317935D02*
Y02312857D01*
X01946061D01*
X01946908Y02313703D01*
Y02317089D01*
X01946061Y02317935D01*
X01943522D01*
X03163522Y01580435D02*
Y01575357D01*
X03166061D01*
X03166908Y01576203D01*
Y01579589D01*
X03166061Y01580435D01*
X03163522D01*
X00923522Y02890825D02*
X00924538Y02891841D01*
X00925554D01*
X00924538Y02892857D01*
X00925554Y02893873D01*
X00924538D01*
X00923522Y02894889D01*
X00922506Y02893873D01*
X00921490D01*
X00922506Y02892857D01*
X00921490Y02891841D01*
X00922506D01*
X00923522Y02890825D01*
Y02815825D02*
X00924538Y02816841D01*
X00925554D01*
X00924538Y02817857D01*
X00925554Y02818873D01*
X00924538D01*
X00923522Y02819889D01*
X00922506Y02818873D01*
X00921490D01*
X00922506Y02817857D01*
X00921490Y02816841D01*
X00922506D01*
X00923522Y02815825D01*
X03343522Y03200435D02*
X03345215D01*
X03344368D01*
Y03195357D01*
X03343522D01*
X03345215D01*
X00988522Y02703135D02*
Y02698057D01*
X00991061D01*
X00991908Y02698903D01*
Y02699749D01*
X00991061Y02700596D01*
X00988522D01*
X00991061D01*
X00991908Y02701442D01*
Y02702289D01*
X00991061Y02703135D01*
X00988522D01*
Y02677735D02*
Y02672657D01*
X00991061D01*
X00991908Y02673503D01*
Y02674350D01*
X00991061Y02675196D01*
X00988522D01*
X00991061D01*
X00991908Y02676042D01*
Y02676889D01*
X00991061Y02677735D01*
X00988522D01*
X00991908Y02689589D02*
X00991061Y02690435D01*
X00989368D01*
X00988522Y02689589D01*
Y02686203D01*
X00989368Y02685357D01*
X00991061D01*
X00991908Y02686203D01*
X02372522Y02294935D02*
X02374215D01*
X02373368D01*
Y02289857D01*
X02372522D01*
X02374215D01*
X01179522Y03093435D02*
Y03088357D01*
Y03090896D01*
X01182908D01*
Y03093435D01*
Y03088357D01*
X01179522Y02993435D02*
Y02988357D01*
Y02990896D01*
X01182908D01*
Y02993435D01*
Y02988357D01*
X00959522Y03093435D02*
Y03088357D01*
Y03090896D01*
X00962907D01*
Y03093435D01*
Y03088357D01*
X00959522Y02993435D02*
Y02988357D01*
Y02990896D01*
X00962907D01*
Y02993435D01*
Y02988357D01*
X01381490Y02978325D02*
X01382506Y02980357D01*
X01381490Y02982389D01*
X01383522Y02981373D01*
X01385554Y02982389D01*
X01384538Y02980357D01*
X01385554Y02978325D01*
X01383522Y02979341D01*
X01381490Y02978325D01*
X01431490D02*
X01432506Y02980357D01*
X01431490Y02982389D01*
X01433522Y02981373D01*
X01435554Y02982389D01*
X01434538Y02980357D01*
X01435554Y02978325D01*
X01433522Y02979341D01*
X01431490Y02978325D01*
X01412490Y02892325D02*
X01413506Y02894357D01*
X01412490Y02896389D01*
X01414522Y02895373D01*
X01416554Y02896389D01*
X01415538Y02894357D01*
X01416554Y02892325D01*
X01414522Y02893341D01*
X01412490Y02892325D01*
X01362490D02*
X01363506Y02894357D01*
X01362490Y02896389D01*
X01364522Y02895373D01*
X01366554Y02896389D01*
X01365538Y02894357D01*
X01366554Y02892325D01*
X01364522Y02893341D01*
X01362490Y02892325D01*
X00793522Y03183325D02*
X00794538Y03184341D01*
X00795554D01*
X00794538Y03185357D01*
X00795554Y03186373D01*
X00794538D01*
X00793522Y03187389D01*
X00792506Y03186373D01*
X00791490D01*
X00792506Y03185357D01*
X00791490Y03184341D01*
X00792506D01*
X00793522Y03183325D01*
Y03108325D02*
X00794538Y03109341D01*
X00795554D01*
X00794538Y03110357D01*
X00795554Y03111373D01*
X00794538D01*
X00793522Y03112389D01*
X00792506Y03111373D01*
X00791490D01*
X00792506Y03110357D01*
X00791490Y03109341D01*
X00792506D01*
X00793522Y03108325D01*
X00883522Y03180825D02*
X00884538Y03181841D01*
X00885554D01*
X00884538Y03182857D01*
X00885554Y03183873D01*
X00884538D01*
X00883522Y03184889D01*
X00882506Y03183873D01*
X00881490D01*
X00882506Y03182857D01*
X00881490Y03181841D01*
X00882506D01*
X00883522Y03180825D01*
Y03105825D02*
X00884538Y03106841D01*
X00885554D01*
X00884538Y03107857D01*
X00885554Y03108873D01*
X00884538D01*
X00883522Y03109889D01*
X00882506Y03108873D01*
X00881490D01*
X00882506Y03107857D01*
X00881490Y03106841D01*
X00882506D01*
X00883522Y03105825D01*
X00696908Y02858835D02*
X00693522D01*
Y02853757D01*
X00696908D01*
X00693522Y02856296D02*
X00695215D01*
X00696908Y02909635D02*
X00693522D01*
Y02904557D01*
X00696908D01*
X00693522Y02907096D02*
X00695215D01*
X00696908Y02960435D02*
X00693522D01*
Y02955357D01*
X00696908D01*
X00693522Y02957896D02*
X00695215D01*
X02547608Y01601185D02*
X02544222D01*
Y01596107D01*
X02547608D01*
X02544222Y01598646D02*
X02545915D01*
X02598408Y01601185D02*
X02595022D01*
Y01596107D01*
X02598408D01*
X02595022Y01598646D02*
X02596715D01*
X02649207Y01601185D02*
X02645822D01*
Y01596107D01*
X02649207D01*
X02645822Y01598646D02*
X02647515D01*
X01442490Y03213625D02*
Y03217689D01*
X01446554D01*
Y03213625D01*
X01442490D01*
X01366490D02*
Y03217689D01*
X01370554D01*
Y03213625D01*
X01366490D01*
X01371022Y03086625D02*
X01368990Y03090689D01*
X01373054D01*
X01371022Y03086625D01*
X01442022Y03061225D02*
X01439990Y03065289D01*
X01444054D01*
X01442022Y03061225D01*
X01650208Y03197185D02*
X01646822D01*
Y03192107D01*
X01650208D01*
X01646822Y03194646D02*
X01648515D01*
X01599408Y03197185D02*
X01596022D01*
Y03192107D01*
X01599408D01*
X01596022Y03194646D02*
X01597715D01*
X01548607Y03197185D02*
X01545222D01*
Y03192107D01*
X01548607D01*
X01545222Y03194646D02*
X01546915D01*
X01126953Y02390305D02*
X01124921Y02394369D01*
X01128985D01*
X01126953Y02390305D01*
Y02391321D02*
X01125937Y02393353D01*
X01127969D01*
X01126953Y02391321D01*
X01707953Y02390305D02*
X01705921Y02394369D01*
X01709985D01*
X01707953Y02390305D01*
Y02391321D02*
X01706937Y02393353D01*
X01708969D01*
X01707953Y02391321D01*
X01852490Y02188350D02*
X01853506D01*
X01854522Y02189366D01*
X01855538Y02188350D01*
X01856554D01*
Y02189366D01*
X01855538Y02190382D01*
X01856554Y02191398D01*
Y02192414D01*
X01855538D01*
X01854522Y02191398D01*
X01853506Y02192414D01*
X01852490D01*
Y02191398D01*
X01853506Y02190382D01*
X01852490Y02189366D01*
Y02188350D01*
X01776290D02*
X01777306D01*
X01778322Y02189366D01*
X01779338Y02188350D01*
X01780354D01*
Y02189366D01*
X01779338Y02190382D01*
X01780354Y02191398D01*
Y02192414D01*
X01779338D01*
X01778322Y02191398D01*
X01777306Y02192414D01*
X01776290D01*
Y02191398D01*
X01777306Y02190382D01*
X01776290Y02189366D01*
Y02188350D01*
X01827090D02*
X01828106D01*
X01829122Y02189366D01*
X01830138Y02188350D01*
X01831154D01*
Y02189366D01*
X01830138Y02190382D01*
X01831154Y02191398D01*
Y02192414D01*
X01830138D01*
X01829122Y02191398D01*
X01828106Y02192414D01*
X01827090D01*
Y02191398D01*
X01828106Y02190382D01*
X01827090Y02189366D01*
Y02188350D01*
X01877890D02*
X01878906D01*
X01879922Y02189366D01*
X01880938Y02188350D01*
X01881954D01*
Y02189366D01*
X01880938Y02190382D01*
X01881954Y02191398D01*
Y02192414D01*
X01880938D01*
X01879922Y02191398D01*
X01878906Y02192414D01*
X01877890D01*
Y02191398D01*
X01878906Y02190382D01*
X01877890Y02189366D01*
Y02188350D01*
X01801690D02*
X01802706D01*
X01803722Y02189366D01*
X01804738Y02188350D01*
X01805754D01*
Y02189366D01*
X01804738Y02190382D01*
X01805754Y02191398D01*
Y02192414D01*
X01804738D01*
X01803722Y02191398D01*
X01802706Y02192414D01*
X01801690D01*
Y02191398D01*
X01802706Y02190382D01*
X01801690Y02189366D01*
Y02188350D01*
X01903290D02*
X01904306D01*
X01905322Y02189366D01*
X01906338Y02188350D01*
X01907354D01*
Y02189366D01*
X01906338Y02190382D01*
X01907354Y02191398D01*
Y02192414D01*
X01906338D01*
X01905322Y02191398D01*
X01904306Y02192414D01*
X01903290D01*
Y02191398D01*
X01904306Y02190382D01*
X01903290Y02189366D01*
Y02188350D01*
X01928690D02*
X01929706D01*
X01930722Y02189366D01*
X01931738Y02188350D01*
X01932754D01*
Y02189366D01*
X01931738Y02190382D01*
X01932754Y02191398D01*
Y02192414D01*
X01931738D01*
X01930722Y02191398D01*
X01929706Y02192414D01*
X01928690D01*
Y02191398D01*
X01929706Y02190382D01*
X01928690Y02189366D01*
Y02188350D01*
X01861522Y02870435D02*
Y02865357D01*
Y02867896D01*
X01864908D01*
Y02870435D01*
Y02865357D01*
X01861522Y02970435D02*
Y02965357D01*
Y02967896D01*
X01864908D01*
Y02970435D01*
Y02965357D01*
X02081522Y02870435D02*
Y02865357D01*
Y02867896D01*
X02084908D01*
Y02870435D01*
Y02865357D01*
X02081522Y02970435D02*
Y02965357D01*
Y02967896D01*
X02084908D01*
Y02970435D01*
Y02965357D01*
X02018522Y03200435D02*
X02020215D01*
X02019368D01*
Y03195357D01*
X02018522D01*
X02020215D01*
X01952506Y03204341D02*
Y03203325D01*
X01954538D01*
Y03204341D01*
X01955554D01*
Y03206373D01*
X01954538D01*
Y03207389D01*
X01952506D01*
Y03206373D01*
X01951490D01*
Y03204341D01*
X01952506D01*
X01852506D02*
Y03203325D01*
X01854538D01*
Y03204341D01*
X01855554D01*
Y03206373D01*
X01854538D01*
Y03207389D01*
X01852506D01*
Y03206373D01*
X01851490D01*
Y03204341D01*
X01852506D01*
X01591522Y02833825D02*
X01592538Y02834841D01*
X01593554D01*
X01592538Y02835857D01*
X01593554Y02836873D01*
X01592538D01*
X01591522Y02837889D01*
X01590506Y02836873D01*
X01589490D01*
X01590506Y02835857D01*
X01589490Y02834841D01*
X01590506D01*
X01591522Y02833825D01*
Y03108825D02*
X01592538Y03109841D01*
X01593554D01*
X01592538Y03110857D01*
X01593554Y03111873D01*
X01592538D01*
X01591522Y03112889D01*
X01590506Y03111873D01*
X01589490D01*
X01590506Y03110857D01*
X01589490Y03109841D01*
X01590506D01*
X01591522Y03108825D01*
X01762506Y03214341D02*
Y03213325D01*
X01764538D01*
Y03214341D01*
X01765554D01*
Y03216373D01*
X01764538D01*
Y03217389D01*
X01762506D01*
Y03216373D01*
X01761490D01*
Y03214341D01*
X01762506D01*
Y03114341D02*
Y03113325D01*
X01764538D01*
Y03114341D01*
X01765554D01*
Y03116373D01*
X01764538D01*
Y03117389D01*
X01762506D01*
Y03116373D01*
X01761490D01*
Y03114341D01*
X01762506D01*
X02161340Y02102225D02*
Y02106289D01*
X02165404D01*
Y02102225D01*
X02161340D01*
X02162356Y02103241D02*
Y02105273D01*
X02164388D01*
Y02103241D01*
X02162356D01*
X02021640Y02102225D02*
Y02106289D01*
X02025704D01*
Y02102225D01*
X02021640D01*
X02022656Y02103241D02*
Y02105273D01*
X02024688D01*
Y02103241D01*
X02022656D01*
X02021640Y02089525D02*
Y02093589D01*
X02025704D01*
Y02089525D01*
X02021640D01*
X02022656Y02090541D02*
Y02092573D01*
X02024688D01*
Y02090541D01*
X02022656D01*
X02148640Y02102225D02*
Y02106289D01*
X02152704D01*
Y02102225D01*
X02148640D01*
X02149656Y02103241D02*
Y02105273D01*
X02151688D01*
Y02103241D01*
X02149656D01*
X02135940Y02102225D02*
Y02106289D01*
X02140004D01*
Y02102225D01*
X02135940D01*
X02136956Y02103241D02*
Y02105273D01*
X02138988D01*
Y02103241D01*
X02136956D01*
X02123240Y02102225D02*
Y02106289D01*
X02127304D01*
Y02102225D01*
X02123240D01*
X02124256Y02103241D02*
Y02105273D01*
X02126288D01*
Y02103241D01*
X02124256D01*
X02110540Y02102225D02*
Y02106289D01*
X02114604D01*
Y02102225D01*
X02110540D01*
X02111556Y02103241D02*
Y02105273D01*
X02113588D01*
Y02103241D01*
X02111556D01*
X02097840Y02102225D02*
Y02106289D01*
X02101904D01*
Y02102225D01*
X02097840D01*
X02098856Y02103241D02*
Y02105273D01*
X02100888D01*
Y02103241D01*
X02098856D01*
X02085140Y02102225D02*
Y02106289D01*
X02089204D01*
Y02102225D01*
X02085140D01*
X02086156Y02103241D02*
Y02105273D01*
X02088188D01*
Y02103241D01*
X02086156D01*
X02072440Y02102225D02*
Y02106289D01*
X02076504D01*
Y02102225D01*
X02072440D01*
X02073456Y02103241D02*
Y02105273D01*
X02075488D01*
Y02103241D01*
X02073456D01*
X02059740Y02102225D02*
Y02106289D01*
X02063804D01*
Y02102225D01*
X02059740D01*
X02060756Y02103241D02*
Y02105273D01*
X02062788D01*
Y02103241D01*
X02060756D01*
X02047040Y02102225D02*
Y02106289D01*
X02051104D01*
Y02102225D01*
X02047040D01*
X02048056Y02103241D02*
Y02105273D01*
X02050088D01*
Y02103241D01*
X02048056D01*
X02034340Y02102225D02*
Y02106289D01*
X02038404D01*
Y02102225D01*
X02034340D01*
X02035356Y02103241D02*
Y02105273D01*
X02037388D01*
Y02103241D01*
X02035356D01*
X02161340Y02089525D02*
Y02093589D01*
X02165404D01*
Y02089525D01*
X02161340D01*
X02162356Y02090541D02*
Y02092573D01*
X02164388D01*
Y02090541D01*
X02162356D01*
X02148640Y02089525D02*
Y02093589D01*
X02152704D01*
Y02089525D01*
X02148640D01*
X02149656Y02090541D02*
Y02092573D01*
X02151688D01*
Y02090541D01*
X02149656D01*
X02135940Y02089525D02*
Y02093589D01*
X02140004D01*
Y02089525D01*
X02135940D01*
X02136956Y02090541D02*
Y02092573D01*
X02138988D01*
Y02090541D01*
X02136956D01*
X02123240Y02089525D02*
Y02093589D01*
X02127304D01*
Y02089525D01*
X02123240D01*
X02124256Y02090541D02*
Y02092573D01*
X02126288D01*
Y02090541D01*
X02124256D01*
X02110540Y02089525D02*
Y02093589D01*
X02114604D01*
Y02089525D01*
X02110540D01*
X02111556Y02090541D02*
Y02092573D01*
X02113588D01*
Y02090541D01*
X02111556D01*
X02097840Y02089525D02*
Y02093589D01*
X02101904D01*
Y02089525D01*
X02097840D01*
X02098856Y02090541D02*
Y02092573D01*
X02100888D01*
Y02090541D01*
X02098856D01*
X02085140Y02089525D02*
Y02093589D01*
X02089204D01*
Y02089525D01*
X02085140D01*
X02086156Y02090541D02*
Y02092573D01*
X02088188D01*
Y02090541D01*
X02086156D01*
X02072440Y02089525D02*
Y02093589D01*
X02076504D01*
Y02089525D01*
X02072440D01*
X02073456Y02090541D02*
Y02092573D01*
X02075488D01*
Y02090541D01*
X02073456D01*
X02059740Y02089525D02*
Y02093589D01*
X02063804D01*
Y02089525D01*
X02059740D01*
X02060756Y02090541D02*
Y02092573D01*
X02062788D01*
Y02090541D01*
X02060756D01*
X02047040Y02089525D02*
Y02093589D01*
X02051104D01*
Y02089525D01*
X02047040D01*
X02048056Y02090541D02*
Y02092573D01*
X02050088D01*
Y02090541D01*
X02048056D01*
X02034340Y02089525D02*
Y02093589D01*
X02038404D01*
Y02089525D01*
X02034340D01*
X02035356Y02090541D02*
Y02092573D01*
X02037388D01*
Y02090541D01*
X02035356D01*
X02609908Y02185435D02*
X02606522D01*
Y02180357D01*
X02609908D01*
X02606522Y02182896D02*
X02608215D01*
X02609408Y01910435D02*
X02606022D01*
Y01905357D01*
X02609408D01*
X02606022Y01907896D02*
X02607715D01*
X01794340Y02089525D02*
Y02093589D01*
X01798404D01*
Y02089525D01*
X01794340D01*
X01795356Y02090541D02*
Y02092573D01*
X01797388D01*
Y02090541D01*
X01795356D01*
X01807040Y02089525D02*
Y02093589D01*
X01811104D01*
Y02089525D01*
X01807040D01*
X01808056Y02090541D02*
Y02092573D01*
X01810088D01*
Y02090541D01*
X01808056D01*
X01819740Y02089525D02*
Y02093589D01*
X01823804D01*
Y02089525D01*
X01819740D01*
X01820756Y02090541D02*
Y02092573D01*
X01822788D01*
Y02090541D01*
X01820756D01*
X01832440Y02089525D02*
Y02093589D01*
X01836504D01*
Y02089525D01*
X01832440D01*
X01833456Y02090541D02*
Y02092573D01*
X01835488D01*
Y02090541D01*
X01833456D01*
X01845140Y02089525D02*
Y02093589D01*
X01849204D01*
Y02089525D01*
X01845140D01*
X01846156Y02090541D02*
Y02092573D01*
X01848188D01*
Y02090541D01*
X01846156D01*
X01857840Y02089525D02*
Y02093589D01*
X01861904D01*
Y02089525D01*
X01857840D01*
X01858856Y02090541D02*
Y02092573D01*
X01860888D01*
Y02090541D01*
X01858856D01*
X01870540Y02089525D02*
Y02093589D01*
X01874604D01*
Y02089525D01*
X01870540D01*
X01871556Y02090541D02*
Y02092573D01*
X01873588D01*
Y02090541D01*
X01871556D01*
X01883240Y02089525D02*
Y02093589D01*
X01887304D01*
Y02089525D01*
X01883240D01*
X01884256Y02090541D02*
Y02092573D01*
X01886288D01*
Y02090541D01*
X01884256D01*
X01895940Y02089525D02*
Y02093589D01*
X01900004D01*
Y02089525D01*
X01895940D01*
X01896956Y02090541D02*
Y02092573D01*
X01898988D01*
Y02090541D01*
X01896956D01*
X01908640Y02089525D02*
Y02093589D01*
X01912704D01*
Y02089525D01*
X01908640D01*
X01909656Y02090541D02*
Y02092573D01*
X01911688D01*
Y02090541D01*
X01909656D01*
X01794340Y02102225D02*
Y02106289D01*
X01798404D01*
Y02102225D01*
X01794340D01*
X01795356Y02103241D02*
Y02105273D01*
X01797388D01*
Y02103241D01*
X01795356D01*
X01807040Y02102225D02*
Y02106289D01*
X01811104D01*
Y02102225D01*
X01807040D01*
X01808056Y02103241D02*
Y02105273D01*
X01810088D01*
Y02103241D01*
X01808056D01*
X01819740Y02102225D02*
Y02106289D01*
X01823804D01*
Y02102225D01*
X01819740D01*
X01820756Y02103241D02*
Y02105273D01*
X01822788D01*
Y02103241D01*
X01820756D01*
X01832440Y02102225D02*
Y02106289D01*
X01836504D01*
Y02102225D01*
X01832440D01*
X01833456Y02103241D02*
Y02105273D01*
X01835488D01*
Y02103241D01*
X01833456D01*
X01845140Y02102225D02*
Y02106289D01*
X01849204D01*
Y02102225D01*
X01845140D01*
X01846156Y02103241D02*
Y02105273D01*
X01848188D01*
Y02103241D01*
X01846156D01*
X01857840Y02102225D02*
Y02106289D01*
X01861904D01*
Y02102225D01*
X01857840D01*
X01858856Y02103241D02*
Y02105273D01*
X01860888D01*
Y02103241D01*
X01858856D01*
X01870540Y02102225D02*
Y02106289D01*
X01874604D01*
Y02102225D01*
X01870540D01*
X01871556Y02103241D02*
Y02105273D01*
X01873588D01*
Y02103241D01*
X01871556D01*
X01883240Y02102225D02*
Y02106289D01*
X01887304D01*
Y02102225D01*
X01883240D01*
X01884256Y02103241D02*
Y02105273D01*
X01886288D01*
Y02103241D01*
X01884256D01*
X01895940Y02102225D02*
Y02106289D01*
X01900004D01*
Y02102225D01*
X01895940D01*
X01896956Y02103241D02*
Y02105273D01*
X01898988D01*
Y02103241D01*
X01896956D01*
X01908640Y02102225D02*
Y02106289D01*
X01912704D01*
Y02102225D01*
X01908640D01*
X01909656Y02103241D02*
Y02105273D01*
X01911688D01*
Y02103241D01*
X01909656D01*
X01921340Y02102225D02*
Y02106289D01*
X01925404D01*
Y02102225D01*
X01921340D01*
X01922356Y02103241D02*
Y02105273D01*
X01924388D01*
Y02103241D01*
X01922356D01*
X01781640Y02089525D02*
Y02093589D01*
X01785704D01*
Y02089525D01*
X01781640D01*
X01782656Y02090541D02*
Y02092573D01*
X01784688D01*
Y02090541D01*
X01782656D01*
X01781640Y02102225D02*
Y02106289D01*
X01785704D01*
Y02102225D01*
X01781640D01*
X01782656Y02103241D02*
Y02105273D01*
X01784688D01*
Y02103241D01*
X01782656D01*
X01921340Y02089525D02*
Y02093589D01*
X01925404D01*
Y02089525D01*
X01921340D01*
X01922356Y02090541D02*
Y02092573D01*
X01924388D01*
Y02090541D01*
X01922356D01*
X02292490Y02064825D02*
X02293506D01*
X02294522Y02065841D01*
X02295538Y02064825D01*
X02296554D01*
Y02065841D01*
X02295538Y02066857D01*
X02296554Y02067873D01*
Y02068889D01*
X02295538D01*
X02294522Y02067873D01*
X02293506Y02068889D01*
X02292490D01*
Y02067873D01*
X02293506Y02066857D01*
X02292490Y02065841D01*
Y02064825D01*
X02293506Y02065841D02*
X02294014D01*
X02294522Y02066349D01*
X02295030Y02065841D01*
X02295538D01*
Y02066349D01*
X02295030Y02066857D01*
X02295538Y02067365D01*
Y02067873D01*
X02295030D01*
X02294522Y02067365D01*
X02294014Y02067873D01*
X02293506D01*
Y02067365D01*
X02294014Y02066857D01*
X02293506Y02066349D01*
Y02065841D01*
X02334908Y02096935D02*
X02333215D01*
X02334061D01*
Y02092703D01*
X02333215Y02091857D01*
X02332368D01*
X02331522Y02092703D01*
X02271522Y02124935D02*
Y02119857D01*
Y02121550D01*
X02274908Y02124935D01*
X02272368Y02122396D01*
X02274908Y02119857D01*
X02501908Y02317935D02*
X02498522D01*
Y02312857D01*
X02501908D01*
X02498522Y02315396D02*
X02500215D01*
X02776908Y02317435D02*
X02773522D01*
Y02312357D01*
X02776908D01*
X02773522Y02314896D02*
X02775215D01*
X03351907Y03137089D02*
X03351061Y03137935D01*
X03349368D01*
X03348522Y03137089D01*
Y03133703D01*
X03349368Y03132857D01*
X03351061D01*
X03351907Y03133703D01*
Y03135396D01*
X03350215D01*
X03351907Y03062089D02*
X03351061Y03062935D01*
X03349368D01*
X03348522Y03062089D01*
Y03058703D01*
X03349368Y03057857D01*
X03351061D01*
X03351907Y03058703D01*
Y03060396D01*
X03350215D01*
X03246908Y03232089D02*
X03246061Y03232935D01*
X03244368D01*
X03243522Y03232089D01*
Y03228703D01*
X03244368Y03227857D01*
X03246061D01*
X03246908Y03228703D01*
Y03230396D01*
X03245215D01*
X03246908Y03157089D02*
X03246061Y03157935D01*
X03244368D01*
X03243522Y03157089D01*
Y03153703D01*
X03244368Y03152857D01*
X03246061D01*
X03246908Y03153703D01*
Y03155396D01*
X03245215D01*
X02941678Y02016430D02*
X02939647Y02020494D01*
X02943711D01*
X02941678Y02016430D01*
X02855076Y01966430D02*
X02853044Y01970494D01*
X02857108D01*
X02855076Y01966430D01*
X03203522Y02623325D02*
X03201490Y02627389D01*
X03205554D01*
X03203522Y02623325D01*
Y02523325D02*
X03201490Y02527389D01*
X03205554D01*
X03203522Y02523325D01*
Y02253325D02*
X03201490Y02257389D01*
X03205554D01*
X03203522Y02253325D01*
Y02153325D02*
X03201490Y02157389D01*
X03205554D01*
X03203522Y02153325D01*
X02661022Y02938325D02*
X02662038Y02939341D01*
X02663054D01*
X02662038Y02940357D01*
X02663054Y02941373D01*
X02662038D01*
X02661022Y02942389D01*
X02660006Y02941373D01*
X02658990D01*
X02660006Y02940357D01*
X02658990Y02939341D01*
X02660006D01*
X02661022Y02938325D01*
Y03213325D02*
X02662038Y03214341D01*
X02663054D01*
X02662038Y03215357D01*
X02663054Y03216373D01*
X02662038D01*
X02661022Y03217389D01*
X02660006Y03216373D01*
X02658990D01*
X02660006Y03215357D01*
X02658990Y03214341D01*
X02660006D01*
X02661022Y03213325D01*
X03206022Y01835325D02*
X03203990Y01839389D01*
X03208054D01*
X03206022Y01835325D01*
Y01735325D02*
X03203990Y01739389D01*
X03208054D01*
X03206022Y01735325D01*
X02738990Y01820625D02*
X02740006Y01822657D01*
X02738990Y01824689D01*
X02741022Y01823673D01*
X02743054Y01824689D01*
X02742038Y01822657D01*
X02743054Y01820625D01*
X02741022Y01821641D01*
X02738990Y01820625D01*
X02740006Y01821641D02*
X02740514Y01822657D01*
X02740006Y01823673D01*
X02741022Y01823165D01*
X02742038Y01823673D01*
X02741530Y01822657D01*
X02742038Y01821641D01*
X02741022Y01822149D01*
X02740006Y01821641D01*
X02738990Y01846025D02*
X02740006Y01848057D01*
X02738990Y01850089D01*
X02741022Y01849073D01*
X02743054Y01850089D01*
X02742038Y01848057D01*
X02743054Y01846025D01*
X02741022Y01847041D01*
X02738990Y01846025D01*
X02740006Y01847041D02*
X02740514Y01848057D01*
X02740006Y01849073D01*
X02741022Y01848565D01*
X02742038Y01849073D01*
X02741530Y01848057D01*
X02742038Y01847041D01*
X02741022Y01847549D01*
X02740006Y01847041D01*
X02962506Y01709341D02*
Y01708325D01*
X02964538D01*
Y01709341D01*
X02965554D01*
Y01711373D01*
X02964538D01*
Y01712389D01*
X02962506D01*
Y01711373D01*
X02961490D01*
Y01709341D01*
X02962506D01*
Y01759341D02*
Y01758325D01*
X02964538D01*
Y01759341D01*
X02965554D01*
Y01761373D01*
X02964538D01*
Y01762389D01*
X02962506D01*
Y01761373D01*
X02961490D01*
Y01759341D01*
X02962506D01*
X01333990Y02670582D02*
Y02674646D01*
X01338054D01*
Y02670582D01*
X01333990D01*
X01409990D02*
Y02674646D01*
X01414054D01*
Y02670582D01*
X01409990D01*
X01409522Y02797582D02*
X01407490Y02801646D01*
X01411554D01*
X01409522Y02797582D01*
X01338522Y02822982D02*
X01336490Y02827046D01*
X01340554D01*
X01338522Y02822982D01*
X02801490Y01590825D02*
X02802506Y01592857D01*
X02801490Y01594889D01*
X02803522Y01593873D01*
X02805554Y01594889D01*
X02804538Y01592857D01*
X02805554Y01590825D01*
X02803522Y01591841D01*
X02801490Y01590825D01*
X02781490D02*
X02782506Y01592857D01*
X02781490Y01594889D01*
X02783522Y01593873D01*
X02785554Y01594889D01*
X02784538Y01592857D01*
X02785554Y01590825D01*
X02783522Y01591841D01*
X02781490Y01590825D01*
X00753532Y02484007D02*
X00754548Y02485023D01*
X00755564D01*
X00754548Y02486039D01*
X00755564Y02487055D01*
X00754548D01*
X00753532Y02488071D01*
X00752516Y02487055D01*
X00751500D01*
X00752516Y02486039D01*
X00751500Y02485023D01*
X00752516D01*
X00753532Y02484007D01*
Y02511707D02*
X00754548Y02512723D01*
X00755564D01*
X00754548Y02513739D01*
X00755564Y02514755D01*
X00754548D01*
X00753532Y02515771D01*
X00752516Y02514755D01*
X00751500D01*
X00752516Y02513739D01*
X00751500Y02512723D01*
X00752516D01*
X00753532Y02511707D01*
Y02539407D02*
X00754548Y02540423D01*
X00755564D01*
X00754548Y02541439D01*
X00755564Y02542455D01*
X00754548D01*
X00753532Y02543471D01*
X00752516Y02542455D01*
X00751500D01*
X00752516Y02541439D01*
X00751500Y02540423D01*
X00752516D01*
X00753532Y02539407D01*
Y02567108D02*
X00754548Y02568123D01*
X00755564D01*
X00754548Y02569139D01*
X00755564Y02570155D01*
X00754548D01*
X00753532Y02571171D01*
X00752516Y02570155D01*
X00751500D01*
X00752516Y02569139D01*
X00751500Y02568123D01*
X00752516D01*
X00753532Y02567108D01*
Y02594807D02*
X00754548Y02595823D01*
X00755564D01*
X00754548Y02596839D01*
X00755564Y02597856D01*
X00754548D01*
X00753532Y02598871D01*
X00752516Y02597856D01*
X00751500D01*
X00752516Y02596839D01*
X00751500Y02595823D01*
X00752516D01*
X00753532Y02594807D01*
X00725132Y02497857D02*
X00726148Y02498873D01*
X00727164D01*
X00726148Y02499889D01*
X00727164Y02500905D01*
X00726148D01*
X00725132Y02501921D01*
X00724116Y02500905D01*
X00723100D01*
X00724116Y02499889D01*
X00723100Y02498873D01*
X00724116D01*
X00725132Y02497857D01*
Y02525557D02*
X00726148Y02526573D01*
X00727164D01*
X00726148Y02527589D01*
X00727164Y02528605D01*
X00726148D01*
X00725132Y02529621D01*
X00724116Y02528605D01*
X00723100D01*
X00724116Y02527589D01*
X00723100Y02526573D01*
X00724116D01*
X00725132Y02525557D01*
Y02553257D02*
X00726148Y02554273D01*
X00727164D01*
X00726148Y02555289D01*
X00727164Y02556305D01*
X00726148D01*
X00725132Y02557321D01*
X00724116Y02556305D01*
X00723100D01*
X00724116Y02555289D01*
X00723100Y02554273D01*
X00724116D01*
X00725132Y02553257D01*
Y02580957D02*
X00726148Y02581973D01*
X00727164D01*
X00726148Y02582990D01*
X00727164Y02584005D01*
X00726148D01*
X00725132Y02585021D01*
X00724116Y02584005D01*
X00723100D01*
X00724116Y02582990D01*
X00723100Y02581973D01*
X00724116D01*
X00725132Y02580957D01*
X00737300Y02666440D02*
X00739332Y02668471D01*
X00741364Y02666440D01*
X00739332Y02664407D01*
X00737300Y02666440D01*
Y02416439D02*
X00739332Y02418471D01*
X00741364Y02416439D01*
X00739332Y02414407D01*
X00737300Y02416439D01*
X03343522Y02808685D02*
X03345215D01*
X03344368D01*
Y02803607D01*
X03343522D01*
X03345215D01*
X00693522Y03200435D02*
X00695215D01*
X00694368D01*
Y03195357D01*
X00693522D01*
X00695215D01*
X00973522Y02410435D02*
X00975215D01*
X00974368D01*
Y02405357D01*
X00973522D01*
X00975215D01*
X02443522Y01600435D02*
X02445215D01*
X02444368D01*
Y01595357D01*
X02443522D01*
X02445215D01*
X00736240Y02090357D02*
X00738272Y02092389D01*
X00740304Y02090357D01*
X00738272Y02088325D01*
X00736240Y02090357D01*
Y02340357D02*
X00738272Y02342389D01*
X00740304Y02340357D01*
X00738272Y02338325D01*
X00736240Y02340357D01*
X00724072Y02254875D02*
X00725088Y02255891D01*
X00726104D01*
X00725088Y02256907D01*
X00726104Y02257923D01*
X00725088D01*
X00724072Y02258939D01*
X00723056Y02257923D01*
X00722040D01*
X00723056Y02256907D01*
X00722040Y02255891D01*
X00723056D01*
X00724072Y02254875D01*
Y02227175D02*
X00725088Y02228191D01*
X00726104D01*
X00725088Y02229207D01*
X00726104Y02230223D01*
X00725088D01*
X00724072Y02231239D01*
X00723056Y02230223D01*
X00722040D01*
X00723056Y02229207D01*
X00722040Y02228191D01*
X00723056D01*
X00724072Y02227175D01*
Y02199475D02*
X00725088Y02200491D01*
X00726104D01*
X00725088Y02201507D01*
X00726104Y02202523D01*
X00725088D01*
X00724072Y02203539D01*
X00723056Y02202523D01*
X00722040D01*
X00723056Y02201507D01*
X00722040Y02200491D01*
X00723056D01*
X00724072Y02199475D01*
Y02171775D02*
X00725088Y02172791D01*
X00726104D01*
X00725088Y02173807D01*
X00726104Y02174823D01*
X00725088D01*
X00724072Y02175839D01*
X00723056Y02174823D01*
X00722040D01*
X00723056Y02173807D01*
X00722040Y02172791D01*
X00723056D01*
X00724072Y02171775D01*
X00752472Y02268725D02*
X00753488Y02269741D01*
X00754504D01*
X00753488Y02270757D01*
X00754504Y02271773D01*
X00753488D01*
X00752472Y02272789D01*
X00751456Y02271773D01*
X00750440D01*
X00751456Y02270757D01*
X00750440Y02269741D01*
X00751456D01*
X00752472Y02268725D01*
Y02241025D02*
X00753488Y02242041D01*
X00754504D01*
X00753488Y02243057D01*
X00754504Y02244073D01*
X00753488D01*
X00752472Y02245089D01*
X00751456Y02244073D01*
X00750440D01*
X00751456Y02243057D01*
X00750440Y02242041D01*
X00751456D01*
X00752472Y02241025D01*
Y02213325D02*
X00753488Y02214341D01*
X00754504D01*
X00753488Y02215357D01*
X00754504Y02216373D01*
X00753488D01*
X00752472Y02217389D01*
X00751456Y02216373D01*
X00750440D01*
X00751456Y02215357D01*
X00750440Y02214341D01*
X00751456D01*
X00752472Y02213325D01*
Y02185625D02*
X00753488Y02186641D01*
X00754504D01*
X00753488Y02187657D01*
X00754504Y02188673D01*
X00753488D01*
X00752472Y02189689D01*
X00751456Y02188673D01*
X00750440D01*
X00751456Y02187657D01*
X00750440Y02186641D01*
X00751456D01*
X00752472Y02185625D01*
Y02157925D02*
X00753488Y02158941D01*
X00754504D01*
X00753488Y02159957D01*
X00754504Y02160973D01*
X00753488D01*
X00752472Y02161989D01*
X00751456Y02160973D01*
X00750440D01*
X00751456Y02159957D01*
X00750440Y02158941D01*
X00751456D01*
X00752472Y02157925D01*
X02593522Y02872935D02*
X02595215D01*
X02594368D01*
Y02867857D01*
X02593522D01*
X02595215D01*
X00878190Y02378325D02*
X00879206Y02380357D01*
X00878190Y02382389D01*
X00880222Y02381373D01*
X00882254Y02382389D01*
X00881238Y02380357D01*
X00882254Y02378325D01*
X00880222Y02379341D01*
X00878190Y02378325D01*
X00879206Y02379341D02*
X00879714Y02380357D01*
X00879206Y02381373D01*
X00880222Y02380865D01*
X00881238Y02381373D01*
X00880730Y02380357D01*
X00881238Y02379341D01*
X00880222Y02379849D01*
X00879206Y02379341D01*
X00852790Y02378325D02*
X00853806Y02380357D01*
X00852790Y02382389D01*
X00854822Y02381373D01*
X00856854Y02382389D01*
X00855838Y02380357D01*
X00856854Y02378325D01*
X00854822Y02379341D01*
X00852790Y02378325D01*
X00853806Y02379341D02*
X00854314Y02380357D01*
X00853806Y02381373D01*
X00854822Y02380865D01*
X00855838Y02381373D01*
X00855330Y02380357D01*
X00855838Y02379341D01*
X00854822Y02379849D01*
X00853806Y02379341D01*
X00913050Y02324989D02*
X00912204Y02325835D01*
X00910511D01*
X00909665Y02324989D01*
Y02321603D01*
X00910511Y02320757D01*
X00912204D01*
X00913050Y02321603D01*
Y02323296D01*
X00911357D01*
X00988050Y02324989D02*
X00987204Y02325835D01*
X00985511D01*
X00984665Y02324989D01*
Y02321603D01*
X00985511Y02320757D01*
X00987204D01*
X00988050Y02321603D01*
Y02323296D01*
X00986357D01*
X03343522Y01600435D02*
X03345215D01*
X03344368D01*
Y01595357D01*
X03343522D01*
X03345215D01*
X03343522Y02400435D02*
X03345215D01*
X03344368D01*
Y02395357D01*
X03343522D01*
X03345215D01*
X00693522Y03117935D02*
Y03112857D01*
X00696061D01*
X00696908Y03113703D01*
Y03117089D01*
X00696061Y03117935D01*
X00693522D01*
X01736307Y02495695D02*
X01732921D01*
Y02493156D01*
X01734614D01*
X01732921D01*
Y02490617D01*
X01736307Y02506695D02*
X01732921D01*
Y02504156D01*
X01734614D01*
X01732921D01*
Y02501617D01*
G54D198*
X01152484Y02392337D02*
G03*
X01152484Y02392337I-00002032J00000000D01*
G01*
X01686485Y02407336D02*
G03*
X01686485Y02407336I-00002032J00000000D01*
G01*
X02079717Y02145694D02*
G03*
X02079717Y02145694I-00002032J00000000D01*
G01*
X01917304Y02604857D02*
G03*
X01917304Y02604857I-00002032J00000000D01*
G01*
X01831554Y02639357D02*
G03*
X01831554Y02639357I-00002032J00000000D01*
G01*
X01804554Y02661607D02*
G03*
X01804554Y02661607I-00002032J00000000D01*
G01*
X01835889Y02615577D02*
G03*
X01835889Y02615577I-00002032J00000000D01*
G01*
X01751304Y02620607D02*
G03*
X01751304Y02620607I-00002032J00000000D01*
G01*
X01793304Y02561357D02*
G03*
X01793304Y02561357I-00002032J00000000D01*
G01*
X01839221Y02590567D02*
G03*
X01839221Y02590567I-00002032J00000000D01*
G01*
X01917554Y02654357D02*
G03*
X01917554Y02654357I-00002032J00000000D01*
G01*
X01997054Y02571107D02*
G03*
X01997054Y02571107I-00002032J00000000D01*
G01*
X02058479Y02239432D02*
G03*
X02058479Y02239432I-00002032J00000000D01*
G01*
X02069554Y02270357D02*
G03*
X02069554Y02270357I-00002032J00000000D01*
G01*
X02059054Y02208607D02*
G03*
X02059054Y02208607I-00002032J00000000D01*
G01*
X02057804Y02191857D02*
G03*
X02057804Y02191857I-00002032J00000000D01*
G01*
X02059304Y02271357D02*
G03*
X02059304Y02271357I-00002032J00000000D01*
G01*
X02135697Y02224500D02*
G03*
X02135697Y02224500I-00002032J00000000D01*
G01*
X02142054Y02286107D02*
G03*
X02142054Y02286107I-00002032J00000000D01*
G01*
X02139304Y02128357D02*
G03*
X02139304Y02128357I-00002032J00000000D01*
G01*
X01786804Y02510857D02*
G03*
X01786804Y02510857I-00002032J00000000D01*
G01*
X01710337Y02130067D02*
G03*
X01710337Y02130067I-00002032J00000000D01*
G01*
X01625554Y02120067D02*
G03*
X01625554Y02120067I-00002032J00000000D01*
G01*
X02085554Y02275357D02*
G03*
X02085554Y02275357I-00002032J00000000D01*
G01*
X02019054Y02290107D02*
G03*
X02019054Y02290107I-00002032J00000000D01*
G01*
X01932754Y02281406D02*
G03*
X01932754Y02281406I-00002032J00000000D01*
G01*
X02098054Y02280357D02*
G03*
X02098054Y02280357I-00002032J00000000D01*
G01*
X01805554Y02535357D02*
G03*
X01805554Y02535357I-00002032J00000000D01*
G01*
X01958804Y02609857D02*
G03*
X01958804Y02609857I-00002032J00000000D01*
G01*
X01805554Y02575357D02*
G03*
X01805554Y02575357I-00002032J00000000D01*
G01*
X01851554Y02545672D02*
G03*
X01851554Y02545672I-00002032J00000000D01*
G01*
X01959304Y02628607D02*
G03*
X01959304Y02628607I-00002032J00000000D01*
G01*
X01790804Y02570107D02*
G03*
X01790804Y02570107I-00002032J00000000D01*
G01*
X02266100Y02492067D02*
G03*
X02266100Y02492067I-00002032J00000000D01*
G01*
X02127304Y02493857D02*
G03*
X02127304Y02493857I-00002032J00000000D01*
G01*
X02145554Y02493357D02*
G03*
X02145554Y02493357I-00002032J00000000D01*
G01*
X02093554Y02496357D02*
G03*
X02093554Y02496357I-00002032J00000000D01*
G01*
X01710804Y02531093D02*
G03*
X01710804Y02531093I-00002032J00000000D01*
G01*
X01978054Y02535092D02*
G03*
X01978054Y02535092I-00002032J00000000D01*
G01*
X01605596Y02536309D02*
G03*
X01605596Y02536309I-00002032J00000000D01*
G01*
X01959804Y02586314D02*
G03*
X01959804Y02586314I-00002032J00000000D01*
G01*
X01915184Y02553454D02*
G03*
X01915184Y02553454I-00002032J00000000D01*
G01*
X01915804Y02560315D02*
G03*
X01915804Y02560315I-00002032J00000000D01*
G01*
X01884554Y02660857D02*
G03*
X01884554Y02660857I-00002032J00000000D01*
G01*
X01880554Y02682857D02*
G03*
X01880554Y02682857I-00002032J00000000D01*
G01*
X01791804Y02632357D02*
G03*
X01791804Y02632357I-00002032J00000000D01*
G01*
X02863798Y02590056D02*
G03*
X02863798Y02590056I-00002032J00000000D01*
G01*
X02813054Y02574857D02*
G03*
X02813054Y02574857I-00002032J00000000D01*
G01*
X02795554Y02575357D02*
G03*
X02795554Y02575357I-00002032J00000000D01*
G01*
X02723054Y02595357D02*
G03*
X02723054Y02595357I-00002032J00000000D01*
G01*
X02495554Y01755357D02*
G03*
X02495554Y01755357I-00002032J00000000D01*
G01*
X02505554Y02565357D02*
G03*
X02505554Y02565357I-00002032J00000000D01*
G01*
X02460554Y02590647D02*
G03*
X02460554Y02590647I-00002032J00000000D01*
G01*
X02435554Y02585357D02*
G03*
X02435554Y02585357I-00002032J00000000D01*
G01*
X02535554Y02565357D02*
G03*
X02535554Y02565357I-00002032J00000000D01*
G01*
X02381054Y02605357D02*
G03*
X02381054Y02605357I-00002032J00000000D01*
G01*
X02409554Y02603857D02*
G03*
X02409554Y02603857I-00002032J00000000D01*
G01*
X02365554Y02605357D02*
G03*
X02365554Y02605357I-00002032J00000000D01*
G01*
X02116493Y02075872D02*
G03*
X02116493Y02075872I-00002032J00000000D01*
G01*
X02215515Y02065409D02*
G03*
X02215515Y02065409I-00002032J00000000D01*
G01*
X01230554Y02493891D02*
G03*
X01230554Y02493891I-00002032J00000000D01*
G01*
X01195554Y02315357D02*
G03*
X01195554Y02315357I-00002032J00000000D01*
G01*
X01205554Y02275357D02*
G03*
X01205554Y02275357I-00002032J00000000D01*
G01*
X01205135Y02511118D02*
G03*
X01205135Y02511118I-00002032J00000000D01*
G01*
X01325554Y02445357D02*
G03*
X01325554Y02445357I-00002032J00000000D01*
G01*
X01313054Y02340357D02*
G03*
X01313054Y02340357I-00002032J00000000D01*
G01*
X01294366Y02267292D02*
G03*
X01294366Y02267292I-00002032J00000000D01*
G01*
X01290554Y02260357D02*
G03*
X01290554Y02260357I-00002032J00000000D01*
G01*
X01273054Y02305357D02*
G03*
X01273054Y02305357I-00002032J00000000D01*
G01*
X02230554Y02167857D02*
G03*
X02230554Y02167857I-00002032J00000000D01*
G01*
X02373604Y02140240D02*
G03*
X02373604Y02140240I-00002032J00000000D01*
G01*
X02303054Y02127857D02*
G03*
X02303054Y02127857I-00002032J00000000D01*
G01*
X02458054Y02012857D02*
G03*
X02458054Y02012857I-00002032J00000000D01*
G01*
X02455554Y02122857D02*
G03*
X02455554Y02122857I-00002032J00000000D01*
G01*
X02458054Y02157857D02*
G03*
X02458054Y02157857I-00002032J00000000D01*
G01*
Y02177857D02*
G03*
X02458054Y02177857I-00002032J00000000D01*
G01*
Y02195357D02*
G03*
X02458054Y02195357I-00002032J00000000D01*
G01*
X02605554Y02003357D02*
G03*
X02605554Y02003357I-00002032J00000000D01*
G01*
Y02020357D02*
G03*
X02605554Y02020357I-00002032J00000000D01*
G01*
Y02037357D02*
G03*
X02605554Y02037357I-00002032J00000000D01*
G01*
Y02055357D02*
G03*
X02605554Y02055357I-00002032J00000000D01*
G01*
Y02071357D02*
G03*
X02605554Y02071357I-00002032J00000000D01*
G01*
Y02089357D02*
G03*
X02605554Y02089357I-00002032J00000000D01*
G01*
Y02107357D02*
G03*
X02605554Y02107357I-00002032J00000000D01*
G01*
Y02154357D02*
G03*
X02605554Y02154357I-00002032J00000000D01*
G01*
Y02123357D02*
G03*
X02605554Y02123357I-00002032J00000000D01*
G01*
Y02138357D02*
G03*
X02605554Y02138357I-00002032J00000000D01*
G01*
X02425554Y01851238D02*
G03*
X02425554Y01851238I-00002032J00000000D01*
G01*
X01913554Y02120357D02*
G03*
X01913554Y02120357I-00002032J00000000D01*
G01*
X02081554Y02129357D02*
G03*
X02081554Y02129357I-00002032J00000000D01*
G01*
X02092554Y02527357D02*
G03*
X02092554Y02527357I-00002032J00000000D01*
G01*
X02069554Y02508357D02*
G03*
X02069554Y02508357I-00002032J00000000D01*
G01*
X02077554Y02530357D02*
G03*
X02077554Y02530357I-00002032J00000000D01*
G01*
X02033554Y02501357D02*
G03*
X02033554Y02501357I-00002032J00000000D01*
G01*
X03015554Y01786357D02*
G03*
X03015554Y01786357I-00002032J00000000D01*
G01*
X03035554Y01795357D02*
G03*
X03035554Y01795357I-00002032J00000000D01*
G01*
X03025554Y01805357D02*
G03*
X03025554Y01805357I-00002032J00000000D01*
G01*
Y01795357D02*
G03*
X03025554Y01795357I-00002032J00000000D01*
G01*
X03015554D02*
G03*
X03015554Y01795357I-00002032J00000000D01*
G01*
Y01805357D02*
G03*
X03015554Y01805357I-00002032J00000000D01*
G01*
Y01815357D02*
G03*
X03015554Y01815357I-00002032J00000000D01*
G01*
X01176554Y02645357D02*
G03*
X01176554Y02645357I-00002032J00000000D01*
G01*
X01035554Y02750357D02*
G03*
X01035554Y02750357I-00002032J00000000D01*
G01*
X01029554D02*
G03*
X01029554Y02750357I-00002032J00000000D01*
G01*
X01035554Y02742857D02*
G03*
X01035554Y02742857I-00002032J00000000D01*
G01*
X01029554D02*
G03*
X01029554Y02742857I-00002032J00000000D01*
G01*
X01035554Y02735357D02*
G03*
X01035554Y02735357I-00002032J00000000D01*
G01*
X01029554D02*
G03*
X01029554Y02735357I-00002032J00000000D01*
G01*
X01035554Y02727857D02*
G03*
X01035554Y02727857I-00002032J00000000D01*
G01*
X01029554D02*
G03*
X01029554Y02727857I-00002032J00000000D01*
G01*
X01035554Y02720357D02*
G03*
X01035554Y02720357I-00002032J00000000D01*
G01*
X01029554D02*
G03*
X01029554Y02720357I-00002032J00000000D01*
G01*
X01035554Y02712857D02*
G03*
X01035554Y02712857I-00002032J00000000D01*
G01*
X01029554D02*
G03*
X01029554Y02712857I-00002032J00000000D01*
G01*
X01055554Y02770357D02*
G03*
X01055554Y02770357I-00002032J00000000D01*
G01*
X01049554D02*
G03*
X01049554Y02770357I-00002032J00000000D01*
G01*
X01055554Y02762857D02*
G03*
X01055554Y02762857I-00002032J00000000D01*
G01*
X01049554D02*
G03*
X01049554Y02762857I-00002032J00000000D01*
G01*
X01055554Y02755357D02*
G03*
X01055554Y02755357I-00002032J00000000D01*
G01*
X01049554D02*
G03*
X01049554Y02755357I-00002032J00000000D01*
G01*
X01055554Y02747857D02*
G03*
X01055554Y02747857I-00002032J00000000D01*
G01*
X01049554D02*
G03*
X01049554Y02747857I-00002032J00000000D01*
G01*
X01055554Y02740357D02*
G03*
X01055554Y02740357I-00002032J00000000D01*
G01*
X01049554D02*
G03*
X01049554Y02740357I-00002032J00000000D01*
G01*
X01055554Y02732857D02*
G03*
X01055554Y02732857I-00002032J00000000D01*
G01*
X01049554D02*
G03*
X01049554Y02732857I-00002032J00000000D01*
G01*
X01125554Y02490357D02*
G03*
X01125554Y02490357I-00002032J00000000D01*
G01*
X01119554D02*
G03*
X01119554Y02490357I-00002032J00000000D01*
G01*
X01125554Y02482857D02*
G03*
X01125554Y02482857I-00002032J00000000D01*
G01*
X01119554D02*
G03*
X01119554Y02482857I-00002032J00000000D01*
G01*
X01125554Y02475357D02*
G03*
X01125554Y02475357I-00002032J00000000D01*
G01*
X01119554D02*
G03*
X01119554Y02475357I-00002032J00000000D01*
G01*
X01125554Y02467857D02*
G03*
X01125554Y02467857I-00002032J00000000D01*
G01*
X01119554D02*
G03*
X01119554Y02467857I-00002032J00000000D01*
G01*
X01125554Y02460357D02*
G03*
X01125554Y02460357I-00002032J00000000D01*
G01*
X01119554D02*
G03*
X01119554Y02460357I-00002032J00000000D01*
G01*
X01125554Y02452857D02*
G03*
X01125554Y02452857I-00002032J00000000D01*
G01*
X01119554D02*
G03*
X01119554Y02452857I-00002032J00000000D01*
G01*
X01060554Y02295357D02*
G03*
X01060554Y02295357I-00002032J00000000D01*
G01*
Y02301357D02*
G03*
X01060554Y02301357I-00002032J00000000D01*
G01*
X01053054Y02295357D02*
G03*
X01053054Y02295357I-00002032J00000000D01*
G01*
Y02301357D02*
G03*
X01053054Y02301357I-00002032J00000000D01*
G01*
X01045554Y02295357D02*
G03*
X01045554Y02295357I-00002032J00000000D01*
G01*
Y02301357D02*
G03*
X01045554Y02301357I-00002032J00000000D01*
G01*
X01038054Y02295357D02*
G03*
X01038054Y02295357I-00002032J00000000D01*
G01*
Y02301357D02*
G03*
X01038054Y02301357I-00002032J00000000D01*
G01*
X01030554Y02295357D02*
G03*
X01030554Y02295357I-00002032J00000000D01*
G01*
Y02301357D02*
G03*
X01030554Y02301357I-00002032J00000000D01*
G01*
X01023054Y02295357D02*
G03*
X01023054Y02295357I-00002032J00000000D01*
G01*
Y02301357D02*
G03*
X01023054Y02301357I-00002032J00000000D01*
G01*
X02310554Y02085357D02*
G03*
X02310554Y02085357I-00002032J00000000D01*
G01*
Y02091357D02*
G03*
X02310554Y02091357I-00002032J00000000D01*
G01*
X02303054Y02085357D02*
G03*
X02303054Y02085357I-00002032J00000000D01*
G01*
Y02091357D02*
G03*
X02303054Y02091357I-00002032J00000000D01*
G01*
X02295554Y02085357D02*
G03*
X02295554Y02085357I-00002032J00000000D01*
G01*
Y02091357D02*
G03*
X02295554Y02091357I-00002032J00000000D01*
G01*
X02288054Y02085357D02*
G03*
X02288054Y02085357I-00002032J00000000D01*
G01*
Y02091357D02*
G03*
X02288054Y02091357I-00002032J00000000D01*
G01*
X02280554Y02085357D02*
G03*
X02280554Y02085357I-00002032J00000000D01*
G01*
Y02091357D02*
G03*
X02280554Y02091357I-00002032J00000000D01*
G01*
X02273054Y02085357D02*
G03*
X02273054Y02085357I-00002032J00000000D01*
G01*
Y02091357D02*
G03*
X02273054Y02091357I-00002032J00000000D01*
G01*
X02425554Y02367857D02*
G03*
X02425554Y02367857I-00002032J00000000D01*
G01*
Y02373857D02*
G03*
X02425554Y02373857I-00002032J00000000D01*
G01*
X02418054Y02367857D02*
G03*
X02418054Y02367857I-00002032J00000000D01*
G01*
Y02373857D02*
G03*
X02418054Y02373857I-00002032J00000000D01*
G01*
X02410554Y02367857D02*
G03*
X02410554Y02367857I-00002032J00000000D01*
G01*
Y02373857D02*
G03*
X02410554Y02373857I-00002032J00000000D01*
G01*
X02403054Y02367857D02*
G03*
X02403054Y02367857I-00002032J00000000D01*
G01*
Y02373857D02*
G03*
X02403054Y02373857I-00002032J00000000D01*
G01*
X02395554Y02367857D02*
G03*
X02395554Y02367857I-00002032J00000000D01*
G01*
Y02373857D02*
G03*
X02395554Y02373857I-00002032J00000000D01*
G01*
X02388054Y02367857D02*
G03*
X02388054Y02367857I-00002032J00000000D01*
G01*
Y02373857D02*
G03*
X02388054Y02373857I-00002032J00000000D01*
G01*
X02380554Y02367857D02*
G03*
X02380554Y02367857I-00002032J00000000D01*
G01*
Y02373857D02*
G03*
X02380554Y02373857I-00002032J00000000D01*
G01*
X02373054Y02367857D02*
G03*
X02373054Y02367857I-00002032J00000000D01*
G01*
Y02373857D02*
G03*
X02373054Y02373857I-00002032J00000000D01*
G01*
X02365554Y02367857D02*
G03*
X02365554Y02367857I-00002032J00000000D01*
G01*
Y02373857D02*
G03*
X02365554Y02373857I-00002032J00000000D01*
G01*
X02358054Y02367857D02*
G03*
X02358054Y02367857I-00002032J00000000D01*
G01*
Y02373857D02*
G03*
X02358054Y02373857I-00002032J00000000D01*
G01*
X02350554Y02367857D02*
G03*
X02350554Y02367857I-00002032J00000000D01*
G01*
Y02373857D02*
G03*
X02350554Y02373857I-00002032J00000000D01*
G01*
X02343054Y02367857D02*
G03*
X02343054Y02367857I-00002032J00000000D01*
G01*
Y02373857D02*
G03*
X02343054Y02373857I-00002032J00000000D01*
G01*
X02329554Y02367857D02*
G03*
X02329554Y02367857I-00002032J00000000D01*
G01*
X02335554D02*
G03*
X02335554Y02367857I-00002032J00000000D01*
G01*
X02329554Y02375357D02*
G03*
X02329554Y02375357I-00002032J00000000D01*
G01*
X02335554D02*
G03*
X02335554Y02375357I-00002032J00000000D01*
G01*
X02329554Y02382857D02*
G03*
X02329554Y02382857I-00002032J00000000D01*
G01*
X02335554D02*
G03*
X02335554Y02382857I-00002032J00000000D01*
G01*
X02329554Y02390357D02*
G03*
X02329554Y02390357I-00002032J00000000D01*
G01*
X02335554D02*
G03*
X02335554Y02390357I-00002032J00000000D01*
G01*
X02329554Y02397857D02*
G03*
X02329554Y02397857I-00002032J00000000D01*
G01*
X02335554D02*
G03*
X02335554Y02397857I-00002032J00000000D01*
G01*
X02425554Y02745357D02*
G03*
X02425554Y02745357I-00002032J00000000D01*
G01*
X02415554Y02705357D02*
G03*
X02415554Y02705357I-00002032J00000000D01*
G01*
X02435554D02*
G03*
X02435554Y02705357I-00002032J00000000D01*
G01*
X02425554D02*
G03*
X02425554Y02705357I-00002032J00000000D01*
G01*
X02435554Y02745357D02*
G03*
X02435554Y02745357I-00002032J00000000D01*
G01*
X02425554Y02715357D02*
G03*
X02425554Y02715357I-00002032J00000000D01*
G01*
X02415554D02*
G03*
X02415554Y02715357I-00002032J00000000D01*
G01*
X02405554D02*
G03*
X02405554Y02715357I-00002032J00000000D01*
G01*
X02305554Y02695357D02*
G03*
X02305554Y02695357I-00002032J00000000D01*
G01*
X02295554D02*
G03*
X02295554Y02695357I-00002032J00000000D01*
G01*
Y02685357D02*
G03*
X02295554Y02685357I-00002032J00000000D01*
G01*
X02305554D02*
G03*
X02305554Y02685357I-00002032J00000000D01*
G01*
Y02675357D02*
G03*
X02305554Y02675357I-00002032J00000000D01*
G01*
X02295554D02*
G03*
X02295554Y02675357I-00002032J00000000D01*
G01*
X02325554Y02655357D02*
G03*
X02325554Y02655357I-00002032J00000000D01*
G01*
X02325512Y02645538D02*
G03*
X02325512Y02645538I-00002032J00000000D01*
G01*
X02315554Y02645357D02*
G03*
X02315554Y02645357I-00002032J00000000D01*
G01*
Y02655357D02*
G03*
X02315554Y02655357I-00002032J00000000D01*
G01*
X02345554Y02615357D02*
G03*
X02345554Y02615357I-00002032J00000000D01*
G01*
Y02605357D02*
G03*
X02345554Y02605357I-00002032J00000000D01*
G01*
X02335554D02*
G03*
X02335554Y02605357I-00002032J00000000D01*
G01*
Y02625357D02*
G03*
X02335554Y02625357I-00002032J00000000D01*
G01*
Y02615357D02*
G03*
X02335554Y02615357I-00002032J00000000D01*
G01*
X02325554D02*
G03*
X02325554Y02615357I-00002032J00000000D01*
G01*
Y02625357D02*
G03*
X02325554Y02625357I-00002032J00000000D01*
G01*
X02315554D02*
G03*
X02315554Y02625357I-00002032J00000000D01*
G01*
X02971554Y02555857D02*
G03*
X02971554Y02555857I-00002032J00000000D01*
G01*
X02955554Y02555357D02*
G03*
X02955554Y02555357I-00002032J00000000D01*
G01*
X02855554Y02485357D02*
G03*
X02855554Y02485357I-00002032J00000000D01*
G01*
X02775804Y02449317D02*
G03*
X02775804Y02449317I-00002032J00000000D01*
G01*
Y02420107D02*
G03*
X02775804Y02420107I-00002032J00000000D01*
G01*
X02778304Y02434857D02*
G03*
X02778304Y02434857I-00002032J00000000D01*
G01*
X02965554Y02845357D02*
G03*
X02965554Y02845357I-00002032J00000000D01*
G01*
X02975554D02*
G03*
X02975554Y02845357I-00002032J00000000D01*
G01*
Y02835357D02*
G03*
X02975554Y02835357I-00002032J00000000D01*
G01*
X02965554D02*
G03*
X02965554Y02835357I-00002032J00000000D01*
G01*
Y02825357D02*
G03*
X02965554Y02825357I-00002032J00000000D01*
G01*
X02975554D02*
G03*
X02975554Y02825357I-00002032J00000000D01*
G01*
X02955554Y02815357D02*
G03*
X02955554Y02815357I-00002032J00000000D01*
G01*
X02975554D02*
G03*
X02975554Y02815357I-00002032J00000000D01*
G01*
X02965554D02*
G03*
X02965554Y02815357I-00002032J00000000D01*
G01*
X02955554Y02805357D02*
G03*
X02955554Y02805357I-00002032J00000000D01*
G01*
X02965554D02*
G03*
X02965554Y02805357I-00002032J00000000D01*
G01*
X02975554D02*
G03*
X02975554Y02805357I-00002032J00000000D01*
G01*
Y02795357D02*
G03*
X02975554Y02795357I-00002032J00000000D01*
G01*
Y02785357D02*
G03*
X02975554Y02785357I-00002032J00000000D01*
G01*
X02985554D02*
G03*
X02985554Y02785357I-00002032J00000000D01*
G01*
X03005554Y02575357D02*
G03*
X03005554Y02575357I-00002032J00000000D01*
G01*
Y02585357D02*
G03*
X03005554Y02585357I-00002032J00000000D01*
G01*
Y02595357D02*
G03*
X03005554Y02595357I-00002032J00000000D01*
G01*
Y02605357D02*
G03*
X03005554Y02605357I-00002032J00000000D01*
G01*
X02985554Y02625357D02*
G03*
X02985554Y02625357I-00002032J00000000D01*
G01*
X02995554Y02615357D02*
G03*
X02995554Y02615357I-00002032J00000000D01*
G01*
X03005554Y02275357D02*
G03*
X03005554Y02275357I-00002032J00000000D01*
G01*
X02965554Y02235357D02*
G03*
X02965554Y02235357I-00002032J00000000D01*
G01*
X03045554Y02205357D02*
G03*
X03045554Y02205357I-00002032J00000000D01*
G01*
X03055554Y02235357D02*
G03*
X03055554Y02235357I-00002032J00000000D01*
G01*
X03025554D02*
G03*
X03025554Y02235357I-00002032J00000000D01*
G01*
X02995554Y02225357D02*
G03*
X02995554Y02225357I-00002032J00000000D01*
G01*
X02985554Y02245357D02*
G03*
X02985554Y02245357I-00002032J00000000D01*
G01*
X02525554Y01895357D02*
G03*
X02525554Y01895357I-00002032J00000000D01*
G01*
X02515554D02*
G03*
X02515554Y01895357I-00002032J00000000D01*
G01*
X02505554D02*
G03*
X02505554Y01895357I-00002032J00000000D01*
G01*
X02495554D02*
G03*
X02495554Y01895357I-00002032J00000000D01*
G01*
Y01885357D02*
G03*
X02495554Y01885357I-00002032J00000000D01*
G01*
X02505554D02*
G03*
X02505554Y01885357I-00002032J00000000D01*
G01*
X02515554D02*
G03*
X02515554Y01885357I-00002032J00000000D01*
G01*
X02525554D02*
G03*
X02525554Y01885357I-00002032J00000000D01*
G01*
Y01875357D02*
G03*
X02525554Y01875357I-00002032J00000000D01*
G01*
X02515554D02*
G03*
X02515554Y01875357I-00002032J00000000D01*
G01*
X02505554D02*
G03*
X02505554Y01875357I-00002032J00000000D01*
G01*
X02495554D02*
G03*
X02495554Y01875357I-00002032J00000000D01*
G01*
X01845554Y03015357D02*
G03*
X01845554Y03015357I-00002032J00000000D01*
G01*
Y03005357D02*
G03*
X01845554Y03005357I-00002032J00000000D01*
G01*
Y02995357D02*
G03*
X01845554Y02995357I-00002032J00000000D01*
G01*
Y02985357D02*
G03*
X01845554Y02985357I-00002032J00000000D01*
G01*
X01855554D02*
G03*
X01855554Y02985357I-00002032J00000000D01*
G01*
Y02995357D02*
G03*
X01855554Y02995357I-00002032J00000000D01*
G01*
Y03005357D02*
G03*
X01855554Y03005357I-00002032J00000000D01*
G01*
Y03015357D02*
G03*
X01855554Y03015357I-00002032J00000000D01*
G01*
X01865554D02*
G03*
X01865554Y03015357I-00002032J00000000D01*
G01*
Y03005357D02*
G03*
X01865554Y03005357I-00002032J00000000D01*
G01*
Y02995357D02*
G03*
X01865554Y02995357I-00002032J00000000D01*
G01*
Y02985357D02*
G03*
X01865554Y02985357I-00002032J00000000D01*
G01*
X01875554D02*
G03*
X01875554Y02985357I-00002032J00000000D01*
G01*
Y02995357D02*
G03*
X01875554Y02995357I-00002032J00000000D01*
G01*
Y03005357D02*
G03*
X01875554Y03005357I-00002032J00000000D01*
G01*
Y03015357D02*
G03*
X01875554Y03015357I-00002032J00000000D01*
G01*
X01845554Y02855357D02*
G03*
X01845554Y02855357I-00002032J00000000D01*
G01*
Y02865357D02*
G03*
X01845554Y02865357I-00002032J00000000D01*
G01*
Y02875357D02*
G03*
X01845554Y02875357I-00002032J00000000D01*
G01*
Y02885357D02*
G03*
X01845554Y02885357I-00002032J00000000D01*
G01*
X01835554D02*
G03*
X01835554Y02885357I-00002032J00000000D01*
G01*
Y02875357D02*
G03*
X01835554Y02875357I-00002032J00000000D01*
G01*
Y02865357D02*
G03*
X01835554Y02865357I-00002032J00000000D01*
G01*
Y02855357D02*
G03*
X01835554Y02855357I-00002032J00000000D01*
G01*
Y02845357D02*
G03*
X01835554Y02845357I-00002032J00000000D01*
G01*
X01845554D02*
G03*
X01845554Y02845357I-00002032J00000000D01*
G01*
X01855554D02*
G03*
X01855554Y02845357I-00002032J00000000D01*
G01*
Y02835357D02*
G03*
X01855554Y02835357I-00002032J00000000D01*
G01*
X01845554D02*
G03*
X01845554Y02835357I-00002032J00000000D01*
G01*
X01835554D02*
G03*
X01835554Y02835357I-00002032J00000000D01*
G01*
Y02825357D02*
G03*
X01835554Y02825357I-00002032J00000000D01*
G01*
X01845554D02*
G03*
X01845554Y02825357I-00002032J00000000D01*
G01*
X01855554D02*
G03*
X01855554Y02825357I-00002032J00000000D01*
G01*
X01595554Y02875357D02*
G03*
X01595554Y02875357I-00002032J00000000D01*
G01*
X01605554D02*
G03*
X01605554Y02875357I-00002032J00000000D01*
G01*
X01615554D02*
G03*
X01615554Y02875357I-00002032J00000000D01*
G01*
Y02865357D02*
G03*
X01615554Y02865357I-00002032J00000000D01*
G01*
X01605554D02*
G03*
X01605554Y02865357I-00002032J00000000D01*
G01*
X01595554D02*
G03*
X01595554Y02865357I-00002032J00000000D01*
G01*
X01615554Y02825357D02*
G03*
X01615554Y02825357I-00002032J00000000D01*
G01*
X01616804Y02835857D02*
G03*
X01616804Y02835857I-00002032J00000000D01*
G01*
X01615554Y02845357D02*
G03*
X01615554Y02845357I-00002032J00000000D01*
G01*
Y02855357D02*
G03*
X01615554Y02855357I-00002032J00000000D01*
G01*
X01605554D02*
G03*
X01605554Y02855357I-00002032J00000000D01*
G01*
X01595554D02*
G03*
X01595554Y02855357I-00002032J00000000D01*
G01*
X01585554D02*
G03*
X01585554Y02855357I-00002032J00000000D01*
G01*
X01575554D02*
G03*
X01575554Y02855357I-00002032J00000000D01*
G01*
Y02845357D02*
G03*
X01575554Y02845357I-00002032J00000000D01*
G01*
Y02825357D02*
G03*
X01575554Y02825357I-00002032J00000000D01*
G01*
Y02835357D02*
G03*
X01575554Y02835357I-00002032J00000000D01*
G01*
X01605554D02*
G03*
X01605554Y02835357I-00002032J00000000D01*
G01*
Y02845357D02*
G03*
X01605554Y02845357I-00002032J00000000D01*
G01*
X01585554D02*
G03*
X01585554Y02845357I-00002032J00000000D01*
G01*
Y02825357D02*
G03*
X01585554Y02825357I-00002032J00000000D01*
G01*
X01605554D02*
G03*
X01605554Y02825357I-00002032J00000000D01*
G01*
X02068054Y02707857D02*
G03*
X02068054Y02707857I-00002032J00000000D01*
G01*
X02055554D02*
G03*
X02055554Y02707857I-00002032J00000000D01*
G01*
X02043663Y02707823D02*
G03*
X02043663Y02707823I-00002032J00000000D01*
G01*
X01280554Y02660357D02*
G03*
X01280554Y02660357I-00002032J00000000D01*
G01*
X01263054D02*
G03*
X01263054Y02660357I-00002032J00000000D01*
G01*
X01245554D02*
G03*
X01245554Y02660357I-00002032J00000000D01*
G01*
X01280554Y02675357D02*
G03*
X01280554Y02675357I-00002032J00000000D01*
G01*
X01263054D02*
G03*
X01263054Y02675357I-00002032J00000000D01*
G01*
X01245554D02*
G03*
X01245554Y02675357I-00002032J00000000D01*
G01*
X01625554Y02152857D02*
G03*
X01625554Y02152857I-00002032J00000000D01*
G01*
Y02165357D02*
G03*
X01625554Y02165357I-00002032J00000000D01*
G01*
X01625587Y02187587D02*
G03*
X01625587Y02187587I-00002032J00000000D01*
G01*
X01625554Y02197857D02*
G03*
X01625554Y02197857I-00002032J00000000D01*
G01*
X01353054Y02175357D02*
G03*
X01353054Y02175357I-00002032J00000000D01*
G01*
Y02187857D02*
G03*
X01353054Y02187857I-00002032J00000000D01*
G01*
Y02200357D02*
G03*
X01353054Y02200357I-00002032J00000000D01*
G01*
X02498054Y01945357D02*
G03*
X02498054Y01945357I-00002032J00000000D01*
G01*
X02528054Y01865357D02*
G03*
X02528054Y01865357I-00002032J00000000D01*
G01*
X02518054D02*
G03*
X02518054Y01865357I-00002032J00000000D01*
G01*
X02508054D02*
G03*
X02508054Y01865357I-00002032J00000000D01*
G01*
X02498054D02*
G03*
X02498054Y01865357I-00002032J00000000D01*
G01*
X03038054Y02500357D02*
G03*
X03038054Y02500357I-00002032J00000000D01*
G01*
X03058054Y02490357D02*
G03*
X03058054Y02490357I-00002032J00000000D01*
G01*
X03085554Y02477857D02*
G03*
X03085554Y02477857I-00002032J00000000D01*
G01*
X03078054Y02650357D02*
G03*
X03078054Y02650357I-00002032J00000000D01*
G01*
X03053054D02*
G03*
X03053054Y02650357I-00002032J00000000D01*
G01*
X03083054Y02580357D02*
G03*
X03083054Y02580357I-00002032J00000000D01*
G01*
X03058054D02*
G03*
X03058054Y02580357I-00002032J00000000D01*
G01*
X03038054D02*
G03*
X03038054Y02580357I-00002032J00000000D01*
G01*
X03020554D02*
G03*
X03020554Y02580357I-00002032J00000000D01*
G01*
X02411923Y01725107D02*
G03*
X02411923Y01725107I-00002032J00000000D01*
G01*
X01365554Y02700357D02*
G03*
X01365554Y02700357I-00002032J00000000D01*
G01*
X01700554Y02422857D02*
G03*
X01700554Y02422857I-00002032J00000000D01*
G01*
X01735554Y02652857D02*
G03*
X01735554Y02652857I-00002032J00000000D01*
G01*
X01373054Y02582857D02*
G03*
X01373054Y02582857I-00002032J00000000D01*
G01*
X02331664Y02502291D02*
G03*
X02331664Y02502291I-00002032J00000000D01*
G01*
X02301514Y02440160D02*
G03*
X02301514Y02440160I-00002032J00000000D01*
G01*
X03008054Y02660357D02*
G03*
X03008054Y02660357I-00002032J00000000D01*
G01*
X03063054Y02220357D02*
G03*
X03063054Y02220357I-00002032J00000000D01*
G01*
X03038054D02*
G03*
X03038054Y02220357I-00002032J00000000D01*
G01*
X03015554Y02222857D02*
G03*
X03015554Y02222857I-00002032J00000000D01*
G01*
X03003054Y02237857D02*
G03*
X03003054Y02237857I-00002032J00000000D01*
G01*
X02990554Y02255357D02*
G03*
X02990554Y02255357I-00002032J00000000D01*
G01*
X02975554Y02270357D02*
G03*
X02975554Y02270357I-00002032J00000000D01*
G01*
X02961593Y02283387D02*
G03*
X02961593Y02283387I-00002032J00000000D01*
G01*
X02940554Y02312857D02*
G03*
X02940554Y02312857I-00002032J00000000D01*
G01*
X02944107Y02327857D02*
G03*
X02944107Y02327857I-00002032J00000000D01*
G01*
Y02321169D02*
G03*
X02944107Y02321169I-00002032J00000000D01*
G01*
X02955554Y02305357D02*
G03*
X02955554Y02305357I-00002032J00000000D01*
G01*
X02948054D02*
G03*
X02948054Y02305357I-00002032J00000000D01*
G01*
X02963054Y02312857D02*
G03*
X02963054Y02312857I-00002032J00000000D01*
G01*
X02955554D02*
G03*
X02955554Y02312857I-00002032J00000000D01*
G01*
X02948054D02*
G03*
X02948054Y02312857I-00002032J00000000D01*
G01*
X02988054Y01802857D02*
G03*
X02988054Y01802857I-00002032J00000000D01*
G01*
X02980554D02*
G03*
X02980554Y01802857I-00002032J00000000D01*
G01*
X02990554Y01817857D02*
G03*
X02990554Y01817857I-00002032J00000000D01*
G01*
X02980554D02*
G03*
X02980554Y01817857I-00002032J00000000D01*
G01*
X02803054Y01612857D02*
G03*
X02803054Y01612857I-00002032J00000000D01*
G01*
X02834782Y02679566D02*
G03*
X02834782Y02679566I-00002032J00000000D01*
G01*
X02878054Y02225357D02*
G03*
X02878054Y02225357I-00002032J00000000D01*
G01*
X02778054Y02667607D02*
G03*
X02778054Y02667607I-00002032J00000000D01*
G01*
X02125554Y02537857D02*
G03*
X02125554Y02537857I-00002032J00000000D01*
G01*
Y02545357D02*
G03*
X02125554Y02545357I-00002032J00000000D01*
G01*
Y02552857D02*
G03*
X02125554Y02552857I-00002032J00000000D01*
G01*
Y02560357D02*
G03*
X02125554Y02560357I-00002032J00000000D01*
G01*
Y02567857D02*
G03*
X02125554Y02567857I-00002032J00000000D01*
G01*
X01943054Y02467857D02*
G03*
X01943054Y02467857I-00002032J00000000D01*
G01*
X02750510Y02667803D02*
G03*
X02750510Y02667803I-00002032J00000000D01*
G01*
X02057750Y02391817D02*
G03*
X02057750Y02391817I-00002032J00000000D01*
G01*
X02132569Y02409872D02*
G03*
X02132569Y02409872I-00002032J00000000D01*
G01*
X01517448Y02344751D02*
G03*
X01517448Y02344751I-00002032J00000000D01*
G01*
X01602344Y02345780D02*
G03*
X01602344Y02345780I-00002032J00000000D01*
G01*
X01955554Y02362857D02*
G03*
X01955554Y02362857I-00002032J00000000D01*
G01*
X02026844Y02462166D02*
G03*
X02026844Y02462166I-00002032J00000000D01*
G01*
X02773505Y02504142D02*
G03*
X02773505Y02504142I-00002032J00000000D01*
G01*
X02515512Y02673634D02*
G03*
X02515512Y02673634I-00002032J00000000D01*
G01*
X02850554Y02670357D02*
G03*
X02850554Y02670357I-00002032J00000000D01*
G01*
X02469764Y02501414D02*
G03*
X02469764Y02501414I-00002032J00000000D01*
G01*
X02340554Y02722857D02*
G03*
X02340554Y02722857I-00002032J00000000D01*
G01*
X02368054Y02515357D02*
G03*
X02368054Y02515357I-00002032J00000000D01*
G01*
X00884169Y02211697D02*
G03*
X00884169Y02211697I-00002032J00000000D01*
G01*
X00893054Y02472857D02*
G03*
X00893054Y02472857I-00002032J00000000D01*
G01*
X00893994Y02584727D02*
G03*
X00893994Y02584727I-00002032J00000000D01*
G01*
X01583054Y02385357D02*
G03*
X01583054Y02385357I-00002032J00000000D01*
G01*
X01400554Y02237857D02*
G03*
X01400554Y02237857I-00002032J00000000D01*
G01*
X01613054Y02267857D02*
G03*
X01613054Y02267857I-00002032J00000000D01*
G01*
X02843554Y02563357D02*
G03*
X02843554Y02563357I-00002032J00000000D01*
G01*
X02838479Y02531818D02*
G03*
X02838479Y02531818I-00002032J00000000D01*
G01*
X02020554Y02687857D02*
G03*
X02020554Y02687857I-00002032J00000000D01*
G01*
X01498715Y02218161D02*
G03*
X01498715Y02218161I-00002032J00000000D01*
G01*
X01970554Y02070357D02*
G03*
X01970554Y02070357I-00002032J00000000D01*
G01*
X01960554D02*
G03*
X01960554Y02070357I-00002032J00000000D01*
G01*
X02163054Y02660357D02*
G03*
X02163054Y02660357I-00002032J00000000D01*
G01*
X02162804Y02652857D02*
G03*
X02162804Y02652857I-00002032J00000000D01*
G01*
X02155554D02*
G03*
X02155554Y02652857I-00002032J00000000D01*
G01*
X02145554D02*
G03*
X02145554Y02652857I-00002032J00000000D01*
G01*
X02135554Y02620357D02*
G03*
X02135554Y02620357I-00002032J00000000D01*
G01*
X02246225Y02707159D02*
G03*
X02246225Y02707159I-00002032J00000000D01*
G01*
X02473054Y02644238D02*
G03*
X02473054Y02644238I-00002032J00000000D01*
G01*
X02450514Y02579172D02*
G03*
X02450514Y02579172I-00002032J00000000D01*
G01*
X02470673Y02602357D02*
G03*
X02470673Y02602357I-00002032J00000000D01*
G01*
X02798824Y02664567D02*
G03*
X02798824Y02664567I-00002032J00000000D01*
G01*
X02808111Y02667320D02*
G03*
X02808111Y02667320I-00002032J00000000D01*
G01*
X01760554Y02477857D02*
G03*
X01760554Y02477857I-00002032J00000000D01*
G01*
X01765094Y02428660D02*
G03*
X01765094Y02428660I-00002032J00000000D01*
G01*
X01740554Y02527857D02*
G03*
X01740554Y02527857I-00002032J00000000D01*
G01*
X01710554Y02464019D02*
G03*
X01710554Y02464019I-00002032J00000000D01*
G01*
X01451729Y02542145D02*
G03*
X01451729Y02542145I-00002032J00000000D01*
G01*
X01434891Y02576020D02*
G03*
X01434891Y02576020I-00002032J00000000D01*
G01*
X01313054Y02580357D02*
G03*
X01313054Y02580357I-00002032J00000000D01*
G01*
X01558054Y02627857D02*
G03*
X01558054Y02627857I-00002032J00000000D01*
G01*
X02395554Y02687857D02*
G03*
X02395554Y02687857I-00002032J00000000D01*
G01*
X02388356Y02661857D02*
G03*
X02388356Y02661857I-00002032J00000000D01*
G01*
X02898054Y02562857D02*
G03*
X02898054Y02562857I-00002032J00000000D01*
G01*
X00883054Y02275357D02*
G03*
X00883054Y02275357I-00002032J00000000D01*
G01*
X01753054Y02437857D02*
G03*
X01753054Y02437857I-00002032J00000000D01*
G01*
X01713054Y02440397D02*
G03*
X01713054Y02440397I-00002032J00000000D01*
G01*
X02723054Y02605357D02*
G03*
X02723054Y02605357I-00002032J00000000D01*
G01*
Y02585357D02*
G03*
X02723054Y02585357I-00002032J00000000D01*
G01*
X02585554Y02602857D02*
G03*
X02585554Y02602857I-00002032J00000000D01*
G01*
Y02587857D02*
G03*
X02585554Y02587857I-00002032J00000000D01*
G01*
Y02595357D02*
G03*
X02585554Y02595357I-00002032J00000000D01*
G01*
X00883979Y02250568D02*
G03*
X00883979Y02250568I-00002032J00000000D01*
G01*
X00872554Y02104357D02*
G03*
X00872554Y02104357I-00002032J00000000D01*
G01*
X01060554Y02465357D02*
G03*
X01060554Y02465357I-00002032J00000000D01*
G01*
X01007094Y02502053D02*
G03*
X01007094Y02502053I-00002032J00000000D01*
G01*
X01023054Y02470357D02*
G03*
X01023054Y02470357I-00002032J00000000D01*
G01*
X01034804Y02649107D02*
G03*
X01034804Y02649107I-00002032J00000000D01*
G01*
X01265554Y02592857D02*
G03*
X01265554Y02592857I-00002032J00000000D01*
G01*
X01140554Y02522857D02*
G03*
X01140554Y02522857I-00002032J00000000D01*
G01*
X01130554Y02505357D02*
G03*
X01130554Y02505357I-00002032J00000000D01*
G01*
X01216860Y02721281D02*
G03*
X01216860Y02721281I-00002032J00000000D01*
G01*
X01190554Y02625357D02*
G03*
X01190554Y02625357I-00002032J00000000D01*
G01*
X01155554Y02567857D02*
G03*
X01155554Y02567857I-00002032J00000000D01*
G01*
Y02560357D02*
G03*
X01155554Y02560357I-00002032J00000000D01*
G01*
X01198054D02*
G03*
X01198054Y02560357I-00002032J00000000D01*
G01*
X01213054Y02610357D02*
G03*
X01213054Y02610357I-00002032J00000000D01*
G01*
Y02620357D02*
G03*
X01213054Y02620357I-00002032J00000000D01*
G01*
X01009714Y02185947D02*
G03*
X01009714Y02185947I-00002032J00000000D01*
G01*
X01198054Y02845357D02*
G03*
X01198054Y02845357I-00002032J00000000D01*
G01*
X01700554Y02660357D02*
G03*
X01700554Y02660357I-00002032J00000000D01*
G01*
X01643054D02*
G03*
X01643054Y02660357I-00002032J00000000D01*
G01*
X01703054Y02775357D02*
G03*
X01703054Y02775357I-00002032J00000000D01*
G01*
X00905554Y02835357D02*
G03*
X00905554Y02835357I-00002032J00000000D01*
G01*
Y02825357D02*
G03*
X00905554Y02825357I-00002032J00000000D01*
G01*
Y02815357D02*
G03*
X00905554Y02815357I-00002032J00000000D01*
G01*
Y02805357D02*
G03*
X00905554Y02805357I-00002032J00000000D01*
G01*
X00915554D02*
G03*
X00915554Y02805357I-00002032J00000000D01*
G01*
X00925554D02*
G03*
X00925554Y02805357I-00002032J00000000D01*
G01*
X00935554D02*
G03*
X00935554Y02805357I-00002032J00000000D01*
G01*
X00945554D02*
G03*
X00945554Y02805357I-00002032J00000000D01*
G01*
Y02795357D02*
G03*
X00945554Y02795357I-00002032J00000000D01*
G01*
X00935554D02*
G03*
X00935554Y02795357I-00002032J00000000D01*
G01*
X00925554D02*
G03*
X00925554Y02795357I-00002032J00000000D01*
G01*
X00915554D02*
G03*
X00915554Y02795357I-00002032J00000000D01*
G01*
X00905554D02*
G03*
X00905554Y02795357I-00002032J00000000D01*
G01*
X00895554D02*
G03*
X00895554Y02795357I-00002032J00000000D01*
G01*
Y02805357D02*
G03*
X00895554Y02805357I-00002032J00000000D01*
G01*
Y02815357D02*
G03*
X00895554Y02815357I-00002032J00000000D01*
G01*
Y02845357D02*
G03*
X00895554Y02845357I-00002032J00000000D01*
G01*
Y02835357D02*
G03*
X00895554Y02835357I-00002032J00000000D01*
G01*
Y02825357D02*
G03*
X00895554Y02825357I-00002032J00000000D01*
G01*
X00885554D02*
G03*
X00885554Y02825357I-00002032J00000000D01*
G01*
Y02835357D02*
G03*
X00885554Y02835357I-00002032J00000000D01*
G01*
X00886056Y02845864D02*
G03*
X00886056Y02845864I-00002032J00000000D01*
G01*
X00885236Y02855298D02*
G03*
X00885236Y02855298I-00002032J00000000D01*
G01*
X00875554Y02855357D02*
G03*
X00875554Y02855357I-00002032J00000000D01*
G01*
Y02845357D02*
G03*
X00875554Y02845357I-00002032J00000000D01*
G01*
Y02835357D02*
G03*
X00875554Y02835357I-00002032J00000000D01*
G01*
Y02825357D02*
G03*
X00875554Y02825357I-00002032J00000000D01*
G01*
X00885554Y02815357D02*
G03*
X00885554Y02815357I-00002032J00000000D01*
G01*
X00885236Y02805157D02*
G03*
X00885236Y02805157I-00002032J00000000D01*
G01*
X00885554Y02795357D02*
G03*
X00885554Y02795357I-00002032J00000000D01*
G01*
X00875554D02*
G03*
X00875554Y02795357I-00002032J00000000D01*
G01*
Y02805357D02*
G03*
X00875554Y02805357I-00002032J00000000D01*
G01*
X00865554D02*
G03*
X00865554Y02805357I-00002032J00000000D01*
G01*
X00875554Y02815357D02*
G03*
X00875554Y02815357I-00002032J00000000D01*
G01*
X00866061Y02815308D02*
G03*
X00866061Y02815308I-00002032J00000000D01*
G01*
X00855554Y02815357D02*
G03*
X00855554Y02815357I-00002032J00000000D01*
G01*
X03075554Y02370357D02*
G03*
X03075554Y02370357I-00002032J00000000D01*
G01*
X02455554Y02140357D02*
G03*
X02455554Y02140357I-00002032J00000000D01*
G01*
X03000554Y02630357D02*
G03*
X03000554Y02630357I-00002032J00000000D01*
G01*
X02408254Y01745357D02*
G03*
X02408254Y01745357I-00002032J00000000D01*
G01*
Y01756530D02*
G03*
X02408254Y01756530I-00002032J00000000D01*
G01*
X02515554Y01785357D02*
G03*
X02515554Y01785357I-00002032J00000000D01*
G01*
X02505554D02*
G03*
X02505554Y01785357I-00002032J00000000D01*
G01*
X02408254Y01790357D02*
G03*
X02408254Y01790357I-00002032J00000000D01*
G01*
X02535554Y01810357D02*
G03*
X02535554Y01810357I-00002032J00000000D01*
G01*
X02603304Y01777107D02*
G03*
X02603304Y01777107I-00002032J00000000D01*
G01*
X02556054Y01780857D02*
G03*
X02556054Y01780857I-00002032J00000000D01*
G01*
X02772539Y01720094D02*
G03*
X02772539Y01720094I-00002032J00000000D01*
G01*
X02772554Y01727557D02*
G03*
X02772554Y01727557I-00002032J00000000D01*
G01*
Y01735057D02*
G03*
X02772554Y01735057I-00002032J00000000D01*
G01*
Y01742557D02*
G03*
X02772554Y01742557I-00002032J00000000D01*
G01*
Y01750057D02*
G03*
X02772554Y01750057I-00002032J00000000D01*
G01*
Y01757557D02*
G03*
X02772554Y01757557I-00002032J00000000D01*
G01*
X02765039Y01720094D02*
G03*
X02765039Y01720094I-00002032J00000000D01*
G01*
X02765054Y01727557D02*
G03*
X02765054Y01727557I-00002032J00000000D01*
G01*
Y01735057D02*
G03*
X02765054Y01735057I-00002032J00000000D01*
G01*
Y01742557D02*
G03*
X02765054Y01742557I-00002032J00000000D01*
G01*
Y01750057D02*
G03*
X02765054Y01750057I-00002032J00000000D01*
G01*
Y01757557D02*
G03*
X02765054Y01757557I-00002032J00000000D01*
G01*
X02757539Y01720094D02*
G03*
X02757539Y01720094I-00002032J00000000D01*
G01*
X02757554Y01727557D02*
G03*
X02757554Y01727557I-00002032J00000000D01*
G01*
Y01735057D02*
G03*
X02757554Y01735057I-00002032J00000000D01*
G01*
Y01742557D02*
G03*
X02757554Y01742557I-00002032J00000000D01*
G01*
Y01750057D02*
G03*
X02757554Y01750057I-00002032J00000000D01*
G01*
Y01757557D02*
G03*
X02757554Y01757557I-00002032J00000000D01*
G01*
X02750039Y01720094D02*
G03*
X02750039Y01720094I-00002032J00000000D01*
G01*
X02750054Y01727557D02*
G03*
X02750054Y01727557I-00002032J00000000D01*
G01*
Y01735057D02*
G03*
X02750054Y01735057I-00002032J00000000D01*
G01*
Y01742557D02*
G03*
X02750054Y01742557I-00002032J00000000D01*
G01*
Y01750057D02*
G03*
X02750054Y01750057I-00002032J00000000D01*
G01*
Y01757557D02*
G03*
X02750054Y01757557I-00002032J00000000D01*
G01*
X02742539Y01720094D02*
G03*
X02742539Y01720094I-00002032J00000000D01*
G01*
X02742554Y01727557D02*
G03*
X02742554Y01727557I-00002032J00000000D01*
G01*
Y01735057D02*
G03*
X02742554Y01735057I-00002032J00000000D01*
G01*
Y01742557D02*
G03*
X02742554Y01742557I-00002032J00000000D01*
G01*
Y01750057D02*
G03*
X02742554Y01750057I-00002032J00000000D01*
G01*
Y01757557D02*
G03*
X02742554Y01757557I-00002032J00000000D01*
G01*
X02735039Y01720094D02*
G03*
X02735039Y01720094I-00002032J00000000D01*
G01*
X02735054Y01735057D02*
G03*
X02735054Y01735057I-00002032J00000000D01*
G01*
Y01750057D02*
G03*
X02735054Y01750057I-00002032J00000000D01*
G01*
Y01757557D02*
G03*
X02735054Y01757557I-00002032J00000000D01*
G01*
Y01742557D02*
G03*
X02735054Y01742557I-00002032J00000000D01*
G01*
Y01727557D02*
G03*
X02735054Y01727557I-00002032J00000000D01*
G01*
X02995554Y01810357D02*
G03*
X02995554Y01810357I-00002032J00000000D01*
G01*
X03080554Y01565357D02*
G03*
X03080554Y01565357I-00002032J00000000D01*
G01*
X02830554Y01605357D02*
G03*
X02830554Y01605357I-00002032J00000000D01*
G01*
X02835554Y01800357D02*
G03*
X02835554Y01800357I-00002032J00000000D01*
G01*
X02840554Y01805357D02*
G03*
X02840554Y01805357I-00002032J00000000D01*
G01*
X02835554Y01810357D02*
G03*
X02835554Y01810357I-00002032J00000000D01*
G01*
X02840554Y01815357D02*
G03*
X02840554Y01815357I-00002032J00000000D01*
G01*
X02835554Y01820357D02*
G03*
X02835554Y01820357I-00002032J00000000D01*
G01*
X03025554Y01582857D02*
G03*
X03025554Y01582857I-00002032J00000000D01*
G01*
X02760554Y01560357D02*
G03*
X02760554Y01560357I-00002032J00000000D01*
G01*
X03140554Y01605357D02*
G03*
X03140554Y01605357I-00002032J00000000D01*
G01*
X02853054Y02312857D02*
G03*
X02853054Y02312857I-00002032J00000000D01*
G01*
X02818054Y02327857D02*
G03*
X02818054Y02327857I-00002032J00000000D01*
G01*
Y02320357D02*
G03*
X02818054Y02320357I-00002032J00000000D01*
G01*
X02830554Y02280357D02*
G03*
X02830554Y02280357I-00002032J00000000D01*
G01*
X02938054Y02287857D02*
G03*
X02938054Y02287857I-00002032J00000000D01*
G01*
Y02302857D02*
G03*
X02938054Y02302857I-00002032J00000000D01*
G01*
X02910554D02*
G03*
X02910554Y02302857I-00002032J00000000D01*
G01*
Y02287857D02*
G03*
X02910554Y02287857I-00002032J00000000D01*
G01*
X02903163Y02287953D02*
G03*
X02903163Y02287953I-00002032J00000000D01*
G01*
X02895554Y02287857D02*
G03*
X02895554Y02287857I-00002032J00000000D01*
G01*
X02903054Y02302857D02*
G03*
X02903054Y02302857I-00002032J00000000D01*
G01*
X02895554D02*
G03*
X02895554Y02302857I-00002032J00000000D01*
G01*
X02888054Y02287857D02*
G03*
X02888054Y02287857I-00002032J00000000D01*
G01*
Y02302857D02*
G03*
X02888054Y02302857I-00002032J00000000D01*
G01*
X03005554Y02525357D02*
G03*
X03005554Y02525357I-00002032J00000000D01*
G01*
X03010554Y02395357D02*
G03*
X03010554Y02395357I-00002032J00000000D01*
G01*
X03023054Y02447857D02*
G03*
X03023054Y02447857I-00002032J00000000D01*
G01*
X03015554D02*
G03*
X03015554Y02447857I-00002032J00000000D01*
G01*
X02240429Y02367857D02*
G03*
X02240429Y02367857I-00002032J00000000D01*
G01*
X02233054D02*
G03*
X02233054Y02367857I-00002032J00000000D01*
G01*
Y02357857D02*
G03*
X02233054Y02357857I-00002032J00000000D01*
G01*
X02241179D02*
G03*
X02241179Y02357857I-00002032J00000000D01*
G01*
X02249304D02*
G03*
X02249304Y02357857I-00002032J00000000D01*
G01*
X02257429D02*
G03*
X02257429Y02357857I-00002032J00000000D01*
G01*
X02265554D02*
G03*
X02265554Y02357857I-00002032J00000000D01*
G01*
X02361194Y02478357D02*
G03*
X02361194Y02478357I-00002032J00000000D01*
G01*
X02355194D02*
G03*
X02355194Y02478357I-00002032J00000000D01*
G01*
X02361194Y02470857D02*
G03*
X02361194Y02470857I-00002032J00000000D01*
G01*
X02355194D02*
G03*
X02355194Y02470857I-00002032J00000000D01*
G01*
X02361194Y02463357D02*
G03*
X02361194Y02463357I-00002032J00000000D01*
G01*
X02355194D02*
G03*
X02355194Y02463357I-00002032J00000000D01*
G01*
X02361194Y02455857D02*
G03*
X02361194Y02455857I-00002032J00000000D01*
G01*
X02355194D02*
G03*
X02355194Y02455857I-00002032J00000000D01*
G01*
X02361194Y02448357D02*
G03*
X02361194Y02448357I-00002032J00000000D01*
G01*
X02355194D02*
G03*
X02355194Y02448357I-00002032J00000000D01*
G01*
X02361194Y02440857D02*
G03*
X02361194Y02440857I-00002032J00000000D01*
G01*
X02355194D02*
G03*
X02355194Y02440857I-00002032J00000000D01*
G01*
X02361194Y02433357D02*
G03*
X02361194Y02433357I-00002032J00000000D01*
G01*
X02355194D02*
G03*
X02355194Y02433357I-00002032J00000000D01*
G01*
X02361194Y02425857D02*
G03*
X02361194Y02425857I-00002032J00000000D01*
G01*
X02355194D02*
G03*
X02355194Y02425857I-00002032J00000000D01*
G01*
X02361194Y02418357D02*
G03*
X02361194Y02418357I-00002032J00000000D01*
G01*
X02355194D02*
G03*
X02355194Y02418357I-00002032J00000000D01*
G01*
X02361194Y02410857D02*
G03*
X02361194Y02410857I-00002032J00000000D01*
G01*
X02355194D02*
G03*
X02355194Y02410857I-00002032J00000000D01*
G01*
X02370554Y02495357D02*
G03*
X02370554Y02495357I-00002032J00000000D01*
G01*
X02513014Y02487857D02*
G03*
X02513014Y02487857I-00002032J00000000D01*
G01*
X02587204Y02429857D02*
G03*
X02587204Y02429857I-00002032J00000000D01*
G01*
Y02422357D02*
G03*
X02587204Y02422357I-00002032J00000000D01*
G01*
Y02459607D02*
G03*
X02587204Y02459607I-00002032J00000000D01*
G01*
Y02467357D02*
G03*
X02587204Y02467357I-00002032J00000000D01*
G01*
Y02382357D02*
G03*
X02587204Y02382357I-00002032J00000000D01*
G01*
Y02475107D02*
G03*
X02587204Y02475107I-00002032J00000000D01*
G01*
Y02374607D02*
G03*
X02587204Y02374607I-00002032J00000000D01*
G01*
Y02366857D02*
G03*
X02587204Y02366857I-00002032J00000000D01*
G01*
X02594954Y02374607D02*
G03*
X02594954Y02374607I-00002032J00000000D01*
G01*
Y02366857D02*
G03*
X02594954Y02366857I-00002032J00000000D01*
G01*
X02579454Y02422357D02*
G03*
X02579454Y02422357I-00002032J00000000D01*
G01*
Y02429857D02*
G03*
X02579454Y02429857I-00002032J00000000D01*
G01*
Y02459607D02*
G03*
X02579454Y02459607I-00002032J00000000D01*
G01*
Y02467357D02*
G03*
X02579454Y02467357I-00002032J00000000D01*
G01*
Y02366857D02*
G03*
X02579454Y02366857I-00002032J00000000D01*
G01*
Y02374607D02*
G03*
X02579454Y02374607I-00002032J00000000D01*
G01*
X02602704Y02366857D02*
G03*
X02602704Y02366857I-00002032J00000000D01*
G01*
Y02374607D02*
G03*
X02602704Y02374607I-00002032J00000000D01*
G01*
X02607704Y02389857D02*
G03*
X02607704Y02389857I-00002032J00000000D01*
G01*
Y02422357D02*
G03*
X02607704Y02422357I-00002032J00000000D01*
G01*
Y02429857D02*
G03*
X02607704Y02429857I-00002032J00000000D01*
G01*
Y02459607D02*
G03*
X02607704Y02459607I-00002032J00000000D01*
G01*
Y02467357D02*
G03*
X02607704Y02467357I-00002032J00000000D01*
G01*
Y02475107D02*
G03*
X02607704Y02475107I-00002032J00000000D01*
G01*
X02594954Y02382357D02*
G03*
X02594954Y02382357I-00002032J00000000D01*
G01*
X02607704D02*
G03*
X02607704Y02382357I-00002032J00000000D01*
G01*
X02973054Y02450357D02*
G03*
X02973054Y02450357I-00002032J00000000D01*
G01*
X02700554Y02801107D02*
G03*
X02700554Y02801107I-00002032J00000000D01*
G01*
X02713304D02*
G03*
X02713304Y02801107I-00002032J00000000D01*
G01*
X02647304Y02709607D02*
G03*
X02647304Y02709607I-00002032J00000000D01*
G01*
Y02717357D02*
G03*
X02647304Y02717357I-00002032J00000000D01*
G01*
Y02725107D02*
G03*
X02647304Y02725107I-00002032J00000000D01*
G01*
X02655054D02*
G03*
X02655054Y02725107I-00002032J00000000D01*
G01*
Y02717357D02*
G03*
X02655054Y02717357I-00002032J00000000D01*
G01*
Y02709607D02*
G03*
X02655054Y02709607I-00002032J00000000D01*
G01*
X02662804Y02725107D02*
G03*
X02662804Y02725107I-00002032J00000000D01*
G01*
Y02717357D02*
G03*
X02662804Y02717357I-00002032J00000000D01*
G01*
Y02709607D02*
G03*
X02662804Y02709607I-00002032J00000000D01*
G01*
X02647304Y02749607D02*
G03*
X02647304Y02749607I-00002032J00000000D01*
G01*
Y02757357D02*
G03*
X02647304Y02757357I-00002032J00000000D01*
G01*
Y02765107D02*
G03*
X02647304Y02765107I-00002032J00000000D01*
G01*
X02655054D02*
G03*
X02655054Y02765107I-00002032J00000000D01*
G01*
Y02757357D02*
G03*
X02655054Y02757357I-00002032J00000000D01*
G01*
Y02749607D02*
G03*
X02655054Y02749607I-00002032J00000000D01*
G01*
X02662804Y02765107D02*
G03*
X02662804Y02765107I-00002032J00000000D01*
G01*
Y02757357D02*
G03*
X02662804Y02757357I-00002032J00000000D01*
G01*
Y02749607D02*
G03*
X02662804Y02749607I-00002032J00000000D01*
G01*
Y02789607D02*
G03*
X02662804Y02789607I-00002032J00000000D01*
G01*
Y02797357D02*
G03*
X02662804Y02797357I-00002032J00000000D01*
G01*
Y02805107D02*
G03*
X02662804Y02805107I-00002032J00000000D01*
G01*
X02655054Y02789607D02*
G03*
X02655054Y02789607I-00002032J00000000D01*
G01*
Y02797357D02*
G03*
X02655054Y02797357I-00002032J00000000D01*
G01*
Y02805107D02*
G03*
X02655054Y02805107I-00002032J00000000D01*
G01*
X02647304D02*
G03*
X02647304Y02805107I-00002032J00000000D01*
G01*
Y02797357D02*
G03*
X02647304Y02797357I-00002032J00000000D01*
G01*
Y02789607D02*
G03*
X02647304Y02789607I-00002032J00000000D01*
G01*
X02700554Y02708357D02*
G03*
X02700554Y02708357I-00002032J00000000D01*
G01*
Y02716107D02*
G03*
X02700554Y02716107I-00002032J00000000D01*
G01*
Y02723857D02*
G03*
X02700554Y02723857I-00002032J00000000D01*
G01*
Y02753607D02*
G03*
X02700554Y02753607I-00002032J00000000D01*
G01*
Y02761107D02*
G03*
X02700554Y02761107I-00002032J00000000D01*
G01*
Y02793607D02*
G03*
X02700554Y02793607I-00002032J00000000D01*
G01*
X02705554Y02808857D02*
G03*
X02705554Y02808857I-00002032J00000000D01*
G01*
Y02816607D02*
G03*
X02705554Y02816607I-00002032J00000000D01*
G01*
X02728804Y02808857D02*
G03*
X02728804Y02808857I-00002032J00000000D01*
G01*
Y02816607D02*
G03*
X02728804Y02816607I-00002032J00000000D01*
G01*
Y02716107D02*
G03*
X02728804Y02716107I-00002032J00000000D01*
G01*
Y02723857D02*
G03*
X02728804Y02723857I-00002032J00000000D01*
G01*
Y02753607D02*
G03*
X02728804Y02753607I-00002032J00000000D01*
G01*
Y02761107D02*
G03*
X02728804Y02761107I-00002032J00000000D01*
G01*
X02713304Y02816607D02*
G03*
X02713304Y02816607I-00002032J00000000D01*
G01*
Y02808857D02*
G03*
X02713304Y02808857I-00002032J00000000D01*
G01*
X02721054Y02816607D02*
G03*
X02721054Y02816607I-00002032J00000000D01*
G01*
Y02808857D02*
G03*
X02721054Y02808857I-00002032J00000000D01*
G01*
Y02708357D02*
G03*
X02721054Y02708357I-00002032J00000000D01*
G01*
Y02801107D02*
G03*
X02721054Y02801107I-00002032J00000000D01*
G01*
X02565092Y02715866D02*
G03*
X02565092Y02715866I-00002032J00000000D01*
G01*
Y02705866D02*
G03*
X02565092Y02705866I-00002032J00000000D01*
G01*
X02555092Y02715866D02*
G03*
X02555092Y02715866I-00002032J00000000D01*
G01*
Y02705866D02*
G03*
X02555092Y02705866I-00002032J00000000D01*
G01*
X02495092Y02675866D02*
G03*
X02495092Y02675866I-00002032J00000000D01*
G01*
Y02685866D02*
G03*
X02495092Y02685866I-00002032J00000000D01*
G01*
X02275616Y02545044D02*
G03*
X02275616Y02545044I-00002032J00000000D01*
G01*
X02265074Y02545376D02*
G03*
X02265074Y02545376I-00002032J00000000D01*
G01*
X02295616Y02565044D02*
G03*
X02295616Y02565044I-00002032J00000000D01*
G01*
X02285368D02*
G03*
X02285368Y02565044I-00002032J00000000D01*
G01*
X02285616Y02555044D02*
G03*
X02285616Y02555044I-00002032J00000000D01*
G01*
X02275616D02*
G03*
X02275616Y02555044I-00002032J00000000D01*
G01*
X02265616D02*
G03*
X02265616Y02555044I-00002032J00000000D01*
G01*
X02275616Y02565044D02*
G03*
X02275616Y02565044I-00002032J00000000D01*
G01*
X02265616D02*
G03*
X02265616Y02565044I-00002032J00000000D01*
G01*
X02330554Y02222357D02*
G03*
X02330554Y02222357I-00002032J00000000D01*
G01*
X02183554Y02322357D02*
G03*
X02183554Y02322357I-00002032J00000000D01*
G01*
Y02313357D02*
G03*
X02183554Y02313357I-00002032J00000000D01*
G01*
X02209164Y02265367D02*
G03*
X02209164Y02265367I-00002032J00000000D01*
G01*
X02246554Y02151357D02*
G03*
X02246554Y02151357I-00002032J00000000D01*
G01*
X02404554Y02059357D02*
G03*
X02404554Y02059357I-00002032J00000000D01*
G01*
X02397554Y02069357D02*
G03*
X02397554Y02069357I-00002032J00000000D01*
G01*
X02487554Y02526357D02*
G03*
X02487554Y02526357I-00002032J00000000D01*
G01*
X02499514Y02729160D02*
G03*
X02499514Y02729160I-00002032J00000000D01*
G01*
X02258554Y02654357D02*
G03*
X02258554Y02654357I-00002032J00000000D01*
G01*
X02251554D02*
G03*
X02251554Y02654357I-00002032J00000000D01*
G01*
X02244554D02*
G03*
X02244554Y02654357I-00002032J00000000D01*
G01*
X02238554Y02755357D02*
G03*
X02238554Y02755357I-00002032J00000000D01*
G01*
X02231554Y02755357D02*
G03*
X02231554Y02755357I-00002032J00000000D01*
G01*
X02224554D02*
G03*
X02224554Y02755357I-00002032J00000000D01*
G01*
X02536554Y02634357D02*
G03*
X02536554Y02634357I-00002032J00000000D01*
G01*
X02542554D02*
G03*
X02542554Y02634357I-00002032J00000000D01*
G01*
X02548554Y02628357D02*
G03*
X02548554Y02628357I-00002032J00000000D01*
G01*
X02542554D02*
G03*
X02542554Y02628357I-00002032J00000000D01*
G01*
X02536554D02*
G03*
X02536554Y02628357I-00002032J00000000D01*
G01*
X02530554D02*
G03*
X02530554Y02628357I-00002032J00000000D01*
G01*
Y02634357D02*
G03*
X02530554Y02634357I-00002032J00000000D01*
G01*
X02426554Y02543357D02*
G03*
X02426554Y02543357I-00002032J00000000D01*
G01*
X02553554Y02490357D02*
G03*
X02553554Y02490357I-00002032J00000000D01*
G01*
X02548554Y02487357D02*
G03*
X02548554Y02487357I-00002032J00000000D01*
G01*
X02541554D02*
G03*
X02541554Y02487357I-00002032J00000000D01*
G01*
X02534554D02*
G03*
X02534554Y02487357I-00002032J00000000D01*
G01*
X02530554Y02492357D02*
G03*
X02530554Y02492357I-00002032J00000000D01*
G01*
X02537554D02*
G03*
X02537554Y02492357I-00002032J00000000D01*
G01*
X02544054D02*
G03*
X02544054Y02492357I-00002032J00000000D01*
G01*
X02337554Y02546357D02*
G03*
X02337554Y02546357I-00002032J00000000D01*
G01*
X02366554Y02556357D02*
G03*
X02366554Y02556357I-00002032J00000000D01*
G01*
X02384554D02*
G03*
X02384554Y02556357I-00002032J00000000D01*
G01*
X02247804Y02367857D02*
G03*
X02247804Y02367857I-00002032J00000000D01*
G01*
X02255179D02*
G03*
X02255179Y02367857I-00002032J00000000D01*
G01*
X02262554D02*
G03*
X02262554Y02367857I-00002032J00000000D01*
G01*
X02256554Y02431357D02*
G03*
X02256554Y02431357I-00002032J00000000D01*
G01*
X02246554D02*
G03*
X02246554Y02431357I-00002032J00000000D01*
G01*
X02236554D02*
G03*
X02236554Y02431357I-00002032J00000000D01*
G01*
X02311554Y02453357D02*
G03*
X02311554Y02453357I-00002032J00000000D01*
G01*
X02274554Y02461357D02*
G03*
X02274554Y02461357I-00002032J00000000D01*
G01*
X02322554Y02522357D02*
G03*
X02322554Y02522357I-00002032J00000000D01*
G01*
X02230554Y02465357D02*
G03*
X02230554Y02465357I-00002032J00000000D01*
G01*
X02284554Y02481357D02*
G03*
X02284554Y02481357I-00002032J00000000D01*
G01*
X02335554Y02472857D02*
G03*
X02335554Y02472857I-00002032J00000000D01*
G01*
X02329554D02*
G03*
X02329554Y02472857I-00002032J00000000D01*
G01*
X02335554Y02465357D02*
G03*
X02335554Y02465357I-00002032J00000000D01*
G01*
X02329554D02*
G03*
X02329554Y02465357I-00002032J00000000D01*
G01*
X02335554Y02457857D02*
G03*
X02335554Y02457857I-00002032J00000000D01*
G01*
X02329554D02*
G03*
X02329554Y02457857I-00002032J00000000D01*
G01*
X02335554Y02450357D02*
G03*
X02335554Y02450357I-00002032J00000000D01*
G01*
X02329554D02*
G03*
X02329554Y02450357I-00002032J00000000D01*
G01*
X02335554Y02442857D02*
G03*
X02335554Y02442857I-00002032J00000000D01*
G01*
X02329554D02*
G03*
X02329554Y02442857I-00002032J00000000D01*
G01*
X02335554Y02435357D02*
G03*
X02335554Y02435357I-00002032J00000000D01*
G01*
X02329554D02*
G03*
X02329554Y02435357I-00002032J00000000D01*
G01*
X02335554Y02427857D02*
G03*
X02335554Y02427857I-00002032J00000000D01*
G01*
X02329554D02*
G03*
X02329554Y02427857I-00002032J00000000D01*
G01*
X02335554Y02420357D02*
G03*
X02335554Y02420357I-00002032J00000000D01*
G01*
X02329554D02*
G03*
X02329554Y02420357I-00002032J00000000D01*
G01*
X02335554Y02412857D02*
G03*
X02335554Y02412857I-00002032J00000000D01*
G01*
X02329554D02*
G03*
X02329554Y02412857I-00002032J00000000D01*
G01*
X02335554Y02405357D02*
G03*
X02335554Y02405357I-00002032J00000000D01*
G01*
X02329554D02*
G03*
X02329554Y02405357I-00002032J00000000D01*
G01*
X02423554Y02495357D02*
G03*
X02423554Y02495357I-00002032J00000000D01*
G01*
X02393554D02*
G03*
X02393554Y02495357I-00002032J00000000D01*
G01*
X02399554D02*
G03*
X02399554Y02495357I-00002032J00000000D01*
G01*
X02405554D02*
G03*
X02405554Y02495357I-00002032J00000000D01*
G01*
X02883554Y02642357D02*
G03*
X02883554Y02642357I-00002032J00000000D01*
G01*
X02867554D02*
G03*
X02867554Y02642357I-00002032J00000000D01*
G01*
X02962554Y02563357D02*
G03*
X02962554Y02563357I-00002032J00000000D01*
G01*
X02968554D02*
G03*
X02968554Y02563357I-00002032J00000000D01*
G01*
X02956554D02*
G03*
X02956554Y02563357I-00002032J00000000D01*
G01*
X02950554D02*
G03*
X02950554Y02563357I-00002032J00000000D01*
G01*
Y02589357D02*
G03*
X02950554Y02589357I-00002032J00000000D01*
G01*
X02968554D02*
G03*
X02968554Y02589357I-00002032J00000000D01*
G01*
X02962554D02*
G03*
X02962554Y02589357I-00002032J00000000D01*
G01*
X02956554D02*
G03*
X02956554Y02589357I-00002032J00000000D01*
G01*
X02897554Y02599357D02*
G03*
X02897554Y02599357I-00002032J00000000D01*
G01*
X02806804Y02495357D02*
G03*
X02806804Y02495357I-00002032J00000000D01*
G01*
X02730554Y02461282D02*
G03*
X02730554Y02461282I-00002032J00000000D01*
G01*
Y02432107D02*
G03*
X02730554Y02432107I-00002032J00000000D01*
G01*
X02736554Y02481357D02*
G03*
X02736554Y02481357I-00002032J00000000D01*
G01*
X02857554Y02443357D02*
G03*
X02857554Y02443357I-00002032J00000000D01*
G01*
X02864053Y02438692D02*
G03*
X02864053Y02438692I-00002032J00000000D01*
G01*
X02816053Y02450692D02*
G03*
X02816053Y02450692I-00002032J00000000D01*
G01*
X02918554Y02443357D02*
G03*
X02918554Y02443357I-00002032J00000000D01*
G01*
X02912554Y02447357D02*
G03*
X02912554Y02447357I-00002032J00000000D01*
G01*
X02908554Y02453357D02*
G03*
X02908554Y02453357I-00002032J00000000D01*
G01*
X02902554Y02456357D02*
G03*
X02902554Y02456357I-00002032J00000000D01*
G01*
Y02450357D02*
G03*
X02902554Y02450357I-00002032J00000000D01*
G01*
X02952554Y02427357D02*
G03*
X02952554Y02427357I-00002032J00000000D01*
G01*
X02943554Y02430357D02*
G03*
X02943554Y02430357I-00002032J00000000D01*
G01*
X02952554Y02418357D02*
G03*
X02952554Y02418357I-00002032J00000000D01*
G01*
X02947554Y02424357D02*
G03*
X02947554Y02424357I-00002032J00000000D01*
G01*
X02946554Y02418357D02*
G03*
X02946554Y02418357I-00002032J00000000D01*
G01*
X02941554Y02424357D02*
G03*
X02941554Y02424357I-00002032J00000000D01*
G01*
X02941054Y02418357D02*
G03*
X02941054Y02418357I-00002032J00000000D01*
G01*
X02820554Y02425357D02*
G03*
X02820554Y02425357I-00002032J00000000D01*
G01*
X02770554Y02555357D02*
G03*
X02770554Y02555357I-00002032J00000000D01*
G01*
X02780554D02*
G03*
X02780554Y02555357I-00002032J00000000D01*
G01*
X02775554Y02550357D02*
G03*
X02775554Y02550357I-00002032J00000000D01*
G01*
X02765554D02*
G03*
X02765554Y02550357I-00002032J00000000D01*
G01*
X02900200Y02592466D02*
G03*
X02900200Y02592466I-00002032J00000000D01*
G01*
X02755554Y02550357D02*
G03*
X02755554Y02550357I-00002032J00000000D01*
G01*
X02758054Y02419607D02*
G03*
X02758054Y02419607I-00002032J00000000D01*
G01*
X02731054Y02480607D02*
G03*
X02731054Y02480607I-00002032J00000000D01*
G01*
X02777054Y02474607D02*
G03*
X02777054Y02474607I-00002032J00000000D01*
G01*
X02746554Y02480357D02*
G03*
X02746554Y02480357I-00002032J00000000D01*
G01*
X02756554Y02435357D02*
G03*
X02756554Y02435357I-00002032J00000000D01*
G01*
X02819554Y02434357D02*
G03*
X02819554Y02434357I-00002032J00000000D01*
G01*
X02755054Y02693607D02*
G03*
X02755054Y02693607I-00002032J00000000D01*
G01*
X02761054D02*
G03*
X02761054Y02693607I-00002032J00000000D01*
G01*
X02773054D02*
G03*
X02773054Y02693607I-00002032J00000000D01*
G01*
X02767054D02*
G03*
X02767054Y02693607I-00002032J00000000D01*
G01*
X02776054Y02688607D02*
G03*
X02776054Y02688607I-00002032J00000000D01*
G01*
X02770054D02*
G03*
X02770054Y02688607I-00002032J00000000D01*
G01*
X02774554Y02629357D02*
G03*
X02774554Y02629357I-00002032J00000000D01*
G01*
X02791554Y02628357D02*
G03*
X02791554Y02628357I-00002032J00000000D01*
G01*
X02808554Y02629357D02*
G03*
X02808554Y02629357I-00002032J00000000D01*
G01*
X02789554Y02668607D02*
G03*
X02789554Y02668607I-00002032J00000000D01*
G01*
X02995554Y02690357D02*
G03*
X02995554Y02690357I-00002032J00000000D01*
G01*
Y02755357D02*
G03*
X02995554Y02755357I-00002032J00000000D01*
G01*
X02985554Y02653817D02*
G03*
X02985554Y02653817I-00002032J00000000D01*
G01*
X02990554Y02640357D02*
G03*
X02990554Y02640357I-00002032J00000000D01*
G01*
X02951402Y02669031D02*
G03*
X02951402Y02669031I-00002032J00000000D01*
G01*
X02975554Y02650357D02*
G03*
X02975554Y02650357I-00002032J00000000D01*
G01*
X03030554Y02700357D02*
G03*
X03030554Y02700357I-00002032J00000000D01*
G01*
Y02750357D02*
G03*
X03030554Y02750357I-00002032J00000000D01*
G01*
X02965554Y02650357D02*
G03*
X02965554Y02650357I-00002032J00000000D01*
G01*
X02940554Y02630357D02*
G03*
X02940554Y02630357I-00002032J00000000D01*
G01*
X02901213Y02642357D02*
G03*
X02901213Y02642357I-00002032J00000000D01*
G01*
Y02635921D02*
G03*
X02901213Y02635921I-00002032J00000000D01*
G01*
X02905554Y02690357D02*
G03*
X02905554Y02690357I-00002032J00000000D01*
G01*
X02915554D02*
G03*
X02915554Y02690357I-00002032J00000000D01*
G01*
X02920554Y02695357D02*
G03*
X02920554Y02695357I-00002032J00000000D01*
G01*
X02910554D02*
G03*
X02910554Y02695357I-00002032J00000000D01*
G01*
X02900554D02*
G03*
X02900554Y02695357I-00002032J00000000D01*
G01*
X02890554D02*
G03*
X02890554Y02695357I-00002032J00000000D01*
G01*
X02885554Y02690357D02*
G03*
X02885554Y02690357I-00002032J00000000D01*
G01*
X02995554Y02765357D02*
G03*
X02995554Y02765357I-00002032J00000000D01*
G01*
X02990554Y02780357D02*
G03*
X02990554Y02780357I-00002032J00000000D01*
G01*
X02980554D02*
G03*
X02980554Y02780357I-00002032J00000000D01*
G01*
X02995554Y02775357D02*
G03*
X02995554Y02775357I-00002032J00000000D01*
G01*
X02990554Y02770357D02*
G03*
X02990554Y02770357I-00002032J00000000D01*
G01*
X02985554Y02755357D02*
G03*
X02985554Y02755357I-00002032J00000000D01*
G01*
X02990554Y02760357D02*
G03*
X02990554Y02760357I-00002032J00000000D01*
G01*
X02985554Y02765357D02*
G03*
X02985554Y02765357I-00002032J00000000D01*
G01*
Y02775357D02*
G03*
X02985554Y02775357I-00002032J00000000D01*
G01*
X02980554Y02700357D02*
G03*
X02980554Y02700357I-00002032J00000000D01*
G01*
Y02710357D02*
G03*
X02980554Y02710357I-00002032J00000000D01*
G01*
Y02720357D02*
G03*
X02980554Y02720357I-00002032J00000000D01*
G01*
Y02730357D02*
G03*
X02980554Y02730357I-00002032J00000000D01*
G01*
Y02740357D02*
G03*
X02980554Y02740357I-00002032J00000000D01*
G01*
Y02750357D02*
G03*
X02980554Y02750357I-00002032J00000000D01*
G01*
Y02760357D02*
G03*
X02980554Y02760357I-00002032J00000000D01*
G01*
Y02770357D02*
G03*
X02980554Y02770357I-00002032J00000000D01*
G01*
X02975554Y02705357D02*
G03*
X02975554Y02705357I-00002032J00000000D01*
G01*
Y02715357D02*
G03*
X02975554Y02715357I-00002032J00000000D01*
G01*
Y02725357D02*
G03*
X02975554Y02725357I-00002032J00000000D01*
G01*
Y02735357D02*
G03*
X02975554Y02735357I-00002032J00000000D01*
G01*
Y02745357D02*
G03*
X02975554Y02745357I-00002032J00000000D01*
G01*
Y02775357D02*
G03*
X02975554Y02775357I-00002032J00000000D01*
G01*
Y02765357D02*
G03*
X02975554Y02765357I-00002032J00000000D01*
G01*
X01657574Y02570100D02*
G03*
X01657574Y02570100I-00002032J00000000D01*
G01*
X01457554Y02680357D02*
G03*
X01457554Y02680357I-00002032J00000000D01*
G01*
X01629574Y02585100D02*
G03*
X01629574Y02585100I-00002032J00000000D01*
G01*
X01699574Y02518100D02*
G03*
X01699574Y02518100I-00002032J00000000D01*
G01*
X01253574Y02534100D02*
G03*
X01253574Y02534100I-00002032J00000000D01*
G01*
X01135554Y02542357D02*
G03*
X01135554Y02542357I-00002032J00000000D01*
G01*
X01380574Y02524100D02*
G03*
X01380574Y02524100I-00002032J00000000D01*
G01*
X01452554Y02524357D02*
G03*
X01452554Y02524357I-00002032J00000000D01*
G01*
X01420554Y02519357D02*
G03*
X01420554Y02519357I-00002032J00000000D01*
G01*
X01437554D02*
G03*
X01437554Y02519357I-00002032J00000000D01*
G01*
X01462574Y02541100D02*
G03*
X01462574Y02541100I-00002032J00000000D01*
G01*
X01487574D02*
G03*
X01487574Y02541100I-00002032J00000000D01*
G01*
X01492554Y02535357D02*
G03*
X01492554Y02535357I-00002032J00000000D01*
G01*
X01534554Y02518357D02*
G03*
X01534554Y02518357I-00002032J00000000D01*
G01*
X01541554Y02519357D02*
G03*
X01541554Y02519357I-00002032J00000000D01*
G01*
X01751554Y02348357D02*
G03*
X01751554Y02348357I-00002032J00000000D01*
G01*
X01766554Y02345357D02*
G03*
X01766554Y02345357I-00002032J00000000D01*
G01*
X01751574Y02304100D02*
G03*
X01751574Y02304100I-00002032J00000000D01*
G01*
X01760574Y02361100D02*
G03*
X01760574Y02361100I-00002032J00000000D01*
G01*
X01536574Y02348100D02*
G03*
X01536574Y02348100I-00002032J00000000D01*
G01*
X01532574Y02318100D02*
G03*
X01532574Y02318100I-00002032J00000000D01*
G01*
X01596554Y02240357D02*
G03*
X01596554Y02240357I-00002032J00000000D01*
G01*
X01607574Y02208100D02*
G03*
X01607574Y02208100I-00002032J00000000D01*
G01*
X01580574Y02239100D02*
G03*
X01580574Y02239100I-00002032J00000000D01*
G01*
X01596554Y02254357D02*
G03*
X01596554Y02254357I-00002032J00000000D01*
G01*
X01578574Y02164100D02*
G03*
X01578574Y02164100I-00002032J00000000D01*
G01*
Y02133100D02*
G03*
X01578574Y02133100I-00002032J00000000D01*
G01*
X01763554Y02155357D02*
G03*
X01763554Y02155357I-00002032J00000000D01*
G01*
X01480574Y02243100D02*
G03*
X01480574Y02243100I-00002032J00000000D01*
G01*
X01469554Y02255357D02*
G03*
X01469554Y02255357I-00002032J00000000D01*
G01*
X01511574Y02215100D02*
G03*
X01511574Y02215100I-00002032J00000000D01*
G01*
X01647574Y02231100D02*
G03*
X01647574Y02231100I-00002032J00000000D01*
G01*
X01673574D02*
G03*
X01673574Y02231100I-00002032J00000000D01*
G01*
X01559574Y02254100D02*
G03*
X01559574Y02254100I-00002032J00000000D01*
G01*
X01541574Y02267100D02*
G03*
X01541574Y02267100I-00002032J00000000D01*
G01*
X01668574Y02237100D02*
G03*
X01668574Y02237100I-00002032J00000000D01*
G01*
X01624574Y02235100D02*
G03*
X01624574Y02235100I-00002032J00000000D01*
G01*
X01502574Y02243100D02*
G03*
X01502574Y02243100I-00002032J00000000D01*
G01*
X01508554Y02305357D02*
G03*
X01508554Y02305357I-00002032J00000000D01*
G01*
X01758574Y02206100D02*
G03*
X01758574Y02206100I-00002032J00000000D01*
G01*
X01907574Y02159100D02*
G03*
X01907574Y02159100I-00002032J00000000D01*
G01*
X01774574Y02246100D02*
G03*
X01774574Y02246100I-00002032J00000000D01*
G01*
X01762574Y02217100D02*
G03*
X01762574Y02217100I-00002032J00000000D01*
G01*
X01628813Y02557525D02*
G03*
X01628813Y02557525I-00002032J00000000D01*
G01*
X01686813Y02309525D02*
G03*
X01686813Y02309525I-00002032J00000000D01*
G01*
X01687813Y02320526D02*
G03*
X01687813Y02320526I-00002032J00000000D01*
G01*
X01706554Y02323357D02*
G03*
X01706554Y02323357I-00002032J00000000D01*
G01*
X01712525Y02328787D02*
G03*
X01712525Y02328787I-00002032J00000000D01*
G01*
X01677812Y02289525D02*
G03*
X01677812Y02289525I-00002032J00000000D01*
G01*
X01704812Y02431526D02*
G03*
X01704812Y02431526I-00002032J00000000D01*
G01*
X01540813Y02571526D02*
G03*
X01540813Y02571526I-00002032J00000000D01*
G01*
X01222812Y02589525D02*
G03*
X01222812Y02589525I-00002032J00000000D01*
G01*
X01321812Y02518526D02*
G03*
X01321812Y02518526I-00002032J00000000D01*
G01*
X01398813Y02491525D02*
G03*
X01398813Y02491525I-00002032J00000000D01*
G01*
X01181813Y02112525D02*
G03*
X01181813Y02112525I-00002032J00000000D01*
G01*
X01122812Y02199525D02*
G03*
X01122812Y02199525I-00002032J00000000D01*
G01*
X01184812Y02090526D02*
G03*
X01184812Y02090526I-00002032J00000000D01*
G01*
X01105554Y02732857D02*
G03*
X01105554Y02732857I-00002032J00000000D01*
G01*
X01045554Y02576357D02*
G03*
X01045554Y02576357I-00002032J00000000D01*
G01*
X01516812Y02524525D02*
G03*
X01516812Y02524525I-00002032J00000000D01*
G01*
X01534813Y02586526D02*
G03*
X01534813Y02586526I-00002032J00000000D01*
G01*
X01483554Y02588357D02*
G03*
X01483554Y02588357I-00002032J00000000D01*
G01*
X01508813Y02561526D02*
G03*
X01508813Y02561526I-00002032J00000000D01*
G01*
X01530813Y02539525D02*
G03*
X01530813Y02539525I-00002032J00000000D01*
G01*
X01592812Y02440525D02*
G03*
X01592812Y02440525I-00002032J00000000D01*
G01*
X01629812Y02331526D02*
G03*
X01629812Y02331526I-00002032J00000000D01*
G01*
X01498813Y02573525D02*
G03*
X01498813Y02573525I-00002032J00000000D01*
G01*
X01596554Y02305357D02*
G03*
X01596554Y02305357I-00002032J00000000D01*
G01*
X01665554Y02304357D02*
G03*
X01665554Y02304357I-00002032J00000000D01*
G01*
X01327554Y02523357D02*
G03*
X01327554Y02523357I-00002032J00000000D01*
G01*
X01237554Y02486357D02*
G03*
X01237554Y02486357I-00002032J00000000D01*
G01*
X01504554Y02612357D02*
G03*
X01504554Y02612357I-00002032J00000000D01*
G01*
X01378813Y02561526D02*
G03*
X01378813Y02561526I-00002032J00000000D01*
G01*
X01289812Y02519525D02*
G03*
X01289812Y02519525I-00002032J00000000D01*
G01*
X01523554Y02627357D02*
G03*
X01523554Y02627357I-00002032J00000000D01*
G01*
X01484554D02*
G03*
X01484554Y02627357I-00002032J00000000D01*
G01*
X01230813Y02549525D02*
G03*
X01230813Y02549525I-00002032J00000000D01*
G01*
X01100554Y02717857D02*
G03*
X01100554Y02717857I-00002032J00000000D01*
G01*
X00827812Y02619525D02*
G03*
X00827812Y02619525I-00002032J00000000D01*
G01*
X01037554Y02164357D02*
G03*
X01037554Y02164357I-00002032J00000000D01*
G01*
X01013813Y02164525D02*
G03*
X01013813Y02164525I-00002032J00000000D01*
G01*
X00835813Y02102525D02*
G03*
X00835813Y02102525I-00002032J00000000D01*
G01*
X00810554Y02151357D02*
G03*
X00810554Y02151357I-00002032J00000000D01*
G01*
X00801813Y02100526D02*
G03*
X00801813Y02100526I-00002032J00000000D01*
G01*
X00884554Y02161357D02*
G03*
X00884554Y02161357I-00002032J00000000D01*
G01*
Y02186357D02*
G03*
X00884554Y02186357I-00002032J00000000D01*
G01*
X00883812Y02198525D02*
G03*
X00883812Y02198525I-00002032J00000000D01*
G01*
Y02148525D02*
G03*
X00883812Y02148525I-00002032J00000000D01*
G01*
X00880813Y02096525D02*
G03*
X00880813Y02096525I-00002032J00000000D01*
G01*
X00774812Y02459525D02*
G03*
X00774812Y02459525I-00002032J00000000D01*
G01*
X00822320Y02332640D02*
G03*
X00822320Y02332640I-00002032J00000000D01*
G01*
X00800320Y02331640D02*
G03*
X00800320Y02331640I-00002032J00000000D01*
G01*
X00800554Y02139357D02*
G03*
X00800554Y02139357I-00002032J00000000D01*
G01*
X00884320Y02133640D02*
G03*
X00884320Y02133640I-00002032J00000000D01*
G01*
X00872320Y02449640D02*
G03*
X00872320Y02449640I-00002032J00000000D01*
G01*
X00797304Y02442357D02*
G03*
X00797304Y02442357I-00002032J00000000D01*
G01*
X02287762Y02311651D02*
G03*
X02287762Y02311651I-00002032J00000000D01*
G01*
X02353554Y02678357D02*
G03*
X02353554Y02678357I-00002032J00000000D01*
G01*
X02442554Y02677357D02*
G03*
X02442554Y02677357I-00002032J00000000D01*
G01*
X02319554Y02673357D02*
G03*
X02319554Y02673357I-00002032J00000000D01*
G01*
X02183106Y02438474D02*
G03*
X02183106Y02438474I-00002032J00000000D01*
G01*
X01451554Y02561357D02*
G03*
X01451554Y02561357I-00002032J00000000D01*
G01*
X02952200Y02533466D02*
G03*
X02952200Y02533466I-00002032J00000000D01*
G01*
X02868199Y02611466D02*
G03*
X02868199Y02611466I-00002032J00000000D01*
G01*
X02855554Y02555357D02*
G03*
X02855554Y02555357I-00002032J00000000D01*
G01*
X03102554Y02573857D02*
G03*
X03102554Y02573857I-00002032J00000000D01*
G01*
X02010554Y02379357D02*
G03*
X02010554Y02379357I-00002032J00000000D01*
G01*
X01926804Y02324107D02*
G03*
X01926804Y02324107I-00002032J00000000D01*
G01*
X01875804Y02338107D02*
G03*
X01875804Y02338107I-00002032J00000000D01*
G01*
X01908554Y02324357D02*
G03*
X01908554Y02324357I-00002032J00000000D01*
G01*
X01892804Y02321107D02*
G03*
X01892804Y02321107I-00002032J00000000D01*
G01*
X01839554Y02363357D02*
G03*
X01839554Y02363357I-00002032J00000000D01*
G01*
X01832804Y02326107D02*
G03*
X01832804Y02326107I-00002032J00000000D01*
G01*
X01695804Y02491107D02*
G03*
X01695804Y02491107I-00002032J00000000D01*
G01*
X01497804Y02149107D02*
G03*
X01497804Y02149107I-00002032J00000000D01*
G01*
X01515804Y02138107D02*
G03*
X01515804Y02138107I-00002032J00000000D01*
G01*
X01730804Y02152107D02*
G03*
X01730804Y02152107I-00002032J00000000D01*
G01*
X01709554Y02160357D02*
G03*
X01709554Y02160357I-00002032J00000000D01*
G01*
X01764554Y02395357D02*
G03*
X01764554Y02395357I-00002032J00000000D01*
G01*
X01804804Y02437107D02*
G03*
X01804804Y02437107I-00002032J00000000D01*
G01*
X01623554Y02348357D02*
G03*
X01623554Y02348357I-00002032J00000000D01*
G01*
X01685804Y02345107D02*
G03*
X01685804Y02345107I-00002032J00000000D01*
G01*
X01724804D02*
G03*
X01724804Y02345107I-00002032J00000000D01*
G01*
X01722804Y02323107D02*
G03*
X01722804Y02323107I-00002032J00000000D01*
G01*
X01497804Y02511107D02*
G03*
X01497804Y02511107I-00002032J00000000D01*
G01*
X01164804Y02480107D02*
G03*
X01164804Y02480107I-00002032J00000000D01*
G01*
X01824554Y02357357D02*
G03*
X01824554Y02357357I-00002032J00000000D01*
G01*
X02048804Y02324107D02*
G03*
X02048804Y02324107I-00002032J00000000D01*
G01*
X01745804Y02336107D02*
G03*
X01745804Y02336107I-00002032J00000000D01*
G01*
X01689804Y02435107D02*
G03*
X01689804Y02435107I-00002032J00000000D01*
G01*
X01728804Y02434107D02*
G03*
X01728804Y02434107I-00002032J00000000D01*
G01*
X01660804Y02435107D02*
G03*
X01660804Y02435107I-00002032J00000000D01*
G01*
X01829804Y02376107D02*
G03*
X01829804Y02376107I-00002032J00000000D01*
G01*
X01998554Y02538357D02*
G03*
X01998554Y02538357I-00002032J00000000D01*
G01*
X02014804Y02538107D02*
G03*
X02014804Y02538107I-00002032J00000000D01*
G01*
X02108804Y02512107D02*
G03*
X02108804Y02512107I-00002032J00000000D01*
G01*
X01557554Y02519357D02*
G03*
X01557554Y02519357I-00002032J00000000D01*
G01*
X01579804Y02519107D02*
G03*
X01579804Y02519107I-00002032J00000000D01*
G01*
X01334804Y02532107D02*
G03*
X01334804Y02532107I-00002032J00000000D01*
G01*
X01708804Y02570107D02*
G03*
X01708804Y02570107I-00002032J00000000D01*
G01*
X02037804Y02579107D02*
G03*
X02037804Y02579107I-00002032J00000000D01*
G01*
X02061965Y02642104D02*
G03*
X02061965Y02642104I-00002032J00000000D01*
G01*
X02115804Y02526107D02*
G03*
X02115804Y02526107I-00002032J00000000D01*
G01*
X01897804Y02386107D02*
G03*
X01897804Y02386107I-00002032J00000000D01*
G01*
X01342804Y02434107D02*
G03*
X01342804Y02434107I-00002032J00000000D01*
G01*
X01310804Y02435107D02*
G03*
X01310804Y02435107I-00002032J00000000D01*
G01*
X02109804Y02532107D02*
G03*
X02109804Y02532107I-00002032J00000000D01*
G01*
X02187554Y02464357D02*
G03*
X02187554Y02464357I-00002032J00000000D01*
G01*
X02404554Y02080357D02*
G03*
X02404554Y02080357I-00002032J00000000D01*
G01*
X01914554Y02237357D02*
G03*
X01914554Y02237357I-00002032J00000000D01*
G01*
X01878804Y02237107D02*
G03*
X01878804Y02237107I-00002032J00000000D01*
G01*
X01959804Y02192107D02*
G03*
X01959804Y02192107I-00002032J00000000D01*
G01*
X01881554Y02151357D02*
G03*
X01881554Y02151357I-00002032J00000000D01*
G01*
X01919554Y02162357D02*
G03*
X01919554Y02162357I-00002032J00000000D01*
G01*
X01942554Y02157357D02*
G03*
X01942554Y02157357I-00002032J00000000D01*
G01*
X01926554D02*
G03*
X01926554Y02157357I-00002032J00000000D01*
G01*
X01771804Y02224107D02*
G03*
X01771804Y02224107I-00002032J00000000D01*
G01*
X01670804Y02261107D02*
G03*
X01670804Y02261107I-00002032J00000000D01*
G01*
X01830804Y02441107D02*
G03*
X01830804Y02441107I-00002032J00000000D01*
G01*
X01942554Y02131357D02*
G03*
X01942554Y02131357I-00002032J00000000D01*
G01*
Y02139357D02*
G03*
X01942554Y02139357I-00002032J00000000D01*
G01*
Y02148357D02*
G03*
X01942554Y02148357I-00002032J00000000D01*
G01*
X01063804Y02094107D02*
G03*
X01063804Y02094107I-00002032J00000000D01*
G01*
X01049804Y02182107D02*
G03*
X01049804Y02182107I-00002032J00000000D01*
G01*
X01078804Y02488107D02*
G03*
X01078804Y02488107I-00002032J00000000D01*
G01*
X01741804Y02217107D02*
G03*
X01741804Y02217107I-00002032J00000000D01*
G01*
X01757804Y02180107D02*
G03*
X01757804Y02180107I-00002032J00000000D01*
G01*
X01905554Y02145357D02*
G03*
X01905554Y02145357I-00002032J00000000D01*
G01*
X01909804Y02138107D02*
G03*
X01909804Y02138107I-00002032J00000000D01*
G01*
X01882554Y02139357D02*
G03*
X01882554Y02139357I-00002032J00000000D01*
G01*
X01627804Y02319107D02*
G03*
X01627804Y02319107I-00002032J00000000D01*
G01*
X01019216Y02563220D02*
G03*
X01019216Y02563220I-00002032J00000000D01*
G01*
X01082216Y02539220D02*
G03*
X01082216Y02539220I-00002032J00000000D01*
G01*
X01081216Y02518220D02*
G03*
X01081216Y02518220I-00002032J00000000D01*
G01*
X01048216Y02134220D02*
G03*
X01048216Y02134220I-00002032J00000000D01*
G01*
Y02117220D02*
G03*
X01048216Y02117220I-00002032J00000000D01*
G01*
X01441216Y02160220D02*
G03*
X01441216Y02160220I-00002032J00000000D01*
G01*
X01308216Y02155220D02*
G03*
X01308216Y02155220I-00002032J00000000D01*
G01*
X01596554Y02538357D02*
G03*
X01596554Y02538357I-00002032J00000000D01*
G01*
X01442304Y02539857D02*
G03*
X01442304Y02539857I-00002032J00000000D01*
G01*
X01777304Y02668857D02*
G03*
X01777304Y02668857I-00002032J00000000D01*
G01*
X02040554Y02506357D02*
G03*
X02040554Y02506357I-00002032J00000000D01*
G01*
X02001554D02*
G03*
X02001554Y02506357I-00002032J00000000D01*
G01*
X02089304Y02635857D02*
G03*
X02089304Y02635857I-00002032J00000000D01*
G01*
X02038554Y02425357D02*
G03*
X02038554Y02425357I-00002032J00000000D01*
G01*
X02107304Y02552857D02*
G03*
X02107304Y02552857I-00002032J00000000D01*
G01*
X02101304Y02538857D02*
G03*
X02101304Y02538857I-00002032J00000000D01*
G01*
X02055554Y02501357D02*
G03*
X02055554Y02501357I-00002032J00000000D01*
G01*
X02087554Y02563357D02*
G03*
X02087554Y02563357I-00002032J00000000D01*
G01*
X02110304Y02580857D02*
G03*
X02110304Y02580857I-00002032J00000000D01*
G01*
X02174304Y02757857D02*
G03*
X02174304Y02757857I-00002032J00000000D01*
G01*
X02125304Y02747857D02*
G03*
X02125304Y02747857I-00002032J00000000D01*
G01*
X01507304Y02474857D02*
G03*
X01507304Y02474857I-00002032J00000000D01*
G01*
X01489304Y02473857D02*
G03*
X01489304Y02473857I-00002032J00000000D01*
G01*
X01566304Y02474857D02*
G03*
X01566304Y02474857I-00002032J00000000D01*
G01*
X01583304Y02473857D02*
G03*
X01583304Y02473857I-00002032J00000000D01*
G01*
X01601304D02*
G03*
X01601304Y02473857I-00002032J00000000D01*
G01*
X01619304D02*
G03*
X01619304Y02473857I-00002032J00000000D01*
G01*
X02063554Y02518357D02*
G03*
X02063554Y02518357I-00002032J00000000D01*
G01*
X01985304Y02388857D02*
G03*
X01985304Y02388857I-00002032J00000000D01*
G01*
X02149304Y02518857D02*
G03*
X02149304Y02518857I-00002032J00000000D01*
G01*
X01415554Y02475357D02*
G03*
X01415554Y02475357I-00002032J00000000D01*
G01*
X01449554D02*
G03*
X01449554Y02475357I-00002032J00000000D01*
G01*
X01868554Y02494357D02*
G03*
X01868554Y02494357I-00002032J00000000D01*
G01*
X01908554Y02506357D02*
G03*
X01908554Y02506357I-00002032J00000000D01*
G01*
X01906554Y02515357D02*
G03*
X01906554Y02515357I-00002032J00000000D01*
G01*
X01917304Y02501857D02*
G03*
X01917304Y02501857I-00002032J00000000D01*
G01*
X02038304Y02413857D02*
G03*
X02038304Y02413857I-00002032J00000000D01*
G01*
X02138304Y02426857D02*
G03*
X02138304Y02426857I-00002032J00000000D01*
G01*
X02135304Y02415857D02*
G03*
X02135304Y02415857I-00002032J00000000D01*
G01*
X02139554Y02466357D02*
G03*
X02139554Y02466357I-00002032J00000000D01*
G01*
X01995304Y02433857D02*
G03*
X01995304Y02433857I-00002032J00000000D01*
G01*
X02145554Y02470357D02*
G03*
X02145554Y02470357I-00002032J00000000D01*
G01*
X01825554Y02463357D02*
G03*
X01825554Y02463357I-00002032J00000000D01*
G01*
X01644304Y02480857D02*
G03*
X01644304Y02480857I-00002032J00000000D01*
G01*
X01813304Y02505857D02*
G03*
X01813304Y02505857I-00002032J00000000D01*
G01*
X01676304Y02512857D02*
G03*
X01676304Y02512857I-00002032J00000000D01*
G01*
X01548554Y02474357D02*
G03*
X01548554Y02474357I-00002032J00000000D01*
G01*
X01525554D02*
G03*
X01525554Y02474357I-00002032J00000000D01*
G01*
X02045554Y02397357D02*
G03*
X02045554Y02397357I-00002032J00000000D01*
G01*
X02122554Y02580357D02*
G03*
X02122554Y02580357I-00002032J00000000D01*
G01*
Y02683357D02*
G03*
X02122554Y02683357I-00002032J00000000D01*
G01*
X02111554Y02710357D02*
G03*
X02111554Y02710357I-00002032J00000000D01*
G01*
X02145304Y02453857D02*
G03*
X02145304Y02453857I-00002032J00000000D01*
G01*
X02055554Y02472357D02*
G03*
X02055554Y02472357I-00002032J00000000D01*
G01*
Y02479357D02*
G03*
X02055554Y02479357I-00002032J00000000D01*
G01*
Y02486357D02*
G03*
X02055554Y02486357I-00002032J00000000D01*
G01*
X02058554Y02403357D02*
G03*
X02058554Y02403357I-00002032J00000000D01*
G01*
X02009554Y02487357D02*
G03*
X02009554Y02487357I-00002032J00000000D01*
G01*
X02025554D02*
G03*
X02025554Y02487357I-00002032J00000000D01*
G01*
X02007554Y02690357D02*
G03*
X02007554Y02690357I-00002032J00000000D01*
G01*
X02008304Y02642857D02*
G03*
X02008304Y02642857I-00002032J00000000D01*
G01*
X02441304Y02512857D02*
G03*
X02441304Y02512857I-00002032J00000000D01*
G01*
X02336304Y02538857D02*
G03*
X02336304Y02538857I-00002032J00000000D01*
G01*
X01690304Y02271857D02*
G03*
X01690304Y02271857I-00002032J00000000D01*
G01*
X01551554Y02241357D02*
G03*
X01551554Y02241357I-00002032J00000000D01*
G01*
X01520304Y02242857D02*
G03*
X01520304Y02242857I-00002032J00000000D01*
G01*
X01494554Y02242357D02*
G03*
X01494554Y02242357I-00002032J00000000D01*
G01*
X01458304Y02266857D02*
G03*
X01458304Y02266857I-00002032J00000000D01*
G01*
X01652554Y02260357D02*
G03*
X01652554Y02260357I-00002032J00000000D01*
G01*
X01451554Y02309357D02*
G03*
X01451554Y02309357I-00002032J00000000D01*
G01*
X01899554Y02305357D02*
G03*
X01899554Y02305357I-00002032J00000000D01*
G01*
X01968554Y02262357D02*
G03*
X01968554Y02262357I-00002032J00000000D01*
G01*
X02197554Y02148357D02*
G03*
X02197554Y02148357I-00002032J00000000D01*
G01*
X02215554Y02147357D02*
G03*
X02215554Y02147357I-00002032J00000000D01*
G01*
X01920554Y02258357D02*
G03*
X01920554Y02258357I-00002032J00000000D01*
G01*
X01413554Y02256357D02*
G03*
X01413554Y02256357I-00002032J00000000D01*
G01*
X02213554Y02209357D02*
G03*
X02213554Y02209357I-00002032J00000000D01*
G01*
X01406554Y02273357D02*
G03*
X01406554Y02273357I-00002032J00000000D01*
G01*
X01792554Y02614357D02*
G03*
X01792554Y02614357I-00002032J00000000D01*
G01*
X02075304Y02686357D02*
G03*
X02075304Y02686357I-00002032J00000000D01*
G01*
X02085554Y02746357D02*
G03*
X02085554Y02746357I-00002032J00000000D01*
G01*
X02075554Y02668357D02*
G03*
X02075554Y02668357I-00002032J00000000D01*
G01*
X02085554Y02729357D02*
G03*
X02085554Y02729357I-00002032J00000000D01*
G01*
X02086304Y02286357D02*
G03*
X02086304Y02286357I-00002032J00000000D01*
G01*
X01979304Y02224357D02*
G03*
X01979304Y02224357I-00002032J00000000D01*
G01*
X01487554Y02306357D02*
G03*
X01487554Y02306357I-00002032J00000000D01*
G01*
X01568304Y02266357D02*
G03*
X01568304Y02266357I-00002032J00000000D01*
G01*
X01551304D02*
G03*
X01551304Y02266357I-00002032J00000000D01*
G01*
X01522554Y02254357D02*
G03*
X01522554Y02254357I-00002032J00000000D01*
G01*
X01767554Y02467357D02*
G03*
X01767554Y02467357I-00002032J00000000D01*
G01*
X01751554Y02461357D02*
G03*
X01751554Y02461357I-00002032J00000000D01*
G01*
X01752804Y02639857D02*
G03*
X01752804Y02639857I-00002032J00000000D01*
G01*
X01753804Y02600857D02*
G03*
X01753804Y02600857I-00002032J00000000D01*
G01*
X01996804Y02550857D02*
G03*
X01996804Y02550857I-00002032J00000000D01*
G01*
X01997804Y02590857D02*
G03*
X01997804Y02590857I-00002032J00000000D01*
G01*
X02001554Y02628357D02*
G03*
X02001554Y02628357I-00002032J00000000D01*
G01*
X01434804Y02306857D02*
G03*
X01434804Y02306857I-00002032J00000000D01*
G01*
X01415804Y02306607D02*
G03*
X01415804Y02306607I-00002032J00000000D01*
G01*
X01395554Y02278857D02*
G03*
X01395554Y02278857I-00002032J00000000D01*
G01*
X01373554Y02307357D02*
G03*
X01373554Y02307357I-00002032J00000000D01*
G01*
X01374804Y02476607D02*
G03*
X01374804Y02476607I-00002032J00000000D01*
G01*
X01353304Y02477107D02*
G03*
X01353304Y02477107I-00002032J00000000D01*
G01*
X01389054Y02513357D02*
G03*
X01389054Y02513357I-00002032J00000000D01*
G01*
X01463804Y02438357D02*
G03*
X01463804Y02438357I-00002032J00000000D01*
G01*
X01415554Y02438107D02*
G03*
X01415554Y02438107I-00002032J00000000D01*
G01*
X01461964Y02447597D02*
G03*
X01461964Y02447597I-00002032J00000000D01*
G01*
X01351554Y02434607D02*
G03*
X01351554Y02434607I-00002032J00000000D01*
G01*
X01370554Y02278107D02*
G03*
X01370554Y02278107I-00002032J00000000D01*
G01*
X01461804Y02226607D02*
G03*
X01461804Y02226607I-00002032J00000000D01*
G01*
X01331554Y02267607D02*
G03*
X01331554Y02267607I-00002032J00000000D01*
G01*
X01255054Y02265857D02*
G03*
X01255054Y02265857I-00002032J00000000D01*
G01*
X01281554Y02305357D02*
G03*
X01281554Y02305357I-00002032J00000000D01*
G01*
X01655304Y02278857D02*
G03*
X01655304Y02278857I-00002032J00000000D01*
G01*
X01262054Y02305107D02*
G03*
X01262054Y02305107I-00002032J00000000D01*
G01*
X01218054Y02316357D02*
G03*
X01218054Y02316357I-00002032J00000000D01*
G01*
X01190054Y02476357D02*
G03*
X01190054Y02476357I-00002032J00000000D01*
G01*
X01218304Y02511857D02*
G03*
X01218304Y02511857I-00002032J00000000D01*
G01*
X01265554Y02546357D02*
G03*
X01265554Y02546357I-00002032J00000000D01*
G01*
X01275554Y02475857D02*
G03*
X01275554Y02475857I-00002032J00000000D01*
G01*
X01297554D02*
G03*
X01297554Y02475857I-00002032J00000000D01*
G01*
X01239304Y02349857D02*
G03*
X01239304Y02349857I-00002032J00000000D01*
G01*
X01247206Y02435310D02*
G03*
X01247206Y02435310I-00002032J00000000D01*
G01*
X01223706Y02435560D02*
G03*
X01223706Y02435560I-00002032J00000000D01*
G01*
X01522304Y02609607D02*
G03*
X01522304Y02609607I-00002032J00000000D01*
G01*
X01445554Y02629857D02*
G03*
X01445554Y02629857I-00002032J00000000D01*
G01*
X01566554Y02618357D02*
G03*
X01566554Y02618357I-00002032J00000000D01*
G01*
X01579054Y02599857D02*
G03*
X01579054Y02599857I-00002032J00000000D01*
G01*
X02098804Y02643107D02*
G03*
X02098804Y02643107I-00002032J00000000D01*
G01*
X01382554Y02545107D02*
G03*
X01382554Y02545107I-00002032J00000000D01*
G01*
X02215054Y02171607D02*
G03*
X02215054Y02171607I-00002032J00000000D01*
G01*
Y02244107D02*
G03*
X02215054Y02244107I-00002032J00000000D01*
G01*
X01978804Y02262107D02*
G03*
X01978804Y02262107I-00002032J00000000D01*
G01*
X01978554Y02185607D02*
G03*
X01978554Y02185607I-00002032J00000000D01*
G01*
X01188804Y02191857D02*
G03*
X01188804Y02191857I-00002032J00000000D01*
G01*
X02146054Y02304357D02*
G03*
X02146054Y02304357I-00002032J00000000D01*
G01*
X01384304Y02235357D02*
G03*
X01384304Y02235357I-00002032J00000000D01*
G01*
X01461554Y02160857D02*
G03*
X01461554Y02160857I-00002032J00000000D01*
G01*
X01462304Y02112357D02*
G03*
X01462304Y02112357I-00002032J00000000D01*
G01*
X01363304Y02093607D02*
G03*
X01363304Y02093607I-00002032J00000000D01*
G01*
X01228304Y02110357D02*
G03*
X01228304Y02110357I-00002032J00000000D01*
G01*
X01240554Y02095357D02*
G03*
X01240554Y02095357I-00002032J00000000D01*
G01*
X01259554Y02229357D02*
G03*
X01259554Y02229357I-00002032J00000000D01*
G01*
X01210054Y02197107D02*
G03*
X01210054Y02197107I-00002032J00000000D01*
G01*
X01209554Y02179357D02*
G03*
X01209554Y02179357I-00002032J00000000D01*
G01*
X01220554Y02114107D02*
G03*
X01220554Y02114107I-00002032J00000000D01*
G01*
X01240554Y02162107D02*
G03*
X01240554Y02162107I-00002032J00000000D01*
G01*
X01616054Y02230107D02*
G03*
X01616054Y02230107I-00002032J00000000D01*
G01*
X01637554Y02229857D02*
G03*
X01637554Y02229857I-00002032J00000000D01*
G01*
X01737304Y02210607D02*
G03*
X01737304Y02210607I-00002032J00000000D01*
G01*
X01516304Y02106857D02*
G03*
X01516304Y02106857I-00002032J00000000D01*
G01*
Y02157607D02*
G03*
X01516304Y02157607I-00002032J00000000D01*
G01*
Y02192857D02*
G03*
X01516304Y02192857I-00002032J00000000D01*
G01*
X01516554Y02227357D02*
G03*
X01516554Y02227357I-00002032J00000000D01*
G01*
X01537304Y02157357D02*
G03*
X01537304Y02157357I-00002032J00000000D01*
G01*
X01538304Y02193107D02*
G03*
X01538304Y02193107I-00002032J00000000D01*
G01*
X01269804Y02161107D02*
G03*
X01269804Y02161107I-00002032J00000000D01*
G01*
X01267554Y02132107D02*
G03*
X01267554Y02132107I-00002032J00000000D01*
G01*
X01473554Y02178857D02*
G03*
X01473554Y02178857I-00002032J00000000D01*
G01*
X01368054Y02235607D02*
G03*
X01368054Y02235607I-00002032J00000000D01*
G01*
X01394804Y02167607D02*
G03*
X01394804Y02167607I-00002032J00000000D01*
G01*
X01399804Y02161357D02*
G03*
X01399804Y02161357I-00002032J00000000D01*
G01*
X01445804Y02226857D02*
G03*
X01445804Y02226857I-00002032J00000000D01*
G01*
X02119054Y02313857D02*
G03*
X02119054Y02313857I-00002032J00000000D01*
G01*
X02059554Y02384357D02*
G03*
X02059554Y02384357I-00002032J00000000D01*
G01*
X02071054Y02333857D02*
G03*
X02071054Y02333857I-00002032J00000000D01*
G01*
X02067804Y02415607D02*
G03*
X02067804Y02415607I-00002032J00000000D01*
G01*
X02057054Y02465107D02*
G03*
X02057054Y02465107I-00002032J00000000D01*
G01*
X02115804Y02336107D02*
G03*
X02115804Y02336107I-00002032J00000000D01*
G01*
X02055554Y02453857D02*
G03*
X02055554Y02453857I-00002032J00000000D01*
G01*
X01979054Y02168607D02*
G03*
X01979054Y02168607I-00002032J00000000D01*
G01*
X02056054Y02363607D02*
G03*
X02056054Y02363607I-00002032J00000000D01*
G01*
X02130554Y02351107D02*
G03*
X02130554Y02351107I-00002032J00000000D01*
G01*
X02141804Y02380357D02*
G03*
X02141804Y02380357I-00002032J00000000D01*
G01*
X02056554Y02374857D02*
G03*
X02056554Y02374857I-00002032J00000000D01*
G01*
X02142804Y02362107D02*
G03*
X02142804Y02362107I-00002032J00000000D01*
G01*
X02143304Y02372857D02*
G03*
X02143304Y02372857I-00002032J00000000D01*
G01*
X02191054Y02134857D02*
G03*
X02191054Y02134857I-00002032J00000000D01*
G01*
X01968554Y02202857D02*
G03*
X01968554Y02202857I-00002032J00000000D01*
G01*
X02175054Y02226607D02*
G03*
X02175054Y02226607I-00002032J00000000D01*
G01*
Y02191357D02*
G03*
X02175054Y02191357I-00002032J00000000D01*
G01*
X02019804Y02167107D02*
G03*
X02019804Y02167107I-00002032J00000000D01*
G01*
X02019304Y02207107D02*
G03*
X02019304Y02207107I-00002032J00000000D01*
G01*
X02019804Y02243607D02*
G03*
X02019804Y02243607I-00002032J00000000D01*
G01*
X02087304Y02540607D02*
G03*
X02087304Y02540607I-00002032J00000000D01*
G01*
X02099054Y02425607D02*
G03*
X02099054Y02425607I-00002032J00000000D01*
G01*
X02035804Y02347607D02*
G03*
X02035804Y02347607I-00002032J00000000D01*
G01*
X02180554Y02409107D02*
G03*
X02180554Y02409107I-00002032J00000000D01*
G01*
X01996304Y02414357D02*
G03*
X01996304Y02414357I-00002032J00000000D01*
G01*
X02028554Y02453357D02*
G03*
X02028554Y02453357I-00002032J00000000D01*
G01*
X01635554Y02279107D02*
G03*
X01635554Y02279107I-00002032J00000000D01*
G01*
X02168804Y02324857D02*
G03*
X02168804Y02324857I-00002032J00000000D01*
G01*
X02052804Y02573857D02*
G03*
X02052804Y02573857I-00002032J00000000D01*
G01*
X02114304Y02657107D02*
G03*
X02114304Y02657107I-00002032J00000000D01*
G01*
X02415554Y01815357D02*
G03*
X02415554Y01815357I-00002032J00000000D01*
G01*
X02817804Y02285107D02*
G03*
X02817804Y02285107I-00002032J00000000D01*
G01*
X03018804Y02643857D02*
G03*
X03018804Y02643857I-00002032J00000000D01*
G01*
X03069804Y02746107D02*
G03*
X03069804Y02746107I-00002032J00000000D01*
G01*
X01019054Y02075607D02*
G03*
X01019054Y02075607I-00002032J00000000D01*
G01*
X01075804Y02105857D02*
G03*
X01075804Y02105857I-00002032J00000000D01*
G01*
X01019304Y02222107D02*
G03*
X01019304Y02222107I-00002032J00000000D01*
G01*
X01316304Y02485857D02*
G03*
X01316304Y02485857I-00002032J00000000D01*
G01*
X01343054Y02294607D02*
G03*
X01343054Y02294607I-00002032J00000000D01*
G01*
X01017054Y02319607D02*
G03*
X01017054Y02319607I-00002032J00000000D01*
G01*
X01296764Y02439957D02*
G03*
X01296764Y02439957I-00002032J00000000D01*
G01*
X01191304Y02350107D02*
G03*
X01191304Y02350107I-00002032J00000000D01*
G01*
X01215804D02*
G03*
X01215804Y02350107I-00002032J00000000D01*
G01*
X01248304Y02514107D02*
G03*
X01248304Y02514107I-00002032J00000000D01*
G01*
X01282304Y02343607D02*
G03*
X01282304Y02343607I-00002032J00000000D01*
G01*
X01431804Y02256857D02*
G03*
X01431804Y02256857I-00002032J00000000D01*
G01*
X01345554Y02343857D02*
G03*
X01345554Y02343857I-00002032J00000000D01*
G01*
X01304054Y02348857D02*
G03*
X01304054Y02348857I-00002032J00000000D01*
G01*
X01455804Y02349357D02*
G03*
X01455804Y02349357I-00002032J00000000D01*
G01*
X01979554Y02207107D02*
G03*
X01979554Y02207107I-00002032J00000000D01*
G01*
X01828304Y02257857D02*
G03*
X01828304Y02257857I-00002032J00000000D01*
G01*
X01979054Y02245607D02*
G03*
X01979054Y02245607I-00002032J00000000D01*
G01*
X01478054Y02304857D02*
G03*
X01478054Y02304857I-00002032J00000000D01*
G01*
X01533554Y02266607D02*
G03*
X01533554Y02266607I-00002032J00000000D01*
G01*
X01527554Y02349607D02*
G03*
X01527554Y02349607I-00002032J00000000D01*
G01*
X01639804Y02319107D02*
G03*
X01639804Y02319107I-00002032J00000000D01*
G01*
X01786804Y02300857D02*
G03*
X01786804Y02300857I-00002032J00000000D01*
G01*
X01195804Y02437607D02*
G03*
X01195804Y02437607I-00002032J00000000D01*
G01*
X01025304Y02500357D02*
G03*
X01025304Y02500357I-00002032J00000000D01*
G01*
X01007804Y02527607D02*
G03*
X01007804Y02527607I-00002032J00000000D01*
G01*
X01429054Y02486107D02*
G03*
X01429054Y02486107I-00002032J00000000D01*
G01*
X01637304Y02475357D02*
G03*
X01637304Y02475357I-00002032J00000000D01*
G01*
X01507304Y02521107D02*
G03*
X01507304Y02521107I-00002032J00000000D01*
G01*
X01008304Y02553357D02*
G03*
X01008304Y02553357I-00002032J00000000D01*
G01*
X01033804Y02548107D02*
G03*
X01033804Y02548107I-00002032J00000000D01*
G01*
X01016054Y02616107D02*
G03*
X01016054Y02616107I-00002032J00000000D01*
G01*
X01412304Y02598357D02*
G03*
X01412304Y02598357I-00002032J00000000D01*
G01*
X01821554Y02434607D02*
G03*
X01821554Y02434607I-00002032J00000000D01*
G01*
X01858304Y02387357D02*
G03*
X01858304Y02387357I-00002032J00000000D01*
G01*
X01927804Y02392107D02*
G03*
X01927804Y02392107I-00002032J00000000D01*
G01*
X01957804Y02380607D02*
G03*
X01957804Y02380607I-00002032J00000000D01*
G01*
X01851804Y02515357D02*
G03*
X01851804Y02515357I-00002032J00000000D01*
G01*
X01753304Y02581107D02*
G03*
X01753304Y02581107I-00002032J00000000D01*
G01*
X01792054Y02597607D02*
G03*
X01792054Y02597607I-00002032J00000000D01*
G01*
X01751554Y02659857D02*
G03*
X01751554Y02659857I-00002032J00000000D01*
G01*
X01958804Y02551357D02*
G03*
X01958804Y02551357I-00002032J00000000D01*
G01*
X01948054Y02658107D02*
G03*
X01948054Y02658107I-00002032J00000000D01*
G01*
X01985554Y02659107D02*
G03*
X01985554Y02659107I-00002032J00000000D01*
G01*
X02019304Y02186607D02*
G03*
X02019304Y02186607I-00002032J00000000D01*
G01*
X02071304Y02162107D02*
G03*
X02071304Y02162107I-00002032J00000000D01*
G01*
X02018804Y02224607D02*
G03*
X02018804Y02224607I-00002032J00000000D01*
G01*
X02019304Y02262357D02*
G03*
X02019304Y02262357I-00002032J00000000D01*
G01*
X02175554Y02172607D02*
G03*
X02175554Y02172607I-00002032J00000000D01*
G01*
X02213054Y02192107D02*
G03*
X02213054Y02192107I-00002032J00000000D01*
G01*
X02174304Y02208857D02*
G03*
X02174304Y02208857I-00002032J00000000D01*
G01*
X02175554Y02244607D02*
G03*
X02175554Y02244607I-00002032J00000000D01*
G01*
X02174304Y02264857D02*
G03*
X02174304Y02264857I-00002032J00000000D01*
G01*
X02214554Y02227357D02*
G03*
X02214554Y02227357I-00002032J00000000D01*
G01*
X02465054Y01803107D02*
G03*
X02465054Y01803107I-00002032J00000000D01*
G01*
X01996804Y02455107D02*
G03*
X01996804Y02455107I-00002032J00000000D01*
G01*
X02043804Y02597857D02*
G03*
X02043804Y02597857I-00002032J00000000D01*
G01*
X01998304Y02610107D02*
G03*
X01998304Y02610107I-00002032J00000000D01*
G01*
X02650554Y02420357D02*
G03*
X02650554Y02420357I-00002032J00000000D01*
G01*
Y02430357D02*
G03*
X02650554Y02430357I-00002032J00000000D01*
G01*
X02657304Y02425357D02*
G03*
X02657304Y02425357I-00002032J00000000D01*
G01*
X02657054Y02435357D02*
G03*
X02657054Y02435357I-00002032J00000000D01*
G01*
X02650554Y02440357D02*
G03*
X02650554Y02440357I-00002032J00000000D01*
G01*
X02656304Y02444607D02*
G03*
X02656304Y02444607I-00002032J00000000D01*
G01*
X02660554Y02455357D02*
G03*
X02660554Y02455357I-00002032J00000000D01*
G01*
Y02465357D02*
G03*
X02660554Y02465357I-00002032J00000000D01*
G01*
X02666804Y02460107D02*
G03*
X02666804Y02460107I-00002032J00000000D01*
G01*
X02667554Y02470607D02*
G03*
X02667554Y02470607I-00002032J00000000D01*
G01*
X02660554Y02475357D02*
G03*
X02660554Y02475357I-00002032J00000000D01*
G01*
X02666554Y02481107D02*
G03*
X02666554Y02481107I-00002032J00000000D01*
G01*
X02667304Y02501107D02*
G03*
X02667304Y02501107I-00002032J00000000D01*
G01*
X02667054Y02510857D02*
G03*
X02667054Y02510857I-00002032J00000000D01*
G01*
X02673054Y02505857D02*
G03*
X02673054Y02505857I-00002032J00000000D01*
G01*
X02666554Y02520357D02*
G03*
X02666554Y02520357I-00002032J00000000D01*
G01*
X02672554Y02524857D02*
G03*
X02672554Y02524857I-00002032J00000000D01*
G01*
X02672804Y02516107D02*
G03*
X02672804Y02516107I-00002032J00000000D01*
G01*
X03046054Y02351357D02*
G03*
X03046054Y02351357I-00002032J00000000D01*
G01*
X02472304Y01717607D02*
G03*
X02472304Y01717607I-00002032J00000000D01*
G01*
X01875554Y02263357D02*
G03*
X01875554Y02263357I-00002032J00000000D01*
G01*
X01742054Y02448857D02*
G03*
X01742054Y02448857I-00002032J00000000D01*
G01*
X02999054Y02411857D02*
G03*
X02999054Y02411857I-00002032J00000000D01*
G01*
X01718804Y02464357D02*
G03*
X01718804Y02464357I-00002032J00000000D01*
G01*
X01822627Y02350945D02*
G03*
X01822627Y02350945I-00002032J00000000D01*
G01*
X02244554Y02182857D02*
G03*
X02244554Y02182857I-00002032J00000000D01*
G01*
X01929304Y02521357D02*
G03*
X01929304Y02521357I-00002032J00000000D01*
G01*
X01467054Y02521857D02*
G03*
X01467054Y02521857I-00002032J00000000D01*
G01*
X01459054Y02513357D02*
G03*
X01459054Y02513357I-00002032J00000000D01*
G01*
X01645054Y02306357D02*
G03*
X01645054Y02306357I-00002032J00000000D01*
G01*
X01626304Y02306107D02*
G03*
X01626304Y02306107I-00002032J00000000D01*
G01*
X01543304Y02305607D02*
G03*
X01543304Y02305607I-00002032J00000000D01*
G01*
X01560554Y02305857D02*
G03*
X01560554Y02305857I-00002032J00000000D01*
G01*
X01578304Y02306357D02*
G03*
X01578304Y02306357I-00002032J00000000D01*
G01*
X01908054Y02409107D02*
G03*
X01908054Y02409107I-00002032J00000000D01*
G01*
X01826054Y02526607D02*
G03*
X01826054Y02526607I-00002032J00000000D01*
G01*
X01696554Y02448107D02*
G03*
X01696554Y02448107I-00002032J00000000D01*
G01*
X03102554Y02257357D02*
G03*
X03102554Y02257357I-00002032J00000000D01*
G01*
X02073804Y02583357D02*
G03*
X02073804Y02583357I-00002032J00000000D01*
G01*
X01340304Y02595107D02*
G03*
X01340304Y02595107I-00002032J00000000D01*
G01*
X01010304Y02122857D02*
G03*
X01010304Y02122857I-00002032J00000000D01*
G01*
X01010554Y02149607D02*
G03*
X01010554Y02149607I-00002032J00000000D01*
G01*
X01059554Y02160857D02*
G03*
X01059554Y02160857I-00002032J00000000D01*
G01*
X00878304Y02553357D02*
G03*
X00878304Y02553357I-00002032J00000000D01*
G01*
X00813304Y02626857D02*
G03*
X00813304Y02626857I-00002032J00000000D01*
G01*
X00823054Y02441357D02*
G03*
X00823054Y02441357I-00002032J00000000D01*
G01*
X00799054Y02529857D02*
G03*
X00799054Y02529857I-00002032J00000000D01*
G01*
X00795554Y02491357D02*
G03*
X00795554Y02491357I-00002032J00000000D01*
G01*
X00842804Y02502607D02*
G03*
X00842804Y02502607I-00002032J00000000D01*
G01*
X01954804Y02423357D02*
G03*
X01954804Y02423357I-00002032J00000000D01*
G01*
X01955054Y02442607D02*
G03*
X01955054Y02442607I-00002032J00000000D01*
G01*
X01872804Y02406607D02*
G03*
X01872804Y02406607I-00002032J00000000D01*
G01*
X01871304Y02448607D02*
G03*
X01871304Y02448607I-00002032J00000000D01*
G01*
X02147804Y02279357D02*
G03*
X02147804Y02279357I-00002032J00000000D01*
G01*
X00879804Y02321107D02*
G03*
X00879804Y02321107I-00002032J00000000D01*
G01*
X01459054Y02474857D02*
G03*
X01459054Y02474857I-00002032J00000000D01*
G01*
X01526804Y02434107D02*
G03*
X01526804Y02434107I-00002032J00000000D01*
G01*
X01673304Y02458857D02*
G03*
X01673304Y02458857I-00002032J00000000D01*
G01*
X01583304Y02434857D02*
G03*
X01583304Y02434857I-00002032J00000000D01*
G01*
X02560054Y02701857D02*
G03*
X02560054Y02701857I-00002032J00000000D01*
G01*
X02748054Y02688357D02*
G03*
X02748054Y02688357I-00002032J00000000D01*
G01*
X02805554Y02708357D02*
G03*
X02805554Y02708357I-00002032J00000000D01*
G01*
X03009304Y02371857D02*
G03*
X03009304Y02371857I-00002032J00000000D01*
G01*
X03076554Y02384607D02*
G03*
X03076554Y02384607I-00002032J00000000D01*
G01*
X03054554Y02345357D02*
G03*
X03054554Y02345357I-00002032J00000000D01*
G01*
X03063304Y02351357D02*
G03*
X03063304Y02351357I-00002032J00000000D01*
G01*
X03056554Y02697857D02*
G03*
X03056554Y02697857I-00002032J00000000D01*
G01*
X03022554Y02743357D02*
G03*
X03022554Y02743357I-00002032J00000000D01*
G01*
X03012054Y02689357D02*
G03*
X03012054Y02689357I-00002032J00000000D01*
G01*
X02926304Y02627607D02*
G03*
X02926304Y02627607I-00002032J00000000D01*
G01*
X02365804Y02674107D02*
G03*
X02365804Y02674107I-00002032J00000000D01*
G01*
X02913804Y02512607D02*
G03*
X02913804Y02512607I-00002032J00000000D01*
G01*
X02913554Y02494857D02*
G03*
X02913554Y02494857I-00002032J00000000D01*
G01*
X02913804Y02483357D02*
G03*
X02913804Y02483357I-00002032J00000000D01*
G01*
X02906054Y02445607D02*
G03*
X02906054Y02445607I-00002032J00000000D01*
G01*
X02263804Y02577357D02*
G03*
X02263804Y02577357I-00002032J00000000D01*
G01*
X02266054Y02613607D02*
G03*
X02266054Y02613607I-00002032J00000000D01*
G01*
X02272054Y02659107D02*
G03*
X02272054Y02659107I-00002032J00000000D01*
G01*
X02287304Y02717857D02*
G03*
X02287304Y02717857I-00002032J00000000D01*
G01*
X02426054Y02603857D02*
G03*
X02426054Y02603857I-00002032J00000000D01*
G01*
X02436554Y02661107D02*
G03*
X02436554Y02661107I-00002032J00000000D01*
G01*
X02395554Y02735607D02*
G03*
X02395554Y02735607I-00002032J00000000D01*
G01*
X02543554Y02559357D02*
G03*
X02543554Y02559357I-00002032J00000000D01*
G01*
X02511304Y02559857D02*
G03*
X02511304Y02559857I-00002032J00000000D01*
G01*
X02450554Y02620607D02*
G03*
X02450554Y02620607I-00002032J00000000D01*
G01*
X02367554Y02747607D02*
G03*
X02367554Y02747607I-00002032J00000000D01*
G01*
X02355054Y02617107D02*
G03*
X02355054Y02617107I-00002032J00000000D01*
G01*
X02531554Y02659107D02*
G03*
X02531554Y02659107I-00002032J00000000D01*
G01*
X02508304Y02656357D02*
G03*
X02508304Y02656357I-00002032J00000000D01*
G01*
X02521554Y02657607D02*
G03*
X02521554Y02657607I-00002032J00000000D01*
G01*
X02382554Y02679107D02*
G03*
X02382554Y02679107I-00002032J00000000D01*
G01*
X02467304Y02591857D02*
G03*
X02467304Y02591857I-00002032J00000000D01*
G01*
X02472054Y02575607D02*
G03*
X02472054Y02575607I-00002032J00000000D01*
G01*
X02297054Y02706607D02*
G03*
X02297054Y02706607I-00002032J00000000D01*
G01*
X02338054Y02636607D02*
G03*
X02338054Y02636607I-00002032J00000000D01*
G01*
X02244804Y02696357D02*
G03*
X02244804Y02696357I-00002032J00000000D01*
G01*
X02244054Y02719357D02*
G03*
X02244054Y02719357I-00002032J00000000D01*
G01*
X02243054Y02730107D02*
G03*
X02243054Y02730107I-00002032J00000000D01*
G01*
X02287054Y02754857D02*
G03*
X02287054Y02754857I-00002032J00000000D01*
G01*
Y02740357D02*
G03*
X02287054Y02740357I-00002032J00000000D01*
G01*
X02805804Y02462357D02*
G03*
X02805804Y02462357I-00002032J00000000D01*
G01*
X02814804Y02468857D02*
G03*
X02814804Y02468857I-00002032J00000000D01*
G01*
X02896554Y02526107D02*
G03*
X02896554Y02526107I-00002032J00000000D01*
G01*
X02897304Y02511607D02*
G03*
X02897304Y02511607I-00002032J00000000D01*
G01*
X02888304Y02569857D02*
G03*
X02888304Y02569857I-00002032J00000000D01*
G01*
X02838554Y02549607D02*
G03*
X02838554Y02549607I-00002032J00000000D01*
G01*
X02786054Y02481107D02*
G03*
X02786054Y02481107I-00002032J00000000D01*
G01*
X02813304Y02507607D02*
G03*
X02813304Y02507607I-00002032J00000000D01*
G01*
X02767554Y02479357D02*
G03*
X02767554Y02479357I-00002032J00000000D01*
G01*
X02838554Y02491357D02*
G03*
X02838554Y02491357I-00002032J00000000D01*
G01*
X02721054Y02716107D02*
G03*
X02721054Y02716107I-00002032J00000000D01*
G01*
Y02723857D02*
G03*
X02721054Y02723857I-00002032J00000000D01*
G01*
Y02761107D02*
G03*
X02721054Y02761107I-00002032J00000000D01*
G01*
Y02753607D02*
G03*
X02721054Y02753607I-00002032J00000000D01*
G01*
X02903054Y02482107D02*
G03*
X02903054Y02482107I-00002032J00000000D01*
G01*
X02908554Y02475107D02*
G03*
X02908554Y02475107I-00002032J00000000D01*
G01*
X02951304Y02469107D02*
G03*
X02951304Y02469107I-00002032J00000000D01*
G01*
X02944304Y02438857D02*
G03*
X02944304Y02438857I-00002032J00000000D01*
G01*
X02416804Y02516357D02*
G03*
X02416804Y02516357I-00002032J00000000D01*
G01*
X02407804D02*
G03*
X02407804Y02516357I-00002032J00000000D01*
G01*
X02399054D02*
G03*
X02399054Y02516357I-00002032J00000000D01*
G01*
X02391054Y02516607D02*
G03*
X02391054Y02516607I-00002032J00000000D01*
G01*
X02376554Y02516857D02*
G03*
X02376554Y02516857I-00002032J00000000D01*
G01*
X02383304Y02516607D02*
G03*
X02383304Y02516607I-00002032J00000000D01*
G01*
X02330804Y02490357D02*
G03*
X02330804Y02490357I-00002032J00000000D01*
G01*
X02539804Y02517607D02*
G03*
X02539804Y02517607I-00002032J00000000D01*
G01*
X02469804Y02491107D02*
G03*
X02469804Y02491107I-00002032J00000000D01*
G01*
X02557054Y02515107D02*
G03*
X02557054Y02515107I-00002032J00000000D01*
G01*
X02546804Y02516857D02*
G03*
X02546804Y02516857I-00002032J00000000D01*
G01*
X02523804Y02517357D02*
G03*
X02523804Y02517357I-00002032J00000000D01*
G01*
X02531054D02*
G03*
X02531054Y02517357I-00002032J00000000D01*
G01*
X02515554Y02518107D02*
G03*
X02515554Y02518107I-00002032J00000000D01*
G01*
X02469304Y02632357D02*
G03*
X02469304Y02632357I-00002032J00000000D01*
G01*
X02539054Y02658857D02*
G03*
X02539054Y02658857I-00002032J00000000D01*
G01*
X02565304D02*
G03*
X02565304Y02658857I-00002032J00000000D01*
G01*
X02549304Y02659107D02*
G03*
X02549304Y02659107I-00002032J00000000D01*
G01*
X02509804Y02514607D02*
G03*
X02509804Y02514607I-00002032J00000000D01*
G01*
X02936054Y02665857D02*
G03*
X02936054Y02665857I-00002032J00000000D01*
G01*
X02804554Y02525607D02*
G03*
X02804554Y02525607I-00002032J00000000D01*
G01*
X02796304Y02523357D02*
G03*
X02796304Y02523357I-00002032J00000000D01*
G01*
X02785804Y02523607D02*
G03*
X02785804Y02523607I-00002032J00000000D01*
G01*
X02778054Y02523857D02*
G03*
X02778054Y02523857I-00002032J00000000D01*
G01*
X02770554D02*
G03*
X02770554Y02523857I-00002032J00000000D01*
G01*
X02762554Y02524107D02*
G03*
X02762554Y02524107I-00002032J00000000D01*
G01*
X02740804Y02525357D02*
G03*
X02740804Y02525357I-00002032J00000000D01*
G01*
X02885304Y02668107D02*
G03*
X02885304Y02668107I-00002032J00000000D01*
G01*
X02980054Y02692857D02*
G03*
X02980054Y02692857I-00002032J00000000D01*
G01*
X02980554Y02675357D02*
G03*
X02980554Y02675357I-00002032J00000000D01*
G01*
X02943054Y02667857D02*
G03*
X02943054Y02667857I-00002032J00000000D01*
G01*
X02928054Y02666357D02*
G03*
X02928054Y02666357I-00002032J00000000D01*
G01*
X02915054D02*
G03*
X02915054Y02666357I-00002032J00000000D01*
G01*
X02908304Y02666607D02*
G03*
X02908304Y02666607I-00002032J00000000D01*
G01*
X02901304D02*
G03*
X02901304Y02666607I-00002032J00000000D01*
G01*
X02768804Y02668607D02*
G03*
X02768804Y02668607I-00002032J00000000D01*
G01*
X02761054D02*
G03*
X02761054Y02668607I-00002032J00000000D01*
G01*
X02839804Y02693357D02*
G03*
X02839804Y02693357I-00002032J00000000D01*
G01*
G54D199*
X01151468Y02392337D02*
G03*
X01151468Y02392337I-00001016J00000000D01*
G01*
X01685469Y02407336D02*
G03*
X01685469Y02407336I-00001016J00000000D01*
G01*
M02*
