G04*
G04 #@! TF.GenerationSoftware,Altium Limited,Altium Designer,23.1.1 (15)*
G04*
G04 Layer_Color=16711935*
%FSAX44Y44*%
%MOMM*%
G71*
G04*
G04 #@! TF.SameCoordinates,9B1E6CB6-7F21-4D16-986F-FEEA4F8F1DB9*
G04*
G04*
G04 #@! TF.FilePolarity,Positive*
G04*
G01*
G75*
%ADD14C,0.5000*%
%ADD18C,0.1000*%
%ADD19C,0.2540*%
%ADD22C,0.2032*%
G54D14*
X03393522Y01545357D02*
Y03245357D01*
X02393522Y01545357D02*
X03393522D01*
X00843522Y02752857D02*
X00968522D01*
X00843522Y02622857D02*
Y02752857D01*
Y02622857D02*
X00968522D01*
Y02752857D01*
X02393522Y01545357D02*
Y02045357D01*
X00643522D02*
X02393522D01*
X00643522D02*
Y03245357D01*
X03393522Y03245357D01*
G54D18*
X00644332Y02381439D02*
Y02701440D01*
X00643272Y02055357D02*
Y02375357D01*
G54D19*
X01038734Y00433739D02*
Y00588679D01*
X00412751D02*
X02089532D01*
X01360552Y00537032D02*
Y00588679D01*
X01573912Y00537032D02*
Y00588679D01*
X01731900Y00432088D02*
Y00483608D01*
X01429894Y00433739D02*
X02089532D01*
X00412751D02*
X00812928D01*
X00412624Y00537032D02*
X02089532D01*
X00412624Y00433739D02*
X01429894D01*
X00412624Y00485386D02*
X02089024D01*
X00412624Y00433739D02*
Y00588679D01*
X00412751Y00433739D02*
Y00588679D01*
X02089532Y00433739D02*
Y00588679D01*
G54D22*
X00633350Y00503591D02*
Y00508589D01*
X00635016Y00506923D01*
X00636682Y00508589D01*
Y00503591D01*
X00638349D02*
X00640015D01*
X00639182D01*
Y00508589D01*
X00638349Y00507756D01*
X00647512Y00508589D02*
Y00503591D01*
X00650011D01*
X00650844Y00504424D01*
Y00505257D01*
X00650011Y00506090D01*
X00647512D01*
X00650011D01*
X00650844Y00506923D01*
Y00507756D01*
X00650011Y00508589D01*
X00647512D01*
X00653344Y00503591D02*
X00655010D01*
X00655843Y00504424D01*
Y00506090D01*
X00655010Y00506923D01*
X00653344D01*
X00652511Y00506090D01*
Y00504424D01*
X00653344Y00503591D01*
X00658342Y00506923D02*
X00660008D01*
X00660841Y00506090D01*
Y00503591D01*
X00658342D01*
X00657509Y00504424D01*
X00658342Y00505257D01*
X00660841D01*
X00662507Y00506923D02*
Y00503591D01*
Y00505257D01*
X00663340Y00506090D01*
X00664173Y00506923D01*
X00665006D01*
X00670838Y00508589D02*
Y00503591D01*
X00668339D01*
X00667506Y00504424D01*
Y00506090D01*
X00668339Y00506923D01*
X00670838D01*
X00680002Y00508589D02*
X00678335D01*
X00677502Y00507756D01*
Y00504424D01*
X00678335Y00503591D01*
X00680002D01*
X00680835Y00504424D01*
Y00507756D01*
X00680002Y00508589D01*
X00682501Y00506923D02*
Y00504424D01*
X00683334Y00503591D01*
X00685833D01*
Y00506923D01*
X00688332Y00507756D02*
Y00506923D01*
X00687499D01*
X00689165D01*
X00688332D01*
Y00504424D01*
X00689165Y00503591D01*
X00691665D02*
X00693331D01*
X00692497D01*
Y00508589D01*
X00691665D01*
X00695830Y00503591D02*
X00697496D01*
X00696663D01*
Y00506923D01*
X00695830D01*
X00699995Y00503591D02*
Y00506923D01*
X00702494D01*
X00703327Y00506090D01*
Y00503591D01*
X00707493D02*
X00705826D01*
X00704994Y00504424D01*
Y00506090D01*
X00705826Y00506923D01*
X00707493D01*
X00708326Y00506090D01*
Y00505257D01*
X00704994D01*
X00428753Y00555109D02*
Y00558441D01*
X00430419Y00560107D01*
X00432085Y00558441D01*
Y00555109D01*
Y00557608D01*
X00428753D01*
X00433751Y00560107D02*
Y00555109D01*
X00437084D01*
X00438750Y00560107D02*
Y00555109D01*
X00442082D01*
X00448747D02*
Y00558441D01*
X00450413Y00560107D01*
X00452079Y00558441D01*
Y00555109D01*
Y00557608D01*
X00448747D01*
X00453745Y00555109D02*
Y00560107D01*
X00456244D01*
X00457077Y00559274D01*
Y00557608D01*
X00456244Y00556775D01*
X00453745D01*
X00455411D02*
X00457077Y00555109D01*
X00458743Y00560107D02*
X00462076D01*
X00460410D01*
Y00555109D01*
X00463742Y00560107D02*
Y00555109D01*
X00465408Y00556775D01*
X00467074Y00555109D01*
Y00560107D01*
X00471239D02*
X00469573D01*
X00468740Y00559274D01*
Y00555942D01*
X00469573Y00555109D01*
X00471239D01*
X00472072Y00555942D01*
Y00559274D01*
X00471239Y00560107D01*
X00473738Y00555109D02*
Y00560107D01*
X00476238D01*
X00477071Y00559274D01*
Y00557608D01*
X00476238Y00556775D01*
X00473738D01*
X00475405D02*
X00477071Y00555109D01*
X00478737Y00560107D02*
Y00555109D01*
Y00556775D01*
X00482069Y00560107D01*
X00479570Y00557608D01*
X00482069Y00555109D01*
X00488733Y00560107D02*
Y00556775D01*
X00490400Y00555109D01*
X00492066Y00556775D01*
Y00560107D01*
X00493732D02*
X00495398D01*
X00494565D01*
Y00555109D01*
X00493732D01*
X00495398D01*
X00501230Y00560107D02*
X00497897D01*
Y00555109D01*
X00501230D01*
X00497897Y00557608D02*
X00499563D01*
X00502896Y00560107D02*
Y00555109D01*
X00504562Y00556775D01*
X00506228Y00555109D01*
Y00560107D01*
X00511226D02*
X00507894D01*
Y00555109D01*
X00511226D01*
X00507894Y00557608D02*
X00509560D01*
X00512892Y00560107D02*
Y00555109D01*
X00515392D01*
X00516225Y00555942D01*
Y00559274D01*
X00515392Y00560107D01*
X00512892D01*
X00526221D02*
X00522889D01*
Y00557608D01*
X00524555D01*
X00522889D01*
Y00555109D01*
X00527887D02*
Y00560107D01*
X00530387D01*
X00531220Y00559274D01*
Y00557608D01*
X00530387Y00556775D01*
X00527887D01*
X00529553D02*
X00531220Y00555109D01*
X00535385Y00560107D02*
X00533719D01*
X00532886Y00559274D01*
Y00555942D01*
X00533719Y00555109D01*
X00535385D01*
X00536218Y00555942D01*
Y00559274D01*
X00535385Y00560107D01*
X00537884Y00555109D02*
Y00560107D01*
X00539550Y00558441D01*
X00541216Y00560107D01*
Y00555109D01*
X00547881Y00560107D02*
X00551213D01*
X00549547D01*
Y00555109D01*
X00555378Y00560107D02*
X00553712D01*
X00552879Y00559274D01*
Y00555942D01*
X00553712Y00555109D01*
X00555378D01*
X00556212Y00555942D01*
Y00559274D01*
X00555378Y00560107D01*
X00557878Y00555109D02*
Y00560107D01*
X00560377D01*
X00561210Y00559274D01*
Y00557608D01*
X00560377Y00556775D01*
X00557878D01*
X00571207Y00559274D02*
X00570373Y00560107D01*
X00568707D01*
X00567874Y00559274D01*
Y00558441D01*
X00568707Y00557608D01*
X00570373D01*
X00571207Y00556775D01*
Y00555942D01*
X00570373Y00555109D01*
X00568707D01*
X00567874Y00555942D01*
X00572873Y00560107D02*
X00574539D01*
X00573706D01*
Y00555109D01*
X00572873D01*
X00574539D01*
X00577038Y00560107D02*
Y00555109D01*
X00579537D01*
X00580370Y00555942D01*
Y00559274D01*
X00579537Y00560107D01*
X00577038D01*
X00585369D02*
X00582036D01*
Y00555109D01*
X00585369D01*
X00582036Y00557608D02*
X00583703D01*
X00428753Y00451307D02*
Y00456305D01*
X00431252D01*
X00432085Y00455472D01*
Y00453806D01*
X00431252Y00452973D01*
X00428753D01*
X00433751Y00456305D02*
Y00451307D01*
X00437084D01*
X00441249Y00456305D02*
X00439583D01*
X00438750Y00455472D01*
Y00452140D01*
X00439583Y00451307D01*
X00441249D01*
X00442082Y00452140D01*
Y00455472D01*
X00441249Y00456305D01*
X00443748D02*
X00447080D01*
X00445414D01*
Y00451307D01*
X00453745D02*
Y00456305D01*
X00457077Y00451307D01*
Y00456305D01*
X00458743Y00451307D02*
Y00454639D01*
X00460410Y00456305D01*
X00462076Y00454639D01*
Y00451307D01*
Y00453806D01*
X00458743D01*
X00463742Y00451307D02*
Y00456305D01*
X00465408Y00454639D01*
X00467074Y00456305D01*
Y00451307D01*
X00472072Y00456305D02*
X00468740D01*
Y00451307D01*
X00472072D01*
X00468740Y00453806D02*
X00470406D01*
X00478737Y00452973D02*
X00482069D01*
X00478737Y00454639D02*
X00482069D01*
X00428753Y00508589D02*
Y00503591D01*
X00432085D01*
X00433751D02*
Y00506923D01*
X00435418Y00508589D01*
X00437084Y00506923D01*
Y00503591D01*
Y00506090D01*
X00433751D01*
X00438750Y00508589D02*
Y00507756D01*
X00440416Y00506090D01*
X00442082Y00507756D01*
Y00508589D01*
X00440416Y00506090D02*
Y00503591D01*
X00447080Y00508589D02*
X00443748D01*
Y00503591D01*
X00447080D01*
X00443748Y00506090D02*
X00445414D01*
X00448747Y00503591D02*
Y00508589D01*
X00451246D01*
X00452079Y00507756D01*
Y00506090D01*
X00451246Y00505257D01*
X00448747D01*
X00450413D02*
X00452079Y00503591D01*
X00458743D02*
Y00508589D01*
X00462076Y00503591D01*
Y00508589D01*
X00463742Y00503591D02*
Y00506923D01*
X00465408Y00508589D01*
X00467074Y00506923D01*
Y00503591D01*
Y00506090D01*
X00463742D01*
X00468740Y00503591D02*
Y00508589D01*
X00470406Y00506923D01*
X00472072Y00508589D01*
Y00503591D01*
X00477071Y00508589D02*
X00473738D01*
Y00503591D01*
X00477071D01*
X00473738Y00506090D02*
X00475405D01*
X00483735Y00505257D02*
X00487067D01*
X00483735Y00506923D02*
X00487067D01*
X01057784Y00560107D02*
Y00555109D01*
X01060283D01*
X01061116Y00555942D01*
Y00556775D01*
X01060283Y00557608D01*
X01057784D01*
X01060283D01*
X01061116Y00558441D01*
Y00559274D01*
X01060283Y00560107D01*
X01057784D01*
X01065282D02*
X01063616D01*
X01062783Y00559274D01*
Y00555942D01*
X01063616Y00555109D01*
X01065282D01*
X01066115Y00555942D01*
Y00559274D01*
X01065282Y00560107D01*
X01067781Y00555109D02*
Y00558441D01*
X01069447Y00560107D01*
X01071113Y00558441D01*
Y00555109D01*
Y00557608D01*
X01067781D01*
X01072779Y00555109D02*
Y00560107D01*
X01075278D01*
X01076112Y00559274D01*
Y00557608D01*
X01075278Y00556775D01*
X01072779D01*
X01074445D02*
X01076112Y00555109D01*
X01077778Y00560107D02*
Y00555109D01*
X01080277D01*
X01081110Y00555942D01*
Y00559274D01*
X01080277Y00560107D01*
X01077778D01*
X01088607Y00555109D02*
Y00560107D01*
X01090274D02*
Y00555109D01*
X01087774Y00558441D02*
X01090274D01*
X01091107D01*
X01087774Y00556775D02*
X01091107D01*
X01092773Y00558441D02*
X01093606D01*
Y00557608D01*
X01092773D01*
Y00558441D01*
Y00555942D02*
X01093606D01*
Y00555109D01*
X01092773D01*
Y00555942D01*
X00633350Y00456305D02*
X00636682D01*
X00635016D01*
Y00451307D01*
X00638349Y00456305D02*
X00640015D01*
X00639182D01*
Y00451307D01*
X00638349D01*
X00640015D01*
X00642514Y00456305D02*
Y00451307D01*
X00645013D01*
X00645846Y00452140D01*
Y00455472D01*
X00645013Y00456305D01*
X00642514D01*
X00647512Y00451307D02*
Y00454639D01*
X00649178Y00456305D01*
X00650844Y00454639D01*
Y00451307D01*
Y00453806D01*
X00647512D01*
X00652511D02*
X00655843D01*
X00657509Y00455472D02*
X00658342Y00456305D01*
X00660008D01*
X00660841Y00455472D01*
Y00452140D01*
X00660008Y00451307D01*
X00658342D01*
X00657509Y00452140D01*
Y00455472D01*
X00662507Y00451307D02*
X00664173D01*
X00663340D01*
Y00456305D01*
X00662507Y00455472D01*
X00666673D02*
X00667506Y00456305D01*
X00669172D01*
X00670005Y00455472D01*
Y00452140D01*
X00669172Y00451307D01*
X00667506D01*
X00666673Y00452140D01*
Y00455472D01*
X00671671Y00452140D02*
X00672504Y00451307D01*
X00674170D01*
X00675003Y00452140D01*
Y00455472D01*
X00674170Y00456305D01*
X00672504D01*
X00671671Y00455472D01*
Y00454639D01*
X00672504Y00453806D01*
X00675003D01*
X00676669Y00455472D02*
X00677502Y00456305D01*
X00679168D01*
X00680002Y00455472D01*
Y00454639D01*
X00679168Y00453806D01*
X00678335D01*
X00679168D01*
X00680002Y00452973D01*
Y00452140D01*
X00679168Y00451307D01*
X00677502D01*
X00676669Y00452140D01*
X00681668Y00455472D02*
X00682501Y00456305D01*
X00684167D01*
X00685000Y00455472D01*
Y00454639D01*
X00684167Y00453806D01*
X00685000Y00452973D01*
Y00452140D01*
X00684167Y00451307D01*
X00682501D01*
X00681668Y00452140D01*
Y00452973D01*
X00682501Y00453806D01*
X00681668Y00454639D01*
Y00455472D01*
X00682501Y00453806D02*
X00684167D01*
X00691665Y00451307D02*
Y00454639D01*
X00693331Y00456305D01*
X00694997Y00454639D01*
Y00451307D01*
Y00453806D01*
X00691665D01*
X00699995Y00455472D02*
X00699162Y00456305D01*
X00697496D01*
X00696663Y00455472D01*
Y00452140D01*
X00697496Y00451307D01*
X00699162D01*
X00699995Y00452140D01*
X00701661Y00453806D02*
X00704993D01*
X00706659Y00456305D02*
Y00451307D01*
X00709159D01*
X00709992Y00452140D01*
Y00455472D01*
X00709159Y00456305D01*
X00706659D01*
X00714990Y00455472D02*
X00714157Y00456305D01*
X00712491D01*
X00711658Y00455472D01*
Y00452140D01*
X00712491Y00451307D01*
X00714157D01*
X00714990Y00452140D01*
X00719988Y00456305D02*
X00716656D01*
Y00451307D01*
X00719988D01*
X00716656Y00453806D02*
X00718322D01*
X00721655Y00451307D02*
X00723321D01*
X00722488D01*
Y00456305D01*
X00721655Y00455472D01*
X00725820Y00451307D02*
Y00452140D01*
X00726653D01*
Y00451307D01*
X00725820D01*
X00733317Y00455472D02*
X00732485Y00456305D01*
X00730818D01*
X00729985Y00455472D01*
Y00452140D01*
X00730818Y00451307D01*
X00732485D01*
X00733317Y00452140D01*
Y00453806D01*
X00731651D01*
X00734984Y00451307D02*
Y00456305D01*
X00736650Y00454639D01*
X00738316Y00456305D01*
Y00451307D01*
X00739982D02*
X00741648D01*
X00740815D01*
Y00456305D01*
X00739982Y00455472D01*
X01752220Y00555109D02*
Y00560107D01*
X01755552Y00555109D01*
Y00560107D01*
X01758052Y00555109D02*
X01759718D01*
X01760551Y00555942D01*
Y00557608D01*
X01759718Y00558441D01*
X01758052D01*
X01757218Y00557608D01*
Y00555942D01*
X01758052Y00555109D01*
X01763050Y00559274D02*
Y00558441D01*
X01762217D01*
X01763883D01*
X01763050D01*
Y00555942D01*
X01763883Y00555109D01*
X01771381D02*
X01773047D01*
X01772214D01*
Y00558441D01*
X01771381D01*
X01775546Y00555109D02*
Y00558441D01*
X01778045D01*
X01778878Y00557608D01*
Y00555109D01*
X01785543Y00558441D02*
X01787209Y00555109D01*
X01788875Y00558441D01*
X01793040Y00555109D02*
X01791374D01*
X01790541Y00555942D01*
Y00557608D01*
X01791374Y00558441D01*
X01793040D01*
X01793873Y00557608D01*
Y00556775D01*
X01790541D01*
X01795539Y00558441D02*
Y00555109D01*
Y00556775D01*
X01796372Y00557608D01*
X01797206Y00558441D01*
X01798038D01*
X01800538Y00555109D02*
X01803037D01*
X01803870Y00555942D01*
X01803037Y00556775D01*
X01801371D01*
X01800538Y00557608D01*
X01801371Y00558441D01*
X01803870D01*
X01805536Y00555109D02*
X01807202D01*
X01806369D01*
Y00558441D01*
X01805536D01*
X01810535Y00555109D02*
X01812201D01*
X01813034Y00555942D01*
Y00557608D01*
X01812201Y00558441D01*
X01810535D01*
X01809701Y00557608D01*
Y00555942D01*
X01810535Y00555109D01*
X01814700D02*
Y00558441D01*
X01817199D01*
X01818032Y00557608D01*
Y00555109D01*
X01828029Y00558441D02*
X01825530D01*
X01824697Y00557608D01*
Y00555942D01*
X01825530Y00555109D01*
X01828029D01*
X01830528D02*
X01832194D01*
X01833027Y00555942D01*
Y00557608D01*
X01832194Y00558441D01*
X01830528D01*
X01829695Y00557608D01*
Y00555942D01*
X01830528Y00555109D01*
X01834693D02*
Y00558441D01*
X01837192D01*
X01838026Y00557608D01*
Y00555109D01*
X01840525Y00559274D02*
Y00558441D01*
X01839692D01*
X01841358D01*
X01840525D01*
Y00555942D01*
X01841358Y00555109D01*
X01843857Y00558441D02*
Y00555109D01*
Y00556775D01*
X01844690Y00557608D01*
X01845523Y00558441D01*
X01846356D01*
X01849688Y00555109D02*
X01851355D01*
X01852188Y00555942D01*
Y00557608D01*
X01851355Y00558441D01*
X01849688D01*
X01848855Y00557608D01*
Y00555942D01*
X01849688Y00555109D01*
X01853854D02*
X01855520D01*
X01854687D01*
Y00560107D01*
X01853854D01*
X01410844Y00555109D02*
Y00560107D01*
X01413343D01*
X01414176Y00559274D01*
Y00557608D01*
X01413343Y00556775D01*
X01410844D01*
X01412510D02*
X01414176Y00555109D01*
X01419175Y00560107D02*
X01415842D01*
Y00555109D01*
X01419175D01*
X01415842Y00557608D02*
X01417509D01*
X01420841Y00560107D02*
Y00556775D01*
X01422507Y00555109D01*
X01424173Y00556775D01*
Y00560107D01*
X01425839Y00558441D02*
X01426672D01*
Y00557608D01*
X01425839D01*
Y00558441D01*
Y00555942D02*
X01426672D01*
Y00555109D01*
X01425839D01*
Y00555942D01*
X01488217Y00560107D02*
X01484885D01*
Y00555109D01*
X01488217D01*
X01484885Y00557608D02*
X01486551D01*
X01489884Y00555109D02*
X01491550D01*
X01490717D01*
Y00560107D01*
X01489884Y00559274D01*
X01627028D02*
X01626195Y00560107D01*
X01624529D01*
X01623696Y00559274D01*
Y00558441D01*
X01624529Y00557608D01*
X01626195D01*
X01627028Y00556775D01*
Y00555942D01*
X01626195Y00555109D01*
X01624529D01*
X01623696Y00555942D01*
X01628694Y00560107D02*
Y00556775D01*
X01630361Y00555109D01*
X01632027Y00556775D01*
Y00560107D01*
X01633693Y00555109D02*
Y00560107D01*
X01637025Y00555109D01*
Y00560107D01*
X01643690Y00555109D02*
Y00560107D01*
X01646189D01*
X01647022Y00559274D01*
Y00557608D01*
X01646189Y00556775D01*
X01643690D01*
X01645356D02*
X01647022Y00555109D01*
X01652020Y00560107D02*
X01648688D01*
Y00555109D01*
X01652020D01*
X01648688Y00557608D02*
X01650354D01*
X01653686Y00560107D02*
Y00556775D01*
X01655352Y00555109D01*
X01657019Y00556775D01*
Y00560107D01*
X01658685Y00558441D02*
X01659518D01*
Y00557608D01*
X01658685D01*
Y00558441D01*
Y00555942D02*
X01659518D01*
Y00555109D01*
X01658685D01*
Y00555942D01*
X01785494Y00456305D02*
X01788826D01*
X01787160D01*
Y00451307D01*
X01793825Y00456305D02*
X01790493D01*
Y00451307D01*
X01793825D01*
X01790493Y00453806D02*
X01792159D01*
X01795491Y00456305D02*
X01798823Y00451307D01*
Y00456305D02*
X01795491Y00451307D01*
X01800489D02*
Y00454639D01*
X01802155Y00456305D01*
X01803822Y00454639D01*
Y00451307D01*
Y00453806D01*
X01800489D01*
X01808820Y00455472D02*
X01807987Y00456305D01*
X01806321D01*
X01805488Y00455472D01*
Y00454639D01*
X01806321Y00453806D01*
X01807987D01*
X01808820Y00452973D01*
Y00452140D01*
X01807987Y00451307D01*
X01806321D01*
X01805488Y00452140D01*
X01815484Y00456305D02*
X01817151D01*
X01816317D01*
Y00451307D01*
X01815484D01*
X01817151D01*
X01819650D02*
Y00456305D01*
X01822982Y00451307D01*
Y00456305D01*
X01827980Y00455472D02*
X01827147Y00456305D01*
X01825481D01*
X01824648Y00455472D01*
Y00454639D01*
X01825481Y00453806D01*
X01827147D01*
X01827980Y00452973D01*
Y00452140D01*
X01827147Y00451307D01*
X01825481D01*
X01824648Y00452140D01*
X01829646Y00456305D02*
X01832979D01*
X01831313D01*
Y00451307D01*
X01834645D02*
Y00456305D01*
X01837144D01*
X01837977Y00455472D01*
Y00453806D01*
X01837144Y00452973D01*
X01834645D01*
X01836311D02*
X01837977Y00451307D01*
X01839643Y00456305D02*
Y00452140D01*
X01840476Y00451307D01*
X01842142D01*
X01842975Y00452140D01*
Y00456305D01*
X01844642Y00451307D02*
Y00456305D01*
X01846308Y00454639D01*
X01847974Y00456305D01*
Y00451307D01*
X01852972Y00456305D02*
X01849640D01*
Y00451307D01*
X01852972D01*
X01849640Y00453806D02*
X01851306D01*
X01854638Y00451307D02*
Y00456305D01*
X01857970Y00451307D01*
Y00456305D01*
X01859637D02*
X01862969D01*
X01861303D01*
Y00451307D01*
X01867967Y00455472D02*
X01867134Y00456305D01*
X01865468D01*
X01864635Y00455472D01*
Y00454639D01*
X01865468Y00453806D01*
X01867134D01*
X01867967Y00452973D01*
Y00452140D01*
X01867134Y00451307D01*
X01865468D01*
X01864635Y00452140D01*
X01196341Y00560107D02*
X01199673D01*
X01198007D01*
Y00555109D01*
X01201339Y00560107D02*
X01203006D01*
X01202173D01*
Y00555109D01*
X01201339D01*
X01203006D01*
X01205505Y00560107D02*
Y00555109D01*
X01208004D01*
X01208837Y00555942D01*
Y00559274D01*
X01208004Y00560107D01*
X01205505D01*
X01210503Y00555109D02*
Y00558441D01*
X01212169Y00560107D01*
X01213836Y00558441D01*
Y00555109D01*
Y00557608D01*
X01210503D01*
X01215502D02*
X01218834D01*
X01220500Y00559274D02*
X01221333Y00560107D01*
X01222999D01*
X01223832Y00559274D01*
Y00555942D01*
X01222999Y00555109D01*
X01221333D01*
X01220500Y00555942D01*
Y00559274D01*
X01225498Y00555109D02*
X01227164D01*
X01226331D01*
Y00560107D01*
X01225498Y00559274D01*
X01229664D02*
X01230497Y00560107D01*
X01232163D01*
X01232996Y00559274D01*
Y00555942D01*
X01232163Y00555109D01*
X01230497D01*
X01229664Y00555942D01*
Y00559274D01*
X01234662Y00555942D02*
X01235495Y00555109D01*
X01237161D01*
X01237994Y00555942D01*
Y00559274D01*
X01237161Y00560107D01*
X01235495D01*
X01234662Y00559274D01*
Y00558441D01*
X01235495Y00557608D01*
X01237994D01*
X01239660Y00559274D02*
X01240493Y00560107D01*
X01242160D01*
X01242993Y00559274D01*
Y00558441D01*
X01242160Y00557608D01*
X01241327D01*
X01242160D01*
X01242993Y00556775D01*
Y00555942D01*
X01242160Y00555109D01*
X01240493D01*
X01239660Y00555942D01*
X01244659Y00559274D02*
X01245492Y00560107D01*
X01247158D01*
X01247991Y00559274D01*
Y00558441D01*
X01247158Y00557608D01*
X01247991Y00556775D01*
Y00555942D01*
X01247158Y00555109D01*
X01245492D01*
X01244659Y00555942D01*
Y00556775D01*
X01245492Y00557608D01*
X01244659Y00558441D01*
Y00559274D01*
X01245492Y00557608D02*
X01247158D01*
X01254656Y00555109D02*
Y00558441D01*
X01256322Y00560107D01*
X01257988Y00558441D01*
Y00555109D01*
Y00557608D01*
X01254656D01*
X01262986Y00559274D02*
X01262153Y00560107D01*
X01260487D01*
X01259654Y00559274D01*
Y00555942D01*
X01260487Y00555109D01*
X01262153D01*
X01262986Y00555942D01*
X01264652Y00557608D02*
X01267984D01*
X01269650Y00560107D02*
Y00555109D01*
X01272150D01*
X01272983Y00555942D01*
Y00559274D01*
X01272150Y00560107D01*
X01269650D01*
X01277981Y00559274D02*
X01277148Y00560107D01*
X01275482D01*
X01274649Y00559274D01*
Y00555942D01*
X01275482Y00555109D01*
X01277148D01*
X01277981Y00555942D01*
X01057784Y00508460D02*
X01061116D01*
X01059450D01*
Y00503462D01*
X01062783Y00508460D02*
X01064449D01*
X01063616D01*
Y00503462D01*
X01062783D01*
X01064449D01*
X01066948Y00508460D02*
Y00503462D01*
X01069447D01*
X01070280Y00504295D01*
Y00507627D01*
X01069447Y00508460D01*
X01066948D01*
X01077778Y00503462D02*
Y00508460D01*
X01079444D02*
Y00503462D01*
X01076945Y00506794D02*
X01079444D01*
X01080277D01*
X01076945Y00505128D02*
X01080277D01*
X01081943Y00506794D02*
X01082776D01*
Y00505961D01*
X01081943D01*
Y00506794D01*
Y00504295D02*
X01082776D01*
Y00503462D01*
X01081943D01*
Y00504295D01*
X01061624Y00455472D02*
X01060791Y00456305D01*
X01059125D01*
X01058292Y00455472D01*
Y00452140D01*
X01059125Y00451307D01*
X01060791D01*
X01061624Y00452140D01*
Y00453806D01*
X01059958D01*
X01066623Y00456305D02*
X01063290D01*
Y00451307D01*
X01066623D01*
X01063290Y00453806D02*
X01064957D01*
X01068289Y00451307D02*
Y00456305D01*
X01071621Y00451307D01*
Y00456305D01*
X01076619D02*
X01073287D01*
Y00451307D01*
X01076619D01*
X01073287Y00453806D02*
X01074953D01*
X01078286Y00451307D02*
Y00456305D01*
X01080785D01*
X01081618Y00455472D01*
Y00453806D01*
X01080785Y00452973D01*
X01078286D01*
X01079952D02*
X01081618Y00451307D01*
X01083284D02*
Y00454639D01*
X01084950Y00456305D01*
X01086616Y00454639D01*
Y00451307D01*
Y00453806D01*
X01083284D01*
X01088282Y00456305D02*
X01091615D01*
X01089949D01*
Y00451307D01*
X01096613Y00456305D02*
X01093281D01*
Y00451307D01*
X01096613D01*
X01093281Y00453806D02*
X01094947D01*
X01098279Y00456305D02*
Y00451307D01*
X01100778D01*
X01101611Y00452140D01*
Y00455472D01*
X01100778Y00456305D01*
X01098279D01*
X01123271Y00454639D02*
X01124104D01*
Y00453806D01*
X01123271D01*
Y00454639D01*
Y00452140D02*
X01124104D01*
Y00451307D01*
X01123271D01*
Y00452140D01*
X01464311Y00451307D02*
X01465977D01*
X01465144D01*
Y00456305D01*
X01464311Y00455472D01*
X01468477D02*
X01469310Y00456305D01*
X01470976D01*
X01471809Y00455472D01*
Y00452140D01*
X01470976Y00451307D01*
X01469310D01*
X01468477Y00452140D01*
Y00455472D01*
X01473475Y00454639D02*
X01474308D01*
Y00453806D01*
X01473475D01*
Y00454639D01*
Y00452140D02*
X01474308D01*
Y00451307D01*
X01473475D01*
Y00452140D01*
X01477640Y00451307D02*
X01479306D01*
X01478473D01*
Y00456305D01*
X01477640Y00455472D01*
X01484305Y00451307D02*
Y00456305D01*
X01481806Y00453806D01*
X01485138D01*
X01486804Y00454639D02*
X01487637D01*
Y00453806D01*
X01486804D01*
Y00454639D01*
Y00452140D02*
X01487637D01*
Y00451307D01*
X01486804D01*
Y00452140D01*
X01494301Y00456305D02*
X01490969D01*
Y00453806D01*
X01492635Y00454639D01*
X01493468D01*
X01494301Y00453806D01*
Y00452140D01*
X01493468Y00451307D01*
X01491802D01*
X01490969Y00452140D01*
X01498467Y00451307D02*
Y00456305D01*
X01495968Y00453806D01*
X01499300D01*
X01505964Y00451307D02*
Y00454639D01*
X01507630Y00456305D01*
X01509297Y00454639D01*
Y00451307D01*
Y00453806D01*
X01505964D01*
X01510963Y00451307D02*
Y00456305D01*
X01512629Y00454639D01*
X01514295Y00456305D01*
Y00451307D01*
X01196341Y00503462D02*
Y00506794D01*
X01198007Y00508460D01*
X01199673Y00506794D01*
Y00503462D01*
Y00505961D01*
X01196341D01*
X01201339Y00507627D02*
X01202173Y00508460D01*
X01203839D01*
X01204672Y00507627D01*
Y00504295D01*
X01203839Y00503462D01*
X01202173D01*
X01201339Y00504295D01*
Y00507627D01*
X01208837Y00503462D02*
Y00508460D01*
X01206338Y00505961D01*
X01209670D01*
X01211336Y00504295D02*
X01212169Y00503462D01*
X01213835D01*
X01214669Y00504295D01*
Y00507627D01*
X01213835Y00508460D01*
X01212169D01*
X01211336Y00507627D01*
Y00506794D01*
X01212169Y00505961D01*
X01214669D01*
X01216335Y00507627D02*
X01217168Y00508460D01*
X01218834D01*
X01219667Y00507627D01*
Y00506794D01*
X01218834Y00505961D01*
X01219667Y00505128D01*
Y00504295D01*
X01218834Y00503462D01*
X01217168D01*
X01216335Y00504295D01*
Y00505128D01*
X01217168Y00505961D01*
X01216335Y00506794D01*
Y00507627D01*
X01217168Y00505961D02*
X01218834D01*
X01221333Y00503462D02*
X01222999D01*
X01222166D01*
Y00508460D01*
X01221333Y00507627D01*
X01225498Y00508460D02*
X01228831D01*
Y00507627D01*
X01225498Y00504295D01*
Y00503462D01*
X01233829Y00508460D02*
X01232163Y00507627D01*
X01230497Y00505961D01*
Y00504295D01*
X01231330Y00503462D01*
X01232996D01*
X01233829Y00504295D01*
Y00505128D01*
X01232996Y00505961D01*
X01230497D01*
X01279145Y00451307D02*
X01280811D01*
X01279978D01*
Y00456305D01*
X01279145Y00455472D01*
X01286643Y00451307D02*
X01283311D01*
X01286643Y00454639D01*
Y00455472D01*
X01285810Y00456305D01*
X01284144D01*
X01283311Y00455472D01*
X01288309Y00451307D02*
X01291641Y00454639D01*
X01293307Y00455472D02*
X01294140Y00456305D01*
X01295806D01*
X01296640Y00455472D01*
Y00454639D01*
X01295806Y00453806D01*
X01294973D01*
X01295806D01*
X01296640Y00452973D01*
Y00452140D01*
X01295806Y00451307D01*
X01294140D01*
X01293307Y00452140D01*
X01298306Y00451307D02*
X01301638Y00454639D01*
X01306636Y00451307D02*
X01303304D01*
X01306636Y00454639D01*
Y00455472D01*
X01305803Y00456305D01*
X01304137D01*
X01303304Y00455472D01*
X01308302D02*
X01309135Y00456305D01*
X01310802D01*
X01311635Y00455472D01*
Y00452140D01*
X01310802Y00451307D01*
X01309135D01*
X01308302Y00452140D01*
Y00455472D01*
X01316633Y00451307D02*
X01313301D01*
X01316633Y00454639D01*
Y00455472D01*
X01315800Y00456305D01*
X01314134D01*
X01313301Y00455472D01*
X01318299D02*
X01319132Y00456305D01*
X01320798D01*
X01321631Y00455472D01*
Y00454639D01*
X01320798Y00453806D01*
X01319965D01*
X01320798D01*
X01321631Y00452973D01*
Y00452140D01*
X01320798Y00451307D01*
X01319132D01*
X01318299Y00452140D01*
M02*
