G04*
G04 #@! TF.GenerationSoftware,Altium Limited,Altium Designer,23.1.1 (15)*
G04*
G04 Layer_Color=128*
%FSAX44Y44*%
%MOMM*%
G71*
G04*
G04 #@! TF.SameCoordinates,9B1E6CB6-7F21-4D16-986F-FEEA4F8F1DB9*
G04*
G04*
G04 #@! TF.FilePolarity,Positive*
G04*
G01*
G75*
%ADD19C,0.2540*%
%ADD22C,0.2032*%
%ADD88C,1.0000*%
G04:AMPARAMS|DCode=190|XSize=0.665mm|YSize=1.15mm|CornerRadius=0.0499mm|HoleSize=0mm|Usage=FLASHONLY|Rotation=0.000|XOffset=0mm|YOffset=0mm|HoleType=Round|Shape=RoundedRectangle|*
%AMROUNDEDRECTD190*
21,1,0.6650,1.0502,0,0,0.0*
21,1,0.5653,1.1500,0,0,0.0*
1,1,0.0998,0.2826,-0.5251*
1,1,0.0998,-0.2826,-0.5251*
1,1,0.0998,-0.2826,0.5251*
1,1,0.0998,0.2826,0.5251*
%
%ADD190ROUNDEDRECTD190*%
G04:AMPARAMS|DCode=191|XSize=0.45mm|YSize=1.15mm|CornerRadius=0.0495mm|HoleSize=0mm|Usage=FLASHONLY|Rotation=0.000|XOffset=0mm|YOffset=0mm|HoleType=Round|Shape=RoundedRectangle|*
%AMROUNDEDRECTD191*
21,1,0.4500,1.0510,0,0,0.0*
21,1,0.3510,1.1500,0,0,0.0*
1,1,0.0990,0.1755,-0.5255*
1,1,0.0990,-0.1755,-0.5255*
1,1,0.0990,-0.1755,0.5255*
1,1,0.0990,0.1755,0.5255*
%
%ADD191ROUNDEDRECTD191*%
G04:AMPARAMS|DCode=192|XSize=1.15mm|YSize=1.1mm|CornerRadius=0.0495mm|HoleSize=0mm|Usage=FLASHONLY|Rotation=0.000|XOffset=0mm|YOffset=0mm|HoleType=Round|Shape=RoundedRectangle|*
%AMROUNDEDRECTD192*
21,1,1.1500,1.0010,0,0,0.0*
21,1,1.0510,1.1000,0,0,0.0*
1,1,0.0990,0.5255,-0.5005*
1,1,0.0990,-0.5255,-0.5005*
1,1,0.0990,-0.5255,0.5005*
1,1,0.0990,0.5255,0.5005*
%
%ADD192ROUNDEDRECTD192*%
G04:AMPARAMS|DCode=193|XSize=1.15mm|YSize=0.45mm|CornerRadius=0.0495mm|HoleSize=0mm|Usage=FLASHONLY|Rotation=0.000|XOffset=0mm|YOffset=0mm|HoleType=Round|Shape=RoundedRectangle|*
%AMROUNDEDRECTD193*
21,1,1.1500,0.3510,0,0,0.0*
21,1,1.0510,0.4500,0,0,0.0*
1,1,0.0990,0.5255,-0.1755*
1,1,0.0990,-0.5255,-0.1755*
1,1,0.0990,-0.5255,0.1755*
1,1,0.0990,0.5255,0.1755*
%
%ADD193ROUNDEDRECTD193*%
G36*
X00697522Y03231707D02*
X00699575Y03231491D01*
X00703605Y03230598D01*
X00707508Y03229254D01*
X00711234Y03227476D01*
X00714734Y03225289D01*
X00717965Y03222719D01*
X00720884Y03219800D01*
X00723454Y03216569D01*
X00725641Y03213069D01*
X00727419Y03209343D01*
X00728763Y03205439D01*
X00729656Y03201410D01*
X00729872Y03199357D01*
X00715922D01*
X00715922Y03199357D01*
X00715570Y03201056D01*
X00714477Y03204346D01*
X00712890Y03207429D01*
X00710846Y03210229D01*
X00708394Y03212681D01*
X00705594Y03214725D01*
X00702511Y03216312D01*
X00699221Y03217405D01*
X00697522Y03217757D01*
Y03231707D01*
X00697522D01*
X00697522Y03231707D01*
Y03231707D01*
D02*
G37*
G36*
X02014522Y03217757D02*
X02012823Y03217405D01*
X02009533Y03216312D01*
X02006450Y03214725D01*
X02003649Y03212681D01*
X02001198Y03210229D01*
X01999154Y03207429D01*
X01997567Y03204346D01*
X01996474Y03201056D01*
X01996122Y03199357D01*
X01996122D01*
X01996122Y03199357D01*
Y03199357D01*
X01982172D01*
X01982388Y03201410D01*
X01983281Y03205439D01*
X01984625Y03209343D01*
X01986403Y03213069D01*
X01988590Y03216569D01*
X01991160Y03219800D01*
X01994079Y03222719D01*
X01997310Y03225289D01*
X02000810Y03227476D01*
X02004536Y03229254D01*
X02008439Y03230598D01*
X02012469Y03231491D01*
X02014522Y03231707D01*
X02014522Y03231707D01*
X02014522Y03217757D01*
D02*
G37*
G36*
X00689522D02*
X00687823Y03217405D01*
X00684533Y03216312D01*
X00681450Y03214725D01*
X00678650Y03212681D01*
X00676198Y03210229D01*
X00674154Y03207429D01*
X00672567Y03204346D01*
X00671474Y03201056D01*
X00671122Y03199357D01*
X00671122D01*
X00671122Y03199357D01*
Y03199357D01*
X00657172D01*
X00657388Y03201410D01*
X00658281Y03205439D01*
X00659625Y03209343D01*
X00661403Y03213069D01*
X00663590Y03216569D01*
X00666160Y03219800D01*
X00669079Y03222719D01*
X00672309Y03225289D01*
X00675810Y03227476D01*
X00679536Y03229254D01*
X00683439Y03230598D01*
X00687469Y03231491D01*
X00689522Y03231707D01*
X00689522Y03231707D01*
X00689522Y03217757D01*
D02*
G37*
G36*
X00729872Y03191357D02*
X00729656Y03189304D01*
X00728763Y03185274D01*
X00727419Y03181371D01*
X00725641Y03177645D01*
X00723454Y03174144D01*
X00720884Y03170914D01*
X00717965Y03167995D01*
X00714734Y03165425D01*
X00711234Y03163238D01*
X00707508Y03161460D01*
X00703605Y03160116D01*
X00699575Y03159223D01*
X00697522Y03159007D01*
Y03172957D01*
X00699221Y03173309D01*
X00702511Y03174402D01*
X00705594Y03175989D01*
X00708394Y03178033D01*
X00710846Y03180484D01*
X00712890Y03183285D01*
X00714477Y03186367D01*
X00715570Y03189658D01*
X00715922Y03191357D01*
Y03191357D01*
X00729872Y03191357D01*
D02*
G37*
G36*
X01996122D02*
X01996474Y03189658D01*
X01997567Y03186367D01*
X01999154Y03183285D01*
X02001198Y03180484D01*
X02003650Y03178033D01*
X02006450Y03175989D01*
X02009533Y03174402D01*
X02012823Y03173309D01*
X02014522Y03172957D01*
X02014522Y03159007D01*
X02014522D01*
X02012469Y03159223D01*
X02008439Y03160116D01*
X02004536Y03161460D01*
X02000810Y03163238D01*
X01997310Y03165425D01*
X01994079Y03167995D01*
X01991160Y03170914D01*
X01988590Y03174144D01*
X01986403Y03177645D01*
X01984625Y03181371D01*
X01983281Y03185274D01*
X01982388Y03189304D01*
X01982172Y03191357D01*
X01996122Y03191357D01*
Y03191357D01*
D02*
G37*
G36*
X00697522Y03159007D02*
X00697522D01*
X00697522D01*
D01*
D02*
G37*
G36*
X00671122Y03191357D02*
X00671474Y03189658D01*
X00672567Y03186367D01*
X00674154Y03183285D01*
X00676198Y03180484D01*
X00678650Y03178033D01*
X00681450Y03175989D01*
X00684533Y03174402D01*
X00687823Y03173309D01*
X00689522Y03172957D01*
X00689522Y03159007D01*
X00689522D01*
X00687469Y03159223D01*
X00683439Y03160116D01*
X00679536Y03161460D01*
X00675810Y03163238D01*
X00672309Y03165425D01*
X00669079Y03167995D01*
X00666160Y03170914D01*
X00663590Y03174144D01*
X00661403Y03177645D01*
X00659625Y03181371D01*
X00658281Y03185274D01*
X00657388Y03189304D01*
X00657172Y03191357D01*
X00671122Y03191357D01*
Y03191357D01*
D02*
G37*
G36*
X00977522Y02441707D02*
X00979575Y02441491D01*
X00983605Y02440597D01*
X00987508Y02439253D01*
X00991234Y02437476D01*
X00994734Y02435289D01*
X00997965Y02432719D01*
X01000884Y02429800D01*
X01003454Y02426569D01*
X01005641Y02423069D01*
X01007419Y02419343D01*
X01008763Y02415440D01*
X01009656Y02411409D01*
X01009872Y02409357D01*
X00995922D01*
X00995922Y02409357D01*
X00995570Y02411056D01*
X00994477Y02414346D01*
X00992890Y02417429D01*
X00990846Y02420229D01*
X00988394Y02422681D01*
X00985594Y02424725D01*
X00982511Y02426312D01*
X00979221Y02427405D01*
X00977522Y02427757D01*
Y02441707D01*
X00977522D01*
X00977522Y02441707D01*
Y02441707D01*
D02*
G37*
G36*
X00969522Y02427757D02*
X00967823Y02427405D01*
X00964533Y02426312D01*
X00961450Y02424725D01*
X00958650Y02422681D01*
X00956198Y02420229D01*
X00954154Y02417429D01*
X00952567Y02414346D01*
X00951474Y02411056D01*
X00951122Y02409357D01*
X00937172D01*
X00937388Y02411409D01*
X00938281Y02415440D01*
X00939625Y02419343D01*
X00941403Y02423069D01*
X00943590Y02426569D01*
X00946160Y02429800D01*
X00949079Y02432719D01*
X00952309Y02435289D01*
X00955810Y02437476D01*
X00959536Y02439253D01*
X00963439Y02440597D01*
X00967469Y02441491D01*
X00969522Y02441707D01*
X00969522Y02441707D01*
X00969522Y02427757D01*
D02*
G37*
G36*
X00951122Y02409357D02*
Y02409357D01*
X00951122D01*
X00951122Y02409357D01*
D02*
G37*
G36*
X01009872Y02401357D02*
X01009656Y02399304D01*
X01008763Y02395274D01*
X01007419Y02391371D01*
X01005641Y02387645D01*
X01003454Y02384144D01*
X01000884Y02380914D01*
X00997965Y02377995D01*
X00994734Y02375425D01*
X00991234Y02373237D01*
X00987508Y02371460D01*
X00983605Y02370116D01*
X00979575Y02369223D01*
X00977522Y02369007D01*
Y02382957D01*
X00979221Y02383309D01*
X00982511Y02384402D01*
X00985594Y02385989D01*
X00988394Y02388033D01*
X00990846Y02390484D01*
X00992890Y02393285D01*
X00994477Y02396368D01*
X00995570Y02399658D01*
X00995922Y02401357D01*
Y02401357D01*
X01009872Y02401357D01*
D02*
G37*
G36*
X00977522Y02369007D02*
X00977522D01*
X00977522D01*
D01*
D02*
G37*
G36*
X00951122Y02401357D02*
X00951474Y02399658D01*
X00952567Y02396368D01*
X00954154Y02393285D01*
X00956198Y02390484D01*
X00958650Y02388033D01*
X00961450Y02385989D01*
X00964533Y02384402D01*
X00967823Y02383309D01*
X00969522Y02382957D01*
X00969522Y02369007D01*
X00969522D01*
X00967469Y02369223D01*
X00963439Y02370116D01*
X00959536Y02371460D01*
X00955810Y02373237D01*
X00952309Y02375425D01*
X00949079Y02377995D01*
X00946160Y02380914D01*
X00943590Y02384144D01*
X00941403Y02387645D01*
X00939625Y02391371D01*
X00938281Y02395274D01*
X00937388Y02399304D01*
X00937172Y02401357D01*
X00951122Y02401357D01*
Y02401357D01*
D02*
G37*
G36*
X02022522Y03231707D02*
X02022522D01*
X02022522Y03231707D01*
Y03231707D01*
D02*
G37*
G36*
X02024575Y03231491D02*
X02028605Y03230598D01*
X02032508Y03229254D01*
X02036234Y03227476D01*
X02039734Y03225289D01*
X02042965Y03222719D01*
X02045884Y03219800D01*
X02048454Y03216569D01*
X02050641Y03213069D01*
X02052419Y03209343D01*
X02053763Y03205439D01*
X02054656Y03201410D01*
X02054872Y03199357D01*
X02040922D01*
X02040922Y03199357D01*
X02040570Y03201056D01*
X02039477Y03204346D01*
X02037890Y03207429D01*
X02035846Y03210229D01*
X02033394Y03212681D01*
X02030594Y03214725D01*
X02027511Y03216312D01*
X02024221Y03217405D01*
X02022522Y03217757D01*
Y03231707D01*
X02024575Y03231491D01*
D02*
G37*
G36*
X02054872Y03191357D02*
X02054656Y03189304D01*
X02053763Y03185274D01*
X02052419Y03181371D01*
X02050641Y03177645D01*
X02048454Y03174144D01*
X02045884Y03170914D01*
X02042965Y03167995D01*
X02039734Y03165425D01*
X02036234Y03163238D01*
X02032508Y03161460D01*
X02028605Y03160116D01*
X02024575Y03159223D01*
X02022522Y03159007D01*
Y03172957D01*
X02024221Y03173309D01*
X02027511Y03174402D01*
X02030594Y03175989D01*
X02033394Y03178033D01*
X02035846Y03180484D01*
X02037890Y03183285D01*
X02039477Y03186367D01*
X02040570Y03189658D01*
X02040922Y03191357D01*
Y03191357D01*
X02054872Y03191357D01*
D02*
G37*
G36*
X02022522Y03159007D02*
X02022522D01*
X02022522D01*
D01*
D02*
G37*
G36*
X02376522Y02326207D02*
X02376522D01*
X02376522Y02326207D01*
Y02326207D01*
D02*
G37*
G36*
X02378575Y02325991D02*
X02382605Y02325097D01*
X02386508Y02323753D01*
X02390234Y02321976D01*
X02393734Y02319789D01*
X02396965Y02317219D01*
X02399884Y02314300D01*
X02402454Y02311069D01*
X02404641Y02307569D01*
X02406419Y02303843D01*
X02407763Y02299940D01*
X02408656Y02295909D01*
X02408872Y02293857D01*
X02394922D01*
X02394922Y02293857D01*
X02394570Y02295556D01*
X02393477Y02298846D01*
X02391890Y02301929D01*
X02389846Y02304729D01*
X02387395Y02307181D01*
X02384594Y02309225D01*
X02381511Y02310812D01*
X02378221Y02311905D01*
X02376522Y02312257D01*
Y02326207D01*
X02378575Y02325991D01*
D02*
G37*
G36*
X02368522Y02312257D02*
X02366823Y02311905D01*
X02363533Y02310812D01*
X02360450Y02309225D01*
X02357650Y02307181D01*
X02355198Y02304729D01*
X02353154Y02301929D01*
X02351567Y02298846D01*
X02350474Y02295556D01*
X02350122Y02293857D01*
X02350122D01*
X02350122Y02293857D01*
Y02293857D01*
X02336172D01*
X02336388Y02295909D01*
X02337281Y02299940D01*
X02338625Y02303843D01*
X02340403Y02307569D01*
X02342590Y02311069D01*
X02345160Y02314300D01*
X02348079Y02317219D01*
X02351310Y02319789D01*
X02354810Y02321976D01*
X02358536Y02323753D01*
X02362439Y02325097D01*
X02366469Y02325991D01*
X02368522Y02326207D01*
X02368522Y02326207D01*
X02368522Y02312257D01*
D02*
G37*
G36*
X02408872Y02285857D02*
X02408656Y02283804D01*
X02407763Y02279774D01*
X02406419Y02275871D01*
X02404641Y02272145D01*
X02402454Y02268644D01*
X02399884Y02265414D01*
X02396965Y02262495D01*
X02393734Y02259925D01*
X02390234Y02257737D01*
X02386508Y02255960D01*
X02382605Y02254616D01*
X02378575Y02253723D01*
X02376522Y02253507D01*
Y02267457D01*
X02378221Y02267809D01*
X02381511Y02268902D01*
X02384594Y02270489D01*
X02387395Y02272533D01*
X02389846Y02274984D01*
X02391890Y02277785D01*
X02393477Y02280868D01*
X02394570Y02284158D01*
X02394922Y02285857D01*
Y02285857D01*
X02408872Y02285857D01*
D02*
G37*
G36*
X02376522Y02253507D02*
X02376522D01*
X02376522D01*
D01*
D02*
G37*
G36*
X02350122Y02285857D02*
X02350474Y02284158D01*
X02351567Y02280868D01*
X02353154Y02277785D01*
X02355198Y02274984D01*
X02357650Y02272533D01*
X02360450Y02270489D01*
X02363533Y02268902D01*
X02366823Y02267809D01*
X02368522Y02267457D01*
X02368522Y02253507D01*
X02368522D01*
X02366469Y02253723D01*
X02362439Y02254616D01*
X02358536Y02255960D01*
X02354810Y02257737D01*
X02351310Y02259925D01*
X02348079Y02262495D01*
X02345160Y02265414D01*
X02342590Y02268644D01*
X02340403Y02272145D01*
X02338625Y02275871D01*
X02337281Y02279774D01*
X02336388Y02283804D01*
X02336172Y02285857D01*
X02350122Y02285857D01*
Y02285857D01*
D02*
G37*
G36*
X02447522Y01631707D02*
X02449575Y01631491D01*
X02453605Y01630597D01*
X02457508Y01629253D01*
X02461234Y01627476D01*
X02464734Y01625289D01*
X02467965Y01622719D01*
X02470884Y01619800D01*
X02473454Y01616569D01*
X02475641Y01613069D01*
X02477419Y01609343D01*
X02478763Y01605440D01*
X02479656Y01601409D01*
X02479872Y01599357D01*
X02465922D01*
X02465922Y01599357D01*
X02465570Y01601056D01*
X02464477Y01604346D01*
X02462890Y01607429D01*
X02460846Y01610229D01*
X02458394Y01612681D01*
X02455594Y01614725D01*
X02452511Y01616312D01*
X02449221Y01617405D01*
X02447522Y01617757D01*
Y01631707D01*
X02447522D01*
X02447522Y01631707D01*
Y01631707D01*
D02*
G37*
G36*
X02439522Y01617757D02*
X02437823Y01617405D01*
X02434533Y01616312D01*
X02431450Y01614725D01*
X02428649Y01612681D01*
X02426198Y01610229D01*
X02424154Y01607429D01*
X02422567Y01604346D01*
X02421474Y01601055D01*
X02421122Y01599357D01*
X02421122D01*
X02421122Y01599357D01*
Y01599357D01*
X02407172D01*
X02407388Y01601409D01*
X02408281Y01605440D01*
X02409625Y01609343D01*
X02411403Y01613069D01*
X02413590Y01616569D01*
X02416160Y01619800D01*
X02419079Y01622719D01*
X02422310Y01625289D01*
X02425810Y01627476D01*
X02429536Y01629253D01*
X02433439Y01630597D01*
X02437469Y01631491D01*
X02439522Y01631707D01*
X02439522Y01631707D01*
X02439522Y01617757D01*
D02*
G37*
G36*
X02479872Y01591357D02*
X02479656Y01589304D01*
X02478763Y01585274D01*
X02477419Y01581371D01*
X02475641Y01577645D01*
X02473454Y01574144D01*
X02470884Y01570914D01*
X02467965Y01567995D01*
X02464734Y01565425D01*
X02461234Y01563237D01*
X02457508Y01561460D01*
X02453605Y01560116D01*
X02449575Y01559223D01*
X02447522Y01559007D01*
Y01572957D01*
X02449221Y01573309D01*
X02452511Y01574402D01*
X02455594Y01575989D01*
X02458394Y01578033D01*
X02460846Y01580484D01*
X02462890Y01583285D01*
X02464477Y01586368D01*
X02465570Y01589658D01*
X02465922Y01591357D01*
Y01591357D01*
X02479872Y01591357D01*
D02*
G37*
G36*
X02447522Y01559007D02*
X02447522D01*
X02447522D01*
D01*
D02*
G37*
G36*
X02421122Y01591357D02*
X02421474Y01589658D01*
X02422567Y01586368D01*
X02424154Y01583285D01*
X02426198Y01580484D01*
X02428649Y01578033D01*
X02431450Y01575989D01*
X02434533Y01574402D01*
X02437823Y01573309D01*
X02439522Y01572957D01*
X02439522Y01559007D01*
X02439522D01*
X02437469Y01559223D01*
X02433439Y01560116D01*
X02429536Y01561460D01*
X02425810Y01563237D01*
X02422310Y01565425D01*
X02419079Y01567995D01*
X02416160Y01570914D01*
X02413590Y01574144D01*
X02411403Y01577645D01*
X02409625Y01581371D01*
X02408281Y01585274D01*
X02407388Y01589304D01*
X02407172Y01591357D01*
X02421122Y01591357D01*
Y01591357D01*
D02*
G37*
G36*
X03379872Y02799607D02*
X03379656Y02797554D01*
X03378763Y02793524D01*
X03377419Y02789621D01*
X03375641Y02785895D01*
X03373454Y02782394D01*
X03370884Y02779164D01*
X03367965Y02776245D01*
X03364734Y02773675D01*
X03361234Y02771487D01*
X03357508Y02769710D01*
X03353605Y02768366D01*
X03349575Y02767473D01*
X03347522Y02767257D01*
Y02781207D01*
X03349221Y02781559D01*
X03352511Y02782651D01*
X03355594Y02784239D01*
X03358394Y02786283D01*
X03360846Y02788734D01*
X03362890Y02791535D01*
X03364477Y02794618D01*
X03365570Y02797908D01*
X03365922Y02799607D01*
Y02799607D01*
X03379872Y02799607D01*
D02*
G37*
G36*
X03347522Y02767257D02*
X03347522D01*
X03347522D01*
D01*
D02*
G37*
G36*
X03321122Y02799607D02*
X03321474Y02797908D01*
X03322567Y02794618D01*
X03324154Y02791535D01*
X03326198Y02788734D01*
X03328650Y02786283D01*
X03331450Y02784239D01*
X03334533Y02782652D01*
X03337823Y02781559D01*
X03339522Y02781207D01*
X03339522Y02767257D01*
X03339522D01*
X03337469Y02767473D01*
X03333439Y02768366D01*
X03329536Y02769710D01*
X03325810Y02771487D01*
X03322310Y02773675D01*
X03319079Y02776245D01*
X03316160Y02779164D01*
X03313590Y02782394D01*
X03311403Y02785895D01*
X03309626Y02789621D01*
X03308281Y02793524D01*
X03307388Y02797554D01*
X03307172Y02799607D01*
X03321122Y02799607D01*
Y02799607D01*
D02*
G37*
G36*
X03347522Y02431707D02*
X03347522D01*
X03347522Y02431707D01*
Y02431707D01*
D02*
G37*
G36*
X03349575Y02431491D02*
X03353605Y02430597D01*
X03357508Y02429253D01*
X03361234Y02427476D01*
X03364734Y02425289D01*
X03367965Y02422719D01*
X03370884Y02419800D01*
X03373454Y02416569D01*
X03375641Y02413069D01*
X03377419Y02409343D01*
X03378763Y02405440D01*
X03379656Y02401409D01*
X03379872Y02399357D01*
X03365922D01*
X03365922Y02399357D01*
X03365570Y02401056D01*
X03364477Y02404346D01*
X03362890Y02407429D01*
X03360846Y02410229D01*
X03358394Y02412681D01*
X03355594Y02414725D01*
X03352511Y02416312D01*
X03349221Y02417405D01*
X03347522Y02417757D01*
Y02431707D01*
X03349575Y02431491D01*
D02*
G37*
G36*
X03339522Y02417757D02*
X03337823Y02417405D01*
X03334533Y02416312D01*
X03331450Y02414725D01*
X03328650Y02412681D01*
X03326198Y02410229D01*
X03324154Y02407429D01*
X03322567Y02404346D01*
X03321474Y02401055D01*
X03321122Y02399357D01*
X03321122D01*
X03321122Y02399357D01*
Y02399357D01*
X03307172D01*
X03307388Y02401409D01*
X03308281Y02405440D01*
X03309626Y02409343D01*
X03311403Y02413069D01*
X03313590Y02416569D01*
X03316160Y02419800D01*
X03319079Y02422719D01*
X03322310Y02425289D01*
X03325810Y02427476D01*
X03329536Y02429253D01*
X03333439Y02430597D01*
X03337469Y02431491D01*
X03339522Y02431707D01*
X03339522Y02431707D01*
X03339522Y02417757D01*
D02*
G37*
G36*
X03379872Y02391357D02*
X03379656Y02389304D01*
X03378763Y02385274D01*
X03377419Y02381371D01*
X03375641Y02377645D01*
X03373454Y02374144D01*
X03370884Y02370914D01*
X03367965Y02367995D01*
X03364734Y02365425D01*
X03361234Y02363237D01*
X03357508Y02361460D01*
X03353605Y02360116D01*
X03349575Y02359223D01*
X03347522Y02359007D01*
Y02372957D01*
X03349221Y02373309D01*
X03352511Y02374402D01*
X03355594Y02375989D01*
X03358394Y02378033D01*
X03360846Y02380484D01*
X03362890Y02383285D01*
X03364477Y02386368D01*
X03365570Y02389658D01*
X03365922Y02391357D01*
Y02391357D01*
X03379872Y02391357D01*
D02*
G37*
G36*
X03347522Y02359007D02*
X03347522D01*
X03347522D01*
D01*
D02*
G37*
G36*
X03321122Y02391357D02*
X03321474Y02389658D01*
X03322567Y02386368D01*
X03324154Y02383285D01*
X03326198Y02380484D01*
X03328650Y02378033D01*
X03331450Y02375989D01*
X03334533Y02374402D01*
X03337823Y02373309D01*
X03339522Y02372957D01*
X03339522Y02359007D01*
X03339522D01*
X03337469Y02359223D01*
X03333439Y02360116D01*
X03329536Y02361460D01*
X03325810Y02363237D01*
X03322310Y02365425D01*
X03319079Y02367995D01*
X03316160Y02370914D01*
X03313590Y02374144D01*
X03311403Y02377645D01*
X03309626Y02381371D01*
X03308281Y02385274D01*
X03307388Y02389304D01*
X03307172Y02391357D01*
X03321122Y02391357D01*
Y02391357D01*
D02*
G37*
G36*
X03347522Y01631707D02*
X03349575Y01631491D01*
X03353605Y01630597D01*
X03357508Y01629253D01*
X03361234Y01627476D01*
X03364734Y01625289D01*
X03367965Y01622719D01*
X03370884Y01619800D01*
X03373454Y01616569D01*
X03375641Y01613069D01*
X03377419Y01609343D01*
X03378763Y01605440D01*
X03379656Y01601409D01*
X03379872Y01599357D01*
X03365922D01*
X03365922Y01599357D01*
X03365570Y01601056D01*
X03364477Y01604346D01*
X03362890Y01607429D01*
X03360846Y01610229D01*
X03358394Y01612681D01*
X03355594Y01614725D01*
X03352511Y01616312D01*
X03349221Y01617405D01*
X03347522Y01617757D01*
Y01631707D01*
X03347522D01*
X03347522Y01631707D01*
Y01631707D01*
D02*
G37*
G36*
X03339522Y01617757D02*
X03337823Y01617405D01*
X03334533Y01616312D01*
X03331450Y01614725D01*
X03328650Y01612681D01*
X03326198Y01610229D01*
X03324154Y01607429D01*
X03322567Y01604346D01*
X03321474Y01601055D01*
X03321122Y01599357D01*
X03321122D01*
X03321122Y01599357D01*
Y01599357D01*
X03307172D01*
X03307388Y01601409D01*
X03308281Y01605440D01*
X03309626Y01609343D01*
X03311403Y01613069D01*
X03313590Y01616569D01*
X03316160Y01619800D01*
X03319079Y01622719D01*
X03322310Y01625289D01*
X03325810Y01627476D01*
X03329536Y01629253D01*
X03333439Y01630597D01*
X03337469Y01631491D01*
X03339522Y01631707D01*
X03339522Y01631707D01*
X03339522Y01617757D01*
D02*
G37*
G36*
X03379872Y01591357D02*
X03379656Y01589304D01*
X03378763Y01585274D01*
X03377419Y01581371D01*
X03375641Y01577645D01*
X03373454Y01574144D01*
X03370884Y01570914D01*
X03367965Y01567995D01*
X03364734Y01565425D01*
X03361234Y01563237D01*
X03357508Y01561460D01*
X03353605Y01560116D01*
X03349575Y01559223D01*
X03347522Y01559007D01*
Y01572957D01*
X03349221Y01573309D01*
X03352511Y01574402D01*
X03355594Y01575989D01*
X03358394Y01578033D01*
X03360846Y01580484D01*
X03362890Y01583285D01*
X03364477Y01586368D01*
X03365570Y01589658D01*
X03365922Y01591357D01*
Y01591357D01*
X03379872Y01591357D01*
D02*
G37*
G36*
X03347522Y01559007D02*
X03347522D01*
X03347522D01*
D01*
D02*
G37*
G36*
X03321122Y01591357D02*
X03321474Y01589658D01*
X03322567Y01586368D01*
X03324154Y01583285D01*
X03326198Y01580484D01*
X03328650Y01578033D01*
X03331450Y01575989D01*
X03334533Y01574402D01*
X03337823Y01573309D01*
X03339522Y01572957D01*
X03339522Y01559007D01*
X03339522D01*
X03337469Y01559223D01*
X03333439Y01560116D01*
X03329536Y01561460D01*
X03325810Y01563237D01*
X03322310Y01565425D01*
X03319079Y01567995D01*
X03316160Y01570914D01*
X03313590Y01574144D01*
X03311403Y01577645D01*
X03309626Y01581371D01*
X03308281Y01585274D01*
X03307388Y01589304D01*
X03307172Y01591357D01*
X03321122Y01591357D01*
Y01591357D01*
D02*
G37*
G36*
X03347522Y03231707D02*
X03347522D01*
X03347522Y03231707D01*
Y03231707D01*
D02*
G37*
G36*
X03349575Y03231491D02*
X03353605Y03230598D01*
X03357508Y03229254D01*
X03361234Y03227476D01*
X03364734Y03225289D01*
X03367965Y03222719D01*
X03370884Y03219800D01*
X03373454Y03216569D01*
X03375641Y03213069D01*
X03377419Y03209343D01*
X03378763Y03205439D01*
X03379656Y03201410D01*
X03379872Y03199357D01*
X03365922D01*
X03365922Y03199357D01*
X03365570Y03201056D01*
X03364477Y03204346D01*
X03362890Y03207429D01*
X03360846Y03210229D01*
X03358394Y03212681D01*
X03355594Y03214725D01*
X03352511Y03216312D01*
X03349221Y03217405D01*
X03347522Y03217757D01*
Y03231707D01*
X03349575Y03231491D01*
D02*
G37*
G36*
X03339522Y03217757D02*
X03337823Y03217405D01*
X03334533Y03216312D01*
X03331450Y03214725D01*
X03328650Y03212681D01*
X03326198Y03210229D01*
X03324154Y03207429D01*
X03322567Y03204346D01*
X03321474Y03201056D01*
X03321122Y03199357D01*
X03321122D01*
X03321122Y03199357D01*
Y03199357D01*
X03307172D01*
X03307388Y03201410D01*
X03308281Y03205439D01*
X03309626Y03209343D01*
X03311403Y03213069D01*
X03313590Y03216569D01*
X03316160Y03219800D01*
X03319079Y03222719D01*
X03322310Y03225289D01*
X03325810Y03227476D01*
X03329536Y03229254D01*
X03333439Y03230598D01*
X03337469Y03231491D01*
X03339522Y03231707D01*
X03339522Y03231707D01*
X03339522Y03217757D01*
D02*
G37*
G36*
X03379872Y03191357D02*
X03379656Y03189304D01*
X03378763Y03185274D01*
X03377419Y03181371D01*
X03375641Y03177645D01*
X03373454Y03174144D01*
X03370884Y03170914D01*
X03367965Y03167995D01*
X03364734Y03165425D01*
X03361234Y03163238D01*
X03357508Y03161460D01*
X03353605Y03160116D01*
X03349575Y03159223D01*
X03347522Y03159007D01*
Y03172957D01*
X03349221Y03173309D01*
X03352511Y03174402D01*
X03355594Y03175989D01*
X03358394Y03178033D01*
X03360846Y03180484D01*
X03362890Y03183285D01*
X03364477Y03186367D01*
X03365570Y03189658D01*
X03365922Y03191357D01*
Y03191357D01*
X03379872Y03191357D01*
D02*
G37*
G36*
X03347522Y03159007D02*
X03347522D01*
X03347522D01*
D01*
D02*
G37*
G36*
X03321122Y03191357D02*
X03321474Y03189658D01*
X03322567Y03186367D01*
X03324154Y03183285D01*
X03326198Y03180484D01*
X03328650Y03178033D01*
X03331450Y03175989D01*
X03334533Y03174402D01*
X03337823Y03173309D01*
X03339522Y03172957D01*
X03339522Y03159007D01*
X03339522D01*
X03337469Y03159223D01*
X03333439Y03160116D01*
X03329536Y03161460D01*
X03325810Y03163238D01*
X03322310Y03165425D01*
X03319079Y03167995D01*
X03316160Y03170914D01*
X03313590Y03174144D01*
X03311403Y03177645D01*
X03309626Y03181371D01*
X03308281Y03185274D01*
X03307388Y03189304D01*
X03307172Y03191357D01*
X03321122Y03191357D01*
Y03191357D01*
D02*
G37*
G36*
X02597522Y02904207D02*
X02599575Y02903991D01*
X02603605Y02903098D01*
X02607508Y02901754D01*
X02611234Y02899976D01*
X02614734Y02897789D01*
X02617965Y02895219D01*
X02620884Y02892300D01*
X02623454Y02889069D01*
X02625641Y02885569D01*
X02627419Y02881843D01*
X02628763Y02877939D01*
X02629656Y02873910D01*
X02629872Y02871857D01*
X02615922D01*
X02615922Y02871857D01*
X02615570Y02873556D01*
X02614477Y02876846D01*
X02612890Y02879929D01*
X02610846Y02882729D01*
X02608394Y02885181D01*
X02605594Y02887225D01*
X02602511Y02888812D01*
X02599221Y02889905D01*
X02597522Y02890257D01*
Y02904207D01*
X02597522D01*
X02597522Y02904207D01*
Y02904207D01*
D02*
G37*
G36*
X02589522Y02890257D02*
X02587823Y02889905D01*
X02584533Y02888812D01*
X02581450Y02887225D01*
X02578650Y02885181D01*
X02576198Y02882729D01*
X02574154Y02879929D01*
X02572567Y02876846D01*
X02571474Y02873556D01*
X02571122Y02871857D01*
X02571122D01*
X02571122Y02871857D01*
Y02871857D01*
X02557172D01*
X02557388Y02873910D01*
X02558281Y02877939D01*
X02559625Y02881843D01*
X02561403Y02885569D01*
X02563590Y02889069D01*
X02566160Y02892300D01*
X02569079Y02895219D01*
X02572310Y02897789D01*
X02575810Y02899976D01*
X02579536Y02901754D01*
X02583439Y02903098D01*
X02587469Y02903991D01*
X02589522Y02904207D01*
X02589522Y02904207D01*
X02589522Y02890257D01*
D02*
G37*
G36*
X02629872Y02863857D02*
X02629656Y02861804D01*
X02628763Y02857774D01*
X02627419Y02853871D01*
X02625641Y02850145D01*
X02623454Y02846644D01*
X02620884Y02843414D01*
X02617965Y02840495D01*
X02614734Y02837925D01*
X02611234Y02835738D01*
X02607508Y02833960D01*
X02603605Y02832616D01*
X02599575Y02831723D01*
X02597522Y02831507D01*
Y02845457D01*
X02599221Y02845809D01*
X02602511Y02846902D01*
X02605594Y02848489D01*
X02608394Y02850533D01*
X02610846Y02852984D01*
X02612890Y02855785D01*
X02614477Y02858867D01*
X02615570Y02862158D01*
X02615922Y02863857D01*
Y02863857D01*
X02629872Y02863857D01*
D02*
G37*
G36*
X02597522Y02831507D02*
X02597522D01*
X02597522D01*
D01*
D02*
G37*
G36*
X02571122Y02863857D02*
X02571474Y02862158D01*
X02572567Y02858867D01*
X02574154Y02855785D01*
X02576198Y02852984D01*
X02578650Y02850533D01*
X02581450Y02848489D01*
X02584533Y02846902D01*
X02587823Y02845809D01*
X02589522Y02845457D01*
X02589522Y02831507D01*
X02589522D01*
X02587469Y02831723D01*
X02583439Y02832616D01*
X02579536Y02833960D01*
X02575810Y02835738D01*
X02572310Y02837925D01*
X02569079Y02840495D01*
X02566160Y02843414D01*
X02563590Y02846644D01*
X02561403Y02850145D01*
X02559625Y02853871D01*
X02558281Y02857774D01*
X02557388Y02861804D01*
X02557172Y02863857D01*
X02571122Y02863857D01*
Y02863857D01*
D02*
G37*
G36*
X03347522Y02839957D02*
X03349575Y02839741D01*
X03353605Y02838847D01*
X03357508Y02837503D01*
X03361234Y02835726D01*
X03364734Y02833539D01*
X03367965Y02830969D01*
X03370884Y02828050D01*
X03373454Y02824819D01*
X03375641Y02821319D01*
X03377419Y02817593D01*
X03378763Y02813690D01*
X03379656Y02809659D01*
X03379872Y02807607D01*
X03365922D01*
X03365922Y02807607D01*
X03365570Y02809306D01*
X03364477Y02812596D01*
X03362890Y02815679D01*
X03360846Y02818479D01*
X03358394Y02820931D01*
X03355594Y02822975D01*
X03352511Y02824562D01*
X03349221Y02825655D01*
X03347522Y02826007D01*
Y02839957D01*
X03347522D01*
X03347522Y02839957D01*
Y02839957D01*
D02*
G37*
G36*
X03339522Y02826007D02*
X03337823Y02825655D01*
X03334533Y02824562D01*
X03331450Y02822975D01*
X03328650Y02820931D01*
X03326198Y02818479D01*
X03324154Y02815679D01*
X03322567Y02812596D01*
X03321474Y02809306D01*
X03321122Y02807607D01*
X03321122D01*
X03321122Y02807607D01*
Y02807607D01*
X03307172D01*
X03307388Y02809659D01*
X03308281Y02813690D01*
X03309626Y02817593D01*
X03311403Y02821319D01*
X03313590Y02824819D01*
X03316160Y02828050D01*
X03319079Y02830969D01*
X03322310Y02833539D01*
X03325810Y02835726D01*
X03329536Y02837503D01*
X03333439Y02838847D01*
X03337469Y02839741D01*
X03339522Y02839957D01*
X03339522Y02839957D01*
X03339522Y02826007D01*
D02*
G37*
G54D19*
X01038734Y00433739D02*
Y00588679D01*
X00412751D02*
X02089532D01*
X01360552Y00537032D02*
Y00588679D01*
X01573912Y00537032D02*
Y00588679D01*
X01731900Y00432088D02*
Y00483608D01*
X01429894Y00433739D02*
X02089532D01*
X00412751D02*
X00812928D01*
X00412624Y00537032D02*
X02089532D01*
X00412624Y00433739D02*
X01429894D01*
X00412624Y00485386D02*
X02089024D01*
X00412624Y00433739D02*
Y00588679D01*
X00412751Y00433739D02*
Y00588679D01*
X02089532Y00433739D02*
Y00588679D01*
G54D22*
X00633350Y00508589D02*
Y00503591D01*
X00635849D01*
X00636682Y00504424D01*
Y00505257D01*
X00635849Y00506090D01*
X00633350D01*
X00635849D01*
X00636682Y00506923D01*
Y00507756D01*
X00635849Y00508589D01*
X00633350D01*
X00639182Y00503591D02*
X00640848D01*
X00641681Y00504424D01*
Y00506090D01*
X00640848Y00506923D01*
X00639182D01*
X00638349Y00506090D01*
Y00504424D01*
X00639182Y00503591D01*
X00644180Y00507756D02*
Y00506923D01*
X00643347D01*
X00645013D01*
X00644180D01*
Y00504424D01*
X00645013Y00503591D01*
X00648345Y00507756D02*
Y00506923D01*
X00647512D01*
X00649178D01*
X00648345D01*
Y00504424D01*
X00649178Y00503591D01*
X00652511D02*
X00654177D01*
X00655010Y00504424D01*
Y00506090D01*
X00654177Y00506923D01*
X00652511D01*
X00651677Y00506090D01*
Y00504424D01*
X00652511Y00503591D01*
X00656676D02*
Y00506923D01*
X00657509D01*
X00658342Y00506090D01*
Y00503591D01*
Y00506090D01*
X00659175Y00506923D01*
X00660008Y00506090D01*
Y00503591D01*
X00666673D02*
Y00508589D01*
X00669172D01*
X00670005Y00507756D01*
Y00506090D01*
X00669172Y00505257D01*
X00666673D01*
X00672504Y00506923D02*
X00674170D01*
X00675003Y00506090D01*
Y00503591D01*
X00672504D01*
X00671671Y00504424D01*
X00672504Y00505257D01*
X00675003D01*
X00676669Y00503591D02*
X00679168D01*
X00680002Y00504424D01*
X00679168Y00505257D01*
X00677502D01*
X00676669Y00506090D01*
X00677502Y00506923D01*
X00680002D01*
X00682501Y00507756D02*
Y00506923D01*
X00681668D01*
X00683334D01*
X00682501D01*
Y00504424D01*
X00683334Y00503591D01*
X00688332D02*
X00686666D01*
X00685833Y00504424D01*
Y00506090D01*
X00686666Y00506923D01*
X00688332D01*
X00689165Y00506090D01*
Y00505257D01*
X00685833D01*
X00428753Y00555109D02*
Y00558441D01*
X00430419Y00560107D01*
X00432085Y00558441D01*
Y00555109D01*
Y00557608D01*
X00428753D01*
X00433751Y00560107D02*
Y00555109D01*
X00437084D01*
X00438750Y00560107D02*
Y00555109D01*
X00442082D01*
X00448747D02*
Y00558441D01*
X00450413Y00560107D01*
X00452079Y00558441D01*
Y00555109D01*
Y00557608D01*
X00448747D01*
X00453745Y00555109D02*
Y00560107D01*
X00456244D01*
X00457077Y00559274D01*
Y00557608D01*
X00456244Y00556775D01*
X00453745D01*
X00455411D02*
X00457077Y00555109D01*
X00458743Y00560107D02*
X00462076D01*
X00460410D01*
Y00555109D01*
X00463742Y00560107D02*
Y00555109D01*
X00465408Y00556775D01*
X00467074Y00555109D01*
Y00560107D01*
X00471239D02*
X00469573D01*
X00468740Y00559274D01*
Y00555942D01*
X00469573Y00555109D01*
X00471239D01*
X00472072Y00555942D01*
Y00559274D01*
X00471239Y00560107D01*
X00473738Y00555109D02*
Y00560107D01*
X00476238D01*
X00477071Y00559274D01*
Y00557608D01*
X00476238Y00556775D01*
X00473738D01*
X00475405D02*
X00477071Y00555109D01*
X00478737Y00560107D02*
Y00555109D01*
Y00556775D01*
X00482069Y00560107D01*
X00479570Y00557608D01*
X00482069Y00555109D01*
X00488733Y00560107D02*
Y00556775D01*
X00490400Y00555109D01*
X00492066Y00556775D01*
Y00560107D01*
X00493732D02*
X00495398D01*
X00494565D01*
Y00555109D01*
X00493732D01*
X00495398D01*
X00501230Y00560107D02*
X00497897D01*
Y00555109D01*
X00501230D01*
X00497897Y00557608D02*
X00499563D01*
X00502896Y00560107D02*
Y00555109D01*
X00504562Y00556775D01*
X00506228Y00555109D01*
Y00560107D01*
X00511226D02*
X00507894D01*
Y00555109D01*
X00511226D01*
X00507894Y00557608D02*
X00509560D01*
X00512892Y00560107D02*
Y00555109D01*
X00515392D01*
X00516225Y00555942D01*
Y00559274D01*
X00515392Y00560107D01*
X00512892D01*
X00526221D02*
X00522889D01*
Y00557608D01*
X00524555D01*
X00522889D01*
Y00555109D01*
X00527887D02*
Y00560107D01*
X00530387D01*
X00531220Y00559274D01*
Y00557608D01*
X00530387Y00556775D01*
X00527887D01*
X00529553D02*
X00531220Y00555109D01*
X00535385Y00560107D02*
X00533719D01*
X00532886Y00559274D01*
Y00555942D01*
X00533719Y00555109D01*
X00535385D01*
X00536218Y00555942D01*
Y00559274D01*
X00535385Y00560107D01*
X00537884Y00555109D02*
Y00560107D01*
X00539550Y00558441D01*
X00541216Y00560107D01*
Y00555109D01*
X00547881Y00560107D02*
X00551213D01*
X00549547D01*
Y00555109D01*
X00555378Y00560107D02*
X00553712D01*
X00552879Y00559274D01*
Y00555942D01*
X00553712Y00555109D01*
X00555378D01*
X00556212Y00555942D01*
Y00559274D01*
X00555378Y00560107D01*
X00557878Y00555109D02*
Y00560107D01*
X00560377D01*
X00561210Y00559274D01*
Y00557608D01*
X00560377Y00556775D01*
X00557878D01*
X00571207Y00559274D02*
X00570373Y00560107D01*
X00568707D01*
X00567874Y00559274D01*
Y00558441D01*
X00568707Y00557608D01*
X00570373D01*
X00571207Y00556775D01*
Y00555942D01*
X00570373Y00555109D01*
X00568707D01*
X00567874Y00555942D01*
X00572873Y00560107D02*
X00574539D01*
X00573706D01*
Y00555109D01*
X00572873D01*
X00574539D01*
X00577038Y00560107D02*
Y00555109D01*
X00579537D01*
X00580370Y00555942D01*
Y00559274D01*
X00579537Y00560107D01*
X00577038D01*
X00585369D02*
X00582036D01*
Y00555109D01*
X00585369D01*
X00582036Y00557608D02*
X00583703D01*
X00428753Y00451307D02*
Y00456305D01*
X00431252D01*
X00432085Y00455472D01*
Y00453806D01*
X00431252Y00452973D01*
X00428753D01*
X00433751Y00456305D02*
Y00451307D01*
X00437084D01*
X00441249Y00456305D02*
X00439583D01*
X00438750Y00455472D01*
Y00452140D01*
X00439583Y00451307D01*
X00441249D01*
X00442082Y00452140D01*
Y00455472D01*
X00441249Y00456305D01*
X00443748D02*
X00447080D01*
X00445414D01*
Y00451307D01*
X00453745D02*
Y00456305D01*
X00457077Y00451307D01*
Y00456305D01*
X00458743Y00451307D02*
Y00454639D01*
X00460410Y00456305D01*
X00462076Y00454639D01*
Y00451307D01*
Y00453806D01*
X00458743D01*
X00463742Y00451307D02*
Y00456305D01*
X00465408Y00454639D01*
X00467074Y00456305D01*
Y00451307D01*
X00472072Y00456305D02*
X00468740D01*
Y00451307D01*
X00472072D01*
X00468740Y00453806D02*
X00470406D01*
X00478737Y00452973D02*
X00482069D01*
X00478737Y00454639D02*
X00482069D01*
X00428753Y00508589D02*
Y00503591D01*
X00432085D01*
X00433751D02*
Y00506923D01*
X00435418Y00508589D01*
X00437084Y00506923D01*
Y00503591D01*
Y00506090D01*
X00433751D01*
X00438750Y00508589D02*
Y00507756D01*
X00440416Y00506090D01*
X00442082Y00507756D01*
Y00508589D01*
X00440416Y00506090D02*
Y00503591D01*
X00447080Y00508589D02*
X00443748D01*
Y00503591D01*
X00447080D01*
X00443748Y00506090D02*
X00445414D01*
X00448747Y00503591D02*
Y00508589D01*
X00451246D01*
X00452079Y00507756D01*
Y00506090D01*
X00451246Y00505257D01*
X00448747D01*
X00450413D02*
X00452079Y00503591D01*
X00458743D02*
Y00508589D01*
X00462076Y00503591D01*
Y00508589D01*
X00463742Y00503591D02*
Y00506923D01*
X00465408Y00508589D01*
X00467074Y00506923D01*
Y00503591D01*
Y00506090D01*
X00463742D01*
X00468740Y00503591D02*
Y00508589D01*
X00470406Y00506923D01*
X00472072Y00508589D01*
Y00503591D01*
X00477071Y00508589D02*
X00473738D01*
Y00503591D01*
X00477071D01*
X00473738Y00506090D02*
X00475405D01*
X00483735Y00505257D02*
X00487067D01*
X00483735Y00506923D02*
X00487067D01*
X01057784Y00560107D02*
Y00555109D01*
X01060283D01*
X01061116Y00555942D01*
Y00556775D01*
X01060283Y00557608D01*
X01057784D01*
X01060283D01*
X01061116Y00558441D01*
Y00559274D01*
X01060283Y00560107D01*
X01057784D01*
X01065282D02*
X01063616D01*
X01062783Y00559274D01*
Y00555942D01*
X01063616Y00555109D01*
X01065282D01*
X01066115Y00555942D01*
Y00559274D01*
X01065282Y00560107D01*
X01067781Y00555109D02*
Y00558441D01*
X01069447Y00560107D01*
X01071113Y00558441D01*
Y00555109D01*
Y00557608D01*
X01067781D01*
X01072779Y00555109D02*
Y00560107D01*
X01075278D01*
X01076112Y00559274D01*
Y00557608D01*
X01075278Y00556775D01*
X01072779D01*
X01074445D02*
X01076112Y00555109D01*
X01077778Y00560107D02*
Y00555109D01*
X01080277D01*
X01081110Y00555942D01*
Y00559274D01*
X01080277Y00560107D01*
X01077778D01*
X01088607Y00555109D02*
Y00560107D01*
X01090274D02*
Y00555109D01*
X01087774Y00558441D02*
X01090274D01*
X01091107D01*
X01087774Y00556775D02*
X01091107D01*
X01092773Y00558441D02*
X01093606D01*
Y00557608D01*
X01092773D01*
Y00558441D01*
Y00555942D02*
X01093606D01*
Y00555109D01*
X01092773D01*
Y00555942D01*
X00633350Y00456305D02*
X00636682D01*
X00635016D01*
Y00451307D01*
X00638349Y00456305D02*
X00640015D01*
X00639182D01*
Y00451307D01*
X00638349D01*
X00640015D01*
X00642514Y00456305D02*
Y00451307D01*
X00645013D01*
X00645846Y00452140D01*
Y00455472D01*
X00645013Y00456305D01*
X00642514D01*
X00647512Y00451307D02*
Y00454639D01*
X00649178Y00456305D01*
X00650844Y00454639D01*
Y00451307D01*
Y00453806D01*
X00647512D01*
X00652511D02*
X00655843D01*
X00657509Y00455472D02*
X00658342Y00456305D01*
X00660008D01*
X00660841Y00455472D01*
Y00452140D01*
X00660008Y00451307D01*
X00658342D01*
X00657509Y00452140D01*
Y00455472D01*
X00662507Y00451307D02*
X00664173D01*
X00663340D01*
Y00456305D01*
X00662507Y00455472D01*
X00666673D02*
X00667506Y00456305D01*
X00669172D01*
X00670005Y00455472D01*
Y00452140D01*
X00669172Y00451307D01*
X00667506D01*
X00666673Y00452140D01*
Y00455472D01*
X00671671Y00452140D02*
X00672504Y00451307D01*
X00674170D01*
X00675003Y00452140D01*
Y00455472D01*
X00674170Y00456305D01*
X00672504D01*
X00671671Y00455472D01*
Y00454639D01*
X00672504Y00453806D01*
X00675003D01*
X00676669Y00455472D02*
X00677502Y00456305D01*
X00679168D01*
X00680002Y00455472D01*
Y00454639D01*
X00679168Y00453806D01*
X00678335D01*
X00679168D01*
X00680002Y00452973D01*
Y00452140D01*
X00679168Y00451307D01*
X00677502D01*
X00676669Y00452140D01*
X00681668Y00455472D02*
X00682501Y00456305D01*
X00684167D01*
X00685000Y00455472D01*
Y00454639D01*
X00684167Y00453806D01*
X00685000Y00452973D01*
Y00452140D01*
X00684167Y00451307D01*
X00682501D01*
X00681668Y00452140D01*
Y00452973D01*
X00682501Y00453806D01*
X00681668Y00454639D01*
Y00455472D01*
X00682501Y00453806D02*
X00684167D01*
X00691665Y00451307D02*
Y00454639D01*
X00693331Y00456305D01*
X00694997Y00454639D01*
Y00451307D01*
Y00453806D01*
X00691665D01*
X00699995Y00455472D02*
X00699162Y00456305D01*
X00697496D01*
X00696663Y00455472D01*
Y00452140D01*
X00697496Y00451307D01*
X00699162D01*
X00699995Y00452140D01*
X00701661Y00453806D02*
X00704993D01*
X00706659Y00456305D02*
Y00451307D01*
X00709159D01*
X00709992Y00452140D01*
Y00455472D01*
X00709159Y00456305D01*
X00706659D01*
X00714990Y00455472D02*
X00714157Y00456305D01*
X00712491D01*
X00711658Y00455472D01*
Y00452140D01*
X00712491Y00451307D01*
X00714157D01*
X00714990Y00452140D01*
X00719988Y00456305D02*
X00716656D01*
Y00451307D01*
X00719988D01*
X00716656Y00453806D02*
X00718322D01*
X00721655Y00451307D02*
X00723321D01*
X00722488D01*
Y00456305D01*
X00721655Y00455472D01*
X00725820Y00451307D02*
Y00452140D01*
X00726653D01*
Y00451307D01*
X00725820D01*
X00733317Y00455472D02*
X00732485Y00456305D01*
X00730818D01*
X00729985Y00455472D01*
Y00452140D01*
X00730818Y00451307D01*
X00732485D01*
X00733317Y00452140D01*
Y00453806D01*
X00731651D01*
X00734984Y00456305D02*
Y00451307D01*
X00737483D01*
X00738316Y00452140D01*
Y00452973D01*
X00737483Y00453806D01*
X00734984D01*
X00737483D01*
X00738316Y00454639D01*
Y00455472D01*
X00737483Y00456305D01*
X00734984D01*
X00739982Y00451307D02*
Y00456305D01*
X00742481D01*
X00743314Y00455472D01*
Y00453806D01*
X00742481Y00452973D01*
X00739982D01*
X01752220Y00555109D02*
Y00560107D01*
X01755552Y00555109D01*
Y00560107D01*
X01758052Y00555109D02*
X01759718D01*
X01760551Y00555942D01*
Y00557608D01*
X01759718Y00558441D01*
X01758052D01*
X01757218Y00557608D01*
Y00555942D01*
X01758052Y00555109D01*
X01763050Y00559274D02*
Y00558441D01*
X01762217D01*
X01763883D01*
X01763050D01*
Y00555942D01*
X01763883Y00555109D01*
X01771381D02*
X01773047D01*
X01772214D01*
Y00558441D01*
X01771381D01*
X01775546Y00555109D02*
Y00558441D01*
X01778045D01*
X01778878Y00557608D01*
Y00555109D01*
X01785543Y00558441D02*
X01787209Y00555109D01*
X01788875Y00558441D01*
X01793040Y00555109D02*
X01791374D01*
X01790541Y00555942D01*
Y00557608D01*
X01791374Y00558441D01*
X01793040D01*
X01793873Y00557608D01*
Y00556775D01*
X01790541D01*
X01795539Y00558441D02*
Y00555109D01*
Y00556775D01*
X01796372Y00557608D01*
X01797206Y00558441D01*
X01798038D01*
X01800538Y00555109D02*
X01803037D01*
X01803870Y00555942D01*
X01803037Y00556775D01*
X01801371D01*
X01800538Y00557608D01*
X01801371Y00558441D01*
X01803870D01*
X01805536Y00555109D02*
X01807202D01*
X01806369D01*
Y00558441D01*
X01805536D01*
X01810535Y00555109D02*
X01812201D01*
X01813034Y00555942D01*
Y00557608D01*
X01812201Y00558441D01*
X01810535D01*
X01809701Y00557608D01*
Y00555942D01*
X01810535Y00555109D01*
X01814700D02*
Y00558441D01*
X01817199D01*
X01818032Y00557608D01*
Y00555109D01*
X01828029Y00558441D02*
X01825530D01*
X01824697Y00557608D01*
Y00555942D01*
X01825530Y00555109D01*
X01828029D01*
X01830528D02*
X01832194D01*
X01833027Y00555942D01*
Y00557608D01*
X01832194Y00558441D01*
X01830528D01*
X01829695Y00557608D01*
Y00555942D01*
X01830528Y00555109D01*
X01834693D02*
Y00558441D01*
X01837192D01*
X01838026Y00557608D01*
Y00555109D01*
X01840525Y00559274D02*
Y00558441D01*
X01839692D01*
X01841358D01*
X01840525D01*
Y00555942D01*
X01841358Y00555109D01*
X01843857Y00558441D02*
Y00555109D01*
Y00556775D01*
X01844690Y00557608D01*
X01845523Y00558441D01*
X01846356D01*
X01849688Y00555109D02*
X01851355D01*
X01852188Y00555942D01*
Y00557608D01*
X01851355Y00558441D01*
X01849688D01*
X01848855Y00557608D01*
Y00555942D01*
X01849688Y00555109D01*
X01853854D02*
X01855520D01*
X01854687D01*
Y00560107D01*
X01853854D01*
X01410844Y00555109D02*
Y00560107D01*
X01413343D01*
X01414176Y00559274D01*
Y00557608D01*
X01413343Y00556775D01*
X01410844D01*
X01412510D02*
X01414176Y00555109D01*
X01419175Y00560107D02*
X01415842D01*
Y00555109D01*
X01419175D01*
X01415842Y00557608D02*
X01417509D01*
X01420841Y00560107D02*
Y00556775D01*
X01422507Y00555109D01*
X01424173Y00556775D01*
Y00560107D01*
X01425839Y00558441D02*
X01426672D01*
Y00557608D01*
X01425839D01*
Y00558441D01*
Y00555942D02*
X01426672D01*
Y00555109D01*
X01425839D01*
Y00555942D01*
X01488217Y00560107D02*
X01484885D01*
Y00555109D01*
X01488217D01*
X01484885Y00557608D02*
X01486551D01*
X01489884Y00555109D02*
X01491550D01*
X01490717D01*
Y00560107D01*
X01489884Y00559274D01*
X01627028D02*
X01626195Y00560107D01*
X01624529D01*
X01623696Y00559274D01*
Y00558441D01*
X01624529Y00557608D01*
X01626195D01*
X01627028Y00556775D01*
Y00555942D01*
X01626195Y00555109D01*
X01624529D01*
X01623696Y00555942D01*
X01628694Y00560107D02*
Y00556775D01*
X01630361Y00555109D01*
X01632027Y00556775D01*
Y00560107D01*
X01633693Y00555109D02*
Y00560107D01*
X01637025Y00555109D01*
Y00560107D01*
X01643690Y00555109D02*
Y00560107D01*
X01646189D01*
X01647022Y00559274D01*
Y00557608D01*
X01646189Y00556775D01*
X01643690D01*
X01645356D02*
X01647022Y00555109D01*
X01652020Y00560107D02*
X01648688D01*
Y00555109D01*
X01652020D01*
X01648688Y00557608D02*
X01650354D01*
X01653686Y00560107D02*
Y00556775D01*
X01655352Y00555109D01*
X01657019Y00556775D01*
Y00560107D01*
X01658685Y00558441D02*
X01659518D01*
Y00557608D01*
X01658685D01*
Y00558441D01*
Y00555942D02*
X01659518D01*
Y00555109D01*
X01658685D01*
Y00555942D01*
X01785494Y00456305D02*
X01788826D01*
X01787160D01*
Y00451307D01*
X01793825Y00456305D02*
X01790493D01*
Y00451307D01*
X01793825D01*
X01790493Y00453806D02*
X01792159D01*
X01795491Y00456305D02*
X01798823Y00451307D01*
Y00456305D02*
X01795491Y00451307D01*
X01800489D02*
Y00454639D01*
X01802155Y00456305D01*
X01803822Y00454639D01*
Y00451307D01*
Y00453806D01*
X01800489D01*
X01808820Y00455472D02*
X01807987Y00456305D01*
X01806321D01*
X01805488Y00455472D01*
Y00454639D01*
X01806321Y00453806D01*
X01807987D01*
X01808820Y00452973D01*
Y00452140D01*
X01807987Y00451307D01*
X01806321D01*
X01805488Y00452140D01*
X01815484Y00456305D02*
X01817151D01*
X01816317D01*
Y00451307D01*
X01815484D01*
X01817151D01*
X01819650D02*
Y00456305D01*
X01822982Y00451307D01*
Y00456305D01*
X01827980Y00455472D02*
X01827147Y00456305D01*
X01825481D01*
X01824648Y00455472D01*
Y00454639D01*
X01825481Y00453806D01*
X01827147D01*
X01827980Y00452973D01*
Y00452140D01*
X01827147Y00451307D01*
X01825481D01*
X01824648Y00452140D01*
X01829646Y00456305D02*
X01832979D01*
X01831313D01*
Y00451307D01*
X01834645D02*
Y00456305D01*
X01837144D01*
X01837977Y00455472D01*
Y00453806D01*
X01837144Y00452973D01*
X01834645D01*
X01836311D02*
X01837977Y00451307D01*
X01839643Y00456305D02*
Y00452140D01*
X01840476Y00451307D01*
X01842142D01*
X01842975Y00452140D01*
Y00456305D01*
X01844642Y00451307D02*
Y00456305D01*
X01846308Y00454639D01*
X01847974Y00456305D01*
Y00451307D01*
X01852972Y00456305D02*
X01849640D01*
Y00451307D01*
X01852972D01*
X01849640Y00453806D02*
X01851306D01*
X01854638Y00451307D02*
Y00456305D01*
X01857970Y00451307D01*
Y00456305D01*
X01859637D02*
X01862969D01*
X01861303D01*
Y00451307D01*
X01867967Y00455472D02*
X01867134Y00456305D01*
X01865468D01*
X01864635Y00455472D01*
Y00454639D01*
X01865468Y00453806D01*
X01867134D01*
X01867967Y00452973D01*
Y00452140D01*
X01867134Y00451307D01*
X01865468D01*
X01864635Y00452140D01*
X01196341Y00560107D02*
X01199673D01*
X01198007D01*
Y00555109D01*
X01201339Y00560107D02*
X01203006D01*
X01202173D01*
Y00555109D01*
X01201339D01*
X01203006D01*
X01205505Y00560107D02*
Y00555109D01*
X01208004D01*
X01208837Y00555942D01*
Y00559274D01*
X01208004Y00560107D01*
X01205505D01*
X01210503Y00555109D02*
Y00558441D01*
X01212169Y00560107D01*
X01213836Y00558441D01*
Y00555109D01*
Y00557608D01*
X01210503D01*
X01215502D02*
X01218834D01*
X01220500Y00559274D02*
X01221333Y00560107D01*
X01222999D01*
X01223832Y00559274D01*
Y00555942D01*
X01222999Y00555109D01*
X01221333D01*
X01220500Y00555942D01*
Y00559274D01*
X01225498Y00555109D02*
X01227164D01*
X01226331D01*
Y00560107D01*
X01225498Y00559274D01*
X01229664D02*
X01230497Y00560107D01*
X01232163D01*
X01232996Y00559274D01*
Y00555942D01*
X01232163Y00555109D01*
X01230497D01*
X01229664Y00555942D01*
Y00559274D01*
X01234662Y00555942D02*
X01235495Y00555109D01*
X01237161D01*
X01237994Y00555942D01*
Y00559274D01*
X01237161Y00560107D01*
X01235495D01*
X01234662Y00559274D01*
Y00558441D01*
X01235495Y00557608D01*
X01237994D01*
X01239660Y00559274D02*
X01240493Y00560107D01*
X01242160D01*
X01242993Y00559274D01*
Y00558441D01*
X01242160Y00557608D01*
X01241327D01*
X01242160D01*
X01242993Y00556775D01*
Y00555942D01*
X01242160Y00555109D01*
X01240493D01*
X01239660Y00555942D01*
X01244659Y00559274D02*
X01245492Y00560107D01*
X01247158D01*
X01247991Y00559274D01*
Y00558441D01*
X01247158Y00557608D01*
X01247991Y00556775D01*
Y00555942D01*
X01247158Y00555109D01*
X01245492D01*
X01244659Y00555942D01*
Y00556775D01*
X01245492Y00557608D01*
X01244659Y00558441D01*
Y00559274D01*
X01245492Y00557608D02*
X01247158D01*
X01254656Y00555109D02*
Y00558441D01*
X01256322Y00560107D01*
X01257988Y00558441D01*
Y00555109D01*
Y00557608D01*
X01254656D01*
X01262986Y00559274D02*
X01262153Y00560107D01*
X01260487D01*
X01259654Y00559274D01*
Y00555942D01*
X01260487Y00555109D01*
X01262153D01*
X01262986Y00555942D01*
X01264652Y00557608D02*
X01267984D01*
X01269650Y00560107D02*
Y00555109D01*
X01272150D01*
X01272983Y00555942D01*
Y00559274D01*
X01272150Y00560107D01*
X01269650D01*
X01277981Y00559274D02*
X01277148Y00560107D01*
X01275482D01*
X01274649Y00559274D01*
Y00555942D01*
X01275482Y00555109D01*
X01277148D01*
X01277981Y00555942D01*
X01057784Y00508460D02*
X01061116D01*
X01059450D01*
Y00503462D01*
X01062783Y00508460D02*
X01064449D01*
X01063616D01*
Y00503462D01*
X01062783D01*
X01064449D01*
X01066948Y00508460D02*
Y00503462D01*
X01069447D01*
X01070280Y00504295D01*
Y00507627D01*
X01069447Y00508460D01*
X01066948D01*
X01077778Y00503462D02*
Y00508460D01*
X01079444D02*
Y00503462D01*
X01076945Y00506794D02*
X01079444D01*
X01080277D01*
X01076945Y00505128D02*
X01080277D01*
X01081943Y00506794D02*
X01082776D01*
Y00505961D01*
X01081943D01*
Y00506794D01*
Y00504295D02*
X01082776D01*
Y00503462D01*
X01081943D01*
Y00504295D01*
X01061624Y00455472D02*
X01060791Y00456305D01*
X01059125D01*
X01058292Y00455472D01*
Y00452140D01*
X01059125Y00451307D01*
X01060791D01*
X01061624Y00452140D01*
Y00453806D01*
X01059958D01*
X01066623Y00456305D02*
X01063290D01*
Y00451307D01*
X01066623D01*
X01063290Y00453806D02*
X01064957D01*
X01068289Y00451307D02*
Y00456305D01*
X01071621Y00451307D01*
Y00456305D01*
X01076619D02*
X01073287D01*
Y00451307D01*
X01076619D01*
X01073287Y00453806D02*
X01074953D01*
X01078286Y00451307D02*
Y00456305D01*
X01080785D01*
X01081618Y00455472D01*
Y00453806D01*
X01080785Y00452973D01*
X01078286D01*
X01079952D02*
X01081618Y00451307D01*
X01083284D02*
Y00454639D01*
X01084950Y00456305D01*
X01086616Y00454639D01*
Y00451307D01*
Y00453806D01*
X01083284D01*
X01088282Y00456305D02*
X01091615D01*
X01089949D01*
Y00451307D01*
X01096613Y00456305D02*
X01093281D01*
Y00451307D01*
X01096613D01*
X01093281Y00453806D02*
X01094947D01*
X01098279Y00456305D02*
Y00451307D01*
X01100778D01*
X01101611Y00452140D01*
Y00455472D01*
X01100778Y00456305D01*
X01098279D01*
X01123271Y00454639D02*
X01124104D01*
Y00453806D01*
X01123271D01*
Y00454639D01*
Y00452140D02*
X01124104D01*
Y00451307D01*
X01123271D01*
Y00452140D01*
X01464311Y00451307D02*
X01465977D01*
X01465144D01*
Y00456305D01*
X01464311Y00455472D01*
X01468477D02*
X01469310Y00456305D01*
X01470976D01*
X01471809Y00455472D01*
Y00452140D01*
X01470976Y00451307D01*
X01469310D01*
X01468477Y00452140D01*
Y00455472D01*
X01473475Y00454639D02*
X01474308D01*
Y00453806D01*
X01473475D01*
Y00454639D01*
Y00452140D02*
X01474308D01*
Y00451307D01*
X01473475D01*
Y00452140D01*
X01477640Y00451307D02*
X01479306D01*
X01478473D01*
Y00456305D01*
X01477640Y00455472D01*
X01484305Y00451307D02*
Y00456305D01*
X01481806Y00453806D01*
X01485138D01*
X01486804Y00454639D02*
X01487637D01*
Y00453806D01*
X01486804D01*
Y00454639D01*
Y00452140D02*
X01487637D01*
Y00451307D01*
X01486804D01*
Y00452140D01*
X01494301Y00456305D02*
X01490969D01*
Y00453806D01*
X01492635Y00454639D01*
X01493468D01*
X01494301Y00453806D01*
Y00452140D01*
X01493468Y00451307D01*
X01491802D01*
X01490969Y00452140D01*
X01498467Y00451307D02*
Y00456305D01*
X01495968Y00453806D01*
X01499300D01*
X01505964Y00451307D02*
Y00454639D01*
X01507630Y00456305D01*
X01509297Y00454639D01*
Y00451307D01*
Y00453806D01*
X01505964D01*
X01510963Y00451307D02*
Y00456305D01*
X01512629Y00454639D01*
X01514295Y00456305D01*
Y00451307D01*
X01196341Y00503462D02*
Y00506794D01*
X01198007Y00508460D01*
X01199673Y00506794D01*
Y00503462D01*
Y00505961D01*
X01196341D01*
X01201339Y00507627D02*
X01202173Y00508460D01*
X01203839D01*
X01204672Y00507627D01*
Y00504295D01*
X01203839Y00503462D01*
X01202173D01*
X01201339Y00504295D01*
Y00507627D01*
X01208837Y00503462D02*
Y00508460D01*
X01206338Y00505961D01*
X01209670D01*
X01211336Y00504295D02*
X01212169Y00503462D01*
X01213835D01*
X01214669Y00504295D01*
Y00507627D01*
X01213835Y00508460D01*
X01212169D01*
X01211336Y00507627D01*
Y00506794D01*
X01212169Y00505961D01*
X01214669D01*
X01216335Y00507627D02*
X01217168Y00508460D01*
X01218834D01*
X01219667Y00507627D01*
Y00506794D01*
X01218834Y00505961D01*
X01219667Y00505128D01*
Y00504295D01*
X01218834Y00503462D01*
X01217168D01*
X01216335Y00504295D01*
Y00505128D01*
X01217168Y00505961D01*
X01216335Y00506794D01*
Y00507627D01*
X01217168Y00505961D02*
X01218834D01*
X01221333Y00503462D02*
X01222999D01*
X01222166D01*
Y00508460D01*
X01221333Y00507627D01*
X01225498Y00508460D02*
X01228831D01*
Y00507627D01*
X01225498Y00504295D01*
Y00503462D01*
X01233829Y00508460D02*
X01232163Y00507627D01*
X01230497Y00505961D01*
Y00504295D01*
X01231330Y00503462D01*
X01232996D01*
X01233829Y00504295D01*
Y00505128D01*
X01232996Y00505961D01*
X01230497D01*
X01279145Y00451307D02*
X01280811D01*
X01279978D01*
Y00456305D01*
X01279145Y00455472D01*
X01286643Y00451307D02*
X01283311D01*
X01286643Y00454639D01*
Y00455472D01*
X01285810Y00456305D01*
X01284144D01*
X01283311Y00455472D01*
X01288309Y00451307D02*
X01291641Y00454639D01*
X01293307Y00455472D02*
X01294140Y00456305D01*
X01295806D01*
X01296640Y00455472D01*
Y00454639D01*
X01295806Y00453806D01*
X01294973D01*
X01295806D01*
X01296640Y00452973D01*
Y00452140D01*
X01295806Y00451307D01*
X01294140D01*
X01293307Y00452140D01*
X01298306Y00451307D02*
X01301638Y00454639D01*
X01306636Y00451307D02*
X01303304D01*
X01306636Y00454639D01*
Y00455472D01*
X01305803Y00456305D01*
X01304137D01*
X01303304Y00455472D01*
X01308302D02*
X01309135Y00456305D01*
X01310802D01*
X01311635Y00455472D01*
Y00452140D01*
X01310802Y00451307D01*
X01309135D01*
X01308302Y00452140D01*
Y00455472D01*
X01316633Y00451307D02*
X01313301D01*
X01316633Y00454639D01*
Y00455472D01*
X01315800Y00456305D01*
X01314134D01*
X01313301Y00455472D01*
X01318299D02*
X01319132Y00456305D01*
X01320798D01*
X01321631Y00455472D01*
Y00454639D01*
X01320798Y00453806D01*
X01319965D01*
X01320798D01*
X01321631Y00452973D01*
Y00452140D01*
X01320798Y00451307D01*
X01319132D01*
X01318299Y00452140D01*
G54D88*
X03263522Y01560357D02*
D03*
X03248522Y02815357D02*
D03*
X02998522Y03209357D02*
D03*
G54D190*
X02745592Y02535607D02*
D03*
X02745592Y02650107D02*
D03*
X02558952Y02647607D02*
D03*
X02558952Y02533107D02*
D03*
X02745592Y02678107D02*
D03*
X02745592Y02792607D02*
D03*
X02421022Y02505607D02*
D03*
X02421022Y02391107D02*
D03*
X02885592Y02792607D02*
D03*
X02885592Y02678107D02*
D03*
X02558602Y02390857D02*
D03*
X02558602Y02505357D02*
D03*
G54D191*
X02753172Y02535607D02*
D03*
X02759672D02*
D03*
X02766172D02*
D03*
X02772672D02*
D03*
X02779172D02*
D03*
X02785672D02*
D03*
X02792172D02*
D03*
X02798672D02*
D03*
X02805172D02*
D03*
Y02650107D02*
D03*
X02798672D02*
D03*
X02792172D02*
D03*
X02785672D02*
D03*
X02779172D02*
D03*
X02772672D02*
D03*
X02766172D02*
D03*
X02759672D02*
D03*
X02753172D02*
D03*
X02551372Y02647607D02*
D03*
X02544872D02*
D03*
X02538372D02*
D03*
X02531872D02*
D03*
X02525372D02*
D03*
X02518872D02*
D03*
X02512372D02*
D03*
X02505872D02*
D03*
X02499372D02*
D03*
Y02533107D02*
D03*
X02505872D02*
D03*
X02512372D02*
D03*
X02518872D02*
D03*
X02525372D02*
D03*
X02531872D02*
D03*
X02538372D02*
D03*
X02544872D02*
D03*
X02551372D02*
D03*
X02798672Y02678107D02*
D03*
X02805172Y02792607D02*
D03*
X02798672D02*
D03*
X02792172D02*
D03*
X02785672D02*
D03*
X02779172D02*
D03*
X02772672D02*
D03*
X02766172D02*
D03*
X02759672D02*
D03*
X02753172D02*
D03*
X02753172Y02678107D02*
D03*
X02759672D02*
D03*
X02766172D02*
D03*
X02772672D02*
D03*
X02779172D02*
D03*
X02785672D02*
D03*
X02792172D02*
D03*
X02805172D02*
D03*
X02367942Y02505607D02*
D03*
X02413442Y02391107D02*
D03*
X02406942D02*
D03*
X02400442D02*
D03*
X02393942D02*
D03*
X02387442D02*
D03*
X02380942D02*
D03*
X02374442D02*
D03*
X02367942D02*
D03*
X02361442D02*
D03*
X02413442Y02505607D02*
D03*
X02406942D02*
D03*
X02400442D02*
D03*
X02393942D02*
D03*
X02387442D02*
D03*
X02380942D02*
D03*
X02374442D02*
D03*
X02361442D02*
D03*
X02945172Y02678107D02*
D03*
X02932172D02*
D03*
X02925672D02*
D03*
X02919172D02*
D03*
X02912672D02*
D03*
X02906172D02*
D03*
X02899672D02*
D03*
X02893172D02*
D03*
X02893172Y02792607D02*
D03*
X02899672D02*
D03*
X02906172D02*
D03*
X02912672D02*
D03*
X02919172D02*
D03*
X02925672D02*
D03*
X02932172D02*
D03*
X02938672D02*
D03*
X02945172D02*
D03*
X02938672Y02678107D02*
D03*
X02551022Y02390857D02*
D03*
X02544522D02*
D03*
X02538022D02*
D03*
X02531522D02*
D03*
X02525022D02*
D03*
X02518522D02*
D03*
X02512022D02*
D03*
X02505522D02*
D03*
X02499022D02*
D03*
Y02505357D02*
D03*
X02505522D02*
D03*
X02512022D02*
D03*
X02518522D02*
D03*
X02525022D02*
D03*
X02531522D02*
D03*
X02538022D02*
D03*
X02544522D02*
D03*
X02551022D02*
D03*
G54D192*
X02823272Y02540857D02*
D03*
Y02644857D02*
D03*
X02708772D02*
D03*
Y02540857D02*
D03*
X02481272Y02642357D02*
D03*
Y02538357D02*
D03*
X02595772D02*
D03*
Y02642357D02*
D03*
X02823272Y02683357D02*
D03*
Y02787357D02*
D03*
X02708772D02*
D03*
Y02683357D02*
D03*
X02343342Y02500357D02*
D03*
Y02396357D02*
D03*
X02457842D02*
D03*
Y02500357D02*
D03*
X02848772Y02683357D02*
D03*
Y02787357D02*
D03*
X02963272D02*
D03*
Y02683357D02*
D03*
X02595422Y02500107D02*
D03*
Y02396107D02*
D03*
X02480922D02*
D03*
Y02500107D02*
D03*
G54D193*
X02823272Y02550607D02*
D03*
Y02557107D02*
D03*
Y02563607D02*
D03*
Y02570107D02*
D03*
Y02576607D02*
D03*
Y02583107D02*
D03*
Y02589607D02*
D03*
Y02596107D02*
D03*
Y02602607D02*
D03*
Y02609107D02*
D03*
Y02615607D02*
D03*
Y02622107D02*
D03*
Y02628607D02*
D03*
Y02635107D02*
D03*
X02708772D02*
D03*
Y02628607D02*
D03*
Y02622107D02*
D03*
Y02615607D02*
D03*
Y02609107D02*
D03*
Y02602607D02*
D03*
Y02596107D02*
D03*
Y02589607D02*
D03*
Y02583107D02*
D03*
Y02576607D02*
D03*
Y02570107D02*
D03*
Y02563607D02*
D03*
Y02557107D02*
D03*
Y02550607D02*
D03*
X02481272Y02632607D02*
D03*
Y02626107D02*
D03*
Y02619607D02*
D03*
Y02613107D02*
D03*
Y02606607D02*
D03*
Y02600107D02*
D03*
Y02593607D02*
D03*
Y02587107D02*
D03*
Y02580607D02*
D03*
Y02574107D02*
D03*
Y02567607D02*
D03*
Y02561107D02*
D03*
Y02554607D02*
D03*
Y02548107D02*
D03*
X02595772D02*
D03*
Y02554607D02*
D03*
Y02561107D02*
D03*
Y02567607D02*
D03*
Y02574107D02*
D03*
Y02580607D02*
D03*
Y02587107D02*
D03*
Y02593607D02*
D03*
Y02600107D02*
D03*
Y02606607D02*
D03*
Y02613107D02*
D03*
Y02619607D02*
D03*
Y02626107D02*
D03*
Y02632607D02*
D03*
X02823272Y02706107D02*
D03*
Y02712607D02*
D03*
Y02719107D02*
D03*
Y02725607D02*
D03*
Y02732107D02*
D03*
Y02738607D02*
D03*
Y02745107D02*
D03*
Y02751607D02*
D03*
Y02758107D02*
D03*
Y02764607D02*
D03*
Y02771107D02*
D03*
Y02777607D02*
D03*
Y02693107D02*
D03*
Y02699607D02*
D03*
X02708772Y02777607D02*
D03*
Y02771107D02*
D03*
Y02764607D02*
D03*
Y02758107D02*
D03*
Y02751607D02*
D03*
Y02745107D02*
D03*
Y02738607D02*
D03*
Y02732107D02*
D03*
Y02725607D02*
D03*
Y02719107D02*
D03*
Y02712607D02*
D03*
Y02706107D02*
D03*
Y02699607D02*
D03*
Y02693107D02*
D03*
X02343342Y02406107D02*
D03*
Y02412607D02*
D03*
Y02419107D02*
D03*
Y02425607D02*
D03*
Y02432107D02*
D03*
Y02438607D02*
D03*
Y02445107D02*
D03*
Y02451607D02*
D03*
Y02458107D02*
D03*
Y02464607D02*
D03*
Y02471107D02*
D03*
Y02477607D02*
D03*
Y02490607D02*
D03*
Y02484107D02*
D03*
X02457842Y02406107D02*
D03*
Y02412607D02*
D03*
Y02419107D02*
D03*
Y02425607D02*
D03*
Y02432107D02*
D03*
Y02438607D02*
D03*
Y02445107D02*
D03*
Y02451607D02*
D03*
Y02458107D02*
D03*
Y02464607D02*
D03*
Y02471107D02*
D03*
Y02477607D02*
D03*
Y02484107D02*
D03*
Y02490607D02*
D03*
X02963272Y02699607D02*
D03*
Y02693107D02*
D03*
X02848772D02*
D03*
Y02699607D02*
D03*
Y02706107D02*
D03*
Y02712607D02*
D03*
Y02719107D02*
D03*
Y02725607D02*
D03*
Y02732107D02*
D03*
Y02738607D02*
D03*
Y02745107D02*
D03*
Y02751607D02*
D03*
Y02758107D02*
D03*
Y02764607D02*
D03*
Y02771107D02*
D03*
Y02777607D02*
D03*
X02963272D02*
D03*
Y02771107D02*
D03*
Y02764607D02*
D03*
Y02758107D02*
D03*
Y02751607D02*
D03*
Y02745107D02*
D03*
Y02738607D02*
D03*
Y02732107D02*
D03*
Y02725607D02*
D03*
Y02719107D02*
D03*
Y02712607D02*
D03*
Y02706107D02*
D03*
X02595422Y02490357D02*
D03*
Y02483857D02*
D03*
Y02477357D02*
D03*
Y02470857D02*
D03*
Y02464357D02*
D03*
Y02457857D02*
D03*
Y02451357D02*
D03*
Y02444857D02*
D03*
Y02438357D02*
D03*
Y02431857D02*
D03*
Y02425357D02*
D03*
Y02418857D02*
D03*
Y02412357D02*
D03*
Y02405857D02*
D03*
X02480922D02*
D03*
Y02412357D02*
D03*
Y02418857D02*
D03*
Y02425357D02*
D03*
Y02431857D02*
D03*
Y02438357D02*
D03*
Y02444857D02*
D03*
Y02451357D02*
D03*
Y02457857D02*
D03*
Y02464357D02*
D03*
Y02470857D02*
D03*
Y02477357D02*
D03*
Y02483857D02*
D03*
Y02490357D02*
D03*
M02*
