G04*
G04 #@! TF.GenerationSoftware,Altium Limited,Altium Designer,23.1.1 (15)*
G04*
G04 Layer_Color=32896*
%FSAX44Y44*%
%MOMM*%
G71*
G04*
G04 #@! TF.SameCoordinates,9B1E6CB6-7F21-4D16-986F-FEEA4F8F1DB9*
G04*
G04*
G04 #@! TF.FilePolarity,Positive*
G04*
G01*
G75*
%ADD10C,0.2500*%
%ADD13C,0.1500*%
%ADD19C,0.2540*%
%ADD22C,0.2032*%
%ADD24C,0.1524*%
G36*
X03309919Y02743160D02*
X03305782D01*
Y02739093D01*
X03304135D01*
Y02743160D01*
X03301827D01*
Y02738446D01*
X03300181D01*
Y02745123D01*
X03309919D01*
Y02743160D01*
D02*
G37*
G36*
X03306520Y02737264D02*
X03306731Y02737250D01*
X03306935Y02737229D01*
X03307132Y02737201D01*
X03307315Y02737166D01*
X03307484Y02737123D01*
X03307639Y02737088D01*
X03307787Y02737039D01*
X03307914Y02736997D01*
X03308033Y02736961D01*
X03308131Y02736919D01*
X03308209Y02736884D01*
X03308279Y02736856D01*
X03308322Y02736835D01*
X03308357Y02736821D01*
X03308364Y02736814D01*
X03308518Y02736722D01*
X03308659Y02736624D01*
X03308793Y02736518D01*
X03308919Y02736413D01*
X03309032Y02736300D01*
X03309138Y02736188D01*
X03309236Y02736082D01*
X03309320Y02735977D01*
X03309398Y02735871D01*
X03309461Y02735779D01*
X03309518Y02735695D01*
X03309560Y02735625D01*
X03309595Y02735562D01*
X03309623Y02735512D01*
X03309637Y02735484D01*
X03309644Y02735477D01*
X03309722Y02735308D01*
X03309785Y02735146D01*
X03309848Y02734977D01*
X03309897Y02734816D01*
X03309940Y02734661D01*
X03309975Y02734506D01*
X03310003Y02734358D01*
X03310024Y02734225D01*
X03310045Y02734098D01*
X03310059Y02733978D01*
X03310066Y02733880D01*
X03310074Y02733788D01*
X03310080Y02733725D01*
Y02733626D01*
X03310066Y02733338D01*
X03310038Y02733064D01*
X03309982Y02732803D01*
X03309919Y02732557D01*
X03309834Y02732325D01*
X03309750Y02732114D01*
X03309651Y02731917D01*
X03309553Y02731734D01*
X03309461Y02731572D01*
X03309363Y02731431D01*
X03309278Y02731312D01*
X03309194Y02731206D01*
X03309131Y02731129D01*
X03309074Y02731072D01*
X03309046Y02731037D01*
X03309032Y02731023D01*
X03308828Y02730840D01*
X03308617Y02730678D01*
X03308392Y02730545D01*
X03308174Y02730425D01*
X03307949Y02730327D01*
X03307730Y02730242D01*
X03307512Y02730172D01*
X03307308Y02730116D01*
X03307118Y02730074D01*
X03306942Y02730045D01*
X03306781Y02730017D01*
X03306647Y02730003D01*
X03306534Y02729996D01*
X03306485D01*
X03306450Y02729989D01*
X03306422D01*
X03306401D01*
X03306387D01*
X03306380D01*
X03306091Y02730003D01*
X03305810Y02730031D01*
X03305549Y02730081D01*
X03305296Y02730151D01*
X03305064Y02730228D01*
X03304846Y02730313D01*
X03304649Y02730404D01*
X03304466Y02730503D01*
X03304304Y02730601D01*
X03304163Y02730693D01*
X03304037Y02730777D01*
X03303938Y02730854D01*
X03303854Y02730918D01*
X03303797Y02730974D01*
X03303762Y02731002D01*
X03303748Y02731016D01*
X03303565Y02731213D01*
X03303403Y02731424D01*
X03303263Y02731635D01*
X03303143Y02731854D01*
X03303045Y02732079D01*
X03302960Y02732297D01*
X03302890Y02732508D01*
X03302834Y02732712D01*
X03302791Y02732902D01*
X03302763Y02733078D01*
X03302735Y02733240D01*
X03302721Y02733373D01*
X03302714Y02733486D01*
Y02733528D01*
X03302707Y02733570D01*
Y02733641D01*
X03302714Y02733831D01*
X03302728Y02734020D01*
X03302749Y02734196D01*
X03302777Y02734372D01*
X03302812Y02734534D01*
X03302855Y02734689D01*
X03302897Y02734837D01*
X03302939Y02734970D01*
X03302981Y02735090D01*
X03303023Y02735196D01*
X03303066Y02735294D01*
X03303101Y02735371D01*
X03303129Y02735435D01*
X03303150Y02735484D01*
X03303164Y02735512D01*
X03303171Y02735519D01*
X03303263Y02735674D01*
X03303361Y02735815D01*
X03303467Y02735948D01*
X03303572Y02736075D01*
X03303685Y02736188D01*
X03303790Y02736293D01*
X03303903Y02736392D01*
X03304008Y02736483D01*
X03304107Y02736560D01*
X03304199Y02736624D01*
X03304283Y02736680D01*
X03304360Y02736729D01*
X03304417Y02736765D01*
X03304466Y02736793D01*
X03304494Y02736807D01*
X03304501Y02736814D01*
X03304663Y02736891D01*
X03304825Y02736961D01*
X03304987Y02737025D01*
X03305148Y02737081D01*
X03305303Y02737123D01*
X03305451Y02737159D01*
X03305592Y02737187D01*
X03305725Y02737215D01*
X03305845Y02737236D01*
X03305957Y02737250D01*
X03306056Y02737257D01*
X03306133Y02737264D01*
X03306204Y02737271D01*
X03306253D01*
X03306281D01*
X03306295D01*
X03306520Y02737264D01*
D02*
G37*
G36*
X03309919Y02726746D02*
X03307744D01*
X03307576D01*
X03307421D01*
X03307126Y02726739D01*
X03306858Y02726732D01*
X03306612Y02726725D01*
X03306401Y02726710D01*
X03306204Y02726696D01*
X03306035Y02726682D01*
X03305887Y02726668D01*
X03305760Y02726654D01*
X03305655Y02726640D01*
X03305563Y02726626D01*
X03305493Y02726612D01*
X03305444Y02726605D01*
X03305409Y02726598D01*
X03305388Y02726591D01*
X03305381D01*
X03305282Y02726562D01*
X03305183Y02726527D01*
X03305099Y02726492D01*
X03305022Y02726457D01*
X03304951Y02726422D01*
X03304888Y02726387D01*
X03304775Y02726324D01*
X03304698Y02726260D01*
X03304642Y02726211D01*
X03304607Y02726183D01*
X03304600Y02726169D01*
X03304529Y02726063D01*
X03304473Y02725951D01*
X03304438Y02725838D01*
X03304409Y02725732D01*
X03304395Y02725641D01*
X03304381Y02725563D01*
Y02725423D01*
X03304395Y02725345D01*
X03304431Y02725191D01*
X03304480Y02725043D01*
X03304536Y02724909D01*
X03304593Y02724790D01*
X03304621Y02724740D01*
X03304642Y02724698D01*
X03304663Y02724670D01*
X03304677Y02724642D01*
X03304684Y02724628D01*
X03304691Y02724621D01*
X03303066Y02724037D01*
X03303002Y02724149D01*
X03302946Y02724262D01*
X03302897Y02724374D01*
X03302855Y02724480D01*
X03302791Y02724691D01*
X03302749Y02724881D01*
X03302735Y02724966D01*
X03302728Y02725043D01*
X03302721Y02725106D01*
X03302714Y02725162D01*
X03302707Y02725212D01*
Y02725275D01*
X03302714Y02725437D01*
X03302742Y02725592D01*
X03302777Y02725725D01*
X03302820Y02725845D01*
X03302862Y02725943D01*
X03302897Y02726021D01*
X03302911Y02726049D01*
X03302925Y02726070D01*
X03302932Y02726077D01*
Y02726084D01*
X03302981Y02726147D01*
X03303038Y02726218D01*
X03303101Y02726288D01*
X03303171Y02726359D01*
X03303326Y02726492D01*
X03303481Y02726612D01*
X03303629Y02726718D01*
X03303699Y02726767D01*
X03303755Y02726802D01*
X03303797Y02726837D01*
X03303840Y02726858D01*
X03303861Y02726872D01*
X03303868Y02726879D01*
X03302862D01*
Y02728610D01*
X03309919D01*
Y02726746D01*
D02*
G37*
G36*
X03306717Y02719998D02*
X03306978Y02719977D01*
X03307224Y02719942D01*
X03307449Y02719893D01*
X03307667Y02719843D01*
X03307864Y02719787D01*
X03308047Y02719724D01*
X03308216Y02719653D01*
X03308371Y02719590D01*
X03308504Y02719527D01*
X03308617Y02719471D01*
X03308708Y02719414D01*
X03308786Y02719372D01*
X03308842Y02719337D01*
X03308870Y02719316D01*
X03308884Y02719309D01*
X03309095Y02719133D01*
X03309278Y02718936D01*
X03309440Y02718732D01*
X03309574Y02718513D01*
X03309693Y02718289D01*
X03309785Y02718063D01*
X03309869Y02717838D01*
X03309933Y02717620D01*
X03309982Y02717409D01*
X03310017Y02717212D01*
X03310045Y02717043D01*
X03310059Y02716888D01*
X03310066Y02716818D01*
X03310074Y02716762D01*
Y02716713D01*
X03310080Y02716663D01*
Y02716586D01*
X03310074Y02716375D01*
X03310059Y02716171D01*
X03310031Y02715974D01*
X03309996Y02715791D01*
X03309961Y02715622D01*
X03309911Y02715460D01*
X03309862Y02715320D01*
X03309813Y02715186D01*
X03309764Y02715066D01*
X03309722Y02714954D01*
X03309672Y02714869D01*
X03309637Y02714792D01*
X03309602Y02714728D01*
X03309574Y02714686D01*
X03309560Y02714658D01*
X03309553Y02714651D01*
X03309447Y02714510D01*
X03309335Y02714377D01*
X03309208Y02714257D01*
X03309081Y02714144D01*
X03308955Y02714046D01*
X03308821Y02713947D01*
X03308694Y02713863D01*
X03308568Y02713793D01*
X03308455Y02713722D01*
X03308343Y02713666D01*
X03308244Y02713617D01*
X03308159Y02713582D01*
X03308089Y02713546D01*
X03308033Y02713525D01*
X03308005Y02713518D01*
X03307991Y02713511D01*
X03307681Y02715369D01*
X03307871Y02715432D01*
X03308026Y02715502D01*
X03308159Y02715580D01*
X03308265Y02715657D01*
X03308350Y02715721D01*
X03308406Y02715777D01*
X03308441Y02715812D01*
X03308455Y02715819D01*
Y02715826D01*
X03308532Y02715946D01*
X03308589Y02716065D01*
X03308631Y02716192D01*
X03308659Y02716304D01*
X03308673Y02716410D01*
X03308680Y02716487D01*
X03308687Y02716523D01*
Y02716565D01*
X03308680Y02716684D01*
X03308666Y02716797D01*
X03308645Y02716902D01*
X03308617Y02717008D01*
X03308540Y02717191D01*
X03308504Y02717275D01*
X03308455Y02717346D01*
X03308413Y02717416D01*
X03308378Y02717472D01*
X03308336Y02717529D01*
X03308300Y02717571D01*
X03308272Y02717606D01*
X03308251Y02717627D01*
X03308237Y02717641D01*
X03308230Y02717648D01*
X03308138Y02717726D01*
X03308040Y02717789D01*
X03307935Y02717845D01*
X03307829Y02717902D01*
X03307723Y02717944D01*
X03307618Y02717979D01*
X03307407Y02718028D01*
X03307308Y02718049D01*
X03307224Y02718063D01*
X03307139Y02718077D01*
X03307069Y02718084D01*
X03307013D01*
X03306971Y02718091D01*
X03306942D01*
X03306935D01*
Y02713413D01*
X03306548Y02713420D01*
X03306183Y02713441D01*
X03305845Y02713483D01*
X03305535Y02713532D01*
X03305247Y02713603D01*
X03304987Y02713673D01*
X03304747Y02713757D01*
X03304536Y02713842D01*
X03304353Y02713926D01*
X03304191Y02714004D01*
X03304058Y02714081D01*
X03303945Y02714151D01*
X03303861Y02714208D01*
X03303797Y02714250D01*
X03303762Y02714285D01*
X03303748Y02714292D01*
X03303565Y02714468D01*
X03303403Y02714658D01*
X03303263Y02714855D01*
X03303143Y02715059D01*
X03303045Y02715270D01*
X03302960Y02715474D01*
X03302890Y02715678D01*
X03302834Y02715868D01*
X03302791Y02716051D01*
X03302763Y02716227D01*
X03302735Y02716375D01*
X03302721Y02716508D01*
X03302714Y02716621D01*
Y02716663D01*
X03302707Y02716698D01*
Y02716769D01*
X03302721Y02717029D01*
X03302749Y02717275D01*
X03302798Y02717508D01*
X03302862Y02717726D01*
X03302939Y02717930D01*
X03303023Y02718120D01*
X03303115Y02718296D01*
X03303206Y02718457D01*
X03303298Y02718598D01*
X03303389Y02718725D01*
X03303474Y02718837D01*
X03303551Y02718929D01*
X03303615Y02718999D01*
X03303664Y02719048D01*
X03303692Y02719077D01*
X03303706Y02719091D01*
X03303903Y02719252D01*
X03304107Y02719393D01*
X03304325Y02719513D01*
X03304550Y02719618D01*
X03304782Y02719710D01*
X03305008Y02719780D01*
X03305233Y02719843D01*
X03305451Y02719893D01*
X03305655Y02719928D01*
X03305845Y02719956D01*
X03306014Y02719977D01*
X03306161Y02719991D01*
X03306225Y02719998D01*
X03306281D01*
X03306330D01*
X03306372Y02720005D01*
X03306408D01*
X03306429D01*
X03306443D01*
X03306450D01*
X03306717Y02719998D01*
D02*
G37*
G36*
X03309919Y02709951D02*
Y02708269D01*
X03302862Y02705469D01*
Y02707390D01*
X03306464Y02708727D01*
X03306577Y02708769D01*
X03306682Y02708804D01*
X03306788Y02708839D01*
X03306879Y02708867D01*
X03306949Y02708896D01*
X03307013Y02708917D01*
X03307048Y02708924D01*
X03307062Y02708931D01*
X03307090Y02708938D01*
X03307132Y02708952D01*
X03307217Y02708973D01*
X03307315Y02709008D01*
X03307421Y02709036D01*
X03307512Y02709072D01*
X03307590Y02709093D01*
X03307625Y02709107D01*
X03307646Y02709114D01*
X03307660Y02709121D01*
X03307667D01*
X03306464Y02709508D01*
X03302862Y02710838D01*
Y02712794D01*
X03309919Y02709951D01*
D02*
G37*
G36*
X03308159Y02704815D02*
X03308322Y02704794D01*
X03308469Y02704766D01*
X03308610Y02704724D01*
X03308744Y02704674D01*
X03308863Y02704625D01*
X03308976Y02704569D01*
X03309081Y02704505D01*
X03309173Y02704449D01*
X03309257Y02704393D01*
X03309328Y02704344D01*
X03309384Y02704294D01*
X03309426Y02704252D01*
X03309461Y02704224D01*
X03309482Y02704203D01*
X03309489Y02704196D01*
X03309595Y02704076D01*
X03309686Y02703943D01*
X03309764Y02703802D01*
X03309834Y02703661D01*
X03309890Y02703520D01*
X03309933Y02703380D01*
X03309975Y02703239D01*
X03310003Y02703105D01*
X03310031Y02702971D01*
X03310052Y02702859D01*
X03310059Y02702753D01*
X03310074Y02702662D01*
Y02702585D01*
X03310080Y02702528D01*
Y02702479D01*
X03310074Y02702254D01*
X03310045Y02702036D01*
X03310010Y02701839D01*
X03309989Y02701747D01*
X03309961Y02701663D01*
X03309940Y02701592D01*
X03309919Y02701522D01*
X03309904Y02701466D01*
X03309883Y02701410D01*
X03309869Y02701375D01*
X03309855Y02701339D01*
X03309848Y02701325D01*
Y02701318D01*
X03309750Y02701114D01*
X03309644Y02700924D01*
X03309525Y02700748D01*
X03309412Y02700601D01*
X03309363Y02700530D01*
X03309313Y02700474D01*
X03309264Y02700417D01*
X03309229Y02700375D01*
X03309194Y02700340D01*
X03309173Y02700312D01*
X03309159Y02700298D01*
X03309152Y02700291D01*
X03309180Y02700284D01*
X03309208Y02700277D01*
X03309278Y02700256D01*
X03309313Y02700242D01*
X03309342Y02700235D01*
X03309363Y02700228D01*
X03309370D01*
X03309496Y02700192D01*
X03309609Y02700157D01*
X03309701Y02700122D01*
X03309778Y02700094D01*
X03309841Y02700073D01*
X03309883Y02700059D01*
X03309911Y02700045D01*
X03309919D01*
Y02698201D01*
X03309736Y02698286D01*
X03309560Y02698356D01*
X03309398Y02698419D01*
X03309257Y02698462D01*
X03309145Y02698497D01*
X03309095Y02698511D01*
X03309053Y02698518D01*
X03309018Y02698532D01*
X03308997D01*
X03308983Y02698539D01*
X03308976D01*
X03308884Y02698553D01*
X03308793Y02698567D01*
X03308687Y02698581D01*
X03308575Y02698588D01*
X03308350Y02698602D01*
X03308124Y02698609D01*
X03308019Y02698616D01*
X03307921D01*
X03307836Y02698623D01*
X03307758D01*
X03307695D01*
X03307646D01*
X03307611D01*
X03307604D01*
X03305430Y02698595D01*
X03305211D01*
X03305008Y02698609D01*
X03304825Y02698616D01*
X03304656Y02698637D01*
X03304501Y02698652D01*
X03304367Y02698673D01*
X03304241Y02698701D01*
X03304135Y02698722D01*
X03304044Y02698743D01*
X03303966Y02698771D01*
X03303896Y02698792D01*
X03303847Y02698806D01*
X03303805Y02698828D01*
X03303776Y02698835D01*
X03303762Y02698849D01*
X03303755D01*
X03303671Y02698898D01*
X03303593Y02698954D01*
X03303446Y02699088D01*
X03303319Y02699229D01*
X03303206Y02699369D01*
X03303122Y02699503D01*
X03303087Y02699559D01*
X03303059Y02699608D01*
X03303030Y02699651D01*
X03303016Y02699679D01*
X03303002Y02699700D01*
Y02699707D01*
X03302953Y02699827D01*
X03302904Y02699960D01*
X03302862Y02700108D01*
X03302834Y02700256D01*
X03302777Y02700565D01*
X03302756Y02700720D01*
X03302742Y02700868D01*
X03302728Y02701009D01*
X03302721Y02701142D01*
X03302714Y02701262D01*
Y02701367D01*
X03302707Y02701452D01*
Y02701571D01*
X03302714Y02701825D01*
X03302728Y02702057D01*
X03302756Y02702275D01*
X03302784Y02702479D01*
X03302820Y02702662D01*
X03302862Y02702838D01*
X03302911Y02702993D01*
X03302953Y02703126D01*
X03303002Y02703253D01*
X03303051Y02703358D01*
X03303094Y02703450D01*
X03303129Y02703520D01*
X03303157Y02703577D01*
X03303185Y02703619D01*
X03303199Y02703647D01*
X03303206Y02703654D01*
X03303305Y02703781D01*
X03303411Y02703893D01*
X03303530Y02704006D01*
X03303650Y02704097D01*
X03303776Y02704189D01*
X03303903Y02704266D01*
X03304023Y02704344D01*
X03304149Y02704407D01*
X03304262Y02704456D01*
X03304367Y02704505D01*
X03304466Y02704548D01*
X03304550Y02704576D01*
X03304621Y02704604D01*
X03304677Y02704618D01*
X03304705Y02704625D01*
X03304719Y02704632D01*
X03305022Y02702936D01*
X03304853Y02702866D01*
X03304705Y02702796D01*
X03304585Y02702718D01*
X03304494Y02702648D01*
X03304424Y02702592D01*
X03304367Y02702535D01*
X03304339Y02702507D01*
X03304332Y02702493D01*
X03304269Y02702380D01*
X03304220Y02702254D01*
X03304184Y02702120D01*
X03304156Y02701994D01*
X03304142Y02701888D01*
Y02701839D01*
X03304135Y02701797D01*
Y02701578D01*
X03304142Y02701459D01*
X03304156Y02701346D01*
X03304170Y02701241D01*
X03304191Y02701149D01*
X03304206Y02701072D01*
X03304227Y02700995D01*
X03304248Y02700931D01*
X03304276Y02700875D01*
X03304297Y02700833D01*
X03304311Y02700790D01*
X03304332Y02700762D01*
X03304346Y02700734D01*
X03304360Y02700720D01*
X03304367Y02700706D01*
X03304417Y02700657D01*
X03304466Y02700615D01*
X03304585Y02700551D01*
X03304712Y02700502D01*
X03304839Y02700474D01*
X03304951Y02700453D01*
X03305001Y02700446D01*
X03305050D01*
X03305085Y02700439D01*
X03305113D01*
X03305127D01*
X03305134D01*
X03305317D01*
X03305359Y02700544D01*
X03305402Y02700664D01*
X03305444Y02700797D01*
X03305479Y02700938D01*
X03305556Y02701234D01*
X03305634Y02701536D01*
X03305662Y02701677D01*
X03305690Y02701811D01*
X03305718Y02701937D01*
X03305739Y02702043D01*
X03305760Y02702127D01*
X03305768Y02702198D01*
X03305782Y02702240D01*
Y02702254D01*
X03305817Y02702430D01*
X03305852Y02702599D01*
X03305887Y02702753D01*
X03305929Y02702894D01*
X03305964Y02703028D01*
X03305999Y02703148D01*
X03306035Y02703260D01*
X03306070Y02703358D01*
X03306098Y02703450D01*
X03306126Y02703528D01*
X03306154Y02703591D01*
X03306176Y02703640D01*
X03306190Y02703682D01*
X03306204Y02703717D01*
X03306218Y02703731D01*
Y02703738D01*
X03306316Y02703922D01*
X03306436Y02704083D01*
X03306555Y02704217D01*
X03306668Y02704330D01*
X03306774Y02704421D01*
X03306858Y02704484D01*
X03306893Y02704512D01*
X03306914Y02704526D01*
X03306928Y02704533D01*
X03306935Y02704540D01*
X03307111Y02704632D01*
X03307294Y02704702D01*
X03307477Y02704752D01*
X03307639Y02704787D01*
X03307716Y02704801D01*
X03307787Y02704808D01*
X03307843Y02704815D01*
X03307899D01*
X03307942Y02704822D01*
X03307970D01*
X03307991D01*
X03307998D01*
X03308159Y02704815D01*
D02*
G37*
G36*
X03309919Y02694901D02*
X03300181D01*
Y02696766D01*
X03309919D01*
Y02694901D01*
D02*
G37*
G36*
X03307681Y02693016D02*
X03307843Y02693009D01*
X03307998Y02692988D01*
X03308138Y02692974D01*
X03308265Y02692953D01*
X03308385Y02692932D01*
X03308490Y02692903D01*
X03308582Y02692882D01*
X03308666Y02692861D01*
X03308737Y02692840D01*
X03308793Y02692819D01*
X03308842Y02692805D01*
X03308870Y02692791D01*
X03308891Y02692784D01*
X03308898D01*
X03309004Y02692734D01*
X03309095Y02692678D01*
X03309271Y02692552D01*
X03309419Y02692411D01*
X03309546Y02692277D01*
X03309644Y02692158D01*
X03309679Y02692108D01*
X03309714Y02692059D01*
X03309736Y02692024D01*
X03309757Y02691989D01*
X03309764Y02691974D01*
X03309771Y02691967D01*
X03309827Y02691862D01*
X03309869Y02691750D01*
X03309947Y02691524D01*
X03310003Y02691313D01*
X03310038Y02691116D01*
X03310052Y02691025D01*
X03310066Y02690940D01*
X03310074Y02690870D01*
Y02690807D01*
X03310080Y02690757D01*
Y02690687D01*
X03310074Y02690560D01*
X03310066Y02690427D01*
X03310031Y02690187D01*
X03309975Y02689962D01*
X03309947Y02689857D01*
X03309919Y02689765D01*
X03309890Y02689674D01*
X03309862Y02689597D01*
X03309834Y02689533D01*
X03309806Y02689470D01*
X03309785Y02689427D01*
X03309771Y02689392D01*
X03309757Y02689371D01*
Y02689364D01*
X03309623Y02689139D01*
X03309482Y02688935D01*
X03309335Y02688766D01*
X03309257Y02688689D01*
X03309187Y02688618D01*
X03309124Y02688555D01*
X03309060Y02688499D01*
X03309004Y02688450D01*
X03308955Y02688415D01*
X03308919Y02688386D01*
X03308891Y02688365D01*
X03308870Y02688351D01*
X03308863Y02688344D01*
X03309919D01*
Y02686613D01*
X03302862D01*
Y02688478D01*
X03305838D01*
X03306112D01*
X03306359Y02688485D01*
X03306577Y02688492D01*
X03306774Y02688499D01*
X03306956Y02688513D01*
X03307111Y02688520D01*
X03307245Y02688534D01*
X03307357Y02688548D01*
X03307463Y02688562D01*
X03307541Y02688576D01*
X03307611Y02688583D01*
X03307660Y02688597D01*
X03307695Y02688604D01*
X03307723Y02688611D01*
X03307737Y02688618D01*
X03307744D01*
X03307885Y02688682D01*
X03308012Y02688759D01*
X03308117Y02688844D01*
X03308216Y02688928D01*
X03308286Y02689012D01*
X03308343Y02689076D01*
X03308364Y02689104D01*
X03308378Y02689125D01*
X03308392Y02689132D01*
Y02689139D01*
X03308476Y02689287D01*
X03308540Y02689435D01*
X03308589Y02689576D01*
X03308617Y02689709D01*
X03308638Y02689829D01*
X03308645Y02689878D01*
Y02689913D01*
X03308652Y02689948D01*
Y02689998D01*
X03308645Y02690145D01*
X03308624Y02690286D01*
X03308589Y02690406D01*
X03308553Y02690504D01*
X03308525Y02690581D01*
X03308490Y02690645D01*
X03308469Y02690680D01*
X03308462Y02690694D01*
X03308385Y02690786D01*
X03308293Y02690863D01*
X03308209Y02690926D01*
X03308117Y02690983D01*
X03308047Y02691018D01*
X03307984Y02691046D01*
X03307942Y02691060D01*
X03307935Y02691067D01*
X03307928D01*
X03307850Y02691081D01*
X03307751Y02691102D01*
X03307632Y02691109D01*
X03307498Y02691123D01*
X03307357Y02691130D01*
X03307203Y02691144D01*
X03306886Y02691151D01*
X03306738Y02691158D01*
X03306591D01*
X03306457Y02691165D01*
X03306344D01*
X03306246D01*
X03306169D01*
X03306140D01*
X03306119D01*
X03306112D01*
X03306105D01*
X03302862D01*
Y02693030D01*
X03307329D01*
X03307512D01*
X03307681Y02693016D01*
D02*
G37*
G36*
X03308159Y02685164D02*
X03308322Y02685143D01*
X03308469Y02685115D01*
X03308610Y02685073D01*
X03308744Y02685023D01*
X03308863Y02684974D01*
X03308976Y02684918D01*
X03309081Y02684854D01*
X03309173Y02684798D01*
X03309257Y02684742D01*
X03309328Y02684692D01*
X03309384Y02684643D01*
X03309426Y02684601D01*
X03309461Y02684573D01*
X03309482Y02684552D01*
X03309489Y02684545D01*
X03309595Y02684425D01*
X03309686Y02684291D01*
X03309764Y02684151D01*
X03309834Y02684010D01*
X03309890Y02683869D01*
X03309933Y02683729D01*
X03309975Y02683588D01*
X03310003Y02683454D01*
X03310031Y02683321D01*
X03310052Y02683208D01*
X03310059Y02683102D01*
X03310074Y02683011D01*
Y02682934D01*
X03310080Y02682877D01*
Y02682828D01*
X03310074Y02682603D01*
X03310045Y02682385D01*
X03310010Y02682188D01*
X03309989Y02682096D01*
X03309961Y02682012D01*
X03309940Y02681942D01*
X03309919Y02681871D01*
X03309904Y02681815D01*
X03309883Y02681759D01*
X03309869Y02681723D01*
X03309855Y02681688D01*
X03309848Y02681674D01*
Y02681667D01*
X03309750Y02681463D01*
X03309644Y02681273D01*
X03309525Y02681097D01*
X03309412Y02680949D01*
X03309363Y02680879D01*
X03309313Y02680823D01*
X03309264Y02680767D01*
X03309229Y02680724D01*
X03309194Y02680689D01*
X03309173Y02680661D01*
X03309159Y02680647D01*
X03309152Y02680640D01*
X03309180Y02680633D01*
X03309208Y02680626D01*
X03309278Y02680605D01*
X03309313Y02680591D01*
X03309342Y02680583D01*
X03309363Y02680576D01*
X03309370D01*
X03309496Y02680541D01*
X03309609Y02680506D01*
X03309701Y02680471D01*
X03309778Y02680443D01*
X03309841Y02680422D01*
X03309883Y02680408D01*
X03309911Y02680394D01*
X03309919D01*
Y02678550D01*
X03309736Y02678635D01*
X03309560Y02678705D01*
X03309398Y02678768D01*
X03309257Y02678811D01*
X03309145Y02678846D01*
X03309095Y02678860D01*
X03309053Y02678867D01*
X03309018Y02678881D01*
X03308997D01*
X03308983Y02678888D01*
X03308976D01*
X03308884Y02678902D01*
X03308793Y02678916D01*
X03308687Y02678930D01*
X03308575Y02678937D01*
X03308350Y02678951D01*
X03308124Y02678958D01*
X03308019Y02678965D01*
X03307921D01*
X03307836Y02678972D01*
X03307758D01*
X03307695D01*
X03307646D01*
X03307611D01*
X03307604D01*
X03305430Y02678944D01*
X03305211D01*
X03305008Y02678958D01*
X03304825Y02678965D01*
X03304656Y02678987D01*
X03304501Y02679001D01*
X03304367Y02679022D01*
X03304241Y02679050D01*
X03304135Y02679071D01*
X03304044Y02679092D01*
X03303966Y02679120D01*
X03303896Y02679141D01*
X03303847Y02679155D01*
X03303805Y02679177D01*
X03303776Y02679183D01*
X03303762Y02679198D01*
X03303755D01*
X03303671Y02679247D01*
X03303593Y02679303D01*
X03303446Y02679437D01*
X03303319Y02679578D01*
X03303206Y02679718D01*
X03303122Y02679852D01*
X03303087Y02679908D01*
X03303059Y02679958D01*
X03303030Y02680000D01*
X03303016Y02680028D01*
X03303002Y02680049D01*
Y02680056D01*
X03302953Y02680175D01*
X03302904Y02680309D01*
X03302862Y02680457D01*
X03302834Y02680605D01*
X03302777Y02680914D01*
X03302756Y02681069D01*
X03302742Y02681217D01*
X03302728Y02681358D01*
X03302721Y02681491D01*
X03302714Y02681611D01*
Y02681716D01*
X03302707Y02681801D01*
Y02681920D01*
X03302714Y02682174D01*
X03302728Y02682406D01*
X03302756Y02682624D01*
X03302784Y02682828D01*
X03302820Y02683011D01*
X03302862Y02683187D01*
X03302911Y02683342D01*
X03302953Y02683475D01*
X03303002Y02683602D01*
X03303051Y02683708D01*
X03303094Y02683799D01*
X03303129Y02683869D01*
X03303157Y02683925D01*
X03303185Y02683968D01*
X03303199Y02683996D01*
X03303206Y02684003D01*
X03303305Y02684130D01*
X03303411Y02684242D01*
X03303530Y02684355D01*
X03303650Y02684446D01*
X03303776Y02684538D01*
X03303903Y02684615D01*
X03304023Y02684692D01*
X03304149Y02684756D01*
X03304262Y02684805D01*
X03304367Y02684854D01*
X03304466Y02684897D01*
X03304550Y02684925D01*
X03304621Y02684953D01*
X03304677Y02684967D01*
X03304705Y02684974D01*
X03304719Y02684981D01*
X03305022Y02683286D01*
X03304853Y02683215D01*
X03304705Y02683145D01*
X03304585Y02683067D01*
X03304494Y02682997D01*
X03304424Y02682941D01*
X03304367Y02682884D01*
X03304339Y02682856D01*
X03304332Y02682842D01*
X03304269Y02682729D01*
X03304220Y02682603D01*
X03304184Y02682469D01*
X03304156Y02682343D01*
X03304142Y02682237D01*
Y02682188D01*
X03304135Y02682146D01*
Y02681927D01*
X03304142Y02681808D01*
X03304156Y02681695D01*
X03304170Y02681590D01*
X03304191Y02681498D01*
X03304206Y02681421D01*
X03304227Y02681343D01*
X03304248Y02681280D01*
X03304276Y02681224D01*
X03304297Y02681182D01*
X03304311Y02681140D01*
X03304332Y02681111D01*
X03304346Y02681083D01*
X03304360Y02681069D01*
X03304367Y02681055D01*
X03304417Y02681006D01*
X03304466Y02680964D01*
X03304585Y02680900D01*
X03304712Y02680851D01*
X03304839Y02680823D01*
X03304951Y02680802D01*
X03305001Y02680795D01*
X03305050D01*
X03305085Y02680788D01*
X03305113D01*
X03305127D01*
X03305134D01*
X03305317D01*
X03305359Y02680893D01*
X03305402Y02681013D01*
X03305444Y02681147D01*
X03305479Y02681287D01*
X03305556Y02681583D01*
X03305634Y02681885D01*
X03305662Y02682026D01*
X03305690Y02682160D01*
X03305718Y02682286D01*
X03305739Y02682392D01*
X03305760Y02682476D01*
X03305768Y02682547D01*
X03305782Y02682589D01*
Y02682603D01*
X03305817Y02682779D01*
X03305852Y02682948D01*
X03305887Y02683102D01*
X03305929Y02683243D01*
X03305964Y02683377D01*
X03305999Y02683496D01*
X03306035Y02683609D01*
X03306070Y02683708D01*
X03306098Y02683799D01*
X03306126Y02683876D01*
X03306154Y02683940D01*
X03306176Y02683989D01*
X03306190Y02684031D01*
X03306204Y02684066D01*
X03306218Y02684081D01*
Y02684088D01*
X03306316Y02684270D01*
X03306436Y02684432D01*
X03306555Y02684566D01*
X03306668Y02684679D01*
X03306774Y02684770D01*
X03306858Y02684833D01*
X03306893Y02684861D01*
X03306914Y02684875D01*
X03306928Y02684883D01*
X03306935Y02684890D01*
X03307111Y02684981D01*
X03307294Y02685051D01*
X03307477Y02685101D01*
X03307639Y02685136D01*
X03307716Y02685150D01*
X03307787Y02685157D01*
X03307843Y02685164D01*
X03307899D01*
X03307942Y02685171D01*
X03307970D01*
X03307991D01*
X03307998D01*
X03308159Y02685164D01*
D02*
G37*
G36*
X03304346Y02677031D02*
X03307428D01*
X03307604D01*
X03307766D01*
X03307921Y02677024D01*
X03308054D01*
X03308174Y02677017D01*
X03308279Y02677010D01*
X03308378D01*
X03308455Y02677002D01*
X03308525Y02676996D01*
X03308589Y02676988D01*
X03308638D01*
X03308680Y02676981D01*
X03308708D01*
X03308730Y02676974D01*
X03308737D01*
X03308744D01*
X03308905Y02676946D01*
X03309053Y02676904D01*
X03309180Y02676862D01*
X03309285Y02676819D01*
X03309363Y02676777D01*
X03309426Y02676742D01*
X03309461Y02676721D01*
X03309475Y02676714D01*
X03309574Y02676637D01*
X03309658Y02676538D01*
X03309729Y02676447D01*
X03309792Y02676348D01*
X03309841Y02676257D01*
X03309883Y02676186D01*
X03309897Y02676158D01*
X03309904Y02676137D01*
X03309911Y02676130D01*
Y02676123D01*
X03309968Y02675968D01*
X03310010Y02675806D01*
X03310038Y02675659D01*
X03310059Y02675518D01*
X03310074Y02675391D01*
Y02675342D01*
X03310080Y02675300D01*
Y02675215D01*
X03310066Y02674913D01*
X03310038Y02674638D01*
X03310017Y02674505D01*
X03309996Y02674385D01*
X03309968Y02674272D01*
X03309940Y02674167D01*
X03309919Y02674076D01*
X03309890Y02673991D01*
X03309869Y02673914D01*
X03309848Y02673850D01*
X03309834Y02673801D01*
X03309820Y02673766D01*
X03309806Y02673745D01*
Y02673738D01*
X03308357Y02673900D01*
X03308413Y02674076D01*
X03308455Y02674223D01*
X03308490Y02674357D01*
X03308511Y02674463D01*
X03308525Y02674547D01*
X03308532Y02674603D01*
Y02674652D01*
X03308525Y02674716D01*
X03308518Y02674779D01*
X03308504Y02674836D01*
X03308483Y02674878D01*
X03308469Y02674920D01*
X03308455Y02674948D01*
X03308448Y02674962D01*
X03308441Y02674969D01*
X03308406Y02675011D01*
X03308364Y02675046D01*
X03308329Y02675074D01*
X03308293Y02675096D01*
X03308258Y02675110D01*
X03308230Y02675124D01*
X03308216Y02675131D01*
X03308209D01*
X03308174Y02675138D01*
X03308124Y02675145D01*
X03308061D01*
X03307991Y02675152D01*
X03307906D01*
X03307822Y02675159D01*
X03307646D01*
X03307477Y02675166D01*
X03307400D01*
X03307336D01*
X03307273D01*
X03307231D01*
X03307203D01*
X03307196D01*
X03304346D01*
Y02673893D01*
X03302862D01*
Y02675166D01*
X03300364D01*
X03301461Y02677031D01*
X03302862D01*
Y02677889D01*
X03304346D01*
Y02677031D01*
D02*
G37*
G36*
X03309919Y02670719D02*
X03302862D01*
Y02672584D01*
X03309919D01*
Y02670719D01*
D02*
G37*
G36*
X03301905D02*
X03300181D01*
Y02672584D01*
X03301905D01*
Y02670719D01*
D02*
G37*
G36*
X03306520Y02669235D02*
X03306731Y02669221D01*
X03306935Y02669200D01*
X03307132Y02669171D01*
X03307315Y02669136D01*
X03307484Y02669094D01*
X03307639Y02669059D01*
X03307787Y02669010D01*
X03307914Y02668968D01*
X03308033Y02668932D01*
X03308131Y02668890D01*
X03308209Y02668855D01*
X03308279Y02668827D01*
X03308322Y02668806D01*
X03308357Y02668792D01*
X03308364Y02668784D01*
X03308518Y02668693D01*
X03308659Y02668595D01*
X03308793Y02668489D01*
X03308919Y02668383D01*
X03309032Y02668271D01*
X03309138Y02668158D01*
X03309236Y02668053D01*
X03309320Y02667947D01*
X03309398Y02667842D01*
X03309461Y02667750D01*
X03309518Y02667666D01*
X03309560Y02667596D01*
X03309595Y02667532D01*
X03309623Y02667483D01*
X03309637Y02667455D01*
X03309644Y02667448D01*
X03309722Y02667279D01*
X03309785Y02667117D01*
X03309848Y02666948D01*
X03309897Y02666786D01*
X03309940Y02666631D01*
X03309975Y02666477D01*
X03310003Y02666329D01*
X03310024Y02666195D01*
X03310045Y02666069D01*
X03310059Y02665949D01*
X03310066Y02665851D01*
X03310074Y02665759D01*
X03310080Y02665696D01*
Y02665598D01*
X03310066Y02665309D01*
X03310038Y02665034D01*
X03309982Y02664774D01*
X03309919Y02664528D01*
X03309834Y02664296D01*
X03309750Y02664085D01*
X03309651Y02663888D01*
X03309553Y02663705D01*
X03309461Y02663543D01*
X03309363Y02663402D01*
X03309278Y02663282D01*
X03309194Y02663177D01*
X03309131Y02663100D01*
X03309074Y02663044D01*
X03309046Y02663008D01*
X03309032Y02662994D01*
X03308828Y02662811D01*
X03308617Y02662650D01*
X03308392Y02662516D01*
X03308174Y02662396D01*
X03307949Y02662298D01*
X03307730Y02662213D01*
X03307512Y02662143D01*
X03307308Y02662086D01*
X03307118Y02662044D01*
X03306942Y02662016D01*
X03306781Y02661988D01*
X03306647Y02661974D01*
X03306534Y02661967D01*
X03306485D01*
X03306450Y02661960D01*
X03306422D01*
X03306401D01*
X03306387D01*
X03306380D01*
X03306091Y02661974D01*
X03305810Y02662002D01*
X03305549Y02662051D01*
X03305296Y02662122D01*
X03305064Y02662199D01*
X03304846Y02662284D01*
X03304649Y02662375D01*
X03304466Y02662473D01*
X03304304Y02662572D01*
X03304163Y02662664D01*
X03304037Y02662748D01*
X03303938Y02662825D01*
X03303854Y02662888D01*
X03303797Y02662945D01*
X03303762Y02662973D01*
X03303748Y02662987D01*
X03303565Y02663184D01*
X03303403Y02663395D01*
X03303263Y02663606D01*
X03303143Y02663824D01*
X03303045Y02664049D01*
X03302960Y02664268D01*
X03302890Y02664479D01*
X03302834Y02664683D01*
X03302791Y02664873D01*
X03302763Y02665049D01*
X03302735Y02665210D01*
X03302721Y02665344D01*
X03302714Y02665457D01*
Y02665499D01*
X03302707Y02665541D01*
Y02665612D01*
X03302714Y02665801D01*
X03302728Y02665992D01*
X03302749Y02666167D01*
X03302777Y02666343D01*
X03302812Y02666505D01*
X03302855Y02666660D01*
X03302897Y02666808D01*
X03302939Y02666941D01*
X03302981Y02667061D01*
X03303023Y02667166D01*
X03303066Y02667265D01*
X03303101Y02667342D01*
X03303129Y02667406D01*
X03303150Y02667455D01*
X03303164Y02667483D01*
X03303171Y02667490D01*
X03303263Y02667645D01*
X03303361Y02667786D01*
X03303467Y02667919D01*
X03303572Y02668046D01*
X03303685Y02668158D01*
X03303790Y02668264D01*
X03303903Y02668362D01*
X03304008Y02668454D01*
X03304107Y02668531D01*
X03304199Y02668595D01*
X03304283Y02668651D01*
X03304360Y02668700D01*
X03304417Y02668735D01*
X03304466Y02668763D01*
X03304494Y02668777D01*
X03304501Y02668784D01*
X03304663Y02668862D01*
X03304825Y02668932D01*
X03304987Y02668996D01*
X03305148Y02669052D01*
X03305303Y02669094D01*
X03305451Y02669129D01*
X03305592Y02669157D01*
X03305725Y02669185D01*
X03305845Y02669207D01*
X03305957Y02669221D01*
X03306056Y02669228D01*
X03306133Y02669235D01*
X03306204Y02669242D01*
X03306253D01*
X03306281D01*
X03306295D01*
X03306520Y02669235D01*
D02*
G37*
G36*
X03309919Y02658653D02*
X03306731D01*
X03306520D01*
X03306323Y02658646D01*
X03306140Y02658639D01*
X03305978Y02658632D01*
X03305831Y02658618D01*
X03305697Y02658611D01*
X03305584Y02658597D01*
X03305479Y02658583D01*
X03305388Y02658569D01*
X03305310Y02658555D01*
X03305247Y02658547D01*
X03305197Y02658533D01*
X03305162Y02658526D01*
X03305134Y02658519D01*
X03305120Y02658512D01*
X03305113D01*
X03304958Y02658449D01*
X03304818Y02658372D01*
X03304691Y02658280D01*
X03304593Y02658196D01*
X03304508Y02658111D01*
X03304452Y02658048D01*
X03304431Y02658020D01*
X03304417Y02657999D01*
X03304402Y02657992D01*
Y02657985D01*
X03304311Y02657837D01*
X03304248Y02657682D01*
X03304199Y02657534D01*
X03304170Y02657401D01*
X03304149Y02657281D01*
X03304142Y02657232D01*
Y02657190D01*
X03304135Y02657155D01*
Y02657105D01*
X03304142Y02656971D01*
X03304163Y02656845D01*
X03304199Y02656732D01*
X03304227Y02656641D01*
X03304262Y02656563D01*
X03304297Y02656507D01*
X03304318Y02656472D01*
X03304325Y02656458D01*
X03304402Y02656366D01*
X03304480Y02656282D01*
X03304572Y02656219D01*
X03304656Y02656162D01*
X03304726Y02656120D01*
X03304789Y02656092D01*
X03304832Y02656078D01*
X03304839Y02656071D01*
X03304846D01*
X03304916Y02656050D01*
X03305008Y02656029D01*
X03305106Y02656015D01*
X03305219Y02656001D01*
X03305338Y02655987D01*
X03305465Y02655972D01*
X03305711Y02655958D01*
X03305831Y02655951D01*
X03305943D01*
X03306049D01*
X03306140Y02655944D01*
X03306218D01*
X03306274D01*
X03306309D01*
X03306323D01*
X03309919D01*
Y02654080D01*
X03305542D01*
X03305395D01*
X03305254Y02654087D01*
X03305120D01*
X03305001Y02654094D01*
X03304888Y02654101D01*
X03304782Y02654115D01*
X03304691Y02654122D01*
X03304607Y02654129D01*
X03304529Y02654143D01*
X03304466Y02654150D01*
X03304409Y02654157D01*
X03304360Y02654171D01*
X03304325Y02654178D01*
X03304304D01*
X03304290Y02654185D01*
X03304283D01*
X03304121Y02654235D01*
X03303973Y02654291D01*
X03303847Y02654347D01*
X03303727Y02654410D01*
X03303636Y02654467D01*
X03303565Y02654516D01*
X03303537Y02654530D01*
X03303516Y02654544D01*
X03303509Y02654558D01*
X03303502D01*
X03303375Y02654664D01*
X03303270Y02654790D01*
X03303171Y02654917D01*
X03303087Y02655044D01*
X03303023Y02655156D01*
X03302995Y02655205D01*
X03302974Y02655248D01*
X03302953Y02655283D01*
X03302939Y02655311D01*
X03302932Y02655325D01*
Y02655332D01*
X03302855Y02655529D01*
X03302798Y02655719D01*
X03302763Y02655909D01*
X03302735Y02656085D01*
X03302728Y02656162D01*
X03302721Y02656233D01*
X03302714Y02656296D01*
X03302707Y02656352D01*
Y02656458D01*
X03302721Y02656718D01*
X03302756Y02656964D01*
X03302820Y02657197D01*
X03302897Y02657415D01*
X03302981Y02657619D01*
X03303087Y02657816D01*
X03303192Y02657992D01*
X03303305Y02658146D01*
X03303417Y02658294D01*
X03303523Y02658421D01*
X03303629Y02658526D01*
X03303713Y02658618D01*
X03303790Y02658695D01*
X03303854Y02658745D01*
X03303889Y02658773D01*
X03303903Y02658787D01*
X03302862D01*
Y02660518D01*
X03309919D01*
Y02658653D01*
D02*
G37*
G36*
X03306520Y02648838D02*
X03306731Y02648824D01*
X03306935Y02648803D01*
X03307132Y02648775D01*
X03307315Y02648740D01*
X03307484Y02648698D01*
X03307639Y02648662D01*
X03307787Y02648613D01*
X03307914Y02648571D01*
X03308033Y02648535D01*
X03308131Y02648493D01*
X03308209Y02648458D01*
X03308279Y02648430D01*
X03308322Y02648409D01*
X03308357Y02648395D01*
X03308364Y02648388D01*
X03308518Y02648297D01*
X03308659Y02648198D01*
X03308793Y02648092D01*
X03308919Y02647987D01*
X03309032Y02647874D01*
X03309138Y02647762D01*
X03309236Y02647656D01*
X03309320Y02647551D01*
X03309398Y02647445D01*
X03309461Y02647354D01*
X03309518Y02647269D01*
X03309560Y02647199D01*
X03309595Y02647135D01*
X03309623Y02647086D01*
X03309637Y02647058D01*
X03309644Y02647051D01*
X03309722Y02646882D01*
X03309785Y02646720D01*
X03309848Y02646552D01*
X03309897Y02646390D01*
X03309940Y02646235D01*
X03309975Y02646080D01*
X03310003Y02645932D01*
X03310024Y02645799D01*
X03310045Y02645672D01*
X03310059Y02645552D01*
X03310066Y02645454D01*
X03310074Y02645363D01*
X03310080Y02645299D01*
Y02645201D01*
X03310066Y02644912D01*
X03310038Y02644638D01*
X03309982Y02644377D01*
X03309919Y02644131D01*
X03309834Y02643899D01*
X03309750Y02643688D01*
X03309651Y02643491D01*
X03309553Y02643308D01*
X03309461Y02643146D01*
X03309363Y02643005D01*
X03309278Y02642886D01*
X03309194Y02642780D01*
X03309131Y02642703D01*
X03309074Y02642646D01*
X03309046Y02642611D01*
X03309032Y02642597D01*
X03308828Y02642415D01*
X03308617Y02642253D01*
X03308392Y02642119D01*
X03308174Y02641999D01*
X03307949Y02641901D01*
X03307730Y02641816D01*
X03307512Y02641746D01*
X03307308Y02641690D01*
X03307118Y02641648D01*
X03306942Y02641619D01*
X03306781Y02641591D01*
X03306647Y02641577D01*
X03306534Y02641570D01*
X03306485D01*
X03306450Y02641563D01*
X03306422D01*
X03306401D01*
X03306387D01*
X03306380D01*
X03306091Y02641577D01*
X03305810Y02641605D01*
X03305549Y02641655D01*
X03305296Y02641725D01*
X03305064Y02641802D01*
X03304846Y02641887D01*
X03304649Y02641978D01*
X03304466Y02642077D01*
X03304304Y02642175D01*
X03304163Y02642267D01*
X03304037Y02642351D01*
X03303938Y02642429D01*
X03303854Y02642492D01*
X03303797Y02642548D01*
X03303762Y02642576D01*
X03303748Y02642590D01*
X03303565Y02642787D01*
X03303403Y02642998D01*
X03303263Y02643210D01*
X03303143Y02643428D01*
X03303045Y02643653D01*
X03302960Y02643871D01*
X03302890Y02644082D01*
X03302834Y02644286D01*
X03302791Y02644476D01*
X03302763Y02644652D01*
X03302735Y02644814D01*
X03302721Y02644947D01*
X03302714Y02645060D01*
Y02645102D01*
X03302707Y02645144D01*
Y02645215D01*
X03302714Y02645405D01*
X03302728Y02645594D01*
X03302749Y02645771D01*
X03302777Y02645946D01*
X03302812Y02646108D01*
X03302855Y02646263D01*
X03302897Y02646411D01*
X03302939Y02646544D01*
X03302981Y02646664D01*
X03303023Y02646770D01*
X03303066Y02646868D01*
X03303101Y02646945D01*
X03303129Y02647009D01*
X03303150Y02647058D01*
X03303164Y02647086D01*
X03303171Y02647093D01*
X03303263Y02647248D01*
X03303361Y02647389D01*
X03303467Y02647522D01*
X03303572Y02647649D01*
X03303685Y02647762D01*
X03303790Y02647867D01*
X03303903Y02647966D01*
X03304008Y02648057D01*
X03304107Y02648134D01*
X03304199Y02648198D01*
X03304283Y02648254D01*
X03304360Y02648304D01*
X03304417Y02648339D01*
X03304466Y02648367D01*
X03304494Y02648381D01*
X03304501Y02648388D01*
X03304663Y02648465D01*
X03304825Y02648535D01*
X03304987Y02648599D01*
X03305148Y02648655D01*
X03305303Y02648698D01*
X03305451Y02648733D01*
X03305592Y02648761D01*
X03305725Y02648789D01*
X03305845Y02648810D01*
X03305957Y02648824D01*
X03306056Y02648831D01*
X03306133Y02648838D01*
X03306204Y02648845D01*
X03306253D01*
X03306281D01*
X03306295D01*
X03306520Y02648838D01*
D02*
G37*
G36*
X03309919Y02638256D02*
X03306731D01*
X03306520D01*
X03306323Y02638249D01*
X03306140Y02638242D01*
X03305978Y02638235D01*
X03305831Y02638221D01*
X03305697Y02638214D01*
X03305584Y02638200D01*
X03305479Y02638186D01*
X03305388Y02638172D01*
X03305310Y02638158D01*
X03305247Y02638151D01*
X03305197Y02638137D01*
X03305162Y02638130D01*
X03305134Y02638123D01*
X03305120Y02638116D01*
X03305113D01*
X03304958Y02638052D01*
X03304818Y02637975D01*
X03304691Y02637883D01*
X03304593Y02637799D01*
X03304508Y02637715D01*
X03304452Y02637651D01*
X03304431Y02637623D01*
X03304417Y02637602D01*
X03304402Y02637595D01*
Y02637588D01*
X03304311Y02637440D01*
X03304248Y02637285D01*
X03304199Y02637137D01*
X03304170Y02637004D01*
X03304149Y02636884D01*
X03304142Y02636835D01*
Y02636793D01*
X03304135Y02636758D01*
Y02636708D01*
X03304142Y02636575D01*
X03304163Y02636448D01*
X03304199Y02636335D01*
X03304227Y02636244D01*
X03304262Y02636167D01*
X03304297Y02636110D01*
X03304318Y02636075D01*
X03304325Y02636061D01*
X03304402Y02635970D01*
X03304480Y02635885D01*
X03304572Y02635822D01*
X03304656Y02635766D01*
X03304726Y02635723D01*
X03304789Y02635695D01*
X03304832Y02635681D01*
X03304839Y02635674D01*
X03304846D01*
X03304916Y02635653D01*
X03305008Y02635632D01*
X03305106Y02635618D01*
X03305219Y02635604D01*
X03305338Y02635590D01*
X03305465Y02635576D01*
X03305711Y02635562D01*
X03305831Y02635555D01*
X03305943D01*
X03306049D01*
X03306140Y02635547D01*
X03306218D01*
X03306274D01*
X03306309D01*
X03306323D01*
X03309919D01*
Y02633683D01*
X03305542D01*
X03305395D01*
X03305254Y02633690D01*
X03305120D01*
X03305001Y02633697D01*
X03304888Y02633704D01*
X03304782Y02633718D01*
X03304691Y02633725D01*
X03304607Y02633732D01*
X03304529Y02633746D01*
X03304466Y02633753D01*
X03304409Y02633760D01*
X03304360Y02633774D01*
X03304325Y02633781D01*
X03304304D01*
X03304290Y02633788D01*
X03304283D01*
X03304121Y02633838D01*
X03303973Y02633894D01*
X03303847Y02633951D01*
X03303727Y02634014D01*
X03303636Y02634070D01*
X03303565Y02634119D01*
X03303537Y02634133D01*
X03303516Y02634147D01*
X03303509Y02634161D01*
X03303502D01*
X03303375Y02634267D01*
X03303270Y02634394D01*
X03303171Y02634520D01*
X03303087Y02634647D01*
X03303023Y02634760D01*
X03302995Y02634809D01*
X03302974Y02634851D01*
X03302953Y02634886D01*
X03302939Y02634914D01*
X03302932Y02634928D01*
Y02634935D01*
X03302855Y02635132D01*
X03302798Y02635322D01*
X03302763Y02635512D01*
X03302735Y02635688D01*
X03302728Y02635766D01*
X03302721Y02635836D01*
X03302714Y02635899D01*
X03302707Y02635956D01*
Y02636061D01*
X03302721Y02636321D01*
X03302756Y02636568D01*
X03302820Y02636800D01*
X03302897Y02637018D01*
X03302981Y02637222D01*
X03303087Y02637419D01*
X03303192Y02637595D01*
X03303305Y02637750D01*
X03303417Y02637897D01*
X03303523Y02638024D01*
X03303629Y02638130D01*
X03303713Y02638221D01*
X03303790Y02638299D01*
X03303854Y02638348D01*
X03303889Y02638376D01*
X03303903Y02638390D01*
X03302862D01*
Y02640121D01*
X03309919D01*
Y02638256D01*
D02*
G37*
G36*
Y02629926D02*
X03300181D01*
Y02631790D01*
X03309919D01*
Y02629926D01*
D02*
G37*
G36*
X03309940Y02626225D02*
X03310151Y02626288D01*
X03310341Y02626366D01*
X03310510Y02626450D01*
X03310643Y02626528D01*
X03310706Y02626563D01*
X03310756Y02626598D01*
X03310805Y02626626D01*
X03310840Y02626654D01*
X03310869Y02626675D01*
X03310890Y02626689D01*
X03310904Y02626696D01*
X03310911Y02626703D01*
X03310981Y02626767D01*
X03311037Y02626830D01*
X03311086Y02626907D01*
X03311136Y02626985D01*
X03311206Y02627140D01*
X03311248Y02627295D01*
X03311277Y02627442D01*
X03311284Y02627498D01*
X03311291Y02627555D01*
X03311298Y02627597D01*
Y02627661D01*
X03311291Y02627794D01*
X03311284Y02627935D01*
X03311270Y02628062D01*
X03311248Y02628188D01*
X03311234Y02628293D01*
X03311227Y02628336D01*
X03311220Y02628371D01*
X03311213Y02628406D01*
Y02628427D01*
X03311206Y02628441D01*
Y02628448D01*
X03312662Y02628279D01*
X03312705Y02628090D01*
X03312733Y02627899D01*
X03312754Y02627724D01*
X03312768Y02627562D01*
X03312775Y02627491D01*
Y02627372D01*
X03312782Y02627323D01*
Y02627231D01*
X03312775Y02627034D01*
X03312761Y02626858D01*
X03312747Y02626696D01*
X03312719Y02626549D01*
X03312712Y02626492D01*
X03312698Y02626436D01*
X03312691Y02626387D01*
X03312684Y02626352D01*
X03312677Y02626317D01*
X03312670Y02626295D01*
X03312662Y02626281D01*
Y02626274D01*
X03312613Y02626119D01*
X03312564Y02625986D01*
X03312515Y02625866D01*
X03312458Y02625761D01*
X03312416Y02625676D01*
X03312381Y02625613D01*
X03312353Y02625578D01*
X03312346Y02625564D01*
X03312268Y02625458D01*
X03312184Y02625359D01*
X03312093Y02625275D01*
X03312008Y02625205D01*
X03311938Y02625142D01*
X03311882Y02625092D01*
X03311839Y02625064D01*
X03311825Y02625057D01*
X03311692Y02624973D01*
X03311544Y02624888D01*
X03311382Y02624811D01*
X03311234Y02624734D01*
X03311094Y02624677D01*
X03311037Y02624649D01*
X03310981Y02624628D01*
X03310939Y02624607D01*
X03310911Y02624600D01*
X03310890Y02624586D01*
X03310883D01*
X03309658Y02624135D01*
X03302862Y02621645D01*
Y02623580D01*
X03307878Y02625233D01*
X03302862Y02626915D01*
Y02628899D01*
X03309940Y02626225D01*
D02*
G37*
G36*
X03312093Y02619942D02*
X03312001Y02619731D01*
X03311910Y02619534D01*
X03311811Y02619365D01*
X03311713Y02619225D01*
X03311671Y02619161D01*
X03311628Y02619112D01*
X03311593Y02619062D01*
X03311565Y02619027D01*
X03311537Y02618999D01*
X03311516Y02618971D01*
X03311509Y02618964D01*
X03311501Y02618957D01*
X03311361Y02618824D01*
X03311213Y02618704D01*
X03311072Y02618612D01*
X03310946Y02618542D01*
X03310833Y02618486D01*
X03310784Y02618465D01*
X03310742Y02618451D01*
X03310706Y02618436D01*
X03310685Y02618429D01*
X03310671Y02618422D01*
X03310664D01*
X03310573Y02618394D01*
X03310475Y02618373D01*
X03310263Y02618338D01*
X03310052Y02618317D01*
X03309848Y02618296D01*
X03309757D01*
X03309672Y02618289D01*
X03309588D01*
X03309525Y02618282D01*
X03309468D01*
X03309426D01*
X03309398D01*
X03309391D01*
X03308054D01*
Y02620146D01*
X03309919D01*
Y02619246D01*
X03310116Y02619260D01*
X03310284Y02619288D01*
X03310439Y02619330D01*
X03310566Y02619379D01*
X03310664Y02619421D01*
X03310706Y02619442D01*
X03310735Y02619464D01*
X03310763Y02619478D01*
X03310784Y02619492D01*
X03310791Y02619499D01*
X03310798D01*
X03310862Y02619548D01*
X03310918Y02619604D01*
X03311023Y02619724D01*
X03311115Y02619858D01*
X03311185Y02619991D01*
X03311248Y02620111D01*
X03311270Y02620160D01*
X03311291Y02620209D01*
X03311305Y02620245D01*
X03311319Y02620273D01*
X03311326Y02620294D01*
Y02620301D01*
X03312093Y02619942D01*
D02*
G37*
G36*
X03304726Y02618282D02*
X03302862D01*
Y02620146D01*
X03304726D01*
Y02618282D01*
D02*
G37*
G36*
X03309919Y02610296D02*
X03306731D01*
X03306520D01*
X03306323Y02610289D01*
X03306140Y02610282D01*
X03305978Y02610275D01*
X03305831Y02610261D01*
X03305697Y02610254D01*
X03305584Y02610240D01*
X03305479Y02610226D01*
X03305388Y02610211D01*
X03305310Y02610197D01*
X03305247Y02610190D01*
X03305197Y02610176D01*
X03305162Y02610169D01*
X03305134Y02610162D01*
X03305120Y02610155D01*
X03305113D01*
X03304958Y02610092D01*
X03304818Y02610015D01*
X03304691Y02609923D01*
X03304593Y02609839D01*
X03304508Y02609754D01*
X03304452Y02609691D01*
X03304431Y02609663D01*
X03304417Y02609642D01*
X03304402Y02609635D01*
Y02609628D01*
X03304311Y02609480D01*
X03304248Y02609325D01*
X03304199Y02609177D01*
X03304170Y02609044D01*
X03304149Y02608924D01*
X03304142Y02608875D01*
Y02608833D01*
X03304135Y02608797D01*
Y02608748D01*
X03304142Y02608615D01*
X03304163Y02608488D01*
X03304199Y02608375D01*
X03304227Y02608284D01*
X03304262Y02608206D01*
X03304297Y02608150D01*
X03304318Y02608115D01*
X03304325Y02608101D01*
X03304402Y02608009D01*
X03304480Y02607925D01*
X03304572Y02607862D01*
X03304656Y02607805D01*
X03304726Y02607763D01*
X03304789Y02607735D01*
X03304832Y02607721D01*
X03304839Y02607714D01*
X03304846D01*
X03304916Y02607693D01*
X03305008Y02607672D01*
X03305106Y02607657D01*
X03305219Y02607643D01*
X03305338Y02607629D01*
X03305465Y02607615D01*
X03305711Y02607601D01*
X03305831Y02607594D01*
X03305943D01*
X03306049D01*
X03306140Y02607587D01*
X03306218D01*
X03306274D01*
X03306309D01*
X03306323D01*
X03309919D01*
Y02605723D01*
X03305542D01*
X03305395D01*
X03305254Y02605730D01*
X03305120D01*
X03305001Y02605737D01*
X03304888Y02605744D01*
X03304782Y02605758D01*
X03304691Y02605765D01*
X03304607Y02605772D01*
X03304529Y02605786D01*
X03304466Y02605793D01*
X03304409Y02605800D01*
X03304360Y02605814D01*
X03304325Y02605821D01*
X03304304D01*
X03304290Y02605828D01*
X03304283D01*
X03304121Y02605877D01*
X03303973Y02605934D01*
X03303847Y02605990D01*
X03303727Y02606053D01*
X03303636Y02606110D01*
X03303565Y02606159D01*
X03303537Y02606173D01*
X03303516Y02606187D01*
X03303509Y02606201D01*
X03303502D01*
X03303375Y02606307D01*
X03303270Y02606433D01*
X03303171Y02606560D01*
X03303087Y02606687D01*
X03303023Y02606799D01*
X03302995Y02606848D01*
X03302974Y02606891D01*
X03302953Y02606926D01*
X03302939Y02606954D01*
X03302932Y02606968D01*
Y02606975D01*
X03302855Y02607172D01*
X03302798Y02607362D01*
X03302763Y02607552D01*
X03302735Y02607728D01*
X03302728Y02607805D01*
X03302721Y02607876D01*
X03302714Y02607939D01*
X03302707Y02607995D01*
Y02608101D01*
X03302721Y02608361D01*
X03302756Y02608607D01*
X03302820Y02608840D01*
X03302897Y02609058D01*
X03302981Y02609262D01*
X03303087Y02609459D01*
X03303192Y02609635D01*
X03303305Y02609789D01*
X03303417Y02609937D01*
X03303523Y02610064D01*
X03303629Y02610169D01*
X03303713Y02610261D01*
X03303790Y02610338D01*
X03303854Y02610388D01*
X03303889Y02610416D01*
X03303903Y02610430D01*
X03302862D01*
Y02612161D01*
X03309919D01*
Y02610296D01*
D02*
G37*
G36*
X03306520Y02604259D02*
X03306731Y02604245D01*
X03306935Y02604224D01*
X03307132Y02604196D01*
X03307315Y02604161D01*
X03307484Y02604119D01*
X03307639Y02604083D01*
X03307787Y02604034D01*
X03307914Y02603992D01*
X03308033Y02603957D01*
X03308131Y02603914D01*
X03308209Y02603879D01*
X03308279Y02603851D01*
X03308322Y02603830D01*
X03308357Y02603816D01*
X03308364Y02603809D01*
X03308518Y02603718D01*
X03308659Y02603619D01*
X03308793Y02603513D01*
X03308919Y02603408D01*
X03309032Y02603295D01*
X03309138Y02603183D01*
X03309236Y02603077D01*
X03309320Y02602972D01*
X03309398Y02602866D01*
X03309461Y02602775D01*
X03309518Y02602690D01*
X03309560Y02602620D01*
X03309595Y02602556D01*
X03309623Y02602507D01*
X03309637Y02602479D01*
X03309644Y02602472D01*
X03309722Y02602303D01*
X03309785Y02602141D01*
X03309848Y02601973D01*
X03309897Y02601811D01*
X03309940Y02601656D01*
X03309975Y02601501D01*
X03310003Y02601353D01*
X03310024Y02601220D01*
X03310045Y02601093D01*
X03310059Y02600974D01*
X03310066Y02600875D01*
X03310074Y02600784D01*
X03310080Y02600720D01*
Y02600622D01*
X03310066Y02600333D01*
X03310038Y02600059D01*
X03309982Y02599799D01*
X03309919Y02599552D01*
X03309834Y02599320D01*
X03309750Y02599109D01*
X03309651Y02598912D01*
X03309553Y02598729D01*
X03309461Y02598567D01*
X03309363Y02598427D01*
X03309278Y02598307D01*
X03309194Y02598202D01*
X03309131Y02598124D01*
X03309074Y02598068D01*
X03309046Y02598033D01*
X03309032Y02598018D01*
X03308828Y02597836D01*
X03308617Y02597674D01*
X03308392Y02597540D01*
X03308174Y02597420D01*
X03307949Y02597322D01*
X03307730Y02597238D01*
X03307512Y02597167D01*
X03307308Y02597111D01*
X03307118Y02597069D01*
X03306942Y02597041D01*
X03306781Y02597012D01*
X03306647Y02596998D01*
X03306534Y02596991D01*
X03306485D01*
X03306450Y02596984D01*
X03306422D01*
X03306401D01*
X03306387D01*
X03306380D01*
X03306091Y02596998D01*
X03305810Y02597026D01*
X03305549Y02597076D01*
X03305296Y02597146D01*
X03305064Y02597224D01*
X03304846Y02597308D01*
X03304649Y02597399D01*
X03304466Y02597498D01*
X03304304Y02597596D01*
X03304163Y02597688D01*
X03304037Y02597772D01*
X03303938Y02597850D01*
X03303854Y02597913D01*
X03303797Y02597969D01*
X03303762Y02597997D01*
X03303748Y02598011D01*
X03303565Y02598209D01*
X03303403Y02598419D01*
X03303263Y02598631D01*
X03303143Y02598849D01*
X03303045Y02599074D01*
X03302960Y02599292D01*
X03302890Y02599503D01*
X03302834Y02599707D01*
X03302791Y02599897D01*
X03302763Y02600073D01*
X03302735Y02600235D01*
X03302721Y02600369D01*
X03302714Y02600481D01*
Y02600523D01*
X03302707Y02600565D01*
Y02600636D01*
X03302714Y02600826D01*
X03302728Y02601016D01*
X03302749Y02601192D01*
X03302777Y02601367D01*
X03302812Y02601530D01*
X03302855Y02601684D01*
X03302897Y02601832D01*
X03302939Y02601966D01*
X03302981Y02602085D01*
X03303023Y02602191D01*
X03303066Y02602289D01*
X03303101Y02602367D01*
X03303129Y02602430D01*
X03303150Y02602479D01*
X03303164Y02602507D01*
X03303171Y02602514D01*
X03303263Y02602669D01*
X03303361Y02602810D01*
X03303467Y02602944D01*
X03303572Y02603070D01*
X03303685Y02603183D01*
X03303790Y02603288D01*
X03303903Y02603387D01*
X03304008Y02603478D01*
X03304107Y02603556D01*
X03304199Y02603619D01*
X03304283Y02603675D01*
X03304360Y02603725D01*
X03304417Y02603760D01*
X03304466Y02603788D01*
X03304494Y02603802D01*
X03304501Y02603809D01*
X03304663Y02603886D01*
X03304825Y02603957D01*
X03304987Y02604020D01*
X03305148Y02604077D01*
X03305303Y02604119D01*
X03305451Y02604154D01*
X03305592Y02604182D01*
X03305725Y02604210D01*
X03305845Y02604231D01*
X03305957Y02604245D01*
X03306056Y02604252D01*
X03306133Y02604259D01*
X03306204Y02604266D01*
X03306253D01*
X03306281D01*
X03306295D01*
X03306520Y02604259D01*
D02*
G37*
G36*
X03304346Y02595436D02*
X03307428D01*
X03307604D01*
X03307766D01*
X03307921Y02595429D01*
X03308054D01*
X03308174Y02595422D01*
X03308279Y02595415D01*
X03308378D01*
X03308455Y02595408D01*
X03308525Y02595401D01*
X03308589Y02595394D01*
X03308638D01*
X03308680Y02595387D01*
X03308708D01*
X03308730Y02595380D01*
X03308737D01*
X03308744D01*
X03308905Y02595352D01*
X03309053Y02595310D01*
X03309180Y02595268D01*
X03309285Y02595225D01*
X03309363Y02595183D01*
X03309426Y02595148D01*
X03309461Y02595127D01*
X03309475Y02595120D01*
X03309574Y02595042D01*
X03309658Y02594944D01*
X03309729Y02594852D01*
X03309792Y02594754D01*
X03309841Y02594662D01*
X03309883Y02594592D01*
X03309897Y02594564D01*
X03309904Y02594543D01*
X03309911Y02594536D01*
Y02594529D01*
X03309968Y02594374D01*
X03310010Y02594212D01*
X03310038Y02594064D01*
X03310059Y02593924D01*
X03310074Y02593797D01*
Y02593748D01*
X03310080Y02593706D01*
Y02593621D01*
X03310066Y02593318D01*
X03310038Y02593044D01*
X03310017Y02592910D01*
X03309996Y02592791D01*
X03309968Y02592679D01*
X03309940Y02592573D01*
X03309919Y02592481D01*
X03309890Y02592397D01*
X03309869Y02592320D01*
X03309848Y02592256D01*
X03309834Y02592207D01*
X03309820Y02592172D01*
X03309806Y02592151D01*
Y02592144D01*
X03308357Y02592306D01*
X03308413Y02592481D01*
X03308455Y02592629D01*
X03308490Y02592763D01*
X03308511Y02592868D01*
X03308525Y02592953D01*
X03308532Y02593009D01*
Y02593058D01*
X03308525Y02593122D01*
X03308518Y02593185D01*
X03308504Y02593241D01*
X03308483Y02593283D01*
X03308469Y02593326D01*
X03308455Y02593354D01*
X03308448Y02593368D01*
X03308441Y02593375D01*
X03308406Y02593417D01*
X03308364Y02593452D01*
X03308329Y02593481D01*
X03308293Y02593502D01*
X03308258Y02593516D01*
X03308230Y02593530D01*
X03308216Y02593537D01*
X03308209D01*
X03308174Y02593544D01*
X03308124Y02593551D01*
X03308061D01*
X03307991Y02593558D01*
X03307906D01*
X03307822Y02593565D01*
X03307646D01*
X03307477Y02593572D01*
X03307400D01*
X03307336D01*
X03307273D01*
X03307231D01*
X03307203D01*
X03307196D01*
X03304346D01*
Y02592298D01*
X03302862D01*
Y02593572D01*
X03300364D01*
X03301461Y02595436D01*
X03302862D01*
Y02596295D01*
X03304346D01*
Y02595436D01*
D02*
G37*
G36*
X03309919Y02585227D02*
X03305782D01*
Y02581161D01*
X03304135D01*
Y02585227D01*
X03301827D01*
Y02580514D01*
X03300181D01*
Y02587191D01*
X03309919D01*
Y02585227D01*
D02*
G37*
G36*
X03305352Y02579226D02*
X03305563Y02579219D01*
X03305957Y02579177D01*
X03306330Y02579120D01*
X03306675Y02579036D01*
X03306999Y02578944D01*
X03307301Y02578839D01*
X03307569Y02578727D01*
X03307815Y02578607D01*
X03308033Y02578494D01*
X03308223Y02578382D01*
X03308307Y02578325D01*
X03308385Y02578276D01*
X03308455Y02578227D01*
X03308518Y02578185D01*
X03308575Y02578142D01*
X03308624Y02578100D01*
X03308666Y02578072D01*
X03308701Y02578044D01*
X03308730Y02578016D01*
X03308751Y02578002D01*
X03308758Y02577988D01*
X03308765D01*
X03308884Y02577868D01*
X03308997Y02577748D01*
X03309102Y02577622D01*
X03309201Y02577495D01*
X03309377Y02577228D01*
X03309532Y02576967D01*
X03309658Y02576693D01*
X03309764Y02576433D01*
X03309855Y02576172D01*
X03309919Y02575926D01*
X03309975Y02575694D01*
X03310017Y02575483D01*
X03310045Y02575286D01*
X03310059Y02575201D01*
X03310066Y02575124D01*
X03310074Y02575054D01*
X03310080Y02574991D01*
Y02574934D01*
X03310087Y02574885D01*
Y02574800D01*
X03310080Y02574512D01*
X03310052Y02574237D01*
X03310017Y02573977D01*
X03309968Y02573738D01*
X03309904Y02573506D01*
X03309841Y02573295D01*
X03309771Y02573098D01*
X03309701Y02572922D01*
X03309630Y02572760D01*
X03309560Y02572619D01*
X03309489Y02572500D01*
X03309433Y02572401D01*
X03309384Y02572324D01*
X03309349Y02572267D01*
X03309320Y02572232D01*
X03309313Y02572218D01*
X03309159Y02572035D01*
X03308990Y02571859D01*
X03308807Y02571705D01*
X03308617Y02571557D01*
X03308420Y02571423D01*
X03308223Y02571304D01*
X03308026Y02571198D01*
X03307836Y02571107D01*
X03307660Y02571022D01*
X03307491Y02570952D01*
X03307336Y02570888D01*
X03307203Y02570839D01*
X03307097Y02570804D01*
X03307048Y02570790D01*
X03307013Y02570776D01*
X03306985Y02570769D01*
X03306964Y02570762D01*
X03306949Y02570755D01*
X03306942D01*
X03306337Y02572661D01*
X03306534Y02572711D01*
X03306717Y02572767D01*
X03306879Y02572831D01*
X03307041Y02572894D01*
X03307182Y02572957D01*
X03307308Y02573027D01*
X03307428Y02573098D01*
X03307527Y02573161D01*
X03307618Y02573224D01*
X03307695Y02573281D01*
X03307766Y02573337D01*
X03307815Y02573386D01*
X03307857Y02573421D01*
X03307892Y02573449D01*
X03307906Y02573470D01*
X03307914Y02573478D01*
X03307998Y02573583D01*
X03308075Y02573696D01*
X03308138Y02573808D01*
X03308195Y02573928D01*
X03308244Y02574041D01*
X03308286Y02574153D01*
X03308322Y02574259D01*
X03308343Y02574357D01*
X03308364Y02574456D01*
X03308378Y02574547D01*
X03308392Y02574625D01*
X03308399Y02574688D01*
X03308406Y02574744D01*
Y02574821D01*
X03308399Y02575019D01*
X03308371Y02575201D01*
X03308336Y02575377D01*
X03308286Y02575539D01*
X03308223Y02575694D01*
X03308159Y02575835D01*
X03308089Y02575961D01*
X03308012Y02576081D01*
X03307942Y02576187D01*
X03307871Y02576278D01*
X03307808Y02576362D01*
X03307744Y02576426D01*
X03307695Y02576475D01*
X03307660Y02576517D01*
X03307632Y02576538D01*
X03307625Y02576545D01*
X03307463Y02576665D01*
X03307287Y02576763D01*
X03307090Y02576855D01*
X03306886Y02576925D01*
X03306668Y02576989D01*
X03306450Y02577045D01*
X03306232Y02577087D01*
X03306021Y02577122D01*
X03305817Y02577150D01*
X03305627Y02577172D01*
X03305451Y02577185D01*
X03305303Y02577193D01*
X03305233Y02577200D01*
X03305176D01*
X03305127Y02577207D01*
X03305078D01*
X03305050D01*
X03305022D01*
X03305008D01*
X03305001D01*
X03304684Y02577200D01*
X03304388Y02577179D01*
X03304121Y02577143D01*
X03303868Y02577101D01*
X03303643Y02577052D01*
X03303439Y02576996D01*
X03303249Y02576932D01*
X03303087Y02576869D01*
X03302939Y02576813D01*
X03302820Y02576749D01*
X03302714Y02576693D01*
X03302629Y02576644D01*
X03302566Y02576602D01*
X03302517Y02576566D01*
X03302489Y02576545D01*
X03302482Y02576538D01*
X03302341Y02576404D01*
X03302221Y02576271D01*
X03302123Y02576123D01*
X03302031Y02575982D01*
X03301954Y02575835D01*
X03301891Y02575687D01*
X03301841Y02575546D01*
X03301799Y02575406D01*
X03301764Y02575279D01*
X03301743Y02575159D01*
X03301722Y02575054D01*
X03301715Y02574962D01*
X03301708Y02574892D01*
X03301701Y02574836D01*
Y02574786D01*
X03301708Y02574639D01*
X03301722Y02574505D01*
X03301743Y02574371D01*
X03301771Y02574245D01*
X03301806Y02574132D01*
X03301841Y02574019D01*
X03301884Y02573921D01*
X03301919Y02573822D01*
X03301961Y02573745D01*
X03302003Y02573668D01*
X03302039Y02573604D01*
X03302074Y02573555D01*
X03302102Y02573513D01*
X03302123Y02573478D01*
X03302137Y02573464D01*
X03302144Y02573456D01*
X03302228Y02573358D01*
X03302320Y02573267D01*
X03302419Y02573182D01*
X03302517Y02573112D01*
X03302615Y02573048D01*
X03302714Y02572985D01*
X03302904Y02572887D01*
X03302988Y02572852D01*
X03303073Y02572816D01*
X03303143Y02572788D01*
X03303206Y02572767D01*
X03303263Y02572753D01*
X03303298Y02572739D01*
X03303326Y02572732D01*
X03303333D01*
X03302869Y02570783D01*
X03302657Y02570846D01*
X03302454Y02570924D01*
X03302271Y02571001D01*
X03302095Y02571078D01*
X03301940Y02571163D01*
X03301792Y02571247D01*
X03301659Y02571332D01*
X03301539Y02571409D01*
X03301433Y02571487D01*
X03301342Y02571557D01*
X03301258Y02571620D01*
X03301194Y02571677D01*
X03301145Y02571719D01*
X03301110Y02571754D01*
X03301089Y02571775D01*
X03301082Y02571782D01*
X03300892Y02572000D01*
X03300730Y02572225D01*
X03300589Y02572465D01*
X03300469Y02572704D01*
X03300364Y02572950D01*
X03300280Y02573189D01*
X03300209Y02573428D01*
X03300153Y02573654D01*
X03300111Y02573865D01*
X03300075Y02574062D01*
X03300054Y02574231D01*
X03300033Y02574385D01*
Y02574449D01*
X03300026Y02574512D01*
Y02574561D01*
X03300019Y02574603D01*
Y02574681D01*
X03300026Y02574871D01*
X03300033Y02575054D01*
X03300075Y02575413D01*
X03300146Y02575743D01*
X03300230Y02576060D01*
X03300329Y02576355D01*
X03300448Y02576623D01*
X03300568Y02576876D01*
X03300695Y02577101D01*
X03300821Y02577298D01*
X03300941Y02577474D01*
X03301053Y02577629D01*
X03301159Y02577755D01*
X03301243Y02577854D01*
X03301314Y02577924D01*
X03301335Y02577945D01*
X03301356Y02577967D01*
X03301363Y02577974D01*
X03301370Y02577981D01*
X03301497Y02578093D01*
X03301630Y02578199D01*
X03301919Y02578396D01*
X03302214Y02578557D01*
X03302524Y02578705D01*
X03302841Y02578825D01*
X03303150Y02578930D01*
X03303460Y02579008D01*
X03303762Y02579078D01*
X03304044Y02579128D01*
X03304304Y02579170D01*
X03304424Y02579184D01*
X03304536Y02579198D01*
X03304642Y02579205D01*
X03304740Y02579212D01*
X03304832Y02579219D01*
X03304909Y02579226D01*
X03304979D01*
X03305036Y02579233D01*
X03305078D01*
X03305113D01*
X03305134D01*
X03305141D01*
X03305352Y02579226D01*
D02*
G37*
G36*
Y02569404D02*
X03305563Y02569397D01*
X03305957Y02569355D01*
X03306330Y02569298D01*
X03306675Y02569214D01*
X03306999Y02569123D01*
X03307301Y02569017D01*
X03307569Y02568904D01*
X03307815Y02568785D01*
X03308033Y02568672D01*
X03308223Y02568560D01*
X03308307Y02568503D01*
X03308385Y02568454D01*
X03308455Y02568405D01*
X03308518Y02568363D01*
X03308575Y02568320D01*
X03308624Y02568278D01*
X03308666Y02568250D01*
X03308701Y02568222D01*
X03308730Y02568194D01*
X03308751Y02568180D01*
X03308758Y02568166D01*
X03308765D01*
X03308884Y02568046D01*
X03308997Y02567926D01*
X03309102Y02567800D01*
X03309201Y02567673D01*
X03309377Y02567406D01*
X03309532Y02567145D01*
X03309658Y02566871D01*
X03309764Y02566611D01*
X03309855Y02566350D01*
X03309919Y02566104D01*
X03309975Y02565872D01*
X03310017Y02565661D01*
X03310045Y02565464D01*
X03310059Y02565380D01*
X03310066Y02565302D01*
X03310074Y02565232D01*
X03310080Y02565168D01*
Y02565112D01*
X03310087Y02565063D01*
Y02564978D01*
X03310080Y02564690D01*
X03310052Y02564416D01*
X03310017Y02564155D01*
X03309968Y02563916D01*
X03309904Y02563684D01*
X03309841Y02563473D01*
X03309771Y02563276D01*
X03309701Y02563100D01*
X03309630Y02562938D01*
X03309560Y02562797D01*
X03309489Y02562678D01*
X03309433Y02562579D01*
X03309384Y02562502D01*
X03309349Y02562445D01*
X03309320Y02562410D01*
X03309313Y02562396D01*
X03309159Y02562213D01*
X03308990Y02562037D01*
X03308807Y02561883D01*
X03308617Y02561735D01*
X03308420Y02561601D01*
X03308223Y02561482D01*
X03308026Y02561376D01*
X03307836Y02561284D01*
X03307660Y02561200D01*
X03307491Y02561130D01*
X03307336Y02561067D01*
X03307203Y02561017D01*
X03307097Y02560982D01*
X03307048Y02560968D01*
X03307013Y02560954D01*
X03306985Y02560947D01*
X03306964Y02560940D01*
X03306949Y02560933D01*
X03306942D01*
X03306337Y02562839D01*
X03306534Y02562889D01*
X03306717Y02562945D01*
X03306879Y02563008D01*
X03307041Y02563072D01*
X03307182Y02563135D01*
X03307308Y02563205D01*
X03307428Y02563276D01*
X03307527Y02563339D01*
X03307618Y02563402D01*
X03307695Y02563459D01*
X03307766Y02563515D01*
X03307815Y02563564D01*
X03307857Y02563600D01*
X03307892Y02563628D01*
X03307906Y02563649D01*
X03307914Y02563656D01*
X03307998Y02563761D01*
X03308075Y02563874D01*
X03308138Y02563987D01*
X03308195Y02564106D01*
X03308244Y02564218D01*
X03308286Y02564331D01*
X03308322Y02564437D01*
X03308343Y02564535D01*
X03308364Y02564634D01*
X03308378Y02564725D01*
X03308392Y02564803D01*
X03308399Y02564866D01*
X03308406Y02564922D01*
Y02564999D01*
X03308399Y02565197D01*
X03308371Y02565380D01*
X03308336Y02565555D01*
X03308286Y02565717D01*
X03308223Y02565872D01*
X03308159Y02566013D01*
X03308089Y02566139D01*
X03308012Y02566259D01*
X03307942Y02566364D01*
X03307871Y02566456D01*
X03307808Y02566541D01*
X03307744Y02566604D01*
X03307695Y02566653D01*
X03307660Y02566695D01*
X03307632Y02566716D01*
X03307625Y02566723D01*
X03307463Y02566843D01*
X03307287Y02566942D01*
X03307090Y02567033D01*
X03306886Y02567103D01*
X03306668Y02567166D01*
X03306450Y02567223D01*
X03306232Y02567265D01*
X03306021Y02567300D01*
X03305817Y02567328D01*
X03305627Y02567350D01*
X03305451Y02567364D01*
X03305303Y02567371D01*
X03305233Y02567378D01*
X03305176D01*
X03305127Y02567385D01*
X03305078D01*
X03305050D01*
X03305022D01*
X03305008D01*
X03305001D01*
X03304684Y02567378D01*
X03304388Y02567357D01*
X03304121Y02567321D01*
X03303868Y02567279D01*
X03303643Y02567230D01*
X03303439Y02567173D01*
X03303249Y02567110D01*
X03303087Y02567047D01*
X03302939Y02566991D01*
X03302820Y02566927D01*
X03302714Y02566871D01*
X03302629Y02566822D01*
X03302566Y02566779D01*
X03302517Y02566744D01*
X03302489Y02566723D01*
X03302482Y02566716D01*
X03302341Y02566583D01*
X03302221Y02566449D01*
X03302123Y02566301D01*
X03302031Y02566160D01*
X03301954Y02566013D01*
X03301891Y02565865D01*
X03301841Y02565724D01*
X03301799Y02565583D01*
X03301764Y02565457D01*
X03301743Y02565337D01*
X03301722Y02565232D01*
X03301715Y02565140D01*
X03301708Y02565070D01*
X03301701Y02565014D01*
Y02564964D01*
X03301708Y02564817D01*
X03301722Y02564683D01*
X03301743Y02564549D01*
X03301771Y02564423D01*
X03301806Y02564310D01*
X03301841Y02564197D01*
X03301884Y02564099D01*
X03301919Y02564001D01*
X03301961Y02563923D01*
X03302003Y02563846D01*
X03302039Y02563782D01*
X03302074Y02563733D01*
X03302102Y02563691D01*
X03302123Y02563656D01*
X03302137Y02563642D01*
X03302144Y02563635D01*
X03302228Y02563536D01*
X03302320Y02563445D01*
X03302419Y02563360D01*
X03302517Y02563290D01*
X03302615Y02563227D01*
X03302714Y02563163D01*
X03302904Y02563065D01*
X03302988Y02563029D01*
X03303073Y02562994D01*
X03303143Y02562966D01*
X03303206Y02562945D01*
X03303263Y02562931D01*
X03303298Y02562917D01*
X03303326Y02562910D01*
X03303333D01*
X03302869Y02560961D01*
X03302657Y02561024D01*
X03302454Y02561102D01*
X03302271Y02561179D01*
X03302095Y02561256D01*
X03301940Y02561341D01*
X03301792Y02561425D01*
X03301659Y02561510D01*
X03301539Y02561587D01*
X03301433Y02561664D01*
X03301342Y02561735D01*
X03301258Y02561798D01*
X03301194Y02561855D01*
X03301145Y02561897D01*
X03301110Y02561932D01*
X03301089Y02561953D01*
X03301082Y02561960D01*
X03300892Y02562178D01*
X03300730Y02562403D01*
X03300589Y02562643D01*
X03300469Y02562882D01*
X03300364Y02563128D01*
X03300280Y02563367D01*
X03300209Y02563606D01*
X03300153Y02563831D01*
X03300111Y02564043D01*
X03300075Y02564240D01*
X03300054Y02564409D01*
X03300033Y02564563D01*
Y02564626D01*
X03300026Y02564690D01*
Y02564739D01*
X03300019Y02564781D01*
Y02564859D01*
X03300026Y02565049D01*
X03300033Y02565232D01*
X03300075Y02565591D01*
X03300146Y02565921D01*
X03300230Y02566238D01*
X03300329Y02566533D01*
X03300448Y02566801D01*
X03300568Y02567054D01*
X03300695Y02567279D01*
X03300821Y02567476D01*
X03300941Y02567652D01*
X03301053Y02567807D01*
X03301159Y02567933D01*
X03301243Y02568032D01*
X03301314Y02568102D01*
X03301335Y02568123D01*
X03301356Y02568145D01*
X03301363Y02568152D01*
X03301370Y02568159D01*
X03301497Y02568271D01*
X03301630Y02568377D01*
X03301919Y02568574D01*
X03302214Y02568735D01*
X03302524Y02568883D01*
X03302841Y02569003D01*
X03303150Y02569108D01*
X03303460Y02569186D01*
X03303762Y02569256D01*
X03304044Y02569305D01*
X03304304Y02569348D01*
X03304424Y02569362D01*
X03304536Y02569376D01*
X03304642Y02569383D01*
X03304740Y02569390D01*
X03304832Y02569397D01*
X03304909Y02569404D01*
X03304979D01*
X03305036Y02569411D01*
X03305078D01*
X03305113D01*
X03305134D01*
X03305141D01*
X03305352Y02569404D01*
D02*
G37*
G36*
X03308159Y02555966D02*
X03308322Y02555944D01*
X03308469Y02555916D01*
X03308610Y02555874D01*
X03308744Y02555825D01*
X03308863Y02555776D01*
X03308976Y02555719D01*
X03309081Y02555656D01*
X03309173Y02555600D01*
X03309257Y02555543D01*
X03309328Y02555494D01*
X03309384Y02555445D01*
X03309426Y02555403D01*
X03309461Y02555374D01*
X03309482Y02555353D01*
X03309489Y02555346D01*
X03309595Y02555227D01*
X03309686Y02555093D01*
X03309764Y02554952D01*
X03309834Y02554812D01*
X03309890Y02554671D01*
X03309933Y02554530D01*
X03309975Y02554389D01*
X03310003Y02554256D01*
X03310031Y02554122D01*
X03310052Y02554010D01*
X03310059Y02553904D01*
X03310074Y02553813D01*
Y02553735D01*
X03310080Y02553679D01*
Y02553630D01*
X03310074Y02553405D01*
X03310045Y02553186D01*
X03310010Y02552989D01*
X03309989Y02552898D01*
X03309961Y02552814D01*
X03309940Y02552743D01*
X03309919Y02552673D01*
X03309904Y02552616D01*
X03309883Y02552560D01*
X03309869Y02552525D01*
X03309855Y02552490D01*
X03309848Y02552476D01*
Y02552469D01*
X03309750Y02552265D01*
X03309644Y02552075D01*
X03309525Y02551899D01*
X03309412Y02551751D01*
X03309363Y02551681D01*
X03309313Y02551624D01*
X03309264Y02551568D01*
X03309229Y02551526D01*
X03309194Y02551491D01*
X03309173Y02551463D01*
X03309159Y02551449D01*
X03309152Y02551441D01*
X03309180Y02551434D01*
X03309208Y02551427D01*
X03309278Y02551406D01*
X03309313Y02551392D01*
X03309342Y02551385D01*
X03309363Y02551378D01*
X03309370D01*
X03309496Y02551343D01*
X03309609Y02551308D01*
X03309701Y02551273D01*
X03309778Y02551245D01*
X03309841Y02551223D01*
X03309883Y02551209D01*
X03309911Y02551195D01*
X03309919D01*
Y02549352D01*
X03309736Y02549436D01*
X03309560Y02549507D01*
X03309398Y02549570D01*
X03309257Y02549612D01*
X03309145Y02549647D01*
X03309095Y02549662D01*
X03309053Y02549668D01*
X03309018Y02549683D01*
X03308997D01*
X03308983Y02549690D01*
X03308976D01*
X03308884Y02549704D01*
X03308793Y02549718D01*
X03308687Y02549732D01*
X03308575Y02549739D01*
X03308350Y02549753D01*
X03308124Y02549760D01*
X03308019Y02549767D01*
X03307921D01*
X03307836Y02549774D01*
X03307758D01*
X03307695D01*
X03307646D01*
X03307611D01*
X03307604D01*
X03305430Y02549746D01*
X03305211D01*
X03305008Y02549760D01*
X03304825Y02549767D01*
X03304656Y02549788D01*
X03304501Y02549802D01*
X03304367Y02549823D01*
X03304241Y02549851D01*
X03304135Y02549872D01*
X03304044Y02549894D01*
X03303966Y02549922D01*
X03303896Y02549943D01*
X03303847Y02549957D01*
X03303805Y02549978D01*
X03303776Y02549985D01*
X03303762Y02549999D01*
X03303755D01*
X03303671Y02550048D01*
X03303593Y02550105D01*
X03303446Y02550238D01*
X03303319Y02550379D01*
X03303206Y02550520D01*
X03303122Y02550654D01*
X03303087Y02550710D01*
X03303059Y02550759D01*
X03303030Y02550801D01*
X03303016Y02550829D01*
X03303002Y02550851D01*
Y02550858D01*
X03302953Y02550977D01*
X03302904Y02551111D01*
X03302862Y02551259D01*
X03302834Y02551406D01*
X03302777Y02551716D01*
X03302756Y02551871D01*
X03302742Y02552018D01*
X03302728Y02552159D01*
X03302721Y02552293D01*
X03302714Y02552413D01*
Y02552518D01*
X03302707Y02552602D01*
Y02552722D01*
X03302714Y02552975D01*
X03302728Y02553208D01*
X03302756Y02553426D01*
X03302784Y02553630D01*
X03302820Y02553813D01*
X03302862Y02553988D01*
X03302911Y02554143D01*
X03302953Y02554277D01*
X03303002Y02554404D01*
X03303051Y02554509D01*
X03303094Y02554601D01*
X03303129Y02554671D01*
X03303157Y02554727D01*
X03303185Y02554769D01*
X03303199Y02554798D01*
X03303206Y02554805D01*
X03303305Y02554931D01*
X03303411Y02555044D01*
X03303530Y02555156D01*
X03303650Y02555248D01*
X03303776Y02555339D01*
X03303903Y02555417D01*
X03304023Y02555494D01*
X03304149Y02555558D01*
X03304262Y02555607D01*
X03304367Y02555656D01*
X03304466Y02555698D01*
X03304550Y02555726D01*
X03304621Y02555755D01*
X03304677Y02555768D01*
X03304705Y02555776D01*
X03304719Y02555783D01*
X03305022Y02554087D01*
X03304853Y02554017D01*
X03304705Y02553946D01*
X03304585Y02553869D01*
X03304494Y02553799D01*
X03304424Y02553742D01*
X03304367Y02553686D01*
X03304339Y02553658D01*
X03304332Y02553644D01*
X03304269Y02553531D01*
X03304220Y02553405D01*
X03304184Y02553271D01*
X03304156Y02553144D01*
X03304142Y02553039D01*
Y02552989D01*
X03304135Y02552947D01*
Y02552729D01*
X03304142Y02552610D01*
X03304156Y02552497D01*
X03304170Y02552391D01*
X03304191Y02552300D01*
X03304206Y02552222D01*
X03304227Y02552145D01*
X03304248Y02552082D01*
X03304276Y02552025D01*
X03304297Y02551983D01*
X03304311Y02551941D01*
X03304332Y02551913D01*
X03304346Y02551885D01*
X03304360Y02551871D01*
X03304367Y02551857D01*
X03304417Y02551807D01*
X03304466Y02551765D01*
X03304585Y02551702D01*
X03304712Y02551653D01*
X03304839Y02551624D01*
X03304951Y02551603D01*
X03305001Y02551596D01*
X03305050D01*
X03305085Y02551589D01*
X03305113D01*
X03305127D01*
X03305134D01*
X03305317D01*
X03305359Y02551695D01*
X03305402Y02551814D01*
X03305444Y02551948D01*
X03305479Y02552089D01*
X03305556Y02552384D01*
X03305634Y02552687D01*
X03305662Y02552828D01*
X03305690Y02552961D01*
X03305718Y02553088D01*
X03305739Y02553193D01*
X03305760Y02553278D01*
X03305768Y02553348D01*
X03305782Y02553390D01*
Y02553405D01*
X03305817Y02553580D01*
X03305852Y02553749D01*
X03305887Y02553904D01*
X03305929Y02554045D01*
X03305964Y02554178D01*
X03305999Y02554298D01*
X03306035Y02554411D01*
X03306070Y02554509D01*
X03306098Y02554601D01*
X03306126Y02554678D01*
X03306154Y02554741D01*
X03306176Y02554791D01*
X03306190Y02554833D01*
X03306204Y02554868D01*
X03306218Y02554882D01*
Y02554889D01*
X03306316Y02555072D01*
X03306436Y02555234D01*
X03306555Y02555367D01*
X03306668Y02555480D01*
X03306774Y02555571D01*
X03306858Y02555635D01*
X03306893Y02555663D01*
X03306914Y02555677D01*
X03306928Y02555684D01*
X03306935Y02555691D01*
X03307111Y02555783D01*
X03307294Y02555853D01*
X03307477Y02555902D01*
X03307639Y02555937D01*
X03307716Y02555952D01*
X03307787Y02555959D01*
X03307843Y02555966D01*
X03307899D01*
X03307942Y02555973D01*
X03307970D01*
X03307991D01*
X03307998D01*
X03308159Y02555966D01*
D02*
G37*
G36*
X03312599Y02546108D02*
X03309053D01*
X03309152Y02546010D01*
X03309250Y02545918D01*
X03309335Y02545820D01*
X03309412Y02545735D01*
X03309489Y02545644D01*
X03309553Y02545567D01*
X03309658Y02545419D01*
X03309708Y02545349D01*
X03309743Y02545292D01*
X03309778Y02545243D01*
X03309806Y02545201D01*
X03309820Y02545166D01*
X03309834Y02545137D01*
X03309848Y02545123D01*
Y02545116D01*
X03309926Y02544933D01*
X03309982Y02544751D01*
X03310024Y02544568D01*
X03310052Y02544399D01*
X03310059Y02544328D01*
X03310066Y02544258D01*
X03310074Y02544202D01*
Y02544145D01*
X03310080Y02544103D01*
Y02544047D01*
X03310066Y02543822D01*
X03310038Y02543604D01*
X03309989Y02543393D01*
X03309926Y02543203D01*
X03309855Y02543013D01*
X03309771Y02542844D01*
X03309679Y02542682D01*
X03309588Y02542534D01*
X03309503Y02542408D01*
X03309412Y02542288D01*
X03309328Y02542189D01*
X03309257Y02542105D01*
X03309194Y02542035D01*
X03309145Y02541992D01*
X03309117Y02541957D01*
X03309102Y02541950D01*
X03308912Y02541795D01*
X03308701Y02541662D01*
X03308483Y02541549D01*
X03308258Y02541451D01*
X03308033Y02541366D01*
X03307801Y02541296D01*
X03307583Y02541240D01*
X03307365Y02541190D01*
X03307161Y02541155D01*
X03306971Y02541127D01*
X03306795Y02541113D01*
X03306647Y02541099D01*
X03306584Y02541092D01*
X03306527D01*
X03306478Y02541085D01*
X03306436D01*
X03306401D01*
X03306380D01*
X03306365D01*
X03306359D01*
X03306042Y02541092D01*
X03305746Y02541120D01*
X03305472Y02541162D01*
X03305211Y02541219D01*
X03304973Y02541282D01*
X03304747Y02541359D01*
X03304550Y02541437D01*
X03304367Y02541514D01*
X03304206Y02541591D01*
X03304065Y02541669D01*
X03303945Y02541746D01*
X03303847Y02541810D01*
X03303769Y02541866D01*
X03303713Y02541908D01*
X03303685Y02541936D01*
X03303671Y02541943D01*
X03303502Y02542105D01*
X03303354Y02542281D01*
X03303221Y02542457D01*
X03303115Y02542633D01*
X03303016Y02542809D01*
X03302939Y02542984D01*
X03302876Y02543146D01*
X03302827Y02543308D01*
X03302784Y02543463D01*
X03302756Y02543597D01*
X03302735Y02543723D01*
X03302721Y02543829D01*
X03302714Y02543913D01*
X03302707Y02543976D01*
Y02544167D01*
X03302721Y02544293D01*
X03302756Y02544532D01*
X03302812Y02544751D01*
X03302841Y02544849D01*
X03302869Y02544940D01*
X03302904Y02545025D01*
X03302932Y02545102D01*
X03302960Y02545166D01*
X03302988Y02545222D01*
X03303009Y02545264D01*
X03303023Y02545292D01*
X03303030Y02545313D01*
X03303038Y02545320D01*
X03303171Y02545524D01*
X03303312Y02545707D01*
X03303460Y02545862D01*
X03303593Y02545996D01*
X03303657Y02546052D01*
X03303713Y02546094D01*
X03303769Y02546136D01*
X03303812Y02546172D01*
X03303854Y02546200D01*
X03303882Y02546221D01*
X03303896Y02546228D01*
X03303903Y02546235D01*
X03302862D01*
Y02547973D01*
X03312599D01*
Y02546108D01*
D02*
G37*
G36*
Y02537799D02*
X03309053D01*
X03309152Y02537701D01*
X03309250Y02537609D01*
X03309335Y02537511D01*
X03309412Y02537426D01*
X03309489Y02537335D01*
X03309553Y02537257D01*
X03309658Y02537110D01*
X03309708Y02537039D01*
X03309743Y02536983D01*
X03309778Y02536934D01*
X03309806Y02536891D01*
X03309820Y02536856D01*
X03309834Y02536828D01*
X03309848Y02536814D01*
Y02536807D01*
X03309926Y02536624D01*
X03309982Y02536441D01*
X03310024Y02536258D01*
X03310052Y02536089D01*
X03310059Y02536019D01*
X03310066Y02535949D01*
X03310074Y02535892D01*
Y02535836D01*
X03310080Y02535794D01*
Y02535738D01*
X03310066Y02535513D01*
X03310038Y02535294D01*
X03309989Y02535083D01*
X03309926Y02534893D01*
X03309855Y02534703D01*
X03309771Y02534534D01*
X03309679Y02534373D01*
X03309588Y02534225D01*
X03309503Y02534098D01*
X03309412Y02533979D01*
X03309328Y02533880D01*
X03309257Y02533796D01*
X03309194Y02533725D01*
X03309145Y02533683D01*
X03309117Y02533648D01*
X03309102Y02533641D01*
X03308912Y02533486D01*
X03308701Y02533353D01*
X03308483Y02533240D01*
X03308258Y02533141D01*
X03308033Y02533057D01*
X03307801Y02532987D01*
X03307583Y02532930D01*
X03307365Y02532881D01*
X03307161Y02532846D01*
X03306971Y02532818D01*
X03306795Y02532804D01*
X03306647Y02532790D01*
X03306584Y02532783D01*
X03306527D01*
X03306478Y02532776D01*
X03306436D01*
X03306401D01*
X03306380D01*
X03306365D01*
X03306359D01*
X03306042Y02532783D01*
X03305746Y02532811D01*
X03305472Y02532853D01*
X03305211Y02532909D01*
X03304973Y02532973D01*
X03304747Y02533050D01*
X03304550Y02533127D01*
X03304367Y02533205D01*
X03304206Y02533282D01*
X03304065Y02533360D01*
X03303945Y02533437D01*
X03303847Y02533500D01*
X03303769Y02533557D01*
X03303713Y02533599D01*
X03303685Y02533627D01*
X03303671Y02533634D01*
X03303502Y02533796D01*
X03303354Y02533972D01*
X03303221Y02534147D01*
X03303115Y02534323D01*
X03303016Y02534499D01*
X03302939Y02534675D01*
X03302876Y02534837D01*
X03302827Y02534999D01*
X03302784Y02535154D01*
X03302756Y02535287D01*
X03302735Y02535414D01*
X03302721Y02535520D01*
X03302714Y02535604D01*
X03302707Y02535667D01*
Y02535857D01*
X03302721Y02535984D01*
X03302756Y02536223D01*
X03302812Y02536441D01*
X03302841Y02536540D01*
X03302869Y02536631D01*
X03302904Y02536716D01*
X03302932Y02536793D01*
X03302960Y02536856D01*
X03302988Y02536913D01*
X03303009Y02536955D01*
X03303023Y02536983D01*
X03303030Y02537004D01*
X03303038Y02537011D01*
X03303171Y02537215D01*
X03303312Y02537398D01*
X03303460Y02537553D01*
X03303593Y02537686D01*
X03303657Y02537743D01*
X03303713Y02537785D01*
X03303769Y02537827D01*
X03303812Y02537862D01*
X03303854Y02537891D01*
X03303882Y02537912D01*
X03303896Y02537919D01*
X03303903Y02537926D01*
X03302862D01*
Y02539664D01*
X03312599D01*
Y02537799D01*
D02*
G37*
G36*
X03309919Y02529518D02*
X03307744D01*
X03307576D01*
X03307421D01*
X03307126Y02529511D01*
X03306858Y02529504D01*
X03306612Y02529497D01*
X03306401Y02529483D01*
X03306204Y02529469D01*
X03306035Y02529455D01*
X03305887Y02529441D01*
X03305760Y02529427D01*
X03305655Y02529412D01*
X03305563Y02529398D01*
X03305493Y02529384D01*
X03305444Y02529377D01*
X03305409Y02529370D01*
X03305388Y02529363D01*
X03305381D01*
X03305282Y02529335D01*
X03305183Y02529300D01*
X03305099Y02529265D01*
X03305022Y02529229D01*
X03304951Y02529194D01*
X03304888Y02529159D01*
X03304775Y02529096D01*
X03304698Y02529032D01*
X03304642Y02528983D01*
X03304607Y02528955D01*
X03304600Y02528941D01*
X03304529Y02528835D01*
X03304473Y02528723D01*
X03304438Y02528610D01*
X03304409Y02528505D01*
X03304395Y02528413D01*
X03304381Y02528336D01*
Y02528195D01*
X03304395Y02528118D01*
X03304431Y02527963D01*
X03304480Y02527815D01*
X03304536Y02527682D01*
X03304593Y02527562D01*
X03304621Y02527513D01*
X03304642Y02527471D01*
X03304663Y02527442D01*
X03304677Y02527414D01*
X03304684Y02527400D01*
X03304691Y02527393D01*
X03303066Y02526809D01*
X03303002Y02526922D01*
X03302946Y02527034D01*
X03302897Y02527147D01*
X03302855Y02527253D01*
X03302791Y02527464D01*
X03302749Y02527654D01*
X03302735Y02527738D01*
X03302728Y02527815D01*
X03302721Y02527879D01*
X03302714Y02527935D01*
X03302707Y02527984D01*
Y02528047D01*
X03302714Y02528209D01*
X03302742Y02528364D01*
X03302777Y02528498D01*
X03302820Y02528617D01*
X03302862Y02528716D01*
X03302897Y02528793D01*
X03302911Y02528821D01*
X03302925Y02528842D01*
X03302932Y02528850D01*
Y02528857D01*
X03302981Y02528920D01*
X03303038Y02528990D01*
X03303101Y02529061D01*
X03303171Y02529131D01*
X03303326Y02529265D01*
X03303481Y02529384D01*
X03303629Y02529490D01*
X03303699Y02529539D01*
X03303755Y02529574D01*
X03303797Y02529609D01*
X03303840Y02529631D01*
X03303861Y02529645D01*
X03303868Y02529652D01*
X03302862D01*
Y02531382D01*
X03309919D01*
Y02529518D01*
D02*
G37*
G36*
X03306520Y02526436D02*
X03306731Y02526422D01*
X03306935Y02526401D01*
X03307132Y02526373D01*
X03307315Y02526338D01*
X03307484Y02526296D01*
X03307639Y02526260D01*
X03307787Y02526211D01*
X03307914Y02526169D01*
X03308033Y02526134D01*
X03308131Y02526091D01*
X03308209Y02526056D01*
X03308279Y02526028D01*
X03308322Y02526007D01*
X03308357Y02525993D01*
X03308364Y02525986D01*
X03308518Y02525894D01*
X03308659Y02525796D01*
X03308793Y02525690D01*
X03308919Y02525585D01*
X03309032Y02525472D01*
X03309138Y02525360D01*
X03309236Y02525254D01*
X03309320Y02525149D01*
X03309398Y02525043D01*
X03309461Y02524952D01*
X03309518Y02524867D01*
X03309560Y02524797D01*
X03309595Y02524734D01*
X03309623Y02524684D01*
X03309637Y02524656D01*
X03309644Y02524649D01*
X03309722Y02524480D01*
X03309785Y02524319D01*
X03309848Y02524150D01*
X03309897Y02523988D01*
X03309940Y02523833D01*
X03309975Y02523678D01*
X03310003Y02523530D01*
X03310024Y02523397D01*
X03310045Y02523270D01*
X03310059Y02523151D01*
X03310066Y02523052D01*
X03310074Y02522961D01*
X03310080Y02522897D01*
Y02522799D01*
X03310066Y02522510D01*
X03310038Y02522236D01*
X03309982Y02521976D01*
X03309919Y02521729D01*
X03309834Y02521497D01*
X03309750Y02521286D01*
X03309651Y02521089D01*
X03309553Y02520906D01*
X03309461Y02520744D01*
X03309363Y02520604D01*
X03309278Y02520484D01*
X03309194Y02520379D01*
X03309131Y02520301D01*
X03309074Y02520245D01*
X03309046Y02520210D01*
X03309032Y02520195D01*
X03308828Y02520013D01*
X03308617Y02519851D01*
X03308392Y02519717D01*
X03308174Y02519597D01*
X03307949Y02519499D01*
X03307730Y02519415D01*
X03307512Y02519344D01*
X03307308Y02519288D01*
X03307118Y02519246D01*
X03306942Y02519218D01*
X03306781Y02519189D01*
X03306647Y02519175D01*
X03306534Y02519168D01*
X03306485D01*
X03306450Y02519161D01*
X03306422D01*
X03306401D01*
X03306387D01*
X03306380D01*
X03306091Y02519175D01*
X03305810Y02519203D01*
X03305549Y02519253D01*
X03305296Y02519323D01*
X03305064Y02519400D01*
X03304846Y02519485D01*
X03304649Y02519576D01*
X03304466Y02519675D01*
X03304304Y02519773D01*
X03304163Y02519865D01*
X03304037Y02519949D01*
X03303938Y02520027D01*
X03303854Y02520090D01*
X03303797Y02520146D01*
X03303762Y02520174D01*
X03303748Y02520188D01*
X03303565Y02520385D01*
X03303403Y02520597D01*
X03303263Y02520808D01*
X03303143Y02521026D01*
X03303045Y02521251D01*
X03302960Y02521469D01*
X03302890Y02521680D01*
X03302834Y02521884D01*
X03302791Y02522074D01*
X03302763Y02522250D01*
X03302735Y02522412D01*
X03302721Y02522545D01*
X03302714Y02522658D01*
Y02522700D01*
X03302707Y02522742D01*
Y02522813D01*
X03302714Y02523003D01*
X03302728Y02523193D01*
X03302749Y02523369D01*
X03302777Y02523545D01*
X03302812Y02523706D01*
X03302855Y02523861D01*
X03302897Y02524009D01*
X03302939Y02524143D01*
X03302981Y02524262D01*
X03303023Y02524368D01*
X03303066Y02524466D01*
X03303101Y02524544D01*
X03303129Y02524607D01*
X03303150Y02524656D01*
X03303164Y02524684D01*
X03303171Y02524691D01*
X03303263Y02524846D01*
X03303361Y02524987D01*
X03303467Y02525121D01*
X03303572Y02525247D01*
X03303685Y02525360D01*
X03303790Y02525465D01*
X03303903Y02525564D01*
X03304008Y02525655D01*
X03304107Y02525733D01*
X03304199Y02525796D01*
X03304283Y02525852D01*
X03304360Y02525902D01*
X03304417Y02525937D01*
X03304466Y02525965D01*
X03304494Y02525979D01*
X03304501Y02525986D01*
X03304663Y02526063D01*
X03304825Y02526134D01*
X03304987Y02526197D01*
X03305148Y02526253D01*
X03305303Y02526296D01*
X03305451Y02526331D01*
X03305592Y02526359D01*
X03305725Y02526387D01*
X03305845Y02526408D01*
X03305957Y02526422D01*
X03306056Y02526429D01*
X03306133Y02526436D01*
X03306204Y02526443D01*
X03306253D01*
X03306281D01*
X03306295D01*
X03306520Y02526436D01*
D02*
G37*
G36*
X03309919Y02515756D02*
Y02514074D01*
X03302862Y02511274D01*
Y02513195D01*
X03306464Y02514532D01*
X03306577Y02514574D01*
X03306682Y02514609D01*
X03306788Y02514644D01*
X03306879Y02514672D01*
X03306949Y02514701D01*
X03307013Y02514722D01*
X03307048Y02514729D01*
X03307062Y02514736D01*
X03307090Y02514743D01*
X03307132Y02514757D01*
X03307217Y02514778D01*
X03307315Y02514813D01*
X03307421Y02514841D01*
X03307512Y02514877D01*
X03307590Y02514898D01*
X03307625Y02514912D01*
X03307646Y02514919D01*
X03307660Y02514926D01*
X03307667D01*
X03306464Y02515313D01*
X03302862Y02516642D01*
Y02518598D01*
X03309919Y02515756D01*
D02*
G37*
G36*
X03306717Y02510676D02*
X03306978Y02510655D01*
X03307224Y02510620D01*
X03307449Y02510571D01*
X03307667Y02510521D01*
X03307864Y02510465D01*
X03308047Y02510402D01*
X03308216Y02510331D01*
X03308371Y02510268D01*
X03308504Y02510205D01*
X03308617Y02510148D01*
X03308708Y02510092D01*
X03308786Y02510050D01*
X03308842Y02510015D01*
X03308870Y02509994D01*
X03308884Y02509987D01*
X03309095Y02509811D01*
X03309278Y02509614D01*
X03309440Y02509410D01*
X03309574Y02509192D01*
X03309693Y02508966D01*
X03309785Y02508741D01*
X03309869Y02508516D01*
X03309933Y02508298D01*
X03309982Y02508087D01*
X03310017Y02507890D01*
X03310045Y02507721D01*
X03310059Y02507566D01*
X03310066Y02507496D01*
X03310074Y02507440D01*
Y02507390D01*
X03310080Y02507341D01*
Y02507264D01*
X03310074Y02507053D01*
X03310059Y02506849D01*
X03310031Y02506652D01*
X03309996Y02506469D01*
X03309961Y02506300D01*
X03309911Y02506138D01*
X03309862Y02505997D01*
X03309813Y02505864D01*
X03309764Y02505744D01*
X03309722Y02505631D01*
X03309672Y02505547D01*
X03309637Y02505470D01*
X03309602Y02505406D01*
X03309574Y02505364D01*
X03309560Y02505336D01*
X03309553Y02505329D01*
X03309447Y02505188D01*
X03309335Y02505054D01*
X03309208Y02504935D01*
X03309081Y02504822D01*
X03308955Y02504724D01*
X03308821Y02504625D01*
X03308694Y02504541D01*
X03308568Y02504471D01*
X03308455Y02504400D01*
X03308343Y02504344D01*
X03308244Y02504295D01*
X03308159Y02504259D01*
X03308089Y02504224D01*
X03308033Y02504203D01*
X03308005Y02504196D01*
X03307991Y02504189D01*
X03307681Y02506046D01*
X03307871Y02506110D01*
X03308026Y02506180D01*
X03308159Y02506258D01*
X03308265Y02506335D01*
X03308350Y02506398D01*
X03308406Y02506455D01*
X03308441Y02506490D01*
X03308455Y02506497D01*
Y02506504D01*
X03308532Y02506624D01*
X03308589Y02506743D01*
X03308631Y02506870D01*
X03308659Y02506982D01*
X03308673Y02507088D01*
X03308680Y02507165D01*
X03308687Y02507200D01*
Y02507243D01*
X03308680Y02507362D01*
X03308666Y02507475D01*
X03308645Y02507580D01*
X03308617Y02507686D01*
X03308540Y02507869D01*
X03308504Y02507953D01*
X03308455Y02508024D01*
X03308413Y02508094D01*
X03308378Y02508150D01*
X03308336Y02508206D01*
X03308300Y02508249D01*
X03308272Y02508284D01*
X03308251Y02508305D01*
X03308237Y02508319D01*
X03308230Y02508326D01*
X03308138Y02508403D01*
X03308040Y02508467D01*
X03307935Y02508523D01*
X03307829Y02508579D01*
X03307723Y02508622D01*
X03307618Y02508657D01*
X03307407Y02508706D01*
X03307308Y02508727D01*
X03307224Y02508741D01*
X03307139Y02508755D01*
X03307069Y02508762D01*
X03307013D01*
X03306971Y02508769D01*
X03306942D01*
X03306935D01*
Y02504091D01*
X03306548Y02504098D01*
X03306183Y02504119D01*
X03305845Y02504161D01*
X03305535Y02504210D01*
X03305247Y02504281D01*
X03304987Y02504351D01*
X03304747Y02504435D01*
X03304536Y02504520D01*
X03304353Y02504604D01*
X03304191Y02504682D01*
X03304058Y02504759D01*
X03303945Y02504829D01*
X03303861Y02504886D01*
X03303797Y02504928D01*
X03303762Y02504963D01*
X03303748Y02504970D01*
X03303565Y02505146D01*
X03303403Y02505336D01*
X03303263Y02505533D01*
X03303143Y02505737D01*
X03303045Y02505948D01*
X03302960Y02506152D01*
X03302890Y02506356D01*
X03302834Y02506546D01*
X03302791Y02506729D01*
X03302763Y02506905D01*
X03302735Y02507053D01*
X03302721Y02507186D01*
X03302714Y02507299D01*
Y02507341D01*
X03302707Y02507376D01*
Y02507447D01*
X03302721Y02507707D01*
X03302749Y02507953D01*
X03302798Y02508185D01*
X03302862Y02508403D01*
X03302939Y02508608D01*
X03303023Y02508797D01*
X03303115Y02508973D01*
X03303206Y02509135D01*
X03303298Y02509276D01*
X03303389Y02509403D01*
X03303474Y02509515D01*
X03303551Y02509607D01*
X03303615Y02509677D01*
X03303664Y02509726D01*
X03303692Y02509754D01*
X03303706Y02509769D01*
X03303903Y02509930D01*
X03304107Y02510071D01*
X03304325Y02510191D01*
X03304550Y02510296D01*
X03304782Y02510388D01*
X03305008Y02510458D01*
X03305233Y02510521D01*
X03305451Y02510571D01*
X03305655Y02510606D01*
X03305845Y02510634D01*
X03306014Y02510655D01*
X03306161Y02510669D01*
X03306225Y02510676D01*
X03306281D01*
X03306330D01*
X03306372Y02510683D01*
X03306408D01*
X03306429D01*
X03306443D01*
X03306450D01*
X03306717Y02510676D01*
D02*
G37*
G36*
X03306689Y02502986D02*
X03306992Y02502958D01*
X03307273Y02502916D01*
X03307541Y02502859D01*
X03307780Y02502789D01*
X03308005Y02502719D01*
X03308209Y02502641D01*
X03308392Y02502557D01*
X03308561Y02502479D01*
X03308701Y02502402D01*
X03308821Y02502325D01*
X03308919Y02502261D01*
X03308997Y02502205D01*
X03309060Y02502163D01*
X03309088Y02502135D01*
X03309102Y02502128D01*
X03309271Y02501959D01*
X03309426Y02501790D01*
X03309553Y02501614D01*
X03309665Y02501438D01*
X03309764Y02501262D01*
X03309841Y02501086D01*
X03309904Y02500918D01*
X03309961Y02500763D01*
X03309996Y02500615D01*
X03310031Y02500474D01*
X03310052Y02500355D01*
X03310066Y02500249D01*
X03310074Y02500165D01*
X03310080Y02500101D01*
Y02500045D01*
X03310066Y02499820D01*
X03310031Y02499609D01*
X03309989Y02499405D01*
X03309933Y02499229D01*
X03309904Y02499151D01*
X03309876Y02499081D01*
X03309855Y02499018D01*
X03309834Y02498961D01*
X03309813Y02498919D01*
X03309799Y02498891D01*
X03309785Y02498870D01*
Y02498863D01*
X03309729Y02498750D01*
X03309658Y02498652D01*
X03309518Y02498455D01*
X03309370Y02498279D01*
X03309222Y02498124D01*
X03309152Y02498061D01*
X03309088Y02498005D01*
X03309032Y02497955D01*
X03308983Y02497913D01*
X03308941Y02497878D01*
X03308912Y02497857D01*
X03308891Y02497843D01*
X03308884Y02497836D01*
X03309919D01*
Y02496105D01*
X03300181D01*
Y02497970D01*
X03303692D01*
X03303516Y02498138D01*
X03303368Y02498307D01*
X03303235Y02498476D01*
X03303122Y02498652D01*
X03303023Y02498828D01*
X03302946Y02498997D01*
X03302883Y02499158D01*
X03302827Y02499320D01*
X03302791Y02499461D01*
X03302756Y02499595D01*
X03302735Y02499714D01*
X03302721Y02499820D01*
X03302714Y02499904D01*
X03302707Y02499968D01*
Y02500017D01*
X03302714Y02500256D01*
X03302749Y02500481D01*
X03302791Y02500692D01*
X03302855Y02500896D01*
X03302925Y02501086D01*
X03303002Y02501262D01*
X03303087Y02501424D01*
X03303171Y02501572D01*
X03303263Y02501705D01*
X03303347Y02501818D01*
X03303424Y02501924D01*
X03303495Y02502001D01*
X03303558Y02502071D01*
X03303600Y02502113D01*
X03303629Y02502149D01*
X03303643Y02502156D01*
X03303826Y02502303D01*
X03304030Y02502430D01*
X03304241Y02502543D01*
X03304466Y02502641D01*
X03304691Y02502719D01*
X03304916Y02502789D01*
X03305141Y02502845D01*
X03305359Y02502888D01*
X03305563Y02502923D01*
X03305753Y02502951D01*
X03305929Y02502965D01*
X03306077Y02502979D01*
X03306140Y02502986D01*
X03306204D01*
X03306253Y02502993D01*
X03306295D01*
X03306330D01*
X03306351D01*
X03306365D01*
X03306372D01*
X03306689Y02502986D01*
D02*
G37*
G36*
X03304332Y02490265D02*
X03309919D01*
Y02488401D01*
X03304332D01*
Y02487008D01*
X03302862D01*
Y02488401D01*
X03302369D01*
X03302271D01*
X03302179Y02488394D01*
X03302102Y02488387D01*
X03302025Y02488373D01*
X03301961Y02488358D01*
X03301898Y02488345D01*
X03301799Y02488309D01*
X03301729Y02488281D01*
X03301673Y02488253D01*
X03301645Y02488232D01*
X03301637Y02488225D01*
X03301574Y02488147D01*
X03301525Y02488063D01*
X03301497Y02487964D01*
X03301469Y02487873D01*
X03301454Y02487782D01*
X03301447Y02487711D01*
Y02487648D01*
X03301454Y02487493D01*
X03301461Y02487338D01*
X03301483Y02487191D01*
X03301504Y02487064D01*
X03301525Y02486951D01*
X03301532Y02486902D01*
X03301539Y02486867D01*
X03301546Y02486832D01*
X03301553Y02486811D01*
X03301560Y02486797D01*
Y02486790D01*
X03300258Y02486536D01*
X03300181Y02486825D01*
X03300118Y02487106D01*
X03300075Y02487366D01*
X03300061Y02487493D01*
X03300047Y02487606D01*
X03300040Y02487711D01*
X03300033Y02487803D01*
X03300026Y02487887D01*
X03300019Y02487964D01*
Y02488098D01*
X03300033Y02488373D01*
X03300047Y02488506D01*
X03300061Y02488626D01*
X03300082Y02488739D01*
X03300111Y02488844D01*
X03300132Y02488943D01*
X03300160Y02489034D01*
X03300188Y02489111D01*
X03300209Y02489182D01*
X03300237Y02489245D01*
X03300258Y02489294D01*
X03300273Y02489337D01*
X03300287Y02489365D01*
X03300301Y02489379D01*
Y02489386D01*
X03300357Y02489477D01*
X03300413Y02489562D01*
X03300469Y02489639D01*
X03300526Y02489709D01*
X03300645Y02489829D01*
X03300758Y02489921D01*
X03300857Y02489998D01*
X03300941Y02490047D01*
X03300969Y02490061D01*
X03300990Y02490075D01*
X03301004Y02490082D01*
X03301011D01*
X03301096Y02490117D01*
X03301194Y02490146D01*
X03301398Y02490188D01*
X03301624Y02490223D01*
X03301834Y02490244D01*
X03301940Y02490251D01*
X03302031Y02490258D01*
X03302116D01*
X03302186Y02490265D01*
X03302249D01*
X03302292D01*
X03302327D01*
X03302334D01*
X03302862D01*
Y02491299D01*
X03304332D01*
Y02490265D01*
D02*
G37*
G36*
X03306520Y02486382D02*
X03306731Y02486367D01*
X03306935Y02486346D01*
X03307132Y02486318D01*
X03307315Y02486283D01*
X03307484Y02486241D01*
X03307639Y02486206D01*
X03307787Y02486156D01*
X03307914Y02486114D01*
X03308033Y02486079D01*
X03308131Y02486037D01*
X03308209Y02486002D01*
X03308279Y02485973D01*
X03308322Y02485952D01*
X03308357Y02485938D01*
X03308364Y02485931D01*
X03308518Y02485840D01*
X03308659Y02485741D01*
X03308793Y02485636D01*
X03308919Y02485530D01*
X03309032Y02485418D01*
X03309138Y02485305D01*
X03309236Y02485199D01*
X03309320Y02485094D01*
X03309398Y02484988D01*
X03309461Y02484897D01*
X03309518Y02484812D01*
X03309560Y02484742D01*
X03309595Y02484679D01*
X03309623Y02484630D01*
X03309637Y02484601D01*
X03309644Y02484594D01*
X03309722Y02484426D01*
X03309785Y02484264D01*
X03309848Y02484095D01*
X03309897Y02483933D01*
X03309940Y02483778D01*
X03309975Y02483624D01*
X03310003Y02483476D01*
X03310024Y02483342D01*
X03310045Y02483215D01*
X03310059Y02483096D01*
X03310066Y02482997D01*
X03310074Y02482906D01*
X03310080Y02482843D01*
Y02482744D01*
X03310066Y02482455D01*
X03310038Y02482181D01*
X03309982Y02481921D01*
X03309919Y02481674D01*
X03309834Y02481442D01*
X03309750Y02481231D01*
X03309651Y02481034D01*
X03309553Y02480851D01*
X03309461Y02480690D01*
X03309363Y02480549D01*
X03309278Y02480429D01*
X03309194Y02480324D01*
X03309131Y02480246D01*
X03309074Y02480190D01*
X03309046Y02480155D01*
X03309032Y02480141D01*
X03308828Y02479958D01*
X03308617Y02479796D01*
X03308392Y02479662D01*
X03308174Y02479543D01*
X03307949Y02479444D01*
X03307730Y02479360D01*
X03307512Y02479289D01*
X03307308Y02479233D01*
X03307118Y02479191D01*
X03306942Y02479163D01*
X03306781Y02479135D01*
X03306647Y02479120D01*
X03306534Y02479113D01*
X03306485D01*
X03306450Y02479106D01*
X03306422D01*
X03306401D01*
X03306387D01*
X03306380D01*
X03306091Y02479120D01*
X03305810Y02479149D01*
X03305549Y02479198D01*
X03305296Y02479268D01*
X03305064Y02479346D01*
X03304846Y02479430D01*
X03304649Y02479522D01*
X03304466Y02479620D01*
X03304304Y02479719D01*
X03304163Y02479810D01*
X03304037Y02479895D01*
X03303938Y02479972D01*
X03303854Y02480035D01*
X03303797Y02480092D01*
X03303762Y02480120D01*
X03303748Y02480134D01*
X03303565Y02480331D01*
X03303403Y02480542D01*
X03303263Y02480753D01*
X03303143Y02480971D01*
X03303045Y02481196D01*
X03302960Y02481414D01*
X03302890Y02481625D01*
X03302834Y02481829D01*
X03302791Y02482019D01*
X03302763Y02482195D01*
X03302735Y02482357D01*
X03302721Y02482491D01*
X03302714Y02482603D01*
Y02482646D01*
X03302707Y02482688D01*
Y02482758D01*
X03302714Y02482948D01*
X03302728Y02483138D01*
X03302749Y02483314D01*
X03302777Y02483490D01*
X03302812Y02483652D01*
X03302855Y02483806D01*
X03302897Y02483954D01*
X03302939Y02484088D01*
X03302981Y02484207D01*
X03303023Y02484313D01*
X03303066Y02484411D01*
X03303101Y02484489D01*
X03303129Y02484552D01*
X03303150Y02484601D01*
X03303164Y02484630D01*
X03303171Y02484637D01*
X03303263Y02484791D01*
X03303361Y02484932D01*
X03303467Y02485066D01*
X03303572Y02485192D01*
X03303685Y02485305D01*
X03303790Y02485410D01*
X03303903Y02485509D01*
X03304008Y02485600D01*
X03304107Y02485678D01*
X03304199Y02485741D01*
X03304283Y02485797D01*
X03304360Y02485847D01*
X03304417Y02485882D01*
X03304466Y02485910D01*
X03304494Y02485924D01*
X03304501Y02485931D01*
X03304663Y02486009D01*
X03304825Y02486079D01*
X03304987Y02486142D01*
X03305148Y02486199D01*
X03305303Y02486241D01*
X03305451Y02486276D01*
X03305592Y02486304D01*
X03305725Y02486332D01*
X03305845Y02486353D01*
X03305957Y02486367D01*
X03306056Y02486375D01*
X03306133Y02486382D01*
X03306204Y02486389D01*
X03306253D01*
X03306281D01*
X03306295D01*
X03306520Y02486382D01*
D02*
G37*
G36*
X03309919Y02475863D02*
X03307744D01*
X03307576D01*
X03307421D01*
X03307126Y02475856D01*
X03306858Y02475849D01*
X03306612Y02475842D01*
X03306401Y02475828D01*
X03306204Y02475814D01*
X03306035Y02475800D01*
X03305887Y02475786D01*
X03305760Y02475771D01*
X03305655Y02475757D01*
X03305563Y02475743D01*
X03305493Y02475729D01*
X03305444Y02475722D01*
X03305409Y02475715D01*
X03305388Y02475708D01*
X03305381D01*
X03305282Y02475680D01*
X03305183Y02475645D01*
X03305099Y02475610D01*
X03305022Y02475574D01*
X03304951Y02475539D01*
X03304888Y02475504D01*
X03304775Y02475441D01*
X03304698Y02475378D01*
X03304642Y02475328D01*
X03304607Y02475300D01*
X03304600Y02475286D01*
X03304529Y02475181D01*
X03304473Y02475068D01*
X03304438Y02474955D01*
X03304409Y02474850D01*
X03304395Y02474758D01*
X03304381Y02474681D01*
Y02474540D01*
X03304395Y02474463D01*
X03304431Y02474308D01*
X03304480Y02474160D01*
X03304536Y02474027D01*
X03304593Y02473907D01*
X03304621Y02473858D01*
X03304642Y02473816D01*
X03304663Y02473787D01*
X03304677Y02473759D01*
X03304684Y02473745D01*
X03304691Y02473738D01*
X03303066Y02473154D01*
X03303002Y02473267D01*
X03302946Y02473379D01*
X03302897Y02473492D01*
X03302855Y02473597D01*
X03302791Y02473808D01*
X03302749Y02473999D01*
X03302735Y02474083D01*
X03302728Y02474160D01*
X03302721Y02474224D01*
X03302714Y02474280D01*
X03302707Y02474329D01*
Y02474393D01*
X03302714Y02474554D01*
X03302742Y02474709D01*
X03302777Y02474843D01*
X03302820Y02474962D01*
X03302862Y02475061D01*
X03302897Y02475138D01*
X03302911Y02475166D01*
X03302925Y02475188D01*
X03302932Y02475195D01*
Y02475202D01*
X03302981Y02475265D01*
X03303038Y02475335D01*
X03303101Y02475406D01*
X03303171Y02475476D01*
X03303326Y02475610D01*
X03303481Y02475729D01*
X03303629Y02475835D01*
X03303699Y02475884D01*
X03303755Y02475919D01*
X03303797Y02475954D01*
X03303840Y02475975D01*
X03303861Y02475990D01*
X03303868Y02475997D01*
X03302862D01*
Y02477728D01*
X03309919D01*
Y02475863D01*
D02*
G37*
G36*
Y02466794D02*
X03307744D01*
X03307576D01*
X03307421D01*
X03307126Y02466787D01*
X03306858Y02466780D01*
X03306612Y02466773D01*
X03306401Y02466759D01*
X03306204Y02466745D01*
X03306035Y02466730D01*
X03305887Y02466716D01*
X03305760Y02466702D01*
X03305655Y02466688D01*
X03305563Y02466674D01*
X03305493Y02466660D01*
X03305444Y02466653D01*
X03305409Y02466646D01*
X03305388Y02466639D01*
X03305381D01*
X03305282Y02466611D01*
X03305183Y02466576D01*
X03305099Y02466541D01*
X03305022Y02466505D01*
X03304951Y02466470D01*
X03304888Y02466435D01*
X03304775Y02466372D01*
X03304698Y02466308D01*
X03304642Y02466259D01*
X03304607Y02466231D01*
X03304600Y02466217D01*
X03304529Y02466111D01*
X03304473Y02465999D01*
X03304438Y02465886D01*
X03304409Y02465781D01*
X03304395Y02465689D01*
X03304381Y02465612D01*
Y02465471D01*
X03304395Y02465394D01*
X03304431Y02465239D01*
X03304480Y02465091D01*
X03304536Y02464957D01*
X03304593Y02464838D01*
X03304621Y02464789D01*
X03304642Y02464746D01*
X03304663Y02464718D01*
X03304677Y02464690D01*
X03304684Y02464676D01*
X03304691Y02464669D01*
X03303066Y02464085D01*
X03303002Y02464198D01*
X03302946Y02464310D01*
X03302897Y02464423D01*
X03302855Y02464528D01*
X03302791Y02464739D01*
X03302749Y02464929D01*
X03302735Y02465014D01*
X03302728Y02465091D01*
X03302721Y02465155D01*
X03302714Y02465211D01*
X03302707Y02465260D01*
Y02465323D01*
X03302714Y02465485D01*
X03302742Y02465640D01*
X03302777Y02465774D01*
X03302820Y02465893D01*
X03302862Y02465992D01*
X03302897Y02466069D01*
X03302911Y02466097D01*
X03302925Y02466118D01*
X03302932Y02466125D01*
Y02466133D01*
X03302981Y02466196D01*
X03303038Y02466266D01*
X03303101Y02466337D01*
X03303171Y02466407D01*
X03303326Y02466541D01*
X03303481Y02466660D01*
X03303629Y02466766D01*
X03303699Y02466815D01*
X03303755Y02466850D01*
X03303797Y02466885D01*
X03303840Y02466906D01*
X03303861Y02466920D01*
X03303868Y02466927D01*
X03302862D01*
Y02468658D01*
X03309919D01*
Y02466794D01*
D02*
G37*
G36*
X03306717Y02463825D02*
X03306978Y02463804D01*
X03307224Y02463768D01*
X03307449Y02463719D01*
X03307667Y02463670D01*
X03307864Y02463614D01*
X03308047Y02463550D01*
X03308216Y02463480D01*
X03308371Y02463417D01*
X03308504Y02463353D01*
X03308617Y02463297D01*
X03308708Y02463241D01*
X03308786Y02463199D01*
X03308842Y02463163D01*
X03308870Y02463142D01*
X03308884Y02463135D01*
X03309095Y02462959D01*
X03309278Y02462762D01*
X03309440Y02462558D01*
X03309574Y02462340D01*
X03309693Y02462115D01*
X03309785Y02461890D01*
X03309869Y02461665D01*
X03309933Y02461447D01*
X03309982Y02461236D01*
X03310017Y02461039D01*
X03310045Y02460870D01*
X03310059Y02460715D01*
X03310066Y02460645D01*
X03310074Y02460588D01*
Y02460539D01*
X03310080Y02460490D01*
Y02460412D01*
X03310074Y02460201D01*
X03310059Y02459997D01*
X03310031Y02459800D01*
X03309996Y02459617D01*
X03309961Y02459448D01*
X03309911Y02459287D01*
X03309862Y02459146D01*
X03309813Y02459012D01*
X03309764Y02458893D01*
X03309722Y02458780D01*
X03309672Y02458696D01*
X03309637Y02458618D01*
X03309602Y02458555D01*
X03309574Y02458513D01*
X03309560Y02458484D01*
X03309553Y02458477D01*
X03309447Y02458337D01*
X03309335Y02458203D01*
X03309208Y02458083D01*
X03309081Y02457971D01*
X03308955Y02457872D01*
X03308821Y02457774D01*
X03308694Y02457690D01*
X03308568Y02457619D01*
X03308455Y02457549D01*
X03308343Y02457493D01*
X03308244Y02457443D01*
X03308159Y02457408D01*
X03308089Y02457373D01*
X03308033Y02457352D01*
X03308005Y02457345D01*
X03307991Y02457338D01*
X03307681Y02459195D01*
X03307871Y02459259D01*
X03308026Y02459329D01*
X03308159Y02459406D01*
X03308265Y02459484D01*
X03308350Y02459547D01*
X03308406Y02459603D01*
X03308441Y02459638D01*
X03308455Y02459645D01*
Y02459653D01*
X03308532Y02459772D01*
X03308589Y02459892D01*
X03308631Y02460018D01*
X03308659Y02460131D01*
X03308673Y02460237D01*
X03308680Y02460314D01*
X03308687Y02460349D01*
Y02460391D01*
X03308680Y02460511D01*
X03308666Y02460623D01*
X03308645Y02460729D01*
X03308617Y02460835D01*
X03308540Y02461017D01*
X03308504Y02461102D01*
X03308455Y02461172D01*
X03308413Y02461243D01*
X03308378Y02461299D01*
X03308336Y02461355D01*
X03308300Y02461397D01*
X03308272Y02461432D01*
X03308251Y02461454D01*
X03308237Y02461468D01*
X03308230Y02461475D01*
X03308138Y02461552D01*
X03308040Y02461615D01*
X03307935Y02461672D01*
X03307829Y02461728D01*
X03307723Y02461770D01*
X03307618Y02461805D01*
X03307407Y02461855D01*
X03307308Y02461876D01*
X03307224Y02461890D01*
X03307139Y02461904D01*
X03307069Y02461911D01*
X03307013D01*
X03306971Y02461918D01*
X03306942D01*
X03306935D01*
Y02457239D01*
X03306548Y02457246D01*
X03306183Y02457267D01*
X03305845Y02457310D01*
X03305535Y02457359D01*
X03305247Y02457429D01*
X03304987Y02457500D01*
X03304747Y02457584D01*
X03304536Y02457668D01*
X03304353Y02457753D01*
X03304191Y02457830D01*
X03304058Y02457908D01*
X03303945Y02457978D01*
X03303861Y02458034D01*
X03303797Y02458076D01*
X03303762Y02458112D01*
X03303748Y02458119D01*
X03303565Y02458295D01*
X03303403Y02458484D01*
X03303263Y02458681D01*
X03303143Y02458886D01*
X03303045Y02459097D01*
X03302960Y02459301D01*
X03302890Y02459505D01*
X03302834Y02459695D01*
X03302791Y02459878D01*
X03302763Y02460054D01*
X03302735Y02460201D01*
X03302721Y02460335D01*
X03302714Y02460448D01*
Y02460490D01*
X03302707Y02460525D01*
Y02460595D01*
X03302721Y02460856D01*
X03302749Y02461102D01*
X03302798Y02461334D01*
X03302862Y02461552D01*
X03302939Y02461756D01*
X03303023Y02461946D01*
X03303115Y02462122D01*
X03303206Y02462284D01*
X03303298Y02462425D01*
X03303389Y02462551D01*
X03303474Y02462664D01*
X03303551Y02462755D01*
X03303615Y02462826D01*
X03303664Y02462875D01*
X03303692Y02462903D01*
X03303706Y02462917D01*
X03303903Y02463079D01*
X03304107Y02463220D01*
X03304325Y02463339D01*
X03304550Y02463445D01*
X03304782Y02463536D01*
X03305008Y02463607D01*
X03305233Y02463670D01*
X03305451Y02463719D01*
X03305655Y02463754D01*
X03305845Y02463783D01*
X03306014Y02463804D01*
X03306161Y02463818D01*
X03306225Y02463825D01*
X03306281D01*
X03306330D01*
X03306372Y02463832D01*
X03306408D01*
X03306429D01*
X03306443D01*
X03306450D01*
X03306717Y02463825D01*
D02*
G37*
G36*
X03308089Y02456325D02*
X03308265Y02456261D01*
X03308427Y02456184D01*
X03308582Y02456106D01*
X03308723Y02456015D01*
X03308849Y02455923D01*
X03308969Y02455832D01*
X03309081Y02455741D01*
X03309173Y02455649D01*
X03309257Y02455572D01*
X03309328Y02455494D01*
X03309391Y02455424D01*
X03309433Y02455368D01*
X03309468Y02455325D01*
X03309489Y02455297D01*
X03309496Y02455290D01*
X03309602Y02455128D01*
X03309686Y02454953D01*
X03309764Y02454763D01*
X03309834Y02454580D01*
X03309890Y02454383D01*
X03309940Y02454193D01*
X03309975Y02454010D01*
X03310010Y02453827D01*
X03310031Y02453658D01*
X03310052Y02453503D01*
X03310059Y02453362D01*
X03310074Y02453243D01*
Y02453144D01*
X03310080Y02453067D01*
Y02453004D01*
X03310074Y02452715D01*
X03310052Y02452448D01*
X03310017Y02452195D01*
X03309968Y02451962D01*
X03309919Y02451744D01*
X03309862Y02451554D01*
X03309799Y02451371D01*
X03309729Y02451217D01*
X03309665Y02451076D01*
X03309602Y02450949D01*
X03309546Y02450851D01*
X03309489Y02450759D01*
X03309447Y02450696D01*
X03309412Y02450647D01*
X03309391Y02450618D01*
X03309384Y02450612D01*
X03309250Y02450471D01*
X03309109Y02450344D01*
X03308969Y02450231D01*
X03308828Y02450140D01*
X03308687Y02450063D01*
X03308546Y02449992D01*
X03308413Y02449943D01*
X03308286Y02449894D01*
X03308167Y02449866D01*
X03308061Y02449837D01*
X03307963Y02449823D01*
X03307878Y02449809D01*
X03307808Y02449802D01*
X03307758Y02449795D01*
X03307730D01*
X03307716D01*
X03307555Y02449802D01*
X03307400Y02449823D01*
X03307259Y02449852D01*
X03307126Y02449887D01*
X03306999Y02449929D01*
X03306886Y02449985D01*
X03306788Y02450034D01*
X03306689Y02450091D01*
X03306605Y02450147D01*
X03306534Y02450196D01*
X03306471Y02450246D01*
X03306422Y02450295D01*
X03306380Y02450330D01*
X03306352Y02450358D01*
X03306337Y02450379D01*
X03306330Y02450386D01*
X03306239Y02450506D01*
X03306154Y02450647D01*
X03306070Y02450794D01*
X03305993Y02450963D01*
X03305922Y02451132D01*
X03305852Y02451308D01*
X03305732Y02451646D01*
X03305676Y02451815D01*
X03305634Y02451962D01*
X03305592Y02452103D01*
X03305563Y02452230D01*
X03305535Y02452328D01*
X03305514Y02452406D01*
X03305507Y02452434D01*
Y02452455D01*
X03305500Y02452462D01*
Y02452469D01*
X03305472Y02452603D01*
X03305437Y02452736D01*
X03305381Y02452968D01*
X03305324Y02453179D01*
X03305275Y02453369D01*
X03305233Y02453531D01*
X03305183Y02453672D01*
X03305148Y02453792D01*
X03305113Y02453897D01*
X03305085Y02453982D01*
X03305057Y02454045D01*
X03305029Y02454101D01*
X03305015Y02454144D01*
X03305001Y02454172D01*
X03304987Y02454193D01*
X03304980Y02454207D01*
X03304923Y02454270D01*
X03304867Y02454312D01*
X03304810Y02454348D01*
X03304754Y02454369D01*
X03304712Y02454383D01*
X03304677Y02454390D01*
X03304649D01*
X03304642D01*
X03304557Y02454383D01*
X03304480Y02454355D01*
X03304417Y02454319D01*
X03304360Y02454284D01*
X03304318Y02454242D01*
X03304290Y02454214D01*
X03304269Y02454186D01*
X03304262Y02454179D01*
X03304227Y02454115D01*
X03304192Y02454045D01*
X03304142Y02453883D01*
X03304100Y02453707D01*
X03304079Y02453531D01*
X03304065Y02453447D01*
Y02453377D01*
X03304058Y02453306D01*
X03304051Y02453243D01*
Y02453123D01*
X03304058Y02452919D01*
X03304086Y02452736D01*
X03304121Y02452581D01*
X03304163Y02452455D01*
X03304206Y02452356D01*
X03304227Y02452321D01*
X03304241Y02452286D01*
X03304255Y02452265D01*
X03304269Y02452244D01*
X03304276Y02452230D01*
X03304367Y02452117D01*
X03304466Y02452026D01*
X03304572Y02451955D01*
X03304670Y02451892D01*
X03304761Y02451850D01*
X03304832Y02451815D01*
X03304860Y02451808D01*
X03304881Y02451801D01*
X03304895Y02451794D01*
X03304902D01*
X03304579Y02450034D01*
X03304409Y02450091D01*
X03304255Y02450154D01*
X03304107Y02450224D01*
X03303973Y02450302D01*
X03303847Y02450379D01*
X03303734Y02450457D01*
X03303629Y02450541D01*
X03303537Y02450618D01*
X03303453Y02450696D01*
X03303382Y02450766D01*
X03303326Y02450837D01*
X03303270Y02450893D01*
X03303235Y02450935D01*
X03303206Y02450977D01*
X03303192Y02450999D01*
X03303185Y02451006D01*
X03303101Y02451146D01*
X03303031Y02451301D01*
X03302960Y02451463D01*
X03302911Y02451639D01*
X03302862Y02451815D01*
X03302827Y02451998D01*
X03302791Y02452173D01*
X03302763Y02452342D01*
X03302749Y02452511D01*
X03302735Y02452666D01*
X03302721Y02452800D01*
X03302714Y02452919D01*
X03302707Y02453018D01*
Y02453158D01*
X03302714Y02453433D01*
X03302735Y02453693D01*
X03302763Y02453932D01*
X03302805Y02454151D01*
X03302855Y02454355D01*
X03302904Y02454538D01*
X03302960Y02454699D01*
X03303016Y02454847D01*
X03303080Y02454981D01*
X03303136Y02455093D01*
X03303185Y02455185D01*
X03303235Y02455262D01*
X03303277Y02455325D01*
X03303305Y02455368D01*
X03303326Y02455396D01*
X03303333Y02455403D01*
X03303453Y02455529D01*
X03303579Y02455642D01*
X03303706Y02455733D01*
X03303840Y02455818D01*
X03303966Y02455888D01*
X03304093Y02455945D01*
X03304220Y02455994D01*
X03304339Y02456029D01*
X03304452Y02456057D01*
X03304550Y02456085D01*
X03304642Y02456099D01*
X03304719Y02456106D01*
X03304782Y02456113D01*
X03304832Y02456120D01*
X03304860D01*
X03304874D01*
X03305057Y02456113D01*
X03305233Y02456085D01*
X03305402Y02456043D01*
X03305549Y02455994D01*
X03305697Y02455930D01*
X03305824Y02455860D01*
X03305943Y02455783D01*
X03306049Y02455705D01*
X03306147Y02455628D01*
X03306232Y02455551D01*
X03306302Y02455480D01*
X03306359Y02455417D01*
X03306408Y02455368D01*
X03306436Y02455325D01*
X03306457Y02455297D01*
X03306464Y02455290D01*
X03306499Y02455227D01*
X03306541Y02455157D01*
X03306584Y02455079D01*
X03306619Y02454995D01*
X03306696Y02454798D01*
X03306781Y02454587D01*
X03306858Y02454355D01*
X03306928Y02454115D01*
X03307006Y02453876D01*
X03307069Y02453630D01*
X03307132Y02453398D01*
X03307189Y02453172D01*
X03307245Y02452968D01*
X03307266Y02452877D01*
X03307287Y02452785D01*
X03307308Y02452708D01*
X03307322Y02452638D01*
X03307336Y02452574D01*
X03307350Y02452525D01*
X03307357Y02452483D01*
X03307365Y02452455D01*
X03307372Y02452434D01*
Y02452427D01*
X03307393Y02452342D01*
X03307414Y02452258D01*
X03307435Y02452188D01*
X03307456Y02452124D01*
X03307498Y02452012D01*
X03307534Y02451934D01*
X03307569Y02451871D01*
X03307597Y02451829D01*
X03307611Y02451808D01*
X03307618Y02451801D01*
X03307674Y02451758D01*
X03307730Y02451723D01*
X03307794Y02451702D01*
X03307843Y02451681D01*
X03307892Y02451674D01*
X03307935Y02451667D01*
X03307963D01*
X03307970D01*
X03308082Y02451674D01*
X03308181Y02451702D01*
X03308265Y02451744D01*
X03308336Y02451786D01*
X03308392Y02451836D01*
X03308434Y02451871D01*
X03308462Y02451899D01*
X03308469Y02451913D01*
X03308511Y02451983D01*
X03308554Y02452068D01*
X03308617Y02452237D01*
X03308666Y02452420D01*
X03308694Y02452596D01*
X03308708Y02452680D01*
X03308716Y02452757D01*
X03308723Y02452821D01*
Y02452884D01*
X03308730Y02452933D01*
Y02453123D01*
X03308716Y02453236D01*
X03308701Y02453341D01*
X03308687Y02453440D01*
X03308666Y02453531D01*
X03308638Y02453616D01*
X03308617Y02453693D01*
X03308589Y02453763D01*
X03308561Y02453827D01*
X03308540Y02453883D01*
X03308511Y02453925D01*
X03308490Y02453961D01*
X03308476Y02453996D01*
X03308462Y02454017D01*
X03308448Y02454024D01*
Y02454031D01*
X03308329Y02454158D01*
X03308202Y02454263D01*
X03308061Y02454341D01*
X03307928Y02454404D01*
X03307808Y02454453D01*
X03307751Y02454474D01*
X03307709Y02454488D01*
X03307667Y02454495D01*
X03307639Y02454502D01*
X03307625Y02454509D01*
X03307618D01*
X03307906Y02456381D01*
X03308089Y02456325D01*
D02*
G37*
G36*
X03308160Y02448642D02*
X03308322Y02448620D01*
X03308469Y02448592D01*
X03308610Y02448550D01*
X03308744Y02448501D01*
X03308863Y02448452D01*
X03308976Y02448395D01*
X03309081Y02448332D01*
X03309173Y02448276D01*
X03309257Y02448219D01*
X03309328Y02448170D01*
X03309384Y02448121D01*
X03309426Y02448079D01*
X03309461Y02448051D01*
X03309482Y02448029D01*
X03309489Y02448022D01*
X03309595Y02447903D01*
X03309686Y02447769D01*
X03309764Y02447628D01*
X03309834Y02447488D01*
X03309890Y02447347D01*
X03309933Y02447206D01*
X03309975Y02447065D01*
X03310003Y02446932D01*
X03310031Y02446798D01*
X03310052Y02446685D01*
X03310059Y02446580D01*
X03310074Y02446488D01*
Y02446411D01*
X03310080Y02446355D01*
Y02446306D01*
X03310074Y02446080D01*
X03310045Y02445862D01*
X03310010Y02445665D01*
X03309989Y02445574D01*
X03309961Y02445489D01*
X03309940Y02445419D01*
X03309919Y02445349D01*
X03309904Y02445292D01*
X03309883Y02445236D01*
X03309869Y02445201D01*
X03309855Y02445166D01*
X03309848Y02445152D01*
Y02445145D01*
X03309750Y02444941D01*
X03309644Y02444751D01*
X03309525Y02444575D01*
X03309412Y02444427D01*
X03309363Y02444357D01*
X03309313Y02444300D01*
X03309264Y02444244D01*
X03309229Y02444202D01*
X03309194Y02444167D01*
X03309173Y02444138D01*
X03309159Y02444124D01*
X03309152Y02444117D01*
X03309180Y02444110D01*
X03309208Y02444103D01*
X03309278Y02444082D01*
X03309313Y02444068D01*
X03309342Y02444061D01*
X03309363Y02444054D01*
X03309370D01*
X03309496Y02444019D01*
X03309609Y02443984D01*
X03309701Y02443949D01*
X03309778Y02443920D01*
X03309841Y02443899D01*
X03309883Y02443885D01*
X03309911Y02443871D01*
X03309919D01*
Y02442028D01*
X03309736Y02442112D01*
X03309560Y02442183D01*
X03309398Y02442246D01*
X03309257Y02442288D01*
X03309145Y02442323D01*
X03309095Y02442337D01*
X03309053Y02442344D01*
X03309018Y02442359D01*
X03308997D01*
X03308983Y02442366D01*
X03308976D01*
X03308884Y02442380D01*
X03308793Y02442394D01*
X03308687Y02442408D01*
X03308575Y02442415D01*
X03308350Y02442429D01*
X03308124Y02442436D01*
X03308019Y02442443D01*
X03307921D01*
X03307836Y02442450D01*
X03307758D01*
X03307695D01*
X03307646D01*
X03307611D01*
X03307604D01*
X03305430Y02442422D01*
X03305212D01*
X03305008Y02442436D01*
X03304825Y02442443D01*
X03304656Y02442464D01*
X03304501Y02442478D01*
X03304367Y02442499D01*
X03304241Y02442527D01*
X03304135Y02442549D01*
X03304044Y02442570D01*
X03303966Y02442598D01*
X03303896Y02442619D01*
X03303847Y02442633D01*
X03303805Y02442654D01*
X03303776Y02442661D01*
X03303762Y02442675D01*
X03303755D01*
X03303671Y02442724D01*
X03303593Y02442781D01*
X03303446Y02442914D01*
X03303319Y02443055D01*
X03303206Y02443196D01*
X03303122Y02443329D01*
X03303087Y02443386D01*
X03303059Y02443435D01*
X03303031Y02443477D01*
X03303016Y02443505D01*
X03303002Y02443526D01*
Y02443533D01*
X03302953Y02443653D01*
X03302904Y02443787D01*
X03302862Y02443934D01*
X03302834Y02444082D01*
X03302777Y02444392D01*
X03302756Y02444547D01*
X03302742Y02444694D01*
X03302728Y02444835D01*
X03302721Y02444969D01*
X03302714Y02445088D01*
Y02445194D01*
X03302707Y02445278D01*
Y02445398D01*
X03302714Y02445651D01*
X03302728Y02445883D01*
X03302756Y02446102D01*
X03302784Y02446306D01*
X03302820Y02446488D01*
X03302862Y02446664D01*
X03302911Y02446819D01*
X03302953Y02446953D01*
X03303002Y02447079D01*
X03303052Y02447185D01*
X03303094Y02447276D01*
X03303129Y02447347D01*
X03303157Y02447403D01*
X03303185Y02447445D01*
X03303199Y02447473D01*
X03303206Y02447481D01*
X03303305Y02447607D01*
X03303411Y02447720D01*
X03303530Y02447832D01*
X03303650Y02447924D01*
X03303776Y02448015D01*
X03303903Y02448093D01*
X03304023Y02448170D01*
X03304149Y02448233D01*
X03304262Y02448283D01*
X03304367Y02448332D01*
X03304466Y02448374D01*
X03304550Y02448402D01*
X03304621Y02448430D01*
X03304677Y02448445D01*
X03304705Y02448452D01*
X03304719Y02448459D01*
X03305022Y02446763D01*
X03304853Y02446693D01*
X03304705Y02446622D01*
X03304586Y02446545D01*
X03304494Y02446474D01*
X03304424Y02446418D01*
X03304367Y02446362D01*
X03304339Y02446334D01*
X03304332Y02446320D01*
X03304269Y02446207D01*
X03304220Y02446080D01*
X03304184Y02445947D01*
X03304156Y02445820D01*
X03304142Y02445715D01*
Y02445665D01*
X03304135Y02445623D01*
Y02445405D01*
X03304142Y02445285D01*
X03304156Y02445173D01*
X03304171Y02445067D01*
X03304192Y02444976D01*
X03304206Y02444898D01*
X03304227Y02444821D01*
X03304248Y02444758D01*
X03304276Y02444701D01*
X03304297Y02444659D01*
X03304311Y02444617D01*
X03304332Y02444589D01*
X03304346Y02444561D01*
X03304360Y02444547D01*
X03304367Y02444533D01*
X03304417Y02444483D01*
X03304466Y02444441D01*
X03304586Y02444378D01*
X03304712Y02444328D01*
X03304839Y02444300D01*
X03304951Y02444279D01*
X03305001Y02444272D01*
X03305050D01*
X03305085Y02444265D01*
X03305113D01*
X03305127D01*
X03305134D01*
X03305317D01*
X03305359Y02444371D01*
X03305402Y02444490D01*
X03305444Y02444624D01*
X03305479Y02444765D01*
X03305556Y02445060D01*
X03305634Y02445363D01*
X03305662Y02445504D01*
X03305690Y02445637D01*
X03305718Y02445764D01*
X03305739Y02445869D01*
X03305760Y02445954D01*
X03305768Y02446024D01*
X03305782Y02446066D01*
Y02446080D01*
X03305817Y02446256D01*
X03305852Y02446425D01*
X03305887Y02446580D01*
X03305929Y02446721D01*
X03305964Y02446854D01*
X03306000Y02446974D01*
X03306035Y02447086D01*
X03306070Y02447185D01*
X03306098Y02447276D01*
X03306126Y02447354D01*
X03306154Y02447417D01*
X03306176Y02447466D01*
X03306190Y02447509D01*
X03306204Y02447544D01*
X03306218Y02447558D01*
Y02447565D01*
X03306316Y02447748D01*
X03306436Y02447910D01*
X03306555Y02448043D01*
X03306668Y02448156D01*
X03306774Y02448248D01*
X03306858Y02448311D01*
X03306893Y02448339D01*
X03306914Y02448353D01*
X03306928Y02448360D01*
X03306935Y02448367D01*
X03307111Y02448459D01*
X03307294Y02448529D01*
X03307477Y02448578D01*
X03307639Y02448613D01*
X03307716Y02448627D01*
X03307787Y02448634D01*
X03307843Y02448642D01*
X03307899D01*
X03307942Y02448649D01*
X03307970D01*
X03307991D01*
X03307998D01*
X03308160Y02448642D01*
D02*
G37*
G36*
X03309919Y02438728D02*
X03300181D01*
Y02440592D01*
X03309919D01*
Y02438728D01*
D02*
G37*
G36*
X03306717Y02437356D02*
X03306978Y02437335D01*
X03307224Y02437300D01*
X03307449Y02437251D01*
X03307667Y02437201D01*
X03307864Y02437145D01*
X03308047Y02437082D01*
X03308216Y02437011D01*
X03308371Y02436948D01*
X03308504Y02436885D01*
X03308617Y02436828D01*
X03308708Y02436772D01*
X03308786Y02436730D01*
X03308842Y02436695D01*
X03308870Y02436674D01*
X03308884Y02436667D01*
X03309095Y02436491D01*
X03309278Y02436294D01*
X03309440Y02436090D01*
X03309574Y02435871D01*
X03309694Y02435646D01*
X03309785Y02435421D01*
X03309869Y02435196D01*
X03309933Y02434978D01*
X03309982Y02434767D01*
X03310017Y02434570D01*
X03310045Y02434401D01*
X03310059Y02434246D01*
X03310067Y02434176D01*
X03310074Y02434120D01*
Y02434070D01*
X03310080Y02434021D01*
Y02433944D01*
X03310074Y02433733D01*
X03310059Y02433529D01*
X03310031Y02433332D01*
X03309996Y02433149D01*
X03309961Y02432980D01*
X03309911Y02432818D01*
X03309862Y02432677D01*
X03309813Y02432543D01*
X03309764Y02432424D01*
X03309722Y02432311D01*
X03309672Y02432227D01*
X03309637Y02432150D01*
X03309602Y02432086D01*
X03309574Y02432044D01*
X03309560Y02432016D01*
X03309553Y02432009D01*
X03309447Y02431868D01*
X03309335Y02431734D01*
X03309208Y02431615D01*
X03309081Y02431502D01*
X03308955Y02431404D01*
X03308821Y02431305D01*
X03308694Y02431221D01*
X03308568Y02431151D01*
X03308455Y02431080D01*
X03308343Y02431024D01*
X03308244Y02430975D01*
X03308160Y02430939D01*
X03308089Y02430904D01*
X03308033Y02430883D01*
X03308005Y02430876D01*
X03307991Y02430869D01*
X03307681Y02432726D01*
X03307871Y02432790D01*
X03308026Y02432860D01*
X03308160Y02432938D01*
X03308265Y02433015D01*
X03308350Y02433078D01*
X03308406Y02433135D01*
X03308441Y02433170D01*
X03308455Y02433177D01*
Y02433184D01*
X03308532Y02433303D01*
X03308589Y02433423D01*
X03308631Y02433550D01*
X03308659Y02433662D01*
X03308673Y02433768D01*
X03308680Y02433845D01*
X03308687Y02433880D01*
Y02433923D01*
X03308680Y02434042D01*
X03308666Y02434155D01*
X03308645Y02434260D01*
X03308617Y02434366D01*
X03308540Y02434549D01*
X03308504Y02434633D01*
X03308455Y02434704D01*
X03308413Y02434774D01*
X03308378Y02434830D01*
X03308336Y02434886D01*
X03308300Y02434929D01*
X03308272Y02434964D01*
X03308251Y02434985D01*
X03308237Y02434999D01*
X03308230Y02435006D01*
X03308138Y02435083D01*
X03308040Y02435147D01*
X03307935Y02435203D01*
X03307829Y02435259D01*
X03307723Y02435302D01*
X03307618Y02435337D01*
X03307407Y02435386D01*
X03307308Y02435407D01*
X03307224Y02435421D01*
X03307140Y02435435D01*
X03307069Y02435442D01*
X03307013D01*
X03306971Y02435449D01*
X03306942D01*
X03306935D01*
Y02430771D01*
X03306548Y02430778D01*
X03306183Y02430799D01*
X03305845Y02430841D01*
X03305535Y02430890D01*
X03305247Y02430961D01*
X03304987Y02431031D01*
X03304747Y02431115D01*
X03304536Y02431200D01*
X03304353Y02431284D01*
X03304192Y02431362D01*
X03304058Y02431439D01*
X03303945Y02431509D01*
X03303861Y02431566D01*
X03303798Y02431608D01*
X03303762Y02431643D01*
X03303748Y02431650D01*
X03303565Y02431826D01*
X03303404Y02432016D01*
X03303263Y02432213D01*
X03303143Y02432417D01*
X03303045Y02432628D01*
X03302960Y02432832D01*
X03302890Y02433036D01*
X03302834Y02433226D01*
X03302791Y02433409D01*
X03302763Y02433585D01*
X03302735Y02433733D01*
X03302721Y02433866D01*
X03302714Y02433979D01*
Y02434021D01*
X03302707Y02434056D01*
Y02434127D01*
X03302721Y02434387D01*
X03302749Y02434633D01*
X03302798Y02434865D01*
X03302862Y02435083D01*
X03302939Y02435287D01*
X03303023Y02435477D01*
X03303115Y02435653D01*
X03303206Y02435815D01*
X03303298Y02435956D01*
X03303389Y02436083D01*
X03303474Y02436195D01*
X03303551Y02436287D01*
X03303615Y02436357D01*
X03303664Y02436406D01*
X03303692Y02436434D01*
X03303706Y02436448D01*
X03303903Y02436610D01*
X03304107Y02436751D01*
X03304325Y02436871D01*
X03304550Y02436976D01*
X03304782Y02437068D01*
X03305008Y02437138D01*
X03305233Y02437201D01*
X03305451Y02437251D01*
X03305655Y02437286D01*
X03305845Y02437314D01*
X03306014Y02437335D01*
X03306161Y02437349D01*
X03306225Y02437356D01*
X03306281D01*
X03306330D01*
X03306373Y02437363D01*
X03306408D01*
X03306429D01*
X03306443D01*
X03306450D01*
X03306717Y02437356D01*
D02*
G37*
G36*
X03309919Y02427386D02*
X03308054D01*
Y02429251D01*
X03309919D01*
Y02427386D01*
D02*
G37*
%LPC*%
G36*
X03306492Y02735357D02*
X03306443D01*
X03306408D01*
X03306394D01*
X03306204Y02735350D01*
X03306021Y02735336D01*
X03305859Y02735315D01*
X03305697Y02735280D01*
X03305556Y02735245D01*
X03305423Y02735203D01*
X03305303Y02735153D01*
X03305197Y02735111D01*
X03305106Y02735062D01*
X03305022Y02735020D01*
X03304951Y02734977D01*
X03304895Y02734942D01*
X03304846Y02734907D01*
X03304818Y02734886D01*
X03304796Y02734872D01*
X03304789Y02734865D01*
X03304691Y02734766D01*
X03304607Y02734668D01*
X03304529Y02734562D01*
X03304466Y02734464D01*
X03304409Y02734358D01*
X03304360Y02734253D01*
X03304325Y02734154D01*
X03304297Y02734063D01*
X03304276Y02733971D01*
X03304255Y02733894D01*
X03304241Y02733817D01*
X03304234Y02733753D01*
X03304227Y02733704D01*
Y02733634D01*
X03304234Y02733500D01*
X03304248Y02733373D01*
X03304276Y02733246D01*
X03304311Y02733134D01*
X03304360Y02733029D01*
X03304402Y02732923D01*
X03304459Y02732831D01*
X03304508Y02732747D01*
X03304557Y02732670D01*
X03304614Y02732606D01*
X03304656Y02732543D01*
X03304698Y02732501D01*
X03304740Y02732458D01*
X03304768Y02732430D01*
X03304782Y02732416D01*
X03304789Y02732409D01*
X03304902Y02732318D01*
X03305015Y02732248D01*
X03305141Y02732177D01*
X03305275Y02732121D01*
X03305409Y02732072D01*
X03305542Y02732029D01*
X03305669Y02732001D01*
X03305796Y02731973D01*
X03305915Y02731952D01*
X03306028Y02731938D01*
X03306126Y02731924D01*
X03306218Y02731917D01*
X03306288Y02731910D01*
X03306337D01*
X03306372D01*
X03306387D01*
X03306577Y02731917D01*
X03306760Y02731931D01*
X03306928Y02731959D01*
X03307090Y02731987D01*
X03307231Y02732022D01*
X03307365Y02732065D01*
X03307484Y02732114D01*
X03307597Y02732156D01*
X03307688Y02732205D01*
X03307773Y02732255D01*
X03307843Y02732297D01*
X03307899Y02732332D01*
X03307949Y02732360D01*
X03307977Y02732388D01*
X03307998Y02732402D01*
X03308005Y02732409D01*
X03308103Y02732501D01*
X03308188Y02732606D01*
X03308265Y02732705D01*
X03308329Y02732810D01*
X03308378Y02732909D01*
X03308427Y02733015D01*
X03308462Y02733113D01*
X03308490Y02733204D01*
X03308511Y02733296D01*
X03308532Y02733373D01*
X03308546Y02733451D01*
X03308553Y02733514D01*
Y02733563D01*
X03308561Y02733598D01*
Y02733634D01*
X03308553Y02733767D01*
X03308540Y02733894D01*
X03308511Y02734020D01*
X03308476Y02734133D01*
X03308434Y02734246D01*
X03308385Y02734344D01*
X03308336Y02734436D01*
X03308279Y02734520D01*
X03308230Y02734597D01*
X03308181Y02734668D01*
X03308131Y02734724D01*
X03308089Y02734773D01*
X03308054Y02734816D01*
X03308026Y02734844D01*
X03308012Y02734858D01*
X03308005Y02734865D01*
X03307892Y02734949D01*
X03307773Y02735027D01*
X03307646Y02735090D01*
X03307520Y02735146D01*
X03307386Y02735196D01*
X03307252Y02735238D01*
X03307118Y02735273D01*
X03306992Y02735294D01*
X03306872Y02735315D01*
X03306760Y02735329D01*
X03306654Y02735343D01*
X03306570Y02735350D01*
X03306492Y02735357D01*
D02*
G37*
G36*
X03305796Y02718063D02*
X03305655D01*
X03305521Y02718049D01*
X03305402Y02718028D01*
X03305282Y02718007D01*
X03305176Y02717972D01*
X03305078Y02717944D01*
X03304987Y02717909D01*
X03304902Y02717866D01*
X03304832Y02717831D01*
X03304768Y02717796D01*
X03304712Y02717761D01*
X03304670Y02717733D01*
X03304635Y02717704D01*
X03304607Y02717683D01*
X03304593Y02717676D01*
X03304585Y02717669D01*
X03304508Y02717592D01*
X03304438Y02717508D01*
X03304374Y02717430D01*
X03304325Y02717339D01*
X03304283Y02717254D01*
X03304248Y02717170D01*
X03304191Y02717015D01*
X03304170Y02716938D01*
X03304156Y02716874D01*
X03304149Y02716811D01*
X03304142Y02716755D01*
X03304135Y02716713D01*
Y02716656D01*
X03304142Y02716551D01*
X03304156Y02716452D01*
X03304178Y02716353D01*
X03304199Y02716262D01*
X03304269Y02716100D01*
X03304346Y02715959D01*
X03304388Y02715896D01*
X03304431Y02715840D01*
X03304466Y02715798D01*
X03304494Y02715756D01*
X03304522Y02715728D01*
X03304543Y02715706D01*
X03304557Y02715692D01*
X03304564Y02715685D01*
X03304649Y02715615D01*
X03304740Y02715551D01*
X03304832Y02715495D01*
X03304937Y02715453D01*
X03305141Y02715376D01*
X03305338Y02715327D01*
X03305430Y02715305D01*
X03305514Y02715291D01*
X03305592Y02715277D01*
X03305662Y02715270D01*
X03305718D01*
X03305760Y02715263D01*
X03305789D01*
X03305796D01*
Y02718063D01*
D02*
G37*
G36*
X03307843Y02702957D02*
X03307822D01*
X03307815D01*
X03307808D01*
X03307737Y02702950D01*
X03307667Y02702943D01*
X03307533Y02702901D01*
X03307421Y02702845D01*
X03307329Y02702775D01*
X03307252Y02702711D01*
X03307196Y02702655D01*
X03307161Y02702613D01*
X03307147Y02702606D01*
Y02702599D01*
X03307118Y02702549D01*
X03307090Y02702486D01*
X03307062Y02702416D01*
X03307027Y02702338D01*
X03306978Y02702169D01*
X03306928Y02702001D01*
X03306886Y02701846D01*
X03306865Y02701776D01*
X03306851Y02701712D01*
X03306837Y02701656D01*
X03306830Y02701621D01*
X03306823Y02701592D01*
Y02701585D01*
X03306795Y02701445D01*
X03306760Y02701311D01*
X03306731Y02701191D01*
X03306703Y02701079D01*
X03306682Y02700974D01*
X03306654Y02700882D01*
X03306633Y02700797D01*
X03306612Y02700720D01*
X03306598Y02700650D01*
X03306584Y02700594D01*
X03306570Y02700544D01*
X03306555Y02700509D01*
X03306548Y02700474D01*
X03306541Y02700453D01*
X03306534Y02700446D01*
Y02700439D01*
X03306907D01*
X03307027D01*
X03307139D01*
X03307245Y02700446D01*
X03307336Y02700453D01*
X03307421Y02700460D01*
X03307491D01*
X03307562Y02700467D01*
X03307618Y02700474D01*
X03307667Y02700481D01*
X03307709Y02700488D01*
X03307744Y02700495D01*
X03307773Y02700502D01*
X03307808Y02700509D01*
X03307822Y02700516D01*
X03307949Y02700565D01*
X03308068Y02700629D01*
X03308174Y02700699D01*
X03308265Y02700776D01*
X03308336Y02700847D01*
X03308392Y02700903D01*
X03308420Y02700945D01*
X03308434Y02700952D01*
Y02700959D01*
X03308490Y02701044D01*
X03308540Y02701135D01*
X03308624Y02701304D01*
X03308680Y02701466D01*
X03308723Y02701613D01*
X03308744Y02701740D01*
X03308758Y02701790D01*
Y02701839D01*
X03308765Y02701874D01*
Y02701923D01*
X03308751Y02702085D01*
X03308723Y02702233D01*
X03308673Y02702359D01*
X03308624Y02702465D01*
X03308575Y02702549D01*
X03308525Y02702613D01*
X03308497Y02702655D01*
X03308483Y02702669D01*
X03308371Y02702768D01*
X03308258Y02702838D01*
X03308146Y02702887D01*
X03308040Y02702922D01*
X03307949Y02702943D01*
X03307871Y02702950D01*
X03307843Y02702957D01*
D02*
G37*
G36*
Y02683307D02*
X03307822D01*
X03307815D01*
X03307808D01*
X03307737Y02683300D01*
X03307667Y02683293D01*
X03307533Y02683250D01*
X03307421Y02683194D01*
X03307329Y02683123D01*
X03307252Y02683060D01*
X03307196Y02683004D01*
X03307161Y02682962D01*
X03307147Y02682955D01*
Y02682948D01*
X03307118Y02682898D01*
X03307090Y02682835D01*
X03307062Y02682765D01*
X03307027Y02682687D01*
X03306978Y02682519D01*
X03306928Y02682350D01*
X03306886Y02682195D01*
X03306865Y02682125D01*
X03306851Y02682061D01*
X03306837Y02682005D01*
X03306830Y02681970D01*
X03306823Y02681942D01*
Y02681935D01*
X03306795Y02681794D01*
X03306760Y02681660D01*
X03306731Y02681541D01*
X03306703Y02681428D01*
X03306682Y02681322D01*
X03306654Y02681231D01*
X03306633Y02681147D01*
X03306612Y02681069D01*
X03306598Y02680999D01*
X03306584Y02680942D01*
X03306570Y02680893D01*
X03306555Y02680858D01*
X03306548Y02680823D01*
X03306541Y02680802D01*
X03306534Y02680795D01*
Y02680788D01*
X03306907D01*
X03307027D01*
X03307139D01*
X03307245Y02680795D01*
X03307336Y02680802D01*
X03307421Y02680809D01*
X03307491D01*
X03307562Y02680816D01*
X03307618Y02680823D01*
X03307667Y02680830D01*
X03307709Y02680837D01*
X03307744Y02680844D01*
X03307773Y02680851D01*
X03307808Y02680858D01*
X03307822Y02680865D01*
X03307949Y02680914D01*
X03308068Y02680977D01*
X03308174Y02681048D01*
X03308265Y02681125D01*
X03308336Y02681196D01*
X03308392Y02681252D01*
X03308420Y02681294D01*
X03308434Y02681301D01*
Y02681308D01*
X03308490Y02681393D01*
X03308540Y02681484D01*
X03308624Y02681653D01*
X03308680Y02681815D01*
X03308723Y02681963D01*
X03308744Y02682089D01*
X03308758Y02682139D01*
Y02682188D01*
X03308765Y02682223D01*
Y02682272D01*
X03308751Y02682434D01*
X03308723Y02682582D01*
X03308673Y02682708D01*
X03308624Y02682814D01*
X03308575Y02682898D01*
X03308525Y02682962D01*
X03308497Y02683004D01*
X03308483Y02683018D01*
X03308371Y02683116D01*
X03308258Y02683187D01*
X03308146Y02683236D01*
X03308040Y02683271D01*
X03307949Y02683293D01*
X03307871Y02683300D01*
X03307843Y02683307D01*
D02*
G37*
G36*
X03306492Y02667328D02*
X03306443D01*
X03306408D01*
X03306394D01*
X03306204Y02667321D01*
X03306021Y02667307D01*
X03305859Y02667286D01*
X03305697Y02667251D01*
X03305556Y02667216D01*
X03305423Y02667173D01*
X03305303Y02667124D01*
X03305197Y02667082D01*
X03305106Y02667033D01*
X03305022Y02666990D01*
X03304951Y02666948D01*
X03304895Y02666913D01*
X03304846Y02666878D01*
X03304818Y02666857D01*
X03304796Y02666843D01*
X03304789Y02666836D01*
X03304691Y02666737D01*
X03304607Y02666639D01*
X03304529Y02666533D01*
X03304466Y02666435D01*
X03304409Y02666329D01*
X03304360Y02666223D01*
X03304325Y02666125D01*
X03304297Y02666034D01*
X03304276Y02665942D01*
X03304255Y02665865D01*
X03304241Y02665787D01*
X03304234Y02665724D01*
X03304227Y02665675D01*
Y02665604D01*
X03304234Y02665471D01*
X03304248Y02665344D01*
X03304276Y02665218D01*
X03304311Y02665105D01*
X03304360Y02664999D01*
X03304402Y02664894D01*
X03304459Y02664802D01*
X03304508Y02664718D01*
X03304557Y02664641D01*
X03304614Y02664577D01*
X03304656Y02664514D01*
X03304698Y02664472D01*
X03304740Y02664429D01*
X03304768Y02664401D01*
X03304782Y02664387D01*
X03304789Y02664380D01*
X03304902Y02664289D01*
X03305015Y02664218D01*
X03305141Y02664148D01*
X03305275Y02664092D01*
X03305409Y02664042D01*
X03305542Y02664000D01*
X03305669Y02663972D01*
X03305796Y02663944D01*
X03305915Y02663923D01*
X03306028Y02663909D01*
X03306126Y02663895D01*
X03306218Y02663888D01*
X03306288Y02663881D01*
X03306337D01*
X03306372D01*
X03306387D01*
X03306577Y02663888D01*
X03306760Y02663902D01*
X03306928Y02663930D01*
X03307090Y02663958D01*
X03307231Y02663993D01*
X03307365Y02664035D01*
X03307484Y02664085D01*
X03307597Y02664127D01*
X03307688Y02664176D01*
X03307773Y02664225D01*
X03307843Y02664268D01*
X03307899Y02664303D01*
X03307949Y02664331D01*
X03307977Y02664359D01*
X03307998Y02664373D01*
X03308005Y02664380D01*
X03308103Y02664472D01*
X03308188Y02664577D01*
X03308265Y02664676D01*
X03308329Y02664781D01*
X03308378Y02664880D01*
X03308427Y02664985D01*
X03308462Y02665084D01*
X03308490Y02665175D01*
X03308511Y02665267D01*
X03308532Y02665344D01*
X03308546Y02665421D01*
X03308553Y02665485D01*
Y02665534D01*
X03308561Y02665569D01*
Y02665604D01*
X03308553Y02665738D01*
X03308540Y02665865D01*
X03308511Y02665992D01*
X03308476Y02666104D01*
X03308434Y02666216D01*
X03308385Y02666315D01*
X03308336Y02666407D01*
X03308279Y02666491D01*
X03308230Y02666568D01*
X03308181Y02666639D01*
X03308131Y02666695D01*
X03308089Y02666744D01*
X03308054Y02666786D01*
X03308026Y02666815D01*
X03308012Y02666829D01*
X03308005Y02666836D01*
X03307892Y02666920D01*
X03307773Y02666997D01*
X03307646Y02667061D01*
X03307520Y02667117D01*
X03307386Y02667166D01*
X03307252Y02667209D01*
X03307118Y02667244D01*
X03306992Y02667265D01*
X03306872Y02667286D01*
X03306760Y02667300D01*
X03306654Y02667314D01*
X03306570Y02667321D01*
X03306492Y02667328D01*
D02*
G37*
G36*
Y02646931D02*
X03306443D01*
X03306408D01*
X03306394D01*
X03306204Y02646924D01*
X03306021Y02646910D01*
X03305859Y02646889D01*
X03305697Y02646854D01*
X03305556Y02646819D01*
X03305423Y02646777D01*
X03305303Y02646727D01*
X03305197Y02646685D01*
X03305106Y02646636D01*
X03305022Y02646594D01*
X03304951Y02646552D01*
X03304895Y02646516D01*
X03304846Y02646481D01*
X03304818Y02646460D01*
X03304796Y02646446D01*
X03304789Y02646439D01*
X03304691Y02646340D01*
X03304607Y02646242D01*
X03304529Y02646136D01*
X03304466Y02646038D01*
X03304409Y02645932D01*
X03304360Y02645827D01*
X03304325Y02645728D01*
X03304297Y02645637D01*
X03304276Y02645545D01*
X03304255Y02645468D01*
X03304241Y02645391D01*
X03304234Y02645327D01*
X03304227Y02645278D01*
Y02645208D01*
X03304234Y02645074D01*
X03304248Y02644947D01*
X03304276Y02644821D01*
X03304311Y02644708D01*
X03304360Y02644603D01*
X03304402Y02644497D01*
X03304459Y02644406D01*
X03304508Y02644321D01*
X03304557Y02644244D01*
X03304614Y02644180D01*
X03304656Y02644117D01*
X03304698Y02644075D01*
X03304740Y02644033D01*
X03304768Y02644005D01*
X03304782Y02643990D01*
X03304789Y02643983D01*
X03304902Y02643892D01*
X03305015Y02643822D01*
X03305141Y02643751D01*
X03305275Y02643695D01*
X03305409Y02643646D01*
X03305542Y02643604D01*
X03305669Y02643575D01*
X03305796Y02643547D01*
X03305915Y02643526D01*
X03306028Y02643512D01*
X03306126Y02643498D01*
X03306218Y02643491D01*
X03306288Y02643484D01*
X03306337D01*
X03306372D01*
X03306387D01*
X03306577Y02643491D01*
X03306760Y02643505D01*
X03306928Y02643533D01*
X03307090Y02643561D01*
X03307231Y02643596D01*
X03307365Y02643639D01*
X03307484Y02643688D01*
X03307597Y02643730D01*
X03307688Y02643779D01*
X03307773Y02643829D01*
X03307843Y02643871D01*
X03307899Y02643906D01*
X03307949Y02643934D01*
X03307977Y02643962D01*
X03307998Y02643976D01*
X03308005Y02643983D01*
X03308103Y02644075D01*
X03308188Y02644180D01*
X03308265Y02644279D01*
X03308329Y02644384D01*
X03308378Y02644483D01*
X03308427Y02644589D01*
X03308462Y02644687D01*
X03308490Y02644778D01*
X03308511Y02644870D01*
X03308532Y02644947D01*
X03308546Y02645025D01*
X03308553Y02645088D01*
Y02645137D01*
X03308561Y02645172D01*
Y02645208D01*
X03308553Y02645341D01*
X03308540Y02645468D01*
X03308511Y02645594D01*
X03308476Y02645707D01*
X03308434Y02645820D01*
X03308385Y02645918D01*
X03308336Y02646010D01*
X03308279Y02646094D01*
X03308230Y02646172D01*
X03308181Y02646242D01*
X03308131Y02646298D01*
X03308089Y02646347D01*
X03308054Y02646390D01*
X03308026Y02646418D01*
X03308012Y02646432D01*
X03308005Y02646439D01*
X03307892Y02646523D01*
X03307773Y02646601D01*
X03307646Y02646664D01*
X03307520Y02646720D01*
X03307386Y02646770D01*
X03307252Y02646812D01*
X03307118Y02646847D01*
X03306992Y02646868D01*
X03306872Y02646889D01*
X03306760Y02646903D01*
X03306654Y02646917D01*
X03306570Y02646924D01*
X03306492Y02646931D01*
D02*
G37*
G36*
Y02602353D02*
X03306443D01*
X03306408D01*
X03306394D01*
X03306204Y02602346D01*
X03306021Y02602332D01*
X03305859Y02602310D01*
X03305697Y02602275D01*
X03305556Y02602240D01*
X03305423Y02602198D01*
X03305303Y02602148D01*
X03305197Y02602106D01*
X03305106Y02602057D01*
X03305022Y02602015D01*
X03304951Y02601973D01*
X03304895Y02601938D01*
X03304846Y02601902D01*
X03304818Y02601881D01*
X03304796Y02601867D01*
X03304789Y02601860D01*
X03304691Y02601761D01*
X03304607Y02601663D01*
X03304529Y02601558D01*
X03304466Y02601459D01*
X03304409Y02601353D01*
X03304360Y02601248D01*
X03304325Y02601150D01*
X03304297Y02601058D01*
X03304276Y02600966D01*
X03304255Y02600889D01*
X03304241Y02600812D01*
X03304234Y02600748D01*
X03304227Y02600699D01*
Y02600629D01*
X03304234Y02600495D01*
X03304248Y02600369D01*
X03304276Y02600242D01*
X03304311Y02600129D01*
X03304360Y02600024D01*
X03304402Y02599918D01*
X03304459Y02599827D01*
X03304508Y02599742D01*
X03304557Y02599665D01*
X03304614Y02599602D01*
X03304656Y02599538D01*
X03304698Y02599496D01*
X03304740Y02599454D01*
X03304768Y02599426D01*
X03304782Y02599412D01*
X03304789Y02599405D01*
X03304902Y02599313D01*
X03305015Y02599243D01*
X03305141Y02599172D01*
X03305275Y02599116D01*
X03305409Y02599067D01*
X03305542Y02599025D01*
X03305669Y02598997D01*
X03305796Y02598969D01*
X03305915Y02598947D01*
X03306028Y02598933D01*
X03306126Y02598919D01*
X03306218Y02598912D01*
X03306288Y02598905D01*
X03306337D01*
X03306372D01*
X03306387D01*
X03306577Y02598912D01*
X03306760Y02598926D01*
X03306928Y02598954D01*
X03307090Y02598983D01*
X03307231Y02599018D01*
X03307365Y02599060D01*
X03307484Y02599109D01*
X03307597Y02599151D01*
X03307688Y02599200D01*
X03307773Y02599250D01*
X03307843Y02599292D01*
X03307899Y02599327D01*
X03307949Y02599355D01*
X03307977Y02599384D01*
X03307998Y02599398D01*
X03308005Y02599405D01*
X03308103Y02599496D01*
X03308188Y02599602D01*
X03308265Y02599700D01*
X03308329Y02599806D01*
X03308378Y02599904D01*
X03308427Y02600010D01*
X03308462Y02600108D01*
X03308490Y02600200D01*
X03308511Y02600291D01*
X03308532Y02600369D01*
X03308546Y02600446D01*
X03308553Y02600509D01*
Y02600558D01*
X03308561Y02600594D01*
Y02600629D01*
X03308553Y02600763D01*
X03308540Y02600889D01*
X03308511Y02601016D01*
X03308476Y02601129D01*
X03308434Y02601241D01*
X03308385Y02601339D01*
X03308336Y02601431D01*
X03308279Y02601515D01*
X03308230Y02601593D01*
X03308181Y02601663D01*
X03308131Y02601719D01*
X03308089Y02601768D01*
X03308054Y02601811D01*
X03308026Y02601839D01*
X03308012Y02601853D01*
X03308005Y02601860D01*
X03307892Y02601945D01*
X03307773Y02602022D01*
X03307646Y02602085D01*
X03307520Y02602141D01*
X03307386Y02602191D01*
X03307252Y02602233D01*
X03307118Y02602268D01*
X03306992Y02602289D01*
X03306872Y02602310D01*
X03306760Y02602325D01*
X03306654Y02602339D01*
X03306570Y02602346D01*
X03306492Y02602353D01*
D02*
G37*
G36*
X03307843Y02554108D02*
X03307822D01*
X03307815D01*
X03307808D01*
X03307737Y02554101D01*
X03307667Y02554094D01*
X03307533Y02554052D01*
X03307421Y02553996D01*
X03307329Y02553925D01*
X03307252Y02553862D01*
X03307196Y02553806D01*
X03307161Y02553763D01*
X03307147Y02553756D01*
Y02553749D01*
X03307118Y02553700D01*
X03307090Y02553637D01*
X03307062Y02553566D01*
X03307027Y02553489D01*
X03306978Y02553320D01*
X03306928Y02553151D01*
X03306886Y02552996D01*
X03306865Y02552926D01*
X03306851Y02552863D01*
X03306837Y02552807D01*
X03306830Y02552771D01*
X03306823Y02552743D01*
Y02552736D01*
X03306795Y02552595D01*
X03306760Y02552462D01*
X03306731Y02552342D01*
X03306703Y02552229D01*
X03306682Y02552124D01*
X03306654Y02552032D01*
X03306633Y02551948D01*
X03306612Y02551871D01*
X03306598Y02551800D01*
X03306584Y02551744D01*
X03306570Y02551695D01*
X03306555Y02551660D01*
X03306548Y02551624D01*
X03306541Y02551603D01*
X03306534Y02551596D01*
Y02551589D01*
X03306907D01*
X03307027D01*
X03307139D01*
X03307245Y02551596D01*
X03307336Y02551603D01*
X03307421Y02551610D01*
X03307491D01*
X03307562Y02551617D01*
X03307618Y02551624D01*
X03307667Y02551631D01*
X03307709Y02551638D01*
X03307744Y02551646D01*
X03307773Y02551653D01*
X03307808Y02551660D01*
X03307822Y02551667D01*
X03307949Y02551716D01*
X03308068Y02551779D01*
X03308174Y02551850D01*
X03308265Y02551927D01*
X03308336Y02551997D01*
X03308392Y02552054D01*
X03308420Y02552096D01*
X03308434Y02552103D01*
Y02552110D01*
X03308490Y02552194D01*
X03308540Y02552286D01*
X03308624Y02552455D01*
X03308680Y02552616D01*
X03308723Y02552764D01*
X03308744Y02552891D01*
X03308758Y02552940D01*
Y02552989D01*
X03308765Y02553025D01*
Y02553074D01*
X03308751Y02553236D01*
X03308723Y02553383D01*
X03308673Y02553510D01*
X03308624Y02553616D01*
X03308575Y02553700D01*
X03308525Y02553763D01*
X03308497Y02553806D01*
X03308483Y02553820D01*
X03308371Y02553918D01*
X03308258Y02553988D01*
X03308146Y02554038D01*
X03308040Y02554073D01*
X03307949Y02554094D01*
X03307871Y02554101D01*
X03307843Y02554108D01*
D02*
G37*
G36*
X03306394Y02546136D02*
X03306330D01*
X03306295D01*
X03306281D01*
X03306091Y02546129D01*
X03305915Y02546115D01*
X03305753Y02546094D01*
X03305598Y02546066D01*
X03305458Y02546031D01*
X03305331Y02545996D01*
X03305219Y02545954D01*
X03305113Y02545911D01*
X03305022Y02545869D01*
X03304937Y02545827D01*
X03304874Y02545792D01*
X03304818Y02545757D01*
X03304775Y02545728D01*
X03304740Y02545707D01*
X03304726Y02545693D01*
X03304719Y02545686D01*
X03304628Y02545595D01*
X03304543Y02545503D01*
X03304473Y02545412D01*
X03304409Y02545313D01*
X03304360Y02545222D01*
X03304318Y02545123D01*
X03304276Y02545032D01*
X03304248Y02544948D01*
X03304227Y02544863D01*
X03304213Y02544786D01*
X03304199Y02544715D01*
X03304191Y02544659D01*
X03304184Y02544610D01*
Y02544546D01*
X03304191Y02544427D01*
X03304206Y02544307D01*
X03304234Y02544195D01*
X03304269Y02544096D01*
X03304311Y02543998D01*
X03304353Y02543906D01*
X03304402Y02543822D01*
X03304452Y02543744D01*
X03304508Y02543674D01*
X03304557Y02543611D01*
X03304600Y02543561D01*
X03304642Y02543512D01*
X03304677Y02543477D01*
X03304705Y02543456D01*
X03304719Y02543442D01*
X03304726Y02543435D01*
X03304832Y02543357D01*
X03304951Y02543287D01*
X03305078Y02543224D01*
X03305211Y02543174D01*
X03305345Y02543132D01*
X03305479Y02543097D01*
X03305746Y02543041D01*
X03305873Y02543020D01*
X03305993Y02543006D01*
X03306098Y02542999D01*
X03306190Y02542991D01*
X03306267Y02542984D01*
X03306323D01*
X03306359D01*
X03306372D01*
X03306591Y02542991D01*
X03306788Y02543006D01*
X03306971Y02543027D01*
X03307139Y02543055D01*
X03307294Y02543083D01*
X03307435Y02543125D01*
X03307562Y02543160D01*
X03307674Y02543203D01*
X03307773Y02543245D01*
X03307857Y02543280D01*
X03307928Y02543322D01*
X03307984Y02543350D01*
X03308026Y02543378D01*
X03308054Y02543400D01*
X03308075Y02543414D01*
X03308082Y02543421D01*
X03308174Y02543505D01*
X03308251Y02543590D01*
X03308322Y02543681D01*
X03308385Y02543772D01*
X03308434Y02543864D01*
X03308476Y02543955D01*
X03308511Y02544047D01*
X03308540Y02544131D01*
X03308561Y02544209D01*
X03308575Y02544279D01*
X03308589Y02544349D01*
X03308596Y02544399D01*
Y02544448D01*
X03308603Y02544483D01*
Y02544511D01*
X03308596Y02544638D01*
X03308582Y02544758D01*
X03308553Y02544870D01*
X03308511Y02544983D01*
X03308469Y02545081D01*
X03308427Y02545173D01*
X03308371Y02545264D01*
X03308322Y02545341D01*
X03308272Y02545419D01*
X03308216Y02545482D01*
X03308174Y02545531D01*
X03308124Y02545581D01*
X03308089Y02545616D01*
X03308061Y02545644D01*
X03308047Y02545658D01*
X03308040Y02545665D01*
X03307928Y02545750D01*
X03307801Y02545820D01*
X03307667Y02545883D01*
X03307527Y02545939D01*
X03307379Y02545982D01*
X03307231Y02546024D01*
X03306949Y02546080D01*
X03306809Y02546094D01*
X03306689Y02546108D01*
X03306577Y02546122D01*
X03306478Y02546129D01*
X03306394Y02546136D01*
D02*
G37*
G36*
Y02537827D02*
X03306330D01*
X03306295D01*
X03306281D01*
X03306091Y02537820D01*
X03305915Y02537806D01*
X03305753Y02537785D01*
X03305598Y02537757D01*
X03305458Y02537722D01*
X03305331Y02537686D01*
X03305219Y02537644D01*
X03305113Y02537602D01*
X03305022Y02537560D01*
X03304937Y02537518D01*
X03304874Y02537482D01*
X03304818Y02537447D01*
X03304775Y02537419D01*
X03304740Y02537398D01*
X03304726Y02537384D01*
X03304719Y02537377D01*
X03304628Y02537285D01*
X03304543Y02537194D01*
X03304473Y02537103D01*
X03304409Y02537004D01*
X03304360Y02536913D01*
X03304318Y02536814D01*
X03304276Y02536723D01*
X03304248Y02536638D01*
X03304227Y02536554D01*
X03304213Y02536476D01*
X03304199Y02536406D01*
X03304191Y02536350D01*
X03304184Y02536301D01*
Y02536237D01*
X03304191Y02536118D01*
X03304206Y02535998D01*
X03304234Y02535885D01*
X03304269Y02535787D01*
X03304311Y02535688D01*
X03304353Y02535597D01*
X03304402Y02535513D01*
X03304452Y02535435D01*
X03304508Y02535365D01*
X03304557Y02535301D01*
X03304600Y02535252D01*
X03304642Y02535203D01*
X03304677Y02535168D01*
X03304705Y02535147D01*
X03304719Y02535132D01*
X03304726Y02535125D01*
X03304832Y02535048D01*
X03304951Y02534978D01*
X03305078Y02534914D01*
X03305211Y02534865D01*
X03305345Y02534823D01*
X03305479Y02534788D01*
X03305746Y02534731D01*
X03305873Y02534710D01*
X03305993Y02534696D01*
X03306098Y02534689D01*
X03306190Y02534682D01*
X03306267Y02534675D01*
X03306323D01*
X03306359D01*
X03306372D01*
X03306591Y02534682D01*
X03306788Y02534696D01*
X03306971Y02534717D01*
X03307139Y02534746D01*
X03307294Y02534774D01*
X03307435Y02534816D01*
X03307562Y02534851D01*
X03307674Y02534893D01*
X03307773Y02534935D01*
X03307857Y02534971D01*
X03307928Y02535013D01*
X03307984Y02535041D01*
X03308026Y02535069D01*
X03308054Y02535090D01*
X03308075Y02535104D01*
X03308082Y02535111D01*
X03308174Y02535196D01*
X03308251Y02535280D01*
X03308322Y02535372D01*
X03308385Y02535463D01*
X03308434Y02535555D01*
X03308476Y02535646D01*
X03308511Y02535738D01*
X03308540Y02535822D01*
X03308561Y02535899D01*
X03308575Y02535970D01*
X03308589Y02536040D01*
X03308596Y02536089D01*
Y02536139D01*
X03308603Y02536174D01*
Y02536202D01*
X03308596Y02536329D01*
X03308582Y02536448D01*
X03308553Y02536561D01*
X03308511Y02536673D01*
X03308469Y02536772D01*
X03308427Y02536863D01*
X03308371Y02536955D01*
X03308322Y02537032D01*
X03308272Y02537110D01*
X03308216Y02537173D01*
X03308174Y02537222D01*
X03308124Y02537271D01*
X03308089Y02537307D01*
X03308061Y02537335D01*
X03308047Y02537349D01*
X03308040Y02537356D01*
X03307928Y02537440D01*
X03307801Y02537511D01*
X03307667Y02537574D01*
X03307527Y02537630D01*
X03307379Y02537672D01*
X03307231Y02537715D01*
X03306949Y02537771D01*
X03306809Y02537785D01*
X03306689Y02537799D01*
X03306577Y02537813D01*
X03306478Y02537820D01*
X03306394Y02537827D01*
D02*
G37*
G36*
X03306492Y02524530D02*
X03306443D01*
X03306408D01*
X03306394D01*
X03306204Y02524523D01*
X03306021Y02524509D01*
X03305859Y02524487D01*
X03305697Y02524452D01*
X03305556Y02524417D01*
X03305423Y02524375D01*
X03305303Y02524326D01*
X03305197Y02524283D01*
X03305106Y02524234D01*
X03305022Y02524192D01*
X03304951Y02524150D01*
X03304895Y02524115D01*
X03304846Y02524079D01*
X03304818Y02524058D01*
X03304796Y02524044D01*
X03304789Y02524037D01*
X03304691Y02523939D01*
X03304607Y02523840D01*
X03304529Y02523735D01*
X03304466Y02523636D01*
X03304409Y02523530D01*
X03304360Y02523425D01*
X03304325Y02523327D01*
X03304297Y02523235D01*
X03304276Y02523143D01*
X03304255Y02523066D01*
X03304241Y02522989D01*
X03304234Y02522925D01*
X03304227Y02522876D01*
Y02522806D01*
X03304234Y02522672D01*
X03304248Y02522545D01*
X03304276Y02522419D01*
X03304311Y02522306D01*
X03304360Y02522201D01*
X03304402Y02522095D01*
X03304459Y02522004D01*
X03304508Y02521919D01*
X03304557Y02521842D01*
X03304614Y02521779D01*
X03304656Y02521715D01*
X03304698Y02521673D01*
X03304740Y02521631D01*
X03304768Y02521603D01*
X03304782Y02521589D01*
X03304789Y02521582D01*
X03304902Y02521490D01*
X03305015Y02521420D01*
X03305141Y02521349D01*
X03305275Y02521293D01*
X03305409Y02521244D01*
X03305542Y02521202D01*
X03305669Y02521174D01*
X03305796Y02521145D01*
X03305915Y02521124D01*
X03306028Y02521110D01*
X03306126Y02521096D01*
X03306218Y02521089D01*
X03306288Y02521082D01*
X03306337D01*
X03306372D01*
X03306387D01*
X03306577Y02521089D01*
X03306760Y02521103D01*
X03306928Y02521131D01*
X03307090Y02521159D01*
X03307231Y02521195D01*
X03307365Y02521237D01*
X03307484Y02521286D01*
X03307597Y02521328D01*
X03307688Y02521378D01*
X03307773Y02521427D01*
X03307843Y02521469D01*
X03307899Y02521504D01*
X03307949Y02521532D01*
X03307977Y02521561D01*
X03307998Y02521575D01*
X03308005Y02521582D01*
X03308103Y02521673D01*
X03308188Y02521779D01*
X03308265Y02521877D01*
X03308329Y02521983D01*
X03308378Y02522081D01*
X03308427Y02522187D01*
X03308462Y02522285D01*
X03308490Y02522377D01*
X03308511Y02522468D01*
X03308532Y02522545D01*
X03308546Y02522623D01*
X03308553Y02522686D01*
Y02522735D01*
X03308561Y02522771D01*
Y02522806D01*
X03308553Y02522939D01*
X03308540Y02523066D01*
X03308511Y02523193D01*
X03308476Y02523305D01*
X03308434Y02523418D01*
X03308385Y02523516D01*
X03308336Y02523608D01*
X03308279Y02523692D01*
X03308230Y02523770D01*
X03308181Y02523840D01*
X03308131Y02523896D01*
X03308089Y02523946D01*
X03308054Y02523988D01*
X03308026Y02524016D01*
X03308012Y02524030D01*
X03308005Y02524037D01*
X03307892Y02524122D01*
X03307773Y02524199D01*
X03307646Y02524262D01*
X03307520Y02524319D01*
X03307386Y02524368D01*
X03307252Y02524410D01*
X03307118Y02524445D01*
X03306992Y02524466D01*
X03306872Y02524487D01*
X03306760Y02524501D01*
X03306654Y02524516D01*
X03306570Y02524523D01*
X03306492Y02524530D01*
D02*
G37*
G36*
X03305796Y02508741D02*
X03305655D01*
X03305521Y02508727D01*
X03305402Y02508706D01*
X03305282Y02508685D01*
X03305176Y02508650D01*
X03305078Y02508622D01*
X03304987Y02508586D01*
X03304902Y02508544D01*
X03304832Y02508509D01*
X03304768Y02508474D01*
X03304712Y02508439D01*
X03304670Y02508411D01*
X03304635Y02508382D01*
X03304607Y02508361D01*
X03304593Y02508354D01*
X03304585Y02508347D01*
X03304508Y02508270D01*
X03304438Y02508185D01*
X03304374Y02508108D01*
X03304325Y02508017D01*
X03304283Y02507932D01*
X03304248Y02507848D01*
X03304191Y02507693D01*
X03304170Y02507616D01*
X03304156Y02507552D01*
X03304149Y02507489D01*
X03304142Y02507433D01*
X03304135Y02507390D01*
Y02507334D01*
X03304142Y02507229D01*
X03304156Y02507130D01*
X03304178Y02507032D01*
X03304199Y02506940D01*
X03304269Y02506778D01*
X03304346Y02506638D01*
X03304388Y02506574D01*
X03304431Y02506518D01*
X03304466Y02506476D01*
X03304494Y02506434D01*
X03304522Y02506405D01*
X03304543Y02506384D01*
X03304557Y02506370D01*
X03304564Y02506363D01*
X03304649Y02506293D01*
X03304740Y02506230D01*
X03304832Y02506173D01*
X03304937Y02506131D01*
X03305141Y02506054D01*
X03305338Y02506004D01*
X03305430Y02505983D01*
X03305514Y02505969D01*
X03305592Y02505955D01*
X03305662Y02505948D01*
X03305718D01*
X03305760Y02505941D01*
X03305789D01*
X03305796D01*
Y02508741D01*
D02*
G37*
G36*
X03306351Y02501079D02*
X03306295D01*
X03306260D01*
X03306246D01*
X03306056Y02501072D01*
X03305880Y02501058D01*
X03305711Y02501037D01*
X03305556Y02501009D01*
X03305416Y02500974D01*
X03305289Y02500939D01*
X03305169Y02500896D01*
X03305064Y02500854D01*
X03304973Y02500819D01*
X03304895Y02500777D01*
X03304825Y02500742D01*
X03304768Y02500706D01*
X03304726Y02500678D01*
X03304691Y02500657D01*
X03304677Y02500643D01*
X03304670Y02500636D01*
X03304579Y02500552D01*
X03304494Y02500460D01*
X03304424Y02500369D01*
X03304360Y02500270D01*
X03304311Y02500179D01*
X03304269Y02500087D01*
X03304227Y02499996D01*
X03304199Y02499911D01*
X03304178Y02499834D01*
X03304163Y02499756D01*
X03304149Y02499693D01*
X03304142Y02499637D01*
X03304135Y02499588D01*
Y02499524D01*
X03304142Y02499398D01*
X03304156Y02499278D01*
X03304184Y02499165D01*
X03304220Y02499060D01*
X03304262Y02498961D01*
X03304304Y02498870D01*
X03304353Y02498786D01*
X03304402Y02498708D01*
X03304452Y02498638D01*
X03304501Y02498582D01*
X03304543Y02498525D01*
X03304585Y02498483D01*
X03304621Y02498448D01*
X03304649Y02498427D01*
X03304663Y02498413D01*
X03304670Y02498406D01*
X03304775Y02498328D01*
X03304895Y02498258D01*
X03305029Y02498202D01*
X03305169Y02498152D01*
X03305310Y02498103D01*
X03305458Y02498068D01*
X03305746Y02498019D01*
X03305880Y02497998D01*
X03306007Y02497984D01*
X03306126Y02497977D01*
X03306225Y02497970D01*
X03306309Y02497962D01*
X03306365D01*
X03306408D01*
X03306415D01*
X03306422D01*
X03306619Y02497970D01*
X03306802Y02497984D01*
X03306978Y02498005D01*
X03307139Y02498033D01*
X03307287Y02498068D01*
X03307421Y02498110D01*
X03307541Y02498145D01*
X03307653Y02498188D01*
X03307744Y02498237D01*
X03307829Y02498272D01*
X03307899Y02498314D01*
X03307956Y02498349D01*
X03308005Y02498378D01*
X03308033Y02498399D01*
X03308054Y02498413D01*
X03308061Y02498420D01*
X03308159Y02498504D01*
X03308237Y02498596D01*
X03308315Y02498687D01*
X03308371Y02498779D01*
X03308427Y02498870D01*
X03308469Y02498961D01*
X03308504Y02499053D01*
X03308532Y02499130D01*
X03308561Y02499215D01*
X03308575Y02499285D01*
X03308589Y02499348D01*
X03308596Y02499405D01*
Y02499447D01*
X03308603Y02499482D01*
Y02499510D01*
X03308596Y02499658D01*
X03308575Y02499799D01*
X03308532Y02499925D01*
X03308490Y02500045D01*
X03308434Y02500158D01*
X03308371Y02500263D01*
X03308307Y02500362D01*
X03308237Y02500446D01*
X03308174Y02500516D01*
X03308110Y02500587D01*
X03308047Y02500643D01*
X03307991Y02500685D01*
X03307942Y02500720D01*
X03307906Y02500749D01*
X03307885Y02500763D01*
X03307878Y02500770D01*
X03307773Y02500826D01*
X03307660Y02500868D01*
X03307541Y02500910D01*
X03307407Y02500946D01*
X03307139Y02501002D01*
X03306872Y02501037D01*
X03306745Y02501051D01*
X03306626Y02501065D01*
X03306520Y02501072D01*
X03306429D01*
X03306351Y02501079D01*
D02*
G37*
G36*
X03306492Y02484475D02*
X03306443D01*
X03306408D01*
X03306394D01*
X03306204Y02484468D01*
X03306021Y02484454D01*
X03305859Y02484433D01*
X03305697Y02484397D01*
X03305556Y02484362D01*
X03305423Y02484320D01*
X03305303Y02484271D01*
X03305197Y02484229D01*
X03305106Y02484179D01*
X03305022Y02484137D01*
X03304951Y02484095D01*
X03304895Y02484060D01*
X03304846Y02484025D01*
X03304818Y02484003D01*
X03304796Y02483989D01*
X03304789Y02483982D01*
X03304691Y02483884D01*
X03304607Y02483785D01*
X03304529Y02483680D01*
X03304466Y02483581D01*
X03304409Y02483476D01*
X03304360Y02483370D01*
X03304325Y02483272D01*
X03304297Y02483180D01*
X03304276Y02483089D01*
X03304255Y02483011D01*
X03304241Y02482934D01*
X03304234Y02482871D01*
X03304227Y02482821D01*
Y02482751D01*
X03304234Y02482617D01*
X03304248Y02482491D01*
X03304276Y02482364D01*
X03304311Y02482251D01*
X03304360Y02482146D01*
X03304402Y02482040D01*
X03304459Y02481949D01*
X03304508Y02481864D01*
X03304557Y02481787D01*
X03304614Y02481724D01*
X03304656Y02481660D01*
X03304698Y02481618D01*
X03304740Y02481576D01*
X03304768Y02481548D01*
X03304782Y02481534D01*
X03304789Y02481527D01*
X03304902Y02481435D01*
X03305015Y02481365D01*
X03305141Y02481295D01*
X03305275Y02481238D01*
X03305409Y02481189D01*
X03305542Y02481147D01*
X03305669Y02481119D01*
X03305796Y02481091D01*
X03305915Y02481069D01*
X03306028Y02481055D01*
X03306126Y02481041D01*
X03306218Y02481034D01*
X03306288Y02481027D01*
X03306337D01*
X03306372D01*
X03306387D01*
X03306577Y02481034D01*
X03306760Y02481048D01*
X03306928Y02481077D01*
X03307090Y02481105D01*
X03307231Y02481140D01*
X03307365Y02481182D01*
X03307484Y02481231D01*
X03307597Y02481273D01*
X03307688Y02481323D01*
X03307773Y02481372D01*
X03307843Y02481414D01*
X03307899Y02481449D01*
X03307949Y02481478D01*
X03307977Y02481506D01*
X03307998Y02481520D01*
X03308005Y02481527D01*
X03308103Y02481618D01*
X03308188Y02481724D01*
X03308265Y02481822D01*
X03308329Y02481928D01*
X03308378Y02482026D01*
X03308427Y02482132D01*
X03308462Y02482230D01*
X03308490Y02482322D01*
X03308511Y02482413D01*
X03308532Y02482491D01*
X03308546Y02482568D01*
X03308553Y02482631D01*
Y02482681D01*
X03308561Y02482716D01*
Y02482751D01*
X03308553Y02482885D01*
X03308540Y02483011D01*
X03308511Y02483138D01*
X03308476Y02483251D01*
X03308434Y02483363D01*
X03308385Y02483462D01*
X03308336Y02483553D01*
X03308279Y02483638D01*
X03308230Y02483715D01*
X03308181Y02483785D01*
X03308131Y02483842D01*
X03308089Y02483891D01*
X03308054Y02483933D01*
X03308026Y02483961D01*
X03308012Y02483975D01*
X03308005Y02483982D01*
X03307892Y02484067D01*
X03307773Y02484144D01*
X03307646Y02484207D01*
X03307520Y02484264D01*
X03307386Y02484313D01*
X03307252Y02484355D01*
X03307118Y02484390D01*
X03306992Y02484411D01*
X03306872Y02484433D01*
X03306760Y02484447D01*
X03306654Y02484461D01*
X03306570Y02484468D01*
X03306492Y02484475D01*
D02*
G37*
G36*
X03305796Y02461890D02*
X03305655D01*
X03305521Y02461876D01*
X03305402Y02461855D01*
X03305282Y02461834D01*
X03305176Y02461798D01*
X03305078Y02461770D01*
X03304987Y02461735D01*
X03304902Y02461693D01*
X03304832Y02461658D01*
X03304768Y02461622D01*
X03304712Y02461587D01*
X03304670Y02461559D01*
X03304635Y02461531D01*
X03304607Y02461510D01*
X03304593Y02461503D01*
X03304585Y02461496D01*
X03304508Y02461418D01*
X03304438Y02461334D01*
X03304374Y02461257D01*
X03304325Y02461165D01*
X03304283Y02461081D01*
X03304248Y02460996D01*
X03304191Y02460842D01*
X03304170Y02460764D01*
X03304156Y02460701D01*
X03304149Y02460638D01*
X03304142Y02460581D01*
X03304135Y02460539D01*
Y02460483D01*
X03304142Y02460377D01*
X03304156Y02460279D01*
X03304178Y02460180D01*
X03304199Y02460089D01*
X03304269Y02459927D01*
X03304346Y02459786D01*
X03304388Y02459723D01*
X03304431Y02459667D01*
X03304466Y02459624D01*
X03304494Y02459582D01*
X03304522Y02459554D01*
X03304543Y02459533D01*
X03304557Y02459519D01*
X03304564Y02459512D01*
X03304649Y02459441D01*
X03304740Y02459378D01*
X03304832Y02459322D01*
X03304937Y02459280D01*
X03305141Y02459202D01*
X03305338Y02459153D01*
X03305430Y02459132D01*
X03305514Y02459118D01*
X03305592Y02459104D01*
X03305662Y02459097D01*
X03305718D01*
X03305760Y02459090D01*
X03305789D01*
X03305796D01*
Y02461890D01*
D02*
G37*
G36*
X03307843Y02446784D02*
X03307822D01*
X03307815D01*
X03307808D01*
X03307737Y02446777D01*
X03307667Y02446770D01*
X03307534Y02446728D01*
X03307421Y02446671D01*
X03307329Y02446601D01*
X03307252Y02446538D01*
X03307196Y02446481D01*
X03307161Y02446439D01*
X03307147Y02446432D01*
Y02446425D01*
X03307119Y02446376D01*
X03307090Y02446313D01*
X03307062Y02446242D01*
X03307027Y02446165D01*
X03306978Y02445996D01*
X03306928Y02445827D01*
X03306886Y02445672D01*
X03306865Y02445602D01*
X03306851Y02445539D01*
X03306837Y02445482D01*
X03306830Y02445447D01*
X03306823Y02445419D01*
Y02445412D01*
X03306795Y02445271D01*
X03306760Y02445138D01*
X03306731Y02445018D01*
X03306703Y02444905D01*
X03306682Y02444800D01*
X03306654Y02444708D01*
X03306633Y02444624D01*
X03306612Y02444547D01*
X03306598Y02444476D01*
X03306584Y02444420D01*
X03306570Y02444371D01*
X03306555Y02444335D01*
X03306548Y02444300D01*
X03306541Y02444279D01*
X03306534Y02444272D01*
Y02444265D01*
X03306907D01*
X03307027D01*
X03307140D01*
X03307245Y02444272D01*
X03307336Y02444279D01*
X03307421Y02444286D01*
X03307491D01*
X03307562Y02444293D01*
X03307618Y02444300D01*
X03307667Y02444307D01*
X03307709Y02444314D01*
X03307744Y02444321D01*
X03307773Y02444328D01*
X03307808Y02444335D01*
X03307822Y02444343D01*
X03307949Y02444392D01*
X03308068Y02444455D01*
X03308174Y02444525D01*
X03308265Y02444603D01*
X03308336Y02444673D01*
X03308392Y02444730D01*
X03308420Y02444772D01*
X03308434Y02444779D01*
Y02444786D01*
X03308490Y02444870D01*
X03308540Y02444962D01*
X03308624Y02445131D01*
X03308680Y02445292D01*
X03308723Y02445440D01*
X03308744Y02445567D01*
X03308758Y02445616D01*
Y02445665D01*
X03308765Y02445701D01*
Y02445750D01*
X03308751Y02445912D01*
X03308723Y02446059D01*
X03308673Y02446186D01*
X03308624Y02446292D01*
X03308575Y02446376D01*
X03308525Y02446439D01*
X03308497Y02446481D01*
X03308483Y02446496D01*
X03308371Y02446594D01*
X03308258Y02446664D01*
X03308146Y02446714D01*
X03308040Y02446749D01*
X03307949Y02446770D01*
X03307871Y02446777D01*
X03307843Y02446784D01*
D02*
G37*
G36*
X03305796Y02435421D02*
X03305655D01*
X03305521Y02435407D01*
X03305402Y02435386D01*
X03305282Y02435365D01*
X03305176Y02435330D01*
X03305078Y02435302D01*
X03304987Y02435266D01*
X03304902Y02435224D01*
X03304832Y02435189D01*
X03304768Y02435154D01*
X03304712Y02435119D01*
X03304670Y02435090D01*
X03304635Y02435062D01*
X03304607Y02435041D01*
X03304593Y02435034D01*
X03304586Y02435027D01*
X03304508Y02434950D01*
X03304438Y02434865D01*
X03304374Y02434788D01*
X03304325Y02434697D01*
X03304283Y02434612D01*
X03304248Y02434528D01*
X03304192Y02434373D01*
X03304171Y02434296D01*
X03304156Y02434232D01*
X03304149Y02434169D01*
X03304142Y02434113D01*
X03304135Y02434070D01*
Y02434014D01*
X03304142Y02433909D01*
X03304156Y02433810D01*
X03304178Y02433712D01*
X03304199Y02433620D01*
X03304269Y02433458D01*
X03304346Y02433318D01*
X03304388Y02433254D01*
X03304431Y02433198D01*
X03304466Y02433156D01*
X03304494Y02433113D01*
X03304522Y02433085D01*
X03304543Y02433064D01*
X03304557Y02433050D01*
X03304565Y02433043D01*
X03304649Y02432973D01*
X03304740Y02432909D01*
X03304832Y02432853D01*
X03304937Y02432811D01*
X03305141Y02432733D01*
X03305338Y02432684D01*
X03305430Y02432663D01*
X03305514Y02432649D01*
X03305592Y02432635D01*
X03305662Y02432628D01*
X03305718D01*
X03305760Y02432621D01*
X03305789D01*
X03305796D01*
Y02435421D01*
D02*
G37*
%LPD*%
G54D10*
X02698272Y02540857D02*
G03*
X02698272Y02540857I-00001250J00000000D01*
G01*
X02608772Y02642357D02*
G03*
X02608772Y02642357I-00001250J00000000D01*
G01*
X02698272Y02683357D02*
G03*
X02698272Y02683357I-00001250J00000000D01*
G01*
X02470842Y02500357D02*
G03*
X02470842Y02500357I-00001250J00000000D01*
G01*
X02838272Y02683357D02*
G03*
X02838272Y02683357I-00001250J00000000D01*
G01*
X02608422Y02500107D02*
G03*
X02608422Y02500107I-00001250J00000000D01*
G01*
G54D13*
X03385022Y03195357D02*
G03*
X03385022Y03195357I-00041500J00000000D01*
G01*
X02414022Y02289857D02*
G03*
X02414022Y02289857I-00041500J00000000D01*
G01*
X02060022Y03195357D02*
G03*
X02060022Y03195357I-00041500J00000000D01*
G01*
X03385022Y02803607D02*
G03*
X03385022Y02803607I-00041500J00000000D01*
G01*
X00735022Y03195357D02*
G03*
X00735022Y03195357I-00041500J00000000D01*
G01*
X01015022Y02405357D02*
G03*
X01015022Y02405357I-00041500J00000000D01*
G01*
X02485022Y01595357D02*
G03*
X02485022Y01595357I-00041500J00000000D01*
G01*
X02635022Y02867857D02*
G03*
X02635022Y02867857I-00041500J00000000D01*
G01*
X03385022Y01595357D02*
G03*
X03385022Y01595357I-00041500J00000000D01*
G01*
Y02395357D02*
G03*
X03385022Y02395357I-00041500J00000000D01*
G01*
X02811172Y02653357D02*
X02813772D01*
X02718272D02*
X02738517D01*
X02811172Y02532357D02*
X02813772D01*
X02718272D02*
X02738517D01*
X02490772Y02529857D02*
X02493372D01*
X02566027D02*
X02586272D01*
X02490772Y02650857D02*
X02493372D01*
X02566027D02*
X02586272D01*
X02811172Y02795857D02*
X02813772D01*
X02718272D02*
X02738517D01*
X02811172Y02674857D02*
X02813772D01*
X02718272D02*
X02738517D01*
X02352842Y02387857D02*
X02355442D01*
X02428097D02*
X02448342D01*
X02352842Y02508857D02*
X02355442D01*
X02428097D02*
X02448342D01*
X02858272Y02674857D02*
X02878517D01*
X02951172D02*
X02953772D01*
X02858272Y02795857D02*
X02878517D01*
X02951172D02*
X02953772D01*
X02565677Y02508607D02*
X02585922D01*
X02490422D02*
X02493022D01*
X02565677Y02387607D02*
X02585922D01*
X02490422D02*
X02493022D01*
G54D19*
X01038734Y00433739D02*
Y00588679D01*
X00412751D02*
X02089532D01*
X01360552Y00537032D02*
Y00588679D01*
X01573912Y00537032D02*
Y00588679D01*
X01731900Y00432088D02*
Y00483608D01*
X01429894Y00433739D02*
X02089532D01*
X00412751D02*
X00812928D01*
X00412624Y00537032D02*
X02089532D01*
X00412624Y00433739D02*
X01429894D01*
X00412624Y00485386D02*
X02089024D01*
X00412624Y00433739D02*
Y00588679D01*
X00412751Y00433739D02*
Y00588679D01*
X02089532Y00433739D02*
Y00588679D01*
G54D22*
X00633350Y00508589D02*
Y00503591D01*
X00635849D01*
X00636682Y00504424D01*
Y00505257D01*
X00635849Y00506090D01*
X00633350D01*
X00635849D01*
X00636682Y00506923D01*
Y00507756D01*
X00635849Y00508589D01*
X00633350D01*
X00639182Y00503591D02*
X00640848D01*
X00641681Y00504424D01*
Y00506090D01*
X00640848Y00506923D01*
X00639182D01*
X00638349Y00506090D01*
Y00504424D01*
X00639182Y00503591D01*
X00644180Y00507756D02*
Y00506923D01*
X00643347D01*
X00645013D01*
X00644180D01*
Y00504424D01*
X00645013Y00503591D01*
X00648345Y00507756D02*
Y00506923D01*
X00647512D01*
X00649178D01*
X00648345D01*
Y00504424D01*
X00649178Y00503591D01*
X00652511D02*
X00654177D01*
X00655010Y00504424D01*
Y00506090D01*
X00654177Y00506923D01*
X00652511D01*
X00651677Y00506090D01*
Y00504424D01*
X00652511Y00503591D01*
X00656676D02*
Y00506923D01*
X00657509D01*
X00658342Y00506090D01*
Y00503591D01*
Y00506090D01*
X00659175Y00506923D01*
X00660008Y00506090D01*
Y00503591D01*
X00669172Y00508589D02*
X00667506D01*
X00666673Y00507756D01*
Y00504424D01*
X00667506Y00503591D01*
X00669172D01*
X00670005Y00504424D01*
Y00507756D01*
X00669172Y00508589D01*
X00671671Y00506923D02*
X00673337Y00503591D01*
X00675003Y00506923D01*
X00679168Y00503591D02*
X00677502D01*
X00676669Y00504424D01*
Y00506090D01*
X00677502Y00506923D01*
X00679168D01*
X00680002Y00506090D01*
Y00505257D01*
X00676669D01*
X00681668Y00506923D02*
Y00503591D01*
Y00505257D01*
X00682501Y00506090D01*
X00683334Y00506923D01*
X00684167D01*
X00686666Y00503591D02*
X00688332D01*
X00687499D01*
Y00508589D01*
X00686666D01*
X00691665Y00506923D02*
X00693331D01*
X00694164Y00506090D01*
Y00503591D01*
X00691665D01*
X00690831Y00504424D01*
X00691665Y00505257D01*
X00694164D01*
X00695830Y00506923D02*
Y00504424D01*
X00696663Y00503591D01*
X00699162D01*
Y00502758D01*
X00698329Y00501925D01*
X00697496D01*
X00699162Y00503591D02*
Y00506923D01*
X00428753Y00555109D02*
Y00558441D01*
X00430419Y00560107D01*
X00432085Y00558441D01*
Y00555109D01*
Y00557608D01*
X00428753D01*
X00433751Y00560107D02*
Y00555109D01*
X00437084D01*
X00438750Y00560107D02*
Y00555109D01*
X00442082D01*
X00448747D02*
Y00558441D01*
X00450413Y00560107D01*
X00452079Y00558441D01*
Y00555109D01*
Y00557608D01*
X00448747D01*
X00453745Y00555109D02*
Y00560107D01*
X00456244D01*
X00457077Y00559274D01*
Y00557608D01*
X00456244Y00556775D01*
X00453745D01*
X00455411D02*
X00457077Y00555109D01*
X00458743Y00560107D02*
X00462076D01*
X00460410D01*
Y00555109D01*
X00463742Y00560107D02*
Y00555109D01*
X00465408Y00556775D01*
X00467074Y00555109D01*
Y00560107D01*
X00471239D02*
X00469573D01*
X00468740Y00559274D01*
Y00555942D01*
X00469573Y00555109D01*
X00471239D01*
X00472072Y00555942D01*
Y00559274D01*
X00471239Y00560107D01*
X00473738Y00555109D02*
Y00560107D01*
X00476238D01*
X00477071Y00559274D01*
Y00557608D01*
X00476238Y00556775D01*
X00473738D01*
X00475405D02*
X00477071Y00555109D01*
X00478737Y00560107D02*
Y00555109D01*
Y00556775D01*
X00482069Y00560107D01*
X00479570Y00557608D01*
X00482069Y00555109D01*
X00488733Y00560107D02*
Y00556775D01*
X00490400Y00555109D01*
X00492066Y00556775D01*
Y00560107D01*
X00493732D02*
X00495398D01*
X00494565D01*
Y00555109D01*
X00493732D01*
X00495398D01*
X00501230Y00560107D02*
X00497897D01*
Y00555109D01*
X00501230D01*
X00497897Y00557608D02*
X00499563D01*
X00502896Y00560107D02*
Y00555109D01*
X00504562Y00556775D01*
X00506228Y00555109D01*
Y00560107D01*
X00511226D02*
X00507894D01*
Y00555109D01*
X00511226D01*
X00507894Y00557608D02*
X00509560D01*
X00512892Y00560107D02*
Y00555109D01*
X00515392D01*
X00516225Y00555942D01*
Y00559274D01*
X00515392Y00560107D01*
X00512892D01*
X00526221D02*
X00522889D01*
Y00557608D01*
X00524555D01*
X00522889D01*
Y00555109D01*
X00527887D02*
Y00560107D01*
X00530387D01*
X00531220Y00559274D01*
Y00557608D01*
X00530387Y00556775D01*
X00527887D01*
X00529553D02*
X00531220Y00555109D01*
X00535385Y00560107D02*
X00533719D01*
X00532886Y00559274D01*
Y00555942D01*
X00533719Y00555109D01*
X00535385D01*
X00536218Y00555942D01*
Y00559274D01*
X00535385Y00560107D01*
X00537884Y00555109D02*
Y00560107D01*
X00539550Y00558441D01*
X00541216Y00560107D01*
Y00555109D01*
X00547881Y00560107D02*
X00551213D01*
X00549547D01*
Y00555109D01*
X00555378Y00560107D02*
X00553712D01*
X00552879Y00559274D01*
Y00555942D01*
X00553712Y00555109D01*
X00555378D01*
X00556212Y00555942D01*
Y00559274D01*
X00555378Y00560107D01*
X00557878Y00555109D02*
Y00560107D01*
X00560377D01*
X00561210Y00559274D01*
Y00557608D01*
X00560377Y00556775D01*
X00557878D01*
X00571207Y00559274D02*
X00570373Y00560107D01*
X00568707D01*
X00567874Y00559274D01*
Y00558441D01*
X00568707Y00557608D01*
X00570373D01*
X00571207Y00556775D01*
Y00555942D01*
X00570373Y00555109D01*
X00568707D01*
X00567874Y00555942D01*
X00572873Y00560107D02*
X00574539D01*
X00573706D01*
Y00555109D01*
X00572873D01*
X00574539D01*
X00577038Y00560107D02*
Y00555109D01*
X00579537D01*
X00580370Y00555942D01*
Y00559274D01*
X00579537Y00560107D01*
X00577038D01*
X00585369D02*
X00582036D01*
Y00555109D01*
X00585369D01*
X00582036Y00557608D02*
X00583703D01*
X00428753Y00451307D02*
Y00456305D01*
X00431252D01*
X00432085Y00455472D01*
Y00453806D01*
X00431252Y00452973D01*
X00428753D01*
X00433751Y00456305D02*
Y00451307D01*
X00437084D01*
X00441249Y00456305D02*
X00439583D01*
X00438750Y00455472D01*
Y00452140D01*
X00439583Y00451307D01*
X00441249D01*
X00442082Y00452140D01*
Y00455472D01*
X00441249Y00456305D01*
X00443748D02*
X00447080D01*
X00445414D01*
Y00451307D01*
X00453745D02*
Y00456305D01*
X00457077Y00451307D01*
Y00456305D01*
X00458743Y00451307D02*
Y00454639D01*
X00460410Y00456305D01*
X00462076Y00454639D01*
Y00451307D01*
Y00453806D01*
X00458743D01*
X00463742Y00451307D02*
Y00456305D01*
X00465408Y00454639D01*
X00467074Y00456305D01*
Y00451307D01*
X00472072Y00456305D02*
X00468740D01*
Y00451307D01*
X00472072D01*
X00468740Y00453806D02*
X00470406D01*
X00478737Y00452973D02*
X00482069D01*
X00478737Y00454639D02*
X00482069D01*
X00428753Y00508589D02*
Y00503591D01*
X00432085D01*
X00433751D02*
Y00506923D01*
X00435418Y00508589D01*
X00437084Y00506923D01*
Y00503591D01*
Y00506090D01*
X00433751D01*
X00438750Y00508589D02*
Y00507756D01*
X00440416Y00506090D01*
X00442082Y00507756D01*
Y00508589D01*
X00440416Y00506090D02*
Y00503591D01*
X00447080Y00508589D02*
X00443748D01*
Y00503591D01*
X00447080D01*
X00443748Y00506090D02*
X00445414D01*
X00448747Y00503591D02*
Y00508589D01*
X00451246D01*
X00452079Y00507756D01*
Y00506090D01*
X00451246Y00505257D01*
X00448747D01*
X00450413D02*
X00452079Y00503591D01*
X00458743D02*
Y00508589D01*
X00462076Y00503591D01*
Y00508589D01*
X00463742Y00503591D02*
Y00506923D01*
X00465408Y00508589D01*
X00467074Y00506923D01*
Y00503591D01*
Y00506090D01*
X00463742D01*
X00468740Y00503591D02*
Y00508589D01*
X00470406Y00506923D01*
X00472072Y00508589D01*
Y00503591D01*
X00477071Y00508589D02*
X00473738D01*
Y00503591D01*
X00477071D01*
X00473738Y00506090D02*
X00475405D01*
X00483735Y00505257D02*
X00487067D01*
X00483735Y00506923D02*
X00487067D01*
X01057784Y00560107D02*
Y00555109D01*
X01060283D01*
X01061116Y00555942D01*
Y00556775D01*
X01060283Y00557608D01*
X01057784D01*
X01060283D01*
X01061116Y00558441D01*
Y00559274D01*
X01060283Y00560107D01*
X01057784D01*
X01065282D02*
X01063616D01*
X01062783Y00559274D01*
Y00555942D01*
X01063616Y00555109D01*
X01065282D01*
X01066115Y00555942D01*
Y00559274D01*
X01065282Y00560107D01*
X01067781Y00555109D02*
Y00558441D01*
X01069447Y00560107D01*
X01071113Y00558441D01*
Y00555109D01*
Y00557608D01*
X01067781D01*
X01072779Y00555109D02*
Y00560107D01*
X01075278D01*
X01076112Y00559274D01*
Y00557608D01*
X01075278Y00556775D01*
X01072779D01*
X01074445D02*
X01076112Y00555109D01*
X01077778Y00560107D02*
Y00555109D01*
X01080277D01*
X01081110Y00555942D01*
Y00559274D01*
X01080277Y00560107D01*
X01077778D01*
X01088607Y00555109D02*
Y00560107D01*
X01090274D02*
Y00555109D01*
X01087774Y00558441D02*
X01090274D01*
X01091107D01*
X01087774Y00556775D02*
X01091107D01*
X01092773Y00558441D02*
X01093606D01*
Y00557608D01*
X01092773D01*
Y00558441D01*
Y00555942D02*
X01093606D01*
Y00555109D01*
X01092773D01*
Y00555942D01*
X00633350Y00456305D02*
X00636682D01*
X00635016D01*
Y00451307D01*
X00638349Y00456305D02*
X00640015D01*
X00639182D01*
Y00451307D01*
X00638349D01*
X00640015D01*
X00642514Y00456305D02*
Y00451307D01*
X00645013D01*
X00645846Y00452140D01*
Y00455472D01*
X00645013Y00456305D01*
X00642514D01*
X00647512Y00451307D02*
Y00454639D01*
X00649178Y00456305D01*
X00650844Y00454639D01*
Y00451307D01*
Y00453806D01*
X00647512D01*
X00652511D02*
X00655843D01*
X00657509Y00455472D02*
X00658342Y00456305D01*
X00660008D01*
X00660841Y00455472D01*
Y00452140D01*
X00660008Y00451307D01*
X00658342D01*
X00657509Y00452140D01*
Y00455472D01*
X00662507Y00451307D02*
X00664173D01*
X00663340D01*
Y00456305D01*
X00662507Y00455472D01*
X00666673D02*
X00667506Y00456305D01*
X00669172D01*
X00670005Y00455472D01*
Y00452140D01*
X00669172Y00451307D01*
X00667506D01*
X00666673Y00452140D01*
Y00455472D01*
X00671671Y00452140D02*
X00672504Y00451307D01*
X00674170D01*
X00675003Y00452140D01*
Y00455472D01*
X00674170Y00456305D01*
X00672504D01*
X00671671Y00455472D01*
Y00454639D01*
X00672504Y00453806D01*
X00675003D01*
X00676669Y00455472D02*
X00677502Y00456305D01*
X00679168D01*
X00680002Y00455472D01*
Y00454639D01*
X00679168Y00453806D01*
X00678335D01*
X00679168D01*
X00680002Y00452973D01*
Y00452140D01*
X00679168Y00451307D01*
X00677502D01*
X00676669Y00452140D01*
X00681668Y00455472D02*
X00682501Y00456305D01*
X00684167D01*
X00685000Y00455472D01*
Y00454639D01*
X00684167Y00453806D01*
X00685000Y00452973D01*
Y00452140D01*
X00684167Y00451307D01*
X00682501D01*
X00681668Y00452140D01*
Y00452973D01*
X00682501Y00453806D01*
X00681668Y00454639D01*
Y00455472D01*
X00682501Y00453806D02*
X00684167D01*
X00691665Y00451307D02*
Y00454639D01*
X00693331Y00456305D01*
X00694997Y00454639D01*
Y00451307D01*
Y00453806D01*
X00691665D01*
X00699995Y00455472D02*
X00699162Y00456305D01*
X00697496D01*
X00696663Y00455472D01*
Y00452140D01*
X00697496Y00451307D01*
X00699162D01*
X00699995Y00452140D01*
X00701661Y00453806D02*
X00704993D01*
X00706659Y00456305D02*
Y00451307D01*
X00709159D01*
X00709992Y00452140D01*
Y00455472D01*
X00709159Y00456305D01*
X00706659D01*
X00714990Y00455472D02*
X00714157Y00456305D01*
X00712491D01*
X00711658Y00455472D01*
Y00452140D01*
X00712491Y00451307D01*
X00714157D01*
X00714990Y00452140D01*
X00719988Y00456305D02*
X00716656D01*
Y00451307D01*
X00719988D01*
X00716656Y00453806D02*
X00718322D01*
X00721655Y00451307D02*
X00723321D01*
X00722488D01*
Y00456305D01*
X00721655Y00455472D01*
X00725820Y00451307D02*
Y00452140D01*
X00726653D01*
Y00451307D01*
X00725820D01*
X00733317Y00455472D02*
X00732485Y00456305D01*
X00730818D01*
X00729985Y00455472D01*
Y00452140D01*
X00730818Y00451307D01*
X00732485D01*
X00733317Y00452140D01*
Y00453806D01*
X00731651D01*
X00734984Y00456305D02*
Y00451307D01*
X00737483D01*
X00738316Y00452140D01*
Y00452973D01*
X00737483Y00453806D01*
X00734984D01*
X00737483D01*
X00738316Y00454639D01*
Y00455472D01*
X00737483Y00456305D01*
X00734984D01*
X00742481D02*
X00740815D01*
X00739982Y00455472D01*
Y00452140D01*
X00740815Y00451307D01*
X00742481D01*
X00743314Y00452140D01*
Y00455472D01*
X00742481Y00456305D01*
X01752220Y00555109D02*
Y00560107D01*
X01755552Y00555109D01*
Y00560107D01*
X01758052Y00555109D02*
X01759718D01*
X01760551Y00555942D01*
Y00557608D01*
X01759718Y00558441D01*
X01758052D01*
X01757218Y00557608D01*
Y00555942D01*
X01758052Y00555109D01*
X01763050Y00559274D02*
Y00558441D01*
X01762217D01*
X01763883D01*
X01763050D01*
Y00555942D01*
X01763883Y00555109D01*
X01771381D02*
X01773047D01*
X01772214D01*
Y00558441D01*
X01771381D01*
X01775546Y00555109D02*
Y00558441D01*
X01778045D01*
X01778878Y00557608D01*
Y00555109D01*
X01785543Y00558441D02*
X01787209Y00555109D01*
X01788875Y00558441D01*
X01793040Y00555109D02*
X01791374D01*
X01790541Y00555942D01*
Y00557608D01*
X01791374Y00558441D01*
X01793040D01*
X01793873Y00557608D01*
Y00556775D01*
X01790541D01*
X01795539Y00558441D02*
Y00555109D01*
Y00556775D01*
X01796372Y00557608D01*
X01797206Y00558441D01*
X01798038D01*
X01800538Y00555109D02*
X01803037D01*
X01803870Y00555942D01*
X01803037Y00556775D01*
X01801371D01*
X01800538Y00557608D01*
X01801371Y00558441D01*
X01803870D01*
X01805536Y00555109D02*
X01807202D01*
X01806369D01*
Y00558441D01*
X01805536D01*
X01810535Y00555109D02*
X01812201D01*
X01813034Y00555942D01*
Y00557608D01*
X01812201Y00558441D01*
X01810535D01*
X01809701Y00557608D01*
Y00555942D01*
X01810535Y00555109D01*
X01814700D02*
Y00558441D01*
X01817199D01*
X01818032Y00557608D01*
Y00555109D01*
X01828029Y00558441D02*
X01825530D01*
X01824697Y00557608D01*
Y00555942D01*
X01825530Y00555109D01*
X01828029D01*
X01830528D02*
X01832194D01*
X01833027Y00555942D01*
Y00557608D01*
X01832194Y00558441D01*
X01830528D01*
X01829695Y00557608D01*
Y00555942D01*
X01830528Y00555109D01*
X01834693D02*
Y00558441D01*
X01837192D01*
X01838026Y00557608D01*
Y00555109D01*
X01840525Y00559274D02*
Y00558441D01*
X01839692D01*
X01841358D01*
X01840525D01*
Y00555942D01*
X01841358Y00555109D01*
X01843857Y00558441D02*
Y00555109D01*
Y00556775D01*
X01844690Y00557608D01*
X01845523Y00558441D01*
X01846356D01*
X01849688Y00555109D02*
X01851355D01*
X01852188Y00555942D01*
Y00557608D01*
X01851355Y00558441D01*
X01849688D01*
X01848855Y00557608D01*
Y00555942D01*
X01849688Y00555109D01*
X01853854D02*
X01855520D01*
X01854687D01*
Y00560107D01*
X01853854D01*
X01410844Y00555109D02*
Y00560107D01*
X01413343D01*
X01414176Y00559274D01*
Y00557608D01*
X01413343Y00556775D01*
X01410844D01*
X01412510D02*
X01414176Y00555109D01*
X01419175Y00560107D02*
X01415842D01*
Y00555109D01*
X01419175D01*
X01415842Y00557608D02*
X01417509D01*
X01420841Y00560107D02*
Y00556775D01*
X01422507Y00555109D01*
X01424173Y00556775D01*
Y00560107D01*
X01425839Y00558441D02*
X01426672D01*
Y00557608D01*
X01425839D01*
Y00558441D01*
Y00555942D02*
X01426672D01*
Y00555109D01*
X01425839D01*
Y00555942D01*
X01488217Y00560107D02*
X01484885D01*
Y00555109D01*
X01488217D01*
X01484885Y00557608D02*
X01486551D01*
X01489884Y00555109D02*
X01491550D01*
X01490717D01*
Y00560107D01*
X01489884Y00559274D01*
X01627028D02*
X01626195Y00560107D01*
X01624529D01*
X01623696Y00559274D01*
Y00558441D01*
X01624529Y00557608D01*
X01626195D01*
X01627028Y00556775D01*
Y00555942D01*
X01626195Y00555109D01*
X01624529D01*
X01623696Y00555942D01*
X01628694Y00560107D02*
Y00556775D01*
X01630361Y00555109D01*
X01632027Y00556775D01*
Y00560107D01*
X01633693Y00555109D02*
Y00560107D01*
X01637025Y00555109D01*
Y00560107D01*
X01643690Y00555109D02*
Y00560107D01*
X01646189D01*
X01647022Y00559274D01*
Y00557608D01*
X01646189Y00556775D01*
X01643690D01*
X01645356D02*
X01647022Y00555109D01*
X01652020Y00560107D02*
X01648688D01*
Y00555109D01*
X01652020D01*
X01648688Y00557608D02*
X01650354D01*
X01653686Y00560107D02*
Y00556775D01*
X01655352Y00555109D01*
X01657019Y00556775D01*
Y00560107D01*
X01658685Y00558441D02*
X01659518D01*
Y00557608D01*
X01658685D01*
Y00558441D01*
Y00555942D02*
X01659518D01*
Y00555109D01*
X01658685D01*
Y00555942D01*
X01785494Y00456305D02*
X01788826D01*
X01787160D01*
Y00451307D01*
X01793825Y00456305D02*
X01790493D01*
Y00451307D01*
X01793825D01*
X01790493Y00453806D02*
X01792159D01*
X01795491Y00456305D02*
X01798823Y00451307D01*
Y00456305D02*
X01795491Y00451307D01*
X01800489D02*
Y00454639D01*
X01802155Y00456305D01*
X01803822Y00454639D01*
Y00451307D01*
Y00453806D01*
X01800489D01*
X01808820Y00455472D02*
X01807987Y00456305D01*
X01806321D01*
X01805488Y00455472D01*
Y00454639D01*
X01806321Y00453806D01*
X01807987D01*
X01808820Y00452973D01*
Y00452140D01*
X01807987Y00451307D01*
X01806321D01*
X01805488Y00452140D01*
X01815484Y00456305D02*
X01817151D01*
X01816317D01*
Y00451307D01*
X01815484D01*
X01817151D01*
X01819650D02*
Y00456305D01*
X01822982Y00451307D01*
Y00456305D01*
X01827980Y00455472D02*
X01827147Y00456305D01*
X01825481D01*
X01824648Y00455472D01*
Y00454639D01*
X01825481Y00453806D01*
X01827147D01*
X01827980Y00452973D01*
Y00452140D01*
X01827147Y00451307D01*
X01825481D01*
X01824648Y00452140D01*
X01829646Y00456305D02*
X01832979D01*
X01831313D01*
Y00451307D01*
X01834645D02*
Y00456305D01*
X01837144D01*
X01837977Y00455472D01*
Y00453806D01*
X01837144Y00452973D01*
X01834645D01*
X01836311D02*
X01837977Y00451307D01*
X01839643Y00456305D02*
Y00452140D01*
X01840476Y00451307D01*
X01842142D01*
X01842975Y00452140D01*
Y00456305D01*
X01844642Y00451307D02*
Y00456305D01*
X01846308Y00454639D01*
X01847974Y00456305D01*
Y00451307D01*
X01852972Y00456305D02*
X01849640D01*
Y00451307D01*
X01852972D01*
X01849640Y00453806D02*
X01851306D01*
X01854638Y00451307D02*
Y00456305D01*
X01857970Y00451307D01*
Y00456305D01*
X01859637D02*
X01862969D01*
X01861303D01*
Y00451307D01*
X01867967Y00455472D02*
X01867134Y00456305D01*
X01865468D01*
X01864635Y00455472D01*
Y00454639D01*
X01865468Y00453806D01*
X01867134D01*
X01867967Y00452973D01*
Y00452140D01*
X01867134Y00451307D01*
X01865468D01*
X01864635Y00452140D01*
X01196341Y00560107D02*
X01199673D01*
X01198007D01*
Y00555109D01*
X01201339Y00560107D02*
X01203006D01*
X01202173D01*
Y00555109D01*
X01201339D01*
X01203006D01*
X01205505Y00560107D02*
Y00555109D01*
X01208004D01*
X01208837Y00555942D01*
Y00559274D01*
X01208004Y00560107D01*
X01205505D01*
X01210503Y00555109D02*
Y00558441D01*
X01212169Y00560107D01*
X01213836Y00558441D01*
Y00555109D01*
Y00557608D01*
X01210503D01*
X01215502D02*
X01218834D01*
X01220500Y00559274D02*
X01221333Y00560107D01*
X01222999D01*
X01223832Y00559274D01*
Y00555942D01*
X01222999Y00555109D01*
X01221333D01*
X01220500Y00555942D01*
Y00559274D01*
X01225498Y00555109D02*
X01227164D01*
X01226331D01*
Y00560107D01*
X01225498Y00559274D01*
X01229664D02*
X01230497Y00560107D01*
X01232163D01*
X01232996Y00559274D01*
Y00555942D01*
X01232163Y00555109D01*
X01230497D01*
X01229664Y00555942D01*
Y00559274D01*
X01234662Y00555942D02*
X01235495Y00555109D01*
X01237161D01*
X01237994Y00555942D01*
Y00559274D01*
X01237161Y00560107D01*
X01235495D01*
X01234662Y00559274D01*
Y00558441D01*
X01235495Y00557608D01*
X01237994D01*
X01239660Y00559274D02*
X01240493Y00560107D01*
X01242160D01*
X01242993Y00559274D01*
Y00558441D01*
X01242160Y00557608D01*
X01241327D01*
X01242160D01*
X01242993Y00556775D01*
Y00555942D01*
X01242160Y00555109D01*
X01240493D01*
X01239660Y00555942D01*
X01244659Y00559274D02*
X01245492Y00560107D01*
X01247158D01*
X01247991Y00559274D01*
Y00558441D01*
X01247158Y00557608D01*
X01247991Y00556775D01*
Y00555942D01*
X01247158Y00555109D01*
X01245492D01*
X01244659Y00555942D01*
Y00556775D01*
X01245492Y00557608D01*
X01244659Y00558441D01*
Y00559274D01*
X01245492Y00557608D02*
X01247158D01*
X01254656Y00555109D02*
Y00558441D01*
X01256322Y00560107D01*
X01257988Y00558441D01*
Y00555109D01*
Y00557608D01*
X01254656D01*
X01262986Y00559274D02*
X01262153Y00560107D01*
X01260487D01*
X01259654Y00559274D01*
Y00555942D01*
X01260487Y00555109D01*
X01262153D01*
X01262986Y00555942D01*
X01264652Y00557608D02*
X01267984D01*
X01269650Y00560107D02*
Y00555109D01*
X01272150D01*
X01272983Y00555942D01*
Y00559274D01*
X01272150Y00560107D01*
X01269650D01*
X01277981Y00559274D02*
X01277148Y00560107D01*
X01275482D01*
X01274649Y00559274D01*
Y00555942D01*
X01275482Y00555109D01*
X01277148D01*
X01277981Y00555942D01*
X01057784Y00508460D02*
X01061116D01*
X01059450D01*
Y00503462D01*
X01062783Y00508460D02*
X01064449D01*
X01063616D01*
Y00503462D01*
X01062783D01*
X01064449D01*
X01066948Y00508460D02*
Y00503462D01*
X01069447D01*
X01070280Y00504295D01*
Y00507627D01*
X01069447Y00508460D01*
X01066948D01*
X01077778Y00503462D02*
Y00508460D01*
X01079444D02*
Y00503462D01*
X01076945Y00506794D02*
X01079444D01*
X01080277D01*
X01076945Y00505128D02*
X01080277D01*
X01081943Y00506794D02*
X01082776D01*
Y00505961D01*
X01081943D01*
Y00506794D01*
Y00504295D02*
X01082776D01*
Y00503462D01*
X01081943D01*
Y00504295D01*
X01061624Y00455472D02*
X01060791Y00456305D01*
X01059125D01*
X01058292Y00455472D01*
Y00452140D01*
X01059125Y00451307D01*
X01060791D01*
X01061624Y00452140D01*
Y00453806D01*
X01059958D01*
X01066623Y00456305D02*
X01063290D01*
Y00451307D01*
X01066623D01*
X01063290Y00453806D02*
X01064957D01*
X01068289Y00451307D02*
Y00456305D01*
X01071621Y00451307D01*
Y00456305D01*
X01076619D02*
X01073287D01*
Y00451307D01*
X01076619D01*
X01073287Y00453806D02*
X01074953D01*
X01078286Y00451307D02*
Y00456305D01*
X01080785D01*
X01081618Y00455472D01*
Y00453806D01*
X01080785Y00452973D01*
X01078286D01*
X01079952D02*
X01081618Y00451307D01*
X01083284D02*
Y00454639D01*
X01084950Y00456305D01*
X01086616Y00454639D01*
Y00451307D01*
Y00453806D01*
X01083284D01*
X01088282Y00456305D02*
X01091615D01*
X01089949D01*
Y00451307D01*
X01096613Y00456305D02*
X01093281D01*
Y00451307D01*
X01096613D01*
X01093281Y00453806D02*
X01094947D01*
X01098279Y00456305D02*
Y00451307D01*
X01100778D01*
X01101611Y00452140D01*
Y00455472D01*
X01100778Y00456305D01*
X01098279D01*
X01123271Y00454639D02*
X01124104D01*
Y00453806D01*
X01123271D01*
Y00454639D01*
Y00452140D02*
X01124104D01*
Y00451307D01*
X01123271D01*
Y00452140D01*
X01464311Y00451307D02*
X01465977D01*
X01465144D01*
Y00456305D01*
X01464311Y00455472D01*
X01468477D02*
X01469310Y00456305D01*
X01470976D01*
X01471809Y00455472D01*
Y00452140D01*
X01470976Y00451307D01*
X01469310D01*
X01468477Y00452140D01*
Y00455472D01*
X01473475Y00454639D02*
X01474308D01*
Y00453806D01*
X01473475D01*
Y00454639D01*
Y00452140D02*
X01474308D01*
Y00451307D01*
X01473475D01*
Y00452140D01*
X01477640Y00451307D02*
X01479306D01*
X01478473D01*
Y00456305D01*
X01477640Y00455472D01*
X01484305Y00451307D02*
Y00456305D01*
X01481806Y00453806D01*
X01485138D01*
X01486804Y00454639D02*
X01487637D01*
Y00453806D01*
X01486804D01*
Y00454639D01*
Y00452140D02*
X01487637D01*
Y00451307D01*
X01486804D01*
Y00452140D01*
X01494301Y00456305D02*
X01490969D01*
Y00453806D01*
X01492635Y00454639D01*
X01493468D01*
X01494301Y00453806D01*
Y00452140D01*
X01493468Y00451307D01*
X01491802D01*
X01490969Y00452140D01*
X01498467Y00451307D02*
Y00456305D01*
X01495968Y00453806D01*
X01499300D01*
X01505964Y00451307D02*
Y00454639D01*
X01507630Y00456305D01*
X01509297Y00454639D01*
Y00451307D01*
Y00453806D01*
X01505964D01*
X01510963Y00451307D02*
Y00456305D01*
X01512629Y00454639D01*
X01514295Y00456305D01*
Y00451307D01*
X01196341Y00503462D02*
Y00506794D01*
X01198007Y00508460D01*
X01199673Y00506794D01*
Y00503462D01*
Y00505961D01*
X01196341D01*
X01201339Y00507627D02*
X01202173Y00508460D01*
X01203839D01*
X01204672Y00507627D01*
Y00504295D01*
X01203839Y00503462D01*
X01202173D01*
X01201339Y00504295D01*
Y00507627D01*
X01208837Y00503462D02*
Y00508460D01*
X01206338Y00505961D01*
X01209670D01*
X01211336Y00504295D02*
X01212169Y00503462D01*
X01213835D01*
X01214669Y00504295D01*
Y00507627D01*
X01213835Y00508460D01*
X01212169D01*
X01211336Y00507627D01*
Y00506794D01*
X01212169Y00505961D01*
X01214669D01*
X01216335Y00507627D02*
X01217168Y00508460D01*
X01218834D01*
X01219667Y00507627D01*
Y00506794D01*
X01218834Y00505961D01*
X01219667Y00505128D01*
Y00504295D01*
X01218834Y00503462D01*
X01217168D01*
X01216335Y00504295D01*
Y00505128D01*
X01217168Y00505961D01*
X01216335Y00506794D01*
Y00507627D01*
X01217168Y00505961D02*
X01218834D01*
X01221333Y00503462D02*
X01222999D01*
X01222166D01*
Y00508460D01*
X01221333Y00507627D01*
X01225498Y00508460D02*
X01228831D01*
Y00507627D01*
X01225498Y00504295D01*
Y00503462D01*
X01233829Y00508460D02*
X01232163Y00507627D01*
X01230497Y00505961D01*
Y00504295D01*
X01231330Y00503462D01*
X01232996D01*
X01233829Y00504295D01*
Y00505128D01*
X01232996Y00505961D01*
X01230497D01*
X01279145Y00451307D02*
X01280811D01*
X01279978D01*
Y00456305D01*
X01279145Y00455472D01*
X01286643Y00451307D02*
X01283311D01*
X01286643Y00454639D01*
Y00455472D01*
X01285810Y00456305D01*
X01284144D01*
X01283311Y00455472D01*
X01288309Y00451307D02*
X01291641Y00454639D01*
X01293307Y00455472D02*
X01294140Y00456305D01*
X01295806D01*
X01296640Y00455472D01*
Y00454639D01*
X01295806Y00453806D01*
X01294973D01*
X01295806D01*
X01296640Y00452973D01*
Y00452140D01*
X01295806Y00451307D01*
X01294140D01*
X01293307Y00452140D01*
X01298306Y00451307D02*
X01301638Y00454639D01*
X01306636Y00451307D02*
X01303304D01*
X01306636Y00454639D01*
Y00455472D01*
X01305803Y00456305D01*
X01304137D01*
X01303304Y00455472D01*
X01308302D02*
X01309135Y00456305D01*
X01310802D01*
X01311635Y00455472D01*
Y00452140D01*
X01310802Y00451307D01*
X01309135D01*
X01308302Y00452140D01*
Y00455472D01*
X01316633Y00451307D02*
X01313301D01*
X01316633Y00454639D01*
Y00455472D01*
X01315800Y00456305D01*
X01314134D01*
X01313301Y00455472D01*
X01318299D02*
X01319132Y00456305D01*
X01320798D01*
X01321631Y00455472D01*
Y00454639D01*
X01320798Y00453806D01*
X01319965D01*
X01320798D01*
X01321631Y00452973D01*
Y00452140D01*
X01320798Y00451307D01*
X01319132D01*
X01318299Y00452140D01*
G54D24*
X02696045Y02513485D02*
Y02520891D01*
X02697526Y02522372D01*
X02700489D01*
X02701970Y02520891D01*
Y02513485D01*
X02704932Y02522372D02*
X02707895D01*
X02706413D01*
Y02513485D01*
X02704932Y02514966D01*
X02712338Y02522372D02*
X02715300D01*
X02713819D01*
Y02513485D01*
X02712338Y02514966D01*
X01009705Y02455561D02*
Y02460560D01*
X01008039Y02458894D01*
X01006373Y02460560D01*
Y02455561D01*
X01004707D02*
Y02460560D01*
X01002208D01*
X01001375Y02459727D01*
Y02458061D01*
X01002208Y02457227D01*
X01004707D01*
X00999709Y02455561D02*
X00998043D01*
X00998876D01*
Y02460560D01*
X00999709Y02459727D01*
X00992211Y02455561D02*
X00995543D01*
X00992211Y02458894D01*
Y02459727D01*
X00993044Y02460560D01*
X00994710D01*
X00995543Y02459727D01*
X02479706Y01645561D02*
Y01650560D01*
X02478039Y01648894D01*
X02476373Y01650560D01*
Y01645561D01*
X02474707D02*
Y01650560D01*
X02472208D01*
X02471375Y01649727D01*
Y01648061D01*
X02472208Y01647227D01*
X02474707D01*
X02469709Y01645561D02*
X02468043D01*
X02468876D01*
Y01650560D01*
X02469709Y01649727D01*
X02465543D02*
X02464710Y01650560D01*
X02463044D01*
X02462211Y01649727D01*
Y01646395D01*
X02463044Y01645561D01*
X02464710D01*
X02465543Y01646395D01*
Y01649727D01*
X03384186Y03234858D02*
Y03239856D01*
X03382520Y03238190D01*
X03380854Y03239856D01*
Y03234858D01*
X03379188D02*
Y03239856D01*
X03376689D01*
X03375856Y03239023D01*
Y03237357D01*
X03376689Y03236524D01*
X03379188D01*
X03374190Y03235691D02*
X03373357Y03234858D01*
X03371691D01*
X03370858Y03235691D01*
Y03239023D01*
X03371691Y03239856D01*
X03373357D01*
X03374190Y03239023D01*
Y03238190D01*
X03373357Y03237357D01*
X03370858D01*
X02409797Y02340061D02*
Y02345060D01*
X02408131Y02343394D01*
X02406465Y02345060D01*
Y02340061D01*
X02404798D02*
Y02345060D01*
X02402299D01*
X02401466Y02344227D01*
Y02342561D01*
X02402299Y02341727D01*
X02404798D01*
X02399800Y02344227D02*
X02398967Y02345060D01*
X02397301D01*
X02396468Y02344227D01*
Y02343394D01*
X02397301Y02342561D01*
X02396468Y02341727D01*
Y02340894D01*
X02397301Y02340061D01*
X02398967D01*
X02399800Y02340894D01*
Y02341727D01*
X02398967Y02342561D01*
X02399800Y02343394D01*
Y02344227D01*
X02398967Y02342561D02*
X02397301D01*
X03380797Y02445561D02*
Y02450560D01*
X03379131Y02448894D01*
X03377465Y02450560D01*
Y02445561D01*
X03375798D02*
Y02450560D01*
X03373299D01*
X03372466Y02449727D01*
Y02448061D01*
X03373299Y02447227D01*
X03375798D01*
X03370800Y02450560D02*
X03367468D01*
Y02449727D01*
X03370800Y02446395D01*
Y02445561D01*
X03375186Y02752858D02*
Y02757856D01*
X03373521Y02756190D01*
X03371854Y02757856D01*
Y02752858D01*
X03370188D02*
Y02757856D01*
X03367689D01*
X03366856Y02757023D01*
Y02755357D01*
X03367689Y02754524D01*
X03370188D01*
X03361858Y02757856D02*
X03363524Y02757023D01*
X03365190Y02755357D01*
Y02753691D01*
X03364357Y02752858D01*
X03362691D01*
X03361858Y02753691D01*
Y02754524D01*
X03362691Y02755357D01*
X03365190D01*
X03375186Y01646858D02*
Y01651856D01*
X03373520Y01650190D01*
X03371854Y01651856D01*
Y01646858D01*
X03370188D02*
Y01651856D01*
X03367689D01*
X03366856Y01651023D01*
Y01649357D01*
X03367689Y01648524D01*
X03370188D01*
X03361858Y01651856D02*
X03365190D01*
Y01649357D01*
X03363524Y01650190D01*
X03362690D01*
X03361858Y01649357D01*
Y01647691D01*
X03362690Y01646858D01*
X03364357D01*
X03365190Y01647691D01*
X02652187Y02895858D02*
Y02900856D01*
X02650520Y02899190D01*
X02648854Y02900856D01*
Y02895858D01*
X02647188D02*
Y02900856D01*
X02644689D01*
X02643856Y02900023D01*
Y02898357D01*
X02644689Y02897524D01*
X02647188D01*
X02642190Y02900023D02*
X02641357Y02900856D01*
X02639691D01*
X02638857Y02900023D01*
Y02899190D01*
X02639691Y02898357D01*
X02640524D01*
X02639691D01*
X02638857Y02897524D01*
Y02896691D01*
X02639691Y02895858D01*
X02641357D01*
X02642190Y02896691D01*
X02055797Y03245562D02*
Y03250560D01*
X02054131Y03248894D01*
X02052464Y03250560D01*
Y03245562D01*
X02050798D02*
Y03250560D01*
X02048299D01*
X02047466Y03249727D01*
Y03248061D01*
X02048299Y03247227D01*
X02050798D01*
X02042468Y03245562D02*
X02045800D01*
X02042468Y03248894D01*
Y03249727D01*
X02043301Y03250560D01*
X02044967D01*
X02045800Y03249727D01*
X00667353Y03240858D02*
Y03245856D01*
X00665687Y03244190D01*
X00664021Y03245856D01*
Y03240858D01*
X00662355D02*
Y03245856D01*
X00659856D01*
X00659023Y03245023D01*
Y03243357D01*
X00659856Y03242524D01*
X00662355D01*
X00657357Y03240858D02*
X00655691D01*
X00656524D01*
Y03245856D01*
X00657357Y03245023D01*
X03249877Y02839064D02*
X03253210D01*
Y02836565D01*
X03251543D01*
X03253210D01*
Y02834066D01*
X03248211Y02839064D02*
X03246545D01*
X03247378D01*
Y02834066D01*
X03248211D01*
X03246545D01*
X03244046Y02839064D02*
Y02834066D01*
X03241547D01*
X03240714Y02834898D01*
Y02838231D01*
X03241547Y02839064D01*
X03244046D01*
X03236548Y02834066D02*
Y02839064D01*
X03239048Y02836565D01*
X03235715D01*
X02999877Y03233064D02*
X03003210D01*
Y03230565D01*
X03001543D01*
X03003210D01*
Y03228065D01*
X02998211Y03233064D02*
X02996545D01*
X02997378D01*
Y03228065D01*
X02998211D01*
X02996545D01*
X02994046Y03233064D02*
Y03228065D01*
X02991547D01*
X02990714Y03228899D01*
Y03232231D01*
X02991547Y03233064D01*
X02994046D01*
X02985715D02*
X02989048D01*
Y03230565D01*
X02987381Y03231398D01*
X02986548D01*
X02985715Y03230565D01*
Y03228899D01*
X02986548Y03228065D01*
X02988214D01*
X02989048Y03228899D01*
X03264877Y01584064D02*
X03268210D01*
Y01581565D01*
X03266543D01*
X03268210D01*
Y01579065D01*
X03263211Y01584064D02*
X03261545D01*
X03262378D01*
Y01579065D01*
X03263211D01*
X03261545D01*
X03259046Y01584064D02*
Y01579065D01*
X03256547D01*
X03255714Y01579899D01*
Y01583231D01*
X03256547Y01584064D01*
X03259046D01*
X03250715D02*
X03252381Y01583231D01*
X03254048Y01581565D01*
Y01579899D01*
X03253214Y01579065D01*
X03251548D01*
X03250715Y01579899D01*
Y01580732D01*
X03251548Y01581565D01*
X03254048D01*
X02605966Y02524900D02*
Y02520734D01*
X02605133Y02519901D01*
X02603467D01*
X02602634Y02520734D01*
Y02524900D01*
X02597635Y02519901D02*
X02600968D01*
X02597635Y02523234D01*
Y02524067D01*
X02598469Y02524900D01*
X02600135D01*
X02600968Y02524067D01*
X02597687Y02661856D02*
Y02657691D01*
X02596854Y02656858D01*
X02595188D01*
X02594355Y02657691D01*
Y02661856D01*
X02590190Y02656858D02*
Y02661856D01*
X02592689Y02659357D01*
X02589357D01*
X02468386Y02525150D02*
Y02520984D01*
X02467553Y02520151D01*
X02465887D01*
X02465054Y02520984D01*
Y02525150D01*
X02463388Y02524317D02*
X02462555Y02525150D01*
X02460889D01*
X02460056Y02524317D01*
Y02523484D01*
X02460889Y02522651D01*
X02460056Y02521817D01*
Y02520984D01*
X02460889Y02520151D01*
X02462555D01*
X02463388Y02520984D01*
Y02521817D01*
X02462555Y02522651D01*
X02463388Y02523484D01*
Y02524317D01*
X02462555Y02522651D02*
X02460889D01*
X02698228Y02658564D02*
Y02662729D01*
X02699061Y02663562D01*
X02700727D01*
X02701560Y02662729D01*
Y02658564D01*
X02703226Y02662729D02*
X02704059Y02663562D01*
X02705725D01*
X02706558Y02662729D01*
Y02659397D01*
X02705725Y02658564D01*
X02704059D01*
X02703226Y02659397D01*
Y02660230D01*
X02704059Y02661063D01*
X02706558D01*
X02839319Y02658564D02*
Y02662729D01*
X02840152Y02663562D01*
X02841818D01*
X02842651Y02662729D01*
Y02658564D01*
X02844317Y02663562D02*
X02845983D01*
X02845150D01*
Y02658564D01*
X02844317Y02659397D01*
X02851815Y02658564D02*
X02848483D01*
Y02661063D01*
X02850149Y02660230D01*
X02850982D01*
X02851815Y02661063D01*
Y02662729D01*
X02850982Y02663562D01*
X02849315D01*
X02848483Y02662729D01*
M02*
