G04*
G04 #@! TF.GenerationSoftware,Altium Limited,Altium Designer,23.1.1 (15)*
G04*
G04 Layer_Color=8388736*
%FSAX44Y44*%
%MOMM*%
G71*
G04*
G04 #@! TF.SameCoordinates,9B1E6CB6-7F21-4D16-986F-FEEA4F8F1DB9*
G04*
G04*
G04 #@! TF.FilePolarity,Negative*
G04*
G01*
G75*
%ADD19C,0.2540*%
%ADD22C,0.2032*%
G04:AMPARAMS|DCode=38|XSize=0.7mm|YSize=0.7mm|CornerRadius=0.049mm|HoleSize=0mm|Usage=FLASHONLY|Rotation=0.000|XOffset=0mm|YOffset=0mm|HoleType=Round|Shape=RoundedRectangle|*
%AMROUNDEDRECTD38*
21,1,0.7000,0.6020,0,0,0.0*
21,1,0.6020,0.7000,0,0,0.0*
1,1,0.0980,0.3010,-0.3010*
1,1,0.0980,-0.3010,-0.3010*
1,1,0.0980,-0.3010,0.3010*
1,1,0.0980,0.3010,0.3010*
%
%ADD38ROUNDEDRECTD38*%
G04:AMPARAMS|DCode=41|XSize=1.19mm|YSize=2.79mm|CornerRadius=0.0476mm|HoleSize=0mm|Usage=FLASHONLY|Rotation=180.000|XOffset=0mm|YOffset=0mm|HoleType=Round|Shape=RoundedRectangle|*
%AMROUNDEDRECTD41*
21,1,1.1900,2.6948,0,0,180.0*
21,1,1.0948,2.7900,0,0,180.0*
1,1,0.0952,-0.5474,1.3474*
1,1,0.0952,0.5474,1.3474*
1,1,0.0952,0.5474,-1.3474*
1,1,0.0952,-0.5474,-1.3474*
%
%ADD41ROUNDEDRECTD41*%
G04:AMPARAMS|DCode=42|XSize=0.75mm|YSize=0.9mm|CornerRadius=0.0488mm|HoleSize=0mm|Usage=FLASHONLY|Rotation=180.000|XOffset=0mm|YOffset=0mm|HoleType=Round|Shape=RoundedRectangle|*
%AMROUNDEDRECTD42*
21,1,0.7500,0.8025,0,0,180.0*
21,1,0.6525,0.9000,0,0,180.0*
1,1,0.0975,-0.3263,0.4013*
1,1,0.0975,0.3263,0.4013*
1,1,0.0975,0.3263,-0.4013*
1,1,0.0975,-0.3263,-0.4013*
%
%ADD42ROUNDEDRECTD42*%
G04:AMPARAMS|DCode=43|XSize=0.7581mm|YSize=0.8121mm|CornerRadius=0.0493mm|HoleSize=0mm|Usage=FLASHONLY|Rotation=270.000|XOffset=0mm|YOffset=0mm|HoleType=Round|Shape=RoundedRectangle|*
%AMROUNDEDRECTD43*
21,1,0.7581,0.7136,0,0,270.0*
21,1,0.6596,0.8121,0,0,270.0*
1,1,0.0986,-0.3568,-0.3298*
1,1,0.0986,-0.3568,0.3298*
1,1,0.0986,0.3568,0.3298*
1,1,0.0986,0.3568,-0.3298*
%
%ADD43ROUNDEDRECTD43*%
G04:AMPARAMS|DCode=45|XSize=3.25mm|YSize=3.43mm|CornerRadius=0.0488mm|HoleSize=0mm|Usage=FLASHONLY|Rotation=180.000|XOffset=0mm|YOffset=0mm|HoleType=Round|Shape=RoundedRectangle|*
%AMROUNDEDRECTD45*
21,1,3.2500,3.3325,0,0,180.0*
21,1,3.1525,3.4300,0,0,180.0*
1,1,0.0975,-1.5763,1.6663*
1,1,0.0975,1.5763,1.6663*
1,1,0.0975,1.5763,-1.6663*
1,1,0.0975,-1.5763,-1.6663*
%
%ADD45ROUNDEDRECTD45*%
G04:AMPARAMS|DCode=47|XSize=1.02mm|YSize=1.905mm|CornerRadius=0.051mm|HoleSize=0mm|Usage=FLASHONLY|Rotation=180.000|XOffset=0mm|YOffset=0mm|HoleType=Round|Shape=RoundedRectangle|*
%AMROUNDEDRECTD47*
21,1,1.0200,1.8030,0,0,180.0*
21,1,0.9180,1.9050,0,0,180.0*
1,1,0.1020,-0.4590,0.9015*
1,1,0.1020,0.4590,0.9015*
1,1,0.1020,0.4590,-0.9015*
1,1,0.1020,-0.4590,-0.9015*
%
%ADD47ROUNDEDRECTD47*%
G04:AMPARAMS|DCode=49|XSize=1.55mm|YSize=0.6mm|CornerRadius=0.051mm|HoleSize=0mm|Usage=FLASHONLY|Rotation=90.000|XOffset=0mm|YOffset=0mm|HoleType=Round|Shape=RoundedRectangle|*
%AMROUNDEDRECTD49*
21,1,1.5500,0.4980,0,0,90.0*
21,1,1.4480,0.6000,0,0,90.0*
1,1,0.1020,0.2490,0.7240*
1,1,0.1020,0.2490,-0.7240*
1,1,0.1020,-0.2490,-0.7240*
1,1,0.1020,-0.2490,0.7240*
%
%ADD49ROUNDEDRECTD49*%
G04:AMPARAMS|DCode=52|XSize=1.85mm|YSize=0.45mm|CornerRadius=0.0495mm|HoleSize=0mm|Usage=FLASHONLY|Rotation=0.000|XOffset=0mm|YOffset=0mm|HoleType=Round|Shape=RoundedRectangle|*
%AMROUNDEDRECTD52*
21,1,1.8500,0.3510,0,0,0.0*
21,1,1.7510,0.4500,0,0,0.0*
1,1,0.0990,0.8755,-0.1755*
1,1,0.0990,-0.8755,-0.1755*
1,1,0.0990,-0.8755,0.1755*
1,1,0.0990,0.8755,0.1755*
%
%ADD52ROUNDEDRECTD52*%
G04:AMPARAMS|DCode=54|XSize=0.7mm|YSize=0.7mm|CornerRadius=0.049mm|HoleSize=0mm|Usage=FLASHONLY|Rotation=90.000|XOffset=0mm|YOffset=0mm|HoleType=Round|Shape=RoundedRectangle|*
%AMROUNDEDRECTD54*
21,1,0.7000,0.6020,0,0,90.0*
21,1,0.6020,0.7000,0,0,90.0*
1,1,0.0980,0.3010,0.3010*
1,1,0.0980,0.3010,-0.3010*
1,1,0.0980,-0.3010,-0.3010*
1,1,0.0980,-0.3010,0.3010*
%
%ADD54ROUNDEDRECTD54*%
G04:AMPARAMS|DCode=55|XSize=0.75mm|YSize=0.9mm|CornerRadius=0.0488mm|HoleSize=0mm|Usage=FLASHONLY|Rotation=270.000|XOffset=0mm|YOffset=0mm|HoleType=Round|Shape=RoundedRectangle|*
%AMROUNDEDRECTD55*
21,1,0.7500,0.8025,0,0,270.0*
21,1,0.6525,0.9000,0,0,270.0*
1,1,0.0975,-0.4013,-0.3263*
1,1,0.0975,-0.4013,0.3263*
1,1,0.0975,0.4013,0.3263*
1,1,0.0975,0.4013,-0.3263*
%
%ADD55ROUNDEDRECTD55*%
G04:AMPARAMS|DCode=59|XSize=0.45mm|YSize=0.3mm|CornerRadius=0.0495mm|HoleSize=0mm|Usage=FLASHONLY|Rotation=90.000|XOffset=0mm|YOffset=0mm|HoleType=Round|Shape=RoundedRectangle|*
%AMROUNDEDRECTD59*
21,1,0.4500,0.2010,0,0,90.0*
21,1,0.3510,0.3000,0,0,90.0*
1,1,0.0990,0.1005,0.1755*
1,1,0.0990,0.1005,-0.1755*
1,1,0.0990,-0.1005,-0.1755*
1,1,0.0990,-0.1005,0.1755*
%
%ADD59ROUNDEDRECTD59*%
G04:AMPARAMS|DCode=61|XSize=1.55mm|YSize=0.6mm|CornerRadius=0.051mm|HoleSize=0mm|Usage=FLASHONLY|Rotation=180.000|XOffset=0mm|YOffset=0mm|HoleType=Round|Shape=RoundedRectangle|*
%AMROUNDEDRECTD61*
21,1,1.5500,0.4980,0,0,180.0*
21,1,1.4480,0.6000,0,0,180.0*
1,1,0.1020,-0.7240,0.2490*
1,1,0.1020,0.7240,0.2490*
1,1,0.1020,0.7240,-0.2490*
1,1,0.1020,-0.7240,-0.2490*
%
%ADD61ROUNDEDRECTD61*%
G04:AMPARAMS|DCode=66|XSize=1.85mm|YSize=0.45mm|CornerRadius=0.0495mm|HoleSize=0mm|Usage=FLASHONLY|Rotation=90.000|XOffset=0mm|YOffset=0mm|HoleType=Round|Shape=RoundedRectangle|*
%AMROUNDEDRECTD66*
21,1,1.8500,0.3510,0,0,90.0*
21,1,1.7510,0.4500,0,0,90.0*
1,1,0.0990,0.1755,0.8755*
1,1,0.0990,0.1755,-0.8755*
1,1,0.0990,-0.1755,-0.8755*
1,1,0.0990,-0.1755,0.8755*
%
%ADD66ROUNDEDRECTD66*%
G04:AMPARAMS|DCode=67|XSize=0.65mm|YSize=1.6mm|CornerRadius=0.0488mm|HoleSize=0mm|Usage=FLASHONLY|Rotation=90.000|XOffset=0mm|YOffset=0mm|HoleType=Round|Shape=RoundedRectangle|*
%AMROUNDEDRECTD67*
21,1,0.6500,1.5025,0,0,90.0*
21,1,0.5525,1.6000,0,0,90.0*
1,1,0.0975,0.7512,0.2763*
1,1,0.0975,0.7512,-0.2763*
1,1,0.0975,-0.7512,-0.2763*
1,1,0.0975,-0.7512,0.2763*
%
%ADD67ROUNDEDRECTD67*%
G04:AMPARAMS|DCode=68|XSize=0.65mm|YSize=1.6mm|CornerRadius=0.0488mm|HoleSize=0mm|Usage=FLASHONLY|Rotation=0.000|XOffset=0mm|YOffset=0mm|HoleType=Round|Shape=RoundedRectangle|*
%AMROUNDEDRECTD68*
21,1,0.6500,1.5025,0,0,0.0*
21,1,0.5525,1.6000,0,0,0.0*
1,1,0.0975,0.2763,-0.7512*
1,1,0.0975,-0.2763,-0.7512*
1,1,0.0975,-0.2763,0.7512*
1,1,0.0975,0.2763,0.7512*
%
%ADD68ROUNDEDRECTD68*%
G04:AMPARAMS|DCode=71|XSize=2.1mm|YSize=0.6mm|CornerRadius=0.051mm|HoleSize=0mm|Usage=FLASHONLY|Rotation=180.000|XOffset=0mm|YOffset=0mm|HoleType=Round|Shape=RoundedRectangle|*
%AMROUNDEDRECTD71*
21,1,2.1000,0.4980,0,0,180.0*
21,1,1.9980,0.6000,0,0,180.0*
1,1,0.1020,-0.9990,0.2490*
1,1,0.1020,0.9990,0.2490*
1,1,0.1020,0.9990,-0.2490*
1,1,0.1020,-0.9990,-0.2490*
%
%ADD71ROUNDEDRECTD71*%
G04:AMPARAMS|DCode=74|XSize=0.4mm|YSize=0.5mm|CornerRadius=0.05mm|HoleSize=0mm|Usage=FLASHONLY|Rotation=90.000|XOffset=0mm|YOffset=0mm|HoleType=Round|Shape=RoundedRectangle|*
%AMROUNDEDRECTD74*
21,1,0.4000,0.4000,0,0,90.0*
21,1,0.3000,0.5000,0,0,90.0*
1,1,0.1000,0.2000,0.1500*
1,1,0.1000,0.2000,-0.1500*
1,1,0.1000,-0.2000,-0.1500*
1,1,0.1000,-0.2000,0.1500*
%
%ADD74ROUNDEDRECTD74*%
G04:AMPARAMS|DCode=79|XSize=1.65mm|YSize=0.6mm|CornerRadius=0.051mm|HoleSize=0mm|Usage=FLASHONLY|Rotation=270.000|XOffset=0mm|YOffset=0mm|HoleType=Round|Shape=RoundedRectangle|*
%AMROUNDEDRECTD79*
21,1,1.6500,0.4980,0,0,270.0*
21,1,1.5480,0.6000,0,0,270.0*
1,1,0.1020,-0.2490,-0.7740*
1,1,0.1020,-0.2490,0.7740*
1,1,0.1020,0.2490,0.7740*
1,1,0.1020,0.2490,-0.7740*
%
%ADD79ROUNDEDRECTD79*%
G04:AMPARAMS|DCode=80|XSize=1.65mm|YSize=4.41mm|CornerRadius=0.0495mm|HoleSize=0mm|Usage=FLASHONLY|Rotation=270.000|XOffset=0mm|YOffset=0mm|HoleType=Round|Shape=RoundedRectangle|*
%AMROUNDEDRECTD80*
21,1,1.6500,4.3110,0,0,270.0*
21,1,1.5510,4.4100,0,0,270.0*
1,1,0.0990,-2.1555,-0.7755*
1,1,0.0990,-2.1555,0.7755*
1,1,0.0990,2.1555,0.7755*
1,1,0.0990,2.1555,-0.7755*
%
%ADD80ROUNDEDRECTD80*%
G04:AMPARAMS|DCode=82|XSize=1.35mm|YSize=0.9mm|CornerRadius=0.0495mm|HoleSize=0mm|Usage=FLASHONLY|Rotation=270.000|XOffset=0mm|YOffset=0mm|HoleType=Round|Shape=RoundedRectangle|*
%AMROUNDEDRECTD82*
21,1,1.3500,0.8010,0,0,270.0*
21,1,1.2510,0.9000,0,0,270.0*
1,1,0.0990,-0.4005,-0.6255*
1,1,0.0990,-0.4005,0.6255*
1,1,0.0990,0.4005,0.6255*
1,1,0.0990,0.4005,-0.6255*
%
%ADD82ROUNDEDRECTD82*%
G04:AMPARAMS|DCode=83|XSize=0.9mm|YSize=1.3mm|CornerRadius=0.0495mm|HoleSize=0mm|Usage=FLASHONLY|Rotation=270.000|XOffset=0mm|YOffset=0mm|HoleType=Round|Shape=RoundedRectangle|*
%AMROUNDEDRECTD83*
21,1,0.9000,1.2010,0,0,270.0*
21,1,0.8010,1.3000,0,0,270.0*
1,1,0.0990,-0.6005,-0.4005*
1,1,0.0990,-0.6005,0.4005*
1,1,0.0990,0.6005,0.4005*
1,1,0.0990,0.6005,-0.4005*
%
%ADD83ROUNDEDRECTD83*%
G04:AMPARAMS|DCode=84|XSize=2.16mm|YSize=2.26mm|CornerRadius=0.054mm|HoleSize=0mm|Usage=FLASHONLY|Rotation=180.000|XOffset=0mm|YOffset=0mm|HoleType=Round|Shape=RoundedRectangle|*
%AMROUNDEDRECTD84*
21,1,2.1600,2.1520,0,0,180.0*
21,1,2.0520,2.2600,0,0,180.0*
1,1,0.1080,-1.0260,1.0760*
1,1,0.1080,1.0260,1.0760*
1,1,0.1080,1.0260,-1.0760*
1,1,0.1080,-1.0260,-1.0760*
%
%ADD84ROUNDEDRECTD84*%
G04:AMPARAMS|DCode=85|XSize=0.4mm|YSize=0.5mm|CornerRadius=0.05mm|HoleSize=0mm|Usage=FLASHONLY|Rotation=180.000|XOffset=0mm|YOffset=0mm|HoleType=Round|Shape=RoundedRectangle|*
%AMROUNDEDRECTD85*
21,1,0.4000,0.4000,0,0,180.0*
21,1,0.3000,0.5000,0,0,180.0*
1,1,0.1000,-0.1500,0.2000*
1,1,0.1000,0.1500,0.2000*
1,1,0.1000,0.1500,-0.2000*
1,1,0.1000,-0.1500,-0.2000*
%
%ADD85ROUNDEDRECTD85*%
G04:AMPARAMS|DCode=86|XSize=0.9mm|YSize=1.3mm|CornerRadius=0.0495mm|HoleSize=0mm|Usage=FLASHONLY|Rotation=180.000|XOffset=0mm|YOffset=0mm|HoleType=Round|Shape=RoundedRectangle|*
%AMROUNDEDRECTD86*
21,1,0.9000,1.2010,0,0,180.0*
21,1,0.8010,1.3000,0,0,180.0*
1,1,0.0990,-0.4005,0.6005*
1,1,0.0990,0.4005,0.6005*
1,1,0.0990,0.4005,-0.6005*
1,1,0.0990,-0.4005,-0.6005*
%
%ADD86ROUNDEDRECTD86*%
G04:AMPARAMS|DCode=87|XSize=1.35mm|YSize=0.9mm|CornerRadius=0.0495mm|HoleSize=0mm|Usage=FLASHONLY|Rotation=180.000|XOffset=0mm|YOffset=0mm|HoleType=Round|Shape=RoundedRectangle|*
%AMROUNDEDRECTD87*
21,1,1.3500,0.8010,0,0,180.0*
21,1,1.2510,0.9000,0,0,180.0*
1,1,0.0990,-0.6255,0.4005*
1,1,0.0990,0.6255,0.4005*
1,1,0.0990,0.6255,-0.4005*
1,1,0.0990,-0.6255,-0.4005*
%
%ADD87ROUNDEDRECTD87*%
%ADD89R,1.0500X1.1000*%
%ADD90R,1.1000X1.0500*%
%ADD91O,1.3500X0.6500*%
%ADD92R,1.5000X2.3000*%
%ADD93R,1.4000X1.9500*%
G04:AMPARAMS|DCode=94|XSize=0.7mm|YSize=1.1mm|CornerRadius=0.101mm|HoleSize=0mm|Usage=FLASHONLY|Rotation=180.000|XOffset=0mm|YOffset=0mm|HoleType=Round|Shape=RoundedRectangle|*
%AMROUNDEDRECTD94*
21,1,0.7000,0.8980,0,0,180.0*
21,1,0.4980,1.1000,0,0,180.0*
1,1,0.2020,-0.2490,0.4490*
1,1,0.2020,0.2490,0.4490*
1,1,0.2020,0.2490,-0.4490*
1,1,0.2020,-0.2490,-0.4490*
%
%ADD94ROUNDEDRECTD94*%
%ADD95O,1.5500X0.5000*%
G04:AMPARAMS|DCode=96|XSize=3.6mm|YSize=1.7mm|CornerRadius=0.098mm|HoleSize=0mm|Usage=FLASHONLY|Rotation=180.000|XOffset=0mm|YOffset=0mm|HoleType=Round|Shape=RoundedRectangle|*
%AMROUNDEDRECTD96*
21,1,3.6000,1.5040,0,0,180.0*
21,1,3.4040,1.7000,0,0,180.0*
1,1,0.1960,-1.7020,0.7520*
1,1,0.1960,1.7020,0.7520*
1,1,0.1960,1.7020,-0.7520*
1,1,0.1960,-1.7020,-0.7520*
%
%ADD96ROUNDEDRECTD96*%
G04:AMPARAMS|DCode=97|XSize=1.05mm|YSize=0.5mm|CornerRadius=0.05mm|HoleSize=0mm|Usage=FLASHONLY|Rotation=90.000|XOffset=0mm|YOffset=0mm|HoleType=Round|Shape=RoundedRectangle|*
%AMROUNDEDRECTD97*
21,1,1.0500,0.4000,0,0,90.0*
21,1,0.9500,0.5000,0,0,90.0*
1,1,0.1000,0.2000,0.4750*
1,1,0.1000,0.2000,-0.4750*
1,1,0.1000,-0.2000,-0.4750*
1,1,0.1000,-0.2000,0.4750*
%
%ADD97ROUNDEDRECTD97*%
G04:AMPARAMS|DCode=98|XSize=0.7mm|YSize=0.5mm|CornerRadius=0.05mm|HoleSize=0mm|Usage=FLASHONLY|Rotation=90.000|XOffset=0mm|YOffset=0mm|HoleType=Round|Shape=RoundedRectangle|*
%AMROUNDEDRECTD98*
21,1,0.7000,0.4000,0,0,90.0*
21,1,0.6000,0.5000,0,0,90.0*
1,1,0.1000,0.2000,0.3000*
1,1,0.1000,0.2000,-0.3000*
1,1,0.1000,-0.2000,-0.3000*
1,1,0.1000,-0.2000,0.3000*
%
%ADD98ROUNDEDRECTD98*%
G04:AMPARAMS|DCode=99|XSize=1.05mm|YSize=0.5mm|CornerRadius=0.05mm|HoleSize=0mm|Usage=FLASHONLY|Rotation=180.000|XOffset=0mm|YOffset=0mm|HoleType=Round|Shape=RoundedRectangle|*
%AMROUNDEDRECTD99*
21,1,1.0500,0.4000,0,0,180.0*
21,1,0.9500,0.5000,0,0,180.0*
1,1,0.1000,-0.4750,0.2000*
1,1,0.1000,0.4750,0.2000*
1,1,0.1000,0.4750,-0.2000*
1,1,0.1000,-0.4750,-0.2000*
%
%ADD99ROUNDEDRECTD99*%
G04:AMPARAMS|DCode=100|XSize=0.7mm|YSize=0.5mm|CornerRadius=0.05mm|HoleSize=0mm|Usage=FLASHONLY|Rotation=180.000|XOffset=0mm|YOffset=0mm|HoleType=Round|Shape=RoundedRectangle|*
%AMROUNDEDRECTD100*
21,1,0.7000,0.4000,0,0,180.0*
21,1,0.6000,0.5000,0,0,180.0*
1,1,0.1000,-0.3000,0.2000*
1,1,0.1000,0.3000,0.2000*
1,1,0.1000,0.3000,-0.2000*
1,1,0.1000,-0.3000,-0.2000*
%
%ADD100ROUNDEDRECTD100*%
G04:AMPARAMS|DCode=101|XSize=0.7mm|YSize=1.1mm|CornerRadius=0.101mm|HoleSize=0mm|Usage=FLASHONLY|Rotation=270.000|XOffset=0mm|YOffset=0mm|HoleType=Round|Shape=RoundedRectangle|*
%AMROUNDEDRECTD101*
21,1,0.7000,0.8980,0,0,270.0*
21,1,0.4980,1.1000,0,0,270.0*
1,1,0.2020,-0.4490,-0.2490*
1,1,0.2020,-0.4490,0.2490*
1,1,0.2020,0.4490,0.2490*
1,1,0.2020,0.4490,-0.2490*
%
%ADD101ROUNDEDRECTD101*%
%ADD102R,0.6000X2.8239*%
G04:AMPARAMS|DCode=103|XSize=1mm|YSize=1.8mm|CornerRadius=0.0995mm|HoleSize=0mm|Usage=FLASHONLY|Rotation=270.000|XOffset=0mm|YOffset=0mm|HoleType=Round|Shape=RoundedRectangle|*
%AMROUNDEDRECTD103*
21,1,1.0000,1.6010,0,0,270.0*
21,1,0.8010,1.8000,0,0,270.0*
1,1,0.1990,-0.8005,-0.4005*
1,1,0.1990,-0.8005,0.4005*
1,1,0.1990,0.8005,0.4005*
1,1,0.1990,0.8005,-0.4005*
%
%ADD103ROUNDEDRECTD103*%
%ADD104R,1.9500X1.4000*%
%ADD105O,1.5000X0.5500*%
G04:AMPARAMS|DCode=106|XSize=1.1mm|YSize=1.3mm|CornerRadius=0.105mm|HoleSize=0mm|Usage=FLASHONLY|Rotation=90.000|XOffset=0mm|YOffset=0mm|HoleType=Round|Shape=RoundedRectangle|*
%AMROUNDEDRECTD106*
21,1,1.1000,1.0900,0,0,90.0*
21,1,0.8900,1.3000,0,0,90.0*
1,1,0.2100,0.5450,0.4450*
1,1,0.2100,0.5450,-0.4450*
1,1,0.2100,-0.5450,-0.4450*
1,1,0.2100,-0.5450,0.4450*
%
%ADD106ROUNDEDRECTD106*%
G04:AMPARAMS|DCode=107|XSize=3.6mm|YSize=1.7mm|CornerRadius=0.098mm|HoleSize=0mm|Usage=FLASHONLY|Rotation=90.000|XOffset=0mm|YOffset=0mm|HoleType=Round|Shape=RoundedRectangle|*
%AMROUNDEDRECTD107*
21,1,3.6000,1.5040,0,0,90.0*
21,1,3.4040,1.7000,0,0,90.0*
1,1,0.1960,0.7520,1.7020*
1,1,0.1960,0.7520,-1.7020*
1,1,0.1960,-0.7520,-1.7020*
1,1,0.1960,-0.7520,1.7020*
%
%ADD107ROUNDEDRECTD107*%
G04:AMPARAMS|DCode=108|XSize=1.9mm|YSize=3.5mm|CornerRadius=0.104mm|HoleSize=0mm|Usage=FLASHONLY|Rotation=90.000|XOffset=0mm|YOffset=0mm|HoleType=Round|Shape=RoundedRectangle|*
%AMROUNDEDRECTD108*
21,1,1.9000,3.2920,0,0,90.0*
21,1,1.6920,3.5000,0,0,90.0*
1,1,0.2080,1.6460,0.8460*
1,1,0.2080,1.6460,-0.8460*
1,1,0.2080,-1.6460,-0.8460*
1,1,0.2080,-1.6460,0.8460*
%
%ADD108ROUNDEDRECTD108*%
G04:AMPARAMS|DCode=109|XSize=0.4mm|YSize=0.55mm|CornerRadius=0.0995mm|HoleSize=0mm|Usage=FLASHONLY|Rotation=90.000|XOffset=0mm|YOffset=0mm|HoleType=Round|Shape=RoundedRectangle|*
%AMROUNDEDRECTD109*
21,1,0.4000,0.3510,0,0,90.0*
21,1,0.2010,0.5500,0,0,90.0*
1,1,0.1990,0.1755,0.1005*
1,1,0.1990,0.1755,-0.1005*
1,1,0.1990,-0.1755,-0.1005*
1,1,0.1990,-0.1755,0.1005*
%
%ADD109ROUNDEDRECTD109*%
G04:AMPARAMS|DCode=110|XSize=1.1mm|YSize=1.7mm|CornerRadius=0.1mm|HoleSize=0mm|Usage=FLASHONLY|Rotation=0.000|XOffset=0mm|YOffset=0mm|HoleType=Round|Shape=RoundedRectangle|*
%AMROUNDEDRECTD110*
21,1,1.1000,1.5000,0,0,0.0*
21,1,0.9000,1.7000,0,0,0.0*
1,1,0.2000,0.4500,-0.7500*
1,1,0.2000,-0.4500,-0.7500*
1,1,0.2000,-0.4500,0.7500*
1,1,0.2000,0.4500,0.7500*
%
%ADD110ROUNDEDRECTD110*%
G04:AMPARAMS|DCode=111|XSize=0.75mm|YSize=0.3mm|CornerRadius=0.0495mm|HoleSize=0mm|Usage=FLASHONLY|Rotation=90.000|XOffset=0mm|YOffset=0mm|HoleType=Round|Shape=RoundedRectangle|*
%AMROUNDEDRECTD111*
21,1,0.7500,0.2010,0,0,90.0*
21,1,0.6510,0.3000,0,0,90.0*
1,1,0.0990,0.1005,0.3255*
1,1,0.0990,0.1005,-0.3255*
1,1,0.0990,-0.1005,-0.3255*
1,1,0.0990,-0.1005,0.3255*
%
%ADD111ROUNDEDRECTD111*%
G04:AMPARAMS|DCode=112|XSize=1mm|YSize=0.95mm|CornerRadius=0.0522mm|HoleSize=0mm|Usage=FLASHONLY|Rotation=90.000|XOffset=0mm|YOffset=0mm|HoleType=Round|Shape=RoundedRectangle|*
%AMROUNDEDRECTD112*
21,1,1.0000,0.8455,0,0,90.0*
21,1,0.8955,0.9500,0,0,90.0*
1,1,0.1045,0.4228,0.4478*
1,1,0.1045,0.4228,-0.4478*
1,1,0.1045,-0.4228,-0.4478*
1,1,0.1045,-0.4228,0.4478*
%
%ADD112ROUNDEDRECTD112*%
%ADD113R,2.1000X2.1000*%
%ADD114R,1.7000X3.5000*%
G04:AMPARAMS|DCode=115|XSize=1.1mm|YSize=1.3mm|CornerRadius=0.105mm|HoleSize=0mm|Usage=FLASHONLY|Rotation=180.000|XOffset=0mm|YOffset=0mm|HoleType=Round|Shape=RoundedRectangle|*
%AMROUNDEDRECTD115*
21,1,1.1000,1.0900,0,0,180.0*
21,1,0.8900,1.3000,0,0,180.0*
1,1,0.2100,-0.4450,0.5450*
1,1,0.2100,0.4450,0.5450*
1,1,0.2100,0.4450,-0.5450*
1,1,0.2100,-0.4450,-0.5450*
%
%ADD115ROUNDEDRECTD115*%
%ADD116R,1.2000X1.7000*%
%ADD117R,1.3700X1.7002*%
%ADD118R,1.0150X1.3200*%
%ADD119R,1.9900X1.3400*%
%ADD120R,0.7000X0.9000*%
%ADD121R,1.7002X1.3700*%
%ADD122O,0.7000X1.5500*%
G04:AMPARAMS|DCode=123|XSize=1.7mm|YSize=2.7mm|CornerRadius=0.098mm|HoleSize=0mm|Usage=FLASHONLY|Rotation=270.000|XOffset=0mm|YOffset=0mm|HoleType=Round|Shape=RoundedRectangle|*
%AMROUNDEDRECTD123*
21,1,1.7000,2.5040,0,0,270.0*
21,1,1.5040,2.7000,0,0,270.0*
1,1,0.1960,-1.2520,-0.7520*
1,1,0.1960,-1.2520,0.7520*
1,1,0.1960,1.2520,0.7520*
1,1,0.1960,1.2520,-0.7520*
%
%ADD123ROUNDEDRECTD123*%
G04:AMPARAMS|DCode=124|XSize=5.9mm|YSize=6.3mm|CornerRadius=0.108mm|HoleSize=0mm|Usage=FLASHONLY|Rotation=270.000|XOffset=0mm|YOffset=0mm|HoleType=Round|Shape=RoundedRectangle|*
%AMROUNDEDRECTD124*
21,1,5.9000,6.0840,0,0,270.0*
21,1,5.6840,6.3000,0,0,270.0*
1,1,0.2160,-3.0420,-2.8420*
1,1,0.2160,-3.0420,2.8420*
1,1,0.2160,3.0420,2.8420*
1,1,0.2160,3.0420,-2.8420*
%
%ADD124ROUNDEDRECTD124*%
%ADD125R,3.9100X2.8940*%
%ADD126R,2.8000X1.1000*%
%ADD127R,3.1000X5.6000*%
%ADD128C,2.0000*%
%ADD129C,2.2000*%
G04:AMPARAMS|DCode=130|XSize=2.2mm|YSize=2.2mm|CornerRadius=0.055mm|HoleSize=0mm|Usage=FLASHONLY|Rotation=90.000|XOffset=0mm|YOffset=0mm|HoleType=Round|Shape=RoundedRectangle|*
%AMROUNDEDRECTD130*
21,1,2.2000,2.0900,0,0,90.0*
21,1,2.0900,2.2000,0,0,90.0*
1,1,0.1100,1.0450,1.0450*
1,1,0.1100,1.0450,-1.0450*
1,1,0.1100,-1.0450,-1.0450*
1,1,0.1100,-1.0450,1.0450*
%
%ADD130ROUNDEDRECTD130*%
%ADD131C,2.1320*%
%ADD132C,1.5500*%
G04:AMPARAMS|DCode=133|XSize=1.55mm|YSize=1.55mm|CornerRadius=0.0465mm|HoleSize=0mm|Usage=FLASHONLY|Rotation=90.000|XOffset=0mm|YOffset=0mm|HoleType=Round|Shape=RoundedRectangle|*
%AMROUNDEDRECTD133*
21,1,1.5500,1.4570,0,0,90.0*
21,1,1.4570,1.5500,0,0,90.0*
1,1,0.0930,0.7285,0.7285*
1,1,0.0930,0.7285,-0.7285*
1,1,0.0930,-0.7285,-0.7285*
1,1,0.0930,-0.7285,0.7285*
%
%ADD133ROUNDEDRECTD133*%
%ADD134C,4.4000*%
G04:AMPARAMS|DCode=135|XSize=1.07mm|YSize=1.7mm|CornerRadius=0.535mm|HoleSize=0mm|Usage=FLASHONLY|Rotation=90.000|XOffset=0mm|YOffset=0mm|HoleType=Round|Shape=RoundedRectangle|*
%AMROUNDEDRECTD135*
21,1,1.0700,0.6300,0,0,90.0*
21,1,0.0000,1.7000,0,0,90.0*
1,1,1.0700,0.3150,0.0000*
1,1,1.0700,0.3150,0.0000*
1,1,1.0700,-0.3150,0.0000*
1,1,1.0700,-0.3150,0.0000*
%
%ADD135ROUNDEDRECTD135*%
G04:AMPARAMS|DCode=136|XSize=1.07mm|YSize=1.7mm|CornerRadius=0.0481mm|HoleSize=0mm|Usage=FLASHONLY|Rotation=90.000|XOffset=0mm|YOffset=0mm|HoleType=Round|Shape=RoundedRectangle|*
%AMROUNDEDRECTD136*
21,1,1.0700,1.6037,0,0,90.0*
21,1,0.9737,1.7000,0,0,90.0*
1,1,0.0963,0.8019,0.4869*
1,1,0.0963,0.8019,-0.4869*
1,1,0.0963,-0.8019,-0.4869*
1,1,0.0963,-0.8019,0.4869*
%
%ADD136ROUNDEDRECTD136*%
%ADD137C,0.7500*%
%ADD138C,2.7000*%
G04:AMPARAMS|DCode=139|XSize=2.7mm|YSize=2.7mm|CornerRadius=0.054mm|HoleSize=0mm|Usage=FLASHONLY|Rotation=90.000|XOffset=0mm|YOffset=0mm|HoleType=Round|Shape=RoundedRectangle|*
%AMROUNDEDRECTD139*
21,1,2.7000,2.5920,0,0,90.0*
21,1,2.5920,2.7000,0,0,90.0*
1,1,0.1080,1.2960,1.2960*
1,1,0.1080,1.2960,-1.2960*
1,1,0.1080,-1.2960,-1.2960*
1,1,0.1080,-1.2960,1.2960*
%
%ADD139ROUNDEDRECTD139*%
G04:AMPARAMS|DCode=140|XSize=1.35mm|YSize=1.35mm|CornerRadius=0.0472mm|HoleSize=0mm|Usage=FLASHONLY|Rotation=0.000|XOffset=0mm|YOffset=0mm|HoleType=Round|Shape=RoundedRectangle|*
%AMROUNDEDRECTD140*
21,1,1.3500,1.2555,0,0,0.0*
21,1,1.2555,1.3500,0,0,0.0*
1,1,0.0945,0.6278,-0.6278*
1,1,0.0945,-0.6278,-0.6278*
1,1,0.0945,-0.6278,0.6278*
1,1,0.0945,0.6278,0.6278*
%
%ADD140ROUNDEDRECTD140*%
%ADD141C,1.3500*%
G04:AMPARAMS|DCode=142|XSize=2.15mm|YSize=2.15mm|CornerRadius=0.0538mm|HoleSize=0mm|Usage=FLASHONLY|Rotation=90.000|XOffset=0mm|YOffset=0mm|HoleType=Round|Shape=RoundedRectangle|*
%AMROUNDEDRECTD142*
21,1,2.1500,2.0425,0,0,90.0*
21,1,2.0425,2.1500,0,0,90.0*
1,1,0.1075,1.0213,1.0213*
1,1,0.1075,1.0213,-1.0213*
1,1,0.1075,-1.0213,-1.0213*
1,1,0.1075,-1.0213,1.0213*
%
%ADD142ROUNDEDRECTD142*%
%ADD143C,2.1500*%
G04:AMPARAMS|DCode=144|XSize=2.15mm|YSize=2.15mm|CornerRadius=0.0538mm|HoleSize=0mm|Usage=FLASHONLY|Rotation=180.000|XOffset=0mm|YOffset=0mm|HoleType=Round|Shape=RoundedRectangle|*
%AMROUNDEDRECTD144*
21,1,2.1500,2.0425,0,0,180.0*
21,1,2.0425,2.1500,0,0,180.0*
1,1,0.1075,-1.0213,1.0213*
1,1,0.1075,1.0213,1.0213*
1,1,0.1075,1.0213,-1.0213*
1,1,0.1075,-1.0213,-1.0213*
%
%ADD144ROUNDEDRECTD144*%
%ADD145C,2.0000*%
G04:AMPARAMS|DCode=146|XSize=3.05mm|YSize=3.05mm|CornerRadius=0.0458mm|HoleSize=0mm|Usage=FLASHONLY|Rotation=90.000|XOffset=0mm|YOffset=0mm|HoleType=Round|Shape=RoundedRectangle|*
%AMROUNDEDRECTD146*
21,1,3.0500,2.9585,0,0,90.0*
21,1,2.9585,3.0500,0,0,90.0*
1,1,0.0915,1.4793,1.4793*
1,1,0.0915,1.4793,-1.4793*
1,1,0.0915,-1.4793,-1.4793*
1,1,0.0915,-1.4793,1.4793*
%
%ADD146ROUNDEDRECTD146*%
%ADD147C,3.0500*%
%ADD148C,1.7780*%
%ADD149C,1.4480*%
%ADD150C,1.0200*%
G04:AMPARAMS|DCode=151|XSize=1.3mm|YSize=1.3mm|CornerRadius=0.052mm|HoleSize=0mm|Usage=FLASHONLY|Rotation=180.000|XOffset=0mm|YOffset=0mm|HoleType=Round|Shape=RoundedRectangle|*
%AMROUNDEDRECTD151*
21,1,1.3000,1.1960,0,0,180.0*
21,1,1.1960,1.3000,0,0,180.0*
1,1,0.1040,-0.5980,0.5980*
1,1,0.1040,0.5980,0.5980*
1,1,0.1040,0.5980,-0.5980*
1,1,0.1040,-0.5980,-0.5980*
%
%ADD151ROUNDEDRECTD151*%
%ADD152C,1.3000*%
G04:AMPARAMS|DCode=153|XSize=1.3mm|YSize=1.3mm|CornerRadius=0.052mm|HoleSize=0mm|Usage=FLASHONLY|Rotation=270.000|XOffset=0mm|YOffset=0mm|HoleType=Round|Shape=RoundedRectangle|*
%AMROUNDEDRECTD153*
21,1,1.3000,1.1960,0,0,270.0*
21,1,1.1960,1.3000,0,0,270.0*
1,1,0.1040,-0.5980,-0.5980*
1,1,0.1040,-0.5980,0.5980*
1,1,0.1040,0.5980,0.5980*
1,1,0.1040,0.5980,-0.5980*
%
%ADD153ROUNDEDRECTD153*%
G04:AMPARAMS|DCode=154|XSize=1.12mm|YSize=1.12mm|CornerRadius=0.0504mm|HoleSize=0mm|Usage=FLASHONLY|Rotation=180.000|XOffset=0mm|YOffset=0mm|HoleType=Round|Shape=RoundedRectangle|*
%AMROUNDEDRECTD154*
21,1,1.1200,1.0192,0,0,180.0*
21,1,1.0192,1.1200,0,0,180.0*
1,1,0.1008,-0.5096,0.5096*
1,1,0.1008,0.5096,0.5096*
1,1,0.1008,0.5096,-0.5096*
1,1,0.1008,-0.5096,-0.5096*
%
%ADD154ROUNDEDRECTD154*%
%ADD155C,1.1200*%
G04:AMPARAMS|DCode=156|XSize=3.2mm|YSize=1.2mm|CornerRadius=0.6mm|HoleSize=0mm|Usage=FLASHONLY|Rotation=0.000|XOffset=0mm|YOffset=0mm|HoleType=Round|Shape=RoundedRectangle|*
%AMROUNDEDRECTD156*
21,1,3.2000,0.0000,0,0,0.0*
21,1,2.0000,1.2000,0,0,0.0*
1,1,1.2000,1.0000,0.0000*
1,1,1.2000,-1.0000,0.0000*
1,1,1.2000,-1.0000,0.0000*
1,1,1.2000,1.0000,0.0000*
%
%ADD156ROUNDEDRECTD156*%
G04:AMPARAMS|DCode=157|XSize=3.4mm|YSize=1.2mm|CornerRadius=0.6mm|HoleSize=0mm|Usage=FLASHONLY|Rotation=0.000|XOffset=0mm|YOffset=0mm|HoleType=Round|Shape=RoundedRectangle|*
%AMROUNDEDRECTD157*
21,1,3.4000,0.0000,0,0,0.0*
21,1,2.2000,1.2000,0,0,0.0*
1,1,1.2000,1.1000,0.0000*
1,1,1.2000,-1.1000,0.0000*
1,1,1.2000,-1.1000,0.0000*
1,1,1.2000,1.1000,0.0000*
%
%ADD157ROUNDEDRECTD157*%
G04:AMPARAMS|DCode=158|XSize=1.4mm|YSize=4.1mm|CornerRadius=0.049mm|HoleSize=0mm|Usage=FLASHONLY|Rotation=0.000|XOffset=0mm|YOffset=0mm|HoleType=Round|Shape=RoundedRectangle|*
%AMROUNDEDRECTD158*
21,1,1.4000,4.0020,0,0,0.0*
21,1,1.3020,4.1000,0,0,0.0*
1,1,0.0980,0.6510,-2.0010*
1,1,0.0980,-0.6510,-2.0010*
1,1,0.0980,-0.6510,2.0010*
1,1,0.0980,0.6510,2.0010*
%
%ADD158ROUNDEDRECTD158*%
%ADD159C,1.5000*%
G04:AMPARAMS|DCode=160|XSize=3.05mm|YSize=3.05mm|CornerRadius=0.0458mm|HoleSize=0mm|Usage=FLASHONLY|Rotation=210.000|XOffset=0mm|YOffset=0mm|HoleType=Round|Shape=RoundedRectangle|*
%AMROUNDEDRECTD160*
21,1,3.0500,2.9585,0,0,210.0*
21,1,2.9585,3.0500,0,0,210.0*
1,1,0.0915,-2.0207,0.5414*
1,1,0.0915,0.5414,2.0207*
1,1,0.0915,2.0207,-0.5414*
1,1,0.0915,-0.5414,-2.0207*
%
%ADD160ROUNDEDRECTD160*%
%ADD161C,1.7500*%
G04:AMPARAMS|DCode=162|XSize=1.75mm|YSize=1.75mm|CornerRadius=0.4625mm|HoleSize=0mm|Usage=FLASHONLY|Rotation=270.000|XOffset=0mm|YOffset=0mm|HoleType=Round|Shape=RoundedRectangle|*
%AMROUNDEDRECTD162*
21,1,1.7500,0.8250,0,0,270.0*
21,1,0.8250,1.7500,0,0,270.0*
1,1,0.9250,-0.4125,-0.4125*
1,1,0.9250,-0.4125,0.4125*
1,1,0.9250,0.4125,0.4125*
1,1,0.9250,0.4125,-0.4125*
%
%ADD162ROUNDEDRECTD162*%
%ADD163R,1.4000X1.4000*%
%ADD164C,1.4000*%
%ADD165C,1.6000*%
G04:AMPARAMS|DCode=166|XSize=1.6mm|YSize=1.6mm|CornerRadius=0.1025mm|HoleSize=0mm|Usage=FLASHONLY|Rotation=0.000|XOffset=0mm|YOffset=0mm|HoleType=Round|Shape=RoundedRectangle|*
%AMROUNDEDRECTD166*
21,1,1.6000,1.3950,0,0,0.0*
21,1,1.3950,1.6000,0,0,0.0*
1,1,0.2050,0.6975,-0.6975*
1,1,0.2050,-0.6975,-0.6975*
1,1,0.2050,-0.6975,0.6975*
1,1,0.2050,0.6975,0.6975*
%
%ADD166ROUNDEDRECTD166*%
%ADD167R,1.6000X1.6000*%
%ADD168C,3.8000*%
G04:AMPARAMS|DCode=169|XSize=1.75mm|YSize=1.75mm|CornerRadius=0.4625mm|HoleSize=0mm|Usage=FLASHONLY|Rotation=0.000|XOffset=0mm|YOffset=0mm|HoleType=Round|Shape=RoundedRectangle|*
%AMROUNDEDRECTD169*
21,1,1.7500,0.8250,0,0,0.0*
21,1,0.8250,1.7500,0,0,0.0*
1,1,0.9250,0.4125,-0.4125*
1,1,0.9250,-0.4125,-0.4125*
1,1,0.9250,-0.4125,0.4125*
1,1,0.9250,0.4125,0.4125*
%
%ADD169ROUNDEDRECTD169*%
%ADD170C,1.4500*%
%ADD171C,0.6080*%
%ADD172C,0.6000*%
G36*
X00658484Y03194559D02*
Y03192265D01*
X00659082Y03187717D01*
X00660270Y03183285D01*
X00662026Y03179046D01*
X00664320Y03175073D01*
X00667113Y03171433D01*
X00670357Y03168188D01*
X00673997Y03165396D01*
X00677970Y03163102D01*
X00682209Y03161346D01*
X00686641Y03160158D01*
X00691190Y03159559D01*
X00693484D01*
X00695778D01*
X00700327Y03160158D01*
X00704758Y03161346D01*
X00708997Y03163102D01*
X00712970Y03165396D01*
X00716610Y03168188D01*
X00719855Y03171433D01*
X00722648Y03175073D01*
X00724942Y03179046D01*
X00726697Y03183285D01*
X00727885Y03187717D01*
X00728484Y03192265D01*
Y03194559D01*
Y03196853D01*
X00727885Y03201402D01*
X00726697Y03205834D01*
X00724942Y03210073D01*
X00722648Y03214046D01*
X00719855Y03217686D01*
X00716610Y03220930D01*
X00712970Y03223723D01*
X00708997Y03226017D01*
X00704758Y03227773D01*
X00700327Y03228961D01*
X00695778Y03229560D01*
X00693484D01*
X00691190D01*
X00686641Y03228961D01*
X00682209Y03227773D01*
X00677970Y03226017D01*
X00673997Y03223723D01*
X00670357Y03220930D01*
X00667113Y03217686D01*
X00664320Y03214046D01*
X00662026Y03210073D01*
X00660270Y03205834D01*
X00659082Y03201402D01*
X00658484Y03196853D01*
Y03194559D01*
D01*
D02*
G37*
G36*
X01983484D02*
Y03192265D01*
X01984082Y03187717D01*
X01985270Y03183285D01*
X01987026Y03179046D01*
X01989320Y03175073D01*
X01992113Y03171433D01*
X01995357Y03168188D01*
X01998997Y03165396D01*
X02002970Y03163102D01*
X02007209Y03161346D01*
X02011641Y03160158D01*
X02016190Y03159559D01*
X02018484D01*
X02020778D01*
X02025327Y03160158D01*
X02029758Y03161346D01*
X02033997Y03163102D01*
X02037970Y03165396D01*
X02041610Y03168188D01*
X02044854Y03171433D01*
X02047648Y03175073D01*
X02049942Y03179046D01*
X02051697Y03183285D01*
X02052885Y03187717D01*
X02053484Y03192265D01*
Y03194559D01*
Y03196853D01*
X02052885Y03201402D01*
X02051697Y03205834D01*
X02049942Y03210073D01*
X02047648Y03214046D01*
X02044854Y03217686D01*
X02041610Y03220930D01*
X02037970Y03223723D01*
X02033997Y03226017D01*
X02029758Y03227773D01*
X02025327Y03228961D01*
X02020778Y03229560D01*
X02018484D01*
X02016190D01*
X02011641Y03228961D01*
X02007209Y03227773D01*
X02002970Y03226017D01*
X01998997Y03223723D01*
X01995357Y03220930D01*
X01992113Y03217686D01*
X01989320Y03214046D01*
X01987026Y03210073D01*
X01985270Y03205834D01*
X01984082Y03201402D01*
X01983484Y03196853D01*
Y03194559D01*
D01*
D02*
G37*
G36*
X03308484Y03194559D02*
Y03192265D01*
X03309083Y03187716D01*
X03310270Y03183285D01*
X03312026Y03179046D01*
X03314320Y03175073D01*
X03317113Y03171433D01*
X03320357Y03168188D01*
X03323997Y03165396D01*
X03327971Y03163102D01*
X03332209Y03161346D01*
X03336641Y03160158D01*
X03341190Y03159559D01*
X03343484D01*
X03345778D01*
X03350327Y03160158D01*
X03354758Y03161346D01*
X03358997Y03163102D01*
X03362971Y03165396D01*
X03366610Y03168188D01*
X03369855Y03171433D01*
X03372648Y03175073D01*
X03374942Y03179046D01*
X03376697Y03183285D01*
X03377885Y03187716D01*
X03378484Y03192265D01*
Y03194559D01*
Y03196853D01*
X03377885Y03201402D01*
X03376697Y03205834D01*
X03374942Y03210073D01*
X03372648Y03214046D01*
X03369855Y03217686D01*
X03366610Y03220930D01*
X03362971Y03223723D01*
X03358997Y03226017D01*
X03354758Y03227773D01*
X03350327Y03228960D01*
X03345778Y03229559D01*
X03343484D01*
X03341190D01*
X03336641Y03228960D01*
X03332209Y03227773D01*
X03327971Y03226017D01*
X03323997Y03223723D01*
X03320357Y03220930D01*
X03317113Y03217686D01*
X03314320Y03214046D01*
X03312026Y03210073D01*
X03310270Y03205834D01*
X03309083Y03201402D01*
X03308484Y03196853D01*
Y03194559D01*
D01*
D02*
G37*
G54D19*
X01038734Y00433739D02*
Y00588679D01*
X00412751D02*
X02089532D01*
X01360552Y00537032D02*
Y00588679D01*
X01573912Y00537032D02*
Y00588679D01*
X01731900Y00432088D02*
Y00483608D01*
X01429894Y00433739D02*
X02089532D01*
X00412751D02*
X00812928D01*
X00412624Y00537032D02*
X02089532D01*
X00412624Y00433739D02*
X01429894D01*
X00412624Y00485386D02*
X02089024D01*
X00412624Y00433739D02*
Y00588679D01*
X00412751Y00433739D02*
Y00588679D01*
X02089532Y00433739D02*
Y00588679D01*
G54D22*
X00633350Y00508589D02*
X00636682D01*
X00635016D01*
Y00503591D01*
X00639182D02*
X00640848D01*
X00641681Y00504424D01*
Y00506090D01*
X00640848Y00506923D01*
X00639182D01*
X00638349Y00506090D01*
Y00504424D01*
X00639182Y00503591D01*
X00643347Y00501925D02*
Y00506923D01*
X00645846D01*
X00646679Y00506090D01*
Y00504424D01*
X00645846Y00503591D01*
X00643347D01*
X00656676Y00507756D02*
X00655843Y00508589D01*
X00654177D01*
X00653344Y00507756D01*
Y00506923D01*
X00654177Y00506090D01*
X00655843D01*
X00656676Y00505257D01*
Y00504424D01*
X00655843Y00503591D01*
X00654177D01*
X00653344Y00504424D01*
X00659175Y00503591D02*
X00660841D01*
X00661674Y00504424D01*
Y00506090D01*
X00660841Y00506923D01*
X00659175D01*
X00658342Y00506090D01*
Y00504424D01*
X00659175Y00503591D01*
X00663340D02*
X00665006D01*
X00664173D01*
Y00508589D01*
X00663340D01*
X00670838D02*
Y00503591D01*
X00668339D01*
X00667506Y00504424D01*
Y00506090D01*
X00668339Y00506923D01*
X00670838D01*
X00675003Y00503591D02*
X00673337D01*
X00672504Y00504424D01*
Y00506090D01*
X00673337Y00506923D01*
X00675003D01*
X00675836Y00506090D01*
Y00505257D01*
X00672504D01*
X00677502Y00506923D02*
Y00503591D01*
Y00505257D01*
X00678335Y00506090D01*
X00679168Y00506923D01*
X00680002D01*
X00633350Y00508589D02*
X00636682D01*
X00635016D01*
Y00503591D01*
X00639182D02*
X00640848D01*
X00641681Y00504424D01*
Y00506090D01*
X00640848Y00506923D01*
X00639182D01*
X00638349Y00506090D01*
Y00504424D01*
X00639182Y00503591D01*
X00643347Y00501925D02*
Y00506923D01*
X00645846D01*
X00646679Y00506090D01*
Y00504424D01*
X00645846Y00503591D01*
X00643347D01*
X00656676Y00507756D02*
X00655843Y00508589D01*
X00654177D01*
X00653344Y00507756D01*
Y00506923D01*
X00654177Y00506090D01*
X00655843D01*
X00656676Y00505257D01*
Y00504424D01*
X00655843Y00503591D01*
X00654177D01*
X00653344Y00504424D01*
X00659175Y00503591D02*
X00660841D01*
X00661674Y00504424D01*
Y00506090D01*
X00660841Y00506923D01*
X00659175D01*
X00658342Y00506090D01*
Y00504424D01*
X00659175Y00503591D01*
X00663340D02*
X00665006D01*
X00664173D01*
Y00508589D01*
X00663340D01*
X00670838D02*
Y00503591D01*
X00668339D01*
X00667506Y00504424D01*
Y00506090D01*
X00668339Y00506923D01*
X00670838D01*
X00675003Y00503591D02*
X00673337D01*
X00672504Y00504424D01*
Y00506090D01*
X00673337Y00506923D01*
X00675003D01*
X00675836Y00506090D01*
Y00505257D01*
X00672504D01*
X00677502Y00506923D02*
Y00503591D01*
Y00505257D01*
X00678335Y00506090D01*
X00679168Y00506923D01*
X00680002D01*
X00428753Y00555109D02*
Y00558441D01*
X00430419Y00560107D01*
X00432085Y00558441D01*
Y00555109D01*
Y00557608D01*
X00428753D01*
X00433751Y00560107D02*
Y00555109D01*
X00437084D01*
X00438750Y00560107D02*
Y00555109D01*
X00442082D01*
X00448747D02*
Y00558441D01*
X00450413Y00560107D01*
X00452079Y00558441D01*
Y00555109D01*
Y00557608D01*
X00448747D01*
X00453745Y00555109D02*
Y00560107D01*
X00456244D01*
X00457077Y00559274D01*
Y00557608D01*
X00456244Y00556775D01*
X00453745D01*
X00455411D02*
X00457077Y00555109D01*
X00458743Y00560107D02*
X00462076D01*
X00460410D01*
Y00555109D01*
X00463742Y00560107D02*
Y00555109D01*
X00465408Y00556775D01*
X00467074Y00555109D01*
Y00560107D01*
X00471239D02*
X00469573D01*
X00468740Y00559274D01*
Y00555942D01*
X00469573Y00555109D01*
X00471239D01*
X00472072Y00555942D01*
Y00559274D01*
X00471239Y00560107D01*
X00473738Y00555109D02*
Y00560107D01*
X00476238D01*
X00477071Y00559274D01*
Y00557608D01*
X00476238Y00556775D01*
X00473738D01*
X00475405D02*
X00477071Y00555109D01*
X00478737Y00560107D02*
Y00555109D01*
Y00556775D01*
X00482069Y00560107D01*
X00479570Y00557608D01*
X00482069Y00555109D01*
X00488733Y00560107D02*
Y00556775D01*
X00490400Y00555109D01*
X00492066Y00556775D01*
Y00560107D01*
X00493732D02*
X00495398D01*
X00494565D01*
Y00555109D01*
X00493732D01*
X00495398D01*
X00501230Y00560107D02*
X00497897D01*
Y00555109D01*
X00501230D01*
X00497897Y00557608D02*
X00499563D01*
X00502896Y00560107D02*
Y00555109D01*
X00504562Y00556775D01*
X00506228Y00555109D01*
Y00560107D01*
X00511226D02*
X00507894D01*
Y00555109D01*
X00511226D01*
X00507894Y00557608D02*
X00509560D01*
X00512892Y00560107D02*
Y00555109D01*
X00515392D01*
X00516225Y00555942D01*
Y00559274D01*
X00515392Y00560107D01*
X00512892D01*
X00526221D02*
X00522889D01*
Y00557608D01*
X00524555D01*
X00522889D01*
Y00555109D01*
X00527887D02*
Y00560107D01*
X00530387D01*
X00531220Y00559274D01*
Y00557608D01*
X00530387Y00556775D01*
X00527887D01*
X00529553D02*
X00531220Y00555109D01*
X00535385Y00560107D02*
X00533719D01*
X00532886Y00559274D01*
Y00555942D01*
X00533719Y00555109D01*
X00535385D01*
X00536218Y00555942D01*
Y00559274D01*
X00535385Y00560107D01*
X00537884Y00555109D02*
Y00560107D01*
X00539550Y00558441D01*
X00541216Y00560107D01*
Y00555109D01*
X00547881Y00560107D02*
X00551213D01*
X00549547D01*
Y00555109D01*
X00555378Y00560107D02*
X00553712D01*
X00552879Y00559274D01*
Y00555942D01*
X00553712Y00555109D01*
X00555378D01*
X00556212Y00555942D01*
Y00559274D01*
X00555378Y00560107D01*
X00557878Y00555109D02*
Y00560107D01*
X00560377D01*
X00561210Y00559274D01*
Y00557608D01*
X00560377Y00556775D01*
X00557878D01*
X00571207Y00559274D02*
X00570373Y00560107D01*
X00568707D01*
X00567874Y00559274D01*
Y00558441D01*
X00568707Y00557608D01*
X00570373D01*
X00571207Y00556775D01*
Y00555942D01*
X00570373Y00555109D01*
X00568707D01*
X00567874Y00555942D01*
X00572873Y00560107D02*
X00574539D01*
X00573706D01*
Y00555109D01*
X00572873D01*
X00574539D01*
X00577038Y00560107D02*
Y00555109D01*
X00579537D01*
X00580370Y00555942D01*
Y00559274D01*
X00579537Y00560107D01*
X00577038D01*
X00585369D02*
X00582036D01*
Y00555109D01*
X00585369D01*
X00582036Y00557608D02*
X00583703D01*
X00428753Y00451307D02*
Y00456305D01*
X00431252D01*
X00432085Y00455472D01*
Y00453806D01*
X00431252Y00452973D01*
X00428753D01*
X00433751Y00456305D02*
Y00451307D01*
X00437084D01*
X00441249Y00456305D02*
X00439583D01*
X00438750Y00455472D01*
Y00452140D01*
X00439583Y00451307D01*
X00441249D01*
X00442082Y00452140D01*
Y00455472D01*
X00441249Y00456305D01*
X00443748D02*
X00447080D01*
X00445414D01*
Y00451307D01*
X00453745D02*
Y00456305D01*
X00457077Y00451307D01*
Y00456305D01*
X00458743Y00451307D02*
Y00454639D01*
X00460410Y00456305D01*
X00462076Y00454639D01*
Y00451307D01*
Y00453806D01*
X00458743D01*
X00463742Y00451307D02*
Y00456305D01*
X00465408Y00454639D01*
X00467074Y00456305D01*
Y00451307D01*
X00472072Y00456305D02*
X00468740D01*
Y00451307D01*
X00472072D01*
X00468740Y00453806D02*
X00470406D01*
X00478737Y00452973D02*
X00482069D01*
X00478737Y00454639D02*
X00482069D01*
X00428753Y00508589D02*
Y00503591D01*
X00432085D01*
X00433751D02*
Y00506923D01*
X00435418Y00508589D01*
X00437084Y00506923D01*
Y00503591D01*
Y00506090D01*
X00433751D01*
X00438750Y00508589D02*
Y00507756D01*
X00440416Y00506090D01*
X00442082Y00507756D01*
Y00508589D01*
X00440416Y00506090D02*
Y00503591D01*
X00447080Y00508589D02*
X00443748D01*
Y00503591D01*
X00447080D01*
X00443748Y00506090D02*
X00445414D01*
X00448747Y00503591D02*
Y00508589D01*
X00451246D01*
X00452079Y00507756D01*
Y00506090D01*
X00451246Y00505257D01*
X00448747D01*
X00450413D02*
X00452079Y00503591D01*
X00458743D02*
Y00508589D01*
X00462076Y00503591D01*
Y00508589D01*
X00463742Y00503591D02*
Y00506923D01*
X00465408Y00508589D01*
X00467074Y00506923D01*
Y00503591D01*
Y00506090D01*
X00463742D01*
X00468740Y00503591D02*
Y00508589D01*
X00470406Y00506923D01*
X00472072Y00508589D01*
Y00503591D01*
X00477071Y00508589D02*
X00473738D01*
Y00503591D01*
X00477071D01*
X00473738Y00506090D02*
X00475405D01*
X00483735Y00505257D02*
X00487067D01*
X00483735Y00506923D02*
X00487067D01*
X01057784Y00560107D02*
Y00555109D01*
X01060283D01*
X01061116Y00555942D01*
Y00556775D01*
X01060283Y00557608D01*
X01057784D01*
X01060283D01*
X01061116Y00558441D01*
Y00559274D01*
X01060283Y00560107D01*
X01057784D01*
X01065282D02*
X01063616D01*
X01062783Y00559274D01*
Y00555942D01*
X01063616Y00555109D01*
X01065282D01*
X01066115Y00555942D01*
Y00559274D01*
X01065282Y00560107D01*
X01067781Y00555109D02*
Y00558441D01*
X01069447Y00560107D01*
X01071113Y00558441D01*
Y00555109D01*
Y00557608D01*
X01067781D01*
X01072779Y00555109D02*
Y00560107D01*
X01075278D01*
X01076112Y00559274D01*
Y00557608D01*
X01075278Y00556775D01*
X01072779D01*
X01074445D02*
X01076112Y00555109D01*
X01077778Y00560107D02*
Y00555109D01*
X01080277D01*
X01081110Y00555942D01*
Y00559274D01*
X01080277Y00560107D01*
X01077778D01*
X01088607Y00555109D02*
Y00560107D01*
X01090274D02*
Y00555109D01*
X01087774Y00558441D02*
X01090274D01*
X01091107D01*
X01087774Y00556775D02*
X01091107D01*
X01092773Y00558441D02*
X01093606D01*
Y00557608D01*
X01092773D01*
Y00558441D01*
Y00555942D02*
X01093606D01*
Y00555109D01*
X01092773D01*
Y00555942D01*
X00633350Y00456305D02*
X00636682D01*
X00635016D01*
Y00451307D01*
X00638349Y00456305D02*
X00640015D01*
X00639182D01*
Y00451307D01*
X00638349D01*
X00640015D01*
X00642514Y00456305D02*
Y00451307D01*
X00645013D01*
X00645846Y00452140D01*
Y00455472D01*
X00645013Y00456305D01*
X00642514D01*
X00647512Y00451307D02*
Y00454639D01*
X00649178Y00456305D01*
X00650844Y00454639D01*
Y00451307D01*
Y00453806D01*
X00647512D01*
X00652511D02*
X00655843D01*
X00657509Y00455472D02*
X00658342Y00456305D01*
X00660008D01*
X00660841Y00455472D01*
Y00452140D01*
X00660008Y00451307D01*
X00658342D01*
X00657509Y00452140D01*
Y00455472D01*
X00662507Y00451307D02*
X00664173D01*
X00663340D01*
Y00456305D01*
X00662507Y00455472D01*
X00666673D02*
X00667506Y00456305D01*
X00669172D01*
X00670005Y00455472D01*
Y00452140D01*
X00669172Y00451307D01*
X00667506D01*
X00666673Y00452140D01*
Y00455472D01*
X00671671Y00452140D02*
X00672504Y00451307D01*
X00674170D01*
X00675003Y00452140D01*
Y00455472D01*
X00674170Y00456305D01*
X00672504D01*
X00671671Y00455472D01*
Y00454639D01*
X00672504Y00453806D01*
X00675003D01*
X00676669Y00455472D02*
X00677502Y00456305D01*
X00679168D01*
X00680002Y00455472D01*
Y00454639D01*
X00679168Y00453806D01*
X00678335D01*
X00679168D01*
X00680002Y00452973D01*
Y00452140D01*
X00679168Y00451307D01*
X00677502D01*
X00676669Y00452140D01*
X00681668Y00455472D02*
X00682501Y00456305D01*
X00684167D01*
X00685000Y00455472D01*
Y00454639D01*
X00684167Y00453806D01*
X00685000Y00452973D01*
Y00452140D01*
X00684167Y00451307D01*
X00682501D01*
X00681668Y00452140D01*
Y00452973D01*
X00682501Y00453806D01*
X00681668Y00454639D01*
Y00455472D01*
X00682501Y00453806D02*
X00684167D01*
X00691665Y00451307D02*
Y00454639D01*
X00693331Y00456305D01*
X00694997Y00454639D01*
Y00451307D01*
Y00453806D01*
X00691665D01*
X00699995Y00455472D02*
X00699162Y00456305D01*
X00697496D01*
X00696663Y00455472D01*
Y00452140D01*
X00697496Y00451307D01*
X00699162D01*
X00699995Y00452140D01*
X00701661Y00453806D02*
X00704993D01*
X00706659Y00456305D02*
Y00451307D01*
X00709159D01*
X00709992Y00452140D01*
Y00455472D01*
X00709159Y00456305D01*
X00706659D01*
X00714990Y00455472D02*
X00714157Y00456305D01*
X00712491D01*
X00711658Y00455472D01*
Y00452140D01*
X00712491Y00451307D01*
X00714157D01*
X00714990Y00452140D01*
X00719988Y00456305D02*
X00716656D01*
Y00451307D01*
X00719988D01*
X00716656Y00453806D02*
X00718322D01*
X00721655Y00451307D02*
X00723321D01*
X00722488D01*
Y00456305D01*
X00721655Y00455472D01*
X00725820Y00451307D02*
Y00452140D01*
X00726653D01*
Y00451307D01*
X00725820D01*
X00733317Y00455472D02*
X00732485Y00456305D01*
X00730818D01*
X00729985Y00455472D01*
Y00452140D01*
X00730818Y00451307D01*
X00732485D01*
X00733317Y00452140D01*
Y00453806D01*
X00731651D01*
X00734984Y00456305D02*
X00738316D01*
X00736650D01*
Y00451307D01*
X00743314Y00455472D02*
X00742481Y00456305D01*
X00740815D01*
X00739982Y00455472D01*
Y00454639D01*
X00740815Y00453806D01*
X00742481D01*
X00743314Y00452973D01*
Y00452140D01*
X00742481Y00451307D01*
X00740815D01*
X00739982Y00452140D01*
X01752220Y00555109D02*
Y00560107D01*
X01755552Y00555109D01*
Y00560107D01*
X01758052Y00555109D02*
X01759718D01*
X01760551Y00555942D01*
Y00557608D01*
X01759718Y00558441D01*
X01758052D01*
X01757218Y00557608D01*
Y00555942D01*
X01758052Y00555109D01*
X01763050Y00559274D02*
Y00558441D01*
X01762217D01*
X01763883D01*
X01763050D01*
Y00555942D01*
X01763883Y00555109D01*
X01771381D02*
X01773047D01*
X01772214D01*
Y00558441D01*
X01771381D01*
X01775546Y00555109D02*
Y00558441D01*
X01778045D01*
X01778878Y00557608D01*
Y00555109D01*
X01785543Y00558441D02*
X01787209Y00555109D01*
X01788875Y00558441D01*
X01793040Y00555109D02*
X01791374D01*
X01790541Y00555942D01*
Y00557608D01*
X01791374Y00558441D01*
X01793040D01*
X01793873Y00557608D01*
Y00556775D01*
X01790541D01*
X01795539Y00558441D02*
Y00555109D01*
Y00556775D01*
X01796372Y00557608D01*
X01797206Y00558441D01*
X01798038D01*
X01800538Y00555109D02*
X01803037D01*
X01803870Y00555942D01*
X01803037Y00556775D01*
X01801371D01*
X01800538Y00557608D01*
X01801371Y00558441D01*
X01803870D01*
X01805536Y00555109D02*
X01807202D01*
X01806369D01*
Y00558441D01*
X01805536D01*
X01810535Y00555109D02*
X01812201D01*
X01813034Y00555942D01*
Y00557608D01*
X01812201Y00558441D01*
X01810535D01*
X01809701Y00557608D01*
Y00555942D01*
X01810535Y00555109D01*
X01814700D02*
Y00558441D01*
X01817199D01*
X01818032Y00557608D01*
Y00555109D01*
X01828029Y00558441D02*
X01825530D01*
X01824697Y00557608D01*
Y00555942D01*
X01825530Y00555109D01*
X01828029D01*
X01830528D02*
X01832194D01*
X01833027Y00555942D01*
Y00557608D01*
X01832194Y00558441D01*
X01830528D01*
X01829695Y00557608D01*
Y00555942D01*
X01830528Y00555109D01*
X01834693D02*
Y00558441D01*
X01837192D01*
X01838026Y00557608D01*
Y00555109D01*
X01840525Y00559274D02*
Y00558441D01*
X01839692D01*
X01841358D01*
X01840525D01*
Y00555942D01*
X01841358Y00555109D01*
X01843857Y00558441D02*
Y00555109D01*
Y00556775D01*
X01844690Y00557608D01*
X01845523Y00558441D01*
X01846356D01*
X01849688Y00555109D02*
X01851355D01*
X01852188Y00555942D01*
Y00557608D01*
X01851355Y00558441D01*
X01849688D01*
X01848855Y00557608D01*
Y00555942D01*
X01849688Y00555109D01*
X01853854D02*
X01855520D01*
X01854687D01*
Y00560107D01*
X01853854D01*
X01410844Y00555109D02*
Y00560107D01*
X01413343D01*
X01414176Y00559274D01*
Y00557608D01*
X01413343Y00556775D01*
X01410844D01*
X01412510D02*
X01414176Y00555109D01*
X01419175Y00560107D02*
X01415842D01*
Y00555109D01*
X01419175D01*
X01415842Y00557608D02*
X01417509D01*
X01420841Y00560107D02*
Y00556775D01*
X01422507Y00555109D01*
X01424173Y00556775D01*
Y00560107D01*
X01425839Y00558441D02*
X01426672D01*
Y00557608D01*
X01425839D01*
Y00558441D01*
Y00555942D02*
X01426672D01*
Y00555109D01*
X01425839D01*
Y00555942D01*
X01488217Y00560107D02*
X01484885D01*
Y00555109D01*
X01488217D01*
X01484885Y00557608D02*
X01486551D01*
X01489884Y00555109D02*
X01491550D01*
X01490717D01*
Y00560107D01*
X01489884Y00559274D01*
X01627028D02*
X01626195Y00560107D01*
X01624529D01*
X01623696Y00559274D01*
Y00558441D01*
X01624529Y00557608D01*
X01626195D01*
X01627028Y00556775D01*
Y00555942D01*
X01626195Y00555109D01*
X01624529D01*
X01623696Y00555942D01*
X01628694Y00560107D02*
Y00556775D01*
X01630361Y00555109D01*
X01632027Y00556775D01*
Y00560107D01*
X01633693Y00555109D02*
Y00560107D01*
X01637025Y00555109D01*
Y00560107D01*
X01643690Y00555109D02*
Y00560107D01*
X01646189D01*
X01647022Y00559274D01*
Y00557608D01*
X01646189Y00556775D01*
X01643690D01*
X01645356D02*
X01647022Y00555109D01*
X01652020Y00560107D02*
X01648688D01*
Y00555109D01*
X01652020D01*
X01648688Y00557608D02*
X01650354D01*
X01653686Y00560107D02*
Y00556775D01*
X01655352Y00555109D01*
X01657019Y00556775D01*
Y00560107D01*
X01658685Y00558441D02*
X01659518D01*
Y00557608D01*
X01658685D01*
Y00558441D01*
Y00555942D02*
X01659518D01*
Y00555109D01*
X01658685D01*
Y00555942D01*
X01785494Y00456305D02*
X01788826D01*
X01787160D01*
Y00451307D01*
X01793825Y00456305D02*
X01790493D01*
Y00451307D01*
X01793825D01*
X01790493Y00453806D02*
X01792159D01*
X01795491Y00456305D02*
X01798823Y00451307D01*
Y00456305D02*
X01795491Y00451307D01*
X01800489D02*
Y00454639D01*
X01802155Y00456305D01*
X01803822Y00454639D01*
Y00451307D01*
Y00453806D01*
X01800489D01*
X01808820Y00455472D02*
X01807987Y00456305D01*
X01806321D01*
X01805488Y00455472D01*
Y00454639D01*
X01806321Y00453806D01*
X01807987D01*
X01808820Y00452973D01*
Y00452140D01*
X01807987Y00451307D01*
X01806321D01*
X01805488Y00452140D01*
X01815484Y00456305D02*
X01817151D01*
X01816317D01*
Y00451307D01*
X01815484D01*
X01817151D01*
X01819650D02*
Y00456305D01*
X01822982Y00451307D01*
Y00456305D01*
X01827980Y00455472D02*
X01827147Y00456305D01*
X01825481D01*
X01824648Y00455472D01*
Y00454639D01*
X01825481Y00453806D01*
X01827147D01*
X01827980Y00452973D01*
Y00452140D01*
X01827147Y00451307D01*
X01825481D01*
X01824648Y00452140D01*
X01829646Y00456305D02*
X01832979D01*
X01831313D01*
Y00451307D01*
X01834645D02*
Y00456305D01*
X01837144D01*
X01837977Y00455472D01*
Y00453806D01*
X01837144Y00452973D01*
X01834645D01*
X01836311D02*
X01837977Y00451307D01*
X01839643Y00456305D02*
Y00452140D01*
X01840476Y00451307D01*
X01842142D01*
X01842975Y00452140D01*
Y00456305D01*
X01844642Y00451307D02*
Y00456305D01*
X01846308Y00454639D01*
X01847974Y00456305D01*
Y00451307D01*
X01852972Y00456305D02*
X01849640D01*
Y00451307D01*
X01852972D01*
X01849640Y00453806D02*
X01851306D01*
X01854638Y00451307D02*
Y00456305D01*
X01857970Y00451307D01*
Y00456305D01*
X01859637D02*
X01862969D01*
X01861303D01*
Y00451307D01*
X01867967Y00455472D02*
X01867134Y00456305D01*
X01865468D01*
X01864635Y00455472D01*
Y00454639D01*
X01865468Y00453806D01*
X01867134D01*
X01867967Y00452973D01*
Y00452140D01*
X01867134Y00451307D01*
X01865468D01*
X01864635Y00452140D01*
X01196341Y00560107D02*
X01199673D01*
X01198007D01*
Y00555109D01*
X01201339Y00560107D02*
X01203006D01*
X01202173D01*
Y00555109D01*
X01201339D01*
X01203006D01*
X01205505Y00560107D02*
Y00555109D01*
X01208004D01*
X01208837Y00555942D01*
Y00559274D01*
X01208004Y00560107D01*
X01205505D01*
X01210503Y00555109D02*
Y00558441D01*
X01212169Y00560107D01*
X01213836Y00558441D01*
Y00555109D01*
Y00557608D01*
X01210503D01*
X01215502D02*
X01218834D01*
X01220500Y00559274D02*
X01221333Y00560107D01*
X01222999D01*
X01223832Y00559274D01*
Y00555942D01*
X01222999Y00555109D01*
X01221333D01*
X01220500Y00555942D01*
Y00559274D01*
X01225498Y00555109D02*
X01227164D01*
X01226331D01*
Y00560107D01*
X01225498Y00559274D01*
X01229664D02*
X01230497Y00560107D01*
X01232163D01*
X01232996Y00559274D01*
Y00555942D01*
X01232163Y00555109D01*
X01230497D01*
X01229664Y00555942D01*
Y00559274D01*
X01234662Y00555942D02*
X01235495Y00555109D01*
X01237161D01*
X01237994Y00555942D01*
Y00559274D01*
X01237161Y00560107D01*
X01235495D01*
X01234662Y00559274D01*
Y00558441D01*
X01235495Y00557608D01*
X01237994D01*
X01239660Y00559274D02*
X01240493Y00560107D01*
X01242160D01*
X01242993Y00559274D01*
Y00558441D01*
X01242160Y00557608D01*
X01241327D01*
X01242160D01*
X01242993Y00556775D01*
Y00555942D01*
X01242160Y00555109D01*
X01240493D01*
X01239660Y00555942D01*
X01244659Y00559274D02*
X01245492Y00560107D01*
X01247158D01*
X01247991Y00559274D01*
Y00558441D01*
X01247158Y00557608D01*
X01247991Y00556775D01*
Y00555942D01*
X01247158Y00555109D01*
X01245492D01*
X01244659Y00555942D01*
Y00556775D01*
X01245492Y00557608D01*
X01244659Y00558441D01*
Y00559274D01*
X01245492Y00557608D02*
X01247158D01*
X01254656Y00555109D02*
Y00558441D01*
X01256322Y00560107D01*
X01257988Y00558441D01*
Y00555109D01*
Y00557608D01*
X01254656D01*
X01262986Y00559274D02*
X01262153Y00560107D01*
X01260487D01*
X01259654Y00559274D01*
Y00555942D01*
X01260487Y00555109D01*
X01262153D01*
X01262986Y00555942D01*
X01264652Y00557608D02*
X01267984D01*
X01269650Y00560107D02*
Y00555109D01*
X01272150D01*
X01272983Y00555942D01*
Y00559274D01*
X01272150Y00560107D01*
X01269650D01*
X01277981Y00559274D02*
X01277148Y00560107D01*
X01275482D01*
X01274649Y00559274D01*
Y00555942D01*
X01275482Y00555109D01*
X01277148D01*
X01277981Y00555942D01*
X01057784Y00508460D02*
X01061116D01*
X01059450D01*
Y00503462D01*
X01062783Y00508460D02*
X01064449D01*
X01063616D01*
Y00503462D01*
X01062783D01*
X01064449D01*
X01066948Y00508460D02*
Y00503462D01*
X01069447D01*
X01070280Y00504295D01*
Y00507627D01*
X01069447Y00508460D01*
X01066948D01*
X01077778Y00503462D02*
Y00508460D01*
X01079444D02*
Y00503462D01*
X01076945Y00506794D02*
X01079444D01*
X01080277D01*
X01076945Y00505128D02*
X01080277D01*
X01081943Y00506794D02*
X01082776D01*
Y00505961D01*
X01081943D01*
Y00506794D01*
Y00504295D02*
X01082776D01*
Y00503462D01*
X01081943D01*
Y00504295D01*
X01061624Y00455472D02*
X01060791Y00456305D01*
X01059125D01*
X01058292Y00455472D01*
Y00452140D01*
X01059125Y00451307D01*
X01060791D01*
X01061624Y00452140D01*
Y00453806D01*
X01059958D01*
X01066623Y00456305D02*
X01063290D01*
Y00451307D01*
X01066623D01*
X01063290Y00453806D02*
X01064957D01*
X01068289Y00451307D02*
Y00456305D01*
X01071621Y00451307D01*
Y00456305D01*
X01076619D02*
X01073287D01*
Y00451307D01*
X01076619D01*
X01073287Y00453806D02*
X01074953D01*
X01078286Y00451307D02*
Y00456305D01*
X01080785D01*
X01081618Y00455472D01*
Y00453806D01*
X01080785Y00452973D01*
X01078286D01*
X01079952D02*
X01081618Y00451307D01*
X01083284D02*
Y00454639D01*
X01084950Y00456305D01*
X01086616Y00454639D01*
Y00451307D01*
Y00453806D01*
X01083284D01*
X01088282Y00456305D02*
X01091615D01*
X01089949D01*
Y00451307D01*
X01096613Y00456305D02*
X01093281D01*
Y00451307D01*
X01096613D01*
X01093281Y00453806D02*
X01094947D01*
X01098279Y00456305D02*
Y00451307D01*
X01100778D01*
X01101611Y00452140D01*
Y00455472D01*
X01100778Y00456305D01*
X01098279D01*
X01123271Y00454639D02*
X01124104D01*
Y00453806D01*
X01123271D01*
Y00454639D01*
Y00452140D02*
X01124104D01*
Y00451307D01*
X01123271D01*
Y00452140D01*
X01464311Y00451307D02*
X01465977D01*
X01465144D01*
Y00456305D01*
X01464311Y00455472D01*
X01468477D02*
X01469310Y00456305D01*
X01470976D01*
X01471809Y00455472D01*
Y00452140D01*
X01470976Y00451307D01*
X01469310D01*
X01468477Y00452140D01*
Y00455472D01*
X01473475Y00454639D02*
X01474308D01*
Y00453806D01*
X01473475D01*
Y00454639D01*
Y00452140D02*
X01474308D01*
Y00451307D01*
X01473475D01*
Y00452140D01*
X01477640Y00451307D02*
X01479306D01*
X01478473D01*
Y00456305D01*
X01477640Y00455472D01*
X01484305Y00451307D02*
Y00456305D01*
X01481806Y00453806D01*
X01485138D01*
X01486804Y00454639D02*
X01487637D01*
Y00453806D01*
X01486804D01*
Y00454639D01*
Y00452140D02*
X01487637D01*
Y00451307D01*
X01486804D01*
Y00452140D01*
X01494301Y00456305D02*
X01490969D01*
Y00453806D01*
X01492635Y00454639D01*
X01493468D01*
X01494301Y00453806D01*
Y00452140D01*
X01493468Y00451307D01*
X01491802D01*
X01490969Y00452140D01*
X01498467Y00451307D02*
Y00456305D01*
X01495968Y00453806D01*
X01499300D01*
X01505964Y00451307D02*
Y00454639D01*
X01507630Y00456305D01*
X01509297Y00454639D01*
Y00451307D01*
Y00453806D01*
X01505964D01*
X01510963Y00451307D02*
Y00456305D01*
X01512629Y00454639D01*
X01514295Y00456305D01*
Y00451307D01*
X01196341Y00503462D02*
Y00506794D01*
X01198007Y00508460D01*
X01199673Y00506794D01*
Y00503462D01*
Y00505961D01*
X01196341D01*
X01201339Y00507627D02*
X01202173Y00508460D01*
X01203839D01*
X01204672Y00507627D01*
Y00504295D01*
X01203839Y00503462D01*
X01202173D01*
X01201339Y00504295D01*
Y00507627D01*
X01208837Y00503462D02*
Y00508460D01*
X01206338Y00505961D01*
X01209670D01*
X01211336Y00504295D02*
X01212169Y00503462D01*
X01213835D01*
X01214669Y00504295D01*
Y00507627D01*
X01213835Y00508460D01*
X01212169D01*
X01211336Y00507627D01*
Y00506794D01*
X01212169Y00505961D01*
X01214669D01*
X01216335Y00507627D02*
X01217168Y00508460D01*
X01218834D01*
X01219667Y00507627D01*
Y00506794D01*
X01218834Y00505961D01*
X01219667Y00505128D01*
Y00504295D01*
X01218834Y00503462D01*
X01217168D01*
X01216335Y00504295D01*
Y00505128D01*
X01217168Y00505961D01*
X01216335Y00506794D01*
Y00507627D01*
X01217168Y00505961D02*
X01218834D01*
X01221333Y00503462D02*
X01222999D01*
X01222166D01*
Y00508460D01*
X01221333Y00507627D01*
X01225498Y00508460D02*
X01228831D01*
Y00507627D01*
X01225498Y00504295D01*
Y00503462D01*
X01233829Y00508460D02*
X01232163Y00507627D01*
X01230497Y00505961D01*
Y00504295D01*
X01231330Y00503462D01*
X01232996D01*
X01233829Y00504295D01*
Y00505128D01*
X01232996Y00505961D01*
X01230497D01*
X01279145Y00451307D02*
X01280811D01*
X01279978D01*
Y00456305D01*
X01279145Y00455472D01*
X01286643Y00451307D02*
X01283311D01*
X01286643Y00454639D01*
Y00455472D01*
X01285810Y00456305D01*
X01284144D01*
X01283311Y00455472D01*
X01288309Y00451307D02*
X01291641Y00454639D01*
X01293307Y00455472D02*
X01294140Y00456305D01*
X01295806D01*
X01296640Y00455472D01*
Y00454639D01*
X01295806Y00453806D01*
X01294973D01*
X01295806D01*
X01296640Y00452973D01*
Y00452140D01*
X01295806Y00451307D01*
X01294140D01*
X01293307Y00452140D01*
X01298306Y00451307D02*
X01301638Y00454639D01*
X01306636Y00451307D02*
X01303304D01*
X01306636Y00454639D01*
Y00455472D01*
X01305803Y00456305D01*
X01304137D01*
X01303304Y00455472D01*
X01308302D02*
X01309135Y00456305D01*
X01310802D01*
X01311635Y00455472D01*
Y00452140D01*
X01310802Y00451307D01*
X01309135D01*
X01308302Y00452140D01*
Y00455472D01*
X01316633Y00451307D02*
X01313301D01*
X01316633Y00454639D01*
Y00455472D01*
X01315800Y00456305D01*
X01314134D01*
X01313301Y00455472D01*
X01318299D02*
X01319132Y00456305D01*
X01320798D01*
X01321631Y00455472D01*
Y00454639D01*
X01320798Y00453806D01*
X01319965D01*
X01320798D01*
X01321631Y00452973D01*
Y00452140D01*
X01320798Y00451307D01*
X01319132D01*
X01318299Y00452140D01*
G54D38*
X02532022Y01825107D02*
D03*
X02546022D02*
D03*
X01111522Y02732857D02*
D03*
X01125522D02*
D03*
X01715262Y02160897D02*
D03*
X01729262D02*
D03*
X01260022Y02162357D02*
D03*
X01246022D02*
D03*
X01553022Y02599357D02*
D03*
X01539022D02*
D03*
X02875522Y02267857D02*
D03*
X02861522D02*
D03*
X01671422Y02447997D02*
D03*
X01685422D02*
D03*
X01891272Y02660939D02*
D03*
X01905272D02*
D03*
X02430522Y01725357D02*
D03*
X02416522D02*
D03*
G54D41*
X02876022Y01570207D02*
D03*
X02850622Y01618507D02*
D03*
X02901422D02*
D03*
G54D42*
X01843475Y02346563D02*
D03*
X01858975D02*
D03*
X02888772Y02476857D02*
D03*
X02873272D02*
D03*
X01799906Y02257667D02*
D03*
X01815406D02*
D03*
X01799906Y02272907D02*
D03*
X01815406D02*
D03*
G54D43*
X00846522Y02162627D02*
D03*
Y02150087D02*
D03*
X01037371Y02212365D02*
D03*
Y02199825D02*
D03*
X00851734Y02223967D02*
D03*
Y02211427D02*
D03*
X00836562Y02485587D02*
D03*
Y02473047D02*
D03*
X01034791Y02590985D02*
D03*
Y02603524D02*
D03*
X00798462Y02625940D02*
D03*
Y02638480D02*
D03*
X00849154Y02603617D02*
D03*
Y02591077D02*
D03*
G54D45*
X00756772Y02845357D02*
D03*
X00850272D02*
D03*
Y02955357D02*
D03*
X00756772D02*
D03*
G54D47*
X01803722Y02174357D02*
D03*
X01854522D02*
D03*
X01905322D02*
D03*
X01778322Y02206407D02*
D03*
X01829122D02*
D03*
X01879922D02*
D03*
X01930722D02*
D03*
G54D49*
X01128972Y02646107D02*
D03*
X01141672D02*
D03*
X01154372D02*
D03*
X01167072D02*
D03*
Y02700107D02*
D03*
X01154372D02*
D03*
X01141672D02*
D03*
X01128972D02*
D03*
G54D52*
X02149022Y02633857D02*
D03*
Y02627357D02*
D03*
Y02614357D02*
D03*
Y02607857D02*
D03*
X02248522Y02536357D02*
D03*
Y02542857D02*
D03*
Y02549357D02*
D03*
Y02555857D02*
D03*
Y02562357D02*
D03*
Y02568857D02*
D03*
Y02575357D02*
D03*
Y02581857D02*
D03*
Y02588357D02*
D03*
Y02594857D02*
D03*
Y02601357D02*
D03*
Y02607857D02*
D03*
Y02614357D02*
D03*
Y02620857D02*
D03*
Y02627357D02*
D03*
Y02633857D02*
D03*
Y02640357D02*
D03*
Y02646857D02*
D03*
X02149022D02*
D03*
Y02640357D02*
D03*
Y02620857D02*
D03*
Y02601357D02*
D03*
Y02594857D02*
D03*
Y02588357D02*
D03*
Y02581857D02*
D03*
Y02575357D02*
D03*
Y02568857D02*
D03*
Y02562357D02*
D03*
Y02555857D02*
D03*
Y02549357D02*
D03*
Y02542857D02*
D03*
Y02536357D02*
D03*
G54D54*
X02089772Y02595607D02*
D03*
Y02609607D02*
D03*
X02993522Y01797357D02*
D03*
Y01783357D02*
D03*
X03011022Y02557357D02*
D03*
Y02543357D02*
D03*
X01881352Y02406007D02*
D03*
Y02392007D02*
D03*
X02149522Y02662357D02*
D03*
Y02676357D02*
D03*
G54D55*
X02303772Y02579857D02*
D03*
Y02595357D02*
D03*
X01858522Y02274607D02*
D03*
Y02290107D02*
D03*
G54D59*
X01400022Y02597607D02*
D03*
X01387022Y02578107D02*
D03*
X01393522D02*
D03*
X01400022D02*
D03*
X01393522Y02597607D02*
D03*
X01387022D02*
D03*
G54D61*
X01378482Y02201207D02*
D03*
Y02188507D02*
D03*
Y02175807D02*
D03*
Y02150407D02*
D03*
Y02137707D02*
D03*
Y02125007D02*
D03*
X01324482D02*
D03*
Y02137707D02*
D03*
Y02150407D02*
D03*
Y02163107D02*
D03*
Y02175807D02*
D03*
Y02188507D02*
D03*
Y02201207D02*
D03*
X01378482Y02163107D02*
D03*
X01596055Y02121127D02*
D03*
Y02133827D02*
D03*
Y02146527D02*
D03*
Y02171927D02*
D03*
Y02184627D02*
D03*
Y02197327D02*
D03*
X01650055D02*
D03*
Y02184627D02*
D03*
Y02171927D02*
D03*
Y02159227D02*
D03*
Y02146527D02*
D03*
Y02133827D02*
D03*
Y02121127D02*
D03*
X01596055Y02159227D02*
D03*
X02452772Y01740307D02*
D03*
Y01753007D02*
D03*
Y01765707D02*
D03*
Y01778407D02*
D03*
X02506772D02*
D03*
Y01765707D02*
D03*
Y01753007D02*
D03*
Y01740307D02*
D03*
G54D66*
X02836272Y02325607D02*
D03*
X02868772Y02425107D02*
D03*
X02875272D02*
D03*
X02836272D02*
D03*
X02842772D02*
D03*
X02933772Y02325607D02*
D03*
X02927272D02*
D03*
X02920772D02*
D03*
X02914272D02*
D03*
X02907772D02*
D03*
X02901272D02*
D03*
X02894772D02*
D03*
X02888272D02*
D03*
X02881772D02*
D03*
X02875272D02*
D03*
X02868772D02*
D03*
X02849272D02*
D03*
X02829772D02*
D03*
X02823272D02*
D03*
X02862272D02*
D03*
X02855772D02*
D03*
X02823272Y02425107D02*
D03*
X02829772D02*
D03*
X02855772D02*
D03*
X02862272D02*
D03*
X02881772D02*
D03*
X02888272D02*
D03*
X02894772D02*
D03*
X02901272D02*
D03*
X02907772D02*
D03*
X02914272D02*
D03*
X02920772D02*
D03*
X02927272D02*
D03*
X02933772D02*
D03*
X02842772Y02325607D02*
D03*
X02849272Y02425107D02*
D03*
G54D67*
X02831022Y02525107D02*
D03*
Y02511607D02*
D03*
X02832522Y02673107D02*
D03*
Y02659607D02*
D03*
X02474522Y02512607D02*
D03*
Y02526107D02*
D03*
X02479022Y02654607D02*
D03*
Y02668107D02*
D03*
X02335272Y02526107D02*
D03*
Y02512607D02*
D03*
G54D68*
X02956772Y02670357D02*
D03*
X02970272D02*
D03*
G54D71*
X00897322Y02097047D02*
D03*
Y02109747D02*
D03*
Y02122447D02*
D03*
Y02135147D02*
D03*
Y02147847D02*
D03*
Y02160547D02*
D03*
Y02173247D02*
D03*
Y02185947D02*
D03*
Y02198647D02*
D03*
Y02211347D02*
D03*
X00994322D02*
D03*
Y02198647D02*
D03*
Y02185947D02*
D03*
Y02173247D02*
D03*
Y02147847D02*
D03*
Y02135147D02*
D03*
Y02122447D02*
D03*
Y02109747D02*
D03*
Y02097047D02*
D03*
Y02160547D02*
D03*
X00988962Y02527577D02*
D03*
Y02552977D02*
D03*
Y02489477D02*
D03*
Y02502177D02*
D03*
Y02514877D02*
D03*
Y02540277D02*
D03*
Y02565677D02*
D03*
Y02578377D02*
D03*
Y02591077D02*
D03*
Y02603777D02*
D03*
X00891962D02*
D03*
Y02591077D02*
D03*
Y02578377D02*
D03*
Y02565677D02*
D03*
Y02552977D02*
D03*
Y02540277D02*
D03*
Y02527577D02*
D03*
Y02514877D02*
D03*
Y02502177D02*
D03*
Y02489477D02*
D03*
G54D74*
X00806022Y02211857D02*
D03*
Y02203857D02*
D03*
G54D79*
X01560472Y02680518D02*
D03*
X01547772D02*
D03*
X01535072D02*
D03*
X01522372D02*
D03*
X01509672D02*
D03*
X01496972D02*
D03*
X01484272D02*
D03*
X01471572D02*
D03*
G54D80*
X01490622Y02778018D02*
D03*
X01541422D02*
D03*
G54D82*
X00820772Y02428107D02*
D03*
X00795772D02*
D03*
Y02382607D02*
D03*
X00820772D02*
D03*
G54D83*
X00798772Y02362357D02*
D03*
Y02341357D02*
D03*
X00819772Y02362357D02*
D03*
Y02341357D02*
D03*
G54D84*
X02430272Y02457607D02*
D03*
X02479272D02*
D03*
X02875022Y02737357D02*
D03*
X02826022D02*
D03*
G54D85*
X00805002Y02609067D02*
D03*
X00797002D02*
D03*
G54D86*
X00807022Y02274357D02*
D03*
X00786022D02*
D03*
X00807022Y02254357D02*
D03*
X00786022D02*
D03*
G54D87*
X00870272Y02251857D02*
D03*
Y02276857D02*
D03*
X00824772D02*
D03*
Y02251857D02*
D03*
G54D89*
X01964522Y02234607D02*
D03*
Y02218607D02*
D03*
X02225522Y02206107D02*
D03*
Y02190107D02*
D03*
X01738022Y02598857D02*
D03*
Y02582857D02*
D03*
X01781022Y02543607D02*
D03*
Y02527607D02*
D03*
X02008772Y02587857D02*
D03*
Y02571857D02*
D03*
X02577022Y01809107D02*
D03*
Y01825107D02*
D03*
X02560022Y01809357D02*
D03*
Y01825357D02*
D03*
X02543522Y01808357D02*
D03*
Y01792357D02*
D03*
X02631772Y01805107D02*
D03*
Y01789107D02*
D03*
X02597522Y01851607D02*
D03*
Y01835607D02*
D03*
X03066022Y01583357D02*
D03*
Y01567357D02*
D03*
X02523522Y01752357D02*
D03*
Y01768357D02*
D03*
X01757564Y02488117D02*
D03*
Y02504117D02*
D03*
X02849522Y02689357D02*
D03*
Y02705357D02*
D03*
X01013522Y02647357D02*
D03*
Y02663357D02*
D03*
Y02698357D02*
D03*
Y02682357D02*
D03*
X02948522Y02742357D02*
D03*
Y02726357D02*
D03*
X02219522Y02413357D02*
D03*
Y02429357D02*
D03*
X01663522Y02279357D02*
D03*
Y02295357D02*
D03*
X01495522Y02278357D02*
D03*
Y02294357D02*
D03*
X01721522Y02312357D02*
D03*
Y02296357D02*
D03*
X01186772Y02721357D02*
D03*
Y02705357D02*
D03*
X01204022Y02721357D02*
D03*
Y02705357D02*
D03*
X01131022Y02588357D02*
D03*
Y02572357D02*
D03*
X01525832Y02212727D02*
D03*
Y02228727D02*
D03*
X01566142Y02142027D02*
D03*
Y02158027D02*
D03*
X01525832Y02177167D02*
D03*
Y02193167D02*
D03*
X01546272Y02157607D02*
D03*
Y02141607D02*
D03*
X01546772Y02177107D02*
D03*
Y02193107D02*
D03*
X01566472Y02193167D02*
D03*
Y02177167D02*
D03*
X01525832Y02122047D02*
D03*
Y02106047D02*
D03*
X01546152Y02122047D02*
D03*
Y02106047D02*
D03*
X01566142Y02122087D02*
D03*
Y02106087D02*
D03*
X01525502Y02142027D02*
D03*
Y02158027D02*
D03*
X01545772Y02229357D02*
D03*
Y02213357D02*
D03*
X01566472Y02228727D02*
D03*
Y02212727D02*
D03*
X01449172Y02112137D02*
D03*
Y02128137D02*
D03*
X01428852D02*
D03*
Y02112137D02*
D03*
X01408532Y02112137D02*
D03*
Y02128137D02*
D03*
X01323542Y02221147D02*
D03*
Y02237147D02*
D03*
X01292512Y02202117D02*
D03*
Y02218117D02*
D03*
X01274732Y02218117D02*
D03*
Y02202117D02*
D03*
X01256952Y02218117D02*
D03*
Y02202117D02*
D03*
X01294722Y02124137D02*
D03*
Y02108137D02*
D03*
X01274402D02*
D03*
Y02124137D02*
D03*
X01218522Y02126297D02*
D03*
Y02142297D02*
D03*
X01428852Y02161157D02*
D03*
Y02145157D02*
D03*
X01449172Y02161157D02*
D03*
Y02145157D02*
D03*
X01408532Y02214497D02*
D03*
Y02198497D02*
D03*
Y02145157D02*
D03*
Y02161157D02*
D03*
X02036522Y02459357D02*
D03*
Y02475357D02*
D03*
X02286772Y02613607D02*
D03*
Y02629607D02*
D03*
X02125772Y02593607D02*
D03*
Y02609607D02*
D03*
X02108022Y02643357D02*
D03*
Y02627357D02*
D03*
X02126272Y02656357D02*
D03*
Y02640357D02*
D03*
X02318772Y02580607D02*
D03*
Y02596607D02*
D03*
X02071772Y02613607D02*
D03*
Y02597607D02*
D03*
X02287772Y02579607D02*
D03*
Y02595607D02*
D03*
X02054772Y02597607D02*
D03*
Y02613607D02*
D03*
X02270772Y02579607D02*
D03*
Y02595607D02*
D03*
X01643772Y02278607D02*
D03*
Y02294607D02*
D03*
X01624522Y02278607D02*
D03*
Y02294607D02*
D03*
X01187872Y02448747D02*
D03*
Y02464747D02*
D03*
X01256772Y02278607D02*
D03*
Y02294607D02*
D03*
X01226272Y02332357D02*
D03*
Y02316357D02*
D03*
X01705522Y02488107D02*
D03*
Y02504107D02*
D03*
X01356022Y02579357D02*
D03*
Y02595357D02*
D03*
X01777522Y02487357D02*
D03*
Y02503357D02*
D03*
X01566662Y02278267D02*
D03*
Y02294267D02*
D03*
X01584442Y02278267D02*
D03*
Y02294267D02*
D03*
X01604762Y02278267D02*
D03*
Y02294267D02*
D03*
X01548882Y02278267D02*
D03*
Y02294267D02*
D03*
X01559042Y02317867D02*
D03*
Y02333867D02*
D03*
X01576822Y02317487D02*
D03*
Y02333487D02*
D03*
X01614922Y02317867D02*
D03*
Y02333867D02*
D03*
X01594602Y02317867D02*
D03*
Y02333867D02*
D03*
X01541262Y02317867D02*
D03*
Y02333867D02*
D03*
X01205652Y02448747D02*
D03*
Y02464747D02*
D03*
X01216142Y02485337D02*
D03*
Y02501337D02*
D03*
X01228512Y02449127D02*
D03*
Y02465127D02*
D03*
X01239772Y02294357D02*
D03*
Y02278357D02*
D03*
X01263272Y02332607D02*
D03*
Y02316607D02*
D03*
X01387022Y02486607D02*
D03*
Y02502607D02*
D03*
X01439022Y02294857D02*
D03*
Y02278857D02*
D03*
X01413552Y02448617D02*
D03*
Y02464617D02*
D03*
X01431332Y02448617D02*
D03*
Y02464617D02*
D03*
X01451522Y02447857D02*
D03*
Y02463857D02*
D03*
X01470142Y02447617D02*
D03*
Y02463617D02*
D03*
X01242772Y02332357D02*
D03*
Y02316357D02*
D03*
X01372522Y02450107D02*
D03*
Y02466107D02*
D03*
X01433022Y02334107D02*
D03*
Y02318107D02*
D03*
X01437697Y02485337D02*
D03*
Y02501337D02*
D03*
X01457112Y02485337D02*
D03*
Y02501337D02*
D03*
X01495942Y02485115D02*
D03*
Y02501115D02*
D03*
X01534772Y02485107D02*
D03*
Y02501107D02*
D03*
X01556022Y02485857D02*
D03*
Y02501857D02*
D03*
X01515357Y02485337D02*
D03*
Y02501337D02*
D03*
X01577437Y02485607D02*
D03*
Y02501607D02*
D03*
X01487922Y02447617D02*
D03*
Y02463617D02*
D03*
X01505702Y02447997D02*
D03*
Y02463997D02*
D03*
X01523482Y02447997D02*
D03*
Y02463997D02*
D03*
X01546342Y02447997D02*
D03*
Y02463997D02*
D03*
X01564122Y02447997D02*
D03*
Y02463997D02*
D03*
X01581902Y02447617D02*
D03*
Y02463617D02*
D03*
X01599682Y02447617D02*
D03*
Y02463617D02*
D03*
X01617462Y02447237D02*
D03*
Y02463237D02*
D03*
X01635242Y02463617D02*
D03*
Y02447617D02*
D03*
X01604762Y02485337D02*
D03*
Y02501337D02*
D03*
X01622542Y02485337D02*
D03*
Y02501337D02*
D03*
X01476527Y02485115D02*
D03*
Y02501115D02*
D03*
X01412272Y02545357D02*
D03*
Y02561357D02*
D03*
X01428522D02*
D03*
Y02545357D02*
D03*
X01295522Y02449607D02*
D03*
Y02465607D02*
D03*
X01604522Y02256357D02*
D03*
Y02240357D02*
D03*
X01302534Y02486058D02*
D03*
Y02502058D02*
D03*
X02763522Y02511607D02*
D03*
Y02495607D02*
D03*
X02780522Y02511357D02*
D03*
Y02495357D02*
D03*
X02823522Y02478357D02*
D03*
Y02462357D02*
D03*
X03043022Y02380607D02*
D03*
Y02364607D02*
D03*
X02755522Y02639357D02*
D03*
Y02655357D02*
D03*
X02772522Y02653357D02*
D03*
Y02637357D02*
D03*
X02806522Y02653357D02*
D03*
Y02637357D02*
D03*
X02839522Y02582357D02*
D03*
Y02598357D02*
D03*
X02854522Y02582357D02*
D03*
Y02598357D02*
D03*
X02869522Y02582357D02*
D03*
Y02598357D02*
D03*
X02884522Y02582357D02*
D03*
Y02598357D02*
D03*
X02963522Y02533357D02*
D03*
Y02517357D02*
D03*
X02731272Y02511857D02*
D03*
Y02495857D02*
D03*
X02747772Y02511857D02*
D03*
Y02495857D02*
D03*
X02797522Y02511357D02*
D03*
Y02495357D02*
D03*
X02806022Y02424357D02*
D03*
Y02440357D02*
D03*
X03051022Y02413357D02*
D03*
Y02397357D02*
D03*
X03061022Y02380857D02*
D03*
Y02364857D02*
D03*
X03073522Y02413357D02*
D03*
Y02397357D02*
D03*
X02789522Y02637357D02*
D03*
Y02653357D02*
D03*
X02907272Y02636107D02*
D03*
Y02652107D02*
D03*
X02890272Y02639857D02*
D03*
Y02655857D02*
D03*
X02873772Y02643107D02*
D03*
Y02659107D02*
D03*
X02924522Y02652107D02*
D03*
Y02636107D02*
D03*
X02941272Y02641107D02*
D03*
Y02657107D02*
D03*
X02508772Y02545857D02*
D03*
Y02529857D02*
D03*
X02525022Y02529607D02*
D03*
Y02545607D02*
D03*
X02558022Y02545607D02*
D03*
Y02529607D02*
D03*
X02574522Y02540107D02*
D03*
Y02524107D02*
D03*
X02505522Y02672357D02*
D03*
Y02688357D02*
D03*
X02523522Y02688357D02*
D03*
Y02672357D02*
D03*
X02541022Y02672607D02*
D03*
Y02688607D02*
D03*
X02558272Y02672607D02*
D03*
Y02688607D02*
D03*
X02576522Y02672607D02*
D03*
Y02688607D02*
D03*
X02168522Y02671357D02*
D03*
Y02687357D02*
D03*
X02232522Y02672357D02*
D03*
Y02688357D02*
D03*
X02305522Y02722857D02*
D03*
Y02706857D02*
D03*
X02541522Y02545607D02*
D03*
Y02529607D02*
D03*
X02894522Y02537357D02*
D03*
Y02553357D02*
D03*
X00834062Y02129177D02*
D03*
Y02113177D02*
D03*
X02738522Y02639357D02*
D03*
Y02655357D02*
D03*
X01843225Y02310623D02*
D03*
Y02326623D02*
D03*
X01861005Y02326623D02*
D03*
Y02310623D02*
D03*
X02743522Y01668357D02*
D03*
Y01652357D02*
D03*
X02723522Y01652357D02*
D03*
Y01668357D02*
D03*
X02433272Y02541357D02*
D03*
Y02525357D02*
D03*
X02399522Y02546357D02*
D03*
Y02530357D02*
D03*
X02416522Y02546357D02*
D03*
Y02530357D02*
D03*
X02364522Y02546607D02*
D03*
Y02530607D02*
D03*
X02382022Y02530357D02*
D03*
Y02546357D02*
D03*
X02347772Y02537607D02*
D03*
Y02553607D02*
D03*
X02346522Y02653357D02*
D03*
Y02637357D02*
D03*
X01843225Y02275063D02*
D03*
Y02291063D02*
D03*
X02269772Y02630607D02*
D03*
Y02646607D02*
D03*
X01521022Y02655107D02*
D03*
Y02639107D02*
D03*
X01501966Y02655007D02*
D03*
Y02639007D02*
D03*
X01463136Y02656151D02*
D03*
Y02640151D02*
D03*
X01482567Y02639387D02*
D03*
Y02655387D02*
D03*
X01443738Y02640151D02*
D03*
Y02656151D02*
D03*
X01943387Y02499644D02*
D03*
Y02483644D02*
D03*
X02832022Y01667357D02*
D03*
Y01683357D02*
D03*
X00831052Y02502847D02*
D03*
Y02518847D02*
D03*
X01325612Y02332747D02*
D03*
Y02316747D02*
D03*
X01343392Y02316367D02*
D03*
Y02332367D02*
D03*
X01254022Y02449607D02*
D03*
Y02465607D02*
D03*
X01297672Y02332367D02*
D03*
Y02316367D02*
D03*
X01246542Y02486077D02*
D03*
Y02502077D02*
D03*
X01279892Y02332367D02*
D03*
Y02316367D02*
D03*
X01500272Y02334357D02*
D03*
Y02318357D02*
D03*
X01475222Y02334247D02*
D03*
Y02318247D02*
D03*
X01520272Y02334357D02*
D03*
Y02318357D02*
D03*
X01391522Y02333857D02*
D03*
Y02317857D02*
D03*
X01421272Y02294857D02*
D03*
Y02278857D02*
D03*
X01273772Y02449107D02*
D03*
Y02465107D02*
D03*
X01371082Y02333867D02*
D03*
Y02317867D02*
D03*
X01359022Y02486607D02*
D03*
Y02502607D02*
D03*
X01329772Y02278517D02*
D03*
Y02294517D02*
D03*
X01358022Y02294607D02*
D03*
Y02278607D02*
D03*
X01274562Y02278647D02*
D03*
Y02294647D02*
D03*
X01513322Y02294267D02*
D03*
Y02278267D02*
D03*
X01456624Y02294607D02*
D03*
Y02278607D02*
D03*
X01476022Y02294357D02*
D03*
Y02278357D02*
D03*
X01351022Y02450357D02*
D03*
Y02466357D02*
D03*
X01263772Y02519107D02*
D03*
Y02535107D02*
D03*
X01413522Y02334107D02*
D03*
Y02318107D02*
D03*
X01383022Y02294607D02*
D03*
Y02278607D02*
D03*
X01855926Y02400785D02*
D03*
Y02416785D02*
D03*
X01311992Y02294517D02*
D03*
Y02278517D02*
D03*
X01292342Y02294647D02*
D03*
Y02278647D02*
D03*
X01263272Y02485607D02*
D03*
Y02501607D02*
D03*
X01285522Y02486357D02*
D03*
Y02502357D02*
D03*
X01653022Y02447617D02*
D03*
Y02463617D02*
D03*
X02451772Y01819107D02*
D03*
Y01803107D02*
D03*
X02538522Y01768357D02*
D03*
Y01752357D02*
D03*
X01395772Y02545357D02*
D03*
Y02561357D02*
D03*
X03128522Y01603357D02*
D03*
Y01587357D02*
D03*
X01924522Y02351357D02*
D03*
Y02335357D02*
D03*
X01965696Y02342737D02*
D03*
Y02358737D02*
D03*
X02475522Y02539357D02*
D03*
Y02555357D02*
D03*
G54D90*
X02045772Y02283607D02*
D03*
X02061772D02*
D03*
X02173252Y02151337D02*
D03*
X02157252D02*
D03*
X02063272Y02147857D02*
D03*
X02047272D02*
D03*
X01817772Y02561487D02*
D03*
X01801772D02*
D03*
X01964272Y02526107D02*
D03*
X01948272D02*
D03*
X01946522Y02669107D02*
D03*
X01930522D02*
D03*
X01817772Y02649607D02*
D03*
X01801772D02*
D03*
X02176272Y02285607D02*
D03*
X02160272D02*
D03*
X01817772Y02632607D02*
D03*
X01801772D02*
D03*
X01203021Y02524110D02*
D03*
X01219021D02*
D03*
X02613522Y01832607D02*
D03*
X02629522D02*
D03*
X02560522Y01791357D02*
D03*
X02576522D02*
D03*
X03003022Y02517857D02*
D03*
X03019022D02*
D03*
X00851039Y02182339D02*
D03*
X00867039D02*
D03*
X01060522Y02172857D02*
D03*
X01076522D02*
D03*
X01161022Y02607857D02*
D03*
X01177022D02*
D03*
X01159022Y02735357D02*
D03*
X01143022D02*
D03*
X01141522Y02607857D02*
D03*
X01125522D02*
D03*
X01723022Y02475357D02*
D03*
X01739022D02*
D03*
X02246022Y02462107D02*
D03*
X02262022D02*
D03*
X02292022Y02505607D02*
D03*
X02308022D02*
D03*
X02291902Y02491397D02*
D03*
X02307902D02*
D03*
X02292022Y02476607D02*
D03*
X02308022D02*
D03*
Y02462607D02*
D03*
X02292022D02*
D03*
X02780522Y02565357D02*
D03*
X02796522D02*
D03*
X02480522Y02681357D02*
D03*
X02464522D02*
D03*
X01492522Y02255357D02*
D03*
X01508522D02*
D03*
X01799022Y02455357D02*
D03*
X01783022D02*
D03*
X01141522Y02625357D02*
D03*
X01125522D02*
D03*
X01161522Y02625107D02*
D03*
X01177522D02*
D03*
X01195522Y02665357D02*
D03*
X01211522D02*
D03*
X01143022Y02717857D02*
D03*
X01159022D02*
D03*
X01124022D02*
D03*
X01108022D02*
D03*
X01651842Y02218374D02*
D03*
X01635842D02*
D03*
X01595202Y02100080D02*
D03*
X01611202D02*
D03*
X01651512Y02100097D02*
D03*
X01635512D02*
D03*
X01598122Y02218357D02*
D03*
X01614122D02*
D03*
X01681572Y02160477D02*
D03*
X01697572D02*
D03*
X01382342Y02224067D02*
D03*
X01366342D02*
D03*
X01276562Y02182177D02*
D03*
X01292562D02*
D03*
X01219552Y02197087D02*
D03*
X01235552D02*
D03*
X01235272Y02179357D02*
D03*
X01219272D02*
D03*
X01361262Y02104687D02*
D03*
X01377262D02*
D03*
X01292562Y02161857D02*
D03*
X01276562D02*
D03*
X01292182Y02141537D02*
D03*
X01276182D02*
D03*
X01238792Y02141117D02*
D03*
X01254792D02*
D03*
X01238792Y02123337D02*
D03*
X01254792D02*
D03*
X01238792Y02105557D02*
D03*
X01254792D02*
D03*
X01444092Y02198877D02*
D03*
X01460092D02*
D03*
X01443712Y02216657D02*
D03*
X01459712D02*
D03*
Y02178557D02*
D03*
X01443712D02*
D03*
X01424152D02*
D03*
X01408152D02*
D03*
X02170022Y02487607D02*
D03*
X02154022D02*
D03*
X02170022Y02471107D02*
D03*
X02154022D02*
D03*
X02170272Y02455107D02*
D03*
X02154272D02*
D03*
X02026772Y02442607D02*
D03*
X02042772D02*
D03*
X02167272Y02392107D02*
D03*
X02151272D02*
D03*
X02143772Y02342857D02*
D03*
X02127772D02*
D03*
X02167522Y02376107D02*
D03*
X02151522D02*
D03*
X02167522Y02359857D02*
D03*
X02151522D02*
D03*
X02069272Y02344107D02*
D03*
X02053272D02*
D03*
X02028272Y02361107D02*
D03*
X02044272D02*
D03*
X02028272Y02377107D02*
D03*
X02044272D02*
D03*
X02110022Y02425857D02*
D03*
X02126022D02*
D03*
X02170522Y02439107D02*
D03*
X02154522D02*
D03*
X02066022Y02426107D02*
D03*
X02050022D02*
D03*
X02168022Y02408857D02*
D03*
X02152022D02*
D03*
X02256772Y02755357D02*
D03*
X02272772D02*
D03*
X02086522Y02686607D02*
D03*
X02102522D02*
D03*
X02086522Y02671357D02*
D03*
X02102522D02*
D03*
X02136022Y02696107D02*
D03*
X02120022D02*
D03*
X02136272Y02710107D02*
D03*
X02120272D02*
D03*
X02096022Y02729607D02*
D03*
X02112022D02*
D03*
X02149022Y02730607D02*
D03*
X02133022D02*
D03*
X02096022Y02746607D02*
D03*
X02112022D02*
D03*
X01531772Y02255607D02*
D03*
X01547772D02*
D03*
X02629772Y01772357D02*
D03*
X02613772D02*
D03*
X01493022Y02520857D02*
D03*
X01477022D02*
D03*
X01592562Y02629087D02*
D03*
X01576562D02*
D03*
Y02611307D02*
D03*
X01592562D02*
D03*
X01592562Y02646867D02*
D03*
X01576562D02*
D03*
X01554622Y02617987D02*
D03*
X01538622D02*
D03*
X01538772Y02637107D02*
D03*
X01554772D02*
D03*
X01065542Y02489477D02*
D03*
X01049542D02*
D03*
X01583772Y02256107D02*
D03*
X01567772D02*
D03*
X02730522Y02424357D02*
D03*
X02746522D02*
D03*
Y02468357D02*
D03*
X02730522D02*
D03*
X02843772Y02288857D02*
D03*
X02827772D02*
D03*
X02860522Y02235357D02*
D03*
X02876522D02*
D03*
X02876522Y02302857D02*
D03*
X02860522D02*
D03*
X02831522Y02305607D02*
D03*
X02815522D02*
D03*
X02842272Y02445357D02*
D03*
X02826272D02*
D03*
X02856522Y02462857D02*
D03*
X02840522D02*
D03*
X02889522Y02445357D02*
D03*
X02873522D02*
D03*
X02889522Y02462357D02*
D03*
X02873522D02*
D03*
X03007522Y02385357D02*
D03*
X03023522D02*
D03*
X03008522Y02420357D02*
D03*
X03024522D02*
D03*
X02953772Y02439107D02*
D03*
X02969772D02*
D03*
X02746522Y02439357D02*
D03*
X02730522D02*
D03*
X02746522Y02454357D02*
D03*
X02730522D02*
D03*
X02789272Y02462107D02*
D03*
X02773272D02*
D03*
X02993522Y02701357D02*
D03*
X03009522D02*
D03*
X02993232Y02715437D02*
D03*
X03009232D02*
D03*
X02993522Y02729357D02*
D03*
X03009522D02*
D03*
Y02743357D02*
D03*
X02993522D02*
D03*
X02923022Y02512107D02*
D03*
X02939022D02*
D03*
X02889022Y02491857D02*
D03*
X02873022D02*
D03*
X03008022Y02402857D02*
D03*
X03024022D02*
D03*
X03008522Y02437357D02*
D03*
X03024522D02*
D03*
X02922522Y02482107D02*
D03*
X02938522D02*
D03*
X02922522Y02468107D02*
D03*
X02938522D02*
D03*
X02938522Y02454107D02*
D03*
X02922522D02*
D03*
X02923022Y02497107D02*
D03*
X02939022D02*
D03*
X02860522Y02520357D02*
D03*
X02876522D02*
D03*
X02976522Y02640357D02*
D03*
X02960522D02*
D03*
X02860522Y02250357D02*
D03*
X02876522D02*
D03*
X02149022Y02747607D02*
D03*
X02133022D02*
D03*
X02256772Y02698357D02*
D03*
X02272772D02*
D03*
X02256772Y02712357D02*
D03*
X02272772D02*
D03*
Y02727357D02*
D03*
X02256772D02*
D03*
Y02684357D02*
D03*
X02272772D02*
D03*
X02321522Y02685857D02*
D03*
X02337522D02*
D03*
X02365522Y02720607D02*
D03*
X02381522D02*
D03*
X02256772Y02741357D02*
D03*
X02272772D02*
D03*
X02381522Y02736607D02*
D03*
X02365522D02*
D03*
X01035482Y02116097D02*
D03*
X01019482D02*
D03*
X00854002Y02113557D02*
D03*
X00870002D02*
D03*
X01034722Y02095777D02*
D03*
X01050722D02*
D03*
X01019102Y02182137D02*
D03*
X01035102D02*
D03*
X01035482Y02133877D02*
D03*
X01019482D02*
D03*
X01035482Y02151657D02*
D03*
X01019482D02*
D03*
X00813742Y02111017D02*
D03*
X00797742D02*
D03*
X00813742Y02128797D02*
D03*
X00797742D02*
D03*
X00869622Y02131337D02*
D03*
X00853622D02*
D03*
X01057622Y02115767D02*
D03*
X01073622D02*
D03*
X01057622Y02133547D02*
D03*
X01073622D02*
D03*
X01057622Y02151327D02*
D03*
X01073622D02*
D03*
X01090331Y02195935D02*
D03*
X01106331D02*
D03*
X01799272Y02332357D02*
D03*
X01815272D02*
D03*
X02302772Y02646607D02*
D03*
X02286772D02*
D03*
X01777556Y02331327D02*
D03*
X01761557D02*
D03*
X02379522Y02616357D02*
D03*
X02363522D02*
D03*
X02741522Y01685357D02*
D03*
X02725522D02*
D03*
X01777556Y02313547D02*
D03*
X01761557D02*
D03*
X03037522Y02746357D02*
D03*
X03053522D02*
D03*
X02407522Y02663357D02*
D03*
X02423522D02*
D03*
Y02645357D02*
D03*
X02407522D02*
D03*
X02423522Y02630357D02*
D03*
X02407522D02*
D03*
X02423522Y02615357D02*
D03*
X02407522D02*
D03*
X02381522Y02688857D02*
D03*
X02365522D02*
D03*
X02381356Y02703341D02*
D03*
X02365356D02*
D03*
X01888522Y02682586D02*
D03*
X01904522D02*
D03*
X01967772Y02380607D02*
D03*
X01983772D02*
D03*
X01983067Y02415438D02*
D03*
X01967066D02*
D03*
Y02397658D02*
D03*
X01983067D02*
D03*
X01967066Y02435758D02*
D03*
X01983067D02*
D03*
X01941427Y02402738D02*
D03*
X01925426D02*
D03*
X01866772Y02483357D02*
D03*
X01882772D02*
D03*
X01554752Y02655871D02*
D03*
X01538752D02*
D03*
X01968092Y02590211D02*
D03*
X01984092D02*
D03*
Y02551382D02*
D03*
X01968092D02*
D03*
X01929992Y02551398D02*
D03*
X01945992D02*
D03*
X01968092Y02570797D02*
D03*
X01984092D02*
D03*
X01929992Y02590228D02*
D03*
X01945992D02*
D03*
X01968092Y02609626D02*
D03*
X01984092D02*
D03*
Y02629041D02*
D03*
X01968092D02*
D03*
X01929992Y02629058D02*
D03*
X01945992D02*
D03*
X01968092Y02648456D02*
D03*
X01984092D02*
D03*
X01929992Y02648473D02*
D03*
X01945992D02*
D03*
X02137522Y02149607D02*
D03*
X02121522D02*
D03*
X02123592Y02280401D02*
D03*
X02107592D02*
D03*
X02185028Y02226572D02*
D03*
X02201028D02*
D03*
Y02244352D02*
D03*
X02185028D02*
D03*
X02182632Y02265367D02*
D03*
X02198632D02*
D03*
X02145692D02*
D03*
X02161692D02*
D03*
X02145692Y02244717D02*
D03*
X02161692D02*
D03*
X02161692Y02226937D02*
D03*
X02145692D02*
D03*
X02201028Y02208792D02*
D03*
X02185028D02*
D03*
Y02191012D02*
D03*
X02201028D02*
D03*
X02202172Y02171387D02*
D03*
X02186172D02*
D03*
X02146072Y02171539D02*
D03*
X02162072D02*
D03*
X02145692Y02191377D02*
D03*
X02161692D02*
D03*
X02145692Y02209157D02*
D03*
X02161692D02*
D03*
X00843522Y02552857D02*
D03*
X00859522D02*
D03*
X02004212Y02245047D02*
D03*
X01988212D02*
D03*
X02004212Y02206947D02*
D03*
X01988212D02*
D03*
X02004212Y02224727D02*
D03*
X01988212D02*
D03*
X02044852Y02242507D02*
D03*
X02028852D02*
D03*
X02044852Y02262827D02*
D03*
X02028852D02*
D03*
X01988212D02*
D03*
X02004212D02*
D03*
X01987832Y02186627D02*
D03*
X02003832D02*
D03*
X02044852Y02224727D02*
D03*
X02028852D02*
D03*
X02028852Y02206947D02*
D03*
X02044852D02*
D03*
X02003452Y02169217D02*
D03*
X01987452D02*
D03*
X02044852Y02186627D02*
D03*
X02028852D02*
D03*
X02028852Y02166307D02*
D03*
X02044852D02*
D03*
X00812952Y02501847D02*
D03*
X00796952D02*
D03*
X00851422Y02501807D02*
D03*
X00867422D02*
D03*
X00867422Y02519587D02*
D03*
X00851422D02*
D03*
X00797332Y02519627D02*
D03*
X00813332D02*
D03*
X01032522Y02573297D02*
D03*
X01016522D02*
D03*
X01032522Y02517047D02*
D03*
X01016522D02*
D03*
X01032522Y02537697D02*
D03*
X01016522D02*
D03*
X01840437Y02460908D02*
D03*
X01856436D02*
D03*
X01820116Y02422808D02*
D03*
X01836116D02*
D03*
X01983067Y02473858D02*
D03*
X01967066D02*
D03*
Y02456078D02*
D03*
X01983067D02*
D03*
X01967066Y02491638D02*
D03*
X01983067D02*
D03*
X01856436Y02440588D02*
D03*
X01840437D02*
D03*
X01836116Y02405028D02*
D03*
X01820116D02*
D03*
X01836116Y02387248D02*
D03*
X01820116D02*
D03*
X01639522Y02261357D02*
D03*
X01623522D02*
D03*
X01440362Y02256697D02*
D03*
X01456362D02*
D03*
X01761672Y02659406D02*
D03*
X01777672D02*
D03*
Y02639991D02*
D03*
X01761672D02*
D03*
Y02620576D02*
D03*
X01777672D02*
D03*
Y02601161D02*
D03*
X01761672D02*
D03*
Y02581747D02*
D03*
X01777672D02*
D03*
Y02562332D02*
D03*
X01761672D02*
D03*
X01801772Y02614827D02*
D03*
X01817772D02*
D03*
X01801772Y02597047D02*
D03*
X01817772D02*
D03*
X01801772Y02543707D02*
D03*
X01817772D02*
D03*
X01839022Y02515357D02*
D03*
X01823022D02*
D03*
X01838656Y02499008D02*
D03*
X01822657D02*
D03*
X01838656Y02481228D02*
D03*
X01822657D02*
D03*
X02430022Y01802857D02*
D03*
X02414022D02*
D03*
X02430272Y01787857D02*
D03*
X02414272D02*
D03*
X02430272Y01773107D02*
D03*
X02414272D02*
D03*
X02414022Y01757607D02*
D03*
X02430022D02*
D03*
X02414522Y01742107D02*
D03*
X02430522D02*
D03*
X01052082Y02537737D02*
D03*
X01068082D02*
D03*
X01101102Y02585997D02*
D03*
X01085102D02*
D03*
X01068082Y02517417D02*
D03*
X01052082D02*
D03*
X01504442Y02598756D02*
D03*
X01520442D02*
D03*
X01735522Y02520357D02*
D03*
X01751522D02*
D03*
X01049022Y02465357D02*
D03*
X01033022D02*
D03*
G54D91*
X02069022Y02171804D02*
D03*
Y02260704D02*
D03*
Y02248004D02*
D03*
Y02235304D02*
D03*
Y02222604D02*
D03*
Y02209904D02*
D03*
Y02197204D02*
D03*
Y02184504D02*
D03*
X02121522Y02260704D02*
D03*
Y02248004D02*
D03*
Y02235304D02*
D03*
Y02222604D02*
D03*
Y02209904D02*
D03*
Y02197204D02*
D03*
Y02184504D02*
D03*
Y02171804D02*
D03*
X01902022Y02551407D02*
D03*
Y02564107D02*
D03*
Y02576807D02*
D03*
Y02589507D02*
D03*
Y02602207D02*
D03*
Y02614907D02*
D03*
Y02627607D02*
D03*
Y02640307D02*
D03*
X01849522Y02564107D02*
D03*
Y02576807D02*
D03*
Y02589507D02*
D03*
Y02602207D02*
D03*
Y02614907D02*
D03*
Y02627607D02*
D03*
Y02640307D02*
D03*
Y02551407D02*
D03*
G54D92*
X02501022Y02607857D02*
D03*
X02808522Y02590357D02*
D03*
X02898522Y01660357D02*
D03*
X02708522Y02595357D02*
D03*
X02343342Y02439877D02*
D03*
X02971178Y02741857D02*
D03*
X02595772Y02594877D02*
D03*
G54D93*
X03325592Y02997617D02*
D03*
X03354592D02*
D03*
X02896272Y02735107D02*
D03*
X02925272D02*
D03*
X02896022Y02710107D02*
D03*
X02925022D02*
D03*
X03274792Y02968087D02*
D03*
X03303792D02*
D03*
X03223992D02*
D03*
X03252992D02*
D03*
X03274792Y02997617D02*
D03*
X03303792D02*
D03*
X03223992Y02998567D02*
D03*
X03252992D02*
D03*
X03274792Y02937607D02*
D03*
X03303792D02*
D03*
X03223992D02*
D03*
X03252992D02*
D03*
X03355332Y02968087D02*
D03*
X03326332D02*
D03*
X03325592Y02937607D02*
D03*
X03354592D02*
D03*
X02842522Y01645607D02*
D03*
X02871522D02*
D03*
G54D94*
X02604193Y01788783D02*
D03*
X02594692D02*
D03*
X02613692D02*
D03*
Y01816283D02*
D03*
X02604193D02*
D03*
X02594692D02*
D03*
X02859022Y02564107D02*
D03*
X02878022Y02536607D02*
D03*
X02859022D02*
D03*
X02868522Y02564107D02*
D03*
X02878022D02*
D03*
G54D95*
X03018022Y02455357D02*
D03*
X02963522D02*
D03*
X03018022Y02461707D02*
D03*
Y02468057D02*
D03*
Y02474407D02*
D03*
Y02480757D02*
D03*
Y02487107D02*
D03*
Y02493457D02*
D03*
Y02499807D02*
D03*
X02963522Y02461707D02*
D03*
Y02468057D02*
D03*
Y02474407D02*
D03*
Y02480757D02*
D03*
Y02487107D02*
D03*
Y02493457D02*
D03*
Y02499807D02*
D03*
X02172272Y02749582D02*
D03*
Y02743232D02*
D03*
Y02736882D02*
D03*
Y02730532D02*
D03*
Y02724182D02*
D03*
Y02717832D02*
D03*
Y02711482D02*
D03*
Y02705132D02*
D03*
X02226772Y02749582D02*
D03*
Y02743232D02*
D03*
Y02736882D02*
D03*
Y02730532D02*
D03*
Y02724182D02*
D03*
Y02717832D02*
D03*
Y02711482D02*
D03*
Y02705132D02*
D03*
G54D96*
X02301522Y02418857D02*
D03*
X02247522D02*
D03*
X02963522Y02576357D02*
D03*
X02909522D02*
D03*
X02419522Y02727357D02*
D03*
X02473522D02*
D03*
X02965522Y02325357D02*
D03*
X03019522D02*
D03*
X02247522Y02345357D02*
D03*
X02301522D02*
D03*
G54D97*
X01738522Y02302657D02*
D03*
X01984522Y02348407D02*
D03*
X01906522Y02345057D02*
D03*
X02219522Y02453057D02*
D03*
X02456522Y02652657D02*
D03*
X02490522Y02539657D02*
D03*
G54D98*
X01738522Y02313807D02*
D03*
X01984522Y02359557D02*
D03*
X01906522Y02333907D02*
D03*
X02219522Y02441907D02*
D03*
X02456522Y02663807D02*
D03*
X02490522Y02550807D02*
D03*
G54D99*
X03113222Y01570357D02*
D03*
X01773222Y02440357D02*
D03*
X02825822Y02709857D02*
D03*
X02820722Y02565357D02*
D03*
X02964522Y02710357D02*
D03*
G54D100*
X03102072Y01570357D02*
D03*
X01762072Y02440357D02*
D03*
X02836972Y02709857D02*
D03*
X02809572Y02565357D02*
D03*
X02953372Y02710357D02*
D03*
G54D101*
X02245512Y02479147D02*
D03*
X02273012Y02498147D02*
D03*
Y02479147D02*
D03*
Y02488647D02*
D03*
X02245512Y02498147D02*
D03*
X02762522Y02444357D02*
D03*
Y02434857D02*
D03*
X02790022Y02425357D02*
D03*
Y02444357D02*
D03*
X02762522Y02425357D02*
D03*
X03054272Y02729857D02*
D03*
X03026772Y02710857D02*
D03*
X03054272D02*
D03*
X03026772Y02720357D02*
D03*
Y02729857D02*
D03*
X02321522Y02703857D02*
D03*
Y02722857D02*
D03*
X02349022D02*
D03*
Y02713357D02*
D03*
Y02703857D02*
D03*
X01796447Y02310347D02*
D03*
Y02291347D02*
D03*
X01823947Y02310347D02*
D03*
X01796447Y02300847D02*
D03*
X01823947Y02291347D02*
D03*
X02390522Y02634357D02*
D03*
Y02643857D02*
D03*
Y02653357D02*
D03*
X02363022D02*
D03*
Y02634357D02*
D03*
G54D102*
X01189452Y02367717D02*
D03*
X01197452Y02416957D02*
D03*
X01213452Y02367717D02*
D03*
X01221452Y02416957D02*
D03*
X01237452Y02367717D02*
D03*
X01245452Y02416957D02*
D03*
X01277452Y02367717D02*
D03*
X01301452D02*
D03*
X01309452Y02416957D02*
D03*
X01341452D02*
D03*
X01349452Y02367717D02*
D03*
X01453452D02*
D03*
X01525452D02*
D03*
X01581452D02*
D03*
X01637452D02*
D03*
X01165452D02*
D03*
Y02416957D02*
D03*
X01173452Y02367717D02*
D03*
Y02416957D02*
D03*
X01181452Y02367717D02*
D03*
Y02416957D02*
D03*
X01189452Y02416957D02*
D03*
X01197452Y02367717D02*
D03*
X01205452D02*
D03*
X01205452Y02416957D02*
D03*
X01213452Y02416957D02*
D03*
X01221452Y02367717D02*
D03*
X01229452D02*
D03*
Y02416957D02*
D03*
X01237452D02*
D03*
X01245452Y02367717D02*
D03*
X01253452D02*
D03*
Y02416957D02*
D03*
X01261452Y02367717D02*
D03*
Y02416957D02*
D03*
X01269452Y02367717D02*
D03*
Y02416957D02*
D03*
X01277452D02*
D03*
X01285452Y02367717D02*
D03*
Y02416957D02*
D03*
X01293452Y02367717D02*
D03*
Y02416957D02*
D03*
X01301452D02*
D03*
X01309452Y02367717D02*
D03*
X01317452D02*
D03*
Y02416957D02*
D03*
X01325452Y02367717D02*
D03*
Y02416957D02*
D03*
X01333452Y02367717D02*
D03*
Y02416957D02*
D03*
X01341452Y02367717D02*
D03*
X01349452Y02416957D02*
D03*
X01357452Y02367717D02*
D03*
Y02416957D02*
D03*
X01365452Y02367717D02*
D03*
Y02416957D02*
D03*
X01373452Y02367717D02*
D03*
Y02416957D02*
D03*
X01381452Y02367717D02*
D03*
Y02416957D02*
D03*
X01421452Y02367717D02*
D03*
Y02416957D02*
D03*
X01429452Y02367717D02*
D03*
Y02416957D02*
D03*
X01437452Y02367717D02*
D03*
Y02416957D02*
D03*
X01445452Y02367717D02*
D03*
Y02416957D02*
D03*
X01453452D02*
D03*
X01461452Y02367717D02*
D03*
Y02416957D02*
D03*
X01469452Y02367717D02*
D03*
Y02416957D02*
D03*
X01477452Y02367717D02*
D03*
Y02416957D02*
D03*
X01485452Y02367717D02*
D03*
Y02416957D02*
D03*
X01493452Y02367717D02*
D03*
Y02416957D02*
D03*
X01501452Y02367717D02*
D03*
Y02416957D02*
D03*
X01509452Y02367717D02*
D03*
Y02416957D02*
D03*
X01517452Y02367717D02*
D03*
Y02416957D02*
D03*
X01525452D02*
D03*
X01533452Y02367717D02*
D03*
Y02416957D02*
D03*
X01541452Y02367717D02*
D03*
Y02416957D02*
D03*
X01549452Y02367717D02*
D03*
Y02416957D02*
D03*
X01557452Y02367717D02*
D03*
Y02416957D02*
D03*
X01565452Y02367717D02*
D03*
Y02416957D02*
D03*
X01573452Y02367717D02*
D03*
Y02416957D02*
D03*
X01581452D02*
D03*
X01589452Y02367717D02*
D03*
Y02416957D02*
D03*
X01597452Y02367717D02*
D03*
Y02416957D02*
D03*
X01605452Y02367717D02*
D03*
Y02416957D02*
D03*
X01613452Y02367717D02*
D03*
Y02416957D02*
D03*
X01621452Y02367717D02*
D03*
Y02416957D02*
D03*
X01629452Y02367717D02*
D03*
Y02416957D02*
D03*
X01637452D02*
D03*
X01645452Y02367717D02*
D03*
Y02416957D02*
D03*
X01653452Y02367717D02*
D03*
Y02416957D02*
D03*
X01661452Y02367717D02*
D03*
Y02416957D02*
D03*
X01669452Y02367717D02*
D03*
Y02416957D02*
D03*
G54D103*
X01642022Y02769357D02*
D03*
Y02737357D02*
D03*
X01642440Y02701417D02*
D03*
Y02669417D02*
D03*
X02563522Y01730357D02*
D03*
Y01762357D02*
D03*
Y01684357D02*
D03*
Y01716357D02*
D03*
X02538522Y01654357D02*
D03*
Y01686357D02*
D03*
X01618522Y02704357D02*
D03*
Y02736357D02*
D03*
X01700772Y02669357D02*
D03*
Y02701357D02*
D03*
X01726022Y02704357D02*
D03*
Y02736357D02*
D03*
X01296022Y02748857D02*
D03*
Y02716857D02*
D03*
X01701022Y02735857D02*
D03*
Y02767857D02*
D03*
X01196022Y02771357D02*
D03*
Y02739357D02*
D03*
X01221022Y02803857D02*
D03*
Y02771857D02*
D03*
X01296022Y02816357D02*
D03*
Y02784357D02*
D03*
X01271022Y02750857D02*
D03*
Y02782857D02*
D03*
X01196022Y02804357D02*
D03*
Y02836357D02*
D03*
G54D104*
X02381522Y02452607D02*
D03*
Y02481607D02*
D03*
X02406022Y02452607D02*
D03*
Y02481607D02*
D03*
X02741022Y01562357D02*
D03*
Y01591357D02*
D03*
G54D105*
X02066272Y02485857D02*
D03*
Y02479357D02*
D03*
Y02472857D02*
D03*
Y02466357D02*
D03*
Y02459857D02*
D03*
Y02453357D02*
D03*
Y02446857D02*
D03*
Y02440357D02*
D03*
X02125272Y02485857D02*
D03*
Y02479357D02*
D03*
Y02472857D02*
D03*
Y02466357D02*
D03*
Y02459857D02*
D03*
Y02453357D02*
D03*
Y02446857D02*
D03*
Y02440357D02*
D03*
X02069272Y02403607D02*
D03*
Y02397107D02*
D03*
Y02390607D02*
D03*
Y02384107D02*
D03*
Y02377607D02*
D03*
Y02371107D02*
D03*
Y02364607D02*
D03*
Y02358107D02*
D03*
X02128272Y02403607D02*
D03*
Y02397107D02*
D03*
Y02390607D02*
D03*
Y02384107D02*
D03*
Y02377607D02*
D03*
Y02371107D02*
D03*
Y02364607D02*
D03*
Y02358107D02*
D03*
X01941332Y02422687D02*
D03*
Y02429187D02*
D03*
Y02435687D02*
D03*
Y02442187D02*
D03*
Y02448687D02*
D03*
Y02455187D02*
D03*
Y02461687D02*
D03*
X01882332Y02422687D02*
D03*
Y02429187D02*
D03*
Y02435687D02*
D03*
Y02442187D02*
D03*
Y02448687D02*
D03*
Y02455187D02*
D03*
Y02461687D02*
D03*
G54D106*
X02108772Y02591607D02*
D03*
Y02609607D02*
D03*
G54D107*
X02922522Y02286357D02*
D03*
Y02232357D02*
D03*
G54D108*
X02678522Y01826357D02*
D03*
Y01774357D02*
D03*
G54D109*
X01742671Y02502617D02*
D03*
Y02496117D02*
D03*
Y02489617D02*
D03*
X01723171Y02496117D02*
D03*
Y02489617D02*
D03*
Y02502617D02*
D03*
G54D110*
X01732921Y02496117D02*
D03*
G54D111*
X01400022Y02588807D02*
D03*
G54D112*
X01390272Y02587857D02*
D03*
G54D113*
X01396022Y02627857D02*
D03*
X01356022D02*
D03*
G54D114*
X02636022Y02432857D02*
D03*
X02596022D02*
D03*
X02603522Y02472857D02*
D03*
X02643522D02*
D03*
X02651022Y02512857D02*
D03*
X02611022D02*
D03*
X02666022Y02757857D02*
D03*
X02706022D02*
D03*
X02666022Y02797857D02*
D03*
X02706022D02*
D03*
X02806022Y01812857D02*
D03*
X02766022D02*
D03*
X02706022Y02717857D02*
D03*
X02666022D02*
D03*
G54D115*
X02859272Y02287357D02*
D03*
X02877272D02*
D03*
G54D116*
X02754022Y02539857D02*
D03*
X02788022D02*
D03*
X02754772Y02682857D02*
D03*
X02788772D02*
D03*
X02928772D02*
D03*
X02894772D02*
D03*
X02551522Y02645107D02*
D03*
X02517522D02*
D03*
X02378522Y02502607D02*
D03*
X02412522D02*
D03*
X02516022Y02502357D02*
D03*
X02550022D02*
D03*
G54D117*
X02808112Y02691607D02*
D03*
X02828432D02*
D03*
X02826932Y02544607D02*
D03*
X02806612D02*
D03*
X02945362Y02693107D02*
D03*
X02965682D02*
D03*
X02500682Y02632357D02*
D03*
X02480362D02*
D03*
X02358432Y02490857D02*
D03*
X02338112D02*
D03*
X02500432Y02490357D02*
D03*
X02480112D02*
D03*
X02853362Y01671857D02*
D03*
X02873682D02*
D03*
G54D118*
X02753647Y02707857D02*
D03*
X02786397D02*
D03*
X02959897Y01785357D02*
D03*
X02927147D02*
D03*
X02508147Y02724357D02*
D03*
X02540897D02*
D03*
X02715772Y01630357D02*
D03*
X02748522D02*
D03*
G54D119*
X02711022Y01603257D02*
D03*
Y01562457D02*
D03*
G54D120*
X01016942Y02084697D02*
D03*
Y02096697D02*
D03*
Y02210997D02*
D03*
Y02198997D02*
D03*
X00872162Y02211697D02*
D03*
Y02223697D02*
D03*
X00872522Y02162357D02*
D03*
Y02150357D02*
D03*
X01014362Y02500557D02*
D03*
Y02488557D02*
D03*
Y02602157D02*
D03*
Y02590157D02*
D03*
X00869582Y02473317D02*
D03*
Y02485317D02*
D03*
Y02602157D02*
D03*
Y02590157D02*
D03*
G54D121*
X01062771Y02198475D02*
D03*
Y02218795D02*
D03*
X00826334Y02213967D02*
D03*
Y02234287D02*
D03*
X00824522Y02171677D02*
D03*
Y02151357D02*
D03*
X00813702Y02461537D02*
D03*
Y02481857D02*
D03*
X01060191Y02607415D02*
D03*
Y02587095D02*
D03*
X00826293Y02587187D02*
D03*
Y02607507D02*
D03*
G54D122*
X02812732Y01683127D02*
D03*
X02800032D02*
D03*
X02774632D02*
D03*
X02812732Y01628627D02*
D03*
X02800032D02*
D03*
X02787332D02*
D03*
X02774632D02*
D03*
G54D123*
X02825022Y01722557D02*
D03*
Y01768157D02*
D03*
G54D124*
X02757022Y01745357D02*
D03*
G54D125*
X02883522Y01778792D02*
D03*
Y01707422D02*
D03*
G54D126*
X01765864Y02273167D02*
D03*
Y02295167D02*
D03*
G54D127*
X03027022Y01614357D02*
D03*
X02932022D02*
D03*
G54D128*
X03263522Y01560357D02*
D03*
X01125522Y02080357D02*
D03*
X01308522Y03210357D02*
D03*
G54D129*
X02841022Y03180357D02*
D03*
X02891022D02*
D03*
X02941022D02*
D03*
X03041022D02*
D03*
X03091022D02*
D03*
X03141022D02*
D03*
Y02830357D02*
D03*
X03091022D02*
D03*
X03041022D02*
D03*
X02941022D02*
D03*
X02891022D02*
D03*
X02176022Y03170357D02*
D03*
X02226022D02*
D03*
X02276022D02*
D03*
X02376022D02*
D03*
X02426022D02*
D03*
X02476022D02*
D03*
Y02820357D02*
D03*
X02426022D02*
D03*
X02376022D02*
D03*
X02276022D02*
D03*
X02226022D02*
D03*
G54D130*
X02841022Y02830357D02*
D03*
X02176022Y02820357D02*
D03*
G54D131*
X02503522Y01655357D02*
D03*
X03331022Y01967857D02*
D03*
X02766022Y02817857D02*
D03*
X02728522Y02885357D02*
D03*
X02216022Y02385357D02*
D03*
X01143522Y02142857D02*
D03*
X02553522Y02755357D02*
D03*
X01648522Y02625357D02*
D03*
X01083522Y02690357D02*
D03*
X00678522Y03030357D02*
D03*
X00756022Y02805357D02*
D03*
X03071022Y01617857D02*
D03*
X03331022Y02025357D02*
D03*
X01943522Y02312857D02*
D03*
X03163522Y01575357D02*
D03*
X00693522Y03112857D02*
D03*
G54D132*
X00923522Y02892857D02*
D03*
X00793522Y03110357D02*
D03*
X00883522Y03107857D02*
D03*
X01591522Y02835857D02*
D03*
X02661022Y02940357D02*
D03*
G54D133*
X00923522Y02817857D02*
D03*
X00793522Y03185357D02*
D03*
X00883522Y03182857D02*
D03*
X01591522Y03110857D02*
D03*
X02661022Y03215357D02*
D03*
G54D134*
X03343522Y03195357D02*
D03*
X02372522Y02289857D02*
D03*
X02018522Y03195357D02*
D03*
X03343522Y02803607D02*
D03*
X00693522Y03195357D02*
D03*
X00973522Y02405357D02*
D03*
X02443522Y01595357D02*
D03*
X02593522Y02867857D02*
D03*
X03343522Y01595357D02*
D03*
Y02395357D02*
D03*
G54D135*
X00988522Y02698057D02*
D03*
G54D136*
Y02672657D02*
D03*
G54D137*
Y02685357D02*
D03*
G54D138*
X01179522Y03088357D02*
D03*
Y02988357D02*
D03*
X00959522D02*
D03*
X01861522Y02865357D02*
D03*
Y02965357D02*
D03*
X02081522D02*
D03*
G54D139*
X00959522Y03088357D02*
D03*
X02081522Y02865357D02*
D03*
G54D140*
X01383522Y02980357D02*
D03*
X01364522Y02894357D02*
D03*
G54D141*
X01433522Y02980357D02*
D03*
X01414522Y02894357D02*
D03*
G54D142*
X00693522Y02853757D02*
D03*
X02606522Y02180357D02*
D03*
G54D143*
X00693522Y02904557D02*
D03*
Y02955357D02*
D03*
X02544222Y01596107D02*
D03*
X02595022D02*
D03*
X01646822Y03192107D02*
D03*
X01596022D02*
D03*
X02606022Y01905357D02*
D03*
X02498522Y02312857D02*
D03*
G54D144*
X02645822Y01596107D02*
D03*
X01545222Y03192107D02*
D03*
X02773522Y02312357D02*
D03*
G54D145*
X01444522Y03215657D02*
D03*
X01368522D02*
D03*
X01336022Y02672614D02*
D03*
X01412022D02*
D03*
G54D146*
X01371022Y03088657D02*
D03*
X03203522Y02625357D02*
D03*
Y02255357D02*
D03*
X03206022Y01837357D02*
D03*
X01409522Y02799614D02*
D03*
G54D147*
X01442022Y03063257D02*
D03*
X02855076Y01968462D02*
D03*
X03203522Y02525357D02*
D03*
Y02155357D02*
D03*
X03206022Y01737357D02*
D03*
X01338522Y02825014D02*
D03*
G54D148*
X01150452Y02392337D02*
D03*
X01684453Y02407336D02*
D03*
G54D149*
X01126953Y02392337D02*
D03*
X01707953D02*
D03*
G54D150*
X01854522Y02190382D02*
D03*
X01778322D02*
D03*
X01829122D02*
D03*
X01879922D02*
D03*
X01803722D02*
D03*
X01905322D02*
D03*
X01930722D02*
D03*
G54D151*
X01953522Y03205357D02*
D03*
G54D152*
X01853522D02*
D03*
X01763522Y03115357D02*
D03*
G54D153*
Y03215357D02*
D03*
G54D154*
X02163372Y02104257D02*
D03*
X01923372D02*
D03*
G54D155*
X02023672D02*
D03*
Y02091557D02*
D03*
X02150672Y02104257D02*
D03*
X02137972D02*
D03*
X02125272D02*
D03*
X02112572D02*
D03*
X02099872D02*
D03*
X02087172D02*
D03*
X02074472D02*
D03*
X02061772D02*
D03*
X02049072D02*
D03*
X02036372D02*
D03*
X02163372Y02091557D02*
D03*
X02150672D02*
D03*
X02137972D02*
D03*
X02125272D02*
D03*
X02112572D02*
D03*
X02099872D02*
D03*
X02087172D02*
D03*
X02074472D02*
D03*
X02061772D02*
D03*
X02049072D02*
D03*
X02036372D02*
D03*
X01796372D02*
D03*
X01809072D02*
D03*
X01821772D02*
D03*
X01834472D02*
D03*
X01847172D02*
D03*
X01859872D02*
D03*
X01872572D02*
D03*
X01885272D02*
D03*
X01897972D02*
D03*
X01910672D02*
D03*
X01796372Y02104257D02*
D03*
X01809072D02*
D03*
X01821772D02*
D03*
X01834472D02*
D03*
X01847172D02*
D03*
X01859872D02*
D03*
X01872572D02*
D03*
X01885272D02*
D03*
X01897972D02*
D03*
X01910672D02*
D03*
X01783672Y02091557D02*
D03*
Y02104257D02*
D03*
X01923372Y02091557D02*
D03*
G54D156*
X02294522Y02066857D02*
D03*
G54D157*
X02331522Y02091857D02*
D03*
G54D158*
X02271522Y02119857D02*
D03*
G54D159*
X03348522Y03132857D02*
D03*
Y03057857D02*
D03*
X03243522Y03227857D02*
D03*
Y03152857D02*
D03*
G54D160*
X02941678Y02018462D02*
D03*
G54D161*
X02741022Y01822657D02*
D03*
X00880222Y02380357D02*
D03*
G54D162*
X02741022Y01848057D02*
D03*
G54D163*
X02963522Y01710357D02*
D03*
G54D164*
Y01760357D02*
D03*
G54D165*
X02803522Y01592857D02*
D03*
X00753532Y02513739D02*
D03*
Y02541439D02*
D03*
Y02569139D02*
D03*
Y02596839D02*
D03*
X00725132Y02499889D02*
D03*
Y02527589D02*
D03*
Y02555289D02*
D03*
Y02582990D02*
D03*
X00724072Y02256907D02*
D03*
Y02229207D02*
D03*
Y02201507D02*
D03*
Y02173807D02*
D03*
X00752472Y02270757D02*
D03*
Y02243057D02*
D03*
Y02215357D02*
D03*
Y02187657D02*
D03*
G54D166*
X02783522Y01592857D02*
D03*
G54D167*
X00753532Y02486039D02*
D03*
X00752472Y02159957D02*
D03*
G54D168*
X00739332Y02666440D02*
D03*
Y02416439D02*
D03*
X00738272Y02090357D02*
D03*
Y02340357D02*
D03*
G54D169*
X00854822Y02380357D02*
D03*
G54D170*
X00909665Y02320757D02*
D03*
X00984665D02*
D03*
G54D171*
X01837189Y02590567D02*
D03*
X02793522Y02575357D02*
D03*
X02503522Y02565357D02*
D03*
X02433522Y02585357D02*
D03*
X02533522Y02565357D02*
D03*
X02363522Y02605357D02*
D03*
G54D172*
X01732921Y02490617D02*
D03*
Y02501617D02*
D03*
M02*
