G04*
G04 #@! TF.GenerationSoftware,Altium Limited,Altium Designer,25.3.3 (18)*
G04*
G04 Layer_Color=16711935*
%FSLAX44Y44*%
%MOMM*%
G71*
G04*
G04 #@! TF.SameCoordinates,02FA8497-09D8-4EBB-9686-6BBDE5AED0EC*
G04*
G04*
G04 #@! TF.FilePolarity,Negative*
G04*
G01*
G75*
%ADD20C,2.0000*%
%ADD21C,5.7032*%
%ADD22O,6.2032X9.2032*%
%ADD23C,6.2032*%
%ADD24O,7.2032X5.2032*%
%ADD25C,1.7032*%
G04:AMPARAMS|DCode=26|XSize=1.7032mm|YSize=1.7032mm|CornerRadius=0.4766mm|HoleSize=0mm|Usage=FLASHONLY|Rotation=270.000|XOffset=0mm|YOffset=0mm|HoleType=Round|Shape=RoundedRectangle|*
%AMROUNDEDRECTD26*
21,1,1.7032,0.7500,0,0,270.0*
21,1,0.7500,1.7032,0,0,270.0*
1,1,0.9532,-0.3750,-0.3750*
1,1,0.9532,-0.3750,0.3750*
1,1,0.9532,0.3750,0.3750*
1,1,0.9532,0.3750,-0.3750*
%
%ADD26ROUNDEDRECTD26*%
%ADD27R,4.2032X2.7032*%
%ADD28C,4.2032*%
%ADD29R,4.2032X4.2032*%
%ADD30O,20.7032X17.7032*%
G04:AMPARAMS|DCode=31|XSize=5.2032mm|YSize=15.2032mm|CornerRadius=1.3516mm|HoleSize=0mm|Usage=FLASHONLY|Rotation=180.000|XOffset=0mm|YOffset=0mm|HoleType=Round|Shape=RoundedRectangle|*
%AMROUNDEDRECTD31*
21,1,5.2032,12.5000,0,0,180.0*
21,1,2.5000,15.2032,0,0,180.0*
1,1,2.7032,-1.2500,6.2500*
1,1,2.7032,1.2500,6.2500*
1,1,2.7032,1.2500,-6.2500*
1,1,2.7032,-1.2500,-6.2500*
%
%ADD31ROUNDEDRECTD31*%
G04:AMPARAMS|DCode=32|XSize=5.2032mm|YSize=11.2032mm|CornerRadius=1.3516mm|HoleSize=0mm|Usage=FLASHONLY|Rotation=180.000|XOffset=0mm|YOffset=0mm|HoleType=Round|Shape=RoundedRectangle|*
%AMROUNDEDRECTD32*
21,1,5.2032,8.5000,0,0,180.0*
21,1,2.5000,11.2032,0,0,180.0*
1,1,2.7032,-1.2500,4.2500*
1,1,2.7032,1.2500,4.2500*
1,1,2.7032,1.2500,-4.2500*
1,1,2.7032,-1.2500,-4.2500*
%
%ADD32ROUNDEDRECTD32*%
%ADD33O,10.2032X7.2032*%
%ADD34R,4.2032X4.2032*%
%ADD35R,1.7032X1.7032*%
%ADD36C,2.4032*%
%ADD37C,1.8082*%
%ADD38R,1.8082X1.8082*%
G04:AMPARAMS|DCode=39|XSize=1.7032mm|YSize=1.7032mm|CornerRadius=0.4766mm|HoleSize=0mm|Usage=FLASHONLY|Rotation=0.000|XOffset=0mm|YOffset=0mm|HoleType=Round|Shape=RoundedRectangle|*
%AMROUNDEDRECTD39*
21,1,1.7032,0.7500,0,0,0.0*
21,1,0.7500,1.7032,0,0,0.0*
1,1,0.9532,0.3750,-0.3750*
1,1,0.9532,-0.3750,-0.3750*
1,1,0.9532,-0.3750,0.3750*
1,1,0.9532,0.3750,0.3750*
%
%ADD39ROUNDEDRECTD39*%
%ADD40R,1.7232X1.7232*%
%ADD41C,1.7232*%
%ADD42C,3.7032*%
%ADD43R,3.7032X3.7032*%
%ADD44O,2.5032X1.5032*%
%ADD45O,2.1082X2.7432*%
%ADD46R,3.7032X3.7032*%
%ADD47C,2.2032*%
%ADD48R,2.2032X2.2032*%
%ADD49C,1.8032*%
%ADD50R,1.8032X1.8032*%
%ADD51R,1.7232X1.7232*%
%ADD52O,2.4892X2.1082*%
%ADD53R,2.4892X2.1082*%
%ADD54R,2.2032X1.7032*%
%ADD55C,3.2032*%
%ADD56O,2.2032X1.7032*%
%ADD57R,3.2032X3.2032*%
%ADD58R,1.7032X1.7032*%
%ADD59R,1.8082X1.8082*%
%ADD60C,12.2032*%
%ADD61R,2.2032X2.2032*%
%ADD62C,1.2032*%
%ADD63C,1.0032*%
%ADD64C,0.8032*%
%ADD65C,1.4032*%
%ADD66C,0.9032*%
G04:AMPARAMS|DCode=144|XSize=1.5032mm|YSize=2.0032mm|CornerRadius=0.2966mm|HoleSize=0mm|Usage=FLASHONLY|Rotation=90.000|XOffset=0mm|YOffset=0mm|HoleType=Round|Shape=RoundedRectangle|*
%AMROUNDEDRECTD144*
21,1,1.5032,1.4100,0,0,90.0*
21,1,0.9100,2.0032,0,0,90.0*
1,1,0.5932,0.7050,0.4550*
1,1,0.5932,0.7050,-0.4550*
1,1,0.5932,-0.7050,-0.4550*
1,1,0.5932,-0.7050,0.4550*
%
%ADD144ROUNDEDRECTD144*%
G04:AMPARAMS|DCode=145|XSize=1.6032mm|YSize=1.7532mm|CornerRadius=0.4516mm|HoleSize=0mm|Usage=FLASHONLY|Rotation=270.000|XOffset=0mm|YOffset=0mm|HoleType=Round|Shape=RoundedRectangle|*
%AMROUNDEDRECTD145*
21,1,1.6032,0.8500,0,0,270.0*
21,1,0.7000,1.7532,0,0,270.0*
1,1,0.9032,-0.4250,-0.3500*
1,1,0.9032,-0.4250,0.3500*
1,1,0.9032,0.4250,0.3500*
1,1,0.9032,0.4250,-0.3500*
%
%ADD145ROUNDEDRECTD145*%
G04:AMPARAMS|DCode=146|XSize=1.5032mm|YSize=3.2032mm|CornerRadius=0.2966mm|HoleSize=0mm|Usage=FLASHONLY|Rotation=270.000|XOffset=0mm|YOffset=0mm|HoleType=Round|Shape=RoundedRectangle|*
%AMROUNDEDRECTD146*
21,1,1.5032,2.6100,0,0,270.0*
21,1,0.9100,3.2032,0,0,270.0*
1,1,0.5932,-1.3050,-0.4550*
1,1,0.5932,-1.3050,0.4550*
1,1,0.5932,1.3050,0.4550*
1,1,0.5932,1.3050,-0.4550*
%
%ADD146ROUNDEDRECTD146*%
G04:AMPARAMS|DCode=147|XSize=2.7032mm|YSize=2.5032mm|CornerRadius=0.6766mm|HoleSize=0mm|Usage=FLASHONLY|Rotation=180.000|XOffset=0mm|YOffset=0mm|HoleType=Round|Shape=RoundedRectangle|*
%AMROUNDEDRECTD147*
21,1,2.7032,1.1500,0,0,180.0*
21,1,1.3500,2.5032,0,0,180.0*
1,1,1.3532,-0.6750,0.5750*
1,1,1.3532,0.6750,0.5750*
1,1,1.3532,0.6750,-0.5750*
1,1,1.3532,-0.6750,-0.5750*
%
%ADD147ROUNDEDRECTD147*%
G04:AMPARAMS|DCode=148|XSize=1.6032mm|YSize=1.7532mm|CornerRadius=0.4516mm|HoleSize=0mm|Usage=FLASHONLY|Rotation=180.000|XOffset=0mm|YOffset=0mm|HoleType=Round|Shape=RoundedRectangle|*
%AMROUNDEDRECTD148*
21,1,1.6032,0.8500,0,0,180.0*
21,1,0.7000,1.7532,0,0,180.0*
1,1,0.9032,-0.3500,0.4250*
1,1,0.9032,0.3500,0.4250*
1,1,0.9032,0.3500,-0.4250*
1,1,0.9032,-0.3500,-0.4250*
%
%ADD148ROUNDEDRECTD148*%
G04:AMPARAMS|DCode=149|XSize=1.5032mm|YSize=1.7032mm|CornerRadius=0.2966mm|HoleSize=0mm|Usage=FLASHONLY|Rotation=0.000|XOffset=0mm|YOffset=0mm|HoleType=Round|Shape=RoundedRectangle|*
%AMROUNDEDRECTD149*
21,1,1.5032,1.1100,0,0,0.0*
21,1,0.9100,1.7032,0,0,0.0*
1,1,0.5932,0.4550,-0.5550*
1,1,0.5932,-0.4550,-0.5550*
1,1,0.5932,-0.4550,0.5550*
1,1,0.5932,0.4550,0.5550*
%
%ADD149ROUNDEDRECTD149*%
G04:AMPARAMS|DCode=150|XSize=1.5032mm|YSize=1.7032mm|CornerRadius=0.2966mm|HoleSize=0mm|Usage=FLASHONLY|Rotation=270.000|XOffset=0mm|YOffset=0mm|HoleType=Round|Shape=RoundedRectangle|*
%AMROUNDEDRECTD150*
21,1,1.5032,1.1100,0,0,270.0*
21,1,0.9100,1.7032,0,0,270.0*
1,1,0.5932,-0.5550,-0.4550*
1,1,0.5932,-0.5550,0.4550*
1,1,0.5932,0.5550,0.4550*
1,1,0.5932,0.5550,-0.4550*
%
%ADD150ROUNDEDRECTD150*%
G04:AMPARAMS|DCode=151|XSize=2.0032mm|YSize=0.7932mm|CornerRadius=0.2491mm|HoleSize=0mm|Usage=FLASHONLY|Rotation=180.000|XOffset=0mm|YOffset=0mm|HoleType=Round|Shape=RoundedRectangle|*
%AMROUNDEDRECTD151*
21,1,2.0032,0.2950,0,0,180.0*
21,1,1.5050,0.7932,0,0,180.0*
1,1,0.4982,-0.7525,0.1475*
1,1,0.4982,0.7525,0.1475*
1,1,0.4982,0.7525,-0.1475*
1,1,0.4982,-0.7525,-0.1475*
%
%ADD151ROUNDEDRECTD151*%
G04:AMPARAMS|DCode=152|XSize=2.7032mm|YSize=1.9032mm|CornerRadius=0.5266mm|HoleSize=0mm|Usage=FLASHONLY|Rotation=90.000|XOffset=0mm|YOffset=0mm|HoleType=Round|Shape=RoundedRectangle|*
%AMROUNDEDRECTD152*
21,1,2.7032,0.8500,0,0,90.0*
21,1,1.6500,1.9032,0,0,90.0*
1,1,1.0532,0.4250,0.8250*
1,1,1.0532,0.4250,-0.8250*
1,1,1.0532,-0.4250,-0.8250*
1,1,1.0532,-0.4250,0.8250*
%
%ADD152ROUNDEDRECTD152*%
G04:AMPARAMS|DCode=153|XSize=1.5032mm|YSize=2.0032mm|CornerRadius=0.2966mm|HoleSize=0mm|Usage=FLASHONLY|Rotation=0.000|XOffset=0mm|YOffset=0mm|HoleType=Round|Shape=RoundedRectangle|*
%AMROUNDEDRECTD153*
21,1,1.5032,1.4100,0,0,0.0*
21,1,0.9100,2.0032,0,0,0.0*
1,1,0.5932,0.4550,-0.7050*
1,1,0.5932,-0.4550,-0.7050*
1,1,0.5932,-0.4550,0.7050*
1,1,0.5932,0.4550,0.7050*
%
%ADD153ROUNDEDRECTD153*%
G04:AMPARAMS|DCode=154|XSize=5.7032mm|YSize=5.9032mm|CornerRadius=0.7891mm|HoleSize=0mm|Usage=FLASHONLY|Rotation=90.000|XOffset=0mm|YOffset=0mm|HoleType=Round|Shape=RoundedRectangle|*
%AMROUNDEDRECTD154*
21,1,5.7032,4.3250,0,0,90.0*
21,1,4.1250,5.9032,0,0,90.0*
1,1,1.5782,2.1625,2.0625*
1,1,1.5782,2.1625,-2.0625*
1,1,1.5782,-2.1625,-2.0625*
1,1,1.5782,-2.1625,2.0625*
%
%ADD154ROUNDEDRECTD154*%
G04:AMPARAMS|DCode=155|XSize=1.2032mm|YSize=2.2032mm|CornerRadius=0.2266mm|HoleSize=0mm|Usage=FLASHONLY|Rotation=90.000|XOffset=0mm|YOffset=0mm|HoleType=Round|Shape=RoundedRectangle|*
%AMROUNDEDRECTD155*
21,1,1.2032,1.7500,0,0,90.0*
21,1,0.7500,2.2032,0,0,90.0*
1,1,0.4532,0.8750,0.3750*
1,1,0.4532,0.8750,-0.3750*
1,1,0.4532,-0.8750,-0.3750*
1,1,0.4532,-0.8750,0.3750*
%
%ADD155ROUNDEDRECTD155*%
G04:AMPARAMS|DCode=156|XSize=0.8532mm|YSize=1.2032mm|CornerRadius=0.1829mm|HoleSize=0mm|Usage=FLASHONLY|Rotation=180.000|XOffset=0mm|YOffset=0mm|HoleType=Round|Shape=RoundedRectangle|*
%AMROUNDEDRECTD156*
21,1,0.8532,0.8375,0,0,180.0*
21,1,0.4875,1.2032,0,0,180.0*
1,1,0.3657,-0.2438,0.4188*
1,1,0.3657,0.2438,0.4188*
1,1,0.3657,0.2438,-0.4188*
1,1,0.3657,-0.2438,-0.4188*
%
%ADD156ROUNDEDRECTD156*%
%ADD157O,2.4532X1.8032*%
%ADD158R,0.7620X2.1844*%
%ADD159O,0.8032X2.0032*%
G04:AMPARAMS|DCode=160|XSize=1.5032mm|YSize=3.2032mm|CornerRadius=0.2966mm|HoleSize=0mm|Usage=FLASHONLY|Rotation=180.000|XOffset=0mm|YOffset=0mm|HoleType=Round|Shape=RoundedRectangle|*
%AMROUNDEDRECTD160*
21,1,1.5032,2.6100,0,0,180.0*
21,1,0.9100,3.2032,0,0,180.0*
1,1,0.5932,-0.4550,1.3050*
1,1,0.5932,0.4550,1.3050*
1,1,0.5932,0.4550,-1.3050*
1,1,0.5932,-0.4550,-1.3050*
%
%ADD160ROUNDEDRECTD160*%
G04:AMPARAMS|DCode=161|XSize=1.6032mm|YSize=2.0532mm|CornerRadius=0.4516mm|HoleSize=0mm|Usage=FLASHONLY|Rotation=180.000|XOffset=0mm|YOffset=0mm|HoleType=Round|Shape=RoundedRectangle|*
%AMROUNDEDRECTD161*
21,1,1.6032,1.1500,0,0,180.0*
21,1,0.7000,2.0532,0,0,180.0*
1,1,0.9032,-0.3500,0.5750*
1,1,0.9032,0.3500,0.5750*
1,1,0.9032,0.3500,-0.5750*
1,1,0.9032,-0.3500,-0.5750*
%
%ADD161ROUNDEDRECTD161*%
G04:AMPARAMS|DCode=162|XSize=2.7032mm|YSize=2.5032mm|CornerRadius=0.6766mm|HoleSize=0mm|Usage=FLASHONLY|Rotation=90.000|XOffset=0mm|YOffset=0mm|HoleType=Round|Shape=RoundedRectangle|*
%AMROUNDEDRECTD162*
21,1,2.7032,1.1500,0,0,90.0*
21,1,1.3500,2.5032,0,0,90.0*
1,1,1.3532,0.5750,0.6750*
1,1,1.3532,0.5750,-0.6750*
1,1,1.3532,-0.5750,-0.6750*
1,1,1.3532,-0.5750,0.6750*
%
%ADD162ROUNDEDRECTD162*%
%ADD163R,2.2032X4.0032*%
%ADD164R,2.2032X1.7032*%
%ADD165R,4.0032X2.2032*%
%ADD166R,1.7032X2.2032*%
G04:AMPARAMS|DCode=167|XSize=1.3032mm|YSize=1.4032mm|CornerRadius=0.2666mm|HoleSize=0mm|Usage=FLASHONLY|Rotation=0.000|XOffset=0mm|YOffset=0mm|HoleType=Round|Shape=RoundedRectangle|*
%AMROUNDEDRECTD167*
21,1,1.3032,0.8700,0,0,0.0*
21,1,0.7700,1.4032,0,0,0.0*
1,1,0.5332,0.3850,-0.4350*
1,1,0.5332,-0.3850,-0.4350*
1,1,0.5332,-0.3850,0.4350*
1,1,0.5332,0.3850,0.4350*
%
%ADD167ROUNDEDRECTD167*%
G04:AMPARAMS|DCode=168|XSize=0.9032mm|YSize=1.5032mm|CornerRadius=0.2066mm|HoleSize=0mm|Usage=FLASHONLY|Rotation=0.000|XOffset=0mm|YOffset=0mm|HoleType=Round|Shape=RoundedRectangle|*
%AMROUNDEDRECTD168*
21,1,0.9032,1.0900,0,0,0.0*
21,1,0.4900,1.5032,0,0,0.0*
1,1,0.4132,0.2450,-0.5450*
1,1,0.4132,-0.2450,-0.5450*
1,1,0.4132,-0.2450,0.5450*
1,1,0.4132,0.2450,0.5450*
%
%ADD168ROUNDEDRECTD168*%
G36*
X2665300Y1132410D02*
X2536000D01*
Y1195500D01*
X2665300D01*
Y1132410D01*
D02*
G37*
G36*
Y1065100D02*
X2590370D01*
Y1004140D01*
X2665300D01*
Y909500D01*
X2536000D01*
Y1118440D01*
X2665300D01*
Y1065100D01*
D02*
G37*
G36*
Y840500D02*
X2589290D01*
X2580210Y831420D01*
Y797130D01*
X2536000D01*
Y889840D01*
X2665300D01*
Y840500D01*
D02*
G37*
G36*
Y691720D02*
X2536000D01*
Y782000D01*
X2665300D01*
Y691720D01*
D02*
G37*
G36*
Y621750D02*
X2585170D01*
X2580210Y616790D01*
Y582500D01*
X2536000D01*
Y679000D01*
X2665300D01*
Y621750D01*
D02*
G37*
G36*
Y470740D02*
X2536000D01*
Y560910D01*
X2665300D01*
Y470740D01*
D02*
G37*
G36*
X2665250Y404500D02*
X2580500D01*
Y454250D01*
X2665250D01*
Y404500D01*
D02*
G37*
G36*
X2010364Y102500D02*
X1800000D01*
Y433250D01*
X2010364D01*
Y102500D01*
D02*
G37*
G36*
X1609846Y101250D02*
X1440282D01*
Y433250D01*
X1609846D01*
Y101250D01*
D02*
G37*
D20*
X1880250Y648750D02*
X1919250D01*
X1881250Y681750D02*
X1920250D01*
X1880000Y754500D02*
X1919000D01*
X1881000Y787500D02*
X1920000D01*
X1965750Y569000D02*
Y608000D01*
Y635750D02*
Y674750D01*
X2000000Y909000D02*
Y948000D01*
Y839250D02*
Y878250D01*
Y772500D02*
Y811500D01*
Y703500D02*
Y742500D01*
X1967000Y910000D02*
Y949000D01*
Y840250D02*
Y879250D01*
Y773500D02*
Y812500D01*
Y704500D02*
Y743500D01*
X1833000Y912250D02*
Y951250D01*
Y842500D02*
Y881500D01*
Y775750D02*
Y814750D01*
Y706750D02*
Y745750D01*
X1606500Y914250D02*
Y953250D01*
Y777750D02*
Y816750D01*
Y844500D02*
Y883500D01*
Y708750D02*
Y747750D01*
X1557250Y987500D02*
X1596250D01*
X1549250Y1016750D02*
X1588250D01*
X1757750Y1019250D02*
X1787750D01*
X1621250D02*
X1660250D01*
X1691000D02*
X1730000D01*
X1765750Y990000D02*
X1795750D01*
X1629250D02*
X1668250D01*
X1699000D02*
X1738000D01*
X1960000Y1019250D02*
X1990000D01*
X1823500D02*
X1862500D01*
X1893250D02*
X1932250D01*
X1968500Y988750D02*
X1998500D01*
X1832000D02*
X1871000D01*
X1901750D02*
X1940750D01*
X1778250Y658500D02*
X1817250D01*
X1711500D02*
X1750500D01*
X1641750D02*
X1680750D01*
X1560500Y862750D02*
Y901750D01*
X1702500Y882500D02*
X1741500D01*
X1884000Y893500D02*
X1923000D01*
X1645250Y710500D02*
Y749500D01*
Y846250D02*
Y885250D01*
Y779500D02*
Y818500D01*
Y916000D02*
Y955000D01*
X1558000Y753750D02*
Y792750D01*
X1700500Y777000D02*
X1739500D01*
X1794750Y707750D02*
Y746750D01*
Y776750D02*
Y815750D01*
Y843500D02*
Y882500D01*
Y913250D02*
Y952250D01*
X1883000Y865000D02*
X1922000D01*
X1999500Y636000D02*
Y675000D01*
Y569250D02*
Y608250D01*
X1361000Y699750D02*
Y850500D01*
X1381496Y1097873D02*
X1434496Y1156623D01*
X1435072Y1177750D02*
X1437072Y1299000D01*
X1478143Y1177750D02*
X1480143Y1299000D01*
X1521214Y1177750D02*
X1523214Y1299000D01*
X1270750Y669500D02*
X1272250Y1124929D01*
X1244750Y667000D02*
X1245000Y1124000D01*
X1216750Y1122964D02*
X1218000Y666786D01*
X838500Y2730750D02*
Y2769750D01*
X807500Y2731250D02*
Y2770250D01*
X475750Y690750D02*
Y729750D01*
X476250Y618500D02*
Y657500D01*
X475750Y562250D02*
Y592250D01*
X510750Y691000D02*
Y730000D01*
X511250Y618750D02*
Y657750D01*
X510750Y562500D02*
Y592500D01*
X546750Y690750D02*
Y729750D01*
X547250Y618500D02*
Y657500D01*
X546750Y562250D02*
Y592250D01*
X475250Y973500D02*
Y1012500D01*
X475750Y901250D02*
Y940250D01*
X475250Y829500D02*
Y868500D01*
X475000Y761500D02*
Y800500D01*
X510250Y973750D02*
Y1012750D01*
X510750Y901500D02*
Y940500D01*
X510250Y829750D02*
Y868750D01*
X510000Y761750D02*
Y800750D01*
X546250Y973500D02*
Y1012500D01*
X546750Y901250D02*
Y940250D01*
X546250Y829500D02*
Y868500D01*
X546000Y761500D02*
Y800500D01*
X546000Y1046500D02*
Y1085500D01*
X546250Y1114500D02*
Y1153500D01*
X546750Y1186250D02*
Y1225250D01*
X546250Y1258500D02*
Y1297500D01*
X510000Y1046750D02*
Y1085750D01*
X510250Y1114750D02*
Y1153750D01*
X510750Y1186500D02*
Y1225500D01*
X510250Y1258750D02*
Y1297750D01*
X475000Y1046500D02*
Y1085500D01*
X475250Y1114500D02*
Y1153500D01*
X475750Y1186250D02*
Y1225250D01*
X475250Y1258500D02*
Y1297500D01*
X1494000Y1387500D02*
X1533000D01*
X1415500D02*
X1454500D01*
X1372250Y1393250D02*
Y1432250D01*
X1375500Y1464250D02*
Y1503250D01*
X1189750Y1468500D02*
Y1507500D01*
X1227250Y1468500D02*
Y1507500D01*
X1260250Y1468500D02*
Y1507500D01*
X1297500Y1468500D02*
Y1507500D01*
X1336500Y1468500D02*
Y1507500D01*
X1186500Y1397500D02*
Y1436500D01*
X1224000Y1397500D02*
Y1436500D01*
X1257000Y1397500D02*
Y1436500D01*
X1294250Y1397500D02*
Y1436500D01*
X1333250Y1397500D02*
Y1436500D01*
X2568750Y1422250D02*
X2607750D01*
X2636500Y1420750D02*
X2675500D01*
X2709000Y1427750D02*
Y1466750D01*
Y1500500D02*
Y1539500D01*
X2671750Y1576250D02*
X2710750D01*
X2606750Y1605000D02*
X2645750D01*
X2562500Y1592250D02*
Y1631250D01*
X2561250Y1522500D02*
Y1561500D01*
X2560250Y1456000D02*
Y1495000D01*
X2497250Y1522000D02*
Y1561000D01*
X2464750Y1532500D02*
Y1563750D01*
X2532000Y1523500D02*
Y1562500D01*
X2530750Y1467250D02*
Y1492750D01*
X2365000Y1653500D02*
Y1692500D01*
X2398750Y1657250D02*
Y1696250D01*
X2397500Y1626500D02*
X2397750Y1603000D01*
X2433500Y1658250D02*
Y1697250D01*
X2432250Y1588500D02*
Y1627500D01*
X2533000Y1590000D02*
Y1629000D01*
X2534250Y1734583D02*
Y1773583D01*
Y1659750D02*
Y1698750D01*
X2498750Y1588000D02*
Y1627000D01*
X2500000Y1732583D02*
Y1771583D01*
Y1657750D02*
Y1696750D01*
X2466000Y1587250D02*
Y1626250D01*
X2467250Y1731833D02*
Y1770833D01*
Y1657000D02*
Y1696000D01*
X2368750Y2165083D02*
Y2204083D01*
Y2239917D02*
Y2278917D01*
Y2090250D02*
Y2129250D01*
Y2314750D02*
Y2353750D01*
X2368500Y2016000D02*
Y2055000D01*
Y1791500D02*
Y1830500D01*
Y1941167D02*
Y1980167D01*
Y1866333D02*
Y1905333D01*
X2367250Y1721750D02*
Y1760750D01*
X2403000Y2163333D02*
Y2202333D01*
Y2238167D02*
Y2277167D01*
Y2088500D02*
Y2127500D01*
Y2313000D02*
Y2352000D01*
X2402750Y2014250D02*
Y2053250D01*
Y1789750D02*
Y1828750D01*
Y1939417D02*
Y1978417D01*
Y1864583D02*
Y1903583D01*
X2401500Y1720000D02*
Y1759000D01*
X2435500Y2167583D02*
Y2206583D01*
Y2242417D02*
Y2281417D01*
Y2092750D02*
Y2131750D01*
Y2317250D02*
Y2356250D01*
X2435250Y2018500D02*
Y2057500D01*
Y1794000D02*
Y1833000D01*
Y1943667D02*
Y1982667D01*
Y1868833D02*
Y1907833D01*
X2434000Y1724250D02*
Y1763250D01*
X2470000Y2247833D02*
Y2286833D01*
Y2322667D02*
Y2361667D01*
Y2173000D02*
Y2212000D01*
Y2397500D02*
Y2436500D01*
X2469750Y2098750D02*
Y2137750D01*
Y1874250D02*
Y1913250D01*
Y2023917D02*
Y2062917D01*
Y1949083D02*
Y1988083D01*
X2468500Y1804500D02*
Y1843500D01*
X2501250Y2250583D02*
Y2289583D01*
Y2325417D02*
Y2364417D01*
Y2175750D02*
Y2214750D01*
Y2400250D02*
Y2439250D01*
X2501000Y2101500D02*
Y2140500D01*
Y1877000D02*
Y1916000D01*
Y2026667D02*
Y2065667D01*
Y1951833D02*
Y1990833D01*
X2499750Y1807250D02*
Y1846250D01*
X2532750Y2251083D02*
Y2290083D01*
Y2325917D02*
Y2364917D01*
Y2176250D02*
Y2215250D01*
Y2400750D02*
Y2439750D01*
X2532500Y2102000D02*
Y2141000D01*
Y1877500D02*
Y1916500D01*
Y2027167D02*
Y2066167D01*
Y1952333D02*
Y1991333D01*
X2531250Y1807750D02*
Y1846750D01*
X2398750Y3007000D02*
X2417000Y3007250D01*
X1684250Y3045250D02*
X1710264Y3044953D01*
X1672000Y3013500D02*
X1711000D01*
X1672000Y2984000D02*
X1711000D01*
X2186333Y2987000D02*
X2225333D01*
X2261167D02*
X2300167D01*
X2336000D02*
X2375000D01*
X1960333D02*
X1999333D01*
X2035167D02*
X2074167D01*
X2110000D02*
X2149000D01*
X1737333Y2985000D02*
X1776333D01*
X1812167D02*
X1851167D01*
X1887000D02*
X1926000D01*
X2186333Y3016500D02*
X2225333D01*
X2261167D02*
X2300167D01*
X2336000D02*
X2375000D01*
X1960333D02*
X1999333D01*
X2035167D02*
X2074167D01*
X2110000D02*
X2149000D01*
X1737333Y3014500D02*
X1776333D01*
X1812167D02*
X1851167D01*
X1887000D02*
X1926000D01*
X1886264Y3045953D02*
X1925264D01*
X1811431D02*
X1850431D01*
X1736597D02*
X1775597D01*
X2109264Y3047953D02*
X2148264D01*
X2034431D02*
X2073431D01*
X1959597D02*
X1998597D01*
X2335264D02*
X2374264D01*
X2260431D02*
X2299431D01*
X2185597D02*
X2224597D01*
X2363953Y2763486D02*
Y2802486D01*
Y2838319D02*
Y2877319D01*
Y2913153D02*
Y2952153D01*
X2398953Y2782986D02*
Y2821986D01*
Y2857820D02*
Y2896819D01*
Y2932653D02*
Y2971653D01*
X2437453Y2781736D02*
Y2820736D01*
Y2856569D02*
Y2895569D01*
Y2931403D02*
Y2970403D01*
X2475453Y2725486D02*
Y2764486D01*
Y2800319D02*
Y2839319D01*
Y2875153D02*
Y2914153D01*
X1922250Y2464750D02*
X1952250D01*
X1883000Y2429250D02*
X1913000D01*
X2037500Y2740000D02*
X2067500D01*
X2075500Y2773250D02*
Y2803250D01*
X2043500Y2773250D02*
Y2803250D01*
X1975250Y2780250D02*
Y2810250D01*
X2009500Y2548083D02*
Y2578083D01*
Y2622917D02*
Y2652917D01*
X2009750Y2697167D02*
Y2727167D01*
Y2772000D02*
Y2802000D01*
X1962750Y2500333D02*
Y2530333D01*
Y2575167D02*
Y2605167D01*
X1963000Y2649417D02*
Y2679417D01*
Y2724250D02*
Y2754250D01*
X1925250Y2498083D02*
Y2528083D01*
Y2572917D02*
Y2602917D01*
X1925500Y2647167D02*
Y2677167D01*
Y2722000D02*
Y2752000D01*
X1889500Y2498083D02*
Y2528083D01*
Y2572917D02*
Y2602917D01*
X1889750Y2647167D02*
Y2677167D01*
Y2722000D02*
Y2752000D01*
X1819000Y2422250D02*
Y2452250D01*
X1818750Y2497750D02*
Y2527750D01*
X1818250Y2572250D02*
Y2602250D01*
X1820500Y2722000D02*
Y2752000D01*
X1853000Y2720000D02*
Y2750000D01*
Y2645167D02*
Y2675167D01*
X1852750Y2570917D02*
Y2600917D01*
Y2421250D02*
Y2451250D01*
Y2496083D02*
Y2526083D01*
X1784750Y2424250D02*
Y2454250D01*
Y2499083D02*
Y2529083D01*
X1785000Y2573333D02*
Y2603333D01*
Y2723000D02*
Y2753000D01*
Y2648167D02*
Y2678167D01*
X1751500Y2647833D02*
Y2677833D01*
Y2722667D02*
Y2752667D01*
Y2573000D02*
Y2603000D01*
X1751250Y2498750D02*
Y2528750D01*
Y2423917D02*
Y2453917D01*
X2199000Y2130500D02*
X2238000D01*
X2241000Y2162250D02*
Y2201250D01*
X2193750Y2162250D02*
Y2201250D01*
X2195000Y2306833D02*
Y2345833D01*
Y2381667D02*
Y2420667D01*
Y2232000D02*
Y2271000D01*
Y2456500D02*
Y2495500D01*
X2242250Y2306833D02*
Y2345833D01*
Y2381667D02*
Y2420667D01*
Y2232000D02*
Y2271000D01*
Y2456500D02*
Y2495500D01*
X2194750Y2605333D02*
Y2644333D01*
Y2680167D02*
Y2719167D01*
Y2530500D02*
Y2569500D01*
Y2755000D02*
Y2794000D01*
X2242500Y2755250D02*
Y2794250D01*
Y2530750D02*
Y2569750D01*
Y2680417D02*
Y2719417D01*
Y2605583D02*
Y2644583D01*
X1072670Y2257501D02*
X1111670D01*
X1139170Y2256251D02*
X1178170D01*
X1205170Y2255751D02*
X1244170D01*
X1249750Y2182500D02*
Y2221500D01*
X1212250Y2182500D02*
Y2221500D01*
X1176500Y2182500D02*
Y2221500D01*
X1140750Y2182500D02*
Y2221500D01*
X1107000Y2182500D02*
Y2221500D01*
X1075750Y2182500D02*
Y2221500D01*
X1255250Y2103250D02*
Y2142250D01*
X1217750Y2103250D02*
Y2142250D01*
X1182000Y2103250D02*
Y2142250D01*
X1146250Y2103250D02*
Y2142250D01*
X1112500Y2103250D02*
Y2142250D01*
X1081250Y2103250D02*
Y2142250D01*
X895000Y1735500D02*
Y1774500D01*
X928000Y1735500D02*
Y1774500D01*
X965250Y1735500D02*
Y1774500D01*
X1513000Y1997000D02*
X1552000D01*
X1416750Y2000750D02*
X1455750D01*
X1488250Y2014750D02*
Y2053750D01*
X1447000Y2035000D02*
Y2074000D01*
X1411750Y2035750D02*
Y2074750D01*
X2226250Y1763500D02*
Y1802500D01*
X2161250Y1775750D02*
Y1814750D01*
X2193000Y1774250D02*
Y1813250D01*
X2127250Y1774250D02*
Y1813250D01*
X2092000Y1774250D02*
Y1813250D01*
X1945000Y1779250D02*
Y1818250D01*
X1976750Y1777750D02*
Y1816750D01*
X1911000Y1777750D02*
Y1816750D01*
X1875750Y1777750D02*
Y1816750D01*
X1779750Y1884500D02*
X1818750D01*
X2226500Y1900000D02*
Y1939000D01*
X2225000Y1834750D02*
Y1873750D01*
X1409000Y1779750D02*
Y1818750D01*
X1444250Y1779750D02*
Y1818750D01*
X1510000Y1779750D02*
Y1818750D01*
X1543750Y1779750D02*
Y1818750D01*
X1579500Y1779750D02*
Y1818750D01*
X1615250Y1779750D02*
Y1818750D01*
X1652750Y1779750D02*
Y1818750D01*
X1685750Y1779750D02*
Y1818750D01*
X1723000Y1779750D02*
Y1818750D01*
X1478250Y1781250D02*
Y1820250D01*
X1410500Y1849000D02*
Y1888000D01*
X1445750Y1849000D02*
Y1888000D01*
X1511500Y1849000D02*
Y1888000D01*
X1545250Y1849000D02*
Y1888000D01*
X1581000Y1849000D02*
Y1888000D01*
X1616750Y1849000D02*
Y1888000D01*
X1654250Y1849000D02*
Y1888000D01*
X1687250Y1849000D02*
Y1888000D01*
X1724500Y1849000D02*
Y1888000D01*
X1479750Y1850500D02*
Y1889500D01*
X1872500Y1855750D02*
Y1894750D01*
X1907750Y1855750D02*
Y1894750D01*
X1973500Y1855750D02*
Y1894750D01*
X2007250Y1855750D02*
Y1894750D01*
X2043000Y1855750D02*
Y1894750D01*
X2078750Y1855750D02*
Y1894750D01*
X2116250Y1855750D02*
Y1894750D01*
X2149250Y1855750D02*
Y1894750D01*
X2186500Y1855750D02*
Y1894750D01*
X1941750Y1857250D02*
Y1896250D01*
X1061750Y1808750D02*
Y1847750D01*
X1097500Y1808750D02*
Y1847750D01*
X1133250Y1808750D02*
Y1847750D01*
X1170750Y1808750D02*
Y1847750D01*
X1203750Y1808750D02*
Y1847750D01*
X1241000Y1808750D02*
Y1847750D01*
X1474250Y1699500D02*
Y1738500D01*
X1540000Y1699500D02*
Y1738500D01*
X1573750Y1699500D02*
Y1738500D01*
X1609500Y1699500D02*
Y1738500D01*
X1645250Y1699500D02*
Y1738500D01*
X1682750Y1699500D02*
Y1738500D01*
X1715750Y1699500D02*
Y1738500D01*
X1753000Y1699500D02*
Y1738500D01*
X1508250Y1701000D02*
Y1740000D01*
X1828250Y1697500D02*
Y1736500D01*
X1866500Y1696500D02*
Y1735500D01*
X1901750Y1696500D02*
Y1735500D01*
X1967500Y1696500D02*
Y1735500D01*
X2001250Y1696500D02*
Y1735500D01*
X2037000Y1696500D02*
Y1735500D01*
X2072750Y1696500D02*
Y1735500D01*
X2110250Y1696500D02*
Y1735500D01*
X2143250Y1696500D02*
Y1735500D01*
X2180500Y1696500D02*
Y1735500D01*
X1792750Y1698000D02*
Y1737000D01*
X1935750Y1698000D02*
Y1737000D01*
X1412250Y1925000D02*
Y1964000D01*
X1450500Y1924000D02*
Y1963000D01*
X1485750Y1924000D02*
Y1963000D01*
X1551500Y1924000D02*
Y1963000D01*
X1585250Y1924000D02*
Y1963000D01*
X1621000Y1924000D02*
Y1963000D01*
X1656750Y1924000D02*
Y1963000D01*
X1694250Y1924000D02*
Y1963000D01*
X1727250Y1924000D02*
Y1963000D01*
X1764500Y1924000D02*
Y1963000D01*
X1519750Y1925500D02*
Y1964500D01*
X1943250Y1922500D02*
Y1961500D01*
X1800250Y1922500D02*
Y1961500D01*
X2188000Y1921000D02*
Y1960000D01*
X2150750Y1921000D02*
Y1960000D01*
X2117750Y1921000D02*
Y1960000D01*
X2080250Y1921000D02*
Y1960000D01*
X2044500Y1921000D02*
Y1960000D01*
X2008750Y1921000D02*
Y1960000D01*
X1975000Y1921000D02*
Y1960000D01*
X1909250Y1921000D02*
Y1960000D01*
X1874000Y1921000D02*
Y1960000D01*
X1835750Y1922000D02*
Y1961000D01*
X618000Y1736500D02*
Y1775500D01*
X467750Y1735500D02*
Y1774500D01*
X862750Y1735000D02*
Y1774000D01*
X825500Y1735000D02*
Y1774000D01*
X792500Y1735000D02*
Y1774000D01*
X755000Y1735000D02*
Y1774000D01*
X719250Y1735000D02*
Y1774000D01*
X683500Y1735000D02*
Y1774000D01*
X649750Y1735000D02*
Y1774000D01*
X584000Y1735000D02*
Y1774000D01*
X548750Y1735000D02*
Y1774000D01*
X510500Y1736000D02*
Y1775000D01*
X620250Y1821500D02*
Y1860500D01*
X470000Y1820500D02*
Y1859500D01*
X757250Y1820000D02*
Y1859000D01*
X721500Y1820000D02*
Y1859000D01*
X685750Y1820000D02*
Y1859000D01*
X652000Y1820000D02*
Y1859000D01*
X586250Y1820000D02*
Y1859000D01*
X551000Y1820000D02*
Y1859000D01*
X512750Y1821000D02*
Y1860000D01*
X555500Y1895750D02*
Y1934750D01*
X800250Y1894250D02*
Y1933250D01*
X763000Y1894250D02*
Y1933250D01*
X730000Y1894250D02*
Y1933250D01*
X692500Y1894250D02*
Y1933250D01*
X656750Y1894250D02*
Y1933250D01*
X621000Y1894250D02*
Y1933250D01*
X587250Y1894250D02*
Y1933250D01*
X521500Y1894250D02*
Y1933250D01*
X486250Y1894250D02*
Y1933250D01*
X996250Y1895000D02*
Y1934000D01*
X846000Y1894000D02*
Y1933000D01*
X1241000Y1893500D02*
Y1932500D01*
X1203750Y1893500D02*
Y1932500D01*
X1170750Y1893500D02*
Y1932500D01*
X1133250Y1893500D02*
Y1932500D01*
X1097500Y1893500D02*
Y1932500D01*
X1061750Y1893500D02*
Y1932500D01*
X1028000Y1893500D02*
Y1932500D01*
X962250Y1893500D02*
Y1932500D01*
X927000Y1893500D02*
Y1932500D01*
X888750Y1894500D02*
Y1933500D01*
X1064750Y1963250D02*
Y2002250D01*
X914500Y1962250D02*
Y2001250D01*
X1239250Y1961750D02*
Y2000750D01*
X1201750Y1961750D02*
Y2000750D01*
X1166000Y1961750D02*
Y2000750D01*
X1130250Y1961750D02*
Y2000750D01*
X1096500Y1961750D02*
Y2000750D01*
X1030750Y1961750D02*
Y2000750D01*
X995500Y1961750D02*
Y2000750D01*
X957250Y1962750D02*
Y2001750D01*
X628000Y1960750D02*
Y1999750D01*
X477750Y1959750D02*
Y1998750D01*
X872750Y1959250D02*
Y1998250D01*
X835500Y1959250D02*
Y1998250D01*
X802500Y1959250D02*
Y1998250D01*
X765000Y1959250D02*
Y1998250D01*
X729250Y1959250D02*
Y1998250D01*
X693500Y1959250D02*
Y1998250D01*
X659750Y1959250D02*
Y1998250D01*
X594000Y1959250D02*
Y1998250D01*
X558750Y1959250D02*
Y1998250D01*
X520500Y1960250D02*
Y1999250D01*
X626250Y2437500D02*
Y2476500D01*
X476000Y2436500D02*
Y2475500D01*
X871000Y2436000D02*
Y2475000D01*
X833750Y2436000D02*
Y2475000D01*
X800750Y2436000D02*
Y2475000D01*
X763250Y2436000D02*
Y2475000D01*
X727500Y2436000D02*
Y2475000D01*
X691750Y2436000D02*
Y2475000D01*
X658000Y2436000D02*
Y2475000D01*
X592250Y2436000D02*
Y2475000D01*
X557000Y2436000D02*
Y2475000D01*
X518750Y2437000D02*
Y2476000D01*
X626250Y2353250D02*
Y2392250D01*
X476000Y2352250D02*
Y2391250D01*
X871000Y2351750D02*
Y2390750D01*
X833750Y2351750D02*
Y2390750D01*
X800750Y2351750D02*
Y2390750D01*
X763250Y2351750D02*
Y2390750D01*
X727500Y2351750D02*
Y2390750D01*
X691750Y2351750D02*
Y2390750D01*
X658000Y2351750D02*
Y2390750D01*
X592250Y2351750D02*
Y2390750D01*
X557000Y2351750D02*
Y2390750D01*
X518750Y2352750D02*
Y2391750D01*
X628000Y2276000D02*
Y2315000D01*
X477750Y2275000D02*
Y2314000D01*
X872750Y2274500D02*
Y2313500D01*
X835500Y2274500D02*
Y2313500D01*
X802500Y2274500D02*
Y2313500D01*
X765000Y2274500D02*
Y2313500D01*
X729250Y2274500D02*
Y2313500D01*
X693500Y2274500D02*
Y2313500D01*
X659750Y2274500D02*
Y2313500D01*
X594000Y2274500D02*
Y2313500D01*
X558750Y2274500D02*
Y2313500D01*
X520500Y2275500D02*
Y2314500D01*
X626250Y2198750D02*
Y2237750D01*
X476000Y2197750D02*
Y2236750D01*
X871000Y2197250D02*
Y2236250D01*
X833750Y2197250D02*
Y2236250D01*
X800750Y2197250D02*
Y2236250D01*
X763250Y2197250D02*
Y2236250D01*
X727500Y2197250D02*
Y2236250D01*
X691750Y2197250D02*
Y2236250D01*
X658000Y2197250D02*
Y2236250D01*
X592250Y2197250D02*
Y2236250D01*
X557000Y2197250D02*
Y2236250D01*
X518750Y2198250D02*
Y2237250D01*
X627250Y2122250D02*
Y2161250D01*
X477000Y2121250D02*
Y2160250D01*
X872000Y2120750D02*
Y2159750D01*
X834750Y2120750D02*
Y2159750D01*
X801750Y2120750D02*
Y2159750D01*
X764250Y2120750D02*
Y2159750D01*
X728500Y2120750D02*
Y2159750D01*
X692750Y2120750D02*
Y2159750D01*
X659000Y2120750D02*
Y2159750D01*
X593250Y2120750D02*
Y2159750D01*
X558000Y2120750D02*
Y2159750D01*
X519750Y2121750D02*
Y2160750D01*
X986000Y2036250D02*
Y2075250D01*
X1024250Y2035250D02*
Y2074250D01*
X1059500Y2035250D02*
Y2074250D01*
X1094000Y2035250D02*
Y2074250D01*
X1125250Y2035250D02*
Y2074250D01*
X1159000Y2035250D02*
Y2074250D01*
X1194750Y2035250D02*
Y2074250D01*
X1230500Y2035250D02*
Y2074250D01*
X1268000Y2035250D02*
Y2074250D01*
X1301000Y2035250D02*
Y2074250D01*
X1338250Y2035250D02*
Y2074250D01*
X1377250Y2035250D02*
Y2074250D01*
X520500Y2037500D02*
Y2076500D01*
X558750Y2036500D02*
Y2075500D01*
X594000Y2036500D02*
Y2075500D01*
X659750Y2036500D02*
Y2075500D01*
X693500Y2036500D02*
Y2075500D01*
X729250Y2036500D02*
Y2075500D01*
X765000Y2036500D02*
Y2075500D01*
X802500Y2036500D02*
Y2075500D01*
X835500Y2036500D02*
Y2075500D01*
X872750Y2036500D02*
Y2075500D01*
X911750Y2036500D02*
Y2075500D01*
X477750Y2037000D02*
Y2076000D01*
X946250Y2036750D02*
Y2075750D01*
X628000Y2038000D02*
Y2077000D01*
X1130250Y962250D02*
Y1001250D01*
X1130750Y1035500D02*
Y1074500D01*
X1212250Y1157500D02*
X1251250D01*
X1168250Y1113750D02*
Y1152750D01*
X1131750Y1113250D02*
Y1152250D01*
X663500Y1113250D02*
Y1152250D01*
Y1035500D02*
Y1074500D01*
X662500Y962500D02*
Y1001500D01*
X626000Y1541750D02*
Y1580750D01*
X626500Y1469250D02*
Y1508250D01*
X625000Y1396750D02*
Y1435750D01*
X985750Y1396250D02*
Y1435250D01*
X1024750Y1396250D02*
Y1435250D01*
X985750Y1467250D02*
Y1506250D01*
X1024750Y1467250D02*
Y1506250D01*
X944250Y1396500D02*
Y1435500D01*
X943750Y1468750D02*
Y1507750D01*
X944250Y1540500D02*
Y1579500D01*
X475750Y1540750D02*
Y1579750D01*
X476250Y1468500D02*
Y1507500D01*
X475750Y1396750D02*
Y1435750D01*
X793250Y1328750D02*
Y1367750D01*
X754250Y1328750D02*
Y1367750D01*
X717000Y1328750D02*
Y1367750D01*
X684000Y1328750D02*
Y1367750D01*
X646500Y1328750D02*
Y1367750D01*
X610750Y1328750D02*
Y1367750D01*
X575000Y1328750D02*
Y1367750D01*
X541250Y1328750D02*
Y1367750D01*
X510000Y1328750D02*
Y1367750D01*
X475500Y1328750D02*
Y1367750D01*
X909750Y1396250D02*
Y1435250D01*
X870750Y1396250D02*
Y1435250D01*
X833500Y1396250D02*
Y1435250D01*
X800500Y1396250D02*
Y1435250D01*
X763000Y1396250D02*
Y1435250D01*
X727250Y1396250D02*
Y1435250D01*
X691500Y1396250D02*
Y1435250D01*
X657750Y1396250D02*
Y1435250D01*
X592000Y1396250D02*
Y1435250D01*
X556750Y1396250D02*
Y1435250D01*
X518500Y1397250D02*
Y1436250D01*
X910250Y1468000D02*
Y1507000D01*
X871250Y1468000D02*
Y1507000D01*
X834000Y1468000D02*
Y1507000D01*
X801000Y1468000D02*
Y1507000D01*
X763500Y1468000D02*
Y1507000D01*
X727750Y1468000D02*
Y1507000D01*
X692000Y1468000D02*
Y1507000D01*
X658250Y1468000D02*
Y1507000D01*
X592500Y1468000D02*
Y1507000D01*
X557250Y1468000D02*
Y1507000D01*
X519000Y1469000D02*
Y1508000D01*
X909750Y1540250D02*
Y1579250D01*
X870750Y1540250D02*
Y1579250D01*
X833500Y1540250D02*
Y1579250D01*
X800500Y1540250D02*
Y1579250D01*
X763000Y1540250D02*
Y1579250D01*
X727250Y1540250D02*
Y1579250D01*
X691500Y1540250D02*
Y1579250D01*
X657750Y1540250D02*
Y1579250D01*
X592000Y1540250D02*
Y1579250D01*
X556750Y1540250D02*
Y1579250D01*
X518500Y1541250D02*
Y1580250D01*
X1223500Y1329000D02*
Y1368000D01*
X1184500Y1329000D02*
Y1368000D01*
X1147250Y1329000D02*
Y1368000D01*
X1114250Y1329000D02*
Y1368000D01*
X1076750Y1329000D02*
Y1368000D01*
X1041000Y1329000D02*
Y1368000D01*
X1005250Y1329000D02*
Y1368000D01*
X971500Y1329000D02*
Y1368000D01*
X940250Y1329000D02*
Y1368000D01*
X905750Y1329000D02*
Y1368000D01*
X870500Y1329000D02*
Y1368000D01*
X832250Y1330000D02*
Y1369000D01*
X1375250Y1539000D02*
Y1578000D01*
X1336250Y1539000D02*
Y1578000D01*
X1299000Y1539000D02*
Y1578000D01*
X1266000Y1539000D02*
Y1578000D01*
X1228500Y1539000D02*
Y1578000D01*
X1192750Y1539000D02*
Y1578000D01*
X1157000Y1539000D02*
Y1578000D01*
X1123250Y1539000D02*
Y1578000D01*
X1092000Y1539000D02*
Y1578000D01*
X1057500Y1539000D02*
Y1578000D01*
X1022250Y1539000D02*
Y1578000D01*
X984000Y1540000D02*
Y1579000D01*
X454500Y169500D02*
Y199500D01*
X387750Y163750D02*
X417750D01*
X720500Y324750D02*
Y354750D01*
X713250Y389000D02*
X743250D01*
X713250Y422750D02*
X743250D01*
X713250Y458500D02*
X743250D01*
X713250Y494250D02*
X743250D01*
X490750Y441250D02*
X520750D01*
X490750Y402250D02*
X520750D01*
X490750Y365000D02*
X520750D01*
X490750Y332000D02*
X520750D01*
X490750Y294500D02*
X520750D01*
X490750Y258750D02*
X520750D01*
X490750Y223000D02*
X520750D01*
X490750Y189250D02*
X520750D01*
X559500Y443250D02*
X589500D01*
X559500Y404250D02*
X589500D01*
X559500Y367000D02*
X589500D01*
X559500Y334000D02*
X589500D01*
X559500Y296500D02*
X589500D01*
X559500Y260750D02*
X589500D01*
X559500Y225000D02*
X589500D01*
X559500Y191250D02*
X589500D01*
X650250Y496500D02*
X680250D01*
X650250Y457500D02*
X680250D01*
X650250Y420250D02*
X680250D01*
X650250Y387250D02*
X680250D01*
X650250Y349750D02*
X680250D01*
X650250Y314000D02*
X680250D01*
X650250Y278250D02*
X680250D01*
X650250Y244500D02*
X680250D01*
X652000Y921750D02*
X682000D01*
X652000Y882750D02*
X682000D01*
X652000Y845500D02*
X682000D01*
X652000Y812500D02*
X682000D01*
X652000Y775000D02*
X682000D01*
X652000Y739250D02*
X682000D01*
X652000Y703500D02*
X682000D01*
X652000Y669750D02*
X682000D01*
X652000Y638500D02*
X682000D01*
X652000Y604000D02*
X682000D01*
X652000Y568750D02*
X682000D01*
X651000Y530500D02*
X681000D01*
X709500Y531500D02*
X739500D01*
X710500Y569750D02*
X740500D01*
X710500Y605000D02*
X740500D01*
X710500Y639500D02*
X740500D01*
X710500Y670750D02*
X740500D01*
X710500Y704500D02*
X740500D01*
X710500Y740250D02*
X740500D01*
X710500Y776000D02*
X740500D01*
X710500Y813500D02*
X740500D01*
X710500Y846500D02*
X740500D01*
X710500Y883750D02*
X740500D01*
X710500Y922750D02*
X740500D01*
X699750Y964000D02*
Y1003000D01*
X738000Y963000D02*
Y1002000D01*
X773250Y963000D02*
Y1002000D01*
X807750Y963000D02*
Y1002000D01*
X839000Y963000D02*
Y1002000D01*
X872750Y963000D02*
Y1002000D01*
X908500Y963000D02*
Y1002000D01*
X944250Y963000D02*
Y1002000D01*
X981750Y963000D02*
Y1002000D01*
X1014750Y963000D02*
Y1002000D01*
X1052000Y963000D02*
Y1002000D01*
X1091000Y963000D02*
Y1002000D01*
X700750Y1037000D02*
Y1076000D01*
X739000Y1036000D02*
Y1075000D01*
X774250Y1036000D02*
Y1075000D01*
X808750Y1036000D02*
Y1075000D01*
X840000Y1036000D02*
Y1075000D01*
X873750Y1036000D02*
Y1075000D01*
X909500Y1036000D02*
Y1075000D01*
X945250Y1036000D02*
Y1075000D01*
X982750Y1036000D02*
Y1075000D01*
X1015750Y1036000D02*
Y1075000D01*
X1053000Y1036000D02*
Y1075000D01*
X1092000Y1036000D02*
Y1075000D01*
X700750Y1114750D02*
Y1153750D01*
X739000Y1113750D02*
Y1152750D01*
X774250Y1113750D02*
Y1152750D01*
X808750Y1113750D02*
Y1152750D01*
X840000Y1113750D02*
Y1152750D01*
X873750Y1113750D02*
Y1152750D01*
X909500Y1113750D02*
Y1152750D01*
X945250Y1113750D02*
Y1152750D01*
X982750Y1113750D02*
Y1152750D01*
X1015750Y1113750D02*
Y1152750D01*
X1053000Y1113750D02*
Y1152750D01*
X1092000Y1113750D02*
Y1152750D01*
X1406750Y939250D02*
Y978250D01*
Y1057250D02*
Y1086500D01*
Y696000D02*
Y735000D01*
Y819750D02*
Y858750D01*
X1361000Y928750D02*
Y971822D01*
Y1057964D02*
Y1079500D01*
Y993357D02*
Y1036429D01*
X1368500Y1285500D02*
X1407500D01*
X1368500Y1255250D02*
X1407500D01*
X1368500Y1224000D02*
X1407500D01*
X1368500Y1190500D02*
X1407500D01*
X2448250Y1345500D02*
X2487250D01*
X2271000Y1521500D02*
X2310000D01*
X2197500Y1530500D02*
X2236500D01*
X2197500Y1493000D02*
X2236500D01*
X2197500Y1460000D02*
X2236500D01*
X2197500Y1422750D02*
X2236500D01*
X2197500Y1383750D02*
X2236500D01*
X2284750Y1486500D02*
X2323750D01*
X2284750Y1449000D02*
X2323750D01*
X2284750Y1416000D02*
X2323750D01*
X2284750Y1378750D02*
X2323750D01*
X2284750Y1339750D02*
X2323750D01*
X2373250Y1416000D02*
X2412250D01*
X2373250Y1380250D02*
X2412250D01*
X2373250Y1344500D02*
X2412250D01*
X2373250Y1307000D02*
X2412250D01*
X2373250Y1274000D02*
X2412250D01*
X2373250Y1236750D02*
X2412250D01*
X2373250Y1197750D02*
X2412250D01*
X2455500Y1309250D02*
X2494500D01*
X2455500Y1276250D02*
X2494500D01*
X2455500Y1239000D02*
X2494500D01*
X2455500Y1200000D02*
X2494500D01*
X2375500Y1158000D02*
X2414500D01*
X2375500Y1122250D02*
X2414500D01*
X2375500Y1086500D02*
X2414500D01*
X2375500Y1049000D02*
X2414500D01*
X2375500Y1016000D02*
X2414500D01*
X2375500Y978750D02*
X2414500D01*
X2375500Y939750D02*
X2414500D01*
X2459250Y1160250D02*
X2498250D01*
X2459250Y1124500D02*
X2498250D01*
X2459250Y1088750D02*
X2498250D01*
X2459250Y1051250D02*
X2498250D01*
X2459250Y1018250D02*
X2498250D01*
X2459250Y981000D02*
X2498250D01*
X2459250Y942000D02*
X2498250D01*
X2204000Y1275750D02*
X2243000D01*
X2204000Y1240000D02*
X2243000D01*
X2204000Y1204250D02*
X2243000D01*
X2140750Y950500D02*
X2179750D01*
X2140750Y989500D02*
X2179750D01*
X2140750Y1026750D02*
X2179750D01*
X2140750Y1059750D02*
X2179750D01*
X2140750Y1097250D02*
X2179750D01*
X2140750Y1133000D02*
X2179750D01*
X2140750Y1168750D02*
X2179750D01*
X2222750Y940250D02*
X2261750D01*
X2222750Y979250D02*
X2261750D01*
X2222750Y1016500D02*
X2261750D01*
X2222750Y1049500D02*
X2261750D01*
X2222750Y1087000D02*
X2261750D01*
X2222750Y1122750D02*
X2261750D01*
X2222750Y1158500D02*
X2261750D01*
X2154000Y302000D02*
X2193000D01*
X2154000Y341000D02*
X2193000D01*
X2154000Y378250D02*
X2193000D01*
X2154000Y411250D02*
X2193000D01*
X2154000Y448750D02*
X2193000D01*
X2154000Y484500D02*
X2193000D01*
X2154000Y520250D02*
X2193000D01*
X2154000Y554000D02*
X2193000D01*
X2154000Y585250D02*
X2193000D01*
X2154000Y619750D02*
X2193000D01*
X2154000Y655000D02*
X2193000D01*
X2155000Y911500D02*
X2194000D01*
X2155000Y875750D02*
X2194000D01*
X2155000Y840000D02*
X2194000D01*
X2155000Y802500D02*
X2194000D01*
X2155000Y769500D02*
X2194000D01*
X2155000Y732250D02*
X2194000D01*
X2155000Y693250D02*
X2194000D01*
X2240250Y654500D02*
X2279250D01*
X2309500D02*
X2348500D01*
X2378250D02*
X2417250D01*
X2451000Y653750D02*
X2490000D01*
X2240250Y693500D02*
X2279250D01*
X2309500D02*
X2348500D01*
X2378250D02*
X2417250D01*
X2451000Y692750D02*
X2490000D01*
X2240250Y730750D02*
X2279250D01*
X2309500D02*
X2348500D01*
X2378250D02*
X2417250D01*
X2451000Y730000D02*
X2490000D01*
X2240250Y763750D02*
X2279250D01*
X2309500D02*
X2348500D01*
X2378250D02*
X2417250D01*
X2451000Y763000D02*
X2490000D01*
X2240250Y801250D02*
X2279250D01*
X2309500D02*
X2348500D01*
X2378250D02*
X2417250D01*
X2451000Y800500D02*
X2490000D01*
X2240250Y837000D02*
X2279250D01*
X2309500D02*
X2348500D01*
X2378250D02*
X2417250D01*
X2451000Y836250D02*
X2490000D01*
X2240250Y872750D02*
X2279250D01*
X2450000Y615500D02*
X2489000D01*
X2377250Y616250D02*
X2416250D01*
X2308500D02*
X2347500D01*
X2239250D02*
X2278250D01*
X2450000Y580250D02*
X2489000D01*
X2377250Y581000D02*
X2416250D01*
X2308500D02*
X2347500D01*
X2239250D02*
X2278250D01*
X2450000Y545750D02*
X2489000D01*
X2377250Y546500D02*
X2416250D01*
X2308500D02*
X2347500D01*
X2239250D02*
X2278250D01*
X2450000Y514500D02*
X2489000D01*
X2377250Y515250D02*
X2416250D01*
X2308500D02*
X2347500D01*
X2239250D02*
X2278250D01*
X2450000Y480750D02*
X2489000D01*
X2377250Y481500D02*
X2416250D01*
X2308500D02*
X2347500D01*
X2239250D02*
X2278250D01*
X2450000Y445000D02*
X2489000D01*
X2377250Y445750D02*
X2416250D01*
X2308500D02*
X2347500D01*
X2239250D02*
X2278250D01*
X2450000Y409250D02*
X2489000D01*
X2377250Y410000D02*
X2416250D01*
X2308500D02*
X2347500D01*
X2239250D02*
X2278250D01*
X2450000Y371750D02*
X2489000D01*
X2377250Y372500D02*
X2416250D01*
X2308500D02*
X2347500D01*
X2239250D02*
X2278250D01*
X2450000Y338750D02*
X2489000D01*
X2377250Y339500D02*
X2416250D01*
X2308500D02*
X2347500D01*
X2239250D02*
X2278250D01*
X2450000Y301500D02*
X2489000D01*
X2377250Y302250D02*
X2416250D01*
X2308500D02*
X2347500D01*
X2239250D02*
X2278250D01*
X2450000Y262500D02*
X2489000D01*
X2377250Y263250D02*
X2416250D01*
X2308500D02*
X2347500D01*
X2239250D02*
X2278250D01*
D21*
X1119710Y1235280D02*
D03*
Y1455280D02*
D03*
X1795350Y1811580D02*
D03*
Y2111580D02*
D03*
X2035350Y1811580D02*
D03*
Y2111580D02*
D03*
D22*
X1781380Y573270D02*
D03*
Y393270D02*
D03*
X1591380Y573270D02*
D03*
Y393270D02*
D03*
D23*
X1708990Y2879930D02*
D03*
X1143840Y2436700D02*
D03*
X1226390Y1692480D02*
D03*
X2035380Y2383360D02*
D03*
X1686130Y244680D02*
D03*
X2746580Y220550D02*
D03*
X2035380Y2881200D02*
D03*
X2210640D02*
D03*
X1877900Y2879930D02*
D03*
D24*
X2416380Y2738600D02*
D03*
Y2398600D02*
D03*
D25*
X1263220Y2990820D02*
D03*
X1359730Y1684860D02*
D03*
X1171780D02*
D03*
X1679580Y2327280D02*
D03*
X820250Y881250D02*
D03*
X1646850Y176100D02*
D03*
X1646760Y112600D02*
D03*
X2969750Y487250D02*
D03*
X3046470Y414530D02*
D03*
Y389530D02*
D03*
Y339530D02*
D03*
Y314530D02*
D03*
X3136470Y414530D02*
D03*
Y389530D02*
D03*
Y364530D02*
D03*
Y339530D02*
D03*
Y314530D02*
D03*
X2999780Y168310D02*
D03*
X2974780D02*
D03*
X2924780D02*
D03*
X2899780D02*
D03*
X2999780Y78310D02*
D03*
X2974780D02*
D03*
X2949780D02*
D03*
X2924780D02*
D03*
X2899780D02*
D03*
X3080590Y253170D02*
D03*
X2796110Y374020D02*
D03*
X2882470Y376560D02*
D03*
X762840Y2970500D02*
D03*
Y2855800D02*
D03*
Y2641370D02*
D03*
X1263220Y2579140D02*
D03*
X2144600Y244680D02*
D03*
X1263220Y2702330D02*
D03*
Y2843500D02*
D03*
X2062050Y244680D02*
D03*
X2595000Y975536D02*
D03*
X1480250Y203750D02*
D03*
Y182214D02*
D03*
X1539500Y243250D02*
D03*
X1517964D02*
D03*
X1578750Y186500D02*
D03*
Y208036D02*
D03*
X1521000Y145750D02*
D03*
X1542536D02*
D03*
X1857750Y146750D02*
D03*
X1879286D02*
D03*
X1915750Y210750D02*
D03*
Y189214D02*
D03*
X1875250Y246250D02*
D03*
X1853714D02*
D03*
X1816500Y186500D02*
D03*
Y208036D02*
D03*
X1569250Y381000D02*
D03*
Y402536D02*
D03*
X1612500Y381500D02*
D03*
Y403036D02*
D03*
X1803750Y383250D02*
D03*
Y404786D02*
D03*
X1760000Y381750D02*
D03*
Y403286D02*
D03*
X1570000Y563000D02*
D03*
Y584536D02*
D03*
X1612500Y563750D02*
D03*
Y585286D02*
D03*
X1802750Y564500D02*
D03*
Y586036D02*
D03*
X1759000Y562750D02*
D03*
Y584286D02*
D03*
X1655500Y1282250D02*
D03*
Y1303786D02*
D03*
X1585000Y1281000D02*
D03*
Y1302536D02*
D03*
X1655500Y1419000D02*
D03*
X1655250Y1404250D02*
D03*
X2631214Y1816250D02*
D03*
X2609679D02*
D03*
X2653036Y1836500D02*
D03*
X2609964D02*
D03*
X2652750Y1816250D02*
D03*
X2631500Y1836500D02*
D03*
X2655750Y975036D02*
D03*
Y953500D02*
D03*
X2595000Y954000D02*
D03*
X2619750Y350000D02*
D03*
X2641286D02*
D03*
X2558000Y378500D02*
D03*
X2557750Y357750D02*
D03*
X2651750Y440786D02*
D03*
Y419250D02*
D03*
X2601250Y441536D02*
D03*
Y420000D02*
D03*
X2581000Y442036D02*
D03*
Y420500D02*
D03*
X2557250Y251321D02*
D03*
Y272857D02*
D03*
X2557500Y294250D02*
D03*
Y315786D02*
D03*
Y337321D02*
D03*
X2557750Y398286D02*
D03*
Y419821D02*
D03*
Y441357D02*
D03*
X2632250Y546250D02*
D03*
X2653000Y546000D02*
D03*
X2610000D02*
D03*
X2632250Y527500D02*
D03*
X2653000Y527250D02*
D03*
X2610000D02*
D03*
X2631750Y508750D02*
D03*
X2652500Y508500D02*
D03*
X2609500D02*
D03*
X2547750Y547607D02*
D03*
Y526071D02*
D03*
Y504536D02*
D03*
Y483000D02*
D03*
X2590750D02*
D03*
Y504536D02*
D03*
Y526071D02*
D03*
Y547607D02*
D03*
X2570000Y483250D02*
D03*
Y504786D02*
D03*
Y526321D02*
D03*
Y547857D02*
D03*
X2636750Y668250D02*
D03*
X2615214D02*
D03*
X2635500Y633500D02*
D03*
X2613964D02*
D03*
X2654750Y639250D02*
D03*
Y660786D02*
D03*
X2592250Y639750D02*
D03*
Y661286D02*
D03*
X2548750Y662857D02*
D03*
Y641321D02*
D03*
Y619786D02*
D03*
Y598250D02*
D03*
X2569500Y662607D02*
D03*
Y641071D02*
D03*
Y619536D02*
D03*
Y598000D02*
D03*
X2652750Y771500D02*
D03*
X2631214D02*
D03*
X2609679D02*
D03*
X2652750Y751750D02*
D03*
X2631214D02*
D03*
X2609679D02*
D03*
X2652750Y732250D02*
D03*
X2631214D02*
D03*
X2609679D02*
D03*
X2547000Y704750D02*
D03*
Y726286D02*
D03*
Y747821D02*
D03*
Y769357D02*
D03*
X2568250Y769107D02*
D03*
Y747571D02*
D03*
Y726036D02*
D03*
Y704500D02*
D03*
X2589000Y768857D02*
D03*
Y747321D02*
D03*
Y725786D02*
D03*
Y704250D02*
D03*
X2636750Y851750D02*
D03*
X2618000Y851500D02*
D03*
X2654750Y855250D02*
D03*
X2654250Y875250D02*
D03*
X2593750Y875750D02*
D03*
X2593250Y856000D02*
D03*
X2569750Y810750D02*
D03*
Y832286D02*
D03*
Y853821D02*
D03*
Y875357D02*
D03*
X2549000Y811000D02*
D03*
Y832536D02*
D03*
Y854071D02*
D03*
Y875607D02*
D03*
X2613964Y1176750D02*
D03*
X2635500D02*
D03*
X2583750Y1178500D02*
D03*
Y1156964D02*
D03*
X2563500Y1178786D02*
D03*
Y1157250D02*
D03*
X2612500Y1247857D02*
D03*
Y1269393D02*
D03*
Y1226321D02*
D03*
Y1204786D02*
D03*
X2632750Y1204500D02*
D03*
Y1247571D02*
D03*
Y1269107D02*
D03*
Y1226036D02*
D03*
X2561000Y1248857D02*
D03*
Y1270393D02*
D03*
Y1227321D02*
D03*
Y1205786D02*
D03*
X2581250Y1205500D02*
D03*
Y1248571D02*
D03*
Y1270107D02*
D03*
Y1227036D02*
D03*
X2649000Y1077250D02*
D03*
X2648500Y1106500D02*
D03*
X2603500Y1106000D02*
D03*
X2599750Y1076750D02*
D03*
X2589250Y922500D02*
D03*
X2569000Y922786D02*
D03*
X2615000Y953286D02*
D03*
Y974821D02*
D03*
X2635250Y953000D02*
D03*
Y974536D02*
D03*
X2574250Y1010071D02*
D03*
Y967000D02*
D03*
Y988536D02*
D03*
Y1053143D02*
D03*
Y1096214D02*
D03*
Y945464D02*
D03*
Y1074678D02*
D03*
Y1031607D02*
D03*
X2554000Y1031893D02*
D03*
Y1010357D02*
D03*
Y1053428D02*
D03*
Y1096500D02*
D03*
Y1074964D02*
D03*
Y988821D02*
D03*
Y967286D02*
D03*
Y945750D02*
D03*
X1942500Y221250D02*
D03*
X1944750Y201750D02*
D03*
X1945000Y181250D02*
D03*
X1939000Y162250D02*
D03*
X1890750Y126500D02*
D03*
X1936250Y238750D02*
D03*
X1923500Y255000D02*
D03*
X1902500Y266000D02*
D03*
X1788250Y208500D02*
D03*
X1792250Y232500D02*
D03*
X1805000Y252000D02*
D03*
X1826000Y265250D02*
D03*
X1872750Y271000D02*
D03*
X1787250Y184750D02*
D03*
X2000500Y202643D02*
D03*
Y181107D02*
D03*
Y224179D02*
D03*
Y267250D02*
D03*
Y245714D02*
D03*
Y159571D02*
D03*
Y138036D02*
D03*
Y116500D02*
D03*
X1974750Y201393D02*
D03*
Y179857D02*
D03*
Y222929D02*
D03*
Y266000D02*
D03*
Y244464D02*
D03*
Y158321D02*
D03*
Y136786D02*
D03*
Y115250D02*
D03*
X1925250Y147750D02*
D03*
X1909250Y135750D02*
D03*
X1851500Y127250D02*
D03*
X1527214Y123500D02*
D03*
X1800750Y160750D02*
D03*
X1813500Y143500D02*
D03*
X1829000Y129500D02*
D03*
X1577250Y252250D02*
D03*
X1455750Y239500D02*
D03*
X1476000Y244500D02*
D03*
X1460250Y156000D02*
D03*
X1470750Y141250D02*
D03*
X1485500Y132000D02*
D03*
X1597500Y131500D02*
D03*
X1575750Y135500D02*
D03*
X1591000Y150750D02*
D03*
X1505679Y123500D02*
D03*
X1548750D02*
D03*
X1457250Y216321D02*
D03*
Y194786D02*
D03*
Y173250D02*
D03*
X1022250Y890500D02*
D03*
X1074500D02*
D03*
X1047750D02*
D03*
X996250D02*
D03*
X970750Y664000D02*
D03*
X996750D02*
D03*
X1022250D02*
D03*
X1076000Y624500D02*
D03*
X1050000D02*
D03*
X1023250D02*
D03*
X997750D02*
D03*
X971750D02*
D03*
X969750Y702214D02*
D03*
X995750D02*
D03*
X1021250D02*
D03*
X1048000D02*
D03*
X1074000D02*
D03*
X1171250Y1048250D02*
D03*
X1195500Y1048000D02*
D03*
X1168500Y990250D02*
D03*
X1192750Y990000D02*
D03*
X1169500Y927500D02*
D03*
X1193750Y927250D02*
D03*
X1168250Y867500D02*
D03*
X1192500Y867250D02*
D03*
X1192000Y741750D02*
D03*
X1167750Y742000D02*
D03*
X1192000Y806500D02*
D03*
X1167750Y806750D02*
D03*
X1169000Y681500D02*
D03*
X1193250Y681250D02*
D03*
X1272250Y1081857D02*
D03*
Y1103393D02*
D03*
Y1060322D02*
D03*
Y1017250D02*
D03*
Y1038786D02*
D03*
Y1124929D02*
D03*
X1245000Y1078607D02*
D03*
Y1100143D02*
D03*
Y1057072D02*
D03*
Y1014000D02*
D03*
Y1035536D02*
D03*
Y1121679D02*
D03*
X1216750Y1058357D02*
D03*
Y1079893D02*
D03*
Y1036822D02*
D03*
Y993750D02*
D03*
Y1015286D02*
D03*
Y1101429D02*
D03*
Y1122964D02*
D03*
X1217500Y884607D02*
D03*
Y906143D02*
D03*
Y863072D02*
D03*
Y820000D02*
D03*
Y841536D02*
D03*
Y927679D02*
D03*
Y949214D02*
D03*
Y970750D02*
D03*
X1244750Y906607D02*
D03*
Y928143D02*
D03*
Y885071D02*
D03*
Y842000D02*
D03*
Y863536D02*
D03*
Y949679D02*
D03*
Y971214D02*
D03*
Y992750D02*
D03*
X1271000Y910107D02*
D03*
Y931643D02*
D03*
Y888571D02*
D03*
Y845500D02*
D03*
Y867036D02*
D03*
Y953179D02*
D03*
Y974714D02*
D03*
Y996250D02*
D03*
X1270750Y734107D02*
D03*
Y755643D02*
D03*
Y712571D02*
D03*
Y669500D02*
D03*
Y691036D02*
D03*
Y777179D02*
D03*
Y798714D02*
D03*
Y820250D02*
D03*
X1244750Y731607D02*
D03*
Y753143D02*
D03*
Y710071D02*
D03*
Y667000D02*
D03*
Y688536D02*
D03*
Y774679D02*
D03*
Y796214D02*
D03*
Y817750D02*
D03*
X1218000Y709857D02*
D03*
Y731393D02*
D03*
Y688322D02*
D03*
Y645250D02*
D03*
Y666786D02*
D03*
Y752929D02*
D03*
Y774464D02*
D03*
Y796000D02*
D03*
X1427250Y1525786D02*
D03*
Y1504250D02*
D03*
Y1547321D02*
D03*
Y1418107D02*
D03*
Y1439643D02*
D03*
Y1568857D02*
D03*
Y1482714D02*
D03*
Y1461179D02*
D03*
X1459750Y1482107D02*
D03*
Y1503643D02*
D03*
Y1460571D02*
D03*
Y1417500D02*
D03*
Y1439036D02*
D03*
Y1525179D02*
D03*
Y1546714D02*
D03*
Y1568250D02*
D03*
X1489750Y1490857D02*
D03*
Y1512393D02*
D03*
Y1469321D02*
D03*
Y1426250D02*
D03*
Y1447786D02*
D03*
Y1533929D02*
D03*
Y1555464D02*
D03*
Y1577000D02*
D03*
X1517500Y1533179D02*
D03*
Y1468571D02*
D03*
Y1554714D02*
D03*
Y1447036D02*
D03*
Y1576250D02*
D03*
X1551250Y1534928D02*
D03*
Y1556464D02*
D03*
X1517500Y1490107D02*
D03*
X1551250Y1470321D02*
D03*
X1517500Y1511643D02*
D03*
X1551250Y1448786D02*
D03*
Y1513393D02*
D03*
X1517500Y1425500D02*
D03*
X1551250Y1578000D02*
D03*
Y1491857D02*
D03*
Y1427250D02*
D03*
X1689393Y2946500D02*
D03*
X1667857D02*
D03*
X1710929D02*
D03*
X1754000D02*
D03*
X1732464D02*
D03*
X1688643Y2920000D02*
D03*
X1667107D02*
D03*
X1710179D02*
D03*
X1753250D02*
D03*
X1731714D02*
D03*
X2197143Y2837250D02*
D03*
X2175607D02*
D03*
X2218679D02*
D03*
X2261750D02*
D03*
X2240214D02*
D03*
X2025393Y2839000D02*
D03*
X2003857D02*
D03*
X2046929D02*
D03*
X2090000D02*
D03*
X2068464D02*
D03*
X2133750Y2209321D02*
D03*
Y2252393D02*
D03*
Y2230857D02*
D03*
Y2187786D02*
D03*
Y2166250D02*
D03*
X2106143Y2123250D02*
D03*
X2084607D02*
D03*
X2127679D02*
D03*
X2170750D02*
D03*
X2149214D02*
D03*
X2059214Y2176750D02*
D03*
X2080750D02*
D03*
X2037679D02*
D03*
X1994607D02*
D03*
X2016143D02*
D03*
X1995607Y2151750D02*
D03*
X2038679D02*
D03*
X2017143D02*
D03*
X2081750D02*
D03*
X2060214D02*
D03*
X1381496Y1150123D02*
D03*
X1360496Y1128123D02*
D03*
X1434496Y1156623D02*
D03*
X1416746Y1138623D02*
D03*
X1399746Y1117873D02*
D03*
X1381496Y1097873D02*
D03*
X1682000Y2161643D02*
D03*
Y2140107D02*
D03*
Y2183179D02*
D03*
Y2226250D02*
D03*
Y2204714D02*
D03*
X1755143Y2163750D02*
D03*
X1733607D02*
D03*
X1776679D02*
D03*
X1819750D02*
D03*
X1798214D02*
D03*
X1758893Y2192000D02*
D03*
X1737357D02*
D03*
X1780429D02*
D03*
X1823500D02*
D03*
X1801964D02*
D03*
X1758143Y2219000D02*
D03*
X1736607D02*
D03*
X1779679D02*
D03*
X1822750D02*
D03*
X1801214D02*
D03*
X1557500Y616000D02*
D03*
X1593750Y628250D02*
D03*
X1572464D02*
D03*
X1548750Y552464D02*
D03*
Y595536D02*
D03*
Y574000D02*
D03*
X1361000Y850500D02*
D03*
Y828964D02*
D03*
Y807429D02*
D03*
Y721286D02*
D03*
Y699750D02*
D03*
Y742822D02*
D03*
Y785893D02*
D03*
Y764357D02*
D03*
Y1079500D02*
D03*
Y1057964D02*
D03*
Y1036429D02*
D03*
Y950286D02*
D03*
Y928750D02*
D03*
Y971822D02*
D03*
Y1014893D02*
D03*
Y993357D02*
D03*
X1542750Y1177750D02*
D03*
X1521214D02*
D03*
X1499679D02*
D03*
X1435072D02*
D03*
X1478143D02*
D03*
X1456607D02*
D03*
X1543750Y1203500D02*
D03*
X1522214D02*
D03*
X1500679D02*
D03*
X1436071D02*
D03*
X1479143D02*
D03*
X1457607D02*
D03*
X1544750Y1227750D02*
D03*
X1523214D02*
D03*
X1501679D02*
D03*
X1437072D02*
D03*
X1480143D02*
D03*
X1458607D02*
D03*
X1544750Y1252000D02*
D03*
X1523214D02*
D03*
X1501679D02*
D03*
X1437072D02*
D03*
X1480143D02*
D03*
X1458607D02*
D03*
X1544750Y1274250D02*
D03*
X1523214D02*
D03*
X1501679D02*
D03*
X1437072D02*
D03*
X1480143D02*
D03*
X1458607D02*
D03*
X1544750Y1299000D02*
D03*
X1523214D02*
D03*
X1501679D02*
D03*
X1437072D02*
D03*
X1480143D02*
D03*
X1458607D02*
D03*
X1462750Y265500D02*
D03*
Y287036D02*
D03*
Y308571D02*
D03*
Y394714D02*
D03*
Y416250D02*
D03*
Y373178D02*
D03*
Y330107D02*
D03*
Y351643D02*
D03*
X1549500Y268000D02*
D03*
Y289536D02*
D03*
Y311071D02*
D03*
Y397214D02*
D03*
Y418750D02*
D03*
Y375678D02*
D03*
Y332607D02*
D03*
Y354143D02*
D03*
X1850000Y285750D02*
D03*
Y307286D02*
D03*
Y328821D02*
D03*
Y414964D02*
D03*
Y436500D02*
D03*
Y393428D02*
D03*
Y350357D02*
D03*
Y371893D02*
D03*
X1890750Y287500D02*
D03*
Y309036D02*
D03*
Y330571D02*
D03*
Y416714D02*
D03*
Y438250D02*
D03*
Y395178D02*
D03*
Y352107D02*
D03*
Y373643D02*
D03*
X1930500Y289750D02*
D03*
Y311286D02*
D03*
Y332821D02*
D03*
Y418964D02*
D03*
Y440500D02*
D03*
Y397429D02*
D03*
Y354357D02*
D03*
Y375893D02*
D03*
X1967500Y291000D02*
D03*
Y312536D02*
D03*
Y334071D02*
D03*
Y420214D02*
D03*
Y441750D02*
D03*
Y398679D02*
D03*
Y355607D02*
D03*
Y377143D02*
D03*
X2000000Y289750D02*
D03*
Y311286D02*
D03*
Y332821D02*
D03*
Y418964D02*
D03*
Y440500D02*
D03*
Y397429D02*
D03*
Y354357D02*
D03*
Y375893D02*
D03*
X1601750Y167750D02*
D03*
Y189286D02*
D03*
Y210821D02*
D03*
Y296964D02*
D03*
Y318500D02*
D03*
Y275429D02*
D03*
Y232357D02*
D03*
Y253893D02*
D03*
X1524750Y267250D02*
D03*
Y288786D02*
D03*
Y310321D02*
D03*
Y396464D02*
D03*
Y418000D02*
D03*
Y374929D02*
D03*
Y331857D02*
D03*
Y353393D02*
D03*
X1493500Y268000D02*
D03*
Y289536D02*
D03*
Y311071D02*
D03*
Y397214D02*
D03*
Y418750D02*
D03*
Y375678D02*
D03*
Y332607D02*
D03*
Y354143D02*
D03*
X3061250Y1494500D02*
D03*
X3181500Y512250D02*
D03*
X3200750Y483500D02*
D03*
X2831000Y1396250D02*
D03*
X2941000Y1816000D02*
D03*
X1130750Y376500D02*
D03*
X548750Y2633750D02*
D03*
X552750Y2676250D02*
D03*
X1481000Y2691250D02*
D03*
X1532000Y2536750D02*
D03*
X1480250Y2551500D02*
D03*
X2797000Y81000D02*
D03*
X123500Y111750D02*
D03*
X146000Y115750D02*
D03*
X2928750Y562750D02*
D03*
X1103750Y376750D02*
D03*
X738250Y120750D02*
D03*
X739250Y151250D02*
D03*
X1326000Y482000D02*
D03*
X388000Y2875500D02*
D03*
X434000Y2912750D02*
D03*
X471500D02*
D03*
X1217750Y3063170D02*
D03*
X1239250Y3063500D02*
D03*
X1261750Y3063000D02*
D03*
X1481500Y2974000D02*
D03*
X255750Y3014750D02*
D03*
X235500D02*
D03*
X215250Y3014500D02*
D03*
X453000Y2913000D02*
D03*
X1478250Y2827000D02*
D03*
X320250Y3017250D02*
D03*
X360000D02*
D03*
X340250Y3017500D02*
D03*
X349750Y2875500D02*
D03*
X368750Y2876250D02*
D03*
X369250Y2789000D02*
D03*
X390000Y2789250D02*
D03*
X349250Y2790000D02*
D03*
X554000Y2817250D02*
D03*
X551940Y2855560D02*
D03*
X553500Y2895250D02*
D03*
X556000Y2935750D02*
D03*
X554750Y2965000D02*
D03*
X556000Y3015750D02*
D03*
X557000Y2589750D02*
D03*
X248000Y588500D02*
D03*
X2743730Y2247230D02*
D03*
X2744960Y2189290D02*
D03*
X2743340Y2132660D02*
D03*
X2742760Y2074990D02*
D03*
X2787560Y1658190D02*
D03*
X2713760Y1823510D02*
D03*
X2779730Y1740730D02*
D03*
X2903250Y756750D02*
D03*
X2834590Y1222590D02*
D03*
X2858750Y680500D02*
D03*
X2861250Y501250D02*
D03*
X2839860Y981610D02*
D03*
D26*
X1263220Y3015820D02*
D03*
X820250Y856250D02*
D03*
X2969750Y462250D02*
D03*
X3080590Y228170D02*
D03*
X2796110Y349020D02*
D03*
X2882470Y351560D02*
D03*
X762840Y2995500D02*
D03*
Y2880800D02*
D03*
Y2666370D02*
D03*
X1263220Y2604140D02*
D03*
Y2727330D02*
D03*
Y2868500D02*
D03*
D27*
X2626000Y485500D02*
D03*
Y431000D02*
D03*
Y376500D02*
D03*
Y705500D02*
D03*
Y651000D02*
D03*
Y596500D02*
D03*
Y925500D02*
D03*
Y871000D02*
D03*
Y816500D02*
D03*
Y1036500D02*
D03*
Y1091000D02*
D03*
Y1145500D02*
D03*
Y1565500D02*
D03*
Y1511000D02*
D03*
Y1456500D02*
D03*
Y1676500D02*
D03*
Y1731000D02*
D03*
Y1785500D02*
D03*
Y1896500D02*
D03*
Y1951000D02*
D03*
Y2005500D02*
D03*
X396000Y906770D02*
D03*
Y197770D02*
D03*
Y452270D02*
D03*
Y2452270D02*
D03*
Y2197770D02*
D03*
Y1997770D02*
D03*
Y1306770D02*
D03*
Y1252270D02*
D03*
Y1197770D02*
D03*
Y2506770D02*
D03*
Y2397770D02*
D03*
Y2306770D02*
D03*
Y2252270D02*
D03*
Y1506770D02*
D03*
Y1452270D02*
D03*
Y1397770D02*
D03*
Y706770D02*
D03*
Y652270D02*
D03*
Y597770D02*
D03*
Y306770D02*
D03*
Y252270D02*
D03*
Y1106770D02*
D03*
Y1052270D02*
D03*
Y997770D02*
D03*
Y1906770D02*
D03*
Y1852270D02*
D03*
Y1797770D02*
D03*
Y1706770D02*
D03*
Y1652270D02*
D03*
Y1597770D02*
D03*
Y506770D02*
D03*
Y397770D02*
D03*
Y852270D02*
D03*
Y797770D02*
D03*
Y2106770D02*
D03*
Y2052270D02*
D03*
D28*
X1336880Y1855840D02*
D03*
X984620Y2141590D02*
D03*
X1358940Y2222870D02*
D03*
X877940Y1832180D02*
D03*
D29*
X1336880Y1955840D02*
D03*
X984620Y2241590D02*
D03*
X1358940Y2322870D02*
D03*
D30*
X2064880Y1444580D02*
D03*
Y1254580D02*
D03*
D31*
X2054880Y1224580D02*
D03*
Y1474580D02*
D03*
D32*
X1609880Y1549580D02*
D03*
Y1239580D02*
D03*
D33*
X1619880Y1409580D02*
D03*
Y1289580D02*
D03*
D34*
X977940Y1832180D02*
D03*
D35*
X1279730Y1684860D02*
D03*
X1091780D02*
D03*
X1731850Y176100D02*
D03*
X1731760Y112600D02*
D03*
D36*
X1692500Y1184750D02*
D03*
Y1144750D02*
D03*
D37*
X2924780Y3088210D02*
D03*
X2975980D02*
D03*
Y3113610D02*
D03*
X2950580Y3088210D02*
D03*
Y3113610D02*
D03*
X2924780D02*
D03*
X2899380Y3088210D02*
D03*
Y3113610D02*
D03*
X2873980Y3088210D02*
D03*
Y3113610D02*
D03*
X2848580Y3088210D02*
D03*
Y3113610D02*
D03*
X2720780Y3088210D02*
D03*
X2822780Y3113610D02*
D03*
X2797380D02*
D03*
X2822780Y3088210D02*
D03*
X2797380D02*
D03*
X2771980D02*
D03*
Y3113610D02*
D03*
X2746580Y3088210D02*
D03*
Y3113610D02*
D03*
X2720780D02*
D03*
X2695380Y3088210D02*
D03*
Y3113610D02*
D03*
X2669980Y3088210D02*
D03*
Y3113610D02*
D03*
X2644580Y3088210D02*
D03*
Y3113610D02*
D03*
X2619180D02*
D03*
X3073700Y1644690D02*
D03*
X3048300D02*
D03*
X3073700Y1670090D02*
D03*
X3048300D02*
D03*
X3073700Y1797890D02*
D03*
X3048300Y1695890D02*
D03*
Y1721290D02*
D03*
X3073700Y1695890D02*
D03*
Y1721290D02*
D03*
Y1746690D02*
D03*
X3048300D02*
D03*
X3073700Y1772090D02*
D03*
X3048300D02*
D03*
Y1797890D02*
D03*
X3073700Y1823290D02*
D03*
X3048300D02*
D03*
X3073700Y1848690D02*
D03*
X3048300D02*
D03*
X3073700Y1874090D02*
D03*
X3048300D02*
D03*
Y1899490D02*
D03*
X3073700Y1950890D02*
D03*
Y1899690D02*
D03*
Y1925090D02*
D03*
X3048300D02*
D03*
Y1950890D02*
D03*
X3073700Y1976290D02*
D03*
X3048300D02*
D03*
X3073700Y2001690D02*
D03*
X3048300D02*
D03*
X3073700Y2027090D02*
D03*
X3048300D02*
D03*
X3073700Y2154890D02*
D03*
X3048300Y2052890D02*
D03*
Y2078290D02*
D03*
X3073700Y2052890D02*
D03*
Y2078290D02*
D03*
Y2103690D02*
D03*
X3048300D02*
D03*
X3073700Y2129090D02*
D03*
X3048300D02*
D03*
Y2154890D02*
D03*
X3073700Y2180290D02*
D03*
X3048300D02*
D03*
X3073700Y2205690D02*
D03*
X3048300D02*
D03*
X3073700Y2231090D02*
D03*
X3048300D02*
D03*
Y2256490D02*
D03*
X3073700Y813500D02*
D03*
Y762300D02*
D03*
X3048300D02*
D03*
X3073700Y787700D02*
D03*
X3048300D02*
D03*
Y813500D02*
D03*
X3073700Y838900D02*
D03*
X3048300D02*
D03*
X3073700Y864300D02*
D03*
X3048300D02*
D03*
X3073700Y889700D02*
D03*
X3048300D02*
D03*
X3073700Y1017500D02*
D03*
X3048300Y915500D02*
D03*
Y940900D02*
D03*
X3073700Y915500D02*
D03*
Y940900D02*
D03*
Y966300D02*
D03*
X3048300D02*
D03*
X3073700Y991700D02*
D03*
X3048300D02*
D03*
Y1017500D02*
D03*
X3073700Y1042900D02*
D03*
X3048300D02*
D03*
X3073700Y1068300D02*
D03*
X3048300D02*
D03*
X3073700Y1093700D02*
D03*
X3048300D02*
D03*
Y1119100D02*
D03*
D38*
X2619180Y3088210D02*
D03*
D39*
X1654580Y2327280D02*
D03*
D40*
X2998040Y2596720D02*
D03*
D41*
Y2622120D02*
D03*
X163900Y2976000D02*
D03*
D42*
X1927430Y610440D02*
D03*
Y826340D02*
D03*
X1879170D02*
D03*
Y718390D02*
D03*
X1927430D02*
D03*
X1561670D02*
D03*
Y827610D02*
D03*
X1059610Y289590D02*
D03*
X849610Y664590D02*
D03*
Y289590D02*
D03*
X1927430Y935560D02*
D03*
X1879550D02*
D03*
X1561670Y936240D02*
D03*
D43*
X2062430Y610440D02*
D03*
Y826340D02*
D03*
X1744170D02*
D03*
Y718390D02*
D03*
X2062430D02*
D03*
X1696670D02*
D03*
Y827610D02*
D03*
X2062430Y935560D02*
D03*
X1744550D02*
D03*
X1696670Y936240D02*
D03*
D44*
X893650Y791288D02*
D03*
Y829388D02*
D03*
Y810592D02*
D03*
Y772492D02*
D03*
X1922350Y2333830D02*
D03*
Y2295730D02*
D03*
Y2314526D02*
D03*
Y2352626D02*
D03*
D45*
X1046050Y737440D02*
D03*
X995250Y864440D02*
D03*
X1020650Y737440D02*
D03*
Y864440D02*
D03*
X1071450Y737440D02*
D03*
X1046050Y864440D02*
D03*
X1071450D02*
D03*
X995250Y737440D02*
D03*
X1769950Y2387678D02*
D03*
X1820750Y2260678D02*
D03*
X1795350Y2387678D02*
D03*
Y2260678D02*
D03*
X1744550Y2387678D02*
D03*
X1769950Y2260678D02*
D03*
X1744550D02*
D03*
X1820750Y2387678D02*
D03*
D46*
X1059610Y664590D02*
D03*
D47*
X1180670Y400960D02*
D03*
X1885450Y2469720D02*
D03*
X2134510Y2284300D02*
D03*
D48*
X1180670Y250960D02*
D03*
D49*
X1338800Y387250D02*
D03*
X1313400D02*
D03*
X1364200D02*
D03*
D50*
X1288000D02*
D03*
D51*
X138500Y2976000D02*
D03*
D52*
X615520Y2745310D02*
D03*
D53*
Y2770710D02*
D03*
D54*
X930480Y2693170D02*
D03*
D55*
X1179930Y1019380D02*
D03*
Y897037D02*
D03*
Y774693D02*
D03*
Y652350D02*
D03*
X1818800Y2658950D02*
D03*
D56*
X1110480Y2693170D02*
D03*
X930480Y2793170D02*
D03*
Y2718170D02*
D03*
Y2768170D02*
D03*
Y2868170D02*
D03*
Y2843170D02*
D03*
Y2818170D02*
D03*
Y2918170D02*
D03*
Y2893170D02*
D03*
Y2943170D02*
D03*
X1110480Y2793170D02*
D03*
Y2718170D02*
D03*
Y2768170D02*
D03*
Y2868170D02*
D03*
Y2843170D02*
D03*
Y2918170D02*
D03*
Y2943170D02*
D03*
D57*
X1404930Y1019380D02*
D03*
X2093800Y2658950D02*
D03*
X1404930Y897037D02*
D03*
Y774693D02*
D03*
Y652350D02*
D03*
D58*
X2144600Y159680D02*
D03*
X2062050D02*
D03*
D59*
X3073700Y2256490D02*
D03*
Y1119100D02*
D03*
D60*
X1529920Y193880D02*
D03*
X1865200Y196420D02*
D03*
D61*
X2035450Y2469720D02*
D03*
X1984510Y2284300D02*
D03*
D62*
X253500Y696500D02*
D03*
X207500Y560000D02*
D03*
X306750Y2379750D02*
D03*
X2050430Y610940D02*
D03*
Y598940D02*
D03*
X2062430D02*
D03*
X2051430Y621940D02*
D03*
X2062430D02*
D03*
X2074430D02*
D03*
Y610940D02*
D03*
Y598940D02*
D03*
Y814840D02*
D03*
Y826840D02*
D03*
Y837840D02*
D03*
X2062430D02*
D03*
X2051430D02*
D03*
X2062430Y814840D02*
D03*
X2050430D02*
D03*
Y826840D02*
D03*
X1732170Y837840D02*
D03*
Y825840D02*
D03*
Y814840D02*
D03*
X1744170D02*
D03*
X1755170D02*
D03*
X1744170Y837840D02*
D03*
X1756170D02*
D03*
Y825840D02*
D03*
Y717890D02*
D03*
Y729890D02*
D03*
X1744170D02*
D03*
X1755170Y706890D02*
D03*
X1744170D02*
D03*
X1732170D02*
D03*
Y717890D02*
D03*
Y729890D02*
D03*
X2050430Y718890D02*
D03*
Y706890D02*
D03*
X2062430D02*
D03*
X2051430Y729890D02*
D03*
X2062430D02*
D03*
X2074430D02*
D03*
Y718890D02*
D03*
Y706890D02*
D03*
X1684670Y718890D02*
D03*
Y706890D02*
D03*
X1696670D02*
D03*
X1685670Y729890D02*
D03*
X1696670D02*
D03*
X1708670D02*
D03*
Y718890D02*
D03*
Y706890D02*
D03*
X1684670Y828110D02*
D03*
Y816110D02*
D03*
X1696670D02*
D03*
X1685670Y839110D02*
D03*
X1696670D02*
D03*
X1708670D02*
D03*
Y828110D02*
D03*
Y816110D02*
D03*
X1531250Y3128000D02*
D03*
X1097000Y94250D02*
D03*
X1021750Y172250D02*
D03*
X1050750Y90750D02*
D03*
X1324000Y99000D02*
D03*
X3166750Y462500D02*
D03*
X3129750Y490250D02*
D03*
Y579750D02*
D03*
X1718250Y2329250D02*
D03*
X1761750Y2326250D02*
D03*
X1735500Y2338500D02*
D03*
X1553000Y3128000D02*
D03*
X888750Y64750D02*
D03*
X866500Y65250D02*
D03*
X2761500Y1817000D02*
D03*
X2762474Y1870323D02*
D03*
X1482000Y2747250D02*
D03*
Y2667500D02*
D03*
X1852750Y2334500D02*
D03*
X1234000Y86750D02*
D03*
X213250Y952250D02*
D03*
X272750Y836000D02*
D03*
X286500Y880750D02*
D03*
X235500Y817000D02*
D03*
X791500Y803000D02*
D03*
X806250Y802750D02*
D03*
X1210250Y158750D02*
D03*
X1337750Y159000D02*
D03*
X1251000Y199000D02*
D03*
X1181750Y88750D02*
D03*
X1285000Y171250D02*
D03*
X1331000Y220750D02*
D03*
X1312500Y191500D02*
D03*
X1312250Y267000D02*
D03*
X288000Y2325750D02*
D03*
X281250Y2130500D02*
D03*
X303500Y2325750D02*
D03*
X328750Y2186250D02*
D03*
Y1984250D02*
D03*
X304750Y2127250D02*
D03*
X323500Y1328500D02*
D03*
X331000Y1191750D02*
D03*
X277500Y1328750D02*
D03*
X306500Y1188250D02*
D03*
X281250Y1732000D02*
D03*
X279250Y2531250D02*
D03*
X284000Y1131500D02*
D03*
X299000Y2530000D02*
D03*
X282000Y2382000D02*
D03*
X292750Y1574250D02*
D03*
X293250Y983500D02*
D03*
X328750Y1730750D02*
D03*
X318750Y2529250D02*
D03*
X329250Y1576500D02*
D03*
X330250Y1131000D02*
D03*
X331000Y983500D02*
D03*
X284500Y1781000D02*
D03*
X283000Y1377000D02*
D03*
X281871Y1925929D02*
D03*
X276716Y1513284D02*
D03*
X319000Y1928500D02*
D03*
X318500Y1782000D02*
D03*
X318000Y1513000D02*
D03*
X330000Y1377750D02*
D03*
X242540Y720500D02*
D03*
X290250Y632500D02*
D03*
X315250Y536000D02*
D03*
X324250Y744750D02*
D03*
X220026Y301526D02*
D03*
X319500Y953250D02*
D03*
X279750Y419750D02*
D03*
X259250Y632250D02*
D03*
X236801Y404000D02*
D03*
X294250Y466500D02*
D03*
X241500Y294250D02*
D03*
X328770Y339230D02*
D03*
X314752Y168748D02*
D03*
X314750Y110750D02*
D03*
X273250Y165250D02*
D03*
X225280Y177720D02*
D03*
X2924500Y607750D02*
D03*
X2810590Y1223090D02*
D03*
X2855750Y1139300D02*
D03*
X2786500Y1095750D02*
D03*
Y1185250D02*
D03*
X2815860Y982110D02*
D03*
X2864730Y922980D02*
D03*
X2739500Y938750D02*
D03*
X2726500Y848000D02*
D03*
X2784750Y941250D02*
D03*
Y850750D02*
D03*
X2074430Y924060D02*
D03*
Y936060D02*
D03*
Y947060D02*
D03*
X2062430D02*
D03*
X2051430D02*
D03*
X2062430Y924060D02*
D03*
X2050430D02*
D03*
Y936060D02*
D03*
X1732550Y947060D02*
D03*
Y935060D02*
D03*
Y924060D02*
D03*
X1744550D02*
D03*
X1755550D02*
D03*
X1744550Y947060D02*
D03*
X1756550D02*
D03*
Y935060D02*
D03*
X1708670Y924740D02*
D03*
Y936740D02*
D03*
Y947740D02*
D03*
X1696670D02*
D03*
X1685670D02*
D03*
X1696670Y924740D02*
D03*
X1684670D02*
D03*
Y936740D02*
D03*
D63*
X221000Y708750D02*
D03*
X3138500Y1873500D02*
D03*
Y1798000D02*
D03*
X233500Y940250D02*
D03*
X244104Y861146D02*
D03*
X253500Y536000D02*
D03*
X246500Y431250D02*
D03*
X251500Y516750D02*
D03*
X244000Y223500D02*
D03*
X2792250Y492750D02*
D03*
Y410000D02*
D03*
X2789750Y671750D02*
D03*
Y599250D02*
D03*
D64*
X2940250Y3141000D02*
D03*
D03*
X3173000Y3115750D02*
D03*
X3164000Y3123750D02*
D03*
X3155750Y3132000D02*
D03*
X3147500Y3140750D02*
D03*
X3138500Y3149750D02*
D03*
X3130000Y3157750D02*
D03*
X3122750Y3165000D02*
D03*
X3116250Y3171750D02*
D03*
X3129250Y3184750D02*
D03*
X3135750Y3178000D02*
D03*
X3143000Y3170750D02*
D03*
X3151500Y3162750D02*
D03*
X3160500Y3153750D02*
D03*
X3168750Y3145000D02*
D03*
X3177000Y3136750D02*
D03*
X3186000Y3128750D02*
D03*
X3062000Y1318000D02*
D03*
Y1307500D02*
D03*
Y1297750D02*
D03*
Y1286750D02*
D03*
Y1275000D02*
D03*
Y1264750D02*
D03*
Y1254750D02*
D03*
X3050250Y1318500D02*
D03*
Y1308000D02*
D03*
Y1298250D02*
D03*
Y1287250D02*
D03*
Y1275500D02*
D03*
Y1265250D02*
D03*
Y1255250D02*
D03*
Y1328750D02*
D03*
Y1339000D02*
D03*
Y1349500D02*
D03*
Y1359250D02*
D03*
Y1370250D02*
D03*
Y1382000D02*
D03*
Y1392250D02*
D03*
Y1402250D02*
D03*
X3062000Y1328250D02*
D03*
Y1338500D02*
D03*
Y1349000D02*
D03*
Y1358750D02*
D03*
Y1369750D02*
D03*
Y1381500D02*
D03*
Y1391750D02*
D03*
Y1401750D02*
D03*
X3037750Y1498000D02*
D03*
Y1488000D02*
D03*
Y1445250D02*
D03*
Y1477750D02*
D03*
Y1434750D02*
D03*
Y1455000D02*
D03*
Y1466000D02*
D03*
Y1424500D02*
D03*
X2993750Y2479750D02*
D03*
Y2490000D02*
D03*
Y2500500D02*
D03*
Y2510250D02*
D03*
Y2521250D02*
D03*
Y2533000D02*
D03*
Y2543250D02*
D03*
Y2553250D02*
D03*
Y2406250D02*
D03*
Y2416500D02*
D03*
Y2427000D02*
D03*
Y2436750D02*
D03*
Y2447750D02*
D03*
Y2459500D02*
D03*
Y2469750D02*
D03*
Y2332750D02*
D03*
Y2343000D02*
D03*
Y2353500D02*
D03*
Y2363250D02*
D03*
Y2374250D02*
D03*
Y2386000D02*
D03*
Y2396250D02*
D03*
X2997250Y2819250D02*
D03*
Y2829500D02*
D03*
Y2840000D02*
D03*
Y2849750D02*
D03*
Y2860750D02*
D03*
Y2872500D02*
D03*
Y2882750D02*
D03*
Y2892750D02*
D03*
Y2745750D02*
D03*
Y2756000D02*
D03*
Y2766500D02*
D03*
Y2776250D02*
D03*
Y2787250D02*
D03*
Y2799000D02*
D03*
Y2809250D02*
D03*
Y2672250D02*
D03*
Y2682500D02*
D03*
Y2693000D02*
D03*
Y2702750D02*
D03*
Y2713750D02*
D03*
Y2725500D02*
D03*
Y2735750D02*
D03*
X2993500Y3141000D02*
D03*
X2983250D02*
D03*
X2972750D02*
D03*
X2963000D02*
D03*
X2952000D02*
D03*
X3058000Y3087500D02*
D03*
X3004750D02*
D03*
X3026750D02*
D03*
X3047500D02*
D03*
X2994750D02*
D03*
X3015000D02*
D03*
X3037750D02*
D03*
X150000Y2363750D02*
D03*
X150250Y2554500D02*
D03*
X33500Y1739500D02*
D03*
X89965Y274550D02*
D03*
X152250Y212250D02*
D03*
X28750Y499500D02*
D03*
X39250Y2141250D02*
D03*
X32000Y1943750D02*
D03*
X32750Y1538500D02*
D03*
X27750Y1344000D02*
D03*
X90000Y599500D02*
D03*
Y1140250D02*
D03*
Y952750D02*
D03*
X1385750Y70750D02*
D03*
X1400000Y63750D02*
D03*
X933000Y63000D02*
D03*
X922250Y70500D02*
D03*
X28750Y939750D02*
D03*
X40290Y2176000D02*
D03*
X33540Y1975750D02*
D03*
X2899750Y2662750D02*
D03*
Y2652500D02*
D03*
Y2640750D02*
D03*
Y2629750D02*
D03*
Y2620000D02*
D03*
Y2609500D02*
D03*
Y2599250D02*
D03*
Y2736250D02*
D03*
Y2726000D02*
D03*
Y2714250D02*
D03*
Y2703250D02*
D03*
Y2693500D02*
D03*
Y2683000D02*
D03*
Y2672750D02*
D03*
Y2819750D02*
D03*
Y2809750D02*
D03*
Y2799500D02*
D03*
Y2787750D02*
D03*
Y2776750D02*
D03*
Y2767000D02*
D03*
Y2756500D02*
D03*
Y2746250D02*
D03*
X2866750Y3141000D02*
D03*
X2876750D02*
D03*
X2887000D02*
D03*
X2898750D02*
D03*
X2909750D02*
D03*
X2919500D02*
D03*
X2930000D02*
D03*
X2994250Y3100750D02*
D03*
X3004250D02*
D03*
X3014500D02*
D03*
X3026250D02*
D03*
X3037250D02*
D03*
X3047000D02*
D03*
X2921500Y1412250D02*
D03*
Y1402250D02*
D03*
Y1392000D02*
D03*
Y1380250D02*
D03*
Y1369250D02*
D03*
Y1359500D02*
D03*
Y1349000D02*
D03*
Y1338750D02*
D03*
X2909750Y1412750D02*
D03*
Y1402750D02*
D03*
Y1392500D02*
D03*
Y1380750D02*
D03*
Y1369750D02*
D03*
Y1360000D02*
D03*
Y1349500D02*
D03*
Y1339250D02*
D03*
X2912250Y1772750D02*
D03*
Y1762750D02*
D03*
Y1752500D02*
D03*
Y1740750D02*
D03*
Y1729750D02*
D03*
Y1720000D02*
D03*
Y1709500D02*
D03*
Y1699250D02*
D03*
X2902250Y1772750D02*
D03*
Y1762750D02*
D03*
Y1752500D02*
D03*
Y1740750D02*
D03*
Y1729750D02*
D03*
Y1720000D02*
D03*
Y1709500D02*
D03*
Y1699250D02*
D03*
X27290Y175000D02*
D03*
Y190000D02*
D03*
X35250Y199500D02*
D03*
X70500Y62750D02*
D03*
X87250Y43910D02*
D03*
X32790Y3087000D02*
D03*
X31000Y3100250D02*
D03*
X28000Y3109500D02*
D03*
X33272Y3124728D02*
D03*
X33868Y2375632D02*
D03*
X33750Y2564750D02*
D03*
X34500Y1759750D02*
D03*
X60750Y71750D02*
D03*
X705000Y20250D02*
D03*
Y32263D02*
D03*
X34000Y1563250D02*
D03*
X2996250Y823500D02*
D03*
X34750Y166250D02*
D03*
X21710Y1150750D02*
D03*
D65*
X1586750Y1399500D02*
D03*
X1584000Y1417250D02*
D03*
X2097250Y1503500D02*
D03*
X2082500D02*
D03*
X2082250Y1519750D02*
D03*
X2097000D02*
D03*
X2131500Y1481750D02*
D03*
X2116750D02*
D03*
X2116500Y1498000D02*
D03*
X2131250D02*
D03*
X2130000Y1446250D02*
D03*
X2129750Y1462500D02*
D03*
X2124750Y1407750D02*
D03*
X2124500Y1424000D02*
D03*
X2112750Y1378000D02*
D03*
X2098000D02*
D03*
X2097750Y1394250D02*
D03*
X2112500D02*
D03*
X2073500Y1367000D02*
D03*
X2058750D02*
D03*
X2058500Y1383250D02*
D03*
X2073250D02*
D03*
X2035000Y1378000D02*
D03*
X2020250D02*
D03*
X2020000Y1394250D02*
D03*
X2034750D02*
D03*
X2005250Y1401000D02*
D03*
X1990500D02*
D03*
X1990250Y1417250D02*
D03*
X2005000D02*
D03*
X2001000Y1434500D02*
D03*
X1986250D02*
D03*
X1986000Y1450750D02*
D03*
X2000750D02*
D03*
X2005250Y1468750D02*
D03*
X1990500D02*
D03*
X1990250Y1485000D02*
D03*
X2005000D02*
D03*
X2029750Y1494500D02*
D03*
X2015000D02*
D03*
X2014750Y1510750D02*
D03*
X2029500D02*
D03*
X2096500Y1181250D02*
D03*
X2081750D02*
D03*
X2081500Y1197500D02*
D03*
X2096250D02*
D03*
X2132500Y1202250D02*
D03*
X2117750D02*
D03*
X2117500Y1218500D02*
D03*
X2132250D02*
D03*
X2130750Y1240250D02*
D03*
X2130500Y1256500D02*
D03*
X2124250Y1274750D02*
D03*
X2124000Y1291000D02*
D03*
X2115000Y1306250D02*
D03*
X2100250D02*
D03*
X2100000Y1322500D02*
D03*
X2114750D02*
D03*
X2077250Y1316250D02*
D03*
X2062500D02*
D03*
X2062250Y1332500D02*
D03*
X2077000D02*
D03*
X2035500Y1310000D02*
D03*
X2020750D02*
D03*
X2020500Y1326250D02*
D03*
X2035250D02*
D03*
X2004000Y1280250D02*
D03*
X1989250D02*
D03*
X1989000Y1296500D02*
D03*
X2003750D02*
D03*
X1996000Y1240250D02*
D03*
X1981250D02*
D03*
X1981000Y1256500D02*
D03*
X1995750D02*
D03*
X2014500Y1202750D02*
D03*
X1999750D02*
D03*
X1999500Y1219000D02*
D03*
X2014250D02*
D03*
X2596250Y1943000D02*
D03*
X2581500D02*
D03*
X2581250Y1959250D02*
D03*
X2596000D02*
D03*
X2597000Y1737500D02*
D03*
X2582250D02*
D03*
X2582500Y1721250D02*
D03*
X2597250D02*
D03*
D66*
X1939502Y613130D02*
D03*
X1937430Y603940D02*
D03*
X1928430Y598940D02*
D03*
X1918430Y601940D02*
D03*
X1916430Y611940D02*
D03*
X1923015Y619783D02*
D03*
X1933430Y620940D02*
D03*
Y836840D02*
D03*
X1923015Y835683D02*
D03*
X1916430Y827840D02*
D03*
X1918430Y817840D02*
D03*
X1928430Y814840D02*
D03*
X1937430Y819840D02*
D03*
X1939502Y829030D02*
D03*
X1873170Y815840D02*
D03*
X1883584Y816997D02*
D03*
X1890170Y824840D02*
D03*
X1888170Y834840D02*
D03*
X1878170Y837840D02*
D03*
X1869170Y832840D02*
D03*
X1867099Y823650D02*
D03*
Y715700D02*
D03*
X1869170Y724890D02*
D03*
X1878170Y729890D02*
D03*
X1888170Y726890D02*
D03*
X1890170Y716890D02*
D03*
X1883584Y709047D02*
D03*
X1873170Y707890D02*
D03*
X1939502Y721080D02*
D03*
X1937430Y711890D02*
D03*
X1928430Y706890D02*
D03*
X1918430Y709890D02*
D03*
X1916430Y719890D02*
D03*
X1923015Y727733D02*
D03*
X1933430Y728890D02*
D03*
X1573742Y721080D02*
D03*
X1571670Y711890D02*
D03*
X1562670Y706890D02*
D03*
X1552670Y709890D02*
D03*
X1550670Y719890D02*
D03*
X1557256Y727733D02*
D03*
X1567670Y728890D02*
D03*
X1573742Y830300D02*
D03*
X1571670Y821110D02*
D03*
X1562670Y816110D02*
D03*
X1552670Y819110D02*
D03*
X1550670Y829110D02*
D03*
X1557256Y836953D02*
D03*
X1567670Y838110D02*
D03*
X1933430Y946060D02*
D03*
X1923015Y944903D02*
D03*
X1916430Y937060D02*
D03*
X1918430Y927060D02*
D03*
X1928430Y924060D02*
D03*
X1937430Y929060D02*
D03*
X1939502Y938250D02*
D03*
X1873550Y925060D02*
D03*
X1883965Y926217D02*
D03*
X1890550Y934060D02*
D03*
X1888550Y944060D02*
D03*
X1878550Y947060D02*
D03*
X1869550Y942060D02*
D03*
X1867478Y932870D02*
D03*
X1567670Y946740D02*
D03*
X1557256Y945583D02*
D03*
X1550670Y937740D02*
D03*
X1552670Y927740D02*
D03*
X1562670Y924740D02*
D03*
X1571670Y929740D02*
D03*
X1573742Y938930D02*
D03*
D144*
X1728500Y1153000D02*
D03*
Y1186000D02*
D03*
X1758750Y1153000D02*
D03*
Y1186000D02*
D03*
X1638980Y2590380D02*
D03*
Y2623380D02*
D03*
X1643980Y2537040D02*
D03*
Y2570040D02*
D03*
X1633980Y2644990D02*
D03*
Y2677990D02*
D03*
X1628980Y2698330D02*
D03*
Y2731330D02*
D03*
X1584770Y2537040D02*
D03*
Y2570040D02*
D03*
X1589770Y2590380D02*
D03*
Y2623380D02*
D03*
X1594770Y2644990D02*
D03*
Y2677990D02*
D03*
X1599770Y2698330D02*
D03*
Y2731330D02*
D03*
X289750Y2433980D02*
D03*
Y2466980D02*
D03*
X289130Y2244170D02*
D03*
Y2277170D02*
D03*
X290400Y2078750D02*
D03*
Y2045750D02*
D03*
X289130Y1870500D02*
D03*
Y1837500D02*
D03*
X290400Y1640160D02*
D03*
Y1673160D02*
D03*
Y1435500D02*
D03*
Y1468500D02*
D03*
X291000Y1275720D02*
D03*
Y1242720D02*
D03*
X293000Y1073790D02*
D03*
Y1040790D02*
D03*
X297370Y256370D02*
D03*
Y289370D02*
D03*
X326580Y256370D02*
D03*
Y289370D02*
D03*
X806250Y753500D02*
D03*
Y786500D02*
D03*
X1072000Y450430D02*
D03*
Y483430D02*
D03*
X1079070Y526630D02*
D03*
Y559630D02*
D03*
X909860Y573080D02*
D03*
Y540080D02*
D03*
Y517000D02*
D03*
Y484000D02*
D03*
Y460820D02*
D03*
Y427820D02*
D03*
Y402150D02*
D03*
Y369150D02*
D03*
X1288620Y304570D02*
D03*
Y271570D02*
D03*
X2898980Y459300D02*
D03*
Y426300D02*
D03*
X2873580D02*
D03*
Y459300D02*
D03*
X2848180Y426300D02*
D03*
Y459300D02*
D03*
X2815000Y836510D02*
D03*
Y869510D02*
D03*
X2839860Y836500D02*
D03*
Y869500D02*
D03*
X2867250D02*
D03*
Y836500D02*
D03*
X2809750Y1069500D02*
D03*
Y1102500D02*
D03*
X2834750Y1069500D02*
D03*
Y1102500D02*
D03*
X2860250Y1102000D02*
D03*
Y1069000D02*
D03*
X2713760Y1876620D02*
D03*
Y1843620D02*
D03*
X2754200Y1707730D02*
D03*
Y1740730D02*
D03*
X3138500Y1778500D02*
D03*
Y1745500D02*
D03*
X3060750Y1513750D02*
D03*
Y1546750D02*
D03*
X1109000Y559750D02*
D03*
Y526750D02*
D03*
X2900770Y602160D02*
D03*
Y635160D02*
D03*
X2875370D02*
D03*
Y602160D02*
D03*
X2849970Y635160D02*
D03*
Y602160D02*
D03*
X1248750Y482750D02*
D03*
Y449750D02*
D03*
X1106000Y450430D02*
D03*
Y483430D02*
D03*
X1141500D02*
D03*
Y450430D02*
D03*
X1178500D02*
D03*
Y483430D02*
D03*
X1212250D02*
D03*
Y450430D02*
D03*
X1143000Y559750D02*
D03*
Y526750D02*
D03*
X1178500D02*
D03*
Y559750D02*
D03*
X1215500D02*
D03*
Y526750D02*
D03*
X1249250Y526500D02*
D03*
Y559500D02*
D03*
D145*
X1300050Y2991120D02*
D03*
Y3015120D02*
D03*
X1457532Y2973790D02*
D03*
Y2949790D02*
D03*
X1430862Y2973790D02*
D03*
Y2949790D02*
D03*
X1405462Y2973790D02*
D03*
Y2949790D02*
D03*
X1404188Y3007630D02*
D03*
Y3031630D02*
D03*
X1430858Y3007630D02*
D03*
Y3031630D02*
D03*
X1456258Y3007630D02*
D03*
Y3031630D02*
D03*
X3089480Y539320D02*
D03*
Y515320D02*
D03*
X3089482Y632600D02*
D03*
Y608600D02*
D03*
X1300050Y2868500D02*
D03*
Y2844500D02*
D03*
X1405458Y2860310D02*
D03*
Y2884310D02*
D03*
X1374979Y2860310D02*
D03*
Y2884310D02*
D03*
X1430858Y2860310D02*
D03*
Y2884310D02*
D03*
X1456258Y2860310D02*
D03*
Y2884310D02*
D03*
X1432132Y2827160D02*
D03*
Y2803160D02*
D03*
X1406732Y2827160D02*
D03*
Y2803160D02*
D03*
X1456262Y2827160D02*
D03*
Y2803160D02*
D03*
X1301320Y2703330D02*
D03*
Y2727330D02*
D03*
X1407998Y2723150D02*
D03*
Y2747150D02*
D03*
X1374979D02*
D03*
Y2723150D02*
D03*
X1433398D02*
D03*
Y2747150D02*
D03*
X1457528Y2723150D02*
D03*
Y2747150D02*
D03*
X1408002Y2691270D02*
D03*
Y2667270D02*
D03*
X1433402Y2691270D02*
D03*
Y2667270D02*
D03*
X1457532Y2691270D02*
D03*
Y2667270D02*
D03*
X1374979Y2592340D02*
D03*
Y2616340D02*
D03*
X1404188Y2592340D02*
D03*
Y2616340D02*
D03*
X1432128Y2592340D02*
D03*
Y2616340D02*
D03*
X1458798Y2592340D02*
D03*
Y2616340D02*
D03*
X1406730Y2550880D02*
D03*
Y2526880D02*
D03*
X1433400Y2550880D02*
D03*
Y2526880D02*
D03*
X1460070Y2550880D02*
D03*
Y2526880D02*
D03*
X729818Y2994800D02*
D03*
Y2970800D02*
D03*
X629488Y3016390D02*
D03*
Y2992390D02*
D03*
X665048Y3016390D02*
D03*
Y2992390D02*
D03*
X578688Y3016390D02*
D03*
Y2992390D02*
D03*
X579962Y2936580D02*
D03*
Y2960580D02*
D03*
X605362Y2936580D02*
D03*
Y2960580D02*
D03*
X629492Y2936580D02*
D03*
Y2960580D02*
D03*
X727278Y2880300D02*
D03*
Y2856300D02*
D03*
X602818Y2895740D02*
D03*
Y2871740D02*
D03*
X630758Y2895740D02*
D03*
Y2871740D02*
D03*
X577418Y2895740D02*
D03*
Y2871740D02*
D03*
X663778Y2895740D02*
D03*
Y2871740D02*
D03*
X630762Y2817130D02*
D03*
Y2841130D02*
D03*
X604092Y2817130D02*
D03*
Y2841130D02*
D03*
X576002Y2817130D02*
D03*
Y2841130D02*
D03*
X729818Y2643140D02*
D03*
Y2667140D02*
D03*
X638378Y2652030D02*
D03*
Y2676030D02*
D03*
X579002Y2652030D02*
D03*
Y2676030D02*
D03*
X612978Y2652030D02*
D03*
Y2676030D02*
D03*
X662508Y2652030D02*
D03*
Y2676030D02*
D03*
X628222Y2613800D02*
D03*
Y2589800D02*
D03*
X604092Y2613800D02*
D03*
Y2589800D02*
D03*
X579002D02*
D03*
Y2613800D02*
D03*
X329772Y2421770D02*
D03*
Y2397770D02*
D03*
X328502Y2228990D02*
D03*
Y2204990D02*
D03*
X329768Y2031438D02*
D03*
Y2007438D02*
D03*
Y1797770D02*
D03*
Y1821770D02*
D03*
X329772Y1597770D02*
D03*
Y1621770D02*
D03*
Y1421770D02*
D03*
Y1397770D02*
D03*
X331038Y1208040D02*
D03*
Y1232040D02*
D03*
Y1003570D02*
D03*
Y1027570D02*
D03*
X291312Y861050D02*
D03*
Y837050D02*
D03*
X251998Y793200D02*
D03*
Y817200D02*
D03*
X272499Y793200D02*
D03*
Y817200D02*
D03*
X293001Y793200D02*
D03*
Y817200D02*
D03*
X313501D02*
D03*
Y793200D02*
D03*
X336028Y792750D02*
D03*
Y816750D02*
D03*
X259668Y744420D02*
D03*
Y720420D02*
D03*
X281258Y744420D02*
D03*
Y720420D02*
D03*
X302848Y744420D02*
D03*
Y720420D02*
D03*
X266292Y611740D02*
D03*
Y587740D02*
D03*
X289150Y612310D02*
D03*
Y588310D02*
D03*
X297753Y449510D02*
D03*
Y425510D02*
D03*
X256110Y379300D02*
D03*
Y403300D02*
D03*
X278018Y379300D02*
D03*
Y403300D02*
D03*
X299925Y379300D02*
D03*
Y403300D02*
D03*
X321836D02*
D03*
Y379300D02*
D03*
X343740D02*
D03*
Y403300D02*
D03*
X287858Y315230D02*
D03*
Y339230D02*
D03*
X263728Y315230D02*
D03*
Y339230D02*
D03*
X310718Y315230D02*
D03*
Y339230D02*
D03*
X259498Y294250D02*
D03*
Y270250D02*
D03*
X291002Y129000D02*
D03*
Y153000D02*
D03*
X314752Y129000D02*
D03*
Y153000D02*
D03*
X924002Y828250D02*
D03*
Y804250D02*
D03*
X859002Y835250D02*
D03*
Y811250D02*
D03*
X1071498Y111000D02*
D03*
Y135000D02*
D03*
X1288620Y221250D02*
D03*
Y245250D02*
D03*
X1324178Y117110D02*
D03*
Y141110D02*
D03*
X2764248Y687750D02*
D03*
Y711750D02*
D03*
X2713748Y877750D02*
D03*
Y901750D02*
D03*
X2763088Y1884950D02*
D03*
Y1908950D02*
D03*
X2713560Y1979630D02*
D03*
Y2003630D02*
D03*
X2754198Y1760490D02*
D03*
Y1784490D02*
D03*
X2713558D02*
D03*
Y1760490D02*
D03*
Y1709690D02*
D03*
Y1733690D02*
D03*
X1872552Y2334960D02*
D03*
Y2310960D02*
D03*
X1836805Y2334960D02*
D03*
Y2310960D02*
D03*
X604088Y2992390D02*
D03*
Y3016390D02*
D03*
X1298778Y2604140D02*
D03*
Y2580140D02*
D03*
X946498Y828750D02*
D03*
Y804750D02*
D03*
X1372438Y3031630D02*
D03*
Y3007630D02*
D03*
X2766898Y532700D02*
D03*
Y508700D02*
D03*
D146*
X1372438Y2982790D02*
D03*
Y2949790D02*
D03*
X1374979Y2836740D02*
D03*
Y2803740D02*
D03*
Y2699580D02*
D03*
Y2666580D02*
D03*
Y2559880D02*
D03*
Y2526880D02*
D03*
X665048Y2937080D02*
D03*
Y2970080D02*
D03*
X663779Y2817630D02*
D03*
Y2850630D02*
D03*
X661239Y2613300D02*
D03*
Y2580300D02*
D03*
X2831750Y1611500D02*
D03*
Y1578500D02*
D03*
Y1559000D02*
D03*
Y1526000D02*
D03*
X2831752Y1506000D02*
D03*
Y1473000D02*
D03*
X2831750Y1453000D02*
D03*
Y1420000D02*
D03*
D147*
X2982710Y402160D02*
D03*
X2939710Y402160D02*
D03*
X860540Y2995500D02*
D03*
X817540Y2995500D02*
D03*
X856730Y2878660D02*
D03*
X813730Y2878660D02*
D03*
X811190Y2669110D02*
D03*
X854190Y2669110D02*
D03*
X2914130Y228170D02*
D03*
X2871130Y228170D02*
D03*
X3031060Y228170D02*
D03*
X2988060Y228170D02*
D03*
X2940980Y314530D02*
D03*
X2983980Y314530D02*
D03*
X1159170Y2653870D02*
D03*
X1202170Y2653870D02*
D03*
X1159170Y2868500D02*
D03*
X1202170Y2868500D02*
D03*
X1161710Y3015820D02*
D03*
X1204710Y3015820D02*
D03*
X1160440Y2793170D02*
D03*
X1203440Y2793170D02*
D03*
D148*
X2980830Y432642D02*
D03*
X2956830D02*
D03*
X1786750Y2310750D02*
D03*
X1810750D02*
D03*
X259750Y2506770D02*
D03*
X283750D02*
D03*
X257250Y2306770D02*
D03*
X281250D02*
D03*
X259000Y2106770D02*
D03*
X283000D02*
D03*
X281250Y1906770D02*
D03*
X257250D02*
D03*
X257250Y1706770D02*
D03*
X281250D02*
D03*
X282750Y1492502D02*
D03*
X258750D02*
D03*
X286750Y1307248D02*
D03*
X262750D02*
D03*
X284250Y1106520D02*
D03*
X260250D02*
D03*
X283250Y1003570D02*
D03*
X307250D02*
D03*
X263250Y1003752D02*
D03*
X239250D02*
D03*
X261590Y952942D02*
D03*
X285590D02*
D03*
X261590Y932502D02*
D03*
X285590D02*
D03*
X231300Y849750D02*
D03*
X207300D02*
D03*
X135090Y863998D02*
D03*
X111090D02*
D03*
X112070Y669570D02*
D03*
X136070D02*
D03*
X238290Y696550D02*
D03*
X214290D02*
D03*
X341000Y588748D02*
D03*
X317000D02*
D03*
X206920Y599022D02*
D03*
X230920D02*
D03*
X207250Y577752D02*
D03*
X231250D02*
D03*
X292750Y536002D02*
D03*
X268750D02*
D03*
X292560Y515962D02*
D03*
X268560D02*
D03*
X135970Y450748D02*
D03*
X111970D02*
D03*
X236500Y440748D02*
D03*
X212500D02*
D03*
X113101Y287763D02*
D03*
X137101D02*
D03*
X322770Y189047D02*
D03*
X298770D02*
D03*
X233750Y109252D02*
D03*
X257750D02*
D03*
X233750Y88252D02*
D03*
X257750D02*
D03*
X860250Y787498D02*
D03*
X836250D02*
D03*
X1022750Y111000D02*
D03*
X1046750D02*
D03*
X2889520Y263732D02*
D03*
X2913520D02*
D03*
X3027820D02*
D03*
X3003820D02*
D03*
X2956830Y345012D02*
D03*
X2980830D02*
D03*
X2905900Y498678D02*
D03*
X2881900D02*
D03*
X2905900Y520268D02*
D03*
X2881900D02*
D03*
X2905900Y540588D02*
D03*
X2881900D02*
D03*
X2905900Y560908D02*
D03*
X2881900D02*
D03*
X2879360Y736468D02*
D03*
X2903360D02*
D03*
X2879360Y716150D02*
D03*
X2903360D02*
D03*
X2879360Y695828D02*
D03*
X2903360D02*
D03*
Y675508D02*
D03*
X2879360D02*
D03*
X2815860Y963498D02*
D03*
X2839860D02*
D03*
X2815860Y941908D02*
D03*
X2839860D02*
D03*
X2815860Y920318D02*
D03*
X2839860D02*
D03*
X2815860Y898728D02*
D03*
X2839860D02*
D03*
X2949210Y911432D02*
D03*
X2973210D02*
D03*
X2950670Y1124342D02*
D03*
X2974670D02*
D03*
X2834590Y1203898D02*
D03*
X2810590D02*
D03*
X2834590Y1183578D02*
D03*
X2810590D02*
D03*
X2834590Y1163257D02*
D03*
X2810590D02*
D03*
X2834590Y1142938D02*
D03*
X2810590D02*
D03*
X2763750Y1229502D02*
D03*
X2739750D02*
D03*
X3129070Y1893143D02*
D03*
X3153070D02*
D03*
X284000Y1597752D02*
D03*
X308000D02*
D03*
X306780Y2205560D02*
D03*
X307480Y2007438D02*
D03*
X236780Y2205558D02*
D03*
X236490Y2007442D02*
D03*
X260780Y2205558D02*
D03*
X282780Y2205560D02*
D03*
X283480Y2007438D02*
D03*
X260490Y2007442D02*
D03*
X235220Y1397770D02*
D03*
X259220D02*
D03*
X305000D02*
D03*
X281000D02*
D03*
X235750Y1207748D02*
D03*
X259750D02*
D03*
X237020Y2397770D02*
D03*
X261020D02*
D03*
X239030Y1597770D02*
D03*
X263030D02*
D03*
X306210Y1208040D02*
D03*
X282210D02*
D03*
Y1797770D02*
D03*
X306210D02*
D03*
X306270Y2397770D02*
D03*
X282270D02*
D03*
X260490Y1797770D02*
D03*
X236490D02*
D03*
D149*
X3157860Y515190D02*
D03*
X3132860D02*
D03*
X3157860Y536780D02*
D03*
X3132860D02*
D03*
X3156590Y610440D02*
D03*
X3131590D02*
D03*
X3156590Y632030D02*
D03*
X3131590D02*
D03*
X1762000Y2310500D02*
D03*
X1737000D02*
D03*
X1810500Y2334960D02*
D03*
X1785500D02*
D03*
X169390Y2493850D02*
D03*
X144390D02*
D03*
X329770Y2506770D02*
D03*
X304770D02*
D03*
X169390Y2299540D02*
D03*
X144390D02*
D03*
X328500Y2306770D02*
D03*
X303500D02*
D03*
X169390Y2093800D02*
D03*
X144390D02*
D03*
X329772Y2106770D02*
D03*
X304772D02*
D03*
X168700Y1896950D02*
D03*
X143700D02*
D03*
X304770Y1906770D02*
D03*
X329770D02*
D03*
X168120Y1691210D02*
D03*
X143120D02*
D03*
X304770Y1706770D02*
D03*
X329770D02*
D03*
X167750Y1490250D02*
D03*
X142750D02*
D03*
X329770Y1492752D02*
D03*
X304770D02*
D03*
X306040Y1307000D02*
D03*
X331040D02*
D03*
X167010Y1298780D02*
D03*
X142010D02*
D03*
X143120Y1091770D02*
D03*
X168120D02*
D03*
X306000Y1106770D02*
D03*
X331000D02*
D03*
X111090Y842561D02*
D03*
X136090D02*
D03*
X137070Y691200D02*
D03*
X112070D02*
D03*
X111970Y429300D02*
D03*
X136970D02*
D03*
X138101Y261089D02*
D03*
X113101D02*
D03*
X1022360Y135000D02*
D03*
X1047360D02*
D03*
X1235000Y137750D02*
D03*
X1210000D02*
D03*
X1234250Y109000D02*
D03*
X1209250D02*
D03*
X1271750Y191250D02*
D03*
X1296750D02*
D03*
X1350750Y189750D02*
D03*
X1375750D02*
D03*
X1283740Y329770D02*
D03*
X1308740D02*
D03*
X2710820Y484710D02*
D03*
X2685820D02*
D03*
X2685250Y732500D02*
D03*
X2710250D02*
D03*
X2680750Y990750D02*
D03*
X2705750D02*
D03*
X2973710Y889840D02*
D03*
X2948710D02*
D03*
X2975170Y1102750D02*
D03*
X2950170D02*
D03*
X2684750Y1145500D02*
D03*
X2709750D02*
D03*
X2738760Y1908950D02*
D03*
X2713760D02*
D03*
X2766700Y1658190D02*
D03*
X2741700D02*
D03*
X2915690Y1856110D02*
D03*
X2940690D02*
D03*
Y1831110D02*
D03*
X2915690D02*
D03*
X3154270Y1940130D02*
D03*
X3129270D02*
D03*
X3154270Y1917270D02*
D03*
X3129270D02*
D03*
D150*
X3112339Y514120D02*
D03*
Y539120D02*
D03*
X3111070Y608100D02*
D03*
Y633100D02*
D03*
X144390Y2515870D02*
D03*
Y2540870D02*
D03*
X169390D02*
D03*
Y2515870D02*
D03*
X329770Y2441980D02*
D03*
Y2466980D02*
D03*
X144390Y2321330D02*
D03*
Y2346330D02*
D03*
X169390D02*
D03*
Y2321330D02*
D03*
X328500Y2252170D02*
D03*
Y2277170D02*
D03*
X144390Y2115390D02*
D03*
Y2140390D02*
D03*
X169390Y2115390D02*
D03*
Y2140390D02*
D03*
X329768Y2078750D02*
D03*
Y2053750D02*
D03*
X143700Y1918740D02*
D03*
Y1943740D02*
D03*
X168700Y1918740D02*
D03*
Y1943740D02*
D03*
X329770Y1870500D02*
D03*
Y1845500D02*
D03*
X143120Y1714270D02*
D03*
Y1739270D02*
D03*
X168120D02*
D03*
Y1714270D02*
D03*
X329770Y1673160D02*
D03*
Y1648160D02*
D03*
X329770Y1443500D02*
D03*
Y1468500D02*
D03*
X331040Y1275720D02*
D03*
Y1250720D02*
D03*
X167010Y1343980D02*
D03*
Y1318980D02*
D03*
X142010Y1318780D02*
D03*
Y1343780D02*
D03*
X143120Y1138560D02*
D03*
Y1113560D02*
D03*
X168120D02*
D03*
Y1138560D02*
D03*
X331040Y1073790D02*
D03*
Y1048790D02*
D03*
X312900Y836550D02*
D03*
Y861550D02*
D03*
X335760Y836550D02*
D03*
Y861550D02*
D03*
X135090Y884228D02*
D03*
Y909228D02*
D03*
X111090D02*
D03*
Y884228D02*
D03*
X136070Y623760D02*
D03*
Y648760D02*
D03*
X112070Y623760D02*
D03*
Y648760D02*
D03*
X314530Y609370D02*
D03*
Y634370D02*
D03*
X341270Y609370D02*
D03*
Y634370D02*
D03*
X320751Y424880D02*
D03*
Y449880D02*
D03*
X344742Y425210D02*
D03*
Y450210D02*
D03*
X135970Y474250D02*
D03*
Y499250D02*
D03*
X111970D02*
D03*
Y474250D02*
D03*
X112610Y237500D02*
D03*
Y212500D02*
D03*
X137610D02*
D03*
Y237500D02*
D03*
X298000Y236000D02*
D03*
Y211000D02*
D03*
X323250Y210750D02*
D03*
Y235750D02*
D03*
X1312250Y245750D02*
D03*
Y220750D02*
D03*
X1226390Y218250D02*
D03*
Y243250D02*
D03*
X1259410Y304570D02*
D03*
Y329570D02*
D03*
X2951049Y844320D02*
D03*
Y869320D02*
D03*
X2971370Y844320D02*
D03*
Y869320D02*
D03*
X2972830Y1057230D02*
D03*
Y1082230D02*
D03*
X2952509Y1057230D02*
D03*
Y1082230D02*
D03*
X2713560Y1933980D02*
D03*
Y1958980D02*
D03*
X2713308Y1683390D02*
D03*
Y1658390D02*
D03*
X2895170Y1831110D02*
D03*
Y1856110D02*
D03*
X167750Y1513610D02*
D03*
Y1538610D02*
D03*
X143120D02*
D03*
Y1513610D02*
D03*
D151*
X2953630Y633300D02*
D03*
Y620600D02*
D03*
Y607900D02*
D03*
X3060230D02*
D03*
Y620600D02*
D03*
Y633300D02*
D03*
X2954900Y540590D02*
D03*
Y527890D02*
D03*
Y515190D02*
D03*
X3061500D02*
D03*
Y527890D02*
D03*
Y540590D02*
D03*
X250990Y2439240D02*
D03*
Y2451940D02*
D03*
Y2464640D02*
D03*
X144390D02*
D03*
Y2451940D02*
D03*
Y2439240D02*
D03*
X250990Y2255090D02*
D03*
X144390Y2267790D02*
D03*
Y2255090D02*
D03*
Y2242390D02*
D03*
X250990D02*
D03*
Y2267790D02*
D03*
X144390Y2037920D02*
D03*
Y2050620D02*
D03*
Y2063320D02*
D03*
X250990D02*
D03*
Y2050620D02*
D03*
Y2037920D02*
D03*
X250300Y1840050D02*
D03*
Y1852750D02*
D03*
Y1865450D02*
D03*
X143700D02*
D03*
Y1852750D02*
D03*
Y1840050D02*
D03*
X249720Y1636600D02*
D03*
Y1649300D02*
D03*
Y1662000D02*
D03*
X143120D02*
D03*
Y1649300D02*
D03*
Y1636600D02*
D03*
X249720Y1435940D02*
D03*
Y1448640D02*
D03*
Y1461340D02*
D03*
X143120D02*
D03*
Y1448640D02*
D03*
Y1435940D02*
D03*
X249800Y1243050D02*
D03*
Y1255750D02*
D03*
Y1268450D02*
D03*
X143200D02*
D03*
Y1255750D02*
D03*
Y1243050D02*
D03*
X249720Y1035890D02*
D03*
Y1048590D02*
D03*
Y1061290D02*
D03*
X143120D02*
D03*
Y1048590D02*
D03*
Y1035890D02*
D03*
X217690Y791800D02*
D03*
Y804500D02*
D03*
Y817200D02*
D03*
X111090D02*
D03*
Y804500D02*
D03*
Y791800D02*
D03*
X112070Y719950D02*
D03*
Y732650D02*
D03*
Y745350D02*
D03*
X218670D02*
D03*
Y732650D02*
D03*
Y719950D02*
D03*
X218192Y378600D02*
D03*
Y391300D02*
D03*
Y404000D02*
D03*
X111592D02*
D03*
Y391300D02*
D03*
Y378600D02*
D03*
X219701Y327230D02*
D03*
X113101Y339930D02*
D03*
Y327230D02*
D03*
Y314530D02*
D03*
X219701D02*
D03*
Y339930D02*
D03*
X2864730Y963498D02*
D03*
Y950798D02*
D03*
Y938098D02*
D03*
X2971330D02*
D03*
Y950798D02*
D03*
Y963498D02*
D03*
X2867460Y1176410D02*
D03*
Y1163710D02*
D03*
Y1151010D02*
D03*
X2974060D02*
D03*
Y1163710D02*
D03*
Y1176410D02*
D03*
X2761860Y1856310D02*
D03*
Y1843610D02*
D03*
Y1830910D02*
D03*
X2868460D02*
D03*
Y1843610D02*
D03*
Y1856310D02*
D03*
D152*
X1333070Y2875800D02*
D03*
X1333070Y2835800D02*
D03*
X1335610Y2694830D02*
D03*
X1335610Y2734830D02*
D03*
X1335610Y2569100D02*
D03*
X1335610Y2609100D02*
D03*
X700610Y3004070D02*
D03*
X700610Y2964070D02*
D03*
X699340Y2885960D02*
D03*
X699340Y2845960D02*
D03*
X698070Y2627520D02*
D03*
X698070Y2667520D02*
D03*
X1333070Y3021850D02*
D03*
X1333070Y2981850D02*
D03*
D153*
X343990Y481210D02*
D03*
X310990D02*
D03*
X337260Y933300D02*
D03*
X304260D02*
D03*
X337260Y906630D02*
D03*
X304260D02*
D03*
X231300Y922072D02*
D03*
X198300D02*
D03*
X231300Y896672D02*
D03*
X198300D02*
D03*
X231300Y872542D02*
D03*
X198300D02*
D03*
X342270Y687910D02*
D03*
X309270D02*
D03*
X342270Y661240D02*
D03*
X309270D02*
D03*
X239550Y672420D02*
D03*
X206550D02*
D03*
X239550Y647020D02*
D03*
X206550D02*
D03*
X239550Y621620D02*
D03*
X206550D02*
D03*
X343990Y507880D02*
D03*
X310990D02*
D03*
X234750Y512750D02*
D03*
X201750D02*
D03*
X235500Y488250D02*
D03*
X202500D02*
D03*
X236000Y463750D02*
D03*
X203000D02*
D03*
X232250Y271250D02*
D03*
X199250D02*
D03*
X258280Y158800D02*
D03*
X225280D02*
D03*
X258000Y133250D02*
D03*
X225000D02*
D03*
X836750Y822500D02*
D03*
X803750D02*
D03*
X1104500Y421500D02*
D03*
X1071500D02*
D03*
X952750Y166000D02*
D03*
X919750D02*
D03*
X899583Y161000D02*
D03*
X866583D02*
D03*
X846417Y156000D02*
D03*
X813417D02*
D03*
X792500Y151000D02*
D03*
X759500D02*
D03*
X792500Y121000D02*
D03*
X759500D02*
D03*
X846417Y116000D02*
D03*
X813417D02*
D03*
X899583Y111000D02*
D03*
X866583D02*
D03*
X952750Y106000D02*
D03*
X919750D02*
D03*
X2744020Y536780D02*
D03*
X2711020D02*
D03*
X2744020Y510110D02*
D03*
X2711020D02*
D03*
X2743260Y682670D02*
D03*
X2710260D02*
D03*
X2710250Y707750D02*
D03*
X2743250D02*
D03*
X2779590Y1014300D02*
D03*
X2746590D02*
D03*
X2779500Y990000D02*
D03*
X2746500D02*
D03*
X2771000Y1253000D02*
D03*
X2738000D02*
D03*
X2771250Y1277750D02*
D03*
X2738250D02*
D03*
X2801180Y2247230D02*
D03*
X2768180D02*
D03*
X2854520Y2242230D02*
D03*
X2821520D02*
D03*
X2907860Y2237230D02*
D03*
X2874860D02*
D03*
X2961200Y2232230D02*
D03*
X2928200D02*
D03*
X2798640Y2132660D02*
D03*
X2765640D02*
D03*
X2959930Y2116660D02*
D03*
X2926930D02*
D03*
X2906590Y2122660D02*
D03*
X2873590D02*
D03*
X2853250Y2126660D02*
D03*
X2820250D02*
D03*
X2801180Y2189290D02*
D03*
X2768180D02*
D03*
X2854520Y2194290D02*
D03*
X2821520D02*
D03*
X2907860Y2199290D02*
D03*
X2874860D02*
D03*
X2961200Y2204290D02*
D03*
X2928200D02*
D03*
X2799910Y2074990D02*
D03*
X2766910D02*
D03*
X2853250Y2079990D02*
D03*
X2820250D02*
D03*
X2873590Y2084630D02*
D03*
X2906590D02*
D03*
X2959930Y2089990D02*
D03*
X2926930D02*
D03*
D154*
X755390Y2747850D02*
D03*
D155*
X681390Y2770700D02*
D03*
X681390Y2725000D02*
D03*
D156*
X250130Y914230D02*
D03*
X270530D02*
D03*
X260330Y890230D02*
D03*
X250130Y873590D02*
D03*
X270530D02*
D03*
X260330Y849590D02*
D03*
X266500Y696500D02*
D03*
X286900D02*
D03*
X276700Y672500D02*
D03*
X266800Y656500D02*
D03*
X287200D02*
D03*
X277000Y632500D02*
D03*
X255800Y497000D02*
D03*
X276200D02*
D03*
X266000Y473000D02*
D03*
X256050Y457250D02*
D03*
X276450D02*
D03*
X266250Y433250D02*
D03*
X243346Y247790D02*
D03*
X263746D02*
D03*
X253546Y223790D02*
D03*
X243346Y204040D02*
D03*
X263746D02*
D03*
X253546Y180040D02*
D03*
X1248300Y243250D02*
D03*
X1268700D02*
D03*
X1258500Y219250D02*
D03*
X1353550Y246500D02*
D03*
X1373950D02*
D03*
X1363750Y222500D02*
D03*
D157*
X1181780Y135520D02*
D03*
Y110120D02*
D03*
X1096780D02*
D03*
Y135520D02*
D03*
D158*
X1297510Y103202D02*
D03*
X1284810D02*
D03*
X1272110D02*
D03*
X1259410D02*
D03*
Y152478D02*
D03*
X1272110D02*
D03*
X1284810D02*
D03*
X1297510D02*
D03*
D159*
X1350850Y156090D02*
D03*
X1363550D02*
D03*
X1376250D02*
D03*
X1388950D02*
D03*
X1350850Y99590D02*
D03*
X1363550D02*
D03*
X1376250D02*
D03*
X1388950D02*
D03*
D160*
X1338150Y330501D02*
D03*
X1371150D02*
D03*
X1703900Y518999D02*
D03*
X1670900D02*
D03*
D161*
X1704130Y470740D02*
D03*
X1668130D02*
D03*
X1704130Y446610D02*
D03*
X1668130D02*
D03*
D162*
X3136470Y103620D02*
D03*
X3136470Y60620D02*
D03*
X2844370Y115776D02*
D03*
X2844370Y59350D02*
D03*
D163*
X2821260Y455500D02*
D03*
X2855550Y531700D02*
D03*
X2822530Y630760D02*
D03*
X2853010Y710440D02*
D03*
D164*
X2758260Y478500D02*
D03*
Y455500D02*
D03*
Y432500D02*
D03*
X2792550Y554700D02*
D03*
Y531700D02*
D03*
Y508700D02*
D03*
X2759530Y653760D02*
D03*
Y630760D02*
D03*
Y607760D02*
D03*
X2790010Y733440D02*
D03*
Y710440D02*
D03*
Y687440D02*
D03*
D165*
X2761750Y811000D02*
D03*
X2761820Y901520D02*
D03*
X2763000Y1052750D02*
D03*
X2762750Y1141750D02*
D03*
D166*
X2784750Y874000D02*
D03*
X2761750D02*
D03*
X2738750D02*
D03*
X2784820Y964520D02*
D03*
X2761820D02*
D03*
X2738820D02*
D03*
X2786000Y1115750D02*
D03*
X2763000D02*
D03*
X2740000D02*
D03*
X2785750Y1204750D02*
D03*
X2762750D02*
D03*
X2739750D02*
D03*
D167*
X2854220Y1656920D02*
D03*
X2834220D02*
D03*
D168*
X2853220Y1635330D02*
D03*
X2834220D02*
D03*
M02*
