G04*
G04 #@! TF.GenerationSoftware,Altium Limited,Altium Designer,25.3.3 (18)*
G04*
G04 Layer_Color=65535*
%FSLAX44Y44*%
%MOMM*%
G71*
G04*
G04 #@! TF.SameCoordinates,02FA8497-09D8-4EBB-9686-6BBDE5AED0EC*
G04*
G04*
G04 #@! TF.FilePolarity,Positive*
G04*
G01*
G75*
%ADD10C,0.8000*%
%ADD11C,0.1270*%
%ADD12C,0.2000*%
%ADD13C,0.5000*%
%ADD14C,0.2540*%
%ADD15C,0.1524*%
%ADD16C,0.3000*%
%ADD17C,0.6350*%
%ADD18C,0.1778*%
%ADD19C,0.1500*%
G36*
X594819Y2770075D02*
X594565D01*
X585675Y2761185D01*
Y2779219D01*
X594819Y2770075D01*
D02*
G37*
G36*
X2883380Y2572679D02*
X2883230D01*
Y2572829D01*
X2883380D01*
Y2572679D01*
D02*
G37*
G36*
X2796254Y2553484D02*
X2796404D01*
Y2553334D01*
X2796254D01*
Y2553484D01*
X2796104D01*
Y2553634D01*
X2796254D01*
Y2553484D01*
D02*
G37*
G36*
X2780509Y2553184D02*
X2780659D01*
Y2553034D01*
X2780509D01*
Y2552884D01*
Y2552734D01*
X2780359D01*
Y2553484D01*
X2780509D01*
Y2553184D01*
D02*
G37*
G36*
X2780209Y2553034D02*
Y2552884D01*
Y2552734D01*
X2779759D01*
Y2553184D01*
X2779909D01*
Y2553334D01*
X2780209D01*
Y2553034D01*
D02*
G37*
G36*
X2782908Y2584675D02*
X2783058D01*
Y2584525D01*
X2784258D01*
Y2584375D01*
X2784408D01*
Y2584225D01*
X2785008D01*
Y2584076D01*
X2785157D01*
Y2583925D01*
X2785307D01*
Y2583776D01*
X2785457D01*
Y2583625D01*
X2785757D01*
Y2583476D01*
X2785907D01*
Y2581976D01*
X2786057D01*
Y2581826D01*
X2786207D01*
Y2581676D01*
X2786507D01*
Y2581526D01*
X2786657D01*
Y2581376D01*
X2788007D01*
Y2581226D01*
X2788157D01*
Y2581076D01*
X2788756D01*
Y2580927D01*
X2789356D01*
Y2580776D01*
X2789656D01*
Y2580627D01*
X2790706D01*
Y2580327D01*
X2791756D01*
Y2580177D01*
X2791906D01*
Y2580027D01*
X2792356D01*
Y2579877D01*
X2792955D01*
Y2579727D01*
X2793255D01*
Y2579577D01*
X2794005D01*
Y2579427D01*
X2794155D01*
Y2579277D01*
X2795204D01*
Y2579127D01*
X2795355D01*
Y2578977D01*
X2795955D01*
Y2578827D01*
X2796704D01*
Y2578677D01*
X2796854D01*
Y2578527D01*
X2797604D01*
Y2578377D01*
X2797754D01*
Y2578227D01*
X2798804D01*
Y2578077D01*
X2799104D01*
Y2577927D01*
X2799703D01*
Y2577777D01*
X2800153D01*
Y2577627D01*
X2800303D01*
Y2577477D01*
X2801653D01*
Y2577627D01*
X2801953D01*
Y2577777D01*
X2802103D01*
Y2577627D01*
X2802253D01*
Y2577777D01*
X2802403D01*
Y2577927D01*
X2802552D01*
Y2578227D01*
X2803003D01*
Y2578377D01*
X2803152D01*
Y2578527D01*
X2803752D01*
Y2578377D01*
X2803902D01*
Y2578227D01*
X2804952D01*
Y2578077D01*
X2805102D01*
Y2577927D01*
X2805552D01*
Y2577777D01*
X2806152D01*
Y2577627D01*
X2806302D01*
Y2577477D01*
X2806602D01*
Y2577027D01*
X2806751D01*
Y2577177D01*
X2806902D01*
Y2576728D01*
X2807051D01*
Y2568030D01*
X2806902D01*
Y2564881D01*
X2807051D01*
Y2558583D01*
X2806902D01*
Y2558283D01*
X2806751D01*
Y2557983D01*
X2806602D01*
Y2557383D01*
X2806451D01*
Y2557233D01*
X2806302D01*
Y2556933D01*
X2806152D01*
Y2556783D01*
X2806002D01*
Y2556633D01*
X2805852D01*
Y2556483D01*
X2805552D01*
Y2556333D01*
X2805402D01*
Y2556183D01*
X2804802D01*
Y2556033D01*
X2804502D01*
Y2555883D01*
X2803752D01*
Y2556033D01*
X2803452D01*
Y2556183D01*
X2802552D01*
Y2556333D01*
X2802403D01*
Y2556483D01*
X2801503D01*
Y2556633D01*
X2801203D01*
Y2556783D01*
X2800453D01*
Y2556933D01*
X2800003D01*
Y2557083D01*
X2799703D01*
Y2557233D01*
X2799104D01*
Y2557383D01*
X2798954D01*
Y2557683D01*
X2798804D01*
Y2557533D01*
X2798354D01*
Y2557683D01*
X2798054D01*
Y2557833D01*
X2798204D01*
Y2557983D01*
X2797904D01*
Y2557833D01*
X2797754D01*
Y2557983D01*
X2797454D01*
Y2558283D01*
X2797304D01*
Y2558433D01*
X2797154D01*
Y2558283D01*
X2797004D01*
Y2558583D01*
X2796854D01*
Y2558732D01*
X2796704D01*
Y2558882D01*
X2796554D01*
Y2559182D01*
X2796404D01*
Y2559332D01*
X2796254D01*
Y2559632D01*
X2796104D01*
Y2559782D01*
X2795955D01*
Y2559932D01*
X2795804D01*
Y2560382D01*
X2795655D01*
Y2560532D01*
X2795504D01*
Y2561132D01*
X2795355D01*
Y2561282D01*
X2795204D01*
Y2562781D01*
X2795055D01*
Y2563531D01*
X2795204D01*
Y2565630D01*
X2795355D01*
Y2566380D01*
X2795204D01*
Y2566980D01*
X2795055D01*
Y2567130D01*
X2794905D01*
Y2567280D01*
X2794605D01*
Y2567430D01*
X2794155D01*
Y2567280D01*
X2794005D01*
Y2567130D01*
X2793555D01*
Y2566980D01*
X2793255D01*
Y2566830D01*
X2793105D01*
Y2566680D01*
X2792805D01*
Y2566530D01*
X2792655D01*
Y2566380D01*
X2792206D01*
Y2566230D01*
X2791906D01*
Y2566081D01*
X2791456D01*
Y2565930D01*
X2790856D01*
Y2565781D01*
X2790706D01*
Y2565630D01*
X2790256D01*
Y2565481D01*
X2790106D01*
Y2565331D01*
X2789656D01*
Y2565181D01*
X2789506D01*
Y2565031D01*
X2789206D01*
Y2564881D01*
X2788906D01*
Y2564731D01*
X2788607D01*
Y2564581D01*
X2788157D01*
Y2564431D01*
X2788007D01*
Y2564281D01*
X2787257D01*
Y2564131D01*
X2786957D01*
Y2563981D01*
X2786657D01*
Y2563831D01*
X2786357D01*
Y2563681D01*
X2786207D01*
Y2563531D01*
X2785907D01*
Y2563081D01*
X2785757D01*
Y2562781D01*
X2785607D01*
Y2560682D01*
X2785757D01*
Y2560082D01*
X2785607D01*
Y2558583D01*
X2785757D01*
Y2558283D01*
X2785907D01*
Y2558133D01*
X2785757D01*
Y2557833D01*
X2786057D01*
Y2557683D01*
X2786207D01*
Y2557533D01*
X2786657D01*
Y2557383D01*
X2787407D01*
Y2557233D01*
X2787707D01*
Y2557083D01*
X2788307D01*
Y2556933D01*
X2788456D01*
Y2556783D01*
X2789206D01*
Y2556633D01*
X2789356D01*
Y2556483D01*
X2789806D01*
Y2556333D01*
X2790256D01*
Y2556183D01*
X2790406D01*
Y2556033D01*
X2791156D01*
Y2555883D01*
X2791306D01*
Y2555733D01*
X2792055D01*
Y2555583D01*
X2792356D01*
Y2555433D01*
X2792655D01*
Y2555284D01*
X2793405D01*
Y2555134D01*
X2793555D01*
Y2554984D01*
X2794305D01*
Y2554834D01*
X2794455D01*
Y2554684D01*
X2794905D01*
Y2554384D01*
X2795204D01*
Y2554234D01*
X2795355D01*
Y2554084D01*
X2795504D01*
Y2553934D01*
X2795655D01*
Y2553784D01*
X2795804D01*
Y2553634D01*
X2795955D01*
Y2553484D01*
X2796104D01*
Y2553334D01*
X2796254D01*
Y2553184D01*
X2796404D01*
Y2553034D01*
X2796704D01*
Y2552884D01*
X2796854D01*
Y2552584D01*
X2797004D01*
Y2552434D01*
X2796854D01*
Y2552584D01*
X2796704D01*
Y2552434D01*
X2796854D01*
Y2552284D01*
X2797154D01*
Y2551984D01*
X2797304D01*
Y2551834D01*
X2797454D01*
Y2550935D01*
X2797604D01*
Y2550635D01*
X2797754D01*
Y2550185D01*
X2797904D01*
Y2540438D01*
X2797754D01*
Y2540138D01*
X2797454D01*
Y2539988D01*
X2797004D01*
Y2540138D01*
X2796704D01*
Y2540288D01*
X2796254D01*
Y2540438D01*
X2795955D01*
Y2540588D01*
X2795655D01*
Y2540737D01*
X2795204D01*
Y2540887D01*
X2795055D01*
Y2541037D01*
X2794155D01*
Y2541187D01*
X2794005D01*
Y2541337D01*
X2793405D01*
Y2541487D01*
X2792955D01*
Y2541637D01*
X2792805D01*
Y2541787D01*
X2792055D01*
Y2541937D01*
X2791906D01*
Y2542087D01*
X2791156D01*
Y2542237D01*
X2791006D01*
Y2542387D01*
X2790256D01*
Y2542537D01*
X2789956D01*
Y2542687D01*
X2789656D01*
Y2542837D01*
X2789056D01*
Y2542987D01*
X2788756D01*
Y2543137D01*
X2787857D01*
Y2543287D01*
X2787707D01*
Y2543437D01*
X2787257D01*
Y2543587D01*
X2786957D01*
Y2543737D01*
X2786207D01*
Y2543587D01*
X2785907D01*
Y2543137D01*
X2785757D01*
Y2541637D01*
X2785907D01*
Y2540887D01*
X2785757D01*
Y2540737D01*
X2785907D01*
Y2540588D01*
X2786057D01*
Y2540438D01*
X2786207D01*
Y2540288D01*
X2786657D01*
Y2540138D01*
X2787257D01*
Y2539988D01*
X2787707D01*
Y2539838D01*
X2788607D01*
Y2539688D01*
X2788906D01*
Y2539538D01*
X2789506D01*
Y2539388D01*
X2789656D01*
Y2539238D01*
X2790406D01*
Y2539088D01*
X2790706D01*
Y2538938D01*
X2791006D01*
Y2538788D01*
X2791756D01*
Y2538638D01*
X2791906D01*
Y2538488D01*
X2792955D01*
Y2538338D01*
X2793105D01*
Y2538188D01*
X2793705D01*
Y2538038D01*
X2794005D01*
Y2537888D01*
X2794305D01*
Y2537738D01*
X2794905D01*
Y2537588D01*
X2795055D01*
Y2537438D01*
X2795804D01*
Y2537289D01*
X2795955D01*
Y2537139D01*
X2796704D01*
Y2536989D01*
X2797004D01*
Y2536839D01*
X2797154D01*
Y2536689D01*
X2797454D01*
Y2536539D01*
X2797754D01*
Y2536389D01*
X2797904D01*
Y2526342D01*
X2797754D01*
Y2526042D01*
X2797604D01*
Y2525742D01*
X2797454D01*
Y2525442D01*
X2797304D01*
Y2525292D01*
X2797154D01*
Y2524992D01*
X2797004D01*
Y2524842D01*
X2796704D01*
Y2524692D01*
X2796404D01*
Y2524542D01*
X2795804D01*
Y2524392D01*
X2795655D01*
Y2524242D01*
X2793555D01*
Y2524392D01*
X2793405D01*
Y2524542D01*
X2792805D01*
Y2524692D01*
X2792505D01*
Y2524842D01*
X2791606D01*
Y2524992D01*
X2791156D01*
Y2525142D01*
X2790706D01*
Y2525292D01*
X2790106D01*
Y2525442D01*
X2789806D01*
Y2525592D01*
X2789056D01*
Y2525742D01*
X2788906D01*
Y2525892D01*
X2788007D01*
Y2526042D01*
X2787707D01*
Y2526192D01*
X2787407D01*
Y2526342D01*
X2786807D01*
Y2526492D01*
X2786207D01*
Y2526342D01*
X2785907D01*
Y2526042D01*
X2785757D01*
Y2525592D01*
X2785607D01*
Y2525292D01*
X2785757D01*
Y2524692D01*
X2785907D01*
Y2524242D01*
X2785757D01*
Y2524092D01*
X2785907D01*
Y2523942D01*
X2786057D01*
Y2523792D01*
X2786357D01*
Y2523642D01*
X2786807D01*
Y2523492D01*
X2787257D01*
Y2523342D01*
X2788157D01*
Y2523492D01*
X2788456D01*
Y2523192D01*
X2788607D01*
Y2523042D01*
X2789056D01*
Y2523192D01*
X2789206D01*
Y2522892D01*
X2789356D01*
Y2522742D01*
X2789656D01*
Y2522592D01*
X2790106D01*
Y2522443D01*
X2790256D01*
Y2522293D01*
X2790856D01*
Y2522143D01*
X2791006D01*
Y2521993D01*
X2792055D01*
Y2521843D01*
X2792356D01*
Y2521693D01*
X2792805D01*
Y2521543D01*
X2793405D01*
Y2521393D01*
X2793555D01*
Y2521243D01*
X2794305D01*
Y2520943D01*
X2794905D01*
Y2520643D01*
X2795204D01*
Y2520493D01*
X2795355D01*
Y2520343D01*
X2795504D01*
Y2520193D01*
X2795655D01*
Y2520043D01*
X2795804D01*
Y2519893D01*
X2795955D01*
Y2519743D01*
X2796104D01*
Y2519593D01*
X2796254D01*
Y2519443D01*
X2796404D01*
Y2519294D01*
X2796554D01*
Y2519144D01*
X2796854D01*
Y2518994D01*
X2796704D01*
Y2518844D01*
X2796854D01*
Y2518694D01*
X2797154D01*
Y2518544D01*
X2797004D01*
Y2518244D01*
X2797304D01*
Y2518094D01*
X2797454D01*
Y2517344D01*
X2797604D01*
Y2517044D01*
X2797754D01*
Y2516744D01*
X2797904D01*
Y2506247D01*
X2797754D01*
Y2505947D01*
X2797604D01*
Y2506097D01*
X2797454D01*
Y2505947D01*
X2796104D01*
Y2506097D01*
X2795955D01*
Y2506247D01*
X2795204D01*
Y2506397D01*
X2794905D01*
Y2506547D01*
X2794155D01*
Y2506697D01*
X2793705D01*
Y2506847D01*
X2793555D01*
Y2506997D01*
X2792655D01*
Y2507147D01*
X2792505D01*
Y2507297D01*
X2791456D01*
Y2507447D01*
X2791156D01*
Y2507597D01*
X2790256D01*
Y2507747D01*
X2789956D01*
Y2507897D01*
X2789656D01*
Y2508047D01*
X2789056D01*
Y2508197D01*
X2788756D01*
Y2508347D01*
X2787857D01*
Y2508497D01*
X2787557D01*
Y2508646D01*
X2786057D01*
Y2508497D01*
X2785907D01*
Y2508197D01*
X2785757D01*
Y2500549D01*
X2785907D01*
Y2496200D01*
X2785757D01*
Y2495300D01*
X2785907D01*
Y2494850D01*
X2785757D01*
Y2494700D01*
X2785907D01*
Y2494550D01*
X2786207D01*
Y2494400D01*
X2786357D01*
Y2494250D01*
X2787407D01*
Y2494100D01*
X2787707D01*
Y2493951D01*
X2788007D01*
Y2493801D01*
X2788906D01*
Y2493651D01*
X2789056D01*
Y2493501D01*
X2790106D01*
Y2493351D01*
X2790256D01*
Y2493201D01*
X2791006D01*
Y2493051D01*
X2791156D01*
Y2492901D01*
X2791456D01*
Y2492751D01*
X2791906D01*
Y2492601D01*
X2792055D01*
Y2492451D01*
X2793105D01*
Y2492751D01*
X2793405D01*
Y2493051D01*
X2793555D01*
Y2493201D01*
X2793705D01*
Y2493951D01*
X2793555D01*
Y2494700D01*
X2793705D01*
Y2494850D01*
X2794305D01*
Y2494700D01*
X2794605D01*
Y2494550D01*
X2795204D01*
Y2494400D01*
X2795355D01*
Y2494250D01*
X2795955D01*
Y2494100D01*
X2796104D01*
Y2493951D01*
X2796404D01*
Y2493801D01*
X2797004D01*
Y2493651D01*
X2797154D01*
Y2493501D01*
X2797454D01*
Y2493201D01*
X2797604D01*
Y2493351D01*
X2797754D01*
Y2493051D01*
X2797904D01*
Y2491401D01*
X2798054D01*
Y2491251D01*
X2798204D01*
Y2491101D01*
X2798654D01*
Y2490951D01*
X2799254D01*
Y2490801D01*
X2799403D01*
Y2490651D01*
X2800153D01*
Y2490501D01*
X2800303D01*
Y2490352D01*
X2800903D01*
Y2490202D01*
X2801053D01*
Y2490052D01*
X2801503D01*
Y2489902D01*
X2802103D01*
Y2490202D01*
X2802552D01*
Y2490651D01*
X2802703D01*
Y2491101D01*
X2802852D01*
Y2491701D01*
X2804352D01*
Y2491551D01*
X2804502D01*
Y2491401D01*
X2805402D01*
Y2491251D01*
X2805552D01*
Y2491101D01*
X2806152D01*
Y2490951D01*
X2806451D01*
Y2490801D01*
X2806602D01*
Y2490651D01*
X2806902D01*
Y2490501D01*
X2807051D01*
Y2474756D01*
X2806902D01*
Y2474306D01*
X2806751D01*
Y2474156D01*
X2806602D01*
Y2473556D01*
X2806451D01*
Y2473256D01*
X2806302D01*
Y2472956D01*
X2806152D01*
Y2472806D01*
X2806002D01*
Y2472656D01*
X2805852D01*
Y2472506D01*
X2805552D01*
Y2472357D01*
X2805402D01*
Y2472207D01*
X2804802D01*
Y2472056D01*
X2804502D01*
Y2471907D01*
X2804202D01*
Y2471757D01*
X2802403D01*
Y2471907D01*
X2801953D01*
Y2472056D01*
X2801653D01*
Y2472207D01*
X2800753D01*
Y2472357D01*
X2800603D01*
Y2472506D01*
X2799854D01*
Y2472656D01*
X2799703D01*
Y2472806D01*
X2798954D01*
Y2472956D01*
X2798804D01*
Y2473106D01*
X2798504D01*
Y2473256D01*
X2797754D01*
Y2473406D01*
X2797604D01*
Y2473706D01*
X2797454D01*
Y2473556D01*
X2796704D01*
Y2473706D01*
X2796404D01*
Y2473856D01*
X2795804D01*
Y2474006D01*
X2795355D01*
Y2474156D01*
X2795204D01*
Y2474306D01*
X2794455D01*
Y2474456D01*
X2794305D01*
Y2474606D01*
X2793555D01*
Y2474756D01*
X2793255D01*
Y2474906D01*
X2792655D01*
Y2475056D01*
X2792356D01*
Y2475206D01*
X2792055D01*
Y2475356D01*
X2791156D01*
Y2475506D01*
X2791006D01*
Y2475656D01*
X2790106D01*
Y2475806D01*
X2789806D01*
Y2475956D01*
X2789356D01*
Y2476105D01*
X2788906D01*
Y2476255D01*
X2788756D01*
Y2476405D01*
X2788157D01*
Y2476555D01*
X2788007D01*
Y2476705D01*
X2787257D01*
Y2476855D01*
X2787107D01*
Y2477005D01*
X2786657D01*
Y2477155D01*
X2786057D01*
Y2477005D01*
X2785757D01*
Y2476855D01*
X2785607D01*
Y2476555D01*
X2785457D01*
Y2474906D01*
X2785607D01*
Y2474306D01*
X2785757D01*
Y2474006D01*
X2785907D01*
Y2473856D01*
X2785757D01*
Y2473706D01*
X2785907D01*
Y2473556D01*
X2786057D01*
Y2473406D01*
X2786507D01*
Y2473256D01*
X2786657D01*
Y2473106D01*
X2787857D01*
Y2472956D01*
X2788007D01*
Y2472806D01*
X2788756D01*
Y2472656D01*
X2789056D01*
Y2472506D01*
X2789356D01*
Y2472357D01*
X2789956D01*
Y2472207D01*
X2790256D01*
Y2472056D01*
X2791006D01*
Y2471757D01*
X2791756D01*
Y2471607D01*
X2792055D01*
Y2471457D01*
X2792356D01*
Y2471307D01*
X2793255D01*
Y2471157D01*
X2793405D01*
Y2471007D01*
X2794455D01*
Y2470857D01*
X2794605D01*
Y2470707D01*
X2794905D01*
Y2470557D01*
X2795204D01*
Y2470407D01*
X2795355D01*
Y2470257D01*
X2795655D01*
Y2470107D01*
X2795804D01*
Y2469957D01*
X2795955D01*
Y2469807D01*
X2796104D01*
Y2469657D01*
X2796254D01*
Y2469507D01*
X2796404D01*
Y2469207D01*
X2796554D01*
Y2469357D01*
X2796704D01*
Y2469057D01*
X2796854D01*
Y2468907D01*
X2796704D01*
Y2468607D01*
X2796854D01*
Y2468757D01*
X2797004D01*
Y2468607D01*
X2797154D01*
Y2468308D01*
X2797004D01*
Y2468008D01*
X2797304D01*
Y2467708D01*
X2797454D01*
Y2459460D01*
X2797304D01*
Y2459160D01*
X2797154D01*
Y2458860D01*
X2797004D01*
Y2458710D01*
X2796854D01*
Y2458560D01*
X2796704D01*
Y2458410D01*
X2796254D01*
Y2458260D01*
X2796104D01*
Y2458110D01*
X2795055D01*
Y2457961D01*
X2794155D01*
Y2458110D01*
X2793105D01*
Y2458260D01*
X2792955D01*
Y2458410D01*
X2792055D01*
Y2458560D01*
X2791756D01*
Y2458710D01*
X2791306D01*
Y2458860D01*
X2790706D01*
Y2459010D01*
X2790556D01*
Y2459160D01*
X2790106D01*
Y2459310D01*
X2789956D01*
Y2459460D01*
X2789506D01*
Y2459610D01*
X2789206D01*
Y2459760D01*
X2788906D01*
Y2459910D01*
X2787707D01*
Y2460060D01*
X2787557D01*
Y2460210D01*
X2786957D01*
Y2460360D01*
X2786807D01*
Y2460510D01*
X2785607D01*
Y2460210D01*
X2785457D01*
Y2458110D01*
X2785607D01*
Y2457661D01*
X2785757D01*
Y2457511D01*
X2785607D01*
Y2457361D01*
X2785757D01*
Y2457211D01*
X2785907D01*
Y2457061D01*
X2786207D01*
Y2456911D01*
X2787107D01*
Y2456761D01*
X2787407D01*
Y2456611D01*
X2788307D01*
Y2456311D01*
X2788906D01*
Y2456161D01*
X2789356D01*
Y2456011D01*
X2789506D01*
Y2455861D01*
X2789956D01*
Y2455711D01*
X2790106D01*
Y2455561D01*
X2791006D01*
Y2455411D01*
X2791156D01*
Y2455261D01*
X2791606D01*
Y2455111D01*
X2792206D01*
Y2454961D01*
X2792505D01*
Y2454811D01*
X2793105D01*
Y2454661D01*
X2793255D01*
Y2454511D01*
X2793855D01*
Y2454211D01*
X2794305D01*
Y2454061D01*
X2794905D01*
Y2453912D01*
X2795055D01*
Y2453762D01*
X2796104D01*
Y2453612D01*
X2796254D01*
Y2453462D01*
X2797004D01*
Y2453312D01*
X2797154D01*
Y2453162D01*
X2797304D01*
Y2453012D01*
X2797454D01*
Y2452862D01*
X2797604D01*
Y2453012D01*
X2797754D01*
Y2452712D01*
X2797904D01*
Y2443414D01*
X2797754D01*
Y2443115D01*
X2797604D01*
Y2442815D01*
X2797454D01*
Y2442365D01*
X2797304D01*
Y2442215D01*
X2797154D01*
Y2442065D01*
X2797004D01*
Y2441915D01*
X2796854D01*
Y2441765D01*
X2796704D01*
Y2441615D01*
X2796254D01*
Y2441465D01*
X2796104D01*
Y2441315D01*
X2795655D01*
Y2441165D01*
X2793705D01*
Y2441315D01*
X2793105D01*
Y2441465D01*
X2792805D01*
Y2441615D01*
X2791456D01*
Y2441765D01*
X2791156D01*
Y2441915D01*
X2790406D01*
Y2442065D01*
X2790106D01*
Y2442215D01*
X2789506D01*
Y2442365D01*
X2789056D01*
Y2442515D01*
X2788756D01*
Y2442665D01*
X2788157D01*
Y2442815D01*
X2788007D01*
Y2442965D01*
X2787407D01*
Y2443115D01*
X2787107D01*
Y2443264D01*
X2786057D01*
Y2443115D01*
X2785907D01*
Y2442815D01*
X2785757D01*
Y2442365D01*
X2785607D01*
Y2442515D01*
X2785457D01*
Y2441765D01*
X2785607D01*
Y2442065D01*
X2785757D01*
Y2441315D01*
X2785907D01*
Y2440115D01*
X2786057D01*
Y2439966D01*
X2786207D01*
Y2439816D01*
X2786357D01*
Y2439666D01*
X2787257D01*
Y2439516D01*
X2787707D01*
Y2439366D01*
X2788906D01*
Y2439216D01*
X2789056D01*
Y2439066D01*
X2789806D01*
Y2438916D01*
X2790106D01*
Y2438766D01*
X2790406D01*
Y2438616D01*
X2791306D01*
Y2438466D01*
X2791606D01*
Y2438316D01*
X2792505D01*
Y2438166D01*
X2792655D01*
Y2438016D01*
X2793255D01*
Y2437866D01*
X2793555D01*
Y2437716D01*
X2793705D01*
Y2437566D01*
X2794155D01*
Y2437416D01*
X2794305D01*
Y2437266D01*
X2794905D01*
Y2436966D01*
X2795204D01*
Y2436816D01*
X2795355D01*
Y2436666D01*
X2795655D01*
Y2436516D01*
X2796104D01*
Y2436366D01*
X2796254D01*
Y2436216D01*
X2796404D01*
Y2436066D01*
X2796254D01*
Y2435917D01*
X2796404D01*
Y2435767D01*
X2796704D01*
Y2435617D01*
X2796854D01*
Y2435467D01*
X2796704D01*
Y2435317D01*
X2797004D01*
Y2435167D01*
X2797154D01*
Y2434867D01*
X2797004D01*
Y2434567D01*
X2797154D01*
Y2434717D01*
X2797304D01*
Y2434567D01*
X2797454D01*
Y2433517D01*
X2797604D01*
Y2433217D01*
X2797754D01*
Y2432767D01*
X2797904D01*
Y2423020D01*
X2797754D01*
Y2422720D01*
X2797604D01*
Y2422570D01*
X2796254D01*
Y2422720D01*
X2796104D01*
Y2422870D01*
X2795655D01*
Y2423020D01*
X2795055D01*
Y2423170D01*
X2794905D01*
Y2423320D01*
X2794005D01*
Y2423470D01*
X2793705D01*
Y2423620D01*
X2792805D01*
Y2423770D01*
X2792505D01*
Y2423920D01*
X2792055D01*
Y2424070D01*
X2791456D01*
Y2424220D01*
X2791156D01*
Y2424370D01*
X2790256D01*
Y2424520D01*
X2789956D01*
Y2424670D01*
X2789056D01*
Y2424820D01*
X2788756D01*
Y2424970D01*
X2788307D01*
Y2425120D01*
X2787707D01*
Y2425269D01*
X2787407D01*
Y2425419D01*
X2786357D01*
Y2425569D01*
X2786207D01*
Y2425719D01*
X2785457D01*
Y2425869D01*
X2785157D01*
Y2426019D01*
X2784857D01*
Y2426169D01*
X2783958D01*
Y2426319D01*
X2783658D01*
Y2426469D01*
X2782608D01*
Y2426619D01*
X2782458D01*
Y2426769D01*
X2781708D01*
Y2426919D01*
X2781408D01*
Y2427069D01*
X2781109D01*
Y2427219D01*
X2780059D01*
Y2427369D01*
X2779759D01*
Y2427519D01*
X2778859D01*
Y2427669D01*
X2778709D01*
Y2427819D01*
X2777959D01*
Y2427969D01*
X2777509D01*
Y2428119D01*
X2777209D01*
Y2428269D01*
X2776160D01*
Y2428419D01*
X2776010D01*
Y2428569D01*
X2775260D01*
Y2428719D01*
X2775110D01*
Y2428869D01*
X2774810D01*
Y2429318D01*
X2774660D01*
Y2497100D01*
X2774810D01*
Y2497399D01*
X2777060D01*
Y2497250D01*
X2777209D01*
Y2497100D01*
X2777509D01*
Y2496950D01*
X2778109D01*
Y2496650D01*
X2778409D01*
Y2496500D01*
X2778559D01*
Y2495600D01*
X2778709D01*
Y2495450D01*
X2778559D01*
Y2434567D01*
X2778709D01*
Y2434267D01*
X2778859D01*
Y2433967D01*
X2779009D01*
Y2433667D01*
X2779159D01*
Y2433517D01*
X2779309D01*
Y2433367D01*
X2779759D01*
Y2433217D01*
X2779909D01*
Y2433067D01*
X2780359D01*
Y2432917D01*
X2780509D01*
Y2432767D01*
X2781408D01*
Y2432917D01*
X2781559D01*
Y2433067D01*
X2781708D01*
Y2433367D01*
X2781859D01*
Y2433667D01*
X2782008D01*
Y2434117D01*
X2781859D01*
Y2434717D01*
X2781708D01*
Y2448063D01*
X2781859D01*
Y2448213D01*
X2782008D01*
Y2448513D01*
X2783508D01*
Y2448363D01*
X2783658D01*
Y2448213D01*
X2784708D01*
Y2448063D01*
X2784857D01*
Y2447913D01*
X2785157D01*
Y2447763D01*
X2785907D01*
Y2447613D01*
X2786057D01*
Y2447463D01*
X2786957D01*
Y2447313D01*
X2787107D01*
Y2447164D01*
X2788157D01*
Y2447014D01*
X2788607D01*
Y2446864D01*
X2788906D01*
Y2446714D01*
X2789806D01*
Y2446564D01*
X2789956D01*
Y2446414D01*
X2790856D01*
Y2446264D01*
X2791006D01*
Y2446114D01*
X2791456D01*
Y2445964D01*
X2791906D01*
Y2445814D01*
X2792655D01*
Y2445964D01*
X2792805D01*
Y2446114D01*
X2793105D01*
Y2446414D01*
X2793255D01*
Y2446564D01*
X2793405D01*
Y2449713D01*
X2793255D01*
Y2449863D01*
X2792955D01*
Y2450013D01*
X2792655D01*
Y2450163D01*
X2792505D01*
Y2450462D01*
X2792356D01*
Y2450313D01*
X2791456D01*
Y2450462D01*
X2791156D01*
Y2450612D01*
X2790856D01*
Y2450762D01*
X2790106D01*
Y2450912D01*
X2789806D01*
Y2451062D01*
X2788756D01*
Y2451212D01*
X2788456D01*
Y2451362D01*
X2787707D01*
Y2451512D01*
X2787407D01*
Y2451662D01*
X2787107D01*
Y2451812D01*
X2786207D01*
Y2451962D01*
X2785907D01*
Y2452112D01*
X2785157D01*
Y2452262D01*
X2785008D01*
Y2452412D01*
X2784258D01*
Y2452562D01*
X2783808D01*
Y2452712D01*
X2783508D01*
Y2452862D01*
X2782458D01*
Y2453012D01*
X2782158D01*
Y2453162D01*
X2782008D01*
Y2453312D01*
X2781859D01*
Y2453462D01*
X2782008D01*
Y2453612D01*
X2781859D01*
Y2453762D01*
X2781708D01*
Y2508796D01*
X2781859D01*
Y2509546D01*
X2781708D01*
Y2510146D01*
X2781559D01*
Y2510296D01*
X2781259D01*
Y2510446D01*
X2780809D01*
Y2510596D01*
X2780509D01*
Y2510746D01*
X2779759D01*
Y2510896D01*
X2779159D01*
Y2511046D01*
X2778859D01*
Y2511196D01*
X2778109D01*
Y2511346D01*
X2777809D01*
Y2511496D01*
X2777959D01*
Y2511646D01*
X2777660D01*
Y2511496D01*
X2776760D01*
Y2511646D01*
X2776460D01*
Y2511796D01*
X2775560D01*
Y2511945D01*
X2775260D01*
Y2512095D01*
X2775110D01*
Y2512695D01*
X2774960D01*
Y2512995D01*
X2774810D01*
Y2545386D01*
X2774960D01*
Y2568330D01*
X2774810D01*
Y2578827D01*
X2774660D01*
Y2580177D01*
X2774810D01*
Y2581076D01*
X2774960D01*
Y2581376D01*
X2775110D01*
Y2581826D01*
X2775260D01*
Y2581976D01*
X2775410D01*
Y2582126D01*
X2775560D01*
Y2582276D01*
X2775710D01*
Y2582426D01*
X2776010D01*
Y2582576D01*
X2776160D01*
Y2582726D01*
X2776310D01*
Y2582876D01*
X2776460D01*
Y2583026D01*
X2776760D01*
Y2583176D01*
X2777060D01*
Y2583326D01*
X2777209D01*
Y2583476D01*
X2777509D01*
Y2583625D01*
X2777660D01*
Y2583776D01*
X2778259D01*
Y2583925D01*
X2778409D01*
Y2583476D01*
X2778559D01*
Y2582426D01*
X2778409D01*
Y2552584D01*
X2778259D01*
Y2552884D01*
X2778109D01*
Y2549885D01*
X2778259D01*
Y2550035D01*
X2778409D01*
Y2549285D01*
X2778559D01*
Y2547935D01*
X2778409D01*
Y2517194D01*
X2778559D01*
Y2516594D01*
X2778709D01*
Y2516444D01*
X2778859D01*
Y2516294D01*
X2778709D01*
Y2516144D01*
X2778859D01*
Y2515994D01*
X2779609D01*
Y2515844D01*
X2779759D01*
Y2515694D01*
X2780509D01*
Y2515544D01*
X2781259D01*
Y2515694D01*
X2781408D01*
Y2515844D01*
X2781559D01*
Y2515994D01*
X2781708D01*
Y2521093D01*
X2781559D01*
Y2527541D01*
X2781408D01*
Y2531740D01*
X2781708D01*
Y2531890D01*
X2781859D01*
Y2532040D01*
X2782458D01*
Y2531890D01*
X2782908D01*
Y2531740D01*
X2783958D01*
Y2531590D01*
X2784108D01*
Y2531440D01*
X2785157D01*
Y2531290D01*
X2785307D01*
Y2531140D01*
X2786207D01*
Y2530990D01*
X2786507D01*
Y2530840D01*
X2786657D01*
Y2530690D01*
X2787407D01*
Y2530540D01*
X2787557D01*
Y2530390D01*
X2788607D01*
Y2530240D01*
X2788756D01*
Y2530090D01*
X2789956D01*
Y2529940D01*
X2790256D01*
Y2529790D01*
X2790556D01*
Y2529641D01*
X2791306D01*
Y2529491D01*
X2791456D01*
Y2529341D01*
X2792055D01*
Y2529191D01*
X2792206D01*
Y2529041D01*
X2793255D01*
Y2529191D01*
X2793405D01*
Y2529341D01*
X2793705D01*
Y2530090D01*
X2793855D01*
Y2532640D01*
X2793705D01*
Y2533090D01*
X2793405D01*
Y2533240D01*
X2793105D01*
Y2533389D01*
X2792356D01*
Y2533539D01*
X2791906D01*
Y2533690D01*
X2791156D01*
Y2533839D01*
X2790856D01*
Y2533989D01*
X2789956D01*
Y2534139D01*
X2789656D01*
Y2534289D01*
X2789056D01*
Y2534439D01*
X2788307D01*
Y2534589D01*
X2788157D01*
Y2534739D01*
X2787107D01*
Y2534889D01*
X2786957D01*
Y2535039D01*
X2786057D01*
Y2535189D01*
X2785907D01*
Y2535339D01*
X2785457D01*
Y2535489D01*
X2784708D01*
Y2535639D01*
X2784408D01*
Y2535789D01*
X2783508D01*
Y2535939D01*
X2783208D01*
Y2536089D01*
X2782158D01*
Y2536239D01*
X2781859D01*
Y2536389D01*
X2781708D01*
Y2536539D01*
X2781559D01*
Y2536689D01*
X2781708D01*
Y2536839D01*
X2781559D01*
Y2536989D01*
X2781408D01*
Y2543887D01*
X2781559D01*
Y2544487D01*
X2781408D01*
Y2546136D01*
X2781559D01*
Y2546586D01*
X2781408D01*
Y2553334D01*
X2781259D01*
Y2553484D01*
X2781408D01*
Y2565331D01*
X2781559D01*
Y2565481D01*
X2781708D01*
Y2565781D01*
X2781859D01*
Y2565930D01*
X2782308D01*
Y2566081D01*
X2782458D01*
Y2566230D01*
X2783058D01*
Y2566380D01*
X2783208D01*
Y2566530D01*
X2783658D01*
Y2566680D01*
X2783808D01*
Y2566830D01*
X2783958D01*
Y2566980D01*
X2784557D01*
Y2567280D01*
X2785157D01*
Y2567430D01*
X2785307D01*
Y2567580D01*
X2785757D01*
Y2567730D01*
X2785907D01*
Y2567880D01*
X2786057D01*
Y2568030D01*
X2786507D01*
Y2568180D01*
X2786657D01*
Y2568330D01*
X2786957D01*
Y2568480D01*
X2787107D01*
Y2568630D01*
X2787407D01*
Y2568780D01*
X2787707D01*
Y2568930D01*
X2788007D01*
Y2569080D01*
X2788456D01*
Y2569230D01*
X2788607D01*
Y2569380D01*
X2789056D01*
Y2569529D01*
X2789206D01*
Y2569680D01*
X2789356D01*
Y2569829D01*
X2789806D01*
Y2570129D01*
X2790406D01*
Y2570279D01*
X2790556D01*
Y2570429D01*
X2791156D01*
Y2570579D01*
X2791306D01*
Y2570729D01*
X2791456D01*
Y2570879D01*
X2791906D01*
Y2571179D01*
X2792206D01*
Y2571329D01*
X2792356D01*
Y2571479D01*
X2792805D01*
Y2571629D01*
X2793105D01*
Y2571779D01*
X2793405D01*
Y2571929D01*
X2794005D01*
Y2572079D01*
X2794155D01*
Y2572229D01*
X2794605D01*
Y2572379D01*
X2794755D01*
Y2572529D01*
X2794905D01*
Y2572679D01*
X2795055D01*
Y2572979D01*
X2795204D01*
Y2574178D01*
X2795055D01*
Y2574478D01*
X2794605D01*
Y2574628D01*
X2794455D01*
Y2574778D01*
X2793555D01*
Y2574928D01*
X2793255D01*
Y2575078D01*
X2792356D01*
Y2575228D01*
X2792206D01*
Y2575378D01*
X2791906D01*
Y2575528D01*
X2791156D01*
Y2575678D01*
X2790856D01*
Y2575828D01*
X2790106D01*
Y2575978D01*
X2789956D01*
Y2576128D01*
X2789206D01*
Y2576278D01*
X2788906D01*
Y2576428D01*
X2788607D01*
Y2576577D01*
X2787707D01*
Y2576728D01*
X2787557D01*
Y2576877D01*
X2785907D01*
Y2576577D01*
X2785607D01*
Y2576428D01*
X2785307D01*
Y2576278D01*
X2785157D01*
Y2576128D01*
X2784408D01*
Y2576278D01*
X2783958D01*
Y2576428D01*
X2783658D01*
Y2576577D01*
X2782758D01*
Y2576728D01*
X2782608D01*
Y2576877D01*
X2782158D01*
Y2577027D01*
X2782008D01*
Y2577327D01*
X2781859D01*
Y2577627D01*
X2781708D01*
Y2584525D01*
X2782158D01*
Y2584675D01*
X2782308D01*
Y2584825D01*
X2782908D01*
Y2584675D01*
D02*
G37*
G36*
X2780059Y2549135D02*
X2780209D01*
Y2548685D01*
X2780059D01*
Y2548535D01*
X2779609D01*
Y2548835D01*
X2779459D01*
Y2548985D01*
X2779609D01*
Y2549285D01*
X2779759D01*
Y2549435D01*
X2780059D01*
Y2549135D01*
D02*
G37*
G36*
X2788756Y2539838D02*
X2788607D01*
Y2539988D01*
X2788756D01*
Y2539838D01*
D02*
G37*
G36*
Y2523192D02*
X2788607D01*
Y2523342D01*
X2788756D01*
Y2523192D01*
D02*
G37*
G36*
X2827596Y2595922D02*
X2827896D01*
Y2595772D01*
X2828795D01*
Y2595622D01*
X2829245D01*
Y2595472D01*
X2829545D01*
Y2595622D01*
X2829845D01*
Y2595772D01*
X2831645D01*
Y2595922D01*
X2831794D01*
Y2595772D01*
X2831945D01*
Y2595322D01*
X2832094D01*
Y2595172D01*
X2832394D01*
Y2589924D01*
X2832244D01*
Y2589174D01*
X2832094D01*
Y2586475D01*
X2831945D01*
Y2580927D01*
X2831794D01*
Y2580027D01*
X2831645D01*
Y2575228D01*
X2831495D01*
Y2574628D01*
X2831345D01*
Y2569829D01*
X2831195D01*
Y2569080D01*
X2831045D01*
Y2568030D01*
X2830895D01*
Y2560982D01*
X2830745D01*
Y2560382D01*
X2830595D01*
Y2554234D01*
X2830445D01*
Y2552584D01*
X2830295D01*
Y2549585D01*
X2830145D01*
Y2548535D01*
X2829995D01*
Y2547786D01*
X2829845D01*
Y2544487D01*
X2829995D01*
Y2544037D01*
X2830295D01*
Y2544187D01*
X2830595D01*
Y2544487D01*
X2830745D01*
Y2544786D01*
X2830895D01*
Y2544936D01*
X2831045D01*
Y2545686D01*
X2831195D01*
Y2545836D01*
X2831345D01*
Y2546886D01*
X2831495D01*
Y2547336D01*
X2831645D01*
Y2547636D01*
X2831794D01*
Y2548385D01*
X2831945D01*
Y2548535D01*
X2832094D01*
Y2549135D01*
X2832244D01*
Y2549285D01*
X2832394D01*
Y2550035D01*
X2832544D01*
Y2550335D01*
X2832694D01*
Y2550635D01*
X2832844D01*
Y2551685D01*
X2832994D01*
Y2551834D01*
X2833144D01*
Y2552284D01*
X2833294D01*
Y2552434D01*
X2833444D01*
Y2552884D01*
X2833594D01*
Y2553334D01*
X2833744D01*
Y2553484D01*
X2833894D01*
Y2554384D01*
X2834194D01*
Y2555433D01*
X2834344D01*
Y2555583D01*
X2834494D01*
Y2556033D01*
X2834644D01*
Y2556483D01*
X2834794D01*
Y2556633D01*
X2834944D01*
Y2557233D01*
X2835094D01*
Y2557383D01*
X2835244D01*
Y2558133D01*
X2835544D01*
Y2558433D01*
X2835693D01*
Y2559482D01*
X2835844D01*
Y2559632D01*
X2835993D01*
Y2560532D01*
X2836143D01*
Y2560682D01*
X2836293D01*
Y2561282D01*
X2836593D01*
Y2561582D01*
X2836743D01*
Y2562032D01*
X2836893D01*
Y2562332D01*
X2837043D01*
Y2563081D01*
X2837193D01*
Y2563231D01*
X2837343D01*
Y2563981D01*
X2837493D01*
Y2564131D01*
X2837643D01*
Y2564431D01*
X2837793D01*
Y2565031D01*
X2837943D01*
Y2565181D01*
X2838093D01*
Y2566081D01*
X2838243D01*
Y2566230D01*
X2838393D01*
Y2567130D01*
X2838542D01*
Y2567430D01*
X2838693D01*
Y2567580D01*
X2838842D01*
Y2568330D01*
X2838993D01*
Y2568480D01*
X2839142D01*
Y2569080D01*
X2839292D01*
Y2569230D01*
X2839442D01*
Y2569829D01*
X2839592D01*
Y2570129D01*
X2839742D01*
Y2570279D01*
X2839892D01*
Y2571029D01*
X2840042D01*
Y2571179D01*
X2840192D01*
Y2571929D01*
X2840492D01*
Y2572529D01*
X2840642D01*
Y2572829D01*
X2840792D01*
Y2572979D01*
X2840942D01*
Y2573728D01*
X2841092D01*
Y2573878D01*
X2841242D01*
Y2574928D01*
X2841392D01*
Y2575078D01*
X2841542D01*
Y2575678D01*
X2841692D01*
Y2575978D01*
X2841842D01*
Y2576128D01*
X2841992D01*
Y2576877D01*
X2842142D01*
Y2577027D01*
X2842292D01*
Y2577777D01*
X2842442D01*
Y2577927D01*
X2842592D01*
Y2578377D01*
X2842741D01*
Y2579127D01*
X2842892D01*
Y2579277D01*
X2843041D01*
Y2580027D01*
X2843341D01*
Y2580776D01*
X2843491D01*
Y2580927D01*
X2843641D01*
Y2581226D01*
X2843791D01*
Y2581826D01*
X2843941D01*
Y2581976D01*
X2844091D01*
Y2583026D01*
X2844241D01*
Y2583176D01*
X2844391D01*
Y2583925D01*
X2844541D01*
Y2584076D01*
X2844691D01*
Y2584375D01*
X2844841D01*
Y2584975D01*
X2844991D01*
Y2585125D01*
X2845141D01*
Y2585875D01*
X2845291D01*
Y2586025D01*
X2845441D01*
Y2586775D01*
X2845591D01*
Y2586925D01*
X2845741D01*
Y2587225D01*
X2845891D01*
Y2587824D01*
X2846041D01*
Y2587975D01*
X2846190D01*
Y2588724D01*
X2846341D01*
Y2588874D01*
X2846490D01*
Y2589474D01*
X2846640D01*
Y2589774D01*
X2846790D01*
Y2589924D01*
X2846940D01*
Y2590974D01*
X2847090D01*
Y2591273D01*
X2847240D01*
Y2591873D01*
X2847540D01*
Y2592173D01*
X2848890D01*
Y2592023D01*
X2849190D01*
Y2591873D01*
X2849940D01*
Y2591723D01*
X2850239D01*
Y2591573D01*
X2851139D01*
Y2591423D01*
X2851289D01*
Y2591273D01*
X2851739D01*
Y2591123D01*
X2852189D01*
Y2590974D01*
X2852339D01*
Y2590824D01*
X2853089D01*
Y2590674D01*
X2853388D01*
Y2590524D01*
X2854138D01*
Y2590374D01*
X2854288D01*
Y2590224D01*
X2854588D01*
Y2590074D01*
X2855188D01*
Y2589924D01*
X2855338D01*
Y2589774D01*
X2855938D01*
Y2589624D01*
X2856088D01*
Y2589474D01*
X2856837D01*
Y2589324D01*
X2856988D01*
Y2589174D01*
X2857437D01*
Y2589024D01*
X2857737D01*
Y2588874D01*
X2857887D01*
Y2588724D01*
X2858637D01*
Y2588424D01*
X2859237D01*
Y2588274D01*
X2859387D01*
Y2588124D01*
X2859687D01*
Y2587975D01*
X2860137D01*
Y2587824D01*
X2860287D01*
Y2587675D01*
X2860887D01*
Y2587375D01*
X2861486D01*
Y2587225D01*
X2861636D01*
Y2587075D01*
X2861936D01*
Y2586925D01*
X2862386D01*
Y2586775D01*
X2862536D01*
Y2586625D01*
X2862986D01*
Y2586475D01*
X2863136D01*
Y2586325D01*
X2863586D01*
Y2586175D01*
X2863736D01*
Y2586025D01*
X2864036D01*
Y2585875D01*
X2864635D01*
Y2585725D01*
X2864785D01*
Y2585575D01*
X2865085D01*
Y2585725D01*
X2865235D01*
Y2585425D01*
X2865385D01*
Y2585275D01*
X2865685D01*
Y2584975D01*
X2865835D01*
Y2584825D01*
X2866135D01*
Y2583925D01*
X2865985D01*
Y2583776D01*
X2865835D01*
Y2583326D01*
X2865685D01*
Y2583176D01*
X2865535D01*
Y2583026D01*
X2865385D01*
Y2582576D01*
X2865235D01*
Y2582426D01*
X2865085D01*
Y2581826D01*
X2864935D01*
Y2581676D01*
X2864785D01*
Y2581076D01*
X2864635D01*
Y2580776D01*
X2864485D01*
Y2580627D01*
X2864336D01*
Y2580327D01*
X2864185D01*
Y2580177D01*
X2864036D01*
Y2579727D01*
X2863885D01*
Y2579577D01*
X2863736D01*
Y2579127D01*
X2863586D01*
Y2578977D01*
X2863436D01*
Y2578677D01*
X2863286D01*
Y2578227D01*
X2863136D01*
Y2578077D01*
X2862986D01*
Y2577627D01*
X2862836D01*
Y2577477D01*
X2862686D01*
Y2577027D01*
X2862536D01*
Y2576877D01*
X2862386D01*
Y2576577D01*
X2862236D01*
Y2575978D01*
X2862086D01*
Y2575828D01*
X2861936D01*
Y2575228D01*
X2861786D01*
Y2575078D01*
X2861636D01*
Y2574778D01*
X2861486D01*
Y2574478D01*
X2861336D01*
Y2574328D01*
X2861187D01*
Y2574028D01*
X2861036D01*
Y2573878D01*
X2860887D01*
Y2573279D01*
X2860736D01*
Y2573128D01*
X2860587D01*
Y2572829D01*
X2860437D01*
Y2572379D01*
X2860287D01*
Y2572229D01*
X2860137D01*
Y2571929D01*
X2859987D01*
Y2571779D01*
X2859837D01*
Y2571329D01*
X2859687D01*
Y2571179D01*
X2859537D01*
Y2570729D01*
X2859387D01*
Y2570279D01*
X2859237D01*
Y2570129D01*
X2859087D01*
Y2569529D01*
X2858937D01*
Y2569380D01*
X2858787D01*
Y2568930D01*
X2858637D01*
Y2568780D01*
X2858487D01*
Y2568630D01*
X2858337D01*
Y2568180D01*
X2858187D01*
Y2568030D01*
X2858037D01*
Y2567430D01*
X2857887D01*
Y2567280D01*
X2857737D01*
Y2566830D01*
X2857587D01*
Y2566680D01*
X2857437D01*
Y2566380D01*
X2857287D01*
Y2565930D01*
X2857137D01*
Y2565781D01*
X2856988D01*
Y2565331D01*
X2856837D01*
Y2565181D01*
X2856688D01*
Y2564581D01*
X2856537D01*
Y2564431D01*
X2856388D01*
Y2564131D01*
X2856238D01*
Y2563681D01*
X2856088D01*
Y2563531D01*
X2855938D01*
Y2563081D01*
X2855788D01*
Y2562931D01*
X2855638D01*
Y2562632D01*
X2855488D01*
Y2562332D01*
X2855338D01*
Y2562032D01*
X2855188D01*
Y2561732D01*
X2855038D01*
Y2561582D01*
X2854888D01*
Y2561132D01*
X2854738D01*
Y2560982D01*
X2854588D01*
Y2560532D01*
X2854438D01*
Y2560232D01*
X2854288D01*
Y2559932D01*
X2854138D01*
Y2559632D01*
X2853988D01*
Y2559332D01*
X2853839D01*
Y2558732D01*
X2853688D01*
Y2558583D01*
X2853539D01*
Y2558283D01*
X2853388D01*
Y2557983D01*
X2853239D01*
Y2557833D01*
X2853089D01*
Y2557383D01*
X2852939D01*
Y2557233D01*
X2852789D01*
Y2556783D01*
X2852639D01*
Y2556633D01*
X2852489D01*
Y2556183D01*
X2852339D01*
Y2555883D01*
X2852189D01*
Y2555733D01*
X2852039D01*
Y2555134D01*
X2851739D01*
Y2554534D01*
X2851589D01*
Y2554384D01*
X2851439D01*
Y2553934D01*
X2851289D01*
Y2553634D01*
X2851139D01*
Y2553484D01*
X2850989D01*
Y2553034D01*
X2850839D01*
Y2552884D01*
X2850689D01*
Y2552434D01*
X2850539D01*
Y2552284D01*
X2850389D01*
Y2551984D01*
X2850239D01*
Y2551534D01*
X2849940D01*
Y2550935D01*
X2849789D01*
Y2550785D01*
X2849640D01*
Y2550185D01*
X2849490D01*
Y2550035D01*
X2849340D01*
Y2549735D01*
X2849190D01*
Y2549285D01*
X2849040D01*
Y2549135D01*
X2848890D01*
Y2548685D01*
X2848740D01*
Y2548535D01*
X2848590D01*
Y2548085D01*
X2848440D01*
Y2547935D01*
X2848290D01*
Y2547636D01*
X2848140D01*
Y2547186D01*
X2847990D01*
Y2547036D01*
X2847840D01*
Y2546586D01*
X2847690D01*
Y2546286D01*
X2847540D01*
Y2545986D01*
X2847390D01*
Y2545686D01*
X2847240D01*
Y2545386D01*
X2847090D01*
Y2544936D01*
X2846940D01*
Y2544786D01*
X2846790D01*
Y2544337D01*
X2846640D01*
Y2544187D01*
X2846490D01*
Y2543587D01*
X2846341D01*
Y2543437D01*
X2846190D01*
Y2543137D01*
X2846041D01*
Y2542537D01*
X2845891D01*
Y2542387D01*
X2845741D01*
Y2542087D01*
X2845591D01*
Y2541937D01*
X2845441D01*
Y2541487D01*
X2845291D01*
Y2541187D01*
X2845141D01*
Y2540887D01*
X2844991D01*
Y2539988D01*
X2844841D01*
Y2539688D01*
X2845141D01*
Y2539838D01*
X2845441D01*
Y2539988D01*
X2845741D01*
Y2540288D01*
X2846041D01*
Y2540438D01*
X2846190D01*
Y2540737D01*
X2846341D01*
Y2540887D01*
X2846490D01*
Y2541037D01*
X2846640D01*
Y2541337D01*
X2846790D01*
Y2541487D01*
X2846940D01*
Y2541637D01*
X2847090D01*
Y2541787D01*
X2847240D01*
Y2541937D01*
X2847390D01*
Y2542087D01*
X2847540D01*
Y2542237D01*
X2847690D01*
Y2542387D01*
X2847840D01*
Y2542537D01*
X2847990D01*
Y2542837D01*
X2848140D01*
Y2542987D01*
X2848290D01*
Y2543287D01*
X2848440D01*
Y2543437D01*
X2848740D01*
Y2543587D01*
X2848890D01*
Y2543737D01*
X2849190D01*
Y2543887D01*
X2849340D01*
Y2544037D01*
X2849490D01*
Y2544187D01*
X2849640D01*
Y2544487D01*
X2849789D01*
Y2544636D01*
X2849940D01*
Y2544786D01*
X2850089D01*
Y2544936D01*
X2850239D01*
Y2545086D01*
X2850389D01*
Y2545236D01*
X2850539D01*
Y2545536D01*
X2850689D01*
Y2545686D01*
X2850839D01*
Y2545836D01*
X2850989D01*
Y2545986D01*
X2851139D01*
Y2546286D01*
X2851289D01*
Y2546436D01*
X2851439D01*
Y2546586D01*
X2851589D01*
Y2546736D01*
X2851739D01*
Y2546886D01*
X2851889D01*
Y2547186D01*
X2852039D01*
Y2547336D01*
X2852189D01*
Y2547636D01*
X2852489D01*
Y2547935D01*
X2852789D01*
Y2548085D01*
X2852939D01*
Y2548385D01*
X2853239D01*
Y2548685D01*
X2853539D01*
Y2548985D01*
X2853839D01*
Y2549135D01*
X2853988D01*
Y2549435D01*
X2854288D01*
Y2549735D01*
X2854588D01*
Y2550035D01*
X2854738D01*
Y2550185D01*
X2854888D01*
Y2550335D01*
X2855038D01*
Y2550485D01*
X2855188D01*
Y2550635D01*
X2855338D01*
Y2550935D01*
X2855488D01*
Y2551085D01*
X2855638D01*
Y2551235D01*
X2855788D01*
Y2551385D01*
X2855938D01*
Y2551534D01*
X2856088D01*
Y2551834D01*
X2856388D01*
Y2552134D01*
X2856537D01*
Y2552284D01*
X2856688D01*
Y2552434D01*
X2856837D01*
Y2552584D01*
X2856988D01*
Y2552734D01*
X2857137D01*
Y2552884D01*
X2857287D01*
Y2553034D01*
X2857437D01*
Y2553184D01*
X2857587D01*
Y2553334D01*
X2857737D01*
Y2553484D01*
X2857887D01*
Y2553634D01*
X2858037D01*
Y2553784D01*
X2858187D01*
Y2553934D01*
X2858337D01*
Y2554084D01*
X2858487D01*
Y2554384D01*
X2858637D01*
Y2554534D01*
X2858787D01*
Y2554684D01*
X2858937D01*
Y2554834D01*
X2859087D01*
Y2554984D01*
X2859237D01*
Y2555134D01*
X2859387D01*
Y2555284D01*
X2859537D01*
Y2555433D01*
X2859687D01*
Y2555583D01*
X2859837D01*
Y2555733D01*
X2859987D01*
Y2556033D01*
X2860287D01*
Y2556333D01*
X2860437D01*
Y2556483D01*
X2860587D01*
Y2556633D01*
X2860736D01*
Y2556783D01*
X2860887D01*
Y2556933D01*
X2861036D01*
Y2557083D01*
X2861187D01*
Y2557233D01*
X2861336D01*
Y2557383D01*
X2861486D01*
Y2557533D01*
X2861636D01*
Y2557833D01*
X2861936D01*
Y2557983D01*
X2862086D01*
Y2558133D01*
X2862236D01*
Y2558283D01*
X2862386D01*
Y2558583D01*
X2862536D01*
Y2558732D01*
X2862686D01*
Y2558882D01*
X2862836D01*
Y2559182D01*
X2862986D01*
Y2559332D01*
X2863136D01*
Y2559482D01*
X2863286D01*
Y2559632D01*
X2863436D01*
Y2559932D01*
X2863736D01*
Y2560232D01*
X2863885D01*
Y2560382D01*
X2864036D01*
Y2560532D01*
X2864185D01*
Y2560682D01*
X2864336D01*
Y2560832D01*
X2864485D01*
Y2560982D01*
X2864635D01*
Y2561132D01*
X2864785D01*
Y2561282D01*
X2864935D01*
Y2561432D01*
X2865085D01*
Y2561582D01*
X2865235D01*
Y2561882D01*
X2865385D01*
Y2562032D01*
X2865535D01*
Y2562182D01*
X2865685D01*
Y2562332D01*
X2865835D01*
Y2562481D01*
X2865985D01*
Y2562632D01*
X2866135D01*
Y2562781D01*
X2866285D01*
Y2563081D01*
X2866585D01*
Y2563381D01*
X2866885D01*
Y2563681D01*
X2867035D01*
Y2563831D01*
X2867335D01*
Y2564131D01*
X2867485D01*
Y2564281D01*
X2867635D01*
Y2564431D01*
X2867784D01*
Y2564581D01*
X2867935D01*
Y2564731D01*
X2868084D01*
Y2564881D01*
X2868234D01*
Y2565031D01*
X2868384D01*
Y2565181D01*
X2868534D01*
Y2565331D01*
X2868684D01*
Y2565630D01*
X2868984D01*
Y2565930D01*
X2869134D01*
Y2566081D01*
X2869284D01*
Y2566230D01*
X2869434D01*
Y2566530D01*
X2869584D01*
Y2566680D01*
X2869734D01*
Y2566830D01*
X2869884D01*
Y2566980D01*
X2870034D01*
Y2567130D01*
X2870184D01*
Y2567280D01*
X2870334D01*
Y2567430D01*
X2870484D01*
Y2567580D01*
X2870634D01*
Y2567730D01*
X2870784D01*
Y2568030D01*
X2871084D01*
Y2568180D01*
X2871234D01*
Y2568330D01*
X2871383D01*
Y2568480D01*
X2871534D01*
Y2568780D01*
X2871833D01*
Y2569080D01*
X2872133D01*
Y2569230D01*
X2872283D01*
Y2569380D01*
X2872433D01*
Y2569529D01*
X2872583D01*
Y2569829D01*
X2872883D01*
Y2570129D01*
X2873183D01*
Y2570429D01*
X2873333D01*
Y2570579D01*
X2873633D01*
Y2570879D01*
X2873783D01*
Y2571029D01*
X2873933D01*
Y2571179D01*
X2874083D01*
Y2571479D01*
X2874233D01*
Y2571629D01*
X2874383D01*
Y2571929D01*
X2874683D01*
Y2572229D01*
X2874983D01*
Y2572529D01*
X2875132D01*
Y2572679D01*
X2875432D01*
Y2572979D01*
X2875732D01*
Y2573279D01*
X2875882D01*
Y2573428D01*
X2876032D01*
Y2573578D01*
Y2573728D01*
X2876182D01*
Y2573878D01*
X2876332D01*
Y2574028D01*
X2876482D01*
Y2574328D01*
X2876782D01*
Y2574628D01*
X2876932D01*
Y2574778D01*
X2877082D01*
Y2574928D01*
X2877232D01*
Y2575078D01*
X2877382D01*
Y2575378D01*
X2877532D01*
Y2575528D01*
X2877682D01*
Y2575678D01*
X2877832D01*
Y2575828D01*
X2877982D01*
Y2575978D01*
X2878132D01*
Y2576128D01*
X2878582D01*
Y2576278D01*
X2878731D01*
Y2576128D01*
X2879331D01*
Y2575978D01*
X2879481D01*
Y2575828D01*
X2879631D01*
Y2575678D01*
X2879781D01*
Y2575528D01*
X2879931D01*
Y2575378D01*
X2880081D01*
Y2575228D01*
X2880231D01*
Y2575078D01*
X2880531D01*
Y2574778D01*
X2880831D01*
Y2574628D01*
X2880981D01*
Y2574478D01*
X2881131D01*
Y2574328D01*
X2881281D01*
Y2574178D01*
X2881431D01*
Y2574028D01*
X2881731D01*
Y2573878D01*
X2881880D01*
Y2573728D01*
X2882031D01*
Y2573578D01*
X2882331D01*
Y2573279D01*
X2882630D01*
Y2572979D01*
X2882930D01*
Y2572829D01*
X2883080D01*
Y2572679D01*
X2883230D01*
Y2572529D01*
X2883530D01*
Y2572379D01*
X2883680D01*
Y2572229D01*
X2883830D01*
Y2572379D01*
X2883980D01*
Y2572229D01*
X2884130D01*
Y2572079D01*
X2884280D01*
Y2571929D01*
X2884430D01*
Y2571779D01*
X2884580D01*
Y2571629D01*
X2884730D01*
Y2571479D01*
X2884880D01*
Y2571329D01*
X2885030D01*
Y2571179D01*
X2885180D01*
Y2571029D01*
X2885330D01*
Y2570879D01*
X2885480D01*
Y2570729D01*
X2885630D01*
Y2570579D01*
X2885779D01*
Y2570429D01*
X2885930D01*
Y2570279D01*
X2886079D01*
Y2570129D01*
X2886229D01*
Y2569979D01*
X2886379D01*
Y2569829D01*
X2886529D01*
Y2569680D01*
X2886679D01*
Y2569529D01*
X2886829D01*
Y2569380D01*
X2886979D01*
Y2569230D01*
X2887129D01*
Y2569080D01*
X2887279D01*
Y2568930D01*
X2887429D01*
Y2568780D01*
X2887579D01*
Y2568630D01*
X2887729D01*
Y2568480D01*
X2887879D01*
Y2568330D01*
X2888029D01*
Y2568180D01*
X2888179D01*
Y2568030D01*
X2888329D01*
Y2567880D01*
X2888479D01*
Y2567730D01*
X2888629D01*
Y2567580D01*
X2888779D01*
Y2567430D01*
X2888929D01*
Y2567280D01*
X2889079D01*
Y2567130D01*
X2889229D01*
Y2566980D01*
X2889378D01*
Y2566830D01*
X2889529D01*
Y2566680D01*
X2889678D01*
Y2566530D01*
X2889828D01*
Y2566380D01*
X2889978D01*
Y2566230D01*
X2890128D01*
Y2565930D01*
X2890428D01*
Y2565630D01*
X2890578D01*
Y2565481D01*
X2890728D01*
Y2565331D01*
X2890878D01*
Y2565181D01*
X2891028D01*
Y2565031D01*
X2891178D01*
Y2564731D01*
X2891328D01*
Y2564581D01*
X2891478D01*
Y2564431D01*
X2891628D01*
Y2564281D01*
X2891778D01*
Y2564131D01*
X2891928D01*
Y2563981D01*
X2892078D01*
Y2563831D01*
X2892228D01*
Y2563531D01*
X2892528D01*
Y2563231D01*
X2892678D01*
Y2563081D01*
X2892827D01*
Y2562781D01*
X2892978D01*
Y2562632D01*
X2892827D01*
Y2562481D01*
X2893127D01*
Y2562332D01*
X2893277D01*
Y2561582D01*
X2893127D01*
Y2561432D01*
X2892978D01*
Y2561132D01*
X2892827D01*
Y2560982D01*
X2892678D01*
Y2560832D01*
X2892528D01*
Y2560682D01*
X2892228D01*
Y2560382D01*
X2891928D01*
Y2560232D01*
X2891778D01*
Y2560082D01*
X2891628D01*
Y2559932D01*
X2891478D01*
Y2559782D01*
X2891178D01*
Y2559632D01*
X2891028D01*
Y2559482D01*
X2890878D01*
Y2559332D01*
X2890728D01*
Y2559182D01*
X2890578D01*
Y2559032D01*
X2890428D01*
Y2558882D01*
X2890278D01*
Y2558732D01*
X2890128D01*
Y2558583D01*
X2889978D01*
Y2558433D01*
X2889828D01*
Y2558283D01*
X2889529D01*
Y2558133D01*
X2889378D01*
Y2557983D01*
X2889229D01*
Y2557833D01*
X2889079D01*
Y2557683D01*
X2888929D01*
Y2557533D01*
X2888779D01*
Y2557383D01*
X2888629D01*
Y2557233D01*
X2888329D01*
Y2556933D01*
X2888029D01*
Y2556783D01*
X2887879D01*
Y2556633D01*
X2887729D01*
Y2556483D01*
X2887579D01*
Y2556333D01*
X2887429D01*
Y2556183D01*
X2887279D01*
Y2556033D01*
X2886979D01*
Y2555883D01*
X2886829D01*
Y2555733D01*
X2886679D01*
Y2555583D01*
X2886529D01*
Y2555433D01*
X2886379D01*
Y2555284D01*
X2886229D01*
Y2555134D01*
X2885930D01*
Y2554834D01*
X2885779D01*
Y2554684D01*
X2885480D01*
Y2554384D01*
X2885180D01*
Y2554084D01*
X2884880D01*
Y2553934D01*
X2884730D01*
Y2553784D01*
X2884580D01*
Y2553634D01*
X2884430D01*
Y2553484D01*
X2884280D01*
Y2553334D01*
X2884130D01*
Y2553184D01*
X2883980D01*
Y2553034D01*
X2883680D01*
Y2552884D01*
X2883530D01*
Y2552734D01*
X2883380D01*
Y2552584D01*
X2883230D01*
Y2552434D01*
X2883080D01*
Y2552284D01*
X2882780D01*
Y2552134D01*
X2882630D01*
Y2551984D01*
X2882480D01*
Y2551834D01*
X2882331D01*
Y2551685D01*
X2882180D01*
Y2551534D01*
X2882031D01*
Y2551385D01*
X2881880D01*
Y2551235D01*
X2881731D01*
Y2551085D01*
X2881581D01*
Y2550935D01*
X2881431D01*
Y2550785D01*
X2881281D01*
Y2550635D01*
X2881131D01*
Y2550485D01*
X2880981D01*
Y2550335D01*
X2880831D01*
Y2550185D01*
X2880681D01*
Y2550035D01*
X2880531D01*
Y2549885D01*
X2880381D01*
Y2549735D01*
X2880231D01*
Y2549585D01*
X2880081D01*
Y2549435D01*
X2879781D01*
Y2549135D01*
X2879481D01*
Y2548985D01*
X2879331D01*
Y2548835D01*
X2879182D01*
Y2548685D01*
X2879031D01*
Y2548535D01*
X2878882D01*
Y2548385D01*
X2878582D01*
Y2548235D01*
X2878432D01*
Y2548085D01*
X2878282D01*
Y2547935D01*
X2878132D01*
Y2547786D01*
X2877982D01*
Y2547636D01*
X2877832D01*
Y2547486D01*
X2877682D01*
Y2547336D01*
X2877532D01*
Y2547186D01*
X2877382D01*
Y2547036D01*
X2877232D01*
Y2546886D01*
X2877082D01*
Y2546736D01*
X2876932D01*
Y2546586D01*
X2876782D01*
Y2546436D01*
X2876632D01*
Y2546286D01*
X2876332D01*
Y2545986D01*
X2876032D01*
Y2545686D01*
X2875732D01*
Y2545536D01*
X2875582D01*
Y2545386D01*
X2875432D01*
Y2545236D01*
X2875282D01*
Y2545086D01*
X2874983D01*
Y2544936D01*
X2874832D01*
Y2544786D01*
X2874683D01*
Y2544636D01*
X2874533D01*
Y2544487D01*
X2874233D01*
Y2544187D01*
X2873933D01*
Y2544037D01*
X2873783D01*
Y2543887D01*
X2873633D01*
Y2543737D01*
X2873483D01*
Y2543587D01*
X2873333D01*
Y2543437D01*
X2873183D01*
Y2543287D01*
X2873033D01*
Y2543137D01*
X2872733D01*
Y2542987D01*
X2872583D01*
Y2542837D01*
X2872433D01*
Y2542687D01*
X2872283D01*
Y2542537D01*
X2872133D01*
Y2542387D01*
X2871833D01*
Y2542087D01*
X2871534D01*
Y2541937D01*
X2871383D01*
Y2541787D01*
X2871234D01*
Y2541637D01*
X2871084D01*
Y2541487D01*
X2870934D01*
Y2541337D01*
X2870784D01*
Y2541187D01*
X2870634D01*
Y2541037D01*
X2870484D01*
Y2540887D01*
X2870334D01*
Y2540737D01*
X2870184D01*
Y2540588D01*
X2870034D01*
Y2540438D01*
X2869884D01*
Y2540288D01*
X2869584D01*
Y2539988D01*
X2869284D01*
Y2539688D01*
X2868984D01*
Y2539538D01*
X2868834D01*
Y2539388D01*
X2868684D01*
Y2539238D01*
X2868384D01*
Y2539088D01*
X2868234D01*
Y2538938D01*
X2868084D01*
Y2538788D01*
X2867935D01*
Y2538638D01*
X2867784D01*
Y2538488D01*
X2867635D01*
Y2538338D01*
X2867485D01*
Y2538188D01*
X2867335D01*
Y2538038D01*
X2867185D01*
Y2537888D01*
X2866885D01*
Y2537588D01*
X2866735D01*
Y2537438D01*
X2866585D01*
Y2537289D01*
X2866435D01*
Y2537139D01*
X2866135D01*
Y2536839D01*
X2865835D01*
Y2536539D01*
X2865535D01*
Y2536389D01*
X2865385D01*
Y2536089D01*
X2865085D01*
Y2535789D01*
X2864785D01*
Y2535639D01*
X2864635D01*
Y2535489D01*
X2864485D01*
Y2535339D01*
X2864336D01*
Y2535189D01*
X2864185D01*
Y2535039D01*
X2864036D01*
Y2534889D01*
X2863885D01*
Y2534739D01*
X2863586D01*
Y2534589D01*
X2863436D01*
Y2534439D01*
X2863286D01*
Y2534289D01*
X2863136D01*
Y2534139D01*
X2862986D01*
Y2533989D01*
X2862836D01*
Y2533839D01*
X2862686D01*
Y2533690D01*
X2862386D01*
Y2533539D01*
X2862236D01*
Y2533389D01*
X2862086D01*
Y2533240D01*
X2861936D01*
Y2533090D01*
X2861786D01*
Y2532940D01*
X2861486D01*
Y2532640D01*
X2861187D01*
Y2532490D01*
X2861036D01*
Y2532340D01*
X2860736D01*
Y2532190D01*
X2860587D01*
Y2532040D01*
X2860437D01*
Y2531890D01*
X2860287D01*
Y2531740D01*
X2860137D01*
Y2531590D01*
X2859987D01*
Y2531440D01*
X2859837D01*
Y2531290D01*
X2859687D01*
Y2531140D01*
X2859537D01*
Y2530990D01*
X2859387D01*
Y2530840D01*
X2859237D01*
Y2530690D01*
X2859087D01*
Y2530540D01*
X2858937D01*
Y2530390D01*
X2858787D01*
Y2530240D01*
X2858637D01*
Y2530090D01*
X2858337D01*
Y2529790D01*
X2858037D01*
Y2529641D01*
X2857887D01*
Y2529491D01*
X2857737D01*
Y2529341D01*
X2857437D01*
Y2529191D01*
X2857287D01*
Y2529041D01*
X2857137D01*
Y2528891D01*
X2856988D01*
Y2528741D01*
X2856837D01*
Y2528591D01*
X2856688D01*
Y2528441D01*
X2856537D01*
Y2528291D01*
X2856388D01*
Y2528141D01*
X2856238D01*
Y2527841D01*
X2856088D01*
Y2527691D01*
X2855938D01*
Y2527541D01*
X2855788D01*
Y2527241D01*
X2855938D01*
Y2527091D01*
X2856388D01*
Y2527241D01*
X2857137D01*
Y2527391D01*
X2857287D01*
Y2527541D01*
X2857587D01*
Y2527691D01*
X2857887D01*
Y2527841D01*
X2858037D01*
Y2527991D01*
X2858337D01*
Y2528141D01*
X2858487D01*
Y2528291D01*
X2858937D01*
Y2528441D01*
X2859087D01*
Y2528591D01*
X2859387D01*
Y2528741D01*
X2859687D01*
Y2528891D01*
X2859837D01*
Y2529041D01*
X2860137D01*
Y2529191D01*
X2860287D01*
Y2529341D01*
X2860587D01*
Y2529491D01*
X2860887D01*
Y2529641D01*
X2861336D01*
Y2529790D01*
X2861636D01*
Y2529940D01*
X2861786D01*
Y2530090D01*
X2862086D01*
Y2530240D01*
X2862236D01*
Y2530390D01*
X2862686D01*
Y2530690D01*
X2863286D01*
Y2530840D01*
X2863436D01*
Y2530990D01*
X2863736D01*
Y2531140D01*
X2864485D01*
Y2531440D01*
X2865085D01*
Y2531590D01*
X2865235D01*
Y2531740D01*
X2865535D01*
Y2531890D01*
X2865835D01*
Y2532040D01*
X2865985D01*
Y2532190D01*
X2866435D01*
Y2532340D01*
X2866585D01*
Y2532490D01*
X2867185D01*
Y2532640D01*
X2867335D01*
Y2532790D01*
X2867784D01*
Y2532940D01*
X2867935D01*
Y2533090D01*
X2868084D01*
Y2533240D01*
X2868684D01*
Y2533539D01*
X2869434D01*
Y2533690D01*
X2869584D01*
Y2533839D01*
X2870034D01*
Y2533989D01*
X2870484D01*
Y2534289D01*
X2870934D01*
Y2534439D01*
X2871084D01*
Y2534589D01*
X2871383D01*
Y2534739D01*
X2871534D01*
Y2534889D01*
X2871983D01*
Y2535039D01*
X2872283D01*
Y2535189D01*
X2872433D01*
Y2535339D01*
X2873033D01*
Y2535489D01*
X2873183D01*
Y2535639D01*
X2873633D01*
Y2535789D01*
X2873783D01*
Y2535939D01*
X2874083D01*
Y2536089D01*
X2874383D01*
Y2536239D01*
X2874533D01*
Y2536389D01*
X2875282D01*
Y2536539D01*
X2875432D01*
Y2536689D01*
X2876032D01*
Y2536839D01*
X2876182D01*
Y2536989D01*
X2876482D01*
Y2537139D01*
X2876782D01*
Y2537438D01*
X2877382D01*
Y2537588D01*
X2877532D01*
Y2537738D01*
X2877982D01*
Y2537888D01*
X2878132D01*
Y2538038D01*
X2878432D01*
Y2538188D01*
X2878882D01*
Y2538338D01*
X2879031D01*
Y2538488D01*
X2879481D01*
Y2538638D01*
X2879631D01*
Y2538788D01*
X2880231D01*
Y2538938D01*
X2880381D01*
Y2539088D01*
X2880681D01*
Y2539238D01*
X2881131D01*
Y2539388D01*
X2881281D01*
Y2539538D01*
X2881731D01*
Y2539688D01*
X2881880D01*
Y2539838D01*
X2882331D01*
Y2539988D01*
X2882480D01*
Y2540138D01*
X2882630D01*
Y2540288D01*
X2883080D01*
Y2540438D01*
X2883230D01*
Y2540588D01*
X2883830D01*
Y2540737D01*
X2883980D01*
Y2540887D01*
X2884580D01*
Y2541037D01*
X2884880D01*
Y2541337D01*
X2885330D01*
Y2541487D01*
X2885480D01*
Y2541637D01*
X2886079D01*
Y2541787D01*
X2886229D01*
Y2541937D01*
X2886679D01*
Y2542087D01*
X2886979D01*
Y2542237D01*
X2887129D01*
Y2542387D01*
X2887729D01*
Y2542687D01*
X2888329D01*
Y2542987D01*
X2888929D01*
Y2543137D01*
X2889079D01*
Y2543287D01*
X2889229D01*
Y2543437D01*
X2889828D01*
Y2543737D01*
X2890428D01*
Y2543887D01*
X2890578D01*
Y2544037D01*
X2891028D01*
Y2544187D01*
X2891178D01*
Y2544337D01*
X2891328D01*
Y2544487D01*
X2891928D01*
Y2544786D01*
X2892528D01*
Y2544936D01*
X2892678D01*
Y2545086D01*
X2893127D01*
Y2545236D01*
X2893427D01*
Y2545536D01*
X2894027D01*
Y2545836D01*
X2894627D01*
Y2545986D01*
X2894777D01*
Y2546136D01*
X2895227D01*
Y2546286D01*
X2895527D01*
Y2546436D01*
X2895677D01*
Y2546586D01*
X2896127D01*
Y2546736D01*
X2896277D01*
Y2546886D01*
X2896726D01*
Y2547036D01*
X2896877D01*
Y2547186D01*
X2897326D01*
Y2547336D01*
X2897626D01*
Y2547486D01*
X2897776D01*
Y2547636D01*
X2898376D01*
Y2547786D01*
X2898526D01*
Y2547935D01*
X2899126D01*
Y2548085D01*
X2899276D01*
Y2548235D01*
X2899426D01*
Y2548385D01*
X2900026D01*
Y2548685D01*
X2900625D01*
Y2548835D01*
X2900775D01*
Y2548985D01*
X2901825D01*
Y2549135D01*
X2901975D01*
Y2548985D01*
X2902125D01*
Y2548835D01*
X2902275D01*
Y2548685D01*
X2902425D01*
Y2548235D01*
X2902575D01*
Y2548085D01*
X2902725D01*
Y2547486D01*
X2902875D01*
Y2547336D01*
X2903025D01*
Y2547186D01*
X2903175D01*
Y2546736D01*
X2903325D01*
Y2546586D01*
X2903475D01*
Y2545986D01*
X2903774D01*
Y2545386D01*
X2903925D01*
Y2545236D01*
X2904074D01*
Y2545086D01*
X2904225D01*
Y2544636D01*
X2904374D01*
Y2544487D01*
X2904524D01*
Y2543887D01*
X2904674D01*
Y2543737D01*
X2904824D01*
Y2543287D01*
X2904974D01*
Y2542987D01*
X2905124D01*
Y2542687D01*
X2905274D01*
Y2542237D01*
X2905424D01*
Y2542087D01*
X2905574D01*
Y2541487D01*
X2905724D01*
Y2541337D01*
X2905874D01*
Y2540737D01*
X2906024D01*
Y2540438D01*
X2906174D01*
Y2540288D01*
X2906324D01*
Y2539688D01*
X2906474D01*
Y2539538D01*
X2906624D01*
Y2538938D01*
X2906774D01*
Y2538638D01*
X2906924D01*
Y2538338D01*
X2907074D01*
Y2537888D01*
X2907224D01*
Y2537738D01*
X2907373D01*
Y2536989D01*
X2907224D01*
Y2536839D01*
X2907674D01*
Y2536089D01*
X2907823D01*
Y2535789D01*
X2907973D01*
Y2535189D01*
X2908123D01*
Y2534889D01*
X2908273D01*
Y2534589D01*
X2908423D01*
Y2533989D01*
X2908573D01*
Y2533690D01*
X2908723D01*
Y2533090D01*
X2908873D01*
Y2532790D01*
X2909023D01*
Y2532490D01*
X2909173D01*
Y2531890D01*
X2909323D01*
Y2531740D01*
X2909473D01*
Y2530840D01*
X2909323D01*
Y2530540D01*
X2909023D01*
Y2530390D01*
X2908873D01*
Y2530240D01*
X2908573D01*
Y2530090D01*
X2907973D01*
Y2529940D01*
X2907823D01*
Y2529790D01*
X2907074D01*
Y2529641D01*
X2906924D01*
Y2529491D01*
X2906324D01*
Y2529341D01*
X2906024D01*
Y2529191D01*
X2905724D01*
Y2529041D01*
X2904974D01*
Y2528891D01*
X2904824D01*
Y2528741D01*
X2904074D01*
Y2528591D01*
X2903925D01*
Y2528441D01*
X2903325D01*
Y2528291D01*
X2903025D01*
Y2528141D01*
X2902725D01*
Y2527991D01*
X2902125D01*
Y2527841D01*
X2901975D01*
Y2527691D01*
X2901225D01*
Y2527541D01*
X2901075D01*
Y2527391D01*
X2900475D01*
Y2527241D01*
X2900175D01*
Y2527091D01*
X2899875D01*
Y2526941D01*
X2899126D01*
Y2526791D01*
X2898976D01*
Y2526641D01*
X2898226D01*
Y2526492D01*
X2898076D01*
Y2526342D01*
X2897476D01*
Y2526192D01*
X2897177D01*
Y2526042D01*
X2896877D01*
Y2525892D01*
X2896277D01*
Y2525742D01*
X2896127D01*
Y2525592D01*
X2895377D01*
Y2525442D01*
X2895227D01*
Y2525292D01*
X2894627D01*
Y2525142D01*
X2894327D01*
Y2524992D01*
X2894027D01*
Y2524842D01*
X2893277D01*
Y2524692D01*
X2893127D01*
Y2524542D01*
X2892378D01*
Y2524392D01*
X2892228D01*
Y2524242D01*
X2891628D01*
Y2524092D01*
X2891328D01*
Y2523942D01*
X2891028D01*
Y2523792D01*
X2890428D01*
Y2523642D01*
X2890278D01*
Y2523492D01*
X2889529D01*
Y2523342D01*
X2889229D01*
Y2523192D01*
X2888779D01*
Y2523042D01*
X2888329D01*
Y2522892D01*
X2888179D01*
Y2522742D01*
X2887429D01*
Y2522592D01*
X2887279D01*
Y2522443D01*
X2886679D01*
Y2522293D01*
X2886379D01*
Y2522143D01*
X2886079D01*
Y2521993D01*
X2885480D01*
Y2521843D01*
X2885330D01*
Y2521693D01*
X2884580D01*
Y2521543D01*
X2884430D01*
Y2521393D01*
X2883680D01*
Y2521243D01*
X2883380D01*
Y2521093D01*
X2882930D01*
Y2520943D01*
X2882331D01*
Y2520793D01*
X2882180D01*
Y2520643D01*
X2881581D01*
Y2520493D01*
X2881431D01*
Y2520343D01*
X2880831D01*
Y2520193D01*
X2880531D01*
Y2520043D01*
X2880231D01*
Y2519893D01*
X2879631D01*
Y2519743D01*
X2879331D01*
Y2519593D01*
X2878582D01*
Y2519443D01*
X2878432D01*
Y2519294D01*
X2877682D01*
Y2519144D01*
X2877382D01*
Y2518994D01*
X2877082D01*
Y2518844D01*
X2876632D01*
Y2518694D01*
X2876332D01*
Y2518544D01*
X2875732D01*
Y2518394D01*
X2875582D01*
Y2518244D01*
X2874832D01*
Y2518094D01*
X2874533D01*
Y2517944D01*
X2874233D01*
Y2517794D01*
X2873483D01*
Y2517644D01*
X2873183D01*
Y2517494D01*
X2872583D01*
Y2517344D01*
X2872433D01*
Y2517194D01*
X2871983D01*
Y2517044D01*
X2871683D01*
Y2516894D01*
X2871383D01*
Y2516744D01*
X2870934D01*
Y2516594D01*
X2870784D01*
Y2516444D01*
X2870034D01*
Y2516294D01*
X2869734D01*
Y2516144D01*
X2868984D01*
Y2515994D01*
X2868684D01*
Y2515844D01*
X2868534D01*
Y2515694D01*
X2867784D01*
Y2515544D01*
X2867635D01*
Y2515394D01*
X2866885D01*
Y2515245D01*
X2866585D01*
Y2515095D01*
X2865835D01*
Y2514945D01*
X2865535D01*
Y2514795D01*
X2865235D01*
Y2514645D01*
X2864635D01*
Y2514495D01*
X2864485D01*
Y2514345D01*
X2863885D01*
Y2514195D01*
X2863586D01*
Y2514045D01*
X2863286D01*
Y2513895D01*
X2862986D01*
Y2513745D01*
X2862686D01*
Y2513595D01*
X2862086D01*
Y2513445D01*
X2861636D01*
Y2513295D01*
X2861336D01*
Y2513145D01*
X2860887D01*
Y2512695D01*
X2861036D01*
Y2512545D01*
X2863136D01*
Y2512695D01*
X2863586D01*
Y2512845D01*
X2865535D01*
Y2512995D01*
X2865835D01*
Y2513145D01*
X2867485D01*
Y2513295D01*
X2868384D01*
Y2513445D01*
X2871234D01*
Y2513295D01*
X2873933D01*
Y2513445D01*
X2875282D01*
Y2513595D01*
X2876782D01*
Y2513745D01*
X2877382D01*
Y2513895D01*
X2880831D01*
Y2514045D01*
X2881431D01*
Y2514195D01*
X2886379D01*
Y2514345D01*
X2887279D01*
Y2514495D01*
X2890428D01*
Y2514645D01*
X2894177D01*
Y2514795D01*
X2894627D01*
Y2514945D01*
X2900026D01*
Y2515095D01*
X2901375D01*
Y2515245D01*
X2903625D01*
Y2515394D01*
X2904225D01*
Y2515544D01*
X2905274D01*
Y2515694D01*
X2905874D01*
Y2515544D01*
X2908423D01*
Y2515694D01*
X2911422D01*
Y2515544D01*
X2911722D01*
Y2515394D01*
X2911872D01*
Y2515245D01*
X2912172D01*
Y2514795D01*
X2912622D01*
Y2498599D01*
X2912472D01*
Y2498899D01*
X2912322D01*
Y2498599D01*
X2912472D01*
Y2498449D01*
X2912322D01*
Y2498599D01*
X2912172D01*
Y2497100D01*
X2912322D01*
Y2497250D01*
X2912472D01*
Y2497100D01*
X2912622D01*
Y2496200D01*
X2912322D01*
Y2495750D01*
X2911872D01*
Y2495600D01*
X2912022D01*
Y2495450D01*
X2911722D01*
Y2495300D01*
X2909473D01*
Y2495450D01*
X2907674D01*
Y2495600D01*
X2906474D01*
Y2495750D01*
X2904225D01*
Y2495900D01*
X2903925D01*
Y2496200D01*
X2903475D01*
Y2496050D01*
X2898076D01*
Y2496200D01*
X2896726D01*
Y2496350D01*
X2892528D01*
Y2496500D01*
X2889828D01*
Y2496650D01*
X2888779D01*
Y2496800D01*
X2885180D01*
Y2496950D01*
X2883830D01*
Y2497100D01*
X2880381D01*
Y2497250D01*
X2879931D01*
Y2497399D01*
X2874983D01*
Y2497549D01*
X2873183D01*
Y2497699D01*
X2871383D01*
Y2497849D01*
X2868534D01*
Y2497999D01*
X2867784D01*
Y2498149D01*
X2864185D01*
Y2498299D01*
X2863136D01*
Y2498449D01*
X2863436D01*
Y2498599D01*
X2862536D01*
Y2498449D01*
X2862236D01*
Y2498299D01*
X2862086D01*
Y2498149D01*
X2861936D01*
Y2498299D01*
X2861786D01*
Y2497699D01*
X2861936D01*
Y2497549D01*
X2862086D01*
Y2497399D01*
X2862686D01*
Y2497250D01*
X2863286D01*
Y2497100D01*
X2863736D01*
Y2496950D01*
X2864185D01*
Y2496800D01*
X2864336D01*
Y2496650D01*
X2865235D01*
Y2496500D01*
X2865385D01*
Y2496350D01*
X2866285D01*
Y2496200D01*
X2866435D01*
Y2496050D01*
X2866885D01*
Y2495900D01*
X2867784D01*
Y2495750D01*
X2867935D01*
Y2495600D01*
X2868684D01*
Y2495450D01*
X2868834D01*
Y2495300D01*
X2869884D01*
Y2495150D01*
X2870184D01*
Y2495000D01*
X2870484D01*
Y2494850D01*
X2871084D01*
Y2494700D01*
X2871234D01*
Y2494550D01*
X2871833D01*
Y2494400D01*
X2871983D01*
Y2494250D01*
X2872433D01*
Y2494100D01*
X2872733D01*
Y2493951D01*
X2872883D01*
Y2493801D01*
X2873783D01*
Y2493651D01*
X2873933D01*
Y2493501D01*
X2874832D01*
Y2493351D01*
X2874983D01*
Y2493201D01*
X2875582D01*
Y2493051D01*
X2875882D01*
Y2492901D01*
X2876182D01*
Y2492751D01*
X2876632D01*
Y2492601D01*
X2876782D01*
Y2492451D01*
X2877532D01*
Y2492301D01*
X2877682D01*
Y2492151D01*
X2878282D01*
Y2492001D01*
X2878731D01*
Y2491851D01*
X2878882D01*
Y2491701D01*
X2879631D01*
Y2491551D01*
X2879781D01*
Y2491401D01*
X2880381D01*
Y2491251D01*
X2880531D01*
Y2491101D01*
X2881131D01*
Y2490951D01*
X2881431D01*
Y2490801D01*
X2881581D01*
Y2490651D01*
X2882480D01*
Y2490501D01*
X2882630D01*
Y2490352D01*
X2883530D01*
Y2490202D01*
X2883680D01*
Y2490052D01*
X2884130D01*
Y2489902D01*
X2884580D01*
Y2489752D01*
X2884730D01*
Y2489602D01*
X2885480D01*
Y2489452D01*
X2885630D01*
Y2489302D01*
X2886379D01*
Y2489152D01*
X2886529D01*
Y2489002D01*
X2886979D01*
Y2488852D01*
X2887429D01*
Y2488702D01*
X2887579D01*
Y2488552D01*
X2888329D01*
Y2488402D01*
X2888479D01*
Y2488252D01*
X2889229D01*
Y2488102D01*
X2889529D01*
Y2487952D01*
X2889828D01*
Y2487802D01*
X2890428D01*
Y2487652D01*
X2890578D01*
Y2487502D01*
X2891328D01*
Y2487352D01*
X2891478D01*
Y2487202D01*
X2892078D01*
Y2487052D01*
X2892228D01*
Y2486902D01*
X2892678D01*
Y2486752D01*
X2893277D01*
Y2486602D01*
X2893427D01*
Y2486453D01*
X2894327D01*
Y2486153D01*
X2895227D01*
Y2486003D01*
X2895377D01*
Y2485853D01*
X2895677D01*
Y2485703D01*
X2896127D01*
Y2485553D01*
X2896277D01*
Y2485403D01*
X2897026D01*
Y2485253D01*
X2897177D01*
Y2485103D01*
X2898076D01*
Y2484953D01*
X2898226D01*
Y2484803D01*
X2898526D01*
Y2484653D01*
X2899276D01*
Y2484503D01*
X2899426D01*
Y2484353D01*
X2900175D01*
Y2484053D01*
X2900925D01*
Y2483903D01*
X2901075D01*
Y2483753D01*
X2901375D01*
Y2483603D01*
X2901975D01*
Y2483453D01*
X2902125D01*
Y2483303D01*
X2903025D01*
Y2483004D01*
X2903625D01*
Y2482854D01*
X2903774D01*
Y2482704D01*
X2904074D01*
Y2482554D01*
X2904824D01*
Y2482404D01*
X2904974D01*
Y2482254D01*
X2905874D01*
Y2481954D01*
X2906774D01*
Y2481804D01*
X2907074D01*
Y2481654D01*
X2907224D01*
Y2481504D01*
X2907973D01*
Y2481354D01*
X2908123D01*
Y2481204D01*
X2908873D01*
Y2481054D01*
X2909023D01*
Y2480754D01*
X2909173D01*
Y2480904D01*
X2909323D01*
Y2480604D01*
X2909473D01*
Y2480304D01*
X2909323D01*
Y2480004D01*
X2909173D01*
Y2479554D01*
X2909023D01*
Y2479255D01*
X2908873D01*
Y2479105D01*
X2908723D01*
Y2478205D01*
X2908573D01*
Y2478055D01*
X2908423D01*
Y2477155D01*
X2908273D01*
Y2476855D01*
X2908123D01*
Y2476405D01*
X2907973D01*
Y2475956D01*
X2907823D01*
Y2475806D01*
X2907674D01*
Y2475056D01*
X2907523D01*
Y2474906D01*
X2907373D01*
Y2474006D01*
X2907224D01*
Y2473856D01*
X2907074D01*
Y2473406D01*
X2906924D01*
Y2472806D01*
X2906774D01*
Y2472656D01*
X2906624D01*
Y2471907D01*
X2906474D01*
Y2471757D01*
X2906324D01*
Y2471307D01*
X2906174D01*
Y2471157D01*
X2906024D01*
Y2470707D01*
X2905874D01*
Y2470257D01*
X2905724D01*
Y2470107D01*
X2905574D01*
Y2469657D01*
X2905424D01*
Y2469507D01*
X2905274D01*
Y2469057D01*
X2905124D01*
Y2468757D01*
X2904974D01*
Y2468457D01*
X2904824D01*
Y2468158D01*
X2904674D01*
Y2468008D01*
X2904524D01*
Y2467258D01*
X2904374D01*
Y2467108D01*
X2904225D01*
Y2466658D01*
X2904074D01*
Y2466508D01*
X2903925D01*
Y2466208D01*
X2903774D01*
Y2465908D01*
X2903625D01*
Y2465758D01*
X2903475D01*
Y2465308D01*
X2903325D01*
Y2465159D01*
X2903175D01*
Y2464709D01*
X2903025D01*
Y2464409D01*
X2902875D01*
Y2464259D01*
X2902725D01*
Y2463809D01*
X2902575D01*
Y2463659D01*
X2902425D01*
Y2463059D01*
X2902125D01*
Y2462759D01*
X2901975D01*
Y2462459D01*
X2901825D01*
Y2462309D01*
X2901675D01*
Y2462159D01*
X2901525D01*
Y2462009D01*
X2900175D01*
Y2462159D01*
X2900026D01*
Y2462309D01*
X2899576D01*
Y2462609D01*
X2899126D01*
Y2462759D01*
X2898976D01*
Y2462909D01*
X2898826D01*
Y2463059D01*
X2898226D01*
Y2463209D01*
X2898076D01*
Y2463359D01*
X2897626D01*
Y2463509D01*
X2897476D01*
Y2463659D01*
X2897026D01*
Y2463809D01*
X2896726D01*
Y2463959D01*
X2896427D01*
Y2464109D01*
X2895977D01*
Y2464259D01*
X2895827D01*
Y2464409D01*
X2895377D01*
Y2464559D01*
X2895227D01*
Y2464709D01*
X2894777D01*
Y2464859D01*
X2894627D01*
Y2465009D01*
X2894327D01*
Y2465159D01*
X2893877D01*
Y2465308D01*
X2893727D01*
Y2465458D01*
X2893277D01*
Y2465608D01*
X2892978D01*
Y2465758D01*
X2892678D01*
Y2465908D01*
X2892378D01*
Y2466058D01*
X2892078D01*
Y2466208D01*
X2891628D01*
Y2466358D01*
X2891478D01*
Y2466508D01*
X2890878D01*
Y2466658D01*
X2890728D01*
Y2466808D01*
X2890278D01*
Y2466958D01*
X2889978D01*
Y2467108D01*
X2889828D01*
Y2467258D01*
X2889378D01*
Y2467708D01*
X2889229D01*
Y2467558D01*
X2888779D01*
Y2467708D01*
X2888629D01*
Y2467858D01*
X2888329D01*
Y2468008D01*
X2888029D01*
Y2468308D01*
X2887879D01*
Y2468158D01*
X2887729D01*
Y2468308D01*
X2887279D01*
Y2468457D01*
X2887129D01*
Y2468757D01*
X2886979D01*
Y2468607D01*
X2886679D01*
Y2468757D01*
X2886529D01*
Y2469057D01*
X2886379D01*
Y2468907D01*
X2886079D01*
Y2469057D01*
X2885779D01*
Y2469207D01*
X2885480D01*
Y2469357D01*
X2885030D01*
Y2469507D01*
X2884880D01*
Y2469807D01*
X2884730D01*
Y2469657D01*
X2884280D01*
Y2469807D01*
X2884130D01*
Y2469957D01*
X2883980D01*
Y2470107D01*
X2883530D01*
Y2470257D01*
X2883380D01*
Y2470407D01*
X2882930D01*
Y2470557D01*
X2882630D01*
Y2470707D01*
X2882180D01*
Y2470857D01*
X2882031D01*
Y2471157D01*
X2881880D01*
Y2471007D01*
X2881581D01*
Y2471157D01*
X2881281D01*
Y2471307D01*
X2880981D01*
Y2471457D01*
X2880681D01*
Y2471607D01*
X2880531D01*
Y2471907D01*
X2880381D01*
Y2471757D01*
X2880081D01*
Y2471907D01*
X2879781D01*
Y2472056D01*
X2879481D01*
Y2472207D01*
X2879031D01*
Y2472357D01*
X2878882D01*
Y2472506D01*
X2878282D01*
Y2472656D01*
X2878132D01*
Y2472806D01*
X2877832D01*
Y2472956D01*
X2877532D01*
Y2473106D01*
X2877382D01*
Y2473256D01*
X2876932D01*
Y2473406D01*
X2876632D01*
Y2473556D01*
X2876032D01*
Y2473856D01*
X2875432D01*
Y2474006D01*
X2875282D01*
Y2474156D01*
X2874983D01*
Y2474306D01*
X2874533D01*
Y2474456D01*
X2874383D01*
Y2474606D01*
X2873783D01*
Y2474756D01*
X2873633D01*
Y2474906D01*
X2873333D01*
Y2475056D01*
X2872883D01*
Y2475206D01*
X2872733D01*
Y2475356D01*
X2872133D01*
Y2475656D01*
X2871534D01*
Y2475806D01*
X2871383D01*
Y2475956D01*
X2871084D01*
Y2476105D01*
X2870784D01*
Y2476255D01*
X2870634D01*
Y2476405D01*
X2870034D01*
Y2476705D01*
X2869434D01*
Y2476855D01*
X2869284D01*
Y2477005D01*
X2868834D01*
Y2477155D01*
X2868684D01*
Y2477305D01*
X2868534D01*
Y2477455D01*
X2867935D01*
Y2477605D01*
X2867784D01*
Y2477755D01*
X2867335D01*
Y2477905D01*
X2867185D01*
Y2478055D01*
X2866735D01*
Y2478205D01*
X2866285D01*
Y2478355D01*
X2866135D01*
Y2478505D01*
X2865535D01*
Y2478655D01*
X2865385D01*
Y2478805D01*
X2865085D01*
Y2478955D01*
X2864935D01*
Y2479105D01*
X2864635D01*
Y2479255D01*
X2864336D01*
Y2479404D01*
X2864185D01*
Y2479554D01*
X2863586D01*
Y2479704D01*
X2863286D01*
Y2479854D01*
X2862836D01*
Y2480004D01*
X2862686D01*
Y2480154D01*
X2862386D01*
Y2480304D01*
X2861936D01*
Y2480454D01*
X2861786D01*
Y2480604D01*
X2861336D01*
Y2480754D01*
X2861187D01*
Y2480904D01*
X2860587D01*
Y2481054D01*
X2860437D01*
Y2481204D01*
X2860137D01*
Y2481354D01*
X2859837D01*
Y2481504D01*
X2859537D01*
Y2481654D01*
X2859237D01*
Y2481804D01*
X2859087D01*
Y2482104D01*
X2858937D01*
Y2481954D01*
X2858637D01*
Y2482104D01*
X2858487D01*
Y2482404D01*
X2858337D01*
Y2482254D01*
X2858187D01*
Y2482404D01*
X2857587D01*
Y2482554D01*
X2857137D01*
Y2482704D01*
X2856537D01*
Y2482404D01*
X2856688D01*
Y2482254D01*
X2856537D01*
Y2482404D01*
X2856388D01*
Y2482554D01*
X2856238D01*
Y2482704D01*
X2856088D01*
Y2482404D01*
X2856238D01*
Y2482254D01*
X2856388D01*
Y2482104D01*
X2856537D01*
Y2481954D01*
X2856688D01*
Y2481804D01*
X2856837D01*
Y2481654D01*
X2856988D01*
Y2481504D01*
X2857287D01*
Y2481204D01*
X2857587D01*
Y2480904D01*
X2857887D01*
Y2480754D01*
X2858037D01*
Y2480604D01*
X2858187D01*
Y2480454D01*
X2858337D01*
Y2480304D01*
X2858487D01*
Y2480154D01*
X2858637D01*
Y2480004D01*
X2858787D01*
Y2479854D01*
X2859087D01*
Y2479704D01*
X2859237D01*
Y2479554D01*
X2859387D01*
Y2479404D01*
X2859687D01*
Y2479255D01*
X2859837D01*
Y2479105D01*
X2860137D01*
Y2478805D01*
X2860437D01*
Y2478655D01*
X2860587D01*
Y2478505D01*
X2860736D01*
Y2478355D01*
X2860887D01*
Y2478205D01*
X2861036D01*
Y2478055D01*
X2861486D01*
Y2477755D01*
X2861636D01*
Y2477605D01*
X2861786D01*
Y2477455D01*
X2861936D01*
Y2477305D01*
X2862086D01*
Y2477455D01*
X2862236D01*
Y2477305D01*
X2862386D01*
Y2477155D01*
X2862236D01*
Y2477005D01*
X2862536D01*
Y2476705D01*
X2862836D01*
Y2476555D01*
X2862986D01*
Y2476255D01*
X2863286D01*
Y2476105D01*
X2863436D01*
Y2475956D01*
X2863586D01*
Y2475806D01*
X2863736D01*
Y2475656D01*
X2864036D01*
Y2475506D01*
X2864185D01*
Y2475356D01*
X2864336D01*
Y2475206D01*
X2864485D01*
Y2475356D01*
X2864635D01*
Y2475206D01*
X2864785D01*
Y2475056D01*
X2864935D01*
Y2474906D01*
X2865085D01*
Y2474606D01*
X2865235D01*
Y2474456D01*
X2865385D01*
Y2474156D01*
X2865685D01*
Y2474006D01*
X2865835D01*
Y2473856D01*
X2865985D01*
Y2473706D01*
X2866135D01*
Y2473556D01*
X2866285D01*
Y2473406D01*
X2866435D01*
Y2473256D01*
X2866585D01*
Y2473106D01*
X2866885D01*
Y2472806D01*
X2867185D01*
Y2472506D01*
X2867485D01*
Y2472357D01*
X2867635D01*
Y2472207D01*
X2867784D01*
Y2472056D01*
X2867935D01*
Y2471907D01*
X2868084D01*
Y2471757D01*
X2868234D01*
Y2471607D01*
X2868534D01*
Y2471307D01*
X2868834D01*
Y2471157D01*
X2868984D01*
Y2471007D01*
X2869134D01*
Y2470857D01*
X2869284D01*
Y2470707D01*
X2869434D01*
Y2470557D01*
X2869584D01*
Y2470407D01*
X2869734D01*
Y2470257D01*
X2869884D01*
Y2470107D01*
X2870034D01*
Y2469957D01*
X2870334D01*
Y2469657D01*
X2870634D01*
Y2469357D01*
X2870934D01*
Y2469207D01*
X2871084D01*
Y2469057D01*
X2871234D01*
Y2468907D01*
X2871383D01*
Y2468757D01*
X2871534D01*
Y2468607D01*
X2871833D01*
Y2468457D01*
X2871983D01*
Y2468308D01*
X2872133D01*
Y2468158D01*
X2872433D01*
Y2467858D01*
X2872733D01*
Y2467558D01*
X2873033D01*
Y2467408D01*
X2873183D01*
Y2467108D01*
X2873483D01*
Y2466808D01*
X2873783D01*
Y2466658D01*
X2873933D01*
Y2466508D01*
X2874083D01*
Y2466358D01*
X2874383D01*
Y2466208D01*
X2874533D01*
Y2466058D01*
X2874683D01*
Y2466208D01*
X2874832D01*
Y2466058D01*
X2874983D01*
Y2465908D01*
X2874832D01*
Y2465758D01*
X2875132D01*
Y2465608D01*
X2875282D01*
Y2465458D01*
X2875432D01*
Y2465308D01*
X2875582D01*
Y2465159D01*
X2875732D01*
Y2465009D01*
X2875882D01*
Y2464859D01*
X2876032D01*
Y2464709D01*
X2876182D01*
Y2464559D01*
X2876332D01*
Y2464409D01*
X2876482D01*
Y2464259D01*
X2876632D01*
Y2464109D01*
X2876782D01*
Y2463959D01*
X2877082D01*
Y2463809D01*
X2877232D01*
Y2463659D01*
X2877382D01*
Y2463809D01*
X2877532D01*
Y2463659D01*
X2877682D01*
Y2463509D01*
X2877832D01*
Y2463209D01*
X2877982D01*
Y2463059D01*
X2878132D01*
Y2462909D01*
X2878432D01*
Y2462609D01*
X2878882D01*
Y2462459D01*
X2878731D01*
Y2462309D01*
X2878882D01*
Y2462159D01*
X2879031D01*
Y2462309D01*
X2879182D01*
Y2461859D01*
X2879481D01*
Y2461559D01*
X2879781D01*
Y2461409D01*
X2879931D01*
Y2461259D01*
X2880081D01*
Y2461110D01*
X2880231D01*
Y2460960D01*
X2880381D01*
Y2460810D01*
X2880531D01*
Y2460660D01*
X2880681D01*
Y2460510D01*
X2880831D01*
Y2460360D01*
X2880981D01*
Y2460210D01*
X2881281D01*
Y2460060D01*
X2881431D01*
Y2459910D01*
X2881581D01*
Y2459760D01*
X2881731D01*
Y2459910D01*
X2881880D01*
Y2459760D01*
X2882031D01*
Y2459610D01*
X2881880D01*
Y2459460D01*
X2882180D01*
Y2459310D01*
X2882331D01*
Y2459010D01*
X2882630D01*
Y2458710D01*
X2882930D01*
Y2458560D01*
X2883080D01*
Y2458410D01*
X2883230D01*
Y2458260D01*
X2883380D01*
Y2458110D01*
X2883530D01*
Y2457961D01*
X2883680D01*
Y2457811D01*
X2883830D01*
Y2457661D01*
X2883980D01*
Y2457511D01*
X2884130D01*
Y2457361D01*
X2884280D01*
Y2457211D01*
X2884430D01*
Y2457061D01*
X2884730D01*
Y2456911D01*
X2884880D01*
Y2456761D01*
X2885030D01*
Y2456611D01*
X2885330D01*
Y2456461D01*
X2885480D01*
Y2456311D01*
X2885630D01*
Y2456161D01*
X2885779D01*
Y2456011D01*
X2885930D01*
Y2455861D01*
X2886079D01*
Y2455711D01*
X2886229D01*
Y2455561D01*
X2886529D01*
Y2455261D01*
X2886829D01*
Y2455111D01*
X2886979D01*
Y2454961D01*
X2887129D01*
Y2454811D01*
X2887279D01*
Y2454661D01*
X2887429D01*
Y2454511D01*
X2887579D01*
Y2454661D01*
X2887429D01*
Y2454811D01*
X2887279D01*
Y2454961D01*
X2887429D01*
Y2454811D01*
X2887579D01*
Y2454661D01*
X2887729D01*
Y2454511D01*
X2887879D01*
Y2454211D01*
X2888029D01*
Y2454061D01*
X2888179D01*
Y2453912D01*
X2888329D01*
Y2453762D01*
X2888479D01*
Y2453912D01*
X2888629D01*
Y2453762D01*
X2888779D01*
Y2453612D01*
X2888929D01*
Y2453462D01*
X2889079D01*
Y2453162D01*
X2889229D01*
Y2453012D01*
X2889378D01*
Y2453162D01*
X2889529D01*
Y2453012D01*
X2889678D01*
Y2452862D01*
X2889978D01*
Y2452712D01*
X2890128D01*
Y2452562D01*
X2890278D01*
Y2452412D01*
X2890428D01*
Y2452262D01*
X2890578D01*
Y2452112D01*
X2890728D01*
Y2451962D01*
X2890878D01*
Y2451812D01*
X2891028D01*
Y2451662D01*
X2891178D01*
Y2451512D01*
X2891478D01*
Y2451362D01*
X2891778D01*
Y2451062D01*
X2892078D01*
Y2450912D01*
X2892228D01*
Y2450762D01*
X2892378D01*
Y2450612D01*
X2892528D01*
Y2450462D01*
X2892678D01*
Y2450313D01*
X2892827D01*
Y2450013D01*
X2892978D01*
Y2449863D01*
X2892827D01*
Y2449563D01*
X2893127D01*
Y2448963D01*
X2892978D01*
Y2448663D01*
X2892827D01*
Y2448513D01*
X2892678D01*
Y2448363D01*
X2892528D01*
Y2448213D01*
X2892378D01*
Y2448063D01*
X2892228D01*
Y2447913D01*
X2892078D01*
Y2447763D01*
X2891928D01*
Y2447613D01*
X2891778D01*
Y2447463D01*
X2891628D01*
Y2447164D01*
X2891478D01*
Y2447014D01*
X2891328D01*
Y2446864D01*
X2891178D01*
Y2446714D01*
X2891028D01*
Y2446564D01*
X2890878D01*
Y2446414D01*
X2890728D01*
Y2446114D01*
X2890428D01*
Y2445814D01*
X2890128D01*
Y2445514D01*
X2889978D01*
Y2445364D01*
X2889828D01*
Y2445214D01*
X2889678D01*
Y2445064D01*
X2889378D01*
Y2444764D01*
X2889079D01*
Y2444464D01*
X2888929D01*
Y2444314D01*
X2888629D01*
Y2444014D01*
X2888329D01*
Y2443714D01*
X2888179D01*
Y2443564D01*
X2888029D01*
Y2443414D01*
X2887879D01*
Y2443264D01*
X2887729D01*
Y2443115D01*
X2887579D01*
Y2442965D01*
X2887429D01*
Y2442815D01*
X2887279D01*
Y2442515D01*
X2886979D01*
Y2442365D01*
X2886829D01*
Y2442215D01*
X2886679D01*
Y2442065D01*
X2886529D01*
Y2441915D01*
X2886379D01*
Y2441765D01*
X2886229D01*
Y2441615D01*
X2886079D01*
Y2441465D01*
X2885930D01*
Y2441315D01*
X2885779D01*
Y2441165D01*
X2885480D01*
Y2440865D01*
X2885180D01*
Y2440565D01*
X2884880D01*
Y2440265D01*
X2884730D01*
Y2440115D01*
X2884430D01*
Y2439816D01*
X2884130D01*
Y2439516D01*
X2883830D01*
Y2439366D01*
X2883680D01*
Y2439216D01*
X2883530D01*
Y2439066D01*
X2883380D01*
Y2438916D01*
X2883230D01*
Y2438766D01*
X2883080D01*
Y2438616D01*
X2882930D01*
Y2438466D01*
X2882780D01*
Y2438316D01*
X2882480D01*
Y2438166D01*
X2882331D01*
Y2438016D01*
X2882180D01*
Y2437866D01*
X2882031D01*
Y2437716D01*
X2881731D01*
Y2437416D01*
X2881431D01*
Y2437266D01*
X2881281D01*
Y2437116D01*
X2881131D01*
Y2436966D01*
X2880981D01*
Y2436816D01*
X2880831D01*
Y2436666D01*
X2880681D01*
Y2436516D01*
X2880531D01*
Y2436366D01*
X2880381D01*
Y2436216D01*
X2880231D01*
Y2436066D01*
X2880081D01*
Y2435917D01*
X2879781D01*
Y2435767D01*
X2879631D01*
Y2435617D01*
X2879031D01*
Y2435467D01*
X2878582D01*
Y2435767D01*
X2878282D01*
Y2435617D01*
X2878132D01*
Y2435767D01*
X2877982D01*
Y2435917D01*
X2877832D01*
Y2436366D01*
X2877382D01*
Y2436516D01*
X2877532D01*
Y2436666D01*
X2877232D01*
Y2436816D01*
X2877082D01*
Y2436966D01*
X2877232D01*
Y2436816D01*
X2877382D01*
Y2436966D01*
X2877232D01*
Y2437116D01*
X2877082D01*
Y2437416D01*
X2876782D01*
Y2437716D01*
X2876632D01*
Y2437866D01*
X2876482D01*
Y2438016D01*
X2876332D01*
Y2438166D01*
X2876182D01*
Y2438316D01*
X2876032D01*
Y2438466D01*
X2875882D01*
Y2438616D01*
X2875732D01*
Y2438766D01*
X2875582D01*
Y2438916D01*
X2875432D01*
Y2439066D01*
X2875282D01*
Y2439216D01*
X2875132D01*
Y2439366D01*
X2874983D01*
Y2439516D01*
X2874832D01*
Y2439666D01*
X2874533D01*
Y2439816D01*
X2874383D01*
Y2439966D01*
X2874233D01*
Y2440115D01*
X2874083D01*
Y2440265D01*
X2873933D01*
Y2440415D01*
X2874083D01*
Y2440265D01*
X2874233D01*
Y2440115D01*
X2874383D01*
Y2440265D01*
X2874233D01*
Y2440415D01*
X2874083D01*
Y2440565D01*
X2873933D01*
Y2440715D01*
X2873783D01*
Y2440865D01*
X2873633D01*
Y2441165D01*
X2873483D01*
Y2441315D01*
X2873333D01*
Y2441465D01*
X2873183D01*
Y2441615D01*
X2873033D01*
Y2441765D01*
X2872883D01*
Y2441915D01*
X2872733D01*
Y2442065D01*
X2872583D01*
Y2442215D01*
X2872433D01*
Y2442365D01*
X2872283D01*
Y2442515D01*
X2872133D01*
Y2442665D01*
X2871833D01*
Y2442815D01*
X2871683D01*
Y2442965D01*
X2871534D01*
Y2443115D01*
X2871383D01*
Y2443264D01*
X2871534D01*
Y2443414D01*
X2871383D01*
Y2443564D01*
X2871234D01*
Y2443864D01*
X2871084D01*
Y2444014D01*
X2870934D01*
Y2444164D01*
X2870784D01*
Y2444314D01*
X2870634D01*
Y2444464D01*
X2870484D01*
Y2444614D01*
X2870334D01*
Y2444764D01*
X2870184D01*
Y2444914D01*
X2870034D01*
Y2445064D01*
X2869884D01*
Y2445214D01*
X2869734D01*
Y2445514D01*
X2869434D01*
Y2445814D01*
X2868984D01*
Y2445964D01*
X2868834D01*
Y2446114D01*
X2868684D01*
Y2446264D01*
X2868534D01*
Y2446414D01*
X2868384D01*
Y2446564D01*
X2868234D01*
Y2446714D01*
X2868384D01*
Y2446864D01*
X2867935D01*
Y2447313D01*
X2867635D01*
Y2447463D01*
X2867485D01*
Y2447613D01*
X2867335D01*
Y2447763D01*
X2867185D01*
Y2447913D01*
X2867035D01*
Y2448063D01*
X2866885D01*
Y2448213D01*
X2867035D01*
Y2448363D01*
X2866885D01*
Y2448513D01*
X2866735D01*
Y2448663D01*
X2866585D01*
Y2448963D01*
X2866435D01*
Y2449113D01*
X2866285D01*
Y2449263D01*
X2866135D01*
Y2449413D01*
X2865985D01*
Y2449563D01*
X2865835D01*
Y2449713D01*
X2865685D01*
Y2449863D01*
X2865535D01*
Y2450163D01*
X2865385D01*
Y2450313D01*
X2865235D01*
Y2450462D01*
X2865085D01*
Y2450762D01*
X2864935D01*
Y2450912D01*
X2864785D01*
Y2451062D01*
X2864635D01*
Y2451212D01*
X2864485D01*
Y2451362D01*
X2864336D01*
Y2451512D01*
X2864185D01*
Y2451662D01*
X2864036D01*
Y2451812D01*
X2863885D01*
Y2451962D01*
X2863736D01*
Y2452112D01*
X2863586D01*
Y2452262D01*
X2863436D01*
Y2452562D01*
X2863136D01*
Y2452862D01*
X2862986D01*
Y2453012D01*
X2862686D01*
Y2453312D01*
X2862536D01*
Y2453462D01*
X2862386D01*
Y2453762D01*
X2862236D01*
Y2453912D01*
X2862086D01*
Y2454061D01*
X2861936D01*
Y2454211D01*
X2861786D01*
Y2454362D01*
X2861636D01*
Y2454511D01*
X2861486D01*
Y2454661D01*
X2861336D01*
Y2454811D01*
X2861187D01*
Y2454961D01*
X2861036D01*
Y2455111D01*
X2860887D01*
Y2455261D01*
X2860736D01*
Y2455411D01*
X2860587D01*
Y2455711D01*
X2860287D01*
Y2456011D01*
X2859987D01*
Y2456311D01*
X2859837D01*
Y2456461D01*
X2859687D01*
Y2456311D01*
X2859537D01*
Y2456761D01*
X2859387D01*
Y2456911D01*
X2859237D01*
Y2457061D01*
X2859087D01*
Y2457211D01*
X2858937D01*
Y2457511D01*
X2858787D01*
Y2457661D01*
X2858637D01*
Y2457811D01*
X2858487D01*
Y2458110D01*
X2858187D01*
Y2458410D01*
X2858037D01*
Y2458560D01*
X2857737D01*
Y2458860D01*
X2857437D01*
Y2459160D01*
X2857137D01*
Y2459460D01*
X2856988D01*
Y2459610D01*
X2856837D01*
Y2459460D01*
X2856688D01*
Y2459910D01*
X2856238D01*
Y2460060D01*
X2856388D01*
Y2460210D01*
X2856238D01*
Y2460360D01*
X2856088D01*
Y2460510D01*
X2855938D01*
Y2460660D01*
X2855788D01*
Y2460510D01*
X2855638D01*
Y2460960D01*
X2855338D01*
Y2461110D01*
X2855188D01*
Y2461259D01*
X2855038D01*
Y2461409D01*
X2854888D01*
Y2461559D01*
X2854738D01*
Y2461709D01*
X2854588D01*
Y2461859D01*
X2854738D01*
Y2462009D01*
X2854588D01*
Y2462309D01*
X2854288D01*
Y2462609D01*
X2854138D01*
Y2462759D01*
X2853988D01*
Y2462909D01*
X2853839D01*
Y2463059D01*
X2853688D01*
Y2463209D01*
X2853539D01*
Y2463359D01*
X2853388D01*
Y2463509D01*
X2853239D01*
Y2463809D01*
X2852939D01*
Y2463959D01*
X2852639D01*
Y2464109D01*
X2852489D01*
Y2464259D01*
X2852339D01*
Y2464409D01*
X2852189D01*
Y2464559D01*
X2852039D01*
Y2464709D01*
X2852189D01*
Y2464559D01*
X2852339D01*
Y2464409D01*
X2852489D01*
Y2464559D01*
X2852339D01*
Y2464709D01*
X2852189D01*
Y2464859D01*
X2852039D01*
Y2465159D01*
X2851739D01*
Y2465458D01*
X2851289D01*
Y2465608D01*
X2851139D01*
Y2465758D01*
X2850989D01*
Y2465908D01*
X2851139D01*
Y2465758D01*
X2851289D01*
Y2465608D01*
X2851439D01*
Y2465758D01*
X2851289D01*
Y2465908D01*
X2851139D01*
Y2466058D01*
X2850989D01*
Y2466208D01*
X2850839D01*
Y2466358D01*
X2850689D01*
Y2466658D01*
X2850389D01*
Y2466958D01*
X2849940D01*
Y2467108D01*
X2849789D01*
Y2467258D01*
X2849640D01*
Y2467708D01*
X2849490D01*
Y2467558D01*
X2849340D01*
Y2468158D01*
X2849190D01*
Y2468308D01*
X2849040D01*
Y2468607D01*
X2848890D01*
Y2468757D01*
X2848590D01*
Y2469057D01*
X2848290D01*
Y2469357D01*
X2847990D01*
Y2469657D01*
X2847840D01*
Y2469807D01*
X2847540D01*
Y2470107D01*
X2847090D01*
Y2470257D01*
X2847240D01*
Y2470407D01*
X2847090D01*
Y2470557D01*
X2846940D01*
Y2470407D01*
X2846790D01*
Y2470557D01*
X2846640D01*
Y2470707D01*
X2846490D01*
Y2470857D01*
X2846341D01*
Y2471007D01*
X2846190D01*
Y2471157D01*
X2846041D01*
Y2471307D01*
X2845891D01*
Y2471457D01*
X2845741D01*
Y2471607D01*
X2845591D01*
Y2471757D01*
X2845441D01*
Y2471907D01*
X2845291D01*
Y2472056D01*
X2845141D01*
Y2472207D01*
X2844991D01*
Y2472357D01*
X2844841D01*
Y2471757D01*
X2844991D01*
Y2471307D01*
X2845141D01*
Y2470857D01*
X2845291D01*
Y2470407D01*
X2845441D01*
Y2470257D01*
X2845291D01*
Y2469807D01*
X2845441D01*
Y2469657D01*
X2845591D01*
Y2469357D01*
X2845741D01*
Y2469057D01*
X2845891D01*
Y2468907D01*
X2846041D01*
Y2468457D01*
X2846190D01*
Y2468308D01*
X2846341D01*
Y2467858D01*
X2846490D01*
Y2468008D01*
X2846640D01*
Y2467858D01*
X2846790D01*
Y2467558D01*
X2846940D01*
Y2467408D01*
X2846790D01*
Y2467258D01*
X2847090D01*
Y2466958D01*
X2847240D01*
Y2466808D01*
X2847390D01*
Y2466508D01*
X2847540D01*
Y2466208D01*
X2847390D01*
Y2465908D01*
X2847540D01*
Y2466058D01*
X2847690D01*
Y2465908D01*
X2847840D01*
Y2465458D01*
X2847990D01*
Y2465308D01*
X2848140D01*
Y2464859D01*
X2848290D01*
Y2464709D01*
X2848440D01*
Y2464559D01*
X2848590D01*
Y2464109D01*
X2848740D01*
Y2463959D01*
X2848890D01*
Y2463359D01*
X2849040D01*
Y2463209D01*
X2849190D01*
Y2462759D01*
X2849340D01*
Y2462609D01*
X2849490D01*
Y2462459D01*
X2849640D01*
Y2462009D01*
X2849789D01*
Y2461859D01*
X2849940D01*
Y2461259D01*
X2850089D01*
Y2461110D01*
X2850239D01*
Y2460660D01*
X2850389D01*
Y2460510D01*
X2850539D01*
Y2460210D01*
X2850689D01*
Y2459910D01*
X2850839D01*
Y2459760D01*
X2850989D01*
Y2459310D01*
X2851139D01*
Y2459160D01*
X2851289D01*
Y2458710D01*
X2851439D01*
Y2458410D01*
X2851589D01*
Y2458260D01*
X2851739D01*
Y2457811D01*
X2851889D01*
Y2457661D01*
X2852039D01*
Y2457211D01*
X2852189D01*
Y2457061D01*
X2852339D01*
Y2456911D01*
X2852489D01*
Y2456461D01*
X2852639D01*
Y2456311D01*
X2852789D01*
Y2455861D01*
X2852939D01*
Y2455711D01*
X2853089D01*
Y2455261D01*
X2853239D01*
Y2454961D01*
X2853388D01*
Y2454811D01*
X2853539D01*
Y2454362D01*
X2853688D01*
Y2454211D01*
X2853839D01*
Y2453762D01*
X2853688D01*
Y2453612D01*
X2853988D01*
Y2453462D01*
X2854138D01*
Y2453162D01*
X2854288D01*
Y2452862D01*
X2854438D01*
Y2452712D01*
X2854588D01*
Y2452262D01*
X2854738D01*
Y2452112D01*
X2854888D01*
Y2451512D01*
X2855188D01*
Y2451062D01*
X2855338D01*
Y2450762D01*
X2855488D01*
Y2450612D01*
X2855638D01*
Y2450163D01*
X2855788D01*
Y2450013D01*
X2855938D01*
Y2449563D01*
X2856088D01*
Y2449413D01*
X2856238D01*
Y2449113D01*
X2856388D01*
Y2448813D01*
X2856537D01*
Y2448513D01*
X2856688D01*
Y2448063D01*
X2856837D01*
Y2447913D01*
X2856988D01*
Y2447463D01*
X2857137D01*
Y2447313D01*
X2857287D01*
Y2447014D01*
X2857437D01*
Y2446564D01*
X2857587D01*
Y2446414D01*
X2857737D01*
Y2446114D01*
X2857887D01*
Y2445964D01*
X2858037D01*
Y2445514D01*
X2858187D01*
Y2445364D01*
X2858337D01*
Y2444914D01*
X2858487D01*
Y2444764D01*
X2858637D01*
Y2444614D01*
X2858787D01*
Y2444014D01*
X2859087D01*
Y2443414D01*
X2859237D01*
Y2443264D01*
X2859387D01*
Y2442815D01*
X2859537D01*
Y2442515D01*
X2859687D01*
Y2442365D01*
X2859837D01*
Y2441915D01*
X2859987D01*
Y2441765D01*
X2860137D01*
Y2441315D01*
X2860287D01*
Y2441165D01*
X2860437D01*
Y2440865D01*
X2860587D01*
Y2440565D01*
X2860736D01*
Y2440415D01*
X2860887D01*
Y2439966D01*
X2861036D01*
Y2439816D01*
X2861187D01*
Y2439366D01*
X2861336D01*
Y2439066D01*
X2861486D01*
Y2438916D01*
X2861636D01*
Y2438466D01*
X2861786D01*
Y2438316D01*
X2861936D01*
Y2437716D01*
X2862086D01*
Y2437566D01*
X2862236D01*
Y2437116D01*
X2862386D01*
Y2436966D01*
X2862536D01*
Y2436666D01*
X2862686D01*
Y2436366D01*
X2862836D01*
Y2436216D01*
X2862986D01*
Y2435617D01*
X2863286D01*
Y2435317D01*
X2863436D01*
Y2435017D01*
X2863586D01*
Y2434717D01*
X2863736D01*
Y2434417D01*
X2863885D01*
Y2434117D01*
X2864036D01*
Y2433817D01*
X2864185D01*
Y2433517D01*
X2864336D01*
Y2433217D01*
X2864485D01*
Y2432917D01*
X2864635D01*
Y2432617D01*
X2864785D01*
Y2432168D01*
X2864935D01*
Y2432018D01*
X2865085D01*
Y2431568D01*
X2865235D01*
Y2431418D01*
X2865385D01*
Y2431118D01*
X2865535D01*
Y2430668D01*
X2865685D01*
Y2430518D01*
X2865835D01*
Y2430068D01*
X2865985D01*
Y2429918D01*
X2866135D01*
Y2429618D01*
X2866285D01*
Y2429318D01*
X2866435D01*
Y2429019D01*
X2866585D01*
Y2428869D01*
X2866735D01*
Y2428569D01*
X2866885D01*
Y2427969D01*
X2867035D01*
Y2427669D01*
X2866885D01*
Y2427219D01*
X2866735D01*
Y2427069D01*
X2866585D01*
Y2426919D01*
X2866435D01*
Y2426769D01*
X2866135D01*
Y2426619D01*
X2865985D01*
Y2426469D01*
X2865385D01*
Y2426319D01*
X2865085D01*
Y2426169D01*
X2864785D01*
Y2426019D01*
X2864635D01*
Y2425869D01*
X2864336D01*
Y2425719D01*
X2864036D01*
Y2425569D01*
X2863885D01*
Y2425419D01*
X2863436D01*
Y2425269D01*
X2863286D01*
Y2425120D01*
X2862686D01*
Y2424970D01*
X2862536D01*
Y2424820D01*
X2862236D01*
Y2424670D01*
X2861936D01*
Y2424520D01*
X2861786D01*
Y2424370D01*
X2861336D01*
Y2424220D01*
X2861187D01*
Y2424070D01*
X2860587D01*
Y2423920D01*
X2860437D01*
Y2423770D01*
X2860137D01*
Y2423620D01*
X2859537D01*
Y2423470D01*
X2859387D01*
Y2423320D01*
X2858937D01*
Y2423170D01*
X2858787D01*
Y2423020D01*
X2858337D01*
Y2422870D01*
X2858037D01*
Y2422720D01*
X2857737D01*
Y2422570D01*
X2857137D01*
Y2422420D01*
X2856988D01*
Y2422270D01*
X2856238D01*
Y2422120D01*
X2856088D01*
Y2421970D01*
X2855638D01*
Y2421821D01*
X2855338D01*
Y2421671D01*
X2855038D01*
Y2421521D01*
X2854438D01*
Y2421371D01*
X2854288D01*
Y2421221D01*
X2853539D01*
Y2421071D01*
X2853388D01*
Y2420921D01*
X2852939D01*
Y2420771D01*
X2852339D01*
Y2420621D01*
X2852039D01*
Y2420471D01*
X2851439D01*
Y2420321D01*
X2851139D01*
Y2420171D01*
X2850389D01*
Y2420021D01*
X2850089D01*
Y2419871D01*
X2849789D01*
Y2419721D01*
X2849190D01*
Y2419571D01*
X2849040D01*
Y2419421D01*
X2848140D01*
Y2419271D01*
X2847840D01*
Y2419121D01*
X2847690D01*
Y2419271D01*
X2847390D01*
Y2419571D01*
X2847240D01*
Y2419721D01*
X2847090D01*
Y2419871D01*
X2846940D01*
Y2420621D01*
X2846790D01*
Y2420921D01*
X2846490D01*
Y2421821D01*
X2846341D01*
Y2421970D01*
X2846190D01*
Y2422870D01*
X2846041D01*
Y2423020D01*
X2845891D01*
Y2423770D01*
X2845741D01*
Y2424070D01*
X2845591D01*
Y2424220D01*
X2845441D01*
Y2425120D01*
X2845291D01*
Y2425269D01*
X2845141D01*
Y2425869D01*
X2844991D01*
Y2426169D01*
X2844841D01*
Y2426769D01*
X2844691D01*
Y2427069D01*
X2844541D01*
Y2427219D01*
X2844391D01*
Y2428269D01*
X2844241D01*
Y2428419D01*
X2844091D01*
Y2429318D01*
X2843941D01*
Y2429468D01*
X2843791D01*
Y2429918D01*
X2843641D01*
Y2430368D01*
X2843491D01*
Y2430518D01*
X2843341D01*
Y2431418D01*
X2843041D01*
Y2432318D01*
X2842892D01*
Y2432467D01*
X2842741D01*
Y2433217D01*
X2842592D01*
Y2433517D01*
X2842442D01*
Y2433667D01*
X2842292D01*
Y2434417D01*
X2842142D01*
Y2434567D01*
X2841992D01*
Y2435317D01*
X2841842D01*
Y2435617D01*
X2841692D01*
Y2436066D01*
X2841542D01*
Y2436516D01*
X2841392D01*
Y2436666D01*
X2841242D01*
Y2437416D01*
X2841092D01*
Y2437716D01*
X2840942D01*
Y2438316D01*
X2840792D01*
Y2438616D01*
X2840642D01*
Y2438916D01*
X2840492D01*
Y2439666D01*
X2840342D01*
Y2439816D01*
X2840192D01*
Y2440715D01*
X2840042D01*
Y2440865D01*
X2839892D01*
Y2441615D01*
X2839742D01*
Y2441765D01*
X2839592D01*
Y2442065D01*
X2839442D01*
Y2442665D01*
X2839142D01*
Y2443414D01*
X2838993D01*
Y2443564D01*
X2838842D01*
Y2444614D01*
X2838693D01*
Y2444764D01*
X2838542D01*
Y2445064D01*
X2838393D01*
Y2445814D01*
X2838243D01*
Y2445964D01*
X2838093D01*
Y2446714D01*
X2837943D01*
Y2446864D01*
X2837793D01*
Y2447613D01*
X2837643D01*
Y2447913D01*
X2837493D01*
Y2448063D01*
X2837343D01*
Y2448963D01*
X2837193D01*
Y2449113D01*
X2837043D01*
Y2449863D01*
X2836893D01*
Y2450013D01*
X2836743D01*
Y2450612D01*
X2836593D01*
Y2450912D01*
X2836443D01*
Y2451062D01*
X2836293D01*
Y2451812D01*
X2835993D01*
Y2452862D01*
X2835844D01*
Y2453012D01*
X2835693D01*
Y2453762D01*
X2835544D01*
Y2454211D01*
X2835393D01*
Y2454362D01*
X2835244D01*
Y2455111D01*
X2835094D01*
Y2455261D01*
X2834944D01*
Y2456011D01*
X2834794D01*
Y2456161D01*
X2834644D01*
Y2456611D01*
X2834494D01*
Y2457061D01*
X2834344D01*
Y2457211D01*
X2834194D01*
Y2457961D01*
X2834044D01*
Y2458110D01*
X2833894D01*
Y2459010D01*
X2833744D01*
Y2459310D01*
X2833594D01*
Y2459610D01*
X2833444D01*
Y2460210D01*
X2833294D01*
Y2460360D01*
X2833144D01*
Y2460960D01*
X2832994D01*
Y2461110D01*
X2832844D01*
Y2462159D01*
X2832694D01*
Y2462459D01*
X2832544D01*
Y2462759D01*
X2832394D01*
Y2463509D01*
X2832094D01*
Y2464409D01*
X2831945D01*
Y2464559D01*
X2831794D01*
Y2465308D01*
X2831645D01*
Y2465758D01*
X2831495D01*
Y2466208D01*
X2831345D01*
Y2466808D01*
X2831195D01*
Y2466958D01*
X2831045D01*
Y2467108D01*
X2830895D01*
Y2467258D01*
X2830745D01*
Y2466958D01*
X2830595D01*
Y2466808D01*
X2830445D01*
Y2466358D01*
X2830295D01*
Y2466658D01*
X2830145D01*
Y2465608D01*
X2830295D01*
Y2465908D01*
X2830445D01*
Y2465458D01*
X2830295D01*
Y2465159D01*
X2830445D01*
Y2465308D01*
X2830595D01*
Y2462309D01*
X2830745D01*
Y2462009D01*
X2830895D01*
Y2454661D01*
X2831045D01*
Y2453762D01*
X2830895D01*
Y2453462D01*
X2831045D01*
Y2453612D01*
X2831195D01*
Y2453162D01*
X2831345D01*
Y2447913D01*
X2831195D01*
Y2447613D01*
X2831345D01*
Y2447763D01*
X2831495D01*
Y2447164D01*
X2831645D01*
Y2442215D01*
X2831794D01*
Y2441615D01*
X2831945D01*
Y2435167D01*
X2832094D01*
Y2433667D01*
X2832244D01*
Y2432917D01*
X2832394D01*
Y2427219D01*
X2832244D01*
Y2426769D01*
X2832394D01*
Y2426919D01*
X2832544D01*
Y2426469D01*
X2832694D01*
Y2421521D01*
X2832844D01*
Y2420921D01*
X2832994D01*
Y2416572D01*
X2832694D01*
Y2416272D01*
X2813050D01*
Y2416572D01*
X2812750D01*
Y2417622D01*
X2812600D01*
Y2418821D01*
X2812750D01*
Y2419721D01*
X2812600D01*
Y2421671D01*
X2812750D01*
Y2569829D01*
X2812600D01*
Y2572829D01*
X2812750D01*
Y2594872D01*
X2813050D01*
Y2595322D01*
X2813200D01*
Y2595472D01*
X2813499D01*
Y2595622D01*
X2813650D01*
Y2595772D01*
X2816499D01*
Y2595922D01*
X2816799D01*
Y2596072D01*
X2816949D01*
Y2596222D01*
X2827596D01*
Y2595922D01*
D02*
G37*
G36*
X2798204Y2491401D02*
X2798054D01*
Y2491551D01*
X2798204D01*
Y2491401D01*
D02*
G37*
G36*
X2860736Y2478655D02*
X2860887D01*
Y2478505D01*
X2860736D01*
Y2478655D01*
X2860587D01*
Y2478805D01*
X2860736D01*
Y2478655D01*
D02*
G37*
G36*
X2861936Y2477605D02*
X2861786D01*
Y2477755D01*
X2861936D01*
Y2477605D01*
D02*
G37*
G36*
X2863736Y2475956D02*
X2863586D01*
Y2476105D01*
X2863736D01*
Y2475956D01*
D02*
G37*
G36*
X2864336Y2475506D02*
X2864185D01*
Y2475656D01*
X2864336D01*
Y2475506D01*
D02*
G37*
G36*
X2846041Y2469057D02*
X2845891D01*
Y2469207D01*
X2846041D01*
Y2469057D01*
D02*
G37*
G36*
X2856088Y2460210D02*
X2855938D01*
Y2460360D01*
X2856088D01*
Y2460210D01*
D02*
G37*
G36*
X2881581Y2460060D02*
X2881431D01*
Y2460210D01*
X2881581D01*
Y2460060D01*
D02*
G37*
G36*
X2800903Y2464559D02*
X2801053D01*
Y2464409D01*
X2801353D01*
Y2464259D01*
X2801503D01*
Y2464109D01*
X2801653D01*
Y2463659D01*
X2801803D01*
Y2463809D01*
X2801953D01*
Y2463509D01*
X2802103D01*
Y2460210D01*
Y2460060D01*
X2801953D01*
Y2459910D01*
X2801803D01*
Y2459760D01*
X2801653D01*
Y2459460D01*
X2801353D01*
Y2459310D01*
X2801203D01*
Y2459160D01*
X2800303D01*
Y2459610D01*
X2800153D01*
Y2464259D01*
X2800303D01*
Y2464409D01*
X2800453D01*
Y2464709D01*
X2800903D01*
Y2464559D01*
D02*
G37*
G36*
X2787257Y2456911D02*
X2787107D01*
Y2457061D01*
X2787257D01*
Y2456911D01*
D02*
G37*
G36*
X2861036Y2454811D02*
X2860887D01*
Y2454961D01*
X2861036D01*
Y2454811D01*
D02*
G37*
G36*
X2888329Y2454061D02*
X2888179D01*
Y2454211D01*
X2888329D01*
Y2454061D01*
D02*
G37*
G36*
X2866285Y2448963D02*
X2866135D01*
Y2449113D01*
X2866285D01*
Y2448963D01*
D02*
G37*
G36*
X2753666Y2447913D02*
X2753516D01*
Y2448063D01*
X2753666D01*
Y2447913D01*
D02*
G37*
G36*
X2873333Y2441165D02*
X2873183D01*
Y2441315D01*
X2873333D01*
Y2441165D01*
D02*
G37*
G36*
X2873783Y2440565D02*
X2873633D01*
Y2440715D01*
X2873783D01*
Y2440565D01*
D02*
G37*
G36*
X2766263Y2435617D02*
X2766113D01*
Y2435767D01*
X2766263D01*
Y2435617D01*
D02*
G37*
G36*
X2768362Y2576877D02*
X2768512D01*
Y2575228D01*
X2768362D01*
Y2565930D01*
X2768512D01*
Y2506697D01*
X2768362D01*
Y2497849D01*
X2768512D01*
Y2438466D01*
X2768362D01*
Y2435917D01*
X2768512D01*
Y2434867D01*
X2768362D01*
Y2434567D01*
X2768212D01*
Y2434717D01*
X2767612D01*
Y2434867D01*
X2767462D01*
Y2435017D01*
X2767312D01*
Y2434867D01*
X2767013D01*
Y2435017D01*
X2766862D01*
Y2435167D01*
X2766713D01*
Y2435317D01*
X2766562D01*
Y2435617D01*
X2766413D01*
Y2435767D01*
X2766263D01*
Y2435917D01*
X2766113D01*
Y2436066D01*
X2765963D01*
Y2435917D01*
X2765813D01*
Y2436216D01*
X2765663D01*
Y2436366D01*
X2765513D01*
Y2436216D01*
X2765363D01*
Y2436366D01*
X2765213D01*
Y2436516D01*
X2765063D01*
Y2436666D01*
X2764763D01*
Y2436816D01*
X2764913D01*
Y2436966D01*
X2764763D01*
Y2437116D01*
X2764613D01*
Y2436966D01*
X2764463D01*
Y2437416D01*
X2764013D01*
Y2437566D01*
X2764163D01*
Y2437716D01*
X2763864D01*
Y2437866D01*
X2763713D01*
Y2438016D01*
X2763564D01*
Y2438166D01*
X2763413D01*
Y2438316D01*
X2763264D01*
Y2438466D01*
X2763113D01*
Y2438316D01*
X2762964D01*
Y2438616D01*
X2762814D01*
Y2438766D01*
X2762664D01*
Y2438916D01*
X2762514D01*
Y2438766D01*
X2762364D01*
Y2439216D01*
X2762214D01*
Y2439066D01*
X2762064D01*
Y2439216D01*
X2761914D01*
Y2439366D01*
X2761764D01*
Y2439516D01*
X2761614D01*
Y2439666D01*
X2761464D01*
Y2439816D01*
X2761614D01*
Y2439966D01*
X2761314D01*
Y2440265D01*
X2761014D01*
Y2440415D01*
X2760864D01*
Y2440565D01*
X2760714D01*
Y2440715D01*
X2760564D01*
Y2440865D01*
X2760414D01*
Y2441015D01*
X2760264D01*
Y2441165D01*
X2760114D01*
Y2441315D01*
X2759964D01*
Y2441465D01*
X2759814D01*
Y2441615D01*
X2759665D01*
Y2441765D01*
X2759514D01*
Y2441915D01*
X2759365D01*
Y2442065D01*
X2759214D01*
Y2442215D01*
X2759065D01*
Y2442365D01*
X2758915D01*
Y2442515D01*
X2758765D01*
Y2442665D01*
X2758615D01*
Y2442815D01*
X2758465D01*
Y2442965D01*
X2758315D01*
Y2443115D01*
X2758165D01*
Y2443264D01*
X2758015D01*
Y2443414D01*
X2757865D01*
Y2443564D01*
X2757715D01*
Y2443714D01*
X2757565D01*
Y2443864D01*
X2757415D01*
Y2444014D01*
X2757265D01*
Y2444164D01*
X2757115D01*
Y2444314D01*
X2756965D01*
Y2444464D01*
X2756815D01*
Y2444614D01*
X2756665D01*
Y2444764D01*
X2756516D01*
Y2444914D01*
X2756365D01*
Y2445214D01*
X2756065D01*
Y2445514D01*
X2755916D01*
Y2445664D01*
X2755766D01*
Y2445814D01*
X2755616D01*
Y2446114D01*
X2755466D01*
Y2446264D01*
X2755316D01*
Y2446414D01*
X2755166D01*
Y2446564D01*
X2755016D01*
Y2446864D01*
X2754716D01*
Y2447014D01*
X2754566D01*
Y2447313D01*
X2754266D01*
Y2447613D01*
X2753966D01*
Y2447913D01*
X2753816D01*
Y2448063D01*
X2753666D01*
Y2448213D01*
X2753516D01*
Y2448363D01*
X2753366D01*
Y2448513D01*
X2753216D01*
Y2448813D01*
X2753066D01*
Y2448963D01*
X2752916D01*
Y2449263D01*
X2752766D01*
Y2449413D01*
X2752466D01*
Y2449713D01*
X2752317D01*
Y2449863D01*
X2752167D01*
Y2450013D01*
X2752017D01*
Y2450163D01*
X2751867D01*
Y2450462D01*
X2751717D01*
Y2450762D01*
X2751567D01*
Y2450912D01*
X2751417D01*
Y2451062D01*
X2751267D01*
Y2451212D01*
X2751117D01*
Y2451512D01*
X2750817D01*
Y2451812D01*
X2750667D01*
Y2451962D01*
X2750517D01*
Y2452262D01*
X2750367D01*
Y2452562D01*
X2750067D01*
Y2452862D01*
X2749917D01*
Y2453012D01*
X2749767D01*
Y2453312D01*
X2749617D01*
Y2453612D01*
X2749317D01*
Y2453912D01*
X2749018D01*
Y2454211D01*
X2748867D01*
Y2454362D01*
X2748718D01*
Y2454661D01*
X2748568D01*
Y2454961D01*
X2748418D01*
Y2455111D01*
X2748268D01*
Y2455411D01*
X2748118D01*
Y2455561D01*
X2747968D01*
Y2455861D01*
X2747818D01*
Y2456011D01*
X2747668D01*
Y2456311D01*
X2747518D01*
Y2456611D01*
X2747368D01*
Y2456761D01*
X2747218D01*
Y2457061D01*
X2747068D01*
Y2457211D01*
X2746918D01*
Y2457661D01*
X2746768D01*
Y2457811D01*
X2746618D01*
Y2457961D01*
X2746468D01*
Y2458110D01*
X2746318D01*
Y2458260D01*
X2746168D01*
Y2458710D01*
X2746018D01*
Y2458860D01*
X2745868D01*
Y2459310D01*
X2745718D01*
Y2459460D01*
X2745569D01*
Y2459760D01*
X2745418D01*
Y2460060D01*
X2745269D01*
Y2460210D01*
X2745118D01*
Y2460510D01*
X2744969D01*
Y2460660D01*
X2744819D01*
Y2460960D01*
X2744669D01*
Y2461259D01*
X2744519D01*
Y2461409D01*
X2744369D01*
Y2461709D01*
X2744219D01*
Y2462009D01*
X2744069D01*
Y2462309D01*
X2743919D01*
Y2462459D01*
X2743769D01*
Y2462909D01*
X2743619D01*
Y2463059D01*
X2743469D01*
Y2463209D01*
X2743319D01*
Y2463659D01*
X2743169D01*
Y2463809D01*
X2743019D01*
Y2464259D01*
X2742869D01*
Y2464409D01*
X2742719D01*
Y2464859D01*
X2742569D01*
Y2465159D01*
X2742419D01*
Y2465308D01*
X2742269D01*
Y2465608D01*
X2742119D01*
Y2465758D01*
X2741969D01*
Y2466358D01*
X2741819D01*
Y2466508D01*
X2741670D01*
Y2467108D01*
X2741519D01*
Y2467258D01*
X2741370D01*
Y2467408D01*
X2741219D01*
Y2468008D01*
X2740920D01*
Y2468757D01*
X2740620D01*
Y2469357D01*
X2740470D01*
Y2469507D01*
X2740320D01*
Y2469807D01*
X2740170D01*
Y2470257D01*
X2740020D01*
Y2470407D01*
X2739870D01*
Y2471157D01*
X2739720D01*
Y2471307D01*
X2739570D01*
Y2471757D01*
X2739420D01*
Y2472056D01*
X2739270D01*
Y2472207D01*
X2739120D01*
Y2472806D01*
X2738970D01*
Y2472956D01*
X2738820D01*
Y2473856D01*
X2738670D01*
Y2474006D01*
X2738521D01*
Y2474456D01*
X2738370D01*
Y2474756D01*
X2738221D01*
Y2475056D01*
X2738070D01*
Y2475656D01*
X2737771D01*
Y2476405D01*
X2737621D01*
Y2476705D01*
X2737471D01*
Y2477305D01*
X2737321D01*
Y2477755D01*
X2737171D01*
Y2477905D01*
X2737021D01*
Y2478805D01*
X2736871D01*
Y2478955D01*
X2736721D01*
Y2479854D01*
X2736571D01*
Y2480004D01*
X2736421D01*
Y2480754D01*
X2736271D01*
Y2481354D01*
X2735971D01*
Y2482404D01*
X2735821D01*
Y2482554D01*
X2735671D01*
Y2483603D01*
X2735521D01*
Y2483753D01*
X2735371D01*
Y2484203D01*
X2735221D01*
Y2485253D01*
X2734921D01*
Y2486602D01*
X2734771D01*
Y2486752D01*
X2734622D01*
Y2487952D01*
X2734471D01*
Y2488252D01*
X2734322D01*
Y2488702D01*
X2734171D01*
Y2490202D01*
X2734022D01*
Y2490352D01*
X2733872D01*
Y2492451D01*
X2733722D01*
Y2492751D01*
X2733572D01*
Y2494700D01*
X2733422D01*
Y2495300D01*
X2733272D01*
Y2495750D01*
X2733122D01*
Y2499049D01*
X2732972D01*
Y2499499D01*
X2732822D01*
Y2503998D01*
X2732672D01*
Y2504448D01*
X2732522D01*
Y2504597D01*
X2732372D01*
Y2508197D01*
X2732522D01*
Y2508347D01*
X2732672D01*
Y2508646D01*
X2732822D01*
Y2512845D01*
X2732972D01*
Y2513145D01*
X2733122D01*
Y2515095D01*
X2733272D01*
Y2515694D01*
X2733422D01*
Y2516444D01*
X2733572D01*
Y2518694D01*
X2733722D01*
Y2519144D01*
X2733872D01*
Y2521243D01*
X2734022D01*
Y2521393D01*
X2734171D01*
Y2522742D01*
X2734322D01*
Y2523342D01*
X2734471D01*
Y2523792D01*
X2734622D01*
Y2524992D01*
X2734771D01*
Y2525142D01*
X2734921D01*
Y2526342D01*
X2735071D01*
Y2526492D01*
X2735221D01*
Y2527541D01*
X2735371D01*
Y2527991D01*
X2735521D01*
Y2528141D01*
X2735671D01*
Y2529341D01*
X2735821D01*
Y2529491D01*
X2735971D01*
Y2530390D01*
X2736121D01*
Y2530540D01*
X2736271D01*
Y2530990D01*
X2736421D01*
Y2531590D01*
X2736571D01*
Y2531890D01*
X2736721D01*
Y2532790D01*
X2736871D01*
Y2532940D01*
X2737021D01*
Y2533839D01*
X2737171D01*
Y2533989D01*
X2737321D01*
Y2534439D01*
X2737471D01*
Y2534889D01*
X2737621D01*
Y2535189D01*
X2737771D01*
Y2535939D01*
X2737921D01*
Y2536089D01*
X2738070D01*
Y2536839D01*
X2738221D01*
Y2537139D01*
X2738370D01*
Y2537289D01*
X2738521D01*
Y2538038D01*
X2738670D01*
Y2538188D01*
X2738820D01*
Y2538788D01*
X2738970D01*
Y2538938D01*
X2739120D01*
Y2539538D01*
X2739270D01*
Y2539688D01*
X2739420D01*
Y2539988D01*
X2739570D01*
Y2540588D01*
X2739720D01*
Y2540737D01*
X2739870D01*
Y2541337D01*
X2740020D01*
Y2541637D01*
X2740170D01*
Y2542087D01*
X2740320D01*
Y2542387D01*
X2740470D01*
Y2542537D01*
X2740620D01*
Y2542987D01*
X2740770D01*
Y2543137D01*
X2740920D01*
Y2543737D01*
X2741070D01*
Y2543887D01*
X2741219D01*
Y2544337D01*
X2741370D01*
Y2544487D01*
X2741519D01*
Y2544786D01*
X2741670D01*
Y2545236D01*
X2741819D01*
Y2545386D01*
X2741969D01*
Y2545836D01*
X2742119D01*
Y2545986D01*
X2742269D01*
Y2546286D01*
X2742419D01*
Y2546586D01*
X2742569D01*
Y2546736D01*
X2742719D01*
Y2547186D01*
X2742869D01*
Y2547336D01*
X2743019D01*
Y2547935D01*
X2743319D01*
Y2548385D01*
X2743469D01*
Y2548685D01*
X2743619D01*
Y2548835D01*
X2743769D01*
Y2549435D01*
X2744069D01*
Y2550035D01*
X2744219D01*
Y2550185D01*
X2744369D01*
Y2550335D01*
X2744519D01*
Y2550635D01*
X2744669D01*
Y2550935D01*
X2744819D01*
Y2551235D01*
X2744969D01*
Y2551385D01*
X2745118D01*
Y2551834D01*
X2745418D01*
Y2552134D01*
X2745569D01*
Y2552584D01*
X2745718D01*
Y2552734D01*
X2745868D01*
Y2553034D01*
X2746168D01*
Y2553484D01*
X2746318D01*
Y2553634D01*
X2746468D01*
Y2553784D01*
X2746618D01*
Y2554084D01*
X2746768D01*
Y2554234D01*
X2746918D01*
Y2554684D01*
X2747068D01*
Y2554834D01*
X2747218D01*
Y2555134D01*
X2747368D01*
Y2555284D01*
X2747518D01*
Y2555583D01*
X2747668D01*
Y2555733D01*
X2747818D01*
Y2555883D01*
X2747968D01*
Y2556333D01*
X2748118D01*
Y2556483D01*
X2748268D01*
Y2556783D01*
X2748568D01*
Y2557083D01*
X2748718D01*
Y2557383D01*
X2748867D01*
Y2557533D01*
X2749018D01*
Y2557833D01*
X2749317D01*
Y2558133D01*
X2749467D01*
Y2558283D01*
X2749617D01*
Y2558433D01*
X2749767D01*
Y2558882D01*
X2750067D01*
Y2559182D01*
X2750217D01*
Y2559332D01*
X2750367D01*
Y2559482D01*
X2750517D01*
Y2559782D01*
X2750667D01*
Y2559932D01*
X2750817D01*
Y2560232D01*
X2751117D01*
Y2560532D01*
X2751267D01*
Y2560682D01*
X2751417D01*
Y2560982D01*
X2751717D01*
Y2561132D01*
X2751867D01*
Y2561432D01*
X2752017D01*
Y2561582D01*
X2752167D01*
Y2562032D01*
X2752466D01*
Y2562332D01*
X2752766D01*
Y2562481D01*
X2752916D01*
Y2562781D01*
X2753066D01*
Y2562931D01*
X2753216D01*
Y2563081D01*
X2753366D01*
Y2563231D01*
X2753516D01*
Y2563381D01*
X2753666D01*
Y2563531D01*
X2753816D01*
Y2563681D01*
X2753966D01*
Y2563981D01*
X2754116D01*
Y2564131D01*
X2754266D01*
Y2564431D01*
X2754566D01*
Y2564731D01*
X2754716D01*
Y2564881D01*
X2754866D01*
Y2565031D01*
X2755016D01*
Y2565181D01*
X2755166D01*
Y2565331D01*
X2755316D01*
Y2565630D01*
X2755466D01*
Y2565781D01*
X2755616D01*
Y2565930D01*
X2755766D01*
Y2566230D01*
X2756065D01*
Y2566530D01*
X2756216D01*
Y2566680D01*
X2756365D01*
Y2566830D01*
X2756516D01*
Y2566980D01*
X2756665D01*
Y2567130D01*
X2756815D01*
Y2567280D01*
X2756965D01*
Y2567430D01*
X2757115D01*
Y2567730D01*
X2757415D01*
Y2568030D01*
X2757565D01*
Y2568180D01*
X2757715D01*
Y2568330D01*
X2757865D01*
Y2568480D01*
X2758015D01*
Y2568630D01*
X2758165D01*
Y2568930D01*
X2758315D01*
Y2569080D01*
X2758465D01*
Y2569230D01*
X2758615D01*
Y2569380D01*
X2758915D01*
Y2569680D01*
X2759065D01*
Y2569829D01*
X2759214D01*
Y2569979D01*
X2759365D01*
Y2570129D01*
X2759514D01*
Y2570279D01*
X2759665D01*
Y2570429D01*
X2759814D01*
Y2570579D01*
X2759964D01*
Y2570729D01*
X2760114D01*
Y2570879D01*
X2760414D01*
Y2571029D01*
X2760564D01*
Y2571179D01*
X2760864D01*
Y2571479D01*
X2761164D01*
Y2571629D01*
X2761314D01*
Y2571929D01*
X2761614D01*
Y2572229D01*
X2761914D01*
Y2572379D01*
X2762064D01*
Y2572529D01*
X2762214D01*
Y2572679D01*
X2762364D01*
Y2572829D01*
X2762514D01*
Y2572979D01*
X2762664D01*
Y2573128D01*
X2762814D01*
Y2573279D01*
X2763113D01*
Y2573578D01*
X2763413D01*
Y2573728D01*
X2763713D01*
Y2573878D01*
X2763864D01*
Y2574028D01*
X2764013D01*
Y2574178D01*
X2764163D01*
Y2574328D01*
X2764463D01*
Y2574628D01*
X2764763D01*
Y2574778D01*
X2764913D01*
Y2574928D01*
X2765063D01*
Y2575078D01*
X2765213D01*
Y2575228D01*
X2765363D01*
Y2575378D01*
X2765663D01*
Y2575528D01*
X2765813D01*
Y2575678D01*
X2765963D01*
Y2575828D01*
X2766263D01*
Y2576128D01*
X2766562D01*
Y2576428D01*
X2766862D01*
Y2576577D01*
X2767013D01*
Y2576728D01*
X2767162D01*
Y2576877D01*
X2767312D01*
Y2577027D01*
X2767462D01*
Y2577177D01*
X2768362D01*
Y2576877D01*
D02*
G37*
%LPC*%
G36*
X2799854Y2573279D02*
X2799554D01*
Y2573128D01*
X2799254D01*
Y2572979D01*
X2799104D01*
Y2572829D01*
X2798954D01*
Y2569380D01*
X2798804D01*
Y2567130D01*
Y2566980D01*
Y2565481D01*
X2798954D01*
Y2564131D01*
X2798804D01*
Y2563831D01*
X2798954D01*
Y2563981D01*
X2799104D01*
Y2563831D01*
X2799254D01*
Y2563531D01*
X2799403D01*
Y2563381D01*
X2799254D01*
Y2563231D01*
X2799403D01*
Y2563081D01*
X2799554D01*
Y2562931D01*
X2799703D01*
Y2562781D01*
X2799854D01*
Y2562931D01*
X2800003D01*
Y2562632D01*
X2800153D01*
Y2562781D01*
X2800303D01*
Y2562632D01*
X2800153D01*
Y2562481D01*
X2800303D01*
Y2562332D01*
X2800753D01*
Y2562182D01*
X2801053D01*
Y2562032D01*
X2802103D01*
Y2562182D01*
X2802253D01*
Y2562332D01*
X2802403D01*
Y2562481D01*
X2802552D01*
Y2562931D01*
X2802703D01*
Y2563231D01*
X2802852D01*
Y2565630D01*
X2802703D01*
Y2566680D01*
X2802552D01*
Y2570879D01*
X2802703D01*
Y2571179D01*
X2802552D01*
Y2572079D01*
X2802403D01*
Y2572229D01*
X2801953D01*
Y2572379D01*
X2801803D01*
Y2572529D01*
X2801653D01*
Y2572829D01*
X2801503D01*
Y2572679D01*
X2800903D01*
Y2572829D01*
X2800753D01*
Y2573128D01*
X2800603D01*
Y2572979D01*
X2800153D01*
Y2573128D01*
X2799854D01*
Y2573279D01*
D02*
G37*
G36*
X2801353Y2556933D02*
X2801203D01*
Y2556783D01*
X2801353D01*
Y2556933D01*
D02*
G37*
G36*
X2786507Y2552434D02*
X2786357D01*
Y2552284D01*
X2785907D01*
Y2551834D01*
X2785757D01*
Y2549285D01*
X2785907D01*
Y2548685D01*
X2786057D01*
Y2548385D01*
X2786657D01*
Y2548235D01*
X2787257D01*
Y2548085D01*
X2787557D01*
Y2547935D01*
X2788456D01*
Y2547786D01*
X2788607D01*
Y2547636D01*
X2789356D01*
Y2547486D01*
X2789506D01*
Y2547336D01*
X2790106D01*
Y2547186D01*
X2791006D01*
Y2547036D01*
X2791456D01*
Y2546886D01*
X2792206D01*
Y2546736D01*
X2792356D01*
Y2546586D01*
X2793405D01*
Y2546736D01*
X2793555D01*
Y2546886D01*
X2794005D01*
Y2547486D01*
X2794155D01*
Y2548535D01*
X2794005D01*
Y2549585D01*
X2793855D01*
Y2549885D01*
X2793705D01*
Y2550335D01*
X2793405D01*
Y2550635D01*
X2792955D01*
Y2550935D01*
X2792805D01*
Y2550785D01*
X2792655D01*
Y2550935D01*
X2791756D01*
Y2551085D01*
X2791456D01*
Y2551235D01*
X2790556D01*
Y2551385D01*
X2790406D01*
Y2551534D01*
X2789806D01*
Y2551685D01*
X2789506D01*
Y2551834D01*
X2789206D01*
Y2551984D01*
X2788456D01*
Y2552134D01*
X2788157D01*
Y2552284D01*
X2786507D01*
Y2552434D01*
D02*
G37*
G36*
X2785607Y2542687D02*
X2785457D01*
Y2542537D01*
X2785607D01*
Y2542687D01*
D02*
G37*
G36*
X2787707Y2518994D02*
X2787557D01*
Y2518844D01*
X2787707D01*
Y2518994D01*
D02*
G37*
G36*
X2787557Y2518844D02*
X2786057D01*
Y2518694D01*
X2785907D01*
Y2515544D01*
X2785757D01*
Y2514645D01*
X2785907D01*
Y2514345D01*
X2785757D01*
Y2514045D01*
X2785907D01*
Y2513895D01*
X2786207D01*
Y2513745D01*
X2786507D01*
Y2513595D01*
X2787407D01*
Y2513445D01*
X2788307D01*
Y2513295D01*
X2788607D01*
Y2513145D01*
X2789206D01*
Y2512995D01*
X2789356D01*
Y2512845D01*
X2790406D01*
Y2512695D01*
X2790556D01*
Y2512545D01*
X2791006D01*
Y2512395D01*
X2791606D01*
Y2512245D01*
X2791756D01*
Y2512095D01*
X2792505D01*
Y2511945D01*
X2792805D01*
Y2511796D01*
X2793555D01*
Y2512095D01*
X2794005D01*
Y2512395D01*
X2794155D01*
Y2514045D01*
X2794005D01*
Y2515694D01*
X2793855D01*
Y2515844D01*
X2793705D01*
Y2516444D01*
X2793555D01*
Y2516594D01*
X2793405D01*
Y2516744D01*
X2793255D01*
Y2516894D01*
X2793105D01*
Y2517044D01*
X2792955D01*
Y2517194D01*
X2792206D01*
Y2517344D01*
X2792055D01*
Y2517494D01*
X2791306D01*
Y2517644D01*
X2791006D01*
Y2517794D01*
X2790256D01*
Y2517944D01*
X2789956D01*
Y2518094D01*
X2789656D01*
Y2518244D01*
X2788906D01*
Y2518394D01*
X2788756D01*
Y2518544D01*
X2787857D01*
Y2518694D01*
X2787557D01*
Y2518844D01*
D02*
G37*
G36*
X2786807Y2489602D02*
X2786357D01*
Y2489452D01*
X2786057D01*
Y2489302D01*
X2785907D01*
Y2489152D01*
X2785757D01*
Y2488702D01*
X2785607D01*
Y2488102D01*
X2785757D01*
Y2487202D01*
X2785907D01*
Y2486003D01*
X2785757D01*
Y2484803D01*
X2785607D01*
Y2482704D01*
X2785757D01*
Y2482404D01*
X2785907D01*
Y2482104D01*
X2785757D01*
Y2481804D01*
X2785907D01*
Y2481954D01*
X2786057D01*
Y2481804D01*
X2785907D01*
Y2481654D01*
X2786057D01*
Y2481504D01*
X2786207D01*
Y2481354D01*
X2786357D01*
Y2481204D01*
X2786807D01*
Y2480904D01*
X2787857D01*
Y2480754D01*
X2788307D01*
Y2480604D01*
X2788607D01*
Y2480454D01*
X2789806D01*
Y2480304D01*
X2789956D01*
Y2480154D01*
X2790856D01*
Y2480004D01*
X2791006D01*
Y2479854D01*
X2791606D01*
Y2479704D01*
X2792055D01*
Y2479554D01*
X2792356D01*
Y2479404D01*
X2793255D01*
Y2479255D01*
X2793405D01*
Y2479105D01*
X2794755D01*
Y2478955D01*
X2794905D01*
Y2478805D01*
X2795504D01*
Y2478655D01*
X2795955D01*
Y2478505D01*
X2796104D01*
Y2478355D01*
X2797004D01*
Y2478205D01*
X2797154D01*
Y2478055D01*
X2798204D01*
Y2477905D01*
X2798504D01*
Y2477755D01*
X2798954D01*
Y2477605D01*
X2799554D01*
Y2477455D01*
X2799703D01*
Y2477305D01*
X2801953D01*
Y2477455D01*
X2802103D01*
Y2477605D01*
X2802253D01*
Y2477755D01*
X2802552D01*
Y2478355D01*
X2802703D01*
Y2480004D01*
X2802552D01*
Y2484353D01*
X2802403D01*
Y2484503D01*
X2802103D01*
Y2484653D01*
X2801953D01*
Y2484803D01*
X2801203D01*
Y2484953D01*
X2801053D01*
Y2485103D01*
X2800153D01*
Y2485253D01*
X2799854D01*
Y2485403D01*
X2799554D01*
Y2485553D01*
X2798504D01*
Y2485403D01*
X2798204D01*
Y2485253D01*
X2798054D01*
Y2485103D01*
X2797904D01*
Y2485253D01*
X2797154D01*
Y2485103D01*
X2796104D01*
Y2485253D01*
X2795804D01*
Y2485403D01*
X2795504D01*
Y2485553D01*
X2794455D01*
Y2485703D01*
X2794305D01*
Y2485853D01*
X2793705D01*
Y2486602D01*
X2793405D01*
Y2487352D01*
X2793105D01*
Y2487502D01*
X2792955D01*
Y2487652D01*
X2792805D01*
Y2487802D01*
X2792505D01*
Y2487952D01*
X2791456D01*
Y2488102D01*
X2791156D01*
Y2488252D01*
X2790556D01*
Y2488402D01*
X2790106D01*
Y2488552D01*
X2789956D01*
Y2488702D01*
X2789056D01*
Y2488852D01*
X2788906D01*
Y2489002D01*
X2788157D01*
Y2489152D01*
X2788007D01*
Y2489302D01*
X2787557D01*
Y2489452D01*
X2786807D01*
Y2489602D01*
D02*
G37*
G36*
X2791606Y2468008D02*
X2791456D01*
Y2467858D01*
X2791606D01*
Y2468008D01*
D02*
G37*
G36*
X2786807Y2469207D02*
X2786207D01*
Y2469057D01*
X2785907D01*
Y2468757D01*
X2785757D01*
Y2468607D01*
X2785607D01*
Y2467408D01*
X2785757D01*
Y2466808D01*
X2785907D01*
Y2465009D01*
X2786207D01*
Y2464709D01*
X2787107D01*
Y2464559D01*
X2787557D01*
Y2464409D01*
X2788007D01*
Y2464259D01*
X2788307D01*
Y2464109D01*
X2788456D01*
Y2463959D01*
X2788906D01*
Y2463809D01*
X2789056D01*
Y2463659D01*
X2789806D01*
Y2463509D01*
X2789956D01*
Y2463359D01*
X2790406D01*
Y2463209D01*
X2791006D01*
Y2463059D01*
X2791156D01*
Y2462909D01*
X2791606D01*
Y2462759D01*
X2791756D01*
Y2462609D01*
X2792955D01*
Y2462759D01*
X2793105D01*
Y2462909D01*
X2793255D01*
Y2463059D01*
X2793405D01*
Y2464109D01*
X2793555D01*
Y2465758D01*
X2793405D01*
Y2466508D01*
X2793255D01*
Y2466808D01*
X2793105D01*
Y2466958D01*
X2792955D01*
Y2467258D01*
X2792655D01*
Y2467408D01*
X2792505D01*
Y2467258D01*
X2792356D01*
Y2467408D01*
X2792206D01*
Y2467708D01*
X2792055D01*
Y2467558D01*
X2791756D01*
Y2467708D01*
X2791456D01*
Y2467858D01*
X2791006D01*
Y2468008D01*
X2790556D01*
Y2468158D01*
X2790256D01*
Y2468308D01*
X2789506D01*
Y2468457D01*
X2789206D01*
Y2468607D01*
X2789356D01*
Y2468757D01*
X2789056D01*
Y2468607D01*
X2788157D01*
Y2468757D01*
X2787857D01*
Y2468907D01*
X2787557D01*
Y2469057D01*
X2786807D01*
Y2469207D01*
D02*
G37*
G36*
X2789356Y2459910D02*
X2789206D01*
Y2459760D01*
X2789356D01*
Y2459910D01*
D02*
G37*
G36*
X2785307Y2459610D02*
X2785157D01*
Y2459160D01*
X2785307D01*
Y2459610D01*
D02*
G37*
G36*
X2796104Y2436366D02*
X2795955D01*
Y2436216D01*
X2796104D01*
Y2436366D01*
D02*
G37*
G36*
X2792655Y2433667D02*
X2792505D01*
Y2433517D01*
X2792655D01*
Y2433667D01*
D02*
G37*
G36*
X2786807Y2435617D02*
X2786357D01*
Y2435467D01*
X2786207D01*
Y2435317D01*
X2785907D01*
Y2434867D01*
X2785757D01*
Y2433967D01*
X2785907D01*
Y2432767D01*
X2785757D01*
Y2432318D01*
X2785907D01*
Y2431418D01*
X2786207D01*
Y2431268D01*
X2786507D01*
Y2431118D01*
X2786657D01*
Y2430968D01*
X2787857D01*
Y2430818D01*
X2788007D01*
Y2430668D01*
X2788456D01*
Y2430518D01*
X2789056D01*
Y2430368D01*
X2789206D01*
Y2430218D01*
X2790106D01*
Y2430068D01*
X2790256D01*
Y2429918D01*
X2791156D01*
Y2429768D01*
X2791306D01*
Y2429618D01*
X2791606D01*
Y2429468D01*
X2791756D01*
Y2429318D01*
X2791906D01*
Y2429168D01*
X2792505D01*
Y2429019D01*
X2792955D01*
Y2429168D01*
X2793255D01*
Y2429318D01*
X2793405D01*
Y2429618D01*
X2793555D01*
Y2429768D01*
X2793705D01*
Y2431718D01*
X2793555D01*
Y2431868D01*
X2793405D01*
Y2432767D01*
X2793255D01*
Y2432917D01*
X2793105D01*
Y2433067D01*
X2792955D01*
Y2433217D01*
X2792805D01*
Y2433367D01*
X2792505D01*
Y2433517D01*
X2792356D01*
Y2433667D01*
X2792206D01*
Y2433817D01*
X2792055D01*
Y2433967D01*
X2791906D01*
Y2434117D01*
X2791456D01*
Y2434267D01*
X2791156D01*
Y2434417D01*
X2790856D01*
Y2434567D01*
X2789956D01*
Y2434717D01*
X2789656D01*
Y2434867D01*
X2788456D01*
Y2435017D01*
X2788157D01*
Y2435167D01*
X2787857D01*
Y2435317D01*
X2787107D01*
Y2435467D01*
X2786807D01*
Y2435617D01*
D02*
G37*
%LPD*%
G36*
X2800903Y2562332D02*
X2800753D01*
Y2562481D01*
X2800903D01*
Y2562332D01*
D02*
G37*
%LPC*%
G36*
X2884130Y2572079D02*
X2883980D01*
Y2571929D01*
X2884130D01*
Y2572079D01*
D02*
G37*
G36*
X2884580Y2571629D02*
X2884430D01*
Y2571479D01*
X2884580D01*
Y2571629D01*
D02*
G37*
G36*
X2884880Y2571329D02*
X2884730D01*
Y2571179D01*
X2884880D01*
Y2571329D01*
D02*
G37*
G36*
X2885930Y2570279D02*
X2885779D01*
Y2570129D01*
X2885930D01*
Y2570279D01*
D02*
G37*
G36*
X2903175Y2546736D02*
X2903025D01*
Y2546586D01*
X2903175D01*
Y2546736D01*
D02*
G37*
G36*
X2905274Y2542237D02*
X2905124D01*
Y2542087D01*
X2905274D01*
Y2542237D01*
D02*
G37*
G36*
X2906024Y2540438D02*
X2905874D01*
Y2540288D01*
X2906024D01*
Y2540438D01*
D02*
G37*
G36*
X2867935Y2498299D02*
X2867784D01*
Y2498149D01*
X2867935D01*
Y2498299D01*
D02*
G37*
G36*
X2861336Y2481054D02*
X2861187D01*
Y2480904D01*
X2861336D01*
Y2481054D01*
D02*
G37*
G36*
X2864785Y2475056D02*
X2864635D01*
Y2474906D01*
X2864785D01*
Y2475056D01*
D02*
G37*
G36*
X2846490Y2471157D02*
X2846341D01*
Y2471007D01*
X2846490D01*
Y2471157D01*
D02*
G37*
G36*
X2882780Y2470857D02*
X2882630D01*
Y2470707D01*
X2882780D01*
Y2470857D01*
D02*
G37*
G36*
X2846790D02*
X2846640D01*
Y2470707D01*
X2846790D01*
Y2470857D01*
D02*
G37*
G36*
X2845141D02*
X2844991D01*
Y2470707D01*
X2845141D01*
Y2470857D01*
D02*
G37*
G36*
X2888779Y2468008D02*
X2888629D01*
Y2467858D01*
X2888779D01*
Y2468008D01*
D02*
G37*
G36*
X2849640Y2462009D02*
X2849490D01*
Y2461859D01*
X2849640D01*
Y2462009D01*
D02*
G37*
G36*
X2855038Y2461709D02*
X2854888D01*
Y2461559D01*
X2855038D01*
Y2461709D01*
D02*
G37*
G36*
X2850089Y2461110D02*
X2849940D01*
Y2460960D01*
X2850089D01*
Y2461110D01*
D02*
G37*
G36*
X2850389Y2460510D02*
X2850239D01*
Y2460360D01*
X2850389D01*
Y2460510D01*
D02*
G37*
G36*
X2888779Y2453612D02*
X2888629D01*
Y2453462D01*
X2888779D01*
Y2453612D01*
D02*
G37*
G36*
X2867335Y2448063D02*
X2867185D01*
Y2447913D01*
X2867335D01*
Y2448063D01*
D02*
G37*
G36*
X2856688D02*
X2856537D01*
Y2447913D01*
X2856688D01*
Y2448063D01*
D02*
G37*
G36*
X2868684Y2446564D02*
X2868534D01*
Y2446414D01*
X2868684D01*
Y2446564D01*
D02*
G37*
G36*
X2868984Y2446264D02*
X2868834D01*
Y2446114D01*
X2868984D01*
Y2446264D01*
D02*
G37*
G36*
X2871833Y2443115D02*
X2871683D01*
Y2442965D01*
X2871833D01*
Y2443115D01*
D02*
G37*
G36*
X2874683Y2439966D02*
X2874533D01*
Y2439816D01*
X2874683D01*
Y2439966D01*
D02*
G37*
G36*
X2878132Y2436066D02*
X2877982D01*
Y2435917D01*
X2878132D01*
Y2436066D01*
D02*
G37*
G36*
X2866885Y2427969D02*
X2866735D01*
Y2427819D01*
X2866885D01*
Y2427969D01*
D02*
G37*
G36*
X2815299Y2416722D02*
X2814699D01*
Y2416572D01*
X2814999D01*
Y2416422D01*
X2815749D01*
Y2416572D01*
X2815299D01*
Y2416722D01*
D02*
G37*
G36*
X2762064Y2439516D02*
X2761914D01*
Y2439366D01*
X2762064D01*
Y2439516D01*
D02*
G37*
%LPD*%
D10*
X1240044Y2982827D02*
G03*
X1286301Y2982721I23176J20492D01*
G01*
X1687572Y2304104D02*
G03*
X1687679Y2350361I-20492J23176D01*
G01*
X843426Y889242D02*
G03*
X797169Y889349I-23176J-20492D01*
G01*
X2992926Y495242D02*
G03*
X2946669Y495349I-23176J-20492D01*
G01*
X3103766Y261162D02*
G03*
X3057509Y261269I-23176J-20492D01*
G01*
X2819286Y382012D02*
G03*
X2773029Y382119I-23176J-20492D01*
G01*
X2905646Y384552D02*
G03*
X2859389Y384659I-23176J-20492D01*
G01*
X739664Y2962508D02*
G03*
X785921Y2962401I23176J20492D01*
G01*
X739664Y2847808D02*
G03*
X785921Y2847701I23176J20492D01*
G01*
X1240044Y2571147D02*
G03*
X1286301Y2571041I23176J20492D01*
G01*
X1240044Y2694337D02*
G03*
X1286301Y2694231I23176J20492D01*
G01*
X1240044Y2835508D02*
G03*
X1286301Y2835401I23176J20492D01*
G01*
X739664Y2633378D02*
G03*
X785921Y2633271I23176J20492D01*
G01*
D11*
X1294720Y3003320D02*
G03*
X1294720Y3003320I-31500J0D01*
G01*
X1698580Y2327280D02*
G03*
X1698580Y2327280I-31500J0D01*
G01*
X851750Y868750D02*
G03*
X851750Y868750I-31500J0D01*
G01*
X3001250Y474750D02*
G03*
X3001250Y474750I-31500J0D01*
G01*
X3112090Y240670D02*
G03*
X3112090Y240670I-31500J0D01*
G01*
X2827610Y361520D02*
G03*
X2827610Y361520I-31500J0D01*
G01*
X2913970Y364060D02*
G03*
X2913970Y364060I-31500J0D01*
G01*
X794340Y2983000D02*
G03*
X794340Y2983000I-31500J0D01*
G01*
Y2868300D02*
G03*
X794340Y2868300I-31500J0D01*
G01*
X1294720Y2591640D02*
G03*
X1294720Y2591640I-31500J0D01*
G01*
Y2714830D02*
G03*
X1294720Y2714830I-31500J0D01*
G01*
Y2856000D02*
G03*
X1294720Y2856000I-31500J0D01*
G01*
X794340Y2653870D02*
G03*
X794340Y2653870I-31500J0D01*
G01*
X2596000Y351500D02*
X2649000D01*
X2596000D02*
Y510500D01*
X2649000D01*
Y351500D02*
Y510500D01*
X2596000Y571500D02*
X2649000D01*
X2596000D02*
Y730500D01*
X2649000D01*
Y571500D02*
Y730500D01*
X2596000Y791500D02*
X2649000D01*
X2596000D02*
Y950500D01*
X2649000D01*
Y791500D02*
Y950500D01*
Y1011500D02*
Y1170500D01*
X2596000D02*
X2649000D01*
X2596000Y1011500D02*
Y1170500D01*
Y1011500D02*
X2649000D01*
Y1431500D02*
Y1590500D01*
X2596000D02*
X2649000D01*
X2596000Y1431500D02*
Y1590500D01*
Y1431500D02*
X2649000D01*
X2596000Y1651500D02*
X2649000D01*
X2596000D02*
Y1810500D01*
X2649000D01*
Y1651500D02*
Y1810500D01*
X2596000Y1871500D02*
X2649000D01*
X2596000D02*
Y2030500D01*
X2649000D01*
Y1871500D02*
Y2030500D01*
X1269730Y1709860D02*
X1369730D01*
X1269730Y1659860D02*
X1369730D01*
X1269730D02*
Y1709860D01*
X1369730Y1659860D02*
Y1709860D01*
X1181780Y1659860D02*
Y1709860D01*
X1081780Y1659860D02*
Y1709860D01*
Y1659860D02*
X1181780D01*
X1081780Y1709860D02*
X1181780D01*
X2603980Y3075510D02*
X2990980D01*
X2603980Y3126310D02*
X2990980D01*
X2603980Y3075510D02*
Y3126310D01*
X2990980Y3075510D02*
Y3126310D01*
X3086400Y1629690D02*
Y2271690D01*
X3035600Y1629690D02*
Y2271690D01*
X3086400D01*
X3035600Y1629690D02*
X3086400D01*
Y747300D02*
Y1134300D01*
X3035600Y747300D02*
Y1134300D01*
X3086400D01*
X3035600Y747300D02*
X3086400D01*
X373000Y1331770D02*
X426000D01*
Y1172770D02*
Y1331770D01*
X373000Y1172770D02*
X426000D01*
X373000D02*
Y1331770D01*
Y2531770D02*
X426000D01*
Y2372770D02*
Y2531770D01*
X373000Y2372770D02*
X426000D01*
X373000D02*
Y2531770D01*
Y2331770D02*
X426000D01*
Y2172770D02*
Y2331770D01*
X373000Y2172770D02*
X426000D01*
X373000D02*
Y2331770D01*
Y1531770D02*
X426000D01*
Y1372770D02*
Y1531770D01*
X373000Y1372770D02*
X426000D01*
X373000D02*
Y1531770D01*
Y731770D02*
X426000D01*
Y572770D02*
Y731770D01*
X373000Y572770D02*
X426000D01*
X373000D02*
Y731770D01*
Y331770D02*
X426000D01*
Y172770D02*
Y331770D01*
X373000Y172770D02*
X426000D01*
X373000D02*
Y331770D01*
Y1131770D02*
X426000D01*
Y972770D02*
Y1131770D01*
X373000Y972770D02*
X426000D01*
X373000D02*
Y1131770D01*
Y1931770D02*
X426000D01*
Y1772770D02*
Y1931770D01*
X373000Y1772770D02*
X426000D01*
X373000D02*
Y1931770D01*
Y1731770D02*
X426000D01*
Y1572770D02*
Y1731770D01*
X373000Y1572770D02*
X426000D01*
X373000D02*
Y1731770D01*
Y531770D02*
X426000D01*
Y372770D02*
Y531770D01*
X373000Y372770D02*
X426000D01*
X373000D02*
Y531770D01*
Y931770D02*
X426000D01*
Y772770D02*
Y931770D01*
X373000Y772770D02*
X426000D01*
X373000D02*
Y931770D01*
Y2131770D02*
X426000D01*
Y1972770D02*
Y2131770D01*
X373000Y1972770D02*
X426000D01*
X373000D02*
Y2131770D01*
D12*
X2646000Y356000D02*
G03*
X2646000Y356000I-1000J0D01*
G01*
Y576000D02*
G03*
X2646000Y576000I-1000J0D01*
G01*
Y796000D02*
G03*
X2646000Y796000I-1000J0D01*
G01*
Y1016000D02*
G03*
X2646000Y1016000I-1000J0D01*
G01*
Y1436000D02*
G03*
X2646000Y1436000I-1000J0D01*
G01*
Y1656000D02*
G03*
X2646000Y1656000I-1000J0D01*
G01*
Y1876000D02*
G03*
X2646000Y1876000I-1000J0D01*
G01*
X2598590Y3088210D02*
G03*
X2598590Y3088210I-1000J0D01*
G01*
X3074700Y2278080D02*
G03*
X3074700Y2278080I-1000J0D01*
G01*
Y1140690D02*
G03*
X3074700Y1140690I-1000J0D01*
G01*
X378000Y1327270D02*
G03*
X378000Y1327270I-1000J0D01*
G01*
Y2527270D02*
G03*
X378000Y2527270I-1000J0D01*
G01*
Y2327270D02*
G03*
X378000Y2327270I-1000J0D01*
G01*
Y1527270D02*
G03*
X378000Y1527270I-1000J0D01*
G01*
Y727270D02*
G03*
X378000Y727270I-1000J0D01*
G01*
Y327270D02*
G03*
X378000Y327270I-1000J0D01*
G01*
Y1127270D02*
G03*
X378000Y1127270I-1000J0D01*
G01*
Y1927270D02*
G03*
X378000Y1927270I-1000J0D01*
G01*
Y1727270D02*
G03*
X378000Y1727270I-1000J0D01*
G01*
Y527270D02*
G03*
X378000Y527270I-1000J0D01*
G01*
Y927270D02*
G03*
X378000Y927270I-1000J0D01*
G01*
Y2127270D02*
G03*
X378000Y2127270I-1000J0D01*
G01*
X2985340Y2637322D02*
X3010740D01*
Y2581522D02*
Y2637322D01*
X2985340Y2581522D02*
X3010740D01*
X2985340D02*
Y2637322D01*
X123301Y2988700D02*
X179102D01*
X123301Y2963300D02*
Y2988700D01*
Y2963300D02*
X179102D01*
Y2988700D01*
D13*
X1511880Y1905840D02*
G03*
X1511880Y1905840I-175000J0D01*
G01*
X1159620Y2191590D02*
G03*
X1159620Y2191590I-175000J0D01*
G01*
X2144880Y1519580D02*
G03*
X1544880Y1519580I-300000J-179706D01*
G01*
Y1179580D02*
G03*
X2144880Y1179580I300000J179706D01*
G01*
X1533940Y2272870D02*
G03*
X1533940Y2272870I-175000J0D01*
G01*
X1102940Y1832180D02*
G03*
X1102940Y1832180I-175000J0D01*
G01*
X1369710Y1195280D02*
Y1495280D01*
X869710Y1195280D02*
Y1495280D01*
Y1195280D02*
X1369710D01*
X869710Y1495280D02*
X1369710D01*
X2115350Y1711580D02*
Y2211580D01*
X1715350Y1711580D02*
Y2211580D01*
X2115350D01*
X1715350Y1711580D02*
X2115350D01*
X1915350D02*
Y2211580D01*
X1556380Y333270D02*
X1816380D01*
X1556380Y633270D02*
X1816380D01*
X1556380Y333270D02*
Y633270D01*
X1816380Y333270D02*
Y633270D01*
X2216380Y2368600D02*
Y2768600D01*
X2616380Y2368600D02*
Y2768600D01*
X2216380D02*
X2616380D01*
X2216380Y2368600D02*
X2616380D01*
X1328880Y2001729D02*
X1343271D01*
X1336021Y1993840D02*
X1336021Y2008907D01*
X976620Y2287479D02*
X991011D01*
X983761Y2279590D02*
X983761Y2294657D01*
X1539880Y1639580D02*
X2149880D01*
X1539880Y1059580D02*
X2149880D01*
X1539880D02*
Y1639580D01*
X2149880Y1059580D02*
Y1639580D01*
X1544880Y1179580D02*
Y1519580D01*
X2144880Y1179580D02*
Y1519580D01*
X1350940Y2368759D02*
X1365331D01*
X1358081Y2360870D02*
X1358081Y2375937D01*
X1023829Y1825789D02*
Y1840180D01*
X1015940Y1833039D02*
X1031007Y1833039D01*
X2761250Y2884500D02*
X2791240D01*
X2781243Y2874503D01*
X2791240Y2864507D01*
X2761250D01*
Y2854510D02*
X2781243D01*
X2791240Y2844513D01*
X2781243Y2834516D01*
X2761250D01*
X2776245D01*
Y2854510D01*
X2791240Y2824519D02*
Y2814523D01*
Y2819521D01*
X2761250D01*
Y2824519D01*
Y2814523D01*
Y2799528D02*
X2791240D01*
X2761250Y2779534D01*
X2791240D01*
X2776245Y2769537D02*
Y2749544D01*
X2791240Y2739547D02*
X2771247D01*
X2761250Y2729550D01*
X2771247Y2719554D01*
X2791240D01*
X2761250Y2709557D02*
Y2699560D01*
Y2704558D01*
X2791240D01*
X2786242Y2709557D01*
X2761250Y2684565D02*
X2766248D01*
Y2679566D01*
X2761250D01*
Y2684565D01*
X2786242Y2659573D02*
X2791240Y2654574D01*
Y2644578D01*
X2786242Y2639579D01*
X2766248D01*
X2761250Y2644578D01*
Y2654574D01*
X2766248Y2659573D01*
X2786242D01*
X2824750Y2933500D02*
X2854740D01*
Y2918505D01*
X2849742Y2913506D01*
X2839745D01*
X2834747Y2918505D01*
Y2933500D01*
Y2923503D02*
X2824750Y2913506D01*
X2854740Y2903510D02*
X2824750D01*
Y2888515D01*
X2829748Y2883516D01*
X2849742D01*
X2854740Y2888515D01*
Y2903510D01*
X2824750Y2873519D02*
X2829748D01*
Y2868521D01*
X2824750D01*
Y2873519D01*
X2854740Y2848528D02*
Y2838531D01*
Y2843529D01*
X2824750D01*
Y2848528D01*
Y2838531D01*
Y2823535D02*
X2854740D01*
X2824750Y2803542D01*
X2854740D01*
Y2793545D02*
X2834747D01*
X2824750Y2783549D01*
X2834747Y2773552D01*
X2854740D01*
X2824750Y2763555D02*
X2829748D01*
Y2758557D01*
X2824750D01*
Y2763555D01*
X2854740Y2723568D02*
Y2733565D01*
X2849742Y2738563D01*
X2829748D01*
X2824750Y2733565D01*
Y2723568D01*
X2829748Y2718570D01*
X2849742D01*
X2854740Y2723568D01*
X2849742Y2688579D02*
X2854740Y2693578D01*
Y2703575D01*
X2849742Y2708573D01*
X2829748D01*
X2824750Y2703575D01*
Y2693578D01*
X2829748Y2688579D01*
X2839745D01*
Y2698576D01*
X2854740Y2658589D02*
Y2678582D01*
X2839745D01*
X2844743Y2668586D01*
Y2663587D01*
X2839745Y2658589D01*
X2829748D01*
X2824750Y2663587D01*
Y2673584D01*
X2829748Y2678582D01*
X2854740Y2648592D02*
X2824750D01*
X2834747D01*
X2854740Y2628599D01*
X2839745Y2643594D01*
X2824750Y2628599D01*
X1663839Y2065247D02*
Y2045253D01*
X1677168D01*
X1697161D02*
X1683832D01*
X1697161Y2058582D01*
Y2061915D01*
X1693829Y2065247D01*
X1687164D01*
X1683832Y2061915D01*
X1546921Y1673997D02*
X1560250D01*
X1553586D01*
Y1654003D01*
X1566915D02*
X1573579D01*
X1570247D01*
Y1673997D01*
X1566915Y1670665D01*
X777090Y1661165D02*
X773758Y1664497D01*
X767094D01*
X763761Y1661165D01*
Y1647836D01*
X767094Y1644503D01*
X773758D01*
X777090Y1647836D01*
X783755Y1644503D02*
X790419D01*
X787087D01*
Y1664497D01*
X783755Y1661165D01*
X810413Y1644503D02*
Y1664497D01*
X800416Y1654500D01*
X813745D01*
X830406Y1644503D02*
Y1664497D01*
X820410Y1654500D01*
X833739D01*
X1492090Y1766165D02*
X1488758Y1769497D01*
X1482094D01*
X1478761Y1766165D01*
Y1752836D01*
X1482094Y1749503D01*
X1488758D01*
X1492090Y1752836D01*
X1498755Y1749503D02*
X1505419D01*
X1502087D01*
Y1769497D01*
X1498755Y1766165D01*
X1525413Y1749503D02*
Y1769497D01*
X1515416Y1759500D01*
X1528745D01*
X1535410Y1766165D02*
X1538742Y1769497D01*
X1545406D01*
X1548739Y1766165D01*
Y1762832D01*
X1545406Y1759500D01*
X1542074D01*
X1545406D01*
X1548739Y1756168D01*
Y1752836D01*
X1545406Y1749503D01*
X1538742D01*
X1535410Y1752836D01*
X1497587Y2119664D02*
X1494255Y2122997D01*
X1487590D01*
X1484258Y2119664D01*
Y2106335D01*
X1487590Y2103003D01*
X1494255D01*
X1497587Y2106335D01*
X1504252Y2103003D02*
X1510916D01*
X1507584D01*
Y2122997D01*
X1504252Y2119664D01*
X1534242Y2122997D02*
X1527577Y2119664D01*
X1520913Y2113000D01*
Y2106335D01*
X1524245Y2103003D01*
X1530910D01*
X1534242Y2106335D01*
Y2109668D01*
X1530910Y2113000D01*
X1520913D01*
X785337Y2086915D02*
X782005Y2090247D01*
X775340D01*
X772008Y2086915D01*
Y2073586D01*
X775340Y2070253D01*
X782005D01*
X785337Y2073586D01*
X792002Y2070253D02*
X798666D01*
X795334D01*
Y2090247D01*
X792002Y2086915D01*
X821992Y2090247D02*
X808663D01*
Y2080250D01*
X815327Y2083582D01*
X818660D01*
X821992Y2080250D01*
Y2073586D01*
X818660Y2070253D01*
X811995D01*
X808663Y2073586D01*
X1483268Y99995D02*
Y70005D01*
X1498263D01*
X1503261Y75003D01*
Y80002D01*
X1498263Y85000D01*
X1483268D01*
X1498263D01*
X1503261Y89998D01*
Y94997D01*
X1498263Y99995D01*
X1483268D01*
X1513258Y70005D02*
Y89998D01*
X1523255Y99995D01*
X1533252Y89998D01*
Y70005D01*
Y85000D01*
X1513258D01*
X1543248Y99995D02*
X1563242D01*
X1553245D01*
Y70005D01*
X1573239Y85000D02*
X1593232D01*
X1583235Y94997D02*
Y75003D01*
X898906Y3004748D02*
X912235D01*
X905571D01*
Y2984754D01*
X932229D02*
X918900D01*
X932229Y2998083D01*
Y3001415D01*
X928896Y3004748D01*
X922232D01*
X918900Y3001415D01*
X1851914Y2926253D02*
Y2946247D01*
X1865243Y2926253D01*
Y2946247D01*
X1885237D02*
X1871908D01*
Y2926253D01*
X1885237D01*
X1871908Y2936250D02*
X1878572D01*
X1905230Y2942914D02*
X1901898Y2946247D01*
X1895233D01*
X1891901Y2942914D01*
Y2929586D01*
X1895233Y2926253D01*
X1901898D01*
X1905230Y2929586D01*
Y2936250D01*
X1898566D01*
X1667598Y2837913D02*
Y2817919D01*
X1680927D01*
X1700921Y2837913D02*
X1687592D01*
Y2827916D01*
X1694256Y2831248D01*
X1697589D01*
X1700921Y2827916D01*
Y2821252D01*
X1697589Y2817919D01*
X1690924D01*
X1687592Y2821252D01*
X1707585Y2814587D02*
X1720914D01*
X1727579Y2817919D02*
Y2837913D01*
X1737576D01*
X1740908Y2834581D01*
Y2827916D01*
X1737576Y2824584D01*
X1727579D01*
X1747573Y2837913D02*
Y2824584D01*
X1754237Y2817919D01*
X1760902Y2824584D01*
Y2837913D01*
X1121095Y2506497D02*
Y2486503D01*
X1131092D01*
X1134424Y2489836D01*
Y2493168D01*
X1131092Y2496500D01*
X1121095D01*
X1131092D01*
X1134424Y2499832D01*
Y2503165D01*
X1131092Y2506497D01*
X1121095D01*
X1141089D02*
Y2489836D01*
X1144421Y2486503D01*
X1151086D01*
X1154418Y2489836D01*
Y2506497D01*
X1174411Y2503165D02*
X1171079Y2506497D01*
X1164415D01*
X1161082Y2503165D01*
Y2499832D01*
X1164415Y2496500D01*
X1171079D01*
X1174411Y2493168D01*
Y2489836D01*
X1171079Y2486503D01*
X1164415D01*
X1161082Y2489836D01*
X1181076Y2496500D02*
X1194405D01*
X1187740Y2503165D02*
Y2489836D01*
X1769339Y316247D02*
Y296253D01*
X1782668D01*
X1802661Y316247D02*
X1795997Y312915D01*
X1789332Y306250D01*
Y299585D01*
X1792664Y296253D01*
X1799329D01*
X1802661Y299585D01*
Y302918D01*
X1799329Y306250D01*
X1789332D01*
X2220589Y2804247D02*
Y2784253D01*
X2233918D01*
X2253911Y2804247D02*
X2240582D01*
Y2794250D01*
X2247247Y2797582D01*
X2250579D01*
X2253911Y2794250D01*
Y2787585D01*
X2250579Y2784253D01*
X2243914D01*
X2240582Y2787585D01*
X920421Y1167247D02*
Y1147253D01*
X933750D01*
X940415D02*
X947079D01*
X943747D01*
Y1167247D01*
X940415Y1163914D01*
X2184654Y2925572D02*
Y2938901D01*
X2191319Y2945565D01*
X2197983Y2938901D01*
Y2925572D01*
Y2935569D01*
X2184654D01*
X2217977Y2942233D02*
X2214644Y2945565D01*
X2207980D01*
X2204648Y2942233D01*
Y2928904D01*
X2207980Y2925572D01*
X2214644D01*
X2217977Y2928904D01*
X2224641Y2922240D02*
X2237970D01*
X2244635Y2925572D02*
Y2945565D01*
X2257964Y2925572D01*
Y2945565D01*
X2009394Y2925572D02*
Y2938901D01*
X2016059Y2945565D01*
X2022723Y2938901D01*
Y2925572D01*
Y2935569D01*
X2009394D01*
X2042717Y2942233D02*
X2039384Y2945565D01*
X2032720D01*
X2029388Y2942233D01*
Y2928904D01*
X2032720Y2925572D01*
X2039384D01*
X2042717Y2928904D01*
X2049381Y2922240D02*
X2062710D01*
X2069375Y2945565D02*
Y2925572D01*
X2082704D01*
X785168Y253915D02*
X781835Y257247D01*
X775171D01*
X771839Y253915D01*
Y240585D01*
X775171Y237253D01*
X781835D01*
X785168Y240585D01*
X791832Y257247D02*
X805161D01*
Y253915D01*
X791832Y240585D01*
Y237253D01*
X1822518Y99995D02*
Y70005D01*
X1837513D01*
X1842511Y75003D01*
Y80002D01*
X1837513Y85000D01*
X1822518D01*
X1837513D01*
X1842511Y89998D01*
Y94997D01*
X1837513Y99995D01*
X1822518D01*
X1852508Y70005D02*
Y89998D01*
X1862505Y99995D01*
X1872502Y89998D01*
Y70005D01*
Y85000D01*
X1852508D01*
X1882498Y99995D02*
X1902492D01*
X1892495D01*
Y70005D01*
X1912489Y85000D02*
X1932482D01*
D14*
X1907430Y652940D02*
X2082430D01*
X1907430Y567940D02*
X2082430D01*
X1907430D02*
Y652940D01*
X2082430Y567940D02*
Y652940D01*
Y783840D02*
Y868840D01*
X1907430Y783840D02*
Y868840D01*
Y783840D02*
X2082430D01*
X1907430Y868840D02*
X2082430D01*
X1724170Y783840D02*
Y868840D01*
X1899170Y783840D02*
Y868840D01*
X1724170D02*
X1899170D01*
X1724170Y783840D02*
X1899170D01*
X1724170Y675890D02*
X1899170D01*
X1724170Y760890D02*
X1899170D01*
Y675890D02*
Y760890D01*
X1724170Y675890D02*
Y760890D01*
X1907430Y760890D02*
X2082430D01*
X1907430Y675890D02*
X2082430D01*
X1907430D02*
Y760890D01*
X2082430Y675890D02*
Y760890D01*
X1541670D02*
X1716670D01*
X1541670Y675890D02*
X1716670D01*
X1541670D02*
Y760890D01*
X1716670Y675890D02*
Y760890D01*
X1541670Y870110D02*
X1716670D01*
X1541670Y785110D02*
X1716670D01*
X1541670D02*
Y870110D01*
X1716670Y785110D02*
Y870110D01*
X1621850Y201100D02*
X1756850D01*
X1621850Y148100D02*
X1756850D01*
X1621850D02*
Y201100D01*
X1756850Y148100D02*
Y201100D01*
X1621760Y137600D02*
X1756760D01*
X1621760Y84600D02*
X1756760D01*
X1621760D02*
Y137600D01*
X1756760Y84600D02*
Y137600D01*
X2169600Y134680D02*
Y269680D01*
X2116600Y134680D02*
Y269680D01*
X2169600D01*
X2116600Y134680D02*
X2169600D01*
X2082430Y893060D02*
Y978060D01*
X1907430Y893060D02*
Y978060D01*
Y893060D02*
X2082430D01*
X1907430Y978060D02*
X2082430D01*
X1724550Y893060D02*
Y978060D01*
X1899550Y893060D02*
Y978060D01*
X1724550D02*
X1899550D01*
X1724550Y893060D02*
X1899550D01*
X1716670Y893740D02*
Y978740D01*
X1541670Y893740D02*
Y978740D01*
Y893740D02*
X1716670D01*
X1541670Y978740D02*
X1716670D01*
X2034050Y134680D02*
X2087050D01*
X2034050Y269680D02*
X2087050D01*
X2034050Y134680D02*
Y269680D01*
X2087050Y134680D02*
Y269680D01*
D15*
X876886Y732614D02*
X983250D01*
X1098628D02*
Y869266D01*
X1082850D02*
X1098628D01*
X876886Y732614D02*
Y869266D01*
X1082850Y732614D02*
X1098628D01*
X876886Y869266D02*
X983250D01*
X1832750Y2392504D02*
X1939114D01*
X1717372Y2255852D02*
Y2392504D01*
Y2255852D02*
X1733150D01*
X1939114D02*
Y2392504D01*
X1717372D02*
X1733150D01*
X1832750Y2255852D02*
X1939114D01*
D16*
X779610Y687090D02*
X1129610D01*
X779610Y267090D02*
X1129610D01*
Y687090D01*
X779610Y267090D02*
Y687090D01*
X1155670Y235960D02*
X1205670D01*
X1155670Y415960D02*
X1205670D01*
X1155670Y235960D02*
Y415960D01*
X1205670Y235960D02*
Y415960D01*
X3016470Y429530D02*
X3166470D01*
X3016470Y299530D02*
X3166470D01*
X3016470D02*
Y429530D01*
X3166470Y299530D02*
Y429530D01*
X3014780Y48310D02*
Y198310D01*
X2884780Y48310D02*
Y198310D01*
X3014780D01*
X2884780Y48310D02*
X3014780D01*
X1159930Y1061880D02*
X1424930D01*
X1159930Y976880D02*
X1424930D01*
X1159930D02*
Y1061880D01*
X1424930Y976880D02*
Y1061880D01*
X1798800Y2768950D02*
X2113800D01*
X1798800Y2548950D02*
X2113800D01*
X1798800D02*
Y2768950D01*
X2113800Y2548950D02*
Y2768950D01*
X895480Y2663170D02*
X1145480D01*
X895480Y2973170D02*
X1145480D01*
Y2663170D02*
Y2973170D01*
X895480Y2663170D02*
Y2973170D01*
X2491310Y2029000D02*
X2590370D01*
X2491310D02*
X2539045D01*
X2491310Y1431500D02*
X2590370D01*
X2491310D02*
X2531000D01*
Y1170500D02*
X2590370D01*
X2491310D02*
X2531000D01*
X2491310Y351500D02*
X2590370D01*
X2491310D02*
X2531000D01*
X431370Y2531770D02*
X530430D01*
X431370D02*
X473000D01*
X221000Y2611000D02*
X731000D01*
X221000Y92270D02*
X731000D01*
X431000Y172270D02*
X531000D01*
X2591000Y91000D02*
X2801000D01*
X2491000D02*
X2591000D01*
X2291000D02*
X2491000D01*
X2591000Y2311000D02*
X2801000D01*
X2491000D02*
X2591000D01*
X2291000D02*
X2491000D01*
X2801000Y91000D02*
Y2311000D01*
X2591000Y91000D02*
Y2311000D01*
X2491000Y91000D02*
Y2311000D01*
X2291000Y91000D02*
Y2311000D01*
X531000Y92280D02*
X531000Y2611000D01*
X221000D02*
X221000Y212270D01*
X431000Y92280D02*
X431000Y2611000D01*
X221000Y92270D02*
Y212270D01*
X731000Y92270D02*
Y212270D01*
X731000Y2611000D01*
X2050450Y2444720D02*
Y2494720D01*
X1870450Y2444720D02*
Y2494720D01*
Y2444720D02*
X2050450D01*
X1870450Y2494720D02*
X2050450D01*
X1424930Y854537D02*
Y939537D01*
X1159930Y854537D02*
Y939537D01*
Y854537D02*
X1424930D01*
X1159930Y939537D02*
X1424930D01*
Y732193D02*
Y817193D01*
X1159930Y732193D02*
Y817193D01*
Y732193D02*
X1424930D01*
X1159930Y817193D02*
X1424930D01*
Y609850D02*
Y694850D01*
X1159930Y609850D02*
Y694850D01*
Y609850D02*
X1424930D01*
X1159930Y694850D02*
X1424930D01*
X1969510Y2259300D02*
Y2309300D01*
X2149510Y2259300D02*
Y2309300D01*
X1969510D02*
X2149510D01*
X1969510Y2259300D02*
X2149510D01*
D17*
X1263200Y364650D02*
Y421850D01*
X1389000D01*
Y364650D02*
Y421850D01*
X1263200Y364650D02*
X1389000D01*
D18*
X597486Y2732356D02*
X605106D01*
Y2745056D01*
X597486D02*
X605106D01*
X597994Y2770964D02*
X605614D01*
Y2783664D01*
X597994D02*
X605614D01*
X644730Y2726260D02*
Y2789760D01*
X596470Y2726260D02*
X644730D01*
X596470D02*
Y2789760D01*
X644730D01*
D19*
X2613667Y3146999D02*
X2611001D01*
X2612334D01*
Y3140334D01*
X2611001Y3139001D01*
X2609668D01*
X2608336Y3140334D01*
X2616333Y3145666D02*
X2617666Y3146999D01*
X2620332D01*
X2621664Y3145666D01*
Y3144333D01*
X2620332Y3143000D01*
X2618999D01*
X2620332D01*
X2621664Y3141667D01*
Y3140334D01*
X2620332Y3139001D01*
X2617666D01*
X2616333Y3140334D01*
X1408418Y387251D02*
Y395249D01*
X1412417D01*
X1413750Y393916D01*
Y391250D01*
X1412417Y389917D01*
X1408418D01*
X1416416Y387251D02*
X1419082D01*
X1417749D01*
Y395249D01*
X1416416Y393916D01*
X3082336Y449749D02*
X3087667D01*
X3085001D01*
Y441751D01*
X3090333Y448416D02*
X3091666Y449749D01*
X3094332D01*
X3095664Y448416D01*
Y447083D01*
X3094332Y445750D01*
X3092999D01*
X3094332D01*
X3095664Y444417D01*
Y443084D01*
X3094332Y441751D01*
X3091666D01*
X3090333Y443084D01*
X3028920Y77499D02*
Y69501D01*
X3032918D01*
X3034251Y70834D01*
Y72167D01*
X3032918Y73500D01*
X3028920D01*
X3032918D01*
X3034251Y74833D01*
Y76166D01*
X3032918Y77499D01*
X3028920D01*
X3036917D02*
X3042249D01*
X3039583D01*
Y69501D01*
X3044915D02*
X3047580D01*
X3046248D01*
Y77499D01*
X3044915Y76166D01*
X1718056Y2415917D02*
Y2409253D01*
X1719389Y2407920D01*
X1722055D01*
X1723388Y2409253D01*
Y2415917D01*
X1726053Y2414585D02*
X1727386Y2415917D01*
X1730052D01*
X1731385Y2414585D01*
Y2413252D01*
X1730052Y2411919D01*
X1731385Y2410586D01*
Y2409253D01*
X1730052Y2407920D01*
X1727386D01*
X1726053Y2409253D01*
Y2410586D01*
X1727386Y2411919D01*
X1726053Y2413252D01*
Y2414585D01*
X1727386Y2411919D02*
X1730052D01*
X2073837Y2376751D02*
Y2384749D01*
X2077836D01*
X2079168Y2383416D01*
Y2380750D01*
X2077836Y2379417D01*
X2073837D01*
X2087166Y2384749D02*
X2081834D01*
Y2376751D01*
X2087166D01*
X2081834Y2380750D02*
X2084500D01*
X2089832Y2383416D02*
X2091165Y2384749D01*
X2093830D01*
X2095163Y2383416D01*
Y2382083D01*
X2093830Y2380750D01*
X2092497D01*
X2093830D01*
X2095163Y2379417D01*
Y2378084D01*
X2093830Y2376751D01*
X2091165D01*
X2089832Y2378084D01*
X3019086Y473166D02*
X3017753Y474499D01*
X3015087D01*
X3013755Y473166D01*
Y467834D01*
X3015087Y466501D01*
X3017753D01*
X3019086Y467834D01*
X3021752Y466501D02*
X3024418D01*
X3023085D01*
Y474499D01*
X3021752Y473166D01*
X3028416D02*
X3029749Y474499D01*
X3032415D01*
X3033748Y473166D01*
Y471833D01*
X3032415Y470500D01*
X3031082D01*
X3032415D01*
X3033748Y469167D01*
Y467834D01*
X3032415Y466501D01*
X3029749D01*
X3028416Y467834D01*
X3036414Y473166D02*
X3037747Y474499D01*
X3040413D01*
X3041746Y473166D01*
Y471833D01*
X3040413Y470500D01*
X3041746Y469167D01*
Y467834D01*
X3040413Y466501D01*
X3037747D01*
X3036414Y467834D01*
Y469167D01*
X3037747Y470500D01*
X3036414Y471833D01*
Y473166D01*
X3037747Y470500D02*
X3040413D01*
X2610114Y1607693D02*
Y1599696D01*
X2614113D01*
X2615446Y1601029D01*
Y1606360D01*
X2614113Y1607693D01*
X2610114D01*
X2618111Y1606360D02*
X2619444Y1607693D01*
X2622110D01*
X2623443Y1606360D01*
Y1605028D01*
X2622110Y1603695D01*
X2623443Y1602362D01*
Y1601029D01*
X2622110Y1599696D01*
X2619444D01*
X2618111Y1601029D01*
Y1602362D01*
X2619444Y1603695D01*
X2618111Y1605028D01*
Y1606360D01*
X2619444Y1603695D02*
X2622110D01*
X2610114Y1827657D02*
Y1822326D01*
X2612780Y1819660D01*
X2615446Y1822326D01*
Y1827657D01*
X2618111Y1819660D02*
X2620777D01*
X2619444D01*
Y1827657D01*
X2618111Y1826324D01*
X2624776D02*
X2626109Y1827657D01*
X2628775D01*
X2630107Y1826324D01*
Y1820993D01*
X2628775Y1819660D01*
X2626109D01*
X2624776Y1820993D01*
Y1826324D01*
X371856Y2549013D02*
Y2543682D01*
X374522Y2541016D01*
X377188Y2543682D01*
Y2549013D01*
X379853D02*
X385185D01*
Y2547681D01*
X379853Y2542349D01*
Y2541016D01*
X371856Y1749167D02*
Y1743836D01*
X374522Y1741170D01*
X377188Y1743836D01*
Y1749167D01*
X379853Y1747834D02*
X381186Y1749167D01*
X383852D01*
X385185Y1747834D01*
Y1746502D01*
X383852Y1745169D01*
X385185Y1743836D01*
Y1742503D01*
X383852Y1741170D01*
X381186D01*
X379853Y1742503D01*
Y1743836D01*
X381186Y1745169D01*
X379853Y1746502D01*
Y1747834D01*
X381186Y1745169D02*
X383852D01*
X371856Y1949065D02*
Y1943734D01*
X374522Y1941068D01*
X377188Y1943734D01*
Y1949065D01*
X385185D02*
X379853D01*
Y1945067D01*
X382519Y1946400D01*
X383852D01*
X385185Y1945067D01*
Y1942401D01*
X383852Y1941068D01*
X381186D01*
X379853Y1942401D01*
X371856Y1149219D02*
Y1143888D01*
X374522Y1141222D01*
X377188Y1143888D01*
Y1149219D01*
X383852Y1141222D02*
Y1149219D01*
X379853Y1145221D01*
X385185D01*
X371856Y2349115D02*
Y2343784D01*
X374522Y2341118D01*
X377188Y2343784D01*
Y2349115D01*
X385185Y2341118D02*
X379853D01*
X385185Y2346450D01*
Y2347782D01*
X383852Y2349115D01*
X381186D01*
X379853Y2347782D01*
X371856Y1549015D02*
Y1543684D01*
X374522Y1541018D01*
X377188Y1543684D01*
Y1549015D01*
X379853Y1547682D02*
X381186Y1549015D01*
X383852D01*
X385185Y1547682D01*
Y1546350D01*
X383852Y1545017D01*
X382519D01*
X383852D01*
X385185Y1543684D01*
Y1542351D01*
X383852Y1541018D01*
X381186D01*
X379853Y1542351D01*
X371856Y1349117D02*
Y1343786D01*
X374522Y1341120D01*
X377188Y1343786D01*
Y1349117D01*
X379853Y1341120D02*
X382519D01*
X381186D01*
Y1349117D01*
X379853Y1347784D01*
X377188Y542353D02*
Y547685D01*
X375855Y549017D01*
X373189D01*
X371856Y547685D01*
Y542353D01*
X373189Y541020D01*
X375855D01*
X374522Y543686D02*
X377188Y541020D01*
X375855D02*
X377188Y542353D01*
X379853Y549017D02*
Y541020D01*
Y545019D01*
X385185D01*
Y549017D01*
Y541020D01*
X391850D02*
Y549017D01*
X387851Y545019D01*
X393182D01*
X377188Y942403D02*
Y947735D01*
X375855Y949067D01*
X373189D01*
X371856Y947735D01*
Y942403D01*
X373189Y941070D01*
X375855D01*
X374522Y943736D02*
X377188Y941070D01*
X375855D02*
X377188Y942403D01*
X379853Y949067D02*
Y941070D01*
Y945069D01*
X385185D01*
Y949067D01*
Y941070D01*
X387851Y947735D02*
X389184Y949067D01*
X391850D01*
X393182Y947735D01*
Y946402D01*
X391850Y945069D01*
X390517D01*
X391850D01*
X393182Y943736D01*
Y942403D01*
X391850Y941070D01*
X389184D01*
X387851Y942403D01*
X377188Y342455D02*
Y347786D01*
X375855Y349119D01*
X373189D01*
X371856Y347786D01*
Y342455D01*
X373189Y341122D01*
X375855D01*
X374522Y343788D02*
X377188Y341122D01*
X375855D02*
X377188Y342455D01*
X379853Y349119D02*
Y341122D01*
Y345121D01*
X385185D01*
Y349119D01*
Y341122D01*
X393182D02*
X387851D01*
X393182Y346454D01*
Y347786D01*
X391850Y349119D01*
X389184D01*
X387851Y347786D01*
X377188Y742505D02*
Y747837D01*
X375855Y749169D01*
X373189D01*
X371856Y747837D01*
Y742505D01*
X373189Y741172D01*
X375855D01*
X374522Y743838D02*
X377188Y741172D01*
X375855D02*
X377188Y742505D01*
X379853Y749169D02*
Y741172D01*
Y745171D01*
X385185D01*
Y749169D01*
Y741172D01*
X387851D02*
X390517D01*
X389184D01*
Y749169D01*
X387851Y747837D01*
X371856Y2149217D02*
Y2143886D01*
X374522Y2141220D01*
X377188Y2143886D01*
Y2149217D01*
X385185D02*
X382519Y2147885D01*
X379853Y2145219D01*
Y2142553D01*
X381186Y2141220D01*
X383852D01*
X385185Y2142553D01*
Y2143886D01*
X383852Y2145219D01*
X379853D01*
X2610114Y2047621D02*
Y2042290D01*
X2612780Y2039624D01*
X2615446Y2042290D01*
Y2047621D01*
X2618111Y2040957D02*
X2619444Y2039624D01*
X2622110D01*
X2623443Y2040957D01*
Y2046288D01*
X2622110Y2047621D01*
X2619444D01*
X2618111Y2046288D01*
Y2044956D01*
X2619444Y2043623D01*
X2623443D01*
X889918Y889499D02*
Y882834D01*
X891251Y881501D01*
X893917D01*
X895250Y882834D01*
Y889499D01*
X897916Y881501D02*
X900582D01*
X899249D01*
Y889499D01*
X897916Y888166D01*
X2615446Y1180913D02*
Y1186245D01*
X2614113Y1187577D01*
X2611447D01*
X2610114Y1186245D01*
Y1180913D01*
X2611447Y1179580D01*
X2614113D01*
X2612780Y1182246D02*
X2615446Y1179580D01*
X2614113D02*
X2615446Y1180913D01*
X2618111Y1187577D02*
Y1179580D01*
X2623443D01*
X2630107D02*
Y1187577D01*
X2626109Y1183579D01*
X2631440D01*
X2615446Y521021D02*
Y526353D01*
X2614113Y527685D01*
X2611447D01*
X2610114Y526353D01*
Y521021D01*
X2611447Y519688D01*
X2614113D01*
X2612780Y522354D02*
X2615446Y519688D01*
X2614113D02*
X2615446Y521021D01*
X2618111Y527685D02*
Y519688D01*
X2623443D01*
X2626109Y526353D02*
X2627442Y527685D01*
X2630107D01*
X2631440Y526353D01*
Y525020D01*
X2630107Y523687D01*
X2628775D01*
X2630107D01*
X2631440Y522354D01*
Y521021D01*
X2630107Y519688D01*
X2627442D01*
X2626109Y521021D01*
X2615446Y740985D02*
Y746317D01*
X2614113Y747649D01*
X2611447D01*
X2610114Y746317D01*
Y740985D01*
X2611447Y739652D01*
X2614113D01*
X2612780Y742318D02*
X2615446Y739652D01*
X2614113D02*
X2615446Y740985D01*
X2618111Y747649D02*
Y739652D01*
X2623443D01*
X2631440D02*
X2626109D01*
X2631440Y744984D01*
Y746317D01*
X2630107Y747649D01*
X2627442D01*
X2626109Y746317D01*
X2615446Y960949D02*
Y966281D01*
X2614113Y967613D01*
X2611447D01*
X2610114Y966281D01*
Y960949D01*
X2611447Y959616D01*
X2614113D01*
X2612780Y962282D02*
X2615446Y959616D01*
X2614113D02*
X2615446Y960949D01*
X2618111Y967613D02*
Y959616D01*
X2623443D01*
X2626109D02*
X2628775D01*
X2627442D01*
Y967613D01*
X2626109Y966281D01*
X2982588Y2653751D02*
Y2661749D01*
X2987920Y2653751D01*
Y2661749D01*
X2990586D02*
X2995917D01*
X2993251D01*
Y2653751D01*
X3003914Y2660416D02*
X3002582Y2661749D01*
X2999916D01*
X2998583Y2660416D01*
Y2655084D01*
X2999916Y2653751D01*
X3002582D01*
X3003914Y2655084D01*
X3011912Y2653751D02*
X3006580D01*
X3011912Y2659083D01*
Y2660416D01*
X3010579Y2661749D01*
X3007913D01*
X3006580Y2660416D01*
X123698Y2996184D02*
Y3004182D01*
X129030Y2996184D01*
Y3004182D01*
X131695D02*
X137027D01*
X134361D01*
Y2996184D01*
X145024Y3002849D02*
X143692Y3004182D01*
X141026D01*
X139693Y3002849D01*
Y2997517D01*
X141026Y2996184D01*
X143692D01*
X145024Y2997517D01*
X147690Y2996184D02*
X150356D01*
X149023D01*
Y3004182D01*
X147690Y3002849D01*
X3039615Y1157347D02*
X3036950D01*
X3038283D01*
Y1150683D01*
X3036950Y1149350D01*
X3035617D01*
X3034284Y1150683D01*
X3046280Y1149350D02*
Y1157347D01*
X3042281Y1153349D01*
X3047613D01*
X3039615Y2294759D02*
X3036950D01*
X3038283D01*
Y2288095D01*
X3036950Y2286762D01*
X3035617D01*
X3034284Y2288095D01*
X3047613Y2286762D02*
X3042281D01*
X3047613Y2292094D01*
Y2293427D01*
X3046280Y2294759D01*
X3043614D01*
X3042281Y2293427D01*
X592580Y2805299D02*
X589914D01*
X591247D01*
Y2798635D01*
X589914Y2797302D01*
X588581D01*
X587248Y2798635D01*
X595245Y2797302D02*
X597911D01*
X596578D01*
Y2805299D01*
X595245Y2803966D01*
X1660168Y2269666D02*
X1658835Y2270999D01*
X1656170D01*
X1654837Y2269666D01*
Y2264334D01*
X1656170Y2263001D01*
X1658835D01*
X1660168Y2264334D01*
X1668166Y2270999D02*
X1662834D01*
Y2263001D01*
X1668166D01*
X1662834Y2267000D02*
X1665500D01*
X1676163Y2263001D02*
X1670832D01*
X1676163Y2268333D01*
Y2269666D01*
X1674830Y2270999D01*
X1672164D01*
X1670832Y2269666D01*
X816501Y929166D02*
X815168Y930499D01*
X812503D01*
X811170Y929166D01*
Y923834D01*
X812503Y922501D01*
X815168D01*
X816501Y923834D01*
X824499Y930499D02*
X819167D01*
Y922501D01*
X824499D01*
X819167Y926500D02*
X821833D01*
X827165Y922501D02*
X829830D01*
X828497D01*
Y930499D01*
X827165Y929166D01*
X727454Y2709225D02*
X726121Y2710557D01*
X723455D01*
X722122Y2709225D01*
Y2703893D01*
X723455Y2702560D01*
X726121D01*
X727454Y2703893D01*
X735451Y2702560D02*
X730119D01*
X735451Y2707892D01*
Y2709225D01*
X734118Y2710557D01*
X731452D01*
X730119Y2709225D01*
X738117D02*
X739450Y2710557D01*
X742116D01*
X743448Y2709225D01*
Y2703893D01*
X742116Y2702560D01*
X739450D01*
X738117Y2703893D01*
Y2709225D01*
X746114D02*
X747447Y2710557D01*
X750113D01*
X751446Y2709225D01*
Y2707892D01*
X750113Y2706559D01*
X751446Y2705226D01*
Y2703893D01*
X750113Y2702560D01*
X747447D01*
X746114Y2703893D01*
Y2705226D01*
X747447Y2706559D01*
X746114Y2707892D01*
Y2709225D01*
X747447Y2706559D02*
X750113D01*
X1170920Y218416D02*
X1169587Y219749D01*
X1166921D01*
X1165588Y218416D01*
Y213084D01*
X1166921Y211751D01*
X1169587D01*
X1170920Y213084D01*
X1178917Y211751D02*
X1173586D01*
X1178917Y217083D01*
Y218416D01*
X1177584Y219749D01*
X1174918D01*
X1173586Y218416D01*
X1181583D02*
X1182916Y219749D01*
X1185582D01*
X1186915Y218416D01*
Y213084D01*
X1185582Y211751D01*
X1182916D01*
X1181583Y213084D01*
Y218416D01*
X1189580D02*
X1190913Y219749D01*
X1193579D01*
X1194912Y218416D01*
Y217083D01*
X1193579Y215750D01*
X1192246D01*
X1193579D01*
X1194912Y214417D01*
Y213084D01*
X1193579Y211751D01*
X1190913D01*
X1189580Y213084D01*
X727454Y2923600D02*
X726121Y2924933D01*
X723455D01*
X722122Y2923600D01*
Y2918269D01*
X723455Y2916936D01*
X726121D01*
X727454Y2918269D01*
X730119Y2916936D02*
X732785D01*
X731452D01*
Y2924933D01*
X730119Y2923600D01*
X736784Y2918269D02*
X738117Y2916936D01*
X740783D01*
X742116Y2918269D01*
Y2923600D01*
X740783Y2924933D01*
X738117D01*
X736784Y2923600D01*
Y2922267D01*
X738117Y2920935D01*
X742116D01*
X744781Y2923600D02*
X746114Y2924933D01*
X748780D01*
X750113Y2923600D01*
Y2922267D01*
X748780Y2920935D01*
X750113Y2919602D01*
Y2918269D01*
X748780Y2916936D01*
X746114D01*
X744781Y2918269D01*
Y2919602D01*
X746114Y2920935D01*
X744781Y2922267D01*
Y2923600D01*
X746114Y2920935D02*
X748780D01*
X2120644Y285557D02*
X2119311Y286889D01*
X2116645D01*
X2115312Y285557D01*
Y280225D01*
X2116645Y278892D01*
X2119311D01*
X2120644Y280225D01*
X2123309Y278892D02*
X2125975D01*
X2124642D01*
Y286889D01*
X2123309Y285557D01*
X2129974Y280225D02*
X2131307Y278892D01*
X2133973D01*
X2135306Y280225D01*
Y285557D01*
X2133973Y286889D01*
X2131307D01*
X2129974Y285557D01*
Y284224D01*
X2131307Y282891D01*
X2135306D01*
X2143303Y286889D02*
X2140637Y285557D01*
X2137971Y282891D01*
Y280225D01*
X2139304Y278892D01*
X2141970D01*
X2143303Y280225D01*
Y281558D01*
X2141970Y282891D01*
X2137971D01*
X2038094Y285557D02*
X2036761Y286889D01*
X2034095D01*
X2032762Y285557D01*
Y280225D01*
X2034095Y278892D01*
X2036761D01*
X2038094Y280225D01*
X2040759Y278892D02*
X2043425D01*
X2042092D01*
Y286889D01*
X2040759Y285557D01*
X2047424Y280225D02*
X2048757Y278892D01*
X2051423D01*
X2052756Y280225D01*
Y285557D01*
X2051423Y286889D01*
X2048757D01*
X2047424Y285557D01*
Y284224D01*
X2048757Y282891D01*
X2052756D01*
X2060753Y286889D02*
X2055421D01*
Y282891D01*
X2058087Y284224D01*
X2059420D01*
X2060753Y282891D01*
Y280225D01*
X2059420Y278892D01*
X2056754D01*
X2055421Y280225D01*
X1740919Y71916D02*
X1739586Y73249D01*
X1736920D01*
X1735587Y71916D01*
Y66584D01*
X1736920Y65251D01*
X1739586D01*
X1740919Y66584D01*
X1743585Y65251D02*
X1746251D01*
X1744918D01*
Y73249D01*
X1743585Y71916D01*
X1750249Y66584D02*
X1751582Y65251D01*
X1754248D01*
X1755581Y66584D01*
Y71916D01*
X1754248Y73249D01*
X1751582D01*
X1750249Y71916D01*
Y70583D01*
X1751582Y69250D01*
X1755581D01*
X1758247Y65251D02*
X1760913D01*
X1759580D01*
Y73249D01*
X1758247Y71916D01*
X727454Y3038409D02*
X726121Y3039742D01*
X723455D01*
X722122Y3038409D01*
Y3033077D01*
X723455Y3031744D01*
X726121D01*
X727454Y3033077D01*
X730119Y3031744D02*
X732785D01*
X731452D01*
Y3039742D01*
X730119Y3038409D01*
X736784D02*
X738117Y3039742D01*
X740783D01*
X742116Y3038409D01*
Y3037076D01*
X740783Y3035743D01*
X742116Y3034410D01*
Y3033077D01*
X740783Y3031744D01*
X738117D01*
X736784Y3033077D01*
Y3034410D01*
X738117Y3035743D01*
X736784Y3037076D01*
Y3038409D01*
X738117Y3035743D02*
X740783D01*
X750113Y3039742D02*
X747447Y3038409D01*
X744781Y3035743D01*
Y3033077D01*
X746114Y3031744D01*
X748780D01*
X750113Y3033077D01*
Y3034410D01*
X748780Y3035743D01*
X744781D01*
X2151336Y827916D02*
X2150003Y829249D01*
X2147337D01*
X2146004Y827916D01*
Y822584D01*
X2147337Y821251D01*
X2150003D01*
X2151336Y822584D01*
X2154002Y821251D02*
X2156668D01*
X2155335D01*
Y829249D01*
X2154002Y827916D01*
X2160667D02*
X2161999Y829249D01*
X2164665D01*
X2165998Y827916D01*
Y826583D01*
X2164665Y825250D01*
X2165998Y823917D01*
Y822584D01*
X2164665Y821251D01*
X2161999D01*
X2160667Y822584D01*
Y823917D01*
X2161999Y825250D01*
X2160667Y826583D01*
Y827916D01*
X2161999Y825250D02*
X2164665D01*
X2168664Y827916D02*
X2169997Y829249D01*
X2172663D01*
X2173996Y827916D01*
Y826583D01*
X2172663Y825250D01*
X2171330D01*
X2172663D01*
X2173996Y823917D01*
Y822584D01*
X2172663Y821251D01*
X2169997D01*
X2168664Y822584D01*
X2108836Y610916D02*
X2107503Y612249D01*
X2104837D01*
X2103504Y610916D01*
Y605584D01*
X2104837Y604251D01*
X2107503D01*
X2108836Y605584D01*
X2111502Y604251D02*
X2114168D01*
X2112835D01*
Y612249D01*
X2111502Y610916D01*
X2118167D02*
X2119499Y612249D01*
X2122165D01*
X2123498Y610916D01*
Y609583D01*
X2122165Y608250D01*
X2123498Y606917D01*
Y605584D01*
X2122165Y604251D01*
X2119499D01*
X2118167Y605584D01*
Y606917D01*
X2119499Y608250D01*
X2118167Y609583D01*
Y610916D01*
X2119499Y608250D02*
X2122165D01*
X2131496Y604251D02*
X2126164D01*
X2131496Y609583D01*
Y610916D01*
X2130163Y612249D01*
X2127497D01*
X2126164Y610916D01*
X1912872Y992692D02*
X1911539Y994025D01*
X1908873D01*
X1907540Y992692D01*
Y987361D01*
X1908873Y986028D01*
X1911539D01*
X1912872Y987361D01*
X1915537Y986028D02*
X1918203D01*
X1916870D01*
Y994025D01*
X1915537Y992692D01*
X1922202D02*
X1923535Y994025D01*
X1926201D01*
X1927534Y992692D01*
Y991360D01*
X1926201Y990027D01*
X1927534Y988694D01*
Y987361D01*
X1926201Y986028D01*
X1923535D01*
X1922202Y987361D01*
Y988694D01*
X1923535Y990027D01*
X1922202Y991360D01*
Y992692D01*
X1923535Y990027D02*
X1926201D01*
X1930199Y986028D02*
X1932865D01*
X1931532D01*
Y994025D01*
X1930199Y992692D01*
X2151586Y716416D02*
X2150253Y717749D01*
X2147587D01*
X2146254Y716416D01*
Y711084D01*
X2147587Y709751D01*
X2150253D01*
X2151586Y711084D01*
X2154252Y709751D02*
X2156918D01*
X2155585D01*
Y717749D01*
X2154252Y716416D01*
X2160916D02*
X2162249Y717749D01*
X2164915D01*
X2166248Y716416D01*
Y715083D01*
X2164915Y713750D01*
X2166248Y712417D01*
Y711084D01*
X2164915Y709751D01*
X2162249D01*
X2160916Y711084D01*
Y712417D01*
X2162249Y713750D01*
X2160916Y715083D01*
Y716416D01*
X2162249Y713750D02*
X2164915D01*
X2168914Y716416D02*
X2170247Y717749D01*
X2172913D01*
X2174245Y716416D01*
Y711084D01*
X2172913Y709751D01*
X2170247D01*
X2168914Y711084D01*
Y716416D01*
X1729992Y992692D02*
X1728659Y994025D01*
X1725993D01*
X1724660Y992692D01*
Y987361D01*
X1725993Y986028D01*
X1728659D01*
X1729992Y987361D01*
X1732657Y986028D02*
X1735323D01*
X1733990D01*
Y994025D01*
X1732657Y992692D01*
X1739322Y994025D02*
X1744654D01*
Y992692D01*
X1739322Y987361D01*
Y986028D01*
X1747319Y987361D02*
X1748652Y986028D01*
X1751318D01*
X1752651Y987361D01*
Y992692D01*
X1751318Y994025D01*
X1748652D01*
X1747319Y992692D01*
Y991360D01*
X1748652Y990027D01*
X1752651D01*
X2108836Y827666D02*
X2107503Y828999D01*
X2104837D01*
X2103504Y827666D01*
Y822334D01*
X2104837Y821001D01*
X2107503D01*
X2108836Y822334D01*
X2111502Y821001D02*
X2114168D01*
X2112835D01*
Y828999D01*
X2111502Y827666D01*
X2118167Y828999D02*
X2123498D01*
Y827666D01*
X2118167Y822334D01*
Y821001D01*
X2126164Y827666D02*
X2127497Y828999D01*
X2130163D01*
X2131496Y827666D01*
Y826333D01*
X2130163Y825000D01*
X2131496Y823667D01*
Y822334D01*
X2130163Y821001D01*
X2127497D01*
X2126164Y822334D01*
Y823667D01*
X2127497Y825000D01*
X2126164Y826333D01*
Y827666D01*
X2127497Y825000D02*
X2130163D01*
X2108836Y715166D02*
X2107503Y716499D01*
X2104837D01*
X2103504Y715166D01*
Y709834D01*
X2104837Y708501D01*
X2107503D01*
X2108836Y709834D01*
X2111502Y708501D02*
X2114168D01*
X2112835D01*
Y716499D01*
X2111502Y715166D01*
X2118167Y716499D02*
X2123498D01*
Y715166D01*
X2118167Y709834D01*
Y708501D01*
X2126164Y716499D02*
X2131496D01*
Y715166D01*
X2126164Y709834D01*
Y708501D01*
X1547112Y993201D02*
X1545779Y994533D01*
X1543113D01*
X1541780Y993201D01*
Y987869D01*
X1543113Y986536D01*
X1545779D01*
X1547112Y987869D01*
X1549777Y986536D02*
X1552443D01*
X1551110D01*
Y994533D01*
X1549777Y993201D01*
X1556442Y994533D02*
X1561774D01*
Y993201D01*
X1556442Y987869D01*
Y986536D01*
X1569771Y994533D02*
X1567105Y993201D01*
X1564439Y990535D01*
Y987869D01*
X1565772Y986536D01*
X1568438D01*
X1569771Y987869D01*
Y989202D01*
X1568438Y990535D01*
X1564439D01*
X1499836Y831916D02*
X1498503Y833249D01*
X1495837D01*
X1494505Y831916D01*
Y826584D01*
X1495837Y825251D01*
X1498503D01*
X1499836Y826584D01*
X1502502Y825251D02*
X1505168D01*
X1503835D01*
Y833249D01*
X1502502Y831916D01*
X1509167Y833249D02*
X1514498D01*
Y831916D01*
X1509167Y826584D01*
Y825251D01*
X1522496Y833249D02*
X1517164D01*
Y829250D01*
X1519830Y830583D01*
X1521163D01*
X1522496Y829250D01*
Y826584D01*
X1521163Y825251D01*
X1518497D01*
X1517164Y826584D01*
X1499836Y719916D02*
X1498503Y721249D01*
X1495837D01*
X1494505Y719916D01*
Y714584D01*
X1495837Y713251D01*
X1498503D01*
X1499836Y714584D01*
X1502502Y713251D02*
X1505168D01*
X1503835D01*
Y721249D01*
X1502502Y719916D01*
X1509167Y721249D02*
X1514498D01*
Y719916D01*
X1509167Y714584D01*
Y713251D01*
X1521163D02*
Y721249D01*
X1517164Y717250D01*
X1522496D01*
X1742336Y217666D02*
X1741003Y218999D01*
X1738337D01*
X1737005Y217666D01*
Y212334D01*
X1738337Y211001D01*
X1741003D01*
X1742336Y212334D01*
X1745002Y211001D02*
X1747668D01*
X1746335D01*
Y218999D01*
X1745002Y217666D01*
X1756998Y218999D02*
X1754332Y217666D01*
X1751667Y215000D01*
Y212334D01*
X1752999Y211001D01*
X1755665D01*
X1756998Y212334D01*
Y213667D01*
X1755665Y215000D01*
X1751667D01*
X1759664Y212334D02*
X1760997Y211001D01*
X1763663D01*
X1764996Y212334D01*
Y217666D01*
X1763663Y218999D01*
X1760997D01*
X1759664Y217666D01*
Y216333D01*
X1760997Y215000D01*
X1764996D01*
X1291586Y3055416D02*
X1290253Y3056749D01*
X1287587D01*
X1286254Y3055416D01*
Y3050084D01*
X1287587Y3048751D01*
X1290253D01*
X1291586Y3050084D01*
X1294252Y3048751D02*
X1296918D01*
X1295585D01*
Y3056749D01*
X1294252Y3055416D01*
X1306248Y3056749D02*
X1300916D01*
Y3052750D01*
X1303582Y3054083D01*
X1304915D01*
X1306248Y3052750D01*
Y3050084D01*
X1304915Y3048751D01*
X1302249D01*
X1300916Y3050084D01*
X1308914D02*
X1310247Y3048751D01*
X1312913D01*
X1314245Y3050084D01*
Y3055416D01*
X1312913Y3056749D01*
X1310247D01*
X1308914Y3055416D01*
Y3054083D01*
X1310247Y3052750D01*
X1314245D01*
X1227834Y2911408D02*
X1226501Y2912741D01*
X1223835D01*
X1222502Y2911408D01*
Y2906077D01*
X1223835Y2904744D01*
X1226501D01*
X1227834Y2906077D01*
X1230499Y2904744D02*
X1233165D01*
X1231832D01*
Y2912741D01*
X1230499Y2911408D01*
X1241163Y2904744D02*
Y2912741D01*
X1237164Y2908743D01*
X1242496D01*
X1250493Y2912741D02*
X1247827Y2911408D01*
X1245161Y2908743D01*
Y2906077D01*
X1246494Y2904744D01*
X1249160D01*
X1250493Y2906077D01*
Y2907410D01*
X1249160Y2908743D01*
X1245161D01*
X3071586Y190166D02*
X3070253Y191499D01*
X3067587D01*
X3066255Y190166D01*
Y184834D01*
X3067587Y183501D01*
X3070253D01*
X3071586Y184834D01*
X3074252Y183501D02*
X3076918D01*
X3075585D01*
Y191499D01*
X3074252Y190166D01*
X3084915Y183501D02*
Y191499D01*
X3080916Y187500D01*
X3086248D01*
X3094246Y183501D02*
X3088914D01*
X3094246Y188833D01*
Y190166D01*
X3092913Y191499D01*
X3090247D01*
X3088914Y190166D01*
X2815086Y315916D02*
X2813753Y317249D01*
X2811087D01*
X2809755Y315916D01*
Y310584D01*
X2811087Y309251D01*
X2813753D01*
X2815086Y310584D01*
X2817752Y309251D02*
X2820418D01*
X2819085D01*
Y317249D01*
X2817752Y315916D01*
X2824417D02*
X2825750Y317249D01*
X2828415D01*
X2829748Y315916D01*
Y314583D01*
X2828415Y313250D01*
X2827082D01*
X2828415D01*
X2829748Y311917D01*
Y310584D01*
X2828415Y309251D01*
X2825750D01*
X2824417Y310584D01*
X2832414Y315916D02*
X2833747Y317249D01*
X2836413D01*
X2837745Y315916D01*
Y314583D01*
X2836413Y313250D01*
X2835080D01*
X2836413D01*
X2837745Y311917D01*
Y310584D01*
X2836413Y309251D01*
X2833747D01*
X2832414Y310584D01*
X2938586Y366666D02*
X2937253Y367999D01*
X2934587D01*
X2933254Y366666D01*
Y361334D01*
X2934587Y360001D01*
X2937253D01*
X2938586Y361334D01*
X2941252Y360001D02*
X2943918D01*
X2942585D01*
Y367999D01*
X2941252Y366666D01*
X2947917D02*
X2949249Y367999D01*
X2951915D01*
X2953248Y366666D01*
Y365333D01*
X2951915Y364000D01*
X2950582D01*
X2951915D01*
X2953248Y362667D01*
Y361334D01*
X2951915Y360001D01*
X2949249D01*
X2947917Y361334D01*
X2961245Y360001D02*
X2955914D01*
X2961245Y365333D01*
Y366666D01*
X2959913Y367999D01*
X2957247D01*
X2955914Y366666D01*
X1227834Y2770185D02*
X1226501Y2771517D01*
X1223835D01*
X1222502Y2770185D01*
Y2764853D01*
X1223835Y2763520D01*
X1226501D01*
X1227834Y2764853D01*
X1230499Y2763520D02*
X1233165D01*
X1231832D01*
Y2771517D01*
X1230499Y2770185D01*
X1242496Y2763520D02*
X1237164D01*
X1242496Y2768852D01*
Y2770185D01*
X1241163Y2771517D01*
X1238497D01*
X1237164Y2770185D01*
X1250493Y2771517D02*
X1247827Y2770185D01*
X1245161Y2767519D01*
Y2764853D01*
X1246494Y2763520D01*
X1249160D01*
X1250493Y2764853D01*
Y2766186D01*
X1249160Y2767519D01*
X1245161D01*
X1227834Y2646995D02*
X1226501Y2648327D01*
X1223835D01*
X1222502Y2646995D01*
Y2641663D01*
X1223835Y2640330D01*
X1226501D01*
X1227834Y2641663D01*
X1230499Y2640330D02*
X1233165D01*
X1231832D01*
Y2648327D01*
X1230499Y2646995D01*
X1237164Y2640330D02*
X1239830D01*
X1238497D01*
Y2648327D01*
X1237164Y2646995D01*
X1243829Y2648327D02*
X1249160D01*
Y2646995D01*
X1243829Y2641663D01*
Y2640330D01*
X1119753Y1647416D02*
X1118420Y1648749D01*
X1115754D01*
X1114421Y1647416D01*
Y1642084D01*
X1115754Y1640751D01*
X1118420D01*
X1119753Y1642084D01*
X1122418Y1640751D02*
X1125084D01*
X1123751D01*
Y1648749D01*
X1122418Y1647416D01*
X1129083Y1640751D02*
X1131749D01*
X1130416D01*
Y1648749D01*
X1129083Y1647416D01*
X1141079Y1648749D02*
X1135747D01*
Y1644750D01*
X1138413Y1646083D01*
X1139746D01*
X1141079Y1644750D01*
Y1642084D01*
X1139746Y1640751D01*
X1137080D01*
X1135747Y1642084D01*
X1318667Y1648916D02*
X1317334Y1650249D01*
X1314668D01*
X1313336Y1648916D01*
Y1643584D01*
X1314668Y1642251D01*
X1317334D01*
X1318667Y1643584D01*
X1321333Y1648916D02*
X1322666Y1650249D01*
X1325332D01*
X1326664Y1648916D01*
Y1647583D01*
X1325332Y1646250D01*
X1326664Y1644917D01*
Y1643584D01*
X1325332Y1642251D01*
X1322666D01*
X1321333Y1643584D01*
Y1644917D01*
X1322666Y1646250D01*
X1321333Y1647583D01*
Y1648916D01*
X1322666Y1646250D02*
X1325332D01*
X1973324Y2325430D02*
X1971991Y2326763D01*
X1969325D01*
X1967992Y2325430D01*
Y2320099D01*
X1969325Y2318766D01*
X1971991D01*
X1973324Y2320099D01*
X1975989Y2318766D02*
X1978655D01*
X1977322D01*
Y2326763D01*
X1975989Y2325430D01*
X1982654Y2318766D02*
X1985320D01*
X1983987D01*
Y2326763D01*
X1982654Y2325430D01*
X1993317Y2318766D02*
Y2326763D01*
X1989319Y2322765D01*
X1994650D01*
X1800096Y2787711D02*
X1798763Y2789043D01*
X1796097D01*
X1794764Y2787711D01*
Y2782379D01*
X1796097Y2781046D01*
X1798763D01*
X1800096Y2782379D01*
X1808093Y2789043D02*
X1805427Y2787711D01*
X1802761Y2785045D01*
Y2782379D01*
X1804094Y2781046D01*
X1806760D01*
X1808093Y2782379D01*
Y2783712D01*
X1806760Y2785045D01*
X1802761D01*
X1810759Y2782379D02*
X1812092Y2781046D01*
X1814758D01*
X1816090Y2782379D01*
Y2787711D01*
X1814758Y2789043D01*
X1812092D01*
X1810759Y2787711D01*
Y2786378D01*
X1812092Y2785045D01*
X1816090D01*
X1163826Y1078036D02*
X1162493Y1079369D01*
X1159827D01*
X1158494Y1078036D01*
Y1072705D01*
X1159827Y1071372D01*
X1162493D01*
X1163826Y1072705D01*
X1171823Y1079369D02*
X1169157Y1078036D01*
X1166491Y1075371D01*
Y1072705D01*
X1167824Y1071372D01*
X1170490D01*
X1171823Y1072705D01*
Y1074038D01*
X1170490Y1075371D01*
X1166491D01*
X1174489Y1078036D02*
X1175822Y1079369D01*
X1178488D01*
X1179820Y1078036D01*
Y1076704D01*
X1178488Y1075371D01*
X1179820Y1074038D01*
Y1072705D01*
X1178488Y1071372D01*
X1175822D01*
X1174489Y1072705D01*
Y1074038D01*
X1175822Y1075371D01*
X1174489Y1076704D01*
Y1078036D01*
X1175822Y1075371D02*
X1178488D01*
X1163826Y955863D02*
X1162493Y957195D01*
X1159827D01*
X1158494Y955863D01*
Y950531D01*
X1159827Y949198D01*
X1162493D01*
X1163826Y950531D01*
X1171823Y957195D02*
X1169157Y955863D01*
X1166491Y953197D01*
Y950531D01*
X1167824Y949198D01*
X1170490D01*
X1171823Y950531D01*
Y951864D01*
X1170490Y953197D01*
X1166491D01*
X1174489Y957195D02*
X1179820D01*
Y955863D01*
X1174489Y950531D01*
Y949198D01*
X1163826Y833435D02*
X1162493Y834767D01*
X1159827D01*
X1158494Y833435D01*
Y828103D01*
X1159827Y826770D01*
X1162493D01*
X1163826Y828103D01*
X1171823Y834767D02*
X1169157Y833435D01*
X1166491Y830769D01*
Y828103D01*
X1167824Y826770D01*
X1170490D01*
X1171823Y828103D01*
Y829436D01*
X1170490Y830769D01*
X1166491D01*
X1179820Y834767D02*
X1177155Y833435D01*
X1174489Y830769D01*
Y828103D01*
X1175822Y826770D01*
X1178488D01*
X1179820Y828103D01*
Y829436D01*
X1178488Y830769D01*
X1174489D01*
X1163826Y711006D02*
X1162493Y712339D01*
X1159827D01*
X1158494Y711006D01*
Y705675D01*
X1159827Y704342D01*
X1162493D01*
X1163826Y705675D01*
X1171823Y712339D02*
X1169157Y711006D01*
X1166491Y708341D01*
Y705675D01*
X1167824Y704342D01*
X1170490D01*
X1171823Y705675D01*
Y707008D01*
X1170490Y708341D01*
X1166491D01*
X1179820Y712339D02*
X1174489D01*
Y708341D01*
X1177155Y709674D01*
X1178488D01*
X1179820Y708341D01*
Y705675D01*
X1178488Y704342D01*
X1175822D01*
X1174489Y705675D01*
X1874264Y2510851D02*
X1872931Y2512183D01*
X1870265D01*
X1868932Y2510851D01*
Y2505519D01*
X1870265Y2504186D01*
X1872931D01*
X1874264Y2505519D01*
X1876929Y2510851D02*
X1878262Y2512183D01*
X1880928D01*
X1882261Y2510851D01*
Y2509518D01*
X1880928Y2508185D01*
X1879595D01*
X1880928D01*
X1882261Y2506852D01*
Y2505519D01*
X1880928Y2504186D01*
X1878262D01*
X1876929Y2505519D01*
X1888926Y2504186D02*
Y2512183D01*
X1884927Y2508185D01*
X1890258D01*
X2717038Y258064D02*
Y266061D01*
X2721037D01*
X2722370Y264729D01*
Y262063D01*
X2721037Y260730D01*
X2717038D01*
X2730367Y266061D02*
X2725035D01*
Y258064D01*
X2730367D01*
X2725035Y262063D02*
X2727701D01*
X2733033Y258064D02*
X2735699D01*
X2734366D01*
Y266061D01*
X2733033Y264729D01*
X1675087Y293751D02*
Y301749D01*
X1679086D01*
X1680418Y300416D01*
Y297750D01*
X1679086Y296417D01*
X1675087D01*
X1688416Y301749D02*
X1683084D01*
Y293751D01*
X1688416D01*
X1683084Y297750D02*
X1685750D01*
X1696413Y293751D02*
X1691082D01*
X1696413Y299083D01*
Y300416D01*
X1695080Y301749D01*
X1692415D01*
X1691082Y300416D01*
X1218587Y1636251D02*
Y1644249D01*
X1222586D01*
X1223918Y1642916D01*
Y1640250D01*
X1222586Y1638917D01*
X1218587D01*
X1231916Y1644249D02*
X1226584D01*
Y1636251D01*
X1231916D01*
X1226584Y1640250D02*
X1229250D01*
X1238580Y1636251D02*
Y1644249D01*
X1234582Y1640250D01*
X1239913D01*
M02*
