G04*
G04 #@! TF.GenerationSoftware,Altium Limited,Altium Designer,25.3.3 (18)*
G04*
G04 Layer_Color=255*
%FSLAX44Y44*%
%MOMM*%
G71*
G04*
G04 #@! TF.SameCoordinates,02FA8497-09D8-4EBB-9686-6BBDE5AED0EC*
G04*
G04*
G04 #@! TF.FilePolarity,Positive*
G04*
G01*
G75*
%ADD68C,5.5000*%
%ADD69O,6.0000X9.0000*%
%ADD70C,6.0000*%
%ADD71O,7.0000X5.0000*%
%ADD72C,1.5000*%
G04:AMPARAMS|DCode=73|XSize=1.5mm|YSize=1.5mm|CornerRadius=0.375mm|HoleSize=0mm|Usage=FLASHONLY|Rotation=270.000|XOffset=0mm|YOffset=0mm|HoleType=Round|Shape=RoundedRectangle|*
%AMROUNDEDRECTD73*
21,1,1.5000,0.7500,0,0,270.0*
21,1,0.7500,1.5000,0,0,270.0*
1,1,0.7500,-0.3750,-0.3750*
1,1,0.7500,-0.3750,0.3750*
1,1,0.7500,0.3750,0.3750*
1,1,0.7500,0.3750,-0.3750*
%
%ADD73ROUNDEDRECTD73*%
%ADD74R,4.0000X2.5000*%
%ADD75C,4.0000*%
%ADD76R,4.0000X4.0000*%
%ADD77O,20.5000X17.5000*%
G04:AMPARAMS|DCode=78|XSize=5mm|YSize=15mm|CornerRadius=1.25mm|HoleSize=0mm|Usage=FLASHONLY|Rotation=180.000|XOffset=0mm|YOffset=0mm|HoleType=Round|Shape=RoundedRectangle|*
%AMROUNDEDRECTD78*
21,1,5.0000,12.5000,0,0,180.0*
21,1,2.5000,15.0000,0,0,180.0*
1,1,2.5000,-1.2500,6.2500*
1,1,2.5000,1.2500,6.2500*
1,1,2.5000,1.2500,-6.2500*
1,1,2.5000,-1.2500,-6.2500*
%
%ADD78ROUNDEDRECTD78*%
G04:AMPARAMS|DCode=79|XSize=5mm|YSize=11mm|CornerRadius=1.25mm|HoleSize=0mm|Usage=FLASHONLY|Rotation=180.000|XOffset=0mm|YOffset=0mm|HoleType=Round|Shape=RoundedRectangle|*
%AMROUNDEDRECTD79*
21,1,5.0000,8.5000,0,0,180.0*
21,1,2.5000,11.0000,0,0,180.0*
1,1,2.5000,-1.2500,4.2500*
1,1,2.5000,1.2500,4.2500*
1,1,2.5000,1.2500,-4.2500*
1,1,2.5000,-1.2500,-4.2500*
%
%ADD79ROUNDEDRECTD79*%
%ADD80O,10.0000X7.0000*%
%ADD81R,4.0000X4.0000*%
%ADD82R,1.5000X1.5000*%
%ADD83C,2.2000*%
%ADD84C,1.6050*%
%ADD85R,1.6050X1.6050*%
G04:AMPARAMS|DCode=86|XSize=1.5mm|YSize=1.5mm|CornerRadius=0.375mm|HoleSize=0mm|Usage=FLASHONLY|Rotation=0.000|XOffset=0mm|YOffset=0mm|HoleType=Round|Shape=RoundedRectangle|*
%AMROUNDEDRECTD86*
21,1,1.5000,0.7500,0,0,0.0*
21,1,0.7500,1.5000,0,0,0.0*
1,1,0.7500,0.3750,-0.3750*
1,1,0.7500,-0.3750,-0.3750*
1,1,0.7500,-0.3750,0.3750*
1,1,0.7500,0.3750,0.3750*
%
%ADD86ROUNDEDRECTD86*%
%ADD87R,1.5200X1.5200*%
%ADD88C,1.5200*%
%ADD89C,3.5000*%
%ADD90R,3.5000X3.5000*%
%ADD91O,2.3000X1.3000*%
%ADD92O,1.9050X2.5400*%
%ADD93R,3.5000X3.5000*%
%ADD94C,2.0000*%
%ADD95R,2.0000X2.0000*%
%ADD96C,1.6000*%
%ADD97R,1.6000X1.6000*%
%ADD98R,1.5200X1.5200*%
%ADD99O,2.2860X1.9050*%
%ADD100R,2.2860X1.9050*%
%ADD101R,2.0000X1.5000*%
%ADD102C,3.0000*%
%ADD103O,2.0000X1.5000*%
%ADD104R,3.0000X3.0000*%
%ADD105R,1.5000X1.5000*%
%ADD106R,1.6050X1.6050*%
%ADD107C,12.0000*%
%ADD108R,2.0000X2.0000*%
D68*
X1119710Y1235280D02*
D03*
Y1455280D02*
D03*
X1795350Y1811580D02*
D03*
Y2111580D02*
D03*
X2035350Y1811580D02*
D03*
Y2111580D02*
D03*
D69*
X1781380Y573270D02*
D03*
Y393270D02*
D03*
X1591380Y573270D02*
D03*
Y393270D02*
D03*
D70*
X1708990Y2879930D02*
D03*
X1143840Y2436700D02*
D03*
X1226390Y1692480D02*
D03*
X2035380Y2383360D02*
D03*
X1686130Y244680D02*
D03*
X2746580Y220550D02*
D03*
X2035380Y2881200D02*
D03*
X2210640D02*
D03*
X1877900Y2879930D02*
D03*
D71*
X2416380Y2738600D02*
D03*
Y2398600D02*
D03*
D72*
X1263220Y2990820D02*
D03*
X1359730Y1684860D02*
D03*
X1171780D02*
D03*
X1679580Y2327280D02*
D03*
X820250Y881250D02*
D03*
X1646850Y176100D02*
D03*
X1646760Y112600D02*
D03*
X2969750Y487250D02*
D03*
X3046470Y414530D02*
D03*
Y389530D02*
D03*
Y339530D02*
D03*
Y314530D02*
D03*
X3136470Y414530D02*
D03*
Y389530D02*
D03*
Y364530D02*
D03*
Y339530D02*
D03*
Y314530D02*
D03*
X2999780Y168310D02*
D03*
X2974780D02*
D03*
X2924780D02*
D03*
X2899780D02*
D03*
X2999780Y78310D02*
D03*
X2974780D02*
D03*
X2949780D02*
D03*
X2924780D02*
D03*
X2899780D02*
D03*
X3080590Y253170D02*
D03*
X2796110Y374020D02*
D03*
X2882470Y376560D02*
D03*
X762840Y2970500D02*
D03*
Y2855800D02*
D03*
Y2641370D02*
D03*
X1263220Y2579140D02*
D03*
X2144600Y244680D02*
D03*
X1263220Y2702330D02*
D03*
Y2843500D02*
D03*
X2062050Y244680D02*
D03*
D73*
X1263220Y3015820D02*
D03*
X820250Y856250D02*
D03*
X2969750Y462250D02*
D03*
X3080590Y228170D02*
D03*
X2796110Y349020D02*
D03*
X2882470Y351560D02*
D03*
X762840Y2995500D02*
D03*
Y2880800D02*
D03*
Y2666370D02*
D03*
X1263220Y2604140D02*
D03*
Y2727330D02*
D03*
Y2868500D02*
D03*
D74*
X2626000Y485500D02*
D03*
Y431000D02*
D03*
Y376500D02*
D03*
Y705500D02*
D03*
Y651000D02*
D03*
Y596500D02*
D03*
Y925500D02*
D03*
Y871000D02*
D03*
Y816500D02*
D03*
Y1036500D02*
D03*
Y1091000D02*
D03*
Y1145500D02*
D03*
Y1565500D02*
D03*
Y1511000D02*
D03*
Y1456500D02*
D03*
Y1676500D02*
D03*
Y1731000D02*
D03*
Y1785500D02*
D03*
Y1896500D02*
D03*
Y1951000D02*
D03*
Y2005500D02*
D03*
X396000Y906770D02*
D03*
Y197770D02*
D03*
Y452270D02*
D03*
Y2452270D02*
D03*
Y2197770D02*
D03*
Y1997770D02*
D03*
Y1306770D02*
D03*
Y1252270D02*
D03*
Y1197770D02*
D03*
Y2506770D02*
D03*
Y2397770D02*
D03*
Y2306770D02*
D03*
Y2252270D02*
D03*
Y1506770D02*
D03*
Y1452270D02*
D03*
Y1397770D02*
D03*
Y706770D02*
D03*
Y652270D02*
D03*
Y597770D02*
D03*
Y306770D02*
D03*
Y252270D02*
D03*
Y1106770D02*
D03*
Y1052270D02*
D03*
Y997770D02*
D03*
Y1906770D02*
D03*
Y1852270D02*
D03*
Y1797770D02*
D03*
Y1706770D02*
D03*
Y1652270D02*
D03*
Y1597770D02*
D03*
Y506770D02*
D03*
Y397770D02*
D03*
Y852270D02*
D03*
Y797770D02*
D03*
Y2106770D02*
D03*
Y2052270D02*
D03*
D75*
X1336880Y1855840D02*
D03*
X984620Y2141590D02*
D03*
X1358940Y2222870D02*
D03*
X877940Y1832180D02*
D03*
D76*
X1336880Y1955840D02*
D03*
X984620Y2241590D02*
D03*
X1358940Y2322870D02*
D03*
D77*
X2064880Y1444580D02*
D03*
Y1254580D02*
D03*
D78*
X2054880Y1224580D02*
D03*
Y1474580D02*
D03*
D79*
X1609880Y1549580D02*
D03*
Y1239580D02*
D03*
D80*
X1619880Y1409580D02*
D03*
Y1289580D02*
D03*
D81*
X977940Y1832180D02*
D03*
D82*
X1279730Y1684860D02*
D03*
X1091780D02*
D03*
X1731850Y176100D02*
D03*
X1731760Y112600D02*
D03*
D83*
X1692500Y1184750D02*
D03*
Y1144750D02*
D03*
D84*
X2924780Y3088210D02*
D03*
X2975980D02*
D03*
Y3113610D02*
D03*
X2950580Y3088210D02*
D03*
Y3113610D02*
D03*
X2924780D02*
D03*
X2899380Y3088210D02*
D03*
Y3113610D02*
D03*
X2873980Y3088210D02*
D03*
Y3113610D02*
D03*
X2848580Y3088210D02*
D03*
Y3113610D02*
D03*
X2720780Y3088210D02*
D03*
X2822780Y3113610D02*
D03*
X2797380D02*
D03*
X2822780Y3088210D02*
D03*
X2797380D02*
D03*
X2771980D02*
D03*
Y3113610D02*
D03*
X2746580Y3088210D02*
D03*
Y3113610D02*
D03*
X2720780D02*
D03*
X2695380Y3088210D02*
D03*
Y3113610D02*
D03*
X2669980Y3088210D02*
D03*
Y3113610D02*
D03*
X2644580Y3088210D02*
D03*
Y3113610D02*
D03*
X2619180D02*
D03*
X3073700Y1644690D02*
D03*
X3048300D02*
D03*
X3073700Y1670090D02*
D03*
X3048300D02*
D03*
X3073700Y1797890D02*
D03*
X3048300Y1695890D02*
D03*
Y1721290D02*
D03*
X3073700Y1695890D02*
D03*
Y1721290D02*
D03*
Y1746690D02*
D03*
X3048300D02*
D03*
X3073700Y1772090D02*
D03*
X3048300D02*
D03*
Y1797890D02*
D03*
X3073700Y1823290D02*
D03*
X3048300D02*
D03*
X3073700Y1848690D02*
D03*
X3048300D02*
D03*
X3073700Y1874090D02*
D03*
X3048300D02*
D03*
Y1899490D02*
D03*
X3073700Y1950890D02*
D03*
Y1899690D02*
D03*
Y1925090D02*
D03*
X3048300D02*
D03*
Y1950890D02*
D03*
X3073700Y1976290D02*
D03*
X3048300D02*
D03*
X3073700Y2001690D02*
D03*
X3048300D02*
D03*
X3073700Y2027090D02*
D03*
X3048300D02*
D03*
X3073700Y2154890D02*
D03*
X3048300Y2052890D02*
D03*
Y2078290D02*
D03*
X3073700Y2052890D02*
D03*
Y2078290D02*
D03*
Y2103690D02*
D03*
X3048300D02*
D03*
X3073700Y2129090D02*
D03*
X3048300D02*
D03*
Y2154890D02*
D03*
X3073700Y2180290D02*
D03*
X3048300D02*
D03*
X3073700Y2205690D02*
D03*
X3048300D02*
D03*
X3073700Y2231090D02*
D03*
X3048300D02*
D03*
Y2256490D02*
D03*
X3073700Y813500D02*
D03*
Y762300D02*
D03*
X3048300D02*
D03*
X3073700Y787700D02*
D03*
X3048300D02*
D03*
Y813500D02*
D03*
X3073700Y838900D02*
D03*
X3048300D02*
D03*
X3073700Y864300D02*
D03*
X3048300D02*
D03*
X3073700Y889700D02*
D03*
X3048300D02*
D03*
X3073700Y1017500D02*
D03*
X3048300Y915500D02*
D03*
Y940900D02*
D03*
X3073700Y915500D02*
D03*
Y940900D02*
D03*
Y966300D02*
D03*
X3048300D02*
D03*
X3073700Y991700D02*
D03*
X3048300D02*
D03*
Y1017500D02*
D03*
X3073700Y1042900D02*
D03*
X3048300D02*
D03*
X3073700Y1068300D02*
D03*
X3048300D02*
D03*
X3073700Y1093700D02*
D03*
X3048300D02*
D03*
Y1119100D02*
D03*
D85*
X2619180Y3088210D02*
D03*
D86*
X1654580Y2327280D02*
D03*
D87*
X2998040Y2596720D02*
D03*
D88*
Y2622120D02*
D03*
X163900Y2976000D02*
D03*
D89*
X1927430Y610440D02*
D03*
Y826340D02*
D03*
X1879170D02*
D03*
Y718390D02*
D03*
X1927430D02*
D03*
X1561670D02*
D03*
Y827610D02*
D03*
X1059610Y289590D02*
D03*
X849610Y664590D02*
D03*
Y289590D02*
D03*
X1927430Y935560D02*
D03*
X1879550D02*
D03*
X1561670Y936240D02*
D03*
D90*
X2062430Y610440D02*
D03*
Y826340D02*
D03*
X1744170D02*
D03*
Y718390D02*
D03*
X2062430D02*
D03*
X1696670D02*
D03*
Y827610D02*
D03*
X2062430Y935560D02*
D03*
X1744550D02*
D03*
X1696670Y936240D02*
D03*
D91*
X893650Y791288D02*
D03*
Y829388D02*
D03*
Y810592D02*
D03*
Y772492D02*
D03*
X1922350Y2333830D02*
D03*
Y2295730D02*
D03*
Y2314526D02*
D03*
Y2352626D02*
D03*
D92*
X1046050Y737440D02*
D03*
X995250Y864440D02*
D03*
X1020650Y737440D02*
D03*
Y864440D02*
D03*
X1071450Y737440D02*
D03*
X1046050Y864440D02*
D03*
X1071450D02*
D03*
X995250Y737440D02*
D03*
X1769950Y2387678D02*
D03*
X1820750Y2260678D02*
D03*
X1795350Y2387678D02*
D03*
Y2260678D02*
D03*
X1744550Y2387678D02*
D03*
X1769950Y2260678D02*
D03*
X1744550D02*
D03*
X1820750Y2387678D02*
D03*
D93*
X1059610Y664590D02*
D03*
D94*
X1180670Y400960D02*
D03*
X1885450Y2469720D02*
D03*
X2134510Y2284300D02*
D03*
D95*
X1180670Y250960D02*
D03*
D96*
X1338800Y387250D02*
D03*
X1313400D02*
D03*
X1364200D02*
D03*
D97*
X1288000D02*
D03*
D98*
X138500Y2976000D02*
D03*
D99*
X615520Y2745310D02*
D03*
D100*
Y2770710D02*
D03*
D101*
X930480Y2693170D02*
D03*
D102*
X1179930Y1019380D02*
D03*
Y897037D02*
D03*
Y774693D02*
D03*
Y652350D02*
D03*
X1818800Y2658950D02*
D03*
D103*
X1110480Y2693170D02*
D03*
X930480Y2793170D02*
D03*
Y2718170D02*
D03*
Y2768170D02*
D03*
Y2868170D02*
D03*
Y2843170D02*
D03*
Y2818170D02*
D03*
Y2918170D02*
D03*
Y2893170D02*
D03*
Y2943170D02*
D03*
X1110480Y2793170D02*
D03*
Y2718170D02*
D03*
Y2768170D02*
D03*
Y2868170D02*
D03*
Y2843170D02*
D03*
Y2918170D02*
D03*
Y2943170D02*
D03*
D104*
X1404930Y1019380D02*
D03*
X2093800Y2658950D02*
D03*
X1404930Y897037D02*
D03*
Y774693D02*
D03*
Y652350D02*
D03*
D105*
X2144600Y159680D02*
D03*
X2062050D02*
D03*
D106*
X3073700Y2256490D02*
D03*
Y1119100D02*
D03*
D107*
X1529920Y193880D02*
D03*
X1865200Y196420D02*
D03*
D108*
X2035450Y2469720D02*
D03*
X1984510Y2284300D02*
D03*
M02*
