G04*
G04 #@! TF.GenerationSoftware,Altium Limited,Altium Designer,25.3.3 (18)*
G04*
G04 Layer_Physical_Order=1*
G04 Layer_Color=255*
%FSLAX44Y44*%
%MOMM*%
G71*
G04*
G04 #@! TF.SameCoordinates,02FA8497-09D8-4EBB-9686-6BBDE5AED0EC*
G04*
G04*
G04 #@! TF.FilePolarity,Positive*
G04*
G01*
G75*
%ADD10C,0.8000*%
%ADD13C,0.5000*%
%ADD16C,0.3000*%
%ADD67C,1.0000*%
%ADD68C,5.5000*%
%ADD69O,6.0000X9.0000*%
%ADD70C,6.0000*%
%ADD71O,7.0000X5.0000*%
%ADD72C,1.5000*%
G04:AMPARAMS|DCode=73|XSize=1.5mm|YSize=1.5mm|CornerRadius=0.375mm|HoleSize=0mm|Usage=FLASHONLY|Rotation=270.000|XOffset=0mm|YOffset=0mm|HoleType=Round|Shape=RoundedRectangle|*
%AMROUNDEDRECTD73*
21,1,1.5000,0.7500,0,0,270.0*
21,1,0.7500,1.5000,0,0,270.0*
1,1,0.7500,-0.3750,-0.3750*
1,1,0.7500,-0.3750,0.3750*
1,1,0.7500,0.3750,0.3750*
1,1,0.7500,0.3750,-0.3750*
%
%ADD73ROUNDEDRECTD73*%
%ADD74R,4.0000X2.5000*%
%ADD75C,4.0000*%
%ADD76R,4.0000X4.0000*%
%ADD77O,20.5000X17.5000*%
G04:AMPARAMS|DCode=78|XSize=5mm|YSize=15mm|CornerRadius=1.25mm|HoleSize=0mm|Usage=FLASHONLY|Rotation=180.000|XOffset=0mm|YOffset=0mm|HoleType=Round|Shape=RoundedRectangle|*
%AMROUNDEDRECTD78*
21,1,5.0000,12.5000,0,0,180.0*
21,1,2.5000,15.0000,0,0,180.0*
1,1,2.5000,-1.2500,6.2500*
1,1,2.5000,1.2500,6.2500*
1,1,2.5000,1.2500,-6.2500*
1,1,2.5000,-1.2500,-6.2500*
%
%ADD78ROUNDEDRECTD78*%
G04:AMPARAMS|DCode=79|XSize=5mm|YSize=11mm|CornerRadius=1.25mm|HoleSize=0mm|Usage=FLASHONLY|Rotation=180.000|XOffset=0mm|YOffset=0mm|HoleType=Round|Shape=RoundedRectangle|*
%AMROUNDEDRECTD79*
21,1,5.0000,8.5000,0,0,180.0*
21,1,2.5000,11.0000,0,0,180.0*
1,1,2.5000,-1.2500,4.2500*
1,1,2.5000,1.2500,4.2500*
1,1,2.5000,1.2500,-4.2500*
1,1,2.5000,-1.2500,-4.2500*
%
%ADD79ROUNDEDRECTD79*%
%ADD80O,10.0000X7.0000*%
%ADD81R,4.0000X4.0000*%
%ADD82R,1.5000X1.5000*%
%ADD83C,2.2000*%
%ADD84C,1.6050*%
%ADD85R,1.6050X1.6050*%
G04:AMPARAMS|DCode=86|XSize=1.5mm|YSize=1.5mm|CornerRadius=0.375mm|HoleSize=0mm|Usage=FLASHONLY|Rotation=0.000|XOffset=0mm|YOffset=0mm|HoleType=Round|Shape=RoundedRectangle|*
%AMROUNDEDRECTD86*
21,1,1.5000,0.7500,0,0,0.0*
21,1,0.7500,1.5000,0,0,0.0*
1,1,0.7500,0.3750,-0.3750*
1,1,0.7500,-0.3750,-0.3750*
1,1,0.7500,-0.3750,0.3750*
1,1,0.7500,0.3750,0.3750*
%
%ADD86ROUNDEDRECTD86*%
%ADD87R,1.5200X1.5200*%
%ADD88C,1.5200*%
%ADD89C,3.5000*%
%ADD90R,3.5000X3.5000*%
%ADD91O,2.3000X1.3000*%
%ADD92O,1.9050X2.5400*%
%ADD93R,3.5000X3.5000*%
%ADD94C,2.0000*%
%ADD95R,2.0000X2.0000*%
%ADD96C,1.6000*%
%ADD97R,1.6000X1.6000*%
%ADD98R,1.5200X1.5200*%
%ADD99O,2.2860X1.9050*%
%ADD100R,2.2860X1.9050*%
%ADD101R,2.0000X1.5000*%
%ADD102C,3.0000*%
%ADD103O,2.0000X1.5000*%
%ADD104R,3.0000X3.0000*%
%ADD105R,1.5000X1.5000*%
%ADD106R,1.6050X1.6050*%
%ADD107C,12.0000*%
%ADD108R,2.0000X2.0000*%
%ADD109C,1.0000*%
%ADD110C,0.8000*%
%ADD111C,0.6000*%
%ADD112C,1.2000*%
%ADD113C,0.7000*%
G36*
X2468450Y2764360D02*
Y2713560D01*
X2454480Y2699590D01*
X2382090D01*
X2368120Y2713560D01*
Y2764360D01*
X2383360Y2779600D01*
X2453210D01*
X2468450Y2764360D01*
D02*
G37*
G36*
X2088430Y2920570D02*
X2102690Y2906310D01*
Y2741500D01*
X2054212Y2693022D01*
X2054212Y2693022D01*
X2052547Y2691184D01*
X2049794Y2687065D01*
X2047898Y2682488D01*
X2046932Y2677629D01*
X2046810Y2675152D01*
Y2524337D01*
X2044277D01*
X2044277Y2524337D01*
X2041099Y2524259D01*
X2034772Y2523636D01*
X2028538Y2522396D01*
X2022454Y2520551D01*
X2016581Y2518118D01*
X2010975Y2515121D01*
X2005689Y2511590D01*
X2000775Y2507557D01*
X1996280Y2503062D01*
X1992248Y2498148D01*
X1988716Y2492862D01*
X1985719Y2487256D01*
X1983287Y2481383D01*
X1981441Y2475300D01*
X1980201Y2469065D01*
X1979578Y2462738D01*
X1979500Y2459560D01*
X1905754Y2385814D01*
X1878256Y2375002D01*
X1743748D01*
X1743748Y2375002D01*
X1742025Y2375002D01*
X1738644Y2375674D01*
X1735459Y2376994D01*
X1732594Y2378909D01*
X1730156Y2381346D01*
X1728241Y2384212D01*
X1726922Y2387396D01*
X1726250Y2390777D01*
X1726250Y2392500D01*
Y2769972D01*
X1888875D01*
X1927681Y2786046D01*
X1971207Y2829572D01*
X1989660Y2874122D01*
Y2905660D01*
X2004570Y2920570D01*
X2088430Y2920570D01*
D02*
G37*
G36*
X2062050Y2481150D02*
X2067130Y2476070D01*
X2067130Y2370660D01*
X2015060Y2318590D01*
X2015060Y2266520D01*
X1973150D01*
Y2370660D01*
X2022680Y2420190D01*
X2022680Y2477340D01*
X2026490Y2481150D01*
X2062050Y2481150D01*
D02*
G37*
G36*
X3093881Y3068544D02*
Y2225456D01*
X3091044Y2222619D01*
X3084332D01*
X3083970Y2222950D01*
X3082741Y2225619D01*
X3083545Y2227012D01*
X3084265Y2229699D01*
Y2232481D01*
X3083545Y2235168D01*
X3082154Y2237577D01*
X3080187Y2239544D01*
X3077778Y2240935D01*
X3075091Y2241655D01*
X3072309D01*
X3069622Y2240935D01*
X3067213Y2239544D01*
X3065246Y2237577D01*
X3063855Y2235168D01*
X3063135Y2232481D01*
Y2229699D01*
X3063855Y2227012D01*
X3064659Y2225619D01*
X3063430Y2222950D01*
X3063068Y2222619D01*
X3061110D01*
X3059534Y2222306D01*
X3058197Y2221413D01*
X3052332Y2215547D01*
X3049691Y2216255D01*
X3046909D01*
X3044222Y2215535D01*
X3041813Y2214144D01*
X3039846Y2212177D01*
X3038455Y2209768D01*
X3037735Y2207081D01*
Y2204299D01*
X3038455Y2201612D01*
X3039846Y2199203D01*
X3041813Y2197236D01*
X3044222Y2195845D01*
X3046909Y2195125D01*
X3049691D01*
X3052378Y2195845D01*
X3054787Y2197236D01*
X3056754Y2199203D01*
X3058145Y2201612D01*
X3058865Y2204299D01*
Y2207081D01*
X3058157Y2209722D01*
X3060944Y2212509D01*
X3061187Y2212608D01*
X3061939Y2212450D01*
X3062777Y2211277D01*
X3063656Y2209025D01*
X3063135Y2207081D01*
Y2204299D01*
X3063855Y2201612D01*
X3065246Y2199203D01*
X3067213Y2197236D01*
X3069622Y2195845D01*
X3072309Y2195125D01*
X3075091D01*
X3077778Y2195845D01*
X3080187Y2197236D01*
X3082154Y2199203D01*
X3083545Y2201612D01*
X3084265Y2204299D01*
Y2207081D01*
X3083545Y2209768D01*
X3082614Y2211381D01*
X3083554Y2213690D01*
X3084193Y2214381D01*
X3092750D01*
X3094326Y2214694D01*
X3095663Y2215587D01*
X3097478Y2217403D01*
X3100250Y2216255D01*
Y2159009D01*
X3083521D01*
X3082154Y2161377D01*
X3080187Y2163344D01*
X3077778Y2164735D01*
X3075091Y2165455D01*
X3072309D01*
X3069622Y2164735D01*
X3067213Y2163344D01*
X3065246Y2161377D01*
X3063879Y2159009D01*
X3058121D01*
X3056754Y2161377D01*
X3054787Y2163344D01*
X3052378Y2164735D01*
X3049691Y2165455D01*
X3046909D01*
X3044222Y2164735D01*
X3041813Y2163344D01*
X3039846Y2161377D01*
X3038455Y2158968D01*
X3037735Y2156281D01*
Y2153499D01*
X3038455Y2150812D01*
X3039846Y2148403D01*
X3041813Y2146436D01*
X3044222Y2145045D01*
X3046909Y2144325D01*
X3049691D01*
X3052378Y2145045D01*
X3054787Y2146436D01*
X3056754Y2148403D01*
X3058121Y2150771D01*
X3063879D01*
X3065246Y2148403D01*
X3067213Y2146436D01*
X3069622Y2145045D01*
X3072309Y2144325D01*
X3075091D01*
X3077778Y2145045D01*
X3080187Y2146436D01*
X3082154Y2148403D01*
X3083521Y2150771D01*
X3102390D01*
X3103966Y2151084D01*
X3105303Y2151977D01*
X3106825Y2153500D01*
X3117381D01*
Y2139706D01*
X3110884Y2133209D01*
X3083521D01*
X3082154Y2135577D01*
X3080187Y2137544D01*
X3077778Y2138935D01*
X3075091Y2139655D01*
X3072309D01*
X3069622Y2138935D01*
X3067213Y2137544D01*
X3065246Y2135577D01*
X3063879Y2133209D01*
X3058121D01*
X3056754Y2135577D01*
X3054787Y2137544D01*
X3052378Y2138935D01*
X3049691Y2139655D01*
X3046909D01*
X3044222Y2138935D01*
X3041813Y2137544D01*
X3039846Y2135577D01*
X3038455Y2133168D01*
X3037735Y2130481D01*
Y2127699D01*
X3038455Y2125012D01*
X3039846Y2122603D01*
X3041813Y2120636D01*
X3044222Y2119245D01*
X3046909Y2118525D01*
X3049691D01*
X3052378Y2119245D01*
X3054787Y2120636D01*
X3056754Y2122603D01*
X3058121Y2124971D01*
X3063879D01*
X3065246Y2122603D01*
X3067213Y2120636D01*
X3069622Y2119245D01*
X3072309Y2118525D01*
X3075091D01*
X3077778Y2119245D01*
X3080187Y2120636D01*
X3082154Y2122603D01*
X3083521Y2124971D01*
X3112590D01*
X3114166Y2125284D01*
X3115503Y2126177D01*
X3122881Y2133555D01*
X3125881Y2132313D01*
Y2062456D01*
X3124425Y2061000D01*
X3081250D01*
X3078739Y2062180D01*
X3077778Y2062735D01*
X3075091Y2063455D01*
X3072309D01*
X3069622Y2062735D01*
X3067213Y2061344D01*
X3065246Y2059377D01*
X3063855Y2056968D01*
X3063135Y2054281D01*
Y2051499D01*
X3063677Y2049476D01*
X3063169Y2047772D01*
X3062008Y2046012D01*
X3061404Y2045872D01*
X3060993Y2046022D01*
X3058157Y2048858D01*
X3058865Y2051499D01*
Y2054281D01*
X3058145Y2056968D01*
X3056754Y2059377D01*
X3054787Y2061344D01*
X3052378Y2062735D01*
X3049691Y2063455D01*
X3046909D01*
X3044222Y2062735D01*
X3041813Y2061344D01*
X3039846Y2059377D01*
X3038455Y2056968D01*
X3037735Y2054281D01*
Y2051499D01*
X3038455Y2048812D01*
X3039846Y2046403D01*
X3041813Y2044436D01*
X3044222Y2043045D01*
X3046909Y2042325D01*
X3049691D01*
X3052332Y2043033D01*
X3058277Y2037087D01*
X3059614Y2036194D01*
X3061190Y2035881D01*
X3063307D01*
X3064019Y2035034D01*
X3064844Y2032881D01*
X3063855Y2031168D01*
X3063135Y2028481D01*
Y2025699D01*
X3063538Y2024194D01*
X3062213Y2021428D01*
X3061630Y2020865D01*
X3060521Y2020695D01*
X3058157Y2023058D01*
X3058865Y2025699D01*
Y2028481D01*
X3058145Y2031168D01*
X3056754Y2033577D01*
X3054787Y2035544D01*
X3052378Y2036935D01*
X3049691Y2037655D01*
X3046909D01*
X3044222Y2036935D01*
X3041813Y2035544D01*
X3039846Y2033577D01*
X3038455Y2031168D01*
X3037735Y2028481D01*
Y2025699D01*
X3038455Y2023012D01*
X3039846Y2020603D01*
X3041813Y2018636D01*
X3044222Y2017245D01*
X3046909Y2016525D01*
X3049691D01*
X3052332Y2017233D01*
X3057727Y2011837D01*
X3059064Y2010944D01*
X3060640Y2010631D01*
X3063457D01*
X3064284Y2009497D01*
X3064930Y2007631D01*
X3063855Y2005768D01*
X3063135Y2003081D01*
Y2000299D01*
X3063855Y1997612D01*
X3065246Y1995203D01*
X3067213Y1993236D01*
X3069622Y1991845D01*
X3072309Y1991125D01*
X3075091D01*
X3077778Y1991845D01*
X3080187Y1993236D01*
X3082154Y1995203D01*
X3083545Y1997612D01*
X3084265Y2000299D01*
Y2003081D01*
X3083545Y2005768D01*
X3082545Y2007500D01*
X3083347Y2009621D01*
X3084074Y2010500D01*
X3154250D01*
Y1551000D01*
Y1534250D01*
X3031000Y1534250D01*
X2978750Y1586500D01*
Y1856250D01*
X2885250D01*
Y2884500D01*
X2747750Y3022000D01*
X2623500D01*
X2500000Y3145500D01*
X1559000D01*
Y2834000D01*
X1641000Y2752000D01*
X1641000Y2418651D01*
X1688000Y2371651D01*
Y2321750D01*
X1695250Y2314500D01*
X1882250D01*
X1888750Y2321000D01*
X1935500D01*
Y2308000D01*
X1897750D01*
X1888750Y2299000D01*
X1678500D01*
X1671250Y2306250D01*
Y2365750D01*
X1627000Y2410000D01*
X1627000Y2746250D01*
X1546750Y2826500D01*
Y3145500D01*
X185048D01*
X146250Y3106702D01*
Y2968250D01*
X85750D01*
Y3088658D01*
X157223Y3160131D01*
X3002294D01*
X3093881Y3068544D01*
D02*
G37*
G36*
X2182500Y2297000D02*
Y2081100D01*
X1959180D01*
Y2208100D01*
X2106500D01*
Y2299540D01*
X2117930Y2310970D01*
X2168530D01*
X2182500Y2297000D01*
D02*
G37*
G36*
X1882654Y2079821D02*
X1678183D01*
X1631194Y2126811D01*
Y2235694D01*
X1669250Y2273750D01*
X1882654D01*
Y2079821D01*
D02*
G37*
G36*
X2564732Y2974232D02*
X2655302Y2883662D01*
X2711250Y2780090D01*
Y2334060D01*
X2665624Y2288434D01*
Y2006624D01*
X2651200Y1992200D01*
X2550200D01*
X2535760Y1977760D01*
Y1873240D01*
X2549507Y1859493D01*
X2654027D01*
X2665624Y1847896D01*
Y1784124D01*
X2653990Y1772490D01*
X2547990D01*
X2535760Y1760260D01*
Y1677010D01*
X2523290Y1664540D01*
X1797890Y1664540D01*
X1644220D01*
Y1665017D01*
X1442844D01*
X1442844Y1726216D01*
X1442760Y1728775D01*
X1442092Y1733850D01*
X1440768Y1738794D01*
X1438809Y1743523D01*
X1436249Y1747956D01*
X1433133Y1752016D01*
X1429513Y1755636D01*
X1425452Y1758752D01*
X1421019Y1761311D01*
X1416290Y1763269D01*
X1411346Y1764594D01*
X1406271Y1765261D01*
X1403712Y1765345D01*
X1403713Y1765347D01*
X1296794D01*
X1073981Y1765347D01*
X1070395Y1765259D01*
X1063256Y1764556D01*
X1056220Y1763156D01*
X1049355Y1761074D01*
X1042728Y1758329D01*
X1036402Y1754948D01*
X1030437Y1750962D01*
X1024892Y1746411D01*
X1019819Y1741339D01*
X1015269Y1735794D01*
X1011283Y1729829D01*
X1007902Y1723503D01*
X1005157Y1716875D01*
X1003075Y1710011D01*
X1001675Y1702975D01*
X1000972Y1695836D01*
X1000884Y1692250D01*
X1099250D01*
Y1674750D01*
X1089517Y1665017D01*
X1016517D01*
X1000884Y1649384D01*
Y1447847D01*
X891664Y1338627D01*
Y991917D01*
X849754Y950007D01*
X774824D01*
X731644Y906827D01*
Y522017D01*
X768474Y485187D01*
X1045313D01*
X1069000Y461500D01*
Y352750D01*
X1084000Y337750D01*
X1270000D01*
X1285364Y322386D01*
Y237864D01*
X1270590Y223090D01*
X556384D01*
X525428Y254047D01*
X464203Y254047D01*
X450974Y267276D01*
Y343026D01*
X442163Y351837D01*
X370964Y351837D01*
Y416130D01*
X442130Y416130D01*
X450974Y424974D01*
Y741026D01*
X441383Y750617D01*
X370964Y750617D01*
Y816180D01*
X440680D01*
X449704Y825204D01*
Y941296D01*
X440993Y950007D01*
X370964D01*
Y1016047D01*
X440547Y1016047D01*
X449704Y1025204D01*
Y1541046D01*
X438763Y1551987D01*
X370964Y1551987D01*
Y1616280D01*
X439280D01*
X449704Y1626704D01*
Y2341796D01*
X438143Y2353357D01*
X381643D01*
X370964Y2364036D01*
X370964Y2405964D01*
X381380Y2416380D01*
X438630D01*
X449704Y2427454D01*
Y2514954D01*
X464637Y2529887D01*
X1472363D01*
X1533014Y2469236D01*
X1533014Y2197147D01*
Y2042207D01*
X1582544Y1992677D01*
X1644774D01*
Y1992200D01*
X2222288Y1992200D01*
X2258900Y2028812D01*
Y2442000D01*
X2258900D01*
Y2523797D01*
X2325595Y2616017D01*
X2491370Y2670682D01*
X2514170Y2702208D01*
Y2794793D01*
X2492695Y2834787D01*
X2340844Y2935423D01*
X2246822Y2963750D01*
X1959180D01*
X1919250Y2923820D01*
X1919250Y2856000D01*
X1907620Y2844370D01*
X1844630D01*
X1832180Y2856820D01*
Y3063680D01*
X1865250Y3096750D01*
X2389092D01*
X2564732Y2974232D01*
D02*
G37*
G36*
X2648500Y1932750D02*
X2571750D01*
Y1970250D01*
X2648500D01*
Y1932750D01*
D02*
G37*
G36*
Y1712750D02*
X2571750D01*
Y1750250D01*
X2648500D01*
Y1712750D01*
D02*
G37*
G36*
X2657680Y1548970D02*
X2595450D01*
Y1579230D01*
X2657680D01*
Y1548970D01*
D02*
G37*
G36*
X3211250Y3131949D02*
Y538000D01*
X3163500D01*
X3145750Y520250D01*
Y475250D01*
X3056000Y475250D01*
X3025250Y506000D01*
Y615500D01*
X2950750Y690000D01*
Y1199250D01*
X2884750Y1265250D01*
X2884750Y1841000D01*
X2965000D01*
Y1581250D01*
X3025250Y1521000D01*
X3163500D01*
Y3092000D01*
X3058000Y3197500D01*
Y3210750D01*
X3123500D01*
X3211250Y3131949D01*
D02*
G37*
G36*
X2657680Y1424510D02*
X2595450D01*
Y1470230D01*
X2657680D01*
Y1424510D01*
D02*
G37*
G36*
X1677240Y1584530D02*
Y1387490D01*
X1652030Y1362280D01*
X1485470D01*
X1265760Y1362280D01*
X1244170Y1383870D01*
X1244170Y1466343D01*
X1382677Y1604850D01*
X1412850D01*
X1656920Y1604850D01*
X1677240Y1584530D01*
D02*
G37*
G36*
X2567510Y1294970D02*
X2665300D01*
Y1132410D01*
X2522250D01*
Y909500D01*
X2327500D01*
Y560910D01*
X2665300D01*
Y470740D01*
X2522250D01*
Y234520D01*
X2035380D01*
Y501220D01*
X1658190D01*
Y612980D01*
X1608660Y662510D01*
Y957150D01*
X1711530Y1060020D01*
X1799160Y1147650D01*
Y1529160D01*
X1821510Y1551510D01*
X1918490Y1551510D01*
X1940130Y1529870D01*
Y1145870D01*
X1962480Y1123520D01*
X2168730D01*
X2191590Y1146380D01*
Y1530340D01*
X2212760Y1551510D01*
X2310970D01*
X2567510Y1294970D01*
D02*
G37*
G36*
X2665300Y1065100D02*
X2590370D01*
Y1004140D01*
X2665300D01*
Y909500D01*
X2536000D01*
Y1118440D01*
X2665300D01*
Y1065100D01*
D02*
G37*
G36*
X1237820Y1308680D02*
Y1241630D01*
X1101930Y1105740D01*
Y838180D01*
X1087550Y823800D01*
X990950D01*
X976200Y838550D01*
Y1300050D01*
X1000330Y1324180D01*
X1222320D01*
X1237820Y1308680D01*
D02*
G37*
G36*
X2665300Y691720D02*
X2536000D01*
Y782000D01*
X2665300D01*
Y691720D01*
D02*
G37*
G36*
X1676984Y1310266D02*
Y1257965D01*
X1640154Y1221135D01*
Y1175415D01*
X1613484Y1148745D01*
X1494185D01*
X1430860Y1085420D01*
X1430860Y648540D01*
X1416890Y634570D01*
X1353390D01*
X1338150Y649810D01*
X1338150Y1282270D01*
X1380380Y1324500D01*
X1662750D01*
X1676984Y1310266D01*
D02*
G37*
G36*
X2665300Y889840D02*
Y840310D01*
X2589100D01*
X2580210Y831420D01*
Y797130D01*
X2522250D01*
Y679000D01*
X2665300D01*
Y622250D01*
X2585670D01*
X2580210Y616790D01*
Y582500D01*
X2350340D01*
Y889840D01*
X2665300Y889840D01*
D02*
G37*
G36*
X1102307Y770193D02*
Y559684D01*
X1079446Y536824D01*
X803857D01*
X782266Y558414D01*
Y695574D01*
X806396Y719704D01*
X904186D01*
X1012137Y784474D01*
X1088026D01*
X1102307Y770193D01*
D02*
G37*
G36*
X1585800Y941910D02*
X1585800Y652350D01*
X1627710Y610440D01*
Y501220D01*
X1392760D01*
X1382600Y511380D01*
Y548210D01*
X1392760Y558370D01*
X1474040D01*
X1524840Y609170D01*
Y941910D01*
X1537540Y954610D01*
X1573100D01*
X1585800Y941910D01*
D02*
G37*
G36*
X1286250Y1154500D02*
Y500000D01*
X1250640Y464390D01*
X1174860D01*
X1142570Y496680D01*
X1142570Y1075260D01*
X1236550Y1169240D01*
X1271510D01*
X1286250Y1154500D01*
D02*
G37*
G36*
X2665055Y335718D02*
X2595205D01*
Y389460D01*
X2665055D01*
Y335718D01*
D02*
G37*
G36*
X2665300Y407240D02*
X2580210D01*
Y235790D01*
X2536000D01*
Y454230D01*
X2665300D01*
Y407240D01*
D02*
G37*
G36*
X1729735Y212852D02*
X1676395D01*
Y168402D01*
X1748785Y120142D01*
Y103632D01*
X1741165Y96012D01*
X1724655Y96012D01*
X1650995Y155702D01*
X1639565Y161857D01*
X1639565Y286512D01*
X1729735D01*
Y212852D01*
D02*
G37*
G36*
X2777060Y140810D02*
X2728530Y92280D01*
X2035380D01*
Y188800D01*
X2714830D01*
Y251030D01*
X2777060D01*
Y140810D01*
D02*
G37*
G36*
X2015500Y436010D02*
Y85750D01*
X1777242D01*
Y158902D01*
X1726442D01*
X1717552Y167792D01*
Y188112D01*
X1725172Y195732D01*
X1760732D01*
Y329389D01*
X1711202D01*
Y448822D01*
X1736242Y473862D01*
X1977648D01*
X2015500Y436010D01*
D02*
G37*
G36*
X1677362Y456648D02*
Y329389D01*
X1618942D01*
Y127459D01*
X1657042D01*
X1667202Y117299D01*
Y85750D01*
X1434670D01*
X1434670Y455500D01*
X1460070Y480900D01*
X1653110D01*
X1677362Y456648D01*
D02*
G37*
G36*
X513920Y180330D02*
Y96670D01*
X492000Y74750D01*
X392750D01*
X370410Y97090D01*
X370410Y216740D01*
X477510D01*
X513920Y180330D01*
D02*
G37*
%LPC*%
G36*
X2994602Y3146540D02*
X2992398D01*
X2990362Y3145697D01*
X2990335Y3145670D01*
X2988375Y3144413D01*
X2986415Y3145670D01*
X2986388Y3145697D01*
X2984352Y3146540D01*
X2982148D01*
X2980112Y3145697D01*
X2979960Y3145545D01*
X2978000Y3144448D01*
X2976040Y3145545D01*
X2975888Y3145697D01*
X2973852Y3146540D01*
X2971648D01*
X2969612Y3145697D01*
X2967875Y3144283D01*
X2966138Y3145697D01*
X2964102Y3146540D01*
X2961898D01*
X2959862Y3145697D01*
X2959460Y3145294D01*
X2957500Y3144474D01*
X2955540Y3145294D01*
X2955138Y3145697D01*
X2953102Y3146540D01*
X2950898D01*
X2948862Y3145697D01*
X2947933Y3144768D01*
X2946125Y3144387D01*
X2944317Y3144768D01*
X2943388Y3145697D01*
X2941352Y3146540D01*
X2939148D01*
X2937112Y3145697D01*
X2937085Y3145670D01*
X2935125Y3144413D01*
X2933165Y3145670D01*
X2933138Y3145697D01*
X2931102Y3146540D01*
X2928898D01*
X2926862Y3145697D01*
X2926710Y3145545D01*
X2924750Y3144448D01*
X2922790Y3145545D01*
X2922638Y3145697D01*
X2920602Y3146540D01*
X2918398D01*
X2916362Y3145697D01*
X2914625Y3144283D01*
X2912888Y3145697D01*
X2910852Y3146540D01*
X2908648D01*
X2906612Y3145697D01*
X2906210Y3145294D01*
X2904250Y3144474D01*
X2902290Y3145294D01*
X2901888Y3145697D01*
X2899852Y3146540D01*
X2897648D01*
X2895612Y3145697D01*
X2894683Y3144768D01*
X2892875Y3144387D01*
X2891067Y3144768D01*
X2890138Y3145697D01*
X2888102Y3146540D01*
X2885898D01*
X2883862Y3145697D01*
X2883835Y3145670D01*
X2881875Y3144413D01*
X2879915Y3145670D01*
X2879888Y3145697D01*
X2877852Y3146540D01*
X2875648D01*
X2873612Y3145697D01*
X2871750Y3144357D01*
X2869888Y3145697D01*
X2867852Y3146540D01*
X2865648D01*
X2863612Y3145697D01*
X2862053Y3144138D01*
X2861210Y3142102D01*
Y3139898D01*
X2862053Y3137862D01*
X2863612Y3136303D01*
X2865648Y3135460D01*
X2867852D01*
X2869888Y3136303D01*
X2871750Y3137643D01*
X2873612Y3136303D01*
X2875648Y3135460D01*
X2877852D01*
X2879888Y3136303D01*
X2879915Y3136330D01*
X2881875Y3137587D01*
X2883835Y3136330D01*
X2883862Y3136303D01*
X2885898Y3135460D01*
X2888102D01*
X2890138Y3136303D01*
X2891067Y3137232D01*
X2892875Y3137614D01*
X2894683Y3137232D01*
X2895612Y3136303D01*
X2897648Y3135460D01*
X2899852D01*
X2901888Y3136303D01*
X2902290Y3136705D01*
X2904250Y3137526D01*
X2906210Y3136705D01*
X2906612Y3136303D01*
X2908648Y3135460D01*
X2910852D01*
X2912888Y3136303D01*
X2914625Y3137717D01*
X2916362Y3136303D01*
X2918398Y3135460D01*
X2920602D01*
X2922638Y3136303D01*
X2922790Y3136455D01*
X2924750Y3137552D01*
X2926710Y3136455D01*
X2926862Y3136303D01*
X2928898Y3135460D01*
X2931102D01*
X2933138Y3136303D01*
X2933165Y3136330D01*
X2935125Y3137587D01*
X2937085Y3136330D01*
X2937112Y3136303D01*
X2939148Y3135460D01*
X2941352D01*
X2943388Y3136303D01*
X2944317Y3137232D01*
X2946125Y3137614D01*
X2947933Y3137232D01*
X2948862Y3136303D01*
X2950898Y3135460D01*
X2953102D01*
X2955138Y3136303D01*
X2955540Y3136705D01*
X2957500Y3137526D01*
X2959460Y3136705D01*
X2959862Y3136303D01*
X2961898Y3135460D01*
X2964102D01*
X2966138Y3136303D01*
X2967875Y3137717D01*
X2969612Y3136303D01*
X2971648Y3135460D01*
X2973852D01*
X2975888Y3136303D01*
X2976040Y3136455D01*
X2978000Y3137552D01*
X2979960Y3136455D01*
X2980112Y3136303D01*
X2982148Y3135460D01*
X2984352D01*
X2986388Y3136303D01*
X2986415Y3136330D01*
X2988375Y3137587D01*
X2990335Y3136330D01*
X2990362Y3136303D01*
X2992398Y3135460D01*
X2994602D01*
X2996638Y3136303D01*
X2998197Y3137862D01*
X2999040Y3139898D01*
Y3142102D01*
X2998197Y3144138D01*
X2996638Y3145697D01*
X2994602Y3146540D01*
D02*
G37*
G36*
X3048102Y3106290D02*
X3045898D01*
X3043862Y3105446D01*
X3042125Y3104033D01*
X3040388Y3105446D01*
X3038352Y3106290D01*
X3036148D01*
X3034112Y3105446D01*
X3033710Y3105045D01*
X3031750Y3104225D01*
X3029790Y3105045D01*
X3029388Y3105446D01*
X3027352Y3106290D01*
X3025148D01*
X3023112Y3105446D01*
X3022183Y3104518D01*
X3020375Y3104137D01*
X3018567Y3104518D01*
X3017638Y3105446D01*
X3015602Y3106290D01*
X3013398D01*
X3011362Y3105446D01*
X3011335Y3105420D01*
X3009375Y3104163D01*
X3007415Y3105420D01*
X3007388Y3105446D01*
X3005352Y3106290D01*
X3003148D01*
X3001112Y3105446D01*
X2999250Y3104107D01*
X2997388Y3105446D01*
X2995352Y3106290D01*
X2993148D01*
X2991112Y3105446D01*
X2989553Y3103888D01*
X2988710Y3101852D01*
Y3099648D01*
X2989553Y3097612D01*
X2991112Y3096053D01*
X2992098Y3095645D01*
X2992196Y3092438D01*
X2991612Y3092197D01*
X2990053Y3090638D01*
X2989545Y3089411D01*
X2986545Y3089601D01*
X2985825Y3092288D01*
X2984434Y3094697D01*
X2982467Y3096664D01*
X2980058Y3098055D01*
X2977371Y3098775D01*
X2974589D01*
X2971902Y3098055D01*
X2969493Y3096664D01*
X2967526Y3094697D01*
X2966135Y3092288D01*
X2965415Y3089601D01*
Y3086819D01*
X2966135Y3084132D01*
X2967526Y3081723D01*
X2969493Y3079756D01*
X2971902Y3078365D01*
X2974589Y3077645D01*
X2977371D01*
X2980058Y3078365D01*
X2982467Y3079756D01*
X2984434Y3081723D01*
X2985825Y3084132D01*
X2986345Y3086072D01*
X2987632Y3086219D01*
X2989409Y3085917D01*
X2990053Y3084362D01*
X2991612Y3082803D01*
X2993648Y3081960D01*
X2995852D01*
X2997888Y3082803D01*
X2999750Y3084143D01*
X3001612Y3082803D01*
X3003648Y3081960D01*
X3005852D01*
X3007888Y3082803D01*
X3007915Y3082831D01*
X3009875Y3084087D01*
X3011835Y3082831D01*
X3011862Y3082803D01*
X3013898Y3081960D01*
X3016102D01*
X3018138Y3082803D01*
X3019067Y3083732D01*
X3020875Y3084113D01*
X3022683Y3083732D01*
X3023612Y3082803D01*
X3025648Y3081960D01*
X3027852D01*
X3029888Y3082803D01*
X3030290Y3083205D01*
X3032250Y3084026D01*
X3034210Y3083205D01*
X3034612Y3082803D01*
X3036648Y3081960D01*
X3038852D01*
X3040888Y3082803D01*
X3042625Y3084217D01*
X3044362Y3082803D01*
X3046398Y3081960D01*
X3048602D01*
X3050638Y3082803D01*
X3050790Y3082955D01*
X3052750Y3084052D01*
X3054710Y3082955D01*
X3054862Y3082803D01*
X3056898Y3081960D01*
X3059102D01*
X3061138Y3082803D01*
X3062697Y3084362D01*
X3063540Y3086398D01*
Y3088602D01*
X3062697Y3090638D01*
X3061138Y3092197D01*
X3059102Y3093040D01*
X3056898D01*
X3054862Y3092197D01*
X3054710Y3092045D01*
X3052750Y3090948D01*
X3050790Y3092045D01*
X3050638Y3092197D01*
X3049652Y3092605D01*
X3049554Y3095811D01*
X3050138Y3096053D01*
X3051696Y3097612D01*
X3052540Y3099648D01*
Y3101852D01*
X3051696Y3103888D01*
X3050138Y3105446D01*
X3048102Y3106290D01*
D02*
G37*
G36*
X2977371Y3124175D02*
X2974589D01*
X2971902Y3123455D01*
X2969493Y3122064D01*
X2967526Y3120097D01*
X2966135Y3117688D01*
X2965415Y3115001D01*
Y3112219D01*
X2966135Y3109532D01*
X2967526Y3107123D01*
X2969493Y3105156D01*
X2971902Y3103765D01*
X2974589Y3103045D01*
X2977371D01*
X2980058Y3103765D01*
X2982467Y3105156D01*
X2984434Y3107123D01*
X2985825Y3109532D01*
X2986545Y3112219D01*
Y3115001D01*
X2985825Y3117688D01*
X2984434Y3120097D01*
X2982467Y3122064D01*
X2980058Y3123455D01*
X2977371Y3124175D01*
D02*
G37*
G36*
X2951971D02*
X2949189D01*
X2946502Y3123455D01*
X2944093Y3122064D01*
X2942126Y3120097D01*
X2940735Y3117688D01*
X2940015Y3115001D01*
Y3112219D01*
X2940735Y3109532D01*
X2942126Y3107123D01*
X2944093Y3105156D01*
X2946502Y3103765D01*
X2949189Y3103045D01*
X2951971D01*
X2954658Y3103765D01*
X2957067Y3105156D01*
X2959034Y3107123D01*
X2960425Y3109532D01*
X2961145Y3112219D01*
Y3115001D01*
X2960425Y3117688D01*
X2959034Y3120097D01*
X2957067Y3122064D01*
X2954658Y3123455D01*
X2951971Y3124175D01*
D02*
G37*
G36*
X2926171D02*
X2923389D01*
X2920702Y3123455D01*
X2918293Y3122064D01*
X2916326Y3120097D01*
X2914935Y3117688D01*
X2914215Y3115001D01*
Y3112219D01*
X2914935Y3109532D01*
X2916326Y3107123D01*
X2918293Y3105156D01*
X2920702Y3103765D01*
X2923389Y3103045D01*
X2926171D01*
X2928858Y3103765D01*
X2931267Y3105156D01*
X2933234Y3107123D01*
X2934625Y3109532D01*
X2935345Y3112219D01*
Y3115001D01*
X2934625Y3117688D01*
X2933234Y3120097D01*
X2931267Y3122064D01*
X2928858Y3123455D01*
X2926171Y3124175D01*
D02*
G37*
G36*
X2900771D02*
X2897989D01*
X2895302Y3123455D01*
X2892893Y3122064D01*
X2890926Y3120097D01*
X2889535Y3117688D01*
X2888815Y3115001D01*
Y3112219D01*
X2889535Y3109532D01*
X2890926Y3107123D01*
X2892893Y3105156D01*
X2895302Y3103765D01*
X2897989Y3103045D01*
X2900771D01*
X2903458Y3103765D01*
X2905867Y3105156D01*
X2907834Y3107123D01*
X2909225Y3109532D01*
X2909945Y3112219D01*
Y3115001D01*
X2909225Y3117688D01*
X2907834Y3120097D01*
X2905867Y3122064D01*
X2903458Y3123455D01*
X2900771Y3124175D01*
D02*
G37*
G36*
X2875371D02*
X2872589D01*
X2869902Y3123455D01*
X2867493Y3122064D01*
X2865526Y3120097D01*
X2864135Y3117688D01*
X2863415Y3115001D01*
Y3112219D01*
X2864135Y3109532D01*
X2865526Y3107123D01*
X2867493Y3105156D01*
X2869902Y3103765D01*
X2872589Y3103045D01*
X2875371D01*
X2878058Y3103765D01*
X2880467Y3105156D01*
X2882434Y3107123D01*
X2883825Y3109532D01*
X2884545Y3112219D01*
Y3115001D01*
X2883825Y3117688D01*
X2882434Y3120097D01*
X2880467Y3122064D01*
X2878058Y3123455D01*
X2875371Y3124175D01*
D02*
G37*
G36*
X2849971D02*
X2847189D01*
X2844502Y3123455D01*
X2842093Y3122064D01*
X2840126Y3120097D01*
X2838735Y3117688D01*
X2838015Y3115001D01*
Y3112219D01*
X2838735Y3109532D01*
X2840126Y3107123D01*
X2842093Y3105156D01*
X2844502Y3103765D01*
X2847189Y3103045D01*
X2849971D01*
X2852658Y3103765D01*
X2855067Y3105156D01*
X2857034Y3107123D01*
X2858425Y3109532D01*
X2859145Y3112219D01*
Y3115001D01*
X2858425Y3117688D01*
X2857034Y3120097D01*
X2855067Y3122064D01*
X2852658Y3123455D01*
X2849971Y3124175D01*
D02*
G37*
G36*
X2824171D02*
X2821389D01*
X2818702Y3123455D01*
X2816293Y3122064D01*
X2814326Y3120097D01*
X2812935Y3117688D01*
X2812215Y3115001D01*
Y3112219D01*
X2812935Y3109532D01*
X2814326Y3107123D01*
X2816293Y3105156D01*
X2818702Y3103765D01*
X2821389Y3103045D01*
X2824171D01*
X2826858Y3103765D01*
X2829267Y3105156D01*
X2831234Y3107123D01*
X2832625Y3109532D01*
X2833345Y3112219D01*
Y3115001D01*
X2832625Y3117688D01*
X2831234Y3120097D01*
X2829267Y3122064D01*
X2826858Y3123455D01*
X2824171Y3124175D01*
D02*
G37*
G36*
X2798771D02*
X2795989D01*
X2793302Y3123455D01*
X2790893Y3122064D01*
X2788926Y3120097D01*
X2787535Y3117688D01*
X2786815Y3115001D01*
Y3112219D01*
X2787535Y3109532D01*
X2788926Y3107123D01*
X2790893Y3105156D01*
X2793302Y3103765D01*
X2795989Y3103045D01*
X2798771D01*
X2801458Y3103765D01*
X2803867Y3105156D01*
X2805834Y3107123D01*
X2807225Y3109532D01*
X2807945Y3112219D01*
Y3115001D01*
X2807225Y3117688D01*
X2805834Y3120097D01*
X2803867Y3122064D01*
X2801458Y3123455D01*
X2798771Y3124175D01*
D02*
G37*
G36*
X2747971D02*
X2745189D01*
X2742502Y3123455D01*
X2740093Y3122064D01*
X2738126Y3120097D01*
X2736735Y3117688D01*
X2736015Y3115001D01*
Y3112219D01*
X2736735Y3109532D01*
X2738126Y3107123D01*
X2740093Y3105156D01*
X2742502Y3103765D01*
X2745189Y3103045D01*
X2747971D01*
X2750658Y3103765D01*
X2753067Y3105156D01*
X2755034Y3107123D01*
X2756425Y3109532D01*
X2757145Y3112219D01*
Y3115001D01*
X2756425Y3117688D01*
X2755034Y3120097D01*
X2753067Y3122064D01*
X2750658Y3123455D01*
X2747971Y3124175D01*
D02*
G37*
G36*
X2722171D02*
X2719389D01*
X2716702Y3123455D01*
X2714293Y3122064D01*
X2712326Y3120097D01*
X2710935Y3117688D01*
X2710215Y3115001D01*
Y3112219D01*
X2710935Y3109532D01*
X2712326Y3107123D01*
X2714293Y3105156D01*
X2716702Y3103765D01*
X2719389Y3103045D01*
X2722171D01*
X2724858Y3103765D01*
X2727267Y3105156D01*
X2729234Y3107123D01*
X2730625Y3109532D01*
X2731345Y3112219D01*
Y3115001D01*
X2730625Y3117688D01*
X2729234Y3120097D01*
X2727267Y3122064D01*
X2724858Y3123455D01*
X2722171Y3124175D01*
D02*
G37*
G36*
X2696771D02*
X2693989D01*
X2691302Y3123455D01*
X2688893Y3122064D01*
X2686926Y3120097D01*
X2685535Y3117688D01*
X2684815Y3115001D01*
Y3112219D01*
X2685535Y3109532D01*
X2686926Y3107123D01*
X2688893Y3105156D01*
X2691302Y3103765D01*
X2693989Y3103045D01*
X2696771D01*
X2699458Y3103765D01*
X2701867Y3105156D01*
X2703834Y3107123D01*
X2705225Y3109532D01*
X2705945Y3112219D01*
Y3115001D01*
X2705225Y3117688D01*
X2703834Y3120097D01*
X2701867Y3122064D01*
X2699458Y3123455D01*
X2696771Y3124175D01*
D02*
G37*
G36*
X2671371D02*
X2668589D01*
X2665902Y3123455D01*
X2663493Y3122064D01*
X2661526Y3120097D01*
X2660135Y3117688D01*
X2659415Y3115001D01*
Y3112219D01*
X2660135Y3109532D01*
X2661526Y3107123D01*
X2663493Y3105156D01*
X2665902Y3103765D01*
X2668589Y3103045D01*
X2671371D01*
X2674058Y3103765D01*
X2676467Y3105156D01*
X2678434Y3107123D01*
X2679825Y3109532D01*
X2680545Y3112219D01*
Y3115001D01*
X2679825Y3117688D01*
X2678434Y3120097D01*
X2676467Y3122064D01*
X2674058Y3123455D01*
X2671371Y3124175D01*
D02*
G37*
G36*
X2645971D02*
X2643189D01*
X2640502Y3123455D01*
X2638093Y3122064D01*
X2636126Y3120097D01*
X2634735Y3117688D01*
X2634015Y3115001D01*
Y3112219D01*
X2634735Y3109532D01*
X2636126Y3107123D01*
X2638093Y3105156D01*
X2640502Y3103765D01*
X2643189Y3103045D01*
X2645971D01*
X2648658Y3103765D01*
X2651067Y3105156D01*
X2653034Y3107123D01*
X2654425Y3109532D01*
X2655145Y3112219D01*
Y3115001D01*
X2654425Y3117688D01*
X2653034Y3120097D01*
X2651067Y3122064D01*
X2648658Y3123455D01*
X2645971Y3124175D01*
D02*
G37*
G36*
X2620571D02*
X2617789D01*
X2615102Y3123455D01*
X2612693Y3122064D01*
X2610726Y3120097D01*
X2609335Y3117688D01*
X2608615Y3115001D01*
Y3112219D01*
X2609335Y3109532D01*
X2610726Y3107123D01*
X2612693Y3105156D01*
X2615102Y3103765D01*
X2617789Y3103045D01*
X2620571D01*
X2623258Y3103765D01*
X2625667Y3105156D01*
X2627634Y3107123D01*
X2629025Y3109532D01*
X2629745Y3112219D01*
Y3115001D01*
X2629025Y3117688D01*
X2627634Y3120097D01*
X2625667Y3122064D01*
X2623258Y3123455D01*
X2620571Y3124175D01*
D02*
G37*
G36*
X2951971Y3098775D02*
X2949189D01*
X2946502Y3098055D01*
X2944093Y3096664D01*
X2942126Y3094697D01*
X2940735Y3092288D01*
X2940015Y3089601D01*
Y3086819D01*
X2940735Y3084132D01*
X2942126Y3081723D01*
X2944093Y3079756D01*
X2946502Y3078365D01*
X2949189Y3077645D01*
X2951971D01*
X2954658Y3078365D01*
X2957067Y3079756D01*
X2959034Y3081723D01*
X2960425Y3084132D01*
X2961145Y3086819D01*
Y3089601D01*
X2960425Y3092288D01*
X2959034Y3094697D01*
X2957067Y3096664D01*
X2954658Y3098055D01*
X2951971Y3098775D01*
D02*
G37*
G36*
X2926171D02*
X2923389D01*
X2920702Y3098055D01*
X2918293Y3096664D01*
X2916326Y3094697D01*
X2914935Y3092288D01*
X2914215Y3089601D01*
Y3086819D01*
X2914935Y3084132D01*
X2916326Y3081723D01*
X2918293Y3079756D01*
X2920702Y3078365D01*
X2923389Y3077645D01*
X2926171D01*
X2928858Y3078365D01*
X2931267Y3079756D01*
X2933234Y3081723D01*
X2934625Y3084132D01*
X2935345Y3086819D01*
Y3089601D01*
X2934625Y3092288D01*
X2933234Y3094697D01*
X2931267Y3096664D01*
X2928858Y3098055D01*
X2926171Y3098775D01*
D02*
G37*
G36*
X2900771D02*
X2897989D01*
X2895302Y3098055D01*
X2892893Y3096664D01*
X2890926Y3094697D01*
X2889535Y3092288D01*
X2888815Y3089601D01*
Y3086819D01*
X2889535Y3084132D01*
X2890926Y3081723D01*
X2892893Y3079756D01*
X2895302Y3078365D01*
X2897989Y3077645D01*
X2900771D01*
X2903458Y3078365D01*
X2905867Y3079756D01*
X2907834Y3081723D01*
X2909225Y3084132D01*
X2909945Y3086819D01*
Y3089601D01*
X2909225Y3092288D01*
X2907834Y3094697D01*
X2905867Y3096664D01*
X2903458Y3098055D01*
X2900771Y3098775D01*
D02*
G37*
G36*
X2875371D02*
X2872589D01*
X2869902Y3098055D01*
X2867493Y3096664D01*
X2865526Y3094697D01*
X2864135Y3092288D01*
X2863415Y3089601D01*
Y3086819D01*
X2864135Y3084132D01*
X2865526Y3081723D01*
X2867493Y3079756D01*
X2869902Y3078365D01*
X2872589Y3077645D01*
X2875371D01*
X2878058Y3078365D01*
X2880467Y3079756D01*
X2882434Y3081723D01*
X2883825Y3084132D01*
X2884545Y3086819D01*
Y3089601D01*
X2883825Y3092288D01*
X2882434Y3094697D01*
X2880467Y3096664D01*
X2878058Y3098055D01*
X2875371Y3098775D01*
D02*
G37*
G36*
X2849971D02*
X2847189D01*
X2844502Y3098055D01*
X2842093Y3096664D01*
X2840126Y3094697D01*
X2838735Y3092288D01*
X2838015Y3089601D01*
Y3086819D01*
X2838735Y3084132D01*
X2840126Y3081723D01*
X2842093Y3079756D01*
X2844502Y3078365D01*
X2847189Y3077645D01*
X2849971D01*
X2852658Y3078365D01*
X2855067Y3079756D01*
X2857034Y3081723D01*
X2858425Y3084132D01*
X2859145Y3086819D01*
Y3089601D01*
X2858425Y3092288D01*
X2857034Y3094697D01*
X2855067Y3096664D01*
X2852658Y3098055D01*
X2849971Y3098775D01*
D02*
G37*
G36*
X2824171D02*
X2821389D01*
X2818702Y3098055D01*
X2816293Y3096664D01*
X2814326Y3094697D01*
X2812935Y3092288D01*
X2812215Y3089601D01*
Y3086819D01*
X2812935Y3084132D01*
X2814326Y3081723D01*
X2816293Y3079756D01*
X2818702Y3078365D01*
X2821389Y3077645D01*
X2824171D01*
X2826858Y3078365D01*
X2829267Y3079756D01*
X2831234Y3081723D01*
X2832625Y3084132D01*
X2833345Y3086819D01*
Y3089601D01*
X2832625Y3092288D01*
X2831234Y3094697D01*
X2829267Y3096664D01*
X2826858Y3098055D01*
X2824171Y3098775D01*
D02*
G37*
G36*
X2798771D02*
X2795989D01*
X2793302Y3098055D01*
X2790893Y3096664D01*
X2788926Y3094697D01*
X2787535Y3092288D01*
X2786815Y3089601D01*
Y3086819D01*
X2787535Y3084132D01*
X2788926Y3081723D01*
X2790893Y3079756D01*
X2793302Y3078365D01*
X2795989Y3077645D01*
X2798771D01*
X2801458Y3078365D01*
X2803867Y3079756D01*
X2805834Y3081723D01*
X2807225Y3084132D01*
X2807945Y3086819D01*
Y3089601D01*
X2807225Y3092288D01*
X2805834Y3094697D01*
X2803867Y3096664D01*
X2801458Y3098055D01*
X2798771Y3098775D01*
D02*
G37*
G36*
X2773371D02*
X2770589D01*
X2767902Y3098055D01*
X2765493Y3096664D01*
X2763526Y3094697D01*
X2762135Y3092288D01*
X2761415Y3089601D01*
Y3086819D01*
X2762135Y3084132D01*
X2763526Y3081723D01*
X2765493Y3079756D01*
X2767902Y3078365D01*
X2770589Y3077645D01*
X2773371D01*
X2776058Y3078365D01*
X2778467Y3079756D01*
X2780434Y3081723D01*
X2781825Y3084132D01*
X2782545Y3086819D01*
Y3089601D01*
X2781825Y3092288D01*
X2780434Y3094697D01*
X2778467Y3096664D01*
X2776058Y3098055D01*
X2773371Y3098775D01*
D02*
G37*
G36*
X2747971D02*
X2745189D01*
X2742502Y3098055D01*
X2740093Y3096664D01*
X2738126Y3094697D01*
X2736735Y3092288D01*
X2736015Y3089601D01*
Y3086819D01*
X2736735Y3084132D01*
X2738126Y3081723D01*
X2740093Y3079756D01*
X2742502Y3078365D01*
X2745189Y3077645D01*
X2747971D01*
X2750658Y3078365D01*
X2753067Y3079756D01*
X2755034Y3081723D01*
X2756425Y3084132D01*
X2757145Y3086819D01*
Y3089601D01*
X2756425Y3092288D01*
X2755034Y3094697D01*
X2753067Y3096664D01*
X2750658Y3098055D01*
X2747971Y3098775D01*
D02*
G37*
G36*
X2722171D02*
X2719389D01*
X2716702Y3098055D01*
X2714293Y3096664D01*
X2712326Y3094697D01*
X2710935Y3092288D01*
X2710215Y3089601D01*
Y3086819D01*
X2710935Y3084132D01*
X2712326Y3081723D01*
X2714293Y3079756D01*
X2716702Y3078365D01*
X2719389Y3077645D01*
X2722171D01*
X2724858Y3078365D01*
X2727267Y3079756D01*
X2729234Y3081723D01*
X2730625Y3084132D01*
X2731345Y3086819D01*
Y3089601D01*
X2730625Y3092288D01*
X2729234Y3094697D01*
X2727267Y3096664D01*
X2724858Y3098055D01*
X2722171Y3098775D01*
D02*
G37*
G36*
X2696771D02*
X2693989D01*
X2691302Y3098055D01*
X2688893Y3096664D01*
X2686926Y3094697D01*
X2685535Y3092288D01*
X2684815Y3089601D01*
Y3086819D01*
X2685535Y3084132D01*
X2686926Y3081723D01*
X2688893Y3079756D01*
X2691302Y3078365D01*
X2693989Y3077645D01*
X2696771D01*
X2699458Y3078365D01*
X2701867Y3079756D01*
X2703834Y3081723D01*
X2705225Y3084132D01*
X2705945Y3086819D01*
Y3089601D01*
X2705225Y3092288D01*
X2703834Y3094697D01*
X2701867Y3096664D01*
X2699458Y3098055D01*
X2696771Y3098775D01*
D02*
G37*
G36*
X2671371D02*
X2668589D01*
X2665902Y3098055D01*
X2663493Y3096664D01*
X2661526Y3094697D01*
X2660135Y3092288D01*
X2659415Y3089601D01*
Y3086819D01*
X2660135Y3084132D01*
X2661526Y3081723D01*
X2663493Y3079756D01*
X2665902Y3078365D01*
X2668589Y3077645D01*
X2671371D01*
X2674058Y3078365D01*
X2676467Y3079756D01*
X2678434Y3081723D01*
X2679825Y3084132D01*
X2680545Y3086819D01*
Y3089601D01*
X2679825Y3092288D01*
X2678434Y3094697D01*
X2676467Y3096664D01*
X2674058Y3098055D01*
X2671371Y3098775D01*
D02*
G37*
G36*
X2645971D02*
X2643189D01*
X2640502Y3098055D01*
X2638093Y3096664D01*
X2636126Y3094697D01*
X2634735Y3092288D01*
X2634015Y3089601D01*
Y3086819D01*
X2634735Y3084132D01*
X2636126Y3081723D01*
X2638093Y3079756D01*
X2640502Y3078365D01*
X2643189Y3077645D01*
X2645971D01*
X2648658Y3078365D01*
X2651067Y3079756D01*
X2653034Y3081723D01*
X2654425Y3084132D01*
X2655145Y3086819D01*
Y3089601D01*
X2654425Y3092288D01*
X2653034Y3094697D01*
X2651067Y3096664D01*
X2648658Y3098055D01*
X2645971Y3098775D01*
D02*
G37*
G36*
X2629745D02*
X2608615D01*
Y3077645D01*
X2629745D01*
Y3098775D01*
D02*
G37*
G36*
X2999375Y2632260D02*
X2996705D01*
X2994126Y2631569D01*
X2991814Y2630234D01*
X2989926Y2628346D01*
X2988591Y2626034D01*
X2987900Y2623455D01*
Y2620785D01*
X2988591Y2618206D01*
X2989926Y2615894D01*
X2991814Y2614006D01*
X2994126Y2612671D01*
X2996705Y2611980D01*
X2999375D01*
X3001954Y2612671D01*
X3004266Y2614006D01*
X3006154Y2615894D01*
X3007489Y2618206D01*
X3008180Y2620785D01*
Y2623455D01*
X3007489Y2626034D01*
X3006154Y2628346D01*
X3004266Y2630234D01*
X3001954Y2631569D01*
X2999375Y2632260D01*
D02*
G37*
G36*
X3084265Y2267055D02*
X3063135D01*
Y2245925D01*
X3084265D01*
Y2267055D01*
D02*
G37*
G36*
X3049691D02*
X3046909D01*
X3044222Y2266335D01*
X3041813Y2264944D01*
X3039846Y2262977D01*
X3038455Y2260568D01*
X3037735Y2257881D01*
Y2255099D01*
X3038455Y2252412D01*
X3039846Y2250003D01*
X3041813Y2248036D01*
X3044222Y2246645D01*
X3046909Y2245925D01*
X3049691D01*
X3052378Y2246645D01*
X3054787Y2248036D01*
X3056754Y2250003D01*
X3058145Y2252412D01*
X3058865Y2255099D01*
Y2257881D01*
X3058145Y2260568D01*
X3056754Y2262977D01*
X3054787Y2264944D01*
X3052378Y2266335D01*
X3049691Y2267055D01*
D02*
G37*
G36*
Y2241655D02*
X3046909D01*
X3044222Y2240935D01*
X3041813Y2239544D01*
X3039846Y2237577D01*
X3038455Y2235168D01*
X3037735Y2232481D01*
Y2229699D01*
X3038455Y2227012D01*
X3039846Y2224603D01*
X3041813Y2222636D01*
X3044222Y2221245D01*
X3046909Y2220525D01*
X3049691D01*
X3052378Y2221245D01*
X3054787Y2222636D01*
X3056754Y2224603D01*
X3058145Y2227012D01*
X3058865Y2229699D01*
Y2232481D01*
X3058145Y2235168D01*
X3056754Y2237577D01*
X3054787Y2239544D01*
X3052378Y2240935D01*
X3049691Y2241655D01*
D02*
G37*
G36*
X3075091Y2190855D02*
X3072309D01*
X3069622Y2190135D01*
X3067213Y2188744D01*
X3065246Y2186777D01*
X3063855Y2184368D01*
X3063135Y2181681D01*
Y2178899D01*
X3063855Y2176212D01*
X3065246Y2173803D01*
X3067213Y2171836D01*
X3069622Y2170445D01*
X3072309Y2169725D01*
X3075091D01*
X3077778Y2170445D01*
X3080187Y2171836D01*
X3082154Y2173803D01*
X3083545Y2176212D01*
X3084265Y2178899D01*
Y2181681D01*
X3083545Y2184368D01*
X3082154Y2186777D01*
X3080187Y2188744D01*
X3077778Y2190135D01*
X3075091Y2190855D01*
D02*
G37*
G36*
X3049691D02*
X3046909D01*
X3044222Y2190135D01*
X3041813Y2188744D01*
X3039846Y2186777D01*
X3038455Y2184368D01*
X3037735Y2181681D01*
Y2178899D01*
X3038455Y2176212D01*
X3039846Y2173803D01*
X3041813Y2171836D01*
X3044222Y2170445D01*
X3046909Y2169725D01*
X3049691D01*
X3052378Y2170445D01*
X3054787Y2171836D01*
X3056754Y2173803D01*
X3058145Y2176212D01*
X3058865Y2178899D01*
Y2181681D01*
X3058145Y2184368D01*
X3056754Y2186777D01*
X3054787Y2188744D01*
X3052378Y2190135D01*
X3049691Y2190855D01*
D02*
G37*
G36*
X3075091Y2114255D02*
X3072309D01*
X3069622Y2113535D01*
X3067213Y2112144D01*
X3065246Y2110177D01*
X3063855Y2107768D01*
X3063135Y2105081D01*
Y2102299D01*
X3063855Y2099612D01*
X3065246Y2097203D01*
X3067213Y2095236D01*
X3068561Y2094458D01*
Y2087523D01*
X3067213Y2086744D01*
X3065246Y2084777D01*
X3063855Y2082368D01*
X3063135Y2079681D01*
Y2076899D01*
X3063855Y2074212D01*
X3065246Y2071803D01*
X3067213Y2069836D01*
X3069622Y2068445D01*
X3072309Y2067725D01*
X3075091D01*
X3077778Y2068445D01*
X3080187Y2069836D01*
X3082154Y2071803D01*
X3083545Y2074212D01*
X3084265Y2076899D01*
Y2079681D01*
X3083545Y2082368D01*
X3082154Y2084777D01*
X3080187Y2086744D01*
X3078839Y2087523D01*
Y2094458D01*
X3080187Y2095236D01*
X3082154Y2097203D01*
X3083545Y2099612D01*
X3084265Y2102299D01*
Y2105081D01*
X3083545Y2107768D01*
X3082154Y2110177D01*
X3080187Y2112144D01*
X3077778Y2113535D01*
X3075091Y2114255D01*
D02*
G37*
G36*
X3049691D02*
X3046909D01*
X3044222Y2113535D01*
X3041813Y2112144D01*
X3039846Y2110177D01*
X3038455Y2107768D01*
X3037735Y2105081D01*
Y2102299D01*
X3038455Y2099612D01*
X3039846Y2097203D01*
X3041813Y2095236D01*
X3043161Y2094458D01*
Y2087523D01*
X3041813Y2086744D01*
X3039846Y2084777D01*
X3038455Y2082368D01*
X3037735Y2079681D01*
Y2076899D01*
X3038455Y2074212D01*
X3039846Y2071803D01*
X3041813Y2069836D01*
X3044222Y2068445D01*
X3046909Y2067725D01*
X3049691D01*
X3052378Y2068445D01*
X3054787Y2069836D01*
X3056754Y2071803D01*
X3058145Y2074212D01*
X3058865Y2076899D01*
Y2079681D01*
X3058145Y2082368D01*
X3056754Y2084777D01*
X3054787Y2086744D01*
X3053439Y2087523D01*
Y2094458D01*
X3054787Y2095236D01*
X3056754Y2097203D01*
X3058145Y2099612D01*
X3058865Y2102299D01*
Y2105081D01*
X3058145Y2107768D01*
X3056754Y2110177D01*
X3054787Y2112144D01*
X3052378Y2113535D01*
X3049691Y2114255D01*
D02*
G37*
G36*
Y2012255D02*
X3046909D01*
X3044222Y2011535D01*
X3041813Y2010144D01*
X3039846Y2008177D01*
X3038455Y2005768D01*
X3037735Y2003081D01*
Y2000299D01*
X3038455Y1997612D01*
X3039846Y1995203D01*
X3041813Y1993236D01*
X3044222Y1991845D01*
X3046909Y1991125D01*
X3049691D01*
X3052378Y1991845D01*
X3054787Y1993236D01*
X3056754Y1995203D01*
X3058145Y1997612D01*
X3058865Y2000299D01*
Y2003081D01*
X3058145Y2005768D01*
X3056754Y2008177D01*
X3054787Y2010144D01*
X3052378Y2011535D01*
X3049691Y2012255D01*
D02*
G37*
G36*
X3075091Y1986855D02*
X3072309D01*
X3069622Y1986135D01*
X3067213Y1984744D01*
X3065246Y1982777D01*
X3063855Y1980368D01*
X3063135Y1977681D01*
Y1974899D01*
X3063855Y1972212D01*
X3065246Y1969803D01*
X3067213Y1967836D01*
X3069622Y1966445D01*
X3072309Y1965725D01*
X3075091D01*
X3077778Y1966445D01*
X3080187Y1967836D01*
X3082154Y1969803D01*
X3083545Y1972212D01*
X3084265Y1974899D01*
Y1977681D01*
X3083545Y1980368D01*
X3082154Y1982777D01*
X3080187Y1984744D01*
X3077778Y1986135D01*
X3075091Y1986855D01*
D02*
G37*
G36*
X3049691D02*
X3046909D01*
X3044222Y1986135D01*
X3041813Y1984744D01*
X3039846Y1982777D01*
X3038455Y1980368D01*
X3037735Y1977681D01*
Y1974899D01*
X3038455Y1972212D01*
X3039846Y1969803D01*
X3041813Y1967836D01*
X3044222Y1966445D01*
X3046909Y1965725D01*
X3049691D01*
X3052378Y1966445D01*
X3054787Y1967836D01*
X3056754Y1969803D01*
X3058145Y1972212D01*
X3058865Y1974899D01*
Y1977681D01*
X3058145Y1980368D01*
X3056754Y1982777D01*
X3054787Y1984744D01*
X3052378Y1986135D01*
X3049691Y1986855D01*
D02*
G37*
G36*
X3075091Y1961455D02*
X3072309D01*
X3069622Y1960735D01*
X3067213Y1959344D01*
X3065246Y1957377D01*
X3063855Y1954968D01*
X3063135Y1952281D01*
Y1949499D01*
X3063855Y1946812D01*
X3065246Y1944403D01*
X3067213Y1942436D01*
X3069622Y1941045D01*
X3072309Y1940325D01*
X3075091D01*
X3077778Y1941045D01*
X3080187Y1942436D01*
X3082154Y1944403D01*
X3083545Y1946812D01*
X3084265Y1949499D01*
Y1952281D01*
X3083545Y1954968D01*
X3082154Y1957377D01*
X3080187Y1959344D01*
X3077778Y1960735D01*
X3075091Y1961455D01*
D02*
G37*
G36*
X3049691D02*
X3046909D01*
X3044222Y1960735D01*
X3041813Y1959344D01*
X3039846Y1957377D01*
X3038455Y1954968D01*
X3037735Y1952281D01*
Y1949499D01*
X3038455Y1946812D01*
X3039846Y1944403D01*
X3041813Y1942436D01*
X3044222Y1941045D01*
X3046909Y1940325D01*
X3049691D01*
X3052378Y1941045D01*
X3054787Y1942436D01*
X3056754Y1944403D01*
X3058145Y1946812D01*
X3058865Y1949499D01*
Y1952281D01*
X3058145Y1954968D01*
X3056754Y1957377D01*
X3054787Y1959344D01*
X3052378Y1960735D01*
X3049691Y1961455D01*
D02*
G37*
G36*
X3075091Y1935655D02*
X3072309D01*
X3069622Y1934935D01*
X3067213Y1933544D01*
X3065246Y1931577D01*
X3063855Y1929168D01*
X3063135Y1926481D01*
Y1923699D01*
X3063855Y1921012D01*
X3065246Y1918603D01*
X3067213Y1916636D01*
X3069622Y1915245D01*
X3072309Y1914525D01*
X3075091D01*
X3077778Y1915245D01*
X3080187Y1916636D01*
X3082154Y1918603D01*
X3083545Y1921012D01*
X3084265Y1923699D01*
Y1926481D01*
X3083545Y1929168D01*
X3082154Y1931577D01*
X3080187Y1933544D01*
X3077778Y1934935D01*
X3075091Y1935655D01*
D02*
G37*
G36*
X3049691D02*
X3046909D01*
X3044222Y1934935D01*
X3041813Y1933544D01*
X3039846Y1931577D01*
X3038455Y1929168D01*
X3037735Y1926481D01*
Y1923699D01*
X3038455Y1921012D01*
X3039846Y1918603D01*
X3041813Y1916636D01*
X3044222Y1915245D01*
X3046909Y1914525D01*
X3049691D01*
X3052378Y1915245D01*
X3054787Y1916636D01*
X3056754Y1918603D01*
X3058145Y1921012D01*
X3058865Y1923699D01*
Y1926481D01*
X3058145Y1929168D01*
X3056754Y1931577D01*
X3054787Y1933544D01*
X3052378Y1934935D01*
X3049691Y1935655D01*
D02*
G37*
G36*
X3075091Y1910255D02*
X3072309D01*
X3069622Y1909535D01*
X3067213Y1908144D01*
X3065246Y1906177D01*
X3063855Y1903768D01*
X3063135Y1901081D01*
Y1898299D01*
X3063855Y1895612D01*
X3065246Y1893203D01*
X3067213Y1891236D01*
X3069622Y1889845D01*
X3072309Y1889125D01*
X3075091D01*
X3077778Y1889845D01*
X3080187Y1891236D01*
X3082154Y1893203D01*
X3083545Y1895612D01*
X3084265Y1898299D01*
Y1901081D01*
X3083545Y1903768D01*
X3082154Y1906177D01*
X3080187Y1908144D01*
X3077778Y1909535D01*
X3075091Y1910255D01*
D02*
G37*
G36*
X3049691Y1910055D02*
X3046909D01*
X3044222Y1909335D01*
X3041813Y1907944D01*
X3039846Y1905977D01*
X3038455Y1903568D01*
X3037735Y1900881D01*
Y1898099D01*
X3038455Y1895412D01*
X3039846Y1893003D01*
X3041813Y1891036D01*
X3044222Y1889645D01*
X3046909Y1888925D01*
X3049691D01*
X3052378Y1889645D01*
X3054787Y1891036D01*
X3056754Y1893003D01*
X3058145Y1895412D01*
X3058865Y1898099D01*
Y1900881D01*
X3058145Y1903568D01*
X3056754Y1905977D01*
X3054787Y1907944D01*
X3052378Y1909335D01*
X3049691Y1910055D01*
D02*
G37*
G36*
Y1884655D02*
X3046909D01*
X3044222Y1883935D01*
X3041813Y1882544D01*
X3039846Y1880577D01*
X3038455Y1878168D01*
X3037735Y1875481D01*
Y1872699D01*
X3038455Y1870012D01*
X3039846Y1867603D01*
X3041813Y1865636D01*
X3044222Y1864245D01*
X3046909Y1863525D01*
X3049691D01*
X3052378Y1864245D01*
X3054787Y1865636D01*
X3056754Y1867603D01*
X3058145Y1870012D01*
X3058865Y1872699D01*
Y1875481D01*
X3058145Y1878168D01*
X3056754Y1880577D01*
X3054787Y1882544D01*
X3052378Y1883935D01*
X3049691Y1884655D01*
D02*
G37*
G36*
X3075091D02*
X3072309D01*
X3069622Y1883935D01*
X3067213Y1882544D01*
X3065246Y1880577D01*
X3063855Y1878168D01*
X3063135Y1875481D01*
Y1872699D01*
X3063855Y1870012D01*
X3064803Y1868369D01*
X3063898Y1866104D01*
X3063237Y1865369D01*
X3060860D01*
X3059284Y1865056D01*
X3057947Y1864163D01*
X3052332Y1858547D01*
X3049691Y1859255D01*
X3046909D01*
X3044222Y1858535D01*
X3041813Y1857144D01*
X3039846Y1855177D01*
X3038455Y1852768D01*
X3037735Y1850081D01*
Y1847299D01*
X3038455Y1844612D01*
X3039846Y1842203D01*
X3041813Y1840236D01*
X3044222Y1838845D01*
X3046909Y1838125D01*
X3049691D01*
X3052378Y1838845D01*
X3054787Y1840236D01*
X3056754Y1842203D01*
X3058145Y1844612D01*
X3058865Y1847299D01*
Y1850081D01*
X3058157Y1852722D01*
X3060768Y1855333D01*
X3061770Y1855157D01*
X3062464Y1854361D01*
X3063593Y1851790D01*
X3063135Y1850081D01*
Y1847299D01*
X3063855Y1844612D01*
X3065246Y1842203D01*
X3067213Y1840236D01*
X3069622Y1838845D01*
X3072309Y1838125D01*
X3075091D01*
X3077778Y1838845D01*
X3080187Y1840236D01*
X3082154Y1842203D01*
X3083545Y1844612D01*
X3084265Y1847299D01*
Y1850081D01*
X3083545Y1852768D01*
X3082758Y1854131D01*
X3084161Y1857131D01*
X3126250D01*
X3127826Y1857444D01*
X3129163Y1858337D01*
X3137785Y1866960D01*
X3139361D01*
X3141024Y1867406D01*
X3142516Y1868267D01*
X3143733Y1869484D01*
X3144594Y1870976D01*
X3145040Y1872639D01*
Y1874361D01*
X3144594Y1876024D01*
X3143733Y1877516D01*
X3142516Y1878733D01*
X3141024Y1879594D01*
X3139361Y1880040D01*
X3137639D01*
X3135976Y1879594D01*
X3134484Y1878733D01*
X3133267Y1877516D01*
X3132406Y1876024D01*
X3131960Y1874361D01*
Y1872785D01*
X3124544Y1865369D01*
X3084163D01*
X3083502Y1866104D01*
X3082596Y1868369D01*
X3083545Y1870012D01*
X3084265Y1872699D01*
Y1875481D01*
X3083545Y1878168D01*
X3082154Y1880577D01*
X3080187Y1882544D01*
X3077778Y1883935D01*
X3075091Y1884655D01*
D02*
G37*
G36*
X3049691Y1833855D02*
X3046909D01*
X3044222Y1833135D01*
X3041813Y1831744D01*
X3039846Y1829777D01*
X3038455Y1827368D01*
X3037735Y1824681D01*
Y1821899D01*
X3038455Y1819212D01*
X3039846Y1816803D01*
X3041813Y1814836D01*
X3044222Y1813445D01*
X3046909Y1812725D01*
X3049691D01*
X3052378Y1813445D01*
X3054787Y1814836D01*
X3056754Y1816803D01*
X3058145Y1819212D01*
X3058865Y1821899D01*
Y1824681D01*
X3058145Y1827368D01*
X3056754Y1829777D01*
X3054787Y1831744D01*
X3052378Y1833135D01*
X3049691Y1833855D01*
D02*
G37*
G36*
X3139361Y1804540D02*
X3137639D01*
X3135976Y1804094D01*
X3134484Y1803233D01*
X3133267Y1802016D01*
X3132406Y1800524D01*
X3131960Y1798861D01*
Y1797139D01*
X3132406Y1795476D01*
X3133267Y1793984D01*
X3134484Y1792767D01*
X3135976Y1791906D01*
X3137639Y1791460D01*
X3139361D01*
X3141024Y1791906D01*
X3142516Y1792767D01*
X3143733Y1793984D01*
X3144594Y1795476D01*
X3145040Y1797139D01*
Y1798861D01*
X3144594Y1800524D01*
X3143733Y1802016D01*
X3142516Y1803233D01*
X3141024Y1804094D01*
X3139361Y1804540D01*
D02*
G37*
G36*
X3075091Y1782655D02*
X3072309D01*
X3069622Y1781935D01*
X3067213Y1780544D01*
X3065246Y1778577D01*
X3063855Y1776168D01*
X3063135Y1773481D01*
Y1770699D01*
X3063855Y1768012D01*
X3065246Y1765603D01*
X3067213Y1763636D01*
X3069622Y1762245D01*
X3072309Y1761525D01*
X3075091D01*
X3077778Y1762245D01*
X3080187Y1763636D01*
X3082154Y1765603D01*
X3083545Y1768012D01*
X3084265Y1770699D01*
Y1773481D01*
X3083545Y1776168D01*
X3082154Y1778577D01*
X3080187Y1780544D01*
X3077778Y1781935D01*
X3075091Y1782655D01*
D02*
G37*
G36*
X3049691D02*
X3046909D01*
X3044222Y1781935D01*
X3041813Y1780544D01*
X3039846Y1778577D01*
X3038455Y1776168D01*
X3037735Y1773481D01*
Y1770699D01*
X3038455Y1768012D01*
X3039846Y1765603D01*
X3041813Y1763636D01*
X3044222Y1762245D01*
X3046909Y1761525D01*
X3049691D01*
X3052378Y1762245D01*
X3054787Y1763636D01*
X3056754Y1765603D01*
X3058145Y1768012D01*
X3058865Y1770699D01*
Y1773481D01*
X3058145Y1776168D01*
X3056754Y1778577D01*
X3054787Y1780544D01*
X3052378Y1781935D01*
X3049691Y1782655D01*
D02*
G37*
G36*
X3075091Y1757255D02*
X3072309D01*
X3069622Y1756535D01*
X3067213Y1755144D01*
X3065246Y1753177D01*
X3063855Y1750768D01*
X3063135Y1748081D01*
Y1745299D01*
X3063855Y1742612D01*
X3065246Y1740203D01*
X3067213Y1738236D01*
X3069622Y1736845D01*
X3072309Y1736125D01*
X3075091D01*
X3077778Y1736845D01*
X3080187Y1738236D01*
X3082154Y1740203D01*
X3083545Y1742612D01*
X3084265Y1745299D01*
Y1748081D01*
X3083545Y1750768D01*
X3082154Y1753177D01*
X3080187Y1755144D01*
X3077778Y1756535D01*
X3075091Y1757255D01*
D02*
G37*
G36*
X3049691D02*
X3046909D01*
X3044222Y1756535D01*
X3041813Y1755144D01*
X3039846Y1753177D01*
X3038455Y1750768D01*
X3037735Y1748081D01*
Y1745299D01*
X3038455Y1742612D01*
X3039846Y1740203D01*
X3041813Y1738236D01*
X3044222Y1736845D01*
X3046909Y1736125D01*
X3049691D01*
X3052378Y1736845D01*
X3054787Y1738236D01*
X3056754Y1740203D01*
X3058145Y1742612D01*
X3058865Y1745299D01*
Y1748081D01*
X3058145Y1750768D01*
X3056754Y1753177D01*
X3054787Y1755144D01*
X3052378Y1756535D01*
X3049691Y1757255D01*
D02*
G37*
G36*
X3075091Y1731855D02*
X3072309D01*
X3069622Y1731135D01*
X3067213Y1729744D01*
X3065246Y1727777D01*
X3063855Y1725368D01*
X3063135Y1722681D01*
Y1719899D01*
X3063855Y1717212D01*
X3065246Y1714803D01*
X3067213Y1712836D01*
X3069622Y1711445D01*
X3072309Y1710725D01*
X3075091D01*
X3077778Y1711445D01*
X3080187Y1712836D01*
X3082154Y1714803D01*
X3083545Y1717212D01*
X3084265Y1719899D01*
Y1722681D01*
X3083545Y1725368D01*
X3082154Y1727777D01*
X3080187Y1729744D01*
X3077778Y1731135D01*
X3075091Y1731855D01*
D02*
G37*
G36*
X3049691D02*
X3046909D01*
X3044222Y1731135D01*
X3041813Y1729744D01*
X3039846Y1727777D01*
X3038455Y1725368D01*
X3037735Y1722681D01*
Y1719899D01*
X3038455Y1717212D01*
X3039846Y1714803D01*
X3041813Y1712836D01*
X3044222Y1711445D01*
X3046909Y1710725D01*
X3049691D01*
X3052378Y1711445D01*
X3054787Y1712836D01*
X3056754Y1714803D01*
X3058145Y1717212D01*
X3058865Y1719899D01*
Y1722681D01*
X3058145Y1725368D01*
X3056754Y1727777D01*
X3054787Y1729744D01*
X3052378Y1731135D01*
X3049691Y1731855D01*
D02*
G37*
G36*
X3075091Y1680655D02*
X3072309D01*
X3069622Y1679935D01*
X3067213Y1678544D01*
X3065246Y1676577D01*
X3064467Y1675229D01*
X3057533D01*
X3056754Y1676577D01*
X3054787Y1678544D01*
X3052378Y1679935D01*
X3049691Y1680655D01*
X3046909D01*
X3044222Y1679935D01*
X3041813Y1678544D01*
X3039846Y1676577D01*
X3038455Y1674168D01*
X3037735Y1671481D01*
Y1668699D01*
X3038455Y1666012D01*
X3039846Y1663603D01*
X3041813Y1661636D01*
X3044222Y1660245D01*
X3046909Y1659525D01*
X3049691D01*
X3052378Y1660245D01*
X3054787Y1661636D01*
X3056754Y1663603D01*
X3057533Y1664951D01*
X3064467D01*
X3065246Y1663603D01*
X3067213Y1661636D01*
X3069622Y1660245D01*
X3072309Y1659525D01*
X3075091D01*
X3077778Y1660245D01*
X3080187Y1661636D01*
X3082154Y1663603D01*
X3083545Y1666012D01*
X3084265Y1668699D01*
Y1671481D01*
X3083545Y1674168D01*
X3082154Y1676577D01*
X3080187Y1678544D01*
X3077778Y1679935D01*
X3075091Y1680655D01*
D02*
G37*
G36*
Y1655255D02*
X3072309D01*
X3069622Y1654535D01*
X3067213Y1653144D01*
X3065246Y1651177D01*
X3063855Y1648768D01*
X3063135Y1646081D01*
Y1643299D01*
X3063855Y1640612D01*
X3065246Y1638203D01*
X3067213Y1636236D01*
X3069622Y1634845D01*
X3072309Y1634125D01*
X3075091D01*
X3077778Y1634845D01*
X3080187Y1636236D01*
X3082154Y1638203D01*
X3083545Y1640612D01*
X3084265Y1643299D01*
Y1646081D01*
X3083545Y1648768D01*
X3082154Y1651177D01*
X3080187Y1653144D01*
X3077778Y1654535D01*
X3075091Y1655255D01*
D02*
G37*
G36*
X3049691D02*
X3046909D01*
X3044222Y1654535D01*
X3041813Y1653144D01*
X3039846Y1651177D01*
X3038455Y1648768D01*
X3037735Y1646081D01*
Y1643299D01*
X3038455Y1640612D01*
X3039846Y1638203D01*
X3041813Y1636236D01*
X3044222Y1634845D01*
X3046909Y1634125D01*
X3049691D01*
X3052378Y1634845D01*
X3054787Y1636236D01*
X3056754Y1638203D01*
X3058145Y1640612D01*
X3058865Y1643299D01*
Y1646081D01*
X3058145Y1648768D01*
X3056754Y1651177D01*
X3054787Y1653144D01*
X3052378Y1654535D01*
X3049691Y1655255D01*
D02*
G37*
G36*
X1142570Y2487244D02*
X1122250Y2484960D01*
X1105740Y2474800D01*
X1098120Y2463370D01*
X1089230Y2444320D01*
X1091708Y2421489D01*
X1100660Y2403680D01*
X1120264Y2388440D01*
X1145110Y2384630D01*
X1167970Y2390980D01*
X1189560Y2411300D01*
X1194640Y2446860D01*
X1176860Y2476070D01*
X1161620Y2484960D01*
X1142570Y2487244D01*
D02*
G37*
G36*
X2477000Y2442000D02*
X2258900D01*
X2358485Y2442000D01*
X2358506Y2358000D01*
X2477000Y2358000D01*
Y2442000D01*
D02*
G37*
G36*
X1400934Y2362247D02*
X1319654D01*
Y2283507D01*
X1400934D01*
Y2362247D01*
D02*
G37*
G36*
X1028824Y2283507D02*
X939924D01*
Y2197147D01*
X1028824D01*
Y2283507D01*
D02*
G37*
G36*
X1376804Y1992677D02*
X1296794D01*
Y1919017D01*
X1376804D01*
Y1992677D01*
D02*
G37*
G36*
X1296794Y1919017D02*
X937384D01*
Y1919017D01*
X1296794Y1919017D01*
Y1919017D01*
D02*
G37*
G36*
X937384Y1877107D02*
Y1790747D01*
X1021204D01*
Y1877107D01*
X937384Y1877107D01*
D02*
G37*
G36*
X2043000Y1863930D02*
X2016330Y1860120D01*
X1997280Y1848690D01*
X1987008Y1833430D01*
X1980770Y1815670D01*
X1982040Y1811860D01*
X1983310Y1800430D01*
X1987008Y1788934D01*
X1994740Y1776300D01*
X2007440Y1766140D01*
X2023950Y1760933D01*
X2035507D01*
X2049350Y1762330D01*
X2062050Y1767410D01*
X2072210Y1777570D01*
X2078560Y1786460D01*
X2083640Y1800430D01*
Y1814400D01*
X2081100Y1828370D01*
X2074750Y1844662D01*
X2060780Y1855040D01*
X2043000Y1863930D01*
D02*
G37*
G36*
X1787730D02*
X1763600Y1853770D01*
X1748360Y1838530D01*
X1739470Y1809320D01*
X1749630Y1782650D01*
X1771651Y1763940D01*
X1797890Y1757939D01*
Y1757821D01*
X1809193Y1760933D01*
X1824845Y1770300D01*
X1843479Y1788934D01*
X1846430Y1815670D01*
X1846404D01*
X1833450Y1846150D01*
X1815670Y1859493D01*
X1787730Y1863930D01*
D02*
G37*
G36*
X1000884Y1692250D02*
X1000884D01*
X1000884Y1692249D01*
X1000884Y1692250D01*
D02*
G37*
G36*
X3085374Y1131250D02*
X3036000D01*
Y1082000D01*
X3085163D01*
X3085374Y1131250D01*
D02*
G37*
G36*
X3085044Y1054346D02*
X3036000Y1054122D01*
Y1006000D01*
X3085044D01*
Y1054346D01*
D02*
G37*
G36*
Y977500D02*
X3036000D01*
Y904000D01*
X3085044D01*
Y977500D01*
D02*
G37*
G36*
Y875500D02*
X3036000D01*
Y856000D01*
X3031053Y855873D01*
X3002000D01*
X2998908Y854592D01*
X2998908Y854592D01*
X2993158Y848842D01*
X2991877Y845750D01*
X2991877Y845750D01*
Y826962D01*
X2990710Y825795D01*
Y821205D01*
X2993955Y817960D01*
X2998545D01*
X3001790Y821205D01*
Y825795D01*
X3000623Y826962D01*
Y843939D01*
X3003811Y847127D01*
X3031053D01*
X3036000Y847000D01*
Y777000D01*
X3085044D01*
Y847000D01*
X3085044D01*
Y875500D01*
D02*
G37*
G36*
X1956640Y964770D02*
X1847420D01*
Y906350D01*
X1956640D01*
Y964770D01*
D02*
G37*
G36*
Y854280D02*
X1847420D01*
Y799670D01*
X1956640D01*
Y854280D01*
D02*
G37*
G36*
Y747600D02*
X1847420D01*
Y690450D01*
X1956640Y690450D01*
Y747600D01*
D02*
G37*
G36*
Y639650D02*
X1898220D01*
Y581230D01*
X1956640D01*
Y639650D01*
D02*
G37*
%LPD*%
D10*
X330250Y1131000D02*
X330625Y1130625D01*
Y983875D02*
X331000Y983500D01*
D13*
X2085838Y1810930D02*
G03*
X2085838Y1810930I-52239J0D01*
G01*
X1194328Y2436050D02*
G03*
X1194328Y2436050I-52239J0D01*
G01*
X1845838Y1810930D02*
G03*
X1845838Y1810930I-52239J0D01*
G01*
X328750Y1730750D02*
Y1748500D01*
X277000Y1757750D02*
X319500D01*
X328750Y1748500D01*
Y1577000D02*
Y1730750D01*
X304000Y1585500D02*
Y1737250D01*
X295000Y1746250D02*
X304000Y1737250D01*
X266750Y1746250D02*
X295000D01*
X253500Y667250D02*
Y696500D01*
X280397Y2355397D02*
X282397D01*
X257000Y2332000D02*
X280397Y2355397D01*
X282397D02*
X318750Y2391750D01*
Y2529250D01*
X257000Y1777750D02*
Y2332000D01*
X167071Y762679D02*
X221000Y708750D01*
Y615500D02*
X248000Y588500D01*
X167071Y762679D02*
Y2611821D01*
X221000Y615500D02*
Y708750D01*
X179250Y783790D02*
X242540Y720500D01*
X179250Y2602000D02*
X190500Y2613250D01*
X179250Y783790D02*
Y2602000D01*
X1230500Y2678500D02*
X1446500D01*
X1459250Y2691250D02*
X1481000D01*
X1446500Y2678500D02*
X1459250Y2691250D01*
X1151000Y2758000D02*
X1230500Y2678500D01*
X3073700Y2078290D02*
Y2103690D01*
X3048300Y2078290D02*
Y2103690D01*
X167071Y2611821D02*
X190250Y2635000D01*
X547500D01*
X548750Y2633750D01*
X554000Y2677500D02*
X575500D01*
X552750Y2676250D02*
X554000Y2677500D01*
X190500Y2613250D02*
X575000D01*
X3048300Y1670090D02*
X3073700D01*
X234000Y1578750D02*
X247250Y1592000D01*
X272750D02*
X281250Y1600500D01*
X247250Y1592000D02*
X272750D01*
X281250Y1600500D02*
Y1732000D01*
X251000Y744750D02*
X289750D01*
X190750Y805000D02*
Y2581500D01*
Y805000D02*
X251000Y744750D01*
X293250Y983500D02*
Y1007250D01*
X304750Y1018750D02*
Y1135250D01*
X293250Y1007250D02*
X304750Y1018750D01*
X289750Y744750D02*
X324250D01*
X290250Y632500D02*
Y744250D01*
X289750Y744750D02*
X290250Y744250D01*
X234000Y1181500D02*
X284000Y1131500D01*
X234000Y1181500D02*
Y1578750D01*
X245750Y1194250D02*
Y1564750D01*
Y1194250D02*
X304750Y1135250D01*
X245750Y1564750D02*
X255250Y1574250D01*
X256250Y1205000D02*
X330250Y1131000D01*
X256250Y1205000D02*
Y1550500D01*
X261500Y1555750D01*
X257000Y1777750D02*
X277000Y1757750D01*
X247250Y1765750D02*
X266750Y1746250D01*
X247250Y2347250D02*
X282000Y2382000D01*
X247250Y1765750D02*
Y2347250D01*
X237500Y1756000D02*
X261500Y1732000D01*
X237500Y2363000D02*
X279250Y2404750D01*
X237500Y1756000D02*
Y2363000D01*
X490000Y3065250D02*
X1098250D01*
X1151000Y2758000D02*
Y3012500D01*
X1098250Y3065250D02*
X1151000Y3012500D01*
X475750Y3076750D02*
X1105750D01*
X1163250Y2768000D02*
Y3019250D01*
X1105750Y3076750D02*
X1163250Y3019250D01*
X1205097Y2747000D02*
X1281000D01*
X1289500Y2738500D01*
Y2706500D02*
Y2738500D01*
X1285330Y2702330D02*
X1289500Y2706500D01*
X1263220Y2702330D02*
X1285330D01*
X1203920Y2727330D02*
X1263220D01*
X1163250Y2768000D02*
X1203920Y2727330D01*
X1177750Y2774347D02*
X1205097Y2747000D01*
X1111750Y3089000D02*
X1177750Y3023000D01*
Y2774347D02*
Y3023000D01*
X471500Y3046750D02*
X490000Y3065250D01*
X471500Y2912750D02*
Y3046750D01*
X453000Y2913000D02*
Y3054000D01*
X475750Y3076750D01*
X434000Y2912750D02*
Y3057000D01*
X466000Y3089000D02*
X1111750D01*
X434000Y3057000D02*
X466000Y3089000D01*
X1231500Y2972750D02*
X1480250D01*
X1217750Y2986500D02*
Y3063170D01*
Y2986500D02*
X1231500Y2972750D01*
X1242179Y2990820D02*
X1263220D01*
X1239250Y2993749D02*
Y3063500D01*
Y2993749D02*
X1242179Y2990820D01*
X1261750Y3063000D02*
X1262485Y3062265D01*
Y3016555D02*
Y3062265D01*
Y3016555D02*
X1263220Y3015820D01*
X1480250Y2972750D02*
X1481500Y2974000D01*
X279250Y2404750D02*
Y2531250D01*
X261500Y1732000D02*
X281250D01*
X299000Y2399000D02*
Y2530000D01*
X282000Y2382000D02*
X299000Y2399000D01*
X292750Y1574250D02*
X304000Y1585500D01*
X255250Y1574250D02*
X292750D01*
X328750Y1577000D02*
X329250Y1576500D01*
Y1565250D02*
Y1576500D01*
X330625Y983875D02*
Y1130625D01*
X319750Y1555750D02*
X329250Y1565250D01*
X261500Y1555750D02*
X319750D01*
X199000Y2589750D02*
X557000D01*
X190750Y2581500D02*
X199000Y2589750D01*
X575000Y2613250D02*
X583250Y2621500D01*
Y2669750D01*
X575500Y2677500D02*
X583250Y2669750D01*
X259250Y632250D02*
Y661500D01*
X253500Y667250D02*
X259250Y661500D01*
D16*
X3126250Y1861250D02*
X3138500Y1873500D01*
X3060860Y1861250D02*
X3126250D01*
X17500Y2342250D02*
X42250Y2367000D01*
Y3109758D02*
X129982Y3197490D01*
X42250Y2367000D02*
Y3109758D01*
X17500Y2009000D02*
X42510Y1983990D01*
X17500Y2009000D02*
Y2342250D01*
X70210Y63040D02*
Y3095960D01*
Y63040D02*
X70500Y62750D01*
X70210Y3095960D02*
X144040Y3169790D01*
X75750Y71500D02*
X87250Y60000D01*
X75750Y71500D02*
Y3092750D01*
X147250Y3164250D01*
X3045300Y3191950D02*
X3147750Y3089500D01*
X59130Y3103134D02*
X136866Y3180870D01*
X3012460Y3169790D02*
X3110000Y3072250D01*
X3038090Y3186410D02*
X3139750Y3084750D01*
X3004000Y3164250D02*
X3098000Y3070250D01*
X3051260Y3197490D02*
X3156500Y3092250D01*
X48050Y3107724D02*
X132276Y3191950D01*
X136866Y3180870D02*
X3029380D01*
X139160Y3175330D02*
X3021170D01*
X64670Y3100840D02*
X139160Y3175330D01*
X132276Y3191950D02*
X3045300D01*
X144040Y3169790D02*
X3012460D01*
X147250Y3164250D02*
X3004000D01*
X53590Y3105429D02*
X134571Y3186410D01*
X3038090D01*
X3029380Y3180870D02*
X3130000Y3080250D01*
X129982Y3197490D02*
X3051260D01*
X3021170Y3175330D02*
X3121500Y3075000D01*
X3102390Y2154890D02*
X3110000Y2162500D01*
Y3072250D01*
X3112590Y2129090D02*
X3121500Y2138000D01*
Y3075000D01*
X2996250Y823500D02*
Y845750D01*
X3002000Y851500D02*
X3060900D01*
X2996250Y845750D02*
X3002000Y851500D01*
X3060900D02*
X3073700Y864300D01*
X19500Y169750D02*
X23000Y166250D01*
X19500Y169750D02*
Y251250D01*
X42510Y274260D01*
X27290Y190000D02*
Y249540D01*
X48050Y270300D01*
X27290Y175000D02*
Y175040D01*
X43250Y191000D01*
X23000Y166250D02*
X34750D01*
X43250Y191000D02*
Y245500D01*
X35250Y199500D02*
Y247750D01*
X43250Y245500D02*
X59130Y261380D01*
X35250Y247750D02*
X53590Y266090D01*
X3147750Y2035500D02*
Y3089500D01*
X3073700Y2027090D02*
X3139340D01*
X3147750Y2035500D01*
X3156500Y2024250D02*
Y3092250D01*
X3060640Y2014750D02*
X3147000D01*
X3156500Y2024250D01*
X3122140Y2052890D02*
X3130000Y2060750D01*
Y3080250D01*
X3073700Y2052890D02*
X3122140D01*
X3139750Y2049000D02*
Y3084750D01*
X3061190Y2040000D02*
X3130750D01*
X3139750Y2049000D01*
X3098000Y2223750D02*
Y3070250D01*
X3092750Y2218500D02*
X3098000Y2223750D01*
X3061110Y2218500D02*
X3092750D01*
X59130Y261380D02*
Y3103134D01*
X48050Y270300D02*
Y3107724D01*
X42510Y274260D02*
Y1983990D01*
X53590Y266090D02*
Y3105429D01*
X60750Y249750D02*
X64670Y253670D01*
Y3100840D01*
X60750Y71750D02*
Y249750D01*
X87250Y43910D02*
Y60000D01*
X3048300Y2205690D02*
X3061110Y2218500D01*
X3048300Y1848690D02*
X3060860Y1861250D01*
X3048300Y2052890D02*
X3061190Y2040000D01*
X3048300Y2027090D02*
X3060640Y2014750D01*
X3073700Y2154890D02*
X3102390D01*
X3073700Y2129090D02*
X3112590D01*
X3048300D02*
X3073700D01*
X3048300Y2154890D02*
X3073700D01*
D67*
X1606500Y2397500D02*
Y2736750D01*
X1531250Y2812000D02*
Y3128000D01*
Y2812000D02*
X1606500Y2736750D01*
Y2397500D02*
X1654580Y2349420D01*
Y2327280D02*
Y2349420D01*
X115250Y120000D02*
X123500Y111750D01*
X115250Y120000D02*
Y2669500D01*
X131250Y130500D02*
X146000Y115750D01*
X131250Y130500D02*
Y2653250D01*
X3154672Y389530D02*
X3160530Y383672D01*
X3136470Y389530D02*
X3154672D01*
X3160530Y94750D02*
Y383672D01*
X3112340Y46560D02*
X3160530Y94750D01*
X2974780Y57120D02*
X2985340Y46560D01*
X3112340D01*
X2974780Y57120D02*
Y78310D01*
X438079Y2708250D02*
X500539Y2770710D01*
X615520D01*
X115250Y2669500D02*
X154000Y2708250D01*
X438079D01*
X456250Y2690500D02*
X511060Y2745310D01*
X615520D01*
X168500Y2690500D02*
X456250D01*
X131250Y2653250D02*
X168500Y2690500D01*
X1729260Y115100D02*
X1731760Y112600D01*
D68*
X1119710Y1235280D02*
D03*
Y1455280D02*
D03*
X1795350Y1811580D02*
D03*
Y2111580D02*
D03*
X2035350Y1811580D02*
D03*
Y2111580D02*
D03*
D69*
X1781380Y573270D02*
D03*
Y393270D02*
D03*
X1591380Y573270D02*
D03*
Y393270D02*
D03*
D70*
X1708990Y2879930D02*
D03*
X1143840Y2436700D02*
D03*
X1226390Y1692480D02*
D03*
X2035380Y2383360D02*
D03*
X1686130Y244680D02*
D03*
X2746580Y220550D02*
D03*
X2035380Y2881200D02*
D03*
X2210640D02*
D03*
X1877900Y2879930D02*
D03*
D71*
X2416380Y2738600D02*
D03*
Y2398600D02*
D03*
D72*
X1263220Y2990820D02*
D03*
X1359730Y1684860D02*
D03*
X1171780D02*
D03*
X1679580Y2327280D02*
D03*
X820250Y881250D02*
D03*
X1646850Y176100D02*
D03*
X1646760Y112600D02*
D03*
X2969750Y487250D02*
D03*
X3046470Y414530D02*
D03*
Y389530D02*
D03*
Y339530D02*
D03*
Y314530D02*
D03*
X3136470Y414530D02*
D03*
Y389530D02*
D03*
Y364530D02*
D03*
Y339530D02*
D03*
Y314530D02*
D03*
X2999780Y168310D02*
D03*
X2974780D02*
D03*
X2924780D02*
D03*
X2899780D02*
D03*
X2999780Y78310D02*
D03*
X2974780D02*
D03*
X2949780D02*
D03*
X2924780D02*
D03*
X2899780D02*
D03*
X3080590Y253170D02*
D03*
X2796110Y374020D02*
D03*
X2882470Y376560D02*
D03*
X762840Y2970500D02*
D03*
Y2855800D02*
D03*
Y2641370D02*
D03*
X1263220Y2579140D02*
D03*
X2144600Y244680D02*
D03*
X1263220Y2702330D02*
D03*
Y2843500D02*
D03*
X2062050Y244680D02*
D03*
X2595000Y975536D02*
D03*
X1480250Y203750D02*
D03*
Y182214D02*
D03*
X1539500Y243250D02*
D03*
X1517964D02*
D03*
X1578750Y186500D02*
D03*
Y208036D02*
D03*
X1521000Y145750D02*
D03*
X1542536D02*
D03*
X1857750Y146750D02*
D03*
X1879286D02*
D03*
X1915750Y210750D02*
D03*
Y189214D02*
D03*
X1875250Y246250D02*
D03*
X1853714D02*
D03*
X1816500Y186500D02*
D03*
Y208036D02*
D03*
X1569250Y381000D02*
D03*
Y402536D02*
D03*
X1612500Y381500D02*
D03*
Y403036D02*
D03*
X1803750Y383250D02*
D03*
Y404786D02*
D03*
X1760000Y381750D02*
D03*
Y403286D02*
D03*
X1570000Y563000D02*
D03*
Y584536D02*
D03*
X1612500Y563750D02*
D03*
Y585286D02*
D03*
X1802750Y564500D02*
D03*
Y586036D02*
D03*
X1759000Y562750D02*
D03*
Y584286D02*
D03*
X1655500Y1282250D02*
D03*
Y1303786D02*
D03*
X1585000Y1281000D02*
D03*
Y1302536D02*
D03*
X1655500Y1419000D02*
D03*
X1655250Y1404250D02*
D03*
X2631214Y1816250D02*
D03*
X2609679D02*
D03*
X2653036Y1836500D02*
D03*
X2609964D02*
D03*
X2652750Y1816250D02*
D03*
X2631500Y1836500D02*
D03*
X2655750Y975036D02*
D03*
Y953500D02*
D03*
X2595000Y954000D02*
D03*
X2619750Y350000D02*
D03*
X2641286D02*
D03*
X2558000Y378500D02*
D03*
X2557750Y357750D02*
D03*
X2651750Y440786D02*
D03*
Y419250D02*
D03*
X2601250Y441536D02*
D03*
Y420000D02*
D03*
X2581000Y442036D02*
D03*
Y420500D02*
D03*
X2557250Y251321D02*
D03*
Y272857D02*
D03*
X2557500Y294250D02*
D03*
Y315786D02*
D03*
Y337321D02*
D03*
X2557750Y398286D02*
D03*
Y419821D02*
D03*
Y441357D02*
D03*
X2632250Y546250D02*
D03*
X2653000Y546000D02*
D03*
X2610000D02*
D03*
X2632250Y527500D02*
D03*
X2653000Y527250D02*
D03*
X2610000D02*
D03*
X2631750Y508750D02*
D03*
X2652500Y508500D02*
D03*
X2609500D02*
D03*
X2547750Y547607D02*
D03*
Y526071D02*
D03*
Y504536D02*
D03*
Y483000D02*
D03*
X2590750D02*
D03*
Y504536D02*
D03*
Y526071D02*
D03*
Y547607D02*
D03*
X2570000Y483250D02*
D03*
Y504786D02*
D03*
Y526321D02*
D03*
Y547857D02*
D03*
X2636750Y668250D02*
D03*
X2615214D02*
D03*
X2635500Y633500D02*
D03*
X2613964D02*
D03*
X2654750Y639250D02*
D03*
Y660786D02*
D03*
X2592250Y639750D02*
D03*
Y661286D02*
D03*
X2548750Y662857D02*
D03*
Y641321D02*
D03*
Y619786D02*
D03*
Y598250D02*
D03*
X2569500Y662607D02*
D03*
Y641071D02*
D03*
Y619536D02*
D03*
Y598000D02*
D03*
X2652750Y771500D02*
D03*
X2631214D02*
D03*
X2609679D02*
D03*
X2652750Y751750D02*
D03*
X2631214D02*
D03*
X2609679D02*
D03*
X2652750Y732250D02*
D03*
X2631214D02*
D03*
X2609679D02*
D03*
X2547000Y704750D02*
D03*
Y726286D02*
D03*
Y747821D02*
D03*
Y769357D02*
D03*
X2568250Y769107D02*
D03*
Y747571D02*
D03*
Y726036D02*
D03*
Y704500D02*
D03*
X2589000Y768857D02*
D03*
Y747321D02*
D03*
Y725786D02*
D03*
Y704250D02*
D03*
X2636750Y851750D02*
D03*
X2618000Y851500D02*
D03*
X2654750Y855250D02*
D03*
X2654250Y875250D02*
D03*
X2593750Y875750D02*
D03*
X2593250Y856000D02*
D03*
X2569750Y810750D02*
D03*
Y832286D02*
D03*
Y853821D02*
D03*
Y875357D02*
D03*
X2549000Y811000D02*
D03*
Y832536D02*
D03*
Y854071D02*
D03*
Y875607D02*
D03*
X2613964Y1176750D02*
D03*
X2635500D02*
D03*
X2583750Y1178500D02*
D03*
Y1156964D02*
D03*
X2563500Y1178786D02*
D03*
Y1157250D02*
D03*
X2612500Y1247857D02*
D03*
Y1269393D02*
D03*
Y1226321D02*
D03*
Y1204786D02*
D03*
X2632750Y1204500D02*
D03*
Y1247571D02*
D03*
Y1269107D02*
D03*
Y1226036D02*
D03*
X2561000Y1248857D02*
D03*
Y1270393D02*
D03*
Y1227321D02*
D03*
Y1205786D02*
D03*
X2581250Y1205500D02*
D03*
Y1248571D02*
D03*
Y1270107D02*
D03*
Y1227036D02*
D03*
X2649000Y1077250D02*
D03*
X2648500Y1106500D02*
D03*
X2603500Y1106000D02*
D03*
X2599750Y1076750D02*
D03*
X2589250Y922500D02*
D03*
X2569000Y922786D02*
D03*
X2615000Y953286D02*
D03*
Y974821D02*
D03*
X2635250Y953000D02*
D03*
Y974536D02*
D03*
X2574250Y1010071D02*
D03*
Y967000D02*
D03*
Y988536D02*
D03*
Y1053143D02*
D03*
Y1096214D02*
D03*
Y945464D02*
D03*
Y1074678D02*
D03*
Y1031607D02*
D03*
X2554000Y1031893D02*
D03*
Y1010357D02*
D03*
Y1053428D02*
D03*
Y1096500D02*
D03*
Y1074964D02*
D03*
Y988821D02*
D03*
Y967286D02*
D03*
Y945750D02*
D03*
X1942500Y221250D02*
D03*
X1944750Y201750D02*
D03*
X1945000Y181250D02*
D03*
X1939000Y162250D02*
D03*
X1890750Y126500D02*
D03*
X1936250Y238750D02*
D03*
X1923500Y255000D02*
D03*
X1902500Y266000D02*
D03*
X1788250Y208500D02*
D03*
X1792250Y232500D02*
D03*
X1805000Y252000D02*
D03*
X1826000Y265250D02*
D03*
X1872750Y271000D02*
D03*
X1787250Y184750D02*
D03*
X2000500Y202643D02*
D03*
Y181107D02*
D03*
Y224179D02*
D03*
Y267250D02*
D03*
Y245714D02*
D03*
Y159571D02*
D03*
Y138036D02*
D03*
Y116500D02*
D03*
X1974750Y201393D02*
D03*
Y179857D02*
D03*
Y222929D02*
D03*
Y266000D02*
D03*
Y244464D02*
D03*
Y158321D02*
D03*
Y136786D02*
D03*
Y115250D02*
D03*
X1925250Y147750D02*
D03*
X1909250Y135750D02*
D03*
X1851500Y127250D02*
D03*
X1527214Y123500D02*
D03*
X1800750Y160750D02*
D03*
X1813500Y143500D02*
D03*
X1829000Y129500D02*
D03*
X1577250Y252250D02*
D03*
X1455750Y239500D02*
D03*
X1476000Y244500D02*
D03*
X1460250Y156000D02*
D03*
X1470750Y141250D02*
D03*
X1485500Y132000D02*
D03*
X1597500Y131500D02*
D03*
X1575750Y135500D02*
D03*
X1591000Y150750D02*
D03*
X1505679Y123500D02*
D03*
X1548750D02*
D03*
X1457250Y216321D02*
D03*
Y194786D02*
D03*
Y173250D02*
D03*
X1022250Y890500D02*
D03*
X1074500D02*
D03*
X1047750D02*
D03*
X996250D02*
D03*
X970750Y664000D02*
D03*
X996750D02*
D03*
X1022250D02*
D03*
X1076000Y624500D02*
D03*
X1050000D02*
D03*
X1023250D02*
D03*
X997750D02*
D03*
X971750D02*
D03*
X969750Y702214D02*
D03*
X995750D02*
D03*
X1021250D02*
D03*
X1048000D02*
D03*
X1074000D02*
D03*
X1171250Y1048250D02*
D03*
X1195500Y1048000D02*
D03*
X1168500Y990250D02*
D03*
X1192750Y990000D02*
D03*
X1169500Y927500D02*
D03*
X1193750Y927250D02*
D03*
X1168250Y867500D02*
D03*
X1192500Y867250D02*
D03*
X1192000Y741750D02*
D03*
X1167750Y742000D02*
D03*
X1192000Y806500D02*
D03*
X1167750Y806750D02*
D03*
X1169000Y681500D02*
D03*
X1193250Y681250D02*
D03*
X1272250Y1081857D02*
D03*
Y1103393D02*
D03*
Y1060322D02*
D03*
Y1017250D02*
D03*
Y1038786D02*
D03*
Y1124929D02*
D03*
X1245000Y1078607D02*
D03*
Y1100143D02*
D03*
Y1057072D02*
D03*
Y1014000D02*
D03*
Y1035536D02*
D03*
Y1121679D02*
D03*
X1216750Y1058357D02*
D03*
Y1079893D02*
D03*
Y1036822D02*
D03*
Y993750D02*
D03*
Y1015286D02*
D03*
Y1101429D02*
D03*
Y1122964D02*
D03*
X1217500Y884607D02*
D03*
Y906143D02*
D03*
Y863072D02*
D03*
Y820000D02*
D03*
Y841536D02*
D03*
Y927679D02*
D03*
Y949214D02*
D03*
Y970750D02*
D03*
X1244750Y906607D02*
D03*
Y928143D02*
D03*
Y885071D02*
D03*
Y842000D02*
D03*
Y863536D02*
D03*
Y949679D02*
D03*
Y971214D02*
D03*
Y992750D02*
D03*
X1271000Y910107D02*
D03*
Y931643D02*
D03*
Y888571D02*
D03*
Y845500D02*
D03*
Y867036D02*
D03*
Y953179D02*
D03*
Y974714D02*
D03*
Y996250D02*
D03*
X1270750Y734107D02*
D03*
Y755643D02*
D03*
Y712571D02*
D03*
Y669500D02*
D03*
Y691036D02*
D03*
Y777179D02*
D03*
Y798714D02*
D03*
Y820250D02*
D03*
X1244750Y731607D02*
D03*
Y753143D02*
D03*
Y710071D02*
D03*
Y667000D02*
D03*
Y688536D02*
D03*
Y774679D02*
D03*
Y796214D02*
D03*
Y817750D02*
D03*
X1218000Y709857D02*
D03*
Y731393D02*
D03*
Y688322D02*
D03*
Y645250D02*
D03*
Y666786D02*
D03*
Y752929D02*
D03*
Y774464D02*
D03*
Y796000D02*
D03*
X1427250Y1525786D02*
D03*
Y1504250D02*
D03*
Y1547321D02*
D03*
Y1418107D02*
D03*
Y1439643D02*
D03*
Y1568857D02*
D03*
Y1482714D02*
D03*
Y1461179D02*
D03*
X1459750Y1482107D02*
D03*
Y1503643D02*
D03*
Y1460571D02*
D03*
Y1417500D02*
D03*
Y1439036D02*
D03*
Y1525179D02*
D03*
Y1546714D02*
D03*
Y1568250D02*
D03*
X1489750Y1490857D02*
D03*
Y1512393D02*
D03*
Y1469321D02*
D03*
Y1426250D02*
D03*
Y1447786D02*
D03*
Y1533929D02*
D03*
Y1555464D02*
D03*
Y1577000D02*
D03*
X1517500Y1533179D02*
D03*
Y1468571D02*
D03*
Y1554714D02*
D03*
Y1447036D02*
D03*
Y1576250D02*
D03*
X1551250Y1534928D02*
D03*
Y1556464D02*
D03*
X1517500Y1490107D02*
D03*
X1551250Y1470321D02*
D03*
X1517500Y1511643D02*
D03*
X1551250Y1448786D02*
D03*
Y1513393D02*
D03*
X1517500Y1425500D02*
D03*
X1551250Y1578000D02*
D03*
Y1491857D02*
D03*
Y1427250D02*
D03*
X1689393Y2946500D02*
D03*
X1667857D02*
D03*
X1710929D02*
D03*
X1754000D02*
D03*
X1732464D02*
D03*
X1688643Y2920000D02*
D03*
X1667107D02*
D03*
X1710179D02*
D03*
X1753250D02*
D03*
X1731714D02*
D03*
X2197143Y2837250D02*
D03*
X2175607D02*
D03*
X2218679D02*
D03*
X2261750D02*
D03*
X2240214D02*
D03*
X2025393Y2839000D02*
D03*
X2003857D02*
D03*
X2046929D02*
D03*
X2090000D02*
D03*
X2068464D02*
D03*
X2133750Y2209321D02*
D03*
Y2252393D02*
D03*
Y2230857D02*
D03*
Y2187786D02*
D03*
Y2166250D02*
D03*
X2106143Y2123250D02*
D03*
X2084607D02*
D03*
X2127679D02*
D03*
X2170750D02*
D03*
X2149214D02*
D03*
X2059214Y2176750D02*
D03*
X2080750D02*
D03*
X2037679D02*
D03*
X1994607D02*
D03*
X2016143D02*
D03*
X1995607Y2151750D02*
D03*
X2038679D02*
D03*
X2017143D02*
D03*
X2081750D02*
D03*
X2060214D02*
D03*
X1381496Y1150123D02*
D03*
X1360496Y1128123D02*
D03*
X1434496Y1156623D02*
D03*
X1416746Y1138623D02*
D03*
X1399746Y1117873D02*
D03*
X1381496Y1097873D02*
D03*
X1682000Y2161643D02*
D03*
Y2140107D02*
D03*
Y2183179D02*
D03*
Y2226250D02*
D03*
Y2204714D02*
D03*
X1755143Y2163750D02*
D03*
X1733607D02*
D03*
X1776679D02*
D03*
X1819750D02*
D03*
X1798214D02*
D03*
X1758893Y2192000D02*
D03*
X1737357D02*
D03*
X1780429D02*
D03*
X1823500D02*
D03*
X1801964D02*
D03*
X1758143Y2219000D02*
D03*
X1736607D02*
D03*
X1779679D02*
D03*
X1822750D02*
D03*
X1801214D02*
D03*
X1557500Y616000D02*
D03*
X1593750Y628250D02*
D03*
X1572464D02*
D03*
X1548750Y552464D02*
D03*
Y595536D02*
D03*
Y574000D02*
D03*
X1361000Y850500D02*
D03*
Y828964D02*
D03*
Y807429D02*
D03*
Y721286D02*
D03*
Y699750D02*
D03*
Y742822D02*
D03*
Y785893D02*
D03*
Y764357D02*
D03*
Y1079500D02*
D03*
Y1057964D02*
D03*
Y1036429D02*
D03*
Y950286D02*
D03*
Y928750D02*
D03*
Y971822D02*
D03*
Y1014893D02*
D03*
Y993357D02*
D03*
X1542750Y1177750D02*
D03*
X1521214D02*
D03*
X1499679D02*
D03*
X1435072D02*
D03*
X1478143D02*
D03*
X1456607D02*
D03*
X1543750Y1203500D02*
D03*
X1522214D02*
D03*
X1500679D02*
D03*
X1436071D02*
D03*
X1479143D02*
D03*
X1457607D02*
D03*
X1544750Y1227750D02*
D03*
X1523214D02*
D03*
X1501679D02*
D03*
X1437072D02*
D03*
X1480143D02*
D03*
X1458607D02*
D03*
X1544750Y1252000D02*
D03*
X1523214D02*
D03*
X1501679D02*
D03*
X1437072D02*
D03*
X1480143D02*
D03*
X1458607D02*
D03*
X1544750Y1274250D02*
D03*
X1523214D02*
D03*
X1501679D02*
D03*
X1437072D02*
D03*
X1480143D02*
D03*
X1458607D02*
D03*
X1544750Y1299000D02*
D03*
X1523214D02*
D03*
X1501679D02*
D03*
X1437072D02*
D03*
X1480143D02*
D03*
X1458607D02*
D03*
X1462750Y265500D02*
D03*
Y287036D02*
D03*
Y308571D02*
D03*
Y394714D02*
D03*
Y416250D02*
D03*
Y373178D02*
D03*
Y330107D02*
D03*
Y351643D02*
D03*
X1549500Y268000D02*
D03*
Y289536D02*
D03*
Y311071D02*
D03*
Y397214D02*
D03*
Y418750D02*
D03*
Y375678D02*
D03*
Y332607D02*
D03*
Y354143D02*
D03*
X1850000Y285750D02*
D03*
Y307286D02*
D03*
Y328821D02*
D03*
Y414964D02*
D03*
Y436500D02*
D03*
Y393428D02*
D03*
Y350357D02*
D03*
Y371893D02*
D03*
X1890750Y287500D02*
D03*
Y309036D02*
D03*
Y330571D02*
D03*
Y416714D02*
D03*
Y438250D02*
D03*
Y395178D02*
D03*
Y352107D02*
D03*
Y373643D02*
D03*
X1930500Y289750D02*
D03*
Y311286D02*
D03*
Y332821D02*
D03*
Y418964D02*
D03*
Y440500D02*
D03*
Y397429D02*
D03*
Y354357D02*
D03*
Y375893D02*
D03*
X1967500Y291000D02*
D03*
Y312536D02*
D03*
Y334071D02*
D03*
Y420214D02*
D03*
Y441750D02*
D03*
Y398679D02*
D03*
Y355607D02*
D03*
Y377143D02*
D03*
X2000000Y289750D02*
D03*
Y311286D02*
D03*
Y332821D02*
D03*
Y418964D02*
D03*
Y440500D02*
D03*
Y397429D02*
D03*
Y354357D02*
D03*
Y375893D02*
D03*
X1601750Y167750D02*
D03*
Y189286D02*
D03*
Y210821D02*
D03*
Y296964D02*
D03*
Y318500D02*
D03*
Y275429D02*
D03*
Y232357D02*
D03*
Y253893D02*
D03*
X1524750Y267250D02*
D03*
Y288786D02*
D03*
Y310321D02*
D03*
Y396464D02*
D03*
Y418000D02*
D03*
Y374929D02*
D03*
Y331857D02*
D03*
Y353393D02*
D03*
X1493500Y268000D02*
D03*
Y289536D02*
D03*
Y311071D02*
D03*
Y397214D02*
D03*
Y418750D02*
D03*
Y375678D02*
D03*
Y332607D02*
D03*
Y354143D02*
D03*
X3061250Y1494500D02*
D03*
X3181500Y512250D02*
D03*
X3200750Y483500D02*
D03*
X2831000Y1396250D02*
D03*
X2941000Y1816000D02*
D03*
X1130750Y376500D02*
D03*
X548750Y2633750D02*
D03*
X552750Y2676250D02*
D03*
X1481000Y2691250D02*
D03*
X1532000Y2536750D02*
D03*
X1480250Y2551500D02*
D03*
X2797000Y81000D02*
D03*
X123500Y111750D02*
D03*
X146000Y115750D02*
D03*
X2928750Y562750D02*
D03*
X1103750Y376750D02*
D03*
X738250Y120750D02*
D03*
X739250Y151250D02*
D03*
X1326000Y482000D02*
D03*
X388000Y2875500D02*
D03*
X434000Y2912750D02*
D03*
X471500D02*
D03*
X1217750Y3063170D02*
D03*
X1239250Y3063500D02*
D03*
X1261750Y3063000D02*
D03*
X1481500Y2974000D02*
D03*
X255750Y3014750D02*
D03*
X235500D02*
D03*
X215250Y3014500D02*
D03*
X453000Y2913000D02*
D03*
X1478250Y2827000D02*
D03*
X320250Y3017250D02*
D03*
X360000D02*
D03*
X340250Y3017500D02*
D03*
X349750Y2875500D02*
D03*
X368750Y2876250D02*
D03*
X369250Y2789000D02*
D03*
X390000Y2789250D02*
D03*
X349250Y2790000D02*
D03*
X554000Y2817250D02*
D03*
X551940Y2855560D02*
D03*
X553500Y2895250D02*
D03*
X556000Y2935750D02*
D03*
X554750Y2965000D02*
D03*
X556000Y3015750D02*
D03*
X557000Y2589750D02*
D03*
X248000Y588500D02*
D03*
X2743730Y2247230D02*
D03*
X2744960Y2189290D02*
D03*
X2743340Y2132660D02*
D03*
X2742760Y2074990D02*
D03*
X2787560Y1658190D02*
D03*
X2713760Y1823510D02*
D03*
X2779730Y1740730D02*
D03*
X2903250Y756750D02*
D03*
X2834590Y1222590D02*
D03*
X2858750Y680500D02*
D03*
X2861250Y501250D02*
D03*
X2839860Y981610D02*
D03*
D73*
X1263220Y3015820D02*
D03*
X820250Y856250D02*
D03*
X2969750Y462250D02*
D03*
X3080590Y228170D02*
D03*
X2796110Y349020D02*
D03*
X2882470Y351560D02*
D03*
X762840Y2995500D02*
D03*
Y2880800D02*
D03*
Y2666370D02*
D03*
X1263220Y2604140D02*
D03*
Y2727330D02*
D03*
Y2868500D02*
D03*
D74*
X2626000Y485500D02*
D03*
Y431000D02*
D03*
Y376500D02*
D03*
Y705500D02*
D03*
Y651000D02*
D03*
Y596500D02*
D03*
Y925500D02*
D03*
Y871000D02*
D03*
Y816500D02*
D03*
Y1036500D02*
D03*
Y1091000D02*
D03*
Y1145500D02*
D03*
Y1565500D02*
D03*
Y1511000D02*
D03*
Y1456500D02*
D03*
Y1676500D02*
D03*
Y1731000D02*
D03*
Y1785500D02*
D03*
Y1896500D02*
D03*
Y1951000D02*
D03*
Y2005500D02*
D03*
X396000Y906770D02*
D03*
Y197770D02*
D03*
Y452270D02*
D03*
Y2452270D02*
D03*
Y2197770D02*
D03*
Y1997770D02*
D03*
Y1306770D02*
D03*
Y1252270D02*
D03*
Y1197770D02*
D03*
Y2506770D02*
D03*
Y2397770D02*
D03*
Y2306770D02*
D03*
Y2252270D02*
D03*
Y1506770D02*
D03*
Y1452270D02*
D03*
Y1397770D02*
D03*
Y706770D02*
D03*
Y652270D02*
D03*
Y597770D02*
D03*
Y306770D02*
D03*
Y252270D02*
D03*
Y1106770D02*
D03*
Y1052270D02*
D03*
Y997770D02*
D03*
Y1906770D02*
D03*
Y1852270D02*
D03*
Y1797770D02*
D03*
Y1706770D02*
D03*
Y1652270D02*
D03*
Y1597770D02*
D03*
Y506770D02*
D03*
Y397770D02*
D03*
Y852270D02*
D03*
Y797770D02*
D03*
Y2106770D02*
D03*
Y2052270D02*
D03*
D75*
X1336880Y1855840D02*
D03*
X984620Y2141590D02*
D03*
X1358940Y2222870D02*
D03*
X877940Y1832180D02*
D03*
D76*
X1336880Y1955840D02*
D03*
X984620Y2241590D02*
D03*
X1358940Y2322870D02*
D03*
D77*
X2064880Y1444580D02*
D03*
Y1254580D02*
D03*
D78*
X2054880Y1224580D02*
D03*
Y1474580D02*
D03*
D79*
X1609880Y1549580D02*
D03*
Y1239580D02*
D03*
D80*
X1619880Y1409580D02*
D03*
Y1289580D02*
D03*
D81*
X977940Y1832180D02*
D03*
D82*
X1279730Y1684860D02*
D03*
X1091780D02*
D03*
X1731850Y176100D02*
D03*
X1731760Y112600D02*
D03*
D83*
X1692500Y1184750D02*
D03*
Y1144750D02*
D03*
D84*
X2924780Y3088210D02*
D03*
X2975980D02*
D03*
Y3113610D02*
D03*
X2950580Y3088210D02*
D03*
Y3113610D02*
D03*
X2924780D02*
D03*
X2899380Y3088210D02*
D03*
Y3113610D02*
D03*
X2873980Y3088210D02*
D03*
Y3113610D02*
D03*
X2848580Y3088210D02*
D03*
Y3113610D02*
D03*
X2720780Y3088210D02*
D03*
X2822780Y3113610D02*
D03*
X2797380D02*
D03*
X2822780Y3088210D02*
D03*
X2797380D02*
D03*
X2771980D02*
D03*
Y3113610D02*
D03*
X2746580Y3088210D02*
D03*
Y3113610D02*
D03*
X2720780D02*
D03*
X2695380Y3088210D02*
D03*
Y3113610D02*
D03*
X2669980Y3088210D02*
D03*
Y3113610D02*
D03*
X2644580Y3088210D02*
D03*
Y3113610D02*
D03*
X2619180D02*
D03*
X3073700Y1644690D02*
D03*
X3048300D02*
D03*
X3073700Y1670090D02*
D03*
X3048300D02*
D03*
X3073700Y1797890D02*
D03*
X3048300Y1695890D02*
D03*
Y1721290D02*
D03*
X3073700Y1695890D02*
D03*
Y1721290D02*
D03*
Y1746690D02*
D03*
X3048300D02*
D03*
X3073700Y1772090D02*
D03*
X3048300D02*
D03*
Y1797890D02*
D03*
X3073700Y1823290D02*
D03*
X3048300D02*
D03*
X3073700Y1848690D02*
D03*
X3048300D02*
D03*
X3073700Y1874090D02*
D03*
X3048300D02*
D03*
Y1899490D02*
D03*
X3073700Y1950890D02*
D03*
Y1899690D02*
D03*
Y1925090D02*
D03*
X3048300D02*
D03*
Y1950890D02*
D03*
X3073700Y1976290D02*
D03*
X3048300D02*
D03*
X3073700Y2001690D02*
D03*
X3048300D02*
D03*
X3073700Y2027090D02*
D03*
X3048300D02*
D03*
X3073700Y2154890D02*
D03*
X3048300Y2052890D02*
D03*
Y2078290D02*
D03*
X3073700Y2052890D02*
D03*
Y2078290D02*
D03*
Y2103690D02*
D03*
X3048300D02*
D03*
X3073700Y2129090D02*
D03*
X3048300D02*
D03*
Y2154890D02*
D03*
X3073700Y2180290D02*
D03*
X3048300D02*
D03*
X3073700Y2205690D02*
D03*
X3048300D02*
D03*
X3073700Y2231090D02*
D03*
X3048300D02*
D03*
Y2256490D02*
D03*
X3073700Y813500D02*
D03*
Y762300D02*
D03*
X3048300D02*
D03*
X3073700Y787700D02*
D03*
X3048300D02*
D03*
Y813500D02*
D03*
X3073700Y838900D02*
D03*
X3048300D02*
D03*
X3073700Y864300D02*
D03*
X3048300D02*
D03*
X3073700Y889700D02*
D03*
X3048300D02*
D03*
X3073700Y1017500D02*
D03*
X3048300Y915500D02*
D03*
Y940900D02*
D03*
X3073700Y915500D02*
D03*
Y940900D02*
D03*
Y966300D02*
D03*
X3048300D02*
D03*
X3073700Y991700D02*
D03*
X3048300D02*
D03*
Y1017500D02*
D03*
X3073700Y1042900D02*
D03*
X3048300D02*
D03*
X3073700Y1068300D02*
D03*
X3048300D02*
D03*
X3073700Y1093700D02*
D03*
X3048300D02*
D03*
Y1119100D02*
D03*
D85*
X2619180Y3088210D02*
D03*
D86*
X1654580Y2327280D02*
D03*
D87*
X2998040Y2596720D02*
D03*
D88*
Y2622120D02*
D03*
X163900Y2976000D02*
D03*
D89*
X1927430Y610440D02*
D03*
Y826340D02*
D03*
X1879170D02*
D03*
Y718390D02*
D03*
X1927430D02*
D03*
X1561670D02*
D03*
Y827610D02*
D03*
X1059610Y289590D02*
D03*
X849610Y664590D02*
D03*
Y289590D02*
D03*
X1927430Y935560D02*
D03*
X1879550D02*
D03*
X1561670Y936240D02*
D03*
D90*
X2062430Y610440D02*
D03*
Y826340D02*
D03*
X1744170D02*
D03*
Y718390D02*
D03*
X2062430D02*
D03*
X1696670D02*
D03*
Y827610D02*
D03*
X2062430Y935560D02*
D03*
X1744550D02*
D03*
X1696670Y936240D02*
D03*
D91*
X893650Y791288D02*
D03*
Y829388D02*
D03*
Y810592D02*
D03*
Y772492D02*
D03*
X1922350Y2333830D02*
D03*
Y2295730D02*
D03*
Y2314526D02*
D03*
Y2352626D02*
D03*
D92*
X1046050Y737440D02*
D03*
X995250Y864440D02*
D03*
X1020650Y737440D02*
D03*
Y864440D02*
D03*
X1071450Y737440D02*
D03*
X1046050Y864440D02*
D03*
X1071450D02*
D03*
X995250Y737440D02*
D03*
X1769950Y2387678D02*
D03*
X1820750Y2260678D02*
D03*
X1795350Y2387678D02*
D03*
Y2260678D02*
D03*
X1744550Y2387678D02*
D03*
X1769950Y2260678D02*
D03*
X1744550D02*
D03*
X1820750Y2387678D02*
D03*
D93*
X1059610Y664590D02*
D03*
D94*
X1180670Y400960D02*
D03*
X1885450Y2469720D02*
D03*
X2134510Y2284300D02*
D03*
D95*
X1180670Y250960D02*
D03*
D96*
X1338800Y387250D02*
D03*
X1313400D02*
D03*
X1364200D02*
D03*
D97*
X1288000D02*
D03*
D98*
X138500Y2976000D02*
D03*
D99*
X615520Y2745310D02*
D03*
D100*
Y2770710D02*
D03*
D101*
X930480Y2693170D02*
D03*
D102*
X1179930Y1019380D02*
D03*
Y897037D02*
D03*
Y774693D02*
D03*
Y652350D02*
D03*
X1818800Y2658950D02*
D03*
D103*
X1110480Y2693170D02*
D03*
X930480Y2793170D02*
D03*
Y2718170D02*
D03*
Y2768170D02*
D03*
Y2868170D02*
D03*
Y2843170D02*
D03*
Y2818170D02*
D03*
Y2918170D02*
D03*
Y2893170D02*
D03*
Y2943170D02*
D03*
X1110480Y2793170D02*
D03*
Y2718170D02*
D03*
Y2768170D02*
D03*
Y2868170D02*
D03*
Y2843170D02*
D03*
Y2918170D02*
D03*
Y2943170D02*
D03*
D104*
X1404930Y1019380D02*
D03*
X2093800Y2658950D02*
D03*
X1404930Y897037D02*
D03*
Y774693D02*
D03*
Y652350D02*
D03*
D105*
X2144600Y159680D02*
D03*
X2062050D02*
D03*
D106*
X3073700Y2256490D02*
D03*
Y1119100D02*
D03*
D107*
X1529920Y193880D02*
D03*
X1865200Y196420D02*
D03*
D108*
X2035450Y2469720D02*
D03*
X1984510Y2284300D02*
D03*
D109*
X253500Y696500D02*
D03*
X207500Y560000D02*
D03*
X306750Y2379750D02*
D03*
X2050430Y610940D02*
D03*
Y598940D02*
D03*
X2062430D02*
D03*
X2051430Y621940D02*
D03*
X2062430D02*
D03*
X2074430D02*
D03*
Y610940D02*
D03*
Y598940D02*
D03*
Y814840D02*
D03*
Y826840D02*
D03*
Y837840D02*
D03*
X2062430D02*
D03*
X2051430D02*
D03*
X2062430Y814840D02*
D03*
X2050430D02*
D03*
Y826840D02*
D03*
X1732170Y837840D02*
D03*
Y825840D02*
D03*
Y814840D02*
D03*
X1744170D02*
D03*
X1755170D02*
D03*
X1744170Y837840D02*
D03*
X1756170D02*
D03*
Y825840D02*
D03*
Y717890D02*
D03*
Y729890D02*
D03*
X1744170D02*
D03*
X1755170Y706890D02*
D03*
X1744170D02*
D03*
X1732170D02*
D03*
Y717890D02*
D03*
Y729890D02*
D03*
X2050430Y718890D02*
D03*
Y706890D02*
D03*
X2062430D02*
D03*
X2051430Y729890D02*
D03*
X2062430D02*
D03*
X2074430D02*
D03*
Y718890D02*
D03*
Y706890D02*
D03*
X1684670Y718890D02*
D03*
Y706890D02*
D03*
X1696670D02*
D03*
X1685670Y729890D02*
D03*
X1696670D02*
D03*
X1708670D02*
D03*
Y718890D02*
D03*
Y706890D02*
D03*
X1684670Y828110D02*
D03*
Y816110D02*
D03*
X1696670D02*
D03*
X1685670Y839110D02*
D03*
X1696670D02*
D03*
X1708670D02*
D03*
Y828110D02*
D03*
Y816110D02*
D03*
X1531250Y3128000D02*
D03*
X1097000Y94250D02*
D03*
X1021750Y172250D02*
D03*
X1050750Y90750D02*
D03*
X1324000Y99000D02*
D03*
X3166750Y462500D02*
D03*
X3129750Y490250D02*
D03*
Y579750D02*
D03*
X1718250Y2329250D02*
D03*
X1761750Y2326250D02*
D03*
X1735500Y2338500D02*
D03*
X1553000Y3128000D02*
D03*
X888750Y64750D02*
D03*
X866500Y65250D02*
D03*
X2761500Y1817000D02*
D03*
X2762474Y1870323D02*
D03*
X1482000Y2747250D02*
D03*
Y2667500D02*
D03*
X1852750Y2334500D02*
D03*
X1234000Y86750D02*
D03*
X213250Y952250D02*
D03*
X272750Y836000D02*
D03*
X286500Y880750D02*
D03*
X235500Y817000D02*
D03*
X791500Y803000D02*
D03*
X806250Y802750D02*
D03*
X1210250Y158750D02*
D03*
X1337750Y159000D02*
D03*
X1251000Y199000D02*
D03*
X1181750Y88750D02*
D03*
X1285000Y171250D02*
D03*
X1331000Y220750D02*
D03*
X1312500Y191500D02*
D03*
X1312250Y267000D02*
D03*
X288000Y2325750D02*
D03*
X281250Y2130500D02*
D03*
X303500Y2325750D02*
D03*
X328750Y2186250D02*
D03*
Y1984250D02*
D03*
X304750Y2127250D02*
D03*
X323500Y1328500D02*
D03*
X331000Y1191750D02*
D03*
X277500Y1328750D02*
D03*
X306500Y1188250D02*
D03*
X281250Y1732000D02*
D03*
X279250Y2531250D02*
D03*
X284000Y1131500D02*
D03*
X299000Y2530000D02*
D03*
X282000Y2382000D02*
D03*
X292750Y1574250D02*
D03*
X293250Y983500D02*
D03*
X328750Y1730750D02*
D03*
X318750Y2529250D02*
D03*
X329250Y1576500D02*
D03*
X330250Y1131000D02*
D03*
X331000Y983500D02*
D03*
X284500Y1781000D02*
D03*
X283000Y1377000D02*
D03*
X281871Y1925929D02*
D03*
X276716Y1513284D02*
D03*
X319000Y1928500D02*
D03*
X318500Y1782000D02*
D03*
X318000Y1513000D02*
D03*
X330000Y1377750D02*
D03*
X242540Y720500D02*
D03*
X290250Y632500D02*
D03*
X315250Y536000D02*
D03*
X324250Y744750D02*
D03*
X220026Y301526D02*
D03*
X319500Y953250D02*
D03*
X279750Y419750D02*
D03*
X259250Y632250D02*
D03*
X236801Y404000D02*
D03*
X294250Y466500D02*
D03*
X241500Y294250D02*
D03*
X328770Y339230D02*
D03*
X314752Y168748D02*
D03*
X314750Y110750D02*
D03*
X273250Y165250D02*
D03*
X225280Y177720D02*
D03*
X2924500Y607750D02*
D03*
X2810590Y1223090D02*
D03*
X2855750Y1139300D02*
D03*
X2786500Y1095750D02*
D03*
Y1185250D02*
D03*
X2815860Y982110D02*
D03*
X2864730Y922980D02*
D03*
X2739500Y938750D02*
D03*
X2726500Y848000D02*
D03*
X2784750Y941250D02*
D03*
Y850750D02*
D03*
X2074430Y924060D02*
D03*
Y936060D02*
D03*
Y947060D02*
D03*
X2062430D02*
D03*
X2051430D02*
D03*
X2062430Y924060D02*
D03*
X2050430D02*
D03*
Y936060D02*
D03*
X1732550Y947060D02*
D03*
Y935060D02*
D03*
Y924060D02*
D03*
X1744550D02*
D03*
X1755550D02*
D03*
X1744550Y947060D02*
D03*
X1756550D02*
D03*
Y935060D02*
D03*
X1708670Y924740D02*
D03*
Y936740D02*
D03*
Y947740D02*
D03*
X1696670D02*
D03*
X1685670D02*
D03*
X1696670Y924740D02*
D03*
X1684670D02*
D03*
Y936740D02*
D03*
D110*
X221000Y708750D02*
D03*
X3138500Y1873500D02*
D03*
Y1798000D02*
D03*
X233500Y940250D02*
D03*
X244104Y861146D02*
D03*
X253500Y536000D02*
D03*
X246500Y431250D02*
D03*
X251500Y516750D02*
D03*
X244000Y223500D02*
D03*
X2792250Y492750D02*
D03*
Y410000D02*
D03*
X2789750Y671750D02*
D03*
Y599250D02*
D03*
D111*
X2940250Y3141000D02*
D03*
D03*
X3173000Y3115750D02*
D03*
X3164000Y3123750D02*
D03*
X3155750Y3132000D02*
D03*
X3147500Y3140750D02*
D03*
X3138500Y3149750D02*
D03*
X3130000Y3157750D02*
D03*
X3122750Y3165000D02*
D03*
X3116250Y3171750D02*
D03*
X3129250Y3184750D02*
D03*
X3135750Y3178000D02*
D03*
X3143000Y3170750D02*
D03*
X3151500Y3162750D02*
D03*
X3160500Y3153750D02*
D03*
X3168750Y3145000D02*
D03*
X3177000Y3136750D02*
D03*
X3186000Y3128750D02*
D03*
X3062000Y1318000D02*
D03*
Y1307500D02*
D03*
Y1297750D02*
D03*
Y1286750D02*
D03*
Y1275000D02*
D03*
Y1264750D02*
D03*
Y1254750D02*
D03*
X3050250Y1318500D02*
D03*
Y1308000D02*
D03*
Y1298250D02*
D03*
Y1287250D02*
D03*
Y1275500D02*
D03*
Y1265250D02*
D03*
Y1255250D02*
D03*
Y1328750D02*
D03*
Y1339000D02*
D03*
Y1349500D02*
D03*
Y1359250D02*
D03*
Y1370250D02*
D03*
Y1382000D02*
D03*
Y1392250D02*
D03*
Y1402250D02*
D03*
X3062000Y1328250D02*
D03*
Y1338500D02*
D03*
Y1349000D02*
D03*
Y1358750D02*
D03*
Y1369750D02*
D03*
Y1381500D02*
D03*
Y1391750D02*
D03*
Y1401750D02*
D03*
X3037750Y1498000D02*
D03*
Y1488000D02*
D03*
Y1445250D02*
D03*
Y1477750D02*
D03*
Y1434750D02*
D03*
Y1455000D02*
D03*
Y1466000D02*
D03*
Y1424500D02*
D03*
X2993750Y2479750D02*
D03*
Y2490000D02*
D03*
Y2500500D02*
D03*
Y2510250D02*
D03*
Y2521250D02*
D03*
Y2533000D02*
D03*
Y2543250D02*
D03*
Y2553250D02*
D03*
Y2406250D02*
D03*
Y2416500D02*
D03*
Y2427000D02*
D03*
Y2436750D02*
D03*
Y2447750D02*
D03*
Y2459500D02*
D03*
Y2469750D02*
D03*
Y2332750D02*
D03*
Y2343000D02*
D03*
Y2353500D02*
D03*
Y2363250D02*
D03*
Y2374250D02*
D03*
Y2386000D02*
D03*
Y2396250D02*
D03*
X2997250Y2819250D02*
D03*
Y2829500D02*
D03*
Y2840000D02*
D03*
Y2849750D02*
D03*
Y2860750D02*
D03*
Y2872500D02*
D03*
Y2882750D02*
D03*
Y2892750D02*
D03*
Y2745750D02*
D03*
Y2756000D02*
D03*
Y2766500D02*
D03*
Y2776250D02*
D03*
Y2787250D02*
D03*
Y2799000D02*
D03*
Y2809250D02*
D03*
Y2672250D02*
D03*
Y2682500D02*
D03*
Y2693000D02*
D03*
Y2702750D02*
D03*
Y2713750D02*
D03*
Y2725500D02*
D03*
Y2735750D02*
D03*
X2993500Y3141000D02*
D03*
X2983250D02*
D03*
X2972750D02*
D03*
X2963000D02*
D03*
X2952000D02*
D03*
X3058000Y3087500D02*
D03*
X3004750D02*
D03*
X3026750D02*
D03*
X3047500D02*
D03*
X2994750D02*
D03*
X3015000D02*
D03*
X3037750D02*
D03*
X150000Y2363750D02*
D03*
X150250Y2554500D02*
D03*
X33500Y1739500D02*
D03*
X89965Y274550D02*
D03*
X152250Y212250D02*
D03*
X28750Y499500D02*
D03*
X39250Y2141250D02*
D03*
X32000Y1943750D02*
D03*
X32750Y1538500D02*
D03*
X27750Y1344000D02*
D03*
X90000Y599500D02*
D03*
Y1140250D02*
D03*
Y952750D02*
D03*
X1385750Y70750D02*
D03*
X1400000Y63750D02*
D03*
X933000Y63000D02*
D03*
X922250Y70500D02*
D03*
X28750Y939750D02*
D03*
X40290Y2176000D02*
D03*
X33540Y1975750D02*
D03*
X2899750Y2662750D02*
D03*
Y2652500D02*
D03*
Y2640750D02*
D03*
Y2629750D02*
D03*
Y2620000D02*
D03*
Y2609500D02*
D03*
Y2599250D02*
D03*
Y2736250D02*
D03*
Y2726000D02*
D03*
Y2714250D02*
D03*
Y2703250D02*
D03*
Y2693500D02*
D03*
Y2683000D02*
D03*
Y2672750D02*
D03*
Y2819750D02*
D03*
Y2809750D02*
D03*
Y2799500D02*
D03*
Y2787750D02*
D03*
Y2776750D02*
D03*
Y2767000D02*
D03*
Y2756500D02*
D03*
Y2746250D02*
D03*
X2866750Y3141000D02*
D03*
X2876750D02*
D03*
X2887000D02*
D03*
X2898750D02*
D03*
X2909750D02*
D03*
X2919500D02*
D03*
X2930000D02*
D03*
X2994250Y3100750D02*
D03*
X3004250D02*
D03*
X3014500D02*
D03*
X3026250D02*
D03*
X3037250D02*
D03*
X3047000D02*
D03*
X2921500Y1412250D02*
D03*
Y1402250D02*
D03*
Y1392000D02*
D03*
Y1380250D02*
D03*
Y1369250D02*
D03*
Y1359500D02*
D03*
Y1349000D02*
D03*
Y1338750D02*
D03*
X2909750Y1412750D02*
D03*
Y1402750D02*
D03*
Y1392500D02*
D03*
Y1380750D02*
D03*
Y1369750D02*
D03*
Y1360000D02*
D03*
Y1349500D02*
D03*
Y1339250D02*
D03*
X2912250Y1772750D02*
D03*
Y1762750D02*
D03*
Y1752500D02*
D03*
Y1740750D02*
D03*
Y1729750D02*
D03*
Y1720000D02*
D03*
Y1709500D02*
D03*
Y1699250D02*
D03*
X2902250Y1772750D02*
D03*
Y1762750D02*
D03*
Y1752500D02*
D03*
Y1740750D02*
D03*
Y1729750D02*
D03*
Y1720000D02*
D03*
Y1709500D02*
D03*
Y1699250D02*
D03*
X27290Y175000D02*
D03*
Y190000D02*
D03*
X35250Y199500D02*
D03*
X70500Y62750D02*
D03*
X87250Y43910D02*
D03*
X32790Y3087000D02*
D03*
X31000Y3100250D02*
D03*
X28000Y3109500D02*
D03*
X33272Y3124728D02*
D03*
X33868Y2375632D02*
D03*
X33750Y2564750D02*
D03*
X34500Y1759750D02*
D03*
X60750Y71750D02*
D03*
X705000Y20250D02*
D03*
Y32263D02*
D03*
X34000Y1563250D02*
D03*
X2996250Y823500D02*
D03*
X34750Y166250D02*
D03*
X21710Y1150750D02*
D03*
D112*
X1586750Y1399500D02*
D03*
X1584000Y1417250D02*
D03*
X2097250Y1503500D02*
D03*
X2082500D02*
D03*
X2082250Y1519750D02*
D03*
X2097000D02*
D03*
X2131500Y1481750D02*
D03*
X2116750D02*
D03*
X2116500Y1498000D02*
D03*
X2131250D02*
D03*
X2130000Y1446250D02*
D03*
X2129750Y1462500D02*
D03*
X2124750Y1407750D02*
D03*
X2124500Y1424000D02*
D03*
X2112750Y1378000D02*
D03*
X2098000D02*
D03*
X2097750Y1394250D02*
D03*
X2112500D02*
D03*
X2073500Y1367000D02*
D03*
X2058750D02*
D03*
X2058500Y1383250D02*
D03*
X2073250D02*
D03*
X2035000Y1378000D02*
D03*
X2020250D02*
D03*
X2020000Y1394250D02*
D03*
X2034750D02*
D03*
X2005250Y1401000D02*
D03*
X1990500D02*
D03*
X1990250Y1417250D02*
D03*
X2005000D02*
D03*
X2001000Y1434500D02*
D03*
X1986250D02*
D03*
X1986000Y1450750D02*
D03*
X2000750D02*
D03*
X2005250Y1468750D02*
D03*
X1990500D02*
D03*
X1990250Y1485000D02*
D03*
X2005000D02*
D03*
X2029750Y1494500D02*
D03*
X2015000D02*
D03*
X2014750Y1510750D02*
D03*
X2029500D02*
D03*
X2096500Y1181250D02*
D03*
X2081750D02*
D03*
X2081500Y1197500D02*
D03*
X2096250D02*
D03*
X2132500Y1202250D02*
D03*
X2117750D02*
D03*
X2117500Y1218500D02*
D03*
X2132250D02*
D03*
X2130750Y1240250D02*
D03*
X2130500Y1256500D02*
D03*
X2124250Y1274750D02*
D03*
X2124000Y1291000D02*
D03*
X2115000Y1306250D02*
D03*
X2100250D02*
D03*
X2100000Y1322500D02*
D03*
X2114750D02*
D03*
X2077250Y1316250D02*
D03*
X2062500D02*
D03*
X2062250Y1332500D02*
D03*
X2077000D02*
D03*
X2035500Y1310000D02*
D03*
X2020750D02*
D03*
X2020500Y1326250D02*
D03*
X2035250D02*
D03*
X2004000Y1280250D02*
D03*
X1989250D02*
D03*
X1989000Y1296500D02*
D03*
X2003750D02*
D03*
X1996000Y1240250D02*
D03*
X1981250D02*
D03*
X1981000Y1256500D02*
D03*
X1995750D02*
D03*
X2014500Y1202750D02*
D03*
X1999750D02*
D03*
X1999500Y1219000D02*
D03*
X2014250D02*
D03*
X2596250Y1943000D02*
D03*
X2581500D02*
D03*
X2581250Y1959250D02*
D03*
X2596000D02*
D03*
X2597000Y1737500D02*
D03*
X2582250D02*
D03*
X2582500Y1721250D02*
D03*
X2597250D02*
D03*
D113*
X1939502Y613130D02*
D03*
X1937430Y603940D02*
D03*
X1928430Y598940D02*
D03*
X1918430Y601940D02*
D03*
X1916430Y611940D02*
D03*
X1923015Y619783D02*
D03*
X1933430Y620940D02*
D03*
Y836840D02*
D03*
X1923015Y835683D02*
D03*
X1916430Y827840D02*
D03*
X1918430Y817840D02*
D03*
X1928430Y814840D02*
D03*
X1937430Y819840D02*
D03*
X1939502Y829030D02*
D03*
X1873170Y815840D02*
D03*
X1883584Y816997D02*
D03*
X1890170Y824840D02*
D03*
X1888170Y834840D02*
D03*
X1878170Y837840D02*
D03*
X1869170Y832840D02*
D03*
X1867099Y823650D02*
D03*
Y715700D02*
D03*
X1869170Y724890D02*
D03*
X1878170Y729890D02*
D03*
X1888170Y726890D02*
D03*
X1890170Y716890D02*
D03*
X1883584Y709047D02*
D03*
X1873170Y707890D02*
D03*
X1939502Y721080D02*
D03*
X1937430Y711890D02*
D03*
X1928430Y706890D02*
D03*
X1918430Y709890D02*
D03*
X1916430Y719890D02*
D03*
X1923015Y727733D02*
D03*
X1933430Y728890D02*
D03*
X1573742Y721080D02*
D03*
X1571670Y711890D02*
D03*
X1562670Y706890D02*
D03*
X1552670Y709890D02*
D03*
X1550670Y719890D02*
D03*
X1557256Y727733D02*
D03*
X1567670Y728890D02*
D03*
X1573742Y830300D02*
D03*
X1571670Y821110D02*
D03*
X1562670Y816110D02*
D03*
X1552670Y819110D02*
D03*
X1550670Y829110D02*
D03*
X1557256Y836953D02*
D03*
X1567670Y838110D02*
D03*
X1933430Y946060D02*
D03*
X1923015Y944903D02*
D03*
X1916430Y937060D02*
D03*
X1918430Y927060D02*
D03*
X1928430Y924060D02*
D03*
X1937430Y929060D02*
D03*
X1939502Y938250D02*
D03*
X1873550Y925060D02*
D03*
X1883965Y926217D02*
D03*
X1890550Y934060D02*
D03*
X1888550Y944060D02*
D03*
X1878550Y947060D02*
D03*
X1869550Y942060D02*
D03*
X1867478Y932870D02*
D03*
X1567670Y946740D02*
D03*
X1557256Y945583D02*
D03*
X1550670Y937740D02*
D03*
X1552670Y927740D02*
D03*
X1562670Y924740D02*
D03*
X1571670Y929740D02*
D03*
X1573742Y938930D02*
D03*
M02*
