G04*
G04 #@! TF.GenerationSoftware,Altium Limited,Altium Designer,25.3.3 (18)*
G04*
G04 Layer_Color=8388736*
%FSLAX44Y44*%
%MOMM*%
G71*
G04*
G04 #@! TF.SameCoordinates,02FA8497-09D8-4EBB-9686-6BBDE5AED0EC*
G04*
G04*
G04 #@! TF.FilePolarity,Positive*
G04*
G01*
G75*
%ADD14C,0.2540*%
%ADD169C,0.2500*%
D14*
X1725990Y2879930D02*
G03*
X1725990Y2879930I-17000J0D01*
G01*
X1160840Y2436700D02*
G03*
X1160840Y2436700I-17000J0D01*
G01*
X1243390Y1692480D02*
G03*
X1243390Y1692480I-17000J0D01*
G01*
X2052380Y2383360D02*
G03*
X2052380Y2383360I-17000J0D01*
G01*
X1703130Y244680D02*
G03*
X1703130Y244680I-17000J0D01*
G01*
X2763580Y220550D02*
G03*
X2763580Y220550I-17000J0D01*
G01*
X1546920Y193880D02*
G03*
X1546920Y193880I-17000J0D01*
G01*
X1882200Y196420D02*
G03*
X1882200Y196420I-17000J0D01*
G01*
X2052380Y2881200D02*
G03*
X2052380Y2881200I-17000J0D01*
G01*
X2227640D02*
G03*
X2227640Y2881200I-17000J0D01*
G01*
X1894900Y2879930D02*
G03*
X1894900Y2879930I-17000J0D01*
G01*
D169*
X1698830Y2879930D02*
X1719150D01*
X1708990Y2869770D02*
Y2890090D01*
X1133680Y2436700D02*
X1154000D01*
X1143840Y2426540D02*
Y2446860D01*
X1216230Y1692480D02*
X1236550D01*
X1226390Y1682320D02*
Y1702640D01*
X2025220Y2383360D02*
X2045540D01*
X2035380Y2373200D02*
Y2393520D01*
X1675970Y244680D02*
X1696290D01*
X1686130Y234520D02*
Y254840D01*
X2746580Y210390D02*
Y230710D01*
X2736420Y220550D02*
X2756740D01*
X1519760Y193880D02*
X1540080D01*
X1529920Y183720D02*
Y204040D01*
X1855040Y196420D02*
X1875360D01*
X1865200Y186260D02*
Y206580D01*
X2035380Y2871040D02*
Y2891360D01*
X2025220Y2881200D02*
X2045540D01*
X2210640Y2871040D02*
Y2891360D01*
X2200480Y2881200D02*
X2220800D01*
X1877900Y2869770D02*
Y2890090D01*
X1867740Y2879930D02*
X1888060D01*
M02*
