M48
;Layer_Color=9474304
;FILE_FORMAT=4:4
METRIC,LZ
;TYPE=PLATED
T12F00S00C1.2000
T16F00S00C1.5000
T18F00S00C1.7600
%
T12
X0140493Y0065235
Y00774693
Y00897037
Y0101938
X020938Y0265895
T16
X0105961Y0066459
T18
X00396Y0030677
X02626Y003765
Y005965
X00396Y0050677
Y0070677
Y0090677
Y0110677
X02626Y010365
Y008165
Y014565
X00396Y0150677
Y0130677
Y0170677
Y0190677
X02626Y018965
Y016765
X00396Y0210677
Y0230677
Y0250677
M30
