M48
;Layer_Color=9474304
;FILE_FORMAT=4:4
METRIC,LZ
;TYPE=PLATED
T01F00S00C0.3000
T02F00S00C0.5000
T03F00S00C0.7000
T04F00S00C0.8000
T05F00S00C0.8128
T06F00S00C0.8636
T07F00S00C1.0000
T09F00S00C1.0200
T10F00S00C1.0700
T11F00S00C1.2000
T13F00S00C1.2954
T14F00S00C1.3000
T15F00S00C1.5000
T17F00S00C1.7600
T19F00S00C2.5000
T20F00S00C3.0000
T24F00S00C3.9500
T25F00S00C4.0000
T26F00S00C5.0000
T27F00S00C8.0000
T28F00S00C10.0000
%
T01
X0008725Y0004391
X000705Y0006275
X0006075Y0007175
X0003475Y0016625
X0002729Y00175
Y0019
X0003525Y001995
X0015225Y0021225
X00089965Y0027455
X00705Y00032263
Y0002025
X0092225Y000705
X00933Y00063
X0138575Y0007075
X014Y0006375
X0002875Y004995
X0009Y005995
Y0095275
X0002875Y0093975
X0002171Y0115075
X0009Y0114025
X0299625Y008235
X0305025Y0125525
Y0126525
Y012755
Y0128725
Y0129825
Y01308
Y013185
Y0132875
Y01339
Y013495
Y0135925
Y0137025
Y01382
Y0139225
Y0140225
X03062Y0140175
Y0139175
Y013815
Y0136975
Y0135875
Y01349
Y013385
Y0132825
Y01318
Y013075
Y0129775
Y0128675
Y01275
Y0126475
Y0125475
X0303775Y014245
Y0143475
Y0144525
Y01455
Y01466
Y0147775
Y01488
Y01498
X029215Y0141225
Y0140225
Y01392
Y0138025
Y0136925
Y013595
Y01349
Y0133875
X0290975Y0133925
Y013495
Y0136
Y0136975
Y0138075
Y013925
Y0140275
Y0141275
X0002775Y01344
X0003275Y015385
X00034Y0156325
X000335Y017395
X000345Y0175975
X00032Y0194375
X0003354Y0197575
X0290225Y0177275
X0291225
Y0176275
X0290225
Y017525
X0291225
Y0174075
X0290225
Y0172975
Y0172
X0291225
Y0172975
Y017095
X0290225
Y0169925
X0291225
X0299375Y0233275
Y02343
Y023535
Y0236325
Y0237425
X0015Y0236375
X00033868Y02375632
X0004029Y02176
X0003925Y0214125
X0003375Y0256475
X0015025Y025545
X0289975Y0259925
Y026095
Y0262
Y0262975
Y0264075
Y026525
Y0266275
Y0267275
Y02683
Y026935
Y0270325
Y0271425
Y02726
Y0273625
Y0274625
Y027565
Y02767
Y0277675
X0299725Y0277625
Y027665
Y02756
Y0274575
Y0273575
Y027255
Y0271375
Y0270275
Y02693
Y026825
Y0267225
X0299375Y0255325
Y0254325
Y02533
Y0252125
Y0251025
Y025005
Y0249
Y0247975
Y0246975
Y024595
Y0244775
Y0243675
Y02427
Y024165
Y0240625
Y0239625
Y02386
X03177Y0313675
X03186Y0312875
X03173Y0311575
X03164Y0312375
X0315575Y03132
X031475Y0314075
X031385Y0314975
X0313Y0315775
X0312275Y03165
X0311625Y0317175
X03143Y0317075
X031515Y0316275
X031605Y0315375
X0316875Y03145
X03047Y0310075
X0303725
X0302625
X030145
X0300425
X0299425
X0299475Y030875
X0300475
X03015
X0302675
X0303775
X030475
X03058
X029935Y03141
X0298325
X0297275
X02963
X02952
X0294025
X0293
X029195
X0290975
X0289875
X02887
X0287675
X0286675
X0289975Y0281975
Y0280975
Y027995
Y0278775
X0299725Y0278725
Y02799
Y0280925
Y0281925
Y028295
Y0284
Y0284975
Y0286075
Y028725
Y0288275
Y0289275
X0003279Y03087
X00031Y0310025
X00028Y031095
X00033272Y03124728
X0313575Y03178
X0312925Y0318475
T02
X0022528Y0017772
X0027325Y0016525
X00314752Y00168748
X0031475Y0011075
X00244Y002235
X002415Y0029425
X00220026Y00301526
X0032877Y0033923
X008665Y0006525
X0088875Y0006475
X0105075Y0009075
X01097Y0009425
X0118175Y0008875
X0102175Y0017225
X0121025Y0015875
X01251Y00199
X01285Y0017125
X013125Y001915
X01331Y0022075
X0131225Y00267
X0133775Y00159
X01324Y00099
X01234Y0008675
X0279225Y0041
Y0049275
X0278975Y0059925
Y0067175
X029245Y0060775
X0312975Y0057975
Y0049025
X0316675Y004625
X0193743Y0060394
X01939502Y0061313
X0193343Y0062094
X01923015Y00619783
X0191643Y0061194
X0191843Y0060194
X0192843Y0059894
Y0070689
X0191843Y0070989
X0191643Y0071989
X01923015Y00727733
X0193343Y0072889
X01939502Y0072108
X0193743Y0071189
X0189017Y0071689
X0188817Y0072689
X0187817Y0072989
X0186917Y0072489
X01867099Y007157
X0187317Y0070789
X01883584Y00709047
X0157167Y0071189
X01573742Y0072108
X0156767Y0072889
X01557256Y00727733
X0155067Y0071989
X0155267Y0070989
X0156267Y0070689
X0032425Y0074475
X0024254Y007205
X00221Y0070875
X002535Y006965
X0025925Y0063225
X0029025Y006325
X0031525Y00536
X002535
X002515Y0051675
X002075Y0056
X002465Y0043125
X00236801Y00404
X0027975Y0041975
X0029425Y004665
X0027275Y00836
X00244104Y00861146
X002355Y00817
X002865Y0088075
X003195Y0095325
X00331Y009835
X0029325
X002335Y0094025
X0021325Y0095225
X00284Y011315
X0033025Y01131
X003065Y0118825
X007915Y00803
X0080625Y0080275
X0155267Y0081911
X0155067Y0082911
X01557256Y00836953
X0156767Y0083811
X01573742Y008303
X0157167Y0082111
X0156267Y0081611
Y0092474
X0155267Y0092774
X0155067Y0093774
X01557256Y00945583
X0156767Y0094674
X01573742Y0093893
X0157167Y0092974
X01867478Y0093287
X0186955Y0094206
X0187855Y0094706
X0188855Y0094406
X0189055Y0093406
X01883965Y00926217
X0187355Y0092506
X0191843Y0092706
X0191643Y0093706
X01923015Y00944903
X0193343Y0094606
X01939502Y0093825
X0193743Y0092906
X0192843Y0092406
X0193343Y0083684
X01923015Y00835683
X0191643Y0082784
X0191843Y0081784
X0192843Y0081484
X0193743Y0081984
X01939502Y0082903
X0189017Y0082484
X0188817Y0083484
X0187817Y0083784
X0186917Y0083284
X01867099Y0082365
X0187317Y0081584
X01883584Y00816997
X027265Y00848
X027395Y0093875
X0278475Y0094125
X0281586Y0098211
X0286473Y0092298
X0278475Y0085075
X027865Y0109575
Y0118525
X0285575Y011393
X0281059Y0122309
X00331Y0119175
X003235Y013285
X002775Y0132875
X00283Y01377
X0033Y0137775
X00318Y01513
X00276716Y01513284
X0029275Y0157425
X0032925Y015765
X0032875Y0173075
X0028125Y01732
X002845Y01781
X003185Y01782
X00319Y019285
X00281871Y01925929
X0032875Y0198425
X02762474Y01870323
X027615Y01817
X031385Y01798
Y018735
X0185275Y023345
X0176175Y0232625
X017355Y023385
X0171825Y0232925
X003035Y0232575
X00288
X0030675Y0237975
X0032875Y0218625
X0030475Y0212725
X0028125Y021305
X00282Y02382
X0027925Y0253125
X00299Y0253
X0031875Y0252925
X01482Y026675
Y0274725
X0153125Y03128
X01553
T03
X001235Y0011175
X00146Y0011575
X0073825Y0012075
X0073925Y0015125
X0110375Y0037675
X0113075Y003765
X02797Y00081
X0320075Y004835
X031815Y0051225
X0292875Y0056275
X0286125Y0050125
X0285875Y006805
X0290325Y0075675
X0207443Y0072989
Y0071889
Y0070689
X0206243
X0205043
Y0071889
X0205143Y0072989
X0206243
Y0062194
X0205143
X0205043Y0061094
Y0059894
X0206243
X0207443
Y0061094
Y0062194
X0175517Y0070689
X0174417
X0173217
Y0071789
Y0072989
X0174417
X0175617
Y0071789
X0170867Y0071889
Y0072989
X0169667
X0168567
X0168467Y0071889
Y0070689
X0169667
X0170867
X01326Y00482
X00248Y005885
X0168467Y0081611
Y0082811
X0168567Y0083911
X0169667
X0170867
Y0082811
Y0081611
X0169667
X0173217Y0081484
Y0082584
Y0083784
X0174417
X0175617
Y0082584
X0175517Y0081484
X0174417
X0174455Y0092406
X0175555
X0175655Y0093506
Y0094706
X0174455
X0173255
Y0093506
Y0092406
X0170867Y0092474
Y0093674
Y0094774
X0169667
X0168567
X0168467Y0093674
Y0092474
X0169667
X0205043Y0092406
X0206243
X0207443
Y0093606
Y0094706
X0206243
X0205143
X0205043Y0093606
X0205143Y0083784
X0206243
X0207443
Y0082684
Y0081484
X0206243
X0205043
Y0082684
X0283986Y0098161
X0283459Y0122259
X02831Y0139625
X0306125Y014945
X0271376Y0182351
X0277973Y0174073
X0278756Y0165819
X02941Y01816
X0274276Y0207499
X0274334Y0213266
X0274496Y0218929
X0274373Y0224723
X00557Y0258975
X0054875Y0263375
X0055275Y0267625
X01481Y0269125
X0148025Y025515
X01532Y0253675
X0147825Y02827
X014815Y02974
X0126175Y03063
X0123925Y030635
X0121775Y0306317
X00556Y0301575
X0055475Y02965
X00556Y0293575
X005535Y0289525
X0055194Y0285556
X00554Y0281725
X004715Y0291275
X00453Y02913
X00434Y0291275
X00388Y028755
X0036875Y0287625
X0034975Y028755
X0034925Y0279
X0036925Y02789
X0039Y0278925
X0036Y0301725
X0034025Y030175
X0032025Y0301725
X0025575Y0301475
X002355
X0021525Y030145
T04
X0147075Y0014125
X014855Y00132
X01505679Y001235
X01527214
X0154875
X01542536Y0014575
X01521
X0157575Y001355
X0157875Y001865
Y00208036
X0157725Y0025225
X015495Y00268
Y00289536
Y00311071
Y00332607
Y00354143
Y00375678
X0156925Y00381
X0152475Y00374929
Y00396464
Y00353393
Y00331857
Y00310321
Y00288786
Y0026725
X01517964Y0024325
X015395
X01476Y002445
X0145575Y002395
X0145725Y00216321
Y00194786
Y0017325
X0146025Y00156
X0148025Y00182214
Y0020375
X014935Y00268
Y00289536
Y00311071
Y00332607
Y00354143
Y00375678
X0146275Y00373178
Y00394714
Y00351643
Y00330107
Y00308571
Y00287036
Y002655
X013642Y0038725
X013388
X013134
X01288
X016125Y003815
X0160175Y003185
Y00296964
Y00275429
Y00253893
Y00232357
Y00210821
Y00189286
Y0016775
X01591Y0015075
X015975Y001315
X0164676Y001126
X0164685Y001761
X0173185
X0173176Y001126
X018135Y001435
X01829Y001295
X018515Y0012725
X0185775Y0014675
X01879286
X0189075Y001265
X0190925Y0013575
X0192525Y0014775
X01939Y0016225
X01945Y0018125
X0194475Y0020175
X019425Y0022125
X0193625Y0023875
X019235Y00255
X019025Y00266
X0189075Y002875
Y00309036
Y00330571
Y00352107
Y00373643
Y00395178
X0185Y00393428
Y00371893
Y00350357
Y00328821
Y00307286
Y0028575
X0187275Y00271
X0187525Y0024625
X01853714
X01826Y0026525
X01805Y00252
X0179225Y002325
X0178825Y002085
X0178725Y0018475
X018165Y001865
Y00208036
X0180075Y0016075
X0191575Y00189214
Y0021075
X0197475Y00201393
Y00179857
Y00158321
Y00136786
Y0011525
Y00222929
Y00244464
Y00266
X019675Y00291
Y00312536
Y00334071
Y00355607
Y00377143
X019305Y00375893
Y00354357
Y00332821
Y00311286
Y0028975
X0180375Y0038325
X0176Y0038175
X02Y00375893
Y00354357
Y00332821
Y00311286
Y0028975
X020005Y0026725
Y00245714
Y00224179
Y00202643
Y00181107
Y00159571
Y00138036
Y001165
X0206205Y0015968
X021446
Y0024468
X0206205
X0255725Y00251321
Y00272857
X025575Y0029425
Y00315786
Y00337321
X0255775Y0035775
X02558Y003785
X0261975Y0035
X02641286
X0279611Y0034902
Y0037402
X0288247Y0037656
Y0035156
X0304647Y0033953
Y0031453
Y0038953
X0313647
Y0036453
Y0033953
Y0031453
X0308059Y0025317
Y0022817
X0299978Y0016831
X0297478
X0292478
X0289978
Y0007831
X0292478
X0294978
X0297478
X0299978
X0304647Y0041453
X0313647
X0296975Y0046225
Y0048725
X026525Y005085
X02653Y0052725
Y00546
X0263225Y0054625
Y005275
X0263175Y0050875
X026095Y005085
X0261Y0052725
Y00546
X0259075Y00547607
X0257Y00547857
Y00526321
X0259075Y00526071
Y00504536
X0257Y00504786
Y0048325
X0259075Y00483
X0254775
Y00504536
Y00526071
Y00547607
X0254875Y0059825
X025695Y00598
Y00619536
X0254875Y00619786
Y00641321
X025695Y00641071
Y00662607
X0254875Y00662857
X02547Y0070475
X0256825Y007045
X02589Y0070425
Y00725786
X0256825Y00726036
X02547Y00726286
Y00747821
X0256825Y00747571
X02589Y00747321
Y00768857
X0256825Y00769107
X02547Y00769357
X02609679Y007715
Y0075175
Y0073225
X02631214
Y0075175
Y007715
X0265275
Y0075175
Y0073225
X0265475Y00660786
Y0063925
X026355Y006335
X02613964
X0259225Y0063975
Y00661286
X02615214Y0066825
X0263675
X0265175Y00440786
Y0041925
X0260125Y0042
X02581Y004205
Y00442036
X0260125Y00441536
X0255775Y00441357
Y00419821
Y00398286
X02Y00397429
Y00418964
Y004405
X019675Y0044175
Y00420214
Y00398679
X019305Y00397429
Y00418964
Y004405
X0189075Y0043825
Y00416714
X0185Y00414964
Y004365
X0180375Y00404786
X0176Y00403286
X016125Y00403036
Y0056375
Y00585286
X0159375Y0062825
X01759Y00584286
Y0056275
X0180275Y005645
Y00586036
X0157Y00584536
Y00563
X0154875Y00552464
Y00574
Y00595536
X015575Y00616
X01572464Y0062825
X0156925Y00402536
X015495Y00397214
Y0041875
X0152475Y00418
X014935Y0041875
Y00397214
X0146275Y0041625
X01361Y0069975
Y00721286
Y00742822
Y00764357
Y00785893
X0127075Y00777179
Y00755643
Y00734107
Y00712571
Y00691036
Y006695
X0124475Y00667
Y00688536
Y00710071
Y00731607
Y00753143
Y00774679
X01218Y00774464
Y00752929
Y00731393
Y00709857
Y00688322
Y00666786
Y0064525
X0119325Y0068125
X01192Y0074175
X0116775Y00742
X01169Y006815
X01074Y00702214
X01048
X0102125
X0099575
X0096975
X0097075Y00664
X0099675
X0102225
X0102325Y006245
X0099775
X0097175
X0105
X01076
X010745Y008905
X0104775
X0102225
X0099625
X0082025Y0088125
Y0085625
X0116825Y008675
X0116775Y0080675
X011695Y009275
X011685Y0099025
X0117125Y0104825
X011955Y01048
X0121675Y01058357
Y01079893
Y01101429
Y01122964
X01245Y01121679
Y01100143
Y01078607
Y01057072
Y01035536
Y01014
X0124475Y0099275
Y00971214
Y00949679
Y00928143
Y00906607
Y00885071
Y00863536
Y00842
Y0081775
Y00796214
X01218Y00796
X012175Y0082
Y00841536
Y00863072
Y00884607
Y00906143
Y00927679
Y00949214
Y0097075
X0121675Y0099375
Y01015286
Y01036822
X0127225Y01038786
Y01060322
Y01081857
Y01103393
Y01124929
X01360496Y01128123
X01381496Y01150123
X01416746Y01138623
X01434496Y01156623
X01435072Y0117775
X01456607
X01478143
X01499679
X01521214
X0154275
X01399746Y01117873
X01381496Y01097873
X01361Y010795
Y01057964
Y01036429
Y01014893
Y00993357
Y00971822
Y00950286
Y0092875
Y008505
Y00828964
Y00807429
X0127075Y00798714
Y0082025
X01271Y008455
Y00867036
Y00888571
Y00910107
Y00931643
Y00953179
Y00974714
Y0099625
X0127225Y0101725
X0119275Y0099
X0119375Y0092725
X011925Y0086725
X01192Y008065
X0208175Y0118125
X020965
X025635Y01178786
X0258375Y011785
Y01156964
X025635Y0115725
X02613964Y0117675
X026355
X026485Y011065
X02649Y0107725
X0259975Y0107675
X0257425Y01074678
X02554Y01074964
Y01053428
X0257425Y01053143
Y01031607
X02554Y01031893
Y01010357
X0257425Y01010071
Y00988536
X02554Y00988821
Y00967286
X0257425Y00967
Y00945464
X02554Y0094575
X02569Y00922786
X0258925Y009225
X02595Y00954
X02615Y00953286
X0263525Y00953
X0265575Y009535
Y00975036
X0263525Y00974536
X02615Y00974821
X02595Y00975536
X0259375Y0087575
X0259325Y00856
X0256975Y00853821
X02549Y00854071
Y00832536
X0256975Y00832286
Y0081075
X02549Y00811
Y00875607
X0256975Y00875357
X02618Y008515
X0263675Y0085175
X0265475Y0085525
X0265425Y0087525
X026035Y01106
X0257425Y01096214
X02554Y010965
X02561Y01205786
X0258125Y012055
Y01227036
X02561Y01227321
Y01248857
X0258125Y01248571
Y01270107
X02561Y01270393
X026125Y01269393
X0263275Y01269107
Y01247571
X026125Y01247857
Y01226321
X0263275Y01226036
Y012045
X026125Y01204786
X021325Y0120225
X0211775
X021175Y012185
X0213225
X0213075Y0124025
X021305Y012565
X0212425Y0127475
X02124Y01291
X02115Y0130625
X0210025
X021Y013225
X0211475
X0207725Y0131625
X020625
X0206225Y013325
X02077
X020735Y01367
X0205875
X020585Y0138325
X0207325
X02098Y01378
X0211275
X021125Y0139425
X0209775
X0212475Y0140775
X021245Y01424
X0213Y0144625
X0212975Y014625
X021315Y0148175
X0211675
X021165Y01498
X0213125
X0209725Y015035
X020825
X0208225Y0151975
X02097
X020295Y0151075
X0201475
X02015Y014945
X0202975
X02005Y01485
X0199025
X019905Y0146875
X0200525
X0200075Y0145075
X01986
X0198625Y014345
X02001
X02005Y0141725
X0199025
X019905Y01401
X0200525
X0202Y0139425
X0203475
X02035Y01378
X0202025
X020205Y0132625
X0203525
X020355Y0131
X0202075
X0200375Y012965
X01989
X0198925Y0128025
X02004
X0199575Y012565
X01996Y0124025
X019995Y01219
X0201425
X020145Y0120275
X0199975
X020815Y011975
X0209625
X0198125Y0124025
X01981Y012565
X016555Y0128225
Y01303786
X0165525Y0140425
X016555Y01419
X01584Y0141725
X0158675Y013995
X0155125Y0142725
Y01448786
Y01470321
Y01491857
Y01513393
Y01534928
Y01556464
Y01578
X015175Y0157625
Y01554714
Y01533179
Y01511643
Y01490107
Y01468571
Y01447036
Y014255
X0148975Y0142625
Y01447786
Y01469321
Y01490857
Y01512393
Y01533929
Y01555464
Y01577
X0145975Y0156825
Y01546714
Y01525179
Y01503643
Y01482107
Y01460571
Y01439036
Y014175
X0142725Y01418107
Y01439643
Y01461179
Y01482714
Y0150425
Y01525786
Y01547321
Y01568857
X01437072Y01299
X01458607
X01480143
X01501679
X01523214
X0154475
Y0127425
X01523214
X01501679
X01480143
X01458607
X01437072
Y01252
X01458607
X01480143
X01501679
X01523214
X0154475
Y0122775
X01523214
X01501679
X01480143
X01458607
X01437072
X01436071Y012035
X01457607
X01479143
X01500679
X01522214
X0154375
X01585Y01281
Y01302536
X0117178Y0168486
X0109178
X0127973
X0135973
X025825Y0172125
X0259725
X02597Y017375
X0258225
X02609679Y0181625
X02609964Y018365
X026315
X02631214Y0181625
X0265275
X02653036Y018365
X0259625Y01943
X025815
X0258125Y0195925
X02596
X0217075Y0212325
X02149214
X02127679
X02106143
X02084607
X0208175Y0215175
X02060214
X02038679
X02017143
X01995607
X01994607Y0217675
X02016143
X02037679
X02059214
X0208075
X0213375Y0216625
Y02187786
Y02209321
Y02230857
Y02252393
X0182275Y02219
X01801214
X01779679
X01758143
X01736607
X01737357Y02192
X01758893
X01780429
X01801964
X018235
X0181975Y0216375
X01798214
X01776679
X01755143
X01733607
X01682Y02161643
Y02140107
Y02183179
Y02204714
Y0222625
X0167958Y0232728
X0165458
X0076284Y0264137
Y0266637
X0126322Y0270233
Y0272733
Y0260414
Y0257914
X02003857Y02839
X02025393
X02046929
X02068464
X0209
X02175607Y0283725
X02197143
X02218679
X02240214
X0226175
X0175325Y0292
X01731714
X01710179
X01688643
X01667107
X01667857Y029465
X01689393
X01710929
X01732464
X01754
X0126322Y0299082
Y0301582
Y028685
Y028435
X0076284Y028558
Y028808
Y029705
Y029955
T05
X0089365Y00772492
Y00791288
Y00810592
Y00829388
X0192235Y0229573
Y02314526
Y0233383
Y02352626
T06
X0061552Y0274531
Y0277071
T07
X0118067Y0040096
X0213451Y022843
X0111048Y0269317
Y0271817
Y0276817
X0093048
Y0271817
Y0269317
X0188545Y0246972
X0111048Y0279317
Y0284317
Y0286817
Y0291817
Y0294317
X0093048
Y0291817
Y0289317
Y0286817
Y0284317
Y0281817
Y0279317
T09
X0299804Y0259672
Y0262212
X001639Y02976
X001385
T10
X030483Y007623
X030737
Y007877
X030483
Y008135
X030737
Y008389
X030483
Y008643
X030737
Y008897
X030483
Y009155
Y009409
X030737
Y009155
Y009663
X030483
Y009917
X030737
Y010175
X030483
Y010429
X030737
Y010683
X030483
Y010937
X030737
Y011191
X030483
Y0164469
X030737
Y0167009
X030483
Y0169589
Y0172129
X030737
Y0169589
Y0174669
X030483
Y0177209
X030737
Y0179789
X030483
Y0182329
X030737
Y0184869
X030483
Y0187409
X030737
Y0189969
Y0192509
X030483
Y0189949
Y0195089
X030737
Y0197629
X030483
Y0200169
X030737
Y0202709
X030483
Y0205289
Y0207829
X030737
Y0205289
Y0210369
X030483
Y0212909
X030737
Y0215489
X030483
Y0218029
X030737
Y0220569
X030483
Y0223109
X030737
Y0225649
X030483
X0297598Y0308821
Y0311361
X0295058
Y0308821
X0292478
Y0311361
X0289938
Y0308821
X0287398
Y0311361
X0284858
Y0308821
X0282278
Y0311361
X0279738
Y0308821
X0277198
Y0311361
X0274658
Y0308821
X0272078
Y0311361
X0269538
Y0308821
X0266998
Y0311361
X0264458
Y0308821
X0261918
Y0311361
T11
X0117993Y0065235
Y00774693
Y00897037
Y0101938
X018188Y0265895
T13
X0099525Y0073744
X0102065
X0104605
X0107145
Y0086444
X0104605
X0102065
X0099525
X0174455Y02260678
X0176995
X0179535
X0182075
Y02387678
X0179535
X0176995
X0174455
T14
X0206243Y0061044
Y0071839
X0192743
X0187917
X0174417
X0169667
X0192743Y0061044
X0156167Y0071839
Y0082761
Y0093624
X0169667
X0174455Y0093556
X0174417Y0082634
X0169667Y0082761
X0187917Y0082634
X0192743
Y0093556
X0187955
X016925Y0114475
Y0118475
X0206243Y0093556
Y0082634
T15
X0084961Y0028959
X0105961
X0084961Y0066459
T17
X00396Y0019777
Y0025227
X02626Y00431
Y004855
Y00651
Y007055
X00396Y0065227
Y0059777
Y0045227
Y0039777
Y0079777
Y0085227
Y0099777
Y0105227
X02626Y01091
Y011455
Y009255
Y00871
Y01511
Y015655
X00396Y0145227
Y0139777
Y0125227
Y0119777
Y0159777
Y0165227
Y0179777
Y0185227
X02626Y017855
Y01731
Y01951
Y020055
X00396Y0199777
Y0205227
Y0219777
Y0225227
Y0239777
Y0245227
T19
X0087794Y0183218
X0097794
X0133688Y0185584
Y0195584
X0135894Y0222287
Y0232287
X0098462Y0224159
Y0214159
T20
X0111971Y0123528
Y0145528
X0179535Y0181158
X0203535
Y0211158
X0179535
T24
X0168613Y0024468
X0274658Y0022055
X0122639Y0169248
X0203538Y0238336
T25
X0114384Y024367
X0203538Y028812
X0221064
X018779Y0287993
X0170899Y0287993
T26
X0161988Y0128958
Y0140958
T27
X0152992Y0019388
X018652Y0019642
T28
X0206488Y0125458
Y0144458
M30
