G04*
G04 #@! TF.GenerationSoftware,Altium Limited,Altium Designer,25.3.3 (18)*
G04*
G04 Layer_Color=8388736*
%FSLAX44Y44*%
%MOMM*%
G71*
G04*
G04 #@! TF.SameCoordinates,02FA8497-09D8-4EBB-9686-6BBDE5AED0EC*
G04*
G04*
G04 #@! TF.FilePolarity,Negative*
G04*
G01*
G75*
%ADD20C,2.0000*%
%ADD21C,5.7032*%
%ADD22O,6.2032X9.2032*%
%ADD23C,6.2032*%
%ADD24O,7.2032X5.2032*%
%ADD25C,1.7032*%
G04:AMPARAMS|DCode=26|XSize=1.7032mm|YSize=1.7032mm|CornerRadius=0.4766mm|HoleSize=0mm|Usage=FLASHONLY|Rotation=270.000|XOffset=0mm|YOffset=0mm|HoleType=Round|Shape=RoundedRectangle|*
%AMROUNDEDRECTD26*
21,1,1.7032,0.7500,0,0,270.0*
21,1,0.7500,1.7032,0,0,270.0*
1,1,0.9532,-0.3750,-0.3750*
1,1,0.9532,-0.3750,0.3750*
1,1,0.9532,0.3750,0.3750*
1,1,0.9532,0.3750,-0.3750*
%
%ADD26ROUNDEDRECTD26*%
%ADD27R,4.2032X2.7032*%
%ADD28C,4.2032*%
%ADD29R,4.2032X4.2032*%
%ADD30O,20.7032X17.7032*%
G04:AMPARAMS|DCode=31|XSize=5.2032mm|YSize=15.2032mm|CornerRadius=1.3516mm|HoleSize=0mm|Usage=FLASHONLY|Rotation=180.000|XOffset=0mm|YOffset=0mm|HoleType=Round|Shape=RoundedRectangle|*
%AMROUNDEDRECTD31*
21,1,5.2032,12.5000,0,0,180.0*
21,1,2.5000,15.2032,0,0,180.0*
1,1,2.7032,-1.2500,6.2500*
1,1,2.7032,1.2500,6.2500*
1,1,2.7032,1.2500,-6.2500*
1,1,2.7032,-1.2500,-6.2500*
%
%ADD31ROUNDEDRECTD31*%
G04:AMPARAMS|DCode=32|XSize=5.2032mm|YSize=11.2032mm|CornerRadius=1.3516mm|HoleSize=0mm|Usage=FLASHONLY|Rotation=180.000|XOffset=0mm|YOffset=0mm|HoleType=Round|Shape=RoundedRectangle|*
%AMROUNDEDRECTD32*
21,1,5.2032,8.5000,0,0,180.0*
21,1,2.5000,11.2032,0,0,180.0*
1,1,2.7032,-1.2500,4.2500*
1,1,2.7032,1.2500,4.2500*
1,1,2.7032,1.2500,-4.2500*
1,1,2.7032,-1.2500,-4.2500*
%
%ADD32ROUNDEDRECTD32*%
%ADD33O,10.2032X7.2032*%
%ADD34R,4.2032X4.2032*%
%ADD35R,1.7032X1.7032*%
%ADD36C,2.4032*%
%ADD37C,1.8082*%
%ADD38R,1.8082X1.8082*%
G04:AMPARAMS|DCode=39|XSize=1.7032mm|YSize=1.7032mm|CornerRadius=0.4766mm|HoleSize=0mm|Usage=FLASHONLY|Rotation=0.000|XOffset=0mm|YOffset=0mm|HoleType=Round|Shape=RoundedRectangle|*
%AMROUNDEDRECTD39*
21,1,1.7032,0.7500,0,0,0.0*
21,1,0.7500,1.7032,0,0,0.0*
1,1,0.9532,0.3750,-0.3750*
1,1,0.9532,-0.3750,-0.3750*
1,1,0.9532,-0.3750,0.3750*
1,1,0.9532,0.3750,0.3750*
%
%ADD39ROUNDEDRECTD39*%
%ADD40R,1.7232X1.7232*%
%ADD41C,1.7232*%
%ADD42C,3.7032*%
%ADD43R,3.7032X3.7032*%
%ADD44O,2.5032X1.5032*%
%ADD45O,2.1082X2.7432*%
%ADD46R,3.7032X3.7032*%
%ADD47C,2.2032*%
%ADD48R,2.2032X2.2032*%
%ADD49C,1.8032*%
%ADD50R,1.8032X1.8032*%
%ADD51R,1.7232X1.7232*%
%ADD52O,2.4892X2.1082*%
%ADD53R,2.4892X2.1082*%
%ADD54R,2.2032X1.7032*%
%ADD55C,3.2032*%
%ADD56O,2.2032X1.7032*%
%ADD57R,3.2032X3.2032*%
%ADD58R,1.7032X1.7032*%
%ADD59R,1.8082X1.8082*%
%ADD60C,12.2032*%
%ADD61R,2.2032X2.2032*%
%ADD62C,1.2032*%
%ADD63C,1.0032*%
%ADD64C,0.8032*%
%ADD65C,1.4032*%
%ADD66C,0.9032*%
G36*
X2665300Y470740D02*
Y560910D01*
X2536000D01*
Y470740D01*
X2665300D01*
D02*
G37*
G36*
Y679000D02*
X2536000D01*
Y582500D01*
X2580210D01*
Y616790D01*
X2585170Y621750D01*
X2665300D01*
Y679000D01*
D02*
G37*
G36*
Y691720D02*
X2536000D01*
Y782000D01*
X2665300D01*
Y691720D01*
D02*
G37*
G36*
Y889840D02*
X2536000D01*
Y797130D01*
X2580210D01*
Y831420D01*
X2589290Y840500D01*
X2665300D01*
Y889840D01*
D02*
G37*
G36*
Y1118440D02*
X2536000D01*
Y909500D01*
X2665300D01*
Y1004140D01*
X2590370D01*
Y1065100D01*
X2665300D01*
Y1118440D01*
D02*
G37*
G36*
Y1132410D02*
Y1195250D01*
X2536000D01*
Y1132410D01*
X2665300D01*
D02*
G37*
D20*
X1645250Y710500D02*
Y749500D01*
Y779500D02*
Y818500D01*
Y846250D02*
Y885250D01*
Y916000D02*
Y955000D01*
X1697000Y894750D02*
X1736000D01*
X1698250Y867750D02*
X1737250D01*
X1700000Y782500D02*
X1739000D01*
X1700750Y756250D02*
X1739750D01*
X1794750Y913250D02*
Y952250D01*
Y843500D02*
Y882500D01*
Y776750D02*
Y815750D01*
Y707750D02*
Y746750D01*
X1843750Y883000D02*
X1882750D01*
X1913500D02*
X1952500D01*
X1980250D02*
X2019250D01*
X1839500Y770000D02*
X1878500D01*
X1909250D02*
X1948250D01*
X1976000D02*
X2015000D01*
X1641750Y658500D02*
X1680750D01*
X1711500D02*
X1750500D01*
X1778250D02*
X1817250D01*
X1847250D02*
X1886250D01*
X1993500Y706000D02*
Y745000D01*
Y637000D02*
Y676000D01*
Y570250D02*
Y609250D01*
X1996000Y809000D02*
Y848000D01*
Y916500D02*
Y955500D01*
X2687000Y2456500D02*
Y2495500D01*
Y2389750D02*
Y2428750D01*
X2687250Y2334250D02*
Y2364250D01*
X2651500Y2454250D02*
Y2493250D01*
Y2387500D02*
Y2426500D01*
X2652250Y2331500D02*
Y2361500D01*
X1361000Y699750D02*
Y850500D01*
X1381496Y1097873D02*
X1434496Y1156623D01*
X1521214Y1177750D02*
X1523214Y1299000D01*
X1435072Y1177750D02*
X1437072Y1299000D01*
X1478143Y1177750D02*
X1480143Y1299000D01*
X1216750Y1122964D02*
X1218000Y666786D01*
X1244750Y667000D02*
X1245000Y1124000D01*
X1270750Y669500D02*
X1272250Y1124929D01*
X1406750Y696000D02*
Y735000D01*
Y819750D02*
Y858750D01*
Y939250D02*
Y978250D01*
Y1086500D02*
X1407250Y1059000D01*
X1361000Y1057964D02*
Y1079500D01*
Y993357D02*
Y1036429D01*
Y928750D02*
Y971822D01*
X1368004Y1285428D02*
X1407004D01*
X1368004Y1255177D02*
X1407004D01*
X1368004Y1223927D02*
X1407004D01*
X1368004Y1190427D02*
X1407004D01*
X2624500Y2834250D02*
X2663500D01*
X2582000Y2887500D02*
X2621000D01*
X2544500Y2924500D02*
X2583500D01*
X2498500Y2957750D02*
X2537500D01*
X2439500Y2993750D02*
X2478500D01*
X2606750Y2799500D02*
X2645750D01*
X2531250Y2807500D02*
X2570250D01*
X2564000Y2851000D02*
X2603000D01*
X2494250D02*
X2533250D01*
X2509750Y2888500D02*
X2548750D01*
X2440000D02*
X2479000D01*
X2466250Y2923250D02*
X2505250D01*
X2396500D02*
X2435500D01*
X2425750Y2956000D02*
X2464750D01*
X2356000D02*
X2395000D01*
X2556000Y2501250D02*
Y2540250D01*
Y2570250D02*
Y2609250D01*
Y2637000D02*
Y2676000D01*
Y2706750D02*
Y2745750D01*
X2592750Y2503500D02*
Y2542500D01*
Y2572500D02*
Y2611500D01*
Y2639250D02*
Y2678250D01*
Y2709000D02*
Y2748000D01*
X2651000Y2522500D02*
Y2561500D01*
Y2591500D02*
Y2630500D01*
Y2658250D02*
Y2697250D01*
Y2728000D02*
Y2767000D01*
X2686500Y2524750D02*
Y2563750D01*
Y2593750D02*
Y2632750D01*
Y2660500D02*
Y2699500D01*
Y2730250D02*
Y2769250D01*
X2165250Y2992500D02*
X2204250D01*
X2234250D02*
X2273250D01*
X2301000D02*
X2340000D01*
X2370750D02*
X2409750D01*
X2161750Y3031000D02*
X2200750D01*
X2230750D02*
X2269750D01*
X2297500D02*
X2336500D01*
X2367250D02*
X2406250D01*
X2160250Y3068000D02*
X2199250D01*
X2229250D02*
X2268250D01*
X2296000D02*
X2335000D01*
X2365750D02*
X2404750D01*
X1886750Y2990500D02*
X1925750D01*
X1955750D02*
X1994750D01*
X2022500D02*
X2061500D01*
X2092250D02*
X2131250D01*
X1886000Y3030250D02*
X1925000D01*
X1955000D02*
X1994000D01*
X2021750D02*
X2060750D01*
X2091500D02*
X2130500D01*
X1889000Y3068250D02*
X1928000D01*
X1958000D02*
X1997000D01*
X2024750D02*
X2063750D01*
X2094500D02*
X2133500D01*
X1955500Y1834750D02*
Y1873750D01*
Y1765000D02*
Y1804000D01*
X1880000Y1834750D02*
Y1873750D01*
Y1765000D02*
Y1804000D01*
X1582000Y1830500D02*
Y1869500D01*
Y1760750D02*
Y1799750D01*
X1620750Y1831750D02*
Y1870750D01*
Y1762000D02*
Y1801000D01*
X1657000Y1833000D02*
Y1872000D01*
Y1763250D02*
Y1802250D01*
X1691250Y1833500D02*
Y1872500D01*
Y1763750D02*
Y1802750D01*
X1607000Y1695000D02*
X1646000D01*
X1676750D02*
X1715750D01*
X1743500D02*
X1782500D01*
X1812500D02*
X1851500D01*
X1608250Y1736750D02*
X1647250D01*
X1678000D02*
X1717000D01*
X1744750D02*
X1783750D01*
X1813750D02*
X1852750D01*
X1887750Y1736250D02*
X1926750D01*
X1957500D02*
X1996500D01*
X2024250D02*
X2063250D01*
X2093250D02*
X2132250D01*
X1892250Y1695000D02*
X1931250D01*
X1962000D02*
X2001000D01*
X2028750D02*
X2067750D01*
X2097750D02*
X2136750D01*
X2168750Y1716750D02*
Y1755750D01*
Y1786500D02*
Y1825500D01*
Y1853250D02*
Y1892250D01*
Y1922250D02*
Y1961250D01*
X2216500Y1717750D02*
Y1756750D01*
Y1787500D02*
Y1826500D01*
Y1854250D02*
Y1893250D01*
Y1923250D02*
Y1962250D01*
X2256250Y1717750D02*
Y1756750D01*
Y1787500D02*
Y1826500D01*
Y1854250D02*
Y1893250D01*
Y1923250D02*
Y1962250D01*
X1873500Y1908250D02*
X1912500D01*
X1943250D02*
X1982250D01*
X2010000D02*
X2049000D01*
X2079000D02*
X2118000D01*
X1865500Y1944500D02*
X1904500D01*
X1935250D02*
X1974250D01*
X2002000D02*
X2041000D01*
X2071000D02*
X2110000D01*
X1576500Y1905250D02*
X1615500D01*
X1646250D02*
X1685250D01*
X1713000D02*
X1752000D01*
X1782000D02*
X1821000D01*
X1577750Y1942000D02*
X1616750D01*
X1647500D02*
X1686500D01*
X1714250D02*
X1753250D01*
X1783250D02*
X1822250D01*
X871750Y1546750D02*
X910750D01*
X938500D02*
X977500D01*
X909250Y1593250D02*
X948250D01*
X842500D02*
X881500D01*
X773500D02*
X812500D01*
X823000Y1305250D02*
Y1344250D01*
Y1375000D02*
Y1414000D01*
Y1441750D02*
Y1480750D01*
Y1510750D02*
Y1549750D01*
X776750Y1301500D02*
Y1340500D01*
Y1371250D02*
Y1410250D01*
Y1438000D02*
Y1477000D01*
Y1507000D02*
Y1546000D01*
X774750Y1007250D02*
Y1046250D01*
Y1077000D02*
Y1116000D01*
Y1143750D02*
Y1182750D01*
Y1212750D02*
Y1251750D01*
X819500Y1011750D02*
Y1050750D01*
Y1081500D02*
Y1120500D01*
Y1148250D02*
Y1187250D01*
Y1217250D02*
Y1256250D01*
X858500Y1016500D02*
Y1055500D01*
Y1086250D02*
Y1125250D01*
X853750Y1150500D02*
Y1189500D01*
X854500Y1220500D02*
Y1259500D01*
X1735250Y376500D02*
Y415500D01*
X1642000Y375250D02*
Y414250D01*
X1521500Y537000D02*
Y576000D01*
X1423250Y514500D02*
X1462250D01*
X1497750D02*
X1536750D01*
X1566500D02*
X1605500D01*
X1560500Y647000D02*
Y686000D01*
X1560250Y862500D02*
Y901500D01*
X1561000Y754500D02*
Y793500D01*
X1834750Y578000D02*
X1873750D01*
X1823750Y620000D02*
X1862750D01*
X1694000Y623750D02*
X1733000D01*
X1699750Y523500D02*
X1738750D01*
X1696250Y554000D02*
Y593000D01*
X1725750Y555500D02*
Y594500D01*
X2056750Y537000D02*
X2095750D01*
X1987750D02*
X2026750D01*
X1921000D02*
X1960000D01*
X1851250D02*
X1890250D01*
X2045000Y770000D02*
X2084000D01*
X2049250Y883000D02*
X2088250D01*
D21*
X1119710Y1235280D02*
D03*
Y1455280D02*
D03*
X1795350Y1811580D02*
D03*
Y2111580D02*
D03*
X2035350Y1811580D02*
D03*
Y2111580D02*
D03*
D22*
X1781380Y573270D02*
D03*
Y393270D02*
D03*
X1591380Y573270D02*
D03*
Y393270D02*
D03*
D23*
X1708990Y2879930D02*
D03*
X1143840Y2436700D02*
D03*
X1226390Y1692480D02*
D03*
X2035380Y2383360D02*
D03*
X1686130Y244680D02*
D03*
X2746580Y220550D02*
D03*
X2035380Y2881200D02*
D03*
X2210640D02*
D03*
X1877900Y2879930D02*
D03*
D24*
X2416380Y2738600D02*
D03*
Y2398600D02*
D03*
D25*
X1263220Y2990820D02*
D03*
X1359730Y1684860D02*
D03*
X1171780D02*
D03*
X1679580Y2327280D02*
D03*
X820250Y881250D02*
D03*
X1646850Y176100D02*
D03*
X1646760Y112600D02*
D03*
X2969750Y487250D02*
D03*
X3046470Y414530D02*
D03*
Y389530D02*
D03*
Y339530D02*
D03*
Y314530D02*
D03*
X3136470Y414530D02*
D03*
Y389530D02*
D03*
Y364530D02*
D03*
Y339530D02*
D03*
Y314530D02*
D03*
X2999780Y168310D02*
D03*
X2974780D02*
D03*
X2924780D02*
D03*
X2899780D02*
D03*
X2999780Y78310D02*
D03*
X2974780D02*
D03*
X2949780D02*
D03*
X2924780D02*
D03*
X2899780D02*
D03*
X3080590Y253170D02*
D03*
X2796110Y374020D02*
D03*
X2882470Y376560D02*
D03*
X762840Y2970500D02*
D03*
Y2855800D02*
D03*
Y2641370D02*
D03*
X1263220Y2579140D02*
D03*
X2144600Y244680D02*
D03*
X1263220Y2702330D02*
D03*
Y2843500D02*
D03*
X2062050Y244680D02*
D03*
X2595000Y975536D02*
D03*
X1480250Y203750D02*
D03*
Y182214D02*
D03*
X1539500Y243250D02*
D03*
X1517964D02*
D03*
X1578750Y186500D02*
D03*
Y208036D02*
D03*
X1521000Y145750D02*
D03*
X1542536D02*
D03*
X1857750Y146750D02*
D03*
X1879286D02*
D03*
X1915750Y210750D02*
D03*
Y189214D02*
D03*
X1875250Y246250D02*
D03*
X1853714D02*
D03*
X1816500Y186500D02*
D03*
Y208036D02*
D03*
X1569250Y381000D02*
D03*
Y402536D02*
D03*
X1612500Y381500D02*
D03*
Y403036D02*
D03*
X1803750Y383250D02*
D03*
Y404786D02*
D03*
X1760000Y381750D02*
D03*
Y403286D02*
D03*
X1570000Y563000D02*
D03*
Y584536D02*
D03*
X1612500Y563750D02*
D03*
Y585286D02*
D03*
X1802750Y564500D02*
D03*
Y586036D02*
D03*
X1759000Y562750D02*
D03*
Y584286D02*
D03*
X1655500Y1282250D02*
D03*
Y1303786D02*
D03*
X1585000Y1281000D02*
D03*
Y1302536D02*
D03*
X1655500Y1419000D02*
D03*
X1655250Y1404250D02*
D03*
X2631214Y1816250D02*
D03*
X2609679D02*
D03*
X2653036Y1836500D02*
D03*
X2609964D02*
D03*
X2652750Y1816250D02*
D03*
X2631500Y1836500D02*
D03*
X2655750Y975036D02*
D03*
Y953500D02*
D03*
X2595000Y954000D02*
D03*
X2619750Y350000D02*
D03*
X2641286D02*
D03*
X2558000Y378500D02*
D03*
X2557750Y357750D02*
D03*
X2651750Y440786D02*
D03*
Y419250D02*
D03*
X2601250Y441536D02*
D03*
Y420000D02*
D03*
X2581000Y442036D02*
D03*
Y420500D02*
D03*
X2557250Y251321D02*
D03*
Y272857D02*
D03*
X2557500Y294250D02*
D03*
Y315786D02*
D03*
Y337321D02*
D03*
X2557750Y398286D02*
D03*
Y419821D02*
D03*
Y441357D02*
D03*
X2632250Y546250D02*
D03*
X2653000Y546000D02*
D03*
X2610000D02*
D03*
X2632250Y527500D02*
D03*
X2653000Y527250D02*
D03*
X2610000D02*
D03*
X2631750Y508750D02*
D03*
X2652500Y508500D02*
D03*
X2609500D02*
D03*
X2547750Y547607D02*
D03*
Y526071D02*
D03*
Y504536D02*
D03*
Y483000D02*
D03*
X2590750D02*
D03*
Y504536D02*
D03*
Y526071D02*
D03*
Y547607D02*
D03*
X2570000Y483250D02*
D03*
Y504786D02*
D03*
Y526321D02*
D03*
Y547857D02*
D03*
X2636750Y668250D02*
D03*
X2615214D02*
D03*
X2635500Y633500D02*
D03*
X2613964D02*
D03*
X2654750Y639250D02*
D03*
Y660786D02*
D03*
X2592250Y639750D02*
D03*
Y661286D02*
D03*
X2548750Y662857D02*
D03*
Y641321D02*
D03*
Y619786D02*
D03*
Y598250D02*
D03*
X2569500Y662607D02*
D03*
Y641071D02*
D03*
Y619536D02*
D03*
Y598000D02*
D03*
X2652750Y771500D02*
D03*
X2631214D02*
D03*
X2609679D02*
D03*
X2652750Y751750D02*
D03*
X2631214D02*
D03*
X2609679D02*
D03*
X2652750Y732250D02*
D03*
X2631214D02*
D03*
X2609679D02*
D03*
X2547000Y704750D02*
D03*
Y726286D02*
D03*
Y747821D02*
D03*
Y769357D02*
D03*
X2568250Y769107D02*
D03*
Y747571D02*
D03*
Y726036D02*
D03*
Y704500D02*
D03*
X2589000Y768857D02*
D03*
Y747321D02*
D03*
Y725786D02*
D03*
Y704250D02*
D03*
X2636750Y851750D02*
D03*
X2618000Y851500D02*
D03*
X2654750Y855250D02*
D03*
X2654250Y875250D02*
D03*
X2593750Y875750D02*
D03*
X2593250Y856000D02*
D03*
X2569750Y810750D02*
D03*
Y832286D02*
D03*
Y853821D02*
D03*
Y875357D02*
D03*
X2549000Y811000D02*
D03*
Y832536D02*
D03*
Y854071D02*
D03*
Y875607D02*
D03*
X2613964Y1176750D02*
D03*
X2635500D02*
D03*
X2583750Y1178500D02*
D03*
Y1156964D02*
D03*
X2563500Y1178786D02*
D03*
Y1157250D02*
D03*
X2612500Y1247857D02*
D03*
Y1269393D02*
D03*
Y1226321D02*
D03*
Y1204786D02*
D03*
X2632750Y1204500D02*
D03*
Y1247571D02*
D03*
Y1269107D02*
D03*
Y1226036D02*
D03*
X2561000Y1248857D02*
D03*
Y1270393D02*
D03*
Y1227321D02*
D03*
Y1205786D02*
D03*
X2581250Y1205500D02*
D03*
Y1248571D02*
D03*
Y1270107D02*
D03*
Y1227036D02*
D03*
X2649000Y1077250D02*
D03*
X2648500Y1106500D02*
D03*
X2603500Y1106000D02*
D03*
X2599750Y1076750D02*
D03*
X2589250Y922500D02*
D03*
X2569000Y922786D02*
D03*
X2615000Y953286D02*
D03*
Y974821D02*
D03*
X2635250Y953000D02*
D03*
Y974536D02*
D03*
X2574250Y1010071D02*
D03*
Y967000D02*
D03*
Y988536D02*
D03*
Y1053143D02*
D03*
Y1096214D02*
D03*
Y945464D02*
D03*
Y1074678D02*
D03*
Y1031607D02*
D03*
X2554000Y1031893D02*
D03*
Y1010357D02*
D03*
Y1053428D02*
D03*
Y1096500D02*
D03*
Y1074964D02*
D03*
Y988821D02*
D03*
Y967286D02*
D03*
Y945750D02*
D03*
X1942500Y221250D02*
D03*
X1944750Y201750D02*
D03*
X1945000Y181250D02*
D03*
X1939000Y162250D02*
D03*
X1890750Y126500D02*
D03*
X1936250Y238750D02*
D03*
X1923500Y255000D02*
D03*
X1902500Y266000D02*
D03*
X1788250Y208500D02*
D03*
X1792250Y232500D02*
D03*
X1805000Y252000D02*
D03*
X1826000Y265250D02*
D03*
X1872750Y271000D02*
D03*
X1787250Y184750D02*
D03*
X2000500Y202643D02*
D03*
Y181107D02*
D03*
Y224179D02*
D03*
Y267250D02*
D03*
Y245714D02*
D03*
Y159571D02*
D03*
Y138036D02*
D03*
Y116500D02*
D03*
X1974750Y201393D02*
D03*
Y179857D02*
D03*
Y222929D02*
D03*
Y266000D02*
D03*
Y244464D02*
D03*
Y158321D02*
D03*
Y136786D02*
D03*
Y115250D02*
D03*
X1925250Y147750D02*
D03*
X1909250Y135750D02*
D03*
X1851500Y127250D02*
D03*
X1527214Y123500D02*
D03*
X1800750Y160750D02*
D03*
X1813500Y143500D02*
D03*
X1829000Y129500D02*
D03*
X1577250Y252250D02*
D03*
X1455750Y239500D02*
D03*
X1476000Y244500D02*
D03*
X1460250Y156000D02*
D03*
X1470750Y141250D02*
D03*
X1485500Y132000D02*
D03*
X1597500Y131500D02*
D03*
X1575750Y135500D02*
D03*
X1591000Y150750D02*
D03*
X1505679Y123500D02*
D03*
X1548750D02*
D03*
X1457250Y216321D02*
D03*
Y194786D02*
D03*
Y173250D02*
D03*
X1022250Y890500D02*
D03*
X1074500D02*
D03*
X1047750D02*
D03*
X996250D02*
D03*
X970750Y664000D02*
D03*
X996750D02*
D03*
X1022250D02*
D03*
X1076000Y624500D02*
D03*
X1050000D02*
D03*
X1023250D02*
D03*
X997750D02*
D03*
X971750D02*
D03*
X969750Y702214D02*
D03*
X995750D02*
D03*
X1021250D02*
D03*
X1048000D02*
D03*
X1074000D02*
D03*
X1171250Y1048250D02*
D03*
X1195500Y1048000D02*
D03*
X1168500Y990250D02*
D03*
X1192750Y990000D02*
D03*
X1169500Y927500D02*
D03*
X1193750Y927250D02*
D03*
X1168250Y867500D02*
D03*
X1192500Y867250D02*
D03*
X1192000Y741750D02*
D03*
X1167750Y742000D02*
D03*
X1192000Y806500D02*
D03*
X1167750Y806750D02*
D03*
X1169000Y681500D02*
D03*
X1193250Y681250D02*
D03*
X1272250Y1081857D02*
D03*
Y1103393D02*
D03*
Y1060322D02*
D03*
Y1017250D02*
D03*
Y1038786D02*
D03*
Y1124929D02*
D03*
X1245000Y1078607D02*
D03*
Y1100143D02*
D03*
Y1057072D02*
D03*
Y1014000D02*
D03*
Y1035536D02*
D03*
Y1121679D02*
D03*
X1216750Y1058357D02*
D03*
Y1079893D02*
D03*
Y1036822D02*
D03*
Y993750D02*
D03*
Y1015286D02*
D03*
Y1101429D02*
D03*
Y1122964D02*
D03*
X1217500Y884607D02*
D03*
Y906143D02*
D03*
Y863072D02*
D03*
Y820000D02*
D03*
Y841536D02*
D03*
Y927679D02*
D03*
Y949214D02*
D03*
Y970750D02*
D03*
X1244750Y906607D02*
D03*
Y928143D02*
D03*
Y885071D02*
D03*
Y842000D02*
D03*
Y863536D02*
D03*
Y949679D02*
D03*
Y971214D02*
D03*
Y992750D02*
D03*
X1271000Y910107D02*
D03*
Y931643D02*
D03*
Y888571D02*
D03*
Y845500D02*
D03*
Y867036D02*
D03*
Y953179D02*
D03*
Y974714D02*
D03*
Y996250D02*
D03*
X1270750Y734107D02*
D03*
Y755643D02*
D03*
Y712571D02*
D03*
Y669500D02*
D03*
Y691036D02*
D03*
Y777179D02*
D03*
Y798714D02*
D03*
Y820250D02*
D03*
X1244750Y731607D02*
D03*
Y753143D02*
D03*
Y710071D02*
D03*
Y667000D02*
D03*
Y688536D02*
D03*
Y774679D02*
D03*
Y796214D02*
D03*
Y817750D02*
D03*
X1218000Y709857D02*
D03*
Y731393D02*
D03*
Y688322D02*
D03*
Y645250D02*
D03*
Y666786D02*
D03*
Y752929D02*
D03*
Y774464D02*
D03*
Y796000D02*
D03*
X1427250Y1525786D02*
D03*
Y1504250D02*
D03*
Y1547321D02*
D03*
Y1418107D02*
D03*
Y1439643D02*
D03*
Y1568857D02*
D03*
Y1482714D02*
D03*
Y1461179D02*
D03*
X1459750Y1482107D02*
D03*
Y1503643D02*
D03*
Y1460571D02*
D03*
Y1417500D02*
D03*
Y1439036D02*
D03*
Y1525179D02*
D03*
Y1546714D02*
D03*
Y1568250D02*
D03*
X1489750Y1490857D02*
D03*
Y1512393D02*
D03*
Y1469321D02*
D03*
Y1426250D02*
D03*
Y1447786D02*
D03*
Y1533929D02*
D03*
Y1555464D02*
D03*
Y1577000D02*
D03*
X1517500Y1533179D02*
D03*
Y1468571D02*
D03*
Y1554714D02*
D03*
Y1447036D02*
D03*
Y1576250D02*
D03*
X1551250Y1534928D02*
D03*
Y1556464D02*
D03*
X1517500Y1490107D02*
D03*
X1551250Y1470321D02*
D03*
X1517500Y1511643D02*
D03*
X1551250Y1448786D02*
D03*
Y1513393D02*
D03*
X1517500Y1425500D02*
D03*
X1551250Y1578000D02*
D03*
Y1491857D02*
D03*
Y1427250D02*
D03*
X1689393Y2946500D02*
D03*
X1667857D02*
D03*
X1710929D02*
D03*
X1754000D02*
D03*
X1732464D02*
D03*
X1688643Y2920000D02*
D03*
X1667107D02*
D03*
X1710179D02*
D03*
X1753250D02*
D03*
X1731714D02*
D03*
X2197143Y2837250D02*
D03*
X2175607D02*
D03*
X2218679D02*
D03*
X2261750D02*
D03*
X2240214D02*
D03*
X2025393Y2839000D02*
D03*
X2003857D02*
D03*
X2046929D02*
D03*
X2090000D02*
D03*
X2068464D02*
D03*
X2133750Y2209321D02*
D03*
Y2252393D02*
D03*
Y2230857D02*
D03*
Y2187786D02*
D03*
Y2166250D02*
D03*
X2106143Y2123250D02*
D03*
X2084607D02*
D03*
X2127679D02*
D03*
X2170750D02*
D03*
X2149214D02*
D03*
X2059214Y2176750D02*
D03*
X2080750D02*
D03*
X2037679D02*
D03*
X1994607D02*
D03*
X2016143D02*
D03*
X1995607Y2151750D02*
D03*
X2038679D02*
D03*
X2017143D02*
D03*
X2081750D02*
D03*
X2060214D02*
D03*
X1381496Y1150123D02*
D03*
X1360496Y1128123D02*
D03*
X1434496Y1156623D02*
D03*
X1416746Y1138623D02*
D03*
X1399746Y1117873D02*
D03*
X1381496Y1097873D02*
D03*
X1682000Y2161643D02*
D03*
Y2140107D02*
D03*
Y2183179D02*
D03*
Y2226250D02*
D03*
Y2204714D02*
D03*
X1755143Y2163750D02*
D03*
X1733607D02*
D03*
X1776679D02*
D03*
X1819750D02*
D03*
X1798214D02*
D03*
X1758893Y2192000D02*
D03*
X1737357D02*
D03*
X1780429D02*
D03*
X1823500D02*
D03*
X1801964D02*
D03*
X1758143Y2219000D02*
D03*
X1736607D02*
D03*
X1779679D02*
D03*
X1822750D02*
D03*
X1801214D02*
D03*
X1557500Y616000D02*
D03*
X1593750Y628250D02*
D03*
X1572464D02*
D03*
X1548750Y552464D02*
D03*
Y595536D02*
D03*
Y574000D02*
D03*
X1361000Y850500D02*
D03*
Y828964D02*
D03*
Y807429D02*
D03*
Y721286D02*
D03*
Y699750D02*
D03*
Y742822D02*
D03*
Y785893D02*
D03*
Y764357D02*
D03*
Y1079500D02*
D03*
Y1057964D02*
D03*
Y1036429D02*
D03*
Y950286D02*
D03*
Y928750D02*
D03*
Y971822D02*
D03*
Y1014893D02*
D03*
Y993357D02*
D03*
X1542750Y1177750D02*
D03*
X1521214D02*
D03*
X1499679D02*
D03*
X1435072D02*
D03*
X1478143D02*
D03*
X1456607D02*
D03*
X1543750Y1203500D02*
D03*
X1522214D02*
D03*
X1500679D02*
D03*
X1436071D02*
D03*
X1479143D02*
D03*
X1457607D02*
D03*
X1544750Y1227750D02*
D03*
X1523214D02*
D03*
X1501679D02*
D03*
X1437072D02*
D03*
X1480143D02*
D03*
X1458607D02*
D03*
X1544750Y1252000D02*
D03*
X1523214D02*
D03*
X1501679D02*
D03*
X1437072D02*
D03*
X1480143D02*
D03*
X1458607D02*
D03*
X1544750Y1274250D02*
D03*
X1523214D02*
D03*
X1501679D02*
D03*
X1437072D02*
D03*
X1480143D02*
D03*
X1458607D02*
D03*
X1544750Y1299000D02*
D03*
X1523214D02*
D03*
X1501679D02*
D03*
X1437072D02*
D03*
X1480143D02*
D03*
X1458607D02*
D03*
X1462750Y265500D02*
D03*
Y287036D02*
D03*
Y308571D02*
D03*
Y394714D02*
D03*
Y416250D02*
D03*
Y373178D02*
D03*
Y330107D02*
D03*
Y351643D02*
D03*
X1549500Y268000D02*
D03*
Y289536D02*
D03*
Y311071D02*
D03*
Y397214D02*
D03*
Y418750D02*
D03*
Y375678D02*
D03*
Y332607D02*
D03*
Y354143D02*
D03*
X1850000Y285750D02*
D03*
Y307286D02*
D03*
Y328821D02*
D03*
Y414964D02*
D03*
Y436500D02*
D03*
Y393428D02*
D03*
Y350357D02*
D03*
Y371893D02*
D03*
X1890750Y287500D02*
D03*
Y309036D02*
D03*
Y330571D02*
D03*
Y416714D02*
D03*
Y438250D02*
D03*
Y395178D02*
D03*
Y352107D02*
D03*
Y373643D02*
D03*
X1930500Y289750D02*
D03*
Y311286D02*
D03*
Y332821D02*
D03*
Y418964D02*
D03*
Y440500D02*
D03*
Y397429D02*
D03*
Y354357D02*
D03*
Y375893D02*
D03*
X1967500Y291000D02*
D03*
Y312536D02*
D03*
Y334071D02*
D03*
Y420214D02*
D03*
Y441750D02*
D03*
Y398679D02*
D03*
Y355607D02*
D03*
Y377143D02*
D03*
X2000000Y289750D02*
D03*
Y311286D02*
D03*
Y332821D02*
D03*
Y418964D02*
D03*
Y440500D02*
D03*
Y397429D02*
D03*
Y354357D02*
D03*
Y375893D02*
D03*
X1601750Y167750D02*
D03*
Y189286D02*
D03*
Y210821D02*
D03*
Y296964D02*
D03*
Y318500D02*
D03*
Y275429D02*
D03*
Y232357D02*
D03*
Y253893D02*
D03*
X1524750Y267250D02*
D03*
Y288786D02*
D03*
Y310321D02*
D03*
Y396464D02*
D03*
Y418000D02*
D03*
Y374929D02*
D03*
Y331857D02*
D03*
Y353393D02*
D03*
X1493500Y268000D02*
D03*
Y289536D02*
D03*
Y311071D02*
D03*
Y397214D02*
D03*
Y418750D02*
D03*
Y375678D02*
D03*
Y332607D02*
D03*
Y354143D02*
D03*
X3061250Y1494500D02*
D03*
X3181500Y512250D02*
D03*
X3200750Y483500D02*
D03*
X2831000Y1396250D02*
D03*
X2941000Y1816000D02*
D03*
X1130750Y376500D02*
D03*
X548750Y2633750D02*
D03*
X552750Y2676250D02*
D03*
X1481000Y2691250D02*
D03*
X1532000Y2536750D02*
D03*
X1480250Y2551500D02*
D03*
X2797000Y81000D02*
D03*
X123500Y111750D02*
D03*
X146000Y115750D02*
D03*
X2928750Y562750D02*
D03*
X1103750Y376750D02*
D03*
X738250Y120750D02*
D03*
X739250Y151250D02*
D03*
X1326000Y482000D02*
D03*
X388000Y2875500D02*
D03*
X434000Y2912750D02*
D03*
X471500D02*
D03*
X1217750Y3063170D02*
D03*
X1239250Y3063500D02*
D03*
X1261750Y3063000D02*
D03*
X1481500Y2974000D02*
D03*
X255750Y3014750D02*
D03*
X235500D02*
D03*
X215250Y3014500D02*
D03*
X453000Y2913000D02*
D03*
X1478250Y2827000D02*
D03*
X320250Y3017250D02*
D03*
X360000D02*
D03*
X340250Y3017500D02*
D03*
X349750Y2875500D02*
D03*
X368750Y2876250D02*
D03*
X369250Y2789000D02*
D03*
X390000Y2789250D02*
D03*
X349250Y2790000D02*
D03*
X554000Y2817250D02*
D03*
X551940Y2855560D02*
D03*
X553500Y2895250D02*
D03*
X556000Y2935750D02*
D03*
X554750Y2965000D02*
D03*
X556000Y3015750D02*
D03*
X557000Y2589750D02*
D03*
X248000Y588500D02*
D03*
X2743730Y2247230D02*
D03*
X2744960Y2189290D02*
D03*
X2743340Y2132660D02*
D03*
X2742760Y2074990D02*
D03*
X2787560Y1658190D02*
D03*
X2713760Y1823510D02*
D03*
X2779730Y1740730D02*
D03*
X2903250Y756750D02*
D03*
X2834590Y1222590D02*
D03*
X2858750Y680500D02*
D03*
X2861250Y501250D02*
D03*
X2839860Y981610D02*
D03*
D26*
X1263220Y3015820D02*
D03*
X820250Y856250D02*
D03*
X2969750Y462250D02*
D03*
X3080590Y228170D02*
D03*
X2796110Y349020D02*
D03*
X2882470Y351560D02*
D03*
X762840Y2995500D02*
D03*
Y2880800D02*
D03*
Y2666370D02*
D03*
X1263220Y2604140D02*
D03*
Y2727330D02*
D03*
Y2868500D02*
D03*
D27*
X2626000Y485500D02*
D03*
Y431000D02*
D03*
Y376500D02*
D03*
Y705500D02*
D03*
Y651000D02*
D03*
Y596500D02*
D03*
Y925500D02*
D03*
Y871000D02*
D03*
Y816500D02*
D03*
Y1036500D02*
D03*
Y1091000D02*
D03*
Y1145500D02*
D03*
Y1565500D02*
D03*
Y1511000D02*
D03*
Y1456500D02*
D03*
Y1676500D02*
D03*
Y1731000D02*
D03*
Y1785500D02*
D03*
Y1896500D02*
D03*
Y1951000D02*
D03*
Y2005500D02*
D03*
X396000Y906770D02*
D03*
Y197770D02*
D03*
Y452270D02*
D03*
Y2452270D02*
D03*
Y2197770D02*
D03*
Y1997770D02*
D03*
Y1306770D02*
D03*
Y1252270D02*
D03*
Y1197770D02*
D03*
Y2506770D02*
D03*
Y2397770D02*
D03*
Y2306770D02*
D03*
Y2252270D02*
D03*
Y1506770D02*
D03*
Y1452270D02*
D03*
Y1397770D02*
D03*
Y706770D02*
D03*
Y652270D02*
D03*
Y597770D02*
D03*
Y306770D02*
D03*
Y252270D02*
D03*
Y1106770D02*
D03*
Y1052270D02*
D03*
Y997770D02*
D03*
Y1906770D02*
D03*
Y1852270D02*
D03*
Y1797770D02*
D03*
Y1706770D02*
D03*
Y1652270D02*
D03*
Y1597770D02*
D03*
Y506770D02*
D03*
Y397770D02*
D03*
Y852270D02*
D03*
Y797770D02*
D03*
Y2106770D02*
D03*
Y2052270D02*
D03*
D28*
X1336880Y1855840D02*
D03*
X984620Y2141590D02*
D03*
X1358940Y2222870D02*
D03*
X877940Y1832180D02*
D03*
D29*
X1336880Y1955840D02*
D03*
X984620Y2241590D02*
D03*
X1358940Y2322870D02*
D03*
D30*
X2064880Y1444580D02*
D03*
Y1254580D02*
D03*
D31*
X2054880Y1224580D02*
D03*
Y1474580D02*
D03*
D32*
X1609880Y1549580D02*
D03*
Y1239580D02*
D03*
D33*
X1619880Y1409580D02*
D03*
Y1289580D02*
D03*
D34*
X977940Y1832180D02*
D03*
D35*
X1279730Y1684860D02*
D03*
X1091780D02*
D03*
X1731850Y176100D02*
D03*
X1731760Y112600D02*
D03*
D36*
X1692500Y1184750D02*
D03*
Y1144750D02*
D03*
D37*
X2924780Y3088210D02*
D03*
X2975980D02*
D03*
Y3113610D02*
D03*
X2950580Y3088210D02*
D03*
Y3113610D02*
D03*
X2924780D02*
D03*
X2899380Y3088210D02*
D03*
Y3113610D02*
D03*
X2873980Y3088210D02*
D03*
Y3113610D02*
D03*
X2848580Y3088210D02*
D03*
Y3113610D02*
D03*
X2720780Y3088210D02*
D03*
X2822780Y3113610D02*
D03*
X2797380D02*
D03*
X2822780Y3088210D02*
D03*
X2797380D02*
D03*
X2771980D02*
D03*
Y3113610D02*
D03*
X2746580Y3088210D02*
D03*
Y3113610D02*
D03*
X2720780D02*
D03*
X2695380Y3088210D02*
D03*
Y3113610D02*
D03*
X2669980Y3088210D02*
D03*
Y3113610D02*
D03*
X2644580Y3088210D02*
D03*
Y3113610D02*
D03*
X2619180D02*
D03*
X3073700Y1644690D02*
D03*
X3048300D02*
D03*
X3073700Y1670090D02*
D03*
X3048300D02*
D03*
X3073700Y1797890D02*
D03*
X3048300Y1695890D02*
D03*
Y1721290D02*
D03*
X3073700Y1695890D02*
D03*
Y1721290D02*
D03*
Y1746690D02*
D03*
X3048300D02*
D03*
X3073700Y1772090D02*
D03*
X3048300D02*
D03*
Y1797890D02*
D03*
X3073700Y1823290D02*
D03*
X3048300D02*
D03*
X3073700Y1848690D02*
D03*
X3048300D02*
D03*
X3073700Y1874090D02*
D03*
X3048300D02*
D03*
Y1899490D02*
D03*
X3073700Y1950890D02*
D03*
Y1899690D02*
D03*
Y1925090D02*
D03*
X3048300D02*
D03*
Y1950890D02*
D03*
X3073700Y1976290D02*
D03*
X3048300D02*
D03*
X3073700Y2001690D02*
D03*
X3048300D02*
D03*
X3073700Y2027090D02*
D03*
X3048300D02*
D03*
X3073700Y2154890D02*
D03*
X3048300Y2052890D02*
D03*
Y2078290D02*
D03*
X3073700Y2052890D02*
D03*
Y2078290D02*
D03*
Y2103690D02*
D03*
X3048300D02*
D03*
X3073700Y2129090D02*
D03*
X3048300D02*
D03*
Y2154890D02*
D03*
X3073700Y2180290D02*
D03*
X3048300D02*
D03*
X3073700Y2205690D02*
D03*
X3048300D02*
D03*
X3073700Y2231090D02*
D03*
X3048300D02*
D03*
Y2256490D02*
D03*
X3073700Y813500D02*
D03*
Y762300D02*
D03*
X3048300D02*
D03*
X3073700Y787700D02*
D03*
X3048300D02*
D03*
Y813500D02*
D03*
X3073700Y838900D02*
D03*
X3048300D02*
D03*
X3073700Y864300D02*
D03*
X3048300D02*
D03*
X3073700Y889700D02*
D03*
X3048300D02*
D03*
X3073700Y1017500D02*
D03*
X3048300Y915500D02*
D03*
Y940900D02*
D03*
X3073700Y915500D02*
D03*
Y940900D02*
D03*
Y966300D02*
D03*
X3048300D02*
D03*
X3073700Y991700D02*
D03*
X3048300D02*
D03*
Y1017500D02*
D03*
X3073700Y1042900D02*
D03*
X3048300D02*
D03*
X3073700Y1068300D02*
D03*
X3048300D02*
D03*
X3073700Y1093700D02*
D03*
X3048300D02*
D03*
Y1119100D02*
D03*
D38*
X2619180Y3088210D02*
D03*
D39*
X1654580Y2327280D02*
D03*
D40*
X2998040Y2596720D02*
D03*
D41*
Y2622120D02*
D03*
X163900Y2976000D02*
D03*
D42*
X1927430Y610440D02*
D03*
Y826340D02*
D03*
X1879170D02*
D03*
Y718390D02*
D03*
X1927430D02*
D03*
X1561670D02*
D03*
Y827610D02*
D03*
X1059610Y289590D02*
D03*
X849610Y664590D02*
D03*
Y289590D02*
D03*
X1927430Y935560D02*
D03*
X1879550D02*
D03*
X1561670Y936240D02*
D03*
D43*
X2062430Y610440D02*
D03*
Y826340D02*
D03*
X1744170D02*
D03*
Y718390D02*
D03*
X2062430D02*
D03*
X1696670D02*
D03*
Y827610D02*
D03*
X2062430Y935560D02*
D03*
X1744550D02*
D03*
X1696670Y936240D02*
D03*
D44*
X893650Y791288D02*
D03*
Y829388D02*
D03*
Y810592D02*
D03*
Y772492D02*
D03*
X1922350Y2333830D02*
D03*
Y2295730D02*
D03*
Y2314526D02*
D03*
Y2352626D02*
D03*
D45*
X1046050Y737440D02*
D03*
X995250Y864440D02*
D03*
X1020650Y737440D02*
D03*
Y864440D02*
D03*
X1071450Y737440D02*
D03*
X1046050Y864440D02*
D03*
X1071450D02*
D03*
X995250Y737440D02*
D03*
X1769950Y2387678D02*
D03*
X1820750Y2260678D02*
D03*
X1795350Y2387678D02*
D03*
Y2260678D02*
D03*
X1744550Y2387678D02*
D03*
X1769950Y2260678D02*
D03*
X1744550D02*
D03*
X1820750Y2387678D02*
D03*
D46*
X1059610Y664590D02*
D03*
D47*
X1180670Y400960D02*
D03*
X1885450Y2469720D02*
D03*
X2134510Y2284300D02*
D03*
D48*
X1180670Y250960D02*
D03*
D49*
X1338800Y387250D02*
D03*
X1313400D02*
D03*
X1364200D02*
D03*
D50*
X1288000D02*
D03*
D51*
X138500Y2976000D02*
D03*
D52*
X615520Y2745310D02*
D03*
D53*
Y2770710D02*
D03*
D54*
X930480Y2693170D02*
D03*
D55*
X1179930Y1019380D02*
D03*
Y897037D02*
D03*
Y774693D02*
D03*
Y652350D02*
D03*
X1818800Y2658950D02*
D03*
D56*
X1110480Y2693170D02*
D03*
X930480Y2793170D02*
D03*
Y2718170D02*
D03*
Y2768170D02*
D03*
Y2868170D02*
D03*
Y2843170D02*
D03*
Y2818170D02*
D03*
Y2918170D02*
D03*
Y2893170D02*
D03*
Y2943170D02*
D03*
X1110480Y2793170D02*
D03*
Y2718170D02*
D03*
Y2768170D02*
D03*
Y2868170D02*
D03*
Y2843170D02*
D03*
Y2918170D02*
D03*
Y2943170D02*
D03*
D57*
X1404930Y1019380D02*
D03*
X2093800Y2658950D02*
D03*
X1404930Y897037D02*
D03*
Y774693D02*
D03*
Y652350D02*
D03*
D58*
X2144600Y159680D02*
D03*
X2062050D02*
D03*
D59*
X3073700Y2256490D02*
D03*
Y1119100D02*
D03*
D60*
X1529920Y193880D02*
D03*
X1865200Y196420D02*
D03*
D61*
X2035450Y2469720D02*
D03*
X1984510Y2284300D02*
D03*
D62*
X253500Y696500D02*
D03*
X207500Y560000D02*
D03*
X306750Y2379750D02*
D03*
X2050430Y610940D02*
D03*
Y598940D02*
D03*
X2062430D02*
D03*
X2051430Y621940D02*
D03*
X2062430D02*
D03*
X2074430D02*
D03*
Y610940D02*
D03*
Y598940D02*
D03*
Y814840D02*
D03*
Y826840D02*
D03*
Y837840D02*
D03*
X2062430D02*
D03*
X2051430D02*
D03*
X2062430Y814840D02*
D03*
X2050430D02*
D03*
Y826840D02*
D03*
X1732170Y837840D02*
D03*
Y825840D02*
D03*
Y814840D02*
D03*
X1744170D02*
D03*
X1755170D02*
D03*
X1744170Y837840D02*
D03*
X1756170D02*
D03*
Y825840D02*
D03*
Y717890D02*
D03*
Y729890D02*
D03*
X1744170D02*
D03*
X1755170Y706890D02*
D03*
X1744170D02*
D03*
X1732170D02*
D03*
Y717890D02*
D03*
Y729890D02*
D03*
X2050430Y718890D02*
D03*
Y706890D02*
D03*
X2062430D02*
D03*
X2051430Y729890D02*
D03*
X2062430D02*
D03*
X2074430D02*
D03*
Y718890D02*
D03*
Y706890D02*
D03*
X1684670Y718890D02*
D03*
Y706890D02*
D03*
X1696670D02*
D03*
X1685670Y729890D02*
D03*
X1696670D02*
D03*
X1708670D02*
D03*
Y718890D02*
D03*
Y706890D02*
D03*
X1684670Y828110D02*
D03*
Y816110D02*
D03*
X1696670D02*
D03*
X1685670Y839110D02*
D03*
X1696670D02*
D03*
X1708670D02*
D03*
Y828110D02*
D03*
Y816110D02*
D03*
X1531250Y3128000D02*
D03*
X1097000Y94250D02*
D03*
X1021750Y172250D02*
D03*
X1050750Y90750D02*
D03*
X1324000Y99000D02*
D03*
X3166750Y462500D02*
D03*
X3129750Y490250D02*
D03*
Y579750D02*
D03*
X1718250Y2329250D02*
D03*
X1761750Y2326250D02*
D03*
X1735500Y2338500D02*
D03*
X1553000Y3128000D02*
D03*
X888750Y64750D02*
D03*
X866500Y65250D02*
D03*
X2761500Y1817000D02*
D03*
X2762474Y1870323D02*
D03*
X1482000Y2747250D02*
D03*
Y2667500D02*
D03*
X1852750Y2334500D02*
D03*
X1234000Y86750D02*
D03*
X213250Y952250D02*
D03*
X272750Y836000D02*
D03*
X286500Y880750D02*
D03*
X235500Y817000D02*
D03*
X791500Y803000D02*
D03*
X806250Y802750D02*
D03*
X1210250Y158750D02*
D03*
X1337750Y159000D02*
D03*
X1251000Y199000D02*
D03*
X1181750Y88750D02*
D03*
X1285000Y171250D02*
D03*
X1331000Y220750D02*
D03*
X1312500Y191500D02*
D03*
X1312250Y267000D02*
D03*
X288000Y2325750D02*
D03*
X281250Y2130500D02*
D03*
X303500Y2325750D02*
D03*
X328750Y2186250D02*
D03*
Y1984250D02*
D03*
X304750Y2127250D02*
D03*
X323500Y1328500D02*
D03*
X331000Y1191750D02*
D03*
X277500Y1328750D02*
D03*
X306500Y1188250D02*
D03*
X281250Y1732000D02*
D03*
X279250Y2531250D02*
D03*
X284000Y1131500D02*
D03*
X299000Y2530000D02*
D03*
X282000Y2382000D02*
D03*
X292750Y1574250D02*
D03*
X293250Y983500D02*
D03*
X328750Y1730750D02*
D03*
X318750Y2529250D02*
D03*
X329250Y1576500D02*
D03*
X330250Y1131000D02*
D03*
X331000Y983500D02*
D03*
X284500Y1781000D02*
D03*
X283000Y1377000D02*
D03*
X281871Y1925929D02*
D03*
X276716Y1513284D02*
D03*
X319000Y1928500D02*
D03*
X318500Y1782000D02*
D03*
X318000Y1513000D02*
D03*
X330000Y1377750D02*
D03*
X242540Y720500D02*
D03*
X290250Y632500D02*
D03*
X315250Y536000D02*
D03*
X324250Y744750D02*
D03*
X220026Y301526D02*
D03*
X319500Y953250D02*
D03*
X279750Y419750D02*
D03*
X259250Y632250D02*
D03*
X236801Y404000D02*
D03*
X294250Y466500D02*
D03*
X241500Y294250D02*
D03*
X328770Y339230D02*
D03*
X314752Y168748D02*
D03*
X314750Y110750D02*
D03*
X273250Y165250D02*
D03*
X225280Y177720D02*
D03*
X2924500Y607750D02*
D03*
X2810590Y1223090D02*
D03*
X2855750Y1139300D02*
D03*
X2786500Y1095750D02*
D03*
Y1185250D02*
D03*
X2815860Y982110D02*
D03*
X2864730Y922980D02*
D03*
X2739500Y938750D02*
D03*
X2726500Y848000D02*
D03*
X2784750Y941250D02*
D03*
Y850750D02*
D03*
X2074430Y924060D02*
D03*
Y936060D02*
D03*
Y947060D02*
D03*
X2062430D02*
D03*
X2051430D02*
D03*
X2062430Y924060D02*
D03*
X2050430D02*
D03*
Y936060D02*
D03*
X1732550Y947060D02*
D03*
Y935060D02*
D03*
Y924060D02*
D03*
X1744550D02*
D03*
X1755550D02*
D03*
X1744550Y947060D02*
D03*
X1756550D02*
D03*
Y935060D02*
D03*
X1708670Y924740D02*
D03*
Y936740D02*
D03*
Y947740D02*
D03*
X1696670D02*
D03*
X1685670D02*
D03*
X1696670Y924740D02*
D03*
X1684670D02*
D03*
Y936740D02*
D03*
D63*
X221000Y708750D02*
D03*
X3138500Y1873500D02*
D03*
Y1798000D02*
D03*
X233500Y940250D02*
D03*
X244104Y861146D02*
D03*
X253500Y536000D02*
D03*
X246500Y431250D02*
D03*
X251500Y516750D02*
D03*
X244000Y223500D02*
D03*
X2792250Y492750D02*
D03*
Y410000D02*
D03*
X2789750Y671750D02*
D03*
Y599250D02*
D03*
D64*
X2940250Y3141000D02*
D03*
D03*
X3173000Y3115750D02*
D03*
X3164000Y3123750D02*
D03*
X3155750Y3132000D02*
D03*
X3147500Y3140750D02*
D03*
X3138500Y3149750D02*
D03*
X3130000Y3157750D02*
D03*
X3122750Y3165000D02*
D03*
X3116250Y3171750D02*
D03*
X3129250Y3184750D02*
D03*
X3135750Y3178000D02*
D03*
X3143000Y3170750D02*
D03*
X3151500Y3162750D02*
D03*
X3160500Y3153750D02*
D03*
X3168750Y3145000D02*
D03*
X3177000Y3136750D02*
D03*
X3186000Y3128750D02*
D03*
X3062000Y1318000D02*
D03*
Y1307500D02*
D03*
Y1297750D02*
D03*
Y1286750D02*
D03*
Y1275000D02*
D03*
Y1264750D02*
D03*
Y1254750D02*
D03*
X3050250Y1318500D02*
D03*
Y1308000D02*
D03*
Y1298250D02*
D03*
Y1287250D02*
D03*
Y1275500D02*
D03*
Y1265250D02*
D03*
Y1255250D02*
D03*
Y1328750D02*
D03*
Y1339000D02*
D03*
Y1349500D02*
D03*
Y1359250D02*
D03*
Y1370250D02*
D03*
Y1382000D02*
D03*
Y1392250D02*
D03*
Y1402250D02*
D03*
X3062000Y1328250D02*
D03*
Y1338500D02*
D03*
Y1349000D02*
D03*
Y1358750D02*
D03*
Y1369750D02*
D03*
Y1381500D02*
D03*
Y1391750D02*
D03*
Y1401750D02*
D03*
X3037750Y1498000D02*
D03*
Y1488000D02*
D03*
Y1445250D02*
D03*
Y1477750D02*
D03*
Y1434750D02*
D03*
Y1455000D02*
D03*
Y1466000D02*
D03*
Y1424500D02*
D03*
X2993750Y2479750D02*
D03*
Y2490000D02*
D03*
Y2500500D02*
D03*
Y2510250D02*
D03*
Y2521250D02*
D03*
Y2533000D02*
D03*
Y2543250D02*
D03*
Y2553250D02*
D03*
Y2406250D02*
D03*
Y2416500D02*
D03*
Y2427000D02*
D03*
Y2436750D02*
D03*
Y2447750D02*
D03*
Y2459500D02*
D03*
Y2469750D02*
D03*
Y2332750D02*
D03*
Y2343000D02*
D03*
Y2353500D02*
D03*
Y2363250D02*
D03*
Y2374250D02*
D03*
Y2386000D02*
D03*
Y2396250D02*
D03*
X2997250Y2819250D02*
D03*
Y2829500D02*
D03*
Y2840000D02*
D03*
Y2849750D02*
D03*
Y2860750D02*
D03*
Y2872500D02*
D03*
Y2882750D02*
D03*
Y2892750D02*
D03*
Y2745750D02*
D03*
Y2756000D02*
D03*
Y2766500D02*
D03*
Y2776250D02*
D03*
Y2787250D02*
D03*
Y2799000D02*
D03*
Y2809250D02*
D03*
Y2672250D02*
D03*
Y2682500D02*
D03*
Y2693000D02*
D03*
Y2702750D02*
D03*
Y2713750D02*
D03*
Y2725500D02*
D03*
Y2735750D02*
D03*
X2993500Y3141000D02*
D03*
X2983250D02*
D03*
X2972750D02*
D03*
X2963000D02*
D03*
X2952000D02*
D03*
X3058000Y3087500D02*
D03*
X3004750D02*
D03*
X3026750D02*
D03*
X3047500D02*
D03*
X2994750D02*
D03*
X3015000D02*
D03*
X3037750D02*
D03*
X150000Y2363750D02*
D03*
X150250Y2554500D02*
D03*
X33500Y1739500D02*
D03*
X89965Y274550D02*
D03*
X152250Y212250D02*
D03*
X28750Y499500D02*
D03*
X39250Y2141250D02*
D03*
X32000Y1943750D02*
D03*
X32750Y1538500D02*
D03*
X27750Y1344000D02*
D03*
X90000Y599500D02*
D03*
Y1140250D02*
D03*
Y952750D02*
D03*
X1385750Y70750D02*
D03*
X1400000Y63750D02*
D03*
X933000Y63000D02*
D03*
X922250Y70500D02*
D03*
X28750Y939750D02*
D03*
X40290Y2176000D02*
D03*
X33540Y1975750D02*
D03*
X2899750Y2662750D02*
D03*
Y2652500D02*
D03*
Y2640750D02*
D03*
Y2629750D02*
D03*
Y2620000D02*
D03*
Y2609500D02*
D03*
Y2599250D02*
D03*
Y2736250D02*
D03*
Y2726000D02*
D03*
Y2714250D02*
D03*
Y2703250D02*
D03*
Y2693500D02*
D03*
Y2683000D02*
D03*
Y2672750D02*
D03*
Y2819750D02*
D03*
Y2809750D02*
D03*
Y2799500D02*
D03*
Y2787750D02*
D03*
Y2776750D02*
D03*
Y2767000D02*
D03*
Y2756500D02*
D03*
Y2746250D02*
D03*
X2866750Y3141000D02*
D03*
X2876750D02*
D03*
X2887000D02*
D03*
X2898750D02*
D03*
X2909750D02*
D03*
X2919500D02*
D03*
X2930000D02*
D03*
X2994250Y3100750D02*
D03*
X3004250D02*
D03*
X3014500D02*
D03*
X3026250D02*
D03*
X3037250D02*
D03*
X3047000D02*
D03*
X2921500Y1412250D02*
D03*
Y1402250D02*
D03*
Y1392000D02*
D03*
Y1380250D02*
D03*
Y1369250D02*
D03*
Y1359500D02*
D03*
Y1349000D02*
D03*
Y1338750D02*
D03*
X2909750Y1412750D02*
D03*
Y1402750D02*
D03*
Y1392500D02*
D03*
Y1380750D02*
D03*
Y1369750D02*
D03*
Y1360000D02*
D03*
Y1349500D02*
D03*
Y1339250D02*
D03*
X2912250Y1772750D02*
D03*
Y1762750D02*
D03*
Y1752500D02*
D03*
Y1740750D02*
D03*
Y1729750D02*
D03*
Y1720000D02*
D03*
Y1709500D02*
D03*
Y1699250D02*
D03*
X2902250Y1772750D02*
D03*
Y1762750D02*
D03*
Y1752500D02*
D03*
Y1740750D02*
D03*
Y1729750D02*
D03*
Y1720000D02*
D03*
Y1709500D02*
D03*
Y1699250D02*
D03*
X27290Y175000D02*
D03*
Y190000D02*
D03*
X35250Y199500D02*
D03*
X70500Y62750D02*
D03*
X87250Y43910D02*
D03*
X32790Y3087000D02*
D03*
X31000Y3100250D02*
D03*
X28000Y3109500D02*
D03*
X33272Y3124728D02*
D03*
X33868Y2375632D02*
D03*
X33750Y2564750D02*
D03*
X34500Y1759750D02*
D03*
X60750Y71750D02*
D03*
X705000Y20250D02*
D03*
Y32263D02*
D03*
X34000Y1563250D02*
D03*
X2996250Y823500D02*
D03*
X34750Y166250D02*
D03*
X21710Y1150750D02*
D03*
D65*
X1586750Y1399500D02*
D03*
X1584000Y1417250D02*
D03*
X2097250Y1503500D02*
D03*
X2082500D02*
D03*
X2082250Y1519750D02*
D03*
X2097000D02*
D03*
X2131500Y1481750D02*
D03*
X2116750D02*
D03*
X2116500Y1498000D02*
D03*
X2131250D02*
D03*
X2130000Y1446250D02*
D03*
X2129750Y1462500D02*
D03*
X2124750Y1407750D02*
D03*
X2124500Y1424000D02*
D03*
X2112750Y1378000D02*
D03*
X2098000D02*
D03*
X2097750Y1394250D02*
D03*
X2112500D02*
D03*
X2073500Y1367000D02*
D03*
X2058750D02*
D03*
X2058500Y1383250D02*
D03*
X2073250D02*
D03*
X2035000Y1378000D02*
D03*
X2020250D02*
D03*
X2020000Y1394250D02*
D03*
X2034750D02*
D03*
X2005250Y1401000D02*
D03*
X1990500D02*
D03*
X1990250Y1417250D02*
D03*
X2005000D02*
D03*
X2001000Y1434500D02*
D03*
X1986250D02*
D03*
X1986000Y1450750D02*
D03*
X2000750D02*
D03*
X2005250Y1468750D02*
D03*
X1990500D02*
D03*
X1990250Y1485000D02*
D03*
X2005000D02*
D03*
X2029750Y1494500D02*
D03*
X2015000D02*
D03*
X2014750Y1510750D02*
D03*
X2029500D02*
D03*
X2096500Y1181250D02*
D03*
X2081750D02*
D03*
X2081500Y1197500D02*
D03*
X2096250D02*
D03*
X2132500Y1202250D02*
D03*
X2117750D02*
D03*
X2117500Y1218500D02*
D03*
X2132250D02*
D03*
X2130750Y1240250D02*
D03*
X2130500Y1256500D02*
D03*
X2124250Y1274750D02*
D03*
X2124000Y1291000D02*
D03*
X2115000Y1306250D02*
D03*
X2100250D02*
D03*
X2100000Y1322500D02*
D03*
X2114750D02*
D03*
X2077250Y1316250D02*
D03*
X2062500D02*
D03*
X2062250Y1332500D02*
D03*
X2077000D02*
D03*
X2035500Y1310000D02*
D03*
X2020750D02*
D03*
X2020500Y1326250D02*
D03*
X2035250D02*
D03*
X2004000Y1280250D02*
D03*
X1989250D02*
D03*
X1989000Y1296500D02*
D03*
X2003750D02*
D03*
X1996000Y1240250D02*
D03*
X1981250D02*
D03*
X1981000Y1256500D02*
D03*
X1995750D02*
D03*
X2014500Y1202750D02*
D03*
X1999750D02*
D03*
X1999500Y1219000D02*
D03*
X2014250D02*
D03*
X2596250Y1943000D02*
D03*
X2581500D02*
D03*
X2581250Y1959250D02*
D03*
X2596000D02*
D03*
X2597000Y1737500D02*
D03*
X2582250D02*
D03*
X2582500Y1721250D02*
D03*
X2597250D02*
D03*
D66*
X1939502Y613130D02*
D03*
X1937430Y603940D02*
D03*
X1928430Y598940D02*
D03*
X1918430Y601940D02*
D03*
X1916430Y611940D02*
D03*
X1923015Y619783D02*
D03*
X1933430Y620940D02*
D03*
Y836840D02*
D03*
X1923015Y835683D02*
D03*
X1916430Y827840D02*
D03*
X1918430Y817840D02*
D03*
X1928430Y814840D02*
D03*
X1937430Y819840D02*
D03*
X1939502Y829030D02*
D03*
X1873170Y815840D02*
D03*
X1883584Y816997D02*
D03*
X1890170Y824840D02*
D03*
X1888170Y834840D02*
D03*
X1878170Y837840D02*
D03*
X1869170Y832840D02*
D03*
X1867099Y823650D02*
D03*
Y715700D02*
D03*
X1869170Y724890D02*
D03*
X1878170Y729890D02*
D03*
X1888170Y726890D02*
D03*
X1890170Y716890D02*
D03*
X1883584Y709047D02*
D03*
X1873170Y707890D02*
D03*
X1939502Y721080D02*
D03*
X1937430Y711890D02*
D03*
X1928430Y706890D02*
D03*
X1918430Y709890D02*
D03*
X1916430Y719890D02*
D03*
X1923015Y727733D02*
D03*
X1933430Y728890D02*
D03*
X1573742Y721080D02*
D03*
X1571670Y711890D02*
D03*
X1562670Y706890D02*
D03*
X1552670Y709890D02*
D03*
X1550670Y719890D02*
D03*
X1557256Y727733D02*
D03*
X1567670Y728890D02*
D03*
X1573742Y830300D02*
D03*
X1571670Y821110D02*
D03*
X1562670Y816110D02*
D03*
X1552670Y819110D02*
D03*
X1550670Y829110D02*
D03*
X1557256Y836953D02*
D03*
X1567670Y838110D02*
D03*
X1933430Y946060D02*
D03*
X1923015Y944903D02*
D03*
X1916430Y937060D02*
D03*
X1918430Y927060D02*
D03*
X1928430Y924060D02*
D03*
X1937430Y929060D02*
D03*
X1939502Y938250D02*
D03*
X1873550Y925060D02*
D03*
X1883965Y926217D02*
D03*
X1890550Y934060D02*
D03*
X1888550Y944060D02*
D03*
X1878550Y947060D02*
D03*
X1869550Y942060D02*
D03*
X1867478Y932870D02*
D03*
X1567670Y946740D02*
D03*
X1557256Y945583D02*
D03*
X1550670Y937740D02*
D03*
X1552670Y927740D02*
D03*
X1562670Y924740D02*
D03*
X1571670Y929740D02*
D03*
X1573742Y938930D02*
D03*
M02*
