G04*
G04 #@! TF.GenerationSoftware,Altium Limited,Altium Designer,25.3.3 (18)*
G04*
G04 Layer_Physical_Order=3*
G04 Layer_Color=16440176*
%FSLAX44Y44*%
%MOMM*%
G71*
G04*
G04 #@! TF.SameCoordinates,02FA8497-09D8-4EBB-9686-6BBDE5AED0EC*
G04*
G04*
G04 #@! TF.FilePolarity,Positive*
G04*
G01*
G75*
%ADD10C,0.8000*%
%ADD13C,0.5000*%
%ADD16C,0.3000*%
%ADD67C,1.0000*%
%ADD68C,5.5000*%
%ADD69O,6.0000X9.0000*%
%ADD70C,6.0000*%
%ADD71O,7.0000X5.0000*%
%ADD72C,1.5000*%
G04:AMPARAMS|DCode=73|XSize=1.5mm|YSize=1.5mm|CornerRadius=0.375mm|HoleSize=0mm|Usage=FLASHONLY|Rotation=270.000|XOffset=0mm|YOffset=0mm|HoleType=Round|Shape=RoundedRectangle|*
%AMROUNDEDRECTD73*
21,1,1.5000,0.7500,0,0,270.0*
21,1,0.7500,1.5000,0,0,270.0*
1,1,0.7500,-0.3750,-0.3750*
1,1,0.7500,-0.3750,0.3750*
1,1,0.7500,0.3750,0.3750*
1,1,0.7500,0.3750,-0.3750*
%
%ADD73ROUNDEDRECTD73*%
%ADD74R,4.0000X2.5000*%
%ADD75C,4.0000*%
%ADD76R,4.0000X4.0000*%
%ADD77O,20.5000X17.5000*%
G04:AMPARAMS|DCode=78|XSize=5mm|YSize=15mm|CornerRadius=1.25mm|HoleSize=0mm|Usage=FLASHONLY|Rotation=180.000|XOffset=0mm|YOffset=0mm|HoleType=Round|Shape=RoundedRectangle|*
%AMROUNDEDRECTD78*
21,1,5.0000,12.5000,0,0,180.0*
21,1,2.5000,15.0000,0,0,180.0*
1,1,2.5000,-1.2500,6.2500*
1,1,2.5000,1.2500,6.2500*
1,1,2.5000,1.2500,-6.2500*
1,1,2.5000,-1.2500,-6.2500*
%
%ADD78ROUNDEDRECTD78*%
G04:AMPARAMS|DCode=79|XSize=5mm|YSize=11mm|CornerRadius=1.25mm|HoleSize=0mm|Usage=FLASHONLY|Rotation=180.000|XOffset=0mm|YOffset=0mm|HoleType=Round|Shape=RoundedRectangle|*
%AMROUNDEDRECTD79*
21,1,5.0000,8.5000,0,0,180.0*
21,1,2.5000,11.0000,0,0,180.0*
1,1,2.5000,-1.2500,4.2500*
1,1,2.5000,1.2500,4.2500*
1,1,2.5000,1.2500,-4.2500*
1,1,2.5000,-1.2500,-4.2500*
%
%ADD79ROUNDEDRECTD79*%
%ADD80O,10.0000X7.0000*%
%ADD81R,4.0000X4.0000*%
%ADD82R,1.5000X1.5000*%
%ADD83C,2.2000*%
%ADD84C,1.6050*%
%ADD85R,1.6050X1.6050*%
G04:AMPARAMS|DCode=86|XSize=1.5mm|YSize=1.5mm|CornerRadius=0.375mm|HoleSize=0mm|Usage=FLASHONLY|Rotation=0.000|XOffset=0mm|YOffset=0mm|HoleType=Round|Shape=RoundedRectangle|*
%AMROUNDEDRECTD86*
21,1,1.5000,0.7500,0,0,0.0*
21,1,0.7500,1.5000,0,0,0.0*
1,1,0.7500,0.3750,-0.3750*
1,1,0.7500,-0.3750,-0.3750*
1,1,0.7500,-0.3750,0.3750*
1,1,0.7500,0.3750,0.3750*
%
%ADD86ROUNDEDRECTD86*%
%ADD87R,1.5200X1.5200*%
%ADD88C,1.5200*%
%ADD89C,3.5000*%
%ADD90R,3.5000X3.5000*%
%ADD91O,2.3000X1.3000*%
%ADD92O,1.9050X2.5400*%
%ADD93R,3.5000X3.5000*%
%ADD94C,2.0000*%
%ADD95R,2.0000X2.0000*%
%ADD96C,1.6000*%
%ADD97R,1.6000X1.6000*%
%ADD98R,1.5200X1.5200*%
%ADD99O,2.2860X1.9050*%
%ADD100R,2.2860X1.9050*%
%ADD101R,2.0000X1.5000*%
%ADD102C,3.0000*%
%ADD103O,2.0000X1.5000*%
%ADD104R,3.0000X3.0000*%
%ADD105R,1.5000X1.5000*%
%ADD106R,1.6050X1.6050*%
%ADD107C,12.0000*%
%ADD108R,2.0000X2.0000*%
%ADD109C,1.0000*%
%ADD110C,0.8000*%
%ADD111C,0.6000*%
%ADD112C,1.2000*%
%ADD113C,0.7000*%
%ADD114C,0.7000*%
%ADD115C,0.5900*%
G36*
X2182250Y2297000D02*
Y2081100D01*
X1959180D01*
Y2208100D01*
X2106500D01*
Y2299540D01*
X2117930Y2310970D01*
X2168280D01*
X2182250Y2297000D01*
D02*
G37*
G36*
X2648500Y1932750D02*
X2571750D01*
Y1970250D01*
X2648500D01*
Y1932750D01*
D02*
G37*
G36*
X578690Y2048310D02*
Y1872820D01*
X541120Y1835250D01*
X370410D01*
Y1871550D01*
X436300D01*
X450420Y1885670D01*
Y2018580D01*
X436160Y2032840D01*
X370410Y2032840D01*
Y2070940D01*
X556060D01*
X578690Y2048310D01*
D02*
G37*
G36*
X2665750Y1847750D02*
Y1784000D01*
X2654500Y1772750D01*
X2607250D01*
X2596000Y1784000D01*
Y1847500D01*
X2608000Y1859500D01*
X2654000D01*
X2665750Y1847750D01*
D02*
G37*
G36*
X2648500Y1712750D02*
X2571750D01*
Y1750250D01*
X2648500D01*
Y1712750D01*
D02*
G37*
G36*
X917780Y2271970D02*
Y2118470D01*
X938640Y2097610D01*
X1030360D01*
X1051130Y2118380D01*
Y2258900D01*
X1075895Y2283665D01*
X1253695D01*
X1278460Y2258900D01*
Y2168730D01*
X1321640Y2125550D01*
X1448640Y2125550D01*
X1532460Y2041730D01*
X1581990Y1992200D01*
X1940130D01*
Y1664540D01*
X1442290D01*
X1442290Y1726770D01*
X1442209Y1729262D01*
X1441558Y1734203D01*
X1440269Y1739017D01*
X1438361Y1743622D01*
X1435869Y1747938D01*
X1432836Y1751892D01*
X1429311Y1755416D01*
X1425357Y1758450D01*
X1421041Y1760941D01*
X1416437Y1762848D01*
X1411623Y1764138D01*
X1406681Y1764788D01*
X1404189Y1764869D01*
X1404190Y1764870D01*
X1283540D01*
Y1816940D01*
X1283540D01*
X1283540Y1764870D01*
X1048924D01*
X1024460Y1789335D01*
Y1857790D01*
X1004350Y1877900D01*
X840400D01*
X819990Y1857490D01*
X819990Y1563740D01*
X609640Y1353390D01*
X369140D01*
Y1416890D01*
X436450D01*
X450420Y1430860D01*
Y1620580D01*
X435670Y1635330D01*
X370410D01*
Y1670890D01*
X435890D01*
X450420Y1685420D01*
Y1741830D01*
X436270Y1755980D01*
X370410D01*
Y1816940D01*
X567260D01*
X606630Y1856310D01*
Y2272130D01*
X631500Y2297000D01*
X892750D01*
X917780Y2271970D01*
D02*
G37*
G36*
X1677240Y1584530D02*
Y1387740D01*
X1654250Y1364750D01*
X1380060D01*
X1380060Y1577810D01*
X1407100Y1604850D01*
X1656920Y1604850D01*
X1677240Y1584530D01*
D02*
G37*
G36*
X2665300Y1132410D02*
X2553590D01*
X2536000Y1150000D01*
Y1278750D01*
X2550950Y1293700D01*
X2665300D01*
Y1132410D01*
D02*
G37*
G36*
X1236550Y1368630D02*
X965130D01*
X894500Y1298000D01*
Y974500D01*
X869530Y949530D01*
X462970D01*
X449150Y963350D01*
Y1019850D01*
X435650Y1033350D01*
X370964D01*
Y1071450D01*
X435700Y1071450D01*
X449150Y1084900D01*
Y1142600D01*
X435210Y1156540D01*
X370964D01*
Y1217500D01*
X436000D01*
X449150Y1230650D01*
Y1284650D01*
X473440Y1308940D01*
X659970D01*
X955880Y1604850D01*
X1236550D01*
Y1368630D01*
D02*
G37*
G36*
X2523750Y1338730D02*
Y1136011D01*
X2541321Y1118440D01*
X2665300D01*
Y1065100D01*
X2590370D01*
Y1004140D01*
X2665300D01*
X2680610Y1004140D01*
X2681264Y1004140D01*
X2682547Y1003885D01*
X2683755Y1003384D01*
X2684843Y1002658D01*
X2685768Y1001733D01*
X2686494Y1000645D01*
X2686995Y999437D01*
X2687250Y998154D01*
X2687250Y997500D01*
X2687250Y997500D01*
Y983250D01*
X2676511Y983250D01*
X2675420Y983196D01*
X2673279Y982771D01*
X2671262Y981936D01*
X2669447Y980724D01*
X2667903Y979181D01*
X2666689Y977367D01*
X2665852Y975351D01*
X2665424Y973211D01*
X2665370Y972119D01*
Y972120D01*
X2665307Y909500D01*
X2354810D01*
X2319860Y944450D01*
Y1268300D01*
X2232230Y1355930D01*
X1940130D01*
Y1551510D01*
X2310970D01*
X2523750Y1338730D01*
D02*
G37*
G36*
X1237820Y1241630D02*
X1101930Y1105740D01*
Y838180D01*
X1087550Y823800D01*
X990950Y823800D01*
X976200Y838550D01*
Y1275920D01*
X1024460Y1324180D01*
X1237820D01*
Y1241630D01*
D02*
G37*
G36*
X2665300Y840500D02*
X2589290D01*
X2580210Y831420D01*
Y797130D01*
X2536000D01*
Y889840D01*
X2665300D01*
Y840500D01*
D02*
G37*
G36*
X1676984Y1310016D02*
Y1257965D01*
X1640154Y1221135D01*
Y1175415D01*
X1613484Y1148745D01*
X1494185D01*
X1430860Y1085420D01*
X1430860Y648540D01*
X1416890Y634570D01*
X1353390D01*
X1338150Y649810D01*
X1338150Y1282270D01*
X1380380Y1324500D01*
X1662500D01*
X1676984Y1310016D01*
D02*
G37*
G36*
X651500Y831000D02*
Y576500D01*
X614250Y539250D01*
X371750D01*
Y615500D01*
X426270Y615500D01*
X449000Y638230D01*
Y809980D01*
X424980Y834000D01*
X371750D01*
Y870750D01*
X611750D01*
X651500Y831000D01*
D02*
G37*
G36*
X2665300Y621750D02*
X2585170D01*
X2580210Y616790D01*
Y582500D01*
X2536000D01*
Y679000D01*
X2665300D01*
Y621750D01*
D02*
G37*
G36*
Y470740D02*
X2536000D01*
Y560910D01*
X2665300D01*
Y470740D01*
D02*
G37*
G36*
X1812000Y468250D02*
X1394250D01*
X1373000Y447000D01*
Y378250D01*
X1330750D01*
Y449250D01*
X1315250Y464750D01*
Y497750D01*
X1323500Y506000D01*
X1723750D01*
X1751000Y533250D01*
Y618500D01*
X1812000D01*
Y468250D01*
D02*
G37*
G36*
X2298270Y1255600D02*
Y934290D01*
X2342720Y889840D01*
X2523500D01*
Y782500D01*
X2665300D01*
Y691720D01*
X2523500D01*
Y454230D01*
X2665300D01*
Y404700D01*
X2579500D01*
Y234520D01*
X2176350D01*
Y272620D01*
X2055700D01*
Y502490D01*
X2103960Y550750D01*
Y1007950D01*
X2022680Y1089230D01*
X1940130D01*
Y1341960D01*
X2211910D01*
X2298270Y1255600D01*
D02*
G37*
G36*
X651500Y431000D02*
Y267750D01*
X529500Y145750D01*
X371750Y145750D01*
Y215500D01*
X426270Y215500D01*
X449000Y238230D01*
Y409980D01*
X424980Y434000D01*
X371750D01*
Y470750D01*
X611750D01*
X651500Y431000D01*
D02*
G37*
G36*
X2777060Y140560D02*
X2728780Y92280D01*
X2054250D01*
Y188800D01*
X2714830D01*
Y251030D01*
X2777060D01*
Y140560D01*
D02*
G37*
%LPC*%
G36*
X1387680Y2007440D02*
X1283540D01*
Y1816940D01*
X1387680Y1816940D01*
Y2007440D01*
D02*
G37*
%LPD*%
D10*
X3182000Y110500D02*
Y511750D01*
X3181500Y512250D02*
X3182000Y511750D01*
X906500Y177250D02*
X939858Y143892D01*
X1097000Y94250D02*
Y139206D01*
X1092314Y143892D02*
X1097000Y139206D01*
X939858Y143892D02*
X1092314D01*
X1155000Y34000D02*
X3105500D01*
X1128250Y60750D02*
Y169750D01*
Y60750D02*
X1155000Y34000D01*
X1097000Y34000D02*
Y94250D01*
X3200750Y483500D02*
X3201000Y483250D01*
X3112250Y17500D02*
X3201000Y106250D01*
Y483250D01*
X820250Y881250D02*
X842500D01*
X848000Y875750D01*
X1113500Y17500D02*
X3112250D01*
X1097000Y34000D02*
X1113500Y17500D01*
X848500Y810592D02*
X893650D01*
X848000Y762500D02*
Y875750D01*
X906500Y177250D02*
Y704000D01*
X848000Y762500D02*
X906500Y704000D01*
X3105500Y34000D02*
X3182000Y110500D01*
X893650Y829388D02*
X919112D01*
X958000Y184500D02*
X1113500D01*
X1022000Y172500D02*
Y182000D01*
X1113500Y184500D02*
X1128250Y169750D01*
X1021750Y172250D02*
X1022000Y172500D01*
X930362Y212138D02*
X958000Y184500D01*
X930362Y212138D02*
Y818138D01*
X919112Y829388D02*
X930362Y818138D01*
D13*
X1331000Y220750D02*
X1352321D01*
X1355250Y101929D02*
Y217821D01*
X1352321Y99000D02*
X1355250Y101929D01*
X1324000Y99000D02*
X1352321D01*
Y220750D02*
X1355250Y217821D01*
X1391750Y323250D02*
X1400000Y315000D01*
Y63750D02*
Y315000D01*
X1370750Y300000D02*
X1385750Y285000D01*
Y70750D02*
Y285000D01*
X1270750Y300000D02*
X1370750D01*
X1237500Y333250D02*
X1270750Y300000D01*
X1237500Y333250D02*
Y555750D01*
X1281000Y323250D02*
X1391750D01*
X1254500Y349750D02*
X1281000Y323250D01*
X1254500Y349750D02*
Y544250D01*
X3073700Y2078290D02*
Y2103690D01*
X1647250Y1099500D02*
X1692500Y1144750D01*
X1511750Y1099500D02*
X1647250D01*
X1498500Y585500D02*
Y1086250D01*
X1511750Y1099500D01*
X1478250Y565250D02*
X1498500Y585500D01*
X1254500Y544250D02*
X1275500Y565250D01*
X1478250D01*
X3048300Y2078290D02*
Y2103690D01*
X1623250Y1115500D02*
X1692500Y1184750D01*
X1501000Y1115500D02*
X1623250D01*
X1482250Y594750D02*
Y1096750D01*
X1501000Y1115500D01*
X1467500Y580000D02*
X1482250Y594750D01*
X1261750Y580000D02*
X1467500D01*
X1237500Y555750D02*
X1261750Y580000D01*
X1210375Y158875D02*
X1337625D01*
X1210250Y158750D02*
X1210375Y158875D01*
X1285000Y171250D02*
Y190000D01*
X3097460Y50710D02*
X3166750Y120000D01*
Y462500D01*
X1270040Y50710D02*
X3097460D01*
X1234000Y86750D02*
X1270040Y50710D01*
X166500Y355051D02*
X220026Y301526D01*
X166500Y2703750D02*
X308000Y2845250D01*
X166500Y355051D02*
Y2703750D01*
X1761750Y2326250D02*
Y2350321D01*
X705000Y20250D02*
X875500D01*
X888750Y33500D02*
Y64750D01*
X875500Y20250D02*
X888750Y33500D01*
X705000Y32263D02*
X858513D01*
X866500Y40250D02*
Y65250D01*
X241500Y294250D02*
Y303500D01*
X179500Y365500D02*
Y2698500D01*
Y365500D02*
X241500Y303500D01*
Y294250D02*
X293250Y242500D01*
X191000Y378000D02*
X229770Y339230D01*
X191000Y2690000D02*
X318250Y2817250D01*
X191000Y378000D02*
Y2690000D01*
X318250Y2817250D02*
X554000D01*
X179500Y2698500D02*
X312250Y2831250D01*
X527630D02*
X551940Y2855560D01*
X312250Y2831250D02*
X527630D01*
X1181750Y88750D02*
Y183250D01*
X1197500Y199000D01*
X3048300Y1695890D02*
X3073700D01*
X3048300Y1797890D02*
X3073700D01*
Y1823290D01*
X1764679Y2353250D02*
X1921726D01*
X1761750Y2350321D02*
X1764679Y2353250D01*
X1921726D02*
X1922350Y2352626D01*
X1201750Y2551500D02*
X1480250D01*
X1922015Y2334165D02*
X1922350Y2333830D01*
X1853085Y2334165D02*
X1922015D01*
X1852750Y2334500D02*
X1853085Y2334165D01*
X858513Y32263D02*
X866500Y40250D01*
X213250Y952250D02*
X237750Y976750D01*
X272750Y836000D02*
X290500D01*
X303250Y823250D01*
X253250Y847500D02*
X286500Y880750D01*
X253250Y816750D02*
Y847500D01*
X213250Y795000D02*
Y952250D01*
X235750Y816750D02*
X253250D01*
X235500Y817000D02*
X235750Y816750D01*
X256250Y2585750D02*
X389250Y2718750D01*
X256250Y966250D02*
Y2585750D01*
X389250Y2718750D02*
Y2788500D01*
X247250Y952750D02*
Y2606250D01*
X369250Y2728250D02*
Y2789000D01*
X247250Y2606250D02*
X369250Y2728250D01*
X237750Y976750D02*
Y2625250D01*
X349250Y2736750D02*
Y2790000D01*
X237750Y2625250D02*
X349250Y2736750D01*
X1337625Y158875D02*
X1337750Y159000D01*
X1251000Y199000D02*
X1276000D01*
X1285000Y190000D01*
X1197500Y199000D02*
X1251000D01*
X256250Y966250D02*
X269500Y953000D01*
X247250Y952750D02*
X286500Y913500D01*
X360000Y3017250D02*
Y3053750D01*
X375750Y3069500D02*
X1074500D01*
X360000Y3053750D02*
X375750Y3069500D01*
X1087431Y3084500D02*
X1185250Y2986681D01*
X340250Y3069500D02*
X355250Y3084500D01*
X1087431D01*
X350000Y3099250D02*
X1100965D01*
X320250Y3069500D02*
X350000Y3099250D01*
X1100965D02*
X1204500Y2995715D01*
Y2624000D02*
Y2995715D01*
Y2624000D02*
X1224360Y2604140D01*
X1212250Y2581000D02*
X1261360D01*
X1185250Y2608000D02*
Y2986681D01*
Y2608000D02*
X1212250Y2581000D01*
X1165500Y2587750D02*
X1201750Y2551500D01*
X1261360Y2581000D02*
X1263220Y2579140D01*
X1224360Y2604140D02*
X1263220D01*
X1165500Y2587750D02*
Y2978500D01*
X1074500Y3069500D02*
X1165500Y2978500D01*
X320250Y3017250D02*
Y3069500D01*
X340250Y3017500D02*
Y3069500D01*
X388000Y2875500D02*
Y2907750D01*
X445250Y2965000D01*
X349750Y2875500D02*
X350982Y2876732D01*
X368750Y2876250D02*
Y2921500D01*
X437250Y2990000D01*
X350982Y2876732D02*
Y2934482D01*
X432250Y3015750D01*
X556000D01*
X437250Y2990000D02*
X567750D01*
X308000Y2845250D02*
X503500D01*
X573250Y2935750D02*
X576250Y2938750D01*
X567750Y2990000D02*
X576250Y2981500D01*
Y2938750D02*
Y2981500D01*
X556000Y2935750D02*
X573250D01*
X445250Y2965000D02*
X554173D01*
X503500Y2845250D02*
X553500Y2895250D01*
X389250Y2788500D02*
X390000Y2789250D01*
X286500Y880750D02*
Y913500D01*
X220035Y183149D02*
Y301526D01*
X328730Y797770D02*
X396000D01*
X303250Y823250D02*
X328730Y797770D01*
X303250Y687250D02*
Y823250D01*
Y919250D01*
X269500Y953000D02*
X303250Y919250D01*
Y687250D02*
X315250Y675250D01*
Y419750D02*
Y536000D01*
Y418500D02*
Y419750D01*
X269750Y953250D02*
X319500D01*
X269500Y953000D02*
X269750Y953250D01*
X279750Y419750D02*
X315250D01*
X315250Y419750D01*
X335980Y397770D02*
X396000D01*
X315250Y418500D02*
X335980Y397770D01*
X213250Y795000D02*
X267500Y740750D01*
X253250Y797750D02*
Y816750D01*
X281250Y657000D02*
Y769750D01*
X253250Y797750D02*
X281250Y769750D01*
X267500Y674250D02*
Y740750D01*
X228500Y561000D02*
X253500Y536000D01*
X228500Y561000D02*
Y635250D01*
X267500Y674250D01*
X273250Y165250D02*
Y194250D01*
X244000Y223500D02*
X273250Y194250D01*
X314752Y168748D02*
Y254248D01*
X229770Y339230D02*
X314752Y254248D01*
X275000Y466500D02*
Y650750D01*
X281250Y657000D01*
X275000Y466500D02*
X294250D01*
X268250D02*
X275000D01*
X315250Y536000D02*
Y675250D01*
X225280Y177720D02*
Y177903D01*
X220035Y183149D02*
X225280Y177903D01*
X229770Y339230D02*
X328770D01*
X263000Y461250D02*
X268250Y466500D01*
X257750Y404000D02*
X263000Y409250D01*
Y461250D01*
X236801Y404000D02*
X257750D01*
X293250Y132250D02*
Y242500D01*
Y132250D02*
X314750Y110750D01*
X2726500Y925750D02*
X2739500Y938750D01*
X2726500Y848000D02*
Y925750D01*
D16*
X3135500Y979250D02*
X3158750Y1002500D01*
X3059250Y3041250D02*
X3158750Y2941750D01*
Y1002500D02*
Y2941750D01*
X3150500Y1138000D02*
Y2935750D01*
X3131600Y1119100D02*
X3150500Y1138000D01*
X3054750Y3031500D02*
X3150500Y2935750D01*
X3140000Y1912000D02*
Y2928500D01*
X3115000Y1887000D02*
X3140000Y1912000D01*
X3045250Y3023250D02*
X3140000Y2928500D01*
X3038500Y3013750D02*
X3130500Y2921750D01*
X3104250Y1891750D02*
X3130500Y1918000D01*
Y2921750D01*
X3073700Y1119100D02*
X3131600D01*
X3111940Y1746690D02*
X3115000Y1749750D01*
X3073700Y1746690D02*
X3111940D01*
X3115000Y1749750D02*
Y1887000D01*
X2975980Y3088210D02*
X2988190Y3076000D01*
X3094250D02*
X3182630Y2987620D01*
X2988190Y3076000D02*
X3094250D01*
X3086250Y3067000D02*
X3177090Y2976160D01*
X2950580Y3088210D02*
X2971790Y3067000D01*
X3086250D01*
X90000Y274500D02*
X152250Y212250D01*
X90000Y274500D02*
Y599500D01*
X802500Y108000D02*
X1033500D01*
X1050750Y90750D01*
X933000Y63000D02*
Y87728D01*
X923228Y97500D02*
X933000Y87728D01*
X922250Y70500D02*
X922500Y70750D01*
Y83500D01*
X918500Y87500D02*
X922500Y83500D01*
X3075750Y2333000D02*
Y2883000D01*
X2997250Y2961500D02*
X3075750Y2883000D01*
X3018250Y2275500D02*
X3075750Y2333000D01*
X2583500Y3073500D02*
X2695500Y2961500D01*
X2997250D01*
X2563500Y3179500D02*
X2583500Y3159500D01*
Y3073500D02*
Y3159500D01*
X3018250Y2075750D02*
X3028500Y2065500D01*
X3060910D01*
X3018250Y2075750D02*
Y2275500D01*
X3060910Y2065500D02*
X3073700Y2078290D01*
X135750Y3179500D02*
X2563500D01*
X97000Y3140750D02*
X135750Y3179500D01*
X97000Y1183000D02*
Y3140750D01*
X54000Y232250D02*
Y1140000D01*
X97000Y1183000D01*
X54000Y232250D02*
X70253Y215997D01*
Y131500D02*
Y215997D01*
X44250Y105497D02*
X70253Y131500D01*
X805750Y97500D02*
X923228D01*
X765250Y57000D02*
X805750Y97500D01*
X44250Y59500D02*
X71000Y32750D01*
X44250Y59500D02*
Y105497D01*
X690250Y57000D02*
X765250D01*
X666000Y32750D02*
X690250Y57000D01*
X71000Y32750D02*
X666000D01*
X3083250Y2329750D02*
Y2891250D01*
X3005250Y2969250D02*
X3083250Y2891250D01*
X3025250Y2271750D02*
X3083250Y2329750D01*
X3033560Y2103690D02*
X3048300D01*
X2592500Y3079000D02*
Y3162754D01*
Y3079000D02*
X2702250Y2969250D01*
X2569084Y3186170D02*
X2592500Y3162754D01*
X3025250Y2112000D02*
Y2271750D01*
Y2112000D02*
X3033560Y2103690D01*
X2702250Y2969250D02*
X3005250D01*
X134585Y3186170D02*
X2569084D01*
X91460Y3143045D02*
X134585Y3186170D01*
X810000Y87500D02*
X918500D01*
X91460Y1191960D02*
Y3143045D01*
X42000Y229750D02*
Y1142500D01*
X91460Y1191960D01*
X42000Y229750D02*
X60000Y211750D01*
Y139250D02*
Y211750D01*
X34250Y113500D02*
X60000Y139250D01*
X770288Y47788D02*
X810000Y87500D01*
X34250Y48500D02*
X62750Y20000D01*
X34250Y48500D02*
Y113500D01*
X693288Y47788D02*
X770288D01*
X665500Y20000D02*
X693288Y47788D01*
X62750Y20000D02*
X665500D01*
X762750Y68250D02*
X802500Y108000D01*
X1536250Y2824500D02*
Y3082500D01*
Y2824500D02*
X1614500Y2746250D01*
X1536250Y3082500D02*
X1625500Y3171750D01*
X2557585D01*
X1558250Y2827250D02*
Y3078750D01*
X1644250Y3164750D02*
X2554250D01*
X1558250Y3078750D02*
X1644250Y3164750D01*
X28750Y939750D02*
Y1142250D01*
X30750Y2354750D02*
X47710Y2371710D01*
X33540Y1975750D02*
Y1976217D01*
X30750Y1979007D02*
X33540Y1976217D01*
X30750Y1979007D02*
Y2354750D01*
X24500Y1769750D02*
Y2365500D01*
Y1769750D02*
X34500Y1759750D01*
X24500Y2365500D02*
X33868Y2374868D01*
X40290Y2176000D02*
Y2349040D01*
X17780Y1579470D02*
X34000Y1563250D01*
X17780Y3099280D02*
X28000Y3109500D01*
X17780Y1579470D02*
Y2565103D01*
X33396D01*
X33750Y2564750D01*
X17780Y2565103D02*
Y3099280D01*
X3061060Y1912250D02*
X3096250D01*
X3110000Y1926000D02*
Y2907500D01*
X3096250Y1912250D02*
X3110000Y1926000D01*
X3104250Y1868250D02*
Y1891750D01*
X3097500Y1861500D02*
X3104250Y1868250D01*
X2998500Y2287250D02*
X3052750Y2341500D01*
X2998500Y1784000D02*
X3010410Y1772090D01*
X2998500Y1784000D02*
Y2287250D01*
X3005000Y1835750D02*
X3017460Y1823290D01*
X3005000Y1835750D02*
Y2283000D01*
X3060500Y2338500D01*
X3011250Y1848000D02*
Y2278500D01*
Y1848000D02*
X3023000Y1836250D01*
X3011250Y2278500D02*
X3068250Y2335500D01*
X3052750Y2341500D02*
Y2608000D01*
X3060500Y2338500D02*
Y2872500D01*
X3068250Y2335500D02*
Y2877750D01*
X3038630Y2622120D02*
X3052750Y2608000D01*
X2985750Y2947250D02*
X3060500Y2872500D01*
X2991750Y2954250D02*
X3068250Y2877750D01*
X2998040Y2622120D02*
X3038630D01*
X3015000Y2987500D02*
X3099000Y2903500D01*
X3088440Y2001690D02*
X3099000Y2012250D01*
Y2903500D01*
X3021250Y2996250D02*
X3110000Y2907500D01*
X3073700Y1874090D02*
X3121250Y1921640D01*
Y2913750D01*
X3063000Y1861500D02*
X3097500D01*
X3030250Y3004750D02*
X3121250Y2913750D01*
X1626875Y2447125D02*
Y2758625D01*
Y2447125D02*
X1735500Y2338500D01*
X1614500Y2433000D02*
X1718250Y2329250D01*
X1614500Y2433000D02*
Y2746250D01*
X1558250Y2827250D02*
X1626875Y2758625D01*
X2565000Y3066500D02*
X2684250Y2947250D01*
X2565000Y3066500D02*
Y3154000D01*
X2684250Y2947250D02*
X2985750D01*
X2554250Y3164750D02*
X2565000Y3154000D01*
X3017460Y1823290D02*
X3048300D01*
X2690750Y2954250D02*
X2991750D01*
X2574750Y3070250D02*
Y3154585D01*
X2557585Y3171750D02*
X2574750Y3154585D01*
Y3070250D02*
X2690750Y2954250D01*
X3061260Y1836250D02*
X3073700Y1848690D01*
X3023000Y1836250D02*
X3061260D01*
X3177090Y951840D02*
Y2976160D01*
X3014750Y3197250D02*
X3199250Y3012750D01*
X3182630Y941380D02*
Y2987620D01*
X3166150Y940900D02*
X3177090Y951840D01*
X3199250Y854000D02*
Y3012750D01*
X3069390Y3113610D02*
X3188170Y2994830D01*
X3166010Y980510D02*
Y2952740D01*
X3151800Y966300D02*
X3166010Y980510D01*
X3004790Y3191710D02*
X3193710Y3002790D01*
Y865710D02*
Y3002790D01*
X3069500Y3049250D02*
X3166010Y2952740D01*
X3171550Y967300D02*
Y2963700D01*
X3077750Y3057500D02*
X3171550Y2963700D01*
X3188170Y929670D02*
Y2994830D01*
X3158000Y953750D02*
X3171550Y967300D01*
X3174000Y915500D02*
X3188170Y929670D01*
X3179698Y851699D02*
X3193710Y865710D01*
X3184150Y838900D02*
X3199250Y854000D01*
X3169500Y928250D02*
X3182630Y941380D01*
X3061250Y979250D02*
X3135500D01*
X3073700Y966300D02*
X3151800D01*
X3061150Y953750D02*
X3158000D01*
X3073700Y940900D02*
X3166150D01*
X3061050Y928250D02*
X3169500D01*
X3073700Y915500D02*
X3174000D01*
X3061099Y851699D02*
X3179698D01*
X3073700Y838900D02*
X3184150D01*
X3010410Y1772090D02*
X3048300D01*
X687750Y68250D02*
X762750D01*
X663000Y43500D02*
X687750Y68250D01*
X674250Y68500D02*
Y162000D01*
X69800Y50950D02*
X656700D01*
X674250Y68500D01*
X75250Y58000D02*
X647250D01*
X660750Y71500D02*
Y169360D01*
X647250Y58000D02*
X660750Y71500D01*
X87660Y43500D02*
X663000D01*
X70500Y62750D02*
X75250Y58000D01*
X47710Y2371710D02*
Y2585540D01*
X42170Y2383934D02*
Y2575580D01*
X40750Y2608500D02*
X53250Y2596000D01*
X34250Y2376014D02*
X42170Y2383934D01*
X40290Y2349040D02*
X53250Y2362000D01*
Y2596000D01*
X25750Y2592000D02*
X42170Y2575580D01*
X32250Y2601000D02*
X47710Y2585540D01*
X2924780Y3060750D02*
X2936280Y3049250D01*
X3069500D01*
X2644580Y3040670D02*
Y3088210D01*
X2707000Y2978250D02*
X3010500D01*
X2644580Y3040670D02*
X2707000Y2978250D01*
X2713250Y2987500D02*
X3015000D01*
X3091120Y2020120D02*
Y2897630D01*
X3010500Y2978250D02*
X3091120Y2897630D01*
X2722250Y2996250D02*
X3021250D01*
X2729500Y3004750D02*
X3030250D01*
X2739250Y3013750D02*
X3038500D01*
X2886114Y3023250D02*
X3045250D01*
X2896429Y3031500D02*
X3054750D01*
X2975980Y3113610D02*
X3069390D01*
X3050410Y1874090D02*
X3063000Y1861500D01*
X3085500Y2014500D02*
X3091120Y2020120D01*
X132290Y3191710D02*
X3004790D01*
X85500Y3144919D02*
X132290Y3191710D01*
X85500Y1199000D02*
Y3144919D01*
X79250Y1208290D02*
Y3146504D01*
X129996Y3197250D01*
X3014750D01*
X87250Y43910D02*
X87660Y43500D01*
X60176Y60574D02*
X69800Y50950D01*
X25750Y2592000D02*
Y3094893D01*
X32250Y2601000D02*
Y3086460D01*
X31000Y3100143D02*
Y3100250D01*
X25750Y3094893D02*
X31000Y3100143D01*
X32250Y3086460D02*
X32790Y3087000D01*
X33272Y3124728D02*
X40750Y3117250D01*
X33272Y3124728D02*
X33272D01*
X40750Y2608500D02*
Y3117250D01*
X33868Y2374868D02*
Y2375632D01*
X3048300Y940900D02*
X3061150Y953750D01*
X3048300Y966300D02*
X3061250Y979250D01*
X3061110Y2014500D02*
X3085500D01*
X3073700Y2001690D02*
X3088440D01*
X3048300D02*
X3061110Y2014500D01*
X2698880Y3113610D02*
X2708250Y3104240D01*
Y3044750D02*
X2739250Y3013750D01*
X2708250Y3044750D02*
Y3104240D01*
X2657250Y3043500D02*
Y3100940D01*
X2644580Y3113610D02*
X2657250Y3100940D01*
Y3043500D02*
X2713250Y2987500D01*
X60176Y71176D02*
X60750Y71750D01*
X60176Y60574D02*
Y71176D01*
X2910000Y3041250D02*
X3059250D01*
X2695380Y3038870D02*
Y3088210D01*
Y3038870D02*
X2729500Y3004750D01*
X2671491Y3047008D02*
Y3086699D01*
Y3047008D02*
X2722250Y2996250D01*
X2860750Y3048614D02*
X2886114Y3023250D01*
X2873980Y3053949D02*
X2896429Y3031500D01*
X2899380Y3051870D02*
X2910000Y3041250D01*
X2937750Y3068250D02*
X2948500Y3057500D01*
X2937750Y3068250D02*
Y3100640D01*
X2948500Y3057500D02*
X3077750D01*
X2899380Y3051870D02*
Y3088210D01*
X21710Y1150750D02*
X79250Y1208290D01*
X28750Y1142250D02*
X85500Y1199000D01*
X674250Y162000D02*
X783000Y270750D01*
X660750Y169360D02*
X769500Y278110D01*
X3048300Y915500D02*
X3061050Y928250D01*
X2924780Y3113610D02*
X2937750Y3100640D01*
X3048300Y838900D02*
X3061099Y851699D01*
X2860750Y3100380D02*
X2873980Y3113610D01*
X2860750Y3048614D02*
Y3100380D01*
X2873980Y3053949D02*
Y3088210D01*
X3048300Y1874090D02*
X3050410D01*
X2695380Y3113610D02*
X2698880D01*
X3048300Y1899490D02*
X3061060Y1912250D01*
X2669980Y3088210D02*
X2671491Y3086699D01*
X2924780Y3060750D02*
Y3088210D01*
X791500Y738250D02*
Y803000D01*
X769500Y716250D02*
X791500Y738250D01*
X769500Y278110D02*
Y716250D01*
X783000Y714750D02*
X806250Y738000D01*
Y802750D01*
X783000Y270750D02*
Y714750D01*
D67*
X2831000Y1396250D02*
Y1397603D01*
X2719250Y1511000D02*
X2828500Y1401750D01*
Y1400103D02*
X2831000Y1397603D01*
X2828500Y1400103D02*
Y1401750D01*
X2626000Y431000D02*
X2715392D01*
X2721250Y425142D01*
X2738110Y982110D02*
X2815860D01*
X2681500Y925500D02*
X2738110Y982110D01*
X2583000Y2308750D02*
X2702460Y2189290D01*
X2583000Y2308750D02*
Y2508500D01*
X2702460Y2189290D02*
X2744960D01*
X2837000Y370478D02*
Y735500D01*
Y370478D02*
X2855918Y351560D01*
X2626000Y1511000D02*
X2719250D01*
X1656679Y2304000D02*
X1775750D01*
X1787750Y2316000D01*
X1653750Y2306929D02*
Y2326450D01*
Y2306929D02*
X1656679Y2304000D01*
X1831500Y2316000D02*
X1851770Y2295730D01*
X1787750Y2316000D02*
X1831500D01*
X1851770Y2295730D02*
X1922350D01*
X1653750Y2326450D02*
X1654580Y2327280D01*
X2713560Y1664048D02*
Y1751690D01*
X2679750Y1785500D02*
X2713560Y1751690D01*
Y1664048D02*
X2719418Y1658190D01*
X2787560D01*
X2626000Y1785500D02*
X2679750D01*
X2779730Y1740730D02*
Y1757540D01*
X2713760Y1823510D02*
X2779730Y1757540D01*
X1532250Y2536750D02*
Y2669500D01*
X1510500Y2691250D02*
X1532250Y2669500D01*
X1481000Y2691250D02*
X1510500D01*
X1358940Y2222870D02*
X1492370D01*
X1532000Y2262500D01*
Y2536750D01*
X2928750Y562750D02*
X2983500D01*
X2997750Y548500D01*
Y471000D02*
Y548500D01*
X2969750Y462250D02*
X2989000D01*
X2997750Y471000D01*
X1288000Y387250D02*
X1313400D01*
X1338800D02*
X1364200D01*
X2146750Y2608750D02*
X2601250D01*
X2093800Y2658950D02*
X2103800Y2648950D01*
X2106550D01*
X2146750Y2608750D01*
X1889020Y1905250D02*
X2218750D01*
X1795350Y1811580D02*
X1889020Y1905250D01*
X2218750D02*
X2446160Y2132660D01*
X2504240Y2074990D02*
X2742760D01*
X2240830Y1811580D02*
X2504240Y2074990D01*
X2035350Y1811580D02*
X2240830D01*
X2446160Y2132660D02*
X2743340D01*
X2652000Y2338960D02*
Y2558000D01*
Y2338960D02*
X2743730Y2247230D01*
X2601250Y2608750D02*
X2652000Y2558000D01*
X1840250Y2552250D02*
X2539250D01*
X2583000Y2508500D01*
X1818800Y2573700D02*
X1840250Y2552250D01*
X1818800Y2573700D02*
Y2658950D01*
X2875250Y487250D02*
X2969750D01*
X2861250Y501250D02*
X2861250D01*
X2875250Y487250D01*
X2818000Y783250D02*
X2839860Y805110D01*
X2812142Y349020D02*
X2818000Y354878D01*
X2796110Y349020D02*
X2812142D01*
X2818000Y354878D02*
Y783250D01*
X2931250Y652250D02*
Y780250D01*
X2886000Y825500D02*
X2931250Y780250D01*
Y652250D02*
X3023500Y560000D01*
X2886000Y825500D02*
Y1202000D01*
X2858750Y626250D02*
Y680500D01*
X2877250Y607750D02*
X2924500D01*
X2858750Y626250D02*
X2877250Y607750D01*
X2858250Y756750D02*
X2903250D01*
X2837000Y735500D02*
X2858250Y756750D01*
X2865410Y1222590D02*
X2886000Y1202000D01*
X2975500Y430000D02*
X2984750Y439250D01*
X2975500Y240000D02*
X2987330Y228170D01*
X2975500Y240000D02*
Y430000D01*
X2984750Y439250D02*
X3017642D01*
X3023500Y445108D02*
Y560000D01*
X3017642Y439250D02*
X3023500Y445108D01*
X2834590Y1222590D02*
X2865410D01*
X2987330Y228170D02*
X3080590D01*
X2762358Y1223090D02*
X2810590D01*
X2745500Y1145500D02*
X2756500Y1156500D01*
Y1217232D01*
X2762358Y1223090D01*
X2626000Y1145500D02*
X2745500D01*
X2839860Y805110D02*
Y981610D01*
X2786500Y1095750D02*
Y1185250D01*
X2692750Y782500D02*
X2750750Y724500D01*
X2681500Y925500D02*
X2692750Y914250D01*
Y782500D02*
Y914250D01*
X3000000Y262250D02*
Y402500D01*
X3012030Y414530D01*
X3046470D01*
X3000000Y262250D02*
X3009080Y253170D01*
X3080590D01*
X2750750Y385500D02*
Y724500D01*
Y385500D02*
X2762230Y374020D01*
X2796110D01*
X2626000Y925500D02*
X2681500D01*
X2721250Y335750D02*
X2739000Y318000D01*
X2721250Y335750D02*
Y425142D01*
X2882470Y376560D02*
X2907642D01*
X2913500Y330000D02*
Y370702D01*
X2907642Y376560D02*
X2913500Y370702D01*
X2901500Y318000D02*
X2913500Y330000D01*
X2739000Y318000D02*
X2901500D01*
X2855918Y351560D02*
X2882470D01*
X2784750Y850750D02*
Y941250D01*
D68*
X1119710Y1235280D02*
D03*
Y1455280D02*
D03*
X1795350Y1811580D02*
D03*
Y2111580D02*
D03*
X2035350Y1811580D02*
D03*
Y2111580D02*
D03*
D69*
X1781380Y573270D02*
D03*
Y393270D02*
D03*
X1591380Y573270D02*
D03*
Y393270D02*
D03*
D70*
X1708990Y2879930D02*
D03*
X1143840Y2436700D02*
D03*
X1226390Y1692480D02*
D03*
X2035380Y2383360D02*
D03*
X1686130Y244680D02*
D03*
X2746580Y220550D02*
D03*
X2035380Y2881200D02*
D03*
X2210640D02*
D03*
X1877900Y2879930D02*
D03*
D71*
X2416380Y2738600D02*
D03*
Y2398600D02*
D03*
D72*
X1263220Y2990820D02*
D03*
X1359730Y1684860D02*
D03*
X1171780D02*
D03*
X1679580Y2327280D02*
D03*
X820250Y881250D02*
D03*
X1646850Y176100D02*
D03*
X1646760Y112600D02*
D03*
X2969750Y487250D02*
D03*
X3046470Y414530D02*
D03*
Y389530D02*
D03*
Y339530D02*
D03*
Y314530D02*
D03*
X3136470Y414530D02*
D03*
Y389530D02*
D03*
Y364530D02*
D03*
Y339530D02*
D03*
Y314530D02*
D03*
X2999780Y168310D02*
D03*
X2974780D02*
D03*
X2924780D02*
D03*
X2899780D02*
D03*
X2999780Y78310D02*
D03*
X2974780D02*
D03*
X2949780D02*
D03*
X2924780D02*
D03*
X2899780D02*
D03*
X3080590Y253170D02*
D03*
X2796110Y374020D02*
D03*
X2882470Y376560D02*
D03*
X762840Y2970500D02*
D03*
Y2855800D02*
D03*
Y2641370D02*
D03*
X1263220Y2579140D02*
D03*
X2144600Y244680D02*
D03*
X1263220Y2702330D02*
D03*
Y2843500D02*
D03*
X2062050Y244680D02*
D03*
X2595000Y975536D02*
D03*
X1480250Y203750D02*
D03*
Y182214D02*
D03*
X1539500Y243250D02*
D03*
X1517964D02*
D03*
X1578750Y186500D02*
D03*
Y208036D02*
D03*
X1521000Y145750D02*
D03*
X1542536D02*
D03*
X1857750Y146750D02*
D03*
X1879286D02*
D03*
X1915750Y210750D02*
D03*
Y189214D02*
D03*
X1875250Y246250D02*
D03*
X1853714D02*
D03*
X1816500Y186500D02*
D03*
Y208036D02*
D03*
X1569250Y381000D02*
D03*
Y402536D02*
D03*
X1612500Y381500D02*
D03*
Y403036D02*
D03*
X1803750Y383250D02*
D03*
Y404786D02*
D03*
X1760000Y381750D02*
D03*
Y403286D02*
D03*
X1570000Y563000D02*
D03*
Y584536D02*
D03*
X1612500Y563750D02*
D03*
Y585286D02*
D03*
X1802750Y564500D02*
D03*
Y586036D02*
D03*
X1759000Y562750D02*
D03*
Y584286D02*
D03*
X1655500Y1282250D02*
D03*
Y1303786D02*
D03*
X1585000Y1281000D02*
D03*
Y1302536D02*
D03*
X1655500Y1419000D02*
D03*
X1655250Y1404250D02*
D03*
X2631214Y1816250D02*
D03*
X2609679D02*
D03*
X2653036Y1836500D02*
D03*
X2609964D02*
D03*
X2652750Y1816250D02*
D03*
X2631500Y1836500D02*
D03*
X2655750Y975036D02*
D03*
Y953500D02*
D03*
X2595000Y954000D02*
D03*
X2619750Y350000D02*
D03*
X2641286D02*
D03*
X2558000Y378500D02*
D03*
X2557750Y357750D02*
D03*
X2651750Y440786D02*
D03*
Y419250D02*
D03*
X2601250Y441536D02*
D03*
Y420000D02*
D03*
X2581000Y442036D02*
D03*
Y420500D02*
D03*
X2557250Y251321D02*
D03*
Y272857D02*
D03*
X2557500Y294250D02*
D03*
Y315786D02*
D03*
Y337321D02*
D03*
X2557750Y398286D02*
D03*
Y419821D02*
D03*
Y441357D02*
D03*
X2632250Y546250D02*
D03*
X2653000Y546000D02*
D03*
X2610000D02*
D03*
X2632250Y527500D02*
D03*
X2653000Y527250D02*
D03*
X2610000D02*
D03*
X2631750Y508750D02*
D03*
X2652500Y508500D02*
D03*
X2609500D02*
D03*
X2547750Y547607D02*
D03*
Y526071D02*
D03*
Y504536D02*
D03*
Y483000D02*
D03*
X2590750D02*
D03*
Y504536D02*
D03*
Y526071D02*
D03*
Y547607D02*
D03*
X2570000Y483250D02*
D03*
Y504786D02*
D03*
Y526321D02*
D03*
Y547857D02*
D03*
X2636750Y668250D02*
D03*
X2615214D02*
D03*
X2635500Y633500D02*
D03*
X2613964D02*
D03*
X2654750Y639250D02*
D03*
Y660786D02*
D03*
X2592250Y639750D02*
D03*
Y661286D02*
D03*
X2548750Y662857D02*
D03*
Y641321D02*
D03*
Y619786D02*
D03*
Y598250D02*
D03*
X2569500Y662607D02*
D03*
Y641071D02*
D03*
Y619536D02*
D03*
Y598000D02*
D03*
X2652750Y771500D02*
D03*
X2631214D02*
D03*
X2609679D02*
D03*
X2652750Y751750D02*
D03*
X2631214D02*
D03*
X2609679D02*
D03*
X2652750Y732250D02*
D03*
X2631214D02*
D03*
X2609679D02*
D03*
X2547000Y704750D02*
D03*
Y726286D02*
D03*
Y747821D02*
D03*
Y769357D02*
D03*
X2568250Y769107D02*
D03*
Y747571D02*
D03*
Y726036D02*
D03*
Y704500D02*
D03*
X2589000Y768857D02*
D03*
Y747321D02*
D03*
Y725786D02*
D03*
Y704250D02*
D03*
X2636750Y851750D02*
D03*
X2618000Y851500D02*
D03*
X2654750Y855250D02*
D03*
X2654250Y875250D02*
D03*
X2593750Y875750D02*
D03*
X2593250Y856000D02*
D03*
X2569750Y810750D02*
D03*
Y832286D02*
D03*
Y853821D02*
D03*
Y875357D02*
D03*
X2549000Y811000D02*
D03*
Y832536D02*
D03*
Y854071D02*
D03*
Y875607D02*
D03*
X2613964Y1176750D02*
D03*
X2635500D02*
D03*
X2583750Y1178500D02*
D03*
Y1156964D02*
D03*
X2563500Y1178786D02*
D03*
Y1157250D02*
D03*
X2612500Y1247857D02*
D03*
Y1269393D02*
D03*
Y1226321D02*
D03*
Y1204786D02*
D03*
X2632750Y1204500D02*
D03*
Y1247571D02*
D03*
Y1269107D02*
D03*
Y1226036D02*
D03*
X2561000Y1248857D02*
D03*
Y1270393D02*
D03*
Y1227321D02*
D03*
Y1205786D02*
D03*
X2581250Y1205500D02*
D03*
Y1248571D02*
D03*
Y1270107D02*
D03*
Y1227036D02*
D03*
X2649000Y1077250D02*
D03*
X2648500Y1106500D02*
D03*
X2603500Y1106000D02*
D03*
X2599750Y1076750D02*
D03*
X2589250Y922500D02*
D03*
X2569000Y922786D02*
D03*
X2615000Y953286D02*
D03*
Y974821D02*
D03*
X2635250Y953000D02*
D03*
Y974536D02*
D03*
X2574250Y1010071D02*
D03*
Y967000D02*
D03*
Y988536D02*
D03*
Y1053143D02*
D03*
Y1096214D02*
D03*
Y945464D02*
D03*
Y1074678D02*
D03*
Y1031607D02*
D03*
X2554000Y1031893D02*
D03*
Y1010357D02*
D03*
Y1053428D02*
D03*
Y1096500D02*
D03*
Y1074964D02*
D03*
Y988821D02*
D03*
Y967286D02*
D03*
Y945750D02*
D03*
X1942500Y221250D02*
D03*
X1944750Y201750D02*
D03*
X1945000Y181250D02*
D03*
X1939000Y162250D02*
D03*
X1890750Y126500D02*
D03*
X1936250Y238750D02*
D03*
X1923500Y255000D02*
D03*
X1902500Y266000D02*
D03*
X1788250Y208500D02*
D03*
X1792250Y232500D02*
D03*
X1805000Y252000D02*
D03*
X1826000Y265250D02*
D03*
X1872750Y271000D02*
D03*
X1787250Y184750D02*
D03*
X2000500Y202643D02*
D03*
Y181107D02*
D03*
Y224179D02*
D03*
Y267250D02*
D03*
Y245714D02*
D03*
Y159571D02*
D03*
Y138036D02*
D03*
Y116500D02*
D03*
X1974750Y201393D02*
D03*
Y179857D02*
D03*
Y222929D02*
D03*
Y266000D02*
D03*
Y244464D02*
D03*
Y158321D02*
D03*
Y136786D02*
D03*
Y115250D02*
D03*
X1925250Y147750D02*
D03*
X1909250Y135750D02*
D03*
X1851500Y127250D02*
D03*
X1527214Y123500D02*
D03*
X1800750Y160750D02*
D03*
X1813500Y143500D02*
D03*
X1829000Y129500D02*
D03*
X1577250Y252250D02*
D03*
X1455750Y239500D02*
D03*
X1476000Y244500D02*
D03*
X1460250Y156000D02*
D03*
X1470750Y141250D02*
D03*
X1485500Y132000D02*
D03*
X1597500Y131500D02*
D03*
X1575750Y135500D02*
D03*
X1591000Y150750D02*
D03*
X1505679Y123500D02*
D03*
X1548750D02*
D03*
X1457250Y216321D02*
D03*
Y194786D02*
D03*
Y173250D02*
D03*
X1022250Y890500D02*
D03*
X1074500D02*
D03*
X1047750D02*
D03*
X996250D02*
D03*
X970750Y664000D02*
D03*
X996750D02*
D03*
X1022250D02*
D03*
X1076000Y624500D02*
D03*
X1050000D02*
D03*
X1023250D02*
D03*
X997750D02*
D03*
X971750D02*
D03*
X969750Y702214D02*
D03*
X995750D02*
D03*
X1021250D02*
D03*
X1048000D02*
D03*
X1074000D02*
D03*
X1171250Y1048250D02*
D03*
X1195500Y1048000D02*
D03*
X1168500Y990250D02*
D03*
X1192750Y990000D02*
D03*
X1169500Y927500D02*
D03*
X1193750Y927250D02*
D03*
X1168250Y867500D02*
D03*
X1192500Y867250D02*
D03*
X1192000Y741750D02*
D03*
X1167750Y742000D02*
D03*
X1192000Y806500D02*
D03*
X1167750Y806750D02*
D03*
X1169000Y681500D02*
D03*
X1193250Y681250D02*
D03*
X1272250Y1081857D02*
D03*
Y1103393D02*
D03*
Y1060322D02*
D03*
Y1017250D02*
D03*
Y1038786D02*
D03*
Y1124929D02*
D03*
X1245000Y1078607D02*
D03*
Y1100143D02*
D03*
Y1057072D02*
D03*
Y1014000D02*
D03*
Y1035536D02*
D03*
Y1121679D02*
D03*
X1216750Y1058357D02*
D03*
Y1079893D02*
D03*
Y1036822D02*
D03*
Y993750D02*
D03*
Y1015286D02*
D03*
Y1101429D02*
D03*
Y1122964D02*
D03*
X1217500Y884607D02*
D03*
Y906143D02*
D03*
Y863072D02*
D03*
Y820000D02*
D03*
Y841536D02*
D03*
Y927679D02*
D03*
Y949214D02*
D03*
Y970750D02*
D03*
X1244750Y906607D02*
D03*
Y928143D02*
D03*
Y885071D02*
D03*
Y842000D02*
D03*
Y863536D02*
D03*
Y949679D02*
D03*
Y971214D02*
D03*
Y992750D02*
D03*
X1271000Y910107D02*
D03*
Y931643D02*
D03*
Y888571D02*
D03*
Y845500D02*
D03*
Y867036D02*
D03*
Y953179D02*
D03*
Y974714D02*
D03*
Y996250D02*
D03*
X1270750Y734107D02*
D03*
Y755643D02*
D03*
Y712571D02*
D03*
Y669500D02*
D03*
Y691036D02*
D03*
Y777179D02*
D03*
Y798714D02*
D03*
Y820250D02*
D03*
X1244750Y731607D02*
D03*
Y753143D02*
D03*
Y710071D02*
D03*
Y667000D02*
D03*
Y688536D02*
D03*
Y774679D02*
D03*
Y796214D02*
D03*
Y817750D02*
D03*
X1218000Y709857D02*
D03*
Y731393D02*
D03*
Y688322D02*
D03*
Y645250D02*
D03*
Y666786D02*
D03*
Y752929D02*
D03*
Y774464D02*
D03*
Y796000D02*
D03*
X1427250Y1525786D02*
D03*
Y1504250D02*
D03*
Y1547321D02*
D03*
Y1418107D02*
D03*
Y1439643D02*
D03*
Y1568857D02*
D03*
Y1482714D02*
D03*
Y1461179D02*
D03*
X1459750Y1482107D02*
D03*
Y1503643D02*
D03*
Y1460571D02*
D03*
Y1417500D02*
D03*
Y1439036D02*
D03*
Y1525179D02*
D03*
Y1546714D02*
D03*
Y1568250D02*
D03*
X1489750Y1490857D02*
D03*
Y1512393D02*
D03*
Y1469321D02*
D03*
Y1426250D02*
D03*
Y1447786D02*
D03*
Y1533929D02*
D03*
Y1555464D02*
D03*
Y1577000D02*
D03*
X1517500Y1533179D02*
D03*
Y1468571D02*
D03*
Y1554714D02*
D03*
Y1447036D02*
D03*
Y1576250D02*
D03*
X1551250Y1534928D02*
D03*
Y1556464D02*
D03*
X1517500Y1490107D02*
D03*
X1551250Y1470321D02*
D03*
X1517500Y1511643D02*
D03*
X1551250Y1448786D02*
D03*
Y1513393D02*
D03*
X1517500Y1425500D02*
D03*
X1551250Y1578000D02*
D03*
Y1491857D02*
D03*
Y1427250D02*
D03*
X1689393Y2946500D02*
D03*
X1667857D02*
D03*
X1710929D02*
D03*
X1754000D02*
D03*
X1732464D02*
D03*
X1688643Y2920000D02*
D03*
X1667107D02*
D03*
X1710179D02*
D03*
X1753250D02*
D03*
X1731714D02*
D03*
X2197143Y2837250D02*
D03*
X2175607D02*
D03*
X2218679D02*
D03*
X2261750D02*
D03*
X2240214D02*
D03*
X2025393Y2839000D02*
D03*
X2003857D02*
D03*
X2046929D02*
D03*
X2090000D02*
D03*
X2068464D02*
D03*
X2133750Y2209321D02*
D03*
Y2252393D02*
D03*
Y2230857D02*
D03*
Y2187786D02*
D03*
Y2166250D02*
D03*
X2106143Y2123250D02*
D03*
X2084607D02*
D03*
X2127679D02*
D03*
X2170750D02*
D03*
X2149214D02*
D03*
X2059214Y2176750D02*
D03*
X2080750D02*
D03*
X2037679D02*
D03*
X1994607D02*
D03*
X2016143D02*
D03*
X1995607Y2151750D02*
D03*
X2038679D02*
D03*
X2017143D02*
D03*
X2081750D02*
D03*
X2060214D02*
D03*
X1381496Y1150123D02*
D03*
X1360496Y1128123D02*
D03*
X1434496Y1156623D02*
D03*
X1416746Y1138623D02*
D03*
X1399746Y1117873D02*
D03*
X1381496Y1097873D02*
D03*
X1682000Y2161643D02*
D03*
Y2140107D02*
D03*
Y2183179D02*
D03*
Y2226250D02*
D03*
Y2204714D02*
D03*
X1755143Y2163750D02*
D03*
X1733607D02*
D03*
X1776679D02*
D03*
X1819750D02*
D03*
X1798214D02*
D03*
X1758893Y2192000D02*
D03*
X1737357D02*
D03*
X1780429D02*
D03*
X1823500D02*
D03*
X1801964D02*
D03*
X1758143Y2219000D02*
D03*
X1736607D02*
D03*
X1779679D02*
D03*
X1822750D02*
D03*
X1801214D02*
D03*
X1557500Y616000D02*
D03*
X1593750Y628250D02*
D03*
X1572464D02*
D03*
X1548750Y552464D02*
D03*
Y595536D02*
D03*
Y574000D02*
D03*
X1361000Y850500D02*
D03*
Y828964D02*
D03*
Y807429D02*
D03*
Y721286D02*
D03*
Y699750D02*
D03*
Y742822D02*
D03*
Y785893D02*
D03*
Y764357D02*
D03*
Y1079500D02*
D03*
Y1057964D02*
D03*
Y1036429D02*
D03*
Y950286D02*
D03*
Y928750D02*
D03*
Y971822D02*
D03*
Y1014893D02*
D03*
Y993357D02*
D03*
X1542750Y1177750D02*
D03*
X1521214D02*
D03*
X1499679D02*
D03*
X1435072D02*
D03*
X1478143D02*
D03*
X1456607D02*
D03*
X1543750Y1203500D02*
D03*
X1522214D02*
D03*
X1500679D02*
D03*
X1436071D02*
D03*
X1479143D02*
D03*
X1457607D02*
D03*
X1544750Y1227750D02*
D03*
X1523214D02*
D03*
X1501679D02*
D03*
X1437072D02*
D03*
X1480143D02*
D03*
X1458607D02*
D03*
X1544750Y1252000D02*
D03*
X1523214D02*
D03*
X1501679D02*
D03*
X1437072D02*
D03*
X1480143D02*
D03*
X1458607D02*
D03*
X1544750Y1274250D02*
D03*
X1523214D02*
D03*
X1501679D02*
D03*
X1437072D02*
D03*
X1480143D02*
D03*
X1458607D02*
D03*
X1544750Y1299000D02*
D03*
X1523214D02*
D03*
X1501679D02*
D03*
X1437072D02*
D03*
X1480143D02*
D03*
X1458607D02*
D03*
X1462750Y265500D02*
D03*
Y287036D02*
D03*
Y308571D02*
D03*
Y394714D02*
D03*
Y416250D02*
D03*
Y373178D02*
D03*
Y330107D02*
D03*
Y351643D02*
D03*
X1549500Y268000D02*
D03*
Y289536D02*
D03*
Y311071D02*
D03*
Y397214D02*
D03*
Y418750D02*
D03*
Y375678D02*
D03*
Y332607D02*
D03*
Y354143D02*
D03*
X1850000Y285750D02*
D03*
Y307286D02*
D03*
Y328821D02*
D03*
Y414964D02*
D03*
Y436500D02*
D03*
Y393428D02*
D03*
Y350357D02*
D03*
Y371893D02*
D03*
X1890750Y287500D02*
D03*
Y309036D02*
D03*
Y330571D02*
D03*
Y416714D02*
D03*
Y438250D02*
D03*
Y395178D02*
D03*
Y352107D02*
D03*
Y373643D02*
D03*
X1930500Y289750D02*
D03*
Y311286D02*
D03*
Y332821D02*
D03*
Y418964D02*
D03*
Y440500D02*
D03*
Y397429D02*
D03*
Y354357D02*
D03*
Y375893D02*
D03*
X1967500Y291000D02*
D03*
Y312536D02*
D03*
Y334071D02*
D03*
Y420214D02*
D03*
Y441750D02*
D03*
Y398679D02*
D03*
Y355607D02*
D03*
Y377143D02*
D03*
X2000000Y289750D02*
D03*
Y311286D02*
D03*
Y332821D02*
D03*
Y418964D02*
D03*
Y440500D02*
D03*
Y397429D02*
D03*
Y354357D02*
D03*
Y375893D02*
D03*
X1601750Y167750D02*
D03*
Y189286D02*
D03*
Y210821D02*
D03*
Y296964D02*
D03*
Y318500D02*
D03*
Y275429D02*
D03*
Y232357D02*
D03*
Y253893D02*
D03*
X1524750Y267250D02*
D03*
Y288786D02*
D03*
Y310321D02*
D03*
Y396464D02*
D03*
Y418000D02*
D03*
Y374929D02*
D03*
Y331857D02*
D03*
Y353393D02*
D03*
X1493500Y268000D02*
D03*
Y289536D02*
D03*
Y311071D02*
D03*
Y397214D02*
D03*
Y418750D02*
D03*
Y375678D02*
D03*
Y332607D02*
D03*
Y354143D02*
D03*
X3061250Y1494500D02*
D03*
X3181500Y512250D02*
D03*
X3200750Y483500D02*
D03*
X2831000Y1396250D02*
D03*
X2941000Y1816000D02*
D03*
X1130750Y376500D02*
D03*
X548750Y2633750D02*
D03*
X552750Y2676250D02*
D03*
X1481000Y2691250D02*
D03*
X1532000Y2536750D02*
D03*
X1480250Y2551500D02*
D03*
X2797000Y81000D02*
D03*
X123500Y111750D02*
D03*
X146000Y115750D02*
D03*
X2928750Y562750D02*
D03*
X1103750Y376750D02*
D03*
X738250Y120750D02*
D03*
X739250Y151250D02*
D03*
X1326000Y482000D02*
D03*
X388000Y2875500D02*
D03*
X434000Y2912750D02*
D03*
X471500D02*
D03*
X1217750Y3063170D02*
D03*
X1239250Y3063500D02*
D03*
X1261750Y3063000D02*
D03*
X1481500Y2974000D02*
D03*
X255750Y3014750D02*
D03*
X235500D02*
D03*
X215250Y3014500D02*
D03*
X453000Y2913000D02*
D03*
X1478250Y2827000D02*
D03*
X320250Y3017250D02*
D03*
X360000D02*
D03*
X340250Y3017500D02*
D03*
X349750Y2875500D02*
D03*
X368750Y2876250D02*
D03*
X369250Y2789000D02*
D03*
X390000Y2789250D02*
D03*
X349250Y2790000D02*
D03*
X554000Y2817250D02*
D03*
X551940Y2855560D02*
D03*
X553500Y2895250D02*
D03*
X556000Y2935750D02*
D03*
X554750Y2965000D02*
D03*
X556000Y3015750D02*
D03*
X557000Y2589750D02*
D03*
X248000Y588500D02*
D03*
X2743730Y2247230D02*
D03*
X2744960Y2189290D02*
D03*
X2743340Y2132660D02*
D03*
X2742760Y2074990D02*
D03*
X2787560Y1658190D02*
D03*
X2713760Y1823510D02*
D03*
X2779730Y1740730D02*
D03*
X2903250Y756750D02*
D03*
X2834590Y1222590D02*
D03*
X2858750Y680500D02*
D03*
X2861250Y501250D02*
D03*
X2839860Y981610D02*
D03*
D73*
X1263220Y3015820D02*
D03*
X820250Y856250D02*
D03*
X2969750Y462250D02*
D03*
X3080590Y228170D02*
D03*
X2796110Y349020D02*
D03*
X2882470Y351560D02*
D03*
X762840Y2995500D02*
D03*
Y2880800D02*
D03*
Y2666370D02*
D03*
X1263220Y2604140D02*
D03*
Y2727330D02*
D03*
Y2868500D02*
D03*
D74*
X2626000Y485500D02*
D03*
Y431000D02*
D03*
Y376500D02*
D03*
Y705500D02*
D03*
Y651000D02*
D03*
Y596500D02*
D03*
Y925500D02*
D03*
Y871000D02*
D03*
Y816500D02*
D03*
Y1036500D02*
D03*
Y1091000D02*
D03*
Y1145500D02*
D03*
Y1565500D02*
D03*
Y1511000D02*
D03*
Y1456500D02*
D03*
Y1676500D02*
D03*
Y1731000D02*
D03*
Y1785500D02*
D03*
Y1896500D02*
D03*
Y1951000D02*
D03*
Y2005500D02*
D03*
X396000Y906770D02*
D03*
Y197770D02*
D03*
Y452270D02*
D03*
Y2452270D02*
D03*
Y2197770D02*
D03*
Y1997770D02*
D03*
Y1306770D02*
D03*
Y1252270D02*
D03*
Y1197770D02*
D03*
Y2506770D02*
D03*
Y2397770D02*
D03*
Y2306770D02*
D03*
Y2252270D02*
D03*
Y1506770D02*
D03*
Y1452270D02*
D03*
Y1397770D02*
D03*
Y706770D02*
D03*
Y652270D02*
D03*
Y597770D02*
D03*
Y306770D02*
D03*
Y252270D02*
D03*
Y1106770D02*
D03*
Y1052270D02*
D03*
Y997770D02*
D03*
Y1906770D02*
D03*
Y1852270D02*
D03*
Y1797770D02*
D03*
Y1706770D02*
D03*
Y1652270D02*
D03*
Y1597770D02*
D03*
Y506770D02*
D03*
Y397770D02*
D03*
Y852270D02*
D03*
Y797770D02*
D03*
Y2106770D02*
D03*
Y2052270D02*
D03*
D75*
X1336880Y1855840D02*
D03*
X984620Y2141590D02*
D03*
X1358940Y2222870D02*
D03*
X877940Y1832180D02*
D03*
D76*
X1336880Y1955840D02*
D03*
X984620Y2241590D02*
D03*
X1358940Y2322870D02*
D03*
D77*
X2064880Y1444580D02*
D03*
Y1254580D02*
D03*
D78*
X2054880Y1224580D02*
D03*
Y1474580D02*
D03*
D79*
X1609880Y1549580D02*
D03*
Y1239580D02*
D03*
D80*
X1619880Y1409580D02*
D03*
Y1289580D02*
D03*
D81*
X977940Y1832180D02*
D03*
D82*
X1279730Y1684860D02*
D03*
X1091780D02*
D03*
X1731850Y176100D02*
D03*
X1731760Y112600D02*
D03*
D83*
X1692500Y1184750D02*
D03*
Y1144750D02*
D03*
D84*
X2924780Y3088210D02*
D03*
X2975980D02*
D03*
Y3113610D02*
D03*
X2950580Y3088210D02*
D03*
Y3113610D02*
D03*
X2924780D02*
D03*
X2899380Y3088210D02*
D03*
Y3113610D02*
D03*
X2873980Y3088210D02*
D03*
Y3113610D02*
D03*
X2848580Y3088210D02*
D03*
Y3113610D02*
D03*
X2720780Y3088210D02*
D03*
X2822780Y3113610D02*
D03*
X2797380D02*
D03*
X2822780Y3088210D02*
D03*
X2797380D02*
D03*
X2771980D02*
D03*
Y3113610D02*
D03*
X2746580Y3088210D02*
D03*
Y3113610D02*
D03*
X2720780D02*
D03*
X2695380Y3088210D02*
D03*
Y3113610D02*
D03*
X2669980Y3088210D02*
D03*
Y3113610D02*
D03*
X2644580Y3088210D02*
D03*
Y3113610D02*
D03*
X2619180D02*
D03*
X3073700Y1644690D02*
D03*
X3048300D02*
D03*
X3073700Y1670090D02*
D03*
X3048300D02*
D03*
X3073700Y1797890D02*
D03*
X3048300Y1695890D02*
D03*
Y1721290D02*
D03*
X3073700Y1695890D02*
D03*
Y1721290D02*
D03*
Y1746690D02*
D03*
X3048300D02*
D03*
X3073700Y1772090D02*
D03*
X3048300D02*
D03*
Y1797890D02*
D03*
X3073700Y1823290D02*
D03*
X3048300D02*
D03*
X3073700Y1848690D02*
D03*
X3048300D02*
D03*
X3073700Y1874090D02*
D03*
X3048300D02*
D03*
Y1899490D02*
D03*
X3073700Y1950890D02*
D03*
Y1899690D02*
D03*
Y1925090D02*
D03*
X3048300D02*
D03*
Y1950890D02*
D03*
X3073700Y1976290D02*
D03*
X3048300D02*
D03*
X3073700Y2001690D02*
D03*
X3048300D02*
D03*
X3073700Y2027090D02*
D03*
X3048300D02*
D03*
X3073700Y2154890D02*
D03*
X3048300Y2052890D02*
D03*
Y2078290D02*
D03*
X3073700Y2052890D02*
D03*
Y2078290D02*
D03*
Y2103690D02*
D03*
X3048300D02*
D03*
X3073700Y2129090D02*
D03*
X3048300D02*
D03*
Y2154890D02*
D03*
X3073700Y2180290D02*
D03*
X3048300D02*
D03*
X3073700Y2205690D02*
D03*
X3048300D02*
D03*
X3073700Y2231090D02*
D03*
X3048300D02*
D03*
Y2256490D02*
D03*
X3073700Y813500D02*
D03*
Y762300D02*
D03*
X3048300D02*
D03*
X3073700Y787700D02*
D03*
X3048300D02*
D03*
Y813500D02*
D03*
X3073700Y838900D02*
D03*
X3048300D02*
D03*
X3073700Y864300D02*
D03*
X3048300D02*
D03*
X3073700Y889700D02*
D03*
X3048300D02*
D03*
X3073700Y1017500D02*
D03*
X3048300Y915500D02*
D03*
Y940900D02*
D03*
X3073700Y915500D02*
D03*
Y940900D02*
D03*
Y966300D02*
D03*
X3048300D02*
D03*
X3073700Y991700D02*
D03*
X3048300D02*
D03*
Y1017500D02*
D03*
X3073700Y1042900D02*
D03*
X3048300D02*
D03*
X3073700Y1068300D02*
D03*
X3048300D02*
D03*
X3073700Y1093700D02*
D03*
X3048300D02*
D03*
Y1119100D02*
D03*
D85*
X2619180Y3088210D02*
D03*
D86*
X1654580Y2327280D02*
D03*
D87*
X2998040Y2596720D02*
D03*
D88*
Y2622120D02*
D03*
X163900Y2976000D02*
D03*
D89*
X1927430Y610440D02*
D03*
Y826340D02*
D03*
X1879170D02*
D03*
Y718390D02*
D03*
X1927430D02*
D03*
X1561670D02*
D03*
Y827610D02*
D03*
X1059610Y289590D02*
D03*
X849610Y664590D02*
D03*
Y289590D02*
D03*
X1927430Y935560D02*
D03*
X1879550D02*
D03*
X1561670Y936240D02*
D03*
D90*
X2062430Y610440D02*
D03*
Y826340D02*
D03*
X1744170D02*
D03*
Y718390D02*
D03*
X2062430D02*
D03*
X1696670D02*
D03*
Y827610D02*
D03*
X2062430Y935560D02*
D03*
X1744550D02*
D03*
X1696670Y936240D02*
D03*
D91*
X893650Y791288D02*
D03*
Y829388D02*
D03*
Y810592D02*
D03*
Y772492D02*
D03*
X1922350Y2333830D02*
D03*
Y2295730D02*
D03*
Y2314526D02*
D03*
Y2352626D02*
D03*
D92*
X1046050Y737440D02*
D03*
X995250Y864440D02*
D03*
X1020650Y737440D02*
D03*
Y864440D02*
D03*
X1071450Y737440D02*
D03*
X1046050Y864440D02*
D03*
X1071450D02*
D03*
X995250Y737440D02*
D03*
X1769950Y2387678D02*
D03*
X1820750Y2260678D02*
D03*
X1795350Y2387678D02*
D03*
Y2260678D02*
D03*
X1744550Y2387678D02*
D03*
X1769950Y2260678D02*
D03*
X1744550D02*
D03*
X1820750Y2387678D02*
D03*
D93*
X1059610Y664590D02*
D03*
D94*
X1180670Y400960D02*
D03*
X1885450Y2469720D02*
D03*
X2134510Y2284300D02*
D03*
D95*
X1180670Y250960D02*
D03*
D96*
X1338800Y387250D02*
D03*
X1313400D02*
D03*
X1364200D02*
D03*
D97*
X1288000D02*
D03*
D98*
X138500Y2976000D02*
D03*
D99*
X615520Y2745310D02*
D03*
D100*
Y2770710D02*
D03*
D101*
X930480Y2693170D02*
D03*
D102*
X1179930Y1019380D02*
D03*
Y897037D02*
D03*
Y774693D02*
D03*
Y652350D02*
D03*
X1818800Y2658950D02*
D03*
D103*
X1110480Y2693170D02*
D03*
X930480Y2793170D02*
D03*
Y2718170D02*
D03*
Y2768170D02*
D03*
Y2868170D02*
D03*
Y2843170D02*
D03*
Y2818170D02*
D03*
Y2918170D02*
D03*
Y2893170D02*
D03*
Y2943170D02*
D03*
X1110480Y2793170D02*
D03*
Y2718170D02*
D03*
Y2768170D02*
D03*
Y2868170D02*
D03*
Y2843170D02*
D03*
Y2918170D02*
D03*
Y2943170D02*
D03*
D104*
X1404930Y1019380D02*
D03*
X2093800Y2658950D02*
D03*
X1404930Y897037D02*
D03*
Y774693D02*
D03*
Y652350D02*
D03*
D105*
X2144600Y159680D02*
D03*
X2062050D02*
D03*
D106*
X3073700Y2256490D02*
D03*
Y1119100D02*
D03*
D107*
X1529920Y193880D02*
D03*
X1865200Y196420D02*
D03*
D108*
X2035450Y2469720D02*
D03*
X1984510Y2284300D02*
D03*
D109*
X253500Y696500D02*
D03*
X207500Y560000D02*
D03*
X306750Y2379750D02*
D03*
X2050430Y610940D02*
D03*
Y598940D02*
D03*
X2062430D02*
D03*
X2051430Y621940D02*
D03*
X2062430D02*
D03*
X2074430D02*
D03*
Y610940D02*
D03*
Y598940D02*
D03*
Y814840D02*
D03*
Y826840D02*
D03*
Y837840D02*
D03*
X2062430D02*
D03*
X2051430D02*
D03*
X2062430Y814840D02*
D03*
X2050430D02*
D03*
Y826840D02*
D03*
X1732170Y837840D02*
D03*
Y825840D02*
D03*
Y814840D02*
D03*
X1744170D02*
D03*
X1755170D02*
D03*
X1744170Y837840D02*
D03*
X1756170D02*
D03*
Y825840D02*
D03*
Y717890D02*
D03*
Y729890D02*
D03*
X1744170D02*
D03*
X1755170Y706890D02*
D03*
X1744170D02*
D03*
X1732170D02*
D03*
Y717890D02*
D03*
Y729890D02*
D03*
X2050430Y718890D02*
D03*
Y706890D02*
D03*
X2062430D02*
D03*
X2051430Y729890D02*
D03*
X2062430D02*
D03*
X2074430D02*
D03*
Y718890D02*
D03*
Y706890D02*
D03*
X1684670Y718890D02*
D03*
Y706890D02*
D03*
X1696670D02*
D03*
X1685670Y729890D02*
D03*
X1696670D02*
D03*
X1708670D02*
D03*
Y718890D02*
D03*
Y706890D02*
D03*
X1684670Y828110D02*
D03*
Y816110D02*
D03*
X1696670D02*
D03*
X1685670Y839110D02*
D03*
X1696670D02*
D03*
X1708670D02*
D03*
Y828110D02*
D03*
Y816110D02*
D03*
X1531250Y3128000D02*
D03*
X1097000Y94250D02*
D03*
X1021750Y172250D02*
D03*
X1050750Y90750D02*
D03*
X1324000Y99000D02*
D03*
X3166750Y462500D02*
D03*
X3129750Y490250D02*
D03*
Y579750D02*
D03*
X1718250Y2329250D02*
D03*
X1761750Y2326250D02*
D03*
X1735500Y2338500D02*
D03*
X1553000Y3128000D02*
D03*
X888750Y64750D02*
D03*
X866500Y65250D02*
D03*
X2761500Y1817000D02*
D03*
X2762474Y1870323D02*
D03*
X1482000Y2747250D02*
D03*
Y2667500D02*
D03*
X1852750Y2334500D02*
D03*
X1234000Y86750D02*
D03*
X213250Y952250D02*
D03*
X272750Y836000D02*
D03*
X286500Y880750D02*
D03*
X235500Y817000D02*
D03*
X791500Y803000D02*
D03*
X806250Y802750D02*
D03*
X1210250Y158750D02*
D03*
X1337750Y159000D02*
D03*
X1251000Y199000D02*
D03*
X1181750Y88750D02*
D03*
X1285000Y171250D02*
D03*
X1331000Y220750D02*
D03*
X1312500Y191500D02*
D03*
X1312250Y267000D02*
D03*
X288000Y2325750D02*
D03*
X281250Y2130500D02*
D03*
X303500Y2325750D02*
D03*
X328750Y2186250D02*
D03*
Y1984250D02*
D03*
X304750Y2127250D02*
D03*
X323500Y1328500D02*
D03*
X331000Y1191750D02*
D03*
X277500Y1328750D02*
D03*
X306500Y1188250D02*
D03*
X281250Y1732000D02*
D03*
X279250Y2531250D02*
D03*
X284000Y1131500D02*
D03*
X299000Y2530000D02*
D03*
X282000Y2382000D02*
D03*
X292750Y1574250D02*
D03*
X293250Y983500D02*
D03*
X328750Y1730750D02*
D03*
X318750Y2529250D02*
D03*
X329250Y1576500D02*
D03*
X330250Y1131000D02*
D03*
X331000Y983500D02*
D03*
X284500Y1781000D02*
D03*
X283000Y1377000D02*
D03*
X281871Y1925929D02*
D03*
X276716Y1513284D02*
D03*
X319000Y1928500D02*
D03*
X318500Y1782000D02*
D03*
X318000Y1513000D02*
D03*
X330000Y1377750D02*
D03*
X242540Y720500D02*
D03*
X290250Y632500D02*
D03*
X315250Y536000D02*
D03*
X324250Y744750D02*
D03*
X220026Y301526D02*
D03*
X319500Y953250D02*
D03*
X279750Y419750D02*
D03*
X259250Y632250D02*
D03*
X236801Y404000D02*
D03*
X294250Y466500D02*
D03*
X241500Y294250D02*
D03*
X328770Y339230D02*
D03*
X314752Y168748D02*
D03*
X314750Y110750D02*
D03*
X273250Y165250D02*
D03*
X225280Y177720D02*
D03*
X2924500Y607750D02*
D03*
X2810590Y1223090D02*
D03*
X2855750Y1139300D02*
D03*
X2786500Y1095750D02*
D03*
Y1185250D02*
D03*
X2815860Y982110D02*
D03*
X2864730Y922980D02*
D03*
X2739500Y938750D02*
D03*
X2726500Y848000D02*
D03*
X2784750Y941250D02*
D03*
Y850750D02*
D03*
X2074430Y924060D02*
D03*
Y936060D02*
D03*
Y947060D02*
D03*
X2062430D02*
D03*
X2051430D02*
D03*
X2062430Y924060D02*
D03*
X2050430D02*
D03*
Y936060D02*
D03*
X1732550Y947060D02*
D03*
Y935060D02*
D03*
Y924060D02*
D03*
X1744550D02*
D03*
X1755550D02*
D03*
X1744550Y947060D02*
D03*
X1756550D02*
D03*
Y935060D02*
D03*
X1708670Y924740D02*
D03*
Y936740D02*
D03*
Y947740D02*
D03*
X1696670D02*
D03*
X1685670D02*
D03*
X1696670Y924740D02*
D03*
X1684670D02*
D03*
Y936740D02*
D03*
D110*
X221000Y708750D02*
D03*
X3138500Y1873500D02*
D03*
Y1798000D02*
D03*
X233500Y940250D02*
D03*
X244104Y861146D02*
D03*
X253500Y536000D02*
D03*
X246500Y431250D02*
D03*
X251500Y516750D02*
D03*
X244000Y223500D02*
D03*
X2792250Y492750D02*
D03*
Y410000D02*
D03*
X2789750Y671750D02*
D03*
Y599250D02*
D03*
D111*
X2940250Y3141000D02*
D03*
D03*
X3173000Y3115750D02*
D03*
X3164000Y3123750D02*
D03*
X3155750Y3132000D02*
D03*
X3147500Y3140750D02*
D03*
X3138500Y3149750D02*
D03*
X3130000Y3157750D02*
D03*
X3122750Y3165000D02*
D03*
X3116250Y3171750D02*
D03*
X3129250Y3184750D02*
D03*
X3135750Y3178000D02*
D03*
X3143000Y3170750D02*
D03*
X3151500Y3162750D02*
D03*
X3160500Y3153750D02*
D03*
X3168750Y3145000D02*
D03*
X3177000Y3136750D02*
D03*
X3186000Y3128750D02*
D03*
X3062000Y1318000D02*
D03*
Y1307500D02*
D03*
Y1297750D02*
D03*
Y1286750D02*
D03*
Y1275000D02*
D03*
Y1264750D02*
D03*
Y1254750D02*
D03*
X3050250Y1318500D02*
D03*
Y1308000D02*
D03*
Y1298250D02*
D03*
Y1287250D02*
D03*
Y1275500D02*
D03*
Y1265250D02*
D03*
Y1255250D02*
D03*
Y1328750D02*
D03*
Y1339000D02*
D03*
Y1349500D02*
D03*
Y1359250D02*
D03*
Y1370250D02*
D03*
Y1382000D02*
D03*
Y1392250D02*
D03*
Y1402250D02*
D03*
X3062000Y1328250D02*
D03*
Y1338500D02*
D03*
Y1349000D02*
D03*
Y1358750D02*
D03*
Y1369750D02*
D03*
Y1381500D02*
D03*
Y1391750D02*
D03*
Y1401750D02*
D03*
X3037750Y1498000D02*
D03*
Y1488000D02*
D03*
Y1445250D02*
D03*
Y1477750D02*
D03*
Y1434750D02*
D03*
Y1455000D02*
D03*
Y1466000D02*
D03*
Y1424500D02*
D03*
X2993750Y2479750D02*
D03*
Y2490000D02*
D03*
Y2500500D02*
D03*
Y2510250D02*
D03*
Y2521250D02*
D03*
Y2533000D02*
D03*
Y2543250D02*
D03*
Y2553250D02*
D03*
Y2406250D02*
D03*
Y2416500D02*
D03*
Y2427000D02*
D03*
Y2436750D02*
D03*
Y2447750D02*
D03*
Y2459500D02*
D03*
Y2469750D02*
D03*
Y2332750D02*
D03*
Y2343000D02*
D03*
Y2353500D02*
D03*
Y2363250D02*
D03*
Y2374250D02*
D03*
Y2386000D02*
D03*
Y2396250D02*
D03*
X2997250Y2819250D02*
D03*
Y2829500D02*
D03*
Y2840000D02*
D03*
Y2849750D02*
D03*
Y2860750D02*
D03*
Y2872500D02*
D03*
Y2882750D02*
D03*
Y2892750D02*
D03*
Y2745750D02*
D03*
Y2756000D02*
D03*
Y2766500D02*
D03*
Y2776250D02*
D03*
Y2787250D02*
D03*
Y2799000D02*
D03*
Y2809250D02*
D03*
Y2672250D02*
D03*
Y2682500D02*
D03*
Y2693000D02*
D03*
Y2702750D02*
D03*
Y2713750D02*
D03*
Y2725500D02*
D03*
Y2735750D02*
D03*
X2993500Y3141000D02*
D03*
X2983250D02*
D03*
X2972750D02*
D03*
X2963000D02*
D03*
X2952000D02*
D03*
X3058000Y3087500D02*
D03*
X3004750D02*
D03*
X3026750D02*
D03*
X3047500D02*
D03*
X2994750D02*
D03*
X3015000D02*
D03*
X3037750D02*
D03*
X150000Y2363750D02*
D03*
X150250Y2554500D02*
D03*
X33500Y1739500D02*
D03*
X89965Y274550D02*
D03*
X152250Y212250D02*
D03*
X28750Y499500D02*
D03*
X39250Y2141250D02*
D03*
X32000Y1943750D02*
D03*
X32750Y1538500D02*
D03*
X27750Y1344000D02*
D03*
X90000Y599500D02*
D03*
Y1140250D02*
D03*
Y952750D02*
D03*
X1385750Y70750D02*
D03*
X1400000Y63750D02*
D03*
X933000Y63000D02*
D03*
X922250Y70500D02*
D03*
X28750Y939750D02*
D03*
X40290Y2176000D02*
D03*
X33540Y1975750D02*
D03*
X2899750Y2662750D02*
D03*
Y2652500D02*
D03*
Y2640750D02*
D03*
Y2629750D02*
D03*
Y2620000D02*
D03*
Y2609500D02*
D03*
Y2599250D02*
D03*
Y2736250D02*
D03*
Y2726000D02*
D03*
Y2714250D02*
D03*
Y2703250D02*
D03*
Y2693500D02*
D03*
Y2683000D02*
D03*
Y2672750D02*
D03*
Y2819750D02*
D03*
Y2809750D02*
D03*
Y2799500D02*
D03*
Y2787750D02*
D03*
Y2776750D02*
D03*
Y2767000D02*
D03*
Y2756500D02*
D03*
Y2746250D02*
D03*
X2866750Y3141000D02*
D03*
X2876750D02*
D03*
X2887000D02*
D03*
X2898750D02*
D03*
X2909750D02*
D03*
X2919500D02*
D03*
X2930000D02*
D03*
X2994250Y3100750D02*
D03*
X3004250D02*
D03*
X3014500D02*
D03*
X3026250D02*
D03*
X3037250D02*
D03*
X3047000D02*
D03*
X2921500Y1412250D02*
D03*
Y1402250D02*
D03*
Y1392000D02*
D03*
Y1380250D02*
D03*
Y1369250D02*
D03*
Y1359500D02*
D03*
Y1349000D02*
D03*
Y1338750D02*
D03*
X2909750Y1412750D02*
D03*
Y1402750D02*
D03*
Y1392500D02*
D03*
Y1380750D02*
D03*
Y1369750D02*
D03*
Y1360000D02*
D03*
Y1349500D02*
D03*
Y1339250D02*
D03*
X2912250Y1772750D02*
D03*
Y1762750D02*
D03*
Y1752500D02*
D03*
Y1740750D02*
D03*
Y1729750D02*
D03*
Y1720000D02*
D03*
Y1709500D02*
D03*
Y1699250D02*
D03*
X2902250Y1772750D02*
D03*
Y1762750D02*
D03*
Y1752500D02*
D03*
Y1740750D02*
D03*
Y1729750D02*
D03*
Y1720000D02*
D03*
Y1709500D02*
D03*
Y1699250D02*
D03*
X27290Y175000D02*
D03*
Y190000D02*
D03*
X35250Y199500D02*
D03*
X70500Y62750D02*
D03*
X87250Y43910D02*
D03*
X32790Y3087000D02*
D03*
X31000Y3100250D02*
D03*
X28000Y3109500D02*
D03*
X33272Y3124728D02*
D03*
X33868Y2375632D02*
D03*
X33750Y2564750D02*
D03*
X34500Y1759750D02*
D03*
X60750Y71750D02*
D03*
X705000Y20250D02*
D03*
Y32263D02*
D03*
X34000Y1563250D02*
D03*
X2996250Y823500D02*
D03*
X34750Y166250D02*
D03*
X21710Y1150750D02*
D03*
D112*
X1586750Y1399500D02*
D03*
X1584000Y1417250D02*
D03*
X2097250Y1503500D02*
D03*
X2082500D02*
D03*
X2082250Y1519750D02*
D03*
X2097000D02*
D03*
X2131500Y1481750D02*
D03*
X2116750D02*
D03*
X2116500Y1498000D02*
D03*
X2131250D02*
D03*
X2130000Y1446250D02*
D03*
X2129750Y1462500D02*
D03*
X2124750Y1407750D02*
D03*
X2124500Y1424000D02*
D03*
X2112750Y1378000D02*
D03*
X2098000D02*
D03*
X2097750Y1394250D02*
D03*
X2112500D02*
D03*
X2073500Y1367000D02*
D03*
X2058750D02*
D03*
X2058500Y1383250D02*
D03*
X2073250D02*
D03*
X2035000Y1378000D02*
D03*
X2020250D02*
D03*
X2020000Y1394250D02*
D03*
X2034750D02*
D03*
X2005250Y1401000D02*
D03*
X1990500D02*
D03*
X1990250Y1417250D02*
D03*
X2005000D02*
D03*
X2001000Y1434500D02*
D03*
X1986250D02*
D03*
X1986000Y1450750D02*
D03*
X2000750D02*
D03*
X2005250Y1468750D02*
D03*
X1990500D02*
D03*
X1990250Y1485000D02*
D03*
X2005000D02*
D03*
X2029750Y1494500D02*
D03*
X2015000D02*
D03*
X2014750Y1510750D02*
D03*
X2029500D02*
D03*
X2096500Y1181250D02*
D03*
X2081750D02*
D03*
X2081500Y1197500D02*
D03*
X2096250D02*
D03*
X2132500Y1202250D02*
D03*
X2117750D02*
D03*
X2117500Y1218500D02*
D03*
X2132250D02*
D03*
X2130750Y1240250D02*
D03*
X2130500Y1256500D02*
D03*
X2124250Y1274750D02*
D03*
X2124000Y1291000D02*
D03*
X2115000Y1306250D02*
D03*
X2100250D02*
D03*
X2100000Y1322500D02*
D03*
X2114750D02*
D03*
X2077250Y1316250D02*
D03*
X2062500D02*
D03*
X2062250Y1332500D02*
D03*
X2077000D02*
D03*
X2035500Y1310000D02*
D03*
X2020750D02*
D03*
X2020500Y1326250D02*
D03*
X2035250D02*
D03*
X2004000Y1280250D02*
D03*
X1989250D02*
D03*
X1989000Y1296500D02*
D03*
X2003750D02*
D03*
X1996000Y1240250D02*
D03*
X1981250D02*
D03*
X1981000Y1256500D02*
D03*
X1995750D02*
D03*
X2014500Y1202750D02*
D03*
X1999750D02*
D03*
X1999500Y1219000D02*
D03*
X2014250D02*
D03*
X2596250Y1943000D02*
D03*
X2581500D02*
D03*
X2581250Y1959250D02*
D03*
X2596000D02*
D03*
X2597000Y1737500D02*
D03*
X2582250D02*
D03*
X2582500Y1721250D02*
D03*
X2597250D02*
D03*
D113*
X1939502Y613130D02*
D03*
X1937430Y603940D02*
D03*
X1928430Y598940D02*
D03*
X1918430Y601940D02*
D03*
X1916430Y611940D02*
D03*
X1923015Y619783D02*
D03*
X1933430Y620940D02*
D03*
Y836840D02*
D03*
X1923015Y835683D02*
D03*
X1916430Y827840D02*
D03*
X1918430Y817840D02*
D03*
X1928430Y814840D02*
D03*
X1937430Y819840D02*
D03*
X1939502Y829030D02*
D03*
X1873170Y815840D02*
D03*
X1883584Y816997D02*
D03*
X1890170Y824840D02*
D03*
X1888170Y834840D02*
D03*
X1878170Y837840D02*
D03*
X1869170Y832840D02*
D03*
X1867099Y823650D02*
D03*
Y715700D02*
D03*
X1869170Y724890D02*
D03*
X1878170Y729890D02*
D03*
X1888170Y726890D02*
D03*
X1890170Y716890D02*
D03*
X1883584Y709047D02*
D03*
X1873170Y707890D02*
D03*
X1939502Y721080D02*
D03*
X1937430Y711890D02*
D03*
X1928430Y706890D02*
D03*
X1918430Y709890D02*
D03*
X1916430Y719890D02*
D03*
X1923015Y727733D02*
D03*
X1933430Y728890D02*
D03*
X1573742Y721080D02*
D03*
X1571670Y711890D02*
D03*
X1562670Y706890D02*
D03*
X1552670Y709890D02*
D03*
X1550670Y719890D02*
D03*
X1557256Y727733D02*
D03*
X1567670Y728890D02*
D03*
X1573742Y830300D02*
D03*
X1571670Y821110D02*
D03*
X1562670Y816110D02*
D03*
X1552670Y819110D02*
D03*
X1550670Y829110D02*
D03*
X1557256Y836953D02*
D03*
X1567670Y838110D02*
D03*
X1933430Y946060D02*
D03*
X1923015Y944903D02*
D03*
X1916430Y937060D02*
D03*
X1918430Y927060D02*
D03*
X1928430Y924060D02*
D03*
X1937430Y929060D02*
D03*
X1939502Y938250D02*
D03*
X1873550Y925060D02*
D03*
X1883965Y926217D02*
D03*
X1890550Y934060D02*
D03*
X1888550Y944060D02*
D03*
X1878550Y947060D02*
D03*
X1869550Y942060D02*
D03*
X1867478Y932870D02*
D03*
X1567670Y946740D02*
D03*
X1557256Y945583D02*
D03*
X1550670Y937740D02*
D03*
X1552670Y927740D02*
D03*
X1562670Y924740D02*
D03*
X1571670Y929740D02*
D03*
X1573742Y938930D02*
D03*
D114*
X207500Y656250D02*
X236750Y685500D01*
X207500Y560000D02*
Y656250D01*
X236750Y685500D02*
Y714710D01*
X242540Y720500D01*
X246500Y431250D02*
Y473250D01*
X251500Y478250D02*
Y516750D01*
X246500Y473250D02*
X251500Y478250D01*
D115*
X2810940Y1151810D02*
Y1223090D01*
X233500Y940250D02*
X244104Y929646D01*
Y861146D02*
Y929646D01*
X2823450Y1139300D02*
X2855750D01*
X2810940Y1151810D02*
X2823450Y1139300D01*
X2861274Y1001500D02*
X2864730Y998044D01*
X2819316Y1001500D02*
X2861274D01*
X2864730Y922980D02*
Y998044D01*
X2792250Y410000D02*
Y492750D01*
X2789750Y599250D02*
Y671750D01*
X2815860Y982110D02*
Y998044D01*
X2819316Y1001500D01*
M02*
