G04*
G04 #@! TF.GenerationSoftware,Altium Limited,Altium Designer,25.3.3 (18)*
G04*
G04 Layer_Physical_Order=2*
G04 Layer_Color=36540*
%FSLAX44Y44*%
%MOMM*%
G71*
G04*
G04 #@! TF.SameCoordinates,02FA8497-09D8-4EBB-9686-6BBDE5AED0EC*
G04*
G04*
G04 #@! TF.FilePolarity,Positive*
G04*
G01*
G75*
%ADD13C,0.5000*%
%ADD16C,0.3000*%
%ADD67C,1.0000*%
%ADD68C,5.5000*%
%ADD69O,6.0000X9.0000*%
%ADD70C,6.0000*%
%ADD71O,7.0000X5.0000*%
%ADD72C,1.5000*%
G04:AMPARAMS|DCode=73|XSize=1.5mm|YSize=1.5mm|CornerRadius=0.375mm|HoleSize=0mm|Usage=FLASHONLY|Rotation=270.000|XOffset=0mm|YOffset=0mm|HoleType=Round|Shape=RoundedRectangle|*
%AMROUNDEDRECTD73*
21,1,1.5000,0.7500,0,0,270.0*
21,1,0.7500,1.5000,0,0,270.0*
1,1,0.7500,-0.3750,-0.3750*
1,1,0.7500,-0.3750,0.3750*
1,1,0.7500,0.3750,0.3750*
1,1,0.7500,0.3750,-0.3750*
%
%ADD73ROUNDEDRECTD73*%
%ADD74R,4.0000X2.5000*%
%ADD75C,4.0000*%
%ADD76R,4.0000X4.0000*%
%ADD77O,20.5000X17.5000*%
G04:AMPARAMS|DCode=78|XSize=5mm|YSize=15mm|CornerRadius=1.25mm|HoleSize=0mm|Usage=FLASHONLY|Rotation=180.000|XOffset=0mm|YOffset=0mm|HoleType=Round|Shape=RoundedRectangle|*
%AMROUNDEDRECTD78*
21,1,5.0000,12.5000,0,0,180.0*
21,1,2.5000,15.0000,0,0,180.0*
1,1,2.5000,-1.2500,6.2500*
1,1,2.5000,1.2500,6.2500*
1,1,2.5000,1.2500,-6.2500*
1,1,2.5000,-1.2500,-6.2500*
%
%ADD78ROUNDEDRECTD78*%
G04:AMPARAMS|DCode=79|XSize=5mm|YSize=11mm|CornerRadius=1.25mm|HoleSize=0mm|Usage=FLASHONLY|Rotation=180.000|XOffset=0mm|YOffset=0mm|HoleType=Round|Shape=RoundedRectangle|*
%AMROUNDEDRECTD79*
21,1,5.0000,8.5000,0,0,180.0*
21,1,2.5000,11.0000,0,0,180.0*
1,1,2.5000,-1.2500,4.2500*
1,1,2.5000,1.2500,4.2500*
1,1,2.5000,1.2500,-4.2500*
1,1,2.5000,-1.2500,-4.2500*
%
%ADD79ROUNDEDRECTD79*%
%ADD80O,10.0000X7.0000*%
%ADD81R,4.0000X4.0000*%
%ADD82R,1.5000X1.5000*%
%ADD83C,2.2000*%
%ADD84C,1.6050*%
%ADD85R,1.6050X1.6050*%
G04:AMPARAMS|DCode=86|XSize=1.5mm|YSize=1.5mm|CornerRadius=0.375mm|HoleSize=0mm|Usage=FLASHONLY|Rotation=0.000|XOffset=0mm|YOffset=0mm|HoleType=Round|Shape=RoundedRectangle|*
%AMROUNDEDRECTD86*
21,1,1.5000,0.7500,0,0,0.0*
21,1,0.7500,1.5000,0,0,0.0*
1,1,0.7500,0.3750,-0.3750*
1,1,0.7500,-0.3750,-0.3750*
1,1,0.7500,-0.3750,0.3750*
1,1,0.7500,0.3750,0.3750*
%
%ADD86ROUNDEDRECTD86*%
%ADD87R,1.5200X1.5200*%
%ADD88C,1.5200*%
%ADD89C,3.5000*%
%ADD90R,3.5000X3.5000*%
%ADD91O,2.3000X1.3000*%
%ADD92O,1.9050X2.5400*%
%ADD93R,3.5000X3.5000*%
%ADD94C,2.0000*%
%ADD95R,2.0000X2.0000*%
%ADD96C,1.6000*%
%ADD97R,1.6000X1.6000*%
%ADD98R,1.5200X1.5200*%
%ADD99O,2.2860X1.9050*%
%ADD100R,2.2860X1.9050*%
%ADD101R,2.0000X1.5000*%
%ADD102C,3.0000*%
%ADD103O,2.0000X1.5000*%
%ADD104R,3.0000X3.0000*%
%ADD105R,1.5000X1.5000*%
%ADD106R,1.6050X1.6050*%
%ADD107C,12.0000*%
%ADD108R,2.0000X2.0000*%
%ADD109C,1.0000*%
%ADD110C,0.8000*%
%ADD111C,0.6000*%
%ADD112C,1.2000*%
%ADD113C,0.7000*%
G36*
X3211000Y3132705D02*
Y745000D01*
X3028500D01*
Y1082000D01*
X3085163D01*
X3085495Y1159500D01*
X3028500D01*
Y1518000D01*
X3165750D01*
X3180000Y1532250D01*
Y3018000D01*
X3137750Y3060250D01*
X2972434D01*
X2967623Y3065061D01*
Y3077706D01*
X2970395Y3078854D01*
X2971604Y3077645D01*
X2980356D01*
X2986545Y3083834D01*
Y3092586D01*
X2980356Y3098775D01*
X2971604D01*
X2971581Y3098752D01*
X2968225Y3099571D01*
X2967623Y3100940D01*
X2966342Y3104032D01*
X2966342Y3104032D01*
X2961143Y3109232D01*
X2961145Y3109234D01*
Y3117986D01*
X2954956Y3124175D01*
X2946204D01*
X2940015Y3117986D01*
Y3109234D01*
X2946204Y3103045D01*
X2954749D01*
X2956684Y3100871D01*
X2954956Y3098775D01*
X2946204D01*
X2940015Y3092586D01*
Y3083834D01*
X2946204Y3077645D01*
X2954956D01*
X2956106Y3078794D01*
X2958877Y3077646D01*
Y3063250D01*
X2958877Y3063250D01*
X2960158Y3060158D01*
X2965693Y3054623D01*
X2964450Y3051623D01*
X2842811D01*
X2839873Y3054561D01*
Y3100890D01*
X2839873Y3100890D01*
X2838592Y3103982D01*
X2838592Y3103982D01*
X2833343Y3109232D01*
X2833345Y3109234D01*
Y3117986D01*
X2827156Y3124175D01*
X2818404D01*
X2817257Y3123028D01*
X2814485Y3124177D01*
Y3127551D01*
X2814561Y3127627D01*
X2894877D01*
Y3124048D01*
X2888815Y3117986D01*
Y3109234D01*
X2895004Y3103045D01*
X2903756D01*
X2909945Y3109234D01*
Y3117986D01*
X2903756Y3124175D01*
X2903623D01*
Y3130243D01*
X2903623Y3130243D01*
X2902342Y3133335D01*
X2902342Y3133335D01*
X2900585Y3135092D01*
X2897493Y3136373D01*
X2897493Y3136373D01*
X2812750D01*
X2812750Y3136373D01*
Y3148750D01*
X2796750Y3164750D01*
X1451500D01*
X1435000Y3148250D01*
X183750D01*
X97500Y3062000D01*
Y2558250D01*
X153250D01*
Y2550750D01*
X97500D01*
Y2366750D01*
X153000D01*
Y2360750D01*
X97500D01*
Y209000D01*
X16250D01*
Y1144456D01*
X19022Y1145604D01*
X19415Y1145210D01*
X24005D01*
X27250Y1148455D01*
Y1153045D01*
X24005Y1156290D01*
X19415D01*
X19022Y1155896D01*
X16250Y1157044D01*
Y3210750D01*
X3124179D01*
X3211000Y3132705D01*
D02*
G37*
G36*
X728550Y2777060D02*
X943180D01*
Y2745310D01*
X714580D01*
X699340Y2760550D01*
X595200D01*
Y2791030D01*
X714580D01*
X728550Y2777060D01*
D02*
G37*
G36*
X2274140Y2136980D02*
X2218260Y2081100D01*
X1960450D01*
Y2206830D01*
X2011808D01*
X2107072Y2302094D01*
X2110721Y2305886D01*
X2117570Y2313878D01*
X2123784Y2322373D01*
X2129327Y2331320D01*
X2134166Y2340667D01*
X2138273Y2350358D01*
X2141623Y2360336D01*
X2144197Y2370541D01*
X2145978Y2380914D01*
X2146958Y2391394D01*
X2147129Y2401917D01*
X2146491Y2412423D01*
X2145870Y2417650D01*
X2145870Y2417650D01*
X2145988Y2421792D01*
X2145736Y2430075D01*
X2144836Y2438312D01*
X2143291Y2446453D01*
X2141113Y2454448D01*
X2138314Y2462248D01*
X2134912Y2469803D01*
X2130928Y2477069D01*
X2126385Y2483999D01*
X2121313Y2490552D01*
X2115743Y2496687D01*
X2109708Y2502365D01*
X2103247Y2507553D01*
X2096398Y2512218D01*
X2089204Y2516331D01*
X2081710Y2519866D01*
X2073962Y2522803D01*
X2066007Y2525123D01*
X2057894Y2526812D01*
X2049674Y2527859D01*
X2045540Y2528140D01*
X2045540Y2528140D01*
X2045540Y2740230D01*
X2070940Y2765630D01*
X2119200D01*
X2159840Y2806270D01*
X2159840Y2920570D01*
X2274140D01*
Y2136980D01*
D02*
G37*
G36*
X1882654Y2079821D02*
X1678183D01*
X1631194Y2126811D01*
Y2235693D01*
X1669250Y2273750D01*
X1882654D01*
Y2079821D01*
D02*
G37*
G36*
X2648500Y1932750D02*
X2571750D01*
Y1970250D01*
X2648500D01*
Y1932750D01*
D02*
G37*
G36*
X2665750Y1847750D02*
Y1784000D01*
X2654500Y1772750D01*
X2607250D01*
X2596000Y1784000D01*
Y1847500D01*
X2608000Y1859500D01*
X2654000D01*
X2665750Y1847750D01*
D02*
G37*
G36*
X2648500Y1712750D02*
X2571750D01*
Y1750250D01*
X2648500D01*
Y1712750D01*
D02*
G37*
G36*
X1528650Y2473850D02*
Y2046810D01*
X1583260Y1992200D01*
X2520520D01*
Y1695480D01*
X2588036Y1627964D01*
X2627200Y1627964D01*
X2669241D01*
X2742770Y1582182D01*
Y1424510D01*
X2714830Y1396570D01*
X2572844D01*
X2304874Y1664540D01*
X1349580D01*
X1349580Y1731850D01*
X1349510Y1734010D01*
X1348946Y1738292D01*
X1347829Y1742465D01*
X1346176Y1746455D01*
X1344017Y1750196D01*
X1341387Y1753623D01*
X1338333Y1756677D01*
X1334906Y1759307D01*
X1331165Y1761466D01*
X1327174Y1763118D01*
X1323002Y1764236D01*
X1318719Y1764799D01*
X1316559Y1764869D01*
X1316560Y1764870D01*
X1283540D01*
X1093003Y1764870D01*
X1088042Y1764750D01*
X1078169Y1763780D01*
X1068438Y1761846D01*
X1058944Y1758967D01*
X1049778Y1755170D01*
X1041029Y1750493D01*
X1032781Y1744979D01*
X1025114Y1738683D01*
X1021521Y1735261D01*
X1021522Y1735262D01*
X938100Y1651840D01*
X938100Y1419430D01*
X862000Y1343330D01*
Y1167000D01*
X817250Y1122250D01*
X480900D01*
X450420Y1152730D01*
Y1218580D01*
X434990Y1234010D01*
X369140D01*
Y1270840D01*
X436340D01*
X450420Y1284920D01*
X450420Y1418580D01*
X435600Y1433400D01*
X370410D01*
Y1471500D01*
X435750D01*
X450420Y1486170D01*
Y2218830D01*
X435750Y2233500D01*
X370410D01*
Y2271600D01*
X435850D01*
X450420Y2286170D01*
Y2486170D01*
X472070Y2507820D01*
X1494680D01*
X1528650Y2473850D01*
D02*
G37*
G36*
X1677240Y1584530D02*
Y1387740D01*
X1651780Y1362280D01*
X1265760Y1362280D01*
X1244170Y1383870D01*
X1244170Y1467690D01*
X1265760Y1489280D01*
X1381330Y1604850D01*
X1656920Y1604850D01*
X1677240Y1584530D01*
D02*
G37*
G36*
X2665300Y1132410D02*
X2536000D01*
Y1293700D01*
X2665300D01*
Y1132410D01*
D02*
G37*
G36*
X2522250Y1340230D02*
Y889840D01*
X2665300D01*
Y840310D01*
X2589100D01*
X2580210Y831420D01*
Y797130D01*
X2522250D01*
Y678750D01*
X2665300D01*
Y621750D01*
X2585170Y621750D01*
X2580210Y616790D01*
Y582500D01*
X2522250D01*
Y234520D01*
X2199210D01*
X2092530Y341200D01*
Y431370D01*
X2023950Y501220D01*
X1392760D01*
X1382600Y511380D01*
Y548210D01*
X1392760Y558370D01*
X1474040D01*
X1524840Y609170D01*
Y1031339D01*
X1545901Y1052400D01*
X1726900Y1052400D01*
X1799160Y1124660D01*
Y1529160D01*
X1821510Y1551510D01*
X1918740Y1551510D01*
X1940130Y1530120D01*
Y1145870D01*
X1962480Y1123520D01*
X2169020D01*
X2191590Y1146090D01*
Y1530340D01*
X2212760Y1551510D01*
X2310970D01*
X2522250Y1340230D01*
D02*
G37*
G36*
X1237820Y1241630D02*
X1101930Y1105740D01*
Y838180D01*
X1087550Y823800D01*
X990950D01*
X976200Y838550D01*
Y1300050D01*
X1000330Y1324180D01*
X1237820D01*
Y1241630D01*
D02*
G37*
G36*
X2665300Y691720D02*
X2536000D01*
Y782000D01*
X2665300D01*
Y691720D01*
D02*
G37*
G36*
X1676984Y1309016D02*
Y1257965D01*
X1640154Y1221135D01*
Y1175415D01*
X1613484Y1148745D01*
X1494185D01*
X1430860Y1085420D01*
X1430860Y648540D01*
X1416890Y634570D01*
X1353390D01*
X1338150Y649810D01*
X1338150Y1282270D01*
X1380380Y1324500D01*
X1661500D01*
X1676984Y1309016D01*
D02*
G37*
G36*
X2665300Y470740D02*
X2536000D01*
Y560910D01*
X2665300D01*
Y470740D01*
D02*
G37*
G36*
X1283540Y496540D02*
X1251390Y464390D01*
X1175110D01*
X1142570Y496930D01*
X1142570Y1075260D01*
X1236550Y1169240D01*
X1283540D01*
X1283540Y496540D01*
D02*
G37*
G36*
X1102307Y770193D02*
X1102307Y435056D01*
X1017340Y350090D01*
X818720Y350090D01*
X815148Y349973D01*
X808066Y349041D01*
X801166Y347192D01*
X794566Y344458D01*
X788380Y340887D01*
X782713Y336538D01*
X777662Y331487D01*
X773313Y325820D01*
X769742Y319633D01*
X767008Y313034D01*
X765159Y306134D01*
X764227Y299051D01*
X764110Y295480D01*
Y295480D01*
X698070Y229440D01*
X614250Y145620D01*
X458594D01*
X449150Y155064D01*
Y218850D01*
X434750Y233250D01*
X370964Y233250D01*
Y271350D01*
X435100Y271350D01*
X449150Y285400D01*
Y618850D01*
X434700Y633300D01*
X370964D01*
Y671400D01*
X434650D01*
X449150Y685900D01*
Y711486D01*
X457368Y719704D01*
X904186D01*
X1012137Y784474D01*
X1088026D01*
X1102307Y770193D01*
D02*
G37*
G36*
X2023950Y455500D02*
Y86000D01*
X1776300D01*
Y159590D01*
X1725500D01*
X1716610Y168480D01*
Y188800D01*
X1724230Y196420D01*
X1759790D01*
Y328500D01*
X1696290D01*
X1696290Y455500D01*
X1721690Y480900D01*
X1998550D01*
X2023950Y455500D01*
D02*
G37*
G36*
X1675970Y456770D02*
Y328500D01*
X1617550D01*
Y126570D01*
X1655650D01*
X1665810Y116410D01*
Y86000D01*
X1434670D01*
Y456770D01*
X1458800Y480900D01*
X1651840Y480900D01*
X1675970Y456770D01*
D02*
G37*
%LPC*%
G36*
X35567Y3130268D02*
X30977D01*
X27732Y3127023D01*
Y3122433D01*
X30977Y3119188D01*
X35567D01*
X38812Y3122433D01*
Y3127023D01*
X35567Y3130268D01*
D02*
G37*
G36*
X2980356Y3124175D02*
X2971604D01*
X2965415Y3117986D01*
Y3109234D01*
X2971604Y3103045D01*
X2980356D01*
X2986545Y3109234D01*
Y3117986D01*
X2980356Y3124175D01*
D02*
G37*
G36*
X2929156D02*
X2920404D01*
X2914215Y3117986D01*
Y3109234D01*
X2920404Y3103045D01*
X2929156D01*
X2935345Y3109234D01*
Y3117986D01*
X2929156Y3124175D01*
D02*
G37*
G36*
X2878356D02*
X2869604D01*
X2863415Y3117986D01*
Y3109234D01*
X2869604Y3103045D01*
X2878356D01*
X2884545Y3109234D01*
Y3117986D01*
X2878356Y3124175D01*
D02*
G37*
G36*
X2852956D02*
X2844204D01*
X2838015Y3117986D01*
Y3109234D01*
X2844204Y3103045D01*
X2852956D01*
X2859145Y3109234D01*
Y3117986D01*
X2852956Y3124175D01*
D02*
G37*
G36*
X30295Y3115040D02*
X25705D01*
X22460Y3111795D01*
Y3107205D01*
X25705Y3103960D01*
X26048Y3103133D01*
X25460Y3102545D01*
Y3097955D01*
X28643Y3094773D01*
X28712Y3094689D01*
X29665Y3091710D01*
X27250Y3089295D01*
Y3084705D01*
X30495Y3081460D01*
X35085D01*
X38330Y3084705D01*
Y3089295D01*
X35147Y3092477D01*
X35078Y3092561D01*
X34125Y3095540D01*
X36540Y3097955D01*
Y3102545D01*
X33295Y3105790D01*
X32952Y3106617D01*
X33540Y3107205D01*
Y3111795D01*
X30295Y3115040D01*
D02*
G37*
G36*
X2929156Y3098775D02*
X2920404D01*
X2914215Y3092586D01*
Y3083834D01*
X2920404Y3077645D01*
X2929156D01*
X2935345Y3083834D01*
Y3092586D01*
X2929156Y3098775D01*
D02*
G37*
G36*
X2903756D02*
X2895004D01*
X2888815Y3092586D01*
Y3083834D01*
X2895004Y3077645D01*
X2903756D01*
X2909945Y3083834D01*
Y3092586D01*
X2903756Y3098775D01*
D02*
G37*
G36*
X2878356D02*
X2869604D01*
X2863415Y3092586D01*
Y3083834D01*
X2869604Y3077645D01*
X2878356D01*
X2884545Y3083834D01*
Y3092586D01*
X2878356Y3098775D01*
D02*
G37*
G36*
X36045Y2570290D02*
X31455D01*
X28210Y2567045D01*
Y2562455D01*
X31455Y2559210D01*
X36045D01*
X39290Y2562455D01*
Y2567045D01*
X36045Y2570290D01*
D02*
G37*
G36*
X36163Y2381172D02*
X31573D01*
X28328Y2377927D01*
Y2373337D01*
X31573Y2370092D01*
X36163D01*
X39408Y2373337D01*
Y2377927D01*
X36163Y2381172D01*
D02*
G37*
G36*
X42585Y2181540D02*
X37995D01*
X34750Y2178295D01*
Y2173705D01*
X37995Y2170460D01*
X42585D01*
X45830Y2173705D01*
Y2178295D01*
X42585Y2181540D01*
D02*
G37*
G36*
X35835Y1981290D02*
X31245D01*
X28000Y1978045D01*
Y1973455D01*
X31245Y1970210D01*
X35835D01*
X39080Y1973455D01*
Y1978045D01*
X35835Y1981290D01*
D02*
G37*
G36*
X36795Y1765290D02*
X32205D01*
X28960Y1762045D01*
Y1757455D01*
X32205Y1754210D01*
X36795D01*
X40040Y1757455D01*
Y1762045D01*
X36795Y1765290D01*
D02*
G37*
G36*
X36295Y1568790D02*
X31705D01*
X28460Y1565545D01*
Y1560955D01*
X31705Y1557710D01*
X36295D01*
X39540Y1560955D01*
Y1565545D01*
X36295Y1568790D01*
D02*
G37*
G36*
X3085044Y1054346D02*
X3036000Y1054122D01*
Y1006000D01*
X3085044D01*
Y1054346D01*
D02*
G37*
G36*
X31045Y945290D02*
X26455D01*
X23210Y942045D01*
Y937455D01*
X26455Y934210D01*
X31045D01*
X34290Y937455D01*
Y942045D01*
X31045Y945290D01*
D02*
G37*
G36*
X3085044Y977500D02*
X3036000D01*
Y904000D01*
X3085044D01*
Y977500D01*
D02*
G37*
G36*
Y875500D02*
X3036000D01*
Y847000D01*
Y777000D01*
X3085044D01*
Y847000D01*
X3085044D01*
Y875500D01*
D02*
G37*
G36*
X1410540Y2266520D02*
X1308940D01*
Y2185240D01*
X1410540D01*
Y2266520D01*
D02*
G37*
G36*
X1027000Y2181430D02*
X940640D01*
Y2102690D01*
X1027000D01*
Y2181430D01*
D02*
G37*
G36*
X1387680Y1908380D02*
X1283540D01*
Y1809320D01*
X1387680Y1809320D01*
Y1908380D01*
D02*
G37*
G36*
X2041730Y1862660D02*
X2013155Y1859485D01*
X1990930Y1842340D01*
X1980770Y1813130D01*
X1990930Y1778840D01*
X2021410Y1758454D01*
X2034110D01*
X2065225Y1768045D01*
X2082370Y1790270D01*
X2085578Y1822622D01*
X2069670Y1849960D01*
X2041730Y1862660D01*
D02*
G37*
G36*
X1809161D02*
X1783872D01*
X1763250Y1853000D01*
X1745662Y1830412D01*
X1742010Y1805510D01*
X1752170Y1780110D01*
X1771220Y1766140D01*
X1796620Y1758454D01*
Y1758454D01*
X1812167Y1763907D01*
X1830910Y1775030D01*
X1839500Y1786000D01*
X1844880Y1798624D01*
X1847589Y1811580D01*
X1844880Y1824560D01*
X1833450Y1847420D01*
X1809161Y1862660D01*
D02*
G37*
G36*
X938100Y1877900D02*
X823800D01*
Y1780110D01*
X938100D01*
Y1651840D01*
X938100Y1651840D01*
X938100Y1780110D01*
X938100D01*
Y1877900D01*
D02*
G37*
G36*
X2675460Y1597230D02*
X2580210D01*
Y1529920D01*
X2675460D01*
Y1597230D01*
D02*
G37*
G36*
Y1491820D02*
X2580210D01*
Y1429590D01*
X2675460D01*
Y1491820D01*
D02*
G37*
G36*
X2092530Y964770D02*
X2030300D01*
Y902540D01*
X2092530D01*
Y964770D01*
D02*
G37*
G36*
X1776300D02*
X1662000D01*
Y906350D01*
X1776300D01*
Y854280D01*
X1776300D01*
Y906350D01*
X1776300D01*
Y964770D01*
D02*
G37*
G36*
X2092530Y854280D02*
X2030300D01*
Y794590D01*
X2092530D01*
Y854280D01*
D02*
G37*
G36*
X1776300D02*
X1662000D01*
Y799670D01*
X1776300D01*
Y747600D01*
X1776300D01*
Y799670D01*
X1776300D01*
Y854280D01*
D02*
G37*
G36*
X2092530Y751410D02*
X2030300D01*
Y686640D01*
X2092530D01*
Y751410D01*
D02*
G37*
G36*
Y639650D02*
X2030300D01*
Y582500D01*
X2092530D01*
Y639650D01*
D02*
G37*
G36*
X1776300Y747600D02*
X1662000D01*
Y690450D01*
X1776300Y690450D01*
Y639650D01*
X1730580D01*
Y513920D01*
X1832180D01*
Y639650D01*
X1776300D01*
X1776300Y690450D01*
X1776300D01*
Y747600D01*
D02*
G37*
%LPD*%
D13*
X1847589Y1811580D02*
G03*
X1847589Y1811580I-52239J0D01*
G01*
X2085838Y1810930D02*
G03*
X2085838Y1810930I-52239J0D01*
G01*
X2939750Y1869750D02*
Y2919250D01*
X2761500Y1817000D02*
X2887000D01*
X2939750Y1869750D01*
X1531250Y3128000D02*
X1560870Y3157620D01*
X2794451D01*
X3121000Y1613500D02*
X3138500Y1631000D01*
Y1798000D01*
X2980750Y1198750D02*
Y1682250D01*
X2994390Y1695890D02*
X3048300D01*
X2980750Y1682250D02*
X2994390Y1695890D01*
X2994500Y1184250D02*
Y1599500D01*
X3008500Y1613500D02*
X3121000D01*
X2994500Y1599500D02*
X3008500Y1613500D01*
X2969000Y1158750D02*
X2994500Y1184250D01*
X2952500Y1170500D02*
X2980750Y1198750D01*
X2952500Y720000D02*
Y1170500D01*
X2969000Y732250D02*
Y1158750D01*
Y732250D02*
X2981000Y720250D01*
X2952500Y720000D02*
X2965750Y706750D01*
X3161750Y491750D02*
Y684000D01*
X2965750Y706750D02*
X3139000D01*
X3161750Y684000D01*
Y491750D02*
X3170000Y483500D01*
X2981000Y720250D02*
X3154500D01*
X3181500Y693250D01*
X3170000Y483500D02*
X3200750D01*
X3181500Y512250D02*
Y693250D01*
X888750Y64750D02*
Y111000D01*
X900250Y122500D02*
X1109500D01*
X888750Y111000D02*
X900250Y122500D01*
X866793Y65543D02*
Y125543D01*
X881750Y140500D02*
X1087750D01*
X866793Y125543D02*
X881750Y140500D01*
X1103750Y156500D02*
Y376750D01*
X1087750Y140500D02*
X1103750Y156500D01*
X1109500Y122500D02*
X1130750Y143750D01*
Y376500D01*
X1364200Y253950D02*
Y387250D01*
X1331000Y220750D02*
X1364200Y253950D01*
X2969750Y462250D02*
X2969875Y462375D01*
X3166625D01*
X3166750Y462500D01*
X1461250Y2749250D02*
X1536750Y2824750D01*
Y3082750D02*
X1601250Y3147250D01*
X1536750Y2824750D02*
Y3082750D01*
X1461250Y2670429D02*
Y2749250D01*
X1601250Y3147250D02*
X2498250D01*
X1558500Y2823750D02*
Y3079500D01*
X1615500Y3136500D01*
X1482000Y2747250D02*
X1558500Y2823750D01*
X1615500Y3136500D02*
X2481750D01*
X2797380Y3113610D02*
Y3154691D01*
X2794451Y3157620D02*
X2797380Y3154691D01*
X2498250Y3147250D02*
X2708750Y2936750D01*
X2481750Y3136500D02*
X2700750Y2917500D01*
X2797380Y3088210D02*
Y3113610D01*
X2708750Y2936750D02*
X2922250D01*
X2919000Y1884250D02*
Y2903000D01*
X2905073Y1870323D02*
X2919000Y1884250D01*
X2762474Y1870323D02*
X2905073D01*
X2700750Y2917500D02*
X2904500D01*
X2922250Y2936750D02*
X2939750Y2919250D01*
X2904500Y2917500D02*
X2919000Y2903000D01*
X866500Y65250D02*
X866793Y65543D01*
X1464179Y2667500D02*
X1482000D01*
X1461250Y2670429D02*
X1464179Y2667500D01*
X1312250Y267000D02*
X1312375Y266875D01*
Y191625D02*
Y266875D01*
Y191625D02*
X1312500Y191500D01*
X190750Y2813000D02*
X255750Y2878000D01*
X190750Y1436750D02*
X283000Y1344500D01*
X190750Y1436750D02*
Y2813000D01*
X180750Y1425500D02*
X277500Y1328750D01*
X180750Y2833250D02*
X235500Y2888000D01*
X180750Y1425500D02*
Y2833250D01*
X169500Y1413250D02*
X306500Y1276250D01*
X169500Y2851500D02*
X215250Y2897250D01*
X169500Y1413250D02*
Y2851500D01*
X438000Y3060500D02*
X453750Y3076250D01*
X415500Y2969000D02*
X438000Y2991500D01*
Y3060500D01*
X420250Y2956500D02*
X452500Y2988750D01*
Y3056000D02*
X462000Y3065500D01*
X452500Y2988750D02*
Y3056000D01*
X424000Y2994750D02*
Y3066750D01*
X444750Y3087500D02*
X1095555D01*
X424000Y3066750D02*
X444750Y3087500D01*
X453750Y3076250D02*
X1087750D01*
X410500Y2981250D02*
X424000Y2994750D01*
X345750Y2981250D02*
X410500D01*
X319750Y2820500D02*
Y2918750D01*
X357500Y2956500D02*
X420250D01*
X319750Y2918750D02*
X357500Y2956500D01*
X307750Y2828500D02*
Y2924250D01*
X352500Y2969000D02*
X415500D01*
X307750Y2924250D02*
X352500Y2969000D01*
X295750Y2832750D02*
Y2931250D01*
X345750Y2981250D01*
X247750Y2768500D02*
X307750Y2828500D01*
X238000Y2775000D02*
X295750Y2832750D01*
X238000Y1939500D02*
Y2775000D01*
X247750Y1959750D02*
Y2768500D01*
X258250Y1989250D02*
Y2759000D01*
X319750Y2820500D01*
X258250Y1989250D02*
X319000Y1928500D01*
X247750Y1959750D02*
X281721Y1925779D01*
X238000Y1939500D02*
X284500Y1893000D01*
X259750Y1571250D02*
X318000Y1513000D01*
X259750Y1571250D02*
Y1735750D01*
X318000Y1389750D02*
Y1513000D01*
X259750Y1735750D02*
X275500Y1751500D01*
X250000Y1540000D02*
X276716Y1513284D01*
X250000Y1748750D02*
X264500Y1763250D01*
X250000Y1540000D02*
Y1748750D01*
X240000Y1502750D02*
X283000Y1459750D01*
X240000Y1758500D02*
X262500Y1781000D01*
X240000Y1502750D02*
Y1758500D01*
X307500Y1344500D02*
X323500Y1328500D01*
X283000Y1344500D02*
X307500D01*
X323500Y1199250D02*
Y1328500D01*
X288000Y2240000D02*
X306750Y2221250D01*
X288000Y2240000D02*
Y2325750D01*
X306750Y2156000D02*
Y2221250D01*
X281500Y2130750D02*
X306750Y2156000D01*
X328750Y2186250D02*
Y2229250D01*
Y2151250D02*
Y2186250D01*
X303500Y2254500D02*
Y2325750D01*
Y2254500D02*
X328750Y2229250D01*
X304750Y2008250D02*
X328750Y1984250D01*
X304750Y2127250D02*
X328750Y2151250D01*
X304750Y2008250D02*
Y2127250D01*
X255750Y2878000D02*
Y3014750D01*
X323500Y1199250D02*
X331000Y1191750D01*
X235500Y2888000D02*
Y3014750D01*
X215250Y2897250D02*
Y3014500D01*
X306500Y1188250D02*
Y1276250D01*
X281721Y1925779D02*
X301000Y1906500D01*
X1176500Y2883750D02*
X1216750Y2843500D01*
X1087750Y3076250D02*
X1176500Y2987500D01*
Y2883750D02*
Y2987500D01*
X1209250Y2827000D02*
X1478250D01*
X1161500Y2874750D02*
X1209250Y2827000D01*
X1078500Y3065500D02*
X1161500Y2982500D01*
Y2874750D02*
Y2982500D01*
X462000Y3065500D02*
X1078500D01*
X1216750Y2843500D02*
X1263220D01*
X1191238Y2899512D02*
Y2991818D01*
X1222250Y2868500D02*
X1263220D01*
X1191238Y2899512D02*
X1222250Y2868500D01*
X284500Y1781000D02*
Y1893000D01*
X262500Y1781000D02*
X284500D01*
X283000Y1377000D02*
Y1459750D01*
X301000Y1770750D02*
Y1906500D01*
X293500Y1763250D02*
X301000Y1770750D01*
X264500Y1763250D02*
X293500D01*
X318500Y1928000D02*
X319000Y1928500D01*
X318500Y1782000D02*
Y1928000D01*
X315571Y1751500D02*
X318500Y1754429D01*
Y1782000D01*
X275500Y1751500D02*
X315571D01*
X318000Y1389750D02*
X330000Y1377750D01*
X1095555Y3087500D02*
X1191238Y2991818D01*
D16*
X3014250Y1559250D02*
X3039000Y1584000D01*
X3014250Y1130000D02*
X3025150Y1119100D01*
X3014250Y1130000D02*
Y1559250D01*
X3006750Y1105750D02*
Y1565750D01*
X3033000Y1592000D01*
X3006750Y1105750D02*
X3018800Y1093700D01*
X3163107Y1584000D02*
X3174750Y1595643D01*
X3039000Y1584000D02*
X3163107D01*
X3033000Y1592000D02*
X3160500D01*
X3025150Y1119100D02*
X3048300D01*
X3018800Y1093700D02*
X3048300D01*
X3160500Y1592000D02*
X3167250Y1598750D01*
X3167250Y3002750D01*
X2841000Y3047250D02*
X3122750D01*
X3167250Y3002750D01*
X3094500Y1956750D02*
X3130000Y1992250D01*
X3096500Y3021000D02*
X3140000Y2977500D01*
X3117250Y3037750D02*
X3157250Y2997750D01*
X3147500Y1977000D02*
Y2986500D01*
X3109500Y1998000D02*
Y2959000D01*
X3089000Y1963500D02*
X3120250Y1994750D01*
X3157250Y1967500D02*
Y2997750D01*
X3120250Y1994750D02*
Y2966000D01*
X3112750Y1942250D02*
X3147500Y1977000D01*
X3073250Y2995250D02*
X3109500Y2959000D01*
X3120993Y1644690D02*
X3122750Y1646447D01*
X3103500Y1948500D02*
X3140000Y1985000D01*
X3087790Y1976290D02*
X3109500Y1998000D01*
X3087250Y3012500D02*
X3130000Y2969750D01*
X3122750Y1646447D02*
Y1933000D01*
X3105000Y3029000D02*
X3147500Y2986500D01*
X3073700Y1644690D02*
X3120993D01*
X3140000Y1985000D02*
Y2977500D01*
X3122750Y1933000D02*
X3157250Y1967500D01*
X3082250Y3004000D02*
X3120250Y2966000D01*
X3130000Y1992250D02*
Y2969750D01*
X3073700Y1721290D02*
X3094540D01*
X3112750Y1720750D02*
Y1942250D01*
X3094540Y1721290D02*
X3103500Y1730250D01*
Y1948500D01*
X3032250Y1708750D02*
X3100750D01*
X3112750Y1720750D01*
X3028750Y1712250D02*
X3032250Y1708750D01*
X3028750Y1712250D02*
Y1740493D01*
X3127750Y3055750D02*
X3174750Y3008750D01*
X3174750Y1595643D02*
X3174750Y3008750D01*
X3098500Y2002250D02*
Y2953750D01*
X3085250Y1989000D02*
X3098500Y2002250D01*
X3065250Y2987000D02*
X3098500Y2953750D01*
X3052252Y2264252D02*
X3082500Y2294500D01*
X3047500Y2969750D02*
X3082500Y2934750D01*
Y2294500D02*
Y2934750D01*
X3073700Y2256490D02*
X3090750Y2273540D01*
X3056000Y2978500D02*
X3090750Y2943750D01*
Y2273540D02*
Y2943750D01*
X2835500Y3052750D02*
X2841000Y3047250D01*
X2708500Y2978500D02*
X3056000D01*
X2619180Y3067820D02*
Y3088210D01*
Y3067820D02*
X2708500Y2978500D01*
X3094500Y1792890D02*
Y1956750D01*
X3060910Y1963500D02*
X3089000D01*
X3048300Y1721290D02*
X3073700D01*
X2596750Y3075250D02*
X2702250Y2969750D01*
X3047500D01*
X2596750Y3075250D02*
Y3108250D01*
X2602110Y3113610D02*
X2619180D01*
X2596750Y3108250D02*
X2602110Y3113610D01*
X3048300Y2256490D02*
Y2260021D01*
X3052252Y2263973D01*
Y2264252D01*
X2970750Y3055750D02*
X3127750D01*
X2963250Y3063250D02*
Y3100940D01*
Y3063250D02*
X2970750Y3055750D01*
X2835500Y3052750D02*
Y3100890D01*
X2825250Y3029000D02*
X3105000D01*
X2810113Y3044137D02*
Y3129363D01*
Y3044137D02*
X2825250Y3029000D01*
X2800250Y3021000D02*
X3096500D01*
X2771980Y3049270D02*
Y3088210D01*
Y3049270D02*
X2800250Y3021000D01*
X2759250Y3040500D02*
Y3100940D01*
X2787250Y3012500D02*
X3087250D01*
X2759250Y3040500D02*
X2787250Y3012500D01*
X2773000Y3004000D02*
X3082250D01*
X2746580Y3030420D02*
Y3088210D01*
Y3030420D02*
X2773000Y3004000D01*
X2760000Y2995250D02*
X3073250D01*
X2733750Y3021500D02*
Y3100640D01*
Y3021500D02*
X2760000Y2995250D01*
X2747750Y2987000D02*
X3065250D01*
X2720780Y3013970D02*
Y3088210D01*
Y3013970D02*
X2747750Y2987000D01*
X3073700Y1772090D02*
X3094500Y1792890D01*
X2833429Y3037750D02*
X3117250D01*
X2822780Y3048399D02*
X2833429Y3037750D01*
X3048300Y1978550D02*
X3058750Y1989000D01*
X3085250D01*
X3073700Y1976290D02*
X3087790D01*
X2822780Y3113610D02*
X2835500Y3100890D01*
X2810113Y3129363D02*
X2812750Y3132000D01*
X2897493D01*
X2746580Y3113610D02*
X2759250Y3100940D01*
X2720780Y3113610D02*
X2733750Y3100640D01*
X3034948Y1746690D02*
X3048300D01*
X3028750Y1740493D02*
X3034948Y1746690D01*
X2899250Y3113740D02*
Y3130243D01*
X2897493Y3132000D02*
X2899250Y3130243D01*
Y3113740D02*
X2899380Y3113610D01*
X2822780Y3048399D02*
Y3088210D01*
X2950580Y3113610D02*
X2963250Y3100940D01*
X3048300Y1950890D02*
X3060910Y1963500D01*
X3048300Y1976290D02*
Y1978550D01*
Y1644690D02*
X3073700D01*
D67*
X848377Y43500D02*
X2759500D01*
X821127Y70750D02*
X848377Y43500D01*
X2759500D02*
X2797000Y81000D01*
X2974780Y48780D02*
Y78310D01*
X2953750Y27750D02*
X2974780Y48780D01*
X180500Y54750D02*
X807500D01*
X123500Y111750D02*
X180500Y54750D01*
X191000Y70750D02*
X821127D01*
X146000Y115750D02*
X191000Y70750D01*
X834500Y27750D02*
X2953750D01*
X807500Y54750D02*
X834500Y27750D01*
D68*
X1119710Y1235280D02*
D03*
Y1455280D02*
D03*
X1795350Y1811580D02*
D03*
Y2111580D02*
D03*
X2035350Y1811580D02*
D03*
Y2111580D02*
D03*
D69*
X1781380Y573270D02*
D03*
Y393270D02*
D03*
X1591380Y573270D02*
D03*
Y393270D02*
D03*
D70*
X1708990Y2879930D02*
D03*
X1143840Y2436700D02*
D03*
X1226390Y1692480D02*
D03*
X2035380Y2383360D02*
D03*
X1686130Y244680D02*
D03*
X2746580Y220550D02*
D03*
X2035380Y2881200D02*
D03*
X2210640D02*
D03*
X1877900Y2879930D02*
D03*
D71*
X2416380Y2738600D02*
D03*
Y2398600D02*
D03*
D72*
X1263220Y2990820D02*
D03*
X1359730Y1684860D02*
D03*
X1171780D02*
D03*
X1679580Y2327280D02*
D03*
X820250Y881250D02*
D03*
X1646850Y176100D02*
D03*
X1646760Y112600D02*
D03*
X2969750Y487250D02*
D03*
X3046470Y414530D02*
D03*
Y389530D02*
D03*
Y339530D02*
D03*
Y314530D02*
D03*
X3136470Y414530D02*
D03*
Y389530D02*
D03*
Y364530D02*
D03*
Y339530D02*
D03*
Y314530D02*
D03*
X2999780Y168310D02*
D03*
X2974780D02*
D03*
X2924780D02*
D03*
X2899780D02*
D03*
X2999780Y78310D02*
D03*
X2974780D02*
D03*
X2949780D02*
D03*
X2924780D02*
D03*
X2899780D02*
D03*
X3080590Y253170D02*
D03*
X2796110Y374020D02*
D03*
X2882470Y376560D02*
D03*
X762840Y2970500D02*
D03*
Y2855800D02*
D03*
Y2641370D02*
D03*
X1263220Y2579140D02*
D03*
X2144600Y244680D02*
D03*
X1263220Y2702330D02*
D03*
Y2843500D02*
D03*
X2062050Y244680D02*
D03*
X2595000Y975536D02*
D03*
X1480250Y203750D02*
D03*
Y182214D02*
D03*
X1539500Y243250D02*
D03*
X1517964D02*
D03*
X1578750Y186500D02*
D03*
Y208036D02*
D03*
X1521000Y145750D02*
D03*
X1542536D02*
D03*
X1857750Y146750D02*
D03*
X1879286D02*
D03*
X1915750Y210750D02*
D03*
Y189214D02*
D03*
X1875250Y246250D02*
D03*
X1853714D02*
D03*
X1816500Y186500D02*
D03*
Y208036D02*
D03*
X1569250Y381000D02*
D03*
Y402536D02*
D03*
X1612500Y381500D02*
D03*
Y403036D02*
D03*
X1803750Y383250D02*
D03*
Y404786D02*
D03*
X1760000Y381750D02*
D03*
Y403286D02*
D03*
X1570000Y563000D02*
D03*
Y584536D02*
D03*
X1612500Y563750D02*
D03*
Y585286D02*
D03*
X1802750Y564500D02*
D03*
Y586036D02*
D03*
X1759000Y562750D02*
D03*
Y584286D02*
D03*
X1655500Y1282250D02*
D03*
Y1303786D02*
D03*
X1585000Y1281000D02*
D03*
Y1302536D02*
D03*
X1655500Y1419000D02*
D03*
X1655250Y1404250D02*
D03*
X2631214Y1816250D02*
D03*
X2609679D02*
D03*
X2653036Y1836500D02*
D03*
X2609964D02*
D03*
X2652750Y1816250D02*
D03*
X2631500Y1836500D02*
D03*
X2655750Y975036D02*
D03*
Y953500D02*
D03*
X2595000Y954000D02*
D03*
X2619750Y350000D02*
D03*
X2641286D02*
D03*
X2558000Y378500D02*
D03*
X2557750Y357750D02*
D03*
X2651750Y440786D02*
D03*
Y419250D02*
D03*
X2601250Y441536D02*
D03*
Y420000D02*
D03*
X2581000Y442036D02*
D03*
Y420500D02*
D03*
X2557250Y251321D02*
D03*
Y272857D02*
D03*
X2557500Y294250D02*
D03*
Y315786D02*
D03*
Y337321D02*
D03*
X2557750Y398286D02*
D03*
Y419821D02*
D03*
Y441357D02*
D03*
X2632250Y546250D02*
D03*
X2653000Y546000D02*
D03*
X2610000D02*
D03*
X2632250Y527500D02*
D03*
X2653000Y527250D02*
D03*
X2610000D02*
D03*
X2631750Y508750D02*
D03*
X2652500Y508500D02*
D03*
X2609500D02*
D03*
X2547750Y547607D02*
D03*
Y526071D02*
D03*
Y504536D02*
D03*
Y483000D02*
D03*
X2590750D02*
D03*
Y504536D02*
D03*
Y526071D02*
D03*
Y547607D02*
D03*
X2570000Y483250D02*
D03*
Y504786D02*
D03*
Y526321D02*
D03*
Y547857D02*
D03*
X2636750Y668250D02*
D03*
X2615214D02*
D03*
X2635500Y633500D02*
D03*
X2613964D02*
D03*
X2654750Y639250D02*
D03*
Y660786D02*
D03*
X2592250Y639750D02*
D03*
Y661286D02*
D03*
X2548750Y662857D02*
D03*
Y641321D02*
D03*
Y619786D02*
D03*
Y598250D02*
D03*
X2569500Y662607D02*
D03*
Y641071D02*
D03*
Y619536D02*
D03*
Y598000D02*
D03*
X2652750Y771500D02*
D03*
X2631214D02*
D03*
X2609679D02*
D03*
X2652750Y751750D02*
D03*
X2631214D02*
D03*
X2609679D02*
D03*
X2652750Y732250D02*
D03*
X2631214D02*
D03*
X2609679D02*
D03*
X2547000Y704750D02*
D03*
Y726286D02*
D03*
Y747821D02*
D03*
Y769357D02*
D03*
X2568250Y769107D02*
D03*
Y747571D02*
D03*
Y726036D02*
D03*
Y704500D02*
D03*
X2589000Y768857D02*
D03*
Y747321D02*
D03*
Y725786D02*
D03*
Y704250D02*
D03*
X2636750Y851750D02*
D03*
X2618000Y851500D02*
D03*
X2654750Y855250D02*
D03*
X2654250Y875250D02*
D03*
X2593750Y875750D02*
D03*
X2593250Y856000D02*
D03*
X2569750Y810750D02*
D03*
Y832286D02*
D03*
Y853821D02*
D03*
Y875357D02*
D03*
X2549000Y811000D02*
D03*
Y832536D02*
D03*
Y854071D02*
D03*
Y875607D02*
D03*
X2613964Y1176750D02*
D03*
X2635500D02*
D03*
X2583750Y1178500D02*
D03*
Y1156964D02*
D03*
X2563500Y1178786D02*
D03*
Y1157250D02*
D03*
X2612500Y1247857D02*
D03*
Y1269393D02*
D03*
Y1226321D02*
D03*
Y1204786D02*
D03*
X2632750Y1204500D02*
D03*
Y1247571D02*
D03*
Y1269107D02*
D03*
Y1226036D02*
D03*
X2561000Y1248857D02*
D03*
Y1270393D02*
D03*
Y1227321D02*
D03*
Y1205786D02*
D03*
X2581250Y1205500D02*
D03*
Y1248571D02*
D03*
Y1270107D02*
D03*
Y1227036D02*
D03*
X2649000Y1077250D02*
D03*
X2648500Y1106500D02*
D03*
X2603500Y1106000D02*
D03*
X2599750Y1076750D02*
D03*
X2589250Y922500D02*
D03*
X2569000Y922786D02*
D03*
X2615000Y953286D02*
D03*
Y974821D02*
D03*
X2635250Y953000D02*
D03*
Y974536D02*
D03*
X2574250Y1010071D02*
D03*
Y967000D02*
D03*
Y988536D02*
D03*
Y1053143D02*
D03*
Y1096214D02*
D03*
Y945464D02*
D03*
Y1074678D02*
D03*
Y1031607D02*
D03*
X2554000Y1031893D02*
D03*
Y1010357D02*
D03*
Y1053428D02*
D03*
Y1096500D02*
D03*
Y1074964D02*
D03*
Y988821D02*
D03*
Y967286D02*
D03*
Y945750D02*
D03*
X1942500Y221250D02*
D03*
X1944750Y201750D02*
D03*
X1945000Y181250D02*
D03*
X1939000Y162250D02*
D03*
X1890750Y126500D02*
D03*
X1936250Y238750D02*
D03*
X1923500Y255000D02*
D03*
X1902500Y266000D02*
D03*
X1788250Y208500D02*
D03*
X1792250Y232500D02*
D03*
X1805000Y252000D02*
D03*
X1826000Y265250D02*
D03*
X1872750Y271000D02*
D03*
X1787250Y184750D02*
D03*
X2000500Y202643D02*
D03*
Y181107D02*
D03*
Y224179D02*
D03*
Y267250D02*
D03*
Y245714D02*
D03*
Y159571D02*
D03*
Y138036D02*
D03*
Y116500D02*
D03*
X1974750Y201393D02*
D03*
Y179857D02*
D03*
Y222929D02*
D03*
Y266000D02*
D03*
Y244464D02*
D03*
Y158321D02*
D03*
Y136786D02*
D03*
Y115250D02*
D03*
X1925250Y147750D02*
D03*
X1909250Y135750D02*
D03*
X1851500Y127250D02*
D03*
X1527214Y123500D02*
D03*
X1800750Y160750D02*
D03*
X1813500Y143500D02*
D03*
X1829000Y129500D02*
D03*
X1577250Y252250D02*
D03*
X1455750Y239500D02*
D03*
X1476000Y244500D02*
D03*
X1460250Y156000D02*
D03*
X1470750Y141250D02*
D03*
X1485500Y132000D02*
D03*
X1597500Y131500D02*
D03*
X1575750Y135500D02*
D03*
X1591000Y150750D02*
D03*
X1505679Y123500D02*
D03*
X1548750D02*
D03*
X1457250Y216321D02*
D03*
Y194786D02*
D03*
Y173250D02*
D03*
X1022250Y890500D02*
D03*
X1074500D02*
D03*
X1047750D02*
D03*
X996250D02*
D03*
X970750Y664000D02*
D03*
X996750D02*
D03*
X1022250D02*
D03*
X1076000Y624500D02*
D03*
X1050000D02*
D03*
X1023250D02*
D03*
X997750D02*
D03*
X971750D02*
D03*
X969750Y702214D02*
D03*
X995750D02*
D03*
X1021250D02*
D03*
X1048000D02*
D03*
X1074000D02*
D03*
X1171250Y1048250D02*
D03*
X1195500Y1048000D02*
D03*
X1168500Y990250D02*
D03*
X1192750Y990000D02*
D03*
X1169500Y927500D02*
D03*
X1193750Y927250D02*
D03*
X1168250Y867500D02*
D03*
X1192500Y867250D02*
D03*
X1192000Y741750D02*
D03*
X1167750Y742000D02*
D03*
X1192000Y806500D02*
D03*
X1167750Y806750D02*
D03*
X1169000Y681500D02*
D03*
X1193250Y681250D02*
D03*
X1272250Y1081857D02*
D03*
Y1103393D02*
D03*
Y1060322D02*
D03*
Y1017250D02*
D03*
Y1038786D02*
D03*
Y1124929D02*
D03*
X1245000Y1078607D02*
D03*
Y1100143D02*
D03*
Y1057072D02*
D03*
Y1014000D02*
D03*
Y1035536D02*
D03*
Y1121679D02*
D03*
X1216750Y1058357D02*
D03*
Y1079893D02*
D03*
Y1036822D02*
D03*
Y993750D02*
D03*
Y1015286D02*
D03*
Y1101429D02*
D03*
Y1122964D02*
D03*
X1217500Y884607D02*
D03*
Y906143D02*
D03*
Y863072D02*
D03*
Y820000D02*
D03*
Y841536D02*
D03*
Y927679D02*
D03*
Y949214D02*
D03*
Y970750D02*
D03*
X1244750Y906607D02*
D03*
Y928143D02*
D03*
Y885071D02*
D03*
Y842000D02*
D03*
Y863536D02*
D03*
Y949679D02*
D03*
Y971214D02*
D03*
Y992750D02*
D03*
X1271000Y910107D02*
D03*
Y931643D02*
D03*
Y888571D02*
D03*
Y845500D02*
D03*
Y867036D02*
D03*
Y953179D02*
D03*
Y974714D02*
D03*
Y996250D02*
D03*
X1270750Y734107D02*
D03*
Y755643D02*
D03*
Y712571D02*
D03*
Y669500D02*
D03*
Y691036D02*
D03*
Y777179D02*
D03*
Y798714D02*
D03*
Y820250D02*
D03*
X1244750Y731607D02*
D03*
Y753143D02*
D03*
Y710071D02*
D03*
Y667000D02*
D03*
Y688536D02*
D03*
Y774679D02*
D03*
Y796214D02*
D03*
Y817750D02*
D03*
X1218000Y709857D02*
D03*
Y731393D02*
D03*
Y688322D02*
D03*
Y645250D02*
D03*
Y666786D02*
D03*
Y752929D02*
D03*
Y774464D02*
D03*
Y796000D02*
D03*
X1427250Y1525786D02*
D03*
Y1504250D02*
D03*
Y1547321D02*
D03*
Y1418107D02*
D03*
Y1439643D02*
D03*
Y1568857D02*
D03*
Y1482714D02*
D03*
Y1461179D02*
D03*
X1459750Y1482107D02*
D03*
Y1503643D02*
D03*
Y1460571D02*
D03*
Y1417500D02*
D03*
Y1439036D02*
D03*
Y1525179D02*
D03*
Y1546714D02*
D03*
Y1568250D02*
D03*
X1489750Y1490857D02*
D03*
Y1512393D02*
D03*
Y1469321D02*
D03*
Y1426250D02*
D03*
Y1447786D02*
D03*
Y1533929D02*
D03*
Y1555464D02*
D03*
Y1577000D02*
D03*
X1517500Y1533179D02*
D03*
Y1468571D02*
D03*
Y1554714D02*
D03*
Y1447036D02*
D03*
Y1576250D02*
D03*
X1551250Y1534928D02*
D03*
Y1556464D02*
D03*
X1517500Y1490107D02*
D03*
X1551250Y1470321D02*
D03*
X1517500Y1511643D02*
D03*
X1551250Y1448786D02*
D03*
Y1513393D02*
D03*
X1517500Y1425500D02*
D03*
X1551250Y1578000D02*
D03*
Y1491857D02*
D03*
Y1427250D02*
D03*
X1689393Y2946500D02*
D03*
X1667857D02*
D03*
X1710929D02*
D03*
X1754000D02*
D03*
X1732464D02*
D03*
X1688643Y2920000D02*
D03*
X1667107D02*
D03*
X1710179D02*
D03*
X1753250D02*
D03*
X1731714D02*
D03*
X2197143Y2837250D02*
D03*
X2175607D02*
D03*
X2218679D02*
D03*
X2261750D02*
D03*
X2240214D02*
D03*
X2025393Y2839000D02*
D03*
X2003857D02*
D03*
X2046929D02*
D03*
X2090000D02*
D03*
X2068464D02*
D03*
X2133750Y2209321D02*
D03*
Y2252393D02*
D03*
Y2230857D02*
D03*
Y2187786D02*
D03*
Y2166250D02*
D03*
X2106143Y2123250D02*
D03*
X2084607D02*
D03*
X2127679D02*
D03*
X2170750D02*
D03*
X2149214D02*
D03*
X2059214Y2176750D02*
D03*
X2080750D02*
D03*
X2037679D02*
D03*
X1994607D02*
D03*
X2016143D02*
D03*
X1995607Y2151750D02*
D03*
X2038679D02*
D03*
X2017143D02*
D03*
X2081750D02*
D03*
X2060214D02*
D03*
X1381496Y1150123D02*
D03*
X1360496Y1128123D02*
D03*
X1434496Y1156623D02*
D03*
X1416746Y1138623D02*
D03*
X1399746Y1117873D02*
D03*
X1381496Y1097873D02*
D03*
X1682000Y2161643D02*
D03*
Y2140107D02*
D03*
Y2183179D02*
D03*
Y2226250D02*
D03*
Y2204714D02*
D03*
X1755143Y2163750D02*
D03*
X1733607D02*
D03*
X1776679D02*
D03*
X1819750D02*
D03*
X1798214D02*
D03*
X1758893Y2192000D02*
D03*
X1737357D02*
D03*
X1780429D02*
D03*
X1823500D02*
D03*
X1801964D02*
D03*
X1758143Y2219000D02*
D03*
X1736607D02*
D03*
X1779679D02*
D03*
X1822750D02*
D03*
X1801214D02*
D03*
X1557500Y616000D02*
D03*
X1593750Y628250D02*
D03*
X1572464D02*
D03*
X1548750Y552464D02*
D03*
Y595536D02*
D03*
Y574000D02*
D03*
X1361000Y850500D02*
D03*
Y828964D02*
D03*
Y807429D02*
D03*
Y721286D02*
D03*
Y699750D02*
D03*
Y742822D02*
D03*
Y785893D02*
D03*
Y764357D02*
D03*
Y1079500D02*
D03*
Y1057964D02*
D03*
Y1036429D02*
D03*
Y950286D02*
D03*
Y928750D02*
D03*
Y971822D02*
D03*
Y1014893D02*
D03*
Y993357D02*
D03*
X1542750Y1177750D02*
D03*
X1521214D02*
D03*
X1499679D02*
D03*
X1435072D02*
D03*
X1478143D02*
D03*
X1456607D02*
D03*
X1543750Y1203500D02*
D03*
X1522214D02*
D03*
X1500679D02*
D03*
X1436071D02*
D03*
X1479143D02*
D03*
X1457607D02*
D03*
X1544750Y1227750D02*
D03*
X1523214D02*
D03*
X1501679D02*
D03*
X1437072D02*
D03*
X1480143D02*
D03*
X1458607D02*
D03*
X1544750Y1252000D02*
D03*
X1523214D02*
D03*
X1501679D02*
D03*
X1437072D02*
D03*
X1480143D02*
D03*
X1458607D02*
D03*
X1544750Y1274250D02*
D03*
X1523214D02*
D03*
X1501679D02*
D03*
X1437072D02*
D03*
X1480143D02*
D03*
X1458607D02*
D03*
X1544750Y1299000D02*
D03*
X1523214D02*
D03*
X1501679D02*
D03*
X1437072D02*
D03*
X1480143D02*
D03*
X1458607D02*
D03*
X1462750Y265500D02*
D03*
Y287036D02*
D03*
Y308571D02*
D03*
Y394714D02*
D03*
Y416250D02*
D03*
Y373178D02*
D03*
Y330107D02*
D03*
Y351643D02*
D03*
X1549500Y268000D02*
D03*
Y289536D02*
D03*
Y311071D02*
D03*
Y397214D02*
D03*
Y418750D02*
D03*
Y375678D02*
D03*
Y332607D02*
D03*
Y354143D02*
D03*
X1850000Y285750D02*
D03*
Y307286D02*
D03*
Y328821D02*
D03*
Y414964D02*
D03*
Y436500D02*
D03*
Y393428D02*
D03*
Y350357D02*
D03*
Y371893D02*
D03*
X1890750Y287500D02*
D03*
Y309036D02*
D03*
Y330571D02*
D03*
Y416714D02*
D03*
Y438250D02*
D03*
Y395178D02*
D03*
Y352107D02*
D03*
Y373643D02*
D03*
X1930500Y289750D02*
D03*
Y311286D02*
D03*
Y332821D02*
D03*
Y418964D02*
D03*
Y440500D02*
D03*
Y397429D02*
D03*
Y354357D02*
D03*
Y375893D02*
D03*
X1967500Y291000D02*
D03*
Y312536D02*
D03*
Y334071D02*
D03*
Y420214D02*
D03*
Y441750D02*
D03*
Y398679D02*
D03*
Y355607D02*
D03*
Y377143D02*
D03*
X2000000Y289750D02*
D03*
Y311286D02*
D03*
Y332821D02*
D03*
Y418964D02*
D03*
Y440500D02*
D03*
Y397429D02*
D03*
Y354357D02*
D03*
Y375893D02*
D03*
X1601750Y167750D02*
D03*
Y189286D02*
D03*
Y210821D02*
D03*
Y296964D02*
D03*
Y318500D02*
D03*
Y275429D02*
D03*
Y232357D02*
D03*
Y253893D02*
D03*
X1524750Y267250D02*
D03*
Y288786D02*
D03*
Y310321D02*
D03*
Y396464D02*
D03*
Y418000D02*
D03*
Y374929D02*
D03*
Y331857D02*
D03*
Y353393D02*
D03*
X1493500Y268000D02*
D03*
Y289536D02*
D03*
Y311071D02*
D03*
Y397214D02*
D03*
Y418750D02*
D03*
Y375678D02*
D03*
Y332607D02*
D03*
Y354143D02*
D03*
X3061250Y1494500D02*
D03*
X3181500Y512250D02*
D03*
X3200750Y483500D02*
D03*
X2831000Y1396250D02*
D03*
X2941000Y1816000D02*
D03*
X1130750Y376500D02*
D03*
X548750Y2633750D02*
D03*
X552750Y2676250D02*
D03*
X1481000Y2691250D02*
D03*
X1532000Y2536750D02*
D03*
X1480250Y2551500D02*
D03*
X2797000Y81000D02*
D03*
X123500Y111750D02*
D03*
X146000Y115750D02*
D03*
X2928750Y562750D02*
D03*
X1103750Y376750D02*
D03*
X738250Y120750D02*
D03*
X739250Y151250D02*
D03*
X1326000Y482000D02*
D03*
X388000Y2875500D02*
D03*
X434000Y2912750D02*
D03*
X471500D02*
D03*
X1217750Y3063170D02*
D03*
X1239250Y3063500D02*
D03*
X1261750Y3063000D02*
D03*
X1481500Y2974000D02*
D03*
X255750Y3014750D02*
D03*
X235500D02*
D03*
X215250Y3014500D02*
D03*
X453000Y2913000D02*
D03*
X1478250Y2827000D02*
D03*
X320250Y3017250D02*
D03*
X360000D02*
D03*
X340250Y3017500D02*
D03*
X349750Y2875500D02*
D03*
X368750Y2876250D02*
D03*
X369250Y2789000D02*
D03*
X390000Y2789250D02*
D03*
X349250Y2790000D02*
D03*
X554000Y2817250D02*
D03*
X551940Y2855560D02*
D03*
X553500Y2895250D02*
D03*
X556000Y2935750D02*
D03*
X554750Y2965000D02*
D03*
X556000Y3015750D02*
D03*
X557000Y2589750D02*
D03*
X248000Y588500D02*
D03*
X2743730Y2247230D02*
D03*
X2744960Y2189290D02*
D03*
X2743340Y2132660D02*
D03*
X2742760Y2074990D02*
D03*
X2787560Y1658190D02*
D03*
X2713760Y1823510D02*
D03*
X2779730Y1740730D02*
D03*
X2903250Y756750D02*
D03*
X2834590Y1222590D02*
D03*
X2858750Y680500D02*
D03*
X2861250Y501250D02*
D03*
X2839860Y981610D02*
D03*
D73*
X1263220Y3015820D02*
D03*
X820250Y856250D02*
D03*
X2969750Y462250D02*
D03*
X3080590Y228170D02*
D03*
X2796110Y349020D02*
D03*
X2882470Y351560D02*
D03*
X762840Y2995500D02*
D03*
Y2880800D02*
D03*
Y2666370D02*
D03*
X1263220Y2604140D02*
D03*
Y2727330D02*
D03*
Y2868500D02*
D03*
D74*
X2626000Y485500D02*
D03*
Y431000D02*
D03*
Y376500D02*
D03*
Y705500D02*
D03*
Y651000D02*
D03*
Y596500D02*
D03*
Y925500D02*
D03*
Y871000D02*
D03*
Y816500D02*
D03*
Y1036500D02*
D03*
Y1091000D02*
D03*
Y1145500D02*
D03*
Y1565500D02*
D03*
Y1511000D02*
D03*
Y1456500D02*
D03*
Y1676500D02*
D03*
Y1731000D02*
D03*
Y1785500D02*
D03*
Y1896500D02*
D03*
Y1951000D02*
D03*
Y2005500D02*
D03*
X396000Y906770D02*
D03*
Y197770D02*
D03*
Y452270D02*
D03*
Y2452270D02*
D03*
Y2197770D02*
D03*
Y1997770D02*
D03*
Y1306770D02*
D03*
Y1252270D02*
D03*
Y1197770D02*
D03*
Y2506770D02*
D03*
Y2397770D02*
D03*
Y2306770D02*
D03*
Y2252270D02*
D03*
Y1506770D02*
D03*
Y1452270D02*
D03*
Y1397770D02*
D03*
Y706770D02*
D03*
Y652270D02*
D03*
Y597770D02*
D03*
Y306770D02*
D03*
Y252270D02*
D03*
Y1106770D02*
D03*
Y1052270D02*
D03*
Y997770D02*
D03*
Y1906770D02*
D03*
Y1852270D02*
D03*
Y1797770D02*
D03*
Y1706770D02*
D03*
Y1652270D02*
D03*
Y1597770D02*
D03*
Y506770D02*
D03*
Y397770D02*
D03*
Y852270D02*
D03*
Y797770D02*
D03*
Y2106770D02*
D03*
Y2052270D02*
D03*
D75*
X1336880Y1855840D02*
D03*
X984620Y2141590D02*
D03*
X1358940Y2222870D02*
D03*
X877940Y1832180D02*
D03*
D76*
X1336880Y1955840D02*
D03*
X984620Y2241590D02*
D03*
X1358940Y2322870D02*
D03*
D77*
X2064880Y1444580D02*
D03*
Y1254580D02*
D03*
D78*
X2054880Y1224580D02*
D03*
Y1474580D02*
D03*
D79*
X1609880Y1549580D02*
D03*
Y1239580D02*
D03*
D80*
X1619880Y1409580D02*
D03*
Y1289580D02*
D03*
D81*
X977940Y1832180D02*
D03*
D82*
X1279730Y1684860D02*
D03*
X1091780D02*
D03*
X1731850Y176100D02*
D03*
X1731760Y112600D02*
D03*
D83*
X1692500Y1184750D02*
D03*
Y1144750D02*
D03*
D84*
X2924780Y3088210D02*
D03*
X2975980D02*
D03*
Y3113610D02*
D03*
X2950580Y3088210D02*
D03*
Y3113610D02*
D03*
X2924780D02*
D03*
X2899380Y3088210D02*
D03*
Y3113610D02*
D03*
X2873980Y3088210D02*
D03*
Y3113610D02*
D03*
X2848580Y3088210D02*
D03*
Y3113610D02*
D03*
X2720780Y3088210D02*
D03*
X2822780Y3113610D02*
D03*
X2797380D02*
D03*
X2822780Y3088210D02*
D03*
X2797380D02*
D03*
X2771980D02*
D03*
Y3113610D02*
D03*
X2746580Y3088210D02*
D03*
Y3113610D02*
D03*
X2720780D02*
D03*
X2695380Y3088210D02*
D03*
Y3113610D02*
D03*
X2669980Y3088210D02*
D03*
Y3113610D02*
D03*
X2644580Y3088210D02*
D03*
Y3113610D02*
D03*
X2619180D02*
D03*
X3073700Y1644690D02*
D03*
X3048300D02*
D03*
X3073700Y1670090D02*
D03*
X3048300D02*
D03*
X3073700Y1797890D02*
D03*
X3048300Y1695890D02*
D03*
Y1721290D02*
D03*
X3073700Y1695890D02*
D03*
Y1721290D02*
D03*
Y1746690D02*
D03*
X3048300D02*
D03*
X3073700Y1772090D02*
D03*
X3048300D02*
D03*
Y1797890D02*
D03*
X3073700Y1823290D02*
D03*
X3048300D02*
D03*
X3073700Y1848690D02*
D03*
X3048300D02*
D03*
X3073700Y1874090D02*
D03*
X3048300D02*
D03*
Y1899490D02*
D03*
X3073700Y1950890D02*
D03*
Y1899690D02*
D03*
Y1925090D02*
D03*
X3048300D02*
D03*
Y1950890D02*
D03*
X3073700Y1976290D02*
D03*
X3048300D02*
D03*
X3073700Y2001690D02*
D03*
X3048300D02*
D03*
X3073700Y2027090D02*
D03*
X3048300D02*
D03*
X3073700Y2154890D02*
D03*
X3048300Y2052890D02*
D03*
Y2078290D02*
D03*
X3073700Y2052890D02*
D03*
Y2078290D02*
D03*
Y2103690D02*
D03*
X3048300D02*
D03*
X3073700Y2129090D02*
D03*
X3048300D02*
D03*
Y2154890D02*
D03*
X3073700Y2180290D02*
D03*
X3048300D02*
D03*
X3073700Y2205690D02*
D03*
X3048300D02*
D03*
X3073700Y2231090D02*
D03*
X3048300D02*
D03*
Y2256490D02*
D03*
X3073700Y813500D02*
D03*
Y762300D02*
D03*
X3048300D02*
D03*
X3073700Y787700D02*
D03*
X3048300D02*
D03*
Y813500D02*
D03*
X3073700Y838900D02*
D03*
X3048300D02*
D03*
X3073700Y864300D02*
D03*
X3048300D02*
D03*
X3073700Y889700D02*
D03*
X3048300D02*
D03*
X3073700Y1017500D02*
D03*
X3048300Y915500D02*
D03*
Y940900D02*
D03*
X3073700Y915500D02*
D03*
Y940900D02*
D03*
Y966300D02*
D03*
X3048300D02*
D03*
X3073700Y991700D02*
D03*
X3048300D02*
D03*
Y1017500D02*
D03*
X3073700Y1042900D02*
D03*
X3048300D02*
D03*
X3073700Y1068300D02*
D03*
X3048300D02*
D03*
X3073700Y1093700D02*
D03*
X3048300D02*
D03*
Y1119100D02*
D03*
D85*
X2619180Y3088210D02*
D03*
D86*
X1654580Y2327280D02*
D03*
D87*
X2998040Y2596720D02*
D03*
D88*
Y2622120D02*
D03*
X163900Y2976000D02*
D03*
D89*
X1927430Y610440D02*
D03*
Y826340D02*
D03*
X1879170D02*
D03*
Y718390D02*
D03*
X1927430D02*
D03*
X1561670D02*
D03*
Y827610D02*
D03*
X1059610Y289590D02*
D03*
X849610Y664590D02*
D03*
Y289590D02*
D03*
X1927430Y935560D02*
D03*
X1879550D02*
D03*
X1561670Y936240D02*
D03*
D90*
X2062430Y610440D02*
D03*
Y826340D02*
D03*
X1744170D02*
D03*
Y718390D02*
D03*
X2062430D02*
D03*
X1696670D02*
D03*
Y827610D02*
D03*
X2062430Y935560D02*
D03*
X1744550D02*
D03*
X1696670Y936240D02*
D03*
D91*
X893650Y791288D02*
D03*
Y829388D02*
D03*
Y810592D02*
D03*
Y772492D02*
D03*
X1922350Y2333830D02*
D03*
Y2295730D02*
D03*
Y2314526D02*
D03*
Y2352626D02*
D03*
D92*
X1046050Y737440D02*
D03*
X995250Y864440D02*
D03*
X1020650Y737440D02*
D03*
Y864440D02*
D03*
X1071450Y737440D02*
D03*
X1046050Y864440D02*
D03*
X1071450D02*
D03*
X995250Y737440D02*
D03*
X1769950Y2387678D02*
D03*
X1820750Y2260678D02*
D03*
X1795350Y2387678D02*
D03*
Y2260678D02*
D03*
X1744550Y2387678D02*
D03*
X1769950Y2260678D02*
D03*
X1744550D02*
D03*
X1820750Y2387678D02*
D03*
D93*
X1059610Y664590D02*
D03*
D94*
X1180670Y400960D02*
D03*
X1885450Y2469720D02*
D03*
X2134510Y2284300D02*
D03*
D95*
X1180670Y250960D02*
D03*
D96*
X1338800Y387250D02*
D03*
X1313400D02*
D03*
X1364200D02*
D03*
D97*
X1288000D02*
D03*
D98*
X138500Y2976000D02*
D03*
D99*
X615520Y2745310D02*
D03*
D100*
Y2770710D02*
D03*
D101*
X930480Y2693170D02*
D03*
D102*
X1179930Y1019380D02*
D03*
Y897037D02*
D03*
Y774693D02*
D03*
Y652350D02*
D03*
X1818800Y2658950D02*
D03*
D103*
X1110480Y2693170D02*
D03*
X930480Y2793170D02*
D03*
Y2718170D02*
D03*
Y2768170D02*
D03*
Y2868170D02*
D03*
Y2843170D02*
D03*
Y2818170D02*
D03*
Y2918170D02*
D03*
Y2893170D02*
D03*
Y2943170D02*
D03*
X1110480Y2793170D02*
D03*
Y2718170D02*
D03*
Y2768170D02*
D03*
Y2868170D02*
D03*
Y2843170D02*
D03*
Y2918170D02*
D03*
Y2943170D02*
D03*
D104*
X1404930Y1019380D02*
D03*
X2093800Y2658950D02*
D03*
X1404930Y897037D02*
D03*
Y774693D02*
D03*
Y652350D02*
D03*
D105*
X2144600Y159680D02*
D03*
X2062050D02*
D03*
D106*
X3073700Y2256490D02*
D03*
Y1119100D02*
D03*
D107*
X1529920Y193880D02*
D03*
X1865200Y196420D02*
D03*
D108*
X2035450Y2469720D02*
D03*
X1984510Y2284300D02*
D03*
D109*
X253500Y696500D02*
D03*
X207500Y560000D02*
D03*
X306750Y2379750D02*
D03*
X2050430Y610940D02*
D03*
Y598940D02*
D03*
X2062430D02*
D03*
X2051430Y621940D02*
D03*
X2062430D02*
D03*
X2074430D02*
D03*
Y610940D02*
D03*
Y598940D02*
D03*
Y814840D02*
D03*
Y826840D02*
D03*
Y837840D02*
D03*
X2062430D02*
D03*
X2051430D02*
D03*
X2062430Y814840D02*
D03*
X2050430D02*
D03*
Y826840D02*
D03*
X1732170Y837840D02*
D03*
Y825840D02*
D03*
Y814840D02*
D03*
X1744170D02*
D03*
X1755170D02*
D03*
X1744170Y837840D02*
D03*
X1756170D02*
D03*
Y825840D02*
D03*
Y717890D02*
D03*
Y729890D02*
D03*
X1744170D02*
D03*
X1755170Y706890D02*
D03*
X1744170D02*
D03*
X1732170D02*
D03*
Y717890D02*
D03*
Y729890D02*
D03*
X2050430Y718890D02*
D03*
Y706890D02*
D03*
X2062430D02*
D03*
X2051430Y729890D02*
D03*
X2062430D02*
D03*
X2074430D02*
D03*
Y718890D02*
D03*
Y706890D02*
D03*
X1684670Y718890D02*
D03*
Y706890D02*
D03*
X1696670D02*
D03*
X1685670Y729890D02*
D03*
X1696670D02*
D03*
X1708670D02*
D03*
Y718890D02*
D03*
Y706890D02*
D03*
X1684670Y828110D02*
D03*
Y816110D02*
D03*
X1696670D02*
D03*
X1685670Y839110D02*
D03*
X1696670D02*
D03*
X1708670D02*
D03*
Y828110D02*
D03*
Y816110D02*
D03*
X1531250Y3128000D02*
D03*
X1097000Y94250D02*
D03*
X1021750Y172250D02*
D03*
X1050750Y90750D02*
D03*
X1324000Y99000D02*
D03*
X3166750Y462500D02*
D03*
X3129750Y490250D02*
D03*
Y579750D02*
D03*
X1718250Y2329250D02*
D03*
X1761750Y2326250D02*
D03*
X1735500Y2338500D02*
D03*
X1553000Y3128000D02*
D03*
X888750Y64750D02*
D03*
X866500Y65250D02*
D03*
X2761500Y1817000D02*
D03*
X2762474Y1870323D02*
D03*
X1482000Y2747250D02*
D03*
Y2667500D02*
D03*
X1852750Y2334500D02*
D03*
X1234000Y86750D02*
D03*
X213250Y952250D02*
D03*
X272750Y836000D02*
D03*
X286500Y880750D02*
D03*
X235500Y817000D02*
D03*
X791500Y803000D02*
D03*
X806250Y802750D02*
D03*
X1210250Y158750D02*
D03*
X1337750Y159000D02*
D03*
X1251000Y199000D02*
D03*
X1181750Y88750D02*
D03*
X1285000Y171250D02*
D03*
X1331000Y220750D02*
D03*
X1312500Y191500D02*
D03*
X1312250Y267000D02*
D03*
X288000Y2325750D02*
D03*
X281250Y2130500D02*
D03*
X303500Y2325750D02*
D03*
X328750Y2186250D02*
D03*
Y1984250D02*
D03*
X304750Y2127250D02*
D03*
X323500Y1328500D02*
D03*
X331000Y1191750D02*
D03*
X277500Y1328750D02*
D03*
X306500Y1188250D02*
D03*
X281250Y1732000D02*
D03*
X279250Y2531250D02*
D03*
X284000Y1131500D02*
D03*
X299000Y2530000D02*
D03*
X282000Y2382000D02*
D03*
X292750Y1574250D02*
D03*
X293250Y983500D02*
D03*
X328750Y1730750D02*
D03*
X318750Y2529250D02*
D03*
X329250Y1576500D02*
D03*
X330250Y1131000D02*
D03*
X331000Y983500D02*
D03*
X284500Y1781000D02*
D03*
X283000Y1377000D02*
D03*
X281871Y1925929D02*
D03*
X276716Y1513284D02*
D03*
X319000Y1928500D02*
D03*
X318500Y1782000D02*
D03*
X318000Y1513000D02*
D03*
X330000Y1377750D02*
D03*
X242540Y720500D02*
D03*
X290250Y632500D02*
D03*
X315250Y536000D02*
D03*
X324250Y744750D02*
D03*
X220026Y301526D02*
D03*
X319500Y953250D02*
D03*
X279750Y419750D02*
D03*
X259250Y632250D02*
D03*
X236801Y404000D02*
D03*
X294250Y466500D02*
D03*
X241500Y294250D02*
D03*
X328770Y339230D02*
D03*
X314752Y168748D02*
D03*
X314750Y110750D02*
D03*
X273250Y165250D02*
D03*
X225280Y177720D02*
D03*
X2924500Y607750D02*
D03*
X2810590Y1223090D02*
D03*
X2855750Y1139300D02*
D03*
X2786500Y1095750D02*
D03*
Y1185250D02*
D03*
X2815860Y982110D02*
D03*
X2864730Y922980D02*
D03*
X2739500Y938750D02*
D03*
X2726500Y848000D02*
D03*
X2784750Y941250D02*
D03*
Y850750D02*
D03*
X2074430Y924060D02*
D03*
Y936060D02*
D03*
Y947060D02*
D03*
X2062430D02*
D03*
X2051430D02*
D03*
X2062430Y924060D02*
D03*
X2050430D02*
D03*
Y936060D02*
D03*
X1732550Y947060D02*
D03*
Y935060D02*
D03*
Y924060D02*
D03*
X1744550D02*
D03*
X1755550D02*
D03*
X1744550Y947060D02*
D03*
X1756550D02*
D03*
Y935060D02*
D03*
X1708670Y924740D02*
D03*
Y936740D02*
D03*
Y947740D02*
D03*
X1696670D02*
D03*
X1685670D02*
D03*
X1696670Y924740D02*
D03*
X1684670D02*
D03*
Y936740D02*
D03*
D110*
X221000Y708750D02*
D03*
X3138500Y1873500D02*
D03*
Y1798000D02*
D03*
X233500Y940250D02*
D03*
X244104Y861146D02*
D03*
X253500Y536000D02*
D03*
X246500Y431250D02*
D03*
X251500Y516750D02*
D03*
X244000Y223500D02*
D03*
X2792250Y492750D02*
D03*
Y410000D02*
D03*
X2789750Y671750D02*
D03*
Y599250D02*
D03*
D111*
X2940250Y3141000D02*
D03*
D03*
X3173000Y3115750D02*
D03*
X3164000Y3123750D02*
D03*
X3155750Y3132000D02*
D03*
X3147500Y3140750D02*
D03*
X3138500Y3149750D02*
D03*
X3130000Y3157750D02*
D03*
X3122750Y3165000D02*
D03*
X3116250Y3171750D02*
D03*
X3129250Y3184750D02*
D03*
X3135750Y3178000D02*
D03*
X3143000Y3170750D02*
D03*
X3151500Y3162750D02*
D03*
X3160500Y3153750D02*
D03*
X3168750Y3145000D02*
D03*
X3177000Y3136750D02*
D03*
X3186000Y3128750D02*
D03*
X3062000Y1318000D02*
D03*
Y1307500D02*
D03*
Y1297750D02*
D03*
Y1286750D02*
D03*
Y1275000D02*
D03*
Y1264750D02*
D03*
Y1254750D02*
D03*
X3050250Y1318500D02*
D03*
Y1308000D02*
D03*
Y1298250D02*
D03*
Y1287250D02*
D03*
Y1275500D02*
D03*
Y1265250D02*
D03*
Y1255250D02*
D03*
Y1328750D02*
D03*
Y1339000D02*
D03*
Y1349500D02*
D03*
Y1359250D02*
D03*
Y1370250D02*
D03*
Y1382000D02*
D03*
Y1392250D02*
D03*
Y1402250D02*
D03*
X3062000Y1328250D02*
D03*
Y1338500D02*
D03*
Y1349000D02*
D03*
Y1358750D02*
D03*
Y1369750D02*
D03*
Y1381500D02*
D03*
Y1391750D02*
D03*
Y1401750D02*
D03*
X3037750Y1498000D02*
D03*
Y1488000D02*
D03*
Y1445250D02*
D03*
Y1477750D02*
D03*
Y1434750D02*
D03*
Y1455000D02*
D03*
Y1466000D02*
D03*
Y1424500D02*
D03*
X2993750Y2479750D02*
D03*
Y2490000D02*
D03*
Y2500500D02*
D03*
Y2510250D02*
D03*
Y2521250D02*
D03*
Y2533000D02*
D03*
Y2543250D02*
D03*
Y2553250D02*
D03*
Y2406250D02*
D03*
Y2416500D02*
D03*
Y2427000D02*
D03*
Y2436750D02*
D03*
Y2447750D02*
D03*
Y2459500D02*
D03*
Y2469750D02*
D03*
Y2332750D02*
D03*
Y2343000D02*
D03*
Y2353500D02*
D03*
Y2363250D02*
D03*
Y2374250D02*
D03*
Y2386000D02*
D03*
Y2396250D02*
D03*
X2997250Y2819250D02*
D03*
Y2829500D02*
D03*
Y2840000D02*
D03*
Y2849750D02*
D03*
Y2860750D02*
D03*
Y2872500D02*
D03*
Y2882750D02*
D03*
Y2892750D02*
D03*
Y2745750D02*
D03*
Y2756000D02*
D03*
Y2766500D02*
D03*
Y2776250D02*
D03*
Y2787250D02*
D03*
Y2799000D02*
D03*
Y2809250D02*
D03*
Y2672250D02*
D03*
Y2682500D02*
D03*
Y2693000D02*
D03*
Y2702750D02*
D03*
Y2713750D02*
D03*
Y2725500D02*
D03*
Y2735750D02*
D03*
X2993500Y3141000D02*
D03*
X2983250D02*
D03*
X2972750D02*
D03*
X2963000D02*
D03*
X2952000D02*
D03*
X3058000Y3087500D02*
D03*
X3004750D02*
D03*
X3026750D02*
D03*
X3047500D02*
D03*
X2994750D02*
D03*
X3015000D02*
D03*
X3037750D02*
D03*
X150000Y2363750D02*
D03*
X150250Y2554500D02*
D03*
X33500Y1739500D02*
D03*
X89965Y274550D02*
D03*
X152250Y212250D02*
D03*
X28750Y499500D02*
D03*
X39250Y2141250D02*
D03*
X32000Y1943750D02*
D03*
X32750Y1538500D02*
D03*
X27750Y1344000D02*
D03*
X90000Y599500D02*
D03*
Y1140250D02*
D03*
Y952750D02*
D03*
X1385750Y70750D02*
D03*
X1400000Y63750D02*
D03*
X933000Y63000D02*
D03*
X922250Y70500D02*
D03*
X28750Y939750D02*
D03*
X40290Y2176000D02*
D03*
X33540Y1975750D02*
D03*
X2899750Y2662750D02*
D03*
Y2652500D02*
D03*
Y2640750D02*
D03*
Y2629750D02*
D03*
Y2620000D02*
D03*
Y2609500D02*
D03*
Y2599250D02*
D03*
Y2736250D02*
D03*
Y2726000D02*
D03*
Y2714250D02*
D03*
Y2703250D02*
D03*
Y2693500D02*
D03*
Y2683000D02*
D03*
Y2672750D02*
D03*
Y2819750D02*
D03*
Y2809750D02*
D03*
Y2799500D02*
D03*
Y2787750D02*
D03*
Y2776750D02*
D03*
Y2767000D02*
D03*
Y2756500D02*
D03*
Y2746250D02*
D03*
X2866750Y3141000D02*
D03*
X2876750D02*
D03*
X2887000D02*
D03*
X2898750D02*
D03*
X2909750D02*
D03*
X2919500D02*
D03*
X2930000D02*
D03*
X2994250Y3100750D02*
D03*
X3004250D02*
D03*
X3014500D02*
D03*
X3026250D02*
D03*
X3037250D02*
D03*
X3047000D02*
D03*
X2921500Y1412250D02*
D03*
Y1402250D02*
D03*
Y1392000D02*
D03*
Y1380250D02*
D03*
Y1369250D02*
D03*
Y1359500D02*
D03*
Y1349000D02*
D03*
Y1338750D02*
D03*
X2909750Y1412750D02*
D03*
Y1402750D02*
D03*
Y1392500D02*
D03*
Y1380750D02*
D03*
Y1369750D02*
D03*
Y1360000D02*
D03*
Y1349500D02*
D03*
Y1339250D02*
D03*
X2912250Y1772750D02*
D03*
Y1762750D02*
D03*
Y1752500D02*
D03*
Y1740750D02*
D03*
Y1729750D02*
D03*
Y1720000D02*
D03*
Y1709500D02*
D03*
Y1699250D02*
D03*
X2902250Y1772750D02*
D03*
Y1762750D02*
D03*
Y1752500D02*
D03*
Y1740750D02*
D03*
Y1729750D02*
D03*
Y1720000D02*
D03*
Y1709500D02*
D03*
Y1699250D02*
D03*
X27290Y175000D02*
D03*
Y190000D02*
D03*
X35250Y199500D02*
D03*
X70500Y62750D02*
D03*
X87250Y43910D02*
D03*
X32790Y3087000D02*
D03*
X31000Y3100250D02*
D03*
X28000Y3109500D02*
D03*
X33272Y3124728D02*
D03*
X33868Y2375632D02*
D03*
X33750Y2564750D02*
D03*
X34500Y1759750D02*
D03*
X60750Y71750D02*
D03*
X705000Y20250D02*
D03*
Y32263D02*
D03*
X34000Y1563250D02*
D03*
X2996250Y823500D02*
D03*
X34750Y166250D02*
D03*
X21710Y1150750D02*
D03*
D112*
X1586750Y1399500D02*
D03*
X1584000Y1417250D02*
D03*
X2097250Y1503500D02*
D03*
X2082500D02*
D03*
X2082250Y1519750D02*
D03*
X2097000D02*
D03*
X2131500Y1481750D02*
D03*
X2116750D02*
D03*
X2116500Y1498000D02*
D03*
X2131250D02*
D03*
X2130000Y1446250D02*
D03*
X2129750Y1462500D02*
D03*
X2124750Y1407750D02*
D03*
X2124500Y1424000D02*
D03*
X2112750Y1378000D02*
D03*
X2098000D02*
D03*
X2097750Y1394250D02*
D03*
X2112500D02*
D03*
X2073500Y1367000D02*
D03*
X2058750D02*
D03*
X2058500Y1383250D02*
D03*
X2073250D02*
D03*
X2035000Y1378000D02*
D03*
X2020250D02*
D03*
X2020000Y1394250D02*
D03*
X2034750D02*
D03*
X2005250Y1401000D02*
D03*
X1990500D02*
D03*
X1990250Y1417250D02*
D03*
X2005000D02*
D03*
X2001000Y1434500D02*
D03*
X1986250D02*
D03*
X1986000Y1450750D02*
D03*
X2000750D02*
D03*
X2005250Y1468750D02*
D03*
X1990500D02*
D03*
X1990250Y1485000D02*
D03*
X2005000D02*
D03*
X2029750Y1494500D02*
D03*
X2015000D02*
D03*
X2014750Y1510750D02*
D03*
X2029500D02*
D03*
X2096500Y1181250D02*
D03*
X2081750D02*
D03*
X2081500Y1197500D02*
D03*
X2096250D02*
D03*
X2132500Y1202250D02*
D03*
X2117750D02*
D03*
X2117500Y1218500D02*
D03*
X2132250D02*
D03*
X2130750Y1240250D02*
D03*
X2130500Y1256500D02*
D03*
X2124250Y1274750D02*
D03*
X2124000Y1291000D02*
D03*
X2115000Y1306250D02*
D03*
X2100250D02*
D03*
X2100000Y1322500D02*
D03*
X2114750D02*
D03*
X2077250Y1316250D02*
D03*
X2062500D02*
D03*
X2062250Y1332500D02*
D03*
X2077000D02*
D03*
X2035500Y1310000D02*
D03*
X2020750D02*
D03*
X2020500Y1326250D02*
D03*
X2035250D02*
D03*
X2004000Y1280250D02*
D03*
X1989250D02*
D03*
X1989000Y1296500D02*
D03*
X2003750D02*
D03*
X1996000Y1240250D02*
D03*
X1981250D02*
D03*
X1981000Y1256500D02*
D03*
X1995750D02*
D03*
X2014500Y1202750D02*
D03*
X1999750D02*
D03*
X1999500Y1219000D02*
D03*
X2014250D02*
D03*
X2596250Y1943000D02*
D03*
X2581500D02*
D03*
X2581250Y1959250D02*
D03*
X2596000D02*
D03*
X2597000Y1737500D02*
D03*
X2582250D02*
D03*
X2582500Y1721250D02*
D03*
X2597250D02*
D03*
D113*
X1939502Y613130D02*
D03*
X1937430Y603940D02*
D03*
X1928430Y598940D02*
D03*
X1918430Y601940D02*
D03*
X1916430Y611940D02*
D03*
X1923015Y619783D02*
D03*
X1933430Y620940D02*
D03*
Y836840D02*
D03*
X1923015Y835683D02*
D03*
X1916430Y827840D02*
D03*
X1918430Y817840D02*
D03*
X1928430Y814840D02*
D03*
X1937430Y819840D02*
D03*
X1939502Y829030D02*
D03*
X1873170Y815840D02*
D03*
X1883584Y816997D02*
D03*
X1890170Y824840D02*
D03*
X1888170Y834840D02*
D03*
X1878170Y837840D02*
D03*
X1869170Y832840D02*
D03*
X1867099Y823650D02*
D03*
Y715700D02*
D03*
X1869170Y724890D02*
D03*
X1878170Y729890D02*
D03*
X1888170Y726890D02*
D03*
X1890170Y716890D02*
D03*
X1883584Y709047D02*
D03*
X1873170Y707890D02*
D03*
X1939502Y721080D02*
D03*
X1937430Y711890D02*
D03*
X1928430Y706890D02*
D03*
X1918430Y709890D02*
D03*
X1916430Y719890D02*
D03*
X1923015Y727733D02*
D03*
X1933430Y728890D02*
D03*
X1573742Y721080D02*
D03*
X1571670Y711890D02*
D03*
X1562670Y706890D02*
D03*
X1552670Y709890D02*
D03*
X1550670Y719890D02*
D03*
X1557256Y727733D02*
D03*
X1567670Y728890D02*
D03*
X1573742Y830300D02*
D03*
X1571670Y821110D02*
D03*
X1562670Y816110D02*
D03*
X1552670Y819110D02*
D03*
X1550670Y829110D02*
D03*
X1557256Y836953D02*
D03*
X1567670Y838110D02*
D03*
X1933430Y946060D02*
D03*
X1923015Y944903D02*
D03*
X1916430Y937060D02*
D03*
X1918430Y927060D02*
D03*
X1928430Y924060D02*
D03*
X1937430Y929060D02*
D03*
X1939502Y938250D02*
D03*
X1873550Y925060D02*
D03*
X1883965Y926217D02*
D03*
X1890550Y934060D02*
D03*
X1888550Y944060D02*
D03*
X1878550Y947060D02*
D03*
X1869550Y942060D02*
D03*
X1867478Y932870D02*
D03*
X1567670Y946740D02*
D03*
X1557256Y945583D02*
D03*
X1550670Y937740D02*
D03*
X1552670Y927740D02*
D03*
X1562670Y924740D02*
D03*
X1571670Y929740D02*
D03*
X1573742Y938930D02*
D03*
M02*
