G04*
G04 #@! TF.GenerationSoftware,Altium Limited,Altium Designer,25.3.3 (18)*
G04*
G04 Layer_Color=16711935*
%FSLAX44Y44*%
%MOMM*%
G71*
G04*
G04 #@! TF.SameCoordinates,02FA8497-09D8-4EBB-9686-6BBDE5AED0EC*
G04*
G04*
G04 #@! TF.FilePolarity,Positive*
G04*
G01*
G75*
%ADD11C,0.1270*%
%ADD12C,0.2000*%
%ADD14C,0.2540*%
%ADD170C,0.1000*%
%ADD175C,0.0000*%
D11*
X3041630Y596400D02*
Y644800D01*
X2972230Y596400D02*
X3041630D01*
X2972230D02*
Y644800D01*
X3041630D01*
X3042900Y503690D02*
Y552090D01*
X2973500Y503690D02*
X3042900D01*
X2973500D02*
Y552090D01*
X3042900D01*
X2596000Y351500D02*
X2649000D01*
X2596000D02*
Y510500D01*
X2649000D01*
Y351500D02*
Y510500D01*
X2596000Y571500D02*
X2649000D01*
X2596000D02*
Y730500D01*
X2649000D01*
Y571500D02*
Y730500D01*
X2596000Y791500D02*
X2649000D01*
X2596000D02*
Y950500D01*
X2649000D01*
Y791500D02*
Y950500D01*
Y1011500D02*
Y1170500D01*
X2596000D02*
X2649000D01*
X2596000Y1011500D02*
Y1170500D01*
Y1011500D02*
X2649000D01*
Y1431500D02*
Y1590500D01*
X2596000D02*
X2649000D01*
X2596000Y1431500D02*
Y1590500D01*
Y1431500D02*
X2649000D01*
X162990Y2427740D02*
Y2476140D01*
X232390D01*
Y2427740D02*
Y2476140D01*
X162990Y2427740D02*
X232390D01*
X162990Y2230890D02*
Y2279290D01*
X232390D01*
Y2230890D02*
Y2279290D01*
X162990Y2230890D02*
X232390D01*
X162990Y2026420D02*
X232390D01*
Y2074820D01*
X162990D02*
X232390D01*
X162990Y2026420D02*
Y2074820D01*
X162300Y1828550D02*
Y1876950D01*
X231700D01*
Y1828550D02*
Y1876950D01*
X162300Y1828550D02*
X231700D01*
X161720Y1625100D02*
Y1673500D01*
X231120D01*
Y1625100D02*
Y1673500D01*
X161720Y1625100D02*
X231120D01*
X161720Y1424440D02*
Y1472840D01*
X231120D01*
Y1424440D02*
Y1472840D01*
X161720Y1424440D02*
X231120D01*
X161800Y1231550D02*
Y1279950D01*
X231200D01*
Y1231550D02*
Y1279950D01*
X161800Y1231550D02*
X231200D01*
X161720Y1024390D02*
Y1072790D01*
X231120D01*
Y1024390D02*
Y1072790D01*
X161720Y1024390D02*
X231120D01*
X129690Y780300D02*
Y828700D01*
X199090D01*
Y780300D02*
Y828700D01*
X129690Y780300D02*
X199090D01*
X130670Y708450D02*
X200070D01*
Y756850D01*
X130670D02*
X200070D01*
X130670Y708450D02*
Y756850D01*
X130192Y367100D02*
Y415500D01*
X199592D01*
Y367100D02*
Y415500D01*
X130192Y367100D02*
X199592D01*
X131701Y303030D02*
Y351430D01*
X201101D01*
Y303030D02*
Y351430D01*
X131701Y303030D02*
X201101D01*
X2771260Y422000D02*
Y489000D01*
X2808260D01*
Y422000D02*
Y489000D01*
X2771260Y422000D02*
X2808260D01*
X2805550Y498200D02*
Y565200D01*
X2842550D01*
Y498200D02*
Y565200D01*
X2805550Y498200D02*
X2842550D01*
X2772530Y597260D02*
Y664260D01*
X2809530D01*
Y597260D02*
Y664260D01*
X2772530Y597260D02*
X2809530D01*
X2803010Y676940D02*
Y743940D01*
X2840010D01*
Y676940D02*
Y743940D01*
X2803010Y676940D02*
X2840010D01*
X2728250Y861000D02*
X2795250D01*
Y824000D02*
Y861000D01*
X2728250Y824000D02*
X2795250D01*
X2728250D02*
Y861000D01*
X2728320Y951520D02*
X2795320D01*
Y914520D02*
Y951520D01*
X2728320Y914520D02*
X2795320D01*
X2728320D02*
Y951520D01*
X2952730Y926598D02*
Y974998D01*
X2883330Y926598D02*
X2952730D01*
X2883330D02*
Y974998D01*
X2952730D01*
X2955460Y1139510D02*
Y1187910D01*
X2886060Y1139510D02*
X2955460D01*
X2886060D02*
Y1187910D01*
X2955460D01*
X2729500Y1102750D02*
X2796500D01*
Y1065750D02*
Y1102750D01*
X2729500Y1065750D02*
X2796500D01*
X2729500D02*
Y1102750D01*
X2729250Y1191750D02*
X2796250D01*
Y1154750D02*
Y1191750D01*
X2729250Y1154750D02*
X2796250D01*
X2729250D02*
Y1191750D01*
X2849860Y1819410D02*
Y1867810D01*
X2780460Y1819410D02*
X2849860D01*
X2780460D02*
Y1867810D01*
X2849860D01*
X2603980Y3126310D02*
X2710580D01*
X2603980Y3075510D02*
Y3126310D01*
Y3075510D02*
X2710580D01*
X3035600Y2165090D02*
Y2271690D01*
X3086400D01*
Y2165090D02*
Y2271690D01*
X3035600Y1027700D02*
Y1134300D01*
X3086400D01*
Y1027700D02*
Y1134300D01*
D12*
X3075930Y633300D02*
G03*
X3075930Y633300I-1000J0D01*
G01*
X3077200Y540590D02*
G03*
X3077200Y540590I-1000J0D01*
G01*
X2657500Y1456500D02*
G03*
X2657500Y1456500I-1000J0D01*
G01*
X130690Y2439240D02*
G03*
X130690Y2439240I-1000J0D01*
G01*
Y2242390D02*
G03*
X130690Y2242390I-1000J0D01*
G01*
Y2037920D02*
G03*
X130690Y2037920I-1000J0D01*
G01*
X130000Y1840050D02*
G03*
X130000Y1840050I-1000J0D01*
G01*
X129420Y1636600D02*
G03*
X129420Y1636600I-1000J0D01*
G01*
Y1435940D02*
G03*
X129420Y1435940I-1000J0D01*
G01*
X129500Y1243050D02*
G03*
X129500Y1243050I-1000J0D01*
G01*
X129420Y1035890D02*
G03*
X129420Y1035890I-1000J0D01*
G01*
X97390Y791800D02*
G03*
X97390Y791800I-1000J0D01*
G01*
X98370Y719950D02*
G03*
X98370Y719950I-1000J0D01*
G01*
X97892Y378600D02*
G03*
X97892Y378600I-1000J0D01*
G01*
X99401Y314530D02*
G03*
X99401Y314530I-1000J0D01*
G01*
X2742400Y432500D02*
G03*
X2742400Y432500I-1000J0D01*
G01*
X2776690Y508700D02*
G03*
X2776690Y508700I-1000J0D01*
G01*
X2743670Y607760D02*
G03*
X2743670Y607760I-1000J0D01*
G01*
X2774150Y687440D02*
G03*
X2774150Y687440I-1000J0D01*
G01*
X2739750Y890860D02*
G03*
X2739750Y890860I-1000J0D01*
G01*
X2739820Y981380D02*
G03*
X2739820Y981380I-1000J0D01*
G01*
X2987030Y963498D02*
G03*
X2987030Y963498I-1000J0D01*
G01*
X2989760Y1176410D02*
G03*
X2989760Y1176410I-1000J0D01*
G01*
X2741000Y1132610D02*
G03*
X2741000Y1132610I-1000J0D01*
G01*
X2740750Y1221610D02*
G03*
X2740750Y1221610I-1000J0D01*
G01*
X2884160Y1856310D02*
G03*
X2884160Y1856310I-1000J0D01*
G01*
X2598590Y3088210D02*
G03*
X2598590Y3088210I-1000J0D01*
G01*
X3074700Y2278080D02*
G03*
X3074700Y2278080I-1000J0D01*
G01*
Y1140690D02*
G03*
X3074700Y1140690I-1000J0D01*
G01*
D14*
X1312408Y94820D02*
X1303944Y103284D01*
Y94820D02*
X1312408Y103284D01*
X1308176Y94820D02*
Y103284D01*
X1303944Y99052D02*
X1312408D01*
D170*
X1358400Y138840D02*
G03*
X1358400Y138840I-5000J0D01*
G01*
X245330Y909230D02*
X275330D01*
X245330Y895230D02*
X275330D01*
X245330D02*
Y909230D01*
X275330Y895230D02*
Y909230D01*
X245330Y868590D02*
X275330D01*
X245330Y854590D02*
X275330D01*
X245330D02*
Y868590D01*
X275330Y854590D02*
Y868590D01*
X261700Y691500D02*
X291700D01*
X261700Y677500D02*
X291700D01*
X261700D02*
Y691500D01*
X291700Y677500D02*
Y691500D01*
X262000Y651500D02*
X292000D01*
X262000Y637500D02*
X292000D01*
X262000D02*
Y651500D01*
X292000Y637500D02*
Y651500D01*
X251000Y492000D02*
X281000D01*
X251000Y478000D02*
X281000D01*
X251000D02*
Y492000D01*
X281000Y478000D02*
Y492000D01*
X251250Y452250D02*
X281250D01*
X251250Y438250D02*
X281250D01*
X251250D02*
Y452250D01*
X281250Y438250D02*
Y452250D01*
X238546Y242790D02*
X268546D01*
X238546Y228790D02*
X268546D01*
X238546D02*
Y242790D01*
X268546Y228790D02*
Y242790D01*
X238546Y199040D02*
X268546D01*
X238546Y185040D02*
X268546D01*
X238546D02*
Y199040D01*
X268546Y185040D02*
Y199040D01*
X1243500Y238250D02*
X1273500D01*
X1243500Y224250D02*
X1273500D01*
X1243500D02*
Y238250D01*
X1273500Y224250D02*
Y238250D01*
X1344400Y147840D02*
X1395400D01*
X1344400Y107840D02*
X1395400D01*
X1344400D02*
Y147840D01*
X1395400Y107840D02*
Y147840D01*
X1348750Y241500D02*
X1378750D01*
X1348750Y227500D02*
X1378750D01*
X1348750D02*
Y241500D01*
X1378750Y227500D02*
Y241500D01*
D175*
X1303352Y130888D02*
G03*
X1303352Y124792I0J-3048D01*
G01*
X1294970Y107774D02*
X1300050D01*
Y96852D02*
Y107774D01*
X1294970Y96852D02*
X1300050D01*
X1294970D02*
Y107774D01*
X1282270D02*
X1287350D01*
Y96852D02*
Y107774D01*
X1282270Y96852D02*
X1287350D01*
X1282270D02*
Y107774D01*
X1269570D02*
X1274650D01*
Y96852D02*
Y107774D01*
X1269570Y96852D02*
X1274650D01*
X1269570D02*
Y107774D01*
X1256870D02*
X1261950D01*
Y96852D02*
Y107774D01*
X1256870Y96852D02*
X1261950D01*
X1256870D02*
Y107774D01*
Y147906D02*
X1261950D01*
X1256870D02*
Y158828D01*
X1261950D01*
Y147906D02*
Y158828D01*
X1269570Y147906D02*
X1274650D01*
X1269570D02*
Y158828D01*
X1274650D01*
Y147906D02*
Y158828D01*
X1282270Y147906D02*
X1287350D01*
X1282270D02*
Y158828D01*
X1287350D01*
Y147906D02*
Y158828D01*
X1294970Y147906D02*
X1300050D01*
X1294970D02*
Y158828D01*
X1300050D01*
Y147906D02*
Y158828D01*
X1253568Y107774D02*
Y147906D01*
X1303352D01*
Y130888D02*
Y147906D01*
Y124792D02*
Y130888D01*
Y107774D02*
Y124792D01*
X1253568Y107774D02*
X1303352D01*
M02*
