G04*
G04 #@! TF.GenerationSoftware,Altium Limited,Altium Designer,25.3.3 (18)*
G04*
G04 Layer_Color=2752767*
%FSLAX44Y44*%
%MOMM*%
G71*
G04*
G04 #@! TF.SameCoordinates,02FA8497-09D8-4EBB-9686-6BBDE5AED0EC*
G04*
G04*
G04 #@! TF.FilePolarity,Positive*
G04*
G01*
G75*
%ADD11C,0.1270*%
%ADD171C,0.1016*%
%ADD179C,0.1693*%
D11*
X1114630Y1230200D02*
X1117170Y1235280D01*
X1114630Y1240360D01*
X1119710Y1237820D01*
X1124790Y1240360D01*
X1122250Y1235280D01*
X1124790Y1230200D01*
X1119710Y1232740D01*
X1114630Y1230200D01*
Y1450200D02*
X1117170Y1455280D01*
X1114630Y1460360D01*
X1119710Y1457820D01*
X1124790Y1460360D01*
X1122250Y1455280D01*
X1124790Y1450200D01*
X1119710Y1452740D01*
X1114630Y1450200D01*
X1790270Y1806500D02*
X1792810Y1811580D01*
X1790270Y1816660D01*
X1795350Y1814120D01*
X1800430Y1816660D01*
X1797890Y1811580D01*
X1800430Y1806500D01*
X1795350Y1809040D01*
X1790270Y1806500D01*
Y2106500D02*
X1792810Y2111580D01*
X1790270Y2116660D01*
X1795350Y2114120D01*
X1800430Y2116660D01*
X1797890Y2111580D01*
X1800430Y2106500D01*
X1795350Y2109040D01*
X1790270Y2106500D01*
X2030270Y1806500D02*
X2032810Y1811580D01*
X2030270Y1816660D01*
X2035350Y1814120D01*
X2040430Y1816660D01*
X2037890Y1811580D01*
X2040430Y1806500D01*
X2035350Y1809040D01*
X2030270Y1806500D01*
Y2106500D02*
X2032810Y2111580D01*
X2030270Y2116660D01*
X2035350Y2114120D01*
X2040430Y2116660D01*
X2037890Y2111580D01*
X2040430Y2106500D01*
X2035350Y2109040D01*
X2030270Y2106500D01*
X1781380Y585966D02*
X1785612D01*
X1783496D01*
Y573270D01*
X1781380D01*
X1785612D01*
X1789844Y405966D02*
X1785612D01*
X1787728D01*
Y395386D01*
X1785612Y393270D01*
X1783496D01*
X1781380Y395386D01*
X1599844Y585966D02*
X1595612D01*
X1597728D01*
Y575386D01*
X1595612Y573270D01*
X1593496D01*
X1591380Y575386D01*
X1599844Y405966D02*
X1595612D01*
X1597728D01*
Y395386D01*
X1595612Y393270D01*
X1593496D01*
X1591380Y395386D01*
X1708990Y2892626D02*
Y2879930D01*
Y2886278D01*
X1717454D01*
Y2892626D01*
Y2879930D01*
X2416380Y2738600D02*
Y2751296D01*
X2424844Y2738600D01*
Y2751296D01*
X2416380Y2398600D02*
Y2411296D01*
X2424844Y2398600D01*
Y2411296D01*
X1258140Y2985740D02*
Y2995900D01*
X1268300D01*
Y2985740D01*
X1258140D01*
Y3010740D02*
Y3020900D01*
X1268300D01*
Y3010740D01*
X1258140D01*
X2626000Y480420D02*
X2620920Y490580D01*
X2631080D01*
X2626000Y480420D01*
Y425920D02*
X2620920Y436080D01*
X2631080D01*
X2626000Y425920D01*
Y371420D02*
X2628540Y373960D01*
X2631080D01*
X2628540Y376500D01*
X2631080Y379040D01*
X2628540D01*
X2626000Y381580D01*
X2623460Y379040D01*
X2620920D01*
X2623460Y376500D01*
X2620920Y373960D01*
X2623460D01*
X2626000Y371420D01*
Y700420D02*
X2620920Y710580D01*
X2631080D01*
X2626000Y700420D01*
Y645920D02*
X2620920Y656080D01*
X2631080D01*
X2626000Y645920D01*
Y591420D02*
X2628540Y593960D01*
X2631080D01*
X2628540Y596500D01*
X2631080Y599040D01*
X2628540D01*
X2626000Y601580D01*
X2623460Y599040D01*
X2620920D01*
X2623460Y596500D01*
X2620920Y593960D01*
X2623460D01*
X2626000Y591420D01*
Y920420D02*
X2620920Y930580D01*
X2631080D01*
X2626000Y920420D01*
Y865920D02*
X2620920Y876080D01*
X2631080D01*
X2626000Y865920D01*
Y811420D02*
X2628540Y813960D01*
X2631080D01*
X2628540Y816500D01*
X2631080Y819040D01*
X2628540D01*
X2626000Y821580D01*
X2623460Y819040D01*
X2620920D01*
X2623460Y816500D01*
X2620920Y813960D01*
X2623460D01*
X2626000Y811420D01*
Y1031420D02*
X2628540Y1033960D01*
X2631080D01*
X2628540Y1036500D01*
X2631080Y1039040D01*
X2628540D01*
X2626000Y1041580D01*
X2623460Y1039040D01*
X2620920D01*
X2623460Y1036500D01*
X2620920Y1033960D01*
X2623460D01*
X2626000Y1031420D01*
Y1085920D02*
X2620920Y1096080D01*
X2631080D01*
X2626000Y1085920D01*
Y1140420D02*
X2620920Y1150580D01*
X2631080D01*
X2626000Y1140420D01*
Y1560420D02*
X2620920Y1570580D01*
X2631080D01*
X2626000Y1560420D01*
Y1505920D02*
X2620920Y1516080D01*
X2631080D01*
X2626000Y1505920D01*
Y1451420D02*
X2628540Y1453960D01*
X2631080D01*
X2628540Y1456500D01*
X2631080Y1459040D01*
X2628540D01*
X2626000Y1461580D01*
X2623460Y1459040D01*
X2620920D01*
X2623460Y1456500D01*
X2620920Y1453960D01*
X2623460D01*
X2626000Y1451420D01*
Y1671420D02*
X2628540Y1673960D01*
X2631080D01*
X2628540Y1676500D01*
X2631080Y1679040D01*
X2628540D01*
X2626000Y1681580D01*
X2623460Y1679040D01*
X2620920D01*
X2623460Y1676500D01*
X2620920Y1673960D01*
X2623460D01*
X2626000Y1671420D01*
Y1725920D02*
X2620920Y1736080D01*
X2631080D01*
X2626000Y1725920D01*
Y1780420D02*
X2620920Y1790580D01*
X2631080D01*
X2626000Y1780420D01*
Y1891420D02*
X2628540Y1893960D01*
X2631080D01*
X2628540Y1896500D01*
X2631080Y1899040D01*
X2628540D01*
X2626000Y1901580D01*
X2623460Y1899040D01*
X2620920D01*
X2623460Y1896500D01*
X2620920Y1893960D01*
X2623460D01*
X2626000Y1891420D01*
Y1945920D02*
X2620920Y1956080D01*
X2631080D01*
X2626000Y1945920D01*
Y2000420D02*
X2620920Y2010580D01*
X2631080D01*
X2626000Y2000420D01*
X1143840Y2449396D02*
Y2436700D01*
Y2443048D01*
X1152304D01*
Y2449396D01*
Y2436700D01*
X2062340Y1442040D02*
Y1439500D01*
X2067420D01*
Y1442040D01*
X2069960D01*
Y1447120D01*
X2067420D01*
Y1449660D01*
X2062340D01*
Y1447120D01*
X2059800D01*
Y1442040D01*
X2062340D01*
X2063356Y1443056D02*
Y1441532D01*
X2066404D01*
Y1443056D01*
X2067928D01*
Y1446104D01*
X2066404D01*
Y1447628D01*
X2063356D01*
Y1446104D01*
X2061832D01*
Y1443056D01*
X2063356D01*
X2054880Y1224580D02*
Y1233044D01*
X2059112Y1237276D01*
X2063344Y1233044D01*
Y1224580D01*
Y1230928D01*
X2054880D01*
Y1474580D02*
Y1483044D01*
X2059112Y1487276D01*
X2063344Y1483044D01*
Y1474580D01*
Y1480928D01*
X2054880D01*
X1604800Y1544500D02*
X1607340D01*
X1609880Y1547040D01*
X1612420Y1544500D01*
X1614960D01*
Y1547040D01*
X1612420Y1549580D01*
X1614960Y1552120D01*
Y1554660D01*
X1612420D01*
X1609880Y1552120D01*
X1607340Y1554660D01*
X1604800D01*
Y1552120D01*
X1607340Y1549580D01*
X1604800Y1547040D01*
Y1544500D01*
X1606832Y1546532D02*
X1608356D01*
X1609880Y1548056D01*
X1611404Y1546532D01*
X1612928D01*
Y1548056D01*
X1611404Y1549580D01*
X1612928Y1551104D01*
Y1552628D01*
X1611404D01*
X1609880Y1551104D01*
X1608356Y1552628D01*
X1606832D01*
Y1551104D01*
X1608356Y1549580D01*
X1606832Y1548056D01*
Y1546532D01*
X1614800Y1404500D02*
X1617340Y1409580D01*
X1614800Y1414660D01*
X1619880Y1412120D01*
X1624960Y1414660D01*
X1622420Y1409580D01*
X1624960Y1404500D01*
X1619880Y1407040D01*
X1614800Y1404500D01*
X1616832Y1406532D02*
X1618356Y1409580D01*
X1616832Y1412628D01*
X1619880Y1411104D01*
X1622928Y1412628D01*
X1621404Y1409580D01*
X1622928Y1406532D01*
X1619880Y1408056D01*
X1616832Y1406532D01*
X1604800Y1234500D02*
X1607340D01*
X1609880Y1237040D01*
X1612420Y1234500D01*
X1614960D01*
Y1237040D01*
X1612420Y1239580D01*
X1614960Y1242120D01*
Y1244660D01*
X1612420D01*
X1609880Y1242120D01*
X1607340Y1244660D01*
X1604800D01*
Y1242120D01*
X1607340Y1239580D01*
X1604800Y1237040D01*
Y1234500D01*
X1606832Y1236532D02*
X1608356D01*
X1609880Y1238056D01*
X1611404Y1236532D01*
X1612928D01*
Y1238056D01*
X1611404Y1239580D01*
X1612928Y1241104D01*
Y1242628D01*
X1611404D01*
X1609880Y1241104D01*
X1608356Y1242628D01*
X1606832D01*
Y1241104D01*
X1608356Y1239580D01*
X1606832Y1238056D01*
Y1236532D01*
X2062340Y1252040D02*
Y1249500D01*
X2067420D01*
Y1252040D01*
X2069960D01*
Y1257120D01*
X2067420D01*
Y1259660D01*
X2062340D01*
Y1257120D01*
X2059800D01*
Y1252040D01*
X2062340D01*
X2063356Y1253056D02*
Y1251532D01*
X2066404D01*
Y1253056D01*
X2067928D01*
Y1256104D01*
X2066404D01*
Y1257628D01*
X2063356D01*
Y1256104D01*
X2061832D01*
Y1253056D01*
X2063356D01*
X1614800Y1284500D02*
X1617340Y1289580D01*
X1614800Y1294660D01*
X1619880Y1292120D01*
X1624960Y1294660D01*
X1622420Y1289580D01*
X1624960Y1284500D01*
X1619880Y1287040D01*
X1614800Y1284500D01*
X1616832Y1286532D02*
X1618356Y1289580D01*
X1616832Y1292628D01*
X1619880Y1291104D01*
X1622928Y1292628D01*
X1621404Y1289580D01*
X1622928Y1286532D01*
X1619880Y1288056D01*
X1616832Y1286532D01*
X1274650Y1679780D02*
Y1689940D01*
X1284810D01*
Y1679780D01*
X1274650D01*
X1354650D02*
Y1689940D01*
X1364810D01*
Y1679780D01*
X1354650D01*
X1166700D02*
Y1689940D01*
X1176860D01*
Y1679780D01*
X1166700D01*
X1086700D02*
Y1689940D01*
X1096860D01*
Y1679780D01*
X1086700D01*
X1692500Y1197446D02*
Y1184750D01*
X1698848D01*
X1700964Y1186866D01*
Y1188982D01*
X1698848Y1191098D01*
X1692500D01*
X1698848D01*
X1700964Y1193214D01*
Y1195330D01*
X1698848Y1197446D01*
X1692500D01*
Y1157446D02*
Y1144750D01*
X1698848D01*
X1700964Y1146866D01*
Y1148982D01*
X1698848Y1151098D01*
X1692500D01*
X1698848D01*
X1700964Y1153214D01*
Y1155330D01*
X1698848Y1157446D01*
X1692500D01*
X2924780Y3100906D02*
Y3088210D01*
Y3092442D01*
X2933244Y3100906D01*
X2926896Y3094558D01*
X2933244Y3088210D01*
X2975980Y3100906D02*
Y3088210D01*
Y3092442D01*
X2984444Y3100906D01*
X2978096Y3094558D01*
X2984444Y3088210D01*
X2975980Y3126306D02*
Y3113610D01*
Y3117842D01*
X2984444Y3126306D01*
X2978096Y3119958D01*
X2984444Y3113610D01*
X2950580Y3100906D02*
Y3088210D01*
Y3092442D01*
X2959044Y3100906D01*
X2952696Y3094558D01*
X2959044Y3088210D01*
X2950580Y3126306D02*
Y3113610D01*
Y3117842D01*
X2959044Y3126306D01*
X2952696Y3119958D01*
X2959044Y3113610D01*
X2924780Y3126306D02*
Y3113610D01*
Y3117842D01*
X2933244Y3126306D01*
X2926896Y3119958D01*
X2933244Y3113610D01*
X2899380Y3100906D02*
Y3088210D01*
Y3092442D01*
X2907844Y3100906D01*
X2901496Y3094558D01*
X2907844Y3088210D01*
X2899380Y3126306D02*
Y3113610D01*
Y3117842D01*
X2907844Y3126306D01*
X2901496Y3119958D01*
X2907844Y3113610D01*
X2873980Y3100906D02*
Y3088210D01*
Y3092442D01*
X2882444Y3100906D01*
X2876096Y3094558D01*
X2882444Y3088210D01*
X2873980Y3126306D02*
Y3113610D01*
Y3117842D01*
X2882444Y3126306D01*
X2876096Y3119958D01*
X2882444Y3113610D01*
X2848580Y3100906D02*
Y3088210D01*
Y3092442D01*
X2857044Y3100906D01*
X2850696Y3094558D01*
X2857044Y3088210D01*
X2848580Y3126306D02*
Y3113610D01*
Y3117842D01*
X2857044Y3126306D01*
X2850696Y3119958D01*
X2857044Y3113610D01*
X2720780Y3100906D02*
Y3088210D01*
Y3092442D01*
X2729244Y3100906D01*
X2722896Y3094558D01*
X2729244Y3088210D01*
X2822780Y3126306D02*
Y3113610D01*
Y3117842D01*
X2831244Y3126306D01*
X2824896Y3119958D01*
X2831244Y3113610D01*
X2797380Y3126306D02*
Y3113610D01*
Y3117842D01*
X2805844Y3126306D01*
X2799496Y3119958D01*
X2805844Y3113610D01*
X2822780Y3100906D02*
Y3088210D01*
Y3092442D01*
X2831244Y3100906D01*
X2824896Y3094558D01*
X2831244Y3088210D01*
X2797380Y3100906D02*
Y3088210D01*
Y3092442D01*
X2805844Y3100906D01*
X2799496Y3094558D01*
X2805844Y3088210D01*
X2771980Y3100906D02*
Y3088210D01*
Y3092442D01*
X2780444Y3100906D01*
X2774096Y3094558D01*
X2780444Y3088210D01*
X2771980Y3126306D02*
Y3113610D01*
Y3117842D01*
X2780444Y3126306D01*
X2774096Y3119958D01*
X2780444Y3113610D01*
X2746580Y3100906D02*
Y3088210D01*
Y3092442D01*
X2755044Y3100906D01*
X2748696Y3094558D01*
X2755044Y3088210D01*
X2746580Y3126306D02*
Y3113610D01*
Y3117842D01*
X2755044Y3126306D01*
X2748696Y3119958D01*
X2755044Y3113610D01*
X2720780Y3126306D02*
Y3113610D01*
Y3117842D01*
X2729244Y3126306D01*
X2722896Y3119958D01*
X2729244Y3113610D01*
X2695380Y3100906D02*
Y3088210D01*
Y3092442D01*
X2703844Y3100906D01*
X2697496Y3094558D01*
X2703844Y3088210D01*
X2695380Y3126306D02*
Y3113610D01*
Y3117842D01*
X2703844Y3126306D01*
X2697496Y3119958D01*
X2703844Y3113610D01*
X2669980Y3100906D02*
Y3088210D01*
Y3092442D01*
X2678444Y3100906D01*
X2672096Y3094558D01*
X2678444Y3088210D01*
X2669980Y3126306D02*
Y3113610D01*
Y3117842D01*
X2678444Y3126306D01*
X2672096Y3119958D01*
X2678444Y3113610D01*
X2644580Y3100906D02*
Y3088210D01*
Y3092442D01*
X2653044Y3100906D01*
X2646696Y3094558D01*
X2653044Y3088210D01*
X2644580Y3126306D02*
Y3113610D01*
Y3117842D01*
X2653044Y3126306D01*
X2646696Y3119958D01*
X2653044Y3113610D01*
X2619180Y3100906D02*
Y3088210D01*
Y3092442D01*
X2627644Y3100906D01*
X2621296Y3094558D01*
X2627644Y3088210D01*
X2619180Y3126306D02*
Y3113610D01*
Y3117842D01*
X2627644Y3126306D01*
X2621296Y3119958D01*
X2627644Y3113610D01*
X1649500Y2322200D02*
Y2332360D01*
X1659660D01*
Y2322200D01*
X1649500D01*
X1674500D02*
Y2332360D01*
X1684660D01*
Y2322200D01*
X1674500D01*
X3006504Y2607300D02*
X3004388Y2609416D01*
X3000156D01*
X2998040Y2607300D01*
Y2598836D01*
X3000156Y2596720D01*
X3004388D01*
X3006504Y2598836D01*
Y2603068D01*
X3002272D01*
X3006504Y2632700D02*
X3004388Y2634816D01*
X3000156D01*
X2998040Y2632700D01*
Y2624236D01*
X3000156Y2622120D01*
X3004388D01*
X3006504Y2624236D01*
Y2628468D01*
X3002272D01*
X1927430Y623136D02*
Y610440D01*
X1933778D01*
X1935894Y612556D01*
Y614672D01*
X1933778Y616788D01*
X1927430D01*
X1933778D01*
X1935894Y618904D01*
Y621020D01*
X1933778Y623136D01*
X1927430D01*
X2062430D02*
Y610440D01*
X2068778D01*
X2070894Y612556D01*
Y614672D01*
X2068778Y616788D01*
X2062430D01*
X2068778D01*
X2070894Y618904D01*
Y621020D01*
X2068778Y623136D01*
X2062430D01*
Y839036D02*
Y826340D01*
X2068778D01*
X2070894Y828456D01*
Y830572D01*
X2068778Y832688D01*
X2062430D01*
X2068778D01*
X2070894Y834804D01*
Y836920D01*
X2068778Y839036D01*
X2062430D01*
X1927430D02*
Y826340D01*
X1933778D01*
X1935894Y828456D01*
Y830572D01*
X1933778Y832688D01*
X1927430D01*
X1933778D01*
X1935894Y834804D01*
Y836920D01*
X1933778Y839036D01*
X1927430D01*
X1744170D02*
Y826340D01*
X1750518D01*
X1752634Y828456D01*
Y830572D01*
X1750518Y832688D01*
X1744170D01*
X1750518D01*
X1752634Y834804D01*
Y836920D01*
X1750518Y839036D01*
X1744170D01*
X1879170D02*
Y826340D01*
X1885518D01*
X1887634Y828456D01*
Y830572D01*
X1885518Y832688D01*
X1879170D01*
X1885518D01*
X1887634Y834804D01*
Y836920D01*
X1885518Y839036D01*
X1879170D01*
Y731086D02*
Y718390D01*
X1885518D01*
X1887634Y720506D01*
Y722622D01*
X1885518Y724738D01*
X1879170D01*
X1885518D01*
X1887634Y726854D01*
Y728970D01*
X1885518Y731086D01*
X1879170D01*
X1744170D02*
Y718390D01*
X1750518D01*
X1752634Y720506D01*
Y722622D01*
X1750518Y724738D01*
X1744170D01*
X1750518D01*
X1752634Y726854D01*
Y728970D01*
X1750518Y731086D01*
X1744170D01*
X1927430D02*
Y718390D01*
X1933778D01*
X1935894Y720506D01*
Y722622D01*
X1933778Y724738D01*
X1927430D01*
X1933778D01*
X1935894Y726854D01*
Y728970D01*
X1933778Y731086D01*
X1927430D01*
X2062430D02*
Y718390D01*
X2068778D01*
X2070894Y720506D01*
Y722622D01*
X2068778Y724738D01*
X2062430D01*
X2068778D01*
X2070894Y726854D01*
Y728970D01*
X2068778Y731086D01*
X2062430D01*
X1561670D02*
Y718390D01*
X1568018D01*
X1570134Y720506D01*
Y722622D01*
X1568018Y724738D01*
X1561670D01*
X1568018D01*
X1570134Y726854D01*
Y728970D01*
X1568018Y731086D01*
X1561670D01*
X1696670D02*
Y718390D01*
X1703018D01*
X1705134Y720506D01*
Y722622D01*
X1703018Y724738D01*
X1696670D01*
X1703018D01*
X1705134Y726854D01*
Y728970D01*
X1703018Y731086D01*
X1696670D01*
X1561670Y840306D02*
Y827610D01*
X1568018D01*
X1570134Y829726D01*
Y831842D01*
X1568018Y833958D01*
X1561670D01*
X1568018D01*
X1570134Y836074D01*
Y838190D01*
X1568018Y840306D01*
X1561670D01*
X1696670D02*
Y827610D01*
X1703018D01*
X1705134Y829726D01*
Y831842D01*
X1703018Y833958D01*
X1696670D01*
X1703018D01*
X1705134Y836074D01*
Y838190D01*
X1703018Y840306D01*
X1696670D01*
X815170Y851170D02*
Y861330D01*
X825330D01*
Y851170D01*
X815170D01*
Y876170D02*
Y886330D01*
X825330D01*
Y876170D01*
X815170D01*
X888570Y786208D02*
X891110D01*
X893650Y788748D01*
X896190Y786208D01*
X898730D01*
Y788748D01*
X896190Y791288D01*
X898730Y793828D01*
Y796368D01*
X896190D01*
X893650Y793828D01*
X891110Y796368D01*
X888570D01*
Y793828D01*
X891110Y791288D01*
X888570Y788748D01*
Y786208D01*
X1043510Y734900D02*
Y732360D01*
X1048590D01*
Y734900D01*
X1051130D01*
Y739980D01*
X1048590D01*
Y742520D01*
X1043510D01*
Y739980D01*
X1040970D01*
Y734900D01*
X1043510D01*
X992710Y861900D02*
Y859360D01*
X997790D01*
Y861900D01*
X1000330D01*
Y866980D01*
X997790D01*
Y869520D01*
X992710D01*
Y866980D01*
X990170D01*
Y861900D01*
X992710D01*
X888570Y824308D02*
X891110D01*
X893650Y826848D01*
X896190Y824308D01*
X898730D01*
Y826848D01*
X896190Y829388D01*
X898730Y831928D01*
Y834468D01*
X896190D01*
X893650Y831928D01*
X891110Y834468D01*
X888570D01*
Y831928D01*
X891110Y829388D01*
X888570Y826848D01*
Y824308D01*
Y805512D02*
X891110D01*
X893650Y808052D01*
X896190Y805512D01*
X898730D01*
Y808052D01*
X896190Y810592D01*
X898730Y813132D01*
Y815672D01*
X896190D01*
X893650Y813132D01*
X891110Y815672D01*
X888570D01*
Y813132D01*
X891110Y810592D01*
X888570Y808052D01*
Y805512D01*
X1018110Y734900D02*
Y732360D01*
X1023190D01*
Y734900D01*
X1025730D01*
Y739980D01*
X1023190D01*
Y742520D01*
X1018110D01*
Y739980D01*
X1015570D01*
Y734900D01*
X1018110D01*
Y861900D02*
Y859360D01*
X1023190D01*
Y861900D01*
X1025730D01*
Y866980D01*
X1023190D01*
Y869520D01*
X1018110D01*
Y866980D01*
X1015570D01*
Y861900D01*
X1018110D01*
X888570Y767412D02*
X891110D01*
X893650Y769952D01*
X896190Y767412D01*
X898730D01*
Y769952D01*
X896190Y772492D01*
X898730Y775032D01*
Y777572D01*
X896190D01*
X893650Y775032D01*
X891110Y777572D01*
X888570D01*
Y775032D01*
X891110Y772492D01*
X888570Y769952D01*
Y767412D01*
X1068910Y734900D02*
Y732360D01*
X1073990D01*
Y734900D01*
X1076530D01*
Y739980D01*
X1073990D01*
Y742520D01*
X1068910D01*
Y739980D01*
X1066370D01*
Y734900D01*
X1068910D01*
X1043510Y861900D02*
Y859360D01*
X1048590D01*
Y861900D01*
X1051130D01*
Y866980D01*
X1048590D01*
Y869520D01*
X1043510D01*
Y866980D01*
X1040970D01*
Y861900D01*
X1043510D01*
X1068910D02*
Y859360D01*
X1073990D01*
Y861900D01*
X1076530D01*
Y866980D01*
X1073990D01*
Y869520D01*
X1068910D01*
Y866980D01*
X1066370D01*
Y861900D01*
X1068910D01*
X992710Y734900D02*
Y732360D01*
X997790D01*
Y734900D01*
X1000330D01*
Y739980D01*
X997790D01*
Y742520D01*
X992710D01*
Y739980D01*
X990170D01*
Y734900D01*
X992710D01*
X1054530Y664590D02*
X1059610Y669670D01*
X1064690Y664590D01*
X1059610Y659510D01*
X1054530Y664590D01*
Y284510D02*
Y294670D01*
X1064690D01*
Y284510D01*
X1054530D01*
X1056562Y286542D02*
Y292638D01*
X1062658D01*
Y286542D01*
X1056562D01*
X844530Y659510D02*
Y669670D01*
X854690D01*
Y659510D01*
X844530D01*
X846562Y661542D02*
Y667638D01*
X852658D01*
Y661542D01*
X846562D01*
X844530Y284510D02*
Y294670D01*
X854690D01*
Y284510D01*
X844530D01*
X846562Y286542D02*
Y292638D01*
X852658D01*
Y286542D01*
X846562D01*
X1180670Y395880D02*
X1175590Y406040D01*
X1185750D01*
X1180670Y395880D01*
Y397912D02*
X1177622Y404008D01*
X1183718D01*
X1180670Y397912D01*
Y245880D02*
X1183210Y248420D01*
X1185750D01*
X1183210Y250960D01*
X1185750Y253500D01*
X1183210D01*
X1180670Y256040D01*
X1178130Y253500D01*
X1175590D01*
X1178130Y250960D01*
X1175590Y248420D01*
X1178130D01*
X1180670Y245880D01*
Y247912D02*
X1182194Y249436D01*
X1183718D01*
X1182194Y250960D01*
X1183718Y252484D01*
X1182194D01*
X1180670Y254008D01*
X1179146Y252484D01*
X1177622D01*
X1179146Y250960D01*
X1177622Y249436D01*
X1179146D01*
X1180670Y247912D01*
X1333720Y382170D02*
Y392330D01*
X1343880D01*
Y382170D01*
X1333720D01*
X1282920D02*
Y392330D01*
X1293080D01*
Y382170D01*
X1282920D01*
X1308320D02*
Y392330D01*
X1318480D01*
Y382170D01*
X1308320D01*
X1359120D02*
Y392330D01*
X1369280D01*
Y382170D01*
X1359120D01*
X1726770Y171020D02*
Y181180D01*
X1736930D01*
Y171020D01*
X1726770D01*
X1641770D02*
Y181180D01*
X1651930D01*
Y171020D01*
X1641770D01*
X1726680Y107520D02*
Y117680D01*
X1736840D01*
Y107520D01*
X1726680D01*
X1641680D02*
Y117680D01*
X1651840D01*
Y107520D01*
X1641680D01*
X2964670Y482170D02*
Y492330D01*
X2974830D01*
Y482170D01*
X2964670D01*
Y457170D02*
Y467330D01*
X2974830D01*
Y457170D01*
X2964670D01*
X3041390Y409450D02*
Y419610D01*
X3051550D01*
Y409450D01*
X3041390D01*
Y384450D02*
Y394610D01*
X3051550D01*
Y384450D01*
X3041390D01*
Y334450D02*
Y344610D01*
X3051550D01*
Y334450D01*
X3041390D01*
Y309450D02*
Y319610D01*
X3051550D01*
Y309450D01*
X3041390D01*
X3131390Y409450D02*
Y419610D01*
X3141550D01*
Y409450D01*
X3131390D01*
Y384450D02*
Y394610D01*
X3141550D01*
Y384450D01*
X3131390D01*
Y359450D02*
Y369610D01*
X3141550D01*
Y359450D01*
X3131390D01*
Y334450D02*
Y344610D01*
X3141550D01*
Y334450D01*
X3131390D01*
Y309450D02*
Y319610D01*
X3141550D01*
Y309450D01*
X3131390D01*
X2994700Y163230D02*
Y173390D01*
X3004860D01*
Y163230D01*
X2994700D01*
X2969700D02*
Y173390D01*
X2979860D01*
Y163230D01*
X2969700D01*
X2919700D02*
Y173390D01*
X2929860D01*
Y163230D01*
X2919700D01*
X2894700D02*
Y173390D01*
X2904860D01*
Y163230D01*
X2894700D01*
X2994700Y73230D02*
Y83390D01*
X3004860D01*
Y73230D01*
X2994700D01*
X2969700D02*
Y83390D01*
X2979860D01*
Y73230D01*
X2969700D01*
X2944700D02*
Y83390D01*
X2954860D01*
Y73230D01*
X2944700D01*
X2919700D02*
Y83390D01*
X2929860D01*
Y73230D01*
X2919700D01*
X2894700D02*
Y83390D01*
X2904860D01*
Y73230D01*
X2894700D01*
X3075510Y223090D02*
Y233250D01*
X3085670D01*
Y223090D01*
X3075510D01*
Y248090D02*
Y258250D01*
X3085670D01*
Y248090D01*
X3075510D01*
X2791030Y343940D02*
Y354100D01*
X2801190D01*
Y343940D01*
X2791030D01*
Y368940D02*
Y379100D01*
X2801190D01*
Y368940D01*
X2791030D01*
X2877390Y371480D02*
Y381640D01*
X2887550D01*
Y371480D01*
X2877390D01*
Y346480D02*
Y356640D01*
X2887550D01*
Y346480D01*
X2877390D01*
X172364Y2986580D02*
X170248Y2988696D01*
X166016D01*
X163900Y2986580D01*
Y2978116D01*
X166016Y2976000D01*
X170248D01*
X172364Y2978116D01*
Y2982348D01*
X168132D01*
X146964Y2986580D02*
X144848Y2988696D01*
X140616D01*
X138500Y2986580D01*
Y2978116D01*
X140616Y2976000D01*
X144848D01*
X146964Y2978116D01*
Y2982348D01*
X142732D01*
X623984Y2758006D02*
X615520D01*
Y2745310D01*
X623984D01*
X615520Y2751658D02*
X619752D01*
X396000Y901690D02*
X398540Y904230D01*
X401080D01*
X398540Y906770D01*
X401080Y909310D01*
X398540D01*
X396000Y911850D01*
X393460Y909310D01*
X390920D01*
X393460Y906770D01*
X390920Y904230D01*
X393460D01*
X396000Y901690D01*
X757760Y2990420D02*
Y3000580D01*
X767920D01*
Y2990420D01*
X757760D01*
Y2965420D02*
Y2975580D01*
X767920D01*
Y2965420D01*
X757760D01*
Y2875720D02*
Y2885880D01*
X767920D01*
Y2875720D01*
X757760D01*
Y2850720D02*
Y2860880D01*
X767920D01*
Y2850720D01*
X757760D01*
X623984Y2783406D02*
X615520D01*
Y2770710D01*
X623984D01*
X615520Y2777058D02*
X619752D01*
X1917270Y2328750D02*
X1919810D01*
X1922350Y2331290D01*
X1924890Y2328750D01*
X1927430D01*
Y2331290D01*
X1924890Y2333830D01*
X1927430Y2336370D01*
Y2338910D01*
X1924890D01*
X1922350Y2336370D01*
X1919810Y2338910D01*
X1917270D01*
Y2336370D01*
X1919810Y2333830D01*
X1917270Y2331290D01*
Y2328750D01*
X1767410Y2385138D02*
Y2382598D01*
X1772490D01*
Y2385138D01*
X1775030D01*
Y2390218D01*
X1772490D01*
Y2392758D01*
X1767410D01*
Y2390218D01*
X1764870D01*
Y2385138D01*
X1767410D01*
X1818210Y2258138D02*
Y2255598D01*
X1823290D01*
Y2258138D01*
X1825830D01*
Y2263218D01*
X1823290D01*
Y2265758D01*
X1818210D01*
Y2263218D01*
X1815670D01*
Y2258138D01*
X1818210D01*
X1917270Y2290650D02*
X1919810D01*
X1922350Y2293190D01*
X1924890Y2290650D01*
X1927430D01*
Y2293190D01*
X1924890Y2295730D01*
X1927430Y2298270D01*
Y2300810D01*
X1924890D01*
X1922350Y2298270D01*
X1919810Y2300810D01*
X1917270D01*
Y2298270D01*
X1919810Y2295730D01*
X1917270Y2293190D01*
Y2290650D01*
Y2309446D02*
X1919810D01*
X1922350Y2311986D01*
X1924890Y2309446D01*
X1927430D01*
Y2311986D01*
X1924890Y2314526D01*
X1927430Y2317066D01*
Y2319606D01*
X1924890D01*
X1922350Y2317066D01*
X1919810Y2319606D01*
X1917270D01*
Y2317066D01*
X1919810Y2314526D01*
X1917270Y2311986D01*
Y2309446D01*
X1792810Y2385138D02*
Y2382598D01*
X1797890D01*
Y2385138D01*
X1800430D01*
Y2390218D01*
X1797890D01*
Y2392758D01*
X1792810D01*
Y2390218D01*
X1790270D01*
Y2385138D01*
X1792810D01*
Y2258138D02*
Y2255598D01*
X1797890D01*
Y2258138D01*
X1800430D01*
Y2263218D01*
X1797890D01*
Y2265758D01*
X1792810D01*
Y2263218D01*
X1790270D01*
Y2258138D01*
X1792810D01*
X1917270Y2347546D02*
X1919810D01*
X1922350Y2350086D01*
X1924890Y2347546D01*
X1927430D01*
Y2350086D01*
X1924890Y2352626D01*
X1927430Y2355166D01*
Y2357706D01*
X1924890D01*
X1922350Y2355166D01*
X1919810Y2357706D01*
X1917270D01*
Y2355166D01*
X1919810Y2352626D01*
X1917270Y2350086D01*
Y2347546D01*
X1742010Y2385138D02*
Y2382598D01*
X1747090D01*
Y2385138D01*
X1749630D01*
Y2390218D01*
X1747090D01*
Y2392758D01*
X1742010D01*
Y2390218D01*
X1739470D01*
Y2385138D01*
X1742010D01*
X1767410Y2258138D02*
Y2255598D01*
X1772490D01*
Y2258138D01*
X1775030D01*
Y2263218D01*
X1772490D01*
Y2265758D01*
X1767410D01*
Y2263218D01*
X1764870D01*
Y2258138D01*
X1767410D01*
X1742010D02*
Y2255598D01*
X1747090D01*
Y2258138D01*
X1749630D01*
Y2263218D01*
X1747090D01*
Y2265758D01*
X1742010D01*
Y2263218D01*
X1739470D01*
Y2258138D01*
X1742010D01*
X1818210Y2385138D02*
Y2382598D01*
X1823290D01*
Y2385138D01*
X1825830D01*
Y2390218D01*
X1823290D01*
Y2392758D01*
X1818210D01*
Y2390218D01*
X1815670D01*
Y2385138D01*
X1818210D01*
X930480Y2688090D02*
X925400Y2698250D01*
X935560D01*
X930480Y2688090D01*
Y2690122D02*
X927432Y2696218D01*
X933528D01*
X930480Y2690122D01*
X757760Y2636290D02*
Y2646450D01*
X767920D01*
Y2636290D01*
X757760D01*
X1179930Y1032076D02*
Y1019380D01*
X1186278D01*
X1188394Y1021496D01*
Y1029960D01*
X1186278Y1032076D01*
X1179930D01*
X396000Y192690D02*
X390920Y202850D01*
X401080D01*
X396000Y192690D01*
Y447190D02*
X390920Y457350D01*
X401080D01*
X396000Y447190D01*
X1179930Y909733D02*
Y897037D01*
X1186278D01*
X1188394Y899153D01*
Y907617D01*
X1186278Y909733D01*
X1179930D01*
Y787389D02*
Y774693D01*
X1186278D01*
X1188394Y776809D01*
Y785273D01*
X1186278Y787389D01*
X1179930D01*
Y665046D02*
Y652350D01*
X1186278D01*
X1188394Y654466D01*
Y662930D01*
X1186278Y665046D01*
X1179930D01*
X757760Y2661290D02*
Y2671450D01*
X767920D01*
Y2661290D01*
X757760D01*
X1258140Y2574060D02*
Y2584220D01*
X1268300D01*
Y2574060D01*
X1258140D01*
Y2599060D02*
Y2609220D01*
X1268300D01*
Y2599060D01*
X1258140D01*
X396000Y2447190D02*
X390920Y2457350D01*
X401080D01*
X396000Y2447190D01*
Y2192690D02*
X390920Y2202850D01*
X401080D01*
X396000Y2192690D01*
Y1992690D02*
X390920Y2002850D01*
X401080D01*
X396000Y1992690D01*
X1110480Y2688090D02*
X1105400Y2698250D01*
X1115560D01*
X1110480Y2688090D01*
Y2690122D02*
X1107432Y2696218D01*
X1113528D01*
X1110480Y2690122D01*
X1413394Y1029960D02*
X1411278Y1032076D01*
X1407046D01*
X1404930Y1029960D01*
Y1021496D01*
X1407046Y1019380D01*
X1411278D01*
X1413394Y1021496D01*
X2102264Y2669530D02*
X2100148Y2671646D01*
X2095916D01*
X2093800Y2669530D01*
Y2661066D01*
X2095916Y2658950D01*
X2100148D01*
X2102264Y2661066D01*
X1818800Y2671646D02*
Y2658950D01*
X1825148D01*
X1827264Y2661066D01*
Y2669530D01*
X1825148Y2671646D01*
X1818800D01*
X2139520Y154600D02*
Y164760D01*
X2149680D01*
Y154600D01*
X2139520D01*
Y239600D02*
Y249760D01*
X2149680D01*
Y239600D01*
X2139520D01*
X3073700Y1657386D02*
Y1644690D01*
Y1648922D01*
X3082164Y1657386D01*
X3075816Y1651038D01*
X3082164Y1644690D01*
X3048300Y1657386D02*
Y1644690D01*
Y1648922D01*
X3056764Y1657386D01*
X3050416Y1651038D01*
X3056764Y1644690D01*
X3073700Y1682786D02*
Y1670090D01*
Y1674322D01*
X3082164Y1682786D01*
X3075816Y1676438D01*
X3082164Y1670090D01*
X3048300Y1682786D02*
Y1670090D01*
Y1674322D01*
X3056764Y1682786D01*
X3050416Y1676438D01*
X3056764Y1670090D01*
X3073700Y1810586D02*
Y1797890D01*
Y1802122D01*
X3082164Y1810586D01*
X3075816Y1804238D01*
X3082164Y1797890D01*
X3048300Y1708586D02*
Y1695890D01*
Y1700122D01*
X3056764Y1708586D01*
X3050416Y1702238D01*
X3056764Y1695890D01*
X3048300Y1733986D02*
Y1721290D01*
Y1725522D01*
X3056764Y1733986D01*
X3050416Y1727638D01*
X3056764Y1721290D01*
X3073700Y1708586D02*
Y1695890D01*
Y1700122D01*
X3082164Y1708586D01*
X3075816Y1702238D01*
X3082164Y1695890D01*
X3073700Y1733986D02*
Y1721290D01*
Y1725522D01*
X3082164Y1733986D01*
X3075816Y1727638D01*
X3082164Y1721290D01*
X3073700Y1759386D02*
Y1746690D01*
Y1750922D01*
X3082164Y1759386D01*
X3075816Y1753038D01*
X3082164Y1746690D01*
X3048300Y1759386D02*
Y1746690D01*
Y1750922D01*
X3056764Y1759386D01*
X3050416Y1753038D01*
X3056764Y1746690D01*
X3073700Y1784786D02*
Y1772090D01*
Y1776322D01*
X3082164Y1784786D01*
X3075816Y1778438D01*
X3082164Y1772090D01*
X3048300Y1784786D02*
Y1772090D01*
Y1776322D01*
X3056764Y1784786D01*
X3050416Y1778438D01*
X3056764Y1772090D01*
X3048300Y1810586D02*
Y1797890D01*
Y1802122D01*
X3056764Y1810586D01*
X3050416Y1804238D01*
X3056764Y1797890D01*
X3073700Y1835986D02*
Y1823290D01*
Y1827522D01*
X3082164Y1835986D01*
X3075816Y1829638D01*
X3082164Y1823290D01*
X3048300Y1835986D02*
Y1823290D01*
Y1827522D01*
X3056764Y1835986D01*
X3050416Y1829638D01*
X3056764Y1823290D01*
X3073700Y1861386D02*
Y1848690D01*
Y1852922D01*
X3082164Y1861386D01*
X3075816Y1855038D01*
X3082164Y1848690D01*
X3048300Y1861386D02*
Y1848690D01*
Y1852922D01*
X3056764Y1861386D01*
X3050416Y1855038D01*
X3056764Y1848690D01*
X3073700Y1886786D02*
Y1874090D01*
Y1878322D01*
X3082164Y1886786D01*
X3075816Y1880438D01*
X3082164Y1874090D01*
X3048300Y1886786D02*
Y1874090D01*
Y1878322D01*
X3056764Y1886786D01*
X3050416Y1880438D01*
X3056764Y1874090D01*
X3048300Y1912186D02*
Y1899490D01*
Y1903722D01*
X3056764Y1912186D01*
X3050416Y1905838D01*
X3056764Y1899490D01*
X3073700Y1963586D02*
Y1950890D01*
Y1955122D01*
X3082164Y1963586D01*
X3075816Y1957238D01*
X3082164Y1950890D01*
X3073700Y1912386D02*
Y1899690D01*
Y1903922D01*
X3082164Y1912386D01*
X3075816Y1906038D01*
X3082164Y1899690D01*
X3073700Y1937786D02*
Y1925090D01*
Y1929322D01*
X3082164Y1937786D01*
X3075816Y1931438D01*
X3082164Y1925090D01*
X3048300Y1937786D02*
Y1925090D01*
Y1929322D01*
X3056764Y1937786D01*
X3050416Y1931438D01*
X3056764Y1925090D01*
X3048300Y1963586D02*
Y1950890D01*
Y1955122D01*
X3056764Y1963586D01*
X3050416Y1957238D01*
X3056764Y1950890D01*
X3073700Y1988986D02*
Y1976290D01*
Y1980522D01*
X3082164Y1988986D01*
X3075816Y1982638D01*
X3082164Y1976290D01*
X3048300Y1988986D02*
Y1976290D01*
Y1980522D01*
X3056764Y1988986D01*
X3050416Y1982638D01*
X3056764Y1976290D01*
X3073700Y2014386D02*
Y2001690D01*
Y2005922D01*
X3082164Y2014386D01*
X3075816Y2008038D01*
X3082164Y2001690D01*
X3048300Y2014386D02*
Y2001690D01*
Y2005922D01*
X3056764Y2014386D01*
X3050416Y2008038D01*
X3056764Y2001690D01*
X3073700Y2039786D02*
Y2027090D01*
Y2031322D01*
X3082164Y2039786D01*
X3075816Y2033438D01*
X3082164Y2027090D01*
X3048300Y2039786D02*
Y2027090D01*
Y2031322D01*
X3056764Y2039786D01*
X3050416Y2033438D01*
X3056764Y2027090D01*
X3073700Y2167586D02*
Y2154890D01*
Y2159122D01*
X3082164Y2167586D01*
X3075816Y2161238D01*
X3082164Y2154890D01*
X3048300Y2065586D02*
Y2052890D01*
Y2057122D01*
X3056764Y2065586D01*
X3050416Y2059238D01*
X3056764Y2052890D01*
X3048300Y2090986D02*
Y2078290D01*
Y2082522D01*
X3056764Y2090986D01*
X3050416Y2084638D01*
X3056764Y2078290D01*
X3073700Y2065586D02*
Y2052890D01*
Y2057122D01*
X3082164Y2065586D01*
X3075816Y2059238D01*
X3082164Y2052890D01*
X3073700Y2090986D02*
Y2078290D01*
Y2082522D01*
X3082164Y2090986D01*
X3075816Y2084638D01*
X3082164Y2078290D01*
X3073700Y2116386D02*
Y2103690D01*
Y2107922D01*
X3082164Y2116386D01*
X3075816Y2110038D01*
X3082164Y2103690D01*
X3048300Y2116386D02*
Y2103690D01*
Y2107922D01*
X3056764Y2116386D01*
X3050416Y2110038D01*
X3056764Y2103690D01*
X3073700Y2141786D02*
Y2129090D01*
Y2133322D01*
X3082164Y2141786D01*
X3075816Y2135438D01*
X3082164Y2129090D01*
X3048300Y2141786D02*
Y2129090D01*
Y2133322D01*
X3056764Y2141786D01*
X3050416Y2135438D01*
X3056764Y2129090D01*
X3048300Y2167586D02*
Y2154890D01*
Y2159122D01*
X3056764Y2167586D01*
X3050416Y2161238D01*
X3056764Y2154890D01*
X3073700Y2192986D02*
Y2180290D01*
Y2184522D01*
X3082164Y2192986D01*
X3075816Y2186638D01*
X3082164Y2180290D01*
X3048300Y2192986D02*
Y2180290D01*
Y2184522D01*
X3056764Y2192986D01*
X3050416Y2186638D01*
X3056764Y2180290D01*
X3073700Y2218386D02*
Y2205690D01*
Y2209922D01*
X3082164Y2218386D01*
X3075816Y2212038D01*
X3082164Y2205690D01*
X3048300Y2218386D02*
Y2205690D01*
Y2209922D01*
X3056764Y2218386D01*
X3050416Y2212038D01*
X3056764Y2205690D01*
X3073700Y2243786D02*
Y2231090D01*
Y2235322D01*
X3082164Y2243786D01*
X3075816Y2237438D01*
X3082164Y2231090D01*
X3048300Y2243786D02*
Y2231090D01*
Y2235322D01*
X3056764Y2243786D01*
X3050416Y2237438D01*
X3056764Y2231090D01*
X3073700Y2269186D02*
Y2256490D01*
Y2260722D01*
X3082164Y2269186D01*
X3075816Y2262838D01*
X3082164Y2256490D01*
X3048300Y2269186D02*
Y2256490D01*
Y2260722D01*
X3056764Y2269186D01*
X3050416Y2262838D01*
X3056764Y2256490D01*
X3073700Y826196D02*
Y813500D01*
Y817732D01*
X3082164Y826196D01*
X3075816Y819848D01*
X3082164Y813500D01*
X3073700Y774996D02*
Y762300D01*
Y766532D01*
X3082164Y774996D01*
X3075816Y768648D01*
X3082164Y762300D01*
X3048300Y774996D02*
Y762300D01*
Y766532D01*
X3056764Y774996D01*
X3050416Y768648D01*
X3056764Y762300D01*
X3073700Y800396D02*
Y787700D01*
Y791932D01*
X3082164Y800396D01*
X3075816Y794048D01*
X3082164Y787700D01*
X3048300Y800396D02*
Y787700D01*
Y791932D01*
X3056764Y800396D01*
X3050416Y794048D01*
X3056764Y787700D01*
X3048300Y826196D02*
Y813500D01*
Y817732D01*
X3056764Y826196D01*
X3050416Y819848D01*
X3056764Y813500D01*
X3073700Y851596D02*
Y838900D01*
Y843132D01*
X3082164Y851596D01*
X3075816Y845248D01*
X3082164Y838900D01*
X3048300Y851596D02*
Y838900D01*
Y843132D01*
X3056764Y851596D01*
X3050416Y845248D01*
X3056764Y838900D01*
X3073700Y876996D02*
Y864300D01*
Y868532D01*
X3082164Y876996D01*
X3075816Y870648D01*
X3082164Y864300D01*
X3048300Y876996D02*
Y864300D01*
Y868532D01*
X3056764Y876996D01*
X3050416Y870648D01*
X3056764Y864300D01*
X3073700Y902396D02*
Y889700D01*
Y893932D01*
X3082164Y902396D01*
X3075816Y896048D01*
X3082164Y889700D01*
X3048300Y902396D02*
Y889700D01*
Y893932D01*
X3056764Y902396D01*
X3050416Y896048D01*
X3056764Y889700D01*
X3073700Y1030196D02*
Y1017500D01*
Y1021732D01*
X3082164Y1030196D01*
X3075816Y1023848D01*
X3082164Y1017500D01*
X3048300Y928196D02*
Y915500D01*
Y919732D01*
X3056764Y928196D01*
X3050416Y921848D01*
X3056764Y915500D01*
X3048300Y953596D02*
Y940900D01*
Y945132D01*
X3056764Y953596D01*
X3050416Y947248D01*
X3056764Y940900D01*
X3073700Y928196D02*
Y915500D01*
Y919732D01*
X3082164Y928196D01*
X3075816Y921848D01*
X3082164Y915500D01*
X3073700Y953596D02*
Y940900D01*
Y945132D01*
X3082164Y953596D01*
X3075816Y947248D01*
X3082164Y940900D01*
X3073700Y978996D02*
Y966300D01*
Y970532D01*
X3082164Y978996D01*
X3075816Y972648D01*
X3082164Y966300D01*
X3048300Y978996D02*
Y966300D01*
Y970532D01*
X3056764Y978996D01*
X3050416Y972648D01*
X3056764Y966300D01*
X3073700Y1004396D02*
Y991700D01*
Y995932D01*
X3082164Y1004396D01*
X3075816Y998048D01*
X3082164Y991700D01*
X3048300Y1004396D02*
Y991700D01*
Y995932D01*
X3056764Y1004396D01*
X3050416Y998048D01*
X3056764Y991700D01*
X3048300Y1030196D02*
Y1017500D01*
Y1021732D01*
X3056764Y1030196D01*
X3050416Y1023848D01*
X3056764Y1017500D01*
X3073700Y1055596D02*
Y1042900D01*
Y1047132D01*
X3082164Y1055596D01*
X3075816Y1049248D01*
X3082164Y1042900D01*
X3048300Y1055596D02*
Y1042900D01*
Y1047132D01*
X3056764Y1055596D01*
X3050416Y1049248D01*
X3056764Y1042900D01*
X3073700Y1080996D02*
Y1068300D01*
Y1072532D01*
X3082164Y1080996D01*
X3075816Y1074648D01*
X3082164Y1068300D01*
X3048300Y1080996D02*
Y1068300D01*
Y1072532D01*
X3056764Y1080996D01*
X3050416Y1074648D01*
X3056764Y1068300D01*
X3073700Y1106396D02*
Y1093700D01*
Y1097932D01*
X3082164Y1106396D01*
X3075816Y1100048D01*
X3082164Y1093700D01*
X3048300Y1106396D02*
Y1093700D01*
Y1097932D01*
X3056764Y1106396D01*
X3050416Y1100048D01*
X3056764Y1093700D01*
X3073700Y1131796D02*
Y1119100D01*
Y1123332D01*
X3082164Y1131796D01*
X3075816Y1125448D01*
X3082164Y1119100D01*
X3048300Y1131796D02*
Y1119100D01*
Y1123332D01*
X3056764Y1131796D01*
X3050416Y1125448D01*
X3056764Y1119100D01*
X930480Y2788090D02*
X925400Y2798250D01*
X935560D01*
X930480Y2788090D01*
Y2790122D02*
X927432Y2796218D01*
X933528D01*
X930480Y2790122D01*
Y2713090D02*
X925400Y2723250D01*
X935560D01*
X930480Y2713090D01*
Y2715122D02*
X927432Y2721218D01*
X933528D01*
X930480Y2715122D01*
Y2763090D02*
X925400Y2773250D01*
X935560D01*
X930480Y2763090D01*
Y2765122D02*
X927432Y2771218D01*
X933528D01*
X930480Y2765122D01*
Y2863090D02*
X925400Y2873250D01*
X935560D01*
X930480Y2863090D01*
Y2865122D02*
X927432Y2871218D01*
X933528D01*
X930480Y2865122D01*
Y2838090D02*
X925400Y2848250D01*
X935560D01*
X930480Y2838090D01*
Y2840122D02*
X927432Y2846218D01*
X933528D01*
X930480Y2840122D01*
Y2813090D02*
X925400Y2823250D01*
X935560D01*
X930480Y2813090D01*
Y2815122D02*
X927432Y2821218D01*
X933528D01*
X930480Y2815122D01*
Y2913090D02*
X925400Y2923250D01*
X935560D01*
X930480Y2913090D01*
Y2915122D02*
X927432Y2921218D01*
X933528D01*
X930480Y2915122D01*
Y2888090D02*
X925400Y2898250D01*
X935560D01*
X930480Y2888090D01*
Y2890122D02*
X927432Y2896218D01*
X933528D01*
X930480Y2890122D01*
Y2938090D02*
X925400Y2948250D01*
X935560D01*
X930480Y2938090D01*
Y2940122D02*
X927432Y2946218D01*
X933528D01*
X930480Y2940122D01*
X1110480Y2788090D02*
X1105400Y2798250D01*
X1115560D01*
X1110480Y2788090D01*
Y2790122D02*
X1107432Y2796218D01*
X1113528D01*
X1110480Y2790122D01*
Y2713090D02*
X1105400Y2723250D01*
X1115560D01*
X1110480Y2713090D01*
Y2715122D02*
X1107432Y2721218D01*
X1113528D01*
X1110480Y2715122D01*
Y2763090D02*
X1105400Y2773250D01*
X1115560D01*
X1110480Y2763090D01*
Y2765122D02*
X1107432Y2771218D01*
X1113528D01*
X1110480Y2765122D01*
Y2863090D02*
X1105400Y2873250D01*
X1115560D01*
X1110480Y2863090D01*
Y2865122D02*
X1107432Y2871218D01*
X1113528D01*
X1110480Y2865122D01*
Y2838090D02*
X1105400Y2848250D01*
X1115560D01*
X1110480Y2838090D01*
Y2840122D02*
X1107432Y2846218D01*
X1113528D01*
X1110480Y2840122D01*
Y2913090D02*
X1105400Y2923250D01*
X1115560D01*
X1110480Y2913090D01*
Y2915122D02*
X1107432Y2921218D01*
X1113528D01*
X1110480Y2915122D01*
Y2938090D02*
X1105400Y2948250D01*
X1115560D01*
X1110480Y2938090D01*
Y2940122D02*
X1107432Y2946218D01*
X1113528D01*
X1110480Y2940122D01*
X1538384Y206576D02*
X1529920D01*
Y200228D01*
X1534152D01*
X1529920D01*
Y193880D01*
X396000Y1301690D02*
X398540Y1304230D01*
X401080D01*
X398540Y1306770D01*
X401080Y1309310D01*
X398540D01*
X396000Y1311850D01*
X393460Y1309310D01*
X390920D01*
X393460Y1306770D01*
X390920Y1304230D01*
X393460D01*
X396000Y1301690D01*
Y1247190D02*
X390920Y1257350D01*
X401080D01*
X396000Y1247190D01*
Y1192690D02*
X390920Y1202850D01*
X401080D01*
X396000Y1192690D01*
Y2501690D02*
X398540Y2504230D01*
X401080D01*
X398540Y2506770D01*
X401080Y2509310D01*
X398540D01*
X396000Y2511850D01*
X393460Y2509310D01*
X390920D01*
X393460Y2506770D01*
X390920Y2504230D01*
X393460D01*
X396000Y2501690D01*
Y2392690D02*
X390920Y2402850D01*
X401080D01*
X396000Y2392690D01*
Y2301690D02*
X398540Y2304230D01*
X401080D01*
X398540Y2306770D01*
X401080Y2309310D01*
X398540D01*
X396000Y2311850D01*
X393460Y2309310D01*
X390920D01*
X393460Y2306770D01*
X390920Y2304230D01*
X393460D01*
X396000Y2301690D01*
Y2247190D02*
X390920Y2257350D01*
X401080D01*
X396000Y2247190D01*
X1873664Y209116D02*
X1865200D01*
Y202768D01*
X1869432D01*
X1865200D01*
Y196420D01*
X396000Y1501690D02*
X398540Y1504230D01*
X401080D01*
X398540Y1506770D01*
X401080Y1509310D01*
X398540D01*
X396000Y1511850D01*
X393460Y1509310D01*
X390920D01*
X393460Y1506770D01*
X390920Y1504230D01*
X393460D01*
X396000Y1501690D01*
Y1447190D02*
X390920Y1457350D01*
X401080D01*
X396000Y1447190D01*
Y1392690D02*
X390920Y1402850D01*
X401080D01*
X396000Y1392690D01*
Y701690D02*
X398540Y704230D01*
X401080D01*
X398540Y706770D01*
X401080Y709310D01*
X398540D01*
X396000Y711850D01*
X393460Y709310D01*
X390920D01*
X393460Y706770D01*
X390920Y704230D01*
X393460D01*
X396000Y701690D01*
Y647190D02*
X390920Y657350D01*
X401080D01*
X396000Y647190D01*
Y592690D02*
X390920Y602850D01*
X401080D01*
X396000Y592690D01*
Y301690D02*
X398540Y304230D01*
X401080D01*
X398540Y306770D01*
X401080Y309310D01*
X398540D01*
X396000Y311850D01*
X393460Y309310D01*
X390920D01*
X393460Y306770D01*
X390920Y304230D01*
X393460D01*
X396000Y301690D01*
Y247190D02*
X390920Y257350D01*
X401080D01*
X396000Y247190D01*
Y1101690D02*
X398540Y1104230D01*
X401080D01*
X398540Y1106770D01*
X401080Y1109310D01*
X398540D01*
X396000Y1111850D01*
X393460Y1109310D01*
X390920D01*
X393460Y1106770D01*
X390920Y1104230D01*
X393460D01*
X396000Y1101690D01*
Y1047190D02*
X390920Y1057350D01*
X401080D01*
X396000Y1047190D01*
Y992690D02*
X390920Y1002850D01*
X401080D01*
X396000Y992690D01*
Y1901690D02*
X398540Y1904230D01*
X401080D01*
X398540Y1906770D01*
X401080Y1909310D01*
X398540D01*
X396000Y1911850D01*
X393460Y1909310D01*
X390920D01*
X393460Y1906770D01*
X390920Y1904230D01*
X393460D01*
X396000Y1901690D01*
Y1847190D02*
X390920Y1857350D01*
X401080D01*
X396000Y1847190D01*
Y1792690D02*
X390920Y1802850D01*
X401080D01*
X396000Y1792690D01*
Y1701690D02*
X398540Y1704230D01*
X401080D01*
X398540Y1706770D01*
X401080Y1709310D01*
X398540D01*
X396000Y1711850D01*
X393460Y1709310D01*
X390920D01*
X393460Y1706770D01*
X390920Y1704230D01*
X393460D01*
X396000Y1701690D01*
Y1647190D02*
X390920Y1657350D01*
X401080D01*
X396000Y1647190D01*
Y1592690D02*
X390920Y1602850D01*
X401080D01*
X396000Y1592690D01*
Y501690D02*
X398540Y504230D01*
X401080D01*
X398540Y506770D01*
X401080Y509310D01*
X398540D01*
X396000Y511850D01*
X393460Y509310D01*
X390920D01*
X393460Y506770D01*
X390920Y504230D01*
X393460D01*
X396000Y501690D01*
Y392690D02*
X390920Y402850D01*
X401080D01*
X396000Y392690D01*
Y847190D02*
X390920Y857350D01*
X401080D01*
X396000Y847190D01*
Y792690D02*
X390920Y802850D01*
X401080D01*
X396000Y792690D01*
Y2101690D02*
X398540Y2104230D01*
X401080D01*
X398540Y2106770D01*
X401080Y2109310D01*
X398540D01*
X396000Y2111850D01*
X393460Y2109310D01*
X390920D01*
X393460Y2106770D01*
X390920Y2104230D01*
X393460D01*
X396000Y2101690D01*
Y2047190D02*
X390920Y2057350D01*
X401080D01*
X396000Y2047190D01*
X1885450Y2464640D02*
X1880370Y2474800D01*
X1890530D01*
X1885450Y2464640D01*
Y2466672D02*
X1882402Y2472768D01*
X1888498D01*
X1885450Y2466672D01*
X2035450Y2464640D02*
X2037990Y2467180D01*
X2040530D01*
X2037990Y2469720D01*
X2040530Y2472260D01*
X2037990D01*
X2035450Y2474800D01*
X2032910Y2472260D01*
X2030370D01*
X2032910Y2469720D01*
X2030370Y2467180D01*
X2032910D01*
X2035450Y2464640D01*
Y2466672D02*
X2036974Y2468196D01*
X2038498D01*
X2036974Y2469720D01*
X2038498Y2471244D01*
X2036974D01*
X2035450Y2472768D01*
X2033926Y2471244D01*
X2032402D01*
X2033926Y2469720D01*
X2032402Y2468196D01*
X2033926D01*
X2035450Y2466672D01*
X2035380Y2893896D02*
Y2881200D01*
Y2887548D01*
X2043844D01*
Y2893896D01*
Y2881200D01*
X1413394Y907617D02*
X1411278Y909733D01*
X1407046D01*
X1404930Y907617D01*
Y899153D01*
X1407046Y897037D01*
X1411278D01*
X1413394Y899153D01*
Y785273D02*
X1411278Y787389D01*
X1407046D01*
X1404930Y785273D01*
Y776809D01*
X1407046Y774693D01*
X1411278D01*
X1413394Y776809D01*
Y662930D02*
X1411278Y665046D01*
X1407046D01*
X1404930Y662930D01*
Y654466D01*
X1407046Y652350D01*
X1411278D01*
X1413394Y654466D01*
X2210640Y2893896D02*
Y2881200D01*
Y2887548D01*
X2219104D01*
Y2893896D01*
Y2881200D01*
X2134510Y2279220D02*
X2129430Y2289380D01*
X2139590D01*
X2134510Y2279220D01*
Y2281252D02*
X2131462Y2287348D01*
X2137558D01*
X2134510Y2281252D01*
X1984510Y2279220D02*
X1987050Y2281760D01*
X1989590D01*
X1987050Y2284300D01*
X1989590Y2286840D01*
X1987050D01*
X1984510Y2289380D01*
X1981970Y2286840D01*
X1979430D01*
X1981970Y2284300D01*
X1979430Y2281760D01*
X1981970D01*
X1984510Y2279220D01*
Y2281252D02*
X1986034Y2282776D01*
X1987558D01*
X1986034Y2284300D01*
X1987558Y2285824D01*
X1986034D01*
X1984510Y2287348D01*
X1982986Y2285824D01*
X1981462D01*
X1982986Y2284300D01*
X1981462Y2282776D01*
X1982986D01*
X1984510Y2281252D01*
X1258140Y2697250D02*
Y2707410D01*
X1268300D01*
Y2697250D01*
X1258140D01*
Y2722250D02*
Y2732410D01*
X1268300D01*
Y2722250D01*
X1258140D01*
X1877900Y2892626D02*
Y2879930D01*
Y2886278D01*
X1886364D01*
Y2892626D01*
Y2879930D01*
X1258140Y2838420D02*
Y2848580D01*
X1268300D01*
Y2838420D01*
X1258140D01*
Y2863420D02*
Y2873580D01*
X1268300D01*
Y2863420D01*
X1258140D01*
X2062430Y948256D02*
Y935560D01*
X2068778D01*
X2070894Y937676D01*
Y939792D01*
X2068778Y941908D01*
X2062430D01*
X2068778D01*
X2070894Y944024D01*
Y946140D01*
X2068778Y948256D01*
X2062430D01*
X1927430D02*
Y935560D01*
X1933778D01*
X1935894Y937676D01*
Y939792D01*
X1933778Y941908D01*
X1927430D01*
X1933778D01*
X1935894Y944024D01*
Y946140D01*
X1933778Y948256D01*
X1927430D01*
X1744550D02*
Y935560D01*
X1750898D01*
X1753014Y937676D01*
Y939792D01*
X1750898Y941908D01*
X1744550D01*
X1750898D01*
X1753014Y944024D01*
Y946140D01*
X1750898Y948256D01*
X1744550D01*
X1879550D02*
Y935560D01*
X1885898D01*
X1888014Y937676D01*
Y939792D01*
X1885898Y941908D01*
X1879550D01*
X1885898D01*
X1888014Y944024D01*
Y946140D01*
X1885898Y948256D01*
X1879550D01*
X1696670Y948936D02*
Y936240D01*
X1703018D01*
X1705134Y938356D01*
Y940472D01*
X1703018Y942588D01*
X1696670D01*
X1703018D01*
X1705134Y944704D01*
Y946820D01*
X1703018Y948936D01*
X1696670D01*
X1561670D02*
Y936240D01*
X1568018D01*
X1570134Y938356D01*
Y940472D01*
X1568018Y942588D01*
X1561670D01*
X1568018D01*
X1570134Y944704D01*
Y946820D01*
X1568018Y948936D01*
X1561670D01*
X2056970Y239600D02*
Y249760D01*
X2067130D01*
Y239600D01*
X2056970D01*
Y154600D02*
Y164760D01*
X2067130D01*
Y154600D01*
X2056970D01*
X253500Y696500D02*
Y709196D01*
X257732Y704964D01*
X261964Y709196D01*
Y696500D01*
X207500Y560000D02*
Y572696D01*
X211732Y568464D01*
X215964Y572696D01*
Y560000D01*
X306750Y2379750D02*
Y2392446D01*
X310982Y2388214D01*
X315214Y2392446D01*
Y2379750D01*
X221000Y708750D02*
Y721446D01*
X225232Y717214D01*
X229464Y721446D01*
Y708750D01*
X2946598Y3153696D02*
X2942366D01*
X2940250Y3151580D01*
Y3143116D01*
X2942366Y3141000D01*
X2946598D01*
X2948714Y3143116D01*
Y3151580D01*
X2946598Y3153696D01*
X2589920Y970456D02*
Y980616D01*
X2600080D01*
Y970456D01*
X2589920D01*
X1475170Y198670D02*
Y208830D01*
X1485330D01*
Y198670D01*
X1475170D01*
Y177134D02*
Y187294D01*
X1485330D01*
Y177134D01*
X1475170D01*
X1534420Y238170D02*
Y248330D01*
X1544580D01*
Y238170D01*
X1534420D01*
X1512884D02*
Y248330D01*
X1523044D01*
Y238170D01*
X1512884D01*
X1573670Y181420D02*
Y191580D01*
X1583830D01*
Y181420D01*
X1573670D01*
Y202956D02*
Y213116D01*
X1583830D01*
Y202956D01*
X1573670D01*
X1515920Y140670D02*
Y150830D01*
X1526080D01*
Y140670D01*
X1515920D01*
X1537456D02*
Y150830D01*
X1547616D01*
Y140670D01*
X1537456D01*
X1852670Y141670D02*
Y151830D01*
X1862830D01*
Y141670D01*
X1852670D01*
X1874206D02*
Y151830D01*
X1884366D01*
Y141670D01*
X1874206D01*
X1910670Y205670D02*
Y215830D01*
X1920830D01*
Y205670D01*
X1910670D01*
Y184134D02*
Y194294D01*
X1920830D01*
Y184134D01*
X1910670D01*
X1870170Y241170D02*
Y251330D01*
X1880330D01*
Y241170D01*
X1870170D01*
X1848634D02*
Y251330D01*
X1858794D01*
Y241170D01*
X1848634D01*
X1811420Y181420D02*
Y191580D01*
X1821580D01*
Y181420D01*
X1811420D01*
Y202956D02*
Y213116D01*
X1821580D01*
Y202956D01*
X1811420D01*
X1564170Y375920D02*
Y386080D01*
X1574330D01*
Y375920D01*
X1564170D01*
Y397456D02*
Y407616D01*
X1574330D01*
Y397456D01*
X1564170D01*
X1607420Y376420D02*
Y386580D01*
X1617580D01*
Y376420D01*
X1607420D01*
Y397956D02*
Y408116D01*
X1617580D01*
Y397956D01*
X1607420D01*
X1798670Y378170D02*
Y388330D01*
X1808830D01*
Y378170D01*
X1798670D01*
Y399706D02*
Y409866D01*
X1808830D01*
Y399706D01*
X1798670D01*
X1754920Y376670D02*
Y386830D01*
X1765080D01*
Y376670D01*
X1754920D01*
Y398206D02*
Y408366D01*
X1765080D01*
Y398206D01*
X1754920D01*
X1564920Y557920D02*
Y568080D01*
X1575080D01*
Y557920D01*
X1564920D01*
Y579456D02*
Y589616D01*
X1575080D01*
Y579456D01*
X1564920D01*
X1607420Y558670D02*
Y568830D01*
X1617580D01*
Y558670D01*
X1607420D01*
Y580206D02*
Y590366D01*
X1617580D01*
Y580206D01*
X1607420D01*
X1797670Y559420D02*
Y569580D01*
X1807830D01*
Y559420D01*
X1797670D01*
Y580956D02*
Y591116D01*
X1807830D01*
Y580956D01*
X1797670D01*
X1753920Y557670D02*
Y567830D01*
X1764080D01*
Y557670D01*
X1753920D01*
Y579206D02*
Y589366D01*
X1764080D01*
Y579206D01*
X1753920D01*
X1650420Y1277170D02*
Y1287330D01*
X1660580D01*
Y1277170D01*
X1650420D01*
Y1298706D02*
Y1308866D01*
X1660580D01*
Y1298706D01*
X1650420D01*
X1579920Y1275920D02*
Y1286080D01*
X1590080D01*
Y1275920D01*
X1579920D01*
Y1297456D02*
Y1307616D01*
X1590080D01*
Y1297456D01*
X1579920D01*
X1650420Y1413920D02*
Y1424080D01*
X1660580D01*
Y1413920D01*
X1650420D01*
X1650170Y1399170D02*
Y1409330D01*
X1660330D01*
Y1399170D01*
X1650170D01*
X1581670Y1394420D02*
Y1404580D01*
X1591830D01*
Y1394420D01*
X1581670D01*
X1578920Y1412170D02*
Y1422330D01*
X1589080D01*
Y1412170D01*
X1578920D01*
X2092170Y1498420D02*
Y1508580D01*
X2102330D01*
Y1498420D01*
X2092170D01*
X2077420D02*
Y1508580D01*
X2087580D01*
Y1498420D01*
X2077420D01*
X2077170Y1514670D02*
Y1524830D01*
X2087330D01*
Y1514670D01*
X2077170D01*
X2091920D02*
Y1524830D01*
X2102080D01*
Y1514670D01*
X2091920D01*
X2126420Y1476670D02*
Y1486830D01*
X2136580D01*
Y1476670D01*
X2126420D01*
X2111670D02*
Y1486830D01*
X2121830D01*
Y1476670D01*
X2111670D01*
X2111420Y1492920D02*
Y1503080D01*
X2121580D01*
Y1492920D01*
X2111420D01*
X2126170D02*
Y1503080D01*
X2136330D01*
Y1492920D01*
X2126170D01*
X2124920Y1441170D02*
Y1451330D01*
X2135080D01*
Y1441170D01*
X2124920D01*
X2124670Y1457420D02*
Y1467580D01*
X2134830D01*
Y1457420D01*
X2124670D01*
X2119670Y1402670D02*
Y1412830D01*
X2129830D01*
Y1402670D01*
X2119670D01*
X2119420Y1418920D02*
Y1429080D01*
X2129580D01*
Y1418920D01*
X2119420D01*
X2107670Y1372920D02*
Y1383080D01*
X2117830D01*
Y1372920D01*
X2107670D01*
X2092920D02*
Y1383080D01*
X2103080D01*
Y1372920D01*
X2092920D01*
X2092670Y1389170D02*
Y1399330D01*
X2102830D01*
Y1389170D01*
X2092670D01*
X2107420D02*
Y1399330D01*
X2117580D01*
Y1389170D01*
X2107420D01*
X2068420Y1361920D02*
Y1372080D01*
X2078580D01*
Y1361920D01*
X2068420D01*
X2053670D02*
Y1372080D01*
X2063830D01*
Y1361920D01*
X2053670D01*
X2053420Y1378170D02*
Y1388330D01*
X2063580D01*
Y1378170D01*
X2053420D01*
X2068170D02*
Y1388330D01*
X2078330D01*
Y1378170D01*
X2068170D01*
X2029920Y1372920D02*
Y1383080D01*
X2040080D01*
Y1372920D01*
X2029920D01*
X2015170D02*
Y1383080D01*
X2025330D01*
Y1372920D01*
X2015170D01*
X2014920Y1389170D02*
Y1399330D01*
X2025080D01*
Y1389170D01*
X2014920D01*
X2029670D02*
Y1399330D01*
X2039830D01*
Y1389170D01*
X2029670D01*
X2000170Y1395920D02*
Y1406080D01*
X2010330D01*
Y1395920D01*
X2000170D01*
X1985420D02*
Y1406080D01*
X1995580D01*
Y1395920D01*
X1985420D01*
X1985170Y1412170D02*
Y1422330D01*
X1995330D01*
Y1412170D01*
X1985170D01*
X1999920D02*
Y1422330D01*
X2010080D01*
Y1412170D01*
X1999920D01*
X1995920Y1429420D02*
Y1439580D01*
X2006080D01*
Y1429420D01*
X1995920D01*
X1981170D02*
Y1439580D01*
X1991330D01*
Y1429420D01*
X1981170D01*
X1980920Y1445670D02*
Y1455830D01*
X1991080D01*
Y1445670D01*
X1980920D01*
X1995670D02*
Y1455830D01*
X2005830D01*
Y1445670D01*
X1995670D01*
X2000170Y1463670D02*
Y1473830D01*
X2010330D01*
Y1463670D01*
X2000170D01*
X1985420D02*
Y1473830D01*
X1995580D01*
Y1463670D01*
X1985420D01*
X1985170Y1479920D02*
Y1490080D01*
X1995330D01*
Y1479920D01*
X1985170D01*
X1999920D02*
Y1490080D01*
X2010080D01*
Y1479920D01*
X1999920D01*
X2024670Y1489420D02*
Y1499580D01*
X2034830D01*
Y1489420D01*
X2024670D01*
X2009920D02*
Y1499580D01*
X2020080D01*
Y1489420D01*
X2009920D01*
X2009670Y1505670D02*
Y1515830D01*
X2019830D01*
Y1505670D01*
X2009670D01*
X2024420D02*
Y1515830D01*
X2034580D01*
Y1505670D01*
X2024420D01*
X2091420Y1176170D02*
Y1186330D01*
X2101580D01*
Y1176170D01*
X2091420D01*
X2076670D02*
Y1186330D01*
X2086830D01*
Y1176170D01*
X2076670D01*
X2076420Y1192420D02*
Y1202580D01*
X2086580D01*
Y1192420D01*
X2076420D01*
X2091170D02*
Y1202580D01*
X2101330D01*
Y1192420D01*
X2091170D01*
X2127420Y1197170D02*
Y1207330D01*
X2137580D01*
Y1197170D01*
X2127420D01*
X2112670D02*
Y1207330D01*
X2122830D01*
Y1197170D01*
X2112670D01*
X2112420Y1213420D02*
Y1223580D01*
X2122580D01*
Y1213420D01*
X2112420D01*
X2127170D02*
Y1223580D01*
X2137330D01*
Y1213420D01*
X2127170D01*
X2125670Y1235170D02*
Y1245330D01*
X2135830D01*
Y1235170D01*
X2125670D01*
X2125420Y1251420D02*
Y1261580D01*
X2135580D01*
Y1251420D01*
X2125420D01*
X2119170Y1269670D02*
Y1279830D01*
X2129330D01*
Y1269670D01*
X2119170D01*
X2118920Y1285920D02*
Y1296080D01*
X2129080D01*
Y1285920D01*
X2118920D01*
X2109920Y1301170D02*
Y1311330D01*
X2120080D01*
Y1301170D01*
X2109920D01*
X2095170D02*
Y1311330D01*
X2105330D01*
Y1301170D01*
X2095170D01*
X2094920Y1317420D02*
Y1327580D01*
X2105080D01*
Y1317420D01*
X2094920D01*
X2109670D02*
Y1327580D01*
X2119830D01*
Y1317420D01*
X2109670D01*
X2072170Y1311170D02*
Y1321330D01*
X2082330D01*
Y1311170D01*
X2072170D01*
X2057420D02*
Y1321330D01*
X2067580D01*
Y1311170D01*
X2057420D01*
X2057170Y1327420D02*
Y1337580D01*
X2067330D01*
Y1327420D01*
X2057170D01*
X2071920D02*
Y1337580D01*
X2082080D01*
Y1327420D01*
X2071920D01*
X2030420Y1304920D02*
Y1315080D01*
X2040580D01*
Y1304920D01*
X2030420D01*
X2015670D02*
Y1315080D01*
X2025830D01*
Y1304920D01*
X2015670D01*
X2015420Y1321170D02*
Y1331330D01*
X2025580D01*
Y1321170D01*
X2015420D01*
X2030170D02*
Y1331330D01*
X2040330D01*
Y1321170D01*
X2030170D01*
X1998920Y1275170D02*
Y1285330D01*
X2009080D01*
Y1275170D01*
X1998920D01*
X1984170D02*
Y1285330D01*
X1994330D01*
Y1275170D01*
X1984170D01*
X1983920Y1291420D02*
Y1301580D01*
X1994080D01*
Y1291420D01*
X1983920D01*
X1998670D02*
Y1301580D01*
X2008830D01*
Y1291420D01*
X1998670D01*
X1990920Y1235170D02*
Y1245330D01*
X2001080D01*
Y1235170D01*
X1990920D01*
X1976170D02*
Y1245330D01*
X1986330D01*
Y1235170D01*
X1976170D01*
X1975920Y1251420D02*
Y1261580D01*
X1986080D01*
Y1251420D01*
X1975920D01*
X1990670D02*
Y1261580D01*
X2000830D01*
Y1251420D01*
X1990670D01*
X2009420Y1197670D02*
Y1207830D01*
X2019580D01*
Y1197670D01*
X2009420D01*
X1994670D02*
Y1207830D01*
X2004830D01*
Y1197670D01*
X1994670D01*
X1994420Y1213920D02*
Y1224080D01*
X2004580D01*
Y1213920D01*
X1994420D01*
X2009170D02*
Y1224080D01*
X2019330D01*
Y1213920D01*
X2009170D01*
X2591170Y1937920D02*
Y1948080D01*
X2601330D01*
Y1937920D01*
X2591170D01*
X2576420D02*
Y1948080D01*
X2586580D01*
Y1937920D01*
X2576420D01*
X2576170Y1954170D02*
Y1964330D01*
X2586330D01*
Y1954170D01*
X2576170D01*
X2590920D02*
Y1964330D01*
X2601080D01*
Y1954170D01*
X2590920D01*
X2591920Y1732420D02*
Y1742580D01*
X2602080D01*
Y1732420D01*
X2591920D01*
X2577170D02*
Y1742580D01*
X2587330D01*
Y1732420D01*
X2577170D01*
X2577420Y1716170D02*
Y1726330D01*
X2587580D01*
Y1716170D01*
X2577420D01*
X2592170D02*
Y1726330D01*
X2602330D01*
Y1716170D01*
X2592170D01*
X2626134Y1811170D02*
Y1821330D01*
X2636294D01*
Y1811170D01*
X2626134D01*
X2604599D02*
Y1821330D01*
X2614759D01*
Y1811170D01*
X2604599D01*
X2647956Y1831420D02*
Y1841580D01*
X2658116D01*
Y1831420D01*
X2647956D01*
X2604884D02*
Y1841580D01*
X2615044D01*
Y1831420D01*
X2604884D01*
X2647670Y1811170D02*
Y1821330D01*
X2657830D01*
Y1811170D01*
X2647670D01*
X2626420Y1831420D02*
Y1841580D01*
X2636580D01*
Y1831420D01*
X2626420D01*
X2650670Y969956D02*
Y980116D01*
X2660830D01*
Y969956D01*
X2650670D01*
Y948420D02*
Y958580D01*
X2660830D01*
Y948420D01*
X2650670D01*
X2589920Y948920D02*
Y959080D01*
X2600080D01*
Y948920D01*
X2589920D01*
X2614670Y344920D02*
Y355080D01*
X2624830D01*
Y344920D01*
X2614670D01*
X2636206D02*
Y355080D01*
X2646366D01*
Y344920D01*
X2636206D01*
X2552920Y373420D02*
Y383580D01*
X2563080D01*
Y373420D01*
X2552920D01*
X2552670Y352670D02*
Y362830D01*
X2562830D01*
Y352670D01*
X2552670D01*
X2646670Y435706D02*
Y445866D01*
X2656830D01*
Y435706D01*
X2646670D01*
Y414170D02*
Y424330D01*
X2656830D01*
Y414170D01*
X2646670D01*
X2596170Y436456D02*
Y446616D01*
X2606330D01*
Y436456D01*
X2596170D01*
Y414920D02*
Y425080D01*
X2606330D01*
Y414920D01*
X2596170D01*
X2575920Y436956D02*
Y447116D01*
X2586080D01*
Y436956D01*
X2575920D01*
Y415420D02*
Y425580D01*
X2586080D01*
Y415420D01*
X2575920D01*
X2552170Y246241D02*
Y256401D01*
X2562330D01*
Y246241D01*
X2552170D01*
Y267777D02*
Y277937D01*
X2562330D01*
Y267777D01*
X2552170D01*
X2552420Y289170D02*
Y299330D01*
X2562580D01*
Y289170D01*
X2552420D01*
Y310706D02*
Y320866D01*
X2562580D01*
Y310706D01*
X2552420D01*
Y332241D02*
Y342401D01*
X2562580D01*
Y332241D01*
X2552420D01*
X2552670Y393206D02*
Y403366D01*
X2562830D01*
Y393206D01*
X2552670D01*
Y414741D02*
Y424901D01*
X2562830D01*
Y414741D01*
X2552670D01*
Y436277D02*
Y446437D01*
X2562830D01*
Y436277D01*
X2552670D01*
X2627170Y541170D02*
Y551330D01*
X2637330D01*
Y541170D01*
X2627170D01*
X2647920Y540920D02*
Y551080D01*
X2658080D01*
Y540920D01*
X2647920D01*
X2604920D02*
Y551080D01*
X2615080D01*
Y540920D01*
X2604920D01*
X2627170Y522420D02*
Y532580D01*
X2637330D01*
Y522420D01*
X2627170D01*
X2647920Y522170D02*
Y532330D01*
X2658080D01*
Y522170D01*
X2647920D01*
X2604920D02*
Y532330D01*
X2615080D01*
Y522170D01*
X2604920D01*
X2626670Y503670D02*
Y513830D01*
X2636830D01*
Y503670D01*
X2626670D01*
X2647420Y503420D02*
Y513580D01*
X2657580D01*
Y503420D01*
X2647420D01*
X2604420D02*
Y513580D01*
X2614580D01*
Y503420D01*
X2604420D01*
X2542670Y542527D02*
Y552687D01*
X2552830D01*
Y542527D01*
X2542670D01*
Y520991D02*
Y531151D01*
X2552830D01*
Y520991D01*
X2542670D01*
Y499456D02*
Y509616D01*
X2552830D01*
Y499456D01*
X2542670D01*
Y477920D02*
Y488080D01*
X2552830D01*
Y477920D01*
X2542670D01*
X2585670D02*
Y488080D01*
X2595830D01*
Y477920D01*
X2585670D01*
Y499456D02*
Y509616D01*
X2595830D01*
Y499456D01*
X2585670D01*
Y520991D02*
Y531151D01*
X2595830D01*
Y520991D01*
X2585670D01*
Y542527D02*
Y552687D01*
X2595830D01*
Y542527D01*
X2585670D01*
X2564920Y478170D02*
Y488330D01*
X2575080D01*
Y478170D01*
X2564920D01*
Y499706D02*
Y509866D01*
X2575080D01*
Y499706D01*
X2564920D01*
Y521241D02*
Y531401D01*
X2575080D01*
Y521241D01*
X2564920D01*
Y542777D02*
Y552937D01*
X2575080D01*
Y542777D01*
X2564920D01*
X2631670Y663170D02*
Y673330D01*
X2641830D01*
Y663170D01*
X2631670D01*
X2610134D02*
Y673330D01*
X2620294D01*
Y663170D01*
X2610134D01*
X2630420Y628420D02*
Y638580D01*
X2640580D01*
Y628420D01*
X2630420D01*
X2608884D02*
Y638580D01*
X2619044D01*
Y628420D01*
X2608884D01*
X2649670Y634170D02*
Y644330D01*
X2659830D01*
Y634170D01*
X2649670D01*
Y655706D02*
Y665866D01*
X2659830D01*
Y655706D01*
X2649670D01*
X2587170Y634670D02*
Y644830D01*
X2597330D01*
Y634670D01*
X2587170D01*
Y656206D02*
Y666366D01*
X2597330D01*
Y656206D01*
X2587170D01*
X2543670Y657777D02*
Y667937D01*
X2553830D01*
Y657777D01*
X2543670D01*
Y636241D02*
Y646401D01*
X2553830D01*
Y636241D01*
X2543670D01*
Y614706D02*
Y624866D01*
X2553830D01*
Y614706D01*
X2543670D01*
Y593170D02*
Y603330D01*
X2553830D01*
Y593170D01*
X2543670D01*
X2564420Y657527D02*
Y667687D01*
X2574580D01*
Y657527D01*
X2564420D01*
Y635991D02*
Y646151D01*
X2574580D01*
Y635991D01*
X2564420D01*
Y614456D02*
Y624616D01*
X2574580D01*
Y614456D01*
X2564420D01*
Y592920D02*
Y603080D01*
X2574580D01*
Y592920D01*
X2564420D01*
X2647670Y766420D02*
Y776580D01*
X2657830D01*
Y766420D01*
X2647670D01*
X2626134D02*
Y776580D01*
X2636294D01*
Y766420D01*
X2626134D01*
X2604599D02*
Y776580D01*
X2614759D01*
Y766420D01*
X2604599D01*
X2647670Y746670D02*
Y756830D01*
X2657830D01*
Y746670D01*
X2647670D01*
X2626134D02*
Y756830D01*
X2636294D01*
Y746670D01*
X2626134D01*
X2604599D02*
Y756830D01*
X2614759D01*
Y746670D01*
X2604599D01*
X2647670Y727170D02*
Y737330D01*
X2657830D01*
Y727170D01*
X2647670D01*
X2626134D02*
Y737330D01*
X2636294D01*
Y727170D01*
X2626134D01*
X2604599D02*
Y737330D01*
X2614759D01*
Y727170D01*
X2604599D01*
X2541920Y699670D02*
Y709830D01*
X2552080D01*
Y699670D01*
X2541920D01*
Y721206D02*
Y731366D01*
X2552080D01*
Y721206D01*
X2541920D01*
Y742741D02*
Y752901D01*
X2552080D01*
Y742741D01*
X2541920D01*
Y764277D02*
Y774437D01*
X2552080D01*
Y764277D01*
X2541920D01*
X2563170Y764027D02*
Y774187D01*
X2573330D01*
Y764027D01*
X2563170D01*
Y742491D02*
Y752651D01*
X2573330D01*
Y742491D01*
X2563170D01*
Y720956D02*
Y731116D01*
X2573330D01*
Y720956D01*
X2563170D01*
Y699420D02*
Y709580D01*
X2573330D01*
Y699420D01*
X2563170D01*
X2583920Y763777D02*
Y773937D01*
X2594080D01*
Y763777D01*
X2583920D01*
Y742241D02*
Y752401D01*
X2594080D01*
Y742241D01*
X2583920D01*
Y720706D02*
Y730866D01*
X2594080D01*
Y720706D01*
X2583920D01*
Y699170D02*
Y709330D01*
X2594080D01*
Y699170D01*
X2583920D01*
X2631670Y846670D02*
Y856830D01*
X2641830D01*
Y846670D01*
X2631670D01*
X2612920Y846420D02*
Y856580D01*
X2623080D01*
Y846420D01*
X2612920D01*
X2649670Y850170D02*
Y860330D01*
X2659830D01*
Y850170D01*
X2649670D01*
X2649170Y870170D02*
Y880330D01*
X2659330D01*
Y870170D01*
X2649170D01*
X2588670Y870670D02*
Y880830D01*
X2598830D01*
Y870670D01*
X2588670D01*
X2588170Y850920D02*
Y861080D01*
X2598330D01*
Y850920D01*
X2588170D01*
X2564670Y805670D02*
Y815830D01*
X2574830D01*
Y805670D01*
X2564670D01*
Y827206D02*
Y837366D01*
X2574830D01*
Y827206D01*
X2564670D01*
Y848741D02*
Y858901D01*
X2574830D01*
Y848741D01*
X2564670D01*
Y870277D02*
Y880437D01*
X2574830D01*
Y870277D01*
X2564670D01*
X2543920Y805920D02*
Y816080D01*
X2554080D01*
Y805920D01*
X2543920D01*
Y827456D02*
Y837616D01*
X2554080D01*
Y827456D01*
X2543920D01*
Y848991D02*
Y859151D01*
X2554080D01*
Y848991D01*
X2543920D01*
Y870527D02*
Y880687D01*
X2554080D01*
Y870527D01*
X2543920D01*
X2608884Y1171670D02*
Y1181830D01*
X2619044D01*
Y1171670D01*
X2608884D01*
X2630420D02*
Y1181830D01*
X2640580D01*
Y1171670D01*
X2630420D01*
X2578670Y1173420D02*
Y1183580D01*
X2588830D01*
Y1173420D01*
X2578670D01*
Y1151884D02*
Y1162044D01*
X2588830D01*
Y1151884D01*
X2578670D01*
X2558420Y1173706D02*
Y1183866D01*
X2568580D01*
Y1173706D01*
X2558420D01*
Y1152170D02*
Y1162330D01*
X2568580D01*
Y1152170D01*
X2558420D01*
X2607420Y1242777D02*
Y1252937D01*
X2617580D01*
Y1242777D01*
X2607420D01*
Y1264313D02*
Y1274473D01*
X2617580D01*
Y1264313D01*
X2607420D01*
Y1221241D02*
Y1231401D01*
X2617580D01*
Y1221241D01*
X2607420D01*
Y1199706D02*
Y1209866D01*
X2617580D01*
Y1199706D01*
X2607420D01*
X2627670Y1199420D02*
Y1209580D01*
X2637830D01*
Y1199420D01*
X2627670D01*
Y1242491D02*
Y1252651D01*
X2637830D01*
Y1242491D01*
X2627670D01*
Y1264027D02*
Y1274187D01*
X2637830D01*
Y1264027D01*
X2627670D01*
Y1220956D02*
Y1231116D01*
X2637830D01*
Y1220956D01*
X2627670D01*
X2555920Y1243777D02*
Y1253937D01*
X2566080D01*
Y1243777D01*
X2555920D01*
Y1265313D02*
Y1275473D01*
X2566080D01*
Y1265313D01*
X2555920D01*
Y1222241D02*
Y1232401D01*
X2566080D01*
Y1222241D01*
X2555920D01*
Y1200706D02*
Y1210866D01*
X2566080D01*
Y1200706D01*
X2555920D01*
X2576170Y1200420D02*
Y1210580D01*
X2586330D01*
Y1200420D01*
X2576170D01*
Y1243491D02*
Y1253651D01*
X2586330D01*
Y1243491D01*
X2576170D01*
Y1265027D02*
Y1275187D01*
X2586330D01*
Y1265027D01*
X2576170D01*
Y1221956D02*
Y1232116D01*
X2586330D01*
Y1221956D01*
X2576170D01*
X2643920Y1072170D02*
Y1082330D01*
X2654080D01*
Y1072170D01*
X2643920D01*
X2643420Y1101420D02*
Y1111580D01*
X2653580D01*
Y1101420D01*
X2643420D01*
X2598420Y1100920D02*
Y1111080D01*
X2608580D01*
Y1100920D01*
X2598420D01*
X2594670Y1071670D02*
Y1081830D01*
X2604830D01*
Y1071670D01*
X2594670D01*
X2584170Y917420D02*
Y927580D01*
X2594330D01*
Y917420D01*
X2584170D01*
X2563920Y917706D02*
Y927866D01*
X2574080D01*
Y917706D01*
X2563920D01*
X2609920Y948206D02*
Y958366D01*
X2620080D01*
Y948206D01*
X2609920D01*
Y969741D02*
Y979901D01*
X2620080D01*
Y969741D01*
X2609920D01*
X2630170Y947920D02*
Y958080D01*
X2640330D01*
Y947920D01*
X2630170D01*
Y969456D02*
Y979616D01*
X2640330D01*
Y969456D01*
X2630170D01*
X2569170Y1004991D02*
Y1015151D01*
X2579330D01*
Y1004991D01*
X2569170D01*
Y961920D02*
Y972080D01*
X2579330D01*
Y961920D01*
X2569170D01*
Y983456D02*
Y993616D01*
X2579330D01*
Y983456D01*
X2569170D01*
Y1048063D02*
Y1058223D01*
X2579330D01*
Y1048063D01*
X2569170D01*
Y1091134D02*
Y1101294D01*
X2579330D01*
Y1091134D01*
X2569170D01*
Y940384D02*
Y950544D01*
X2579330D01*
Y940384D01*
X2569170D01*
Y1069598D02*
Y1079759D01*
X2579330D01*
Y1069598D01*
X2569170D01*
Y1026527D02*
Y1036687D01*
X2579330D01*
Y1026527D01*
X2569170D01*
X2548920Y1026813D02*
Y1036973D01*
X2559080D01*
Y1026813D01*
X2548920D01*
Y1005277D02*
Y1015437D01*
X2559080D01*
Y1005277D01*
X2548920D01*
Y1048348D02*
Y1058509D01*
X2559080D01*
Y1048348D01*
X2548920D01*
Y1091420D02*
Y1101580D01*
X2559080D01*
Y1091420D01*
X2548920D01*
Y1069884D02*
Y1080044D01*
X2559080D01*
Y1069884D01*
X2548920D01*
Y983741D02*
Y993901D01*
X2559080D01*
Y983741D01*
X2548920D01*
Y962206D02*
Y972366D01*
X2559080D01*
Y962206D01*
X2548920D01*
Y940670D02*
Y950830D01*
X2559080D01*
Y940670D01*
X2548920D01*
X1937420Y216170D02*
Y226330D01*
X1947580D01*
Y216170D01*
X1937420D01*
X1939670Y196670D02*
Y206830D01*
X1949830D01*
Y196670D01*
X1939670D01*
X1939920Y176170D02*
Y186330D01*
X1950080D01*
Y176170D01*
X1939920D01*
X1933920Y157170D02*
Y167330D01*
X1944080D01*
Y157170D01*
X1933920D01*
X1885670Y121420D02*
Y131580D01*
X1895830D01*
Y121420D01*
X1885670D01*
X1931170Y233670D02*
Y243830D01*
X1941330D01*
Y233670D01*
X1931170D01*
X1918420Y249920D02*
Y260080D01*
X1928580D01*
Y249920D01*
X1918420D01*
X1897420Y260920D02*
Y271080D01*
X1907580D01*
Y260920D01*
X1897420D01*
X1783170Y203420D02*
Y213580D01*
X1793330D01*
Y203420D01*
X1783170D01*
X1787170Y227420D02*
Y237580D01*
X1797330D01*
Y227420D01*
X1787170D01*
X1799920Y246920D02*
Y257080D01*
X1810080D01*
Y246920D01*
X1799920D01*
X1820920Y260170D02*
Y270330D01*
X1831080D01*
Y260170D01*
X1820920D01*
X1867670Y265920D02*
Y276080D01*
X1877830D01*
Y265920D01*
X1867670D01*
X1782170Y179670D02*
Y189830D01*
X1792330D01*
Y179670D01*
X1782170D01*
X1995420Y197563D02*
Y207723D01*
X2005580D01*
Y197563D01*
X1995420D01*
Y176027D02*
Y186187D01*
X2005580D01*
Y176027D01*
X1995420D01*
Y219098D02*
Y229258D01*
X2005580D01*
Y219098D01*
X1995420D01*
Y262170D02*
Y272330D01*
X2005580D01*
Y262170D01*
X1995420D01*
Y240634D02*
Y250794D01*
X2005580D01*
Y240634D01*
X1995420D01*
Y154491D02*
Y164651D01*
X2005580D01*
Y154491D01*
X1995420D01*
Y132956D02*
Y143116D01*
X2005580D01*
Y132956D01*
X1995420D01*
Y111420D02*
Y121580D01*
X2005580D01*
Y111420D01*
X1995420D01*
X1969670Y196313D02*
Y206473D01*
X1979830D01*
Y196313D01*
X1969670D01*
Y174777D02*
Y184937D01*
X1979830D01*
Y174777D01*
X1969670D01*
Y217848D02*
Y228008D01*
X1979830D01*
Y217848D01*
X1969670D01*
Y260920D02*
Y271080D01*
X1979830D01*
Y260920D01*
X1969670D01*
Y239384D02*
Y249544D01*
X1979830D01*
Y239384D01*
X1969670D01*
Y153241D02*
Y163401D01*
X1979830D01*
Y153241D01*
X1969670D01*
Y131706D02*
Y141866D01*
X1979830D01*
Y131706D01*
X1969670D01*
Y110170D02*
Y120330D01*
X1979830D01*
Y110170D01*
X1969670D01*
X1920170Y142670D02*
Y152830D01*
X1930330D01*
Y142670D01*
X1920170D01*
X1904170Y130670D02*
Y140830D01*
X1914330D01*
Y130670D01*
X1904170D01*
X1846420Y122170D02*
Y132330D01*
X1856580D01*
Y122170D01*
X1846420D01*
X1522134Y118420D02*
Y128580D01*
X1532294D01*
Y118420D01*
X1522134D01*
X1795670Y155670D02*
Y165830D01*
X1805830D01*
Y155670D01*
X1795670D01*
X1808420Y138420D02*
Y148580D01*
X1818580D01*
Y138420D01*
X1808420D01*
X1823920Y124420D02*
Y134580D01*
X1834080D01*
Y124420D01*
X1823920D01*
X1572170Y247170D02*
Y257330D01*
X1582330D01*
Y247170D01*
X1572170D01*
X1450670Y234420D02*
Y244580D01*
X1460830D01*
Y234420D01*
X1450670D01*
X1470920Y239420D02*
Y249580D01*
X1481080D01*
Y239420D01*
X1470920D01*
X1455170Y150920D02*
Y161080D01*
X1465330D01*
Y150920D01*
X1455170D01*
X1465670Y136170D02*
Y146330D01*
X1475830D01*
Y136170D01*
X1465670D01*
X1480420Y126920D02*
Y137080D01*
X1490580D01*
Y126920D01*
X1480420D01*
X1592420Y126420D02*
Y136580D01*
X1602580D01*
Y126420D01*
X1592420D01*
X1570670Y130420D02*
Y140580D01*
X1580830D01*
Y130420D01*
X1570670D01*
X1585920Y145670D02*
Y155830D01*
X1596080D01*
Y145670D01*
X1585920D01*
X1500599Y118420D02*
Y128580D01*
X1510759D01*
Y118420D01*
X1500599D01*
X1543670D02*
Y128580D01*
X1553830D01*
Y118420D01*
X1543670D01*
X1452170Y211241D02*
Y221401D01*
X1462330D01*
Y211241D01*
X1452170D01*
Y189706D02*
Y199866D01*
X1462330D01*
Y189706D01*
X1452170D01*
Y168170D02*
Y178330D01*
X1462330D01*
Y168170D01*
X1452170D01*
X1017170Y885420D02*
Y895580D01*
X1027330D01*
Y885420D01*
X1017170D01*
X1069420D02*
Y895580D01*
X1079580D01*
Y885420D01*
X1069420D01*
X1042670D02*
Y895580D01*
X1052830D01*
Y885420D01*
X1042670D01*
X991170D02*
Y895580D01*
X1001330D01*
Y885420D01*
X991170D01*
X965670Y658920D02*
Y669080D01*
X975830D01*
Y658920D01*
X965670D01*
X991670D02*
Y669080D01*
X1001830D01*
Y658920D01*
X991670D01*
X1017170D02*
Y669080D01*
X1027330D01*
Y658920D01*
X1017170D01*
X1070920Y619420D02*
Y629580D01*
X1081080D01*
Y619420D01*
X1070920D01*
X1044920D02*
Y629580D01*
X1055080D01*
Y619420D01*
X1044920D01*
X1018170D02*
Y629580D01*
X1028330D01*
Y619420D01*
X1018170D01*
X992670D02*
Y629580D01*
X1002830D01*
Y619420D01*
X992670D01*
X966670D02*
Y629580D01*
X976830D01*
Y619420D01*
X966670D01*
X964670Y697134D02*
Y707294D01*
X974830D01*
Y697134D01*
X964670D01*
X990670D02*
Y707294D01*
X1000830D01*
Y697134D01*
X990670D01*
X1016170D02*
Y707294D01*
X1026330D01*
Y697134D01*
X1016170D01*
X1042920D02*
Y707294D01*
X1053080D01*
Y697134D01*
X1042920D01*
X1068920D02*
Y707294D01*
X1079080D01*
Y697134D01*
X1068920D01*
X1166170Y1043170D02*
Y1053330D01*
X1176330D01*
Y1043170D01*
X1166170D01*
X1190420Y1042920D02*
Y1053080D01*
X1200580D01*
Y1042920D01*
X1190420D01*
X1163420Y985170D02*
Y995330D01*
X1173580D01*
Y985170D01*
X1163420D01*
X1187670Y984920D02*
Y995080D01*
X1197830D01*
Y984920D01*
X1187670D01*
X1164420Y922420D02*
Y932580D01*
X1174580D01*
Y922420D01*
X1164420D01*
X1188670Y922170D02*
Y932330D01*
X1198830D01*
Y922170D01*
X1188670D01*
X1163170Y862420D02*
Y872580D01*
X1173330D01*
Y862420D01*
X1163170D01*
X1187420Y862170D02*
Y872330D01*
X1197580D01*
Y862170D01*
X1187420D01*
X1186920Y736670D02*
Y746830D01*
X1197080D01*
Y736670D01*
X1186920D01*
X1162670Y736920D02*
Y747080D01*
X1172830D01*
Y736920D01*
X1162670D01*
X1186920Y801420D02*
Y811580D01*
X1197080D01*
Y801420D01*
X1186920D01*
X1162670Y801670D02*
Y811830D01*
X1172830D01*
Y801670D01*
X1162670D01*
X1163920Y676420D02*
Y686580D01*
X1174080D01*
Y676420D01*
X1163920D01*
X1188170Y676170D02*
Y686330D01*
X1198330D01*
Y676170D01*
X1188170D01*
X1267170Y1076777D02*
Y1086937D01*
X1277330D01*
Y1076777D01*
X1267170D01*
Y1098313D02*
Y1108473D01*
X1277330D01*
Y1098313D01*
X1267170D01*
Y1055241D02*
Y1065402D01*
X1277330D01*
Y1055241D01*
X1267170D01*
Y1012170D02*
Y1022330D01*
X1277330D01*
Y1012170D01*
X1267170D01*
Y1033706D02*
Y1043866D01*
X1277330D01*
Y1033706D01*
X1267170D01*
Y1119849D02*
Y1130009D01*
X1277330D01*
Y1119849D01*
X1267170D01*
X1239920Y1073527D02*
Y1083687D01*
X1250080D01*
Y1073527D01*
X1239920D01*
Y1095063D02*
Y1105223D01*
X1250080D01*
Y1095063D01*
X1239920D01*
Y1051992D02*
Y1062151D01*
X1250080D01*
Y1051992D01*
X1239920D01*
Y1008920D02*
Y1019080D01*
X1250080D01*
Y1008920D01*
X1239920D01*
Y1030456D02*
Y1040616D01*
X1250080D01*
Y1030456D01*
X1239920D01*
Y1116599D02*
Y1126759D01*
X1250080D01*
Y1116599D01*
X1239920D01*
X1211670Y1053277D02*
Y1063437D01*
X1221830D01*
Y1053277D01*
X1211670D01*
Y1074813D02*
Y1084973D01*
X1221830D01*
Y1074813D01*
X1211670D01*
Y1031741D02*
Y1041901D01*
X1221830D01*
Y1031741D01*
X1211670D01*
Y988670D02*
Y998830D01*
X1221830D01*
Y988670D01*
X1211670D01*
Y1010206D02*
Y1020366D01*
X1221830D01*
Y1010206D01*
X1211670D01*
Y1096349D02*
Y1106509D01*
X1221830D01*
Y1096349D01*
X1211670D01*
Y1117884D02*
Y1128044D01*
X1221830D01*
Y1117884D01*
X1211670D01*
X1212420Y879527D02*
Y889687D01*
X1222580D01*
Y879527D01*
X1212420D01*
Y901063D02*
Y911223D01*
X1222580D01*
Y901063D01*
X1212420D01*
Y857991D02*
Y868151D01*
X1222580D01*
Y857991D01*
X1212420D01*
Y814920D02*
Y825080D01*
X1222580D01*
Y814920D01*
X1212420D01*
Y836456D02*
Y846616D01*
X1222580D01*
Y836456D01*
X1212420D01*
Y922599D02*
Y932759D01*
X1222580D01*
Y922599D01*
X1212420D01*
Y944134D02*
Y954294D01*
X1222580D01*
Y944134D01*
X1212420D01*
Y965670D02*
Y975830D01*
X1222580D01*
Y965670D01*
X1212420D01*
X1239670Y901527D02*
Y911687D01*
X1249830D01*
Y901527D01*
X1239670D01*
Y923063D02*
Y933223D01*
X1249830D01*
Y923063D01*
X1239670D01*
Y879992D02*
Y890152D01*
X1249830D01*
Y879992D01*
X1239670D01*
Y836920D02*
Y847080D01*
X1249830D01*
Y836920D01*
X1239670D01*
Y858456D02*
Y868616D01*
X1249830D01*
Y858456D01*
X1239670D01*
Y944599D02*
Y954759D01*
X1249830D01*
Y944599D01*
X1239670D01*
Y966134D02*
Y976294D01*
X1249830D01*
Y966134D01*
X1239670D01*
Y987670D02*
Y997830D01*
X1249830D01*
Y987670D01*
X1239670D01*
X1265920Y905027D02*
Y915187D01*
X1276080D01*
Y905027D01*
X1265920D01*
Y926563D02*
Y936723D01*
X1276080D01*
Y926563D01*
X1265920D01*
Y883492D02*
Y893652D01*
X1276080D01*
Y883492D01*
X1265920D01*
Y840420D02*
Y850580D01*
X1276080D01*
Y840420D01*
X1265920D01*
Y861956D02*
Y872116D01*
X1276080D01*
Y861956D01*
X1265920D01*
Y948099D02*
Y958259D01*
X1276080D01*
Y948099D01*
X1265920D01*
Y969634D02*
Y979794D01*
X1276080D01*
Y969634D01*
X1265920D01*
Y991170D02*
Y1001330D01*
X1276080D01*
Y991170D01*
X1265920D01*
X1265670Y729027D02*
Y739187D01*
X1275830D01*
Y729027D01*
X1265670D01*
Y750563D02*
Y760723D01*
X1275830D01*
Y750563D01*
X1265670D01*
Y707492D02*
Y717652D01*
X1275830D01*
Y707492D01*
X1265670D01*
Y664420D02*
Y674580D01*
X1275830D01*
Y664420D01*
X1265670D01*
Y685956D02*
Y696116D01*
X1275830D01*
Y685956D01*
X1265670D01*
Y772099D02*
Y782259D01*
X1275830D01*
Y772099D01*
X1265670D01*
Y793634D02*
Y803794D01*
X1275830D01*
Y793634D01*
X1265670D01*
Y815170D02*
Y825330D01*
X1275830D01*
Y815170D01*
X1265670D01*
X1239670Y726527D02*
Y736687D01*
X1249830D01*
Y726527D01*
X1239670D01*
Y748063D02*
Y758223D01*
X1249830D01*
Y748063D01*
X1239670D01*
Y704992D02*
Y715152D01*
X1249830D01*
Y704992D01*
X1239670D01*
Y661920D02*
Y672080D01*
X1249830D01*
Y661920D01*
X1239670D01*
Y683456D02*
Y693616D01*
X1249830D01*
Y683456D01*
X1239670D01*
Y769599D02*
Y779759D01*
X1249830D01*
Y769599D01*
X1239670D01*
Y791134D02*
Y801294D01*
X1249830D01*
Y791134D01*
X1239670D01*
Y812670D02*
Y822830D01*
X1249830D01*
Y812670D01*
X1239670D01*
X1212920Y704777D02*
Y714937D01*
X1223080D01*
Y704777D01*
X1212920D01*
Y726313D02*
Y736473D01*
X1223080D01*
Y726313D01*
X1212920D01*
Y683242D02*
Y693401D01*
X1223080D01*
Y683242D01*
X1212920D01*
Y640170D02*
Y650330D01*
X1223080D01*
Y640170D01*
X1212920D01*
Y661706D02*
Y671866D01*
X1223080D01*
Y661706D01*
X1212920D01*
Y747849D02*
Y758009D01*
X1223080D01*
Y747849D01*
X1212920D01*
Y769384D02*
Y779544D01*
X1223080D01*
Y769384D01*
X1212920D01*
Y790920D02*
Y801080D01*
X1223080D01*
Y790920D01*
X1212920D01*
X1422170Y1520706D02*
Y1530866D01*
X1432330D01*
Y1520706D01*
X1422170D01*
Y1499170D02*
Y1509330D01*
X1432330D01*
Y1499170D01*
X1422170D01*
Y1542241D02*
Y1552401D01*
X1432330D01*
Y1542241D01*
X1422170D01*
Y1413027D02*
Y1423187D01*
X1432330D01*
Y1413027D01*
X1422170D01*
Y1434563D02*
Y1444723D01*
X1432330D01*
Y1434563D01*
X1422170D01*
Y1563777D02*
Y1573937D01*
X1432330D01*
Y1563777D01*
X1422170D01*
Y1477634D02*
Y1487794D01*
X1432330D01*
Y1477634D01*
X1422170D01*
Y1456099D02*
Y1466259D01*
X1432330D01*
Y1456099D01*
X1422170D01*
X1454670Y1477027D02*
Y1487187D01*
X1464830D01*
Y1477027D01*
X1454670D01*
Y1498563D02*
Y1508723D01*
X1464830D01*
Y1498563D01*
X1454670D01*
Y1455491D02*
Y1465652D01*
X1464830D01*
Y1455491D01*
X1454670D01*
Y1412420D02*
Y1422580D01*
X1464830D01*
Y1412420D01*
X1454670D01*
Y1433956D02*
Y1444116D01*
X1464830D01*
Y1433956D01*
X1454670D01*
Y1520099D02*
Y1530259D01*
X1464830D01*
Y1520099D01*
X1454670D01*
Y1541634D02*
Y1551794D01*
X1464830D01*
Y1541634D01*
X1454670D01*
Y1563170D02*
Y1573330D01*
X1464830D01*
Y1563170D01*
X1454670D01*
X1484670Y1485777D02*
Y1495937D01*
X1494830D01*
Y1485777D01*
X1484670D01*
Y1507313D02*
Y1517473D01*
X1494830D01*
Y1507313D01*
X1484670D01*
Y1464241D02*
Y1474402D01*
X1494830D01*
Y1464241D01*
X1484670D01*
Y1421170D02*
Y1431330D01*
X1494830D01*
Y1421170D01*
X1484670D01*
Y1442706D02*
Y1452866D01*
X1494830D01*
Y1442706D01*
X1484670D01*
Y1528849D02*
Y1539009D01*
X1494830D01*
Y1528849D01*
X1484670D01*
Y1550384D02*
Y1560544D01*
X1494830D01*
Y1550384D01*
X1484670D01*
Y1571920D02*
Y1582080D01*
X1494830D01*
Y1571920D01*
X1484670D01*
X1512420Y1528098D02*
Y1538259D01*
X1522580D01*
Y1528098D01*
X1512420D01*
Y1463491D02*
Y1473651D01*
X1522580D01*
Y1463491D01*
X1512420D01*
Y1549634D02*
Y1559794D01*
X1522580D01*
Y1549634D01*
X1512420D01*
Y1441956D02*
Y1452116D01*
X1522580D01*
Y1441956D01*
X1512420D01*
Y1571170D02*
Y1581330D01*
X1522580D01*
Y1571170D01*
X1512420D01*
X1546170Y1529848D02*
Y1540009D01*
X1556330D01*
Y1529848D01*
X1546170D01*
Y1551384D02*
Y1561544D01*
X1556330D01*
Y1551384D01*
X1546170D01*
X1512420Y1485027D02*
Y1495187D01*
X1522580D01*
Y1485027D01*
X1512420D01*
X1546170Y1465241D02*
Y1475401D01*
X1556330D01*
Y1465241D01*
X1546170D01*
X1512420Y1506563D02*
Y1516723D01*
X1522580D01*
Y1506563D01*
X1512420D01*
X1546170Y1443706D02*
Y1453866D01*
X1556330D01*
Y1443706D01*
X1546170D01*
Y1508313D02*
Y1518473D01*
X1556330D01*
Y1508313D01*
X1546170D01*
X1512420Y1420420D02*
Y1430580D01*
X1522580D01*
Y1420420D01*
X1512420D01*
X1546170Y1572920D02*
Y1583080D01*
X1556330D01*
Y1572920D01*
X1546170D01*
Y1486777D02*
Y1496937D01*
X1556330D01*
Y1486777D01*
X1546170D01*
Y1422170D02*
Y1432330D01*
X1556330D01*
Y1422170D01*
X1546170D01*
X1684313Y2941420D02*
Y2951580D01*
X1694473D01*
Y2941420D01*
X1684313D01*
X1662777D02*
Y2951580D01*
X1672937D01*
Y2941420D01*
X1662777D01*
X1705849D02*
Y2951580D01*
X1716009D01*
Y2941420D01*
X1705849D01*
X1748920D02*
Y2951580D01*
X1759080D01*
Y2941420D01*
X1748920D01*
X1727384D02*
Y2951580D01*
X1737544D01*
Y2941420D01*
X1727384D01*
X1683563Y2914920D02*
Y2925080D01*
X1693723D01*
Y2914920D01*
X1683563D01*
X1662027D02*
Y2925080D01*
X1672187D01*
Y2914920D01*
X1662027D01*
X1705099D02*
Y2925080D01*
X1715259D01*
Y2914920D01*
X1705099D01*
X1748170D02*
Y2925080D01*
X1758330D01*
Y2914920D01*
X1748170D01*
X1726634D02*
Y2925080D01*
X1736794D01*
Y2914920D01*
X1726634D01*
X2192063Y2832170D02*
Y2842330D01*
X2202223D01*
Y2832170D01*
X2192063D01*
X2170527D02*
Y2842330D01*
X2180687D01*
Y2832170D01*
X2170527D01*
X2213599D02*
Y2842330D01*
X2223759D01*
Y2832170D01*
X2213599D01*
X2256670D02*
Y2842330D01*
X2266830D01*
Y2832170D01*
X2256670D01*
X2235134D02*
Y2842330D01*
X2245294D01*
Y2832170D01*
X2235134D01*
X2020313Y2833920D02*
Y2844080D01*
X2030473D01*
Y2833920D01*
X2020313D01*
X1998777D02*
Y2844080D01*
X2008937D01*
Y2833920D01*
X1998777D01*
X2041849D02*
Y2844080D01*
X2052009D01*
Y2833920D01*
X2041849D01*
X2084920D02*
Y2844080D01*
X2095080D01*
Y2833920D01*
X2084920D01*
X2063384D02*
Y2844080D01*
X2073544D01*
Y2833920D01*
X2063384D01*
X2128670Y2204241D02*
Y2214401D01*
X2138830D01*
Y2204241D01*
X2128670D01*
Y2247313D02*
Y2257473D01*
X2138830D01*
Y2247313D01*
X2128670D01*
Y2225777D02*
Y2235937D01*
X2138830D01*
Y2225777D01*
X2128670D01*
Y2182706D02*
Y2192866D01*
X2138830D01*
Y2182706D01*
X2128670D01*
Y2161170D02*
Y2171330D01*
X2138830D01*
Y2161170D01*
X2128670D01*
X2101063Y2118170D02*
Y2128330D01*
X2111223D01*
Y2118170D01*
X2101063D01*
X2079527D02*
Y2128330D01*
X2089687D01*
Y2118170D01*
X2079527D01*
X2122599D02*
Y2128330D01*
X2132759D01*
Y2118170D01*
X2122599D01*
X2165670D02*
Y2128330D01*
X2175830D01*
Y2118170D01*
X2165670D01*
X2144134D02*
Y2128330D01*
X2154294D01*
Y2118170D01*
X2144134D01*
X2054134Y2171670D02*
Y2181830D01*
X2064294D01*
Y2171670D01*
X2054134D01*
X2075670D02*
Y2181830D01*
X2085830D01*
Y2171670D01*
X2075670D01*
X2032599D02*
Y2181830D01*
X2042759D01*
Y2171670D01*
X2032599D01*
X1989527D02*
Y2181830D01*
X1999687D01*
Y2171670D01*
X1989527D01*
X2011063D02*
Y2181830D01*
X2021223D01*
Y2171670D01*
X2011063D01*
X1990527Y2146670D02*
Y2156830D01*
X2000687D01*
Y2146670D01*
X1990527D01*
X2033599D02*
Y2156830D01*
X2043759D01*
Y2146670D01*
X2033599D01*
X2012063D02*
Y2156830D01*
X2022223D01*
Y2146670D01*
X2012063D01*
X2076670D02*
Y2156830D01*
X2086830D01*
Y2146670D01*
X2076670D01*
X2055134D02*
Y2156830D01*
X2065294D01*
Y2146670D01*
X2055134D01*
X1376416Y1145043D02*
Y1155203D01*
X1386576D01*
Y1145043D01*
X1376416D01*
X1355416Y1123043D02*
Y1133203D01*
X1365576D01*
Y1123043D01*
X1355416D01*
X1429416Y1151543D02*
Y1161703D01*
X1439576D01*
Y1151543D01*
X1429416D01*
X1411666Y1133543D02*
Y1143703D01*
X1421826D01*
Y1133543D01*
X1411666D01*
X1394666Y1112793D02*
Y1122953D01*
X1404826D01*
Y1112793D01*
X1394666D01*
X1376416Y1092793D02*
Y1102953D01*
X1386576D01*
Y1092793D01*
X1376416D01*
X1676920Y2156563D02*
Y2166723D01*
X1687080D01*
Y2156563D01*
X1676920D01*
Y2135027D02*
Y2145187D01*
X1687080D01*
Y2135027D01*
X1676920D01*
Y2178099D02*
Y2188259D01*
X1687080D01*
Y2178099D01*
X1676920D01*
Y2221170D02*
Y2231330D01*
X1687080D01*
Y2221170D01*
X1676920D01*
Y2199634D02*
Y2209794D01*
X1687080D01*
Y2199634D01*
X1676920D01*
X1750063Y2158670D02*
Y2168830D01*
X1760223D01*
Y2158670D01*
X1750063D01*
X1728527D02*
Y2168830D01*
X1738687D01*
Y2158670D01*
X1728527D01*
X1771599D02*
Y2168830D01*
X1781759D01*
Y2158670D01*
X1771599D01*
X1814670D02*
Y2168830D01*
X1824830D01*
Y2158670D01*
X1814670D01*
X1793134D02*
Y2168830D01*
X1803294D01*
Y2158670D01*
X1793134D01*
X1753813Y2186920D02*
Y2197080D01*
X1763973D01*
Y2186920D01*
X1753813D01*
X1732277D02*
Y2197080D01*
X1742437D01*
Y2186920D01*
X1732277D01*
X1775349D02*
Y2197080D01*
X1785509D01*
Y2186920D01*
X1775349D01*
X1818420D02*
Y2197080D01*
X1828580D01*
Y2186920D01*
X1818420D01*
X1796884D02*
Y2197080D01*
X1807044D01*
Y2186920D01*
X1796884D01*
X1753063Y2213920D02*
Y2224080D01*
X1763223D01*
Y2213920D01*
X1753063D01*
X1731527D02*
Y2224080D01*
X1741687D01*
Y2213920D01*
X1731527D01*
X1774599D02*
Y2224080D01*
X1784759D01*
Y2213920D01*
X1774599D01*
X1817670D02*
Y2224080D01*
X1827830D01*
Y2213920D01*
X1817670D01*
X1796134D02*
Y2224080D01*
X1806294D01*
Y2213920D01*
X1796134D01*
X1552420Y610920D02*
Y621080D01*
X1562580D01*
Y610920D01*
X1552420D01*
X1588670Y623170D02*
Y633330D01*
X1598830D01*
Y623170D01*
X1588670D01*
X1567384D02*
Y633330D01*
X1577544D01*
Y623170D01*
X1567384D01*
X1543670Y547384D02*
Y557544D01*
X1553830D01*
Y547384D01*
X1543670D01*
Y590456D02*
Y600616D01*
X1553830D01*
Y590456D01*
X1543670D01*
Y568920D02*
Y579080D01*
X1553830D01*
Y568920D01*
X1543670D01*
X1355920Y845420D02*
Y855580D01*
X1366080D01*
Y845420D01*
X1355920D01*
Y823884D02*
Y834044D01*
X1366080D01*
Y823884D01*
X1355920D01*
Y802349D02*
Y812509D01*
X1366080D01*
Y802349D01*
X1355920D01*
Y716206D02*
Y726366D01*
X1366080D01*
Y716206D01*
X1355920D01*
Y694670D02*
Y704830D01*
X1366080D01*
Y694670D01*
X1355920D01*
Y737741D02*
Y747902D01*
X1366080D01*
Y737741D01*
X1355920D01*
Y780813D02*
Y790973D01*
X1366080D01*
Y780813D01*
X1355920D01*
Y759277D02*
Y769437D01*
X1366080D01*
Y759277D01*
X1355920D01*
Y1074420D02*
Y1084580D01*
X1366080D01*
Y1074420D01*
X1355920D01*
Y1052884D02*
Y1063044D01*
X1366080D01*
Y1052884D01*
X1355920D01*
Y1031349D02*
Y1041509D01*
X1366080D01*
Y1031349D01*
X1355920D01*
Y945206D02*
Y955366D01*
X1366080D01*
Y945206D01*
X1355920D01*
Y923670D02*
Y933830D01*
X1366080D01*
Y923670D01*
X1355920D01*
Y966741D02*
Y976901D01*
X1366080D01*
Y966741D01*
X1355920D01*
Y1009813D02*
Y1019973D01*
X1366080D01*
Y1009813D01*
X1355920D01*
Y988277D02*
Y998437D01*
X1366080D01*
Y988277D01*
X1355920D01*
X1537670Y1172670D02*
Y1182830D01*
X1547830D01*
Y1172670D01*
X1537670D01*
X1516134D02*
Y1182830D01*
X1526294D01*
Y1172670D01*
X1516134D01*
X1494599D02*
Y1182830D01*
X1504759D01*
Y1172670D01*
X1494599D01*
X1429991D02*
Y1182830D01*
X1440152D01*
Y1172670D01*
X1429991D01*
X1473063D02*
Y1182830D01*
X1483223D01*
Y1172670D01*
X1473063D01*
X1451527D02*
Y1182830D01*
X1461687D01*
Y1172670D01*
X1451527D01*
X1538670Y1198420D02*
Y1208580D01*
X1548830D01*
Y1198420D01*
X1538670D01*
X1517134D02*
Y1208580D01*
X1527294D01*
Y1198420D01*
X1517134D01*
X1495599D02*
Y1208580D01*
X1505759D01*
Y1198420D01*
X1495599D01*
X1430992D02*
Y1208580D01*
X1441151D01*
Y1198420D01*
X1430992D01*
X1474063D02*
Y1208580D01*
X1484223D01*
Y1198420D01*
X1474063D01*
X1452527D02*
Y1208580D01*
X1462687D01*
Y1198420D01*
X1452527D01*
X1539670Y1222670D02*
Y1232830D01*
X1549830D01*
Y1222670D01*
X1539670D01*
X1518134D02*
Y1232830D01*
X1528294D01*
Y1222670D01*
X1518134D01*
X1496599D02*
Y1232830D01*
X1506759D01*
Y1222670D01*
X1496599D01*
X1431991D02*
Y1232830D01*
X1442151D01*
Y1222670D01*
X1431991D01*
X1475063D02*
Y1232830D01*
X1485223D01*
Y1222670D01*
X1475063D01*
X1453527D02*
Y1232830D01*
X1463687D01*
Y1222670D01*
X1453527D01*
X1539670Y1246920D02*
Y1257080D01*
X1549830D01*
Y1246920D01*
X1539670D01*
X1518134D02*
Y1257080D01*
X1528294D01*
Y1246920D01*
X1518134D01*
X1496599D02*
Y1257080D01*
X1506759D01*
Y1246920D01*
X1496599D01*
X1431991D02*
Y1257080D01*
X1442151D01*
Y1246920D01*
X1431991D01*
X1475063D02*
Y1257080D01*
X1485223D01*
Y1246920D01*
X1475063D01*
X1453527D02*
Y1257080D01*
X1463687D01*
Y1246920D01*
X1453527D01*
X1539670Y1269170D02*
Y1279330D01*
X1549830D01*
Y1269170D01*
X1539670D01*
X1518134D02*
Y1279330D01*
X1528294D01*
Y1269170D01*
X1518134D01*
X1496599D02*
Y1279330D01*
X1506759D01*
Y1269170D01*
X1496599D01*
X1431991D02*
Y1279330D01*
X1442151D01*
Y1269170D01*
X1431991D01*
X1475063D02*
Y1279330D01*
X1485223D01*
Y1269170D01*
X1475063D01*
X1453527D02*
Y1279330D01*
X1463687D01*
Y1269170D01*
X1453527D01*
X1539670Y1293920D02*
Y1304080D01*
X1549830D01*
Y1293920D01*
X1539670D01*
X1518134D02*
Y1304080D01*
X1528294D01*
Y1293920D01*
X1518134D01*
X1496599D02*
Y1304080D01*
X1506759D01*
Y1293920D01*
X1496599D01*
X1431991D02*
Y1304080D01*
X1442151D01*
Y1293920D01*
X1431991D01*
X1475063D02*
Y1304080D01*
X1485223D01*
Y1293920D01*
X1475063D01*
X1453527D02*
Y1304080D01*
X1463687D01*
Y1293920D01*
X1453527D01*
X1457670Y260420D02*
Y270580D01*
X1467830D01*
Y260420D01*
X1457670D01*
Y281956D02*
Y292116D01*
X1467830D01*
Y281956D01*
X1457670D01*
Y303491D02*
Y313651D01*
X1467830D01*
Y303491D01*
X1457670D01*
Y389634D02*
Y399794D01*
X1467830D01*
Y389634D01*
X1457670D01*
Y411170D02*
Y421330D01*
X1467830D01*
Y411170D01*
X1457670D01*
Y368098D02*
Y378259D01*
X1467830D01*
Y368098D01*
X1457670D01*
Y325027D02*
Y335187D01*
X1467830D01*
Y325027D01*
X1457670D01*
Y346563D02*
Y356723D01*
X1467830D01*
Y346563D01*
X1457670D01*
X1544420Y262920D02*
Y273080D01*
X1554580D01*
Y262920D01*
X1544420D01*
Y284456D02*
Y294616D01*
X1554580D01*
Y284456D01*
X1544420D01*
Y305991D02*
Y316151D01*
X1554580D01*
Y305991D01*
X1544420D01*
Y392134D02*
Y402294D01*
X1554580D01*
Y392134D01*
X1544420D01*
Y413670D02*
Y423830D01*
X1554580D01*
Y413670D01*
X1544420D01*
Y370598D02*
Y380759D01*
X1554580D01*
Y370598D01*
X1544420D01*
Y327527D02*
Y337687D01*
X1554580D01*
Y327527D01*
X1544420D01*
Y349063D02*
Y359223D01*
X1554580D01*
Y349063D01*
X1544420D01*
X1844920Y280670D02*
Y290830D01*
X1855080D01*
Y280670D01*
X1844920D01*
Y302206D02*
Y312366D01*
X1855080D01*
Y302206D01*
X1844920D01*
Y323741D02*
Y333901D01*
X1855080D01*
Y323741D01*
X1844920D01*
Y409884D02*
Y420044D01*
X1855080D01*
Y409884D01*
X1844920D01*
Y431420D02*
Y441580D01*
X1855080D01*
Y431420D01*
X1844920D01*
Y388349D02*
Y398508D01*
X1855080D01*
Y388349D01*
X1844920D01*
Y345277D02*
Y355437D01*
X1855080D01*
Y345277D01*
X1844920D01*
Y366813D02*
Y376973D01*
X1855080D01*
Y366813D01*
X1844920D01*
X1885670Y282420D02*
Y292580D01*
X1895830D01*
Y282420D01*
X1885670D01*
Y303956D02*
Y314116D01*
X1895830D01*
Y303956D01*
X1885670D01*
Y325491D02*
Y335651D01*
X1895830D01*
Y325491D01*
X1885670D01*
Y411634D02*
Y421794D01*
X1895830D01*
Y411634D01*
X1885670D01*
Y433170D02*
Y443330D01*
X1895830D01*
Y433170D01*
X1885670D01*
Y390098D02*
Y400258D01*
X1895830D01*
Y390098D01*
X1885670D01*
Y347027D02*
Y357187D01*
X1895830D01*
Y347027D01*
X1885670D01*
Y368563D02*
Y378723D01*
X1895830D01*
Y368563D01*
X1885670D01*
X1925420Y284670D02*
Y294830D01*
X1935580D01*
Y284670D01*
X1925420D01*
Y306206D02*
Y316366D01*
X1935580D01*
Y306206D01*
X1925420D01*
Y327741D02*
Y337901D01*
X1935580D01*
Y327741D01*
X1925420D01*
Y413884D02*
Y424044D01*
X1935580D01*
Y413884D01*
X1925420D01*
Y435420D02*
Y445580D01*
X1935580D01*
Y435420D01*
X1925420D01*
Y392349D02*
Y402509D01*
X1935580D01*
Y392349D01*
X1925420D01*
Y349277D02*
Y359437D01*
X1935580D01*
Y349277D01*
X1925420D01*
Y370813D02*
Y380973D01*
X1935580D01*
Y370813D01*
X1925420D01*
X1962420Y285920D02*
Y296080D01*
X1972580D01*
Y285920D01*
X1962420D01*
Y307456D02*
Y317616D01*
X1972580D01*
Y307456D01*
X1962420D01*
Y328991D02*
Y339151D01*
X1972580D01*
Y328991D01*
X1962420D01*
Y415134D02*
Y425294D01*
X1972580D01*
Y415134D01*
X1962420D01*
Y436670D02*
Y446830D01*
X1972580D01*
Y436670D01*
X1962420D01*
Y393599D02*
Y403759D01*
X1972580D01*
Y393599D01*
X1962420D01*
Y350527D02*
Y360687D01*
X1972580D01*
Y350527D01*
X1962420D01*
Y372063D02*
Y382223D01*
X1972580D01*
Y372063D01*
X1962420D01*
X1994920Y284670D02*
Y294830D01*
X2005080D01*
Y284670D01*
X1994920D01*
Y306206D02*
Y316366D01*
X2005080D01*
Y306206D01*
X1994920D01*
Y327741D02*
Y337901D01*
X2005080D01*
Y327741D01*
X1994920D01*
Y413884D02*
Y424044D01*
X2005080D01*
Y413884D01*
X1994920D01*
Y435420D02*
Y445580D01*
X2005080D01*
Y435420D01*
X1994920D01*
Y392349D02*
Y402509D01*
X2005080D01*
Y392349D01*
X1994920D01*
Y349277D02*
Y359437D01*
X2005080D01*
Y349277D01*
X1994920D01*
Y370813D02*
Y380973D01*
X2005080D01*
Y370813D01*
X1994920D01*
X1596670Y162670D02*
Y172830D01*
X1606830D01*
Y162670D01*
X1596670D01*
Y184206D02*
Y194366D01*
X1606830D01*
Y184206D01*
X1596670D01*
Y205741D02*
Y215901D01*
X1606830D01*
Y205741D01*
X1596670D01*
Y291884D02*
Y302044D01*
X1606830D01*
Y291884D01*
X1596670D01*
Y313420D02*
Y323580D01*
X1606830D01*
Y313420D01*
X1596670D01*
Y270348D02*
Y280508D01*
X1606830D01*
Y270348D01*
X1596670D01*
Y227277D02*
Y237437D01*
X1606830D01*
Y227277D01*
X1596670D01*
Y248813D02*
Y258973D01*
X1606830D01*
Y248813D01*
X1596670D01*
X1519670Y262170D02*
Y272330D01*
X1529830D01*
Y262170D01*
X1519670D01*
Y283706D02*
Y293866D01*
X1529830D01*
Y283706D01*
X1519670D01*
Y305241D02*
Y315401D01*
X1529830D01*
Y305241D01*
X1519670D01*
Y391384D02*
Y401544D01*
X1529830D01*
Y391384D01*
X1519670D01*
Y412920D02*
Y423080D01*
X1529830D01*
Y412920D01*
X1519670D01*
Y369849D02*
Y380009D01*
X1529830D01*
Y369849D01*
X1519670D01*
Y326777D02*
Y336937D01*
X1529830D01*
Y326777D01*
X1519670D01*
Y348313D02*
Y358473D01*
X1529830D01*
Y348313D01*
X1519670D01*
X1488420Y262920D02*
Y273080D01*
X1498580D01*
Y262920D01*
X1488420D01*
Y284456D02*
Y294616D01*
X1498580D01*
Y284456D01*
X1488420D01*
Y305991D02*
Y316151D01*
X1498580D01*
Y305991D01*
X1488420D01*
Y392134D02*
Y402294D01*
X1498580D01*
Y392134D01*
X1488420D01*
Y413670D02*
Y423830D01*
X1498580D01*
Y413670D01*
X1488420D01*
Y370598D02*
Y380759D01*
X1498580D01*
Y370598D01*
X1488420D01*
Y327527D02*
Y337687D01*
X1498580D01*
Y327527D01*
X1488420D01*
Y349063D02*
Y359223D01*
X1498580D01*
Y349063D01*
X1488420D01*
X1939502Y613130D02*
Y625826D01*
X1943734Y621594D01*
X1947966Y625826D01*
Y613130D01*
X1937430Y603940D02*
Y616636D01*
X1941662Y612404D01*
X1945894Y616636D01*
Y603940D01*
X1928430Y598940D02*
Y611636D01*
X1932662Y607404D01*
X1936894Y611636D01*
Y598940D01*
X1918430Y601940D02*
Y614636D01*
X1922662Y610404D01*
X1926894Y614636D01*
Y601940D01*
X1916430Y611940D02*
Y624636D01*
X1920662Y620404D01*
X1924894Y624636D01*
Y611940D01*
X1923015Y619783D02*
Y632478D01*
X1927247Y628247D01*
X1931479Y632478D01*
Y619783D01*
X1933430Y620940D02*
Y633636D01*
X1937662Y629404D01*
X1941894Y633636D01*
Y620940D01*
X2050430Y623636D02*
Y610940D01*
X2058894D01*
X2050430Y611636D02*
Y598940D01*
X2058894D01*
X2062430Y611636D02*
Y598940D01*
X2070894D01*
X2051430Y634636D02*
Y621940D01*
X2059894D01*
X2062430Y634636D02*
Y621940D01*
X2070894D01*
X2074430Y634636D02*
Y621940D01*
X2082894D01*
X2074430Y623636D02*
Y610940D01*
X2082894D01*
X2074430Y611636D02*
Y598940D01*
X2082894D01*
X2074430Y827536D02*
Y814840D01*
X2082894D01*
X2074430Y839536D02*
Y826840D01*
X2082894D01*
X2074430Y850536D02*
Y837840D01*
X2082894D01*
X2062430Y850536D02*
Y837840D01*
X2070894D01*
X2051430Y850536D02*
Y837840D01*
X2059894D01*
X2062430Y827536D02*
Y814840D01*
X2070894D01*
X2050430Y827536D02*
Y814840D01*
X2058894D01*
X2050430Y839536D02*
Y826840D01*
X2058894D01*
X1933430Y836840D02*
Y849536D01*
X1937662Y845304D01*
X1941894Y849536D01*
Y836840D01*
X1923015Y835683D02*
Y848379D01*
X1927247Y844147D01*
X1931479Y848379D01*
Y835683D01*
X1916430Y827840D02*
Y840536D01*
X1920662Y836304D01*
X1924894Y840536D01*
Y827840D01*
X1918430Y817840D02*
Y830536D01*
X1922662Y826304D01*
X1926894Y830536D01*
Y817840D01*
X1928430Y814840D02*
Y827536D01*
X1932662Y823304D01*
X1936894Y827536D01*
Y814840D01*
X1937430Y819840D02*
Y832536D01*
X1941662Y828304D01*
X1945894Y832536D01*
Y819840D01*
X1939502Y829030D02*
Y841726D01*
X1943734Y837494D01*
X1947966Y841726D01*
Y829030D01*
X1732170Y850536D02*
Y837840D01*
X1740634D01*
X1732170Y838536D02*
Y825840D01*
X1740634D01*
X1732170Y827536D02*
Y814840D01*
X1740634D01*
X1744170Y827536D02*
Y814840D01*
X1752634D01*
X1755170Y827536D02*
Y814840D01*
X1763634D01*
X1744170Y850536D02*
Y837840D01*
X1752634D01*
X1756170Y850536D02*
Y837840D01*
X1764634D01*
X1756170Y838536D02*
Y825840D01*
X1764634D01*
X1873170Y815840D02*
Y828536D01*
X1877402Y824304D01*
X1881634Y828536D01*
Y815840D01*
X1883584Y816997D02*
Y829693D01*
X1887816Y825461D01*
X1892048Y829693D01*
Y816997D01*
X1890170Y824840D02*
Y837536D01*
X1894402Y833304D01*
X1898634Y837536D01*
Y824840D01*
X1888170Y834840D02*
Y847536D01*
X1892402Y843304D01*
X1896634Y847536D01*
Y834840D01*
X1878170Y837840D02*
Y850536D01*
X1882402Y846304D01*
X1886634Y850536D01*
Y837840D01*
X1869170Y832840D02*
Y845536D01*
X1873402Y841304D01*
X1877634Y845536D01*
Y832840D01*
X1867099Y823650D02*
Y836346D01*
X1871330Y832114D01*
X1875562Y836346D01*
Y823650D01*
X1867099Y715700D02*
Y728396D01*
X1871330Y724164D01*
X1875562Y728396D01*
Y715700D01*
X1869170Y724890D02*
Y737586D01*
X1873402Y733354D01*
X1877634Y737586D01*
Y724890D01*
X1878170Y729890D02*
Y742586D01*
X1882402Y738354D01*
X1886634Y742586D01*
Y729890D01*
X1888170Y726890D02*
Y739586D01*
X1892402Y735354D01*
X1896634Y739586D01*
Y726890D01*
X1890170Y716890D02*
Y729586D01*
X1894402Y725354D01*
X1898634Y729586D01*
Y716890D01*
X1883584Y709047D02*
Y721743D01*
X1887816Y717511D01*
X1892048Y721743D01*
Y709047D01*
X1873170Y707890D02*
Y720586D01*
X1877402Y716354D01*
X1881634Y720586D01*
Y707890D01*
X1756170Y730586D02*
Y717890D01*
X1764634D01*
X1756170Y742586D02*
Y729890D01*
X1764634D01*
X1744170Y742586D02*
Y729890D01*
X1752634D01*
X1755170Y719586D02*
Y706890D01*
X1763634D01*
X1744170Y719586D02*
Y706890D01*
X1752634D01*
X1732170Y719586D02*
Y706890D01*
X1740634D01*
X1732170Y730586D02*
Y717890D01*
X1740634D01*
X1732170Y742586D02*
Y729890D01*
X1740634D01*
X1939502Y721080D02*
Y733776D01*
X1943734Y729544D01*
X1947966Y733776D01*
Y721080D01*
X1937430Y711890D02*
Y724586D01*
X1941662Y720354D01*
X1945894Y724586D01*
Y711890D01*
X1928430Y706890D02*
Y719586D01*
X1932662Y715354D01*
X1936894Y719586D01*
Y706890D01*
X1918430Y709890D02*
Y722586D01*
X1922662Y718354D01*
X1926894Y722586D01*
Y709890D01*
X1916430Y719890D02*
Y732586D01*
X1920662Y728354D01*
X1924894Y732586D01*
Y719890D01*
X1923015Y727733D02*
Y740428D01*
X1927247Y736197D01*
X1931479Y740428D01*
Y727733D01*
X1933430Y728890D02*
Y741586D01*
X1937662Y737354D01*
X1941894Y741586D01*
Y728890D01*
X2050430Y731586D02*
Y718890D01*
X2058894D01*
X2050430Y719586D02*
Y706890D01*
X2058894D01*
X2062430Y719586D02*
Y706890D01*
X2070894D01*
X2051430Y742586D02*
Y729890D01*
X2059894D01*
X2062430Y742586D02*
Y729890D01*
X2070894D01*
X2074430Y742586D02*
Y729890D01*
X2082894D01*
X2074430Y731586D02*
Y718890D01*
X2082894D01*
X2074430Y719586D02*
Y706890D01*
X2082894D01*
X1573742Y721080D02*
Y733776D01*
X1577973Y729544D01*
X1582206Y733776D01*
Y721080D01*
X1571670Y711890D02*
Y724586D01*
X1575902Y720354D01*
X1580134Y724586D01*
Y711890D01*
X1562670Y706890D02*
Y719586D01*
X1566902Y715354D01*
X1571134Y719586D01*
Y706890D01*
X1552670Y709890D02*
Y722586D01*
X1556902Y718354D01*
X1561134Y722586D01*
Y709890D01*
X1550670Y719890D02*
Y732586D01*
X1554902Y728354D01*
X1559134Y732586D01*
Y719890D01*
X1557256Y727733D02*
Y740428D01*
X1561487Y736197D01*
X1565719Y740428D01*
Y727733D01*
X1567670Y728890D02*
Y741586D01*
X1571902Y737354D01*
X1576134Y741586D01*
Y728890D01*
X1684670Y731586D02*
Y718890D01*
X1693134D01*
X1684670Y719586D02*
Y706890D01*
X1693134D01*
X1696670Y719586D02*
Y706890D01*
X1705134D01*
X1685670Y742586D02*
Y729890D01*
X1694134D01*
X1696670Y742586D02*
Y729890D01*
X1705134D01*
X1708670Y742586D02*
Y729890D01*
X1717134D01*
X1708670Y731586D02*
Y718890D01*
X1717134D01*
X1708670Y719586D02*
Y706890D01*
X1717134D01*
X1573742Y830300D02*
Y842996D01*
X1577973Y838764D01*
X1582206Y842996D01*
Y830300D01*
X1571670Y821110D02*
Y833806D01*
X1575902Y829574D01*
X1580134Y833806D01*
Y821110D01*
X1562670Y816110D02*
Y828806D01*
X1566902Y824574D01*
X1571134Y828806D01*
Y816110D01*
X1552670Y819110D02*
Y831806D01*
X1556902Y827574D01*
X1561134Y831806D01*
Y819110D01*
X1550670Y829110D02*
Y841806D01*
X1554902Y837574D01*
X1559134Y841806D01*
Y829110D01*
X1557256Y836953D02*
Y849649D01*
X1561487Y845417D01*
X1565719Y849649D01*
Y836953D01*
X1567670Y838110D02*
Y850806D01*
X1571902Y846574D01*
X1576134Y850806D01*
Y838110D01*
X1684670Y840806D02*
Y828110D01*
X1693134D01*
X1684670Y828806D02*
Y816110D01*
X1693134D01*
X1696670Y828806D02*
Y816110D01*
X1705134D01*
X1685670Y851806D02*
Y839110D01*
X1694134D01*
X1696670Y851806D02*
Y839110D01*
X1705134D01*
X1708670Y851806D02*
Y839110D01*
X1717134D01*
X1708670Y840806D02*
Y828110D01*
X1717134D01*
X1708670Y828806D02*
Y816110D01*
X1717134D01*
X1531250Y3128000D02*
Y3140696D01*
X1535482Y3136464D01*
X1539714Y3140696D01*
Y3128000D01*
X3179348Y3128446D02*
X3175116D01*
X3173000Y3126330D01*
Y3117866D01*
X3175116Y3115750D01*
X3179348D01*
X3181464Y3117866D01*
Y3126330D01*
X3179348Y3128446D01*
X3170348Y3136446D02*
X3166116D01*
X3164000Y3134330D01*
Y3125866D01*
X3166116Y3123750D01*
X3170348D01*
X3172464Y3125866D01*
Y3134330D01*
X3170348Y3136446D01*
X3162098Y3144696D02*
X3157866D01*
X3155750Y3142580D01*
Y3134116D01*
X3157866Y3132000D01*
X3162098D01*
X3164214Y3134116D01*
Y3142580D01*
X3162098Y3144696D01*
X3153848Y3153446D02*
X3149616D01*
X3147500Y3151330D01*
Y3142866D01*
X3149616Y3140750D01*
X3153848D01*
X3155964Y3142866D01*
Y3151330D01*
X3153848Y3153446D01*
X3144848Y3162446D02*
X3140616D01*
X3138500Y3160330D01*
Y3151866D01*
X3140616Y3149750D01*
X3144848D01*
X3146964Y3151866D01*
Y3160330D01*
X3144848Y3162446D01*
X3136348Y3170446D02*
X3132116D01*
X3130000Y3168330D01*
Y3159866D01*
X3132116Y3157750D01*
X3136348D01*
X3138464Y3159866D01*
Y3168330D01*
X3136348Y3170446D01*
X3129098Y3177696D02*
X3124866D01*
X3122750Y3175580D01*
Y3167116D01*
X3124866Y3165000D01*
X3129098D01*
X3131214Y3167116D01*
Y3175580D01*
X3129098Y3177696D01*
X3122598Y3184446D02*
X3118366D01*
X3116250Y3182330D01*
Y3173866D01*
X3118366Y3171750D01*
X3122598D01*
X3124714Y3173866D01*
Y3182330D01*
X3122598Y3184446D01*
X3135598Y3197446D02*
X3131366D01*
X3129250Y3195330D01*
Y3186866D01*
X3131366Y3184750D01*
X3135598D01*
X3137714Y3186866D01*
Y3195330D01*
X3135598Y3197446D01*
X3142098Y3190696D02*
X3137866D01*
X3135750Y3188580D01*
Y3180116D01*
X3137866Y3178000D01*
X3142098D01*
X3144214Y3180116D01*
Y3188580D01*
X3142098Y3190696D01*
X3149348Y3183446D02*
X3145116D01*
X3143000Y3181330D01*
Y3172866D01*
X3145116Y3170750D01*
X3149348D01*
X3151464Y3172866D01*
Y3181330D01*
X3149348Y3183446D01*
X3157848Y3175446D02*
X3153616D01*
X3151500Y3173330D01*
Y3164866D01*
X3153616Y3162750D01*
X3157848D01*
X3159964Y3164866D01*
Y3173330D01*
X3157848Y3175446D01*
X3166848Y3166446D02*
X3162616D01*
X3160500Y3164330D01*
Y3155866D01*
X3162616Y3153750D01*
X3166848D01*
X3168964Y3155866D01*
Y3164330D01*
X3166848Y3166446D01*
X3175098Y3157696D02*
X3170866D01*
X3168750Y3155580D01*
Y3147116D01*
X3170866Y3145000D01*
X3175098D01*
X3177214Y3147116D01*
Y3155580D01*
X3175098Y3157696D01*
X3183348Y3149446D02*
X3179116D01*
X3177000Y3147330D01*
Y3138866D01*
X3179116Y3136750D01*
X3183348D01*
X3185464Y3138866D01*
Y3147330D01*
X3183348Y3149446D01*
X3192348Y3141446D02*
X3188116D01*
X3186000Y3139330D01*
Y3130866D01*
X3188116Y3128750D01*
X3192348D01*
X3194464Y3130866D01*
Y3139330D01*
X3192348Y3141446D01*
X3138500Y1873500D02*
Y1886196D01*
X3142732Y1881964D01*
X3146964Y1886196D01*
Y1873500D01*
X3138500Y1798000D02*
Y1810696D01*
X3142732Y1806464D01*
X3146964Y1810696D01*
Y1798000D01*
X3068348Y1330696D02*
X3064116D01*
X3062000Y1328580D01*
Y1320116D01*
X3064116Y1318000D01*
X3068348D01*
X3070464Y1320116D01*
Y1328580D01*
X3068348Y1330696D01*
Y1320196D02*
X3064116D01*
X3062000Y1318080D01*
Y1309616D01*
X3064116Y1307500D01*
X3068348D01*
X3070464Y1309616D01*
Y1318080D01*
X3068348Y1320196D01*
Y1310446D02*
X3064116D01*
X3062000Y1308330D01*
Y1299866D01*
X3064116Y1297750D01*
X3068348D01*
X3070464Y1299866D01*
Y1308330D01*
X3068348Y1310446D01*
Y1299446D02*
X3064116D01*
X3062000Y1297330D01*
Y1288866D01*
X3064116Y1286750D01*
X3068348D01*
X3070464Y1288866D01*
Y1297330D01*
X3068348Y1299446D01*
Y1287696D02*
X3064116D01*
X3062000Y1285580D01*
Y1277116D01*
X3064116Y1275000D01*
X3068348D01*
X3070464Y1277116D01*
Y1285580D01*
X3068348Y1287696D01*
Y1277446D02*
X3064116D01*
X3062000Y1275330D01*
Y1266866D01*
X3064116Y1264750D01*
X3068348D01*
X3070464Y1266866D01*
Y1275330D01*
X3068348Y1277446D01*
Y1267446D02*
X3064116D01*
X3062000Y1265330D01*
Y1256866D01*
X3064116Y1254750D01*
X3068348D01*
X3070464Y1256866D01*
Y1265330D01*
X3068348Y1267446D01*
X3056598Y1331196D02*
X3052366D01*
X3050250Y1329080D01*
Y1320616D01*
X3052366Y1318500D01*
X3056598D01*
X3058714Y1320616D01*
Y1329080D01*
X3056598Y1331196D01*
Y1320696D02*
X3052366D01*
X3050250Y1318580D01*
Y1310116D01*
X3052366Y1308000D01*
X3056598D01*
X3058714Y1310116D01*
Y1318580D01*
X3056598Y1320696D01*
Y1310946D02*
X3052366D01*
X3050250Y1308830D01*
Y1300366D01*
X3052366Y1298250D01*
X3056598D01*
X3058714Y1300366D01*
Y1308830D01*
X3056598Y1310946D01*
Y1299946D02*
X3052366D01*
X3050250Y1297830D01*
Y1289366D01*
X3052366Y1287250D01*
X3056598D01*
X3058714Y1289366D01*
Y1297830D01*
X3056598Y1299946D01*
Y1288196D02*
X3052366D01*
X3050250Y1286080D01*
Y1277616D01*
X3052366Y1275500D01*
X3056598D01*
X3058714Y1277616D01*
Y1286080D01*
X3056598Y1288196D01*
Y1277946D02*
X3052366D01*
X3050250Y1275830D01*
Y1267366D01*
X3052366Y1265250D01*
X3056598D01*
X3058714Y1267366D01*
Y1275830D01*
X3056598Y1277946D01*
Y1267946D02*
X3052366D01*
X3050250Y1265830D01*
Y1257366D01*
X3052366Y1255250D01*
X3056598D01*
X3058714Y1257366D01*
Y1265830D01*
X3056598Y1267946D01*
Y1341446D02*
X3052366D01*
X3050250Y1339330D01*
Y1330866D01*
X3052366Y1328750D01*
X3056598D01*
X3058714Y1330866D01*
Y1339330D01*
X3056598Y1341446D01*
Y1351696D02*
X3052366D01*
X3050250Y1349580D01*
Y1341116D01*
X3052366Y1339000D01*
X3056598D01*
X3058714Y1341116D01*
Y1349580D01*
X3056598Y1351696D01*
Y1362196D02*
X3052366D01*
X3050250Y1360080D01*
Y1351616D01*
X3052366Y1349500D01*
X3056598D01*
X3058714Y1351616D01*
Y1360080D01*
X3056598Y1362196D01*
Y1371946D02*
X3052366D01*
X3050250Y1369830D01*
Y1361366D01*
X3052366Y1359250D01*
X3056598D01*
X3058714Y1361366D01*
Y1369830D01*
X3056598Y1371946D01*
Y1382946D02*
X3052366D01*
X3050250Y1380830D01*
Y1372366D01*
X3052366Y1370250D01*
X3056598D01*
X3058714Y1372366D01*
Y1380830D01*
X3056598Y1382946D01*
Y1394696D02*
X3052366D01*
X3050250Y1392580D01*
Y1384116D01*
X3052366Y1382000D01*
X3056598D01*
X3058714Y1384116D01*
Y1392580D01*
X3056598Y1394696D01*
Y1404946D02*
X3052366D01*
X3050250Y1402830D01*
Y1394366D01*
X3052366Y1392250D01*
X3056598D01*
X3058714Y1394366D01*
Y1402830D01*
X3056598Y1404946D01*
Y1414946D02*
X3052366D01*
X3050250Y1412830D01*
Y1404366D01*
X3052366Y1402250D01*
X3056598D01*
X3058714Y1404366D01*
Y1412830D01*
X3056598Y1414946D01*
X3068348Y1340946D02*
X3064116D01*
X3062000Y1338830D01*
Y1330366D01*
X3064116Y1328250D01*
X3068348D01*
X3070464Y1330366D01*
Y1338830D01*
X3068348Y1340946D01*
Y1351196D02*
X3064116D01*
X3062000Y1349080D01*
Y1340616D01*
X3064116Y1338500D01*
X3068348D01*
X3070464Y1340616D01*
Y1349080D01*
X3068348Y1351196D01*
Y1361696D02*
X3064116D01*
X3062000Y1359580D01*
Y1351116D01*
X3064116Y1349000D01*
X3068348D01*
X3070464Y1351116D01*
Y1359580D01*
X3068348Y1361696D01*
Y1371446D02*
X3064116D01*
X3062000Y1369330D01*
Y1360866D01*
X3064116Y1358750D01*
X3068348D01*
X3070464Y1360866D01*
Y1369330D01*
X3068348Y1371446D01*
Y1382446D02*
X3064116D01*
X3062000Y1380330D01*
Y1371866D01*
X3064116Y1369750D01*
X3068348D01*
X3070464Y1371866D01*
Y1380330D01*
X3068348Y1382446D01*
Y1394196D02*
X3064116D01*
X3062000Y1392080D01*
Y1383616D01*
X3064116Y1381500D01*
X3068348D01*
X3070464Y1383616D01*
Y1392080D01*
X3068348Y1394196D01*
Y1404446D02*
X3064116D01*
X3062000Y1402330D01*
Y1393866D01*
X3064116Y1391750D01*
X3068348D01*
X3070464Y1393866D01*
Y1402330D01*
X3068348Y1404446D01*
Y1414446D02*
X3064116D01*
X3062000Y1412330D01*
Y1403866D01*
X3064116Y1401750D01*
X3068348D01*
X3070464Y1403866D01*
Y1412330D01*
X3068348Y1414446D01*
X3044098Y1510696D02*
X3039866D01*
X3037750Y1508580D01*
Y1500116D01*
X3039866Y1498000D01*
X3044098D01*
X3046214Y1500116D01*
Y1508580D01*
X3044098Y1510696D01*
Y1500696D02*
X3039866D01*
X3037750Y1498580D01*
Y1490116D01*
X3039866Y1488000D01*
X3044098D01*
X3046214Y1490116D01*
Y1498580D01*
X3044098Y1500696D01*
Y1457946D02*
X3039866D01*
X3037750Y1455830D01*
Y1447366D01*
X3039866Y1445250D01*
X3044098D01*
X3046214Y1447366D01*
Y1455830D01*
X3044098Y1457946D01*
Y1490446D02*
X3039866D01*
X3037750Y1488330D01*
Y1479866D01*
X3039866Y1477750D01*
X3044098D01*
X3046214Y1479866D01*
Y1488330D01*
X3044098Y1490446D01*
Y1447446D02*
X3039866D01*
X3037750Y1445330D01*
Y1436866D01*
X3039866Y1434750D01*
X3044098D01*
X3046214Y1436866D01*
Y1445330D01*
X3044098Y1447446D01*
Y1467696D02*
X3039866D01*
X3037750Y1465580D01*
Y1457116D01*
X3039866Y1455000D01*
X3044098D01*
X3046214Y1457116D01*
Y1465580D01*
X3044098Y1467696D01*
Y1478696D02*
X3039866D01*
X3037750Y1476580D01*
Y1468116D01*
X3039866Y1466000D01*
X3044098D01*
X3046214Y1468116D01*
Y1476580D01*
X3044098Y1478696D01*
Y1437196D02*
X3039866D01*
X3037750Y1435080D01*
Y1426616D01*
X3039866Y1424500D01*
X3044098D01*
X3046214Y1426616D01*
Y1435080D01*
X3044098Y1437196D01*
X3061250Y1507196D02*
Y1494500D01*
X3069714D01*
X3181500Y524946D02*
Y512250D01*
X3189964D01*
X1097000Y94250D02*
Y106946D01*
X1101232Y102714D01*
X1105464Y106946D01*
Y94250D01*
X1021750Y172250D02*
Y184946D01*
X1025982Y180714D01*
X1030214Y184946D01*
Y172250D01*
X3000098Y2492446D02*
X2995866D01*
X2993750Y2490330D01*
Y2481866D01*
X2995866Y2479750D01*
X3000098D01*
X3002214Y2481866D01*
Y2490330D01*
X3000098Y2492446D01*
Y2502696D02*
X2995866D01*
X2993750Y2500580D01*
Y2492116D01*
X2995866Y2490000D01*
X3000098D01*
X3002214Y2492116D01*
Y2500580D01*
X3000098Y2502696D01*
Y2513196D02*
X2995866D01*
X2993750Y2511080D01*
Y2502616D01*
X2995866Y2500500D01*
X3000098D01*
X3002214Y2502616D01*
Y2511080D01*
X3000098Y2513196D01*
Y2522946D02*
X2995866D01*
X2993750Y2520830D01*
Y2512366D01*
X2995866Y2510250D01*
X3000098D01*
X3002214Y2512366D01*
Y2520830D01*
X3000098Y2522946D01*
Y2533946D02*
X2995866D01*
X2993750Y2531830D01*
Y2523366D01*
X2995866Y2521250D01*
X3000098D01*
X3002214Y2523366D01*
Y2531830D01*
X3000098Y2533946D01*
Y2545696D02*
X2995866D01*
X2993750Y2543580D01*
Y2535116D01*
X2995866Y2533000D01*
X3000098D01*
X3002214Y2535116D01*
Y2543580D01*
X3000098Y2545696D01*
Y2555946D02*
X2995866D01*
X2993750Y2553830D01*
Y2545366D01*
X2995866Y2543250D01*
X3000098D01*
X3002214Y2545366D01*
Y2553830D01*
X3000098Y2555946D01*
Y2565946D02*
X2995866D01*
X2993750Y2563830D01*
Y2555366D01*
X2995866Y2553250D01*
X3000098D01*
X3002214Y2555366D01*
Y2563830D01*
X3000098Y2565946D01*
Y2418946D02*
X2995866D01*
X2993750Y2416830D01*
Y2408366D01*
X2995866Y2406250D01*
X3000098D01*
X3002214Y2408366D01*
Y2416830D01*
X3000098Y2418946D01*
Y2429196D02*
X2995866D01*
X2993750Y2427080D01*
Y2418616D01*
X2995866Y2416500D01*
X3000098D01*
X3002214Y2418616D01*
Y2427080D01*
X3000098Y2429196D01*
Y2439696D02*
X2995866D01*
X2993750Y2437580D01*
Y2429116D01*
X2995866Y2427000D01*
X3000098D01*
X3002214Y2429116D01*
Y2437580D01*
X3000098Y2439696D01*
Y2449446D02*
X2995866D01*
X2993750Y2447330D01*
Y2438866D01*
X2995866Y2436750D01*
X3000098D01*
X3002214Y2438866D01*
Y2447330D01*
X3000098Y2449446D01*
Y2460446D02*
X2995866D01*
X2993750Y2458330D01*
Y2449866D01*
X2995866Y2447750D01*
X3000098D01*
X3002214Y2449866D01*
Y2458330D01*
X3000098Y2460446D01*
Y2472196D02*
X2995866D01*
X2993750Y2470080D01*
Y2461616D01*
X2995866Y2459500D01*
X3000098D01*
X3002214Y2461616D01*
Y2470080D01*
X3000098Y2472196D01*
Y2482446D02*
X2995866D01*
X2993750Y2480330D01*
Y2471866D01*
X2995866Y2469750D01*
X3000098D01*
X3002214Y2471866D01*
Y2480330D01*
X3000098Y2482446D01*
Y2345446D02*
X2995866D01*
X2993750Y2343330D01*
Y2334866D01*
X2995866Y2332750D01*
X3000098D01*
X3002214Y2334866D01*
Y2343330D01*
X3000098Y2345446D01*
Y2355696D02*
X2995866D01*
X2993750Y2353580D01*
Y2345116D01*
X2995866Y2343000D01*
X3000098D01*
X3002214Y2345116D01*
Y2353580D01*
X3000098Y2355696D01*
Y2366196D02*
X2995866D01*
X2993750Y2364080D01*
Y2355616D01*
X2995866Y2353500D01*
X3000098D01*
X3002214Y2355616D01*
Y2364080D01*
X3000098Y2366196D01*
Y2375946D02*
X2995866D01*
X2993750Y2373830D01*
Y2365366D01*
X2995866Y2363250D01*
X3000098D01*
X3002214Y2365366D01*
Y2373830D01*
X3000098Y2375946D01*
Y2386946D02*
X2995866D01*
X2993750Y2384830D01*
Y2376366D01*
X2995866Y2374250D01*
X3000098D01*
X3002214Y2376366D01*
Y2384830D01*
X3000098Y2386946D01*
Y2398696D02*
X2995866D01*
X2993750Y2396580D01*
Y2388116D01*
X2995866Y2386000D01*
X3000098D01*
X3002214Y2388116D01*
Y2396580D01*
X3000098Y2398696D01*
Y2408946D02*
X2995866D01*
X2993750Y2406830D01*
Y2398366D01*
X2995866Y2396250D01*
X3000098D01*
X3002214Y2398366D01*
Y2406830D01*
X3000098Y2408946D01*
X3003598Y2831946D02*
X2999366D01*
X2997250Y2829830D01*
Y2821366D01*
X2999366Y2819250D01*
X3003598D01*
X3005714Y2821366D01*
Y2829830D01*
X3003598Y2831946D01*
Y2842196D02*
X2999366D01*
X2997250Y2840080D01*
Y2831616D01*
X2999366Y2829500D01*
X3003598D01*
X3005714Y2831616D01*
Y2840080D01*
X3003598Y2842196D01*
Y2852696D02*
X2999366D01*
X2997250Y2850580D01*
Y2842116D01*
X2999366Y2840000D01*
X3003598D01*
X3005714Y2842116D01*
Y2850580D01*
X3003598Y2852696D01*
Y2862446D02*
X2999366D01*
X2997250Y2860330D01*
Y2851866D01*
X2999366Y2849750D01*
X3003598D01*
X3005714Y2851866D01*
Y2860330D01*
X3003598Y2862446D01*
Y2873446D02*
X2999366D01*
X2997250Y2871330D01*
Y2862866D01*
X2999366Y2860750D01*
X3003598D01*
X3005714Y2862866D01*
Y2871330D01*
X3003598Y2873446D01*
Y2885196D02*
X2999366D01*
X2997250Y2883080D01*
Y2874616D01*
X2999366Y2872500D01*
X3003598D01*
X3005714Y2874616D01*
Y2883080D01*
X3003598Y2885196D01*
Y2895446D02*
X2999366D01*
X2997250Y2893330D01*
Y2884866D01*
X2999366Y2882750D01*
X3003598D01*
X3005714Y2884866D01*
Y2893330D01*
X3003598Y2895446D01*
Y2905446D02*
X2999366D01*
X2997250Y2903330D01*
Y2894866D01*
X2999366Y2892750D01*
X3003598D01*
X3005714Y2894866D01*
Y2903330D01*
X3003598Y2905446D01*
Y2758446D02*
X2999366D01*
X2997250Y2756330D01*
Y2747866D01*
X2999366Y2745750D01*
X3003598D01*
X3005714Y2747866D01*
Y2756330D01*
X3003598Y2758446D01*
Y2768696D02*
X2999366D01*
X2997250Y2766580D01*
Y2758116D01*
X2999366Y2756000D01*
X3003598D01*
X3005714Y2758116D01*
Y2766580D01*
X3003598Y2768696D01*
Y2779196D02*
X2999366D01*
X2997250Y2777080D01*
Y2768616D01*
X2999366Y2766500D01*
X3003598D01*
X3005714Y2768616D01*
Y2777080D01*
X3003598Y2779196D01*
Y2788946D02*
X2999366D01*
X2997250Y2786830D01*
Y2778366D01*
X2999366Y2776250D01*
X3003598D01*
X3005714Y2778366D01*
Y2786830D01*
X3003598Y2788946D01*
Y2799946D02*
X2999366D01*
X2997250Y2797830D01*
Y2789366D01*
X2999366Y2787250D01*
X3003598D01*
X3005714Y2789366D01*
Y2797830D01*
X3003598Y2799946D01*
Y2811696D02*
X2999366D01*
X2997250Y2809580D01*
Y2801116D01*
X2999366Y2799000D01*
X3003598D01*
X3005714Y2801116D01*
Y2809580D01*
X3003598Y2811696D01*
Y2821946D02*
X2999366D01*
X2997250Y2819830D01*
Y2811366D01*
X2999366Y2809250D01*
X3003598D01*
X3005714Y2811366D01*
Y2819830D01*
X3003598Y2821946D01*
Y2684946D02*
X2999366D01*
X2997250Y2682830D01*
Y2674366D01*
X2999366Y2672250D01*
X3003598D01*
X3005714Y2674366D01*
Y2682830D01*
X3003598Y2684946D01*
Y2695196D02*
X2999366D01*
X2997250Y2693080D01*
Y2684616D01*
X2999366Y2682500D01*
X3003598D01*
X3005714Y2684616D01*
Y2693080D01*
X3003598Y2695196D01*
Y2705696D02*
X2999366D01*
X2997250Y2703580D01*
Y2695116D01*
X2999366Y2693000D01*
X3003598D01*
X3005714Y2695116D01*
Y2703580D01*
X3003598Y2705696D01*
Y2715446D02*
X2999366D01*
X2997250Y2713330D01*
Y2704866D01*
X2999366Y2702750D01*
X3003598D01*
X3005714Y2704866D01*
Y2713330D01*
X3003598Y2715446D01*
Y2726446D02*
X2999366D01*
X2997250Y2724330D01*
Y2715866D01*
X2999366Y2713750D01*
X3003598D01*
X3005714Y2715866D01*
Y2724330D01*
X3003598Y2726446D01*
Y2738196D02*
X2999366D01*
X2997250Y2736080D01*
Y2727616D01*
X2999366Y2725500D01*
X3003598D01*
X3005714Y2727616D01*
Y2736080D01*
X3003598Y2738196D01*
Y2748446D02*
X2999366D01*
X2997250Y2746330D01*
Y2737866D01*
X2999366Y2735750D01*
X3003598D01*
X3005714Y2737866D01*
Y2746330D01*
X3003598Y2748446D01*
X2999848Y3153696D02*
X2995616D01*
X2993500Y3151580D01*
Y3143116D01*
X2995616Y3141000D01*
X2999848D01*
X3001964Y3143116D01*
Y3151580D01*
X2999848Y3153696D01*
X2989598D02*
X2985366D01*
X2983250Y3151580D01*
Y3143116D01*
X2985366Y3141000D01*
X2989598D01*
X2991714Y3143116D01*
Y3151580D01*
X2989598Y3153696D01*
X2979098D02*
X2974866D01*
X2972750Y3151580D01*
Y3143116D01*
X2974866Y3141000D01*
X2979098D01*
X2981214Y3143116D01*
Y3151580D01*
X2979098Y3153696D01*
X2969348D02*
X2965116D01*
X2963000Y3151580D01*
Y3143116D01*
X2965116Y3141000D01*
X2969348D01*
X2971464Y3143116D01*
Y3151580D01*
X2969348Y3153696D01*
X2958348D02*
X2954116D01*
X2952000Y3151580D01*
Y3143116D01*
X2954116Y3141000D01*
X2958348D01*
X2960464Y3143116D01*
Y3151580D01*
X2958348Y3153696D01*
X3064348Y3100196D02*
X3060116D01*
X3058000Y3098080D01*
Y3089616D01*
X3060116Y3087500D01*
X3064348D01*
X3066464Y3089616D01*
Y3098080D01*
X3064348Y3100196D01*
X3011098D02*
X3006866D01*
X3004750Y3098080D01*
Y3089616D01*
X3006866Y3087500D01*
X3011098D01*
X3013214Y3089616D01*
Y3098080D01*
X3011098Y3100196D01*
X3033098D02*
X3028866D01*
X3026750Y3098080D01*
Y3089616D01*
X3028866Y3087500D01*
X3033098D01*
X3035214Y3089616D01*
Y3098080D01*
X3033098Y3100196D01*
X3053848D02*
X3049616D01*
X3047500Y3098080D01*
Y3089616D01*
X3049616Y3087500D01*
X3053848D01*
X3055964Y3089616D01*
Y3098080D01*
X3053848Y3100196D01*
X3001098D02*
X2996866D01*
X2994750Y3098080D01*
Y3089616D01*
X2996866Y3087500D01*
X3001098D01*
X3003214Y3089616D01*
Y3098080D01*
X3001098Y3100196D01*
X3021348D02*
X3017116D01*
X3015000Y3098080D01*
Y3089616D01*
X3017116Y3087500D01*
X3021348D01*
X3023464Y3089616D01*
Y3098080D01*
X3021348Y3100196D01*
X3044098D02*
X3039866D01*
X3037750Y3098080D01*
Y3089616D01*
X3039866Y3087500D01*
X3044098D01*
X3046214Y3089616D01*
Y3098080D01*
X3044098Y3100196D01*
X156348Y2376446D02*
X152116D01*
X150000Y2374330D01*
Y2365866D01*
X152116Y2363750D01*
X156348D01*
X158464Y2365866D01*
Y2374330D01*
X156348Y2376446D01*
X156598Y2567196D02*
X152366D01*
X150250Y2565080D01*
Y2556616D01*
X152366Y2554500D01*
X156598D01*
X158714Y2556616D01*
Y2565080D01*
X156598Y2567196D01*
X39848Y1752196D02*
X35616D01*
X33500Y1750080D01*
Y1741616D01*
X35616Y1739500D01*
X39848D01*
X41964Y1741616D01*
Y1750080D01*
X39848Y1752196D01*
X96313Y287246D02*
X92081D01*
X89965Y285130D01*
Y276667D01*
X92081Y274550D01*
X96313D01*
X98429Y276667D01*
Y285130D01*
X96313Y287246D01*
X158598Y224946D02*
X154366D01*
X152250Y222830D01*
Y214366D01*
X154366Y212250D01*
X158598D01*
X160714Y214366D01*
Y222830D01*
X158598Y224946D01*
X35098Y512196D02*
X30866D01*
X28750Y510080D01*
Y501616D01*
X30866Y499500D01*
X35098D01*
X37214Y501616D01*
Y510080D01*
X35098Y512196D01*
X45598Y2153946D02*
X41366D01*
X39250Y2151830D01*
Y2143366D01*
X41366Y2141250D01*
X45598D01*
X47714Y2143366D01*
Y2151830D01*
X45598Y2153946D01*
X38348Y1956446D02*
X34116D01*
X32000Y1954330D01*
Y1945866D01*
X34116Y1943750D01*
X38348D01*
X40464Y1945866D01*
Y1954330D01*
X38348Y1956446D01*
X39098Y1551196D02*
X34866D01*
X32750Y1549080D01*
Y1540616D01*
X34866Y1538500D01*
X39098D01*
X41214Y1540616D01*
Y1549080D01*
X39098Y1551196D01*
X34098Y1356696D02*
X29866D01*
X27750Y1354580D01*
Y1346116D01*
X29866Y1344000D01*
X34098D01*
X36214Y1346116D01*
Y1354580D01*
X34098Y1356696D01*
X96348Y612196D02*
X92116D01*
X90000Y610080D01*
Y601616D01*
X92116Y599500D01*
X96348D01*
X98464Y601616D01*
Y610080D01*
X96348Y612196D01*
Y1152946D02*
X92116D01*
X90000Y1150830D01*
Y1142366D01*
X92116Y1140250D01*
X96348D01*
X98464Y1142366D01*
Y1150830D01*
X96348Y1152946D01*
Y965446D02*
X92116D01*
X90000Y963330D01*
Y954866D01*
X92116Y952750D01*
X96348D01*
X98464Y954866D01*
Y963330D01*
X96348Y965446D01*
X1050750Y90750D02*
Y103446D01*
X1054982Y99214D01*
X1059214Y103446D01*
Y90750D01*
X1392098Y83446D02*
X1387866D01*
X1385750Y81330D01*
Y72866D01*
X1387866Y70750D01*
X1392098D01*
X1394214Y72866D01*
Y81330D01*
X1392098Y83446D01*
X1406348Y76446D02*
X1402116D01*
X1400000Y74330D01*
Y65866D01*
X1402116Y63750D01*
X1406348D01*
X1408464Y65866D01*
Y74330D01*
X1406348Y76446D01*
X939348Y75696D02*
X935116D01*
X933000Y73580D01*
Y65116D01*
X935116Y63000D01*
X939348D01*
X941464Y65116D01*
Y73580D01*
X939348Y75696D01*
X928598Y83196D02*
X924366D01*
X922250Y81080D01*
Y72616D01*
X924366Y70500D01*
X928598D01*
X930714Y72616D01*
Y81080D01*
X928598Y83196D01*
X1324000Y99000D02*
Y111696D01*
X1328232Y107464D01*
X1332464Y111696D01*
Y99000D01*
X3200750Y496196D02*
Y483500D01*
X3209214D01*
X3166750Y462500D02*
Y475196D01*
X3170982Y470964D01*
X3175214Y475196D01*
Y462500D01*
X35098Y952446D02*
X30866D01*
X28750Y950330D01*
Y941866D01*
X30866Y939750D01*
X35098D01*
X37214Y941866D01*
Y950330D01*
X35098Y952446D01*
X46638Y2188696D02*
X42406D01*
X40290Y2186580D01*
Y2178116D01*
X42406Y2176000D01*
X46638D01*
X48754Y2178116D01*
Y2186580D01*
X46638Y2188696D01*
X39888Y1988446D02*
X35656D01*
X33540Y1986330D01*
Y1977866D01*
X35656Y1975750D01*
X39888D01*
X42004Y1977866D01*
Y1986330D01*
X39888Y1988446D01*
X2906098Y2675446D02*
X2901866D01*
X2899750Y2673330D01*
Y2664866D01*
X2901866Y2662750D01*
X2906098D01*
X2908214Y2664866D01*
Y2673330D01*
X2906098Y2675446D01*
Y2665196D02*
X2901866D01*
X2899750Y2663080D01*
Y2654616D01*
X2901866Y2652500D01*
X2906098D01*
X2908214Y2654616D01*
Y2663080D01*
X2906098Y2665196D01*
Y2653446D02*
X2901866D01*
X2899750Y2651330D01*
Y2642866D01*
X2901866Y2640750D01*
X2906098D01*
X2908214Y2642866D01*
Y2651330D01*
X2906098Y2653446D01*
Y2642446D02*
X2901866D01*
X2899750Y2640330D01*
Y2631866D01*
X2901866Y2629750D01*
X2906098D01*
X2908214Y2631866D01*
Y2640330D01*
X2906098Y2642446D01*
Y2632696D02*
X2901866D01*
X2899750Y2630580D01*
Y2622116D01*
X2901866Y2620000D01*
X2906098D01*
X2908214Y2622116D01*
Y2630580D01*
X2906098Y2632696D01*
Y2622196D02*
X2901866D01*
X2899750Y2620080D01*
Y2611616D01*
X2901866Y2609500D01*
X2906098D01*
X2908214Y2611616D01*
Y2620080D01*
X2906098Y2622196D01*
Y2611946D02*
X2901866D01*
X2899750Y2609830D01*
Y2601366D01*
X2901866Y2599250D01*
X2906098D01*
X2908214Y2601366D01*
Y2609830D01*
X2906098Y2611946D01*
Y2748946D02*
X2901866D01*
X2899750Y2746830D01*
Y2738366D01*
X2901866Y2736250D01*
X2906098D01*
X2908214Y2738366D01*
Y2746830D01*
X2906098Y2748946D01*
Y2738696D02*
X2901866D01*
X2899750Y2736580D01*
Y2728116D01*
X2901866Y2726000D01*
X2906098D01*
X2908214Y2728116D01*
Y2736580D01*
X2906098Y2738696D01*
Y2726946D02*
X2901866D01*
X2899750Y2724830D01*
Y2716366D01*
X2901866Y2714250D01*
X2906098D01*
X2908214Y2716366D01*
Y2724830D01*
X2906098Y2726946D01*
Y2715946D02*
X2901866D01*
X2899750Y2713830D01*
Y2705366D01*
X2901866Y2703250D01*
X2906098D01*
X2908214Y2705366D01*
Y2713830D01*
X2906098Y2715946D01*
Y2706196D02*
X2901866D01*
X2899750Y2704080D01*
Y2695616D01*
X2901866Y2693500D01*
X2906098D01*
X2908214Y2695616D01*
Y2704080D01*
X2906098Y2706196D01*
Y2695696D02*
X2901866D01*
X2899750Y2693580D01*
Y2685116D01*
X2901866Y2683000D01*
X2906098D01*
X2908214Y2685116D01*
Y2693580D01*
X2906098Y2695696D01*
Y2685446D02*
X2901866D01*
X2899750Y2683330D01*
Y2674866D01*
X2901866Y2672750D01*
X2906098D01*
X2908214Y2674866D01*
Y2683330D01*
X2906098Y2685446D01*
Y2832446D02*
X2901866D01*
X2899750Y2830330D01*
Y2821866D01*
X2901866Y2819750D01*
X2906098D01*
X2908214Y2821866D01*
Y2830330D01*
X2906098Y2832446D01*
Y2822446D02*
X2901866D01*
X2899750Y2820330D01*
Y2811866D01*
X2901866Y2809750D01*
X2906098D01*
X2908214Y2811866D01*
Y2820330D01*
X2906098Y2822446D01*
Y2812196D02*
X2901866D01*
X2899750Y2810080D01*
Y2801616D01*
X2901866Y2799500D01*
X2906098D01*
X2908214Y2801616D01*
Y2810080D01*
X2906098Y2812196D01*
Y2800446D02*
X2901866D01*
X2899750Y2798330D01*
Y2789866D01*
X2901866Y2787750D01*
X2906098D01*
X2908214Y2789866D01*
Y2798330D01*
X2906098Y2800446D01*
Y2789446D02*
X2901866D01*
X2899750Y2787330D01*
Y2778866D01*
X2901866Y2776750D01*
X2906098D01*
X2908214Y2778866D01*
Y2787330D01*
X2906098Y2789446D01*
Y2779696D02*
X2901866D01*
X2899750Y2777580D01*
Y2769116D01*
X2901866Y2767000D01*
X2906098D01*
X2908214Y2769116D01*
Y2777580D01*
X2906098Y2779696D01*
Y2769196D02*
X2901866D01*
X2899750Y2767080D01*
Y2758616D01*
X2901866Y2756500D01*
X2906098D01*
X2908214Y2758616D01*
Y2767080D01*
X2906098Y2769196D01*
Y2758946D02*
X2901866D01*
X2899750Y2756830D01*
Y2748366D01*
X2901866Y2746250D01*
X2906098D01*
X2908214Y2748366D01*
Y2756830D01*
X2906098Y2758946D01*
X2873098Y3153696D02*
X2868866D01*
X2866750Y3151580D01*
Y3143116D01*
X2868866Y3141000D01*
X2873098D01*
X2875214Y3143116D01*
Y3151580D01*
X2873098Y3153696D01*
X2883098D02*
X2878866D01*
X2876750Y3151580D01*
Y3143116D01*
X2878866Y3141000D01*
X2883098D01*
X2885214Y3143116D01*
Y3151580D01*
X2883098Y3153696D01*
X2893348D02*
X2889116D01*
X2887000Y3151580D01*
Y3143116D01*
X2889116Y3141000D01*
X2893348D01*
X2895464Y3143116D01*
Y3151580D01*
X2893348Y3153696D01*
X2905098D02*
X2900866D01*
X2898750Y3151580D01*
Y3143116D01*
X2900866Y3141000D01*
X2905098D01*
X2907214Y3143116D01*
Y3151580D01*
X2905098Y3153696D01*
X2916098D02*
X2911866D01*
X2909750Y3151580D01*
Y3143116D01*
X2911866Y3141000D01*
X2916098D01*
X2918214Y3143116D01*
Y3151580D01*
X2916098Y3153696D01*
X2925848D02*
X2921616D01*
X2919500Y3151580D01*
Y3143116D01*
X2921616Y3141000D01*
X2925848D01*
X2927964Y3143116D01*
Y3151580D01*
X2925848Y3153696D01*
X2936348D02*
X2932116D01*
X2930000Y3151580D01*
Y3143116D01*
X2932116Y3141000D01*
X2936348D01*
X2938464Y3143116D01*
Y3151580D01*
X2936348Y3153696D01*
X3000598Y3113446D02*
X2996366D01*
X2994250Y3111330D01*
Y3102866D01*
X2996366Y3100750D01*
X3000598D01*
X3002714Y3102866D01*
Y3111330D01*
X3000598Y3113446D01*
X3010598D02*
X3006366D01*
X3004250Y3111330D01*
Y3102866D01*
X3006366Y3100750D01*
X3010598D01*
X3012714Y3102866D01*
Y3111330D01*
X3010598Y3113446D01*
X3020848D02*
X3016616D01*
X3014500Y3111330D01*
Y3102866D01*
X3016616Y3100750D01*
X3020848D01*
X3022964Y3102866D01*
Y3111330D01*
X3020848Y3113446D01*
X3032598D02*
X3028366D01*
X3026250Y3111330D01*
Y3102866D01*
X3028366Y3100750D01*
X3032598D01*
X3034714Y3102866D01*
Y3111330D01*
X3032598Y3113446D01*
X3043598D02*
X3039366D01*
X3037250Y3111330D01*
Y3102866D01*
X3039366Y3100750D01*
X3043598D01*
X3045714Y3102866D01*
Y3111330D01*
X3043598Y3113446D01*
X3053348D02*
X3049116D01*
X3047000Y3111330D01*
Y3102866D01*
X3049116Y3100750D01*
X3053348D01*
X3055464Y3102866D01*
Y3111330D01*
X3053348Y3113446D01*
X2831000Y1408946D02*
Y1396250D01*
X2839464D01*
X3129750Y490250D02*
Y502946D01*
X3133982Y498714D01*
X3138214Y502946D01*
Y490250D01*
X3129750Y579750D02*
Y592446D01*
X3133982Y588214D01*
X3138214Y592446D01*
Y579750D01*
X2927848Y1424946D02*
X2923616D01*
X2921500Y1422830D01*
Y1414366D01*
X2923616Y1412250D01*
X2927848D01*
X2929964Y1414366D01*
Y1422830D01*
X2927848Y1424946D01*
Y1414946D02*
X2923616D01*
X2921500Y1412830D01*
Y1404366D01*
X2923616Y1402250D01*
X2927848D01*
X2929964Y1404366D01*
Y1412830D01*
X2927848Y1414946D01*
Y1404696D02*
X2923616D01*
X2921500Y1402580D01*
Y1394116D01*
X2923616Y1392000D01*
X2927848D01*
X2929964Y1394116D01*
Y1402580D01*
X2927848Y1404696D01*
Y1392946D02*
X2923616D01*
X2921500Y1390830D01*
Y1382366D01*
X2923616Y1380250D01*
X2927848D01*
X2929964Y1382366D01*
Y1390830D01*
X2927848Y1392946D01*
Y1381946D02*
X2923616D01*
X2921500Y1379830D01*
Y1371366D01*
X2923616Y1369250D01*
X2927848D01*
X2929964Y1371366D01*
Y1379830D01*
X2927848Y1381946D01*
Y1372196D02*
X2923616D01*
X2921500Y1370080D01*
Y1361616D01*
X2923616Y1359500D01*
X2927848D01*
X2929964Y1361616D01*
Y1370080D01*
X2927848Y1372196D01*
Y1361696D02*
X2923616D01*
X2921500Y1359580D01*
Y1351116D01*
X2923616Y1349000D01*
X2927848D01*
X2929964Y1351116D01*
Y1359580D01*
X2927848Y1361696D01*
Y1351446D02*
X2923616D01*
X2921500Y1349330D01*
Y1340866D01*
X2923616Y1338750D01*
X2927848D01*
X2929964Y1340866D01*
Y1349330D01*
X2927848Y1351446D01*
X2916098Y1425446D02*
X2911866D01*
X2909750Y1423330D01*
Y1414866D01*
X2911866Y1412750D01*
X2916098D01*
X2918214Y1414866D01*
Y1423330D01*
X2916098Y1425446D01*
Y1415446D02*
X2911866D01*
X2909750Y1413330D01*
Y1404866D01*
X2911866Y1402750D01*
X2916098D01*
X2918214Y1404866D01*
Y1413330D01*
X2916098Y1415446D01*
Y1405196D02*
X2911866D01*
X2909750Y1403080D01*
Y1394616D01*
X2911866Y1392500D01*
X2916098D01*
X2918214Y1394616D01*
Y1403080D01*
X2916098Y1405196D01*
Y1393446D02*
X2911866D01*
X2909750Y1391330D01*
Y1382866D01*
X2911866Y1380750D01*
X2916098D01*
X2918214Y1382866D01*
Y1391330D01*
X2916098Y1393446D01*
Y1382446D02*
X2911866D01*
X2909750Y1380330D01*
Y1371866D01*
X2911866Y1369750D01*
X2916098D01*
X2918214Y1371866D01*
Y1380330D01*
X2916098Y1382446D01*
Y1372696D02*
X2911866D01*
X2909750Y1370580D01*
Y1362116D01*
X2911866Y1360000D01*
X2916098D01*
X2918214Y1362116D01*
Y1370580D01*
X2916098Y1372696D01*
Y1362196D02*
X2911866D01*
X2909750Y1360080D01*
Y1351616D01*
X2911866Y1349500D01*
X2916098D01*
X2918214Y1351616D01*
Y1360080D01*
X2916098Y1362196D01*
Y1351946D02*
X2911866D01*
X2909750Y1349830D01*
Y1341366D01*
X2911866Y1339250D01*
X2916098D01*
X2918214Y1341366D01*
Y1349830D01*
X2916098Y1351946D01*
X2918598Y1785446D02*
X2914366D01*
X2912250Y1783330D01*
Y1774866D01*
X2914366Y1772750D01*
X2918598D01*
X2920714Y1774866D01*
Y1783330D01*
X2918598Y1785446D01*
Y1775446D02*
X2914366D01*
X2912250Y1773330D01*
Y1764866D01*
X2914366Y1762750D01*
X2918598D01*
X2920714Y1764866D01*
Y1773330D01*
X2918598Y1775446D01*
Y1765196D02*
X2914366D01*
X2912250Y1763080D01*
Y1754616D01*
X2914366Y1752500D01*
X2918598D01*
X2920714Y1754616D01*
Y1763080D01*
X2918598Y1765196D01*
Y1753446D02*
X2914366D01*
X2912250Y1751330D01*
Y1742866D01*
X2914366Y1740750D01*
X2918598D01*
X2920714Y1742866D01*
Y1751330D01*
X2918598Y1753446D01*
Y1742446D02*
X2914366D01*
X2912250Y1740330D01*
Y1731866D01*
X2914366Y1729750D01*
X2918598D01*
X2920714Y1731866D01*
Y1740330D01*
X2918598Y1742446D01*
Y1732696D02*
X2914366D01*
X2912250Y1730580D01*
Y1722116D01*
X2914366Y1720000D01*
X2918598D01*
X2920714Y1722116D01*
Y1730580D01*
X2918598Y1732696D01*
Y1722196D02*
X2914366D01*
X2912250Y1720080D01*
Y1711616D01*
X2914366Y1709500D01*
X2918598D01*
X2920714Y1711616D01*
Y1720080D01*
X2918598Y1722196D01*
Y1711946D02*
X2914366D01*
X2912250Y1709830D01*
Y1701366D01*
X2914366Y1699250D01*
X2918598D01*
X2920714Y1701366D01*
Y1709830D01*
X2918598Y1711946D01*
X2908598Y1785446D02*
X2904366D01*
X2902250Y1783330D01*
Y1774866D01*
X2904366Y1772750D01*
X2908598D01*
X2910714Y1774866D01*
Y1783330D01*
X2908598Y1785446D01*
Y1775446D02*
X2904366D01*
X2902250Y1773330D01*
Y1764866D01*
X2904366Y1762750D01*
X2908598D01*
X2910714Y1764866D01*
Y1773330D01*
X2908598Y1775446D01*
Y1765196D02*
X2904366D01*
X2902250Y1763080D01*
Y1754616D01*
X2904366Y1752500D01*
X2908598D01*
X2910714Y1754616D01*
Y1763080D01*
X2908598Y1765196D01*
Y1753446D02*
X2904366D01*
X2902250Y1751330D01*
Y1742866D01*
X2904366Y1740750D01*
X2908598D01*
X2910714Y1742866D01*
Y1751330D01*
X2908598Y1753446D01*
Y1742446D02*
X2904366D01*
X2902250Y1740330D01*
Y1731866D01*
X2904366Y1729750D01*
X2908598D01*
X2910714Y1731866D01*
Y1740330D01*
X2908598Y1742446D01*
Y1732696D02*
X2904366D01*
X2902250Y1730580D01*
Y1722116D01*
X2904366Y1720000D01*
X2908598D01*
X2910714Y1722116D01*
Y1730580D01*
X2908598Y1732696D01*
Y1722196D02*
X2904366D01*
X2902250Y1720080D01*
Y1711616D01*
X2904366Y1709500D01*
X2908598D01*
X2910714Y1711616D01*
Y1720080D01*
X2908598Y1722196D01*
Y1711946D02*
X2904366D01*
X2902250Y1709830D01*
Y1701366D01*
X2904366Y1699250D01*
X2908598D01*
X2910714Y1701366D01*
Y1709830D01*
X2908598Y1711946D01*
X2941000Y1828696D02*
Y1816000D01*
X2949464D01*
X33638Y187696D02*
X29406D01*
X27290Y185580D01*
Y177116D01*
X29406Y175000D01*
X33638D01*
X35754Y177116D01*
Y185580D01*
X33638Y187696D01*
Y202696D02*
X29406D01*
X27290Y200580D01*
Y192116D01*
X29406Y190000D01*
X33638D01*
X35754Y192116D01*
Y200580D01*
X33638Y202696D01*
X41598Y212196D02*
X37366D01*
X35250Y210080D01*
Y201616D01*
X37366Y199500D01*
X41598D01*
X43714Y201616D01*
Y210080D01*
X41598Y212196D01*
X1718250Y2329250D02*
Y2341946D01*
X1722482Y2337714D01*
X1726714Y2341946D01*
Y2329250D01*
X1761750Y2326250D02*
Y2338946D01*
X1765982Y2334714D01*
X1770214Y2338946D01*
Y2326250D01*
X1735500Y2338500D02*
Y2351196D01*
X1739732Y2346964D01*
X1743964Y2351196D01*
Y2338500D01*
X1553000Y3128000D02*
Y3140696D01*
X1557232Y3136464D01*
X1561464Y3140696D01*
Y3128000D01*
X76848Y75446D02*
X72616D01*
X70500Y73330D01*
Y64866D01*
X72616Y62750D01*
X76848D01*
X78964Y64866D01*
Y73330D01*
X76848Y75446D01*
X93598Y56606D02*
X89366D01*
X87250Y54490D01*
Y46026D01*
X89366Y43910D01*
X93598D01*
X95714Y46026D01*
Y54490D01*
X93598Y56606D01*
X39138Y3099696D02*
X34906D01*
X32790Y3097580D01*
Y3089116D01*
X34906Y3087000D01*
X39138D01*
X41254Y3089116D01*
Y3097580D01*
X39138Y3099696D01*
X37348Y3112946D02*
X33116D01*
X31000Y3110830D01*
Y3102366D01*
X33116Y3100250D01*
X37348D01*
X39464Y3102366D01*
Y3110830D01*
X37348Y3112946D01*
X34348Y3122196D02*
X30116D01*
X28000Y3120080D01*
Y3111616D01*
X30116Y3109500D01*
X34348D01*
X36464Y3111616D01*
Y3120080D01*
X34348Y3122196D01*
X39620Y3137424D02*
X35388D01*
X33272Y3135308D01*
Y3126844D01*
X35388Y3124728D01*
X39620D01*
X41736Y3126844D01*
Y3135308D01*
X39620Y3137424D01*
X40216Y2388328D02*
X35984D01*
X33868Y2386212D01*
Y2377748D01*
X35984Y2375632D01*
X40216D01*
X42332Y2377748D01*
Y2386212D01*
X40216Y2388328D01*
X40098Y2577446D02*
X35866D01*
X33750Y2575330D01*
Y2566866D01*
X35866Y2564750D01*
X40098D01*
X42214Y2566866D01*
Y2575330D01*
X40098Y2577446D01*
X1130750Y389196D02*
Y376500D01*
X1139214D01*
X888750Y64750D02*
Y77446D01*
X892982Y73214D01*
X897214Y77446D01*
Y64750D01*
X40848Y1772446D02*
X36616D01*
X34500Y1770330D01*
Y1761866D01*
X36616Y1759750D01*
X40848D01*
X42964Y1761866D01*
Y1770330D01*
X40848Y1772446D01*
X67098Y84446D02*
X62866D01*
X60750Y82330D01*
Y73866D01*
X62866Y71750D01*
X67098D01*
X69214Y73866D01*
Y82330D01*
X67098Y84446D01*
X711348Y32946D02*
X707116D01*
X705000Y30830D01*
Y22366D01*
X707116Y20250D01*
X711348D01*
X713464Y22366D01*
Y30830D01*
X711348Y32946D01*
Y44959D02*
X707116D01*
X705000Y42843D01*
Y34379D01*
X707116Y32263D01*
X711348D01*
X713464Y34379D01*
Y42843D01*
X711348Y44959D01*
X866500Y65250D02*
Y77946D01*
X870732Y73714D01*
X874964Y77946D01*
Y65250D01*
X548750Y2646446D02*
Y2633750D01*
X557214D01*
X552750Y2688946D02*
Y2676250D01*
X561214D01*
X40348Y1575946D02*
X36116D01*
X34000Y1573830D01*
Y1565366D01*
X36116Y1563250D01*
X40348D01*
X42464Y1565366D01*
Y1573830D01*
X40348Y1575946D01*
X3002598Y836196D02*
X2998366D01*
X2996250Y834080D01*
Y825616D01*
X2998366Y823500D01*
X3002598D01*
X3004714Y825616D01*
Y834080D01*
X3002598Y836196D01*
X41098Y178946D02*
X36866D01*
X34750Y176830D01*
Y168366D01*
X36866Y166250D01*
X41098D01*
X43214Y168366D01*
Y176830D01*
X41098Y178946D01*
X2761500Y1817000D02*
Y1829696D01*
X2765732Y1825464D01*
X2769964Y1829696D01*
Y1817000D01*
X2762474Y1870323D02*
Y1883019D01*
X2766706Y1878787D01*
X2770938Y1883019D01*
Y1870323D01*
X1482000Y2747250D02*
Y2759946D01*
X1486232Y2755714D01*
X1490464Y2759946D01*
Y2747250D01*
X1482000Y2667500D02*
Y2680196D01*
X1486232Y2675964D01*
X1490464Y2680196D01*
Y2667500D01*
X1481000Y2703946D02*
Y2691250D01*
X1489464D01*
X1532000Y2549446D02*
Y2536750D01*
X1540464D01*
X1480250Y2564196D02*
Y2551500D01*
X1488714D01*
X1852750Y2334500D02*
Y2347196D01*
X1856982Y2342964D01*
X1861214Y2347196D01*
Y2334500D01*
X2797000Y93696D02*
Y81000D01*
X2805464D01*
X123500Y124446D02*
Y111750D01*
X131964D01*
X146000Y128446D02*
Y115750D01*
X154464D01*
X2928750Y575446D02*
Y562750D01*
X2937214D01*
X1234000Y86750D02*
Y99446D01*
X1238232Y95214D01*
X1242464Y99446D01*
Y86750D01*
X213250Y952250D02*
Y964946D01*
X217482Y960714D01*
X221714Y964946D01*
Y952250D01*
X233500Y940250D02*
Y952946D01*
X237732Y948714D01*
X241964Y952946D01*
Y940250D01*
X244104Y861146D02*
Y873842D01*
X248336Y869610D01*
X252568Y873842D01*
Y861146D01*
X272750Y836000D02*
Y848696D01*
X276982Y844464D01*
X281214Y848696D01*
Y836000D01*
X286500Y880750D02*
Y893446D01*
X290732Y889214D01*
X294964Y893446D01*
Y880750D01*
X235500Y817000D02*
Y829696D01*
X239732Y825464D01*
X243964Y829696D01*
Y817000D01*
X28058Y1163446D02*
X23826D01*
X21710Y1161330D01*
Y1152866D01*
X23826Y1150750D01*
X28058D01*
X30174Y1152866D01*
Y1161330D01*
X28058Y1163446D01*
X1103750Y389446D02*
Y376750D01*
X1112214D01*
X738250Y133446D02*
Y120750D01*
X746714D01*
X739250Y163946D02*
Y151250D01*
X747714D01*
X791500Y803000D02*
Y815696D01*
X795732Y811464D01*
X799964Y815696D01*
Y803000D01*
X806250Y802750D02*
Y815446D01*
X810482Y811214D01*
X814714Y815446D01*
Y802750D01*
X1210250Y158750D02*
Y171446D01*
X1214482Y167214D01*
X1218714Y171446D01*
Y158750D01*
X1337750Y159000D02*
Y171696D01*
X1341982Y167464D01*
X1346214Y171696D01*
Y159000D01*
X1251000Y199000D02*
Y211696D01*
X1255232Y207464D01*
X1259464Y211696D01*
Y199000D01*
X1181750Y88750D02*
Y101446D01*
X1185982Y97214D01*
X1190214Y101446D01*
Y88750D01*
X1285000Y171250D02*
Y183946D01*
X1289232Y179714D01*
X1293464Y183946D01*
Y171250D01*
X1331000Y220750D02*
Y233446D01*
X1335232Y229214D01*
X1339464Y233446D01*
Y220750D01*
X1312500Y191500D02*
Y204196D01*
X1316732Y199964D01*
X1320964Y204196D01*
Y191500D01*
X1312250Y267000D02*
Y279696D01*
X1316482Y275464D01*
X1320714Y279696D01*
Y267000D01*
X1326000Y494696D02*
Y482000D01*
X1334464D01*
X288000Y2325750D02*
Y2338446D01*
X292232Y2334214D01*
X296464Y2338446D01*
Y2325750D01*
X281250Y2130500D02*
Y2143196D01*
X285482Y2138964D01*
X289714Y2143196D01*
Y2130500D01*
X303500Y2325750D02*
Y2338446D01*
X307732Y2334214D01*
X311964Y2338446D01*
Y2325750D01*
X328750Y2186250D02*
Y2198946D01*
X332982Y2194714D01*
X337214Y2198946D01*
Y2186250D01*
X328750Y1984250D02*
Y1996946D01*
X332982Y1992714D01*
X337214Y1996946D01*
Y1984250D01*
X304750Y2127250D02*
Y2139946D01*
X308982Y2135714D01*
X313214Y2139946D01*
Y2127250D01*
X388000Y2888196D02*
Y2875500D01*
X396464D01*
X434000Y2925446D02*
Y2912750D01*
X442464D01*
X471500Y2925446D02*
Y2912750D01*
X479964D01*
X1217750Y3075866D02*
Y3063170D01*
X1226214D01*
X1239250Y3076196D02*
Y3063500D01*
X1247714D01*
X1261750Y3075696D02*
Y3063000D01*
X1270214D01*
X1481500Y2986696D02*
Y2974000D01*
X1489964D01*
X323500Y1328500D02*
Y1341196D01*
X327732Y1336964D01*
X331964Y1341196D01*
Y1328500D01*
X255750Y3027446D02*
Y3014750D01*
X264214D01*
X331000Y1191750D02*
Y1204446D01*
X335232Y1200214D01*
X339464Y1204446D01*
Y1191750D01*
X277500Y1328750D02*
Y1341446D01*
X281732Y1337214D01*
X285964Y1341446D01*
Y1328750D01*
X235500Y3027446D02*
Y3014750D01*
X243964D01*
X215250Y3027196D02*
Y3014500D01*
X223714D01*
X306500Y1188250D02*
Y1200946D01*
X310732Y1196714D01*
X314964Y1200946D01*
Y1188250D01*
X281250Y1732000D02*
Y1744696D01*
X285482Y1740464D01*
X289714Y1744696D01*
Y1732000D01*
X279250Y2531250D02*
Y2543946D01*
X283482Y2539714D01*
X287714Y2543946D01*
Y2531250D01*
X284000Y1131500D02*
Y1144196D01*
X288232Y1139964D01*
X292464Y1144196D01*
Y1131500D01*
X299000Y2530000D02*
Y2542696D01*
X303232Y2538464D01*
X307464Y2542696D01*
Y2530000D01*
X282000Y2382000D02*
Y2394696D01*
X286232Y2390464D01*
X290464Y2394696D01*
Y2382000D01*
X292750Y1574250D02*
Y1586946D01*
X296982Y1582714D01*
X301214Y1586946D01*
Y1574250D01*
X293250Y983500D02*
Y996196D01*
X297482Y991964D01*
X301714Y996196D01*
Y983500D01*
X328750Y1730750D02*
Y1743446D01*
X332982Y1739214D01*
X337214Y1743446D01*
Y1730750D01*
X318750Y2529250D02*
Y2541946D01*
X322982Y2537714D01*
X327214Y2541946D01*
Y2529250D01*
X329250Y1576500D02*
Y1589196D01*
X333482Y1584964D01*
X337714Y1589196D01*
Y1576500D01*
X330250Y1131000D02*
Y1143696D01*
X334482Y1139464D01*
X338714Y1143696D01*
Y1131000D01*
X331000Y983500D02*
Y996196D01*
X335232Y991964D01*
X339464Y996196D01*
Y983500D01*
X453000Y2925696D02*
Y2913000D01*
X461464D01*
X1478250Y2839696D02*
Y2827000D01*
X1486714D01*
X284500Y1781000D02*
Y1793696D01*
X288732Y1789464D01*
X292964Y1793696D01*
Y1781000D01*
X283000Y1377000D02*
Y1389696D01*
X287232Y1385464D01*
X291464Y1389696D01*
Y1377000D01*
X281871Y1925929D02*
Y1938625D01*
X286103Y1934393D01*
X290335Y1938625D01*
Y1925929D01*
X276716Y1513284D02*
Y1525980D01*
X280947Y1521748D01*
X285180Y1525980D01*
Y1513284D01*
X319000Y1928500D02*
Y1941196D01*
X323232Y1936964D01*
X327464Y1941196D01*
Y1928500D01*
X318500Y1782000D02*
Y1794696D01*
X322732Y1790464D01*
X326964Y1794696D01*
Y1782000D01*
X318000Y1513000D02*
Y1525696D01*
X322232Y1521464D01*
X326464Y1525696D01*
Y1513000D01*
X330000Y1377750D02*
Y1390446D01*
X334232Y1386214D01*
X338464Y1390446D01*
Y1377750D01*
X320250Y3029946D02*
Y3017250D01*
X328714D01*
X360000Y3029946D02*
Y3017250D01*
X368464D01*
X340250Y3030196D02*
Y3017500D01*
X348714D01*
X349750Y2888196D02*
Y2875500D01*
X358214D01*
X368750Y2888946D02*
Y2876250D01*
X377214D01*
X369250Y2801696D02*
Y2789000D01*
X377714D01*
X390000Y2801946D02*
Y2789250D01*
X398464D01*
X349250Y2802696D02*
Y2790000D01*
X357714D01*
X554000Y2829946D02*
Y2817250D01*
X562464D01*
X551940Y2868256D02*
Y2855560D01*
X560404D01*
X553500Y2907946D02*
Y2895250D01*
X561964D01*
X556000Y2948446D02*
Y2935750D01*
X564464D01*
X242540Y720500D02*
Y733196D01*
X246772Y728964D01*
X251004Y733196D01*
Y720500D01*
X554750Y2977696D02*
Y2965000D01*
X563214D01*
X556000Y3028446D02*
Y3015750D01*
X564464D01*
X557000Y2602446D02*
Y2589750D01*
X565464D01*
X290250Y632500D02*
Y645196D01*
X294482Y640964D01*
X298714Y645196D01*
Y632500D01*
X315250Y536000D02*
Y548696D01*
X319482Y544464D01*
X323714Y548696D01*
Y536000D01*
X324250Y744750D02*
Y757446D01*
X328482Y753214D01*
X332714Y757446D01*
Y744750D01*
X220026Y301526D02*
Y314221D01*
X224258Y309990D01*
X228490Y314221D01*
Y301526D01*
X253500Y536000D02*
Y548696D01*
X257732Y544464D01*
X261964Y548696D01*
Y536000D01*
X246500Y431250D02*
Y443946D01*
X250732Y439714D01*
X254964Y443946D01*
Y431250D01*
X251500Y516750D02*
Y529446D01*
X255732Y525214D01*
X259964Y529446D01*
Y516750D01*
X319500Y953250D02*
Y965946D01*
X323732Y961714D01*
X327964Y965946D01*
Y953250D01*
X248000Y601196D02*
Y588500D01*
X256464D01*
X279750Y419750D02*
Y432446D01*
X283982Y428214D01*
X288214Y432446D01*
Y419750D01*
X259250Y632250D02*
Y644946D01*
X263482Y640714D01*
X267714Y644946D01*
Y632250D01*
X236801Y404000D02*
Y416696D01*
X241033Y412464D01*
X245265Y416696D01*
Y404000D01*
X294250Y466500D02*
Y479196D01*
X298482Y474964D01*
X302714Y479196D01*
Y466500D01*
X241500Y294250D02*
Y306946D01*
X245732Y302714D01*
X249964Y306946D01*
Y294250D01*
X328770Y339230D02*
Y351926D01*
X333002Y347694D01*
X337234Y351926D01*
Y339230D01*
X314752Y168748D02*
Y181444D01*
X318984Y177212D01*
X323216Y181444D01*
Y168748D01*
X314750Y110750D02*
Y123446D01*
X318982Y119214D01*
X323214Y123446D01*
Y110750D01*
X273250Y165250D02*
Y177946D01*
X277482Y173714D01*
X281714Y177946D01*
Y165250D01*
X244000Y223500D02*
Y236196D01*
X248232Y231964D01*
X252464Y236196D01*
Y223500D01*
X225280Y177720D02*
Y190416D01*
X229512Y186184D01*
X233744Y190416D01*
Y177720D01*
X2743730Y2259926D02*
Y2247230D01*
X2752194D01*
X2744960Y2201986D02*
Y2189290D01*
X2753424D01*
X2743340Y2145356D02*
Y2132660D01*
X2751804D01*
X2742760Y2087686D02*
Y2074990D01*
X2751224D01*
X2787560Y1670885D02*
Y1658190D01*
X2796024D01*
X2713760Y1836206D02*
Y1823510D01*
X2722224D01*
X2779730Y1753426D02*
Y1740730D01*
X2788194D01*
X2903250Y769446D02*
Y756750D01*
X2911714D01*
X2834590Y1235286D02*
Y1222590D01*
X2843054D01*
X2858750Y693196D02*
Y680500D01*
X2867214D01*
X2924500Y607750D02*
Y620446D01*
X2928732Y616214D01*
X2932964Y620446D01*
Y607750D01*
X2861250Y513946D02*
Y501250D01*
X2869714D01*
X2839860Y994306D02*
Y981610D01*
X2848324D01*
X2810590Y1223090D02*
Y1235786D01*
X2814822Y1231554D01*
X2819054Y1235786D01*
Y1223090D01*
X2855750Y1139300D02*
Y1151996D01*
X2859982Y1147764D01*
X2864214Y1151996D01*
Y1139300D01*
X2786500Y1095750D02*
Y1108446D01*
X2790732Y1104214D01*
X2794964Y1108446D01*
Y1095750D01*
X2786500Y1185250D02*
Y1197946D01*
X2790732Y1193714D01*
X2794964Y1197946D01*
Y1185250D01*
X2792250Y492750D02*
Y505446D01*
X2796482Y501214D01*
X2800714Y505446D01*
Y492750D01*
X2792250Y410000D02*
Y422696D01*
X2796482Y418464D01*
X2800714Y422696D01*
Y410000D01*
X2789750Y671750D02*
Y684446D01*
X2793982Y680214D01*
X2798214Y684446D01*
Y671750D01*
X2789750Y599250D02*
Y611946D01*
X2793982Y607714D01*
X2798214Y611946D01*
Y599250D01*
X2815860Y982110D02*
Y994806D01*
X2820092Y990574D01*
X2824324Y994806D01*
Y982110D01*
X2864730Y922980D02*
Y935676D01*
X2868962Y931444D01*
X2873194Y935676D01*
Y922980D01*
X2739500Y938750D02*
Y951446D01*
X2743732Y947214D01*
X2747964Y951446D01*
Y938750D01*
X2726500Y848000D02*
Y860696D01*
X2730732Y856464D01*
X2734964Y860696D01*
Y848000D01*
X2784750Y941250D02*
Y953946D01*
X2788982Y949714D01*
X2793214Y953946D01*
Y941250D01*
X2784750Y850750D02*
Y863446D01*
X2788982Y859214D01*
X2793214Y863446D01*
Y850750D01*
X2074430Y936756D02*
Y924060D01*
X2082894D01*
X2074430Y948756D02*
Y936060D01*
X2082894D01*
X2074430Y959756D02*
Y947060D01*
X2082894D01*
X2062430Y959756D02*
Y947060D01*
X2070894D01*
X2051430Y959756D02*
Y947060D01*
X2059894D01*
X2062430Y936756D02*
Y924060D01*
X2070894D01*
X2050430Y936756D02*
Y924060D01*
X2058894D01*
X2050430Y948756D02*
Y936060D01*
X2058894D01*
X1933430Y946060D02*
Y958756D01*
X1937662Y954524D01*
X1941894Y958756D01*
Y946060D01*
X1923015Y944903D02*
Y957598D01*
X1927247Y953367D01*
X1931479Y957598D01*
Y944903D01*
X1916430Y937060D02*
Y949756D01*
X1920662Y945524D01*
X1924894Y949756D01*
Y937060D01*
X1918430Y927060D02*
Y939756D01*
X1922662Y935524D01*
X1926894Y939756D01*
Y927060D01*
X1928430Y924060D02*
Y936756D01*
X1932662Y932524D01*
X1936894Y936756D01*
Y924060D01*
X1937430Y929060D02*
Y941756D01*
X1941662Y937524D01*
X1945894Y941756D01*
Y929060D01*
X1939502Y938250D02*
Y950946D01*
X1943734Y946714D01*
X1947966Y950946D01*
Y938250D01*
X1732550Y959756D02*
Y947060D01*
X1741014D01*
X1732550Y947756D02*
Y935060D01*
X1741014D01*
X1732550Y936756D02*
Y924060D01*
X1741014D01*
X1744550Y936756D02*
Y924060D01*
X1753014D01*
X1755550Y936756D02*
Y924060D01*
X1764014D01*
X1744550Y959756D02*
Y947060D01*
X1753014D01*
X1756550Y959756D02*
Y947060D01*
X1765014D01*
X1756550Y947756D02*
Y935060D01*
X1765014D01*
X1873550Y925060D02*
Y937756D01*
X1877782Y933524D01*
X1882014Y937756D01*
Y925060D01*
X1883965Y926217D02*
Y938913D01*
X1888196Y934681D01*
X1892428Y938913D01*
Y926217D01*
X1890550Y934060D02*
Y946756D01*
X1894782Y942524D01*
X1899014Y946756D01*
Y934060D01*
X1888550Y944060D02*
Y956756D01*
X1892782Y952524D01*
X1897014Y956756D01*
Y944060D01*
X1878550Y947060D02*
Y959756D01*
X1882782Y955524D01*
X1887014Y959756D01*
Y947060D01*
X1869550Y942060D02*
Y954756D01*
X1873782Y950524D01*
X1878014Y954756D01*
Y942060D01*
X1867478Y932870D02*
Y945566D01*
X1871710Y941334D01*
X1875942Y945566D01*
Y932870D01*
X1708670Y937436D02*
Y924740D01*
X1717134D01*
X1708670Y949436D02*
Y936740D01*
X1717134D01*
X1708670Y960436D02*
Y947740D01*
X1717134D01*
X1696670Y960436D02*
Y947740D01*
X1705134D01*
X1685670Y960436D02*
Y947740D01*
X1694134D01*
X1696670Y937436D02*
Y924740D01*
X1705134D01*
X1684670Y937436D02*
Y924740D01*
X1693134D01*
X1684670Y949436D02*
Y936740D01*
X1693134D01*
X1567670Y946740D02*
Y959436D01*
X1571902Y955204D01*
X1576134Y959436D01*
Y946740D01*
X1557256Y945583D02*
Y958279D01*
X1561487Y954047D01*
X1565719Y958279D01*
Y945583D01*
X1550670Y937740D02*
Y950436D01*
X1554902Y946204D01*
X1559134Y950436D01*
Y937740D01*
X1552670Y927740D02*
Y940436D01*
X1556902Y936204D01*
X1561134Y940436D01*
Y927740D01*
X1562670Y924740D02*
Y937436D01*
X1566902Y933204D01*
X1571134Y937436D01*
Y924740D01*
X1571670Y929740D02*
Y942436D01*
X1575902Y938204D01*
X1580134Y942436D01*
Y929740D01*
X1573742Y938930D02*
Y951626D01*
X1577973Y947394D01*
X1582206Y951626D01*
Y938930D01*
D171*
X1339928Y1855840D02*
G03*
X1339928Y1855840I-3048J0D01*
G01*
Y1955840D02*
G03*
X1339928Y1955840I-3048J0D01*
G01*
X987668Y2141590D02*
G03*
X987668Y2141590I-3048J0D01*
G01*
Y2241590D02*
G03*
X987668Y2241590I-3048J0D01*
G01*
X1361988Y2222870D02*
G03*
X1361988Y2222870I-3048J0D01*
G01*
Y2322870D02*
G03*
X1361988Y2322870I-3048J0D01*
G01*
X880988Y1832180D02*
G03*
X880988Y1832180I-3048J0D01*
G01*
X980988D02*
G03*
X980988Y1832180I-3048J0D01*
G01*
D179*
X1341960Y1855840D02*
G03*
X1341960Y1855840I-5080J0D01*
G01*
Y1955840D02*
G03*
X1341960Y1955840I-5080J0D01*
G01*
X989700Y2141590D02*
G03*
X989700Y2141590I-5080J0D01*
G01*
Y2241590D02*
G03*
X989700Y2241590I-5080J0D01*
G01*
X1231470Y1692480D02*
G03*
X1231470Y1692480I-5080J0D01*
G01*
X1364020Y2222870D02*
G03*
X1364020Y2222870I-5080J0D01*
G01*
Y2322870D02*
G03*
X1364020Y2322870I-5080J0D01*
G01*
X883020Y1832180D02*
G03*
X883020Y1832180I-5080J0D01*
G01*
X983020D02*
G03*
X983020Y1832180I-5080J0D01*
G01*
X2040460Y2383360D02*
G03*
X2040460Y2383360I-5080J0D01*
G01*
X1691210Y244680D02*
G03*
X1691210Y244680I-5080J0D01*
G01*
X2751660Y220550D02*
G03*
X2751660Y220550I-5080J0D01*
G01*
M02*
