G04*
G04 #@! TF.GenerationSoftware,Altium Limited,Altium Designer,23.1.1 (15)*
G04*
G04 Layer_Color=8421504*
%FSAX44Y44*%
%MOMM*%
G71*
G04*
G04 #@! TF.SameCoordinates,9B1E6CB6-7F21-4D16-986F-FEEA4F8F1DB9*
G04*
G04*
G04 #@! TF.FilePolarity,Positive*
G04*
G01*
G75*
%ADD19C,0.2540*%
%ADD22C,0.2032*%
G04:AMPARAMS|DCode=30|XSize=1mm|YSize=0.7mm|CornerRadius=0.049mm|HoleSize=0mm|Usage=FLASHONLY|Rotation=0.000|XOffset=0mm|YOffset=0mm|HoleType=Round|Shape=RoundedRectangle|*
%AMROUNDEDRECTD30*
21,1,1.0000,0.6020,0,0,0.0*
21,1,0.9020,0.7000,0,0,0.0*
1,1,0.0980,0.4510,-0.3010*
1,1,0.0980,-0.4510,-0.3010*
1,1,0.0980,-0.4510,0.3010*
1,1,0.0980,0.4510,0.3010*
%
%ADD30ROUNDEDRECTD30*%
%ADD31R,1.2750X1.1750*%
%ADD32R,0.9500X1.0000*%
%ADD33R,1.0000X0.9500*%
%ADD34O,1.2500X0.5500*%
%ADD35R,1.4000X2.2000*%
%ADD36R,1.3000X1.8500*%
G04:AMPARAMS|DCode=37|XSize=0.6mm|YSize=1mm|CornerRadius=0.051mm|HoleSize=0mm|Usage=FLASHONLY|Rotation=180.000|XOffset=0mm|YOffset=0mm|HoleType=Round|Shape=RoundedRectangle|*
%AMROUNDEDRECTD37*
21,1,0.6000,0.8980,0,0,180.0*
21,1,0.4980,1.0000,0,0,180.0*
1,1,0.1020,-0.2490,0.4490*
1,1,0.1020,0.2490,0.4490*
1,1,0.1020,0.2490,-0.4490*
1,1,0.1020,-0.2490,-0.4490*
%
%ADD37ROUNDEDRECTD37*%
G04:AMPARAMS|DCode=38|XSize=0.7mm|YSize=0.7mm|CornerRadius=0.049mm|HoleSize=0mm|Usage=FLASHONLY|Rotation=0.000|XOffset=0mm|YOffset=0mm|HoleType=Round|Shape=RoundedRectangle|*
%AMROUNDEDRECTD38*
21,1,0.7000,0.6020,0,0,0.0*
21,1,0.6020,0.7000,0,0,0.0*
1,1,0.0980,0.3010,-0.3010*
1,1,0.0980,-0.3010,-0.3010*
1,1,0.0980,-0.3010,0.3010*
1,1,0.0980,0.3010,0.3010*
%
%ADD38ROUNDEDRECTD38*%
%ADD39O,1.4500X0.4000*%
G04:AMPARAMS|DCode=40|XSize=3.5mm|YSize=1.6mm|CornerRadius=0.048mm|HoleSize=0mm|Usage=FLASHONLY|Rotation=180.000|XOffset=0mm|YOffset=0mm|HoleType=Round|Shape=RoundedRectangle|*
%AMROUNDEDRECTD40*
21,1,3.5000,1.5040,0,0,180.0*
21,1,3.4040,1.6000,0,0,180.0*
1,1,0.0960,-1.7020,0.7520*
1,1,0.0960,1.7020,0.7520*
1,1,0.0960,1.7020,-0.7520*
1,1,0.0960,-1.7020,-0.7520*
%
%ADD40ROUNDEDRECTD40*%
G04:AMPARAMS|DCode=41|XSize=1.19mm|YSize=2.79mm|CornerRadius=0.0476mm|HoleSize=0mm|Usage=FLASHONLY|Rotation=180.000|XOffset=0mm|YOffset=0mm|HoleType=Round|Shape=RoundedRectangle|*
%AMROUNDEDRECTD41*
21,1,1.1900,2.6948,0,0,180.0*
21,1,1.0948,2.7900,0,0,180.0*
1,1,0.0952,-0.5474,1.3474*
1,1,0.0952,0.5474,1.3474*
1,1,0.0952,0.5474,-1.3474*
1,1,0.0952,-0.5474,-1.3474*
%
%ADD41ROUNDEDRECTD41*%
G04:AMPARAMS|DCode=42|XSize=0.75mm|YSize=0.9mm|CornerRadius=0.0488mm|HoleSize=0mm|Usage=FLASHONLY|Rotation=180.000|XOffset=0mm|YOffset=0mm|HoleType=Round|Shape=RoundedRectangle|*
%AMROUNDEDRECTD42*
21,1,0.7500,0.8025,0,0,180.0*
21,1,0.6525,0.9000,0,0,180.0*
1,1,0.0975,-0.3263,0.4013*
1,1,0.0975,0.3263,0.4013*
1,1,0.0975,0.3263,-0.4013*
1,1,0.0975,-0.3263,-0.4013*
%
%ADD42ROUNDEDRECTD42*%
G04:AMPARAMS|DCode=43|XSize=0.7581mm|YSize=0.8121mm|CornerRadius=0.0493mm|HoleSize=0mm|Usage=FLASHONLY|Rotation=270.000|XOffset=0mm|YOffset=0mm|HoleType=Round|Shape=RoundedRectangle|*
%AMROUNDEDRECTD43*
21,1,0.7581,0.7136,0,0,270.0*
21,1,0.6596,0.8121,0,0,270.0*
1,1,0.0986,-0.3568,-0.3298*
1,1,0.0986,-0.3568,0.3298*
1,1,0.0986,0.3568,0.3298*
1,1,0.0986,0.3568,-0.3298*
%
%ADD43ROUNDEDRECTD43*%
G04:AMPARAMS|DCode=44|XSize=0.6mm|YSize=1mm|CornerRadius=0.051mm|HoleSize=0mm|Usage=FLASHONLY|Rotation=270.000|XOffset=0mm|YOffset=0mm|HoleType=Round|Shape=RoundedRectangle|*
%AMROUNDEDRECTD44*
21,1,0.6000,0.8980,0,0,270.0*
21,1,0.4980,1.0000,0,0,270.0*
1,1,0.1020,-0.4490,-0.2490*
1,1,0.1020,-0.4490,0.2490*
1,1,0.1020,0.4490,0.2490*
1,1,0.1020,0.4490,-0.2490*
%
%ADD44ROUNDEDRECTD44*%
G04:AMPARAMS|DCode=45|XSize=3.25mm|YSize=3.43mm|CornerRadius=0.0488mm|HoleSize=0mm|Usage=FLASHONLY|Rotation=180.000|XOffset=0mm|YOffset=0mm|HoleType=Round|Shape=RoundedRectangle|*
%AMROUNDEDRECTD45*
21,1,3.2500,3.3325,0,0,180.0*
21,1,3.1525,3.4300,0,0,180.0*
1,1,0.0975,-1.5763,1.6663*
1,1,0.0975,1.5763,1.6663*
1,1,0.0975,1.5763,-1.6663*
1,1,0.0975,-1.5763,-1.6663*
%
%ADD45ROUNDEDRECTD45*%
%ADD46R,0.5000X2.7239*%
G04:AMPARAMS|DCode=47|XSize=1.02mm|YSize=1.905mm|CornerRadius=0.051mm|HoleSize=0mm|Usage=FLASHONLY|Rotation=180.000|XOffset=0mm|YOffset=0mm|HoleType=Round|Shape=RoundedRectangle|*
%AMROUNDEDRECTD47*
21,1,1.0200,1.8030,0,0,180.0*
21,1,0.9180,1.9050,0,0,180.0*
1,1,0.1020,-0.4590,0.9015*
1,1,0.1020,0.4590,0.9015*
1,1,0.1020,0.4590,-0.9015*
1,1,0.1020,-0.4590,-0.9015*
%
%ADD47ROUNDEDRECTD47*%
G04:AMPARAMS|DCode=48|XSize=0.9mm|YSize=1.7mm|CornerRadius=0.0495mm|HoleSize=0mm|Usage=FLASHONLY|Rotation=270.000|XOffset=0mm|YOffset=0mm|HoleType=Round|Shape=RoundedRectangle|*
%AMROUNDEDRECTD48*
21,1,0.9000,1.6010,0,0,270.0*
21,1,0.8010,1.7000,0,0,270.0*
1,1,0.0990,-0.8005,-0.4005*
1,1,0.0990,-0.8005,0.4005*
1,1,0.0990,0.8005,0.4005*
1,1,0.0990,0.8005,-0.4005*
%
%ADD48ROUNDEDRECTD48*%
G04:AMPARAMS|DCode=49|XSize=1.55mm|YSize=0.6mm|CornerRadius=0.051mm|HoleSize=0mm|Usage=FLASHONLY|Rotation=90.000|XOffset=0mm|YOffset=0mm|HoleType=Round|Shape=RoundedRectangle|*
%AMROUNDEDRECTD49*
21,1,1.5500,0.4980,0,0,90.0*
21,1,1.4480,0.6000,0,0,90.0*
1,1,0.1020,0.2490,0.7240*
1,1,0.1020,0.2490,-0.7240*
1,1,0.1020,-0.2490,-0.7240*
1,1,0.1020,-0.2490,0.7240*
%
%ADD49ROUNDEDRECTD49*%
%ADD50R,1.8500X1.3000*%
%ADD51O,1.4000X0.4500*%
G04:AMPARAMS|DCode=52|XSize=1.85mm|YSize=0.45mm|CornerRadius=0.0495mm|HoleSize=0mm|Usage=FLASHONLY|Rotation=0.000|XOffset=0mm|YOffset=0mm|HoleType=Round|Shape=RoundedRectangle|*
%AMROUNDEDRECTD52*
21,1,1.8500,0.3510,0,0,0.0*
21,1,1.7510,0.4500,0,0,0.0*
1,1,0.0990,0.8755,-0.1755*
1,1,0.0990,-0.8755,-0.1755*
1,1,0.0990,-0.8755,0.1755*
1,1,0.0990,0.8755,0.1755*
%
%ADD52ROUNDEDRECTD52*%
G04:AMPARAMS|DCode=53|XSize=1mm|YSize=1.2mm|CornerRadius=0.055mm|HoleSize=0mm|Usage=FLASHONLY|Rotation=90.000|XOffset=0mm|YOffset=0mm|HoleType=Round|Shape=RoundedRectangle|*
%AMROUNDEDRECTD53*
21,1,1.0000,1.0900,0,0,90.0*
21,1,0.8900,1.2000,0,0,90.0*
1,1,0.1100,0.5450,0.4450*
1,1,0.1100,0.5450,-0.4450*
1,1,0.1100,-0.5450,-0.4450*
1,1,0.1100,-0.5450,0.4450*
%
%ADD53ROUNDEDRECTD53*%
G04:AMPARAMS|DCode=54|XSize=0.7mm|YSize=0.7mm|CornerRadius=0.049mm|HoleSize=0mm|Usage=FLASHONLY|Rotation=90.000|XOffset=0mm|YOffset=0mm|HoleType=Round|Shape=RoundedRectangle|*
%AMROUNDEDRECTD54*
21,1,0.7000,0.6020,0,0,90.0*
21,1,0.6020,0.7000,0,0,90.0*
1,1,0.0980,0.3010,0.3010*
1,1,0.0980,0.3010,-0.3010*
1,1,0.0980,-0.3010,-0.3010*
1,1,0.0980,-0.3010,0.3010*
%
%ADD54ROUNDEDRECTD54*%
G04:AMPARAMS|DCode=55|XSize=0.75mm|YSize=0.9mm|CornerRadius=0.0488mm|HoleSize=0mm|Usage=FLASHONLY|Rotation=270.000|XOffset=0mm|YOffset=0mm|HoleType=Round|Shape=RoundedRectangle|*
%AMROUNDEDRECTD55*
21,1,0.7500,0.8025,0,0,270.0*
21,1,0.6525,0.9000,0,0,270.0*
1,1,0.0975,-0.4013,-0.3263*
1,1,0.0975,-0.4013,0.3263*
1,1,0.0975,0.4013,0.3263*
1,1,0.0975,0.4013,-0.3263*
%
%ADD55ROUNDEDRECTD55*%
G04:AMPARAMS|DCode=56|XSize=3.5mm|YSize=1.6mm|CornerRadius=0.048mm|HoleSize=0mm|Usage=FLASHONLY|Rotation=90.000|XOffset=0mm|YOffset=0mm|HoleType=Round|Shape=RoundedRectangle|*
%AMROUNDEDRECTD56*
21,1,3.5000,1.5040,0,0,90.0*
21,1,3.4040,1.6000,0,0,90.0*
1,1,0.0960,0.7520,1.7020*
1,1,0.0960,0.7520,-1.7020*
1,1,0.0960,-0.7520,-1.7020*
1,1,0.0960,-0.7520,1.7020*
%
%ADD56ROUNDEDRECTD56*%
G04:AMPARAMS|DCode=57|XSize=1.8mm|YSize=3.4mm|CornerRadius=0.054mm|HoleSize=0mm|Usage=FLASHONLY|Rotation=90.000|XOffset=0mm|YOffset=0mm|HoleType=Round|Shape=RoundedRectangle|*
%AMROUNDEDRECTD57*
21,1,1.8000,3.2920,0,0,90.0*
21,1,1.6920,3.4000,0,0,90.0*
1,1,0.1080,1.6460,0.8460*
1,1,0.1080,1.6460,-0.8460*
1,1,0.1080,-1.6460,-0.8460*
1,1,0.1080,-1.6460,0.8460*
%
%ADD57ROUNDEDRECTD57*%
G04:AMPARAMS|DCode=58|XSize=0.3mm|YSize=0.45mm|CornerRadius=0.0495mm|HoleSize=0mm|Usage=FLASHONLY|Rotation=90.000|XOffset=0mm|YOffset=0mm|HoleType=Round|Shape=RoundedRectangle|*
%AMROUNDEDRECTD58*
21,1,0.3000,0.3510,0,0,90.0*
21,1,0.2010,0.4500,0,0,90.0*
1,1,0.0990,0.1755,0.1005*
1,1,0.0990,0.1755,-0.1005*
1,1,0.0990,-0.1755,-0.1005*
1,1,0.0990,-0.1755,0.1005*
%
%ADD58ROUNDEDRECTD58*%
G04:AMPARAMS|DCode=59|XSize=0.45mm|YSize=0.3mm|CornerRadius=0.0495mm|HoleSize=0mm|Usage=FLASHONLY|Rotation=90.000|XOffset=0mm|YOffset=0mm|HoleType=Round|Shape=RoundedRectangle|*
%AMROUNDEDRECTD59*
21,1,0.4500,0.2010,0,0,90.0*
21,1,0.3510,0.3000,0,0,90.0*
1,1,0.0990,0.1005,0.1755*
1,1,0.0990,0.1005,-0.1755*
1,1,0.0990,-0.1005,-0.1755*
1,1,0.0990,-0.1005,0.1755*
%
%ADD59ROUNDEDRECTD59*%
%ADD60R,2.0000X2.0000*%
G04:AMPARAMS|DCode=61|XSize=1.55mm|YSize=0.6mm|CornerRadius=0.051mm|HoleSize=0mm|Usage=FLASHONLY|Rotation=180.000|XOffset=0mm|YOffset=0mm|HoleType=Round|Shape=RoundedRectangle|*
%AMROUNDEDRECTD61*
21,1,1.5500,0.4980,0,0,180.0*
21,1,1.4480,0.6000,0,0,180.0*
1,1,0.1020,-0.7240,0.2490*
1,1,0.1020,0.7240,0.2490*
1,1,0.1020,0.7240,-0.2490*
1,1,0.1020,-0.7240,-0.2490*
%
%ADD61ROUNDEDRECTD61*%
%ADD62R,1.6000X3.4000*%
G04:AMPARAMS|DCode=63|XSize=1mm|YSize=1.2mm|CornerRadius=0.055mm|HoleSize=0mm|Usage=FLASHONLY|Rotation=180.000|XOffset=0mm|YOffset=0mm|HoleType=Round|Shape=RoundedRectangle|*
%AMROUNDEDRECTD63*
21,1,1.0000,1.0900,0,0,180.0*
21,1,0.8900,1.2000,0,0,180.0*
1,1,0.1100,-0.4450,0.5450*
1,1,0.1100,0.4450,0.5450*
1,1,0.1100,0.4450,-0.5450*
1,1,0.1100,-0.4450,-0.5450*
%
%ADD63ROUNDEDRECTD63*%
%ADD64R,1.1000X1.6000*%
%ADD65R,1.2700X1.6002*%
G04:AMPARAMS|DCode=66|XSize=1.85mm|YSize=0.45mm|CornerRadius=0.0495mm|HoleSize=0mm|Usage=FLASHONLY|Rotation=90.000|XOffset=0mm|YOffset=0mm|HoleType=Round|Shape=RoundedRectangle|*
%AMROUNDEDRECTD66*
21,1,1.8500,0.3510,0,0,90.0*
21,1,1.7510,0.4500,0,0,90.0*
1,1,0.0990,0.1755,0.8755*
1,1,0.0990,0.1755,-0.8755*
1,1,0.0990,-0.1755,-0.8755*
1,1,0.0990,-0.1755,0.8755*
%
%ADD66ROUNDEDRECTD66*%
G04:AMPARAMS|DCode=67|XSize=0.65mm|YSize=1.6mm|CornerRadius=0.0488mm|HoleSize=0mm|Usage=FLASHONLY|Rotation=90.000|XOffset=0mm|YOffset=0mm|HoleType=Round|Shape=RoundedRectangle|*
%AMROUNDEDRECTD67*
21,1,0.6500,1.5025,0,0,90.0*
21,1,0.5525,1.6000,0,0,90.0*
1,1,0.0975,0.7512,0.2763*
1,1,0.0975,0.7512,-0.2763*
1,1,0.0975,-0.7512,-0.2763*
1,1,0.0975,-0.7512,0.2763*
%
%ADD67ROUNDEDRECTD67*%
G04:AMPARAMS|DCode=68|XSize=0.65mm|YSize=1.6mm|CornerRadius=0.0488mm|HoleSize=0mm|Usage=FLASHONLY|Rotation=0.000|XOffset=0mm|YOffset=0mm|HoleType=Round|Shape=RoundedRectangle|*
%AMROUNDEDRECTD68*
21,1,0.6500,1.5025,0,0,0.0*
21,1,0.5525,1.6000,0,0,0.0*
1,1,0.0975,0.2763,-0.7512*
1,1,0.0975,-0.2763,-0.7512*
1,1,0.0975,-0.2763,0.7512*
1,1,0.0975,0.2763,0.7512*
%
%ADD68ROUNDEDRECTD68*%
%ADD69R,0.9150X1.2200*%
%ADD70R,1.8900X1.2400*%
G04:AMPARAMS|DCode=71|XSize=2.1mm|YSize=0.6mm|CornerRadius=0.051mm|HoleSize=0mm|Usage=FLASHONLY|Rotation=180.000|XOffset=0mm|YOffset=0mm|HoleType=Round|Shape=RoundedRectangle|*
%AMROUNDEDRECTD71*
21,1,2.1000,0.4980,0,0,180.0*
21,1,1.9980,0.6000,0,0,180.0*
1,1,0.1020,-0.9990,0.2490*
1,1,0.1020,0.9990,0.2490*
1,1,0.1020,0.9990,-0.2490*
1,1,0.1020,-0.9990,-0.2490*
%
%ADD71ROUNDEDRECTD71*%
%ADD72R,0.6000X0.8000*%
%ADD73R,1.6002X1.2700*%
G04:AMPARAMS|DCode=74|XSize=0.4mm|YSize=0.5mm|CornerRadius=0.05mm|HoleSize=0mm|Usage=FLASHONLY|Rotation=90.000|XOffset=0mm|YOffset=0mm|HoleType=Round|Shape=RoundedRectangle|*
%AMROUNDEDRECTD74*
21,1,0.4000,0.4000,0,0,90.0*
21,1,0.3000,0.5000,0,0,90.0*
1,1,0.1000,0.2000,0.1500*
1,1,0.1000,0.2000,-0.1500*
1,1,0.1000,-0.2000,-0.1500*
1,1,0.1000,-0.2000,0.1500*
%
%ADD74ROUNDEDRECTD74*%
%ADD75O,0.6000X1.4500*%
G04:AMPARAMS|DCode=76|XSize=1.6mm|YSize=2.6mm|CornerRadius=0.048mm|HoleSize=0mm|Usage=FLASHONLY|Rotation=270.000|XOffset=0mm|YOffset=0mm|HoleType=Round|Shape=RoundedRectangle|*
%AMROUNDEDRECTD76*
21,1,1.6000,2.5040,0,0,270.0*
21,1,1.5040,2.6000,0,0,270.0*
1,1,0.0960,-1.2520,-0.7520*
1,1,0.0960,-1.2520,0.7520*
1,1,0.0960,1.2520,0.7520*
1,1,0.0960,1.2520,-0.7520*
%
%ADD76ROUNDEDRECTD76*%
%ADD77R,3.8100X2.7940*%
%ADD78R,2.7000X1.0000*%
G04:AMPARAMS|DCode=79|XSize=1.65mm|YSize=0.6mm|CornerRadius=0.051mm|HoleSize=0mm|Usage=FLASHONLY|Rotation=270.000|XOffset=0mm|YOffset=0mm|HoleType=Round|Shape=RoundedRectangle|*
%AMROUNDEDRECTD79*
21,1,1.6500,0.4980,0,0,270.0*
21,1,1.5480,0.6000,0,0,270.0*
1,1,0.1020,-0.2490,-0.7740*
1,1,0.1020,-0.2490,0.7740*
1,1,0.1020,0.2490,0.7740*
1,1,0.1020,0.2490,-0.7740*
%
%ADD79ROUNDEDRECTD79*%
G04:AMPARAMS|DCode=80|XSize=1.65mm|YSize=4.41mm|CornerRadius=0.0495mm|HoleSize=0mm|Usage=FLASHONLY|Rotation=270.000|XOffset=0mm|YOffset=0mm|HoleType=Round|Shape=RoundedRectangle|*
%AMROUNDEDRECTD80*
21,1,1.6500,4.3110,0,0,270.0*
21,1,1.5510,4.4100,0,0,270.0*
1,1,0.0990,-2.1555,-0.7755*
1,1,0.0990,-2.1555,0.7755*
1,1,0.0990,2.1555,0.7755*
1,1,0.0990,2.1555,-0.7755*
%
%ADD80ROUNDEDRECTD80*%
%ADD81R,3.0000X5.5000*%
G04:AMPARAMS|DCode=82|XSize=1.35mm|YSize=0.9mm|CornerRadius=0.0495mm|HoleSize=0mm|Usage=FLASHONLY|Rotation=270.000|XOffset=0mm|YOffset=0mm|HoleType=Round|Shape=RoundedRectangle|*
%AMROUNDEDRECTD82*
21,1,1.3500,0.8010,0,0,270.0*
21,1,1.2510,0.9000,0,0,270.0*
1,1,0.0990,-0.4005,-0.6255*
1,1,0.0990,-0.4005,0.6255*
1,1,0.0990,0.4005,0.6255*
1,1,0.0990,0.4005,-0.6255*
%
%ADD82ROUNDEDRECTD82*%
G04:AMPARAMS|DCode=83|XSize=0.9mm|YSize=1.3mm|CornerRadius=0.0495mm|HoleSize=0mm|Usage=FLASHONLY|Rotation=270.000|XOffset=0mm|YOffset=0mm|HoleType=Round|Shape=RoundedRectangle|*
%AMROUNDEDRECTD83*
21,1,0.9000,1.2010,0,0,270.0*
21,1,0.8010,1.3000,0,0,270.0*
1,1,0.0990,-0.6005,-0.4005*
1,1,0.0990,-0.6005,0.4005*
1,1,0.0990,0.6005,0.4005*
1,1,0.0990,0.6005,-0.4005*
%
%ADD83ROUNDEDRECTD83*%
G04:AMPARAMS|DCode=84|XSize=2.16mm|YSize=2.26mm|CornerRadius=0.054mm|HoleSize=0mm|Usage=FLASHONLY|Rotation=180.000|XOffset=0mm|YOffset=0mm|HoleType=Round|Shape=RoundedRectangle|*
%AMROUNDEDRECTD84*
21,1,2.1600,2.1520,0,0,180.0*
21,1,2.0520,2.2600,0,0,180.0*
1,1,0.1080,-1.0260,1.0760*
1,1,0.1080,1.0260,1.0760*
1,1,0.1080,1.0260,-1.0760*
1,1,0.1080,-1.0260,-1.0760*
%
%ADD84ROUNDEDRECTD84*%
G04:AMPARAMS|DCode=85|XSize=0.4mm|YSize=0.5mm|CornerRadius=0.05mm|HoleSize=0mm|Usage=FLASHONLY|Rotation=180.000|XOffset=0mm|YOffset=0mm|HoleType=Round|Shape=RoundedRectangle|*
%AMROUNDEDRECTD85*
21,1,0.4000,0.4000,0,0,180.0*
21,1,0.3000,0.5000,0,0,180.0*
1,1,0.1000,-0.1500,0.2000*
1,1,0.1000,0.1500,0.2000*
1,1,0.1000,0.1500,-0.2000*
1,1,0.1000,-0.1500,-0.2000*
%
%ADD85ROUNDEDRECTD85*%
G04:AMPARAMS|DCode=86|XSize=0.9mm|YSize=1.3mm|CornerRadius=0.0495mm|HoleSize=0mm|Usage=FLASHONLY|Rotation=180.000|XOffset=0mm|YOffset=0mm|HoleType=Round|Shape=RoundedRectangle|*
%AMROUNDEDRECTD86*
21,1,0.9000,1.2010,0,0,180.0*
21,1,0.8010,1.3000,0,0,180.0*
1,1,0.0990,-0.4005,0.6005*
1,1,0.0990,0.4005,0.6005*
1,1,0.0990,0.4005,-0.6005*
1,1,0.0990,-0.4005,-0.6005*
%
%ADD86ROUNDEDRECTD86*%
G04:AMPARAMS|DCode=87|XSize=1.35mm|YSize=0.9mm|CornerRadius=0.0495mm|HoleSize=0mm|Usage=FLASHONLY|Rotation=180.000|XOffset=0mm|YOffset=0mm|HoleType=Round|Shape=RoundedRectangle|*
%AMROUNDEDRECTD87*
21,1,1.3500,0.8010,0,0,180.0*
21,1,1.2510,0.9000,0,0,180.0*
1,1,0.0990,-0.6255,0.4005*
1,1,0.0990,0.6255,0.4005*
1,1,0.0990,0.6255,-0.4005*
1,1,0.0990,-0.6255,-0.4005*
%
%ADD87ROUNDEDRECTD87*%
%ADD88C,1.0000*%
G36*
X02969055Y02712281D02*
X02969196Y02712140D01*
X02969272Y02711956D01*
Y02711857D01*
Y02708857D01*
Y02708757D01*
X02969196Y02708574D01*
X02969055Y02708433D01*
X02968871Y02708357D01*
X02966172D01*
X02965989Y02708433D01*
X02965848Y02708574D01*
X02965772Y02708757D01*
Y02708857D01*
Y02711857D01*
Y02711956D01*
X02965848Y02712140D01*
X02965989Y02712281D01*
X02966172Y02712357D01*
X02968871D01*
X02969055Y02712281D01*
D02*
G37*
G36*
X02963055D02*
X02963196Y02712140D01*
X02963272Y02711956D01*
Y02711857D01*
X02963272D01*
X02963272Y02708857D01*
Y02708757D01*
X02963196Y02708574D01*
X02963055Y02708433D01*
X02962871Y02708357D01*
X02960172D01*
X02959989Y02708433D01*
X02959848Y02708574D01*
X02959772Y02708757D01*
Y02708857D01*
Y02711857D01*
Y02711956D01*
X02959848Y02712140D01*
X02959989Y02712281D01*
X02960172Y02712357D01*
X02962871D01*
X02963055Y02712281D01*
D02*
G37*
G36*
X02956155D02*
X02956296Y02712140D01*
X02956372Y02711956D01*
Y02711857D01*
Y02708857D01*
Y02708757D01*
X02956296Y02708574D01*
X02956155Y02708433D01*
X02955971Y02708357D01*
X02950772D01*
X02950589Y02708433D01*
X02950448Y02708574D01*
X02950372Y02708757D01*
Y02708857D01*
Y02711857D01*
Y02711956D01*
X02950448Y02712140D01*
X02950589Y02712281D01*
X02950772Y02712357D01*
X02955971D01*
X02956155Y02712281D01*
D02*
G37*
G36*
X02839755Y02711781D02*
X02839896Y02711640D01*
X02839972Y02711456D01*
Y02711357D01*
Y02708357D01*
Y02708257D01*
X02839896Y02708074D01*
X02839755Y02707933D01*
X02839572Y02707857D01*
X02834373D01*
X02834189Y02707933D01*
X02834048Y02708074D01*
X02833972Y02708257D01*
Y02708357D01*
Y02711357D01*
Y02711456D01*
X02834048Y02711640D01*
X02834189Y02711781D01*
X02834373Y02711857D01*
X02839572D01*
X02839755Y02711781D01*
D02*
G37*
G36*
X02830355D02*
X02830496Y02711640D01*
X02830572Y02711456D01*
Y02711357D01*
Y02708357D01*
Y02708257D01*
X02830496Y02708074D01*
X02830355Y02707933D01*
X02830172Y02707857D01*
X02827473D01*
X02827289Y02707933D01*
X02827148Y02708074D01*
X02827072Y02708257D01*
Y02708357D01*
X02827072D01*
X02827072Y02711357D01*
Y02711456D01*
X02827148Y02711640D01*
X02827289Y02711781D01*
X02827473Y02711857D01*
X02830172D01*
X02830355Y02711781D01*
D02*
G37*
G36*
X02824355D02*
X02824496Y02711640D01*
X02824572Y02711456D01*
Y02711357D01*
Y02708357D01*
Y02708257D01*
X02824496Y02708074D01*
X02824355Y02707933D01*
X02824171Y02707857D01*
X02821472D01*
X02821289Y02707933D01*
X02821148Y02708074D01*
X02821072Y02708257D01*
Y02708357D01*
Y02711357D01*
Y02711456D01*
X02821148Y02711640D01*
X02821289Y02711781D01*
X02821472Y02711857D01*
X02824171D01*
X02824355Y02711781D01*
D02*
G37*
G36*
X02458305Y02666731D02*
X02458446Y02666590D01*
X02458522Y02666406D01*
Y02666307D01*
Y02661307D01*
Y02661207D01*
X02458446Y02661024D01*
X02458305Y02660883D01*
X02458121Y02660807D01*
X02454922D01*
X02454739Y02660883D01*
X02454598Y02661024D01*
X02454522Y02661207D01*
Y02661307D01*
Y02666307D01*
Y02666406D01*
X02454598Y02666590D01*
X02454739Y02666731D01*
X02454922Y02666807D01*
X02458121D01*
X02458305Y02666731D01*
D02*
G37*
G36*
Y02657331D02*
X02458446Y02657190D01*
X02458522Y02657006D01*
Y02656907D01*
Y02654407D01*
Y02654307D01*
X02458446Y02654124D01*
X02458305Y02653983D01*
X02458121Y02653907D01*
X02458022D01*
Y02653907D01*
X02455022Y02653907D01*
X02454922D01*
X02454739Y02653983D01*
X02454598Y02654124D01*
X02454522Y02654307D01*
Y02654407D01*
Y02656907D01*
Y02657006D01*
X02454598Y02657190D01*
X02454739Y02657331D01*
X02454922Y02657407D01*
X02458121D01*
X02458305Y02657331D01*
D02*
G37*
G36*
Y02651331D02*
X02458446Y02651190D01*
X02458522Y02651006D01*
Y02650907D01*
Y02648407D01*
Y02648307D01*
X02458446Y02648123D01*
X02458305Y02647983D01*
X02458121Y02647907D01*
X02454922D01*
X02454739Y02647983D01*
X02454598Y02648123D01*
X02454522Y02648307D01*
Y02648407D01*
Y02650907D01*
Y02651006D01*
X02454598Y02651190D01*
X02454739Y02651331D01*
X02454922Y02651407D01*
X02458121D01*
X02458305Y02651331D01*
D02*
G37*
G36*
X01401255Y02592231D02*
X01401396Y02592090D01*
X01401472Y02591906D01*
Y02591807D01*
Y02585807D01*
Y02585707D01*
X01401396Y02585524D01*
X01401255Y02585383D01*
X01401071Y02585307D01*
X01398972D01*
X01398789Y02585383D01*
X01398648Y02585524D01*
X01398572Y02585707D01*
Y02585807D01*
Y02591807D01*
Y02591906D01*
X01398648Y02592090D01*
X01398789Y02592231D01*
X01398972Y02592307D01*
X01401071D01*
X01401255Y02592231D01*
D02*
G37*
G36*
X01394355Y02592281D02*
X01394496Y02592140D01*
X01394572Y02591956D01*
Y02591857D01*
Y02583857D01*
Y02583757D01*
X01394496Y02583574D01*
X01394355Y02583433D01*
X01394171Y02583357D01*
X01386373D01*
X01386189Y02583433D01*
X01386048Y02583574D01*
X01385972Y02583757D01*
Y02583857D01*
Y02591857D01*
Y02591956D01*
X01386048Y02592140D01*
X01386189Y02592281D01*
X01386373Y02592357D01*
X01394171D01*
X01394355Y02592281D01*
D02*
G37*
G36*
X02825255Y02567281D02*
X02825396Y02567140D01*
X02825472Y02566956D01*
Y02566857D01*
Y02563857D01*
Y02563757D01*
X02825396Y02563574D01*
X02825255Y02563433D01*
X02825071Y02563357D01*
X02822372D01*
X02822189Y02563433D01*
X02822048Y02563574D01*
X02821972Y02563757D01*
Y02563857D01*
Y02566857D01*
Y02566956D01*
X02822048Y02567140D01*
X02822189Y02567281D01*
X02822372Y02567357D01*
X02825071D01*
X02825255Y02567281D01*
D02*
G37*
G36*
X02819255D02*
X02819396Y02567140D01*
X02819472Y02566956D01*
Y02566857D01*
X02819472D01*
X02819472Y02563857D01*
Y02563757D01*
X02819396Y02563574D01*
X02819255Y02563433D01*
X02819071Y02563357D01*
X02816372D01*
X02816189Y02563433D01*
X02816048Y02563574D01*
X02815972Y02563757D01*
Y02563857D01*
Y02566857D01*
Y02566956D01*
X02816048Y02567140D01*
X02816189Y02567281D01*
X02816372Y02567357D01*
X02819071D01*
X02819255Y02567281D01*
D02*
G37*
G36*
X02812355D02*
X02812496Y02567140D01*
X02812572Y02566956D01*
Y02566857D01*
Y02563857D01*
Y02563757D01*
X02812496Y02563574D01*
X02812355Y02563433D01*
X02812171Y02563357D01*
X02806972D01*
X02806789Y02563433D01*
X02806648Y02563574D01*
X02806572Y02563757D01*
Y02563857D01*
Y02566857D01*
Y02566956D01*
X02806648Y02567140D01*
X02806789Y02567281D01*
X02806972Y02567357D01*
X02812171D01*
X02812355Y02567281D01*
D02*
G37*
G36*
X02492305Y02553731D02*
X02492446Y02553590D01*
X02492522Y02553406D01*
Y02553307D01*
Y02548307D01*
Y02548207D01*
X02492446Y02548024D01*
X02492305Y02547883D01*
X02492121Y02547807D01*
X02488922D01*
X02488739Y02547883D01*
X02488598Y02548024D01*
X02488522Y02548207D01*
Y02548307D01*
Y02553307D01*
Y02553406D01*
X02488598Y02553590D01*
X02488739Y02553731D01*
X02488922Y02553807D01*
X02492121D01*
X02492305Y02553731D01*
D02*
G37*
G36*
Y02544331D02*
X02492446Y02544190D01*
X02492522Y02544006D01*
Y02543907D01*
Y02541407D01*
Y02541307D01*
X02492446Y02541124D01*
X02492305Y02540983D01*
X02492121Y02540907D01*
X02492022D01*
Y02540907D01*
X02489022Y02540907D01*
X02488922D01*
X02488739Y02540983D01*
X02488598Y02541124D01*
X02488522Y02541307D01*
Y02541407D01*
Y02543907D01*
Y02544006D01*
X02488598Y02544190D01*
X02488739Y02544331D01*
X02488922Y02544407D01*
X02492121D01*
X02492305Y02544331D01*
D02*
G37*
G36*
Y02538331D02*
X02492446Y02538190D01*
X02492522Y02538006D01*
Y02537907D01*
Y02535407D01*
Y02535307D01*
X02492446Y02535124D01*
X02492305Y02534983D01*
X02492121Y02534907D01*
X02488922D01*
X02488739Y02534983D01*
X02488598Y02535124D01*
X02488522Y02535307D01*
Y02535407D01*
Y02537907D01*
Y02538006D01*
X02488598Y02538190D01*
X02488739Y02538331D01*
X02488922Y02538407D01*
X02492121D01*
X02492305Y02538331D01*
D02*
G37*
G36*
X02221305Y02457731D02*
X02221446Y02457590D01*
X02221522Y02457406D01*
Y02457307D01*
Y02454807D01*
Y02454707D01*
X02221446Y02454524D01*
X02221305Y02454383D01*
X02221121Y02454307D01*
X02217923D01*
X02217739Y02454383D01*
X02217598Y02454524D01*
X02217522Y02454707D01*
Y02454807D01*
Y02457307D01*
Y02457406D01*
X02217598Y02457590D01*
X02217739Y02457731D01*
X02217923Y02457807D01*
X02221121D01*
X02221305Y02457731D01*
D02*
G37*
G36*
X02221022Y02451807D02*
X02221121D01*
X02221305Y02451731D01*
X02221446Y02451590D01*
X02221522Y02451406D01*
Y02451307D01*
Y02448807D01*
Y02448707D01*
X02221446Y02448524D01*
X02221305Y02448383D01*
X02221121Y02448307D01*
X02217923D01*
X02217739Y02448383D01*
X02217598Y02448524D01*
X02217522Y02448707D01*
Y02448807D01*
Y02451307D01*
Y02451406D01*
X02217598Y02451590D01*
X02217739Y02451731D01*
X02217923Y02451807D01*
X02218022D01*
Y02451807D01*
X02221022Y02451807D01*
D02*
G37*
G36*
X02221305Y02444831D02*
X02221446Y02444690D01*
X02221522Y02444506D01*
Y02444407D01*
Y02439407D01*
Y02439307D01*
X02221446Y02439124D01*
X02221305Y02438983D01*
X02221121Y02438907D01*
X02217923D01*
X02217739Y02438983D01*
X02217598Y02439124D01*
X02217522Y02439307D01*
Y02439407D01*
Y02444407D01*
Y02444506D01*
X02217598Y02444690D01*
X02217739Y02444831D01*
X02217923Y02444907D01*
X02221121D01*
X02221305Y02444831D01*
D02*
G37*
G36*
X01777755Y02442281D02*
X01777896Y02442140D01*
X01777972Y02441956D01*
Y02441857D01*
Y02438857D01*
Y02438757D01*
X01777896Y02438574D01*
X01777755Y02438433D01*
X01777571Y02438357D01*
X01774872D01*
X01774689Y02438433D01*
X01774548Y02438574D01*
X01774472Y02438757D01*
Y02438857D01*
Y02441857D01*
Y02441956D01*
X01774548Y02442140D01*
X01774689Y02442281D01*
X01774872Y02442357D01*
X01777571D01*
X01777755Y02442281D01*
D02*
G37*
G36*
X01771755D02*
X01771896Y02442140D01*
X01771972Y02441956D01*
Y02441857D01*
X01771972D01*
X01771972Y02438857D01*
Y02438757D01*
X01771896Y02438574D01*
X01771755Y02438433D01*
X01771571Y02438357D01*
X01768873D01*
X01768689Y02438433D01*
X01768548Y02438574D01*
X01768472Y02438757D01*
Y02438857D01*
Y02441857D01*
Y02441956D01*
X01768548Y02442140D01*
X01768689Y02442281D01*
X01768873Y02442357D01*
X01771571D01*
X01771755Y02442281D01*
D02*
G37*
G36*
X01764855D02*
X01764996Y02442140D01*
X01765072Y02441956D01*
Y02441857D01*
Y02438857D01*
Y02438757D01*
X01764996Y02438574D01*
X01764855Y02438433D01*
X01764671Y02438357D01*
X01759473D01*
X01759289Y02438433D01*
X01759148Y02438574D01*
X01759072Y02438757D01*
Y02438857D01*
Y02441857D01*
Y02441956D01*
X01759148Y02442140D01*
X01759289Y02442281D01*
X01759473Y02442357D01*
X01764671D01*
X01764855Y02442281D01*
D02*
G37*
G36*
X01986305Y02362481D02*
X01986446Y02362340D01*
X01986522Y02362156D01*
Y02362057D01*
Y02357057D01*
Y02356957D01*
X01986446Y02356774D01*
X01986305Y02356633D01*
X01986122Y02356557D01*
X01982923D01*
X01982739Y02356633D01*
X01982598Y02356774D01*
X01982522Y02356957D01*
Y02357057D01*
Y02362057D01*
Y02362156D01*
X01982598Y02362340D01*
X01982739Y02362481D01*
X01982923Y02362557D01*
X01986122D01*
X01986305Y02362481D01*
D02*
G37*
G36*
Y02353081D02*
X01986446Y02352940D01*
X01986522Y02352756D01*
Y02352657D01*
Y02350157D01*
Y02350057D01*
X01986446Y02349874D01*
X01986305Y02349733D01*
X01986122Y02349657D01*
X01986022D01*
Y02349657D01*
X01983022Y02349657D01*
X01982923D01*
X01982739Y02349733D01*
X01982598Y02349874D01*
X01982522Y02350057D01*
Y02350157D01*
Y02352657D01*
Y02352756D01*
X01982598Y02352940D01*
X01982739Y02353081D01*
X01982923Y02353157D01*
X01986122D01*
X01986305Y02353081D01*
D02*
G37*
G36*
X01908305Y02349731D02*
X01908446Y02349590D01*
X01908522Y02349406D01*
Y02349307D01*
Y02346807D01*
Y02346707D01*
X01908446Y02346524D01*
X01908305Y02346383D01*
X01908121Y02346307D01*
X01904922D01*
X01904739Y02346383D01*
X01904598Y02346524D01*
X01904522Y02346707D01*
Y02346807D01*
Y02349307D01*
Y02349406D01*
X01904598Y02349590D01*
X01904739Y02349731D01*
X01904922Y02349807D01*
X01908121D01*
X01908305Y02349731D01*
D02*
G37*
G36*
X01986305Y02347081D02*
X01986446Y02346940D01*
X01986522Y02346756D01*
Y02346657D01*
Y02344157D01*
Y02344057D01*
X01986446Y02343874D01*
X01986305Y02343733D01*
X01986122Y02343657D01*
X01982923D01*
X01982739Y02343733D01*
X01982598Y02343874D01*
X01982522Y02344057D01*
Y02344157D01*
Y02346657D01*
Y02346756D01*
X01982598Y02346940D01*
X01982739Y02347081D01*
X01982923Y02347157D01*
X01986122D01*
X01986305Y02347081D01*
D02*
G37*
G36*
X01908022Y02343807D02*
X01908121D01*
X01908305Y02343731D01*
X01908446Y02343590D01*
X01908522Y02343406D01*
Y02343307D01*
Y02340807D01*
Y02340707D01*
X01908446Y02340524D01*
X01908305Y02340383D01*
X01908121Y02340307D01*
X01904922D01*
X01904739Y02340383D01*
X01904598Y02340524D01*
X01904522Y02340707D01*
Y02340807D01*
Y02343307D01*
Y02343406D01*
X01904598Y02343590D01*
X01904739Y02343731D01*
X01904922Y02343807D01*
X01905022D01*
Y02343807D01*
X01908022Y02343807D01*
D02*
G37*
G36*
X01908305Y02336831D02*
X01908446Y02336690D01*
X01908522Y02336506D01*
Y02336407D01*
Y02331407D01*
Y02331307D01*
X01908446Y02331124D01*
X01908305Y02330983D01*
X01908121Y02330907D01*
X01904922D01*
X01904739Y02330983D01*
X01904598Y02331124D01*
X01904522Y02331307D01*
Y02331407D01*
Y02336407D01*
Y02336506D01*
X01904598Y02336690D01*
X01904739Y02336831D01*
X01904922Y02336907D01*
X01908121D01*
X01908305Y02336831D01*
D02*
G37*
G36*
X01740305Y02316731D02*
X01740446Y02316590D01*
X01740522Y02316406D01*
Y02316307D01*
Y02311307D01*
Y02311207D01*
X01740446Y02311024D01*
X01740305Y02310883D01*
X01740121Y02310807D01*
X01736922D01*
X01736739Y02310883D01*
X01736598Y02311024D01*
X01736522Y02311207D01*
Y02311307D01*
Y02316307D01*
Y02316406D01*
X01736598Y02316590D01*
X01736739Y02316731D01*
X01736922Y02316807D01*
X01740121D01*
X01740305Y02316731D01*
D02*
G37*
G36*
Y02307331D02*
X01740446Y02307190D01*
X01740522Y02307006D01*
Y02306907D01*
Y02304407D01*
Y02304308D01*
X01740446Y02304124D01*
X01740305Y02303983D01*
X01740121Y02303907D01*
X01740022D01*
Y02303907D01*
X01737022Y02303907D01*
X01736922D01*
X01736739Y02303983D01*
X01736598Y02304124D01*
X01736522Y02304308D01*
Y02304407D01*
Y02306907D01*
Y02307006D01*
X01736598Y02307190D01*
X01736739Y02307331D01*
X01736922Y02307407D01*
X01740121D01*
X01740305Y02307331D01*
D02*
G37*
G36*
Y02301331D02*
X01740446Y02301190D01*
X01740522Y02301006D01*
Y02300907D01*
Y02298407D01*
Y02298307D01*
X01740446Y02298124D01*
X01740305Y02297983D01*
X01740121Y02297907D01*
X01736922D01*
X01736739Y02297983D01*
X01736598Y02298124D01*
X01736522Y02298307D01*
Y02298407D01*
Y02300907D01*
Y02301006D01*
X01736598Y02301190D01*
X01736739Y02301331D01*
X01736922Y02301407D01*
X01740121D01*
X01740305Y02301331D01*
D02*
G37*
G36*
X01385765Y02203881D02*
X01385906Y02203740D01*
X01385982Y02203556D01*
Y02203457D01*
Y02198957D01*
Y02198857D01*
X01385906Y02198674D01*
X01385765Y02198533D01*
X01385581Y02198457D01*
X01371382D01*
X01371199Y02198533D01*
X01371058Y02198674D01*
X01370982Y02198857D01*
Y02198957D01*
Y02203457D01*
Y02203556D01*
X01371058Y02203740D01*
X01371199Y02203881D01*
X01371382Y02203957D01*
X01385581D01*
X01385765Y02203881D01*
D02*
G37*
G36*
X01331765D02*
X01331906Y02203740D01*
X01331982Y02203556D01*
Y02203457D01*
Y02198957D01*
Y02198857D01*
X01331906Y02198674D01*
X01331765Y02198533D01*
X01331581Y02198457D01*
X01317383D01*
X01317199Y02198533D01*
X01317058Y02198674D01*
X01316982Y02198857D01*
Y02198957D01*
Y02203457D01*
Y02203556D01*
X01317058Y02203740D01*
X01317199Y02203881D01*
X01317383Y02203957D01*
X01331581D01*
X01331765Y02203881D01*
D02*
G37*
G36*
X01657338Y02200001D02*
X01657479Y02199860D01*
X01657555Y02199676D01*
Y02199577D01*
Y02195077D01*
Y02194977D01*
X01657479Y02194794D01*
X01657338Y02194653D01*
X01657154Y02194577D01*
X01642955D01*
X01642772Y02194653D01*
X01642631Y02194794D01*
X01642555Y02194977D01*
Y02195077D01*
Y02199577D01*
Y02199676D01*
X01642631Y02199860D01*
X01642772Y02200001D01*
X01642955Y02200077D01*
X01657154D01*
X01657338Y02200001D01*
D02*
G37*
G36*
X01603338D02*
X01603479Y02199860D01*
X01603555Y02199676D01*
Y02199577D01*
Y02195077D01*
Y02194977D01*
X01603479Y02194794D01*
X01603338Y02194653D01*
X01603154Y02194577D01*
X01588955D01*
X01588772Y02194653D01*
X01588631Y02194794D01*
X01588555Y02194977D01*
Y02195077D01*
Y02199577D01*
Y02199676D01*
X01588631Y02199860D01*
X01588772Y02200001D01*
X01588955Y02200077D01*
X01603154D01*
X01603338Y02200001D01*
D02*
G37*
G36*
X01385765Y02191181D02*
X01385906Y02191040D01*
X01385982Y02190856D01*
Y02190757D01*
Y02186257D01*
Y02186157D01*
X01385906Y02185974D01*
X01385765Y02185833D01*
X01385581Y02185757D01*
X01371382D01*
X01371199Y02185833D01*
X01371058Y02185974D01*
X01370982Y02186157D01*
Y02186257D01*
Y02190757D01*
Y02190856D01*
X01371058Y02191040D01*
X01371199Y02191181D01*
X01371382Y02191257D01*
X01385581D01*
X01385765Y02191181D01*
D02*
G37*
G36*
X01331765D02*
X01331906Y02191040D01*
X01331982Y02190856D01*
Y02190757D01*
Y02186257D01*
Y02186157D01*
X01331906Y02185974D01*
X01331765Y02185833D01*
X01331581Y02185757D01*
X01317383D01*
X01317199Y02185833D01*
X01317058Y02185974D01*
X01316982Y02186157D01*
Y02186257D01*
Y02190757D01*
Y02190856D01*
X01317058Y02191040D01*
X01317199Y02191181D01*
X01317383Y02191257D01*
X01331581D01*
X01331765Y02191181D01*
D02*
G37*
G36*
X01657338Y02187301D02*
X01657479Y02187160D01*
X01657555Y02186976D01*
Y02186877D01*
Y02182377D01*
Y02182277D01*
X01657479Y02182094D01*
X01657338Y02181953D01*
X01657154Y02181877D01*
X01642955D01*
X01642772Y02181953D01*
X01642631Y02182094D01*
X01642555Y02182277D01*
Y02182377D01*
Y02186877D01*
Y02186976D01*
X01642631Y02187160D01*
X01642772Y02187301D01*
X01642955Y02187377D01*
X01657154D01*
X01657338Y02187301D01*
D02*
G37*
G36*
X01603338D02*
X01603479Y02187160D01*
X01603555Y02186976D01*
Y02186877D01*
Y02182377D01*
Y02182277D01*
X01603479Y02182094D01*
X01603338Y02181953D01*
X01603154Y02181877D01*
X01588955D01*
X01588772Y02181953D01*
X01588631Y02182094D01*
X01588555Y02182277D01*
Y02182377D01*
Y02186877D01*
Y02186976D01*
X01588631Y02187160D01*
X01588772Y02187301D01*
X01588955Y02187377D01*
X01603154D01*
X01603338Y02187301D01*
D02*
G37*
G36*
X01385765Y02178481D02*
X01385906Y02178340D01*
X01385982Y02178156D01*
Y02178057D01*
Y02173557D01*
Y02173457D01*
X01385906Y02173274D01*
X01385765Y02173133D01*
X01385581Y02173057D01*
X01371382D01*
X01371199Y02173133D01*
X01371058Y02173274D01*
X01370982Y02173457D01*
Y02173557D01*
Y02178057D01*
Y02178156D01*
X01371058Y02178340D01*
X01371199Y02178481D01*
X01371382Y02178557D01*
X01385581D01*
X01385765Y02178481D01*
D02*
G37*
G36*
X01331765D02*
X01331906Y02178340D01*
X01331982Y02178156D01*
Y02178057D01*
Y02173557D01*
Y02173457D01*
X01331906Y02173274D01*
X01331765Y02173133D01*
X01331581Y02173057D01*
X01317383D01*
X01317199Y02173133D01*
X01317058Y02173274D01*
X01316982Y02173457D01*
Y02173557D01*
Y02178057D01*
Y02178156D01*
X01317058Y02178340D01*
X01317199Y02178481D01*
X01317383Y02178557D01*
X01331581D01*
X01331765Y02178481D01*
D02*
G37*
G36*
X01657338Y02174601D02*
X01657479Y02174460D01*
X01657555Y02174276D01*
Y02174177D01*
Y02169677D01*
Y02169577D01*
X01657479Y02169394D01*
X01657338Y02169253D01*
X01657154Y02169177D01*
X01642955D01*
X01642772Y02169253D01*
X01642631Y02169394D01*
X01642555Y02169577D01*
Y02169677D01*
Y02174177D01*
Y02174276D01*
X01642631Y02174460D01*
X01642772Y02174601D01*
X01642955Y02174677D01*
X01657154D01*
X01657338Y02174601D01*
D02*
G37*
G36*
X01603338D02*
X01603479Y02174460D01*
X01603555Y02174276D01*
Y02174177D01*
Y02169677D01*
Y02169577D01*
X01603479Y02169394D01*
X01603338Y02169253D01*
X01603154Y02169177D01*
X01588955D01*
X01588772Y02169253D01*
X01588631Y02169394D01*
X01588555Y02169577D01*
Y02169677D01*
Y02174177D01*
Y02174276D01*
X01588631Y02174460D01*
X01588772Y02174601D01*
X01588955Y02174677D01*
X01603154D01*
X01603338Y02174601D01*
D02*
G37*
G36*
X01385765Y02165781D02*
X01385906Y02165640D01*
X01385982Y02165456D01*
Y02165357D01*
Y02160857D01*
Y02160757D01*
X01385906Y02160574D01*
X01385765Y02160433D01*
X01385581Y02160357D01*
X01371382D01*
X01371199Y02160433D01*
X01371058Y02160574D01*
X01370982Y02160757D01*
Y02160857D01*
Y02165357D01*
Y02165456D01*
X01371058Y02165640D01*
X01371199Y02165781D01*
X01371382Y02165857D01*
X01385581D01*
X01385765Y02165781D01*
D02*
G37*
G36*
X01331765D02*
X01331906Y02165640D01*
X01331982Y02165456D01*
Y02165357D01*
Y02160857D01*
Y02160757D01*
X01331906Y02160574D01*
X01331765Y02160433D01*
X01331581Y02160357D01*
X01317383D01*
X01317199Y02160433D01*
X01317058Y02160574D01*
X01316982Y02160757D01*
Y02160857D01*
Y02165357D01*
Y02165456D01*
X01317058Y02165640D01*
X01317199Y02165781D01*
X01317383Y02165857D01*
X01331581D01*
X01331765Y02165781D01*
D02*
G37*
G36*
X01657338Y02161901D02*
X01657479Y02161760D01*
X01657555Y02161576D01*
Y02161477D01*
Y02156977D01*
Y02156877D01*
X01657479Y02156694D01*
X01657338Y02156553D01*
X01657154Y02156477D01*
X01642955D01*
X01642772Y02156553D01*
X01642631Y02156694D01*
X01642555Y02156877D01*
Y02156977D01*
Y02161477D01*
Y02161576D01*
X01642631Y02161760D01*
X01642772Y02161901D01*
X01642955Y02161977D01*
X01657154D01*
X01657338Y02161901D01*
D02*
G37*
G36*
X01603338D02*
X01603479Y02161760D01*
X01603555Y02161576D01*
Y02161477D01*
Y02156977D01*
Y02156877D01*
X01603479Y02156694D01*
X01603338Y02156553D01*
X01603154Y02156477D01*
X01588955D01*
X01588772Y02156553D01*
X01588631Y02156694D01*
X01588555Y02156877D01*
Y02156977D01*
Y02161477D01*
Y02161576D01*
X01588631Y02161760D01*
X01588772Y02161901D01*
X01588955Y02161977D01*
X01603154D01*
X01603338Y02161901D01*
D02*
G37*
G36*
X01385765Y02153081D02*
X01385906Y02152940D01*
X01385982Y02152756D01*
Y02152657D01*
Y02148157D01*
Y02148057D01*
X01385906Y02147874D01*
X01385765Y02147733D01*
X01385581Y02147657D01*
X01371382D01*
X01371199Y02147733D01*
X01371058Y02147874D01*
X01370982Y02148057D01*
Y02148157D01*
Y02152657D01*
Y02152756D01*
X01371058Y02152940D01*
X01371199Y02153081D01*
X01371382Y02153157D01*
X01385581D01*
X01385765Y02153081D01*
D02*
G37*
G36*
X01331765D02*
X01331906Y02152940D01*
X01331982Y02152756D01*
Y02152657D01*
Y02148157D01*
Y02148057D01*
X01331906Y02147874D01*
X01331765Y02147733D01*
X01331581Y02147657D01*
X01317383D01*
X01317199Y02147733D01*
X01317058Y02147874D01*
X01316982Y02148057D01*
Y02148157D01*
Y02152657D01*
Y02152756D01*
X01317058Y02152940D01*
X01317199Y02153081D01*
X01317383Y02153157D01*
X01331581D01*
X01331765Y02153081D01*
D02*
G37*
G36*
X01657338Y02149201D02*
X01657479Y02149060D01*
X01657555Y02148876D01*
Y02148777D01*
Y02144277D01*
Y02144177D01*
X01657479Y02143994D01*
X01657338Y02143853D01*
X01657154Y02143777D01*
X01642955D01*
X01642772Y02143853D01*
X01642631Y02143994D01*
X01642555Y02144177D01*
Y02144277D01*
Y02148777D01*
Y02148876D01*
X01642631Y02149060D01*
X01642772Y02149201D01*
X01642955Y02149277D01*
X01657154D01*
X01657338Y02149201D01*
D02*
G37*
G36*
X01603338D02*
X01603479Y02149060D01*
X01603555Y02148876D01*
Y02148777D01*
Y02144277D01*
Y02144177D01*
X01603479Y02143994D01*
X01603338Y02143853D01*
X01603154Y02143777D01*
X01588955D01*
X01588772Y02143853D01*
X01588631Y02143994D01*
X01588555Y02144177D01*
Y02144277D01*
Y02148777D01*
Y02148876D01*
X01588631Y02149060D01*
X01588772Y02149201D01*
X01588955Y02149277D01*
X01603154D01*
X01603338Y02149201D01*
D02*
G37*
G36*
X01385765Y02140381D02*
X01385906Y02140240D01*
X01385982Y02140056D01*
Y02139957D01*
Y02135457D01*
Y02135357D01*
X01385906Y02135174D01*
X01385765Y02135033D01*
X01385581Y02134957D01*
X01371382D01*
X01371199Y02135033D01*
X01371058Y02135174D01*
X01370982Y02135357D01*
Y02135457D01*
Y02139957D01*
Y02140056D01*
X01371058Y02140240D01*
X01371199Y02140381D01*
X01371382Y02140457D01*
X01385581D01*
X01385765Y02140381D01*
D02*
G37*
G36*
X01331765D02*
X01331906Y02140240D01*
X01331982Y02140056D01*
Y02139957D01*
Y02135457D01*
Y02135357D01*
X01331906Y02135174D01*
X01331765Y02135033D01*
X01331581Y02134957D01*
X01317383D01*
X01317199Y02135033D01*
X01317058Y02135174D01*
X01316982Y02135357D01*
Y02135457D01*
Y02139957D01*
Y02140056D01*
X01317058Y02140240D01*
X01317199Y02140381D01*
X01317383Y02140457D01*
X01331581D01*
X01331765Y02140381D01*
D02*
G37*
G36*
X01657338Y02136501D02*
X01657479Y02136360D01*
X01657555Y02136176D01*
Y02136077D01*
Y02131577D01*
Y02131477D01*
X01657479Y02131294D01*
X01657338Y02131153D01*
X01657154Y02131077D01*
X01642955D01*
X01642772Y02131153D01*
X01642631Y02131294D01*
X01642555Y02131477D01*
Y02131577D01*
Y02136077D01*
Y02136176D01*
X01642631Y02136360D01*
X01642772Y02136501D01*
X01642955Y02136577D01*
X01657154D01*
X01657338Y02136501D01*
D02*
G37*
G36*
X01603338D02*
X01603479Y02136360D01*
X01603555Y02136176D01*
Y02136077D01*
Y02131577D01*
Y02131477D01*
X01603479Y02131294D01*
X01603338Y02131153D01*
X01603154Y02131077D01*
X01588955D01*
X01588772Y02131153D01*
X01588631Y02131294D01*
X01588555Y02131477D01*
Y02131577D01*
Y02136077D01*
Y02136176D01*
X01588631Y02136360D01*
X01588772Y02136501D01*
X01588955Y02136577D01*
X01603154D01*
X01603338Y02136501D01*
D02*
G37*
G36*
X01385765Y02127681D02*
X01385906Y02127540D01*
X01385982Y02127356D01*
Y02127257D01*
Y02122757D01*
Y02122657D01*
X01385906Y02122474D01*
X01385765Y02122333D01*
X01385581Y02122257D01*
X01371382D01*
X01371199Y02122333D01*
X01371058Y02122474D01*
X01370982Y02122657D01*
Y02122757D01*
Y02127257D01*
Y02127356D01*
X01371058Y02127540D01*
X01371199Y02127681D01*
X01371382Y02127757D01*
X01385581D01*
X01385765Y02127681D01*
D02*
G37*
G36*
X01331765D02*
X01331906Y02127540D01*
X01331982Y02127356D01*
Y02127257D01*
Y02122757D01*
Y02122657D01*
X01331906Y02122474D01*
X01331765Y02122333D01*
X01331581Y02122257D01*
X01317383D01*
X01317199Y02122333D01*
X01317058Y02122474D01*
X01316982Y02122657D01*
Y02122757D01*
Y02127257D01*
Y02127356D01*
X01317058Y02127540D01*
X01317199Y02127681D01*
X01317383Y02127757D01*
X01331581D01*
X01331765Y02127681D01*
D02*
G37*
G36*
X01657338Y02123801D02*
X01657479Y02123660D01*
X01657555Y02123476D01*
Y02123377D01*
Y02118877D01*
Y02118777D01*
X01657479Y02118594D01*
X01657338Y02118453D01*
X01657154Y02118377D01*
X01642955D01*
X01642772Y02118453D01*
X01642631Y02118594D01*
X01642555Y02118777D01*
Y02118877D01*
Y02123377D01*
Y02123476D01*
X01642631Y02123660D01*
X01642772Y02123801D01*
X01642955Y02123877D01*
X01657154D01*
X01657338Y02123801D01*
D02*
G37*
G36*
X01603338D02*
X01603479Y02123660D01*
X01603555Y02123476D01*
Y02123377D01*
Y02118877D01*
Y02118777D01*
X01603479Y02118594D01*
X01603338Y02118453D01*
X01603154Y02118377D01*
X01588955D01*
X01588772Y02118453D01*
X01588631Y02118594D01*
X01588555Y02118777D01*
Y02118877D01*
Y02123377D01*
Y02123476D01*
X01588631Y02123660D01*
X01588772Y02123801D01*
X01588955Y02123877D01*
X01603154D01*
X01603338Y02123801D01*
D02*
G37*
G36*
X03117755Y01572281D02*
X03117896Y01572140D01*
X03117972Y01571956D01*
Y01571857D01*
Y01568857D01*
Y01568757D01*
X03117896Y01568574D01*
X03117755Y01568433D01*
X03117571Y01568357D01*
X03114872D01*
X03114689Y01568433D01*
X03114548Y01568574D01*
X03114472Y01568757D01*
Y01568857D01*
Y01571857D01*
Y01571956D01*
X03114548Y01572140D01*
X03114689Y01572281D01*
X03114872Y01572357D01*
X03117571D01*
X03117755Y01572281D01*
D02*
G37*
G36*
X03111755D02*
X03111896Y01572140D01*
X03111972Y01571956D01*
Y01571857D01*
X03111972D01*
X03111972Y01568857D01*
Y01568757D01*
X03111896Y01568574D01*
X03111755Y01568433D01*
X03111571Y01568357D01*
X03108872D01*
X03108689Y01568433D01*
X03108548Y01568574D01*
X03108472Y01568757D01*
Y01568857D01*
Y01571857D01*
Y01571956D01*
X03108548Y01572140D01*
X03108689Y01572281D01*
X03108872Y01572357D01*
X03111571D01*
X03111755Y01572281D01*
D02*
G37*
G36*
X03104855D02*
X03104996Y01572140D01*
X03105072Y01571956D01*
Y01571857D01*
Y01568857D01*
Y01568757D01*
X03104996Y01568574D01*
X03104855Y01568433D01*
X03104671Y01568357D01*
X03099472D01*
X03099289Y01568433D01*
X03099148Y01568574D01*
X03099072Y01568757D01*
Y01568857D01*
Y01571857D01*
Y01571956D01*
X03099148Y01572140D01*
X03099289Y01572281D01*
X03099472Y01572357D01*
X03104671D01*
X03104855Y01572281D01*
D02*
G37*
G54D19*
X01038734Y00433739D02*
Y00588679D01*
X00412751D02*
X02089532D01*
X01360552Y00537032D02*
Y00588679D01*
X01573912Y00537032D02*
Y00588679D01*
X01731900Y00432088D02*
Y00483608D01*
X01429894Y00433739D02*
X02089532D01*
X00412751D02*
X00812928D01*
X00412624Y00537032D02*
X02089532D01*
X00412624Y00433739D02*
X01429894D01*
X00412624Y00485386D02*
X02089024D01*
X00412624Y00433739D02*
Y00588679D01*
X00412751Y00433739D02*
Y00588679D01*
X02089532Y00433739D02*
Y00588679D01*
G54D22*
X00633350Y00508589D02*
X00636682D01*
X00635016D01*
Y00503591D01*
X00639182D02*
X00640848D01*
X00641681Y00504424D01*
Y00506090D01*
X00640848Y00506923D01*
X00639182D01*
X00638349Y00506090D01*
Y00504424D01*
X00639182Y00503591D01*
X00643347Y00501925D02*
Y00506923D01*
X00645846D01*
X00646679Y00506090D01*
Y00504424D01*
X00645846Y00503591D01*
X00643347D01*
X00653344D02*
Y00508589D01*
X00655843D01*
X00656676Y00507756D01*
Y00506090D01*
X00655843Y00505257D01*
X00653344D01*
X00659175Y00506923D02*
X00660841D01*
X00661674Y00506090D01*
Y00503591D01*
X00659175D01*
X00658342Y00504424D01*
X00659175Y00505257D01*
X00661674D01*
X00663340Y00503591D02*
X00665839D01*
X00666673Y00504424D01*
X00665839Y00505257D01*
X00664173D01*
X00663340Y00506090D01*
X00664173Y00506923D01*
X00666673D01*
X00669172Y00507756D02*
Y00506923D01*
X00668339D01*
X00670005D01*
X00669172D01*
Y00504424D01*
X00670005Y00503591D01*
X00675003D02*
X00673337D01*
X00672504Y00504424D01*
Y00506090D01*
X00673337Y00506923D01*
X00675003D01*
X00675836Y00506090D01*
Y00505257D01*
X00672504D01*
X00428753Y00555109D02*
Y00558441D01*
X00430419Y00560107D01*
X00432085Y00558441D01*
Y00555109D01*
Y00557608D01*
X00428753D01*
X00433751Y00560107D02*
Y00555109D01*
X00437084D01*
X00438750Y00560107D02*
Y00555109D01*
X00442082D01*
X00448747D02*
Y00558441D01*
X00450413Y00560107D01*
X00452079Y00558441D01*
Y00555109D01*
Y00557608D01*
X00448747D01*
X00453745Y00555109D02*
Y00560107D01*
X00456244D01*
X00457077Y00559274D01*
Y00557608D01*
X00456244Y00556775D01*
X00453745D01*
X00455411D02*
X00457077Y00555109D01*
X00458743Y00560107D02*
X00462076D01*
X00460410D01*
Y00555109D01*
X00463742Y00560107D02*
Y00555109D01*
X00465408Y00556775D01*
X00467074Y00555109D01*
Y00560107D01*
X00471239D02*
X00469573D01*
X00468740Y00559274D01*
Y00555942D01*
X00469573Y00555109D01*
X00471239D01*
X00472072Y00555942D01*
Y00559274D01*
X00471239Y00560107D01*
X00473738Y00555109D02*
Y00560107D01*
X00476238D01*
X00477071Y00559274D01*
Y00557608D01*
X00476238Y00556775D01*
X00473738D01*
X00475405D02*
X00477071Y00555109D01*
X00478737Y00560107D02*
Y00555109D01*
Y00556775D01*
X00482069Y00560107D01*
X00479570Y00557608D01*
X00482069Y00555109D01*
X00488733Y00560107D02*
Y00556775D01*
X00490400Y00555109D01*
X00492066Y00556775D01*
Y00560107D01*
X00493732D02*
X00495398D01*
X00494565D01*
Y00555109D01*
X00493732D01*
X00495398D01*
X00501230Y00560107D02*
X00497897D01*
Y00555109D01*
X00501230D01*
X00497897Y00557608D02*
X00499563D01*
X00502896Y00560107D02*
Y00555109D01*
X00504562Y00556775D01*
X00506228Y00555109D01*
Y00560107D01*
X00511226D02*
X00507894D01*
Y00555109D01*
X00511226D01*
X00507894Y00557608D02*
X00509560D01*
X00512892Y00560107D02*
Y00555109D01*
X00515392D01*
X00516225Y00555942D01*
Y00559274D01*
X00515392Y00560107D01*
X00512892D01*
X00526221D02*
X00522889D01*
Y00557608D01*
X00524555D01*
X00522889D01*
Y00555109D01*
X00527887D02*
Y00560107D01*
X00530387D01*
X00531220Y00559274D01*
Y00557608D01*
X00530387Y00556775D01*
X00527887D01*
X00529553D02*
X00531220Y00555109D01*
X00535385Y00560107D02*
X00533719D01*
X00532886Y00559274D01*
Y00555942D01*
X00533719Y00555109D01*
X00535385D01*
X00536218Y00555942D01*
Y00559274D01*
X00535385Y00560107D01*
X00537884Y00555109D02*
Y00560107D01*
X00539550Y00558441D01*
X00541216Y00560107D01*
Y00555109D01*
X00547881Y00560107D02*
X00551213D01*
X00549547D01*
Y00555109D01*
X00555378Y00560107D02*
X00553712D01*
X00552879Y00559274D01*
Y00555942D01*
X00553712Y00555109D01*
X00555378D01*
X00556212Y00555942D01*
Y00559274D01*
X00555378Y00560107D01*
X00557878Y00555109D02*
Y00560107D01*
X00560377D01*
X00561210Y00559274D01*
Y00557608D01*
X00560377Y00556775D01*
X00557878D01*
X00571207Y00559274D02*
X00570373Y00560107D01*
X00568707D01*
X00567874Y00559274D01*
Y00558441D01*
X00568707Y00557608D01*
X00570373D01*
X00571207Y00556775D01*
Y00555942D01*
X00570373Y00555109D01*
X00568707D01*
X00567874Y00555942D01*
X00572873Y00560107D02*
X00574539D01*
X00573706D01*
Y00555109D01*
X00572873D01*
X00574539D01*
X00577038Y00560107D02*
Y00555109D01*
X00579537D01*
X00580370Y00555942D01*
Y00559274D01*
X00579537Y00560107D01*
X00577038D01*
X00585369D02*
X00582036D01*
Y00555109D01*
X00585369D01*
X00582036Y00557608D02*
X00583703D01*
X00428753Y00451307D02*
Y00456305D01*
X00431252D01*
X00432085Y00455472D01*
Y00453806D01*
X00431252Y00452973D01*
X00428753D01*
X00433751Y00456305D02*
Y00451307D01*
X00437084D01*
X00441249Y00456305D02*
X00439583D01*
X00438750Y00455472D01*
Y00452140D01*
X00439583Y00451307D01*
X00441249D01*
X00442082Y00452140D01*
Y00455472D01*
X00441249Y00456305D01*
X00443748D02*
X00447080D01*
X00445414D01*
Y00451307D01*
X00453745D02*
Y00456305D01*
X00457077Y00451307D01*
Y00456305D01*
X00458743Y00451307D02*
Y00454639D01*
X00460410Y00456305D01*
X00462076Y00454639D01*
Y00451307D01*
Y00453806D01*
X00458743D01*
X00463742Y00451307D02*
Y00456305D01*
X00465408Y00454639D01*
X00467074Y00456305D01*
Y00451307D01*
X00472072Y00456305D02*
X00468740D01*
Y00451307D01*
X00472072D01*
X00468740Y00453806D02*
X00470406D01*
X00478737Y00452973D02*
X00482069D01*
X00478737Y00454639D02*
X00482069D01*
X00428753Y00508589D02*
Y00503591D01*
X00432085D01*
X00433751D02*
Y00506923D01*
X00435418Y00508589D01*
X00437084Y00506923D01*
Y00503591D01*
Y00506090D01*
X00433751D01*
X00438750Y00508589D02*
Y00507756D01*
X00440416Y00506090D01*
X00442082Y00507756D01*
Y00508589D01*
X00440416Y00506090D02*
Y00503591D01*
X00447080Y00508589D02*
X00443748D01*
Y00503591D01*
X00447080D01*
X00443748Y00506090D02*
X00445414D01*
X00448747Y00503591D02*
Y00508589D01*
X00451246D01*
X00452079Y00507756D01*
Y00506090D01*
X00451246Y00505257D01*
X00448747D01*
X00450413D02*
X00452079Y00503591D01*
X00458743D02*
Y00508589D01*
X00462076Y00503591D01*
Y00508589D01*
X00463742Y00503591D02*
Y00506923D01*
X00465408Y00508589D01*
X00467074Y00506923D01*
Y00503591D01*
Y00506090D01*
X00463742D01*
X00468740Y00503591D02*
Y00508589D01*
X00470406Y00506923D01*
X00472072Y00508589D01*
Y00503591D01*
X00477071Y00508589D02*
X00473738D01*
Y00503591D01*
X00477071D01*
X00473738Y00506090D02*
X00475405D01*
X00483735Y00505257D02*
X00487067D01*
X00483735Y00506923D02*
X00487067D01*
X01057784Y00560107D02*
Y00555109D01*
X01060283D01*
X01061116Y00555942D01*
Y00556775D01*
X01060283Y00557608D01*
X01057784D01*
X01060283D01*
X01061116Y00558441D01*
Y00559274D01*
X01060283Y00560107D01*
X01057784D01*
X01065282D02*
X01063616D01*
X01062783Y00559274D01*
Y00555942D01*
X01063616Y00555109D01*
X01065282D01*
X01066115Y00555942D01*
Y00559274D01*
X01065282Y00560107D01*
X01067781Y00555109D02*
Y00558441D01*
X01069447Y00560107D01*
X01071113Y00558441D01*
Y00555109D01*
Y00557608D01*
X01067781D01*
X01072779Y00555109D02*
Y00560107D01*
X01075278D01*
X01076112Y00559274D01*
Y00557608D01*
X01075278Y00556775D01*
X01072779D01*
X01074445D02*
X01076112Y00555109D01*
X01077778Y00560107D02*
Y00555109D01*
X01080277D01*
X01081110Y00555942D01*
Y00559274D01*
X01080277Y00560107D01*
X01077778D01*
X01088607Y00555109D02*
Y00560107D01*
X01090274D02*
Y00555109D01*
X01087774Y00558441D02*
X01090274D01*
X01091107D01*
X01087774Y00556775D02*
X01091107D01*
X01092773Y00558441D02*
X01093606D01*
Y00557608D01*
X01092773D01*
Y00558441D01*
Y00555942D02*
X01093606D01*
Y00555109D01*
X01092773D01*
Y00555942D01*
X00633350Y00456305D02*
X00636682D01*
X00635016D01*
Y00451307D01*
X00638349Y00456305D02*
X00640015D01*
X00639182D01*
Y00451307D01*
X00638349D01*
X00640015D01*
X00642514Y00456305D02*
Y00451307D01*
X00645013D01*
X00645846Y00452140D01*
Y00455472D01*
X00645013Y00456305D01*
X00642514D01*
X00647512Y00451307D02*
Y00454639D01*
X00649178Y00456305D01*
X00650844Y00454639D01*
Y00451307D01*
Y00453806D01*
X00647512D01*
X00652511D02*
X00655843D01*
X00657509Y00455472D02*
X00658342Y00456305D01*
X00660008D01*
X00660841Y00455472D01*
Y00452140D01*
X00660008Y00451307D01*
X00658342D01*
X00657509Y00452140D01*
Y00455472D01*
X00662507Y00451307D02*
X00664173D01*
X00663340D01*
Y00456305D01*
X00662507Y00455472D01*
X00666673D02*
X00667506Y00456305D01*
X00669172D01*
X00670005Y00455472D01*
Y00452140D01*
X00669172Y00451307D01*
X00667506D01*
X00666673Y00452140D01*
Y00455472D01*
X00671671Y00452140D02*
X00672504Y00451307D01*
X00674170D01*
X00675003Y00452140D01*
Y00455472D01*
X00674170Y00456305D01*
X00672504D01*
X00671671Y00455472D01*
Y00454639D01*
X00672504Y00453806D01*
X00675003D01*
X00676669Y00455472D02*
X00677502Y00456305D01*
X00679168D01*
X00680002Y00455472D01*
Y00454639D01*
X00679168Y00453806D01*
X00678335D01*
X00679168D01*
X00680002Y00452973D01*
Y00452140D01*
X00679168Y00451307D01*
X00677502D01*
X00676669Y00452140D01*
X00681668Y00455472D02*
X00682501Y00456305D01*
X00684167D01*
X00685000Y00455472D01*
Y00454639D01*
X00684167Y00453806D01*
X00685000Y00452973D01*
Y00452140D01*
X00684167Y00451307D01*
X00682501D01*
X00681668Y00452140D01*
Y00452973D01*
X00682501Y00453806D01*
X00681668Y00454639D01*
Y00455472D01*
X00682501Y00453806D02*
X00684167D01*
X00691665Y00451307D02*
Y00454639D01*
X00693331Y00456305D01*
X00694997Y00454639D01*
Y00451307D01*
Y00453806D01*
X00691665D01*
X00699995Y00455472D02*
X00699162Y00456305D01*
X00697496D01*
X00696663Y00455472D01*
Y00452140D01*
X00697496Y00451307D01*
X00699162D01*
X00699995Y00452140D01*
X00701661Y00453806D02*
X00704993D01*
X00706659Y00456305D02*
Y00451307D01*
X00709159D01*
X00709992Y00452140D01*
Y00455472D01*
X00709159Y00456305D01*
X00706659D01*
X00714990Y00455472D02*
X00714157Y00456305D01*
X00712491D01*
X00711658Y00455472D01*
Y00452140D01*
X00712491Y00451307D01*
X00714157D01*
X00714990Y00452140D01*
X00719988Y00456305D02*
X00716656D01*
Y00451307D01*
X00719988D01*
X00716656Y00453806D02*
X00718322D01*
X00721655Y00451307D02*
X00723321D01*
X00722488D01*
Y00456305D01*
X00721655Y00455472D01*
X00725820Y00451307D02*
Y00452140D01*
X00726653D01*
Y00451307D01*
X00725820D01*
X00733317Y00455472D02*
X00732485Y00456305D01*
X00730818D01*
X00729985Y00455472D01*
Y00452140D01*
X00730818Y00451307D01*
X00732485D01*
X00733317Y00452140D01*
Y00453806D01*
X00731651D01*
X00734984Y00456305D02*
X00738316D01*
X00736650D01*
Y00451307D01*
X00739982D02*
Y00456305D01*
X00742481D01*
X00743314Y00455472D01*
Y00453806D01*
X00742481Y00452973D01*
X00739982D01*
X01752220Y00555109D02*
Y00560107D01*
X01755552Y00555109D01*
Y00560107D01*
X01758052Y00555109D02*
X01759718D01*
X01760551Y00555942D01*
Y00557608D01*
X01759718Y00558441D01*
X01758052D01*
X01757218Y00557608D01*
Y00555942D01*
X01758052Y00555109D01*
X01763050Y00559274D02*
Y00558441D01*
X01762217D01*
X01763883D01*
X01763050D01*
Y00555942D01*
X01763883Y00555109D01*
X01771381D02*
X01773047D01*
X01772214D01*
Y00558441D01*
X01771381D01*
X01775546Y00555109D02*
Y00558441D01*
X01778045D01*
X01778878Y00557608D01*
Y00555109D01*
X01785543Y00558441D02*
X01787209Y00555109D01*
X01788875Y00558441D01*
X01793040Y00555109D02*
X01791374D01*
X01790541Y00555942D01*
Y00557608D01*
X01791374Y00558441D01*
X01793040D01*
X01793873Y00557608D01*
Y00556775D01*
X01790541D01*
X01795539Y00558441D02*
Y00555109D01*
Y00556775D01*
X01796372Y00557608D01*
X01797206Y00558441D01*
X01798038D01*
X01800538Y00555109D02*
X01803037D01*
X01803870Y00555942D01*
X01803037Y00556775D01*
X01801371D01*
X01800538Y00557608D01*
X01801371Y00558441D01*
X01803870D01*
X01805536Y00555109D02*
X01807202D01*
X01806369D01*
Y00558441D01*
X01805536D01*
X01810535Y00555109D02*
X01812201D01*
X01813034Y00555942D01*
Y00557608D01*
X01812201Y00558441D01*
X01810535D01*
X01809701Y00557608D01*
Y00555942D01*
X01810535Y00555109D01*
X01814700D02*
Y00558441D01*
X01817199D01*
X01818032Y00557608D01*
Y00555109D01*
X01828029Y00558441D02*
X01825530D01*
X01824697Y00557608D01*
Y00555942D01*
X01825530Y00555109D01*
X01828029D01*
X01830528D02*
X01832194D01*
X01833027Y00555942D01*
Y00557608D01*
X01832194Y00558441D01*
X01830528D01*
X01829695Y00557608D01*
Y00555942D01*
X01830528Y00555109D01*
X01834693D02*
Y00558441D01*
X01837192D01*
X01838026Y00557608D01*
Y00555109D01*
X01840525Y00559274D02*
Y00558441D01*
X01839692D01*
X01841358D01*
X01840525D01*
Y00555942D01*
X01841358Y00555109D01*
X01843857Y00558441D02*
Y00555109D01*
Y00556775D01*
X01844690Y00557608D01*
X01845523Y00558441D01*
X01846356D01*
X01849688Y00555109D02*
X01851355D01*
X01852188Y00555942D01*
Y00557608D01*
X01851355Y00558441D01*
X01849688D01*
X01848855Y00557608D01*
Y00555942D01*
X01849688Y00555109D01*
X01853854D02*
X01855520D01*
X01854687D01*
Y00560107D01*
X01853854D01*
X01410844Y00555109D02*
Y00560107D01*
X01413343D01*
X01414176Y00559274D01*
Y00557608D01*
X01413343Y00556775D01*
X01410844D01*
X01412510D02*
X01414176Y00555109D01*
X01419175Y00560107D02*
X01415842D01*
Y00555109D01*
X01419175D01*
X01415842Y00557608D02*
X01417509D01*
X01420841Y00560107D02*
Y00556775D01*
X01422507Y00555109D01*
X01424173Y00556775D01*
Y00560107D01*
X01425839Y00558441D02*
X01426672D01*
Y00557608D01*
X01425839D01*
Y00558441D01*
Y00555942D02*
X01426672D01*
Y00555109D01*
X01425839D01*
Y00555942D01*
X01488217Y00560107D02*
X01484885D01*
Y00555109D01*
X01488217D01*
X01484885Y00557608D02*
X01486551D01*
X01489884Y00555109D02*
X01491550D01*
X01490717D01*
Y00560107D01*
X01489884Y00559274D01*
X01627028D02*
X01626195Y00560107D01*
X01624529D01*
X01623696Y00559274D01*
Y00558441D01*
X01624529Y00557608D01*
X01626195D01*
X01627028Y00556775D01*
Y00555942D01*
X01626195Y00555109D01*
X01624529D01*
X01623696Y00555942D01*
X01628694Y00560107D02*
Y00556775D01*
X01630361Y00555109D01*
X01632027Y00556775D01*
Y00560107D01*
X01633693Y00555109D02*
Y00560107D01*
X01637025Y00555109D01*
Y00560107D01*
X01643690Y00555109D02*
Y00560107D01*
X01646189D01*
X01647022Y00559274D01*
Y00557608D01*
X01646189Y00556775D01*
X01643690D01*
X01645356D02*
X01647022Y00555109D01*
X01652020Y00560107D02*
X01648688D01*
Y00555109D01*
X01652020D01*
X01648688Y00557608D02*
X01650354D01*
X01653686Y00560107D02*
Y00556775D01*
X01655352Y00555109D01*
X01657019Y00556775D01*
Y00560107D01*
X01658685Y00558441D02*
X01659518D01*
Y00557608D01*
X01658685D01*
Y00558441D01*
Y00555942D02*
X01659518D01*
Y00555109D01*
X01658685D01*
Y00555942D01*
X01785494Y00456305D02*
X01788826D01*
X01787160D01*
Y00451307D01*
X01793825Y00456305D02*
X01790493D01*
Y00451307D01*
X01793825D01*
X01790493Y00453806D02*
X01792159D01*
X01795491Y00456305D02*
X01798823Y00451307D01*
Y00456305D02*
X01795491Y00451307D01*
X01800489D02*
Y00454639D01*
X01802155Y00456305D01*
X01803822Y00454639D01*
Y00451307D01*
Y00453806D01*
X01800489D01*
X01808820Y00455472D02*
X01807987Y00456305D01*
X01806321D01*
X01805488Y00455472D01*
Y00454639D01*
X01806321Y00453806D01*
X01807987D01*
X01808820Y00452973D01*
Y00452140D01*
X01807987Y00451307D01*
X01806321D01*
X01805488Y00452140D01*
X01815484Y00456305D02*
X01817151D01*
X01816317D01*
Y00451307D01*
X01815484D01*
X01817151D01*
X01819650D02*
Y00456305D01*
X01822982Y00451307D01*
Y00456305D01*
X01827980Y00455472D02*
X01827147Y00456305D01*
X01825481D01*
X01824648Y00455472D01*
Y00454639D01*
X01825481Y00453806D01*
X01827147D01*
X01827980Y00452973D01*
Y00452140D01*
X01827147Y00451307D01*
X01825481D01*
X01824648Y00452140D01*
X01829646Y00456305D02*
X01832979D01*
X01831313D01*
Y00451307D01*
X01834645D02*
Y00456305D01*
X01837144D01*
X01837977Y00455472D01*
Y00453806D01*
X01837144Y00452973D01*
X01834645D01*
X01836311D02*
X01837977Y00451307D01*
X01839643Y00456305D02*
Y00452140D01*
X01840476Y00451307D01*
X01842142D01*
X01842975Y00452140D01*
Y00456305D01*
X01844642Y00451307D02*
Y00456305D01*
X01846308Y00454639D01*
X01847974Y00456305D01*
Y00451307D01*
X01852972Y00456305D02*
X01849640D01*
Y00451307D01*
X01852972D01*
X01849640Y00453806D02*
X01851306D01*
X01854638Y00451307D02*
Y00456305D01*
X01857970Y00451307D01*
Y00456305D01*
X01859637D02*
X01862969D01*
X01861303D01*
Y00451307D01*
X01867967Y00455472D02*
X01867134Y00456305D01*
X01865468D01*
X01864635Y00455472D01*
Y00454639D01*
X01865468Y00453806D01*
X01867134D01*
X01867967Y00452973D01*
Y00452140D01*
X01867134Y00451307D01*
X01865468D01*
X01864635Y00452140D01*
X01196341Y00560107D02*
X01199673D01*
X01198007D01*
Y00555109D01*
X01201339Y00560107D02*
X01203006D01*
X01202173D01*
Y00555109D01*
X01201339D01*
X01203006D01*
X01205505Y00560107D02*
Y00555109D01*
X01208004D01*
X01208837Y00555942D01*
Y00559274D01*
X01208004Y00560107D01*
X01205505D01*
X01210503Y00555109D02*
Y00558441D01*
X01212169Y00560107D01*
X01213836Y00558441D01*
Y00555109D01*
Y00557608D01*
X01210503D01*
X01215502D02*
X01218834D01*
X01220500Y00559274D02*
X01221333Y00560107D01*
X01222999D01*
X01223832Y00559274D01*
Y00555942D01*
X01222999Y00555109D01*
X01221333D01*
X01220500Y00555942D01*
Y00559274D01*
X01225498Y00555109D02*
X01227164D01*
X01226331D01*
Y00560107D01*
X01225498Y00559274D01*
X01229664D02*
X01230497Y00560107D01*
X01232163D01*
X01232996Y00559274D01*
Y00555942D01*
X01232163Y00555109D01*
X01230497D01*
X01229664Y00555942D01*
Y00559274D01*
X01234662Y00555942D02*
X01235495Y00555109D01*
X01237161D01*
X01237994Y00555942D01*
Y00559274D01*
X01237161Y00560107D01*
X01235495D01*
X01234662Y00559274D01*
Y00558441D01*
X01235495Y00557608D01*
X01237994D01*
X01239660Y00559274D02*
X01240493Y00560107D01*
X01242160D01*
X01242993Y00559274D01*
Y00558441D01*
X01242160Y00557608D01*
X01241327D01*
X01242160D01*
X01242993Y00556775D01*
Y00555942D01*
X01242160Y00555109D01*
X01240493D01*
X01239660Y00555942D01*
X01244659Y00559274D02*
X01245492Y00560107D01*
X01247158D01*
X01247991Y00559274D01*
Y00558441D01*
X01247158Y00557608D01*
X01247991Y00556775D01*
Y00555942D01*
X01247158Y00555109D01*
X01245492D01*
X01244659Y00555942D01*
Y00556775D01*
X01245492Y00557608D01*
X01244659Y00558441D01*
Y00559274D01*
X01245492Y00557608D02*
X01247158D01*
X01254656Y00555109D02*
Y00558441D01*
X01256322Y00560107D01*
X01257988Y00558441D01*
Y00555109D01*
Y00557608D01*
X01254656D01*
X01262986Y00559274D02*
X01262153Y00560107D01*
X01260487D01*
X01259654Y00559274D01*
Y00555942D01*
X01260487Y00555109D01*
X01262153D01*
X01262986Y00555942D01*
X01264652Y00557608D02*
X01267984D01*
X01269650Y00560107D02*
Y00555109D01*
X01272150D01*
X01272983Y00555942D01*
Y00559274D01*
X01272150Y00560107D01*
X01269650D01*
X01277981Y00559274D02*
X01277148Y00560107D01*
X01275482D01*
X01274649Y00559274D01*
Y00555942D01*
X01275482Y00555109D01*
X01277148D01*
X01277981Y00555942D01*
X01057784Y00508460D02*
X01061116D01*
X01059450D01*
Y00503462D01*
X01062783Y00508460D02*
X01064449D01*
X01063616D01*
Y00503462D01*
X01062783D01*
X01064449D01*
X01066948Y00508460D02*
Y00503462D01*
X01069447D01*
X01070280Y00504295D01*
Y00507627D01*
X01069447Y00508460D01*
X01066948D01*
X01077778Y00503462D02*
Y00508460D01*
X01079444D02*
Y00503462D01*
X01076945Y00506794D02*
X01079444D01*
X01080277D01*
X01076945Y00505128D02*
X01080277D01*
X01081943Y00506794D02*
X01082776D01*
Y00505961D01*
X01081943D01*
Y00506794D01*
Y00504295D02*
X01082776D01*
Y00503462D01*
X01081943D01*
Y00504295D01*
X01061624Y00455472D02*
X01060791Y00456305D01*
X01059125D01*
X01058292Y00455472D01*
Y00452140D01*
X01059125Y00451307D01*
X01060791D01*
X01061624Y00452140D01*
Y00453806D01*
X01059958D01*
X01066623Y00456305D02*
X01063290D01*
Y00451307D01*
X01066623D01*
X01063290Y00453806D02*
X01064957D01*
X01068289Y00451307D02*
Y00456305D01*
X01071621Y00451307D01*
Y00456305D01*
X01076619D02*
X01073287D01*
Y00451307D01*
X01076619D01*
X01073287Y00453806D02*
X01074953D01*
X01078286Y00451307D02*
Y00456305D01*
X01080785D01*
X01081618Y00455472D01*
Y00453806D01*
X01080785Y00452973D01*
X01078286D01*
X01079952D02*
X01081618Y00451307D01*
X01083284D02*
Y00454639D01*
X01084950Y00456305D01*
X01086616Y00454639D01*
Y00451307D01*
Y00453806D01*
X01083284D01*
X01088282Y00456305D02*
X01091615D01*
X01089949D01*
Y00451307D01*
X01096613Y00456305D02*
X01093281D01*
Y00451307D01*
X01096613D01*
X01093281Y00453806D02*
X01094947D01*
X01098279Y00456305D02*
Y00451307D01*
X01100778D01*
X01101611Y00452140D01*
Y00455472D01*
X01100778Y00456305D01*
X01098279D01*
X01123271Y00454639D02*
X01124104D01*
Y00453806D01*
X01123271D01*
Y00454639D01*
Y00452140D02*
X01124104D01*
Y00451307D01*
X01123271D01*
Y00452140D01*
X01464311Y00451307D02*
X01465977D01*
X01465144D01*
Y00456305D01*
X01464311Y00455472D01*
X01468477D02*
X01469310Y00456305D01*
X01470976D01*
X01471809Y00455472D01*
Y00452140D01*
X01470976Y00451307D01*
X01469310D01*
X01468477Y00452140D01*
Y00455472D01*
X01473475Y00454639D02*
X01474308D01*
Y00453806D01*
X01473475D01*
Y00454639D01*
Y00452140D02*
X01474308D01*
Y00451307D01*
X01473475D01*
Y00452140D01*
X01477640Y00451307D02*
X01479306D01*
X01478473D01*
Y00456305D01*
X01477640Y00455472D01*
X01484305Y00451307D02*
Y00456305D01*
X01481806Y00453806D01*
X01485138D01*
X01486804Y00454639D02*
X01487637D01*
Y00453806D01*
X01486804D01*
Y00454639D01*
Y00452140D02*
X01487637D01*
Y00451307D01*
X01486804D01*
Y00452140D01*
X01494301Y00456305D02*
X01490969D01*
Y00453806D01*
X01492635Y00454639D01*
X01493468D01*
X01494301Y00453806D01*
Y00452140D01*
X01493468Y00451307D01*
X01491802D01*
X01490969Y00452140D01*
X01498467Y00451307D02*
Y00456305D01*
X01495968Y00453806D01*
X01499300D01*
X01505964Y00451307D02*
Y00454639D01*
X01507630Y00456305D01*
X01509297Y00454639D01*
Y00451307D01*
Y00453806D01*
X01505964D01*
X01510963Y00451307D02*
Y00456305D01*
X01512629Y00454639D01*
X01514295Y00456305D01*
Y00451307D01*
X01196341Y00503462D02*
Y00506794D01*
X01198007Y00508460D01*
X01199673Y00506794D01*
Y00503462D01*
Y00505961D01*
X01196341D01*
X01201339Y00507627D02*
X01202173Y00508460D01*
X01203839D01*
X01204672Y00507627D01*
Y00504295D01*
X01203839Y00503462D01*
X01202173D01*
X01201339Y00504295D01*
Y00507627D01*
X01208837Y00503462D02*
Y00508460D01*
X01206338Y00505961D01*
X01209670D01*
X01211336Y00504295D02*
X01212169Y00503462D01*
X01213835D01*
X01214669Y00504295D01*
Y00507627D01*
X01213835Y00508460D01*
X01212169D01*
X01211336Y00507627D01*
Y00506794D01*
X01212169Y00505961D01*
X01214669D01*
X01216335Y00507627D02*
X01217168Y00508460D01*
X01218834D01*
X01219667Y00507627D01*
Y00506794D01*
X01218834Y00505961D01*
X01219667Y00505128D01*
Y00504295D01*
X01218834Y00503462D01*
X01217168D01*
X01216335Y00504295D01*
Y00505128D01*
X01217168Y00505961D01*
X01216335Y00506794D01*
Y00507627D01*
X01217168Y00505961D02*
X01218834D01*
X01221333Y00503462D02*
X01222999D01*
X01222166D01*
Y00508460D01*
X01221333Y00507627D01*
X01225498Y00508460D02*
X01228831D01*
Y00507627D01*
X01225498Y00504295D01*
Y00503462D01*
X01233829Y00508460D02*
X01232163Y00507627D01*
X01230497Y00505961D01*
Y00504295D01*
X01231330Y00503462D01*
X01232996D01*
X01233829Y00504295D01*
Y00505128D01*
X01232996Y00505961D01*
X01230497D01*
X01279145Y00451307D02*
X01280811D01*
X01279978D01*
Y00456305D01*
X01279145Y00455472D01*
X01286643Y00451307D02*
X01283311D01*
X01286643Y00454639D01*
Y00455472D01*
X01285810Y00456305D01*
X01284144D01*
X01283311Y00455472D01*
X01288309Y00451307D02*
X01291641Y00454639D01*
X01293307Y00455472D02*
X01294140Y00456305D01*
X01295806D01*
X01296640Y00455472D01*
Y00454639D01*
X01295806Y00453806D01*
X01294973D01*
X01295806D01*
X01296640Y00452973D01*
Y00452140D01*
X01295806Y00451307D01*
X01294140D01*
X01293307Y00452140D01*
X01298306Y00451307D02*
X01301638Y00454639D01*
X01306636Y00451307D02*
X01303304D01*
X01306636Y00454639D01*
Y00455472D01*
X01305803Y00456305D01*
X01304137D01*
X01303304Y00455472D01*
X01308302D02*
X01309135Y00456305D01*
X01310802D01*
X01311635Y00455472D01*
Y00452140D01*
X01310802Y00451307D01*
X01309135D01*
X01308302Y00452140D01*
Y00455472D01*
X01316633Y00451307D02*
X01313301D01*
X01316633Y00454639D01*
Y00455472D01*
X01315800Y00456305D01*
X01314134D01*
X01313301Y00455472D01*
X01318299D02*
X01319132Y00456305D01*
X01320798D01*
X01321631Y00455472D01*
Y00454639D01*
X01320798Y00453806D01*
X01319965D01*
X01320798D01*
X01321631Y00452973D01*
Y00452140D01*
X01320798Y00451307D01*
X01319132D01*
X01318299Y00452140D01*
G54D30*
X01732921Y02491617D02*
D03*
Y02500617D02*
D03*
G54D31*
X02780646Y01723233D02*
D03*
X02764898Y01723231D02*
D03*
X02749148D02*
D03*
X02733398D02*
D03*
X02780648Y01737981D02*
D03*
X02764896Y01737983D02*
D03*
X02749146D02*
D03*
X02733396D02*
D03*
X02780648Y01752731D02*
D03*
X02764896Y01752733D02*
D03*
X02749146D02*
D03*
X02733396D02*
D03*
X02733398Y01767481D02*
D03*
X02749148D02*
D03*
X02764898D02*
D03*
X02780646Y01767483D02*
D03*
G54D32*
X01964522Y02234607D02*
D03*
Y02218607D02*
D03*
X02225522Y02206107D02*
D03*
Y02190107D02*
D03*
X01738022Y02598857D02*
D03*
Y02582857D02*
D03*
X01781022Y02543607D02*
D03*
Y02527607D02*
D03*
X02008772Y02587857D02*
D03*
Y02571857D02*
D03*
X02577022Y01809107D02*
D03*
Y01825107D02*
D03*
X02560022Y01809357D02*
D03*
Y01825357D02*
D03*
X02543522Y01808357D02*
D03*
Y01792357D02*
D03*
X02631772Y01805107D02*
D03*
Y01789107D02*
D03*
X02597522Y01851607D02*
D03*
Y01835607D02*
D03*
X03066022Y01583357D02*
D03*
Y01567357D02*
D03*
X02523522Y01752357D02*
D03*
Y01768357D02*
D03*
X01757564Y02488117D02*
D03*
Y02504117D02*
D03*
X02849522Y02689357D02*
D03*
Y02705357D02*
D03*
X01013522Y02647357D02*
D03*
Y02663357D02*
D03*
Y02698357D02*
D03*
Y02682357D02*
D03*
X02948522Y02742357D02*
D03*
Y02726357D02*
D03*
X02219522Y02413357D02*
D03*
Y02429357D02*
D03*
X01663522Y02279357D02*
D03*
Y02295357D02*
D03*
X01495522Y02278357D02*
D03*
Y02294357D02*
D03*
X01721522Y02312357D02*
D03*
Y02296357D02*
D03*
X01186772Y02721357D02*
D03*
Y02705357D02*
D03*
X01204022Y02721357D02*
D03*
Y02705357D02*
D03*
X01131022Y02588357D02*
D03*
Y02572357D02*
D03*
X01525832Y02212727D02*
D03*
Y02228727D02*
D03*
X01566142Y02142027D02*
D03*
Y02158027D02*
D03*
X01525832Y02177167D02*
D03*
Y02193167D02*
D03*
X01546272Y02157607D02*
D03*
Y02141607D02*
D03*
X01546772Y02177107D02*
D03*
Y02193107D02*
D03*
X01566472Y02193167D02*
D03*
Y02177167D02*
D03*
X01525832Y02122047D02*
D03*
Y02106047D02*
D03*
X01546152Y02122047D02*
D03*
Y02106047D02*
D03*
X01566142Y02122087D02*
D03*
Y02106087D02*
D03*
X01525502Y02142027D02*
D03*
Y02158027D02*
D03*
X01545772Y02229357D02*
D03*
Y02213357D02*
D03*
X01566472Y02228727D02*
D03*
Y02212727D02*
D03*
X01449172Y02112137D02*
D03*
Y02128137D02*
D03*
X01428852D02*
D03*
Y02112137D02*
D03*
X01408532Y02112137D02*
D03*
Y02128137D02*
D03*
X01323542Y02221147D02*
D03*
Y02237147D02*
D03*
X01292512Y02202117D02*
D03*
Y02218117D02*
D03*
X01274732Y02218117D02*
D03*
Y02202117D02*
D03*
X01256952Y02218117D02*
D03*
Y02202117D02*
D03*
X01294722Y02124137D02*
D03*
Y02108137D02*
D03*
X01274402D02*
D03*
Y02124137D02*
D03*
X01218522Y02126297D02*
D03*
Y02142297D02*
D03*
X01428852Y02161157D02*
D03*
Y02145157D02*
D03*
X01449172Y02161157D02*
D03*
Y02145157D02*
D03*
X01408532Y02214497D02*
D03*
Y02198497D02*
D03*
Y02145157D02*
D03*
Y02161157D02*
D03*
X02036522Y02459357D02*
D03*
Y02475357D02*
D03*
X02286772Y02613607D02*
D03*
Y02629607D02*
D03*
X02125772Y02593607D02*
D03*
Y02609607D02*
D03*
X02108022Y02643357D02*
D03*
Y02627357D02*
D03*
X02126272Y02656357D02*
D03*
Y02640357D02*
D03*
X02318772Y02580607D02*
D03*
Y02596607D02*
D03*
X02071772Y02613607D02*
D03*
Y02597607D02*
D03*
X02287772Y02579607D02*
D03*
Y02595607D02*
D03*
X02054772Y02597607D02*
D03*
Y02613607D02*
D03*
X02270772Y02579607D02*
D03*
Y02595607D02*
D03*
X01643772Y02278607D02*
D03*
Y02294607D02*
D03*
X01624522Y02278607D02*
D03*
Y02294607D02*
D03*
X01187872Y02448747D02*
D03*
Y02464747D02*
D03*
X01256772Y02278607D02*
D03*
Y02294607D02*
D03*
X01226272Y02332357D02*
D03*
Y02316357D02*
D03*
X01705522Y02488107D02*
D03*
Y02504107D02*
D03*
X01356022Y02579357D02*
D03*
Y02595357D02*
D03*
X01777522Y02487357D02*
D03*
Y02503357D02*
D03*
X01566662Y02278267D02*
D03*
Y02294267D02*
D03*
X01584442Y02278267D02*
D03*
Y02294267D02*
D03*
X01604762Y02278267D02*
D03*
Y02294267D02*
D03*
X01548882Y02278267D02*
D03*
Y02294267D02*
D03*
X01559042Y02317867D02*
D03*
Y02333867D02*
D03*
X01576822Y02317487D02*
D03*
Y02333487D02*
D03*
X01614922Y02317867D02*
D03*
Y02333867D02*
D03*
X01594602Y02317867D02*
D03*
Y02333867D02*
D03*
X01541262Y02317867D02*
D03*
Y02333867D02*
D03*
X01205652Y02448747D02*
D03*
Y02464747D02*
D03*
X01216142Y02485337D02*
D03*
Y02501337D02*
D03*
X01228512Y02449127D02*
D03*
Y02465127D02*
D03*
X01239772Y02294357D02*
D03*
Y02278357D02*
D03*
X01263272Y02332607D02*
D03*
Y02316607D02*
D03*
X01387022Y02486607D02*
D03*
Y02502607D02*
D03*
X01439022Y02294857D02*
D03*
Y02278857D02*
D03*
X01413552Y02448617D02*
D03*
Y02464617D02*
D03*
X01431332Y02448617D02*
D03*
Y02464617D02*
D03*
X01451522Y02447857D02*
D03*
Y02463857D02*
D03*
X01470142Y02447617D02*
D03*
Y02463617D02*
D03*
X01242772Y02332357D02*
D03*
Y02316357D02*
D03*
X01372522Y02450107D02*
D03*
Y02466107D02*
D03*
X01433022Y02334107D02*
D03*
Y02318107D02*
D03*
X01437697Y02485337D02*
D03*
Y02501337D02*
D03*
X01457112Y02485337D02*
D03*
Y02501337D02*
D03*
X01495942Y02485115D02*
D03*
Y02501115D02*
D03*
X01534772Y02485107D02*
D03*
Y02501107D02*
D03*
X01556022Y02485857D02*
D03*
Y02501857D02*
D03*
X01515357Y02485337D02*
D03*
Y02501337D02*
D03*
X01577437Y02485607D02*
D03*
Y02501607D02*
D03*
X01487922Y02447617D02*
D03*
Y02463617D02*
D03*
X01505702Y02447997D02*
D03*
Y02463997D02*
D03*
X01523482Y02447997D02*
D03*
Y02463997D02*
D03*
X01546342Y02447997D02*
D03*
Y02463997D02*
D03*
X01564122Y02447997D02*
D03*
Y02463997D02*
D03*
X01581902Y02447617D02*
D03*
Y02463617D02*
D03*
X01599682Y02447617D02*
D03*
Y02463617D02*
D03*
X01617462Y02447237D02*
D03*
Y02463237D02*
D03*
X01635242Y02463617D02*
D03*
Y02447617D02*
D03*
X01604762Y02485337D02*
D03*
Y02501337D02*
D03*
X01622542Y02485337D02*
D03*
Y02501337D02*
D03*
X01476527Y02485115D02*
D03*
Y02501115D02*
D03*
X01412272Y02545357D02*
D03*
Y02561357D02*
D03*
X01428522D02*
D03*
Y02545357D02*
D03*
X01295522Y02449607D02*
D03*
Y02465607D02*
D03*
X01604522Y02256357D02*
D03*
Y02240357D02*
D03*
X01302534Y02486058D02*
D03*
Y02502058D02*
D03*
X02763522Y02511607D02*
D03*
Y02495607D02*
D03*
X02780522Y02511357D02*
D03*
Y02495357D02*
D03*
X02823522Y02478357D02*
D03*
Y02462357D02*
D03*
X03043022Y02380607D02*
D03*
Y02364607D02*
D03*
X02755522Y02639357D02*
D03*
Y02655357D02*
D03*
X02772522Y02653357D02*
D03*
Y02637357D02*
D03*
X02806522Y02653357D02*
D03*
Y02637357D02*
D03*
X02839522Y02582357D02*
D03*
Y02598357D02*
D03*
X02854522Y02582357D02*
D03*
Y02598357D02*
D03*
X02869522Y02582357D02*
D03*
Y02598357D02*
D03*
X02884522Y02582357D02*
D03*
Y02598357D02*
D03*
X02963522Y02533357D02*
D03*
Y02517357D02*
D03*
X02731272Y02511857D02*
D03*
Y02495857D02*
D03*
X02747772Y02511857D02*
D03*
Y02495857D02*
D03*
X02797522Y02511357D02*
D03*
Y02495357D02*
D03*
X02806022Y02424357D02*
D03*
Y02440357D02*
D03*
X03051022Y02413357D02*
D03*
Y02397357D02*
D03*
X03061022Y02380857D02*
D03*
Y02364857D02*
D03*
X03073522Y02413357D02*
D03*
Y02397357D02*
D03*
X02789522Y02637357D02*
D03*
Y02653357D02*
D03*
X02907272Y02636107D02*
D03*
Y02652107D02*
D03*
X02890272Y02639857D02*
D03*
Y02655857D02*
D03*
X02873772Y02643107D02*
D03*
Y02659107D02*
D03*
X02924522Y02652107D02*
D03*
Y02636107D02*
D03*
X02941272Y02641107D02*
D03*
Y02657107D02*
D03*
X02508772Y02545857D02*
D03*
Y02529857D02*
D03*
X02525022Y02529607D02*
D03*
Y02545607D02*
D03*
X02558022Y02545607D02*
D03*
Y02529607D02*
D03*
X02574522Y02540107D02*
D03*
Y02524107D02*
D03*
X02505522Y02672357D02*
D03*
Y02688357D02*
D03*
X02523522Y02688357D02*
D03*
Y02672357D02*
D03*
X02541022Y02672607D02*
D03*
Y02688607D02*
D03*
X02558272Y02672607D02*
D03*
Y02688607D02*
D03*
X02576522Y02672607D02*
D03*
Y02688607D02*
D03*
X02168522Y02671357D02*
D03*
Y02687357D02*
D03*
X02232522Y02672357D02*
D03*
Y02688357D02*
D03*
X02305522Y02722857D02*
D03*
Y02706857D02*
D03*
X02541522Y02545607D02*
D03*
Y02529607D02*
D03*
X02894522Y02537357D02*
D03*
Y02553357D02*
D03*
X00834062Y02129177D02*
D03*
Y02113177D02*
D03*
X02738522Y02639357D02*
D03*
Y02655357D02*
D03*
X01843225Y02310623D02*
D03*
Y02326623D02*
D03*
X01861005Y02326623D02*
D03*
Y02310623D02*
D03*
X02743522Y01668357D02*
D03*
Y01652357D02*
D03*
X02723522Y01652357D02*
D03*
Y01668357D02*
D03*
X02433272Y02541357D02*
D03*
Y02525357D02*
D03*
X02399522Y02546357D02*
D03*
Y02530357D02*
D03*
X02416522Y02546357D02*
D03*
Y02530357D02*
D03*
X02364522Y02546607D02*
D03*
Y02530607D02*
D03*
X02382022Y02530357D02*
D03*
Y02546357D02*
D03*
X02347772Y02537607D02*
D03*
Y02553607D02*
D03*
X02346522Y02653357D02*
D03*
Y02637357D02*
D03*
X01843225Y02275063D02*
D03*
Y02291063D02*
D03*
X02269772Y02630607D02*
D03*
Y02646607D02*
D03*
X01521022Y02655107D02*
D03*
Y02639107D02*
D03*
X01501966Y02655007D02*
D03*
Y02639007D02*
D03*
X01463136Y02656151D02*
D03*
Y02640151D02*
D03*
X01482567Y02639387D02*
D03*
Y02655387D02*
D03*
X01443738Y02640151D02*
D03*
Y02656151D02*
D03*
X01943387Y02499644D02*
D03*
Y02483644D02*
D03*
X02832022Y01667357D02*
D03*
Y01683357D02*
D03*
X00831052Y02502847D02*
D03*
Y02518847D02*
D03*
X01325612Y02332747D02*
D03*
Y02316747D02*
D03*
X01343392Y02316367D02*
D03*
Y02332367D02*
D03*
X01254022Y02449607D02*
D03*
Y02465607D02*
D03*
X01297672Y02332367D02*
D03*
Y02316367D02*
D03*
X01246542Y02486077D02*
D03*
Y02502077D02*
D03*
X01279892Y02332367D02*
D03*
Y02316367D02*
D03*
X01500272Y02334357D02*
D03*
Y02318357D02*
D03*
X01475222Y02334247D02*
D03*
Y02318247D02*
D03*
X01520272Y02334357D02*
D03*
Y02318357D02*
D03*
X01391522Y02333857D02*
D03*
Y02317857D02*
D03*
X01421272Y02294857D02*
D03*
Y02278857D02*
D03*
X01273772Y02449107D02*
D03*
Y02465107D02*
D03*
X01371082Y02333867D02*
D03*
Y02317867D02*
D03*
X01359022Y02486607D02*
D03*
Y02502607D02*
D03*
X01329772Y02278517D02*
D03*
Y02294517D02*
D03*
X01358022Y02294607D02*
D03*
Y02278607D02*
D03*
X01274562Y02278647D02*
D03*
Y02294647D02*
D03*
X01513322Y02294267D02*
D03*
Y02278267D02*
D03*
X01456624Y02294607D02*
D03*
Y02278607D02*
D03*
X01476022Y02294357D02*
D03*
Y02278357D02*
D03*
X01351022Y02450357D02*
D03*
Y02466357D02*
D03*
X01263772Y02519107D02*
D03*
Y02535107D02*
D03*
X01413522Y02334107D02*
D03*
Y02318107D02*
D03*
X01383022Y02294607D02*
D03*
Y02278607D02*
D03*
X01855926Y02400785D02*
D03*
Y02416785D02*
D03*
X01311992Y02294517D02*
D03*
Y02278517D02*
D03*
X01292342Y02294647D02*
D03*
Y02278647D02*
D03*
X01263272Y02485607D02*
D03*
Y02501607D02*
D03*
X01285522Y02486357D02*
D03*
Y02502357D02*
D03*
X01653022Y02447617D02*
D03*
Y02463617D02*
D03*
X02451772Y01819107D02*
D03*
Y01803107D02*
D03*
X02538522Y01768357D02*
D03*
Y01752357D02*
D03*
X01395772Y02545357D02*
D03*
Y02561357D02*
D03*
X03128522Y01603357D02*
D03*
Y01587357D02*
D03*
X01924522Y02351357D02*
D03*
Y02335357D02*
D03*
X01965696Y02342737D02*
D03*
Y02358737D02*
D03*
X02475522Y02539357D02*
D03*
Y02555357D02*
D03*
G54D33*
X02045772Y02283607D02*
D03*
X02061772D02*
D03*
X02173252Y02151337D02*
D03*
X02157252D02*
D03*
X02063272Y02147857D02*
D03*
X02047272D02*
D03*
X01817772Y02561487D02*
D03*
X01801772D02*
D03*
X01964272Y02526107D02*
D03*
X01948272D02*
D03*
X01946522Y02669107D02*
D03*
X01930522D02*
D03*
X01817772Y02649607D02*
D03*
X01801772D02*
D03*
X02176272Y02285607D02*
D03*
X02160272D02*
D03*
X01817772Y02632607D02*
D03*
X01801772D02*
D03*
X01203021Y02524110D02*
D03*
X01219021D02*
D03*
X02613522Y01832607D02*
D03*
X02629522D02*
D03*
X02560522Y01791357D02*
D03*
X02576522D02*
D03*
X03003022Y02517857D02*
D03*
X03019022D02*
D03*
X00851039Y02182339D02*
D03*
X00867039D02*
D03*
X01060522Y02172857D02*
D03*
X01076522D02*
D03*
X01161022Y02607857D02*
D03*
X01177022D02*
D03*
X01159022Y02735357D02*
D03*
X01143022D02*
D03*
X01141522Y02607857D02*
D03*
X01125522D02*
D03*
X01723022Y02475357D02*
D03*
X01739022D02*
D03*
X02246022Y02462107D02*
D03*
X02262022D02*
D03*
X02292022Y02505607D02*
D03*
X02308022D02*
D03*
X02291902Y02491397D02*
D03*
X02307902D02*
D03*
X02292022Y02476607D02*
D03*
X02308022D02*
D03*
Y02462607D02*
D03*
X02292022D02*
D03*
X02780522Y02565357D02*
D03*
X02796522D02*
D03*
X02480522Y02681357D02*
D03*
X02464522D02*
D03*
X01492522Y02255357D02*
D03*
X01508522D02*
D03*
X01799022Y02455357D02*
D03*
X01783022D02*
D03*
X01141522Y02625357D02*
D03*
X01125522D02*
D03*
X01161522Y02625107D02*
D03*
X01177522D02*
D03*
X01195522Y02665357D02*
D03*
X01211522D02*
D03*
X01143022Y02717857D02*
D03*
X01159022D02*
D03*
X01124022D02*
D03*
X01108022D02*
D03*
X01651842Y02218374D02*
D03*
X01635842D02*
D03*
X01595202Y02100080D02*
D03*
X01611202D02*
D03*
X01651512Y02100097D02*
D03*
X01635512D02*
D03*
X01598122Y02218357D02*
D03*
X01614122D02*
D03*
X01681572Y02160477D02*
D03*
X01697572D02*
D03*
X01382342Y02224067D02*
D03*
X01366342D02*
D03*
X01276562Y02182177D02*
D03*
X01292562D02*
D03*
X01219552Y02197087D02*
D03*
X01235552D02*
D03*
X01235272Y02179357D02*
D03*
X01219272D02*
D03*
X01361262Y02104687D02*
D03*
X01377262D02*
D03*
X01292562Y02161857D02*
D03*
X01276562D02*
D03*
X01292182Y02141537D02*
D03*
X01276182D02*
D03*
X01238792Y02141117D02*
D03*
X01254792D02*
D03*
X01238792Y02123337D02*
D03*
X01254792D02*
D03*
X01238792Y02105557D02*
D03*
X01254792D02*
D03*
X01444092Y02198877D02*
D03*
X01460092D02*
D03*
X01443712Y02216657D02*
D03*
X01459712D02*
D03*
Y02178557D02*
D03*
X01443712D02*
D03*
X01424152D02*
D03*
X01408152D02*
D03*
X02170022Y02487607D02*
D03*
X02154022D02*
D03*
X02170022Y02471107D02*
D03*
X02154022D02*
D03*
X02170272Y02455107D02*
D03*
X02154272D02*
D03*
X02026772Y02442607D02*
D03*
X02042772D02*
D03*
X02167272Y02392107D02*
D03*
X02151272D02*
D03*
X02143772Y02342857D02*
D03*
X02127772D02*
D03*
X02167522Y02376107D02*
D03*
X02151522D02*
D03*
X02167522Y02359857D02*
D03*
X02151522D02*
D03*
X02069272Y02344107D02*
D03*
X02053272D02*
D03*
X02028272Y02361107D02*
D03*
X02044272D02*
D03*
X02028272Y02377107D02*
D03*
X02044272D02*
D03*
X02110022Y02425857D02*
D03*
X02126022D02*
D03*
X02170522Y02439107D02*
D03*
X02154522D02*
D03*
X02066022Y02426107D02*
D03*
X02050022D02*
D03*
X02168022Y02408857D02*
D03*
X02152022D02*
D03*
X02256772Y02755357D02*
D03*
X02272772D02*
D03*
X02086522Y02686607D02*
D03*
X02102522D02*
D03*
X02086522Y02671357D02*
D03*
X02102522D02*
D03*
X02136022Y02696107D02*
D03*
X02120022D02*
D03*
X02136272Y02710107D02*
D03*
X02120272D02*
D03*
X02096022Y02729607D02*
D03*
X02112022D02*
D03*
X02149022Y02730607D02*
D03*
X02133022D02*
D03*
X02096022Y02746607D02*
D03*
X02112022D02*
D03*
X01531772Y02255607D02*
D03*
X01547772D02*
D03*
X02629772Y01772357D02*
D03*
X02613772D02*
D03*
X01493022Y02520857D02*
D03*
X01477022D02*
D03*
X01592562Y02629087D02*
D03*
X01576562D02*
D03*
Y02611307D02*
D03*
X01592562D02*
D03*
X01592562Y02646867D02*
D03*
X01576562D02*
D03*
X01554622Y02617987D02*
D03*
X01538622D02*
D03*
X01538772Y02637107D02*
D03*
X01554772D02*
D03*
X01065542Y02489477D02*
D03*
X01049542D02*
D03*
X01583772Y02256107D02*
D03*
X01567772D02*
D03*
X02730522Y02424357D02*
D03*
X02746522D02*
D03*
Y02468357D02*
D03*
X02730522D02*
D03*
X02843772Y02288857D02*
D03*
X02827772D02*
D03*
X02860522Y02235357D02*
D03*
X02876522D02*
D03*
X02876522Y02302857D02*
D03*
X02860522D02*
D03*
X02831522Y02305607D02*
D03*
X02815522D02*
D03*
X02842272Y02445357D02*
D03*
X02826272D02*
D03*
X02856522Y02462857D02*
D03*
X02840522D02*
D03*
X02889522Y02445357D02*
D03*
X02873522D02*
D03*
X02889522Y02462357D02*
D03*
X02873522D02*
D03*
X03007522Y02385357D02*
D03*
X03023522D02*
D03*
X03008522Y02420357D02*
D03*
X03024522D02*
D03*
X02953772Y02439107D02*
D03*
X02969772D02*
D03*
X02746522Y02439357D02*
D03*
X02730522D02*
D03*
X02746522Y02454357D02*
D03*
X02730522D02*
D03*
X02789272Y02462107D02*
D03*
X02773272D02*
D03*
X02993522Y02701357D02*
D03*
X03009522D02*
D03*
X02993232Y02715437D02*
D03*
X03009232D02*
D03*
X02993522Y02729357D02*
D03*
X03009522D02*
D03*
Y02743357D02*
D03*
X02993522D02*
D03*
X02923022Y02512107D02*
D03*
X02939022D02*
D03*
X02889022Y02491857D02*
D03*
X02873022D02*
D03*
X03008022Y02402857D02*
D03*
X03024022D02*
D03*
X03008522Y02437357D02*
D03*
X03024522D02*
D03*
X02922522Y02482107D02*
D03*
X02938522D02*
D03*
X02922522Y02468107D02*
D03*
X02938522D02*
D03*
X02938522Y02454107D02*
D03*
X02922522D02*
D03*
X02923022Y02497107D02*
D03*
X02939022D02*
D03*
X02860522Y02520357D02*
D03*
X02876522D02*
D03*
X02976522Y02640357D02*
D03*
X02960522D02*
D03*
X02860522Y02250357D02*
D03*
X02876522D02*
D03*
X02149022Y02747607D02*
D03*
X02133022D02*
D03*
X02256772Y02698357D02*
D03*
X02272772D02*
D03*
X02256772Y02712357D02*
D03*
X02272772D02*
D03*
Y02727357D02*
D03*
X02256772D02*
D03*
Y02684357D02*
D03*
X02272772D02*
D03*
X02321522Y02685857D02*
D03*
X02337522D02*
D03*
X02365522Y02720607D02*
D03*
X02381522D02*
D03*
X02256772Y02741357D02*
D03*
X02272772D02*
D03*
X02381522Y02736607D02*
D03*
X02365522D02*
D03*
X01035482Y02116097D02*
D03*
X01019482D02*
D03*
X00854002Y02113557D02*
D03*
X00870002D02*
D03*
X01034722Y02095777D02*
D03*
X01050722D02*
D03*
X01019102Y02182137D02*
D03*
X01035102D02*
D03*
X01035482Y02133877D02*
D03*
X01019482D02*
D03*
X01035482Y02151657D02*
D03*
X01019482D02*
D03*
X00813742Y02111017D02*
D03*
X00797742D02*
D03*
X00813742Y02128797D02*
D03*
X00797742D02*
D03*
X00869622Y02131337D02*
D03*
X00853622D02*
D03*
X01057622Y02115767D02*
D03*
X01073622D02*
D03*
X01057622Y02133547D02*
D03*
X01073622D02*
D03*
X01057622Y02151327D02*
D03*
X01073622D02*
D03*
X01090331Y02195935D02*
D03*
X01106331D02*
D03*
X01799272Y02332357D02*
D03*
X01815272D02*
D03*
X02302772Y02646607D02*
D03*
X02286772D02*
D03*
X01777556Y02331327D02*
D03*
X01761557D02*
D03*
X02379522Y02616357D02*
D03*
X02363522D02*
D03*
X02741522Y01685357D02*
D03*
X02725522D02*
D03*
X01777556Y02313547D02*
D03*
X01761557D02*
D03*
X03037522Y02746357D02*
D03*
X03053522D02*
D03*
X02407522Y02663357D02*
D03*
X02423522D02*
D03*
Y02645357D02*
D03*
X02407522D02*
D03*
X02423522Y02630357D02*
D03*
X02407522D02*
D03*
X02423522Y02615357D02*
D03*
X02407522D02*
D03*
X02381522Y02688857D02*
D03*
X02365522D02*
D03*
X02381356Y02703341D02*
D03*
X02365356D02*
D03*
X01888522Y02682586D02*
D03*
X01904522D02*
D03*
X01967772Y02380607D02*
D03*
X01983772D02*
D03*
X01983067Y02415438D02*
D03*
X01967066D02*
D03*
Y02397658D02*
D03*
X01983067D02*
D03*
X01967066Y02435758D02*
D03*
X01983067D02*
D03*
X01941427Y02402738D02*
D03*
X01925426D02*
D03*
X01866772Y02483357D02*
D03*
X01882772D02*
D03*
X01554752Y02655871D02*
D03*
X01538752D02*
D03*
X01968092Y02590211D02*
D03*
X01984092D02*
D03*
Y02551382D02*
D03*
X01968092D02*
D03*
X01929992Y02551398D02*
D03*
X01945992D02*
D03*
X01968092Y02570797D02*
D03*
X01984092D02*
D03*
X01929992Y02590228D02*
D03*
X01945992D02*
D03*
X01968092Y02609626D02*
D03*
X01984092D02*
D03*
Y02629041D02*
D03*
X01968092D02*
D03*
X01929992Y02629058D02*
D03*
X01945992D02*
D03*
X01968092Y02648456D02*
D03*
X01984092D02*
D03*
X01929992Y02648473D02*
D03*
X01945992D02*
D03*
X02137522Y02149607D02*
D03*
X02121522D02*
D03*
X02123592Y02280401D02*
D03*
X02107592D02*
D03*
X02185028Y02226572D02*
D03*
X02201028D02*
D03*
Y02244352D02*
D03*
X02185028D02*
D03*
X02182632Y02265367D02*
D03*
X02198632D02*
D03*
X02145692D02*
D03*
X02161692D02*
D03*
X02145692Y02244717D02*
D03*
X02161692D02*
D03*
X02161692Y02226937D02*
D03*
X02145692D02*
D03*
X02201028Y02208792D02*
D03*
X02185028D02*
D03*
Y02191012D02*
D03*
X02201028D02*
D03*
X02202172Y02171387D02*
D03*
X02186172D02*
D03*
X02146072Y02171539D02*
D03*
X02162072D02*
D03*
X02145692Y02191377D02*
D03*
X02161692D02*
D03*
X02145692Y02209157D02*
D03*
X02161692D02*
D03*
X00843522Y02552857D02*
D03*
X00859522D02*
D03*
X02004212Y02245047D02*
D03*
X01988212D02*
D03*
X02004212Y02206947D02*
D03*
X01988212D02*
D03*
X02004212Y02224727D02*
D03*
X01988212D02*
D03*
X02044852Y02242507D02*
D03*
X02028852D02*
D03*
X02044852Y02262827D02*
D03*
X02028852D02*
D03*
X01988212D02*
D03*
X02004212D02*
D03*
X01987832Y02186627D02*
D03*
X02003832D02*
D03*
X02044852Y02224727D02*
D03*
X02028852D02*
D03*
X02028852Y02206947D02*
D03*
X02044852D02*
D03*
X02003452Y02169217D02*
D03*
X01987452D02*
D03*
X02044852Y02186627D02*
D03*
X02028852D02*
D03*
X02028852Y02166307D02*
D03*
X02044852D02*
D03*
X00812952Y02501847D02*
D03*
X00796952D02*
D03*
X00851422Y02501807D02*
D03*
X00867422D02*
D03*
X00867422Y02519587D02*
D03*
X00851422D02*
D03*
X00797332Y02519627D02*
D03*
X00813332D02*
D03*
X01032522Y02573297D02*
D03*
X01016522D02*
D03*
X01032522Y02517047D02*
D03*
X01016522D02*
D03*
X01032522Y02537697D02*
D03*
X01016522D02*
D03*
X01840437Y02460908D02*
D03*
X01856436D02*
D03*
X01820116Y02422808D02*
D03*
X01836116D02*
D03*
X01983067Y02473858D02*
D03*
X01967066D02*
D03*
Y02456078D02*
D03*
X01983067D02*
D03*
X01967066Y02491638D02*
D03*
X01983067D02*
D03*
X01856436Y02440588D02*
D03*
X01840437D02*
D03*
X01836116Y02405028D02*
D03*
X01820116D02*
D03*
X01836116Y02387248D02*
D03*
X01820116D02*
D03*
X01639522Y02261357D02*
D03*
X01623522D02*
D03*
X01440362Y02256697D02*
D03*
X01456362D02*
D03*
X01761672Y02659406D02*
D03*
X01777672D02*
D03*
Y02639991D02*
D03*
X01761672D02*
D03*
Y02620576D02*
D03*
X01777672D02*
D03*
Y02601161D02*
D03*
X01761672D02*
D03*
Y02581747D02*
D03*
X01777672D02*
D03*
Y02562332D02*
D03*
X01761672D02*
D03*
X01801772Y02614827D02*
D03*
X01817772D02*
D03*
X01801772Y02597047D02*
D03*
X01817772D02*
D03*
X01801772Y02543707D02*
D03*
X01817772D02*
D03*
X01839022Y02515357D02*
D03*
X01823022D02*
D03*
X01838656Y02499008D02*
D03*
X01822657D02*
D03*
X01838656Y02481228D02*
D03*
X01822657D02*
D03*
X02430022Y01802857D02*
D03*
X02414022D02*
D03*
X02430272Y01787857D02*
D03*
X02414272D02*
D03*
X02430272Y01773107D02*
D03*
X02414272D02*
D03*
X02414022Y01757607D02*
D03*
X02430022D02*
D03*
X02414522Y01742107D02*
D03*
X02430522D02*
D03*
X01052082Y02537737D02*
D03*
X01068082D02*
D03*
X01101102Y02585997D02*
D03*
X01085102D02*
D03*
X01068082Y02517417D02*
D03*
X01052082D02*
D03*
X01504442Y02598756D02*
D03*
X01520442D02*
D03*
X01735522Y02520357D02*
D03*
X01751522D02*
D03*
X01049022Y02465357D02*
D03*
X01033022D02*
D03*
G54D34*
X02069022Y02171804D02*
D03*
Y02260704D02*
D03*
Y02248004D02*
D03*
Y02235304D02*
D03*
Y02222604D02*
D03*
Y02209904D02*
D03*
Y02197204D02*
D03*
Y02184504D02*
D03*
X02121522Y02260704D02*
D03*
Y02248004D02*
D03*
Y02235304D02*
D03*
Y02222604D02*
D03*
Y02209904D02*
D03*
Y02197204D02*
D03*
Y02184504D02*
D03*
Y02171804D02*
D03*
X01902022Y02551407D02*
D03*
Y02564107D02*
D03*
Y02576807D02*
D03*
Y02589507D02*
D03*
Y02602207D02*
D03*
Y02614907D02*
D03*
Y02627607D02*
D03*
Y02640307D02*
D03*
X01849522Y02564107D02*
D03*
Y02576807D02*
D03*
Y02589507D02*
D03*
Y02602207D02*
D03*
Y02614907D02*
D03*
Y02627607D02*
D03*
Y02640307D02*
D03*
Y02551407D02*
D03*
G54D35*
X02501022Y02607857D02*
D03*
X02808522Y02590357D02*
D03*
X02898522Y01660357D02*
D03*
X02708522Y02595357D02*
D03*
X02343342Y02439877D02*
D03*
X02971178Y02741857D02*
D03*
X02595772Y02594877D02*
D03*
G54D36*
X03325592Y02997617D02*
D03*
X03354592D02*
D03*
X02896272Y02735107D02*
D03*
X02925272D02*
D03*
X02896022Y02710107D02*
D03*
X02925022D02*
D03*
X03274792Y02968087D02*
D03*
X03303792D02*
D03*
X03223992D02*
D03*
X03252992D02*
D03*
X03274792Y02997617D02*
D03*
X03303792D02*
D03*
X03223992Y02998567D02*
D03*
X03252992D02*
D03*
X03274792Y02937607D02*
D03*
X03303792D02*
D03*
X03223992D02*
D03*
X03252992D02*
D03*
X03355332Y02968087D02*
D03*
X03326332D02*
D03*
X03325592Y02937607D02*
D03*
X03354592D02*
D03*
X02842522Y01645607D02*
D03*
X02871522D02*
D03*
G54D37*
X02604193Y01788783D02*
D03*
X02594692D02*
D03*
X02613692D02*
D03*
Y01816283D02*
D03*
X02604193D02*
D03*
X02594692D02*
D03*
X02859022Y02564107D02*
D03*
X02878022Y02536607D02*
D03*
X02859022D02*
D03*
X02868522Y02564107D02*
D03*
X02878022D02*
D03*
G54D38*
X02532022Y01825107D02*
D03*
X02546022D02*
D03*
X01111522Y02732857D02*
D03*
X01125522D02*
D03*
X01715262Y02160897D02*
D03*
X01729262D02*
D03*
X01260022Y02162357D02*
D03*
X01246022D02*
D03*
X01553022Y02599357D02*
D03*
X01539022D02*
D03*
X02875522Y02267857D02*
D03*
X02861522D02*
D03*
X01671422Y02447997D02*
D03*
X01685422D02*
D03*
X01891272Y02660939D02*
D03*
X01905272D02*
D03*
X02430522Y01725357D02*
D03*
X02416522D02*
D03*
G54D39*
X03018022Y02455357D02*
D03*
X02963522D02*
D03*
X03018022Y02461707D02*
D03*
Y02468057D02*
D03*
Y02474407D02*
D03*
Y02480757D02*
D03*
Y02487107D02*
D03*
Y02493457D02*
D03*
Y02499807D02*
D03*
X02963522Y02461707D02*
D03*
Y02468057D02*
D03*
Y02474407D02*
D03*
Y02480757D02*
D03*
Y02487107D02*
D03*
Y02493457D02*
D03*
Y02499807D02*
D03*
X02172272Y02749582D02*
D03*
Y02743232D02*
D03*
Y02736882D02*
D03*
Y02730532D02*
D03*
Y02724182D02*
D03*
Y02717832D02*
D03*
Y02711482D02*
D03*
Y02705132D02*
D03*
X02226772Y02749582D02*
D03*
Y02743232D02*
D03*
Y02736882D02*
D03*
Y02730532D02*
D03*
Y02724182D02*
D03*
Y02717832D02*
D03*
Y02711482D02*
D03*
Y02705132D02*
D03*
G54D40*
X02301522Y02418857D02*
D03*
X02247522D02*
D03*
X02963522Y02576357D02*
D03*
X02909522D02*
D03*
X02419522Y02727357D02*
D03*
X02473522D02*
D03*
X02965522Y02325357D02*
D03*
X03019522D02*
D03*
X02247522Y02345357D02*
D03*
X02301522D02*
D03*
G54D41*
X02876022Y01570207D02*
D03*
X02850622Y01618507D02*
D03*
X02901422D02*
D03*
G54D42*
X01843475Y02346563D02*
D03*
X01858975D02*
D03*
X02888772Y02476857D02*
D03*
X02873272D02*
D03*
X01799906Y02257667D02*
D03*
X01815406D02*
D03*
X01799906Y02272907D02*
D03*
X01815406D02*
D03*
G54D43*
X00846522Y02162627D02*
D03*
Y02150087D02*
D03*
X01037371Y02212365D02*
D03*
Y02199825D02*
D03*
X00851734Y02223967D02*
D03*
Y02211427D02*
D03*
X00836562Y02485587D02*
D03*
Y02473047D02*
D03*
X01034791Y02590985D02*
D03*
Y02603524D02*
D03*
X00798462Y02625940D02*
D03*
Y02638480D02*
D03*
X00849154Y02603617D02*
D03*
Y02591077D02*
D03*
G54D44*
X02245512Y02479147D02*
D03*
X02273012Y02498147D02*
D03*
Y02479147D02*
D03*
Y02488647D02*
D03*
X02245512Y02498147D02*
D03*
X02762522Y02444357D02*
D03*
Y02434857D02*
D03*
X02790022Y02425357D02*
D03*
Y02444357D02*
D03*
X02762522Y02425357D02*
D03*
X03054272Y02729857D02*
D03*
X03026772Y02710857D02*
D03*
X03054272D02*
D03*
X03026772Y02720357D02*
D03*
Y02729857D02*
D03*
X02321522Y02703857D02*
D03*
Y02722857D02*
D03*
X02349022D02*
D03*
Y02713357D02*
D03*
Y02703857D02*
D03*
X01796447Y02310347D02*
D03*
Y02291347D02*
D03*
X01823947Y02310347D02*
D03*
X01796447Y02300847D02*
D03*
X01823947Y02291347D02*
D03*
X02390522Y02634357D02*
D03*
Y02643857D02*
D03*
Y02653357D02*
D03*
X02363022D02*
D03*
Y02634357D02*
D03*
G54D45*
X00756772Y02845357D02*
D03*
X00850272D02*
D03*
Y02955357D02*
D03*
X00756772D02*
D03*
G54D46*
X01189452Y02367717D02*
D03*
X01197452Y02416957D02*
D03*
X01213452Y02367717D02*
D03*
X01221452Y02416957D02*
D03*
X01237452Y02367717D02*
D03*
X01245452Y02416957D02*
D03*
X01277452Y02367717D02*
D03*
X01301452D02*
D03*
X01309452Y02416957D02*
D03*
X01341452D02*
D03*
X01349452Y02367717D02*
D03*
X01453452D02*
D03*
X01525452D02*
D03*
X01581452D02*
D03*
X01637452D02*
D03*
X01165452D02*
D03*
Y02416957D02*
D03*
X01173452Y02367717D02*
D03*
Y02416957D02*
D03*
X01181452Y02367717D02*
D03*
Y02416957D02*
D03*
X01189452Y02416957D02*
D03*
X01197452Y02367717D02*
D03*
X01205452D02*
D03*
X01205452Y02416957D02*
D03*
X01213452Y02416957D02*
D03*
X01221452Y02367717D02*
D03*
X01229452D02*
D03*
Y02416957D02*
D03*
X01237452D02*
D03*
X01245452Y02367717D02*
D03*
X01253452D02*
D03*
Y02416957D02*
D03*
X01261452Y02367717D02*
D03*
Y02416957D02*
D03*
X01269452Y02367717D02*
D03*
Y02416957D02*
D03*
X01277452D02*
D03*
X01285452Y02367717D02*
D03*
Y02416957D02*
D03*
X01293452Y02367717D02*
D03*
Y02416957D02*
D03*
X01301452D02*
D03*
X01309452Y02367717D02*
D03*
X01317452D02*
D03*
Y02416957D02*
D03*
X01325452Y02367717D02*
D03*
Y02416957D02*
D03*
X01333452Y02367717D02*
D03*
Y02416957D02*
D03*
X01341452Y02367717D02*
D03*
X01349452Y02416957D02*
D03*
X01357452Y02367717D02*
D03*
Y02416957D02*
D03*
X01365452Y02367717D02*
D03*
Y02416957D02*
D03*
X01373452Y02367717D02*
D03*
Y02416957D02*
D03*
X01381452Y02367717D02*
D03*
Y02416957D02*
D03*
X01421452Y02367717D02*
D03*
Y02416957D02*
D03*
X01429452Y02367717D02*
D03*
Y02416957D02*
D03*
X01437452Y02367717D02*
D03*
Y02416957D02*
D03*
X01445452Y02367717D02*
D03*
Y02416957D02*
D03*
X01453452D02*
D03*
X01461452Y02367717D02*
D03*
Y02416957D02*
D03*
X01469452Y02367717D02*
D03*
Y02416957D02*
D03*
X01477452Y02367717D02*
D03*
Y02416957D02*
D03*
X01485452Y02367717D02*
D03*
Y02416957D02*
D03*
X01493452Y02367717D02*
D03*
Y02416957D02*
D03*
X01501452Y02367717D02*
D03*
Y02416957D02*
D03*
X01509452Y02367717D02*
D03*
Y02416957D02*
D03*
X01517452Y02367717D02*
D03*
Y02416957D02*
D03*
X01525452D02*
D03*
X01533452Y02367717D02*
D03*
Y02416957D02*
D03*
X01541452Y02367717D02*
D03*
Y02416957D02*
D03*
X01549452Y02367717D02*
D03*
Y02416957D02*
D03*
X01557452Y02367717D02*
D03*
Y02416957D02*
D03*
X01565452Y02367717D02*
D03*
Y02416957D02*
D03*
X01573452Y02367717D02*
D03*
Y02416957D02*
D03*
X01581452D02*
D03*
X01589452Y02367717D02*
D03*
Y02416957D02*
D03*
X01597452Y02367717D02*
D03*
Y02416957D02*
D03*
X01605452Y02367717D02*
D03*
Y02416957D02*
D03*
X01613452Y02367717D02*
D03*
Y02416957D02*
D03*
X01621452Y02367717D02*
D03*
Y02416957D02*
D03*
X01629452Y02367717D02*
D03*
Y02416957D02*
D03*
X01637452D02*
D03*
X01645452Y02367717D02*
D03*
Y02416957D02*
D03*
X01653452Y02367717D02*
D03*
Y02416957D02*
D03*
X01661452Y02367717D02*
D03*
Y02416957D02*
D03*
X01669452Y02367717D02*
D03*
Y02416957D02*
D03*
G54D47*
X01803722Y02174357D02*
D03*
X01854522D02*
D03*
X01905322D02*
D03*
X01778322Y02206407D02*
D03*
X01829122D02*
D03*
X01879922D02*
D03*
X01930722D02*
D03*
G54D48*
X01642022Y02769357D02*
D03*
Y02737357D02*
D03*
X01642440Y02701417D02*
D03*
Y02669417D02*
D03*
X02563522Y01730357D02*
D03*
Y01762357D02*
D03*
Y01684357D02*
D03*
Y01716357D02*
D03*
X02538522Y01654357D02*
D03*
Y01686357D02*
D03*
X01618522Y02704357D02*
D03*
Y02736357D02*
D03*
X01700772Y02669357D02*
D03*
Y02701357D02*
D03*
X01726022Y02704357D02*
D03*
Y02736357D02*
D03*
X01296022Y02748857D02*
D03*
Y02716857D02*
D03*
X01701022Y02735857D02*
D03*
Y02767857D02*
D03*
X01196022Y02771357D02*
D03*
Y02739357D02*
D03*
X01221022Y02803857D02*
D03*
Y02771857D02*
D03*
X01296022Y02816357D02*
D03*
Y02784357D02*
D03*
X01271022Y02750857D02*
D03*
Y02782857D02*
D03*
X01196022Y02804357D02*
D03*
Y02836357D02*
D03*
G54D49*
X01128972Y02646107D02*
D03*
X01141672D02*
D03*
X01154372D02*
D03*
X01167072D02*
D03*
Y02700107D02*
D03*
X01154372D02*
D03*
X01141672D02*
D03*
X01128972D02*
D03*
G54D50*
X02381522Y02452607D02*
D03*
Y02481607D02*
D03*
X02406022Y02452607D02*
D03*
Y02481607D02*
D03*
X02741022Y01562357D02*
D03*
Y01591357D02*
D03*
G54D51*
X02066272Y02485857D02*
D03*
Y02479357D02*
D03*
Y02472857D02*
D03*
Y02466357D02*
D03*
Y02459857D02*
D03*
Y02453357D02*
D03*
Y02446857D02*
D03*
Y02440357D02*
D03*
X02125272Y02485857D02*
D03*
Y02479357D02*
D03*
Y02472857D02*
D03*
Y02466357D02*
D03*
Y02459857D02*
D03*
Y02453357D02*
D03*
Y02446857D02*
D03*
Y02440357D02*
D03*
X02069272Y02403607D02*
D03*
Y02397107D02*
D03*
Y02390607D02*
D03*
Y02384107D02*
D03*
Y02377607D02*
D03*
Y02371107D02*
D03*
Y02364607D02*
D03*
Y02358107D02*
D03*
X02128272Y02403607D02*
D03*
Y02397107D02*
D03*
Y02390607D02*
D03*
Y02384107D02*
D03*
Y02377607D02*
D03*
Y02371107D02*
D03*
Y02364607D02*
D03*
Y02358107D02*
D03*
X01941332Y02422687D02*
D03*
Y02429187D02*
D03*
Y02435687D02*
D03*
Y02442187D02*
D03*
Y02448687D02*
D03*
Y02455187D02*
D03*
Y02461687D02*
D03*
X01882332Y02422687D02*
D03*
Y02429187D02*
D03*
Y02435687D02*
D03*
Y02442187D02*
D03*
Y02448687D02*
D03*
Y02455187D02*
D03*
Y02461687D02*
D03*
G54D52*
X02149022Y02633857D02*
D03*
Y02627357D02*
D03*
Y02614357D02*
D03*
Y02607857D02*
D03*
X02248522Y02536357D02*
D03*
Y02542857D02*
D03*
Y02549357D02*
D03*
Y02555857D02*
D03*
Y02562357D02*
D03*
Y02568857D02*
D03*
Y02575357D02*
D03*
Y02581857D02*
D03*
Y02588357D02*
D03*
Y02594857D02*
D03*
Y02601357D02*
D03*
Y02607857D02*
D03*
Y02614357D02*
D03*
Y02620857D02*
D03*
Y02627357D02*
D03*
Y02633857D02*
D03*
Y02640357D02*
D03*
Y02646857D02*
D03*
X02149022D02*
D03*
Y02640357D02*
D03*
Y02620857D02*
D03*
Y02601357D02*
D03*
Y02594857D02*
D03*
Y02588357D02*
D03*
Y02581857D02*
D03*
Y02575357D02*
D03*
Y02568857D02*
D03*
Y02562357D02*
D03*
Y02555857D02*
D03*
Y02549357D02*
D03*
Y02542857D02*
D03*
Y02536357D02*
D03*
G54D53*
X02108772Y02591607D02*
D03*
Y02609607D02*
D03*
G54D54*
X02089772Y02595607D02*
D03*
Y02609607D02*
D03*
X02993522Y01797357D02*
D03*
Y01783357D02*
D03*
X03011022Y02557357D02*
D03*
Y02543357D02*
D03*
X01881352Y02406007D02*
D03*
Y02392007D02*
D03*
X02149522Y02662357D02*
D03*
Y02676357D02*
D03*
G54D55*
X02303772Y02579857D02*
D03*
Y02595357D02*
D03*
X01858522Y02274607D02*
D03*
Y02290107D02*
D03*
G54D56*
X02922522Y02286357D02*
D03*
Y02232357D02*
D03*
G54D57*
X02678522Y01826357D02*
D03*
Y01774357D02*
D03*
G54D58*
X01742671Y02502617D02*
D03*
Y02496117D02*
D03*
Y02489617D02*
D03*
X01723171Y02496117D02*
D03*
Y02489617D02*
D03*
Y02502617D02*
D03*
G54D59*
X01400022Y02597607D02*
D03*
X01387022Y02578107D02*
D03*
X01393522D02*
D03*
X01400022D02*
D03*
X01393522Y02597607D02*
D03*
X01387022D02*
D03*
G54D60*
X01396022Y02627857D02*
D03*
X01356022D02*
D03*
G54D61*
X02452772Y01740307D02*
D03*
Y01753007D02*
D03*
Y01765707D02*
D03*
Y01778407D02*
D03*
X02506772D02*
D03*
Y01765707D02*
D03*
Y01753007D02*
D03*
Y01740307D02*
D03*
G54D62*
X02636022Y02432857D02*
D03*
X02596022D02*
D03*
X02603522Y02472857D02*
D03*
X02643522D02*
D03*
X02651022Y02512857D02*
D03*
X02611022D02*
D03*
X02666022Y02757857D02*
D03*
X02706022D02*
D03*
X02666022Y02797857D02*
D03*
X02706022D02*
D03*
X02806022Y01812857D02*
D03*
X02766022D02*
D03*
X02706022Y02717857D02*
D03*
X02666022D02*
D03*
G54D63*
X02859272Y02287357D02*
D03*
X02877272D02*
D03*
G54D64*
X02754022Y02539857D02*
D03*
X02788022D02*
D03*
X02754772Y02682857D02*
D03*
X02788772D02*
D03*
X02928772D02*
D03*
X02894772D02*
D03*
X02551522Y02645107D02*
D03*
X02517522D02*
D03*
X02378522Y02502607D02*
D03*
X02412522D02*
D03*
X02516022Y02502357D02*
D03*
X02550022D02*
D03*
G54D65*
X02808112Y02691607D02*
D03*
X02828432D02*
D03*
X02826932Y02544607D02*
D03*
X02806612D02*
D03*
X02945362Y02693107D02*
D03*
X02965682D02*
D03*
X02500682Y02632357D02*
D03*
X02480362D02*
D03*
X02358432Y02490857D02*
D03*
X02338112D02*
D03*
X02500432Y02490357D02*
D03*
X02480112D02*
D03*
X02853362Y01671857D02*
D03*
X02873682D02*
D03*
G54D66*
X02836272Y02325607D02*
D03*
X02868772Y02425107D02*
D03*
X02875272D02*
D03*
X02836272D02*
D03*
X02842772D02*
D03*
X02933772Y02325607D02*
D03*
X02927272D02*
D03*
X02920772D02*
D03*
X02914272D02*
D03*
X02907772D02*
D03*
X02901272D02*
D03*
X02894772D02*
D03*
X02888272D02*
D03*
X02881772D02*
D03*
X02875272D02*
D03*
X02868772D02*
D03*
X02849272D02*
D03*
X02829772D02*
D03*
X02823272D02*
D03*
X02862272D02*
D03*
X02855772D02*
D03*
X02823272Y02425107D02*
D03*
X02829772D02*
D03*
X02855772D02*
D03*
X02862272D02*
D03*
X02881772D02*
D03*
X02888272D02*
D03*
X02894772D02*
D03*
X02901272D02*
D03*
X02907772D02*
D03*
X02914272D02*
D03*
X02920772D02*
D03*
X02927272D02*
D03*
X02933772D02*
D03*
X02842772Y02325607D02*
D03*
X02849272Y02425107D02*
D03*
G54D67*
X02831022Y02525107D02*
D03*
Y02511607D02*
D03*
X02832522Y02673107D02*
D03*
Y02659607D02*
D03*
X02474522Y02512607D02*
D03*
Y02526107D02*
D03*
X02479022Y02654607D02*
D03*
Y02668107D02*
D03*
X02335272Y02526107D02*
D03*
Y02512607D02*
D03*
G54D68*
X02956772Y02670357D02*
D03*
X02970272D02*
D03*
G54D69*
X02753647Y02707857D02*
D03*
X02786397D02*
D03*
X02959897Y01785357D02*
D03*
X02927147D02*
D03*
X02508147Y02724357D02*
D03*
X02540897D02*
D03*
X02715772Y01630357D02*
D03*
X02748522D02*
D03*
G54D70*
X02711022Y01603257D02*
D03*
Y01562457D02*
D03*
G54D71*
X00897322Y02097047D02*
D03*
Y02109747D02*
D03*
Y02122447D02*
D03*
Y02135147D02*
D03*
Y02147847D02*
D03*
Y02160547D02*
D03*
Y02173247D02*
D03*
Y02185947D02*
D03*
Y02198647D02*
D03*
Y02211347D02*
D03*
X00994322D02*
D03*
Y02198647D02*
D03*
Y02185947D02*
D03*
Y02173247D02*
D03*
Y02147847D02*
D03*
Y02135147D02*
D03*
Y02122447D02*
D03*
Y02109747D02*
D03*
Y02097047D02*
D03*
Y02160547D02*
D03*
X00988962Y02527577D02*
D03*
Y02552977D02*
D03*
Y02489477D02*
D03*
Y02502177D02*
D03*
Y02514877D02*
D03*
Y02540277D02*
D03*
Y02565677D02*
D03*
Y02578377D02*
D03*
Y02591077D02*
D03*
Y02603777D02*
D03*
X00891962D02*
D03*
Y02591077D02*
D03*
Y02578377D02*
D03*
Y02565677D02*
D03*
Y02552977D02*
D03*
Y02540277D02*
D03*
Y02527577D02*
D03*
Y02514877D02*
D03*
Y02502177D02*
D03*
Y02489477D02*
D03*
G54D72*
X01016942Y02084697D02*
D03*
Y02096697D02*
D03*
Y02210997D02*
D03*
Y02198997D02*
D03*
X00872162Y02211697D02*
D03*
Y02223697D02*
D03*
X00872522Y02162357D02*
D03*
Y02150357D02*
D03*
X01014362Y02500557D02*
D03*
Y02488557D02*
D03*
Y02602157D02*
D03*
Y02590157D02*
D03*
X00869582Y02473317D02*
D03*
Y02485317D02*
D03*
Y02602157D02*
D03*
Y02590157D02*
D03*
G54D73*
X01062771Y02198475D02*
D03*
Y02218795D02*
D03*
X00826334Y02213967D02*
D03*
Y02234287D02*
D03*
X00824522Y02171677D02*
D03*
Y02151357D02*
D03*
X00813702Y02461537D02*
D03*
Y02481857D02*
D03*
X01060191Y02607415D02*
D03*
Y02587095D02*
D03*
X00826293Y02587187D02*
D03*
Y02607507D02*
D03*
G54D74*
X00806022Y02211857D02*
D03*
Y02203857D02*
D03*
G54D75*
X02812732Y01683127D02*
D03*
X02800032D02*
D03*
X02774632D02*
D03*
X02812732Y01628627D02*
D03*
X02800032D02*
D03*
X02787332D02*
D03*
X02774632D02*
D03*
G54D76*
X02825022Y01722557D02*
D03*
Y01768157D02*
D03*
G54D77*
X02883522Y01778792D02*
D03*
Y01707422D02*
D03*
G54D78*
X01765864Y02273167D02*
D03*
Y02295167D02*
D03*
G54D79*
X01560472Y02680518D02*
D03*
X01547772D02*
D03*
X01535072D02*
D03*
X01522372D02*
D03*
X01509672D02*
D03*
X01496972D02*
D03*
X01484272D02*
D03*
X01471572D02*
D03*
G54D80*
X01490622Y02778018D02*
D03*
X01541422D02*
D03*
G54D81*
X03027022Y01614357D02*
D03*
X02932022D02*
D03*
G54D82*
X00820772Y02428107D02*
D03*
X00795772D02*
D03*
Y02382607D02*
D03*
X00820772D02*
D03*
G54D83*
X00798772Y02362357D02*
D03*
Y02341357D02*
D03*
X00819772Y02362357D02*
D03*
Y02341357D02*
D03*
G54D84*
X02430272Y02457607D02*
D03*
X02479272D02*
D03*
X02875022Y02737357D02*
D03*
X02826022D02*
D03*
G54D85*
X00805002Y02609067D02*
D03*
X00797002D02*
D03*
G54D86*
X00807022Y02274357D02*
D03*
X00786022D02*
D03*
X00807022Y02254357D02*
D03*
X00786022D02*
D03*
G54D87*
X00870272Y02251857D02*
D03*
Y02276857D02*
D03*
X00824772D02*
D03*
Y02251857D02*
D03*
G54D88*
X03263522Y01560357D02*
D03*
X01125522Y02080357D02*
D03*
X01308522Y03210357D02*
D03*
M02*
