M48
;Layer_Color=9474304
;FILE_FORMAT=4:4
METRIC
;TYPE=PLATED
T1F00S00C0.2000
T2F00S00C0.2540
T4F00S00C0.7400
T5F00S00C0.7500
T6F00S00C0.8000
T8F00S00C0.8400
T9F00S00C0.8500
T10F00S00C0.9000
T11F00S00C1.0000
T12F00S00C1.0160
T13F00S00C1.1500
T14F00S00C1.3000
T15F00S00C1.4000
T16F00S00C1.5000
T17F00S00C2.0000
T18F00S00C3.2000
;TYPE=NON_PLATED
T19F00S00C0.7500
T20F00S00C1.0200
T21F00S00C1.2700
T22F00S00C4.4000
%
T01
X01732921Y02490617
Y02501617
T02
X03023522Y01582857
X03078522Y01565357
X02758522Y01560357
X02755507Y01720094
X02755522Y01727557
X02763022
X02763007Y01720094
X02770507
X02770522Y01727557
Y01735057
Y01742557
Y01750057
Y01757557
X02763022
X02755522
Y01750057
X02763022
Y01742557
X02755522
Y01735057
X02763022
X02748022
Y01727557
X02748007Y01720094
X02740507
X02740522Y01727557
Y01735057
Y01742557
X02748022
Y01750057
X02740522
Y01757557
X02748022
X02733022
Y01750057
Y01742557
Y01735057
Y01727557
X02733007Y01720094
X02601272Y01777107
X02554022Y01780857
X02513522Y01785357
X02503522
X02493522Y01755357
X02470272Y01717607
X02409891Y01725107
X02406222Y01745357
Y01756530
Y01790357
X02413522Y01815357
X02423522Y01851238
X02496022Y01865357
X02506022
X02516022
X02526022
X02523522Y01875357
X02513522
Y01885357
X02523522
Y01895357
X02513522
X02503522
X02493522
Y01885357
X02503522
Y01875357
X02493522
X02496022Y01945357
X02533522Y01810357
X02463022Y01803107
X02833522Y01800357
X02838522Y01805357
X02833522Y01810357
X02838522Y01815357
X02833522Y01820357
X02978522Y01817857
X02988522
X02993522Y01810357
X02986022Y01802857
X02978522
X03013522Y01805357
Y01795357
Y01786357
X03023522Y01795357
Y01805357
X03033522Y01795357
X03013522Y01815357
X03138522Y01605357
X02828522
X02801022Y01612857
X02815772Y02285107
X02828522Y02280357
X02816022Y02320357
Y02327857
X02851022Y02312857
X02886022Y02302857
X02893522
X02901022
X02908522
Y02287857
X02901130Y02287953
X02893522Y02287857
X02886022
X02936022
Y02302857
X02938522Y02312857
X02946022
Y02305357
X02953522
Y02312857
X02961022
X02942076Y02321169
Y02327857
X02959561Y02283387
X02973522Y02270357
X02988522Y02255357
X02983522Y02245357
X03001022Y02237857
X02993522Y02225357
X03013522Y02222857
X03023522Y02235357
X03036022Y02220357
X03043522Y02205357
X03061022Y02220357
X03053522Y02235357
X03100522Y02257357
X03003522Y02275357
X02963522Y02235357
X02876022Y02225357
X03007272Y02371857
X03044022Y02351357
X03052522Y02345357
X03061272Y02351357
X03073522Y02370357
X02600672Y02366857
X02592922
X02585172
Y02374607
X02592922
X02600672
X02577422
Y02366857
X02423522Y02367857
Y02373857
X02416022
Y02367857
X02408522
Y02373857
X02401022
Y02367857
X02393522
Y02373857
X02386022
Y02367857
X02456022Y02195357
Y02177857
Y02157857
X02453522Y02140357
Y02122857
X02402522Y02080357
X02395522Y02069357
X02402522Y02059357
X02456022Y02012857
X02603522Y02020357
Y02003357
Y02037357
Y02055357
Y02071357
Y02089357
Y02107357
Y02123357
Y02138357
Y02154357
X02371572Y02140240
X02301022Y02127857
Y02091357
Y02085357
X02293522
Y02091357
X02286022
Y02085357
X02278522
Y02091357
X02271022
Y02085357
X02308522
Y02091357
X02213483Y02065409
X02213522Y02147357
X02195522Y02148357
X02189022Y02134857
X02173522Y02172607
X02173022Y02191357
X02172272Y02208857
X02173022Y02226607
X02173522Y02244607
X02172272Y02264857
X02207132Y02265367
X02213022Y02244107
X02212522Y02227357
X02211522Y02209357
X02211022Y02192107
X02213022Y02171607
X02228522Y02167857
X02242522Y02182857
X02244522Y02151357
X02137272Y02128357
X02079522Y02129357
X02077685Y02145694
X02069272Y02162107
X02055772Y02191857
X02057022Y02208607
X02056447Y02239432
X02057272Y02271357
X02067522Y02270357
X02083522Y02275357
X02084272Y02286357
X02096022Y02280357
X02140022Y02286107
X02145772Y02279357
X02144022Y02304357
X02117022Y02313857
X02113772Y02336107
X02128522Y02351107
X02140772Y02362107
X02141272Y02372857
X02139772Y02380357
X02166772Y02324857
X02181522Y02322357
Y02313357
X02231022Y02357857
X02239147
X02247272
X02255397
X02263522
X02260522Y02367857
X02253147
X02245772
X02238397
X02231022
X02327522Y02367857
X02333522
Y02375357
X02327522
X02341022Y02373857
Y02367857
X02348522
Y02373857
X02356022
Y02367857
X02363522
Y02373857
X02371022
Y02367857
X02378522
Y02373857
X02285730Y02311651
X02328522Y02222357
X02133665Y02224500
X02016772Y02224607
X02017272Y02207107
Y02186607
X02017772Y02167107
Y02243607
X02017272Y02262357
X02017022Y02290107
X02046772Y02324107
X02069022Y02333857
X02054022Y02363607
X02054522Y02374857
X02033772Y02347607
X02008522Y02379357
X02114461Y02075872
X01968522Y02070357
X01958522
X01940522Y02131357
Y02139357
Y02148357
Y02157357
X01924522
X01917522Y02162357
X01905542Y02159100
X01903522Y02145357
X01907772Y02138107
X01911522Y02120357
X01880522Y02139357
X01879522Y02151357
X01876772Y02237107
X01873522Y02263357
X01918522Y02258357
X01912522Y02237357
X01930722Y02281406
X01924772Y02324107
X01906522Y02324357
X01890772Y02321107
X01897522Y02305357
X01873772Y02338107
X01830772Y02326107
X01820595Y02350945
X01822522Y02357357
X01837522Y02363357
X01827772Y02376107
X01758542Y02361100
X01764522Y02345357
X01749522Y02348357
X01743772Y02336107
X01722772Y02345107
X01720772Y02323107
X01710493Y02328787
X01704522Y02323357
X01685781Y02320526
X01684781Y02309525
X01663522Y02304357
X01643022Y02306357
X01637772Y02319107
X01625772
X01627780Y02331526
X01621522Y02348357
X01600312Y02345780
X01594522Y02305357
X01624272Y02306107
X01633522Y02279107
X01653272Y02278857
X01650522Y02260357
X01668772Y02261107
X01666542Y02237100
X01671542Y02231100
X01645542
X01635522Y02229857
X01622542Y02235100
X01614022Y02230107
X01594522Y02240357
Y02254357
X01611022Y02267857
X01605542Y02208100
X01623522Y02197857
X01623555Y02187587
X01623522Y02165357
Y02152857
Y02120067
X01708305Y02130067
X01707522Y02160357
X01728772Y02152107
X01761522Y02155357
X01755772Y02180107
X01756542Y02206100
X01760542Y02217100
X01769772Y02224107
X01772542Y02246100
X01739772Y02217107
X01735272Y02210607
X01749542Y02304100
X01784772Y02300857
X01826272Y02257857
X01966522Y02262357
X01976772Y02262107
X01977022Y02245607
X01977272Y02224357
X01977522Y02207107
X01966522Y02202857
X01957772Y02192107
X01976522Y02185607
X01977022Y02168607
X01953522Y02362857
X01955772Y02380607
X01683772Y02345107
X01675780Y02289525
X01688272Y02271857
X01566272Y02266357
X01549272
X01539542Y02267100
X01531522Y02266607
X01520522Y02254357
X01518272Y02242857
X01500542Y02243100
X01492522Y02242357
X01478542Y02243100
X01467522Y02255357
X01456272Y02266857
X01429772Y02256857
X01411522Y02256357
X01404522Y02273357
X01393522Y02278857
X01368522Y02278107
X01371522Y02307357
X01413772Y02306607
X01432772Y02306857
X01449522Y02309357
X01476022Y02304857
X01485522Y02306357
X01506522Y02305357
X01541272Y02305607
X01558522Y02305857
X01576272Y02306357
X01530542Y02318100
X01534542Y02348100
X01525522Y02349607
X01515416Y02344751
X01453772Y02349357
X01343522Y02343857
X01311022Y02340357
X01302022Y02348857
X01280272Y02343607
X01279522Y02305357
X01271022Y02305357
X01260022Y02305107
X01253022Y02265857
X01292334Y02267292
X01288522Y02260357
X01329522Y02267607
X01341022Y02294607
X01366022Y02235607
X01382272Y02235357
X01398522Y02237857
X01443772Y02226857
X01459772Y02226607
X01496683Y02218161
X01509542Y02215100
X01514522Y02227357
X01514272Y02192857
X01536272Y02193107
X01535272Y02157357
X01514272Y02157607
X01513772Y02138107
X01495772Y02149107
X01459522Y02160857
X01439184Y02160220
X01397772Y02161357
X01392772Y02167607
X01351022Y02175357
Y02187857
Y02200357
X01306184Y02155220
X01267772Y02161107
X01238522Y02162107
X01207522Y02179357
X01208022Y02197107
X01257522Y02229357
X01203522Y02275357
X01193522Y02315357
X01216022Y02316357
X01213772Y02350107
X01237272Y02349857
X01265522Y02132107
X01226272Y02110357
X01218522Y02114107
X01238522Y02095357
X01361272Y02093607
X01460272Y02112357
X01514272Y02106857
X01576542Y02133100
Y02164100
X01578542Y02239100
X01549522Y02241357
X01557542Y02254100
X01471522Y02178857
X01186772Y02191857
X01120780Y02199525
X01047772Y02182107
X01035522Y02164357
X01011781Y02164525
X01008522Y02149607
X01008272Y02122857
X01046184Y02117220
Y02134220
X01057522Y02160857
X01061772Y02094107
X01073772Y02105857
X01017022Y02075607
X01007682Y02185947
X01017272Y02222107
X01021022Y02295357
Y02301357
X01028522
Y02295357
X01036022
Y02301357
X01043522
Y02295357
X01051022
Y02301357
X01058522
Y02295357
X01015022Y02319607
X00877772Y02321107
X00881022Y02275357
X00881947Y02250568
X00882137Y02211697
X00881780Y02198525
X00882522Y02186357
Y02161357
X00881780Y02148525
X00882288Y02133640
X00878781Y02096525
X00870522Y02104357
X00833781Y02102525
X00799781Y02100526
X00798522Y02139357
X00808522Y02151357
X00798288Y02331640
X00820288Y02332640
X01189272Y02350107
X01179781Y02112525
X01182781Y02090526
X00772781Y02459525
X00793522Y02491357
X00797022Y02529857
X00840772Y02502607
X00891022Y02472857
X00870288Y02449640
X00821022Y02441357
X00795272Y02442357
X00876272Y02553357
X00891962Y02584727
X00825780Y02619525
X00811272Y02626857
X01014022Y02616107
X01032772Y02649107
X01033522Y02712857
X01027522
Y02720357
X01033522
Y02727857
X01027522
Y02735357
X01033522
Y02742857
X01027522
Y02750357
X01033522
X01047522Y02747857
X01053522
Y02740357
X01047522
Y02732857
X01053522
Y02755357
X01047522
Y02762857
X01053522
Y02770357
X01047522
X01103522Y02732857
X01098522Y02717857
X01174522Y02645357
X01188522Y02625357
X01153522Y02567857
Y02560357
X01133522Y02542357
X01138522Y02522857
X01128522Y02505357
X01123522Y02490357
X01117522
Y02482857
X01123522
Y02475357
X01117522
Y02467857
X01123522
Y02460357
X01117522
Y02452857
X01123522
X01162772Y02480107
X01188022Y02476357
X01076772Y02488107
X01079184Y02518220
X01080184Y02539220
X01031772Y02548107
X01017184Y02563220
X01006272Y02553357
X01005772Y02527607
X01005062Y02502053
X01023272Y02500357
X01021022Y02470357
X01058522Y02465357
X01043522Y02576357
X01196022Y02560357
X01228781Y02549525
X01263522Y02546357
X01251542Y02534100
X01246272Y02514107
X01216272Y02511857
X01203102Y02511118
X01228522Y02493891
X01235522Y02486357
X01273522Y02475857
X01295522
X01314272Y02485857
X01319780Y02518526
X01325522Y02523357
X01332772Y02532107
X01378542Y02524100
X01387022Y02513357
X01396781Y02491525
X01413522Y02475357
X01427022Y02486107
X01447522Y02475357
X01457022Y02474857
X01459932Y02447597
X01461772Y02438357
X01413522Y02438107
X01349522Y02434607
X01340772Y02434107
X01323522Y02445357
X01308772Y02435107
X01294732Y02439957
X01245174Y02435310
X01221674Y02435560
X01193772Y02437607
X01287780Y02519525
X01311022Y02580357
X01338272Y02595107
X01371022Y02582857
X01376781Y02561526
X01380522Y02545107
X01418522Y02519357
X01435522
X01450522Y02524357
X01465022Y02521857
X01457022Y02513357
X01460542Y02541100
X01449697Y02542145
X01440272Y02539857
X01449522Y02561357
X01432859Y02576020
X01410272Y02598357
X01443522Y02629857
X01482522Y02627357
X01502522Y02612357
X01520272Y02609607
X01521522Y02627357
X01556022Y02627857
X01564522Y02618357
X01577022Y02599857
X01532781Y02586526
X01538781Y02571526
X01506781Y02561526
X01496781Y02573525
X01481522Y02588357
X01485542Y02541100
X01490522Y02535357
X01505272Y02521107
X01514780Y02524525
X01532522Y02518357
X01539522Y02519357
X01555522
X01577772Y02519107
X01581272Y02473857
X01564272Y02474857
X01546522Y02474357
X01523522
X01505272Y02474857
X01487272Y02473857
X01495772Y02511107
X01528781Y02539525
X01524772Y02434107
X01581272Y02434857
X01581022Y02385357
X01372772Y02476607
X01351272Y02477107
X01263522Y02592857
X01220780Y02589525
X01211022Y02610357
Y02620357
X01243522Y02660357
Y02675357
X01261022
Y02660357
X01278522
Y02675357
X01214828Y02721281
X01363522Y02700357
X01455522Y02680357
X01641022Y02660357
X01698522
X01733522Y02652857
X01749522Y02659857
X01750772Y02639857
X01749272Y02620607
X01751772Y02600857
X01751272Y02581107
X01788772Y02570107
X01791272Y02561357
X01803522Y02575357
X01790022Y02597607
X01790522Y02614357
X01789772Y02632357
X01802522Y02661607
X01775272Y02668857
X01829522Y02639357
X01833857Y02615577
X01837189Y02590567
X01849522Y02545672
X01849772Y02515357
X01824022Y02526607
X01803522Y02535357
X01811272Y02505857
X01784772Y02510857
X01758522Y02477857
X01765522Y02467357
X01749522Y02461357
X01740022Y02448857
X01751022Y02437857
X01763062Y02428660
X01762522Y02395357
X01726772Y02434107
X01711022Y02440397
X01702780Y02431526
X01698522Y02422857
X01687772Y02435107
X01694522Y02448107
X01708522Y02464019
X01716772Y02464357
X01693772Y02491107
X01697542Y02518100
X01708772Y02531093
X01738522Y02527857
X01706772Y02570107
X01655542Y02570100
X01626781Y02557525
X01627542Y02585100
X01603564Y02536309
X01594522Y02538357
X01599272Y02473857
X01617272
X01635272Y02475357
X01642272Y02480857
X01671272Y02458857
X01658772Y02435107
X01590780Y02440525
X01674272Y02512857
X01823522Y02463357
X01828772Y02441107
X01819522Y02434607
X01802772Y02437107
X01869272Y02448607
X01870772Y02406607
X01856272Y02387357
X01895772Y02386107
X01906022Y02409107
X01925772Y02392107
X01952772Y02423357
X01953022Y02442607
X01941022Y02467857
X01915272Y02501857
X01906522Y02506357
X01904522Y02515357
X01927272Y02521357
X01913152Y02553454
X01913772Y02560315
X01915272Y02604857
X01956772Y02609857
X01957272Y02628607
X01946022Y02658107
X01915522Y02654357
X01882522Y02660857
X01878522Y02682857
X01983522Y02659107
X01957772Y02586314
X01956772Y02551357
X01976022Y02535092
X01866522Y02494357
X01983272Y02388857
X01701022Y02775357
X02005522Y02690357
X02018522Y02687857
X02041631Y02707823
X02053522Y02707857
X02066022
X02073272Y02686357
X02073522Y02668357
X02059933Y02642104
X02087272Y02635857
X02096772Y02643107
X02112272Y02657107
X02120522Y02683357
X02109522Y02710357
X02083522Y02729357
Y02746357
X02123272Y02747857
X02172272Y02757857
X02222522Y02755357
X02229522
X02236522Y02755357
X02241022Y02730107
X02242022Y02719357
X02244193Y02707159
X02242772Y02696357
X02242522Y02654357
X02249522
X02256522
X02270022Y02659107
X02293522Y02675357
Y02685357
Y02695357
X02303522
Y02685357
Y02675357
X02317522Y02673357
X02313522Y02655357
Y02645357
X02323480Y02645538
X02323522Y02655357
Y02625357
X02333522
Y02615357
X02343522
Y02605357
X02333522
X02323522Y02615357
X02313522Y02625357
X02336022Y02636607
X02353022Y02617107
X02363522Y02605357
X02379022Y02605357
X02364522Y02556357
X02335522Y02546357
X02334272Y02538857
X02320522Y02522357
X02329632Y02502291
X02328772Y02490357
X02327522Y02472857
X02333522
Y02465357
X02327522
Y02457857
X02333522
Y02450357
X02327522
Y02442857
X02333522
Y02435357
X02327522
Y02427857
X02333522
Y02420357
X02327522
Y02412857
X02333522
Y02405357
X02327522
Y02397857
X02333522
Y02390357
X02327522
Y02382857
X02333522
X02353162Y02410857
X02359162
Y02418357
X02353162
Y02425857
X02359162
Y02433357
X02353162
Y02440857
X02359162
Y02448357
X02353162
Y02455857
X02359162
Y02463357
X02353162
Y02470857
X02359162
Y02478357
X02353162
X02368522Y02495357
X02366022Y02515357
X02374522Y02516857
X02282522Y02481357
X02264068Y02492067
X02272522Y02461357
X02309522Y02453357
X02299482Y02440160
X02254522Y02431357
X02244522
X02234522
X02228522Y02465357
X02185522Y02464357
X02181074Y02438474
X02178522Y02409107
X02130537Y02409872
X02133272Y02415857
X02136272Y02426857
X02143272Y02453857
X02143522Y02470357
X02137522Y02466357
X02143522Y02493357
X02125272Y02493857
X02091522Y02496357
X02106772Y02512107
X02113772Y02526107
X02107772Y02532107
X02099272Y02538857
X02085272Y02540607
X02090522Y02527357
X02075522Y02530357
X02061522Y02518357
X02067522Y02508357
X02053522Y02501357
Y02486357
Y02479357
Y02472357
X02055022Y02465107
X02053522Y02453857
X02026522Y02453357
X02024812Y02462166
X02023522Y02487357
X02007522
X01999522Y02506357
X01996522Y02538357
X01994772Y02550857
X01995022Y02571107
X01995772Y02590857
X01996272Y02610107
X01999522Y02628357
X02006272Y02642857
X02041772Y02597857
X02035772Y02579107
X02050772Y02573857
X02071772Y02583357
X02085522Y02563357
X02105272Y02552857
X02123522Y02552857
Y02545357
Y02537857
Y02560357
Y02567857
X02120522Y02580357
X02108272Y02580857
X02133522Y02620357
X02143522Y02652857
X02153522
X02160772
X02161022Y02660357
X02264022Y02613607
X02261772Y02577357
X02263584Y02565044
Y02555044
X02273584
Y02565044
X02283336
X02293584
X02283584Y02555044
X02273584Y02545044
X02263042Y02545376
X02147272Y02518857
X02038522Y02506357
X02031522Y02501357
X02012772Y02538107
X01994772Y02455107
X01993272Y02433857
X01994272Y02414357
X02036272Y02413857
X02036522Y02425357
X02043522Y02397357
X02055718Y02391817
X02057522Y02384357
X02056522Y02403357
X02065772Y02415607
X02097022Y02425607
X02295022Y02706607
X02285272Y02717857
X02285022Y02740357
Y02754857
X02338522Y02722857
X02365522Y02747607
X02363772Y02674107
X02351522Y02678357
X02380522Y02679107
X02393522Y02687857
X02386324Y02661857
X02434522Y02661107
X02440522Y02677357
X02433522Y02705357
X02423522
X02413522
Y02715357
X02423522
X02403522
X02393522Y02735607
X02423522Y02745357
X02433522
X02497482Y02729160
X02493060Y02685866
Y02675866
X02513480Y02673634
X02519522Y02657607
X02529522Y02659107
X02537022Y02658857
X02547272Y02659107
X02563272Y02658857
X02563060Y02705866
X02558022Y02701857
X02553060Y02705866
Y02715866
X02563060
X02645272Y02717357
Y02709607
X02653022
Y02717357
Y02725107
X02645272
X02660772
Y02717357
Y02709607
X02698522Y02708357
Y02716107
Y02723857
X02719022
X02726772
Y02716107
X02719022
Y02708357
Y02753607
Y02761107
X02726772
Y02753607
X02698522
Y02761107
X02660772Y02757357
X02653022
X02645272
Y02749607
X02653022
X02660772
Y02765107
X02653022
X02645272
X02746022Y02688357
X02753022Y02693607
X02759022
X02765022
X02771022
X02774022Y02688607
X02768022
X02766772Y02668607
X02759022
X02748478Y02667803
X02776022Y02667607
X02772522Y02629357
X02721022Y02605357
Y02595357
Y02585357
X02753522Y02550357
X02763522
X02773522
X02768522Y02555357
Y02523857
X02776022
X02760522Y02524107
X02738772Y02525357
X02734522Y02481357
X02729022Y02480607
X02744522Y02480357
X02765522Y02479357
X02775022Y02474607
X02773772Y02449317
X02776272Y02434857
X02773772Y02420107
X02756022Y02419607
X02754522Y02435357
X02728522Y02432107
Y02461282
X02664772Y02460107
X02658522Y02455357
Y02465357
Y02475357
X02665522Y02470607
X02664522Y02481107
X02665272Y02501107
X02665022Y02510857
X02664522Y02520357
X02670522Y02524857
X02670772Y02516107
X02671022Y02505857
X02654272Y02444607
X02648522Y02440357
Y02430357
Y02420357
X02655272Y02425357
X02655022Y02435357
X02605672Y02429857
Y02422357
X02585172
Y02429857
X02577422
Y02422357
Y02459607
X02585172
Y02467357
Y02475107
X02577422Y02467357
X02605672
Y02459607
Y02475107
X02551522Y02490357
X02546522Y02487357
X02539522
X02532522
X02535522Y02492357
X02542022
X02528522
X02510982Y02487857
X02507772Y02514607
X02513522Y02518107
X02521772Y02517357
X02529022
X02537772Y02517607
X02544772Y02516857
X02555022Y02515107
X02541522Y02559357
X02533522Y02565357
X02509272Y02559857
X02503522Y02565357
X02470022Y02575607
X02465272Y02591857
X02458522Y02590647
X02448482Y02579172
X02433522Y02585357
X02424022Y02603857
X02407522
X02448522Y02620607
X02467272Y02632357
X02471022Y02644238
X02468641Y02602357
X02528522Y02628357
X02534522
Y02634357
X02528522
X02540522
Y02628357
X02546522
X02583522Y02602857
Y02595357
Y02587857
X02506272Y02656357
X02485522Y02526357
X02467732Y02501414
X02467772Y02491107
X02439272Y02512857
X02414772Y02516357
X02405772
X02397022
X02389022Y02516607
X02381272
X02391522Y02495357
X02397522
X02403522
X02421522
X02424522Y02543357
X02382522Y02556357
X02585172Y02382357
X02592922
X02605672
Y02389857
X02771473Y02504142
X02783772Y02523607
X02794272Y02523357
X02802522Y02525607
X02811272Y02507607
X02804772Y02495357
X02803772Y02462357
X02812772Y02468857
X02814021Y02450692
X02817522Y02434357
X02818522Y02425357
X02855522Y02443357
X02862021Y02438692
X02904022Y02445607
X02910522Y02447357
X02916522Y02443357
X02906522Y02453357
X02900522Y02450357
Y02456357
X02906522Y02475107
X02901022Y02482107
X02911772Y02483357
X02911522Y02494857
X02911772Y02512607
X02895272Y02511607
X02894522Y02526107
X02896022Y02562857
X02886272Y02569857
X02898168Y02592466
X02895522Y02599357
X02899181Y02635921
Y02642357
X02881522
X02865522
X02866168Y02611466
X02861766Y02590056
X02853522Y02555357
X02841522Y02563357
X02836522Y02549607
X02836447Y02531818
X02836522Y02491357
X02853522Y02485357
X02784022Y02481107
X02778522Y02555357
X02793522Y02575357
X02811022Y02574857
X02806522Y02629357
X02789522Y02628357
X02787522Y02668607
X02796792Y02664567
X02806078Y02667320
X02832750Y02679566
X02837772Y02693357
X02848522Y02670357
X02883272Y02668107
X02899272Y02666607
X02906272
X02913022Y02666357
X02926022
X02934022Y02665857
X02941022Y02667857
X02949370Y02669031
X02963522Y02650357
X02973522
X02983522Y02653817
X02988522Y02640357
X02983522Y02625357
X02998522Y02630357
X02993522Y02615357
X03003522Y02605357
Y02595357
Y02585357
Y02575357
X03018522Y02580357
X03036022
X03056022
X03081022
X03100522Y02573857
X03076022Y02650357
X03051022
X03016772Y02643857
X03006022Y02660357
X03010022Y02689357
X02993522Y02690357
X02978022Y02692857
X02978522Y02700357
X02973522Y02705357
X02978522Y02710357
X02973522Y02715357
X02978522Y02720357
Y02730357
X02973522Y02725357
Y02735357
X02978522Y02740357
X02973522Y02745357
X02978522Y02750357
X02983522Y02755357
X02993522
Y02765357
Y02775357
X02983522
X02988522Y02770357
Y02760357
X02983522Y02765357
X02978522Y02760357
Y02770357
X02973522Y02765357
Y02775357
X03020522Y02743357
X03028522Y02750357
X03067772Y02746107
X03054522Y02697857
X03028522Y02700357
X02978522Y02675357
X02913522Y02690357
X02903522
X02898522Y02695357
X02908522
X02918522
X02888522
X02883522Y02690357
X02803522Y02708357
X02924272Y02627607
X02938522Y02630357
X02948522Y02589357
X02954522
X02960522
X02966522
Y02563357
X02960522
X02954522
X02948522
X02953522Y02555357
X02969522Y02555857
X02950168Y02533466
X03003522Y02525357
X03036022Y02500357
X03056022Y02490357
X03083522Y02477857
X03021022Y02447857
X03013522
X02971022Y02450357
X02942272Y02438857
X02941522Y02430357
X02939522Y02424357
X02945522
X02944522Y02418357
X02939022
X02950522
Y02427357
X02949272Y02469107
X02997022Y02411857
X03008522Y02395357
X03074522Y02384607
X02988522Y02780357
X02983522Y02785357
X02973522
Y02795357
Y02805357
Y02815357
Y02825357
Y02835357
Y02845357
X02963522
Y02835357
Y02825357
Y02815357
X02953522
Y02805357
X02963522
X02978522Y02780357
X02726772Y02808857
Y02816607
X02719022
X02711272
X02703522
Y02808857
X02711272
Y02801107
X02719022
Y02808857
X02698522Y02801107
Y02793607
X02660772Y02797357
Y02789607
X02653022
Y02797357
Y02805107
X02660772
X02645272
Y02797357
Y02789607
X01853522Y02825357
Y02835357
Y02845357
X01843522
Y02835357
X01833522
Y02845357
Y02855357
X01843522
Y02865357
Y02875357
Y02885357
X01833522
Y02875357
Y02865357
Y02825357
X01843522
Y02985357
Y02995357
Y03005357
Y03015357
X01853522
Y03005357
Y02995357
Y02985357
X01863522
X01873522
Y02995357
X01863522
Y03005357
X01873522
Y03015357
X01863522
X01613522Y02875357
X01603522
X01593522
Y02865357
X01603522
X01613522
Y02855357
Y02845357
X01603522
Y02835357
Y02825357
X01613522
X01614772Y02835857
X01603522Y02855357
X01593522
X01583522
X01573522
Y02845357
Y02835357
Y02825357
X01583522
Y02845357
X01196022
X00943522Y02805357
X00933522
X00923522
X00913522
X00903522
Y02815357
Y02825357
Y02835357
X00893522
Y02845357
X00884024Y02845864
X00883204Y02855298
X00873522Y02855357
Y02845357
Y02835357
X00883522
Y02825357
X00873522
Y02815357
X00864029Y02815308
X00863522Y02805357
X00873522
X00883204Y02805157
X00883522Y02795357
X00873522
X00893522
X00903522
X00913522
X00923522
X00933522
X00943522
X00893522Y02805357
Y02815357
Y02825357
X00883522Y02815357
X00853522
T04
X02023672Y02091557
Y02104257
X02036372
X02049072
X02061772
X02074472
X02087172
X02099872
X02112572
X02125272
X02137972
X02150672
X02163372
Y02091557
X02150672
X02137972
X02125272
X02112572
X02099872
X02087172
X02074472
X02061772
X02049072
X02036372
X01923372
X01910672
X01897972
X01885272
X01872572
X01859872
X01847172
X01834472
X01821772
X01809072
X01796372
Y02104257
X01809072
X01821772
X01834472
X01847172
X01859872
X01872572
X01885272
X01897972
X01910672
X01923372
X01783672
Y02091557
T05
X00988522Y02672657
Y02698057
T06
X02963522Y01710357
Y01760357
X01763522Y03115357
Y03215357
X01853522Y03205357
X01953522
T08
X01126953Y02392337
X01707953
T09
X02783522Y01592857
X02803522
X01414522Y02894357
X01364522
X01383522Y02980357
X01433522
T10
X00909665Y02320757
X00984665
X03243522Y03152857
X03348522Y03132857
Y03057857
X03243522Y03227857
T11
X00724072Y02173807
Y02201507
Y02229207
Y02256907
X00752472Y02243057
Y02270757
Y02215357
Y02187657
Y02159957
X00753532Y02486039
Y02513739
Y02541439
Y02569139
Y02596839
X00725132Y02582990
Y02555289
Y02527589
Y02499889
X02661022Y02940357
X01591522Y02835857
Y03110857
X00883522Y03107857
X00923522Y02892857
Y02817857
X00793522Y03110357
Y03185357
X00883522Y03182857
X02661022Y03215357
T12
X03163522Y01575357
X02503522Y01655357
X03071022Y01617857
X03331022Y01967857
Y02025357
X01943522Y02312857
X01143522Y02142857
X01083522Y02690357
X01648522Y02625357
X02216022Y02385357
X02553522Y02755357
X02766022Y02817857
X02728522Y02885357
X00756022Y02805357
X00678522Y03030357
X00693522Y03112857
T13
X02741022Y01822657
Y01848057
X00880222Y02380357
X00854822
T14
X01336022Y02672614
X01412022
X01444522Y03215657
X01368522
T15
X02544222Y01596107
X02595022
X02645822
X02606022Y01905357
X02606522Y02180357
X02498522Y02312857
X02773522Y02312357
X00693522Y02853757
Y02904557
Y02955357
X01545222Y03192107
X01596022
X01646822
T16
X02841022Y02830357
X02891022
X02941022
X03041022
X03091022
X03141022
X02476022Y02820357
X02426022
Y03170357
X02476022
X02376022
X02276022
X02226022
X02176022
X02081522Y02965357
Y02865357
X02176022Y02820357
X02226022
X02276022
X02376022
X01861522Y02865357
Y02965357
X01179522Y02988357
Y03088357
X00959522
Y02988357
X02841022Y03180357
X02891022
X02941022
X03041022
X03091022
X03141022
T17
X02855076Y01968462
X03206022Y01837357
Y01737357
X03203522Y02155357
Y02255357
X02941678Y02018462
X03203522Y02525357
Y02625357
X01409522Y02799614
X01338522Y02825014
X01371022Y03088657
X01442022Y03063257
T18
X00738272Y02090357
Y02340357
X00739332Y02416439
Y02666440
T19
X00988522Y02685357
T20
X01778322Y02190382
X01803722
X01829122
X01854522
X01879922
X01905322
X01930722
T21
X01150452Y02392337
X01684453Y02407336
T22
X02443522Y01595357
X03343522
X02372522Y02289857
X00973522Y02405357
X03343522Y02395357
Y02803607
X02593522Y02867857
X00693522Y03195357
X02018522
X03343522
M30
