G04*
G04 #@! TF.GenerationSoftware,Altium Limited,Altium Designer,25.3.3 (18)*
G04*
G04 Layer_Color=16711935*
%FSLAX44Y44*%
%MOMM*%
G71*
G04*
G04 #@! TF.SameCoordinates,95261EA5-16E4-4C31-8C51-D7BA18121D47*
G04*
G04*
G04 #@! TF.FilePolarity,Positive*
G04*
G01*
G75*
%ADD10C,0.2000*%
%ADD12C,0.2540*%
%ADD19C,0.1270*%
%ADD21C,0.1000*%
%ADD199C,0.0000*%
D10*
X2110940Y2280521D02*
G03*
X2110940Y2280521I-1000J0D01*
G01*
D12*
X364148Y1688701D02*
X355684Y1680237D01*
Y1688701D02*
X364148Y1680237D01*
X359916Y1688701D02*
Y1680237D01*
X355684Y1684469D02*
X364148D01*
X1445010Y1869243D02*
X1453474Y1877707D01*
X1445010D02*
X1453474Y1869243D01*
X1445010Y1873475D02*
X1453474D01*
X1449242Y1877707D02*
Y1869243D01*
D19*
X2116330Y2267821D02*
X2222930D01*
X2116330D02*
Y2318621D01*
X2222930D01*
X2619020Y433591D02*
Y648590D01*
X2675020D01*
X2619020Y433591D02*
X2675020D01*
Y648590D01*
X2484570Y272591D02*
X2699570D01*
X2484570D02*
Y328591D01*
X2699570Y272591D02*
Y328591D01*
X2484570D02*
X2699570D01*
X1062030Y1314921D02*
Y1624920D01*
X942030Y1314921D02*
X1062030D01*
X942030Y1624920D02*
X1062030D01*
X942030Y1314921D02*
Y1624920D01*
X387800Y140511D02*
X602800D01*
X387800D02*
Y196511D01*
X602800Y140511D02*
Y196511D01*
X387800D02*
X602800D01*
X2198350Y129421D02*
X2413350D01*
X2198350D02*
Y185421D01*
X2413350Y129421D02*
Y185421D01*
X2198350D02*
X2413350D01*
D21*
X1402340Y1260851D02*
G03*
X1402340Y1260851I-5000J0D01*
G01*
X632040Y1302331D02*
G03*
X632040Y1302331I-5000J0D01*
G01*
X1406340Y1251851D02*
Y1350851D01*
X1367340Y1251851D02*
Y1350851D01*
Y1251851D02*
X1406340D01*
X1367340Y1350851D02*
X1406340D01*
X618040Y1225331D02*
Y1311331D01*
X657040Y1225331D02*
Y1311331D01*
X618040D02*
X657040D01*
X618040Y1225331D02*
X657040D01*
X1482880Y1450491D02*
Y1487491D01*
X1549880Y1450491D02*
Y1487491D01*
X1482880Y1450491D02*
X1549880D01*
X1482880Y1487491D02*
X1549880D01*
D199*
X355092Y1658729D02*
G03*
X355092Y1652633I0J-3048D01*
G01*
X1481078Y1878299D02*
G03*
X1474982Y1878299I-3048J0D01*
G01*
X346710Y1675747D02*
X351790D01*
Y1686669D01*
X346710D02*
X351790D01*
X346710Y1675747D02*
Y1686669D01*
X334010Y1675747D02*
X339090D01*
Y1686669D01*
X334010D02*
X339090D01*
X334010Y1675747D02*
Y1686669D01*
X321310Y1675747D02*
X326390D01*
Y1686669D01*
X321310D02*
X326390D01*
X321310Y1675747D02*
Y1686669D01*
X308610Y1675747D02*
X313690D01*
Y1686669D01*
X308610D02*
X313690D01*
X308610Y1675747D02*
Y1686669D01*
Y1635615D02*
X313690D01*
X308610Y1624693D02*
Y1635615D01*
Y1624693D02*
X313690D01*
Y1635615D01*
X321310D02*
X326390D01*
X321310Y1624693D02*
Y1635615D01*
Y1624693D02*
X326390D01*
Y1635615D01*
X334010D02*
X339090D01*
X334010Y1624693D02*
Y1635615D01*
Y1624693D02*
X339090D01*
Y1635615D01*
X346710D02*
X351790D01*
X346710Y1624693D02*
Y1635615D01*
Y1624693D02*
X351790D01*
Y1635615D01*
X305308D02*
Y1675747D01*
Y1635615D02*
X355092D01*
Y1652633D01*
Y1658729D01*
Y1675747D01*
X305308D02*
X355092D01*
X1457964Y1881601D02*
Y1886681D01*
X1447042Y1881601D02*
X1457964D01*
X1447042D02*
Y1886681D01*
X1457964D01*
Y1894301D02*
Y1899381D01*
X1447042Y1894301D02*
X1457964D01*
X1447042D02*
Y1899381D01*
X1457964D01*
Y1907001D02*
Y1912081D01*
X1447042Y1907001D02*
X1457964D01*
X1447042D02*
Y1912081D01*
X1457964D01*
Y1919701D02*
Y1924781D01*
X1447042Y1919701D02*
X1457964D01*
X1447042D02*
Y1924781D01*
X1457964D01*
X1498096Y1919701D02*
Y1924781D01*
X1509018D01*
Y1919701D02*
Y1924781D01*
X1498096Y1919701D02*
X1509018D01*
X1498096Y1907001D02*
Y1912081D01*
X1509018D01*
Y1907001D02*
Y1912081D01*
X1498096Y1907001D02*
X1509018D01*
X1498096Y1894301D02*
Y1899381D01*
X1509018D01*
Y1894301D02*
Y1899381D01*
X1498096Y1894301D02*
X1509018D01*
X1498096Y1881601D02*
Y1886681D01*
X1509018D01*
Y1881601D02*
Y1886681D01*
X1498096Y1881601D02*
X1509018D01*
X1457964Y1928083D02*
X1498096D01*
Y1878299D02*
Y1928083D01*
X1481078Y1878299D02*
X1498096D01*
X1474982D02*
X1481078D01*
X1457964D02*
X1474982D01*
X1457964D02*
Y1928083D01*
M02*
