M48
;Layer_Color=9474304
;FILE_FORMAT=4:4
METRIC,LZ
;TYPE=PLATED
T08F00S00C1.0000
T19F00S00C4.1000
%
G90
G05
T08
G00X0025909Y0013541
M15
G01Y00125411
M16
G00X0033909Y0013541
M15
G01Y00125411
M16
G00X0065913Y0013541
M15
G01Y00125411
M16
G00X0073913Y0013541
M15
G01Y00125411
M16
G00X0167545Y00085961
M15
G01X0166545
M16
G00X0172545Y00085961
M15
G01X0171545
M16
G00X0182674Y00086601
M15
G01X0183674
M16
G00X0187674Y00086601
M15
G01X0188674
M16
G00X0211122Y00085331
M15
G01X0212122
M16
G00X0216122Y00085331
M15
G01X0217122
M16
G00X0245436Y00084691
M15
G01X0244436
M16
G00X0250436Y00084691
M15
G01X0249436
M16
G00X0250436Y00164691
M15
G01X0249436
M16
G00X0245436Y00164691
M15
G01X0244436
M16
G00X0216122Y00165331
M15
G01X0217122
M16
G00X0211122Y00165331
M15
G01X0212122
M16
G00X0187674Y00166601
M15
G01X0188674
M16
G00X0182674Y00166601
M15
G01X0183674
M16
G00X0172545Y00165961
M15
G01X0171545
M16
G00X0167545Y00165961
M15
G01X0166545
M16
G00X0073913Y00185411
M15
G01Y00175411
M16
G00X0065913Y00185411
M15
G01Y00175411
M16
G00X0033909Y00185411
M15
G01Y00175411
M16
G00X0025909Y00185411
M15
G01Y00175411
M16
G00X0066326Y00966711
M15
G01X0065326
M16
G00X0071326Y00966711
M15
G01X0070326
M16
G00X0071326Y01046711
M15
G01X0070326
M16
G00X0066326Y01046711
M15
G01X0065326
M16
G00X0021685Y01235951
M15
G01X0022685
M16
G00X0016685Y01235951
M15
G01X0017685
M16
G00X0016685Y01315951
M15
G01X0017685
M16
G00X0021685Y01315951
M15
G01X0022685
M16
G00X0151123Y01716011
M15
G01X0152123
M16
G00X0156123Y01716011
M15
G01X0157123
M16
G00X02655891Y02086851
M15
G01X02645891
M16
G00X02705891Y02086851
M15
G01X02695891
M16
G00X0205438Y02089381
M15
G01X0204438
M16
G00X0200438Y02089381
M15
G01X0199438
M16
G00X0200438Y02009381
M15
G01X0199438
M16
G00X0205438Y02009381
M15
G01X0204438
M16
G00X0156123Y01796011
M15
G01X0157123
M16
G00X0151123Y01796011
M15
G01X0152123
M16
G00X02655891Y02166851
M15
G01X02645891
M16
G00X02705891Y02166851
M15
G01X02695891
M16
T19
G00X-000357Y000412
M15
G01Y000322
M16
G00X02835Y000312
M15
G01Y000222
M16
G00X-00035785Y02333888
M15
G01Y02342888
M16
G00X02836732Y02323888
M15
G01Y02332888
M16
M17
M30
