G04*
G04 #@! TF.GenerationSoftware,Altium Limited,Altium Designer,25.3.3 (18)*
G04*
G04 Layer_Color=32768*
%FSLAX44Y44*%
%MOMM*%
G71*
G04*
G04 #@! TF.SameCoordinates,95261EA5-16E4-4C31-8C51-D7BA18121D47*
G04*
G04*
G04 #@! TF.FilePolarity,Positive*
G04*
G01*
G75*
%ADD10C,0.2000*%
%ADD12C,0.2540*%
%ADD20C,0.3000*%
G36*
X1554552Y2202813D02*
X1554922Y2202767D01*
X1555338Y2202720D01*
X1555847Y2202628D01*
X1556357Y2202535D01*
X1557560Y2202258D01*
X1558809Y2201795D01*
X1559457Y2201517D01*
X1560059Y2201147D01*
X1560707Y2200777D01*
X1561308Y2200314D01*
X1561355Y2200267D01*
X1561493Y2200175D01*
X1561679Y2199990D01*
X1561910Y2199758D01*
X1562188Y2199435D01*
X1562558Y2199064D01*
X1562882Y2198601D01*
X1563252Y2198092D01*
X1563622Y2197537D01*
X1563946Y2196889D01*
X1564270Y2196195D01*
X1564594Y2195455D01*
X1564825Y2194668D01*
X1565011Y2193788D01*
X1565150Y2192863D01*
X1565196Y2191891D01*
Y2191474D01*
X1565150Y2191151D01*
X1565103Y2190780D01*
X1565057Y2190364D01*
X1565011Y2189855D01*
X1564872Y2189346D01*
X1564594Y2188189D01*
X1564178Y2187032D01*
X1563900Y2186430D01*
X1563576Y2185829D01*
X1563206Y2185273D01*
X1562789Y2184718D01*
X1562743Y2184671D01*
X1562697Y2184579D01*
X1562512Y2184486D01*
X1562327Y2184301D01*
X1562095Y2184070D01*
X1561817Y2183839D01*
X1561447Y2183561D01*
X1561031Y2183329D01*
X1560614Y2183052D01*
X1560105Y2182774D01*
X1558994Y2182265D01*
X1557699Y2181848D01*
X1557004Y2181710D01*
X1556264Y2181617D01*
X1555940Y2185736D01*
X1555986D01*
X1556079D01*
X1556218Y2185782D01*
X1556449Y2185829D01*
X1556958Y2185967D01*
X1557652Y2186152D01*
X1558347Y2186430D01*
X1559133Y2186800D01*
X1559827Y2187263D01*
X1560475Y2187818D01*
X1560522Y2187911D01*
X1560707Y2188096D01*
X1560938Y2188466D01*
X1561216Y2188976D01*
X1561493Y2189531D01*
X1561725Y2190225D01*
X1561910Y2191012D01*
X1561956Y2191891D01*
Y2192169D01*
X1561910Y2192354D01*
X1561864Y2192909D01*
X1561679Y2193557D01*
X1561447Y2194344D01*
X1561077Y2195130D01*
X1560522Y2195964D01*
X1560198Y2196334D01*
X1559827Y2196704D01*
X1559781Y2196750D01*
X1559735Y2196797D01*
X1559596Y2196889D01*
X1559457Y2197028D01*
X1558948Y2197352D01*
X1558300Y2197722D01*
X1557513Y2198046D01*
X1556542Y2198370D01*
X1555385Y2198601D01*
X1554783Y2198694D01*
X1554135D01*
X1554089D01*
X1553996D01*
X1553811D01*
X1553580Y2198648D01*
X1553302D01*
X1552978Y2198601D01*
X1552238Y2198463D01*
X1551358Y2198231D01*
X1550479Y2197907D01*
X1549646Y2197444D01*
X1548859Y2196797D01*
X1548813D01*
X1548767Y2196704D01*
X1548535Y2196473D01*
X1548211Y2196056D01*
X1547841Y2195501D01*
X1547517Y2194760D01*
X1547193Y2193927D01*
X1546962Y2192955D01*
X1546869Y2192400D01*
Y2191521D01*
X1546916Y2191151D01*
X1546962Y2190688D01*
X1547101Y2190132D01*
X1547240Y2189577D01*
X1547471Y2188976D01*
X1547749Y2188374D01*
X1547795Y2188328D01*
X1547888Y2188142D01*
X1548119Y2187865D01*
X1548350Y2187495D01*
X1548674Y2187124D01*
X1549091Y2186754D01*
X1549507Y2186338D01*
X1550016Y2186014D01*
X1549507Y2182311D01*
X1533032Y2185412D01*
Y2201332D01*
X1536781D01*
Y2188513D01*
X1545435Y2186800D01*
X1545388Y2186847D01*
X1545342Y2186939D01*
X1545250Y2187078D01*
X1545111Y2187309D01*
X1544972Y2187587D01*
X1544787Y2187911D01*
X1544417Y2188651D01*
X1544046Y2189577D01*
X1543722Y2190595D01*
X1543491Y2191706D01*
X1543398Y2192261D01*
Y2193279D01*
X1543445Y2193557D01*
X1543491Y2193927D01*
X1543537Y2194344D01*
X1543630Y2194807D01*
X1543769Y2195316D01*
X1544093Y2196426D01*
X1544324Y2197028D01*
X1544648Y2197630D01*
X1544972Y2198231D01*
X1545342Y2198833D01*
X1545805Y2199388D01*
X1546314Y2199944D01*
X1546360Y2199990D01*
X1546453Y2200082D01*
X1546592Y2200221D01*
X1546823Y2200406D01*
X1547147Y2200638D01*
X1547471Y2200869D01*
X1547888Y2201147D01*
X1548350Y2201425D01*
X1548859Y2201656D01*
X1549415Y2201933D01*
X1550063Y2202165D01*
X1550710Y2202396D01*
X1551405Y2202581D01*
X1552191Y2202720D01*
X1552978Y2202813D01*
X1553811Y2202859D01*
X1553857D01*
X1553996D01*
X1554228D01*
X1554552Y2202813D01*
D02*
G37*
G36*
X1552330Y2176110D02*
X1552793D01*
X1553348Y2176064D01*
X1553904Y2176017D01*
X1555153Y2175879D01*
X1556449Y2175693D01*
X1557699Y2175416D01*
X1558300Y2175231D01*
X1558856Y2175045D01*
X1558902D01*
X1558994Y2174999D01*
X1559133Y2174907D01*
X1559318Y2174814D01*
X1559827Y2174536D01*
X1560475Y2174120D01*
X1561216Y2173565D01*
X1561956Y2172917D01*
X1562743Y2172084D01*
X1563437Y2171066D01*
Y2171019D01*
X1563530Y2170927D01*
X1563576Y2170788D01*
X1563715Y2170556D01*
X1563854Y2170279D01*
X1563992Y2169909D01*
X1564131Y2169538D01*
X1564317Y2169076D01*
X1564502Y2168566D01*
X1564640Y2168011D01*
X1564779Y2167410D01*
X1564918Y2166715D01*
X1565011Y2166021D01*
X1565103Y2165281D01*
X1565196Y2163615D01*
Y2163198D01*
X1565150Y2162874D01*
Y2162504D01*
X1565103Y2162041D01*
X1565057Y2161532D01*
X1565011Y2161023D01*
X1564825Y2159866D01*
X1564548Y2158617D01*
X1564178Y2157413D01*
X1563669Y2156256D01*
Y2156210D01*
X1563576Y2156118D01*
X1563483Y2155979D01*
X1563391Y2155794D01*
X1563021Y2155284D01*
X1562512Y2154683D01*
X1561864Y2153989D01*
X1561123Y2153341D01*
X1560198Y2152693D01*
X1559180Y2152184D01*
X1559133D01*
X1559041Y2152137D01*
X1558856Y2152091D01*
X1558624Y2151999D01*
X1558347Y2151906D01*
X1557976Y2151814D01*
X1557560Y2151675D01*
X1557051Y2151582D01*
X1556495Y2151490D01*
X1555894Y2151351D01*
X1555246Y2151258D01*
X1554552Y2151166D01*
X1553765Y2151073D01*
X1552932Y2151027D01*
X1552053Y2150981D01*
X1551127D01*
X1532616D01*
Y2155238D01*
X1551127D01*
X1551173D01*
X1551312D01*
X1551543D01*
X1551821D01*
X1552145Y2155284D01*
X1552562D01*
X1553441Y2155331D01*
X1554459Y2155423D01*
X1555477Y2155562D01*
X1556449Y2155747D01*
X1556866Y2155840D01*
X1557282Y2155979D01*
X1557375Y2156025D01*
X1557606Y2156118D01*
X1557930Y2156349D01*
X1558393Y2156627D01*
X1558856Y2156951D01*
X1559365Y2157413D01*
X1559874Y2157969D01*
X1560290Y2158617D01*
X1560336Y2158709D01*
X1560475Y2158940D01*
X1560614Y2159357D01*
X1560799Y2159912D01*
X1561031Y2160560D01*
X1561169Y2161393D01*
X1561308Y2162273D01*
X1561355Y2163244D01*
Y2163707D01*
X1561308Y2163985D01*
Y2164401D01*
X1561262Y2164818D01*
X1561077Y2165836D01*
X1560845Y2166947D01*
X1560475Y2168011D01*
X1559966Y2169029D01*
X1559642Y2169492D01*
X1559272Y2169909D01*
X1559226Y2169955D01*
X1559180Y2170001D01*
X1559041Y2170094D01*
X1558856Y2170233D01*
X1558578Y2170371D01*
X1558300Y2170556D01*
X1557884Y2170742D01*
X1557467Y2170927D01*
X1556958Y2171112D01*
X1556357Y2171251D01*
X1555662Y2171436D01*
X1554922Y2171575D01*
X1554089Y2171714D01*
X1553210Y2171806D01*
X1552191Y2171899D01*
X1551127D01*
X1532616D01*
Y2176156D01*
X1551127D01*
X1551173D01*
X1551358D01*
X1551590D01*
X1551914D01*
X1552330Y2176110D01*
D02*
G37*
G36*
X658291Y1656813D02*
X662641D01*
Y1653203D01*
X658291D01*
Y1645521D01*
X654357D01*
Y1653203D01*
X640427D01*
Y1656813D01*
X655098Y1677545D01*
X658291D01*
Y1656813D01*
D02*
G37*
G36*
X623119Y1678055D02*
X623536D01*
X623952Y1678008D01*
X624507Y1677916D01*
X625063Y1677823D01*
X626266Y1677592D01*
X627654Y1677222D01*
X628997Y1676666D01*
X629691Y1676342D01*
X630385Y1675972D01*
X630431Y1675926D01*
X630524Y1675880D01*
X630709Y1675741D01*
X630987Y1675602D01*
X631264Y1675370D01*
X631634Y1675093D01*
X632421Y1674445D01*
X633254Y1673612D01*
X634180Y1672594D01*
X635059Y1671390D01*
X635799Y1670048D01*
Y1670002D01*
X635892Y1669863D01*
X635985Y1669678D01*
X636077Y1669400D01*
X636262Y1669030D01*
X636401Y1668614D01*
X636586Y1668105D01*
X636771Y1667549D01*
X636910Y1666948D01*
X637095Y1666300D01*
X637281Y1665606D01*
X637419Y1664865D01*
X637604Y1663245D01*
X637697Y1661533D01*
Y1661487D01*
Y1661348D01*
Y1661163D01*
Y1660885D01*
X637651Y1660515D01*
Y1660098D01*
X637604Y1659636D01*
X637558Y1659173D01*
X637419Y1658062D01*
X637188Y1656859D01*
X636910Y1655609D01*
X636494Y1654406D01*
Y1654360D01*
X636447Y1654267D01*
X636355Y1654082D01*
X636262Y1653897D01*
X636124Y1653619D01*
X635985Y1653295D01*
X635614Y1652555D01*
X635105Y1651676D01*
X634458Y1650750D01*
X633717Y1649825D01*
X632884Y1648899D01*
X632930D01*
X633023Y1648806D01*
X633162Y1648714D01*
X633393Y1648575D01*
X633624Y1648390D01*
X633948Y1648205D01*
X634643Y1647788D01*
X635476Y1647279D01*
X636401Y1646770D01*
X637373Y1646354D01*
X638299Y1645937D01*
X637049Y1643022D01*
X637003D01*
X636910Y1643068D01*
X636725Y1643160D01*
X636447Y1643253D01*
X636124Y1643392D01*
X635753Y1643577D01*
X635337Y1643762D01*
X634874Y1643993D01*
X633856Y1644549D01*
X632699Y1645197D01*
X631449Y1646030D01*
X630154Y1646955D01*
X630107D01*
X630015Y1646863D01*
X629783Y1646770D01*
X629552Y1646631D01*
X629182Y1646492D01*
X628811Y1646307D01*
X628349Y1646169D01*
X627840Y1645983D01*
X627284Y1645798D01*
X626683Y1645613D01*
X625340Y1645289D01*
X623860Y1645058D01*
X623073Y1645011D01*
X622286Y1644965D01*
X621870D01*
X621546Y1645011D01*
X621175D01*
X620713Y1645058D01*
X620204Y1645150D01*
X619648Y1645243D01*
X618445Y1645474D01*
X617103Y1645845D01*
X615714Y1646354D01*
X615067Y1646678D01*
X614372Y1647048D01*
X614326Y1647094D01*
X614234Y1647140D01*
X614049Y1647279D01*
X613817Y1647418D01*
X613493Y1647649D01*
X613169Y1647927D01*
X612383Y1648575D01*
X611503Y1649408D01*
X610624Y1650426D01*
X609745Y1651583D01*
X608958Y1652925D01*
Y1652971D01*
X608865Y1653110D01*
X608773Y1653295D01*
X608680Y1653573D01*
X608541Y1653943D01*
X608356Y1654360D01*
X608171Y1654869D01*
X608032Y1655424D01*
X607847Y1656026D01*
X607662Y1656674D01*
X607523Y1657368D01*
X607338Y1658155D01*
X607153Y1659774D01*
X607060Y1661487D01*
Y1661533D01*
Y1661718D01*
Y1661949D01*
X607107Y1662274D01*
Y1662690D01*
X607153Y1663199D01*
X607199Y1663754D01*
X607292Y1664356D01*
X607523Y1665698D01*
X607847Y1667133D01*
X608310Y1668660D01*
X608958Y1670141D01*
X609004Y1670187D01*
X609050Y1670326D01*
X609143Y1670511D01*
X609328Y1670789D01*
X609513Y1671113D01*
X609745Y1671483D01*
X610392Y1672362D01*
X611133Y1673288D01*
X612105Y1674260D01*
X613169Y1675231D01*
X614419Y1676065D01*
X614465Y1676111D01*
X614604Y1676157D01*
X614789Y1676250D01*
X615067Y1676389D01*
X615391Y1676527D01*
X615761Y1676712D01*
X616224Y1676898D01*
X616733Y1677083D01*
X617334Y1677268D01*
X617936Y1677453D01*
X619278Y1677777D01*
X620759Y1678008D01*
X621546Y1678101D01*
X622795D01*
X623119Y1678055D01*
D02*
G37*
%LPC*%
G36*
X654357Y1671159D02*
X644269Y1656813D01*
X654357D01*
Y1671159D01*
D02*
G37*
G36*
X622379Y1674445D02*
X621916D01*
X621592Y1674398D01*
X621175Y1674352D01*
X620713Y1674260D01*
X620204Y1674167D01*
X619648Y1674028D01*
X619000Y1673843D01*
X618399Y1673658D01*
X617751Y1673380D01*
X617057Y1673056D01*
X616409Y1672686D01*
X615761Y1672223D01*
X615113Y1671761D01*
X614511Y1671159D01*
X614465Y1671113D01*
X614372Y1671020D01*
X614234Y1670835D01*
X614049Y1670557D01*
X613771Y1670233D01*
X613539Y1669817D01*
X613262Y1669308D01*
X612984Y1668752D01*
X612660Y1668105D01*
X612383Y1667364D01*
X612151Y1666577D01*
X611920Y1665698D01*
X611688Y1664772D01*
X611549Y1663754D01*
X611457Y1662644D01*
X611411Y1661487D01*
Y1661394D01*
Y1661209D01*
Y1660885D01*
X611457Y1660469D01*
X611503Y1659960D01*
X611596Y1659358D01*
X611688Y1658664D01*
X611781Y1657970D01*
X612151Y1656396D01*
X612383Y1655609D01*
X612706Y1654823D01*
X613030Y1654036D01*
X613447Y1653295D01*
X613910Y1652555D01*
X614465Y1651907D01*
X614511Y1651861D01*
X614604Y1651768D01*
X614789Y1651583D01*
X615020Y1651398D01*
X615344Y1651120D01*
X615714Y1650843D01*
X616131Y1650565D01*
X616640Y1650241D01*
X617149Y1649917D01*
X617751Y1649639D01*
X618399Y1649362D01*
X619093Y1649084D01*
X619880Y1648899D01*
X620666Y1648714D01*
X621499Y1648621D01*
X622379Y1648575D01*
X622795D01*
X623212Y1648621D01*
X623767Y1648667D01*
X624461Y1648760D01*
X625155Y1648945D01*
X625942Y1649130D01*
X626683Y1649408D01*
X626590Y1649454D01*
X626359Y1649639D01*
X625942Y1649871D01*
X625433Y1650148D01*
X624785Y1650426D01*
X624091Y1650750D01*
X623304Y1651028D01*
X622471Y1651259D01*
X623536Y1654314D01*
X623582D01*
X623721Y1654267D01*
X623906Y1654221D01*
X624137Y1654128D01*
X624461Y1654036D01*
X624832Y1653897D01*
X625664Y1653573D01*
X626636Y1653110D01*
X627654Y1652601D01*
X628626Y1652000D01*
X629598Y1651259D01*
X629645Y1651305D01*
X629783Y1651398D01*
X629968Y1651629D01*
X630200Y1651907D01*
X630477Y1652277D01*
X630801Y1652694D01*
X631125Y1653203D01*
X631496Y1653804D01*
X631820Y1654499D01*
X632144Y1655285D01*
X632467Y1656118D01*
X632745Y1656998D01*
X633023Y1658016D01*
X633208Y1659080D01*
X633301Y1660237D01*
X633347Y1661487D01*
Y1661533D01*
Y1661672D01*
Y1661857D01*
Y1662135D01*
X633301Y1662505D01*
Y1662875D01*
X633254Y1663338D01*
X633162Y1663801D01*
X633023Y1664865D01*
X632791Y1666022D01*
X632467Y1667179D01*
X632005Y1668290D01*
Y1668336D01*
X631958Y1668429D01*
X631866Y1668567D01*
X631773Y1668752D01*
X631449Y1669308D01*
X631033Y1669956D01*
X630477Y1670696D01*
X629783Y1671437D01*
X628997Y1672177D01*
X628117Y1672825D01*
X628071D01*
X628025Y1672918D01*
X627886Y1672964D01*
X627654Y1673103D01*
X627423Y1673195D01*
X627145Y1673334D01*
X626451Y1673658D01*
X625618Y1673936D01*
X624646Y1674213D01*
X623536Y1674398D01*
X622379Y1674445D01*
D02*
G37*
%LPD*%
D10*
X1417624Y2105261D02*
G03*
X1417624Y2105261I-68884J0D01*
G01*
X1291013Y2185271D02*
G03*
X1291013Y2185271I-68884J0D01*
G01*
D12*
X2693837Y1851551D02*
G03*
X2693837Y1851551I-318446J0D01*
G01*
X2597476Y703181D02*
G03*
X2597476Y703181I-277186J0D01*
G01*
X780076Y657441D02*
G03*
X780076Y657441I-277966J0D01*
G01*
D20*
X1452118Y2251311D02*
X1629664D01*
Y2124565D02*
Y2251311D01*
X1452118Y2124565D02*
Y2251311D01*
Y2124565D02*
X1629664D01*
X1735890Y478051D02*
Y544051D01*
Y478051D02*
X1771890D01*
Y372051D02*
Y478051D01*
X1735890Y372051D02*
X1771890D01*
X1735890Y306051D02*
Y372051D01*
X1657890Y306051D02*
X1735890D01*
X1657890D02*
Y371051D01*
X1546890D02*
X1657890D01*
X1546890D02*
Y479051D01*
X1657890D01*
Y544051D01*
X1735890D01*
X707390Y1580497D02*
Y1758043D01*
X580644Y1580497D02*
X707390D01*
X580644Y1758043D02*
X707390D01*
X580644Y1580497D02*
Y1758043D01*
M02*
