M48
;Layer_Color=9474304
;FILE_FORMAT=4:4
METRIC,LZ
;TYPE=PLATED
T01F00S00C0.3000
T02F00S00C0.4000
T03F00S00C0.5000
T04F00S00C0.6000
T05F00S00C0.8000
T06F00S00C0.8636
T07F00S00C1.0000
T10F00S00C1.0500
T11F00S00C1.0700
T12F00S00C1.1000
T13F00S00C1.2000
T14F00S00C1.2500
T15F00S00C1.3000
T16F00S00C1.6000
T17F00S00C3.0000
T18F00S00C3.5000
%
T01
X02167341Y00302283
X02163436Y00309071
X02164858Y00316574
X02170458Y00321693
X02178206Y00322056
X02184676Y00317067
X02186471Y00309085
X02182816Y00301688
X02174936Y00298955
X02442256Y00302346
X02438351Y00309133
X02439773Y00316637
X02445372Y00321756
X02453121Y00322119
X02459591Y0031713
X02461386Y00309148
X02457731Y00301751
X02449851Y00299018
X009997Y00584801
X0096774Y00585071
X01603405Y00698929
X015995Y00705716
X01600922Y0071322
X01606522Y00718339
X0161427Y00718702
X0162074Y00713713
X01622535Y00705731
X0161888Y00698334
X01611Y00695601
X01879405Y00696929
X018755Y00703717
X01876922Y0071122
X01882522Y00716339
X01890271Y00716702
X0189674Y00711713
X01898535Y00703731
X0189488Y00696334
X01887Y00693601
X02160405Y01034929
X021565Y01041717
X02157922Y0104922
X02163522Y01054339
X0217127Y01054702
X0217774Y01049713
X02179535Y01041731
X0217588Y01034334
X02168Y01031601
Y01307601
X0217588Y01310334
X02179535Y01317731
X0217774Y01325713
X0217127Y01330702
X02163522Y01330339
X02157922Y0132522
X021565Y01317717
X02160405Y01310929
X02462922Y0123922
X024615Y01231717
X02465405Y01224929
X02473Y01221601
X0248088Y01224334
X02484535Y01231731
X0248274Y01239713
X0247627Y01244702
X02468522Y01244339
X0189674Y00986713
X01898535Y00978731
X0189488Y00971334
X01887Y00968601
X01879405Y00971929
X018755Y00978717
X01876922Y0098622
X01882522Y00991339
X01890271Y00991702
X0161974Y00989713
X01621535Y00981731
X0161788Y00974334
X0161Y00971601
X01602405Y00974929
X015985Y00981717
X01599922Y0098922
X01605522Y00994339
X01613271Y00994702
X015595Y01290701
X014855Y01288857
Y01310715
Y01332357
Y01245057
X014525Y01202601
X013789Y01332501
X004954Y014144
X0033909Y01613511
X005829Y01391601
X014368Y01422701
X014855Y01353901
X01596Y01517801
X02462922Y0151522
X024615Y01507717
X02465405Y01500929
X02473Y01497601
X0248088Y01500334
X02484535Y01507731
X0248274Y01515713
X0247627Y01520702
X02468522Y01520339
X0167019Y02257111
X018417Y02285701
X020567Y02307901
X020916Y02275201
T02
X02181Y00521601
X02191Y00519601
X02201Y00522601
X02209Y00528601
X02213Y00537601
X02428Y00534601
X02433Y005266
X02441Y00521601
X02451Y00519601
X02461Y00522601
X02469Y00528601
X02473Y00537601
X00651Y00510601
X00655Y005016
Y004916
X00651Y00482601
X00643Y004766
X00633Y00473601
X00623Y00475601
X00615Y00480601
X0061Y00488601
X00608Y00497601
X0061Y00507601
X00616Y00515601
X00625Y00519601
X00635Y00520601
X00644Y00517601
X00392Y00510601
X00396Y005016
Y004916
X00392Y00482601
X00384Y004766
X00374Y00473601
X00364Y00475601
X00356Y00480601
X00351Y00488601
X00349Y00497601
X00351Y00507601
X00357Y00515601
X00366Y00519601
X00376Y00520601
X00385Y00517601
X00435Y00720601
X00443Y00715601
X00453Y00713601
X00463Y007166
X00471Y00722601
X00475Y007316
Y007416
X00471Y00750601
X00464Y007576
X00455Y00760601
X00445Y00759601
X00436Y00755601
X0043Y00747601
X00428Y00737601
X0043Y007286
X0053
X00528Y00737601
X0053Y00747601
X00536Y00755601
X00535Y00720601
X00543Y00715601
X00553Y00713601
X00563Y007166
X00571Y00722601
X00575Y007316
Y007416
X00571Y00750601
X00564Y007576
X00555Y00760601
X00545Y00759601
X02253Y007666
X02261Y00761601
X02271Y00759601
X02281Y00762601
X02289Y00768601
X02293Y00777601
Y00787601
X02289Y00796601
X02282Y00803601
X02273Y00806601
X02263Y00805601
X02254Y00801601
X02248Y00793601
X02246Y00783601
X02248Y00774601
X02348Y00773601
X02346Y00782601
X02348Y00792601
X02354Y00800601
X02363Y00804601
X02373Y00805601
X02382Y00802601
X02389Y00795601
X02393Y00786601
Y00776601
X02389Y00767601
X02381Y00761601
X02371Y00758601
X02361Y00760601
X02353Y00765601
X02434Y00561601
X02443Y00565601
X02453Y00566601
X02462Y00563601
X02469Y00556601
X02473Y00547601
X02426Y00543601
X02428Y00553601
X02213Y00547601
X02209Y00556601
X02202Y00563601
X02193Y00566601
X02183Y00565601
X007805Y01186801
X007812Y011991
X007806Y01210701
X007323Y01209701
X003366Y01653501
X003006Y01678701
X0026731Y01659511
X02249Y01649601
X02258Y01653601
X02268Y01654601
X02277Y01651601
X02284Y01644601
X02288Y01635601
Y01625601
X02284Y01616601
X02276Y01610601
X02266Y01607601
X02256Y01609601
X02248Y01614601
X02243Y01622601
X02241Y01631601
X02243Y01641601
X02464
X02462Y01631601
X02464Y01622601
X02469Y01614601
X02477Y01609601
X02487Y01607601
X02497Y01610601
X02505Y01616601
X02509Y01625601
Y01635601
X02505Y01644601
X02498Y01651601
X02489Y01654601
X02479Y01653601
X0247Y01649601
X02445Y01937601
Y01945601
X02446Y01956601
X02445Y01965601
X02438Y01972601
X02429Y01975601
X02419Y01974601
X0241Y01970601
X02406Y019616
X02404Y01943601
X02409Y019356
X02417Y01930601
X02427Y01928601
X02437Y01931601
X02344Y01937601
X02336Y01931601
X02326Y01928601
X02316Y01930601
X02308Y019356
X02309Y01970601
X02318Y01974601
X02328Y01975601
X02337Y01972601
X02344Y01965601
X010539Y01901601
Y01890501
X01041
Y01901601
X002793Y01736901
T03
X0150368Y00381871
X014921Y00431801
X0149296Y0045426
X0097028Y00507601
X0101346Y00596501
X0114554Y00544431
X0118364
X013017Y00637501
X013021Y00654301
X009624Y01144401
X009001Y010755
X006786Y01194101
X006636
X006386Y01225501
X006914Y01226901
X006948Y01292901
X005467Y01310701
Y01325701
X005526Y01211301
Y01196301
X005069Y01308001
Y01323001
X000562Y011729
X00090171Y01099871
X000708Y01477601
X000624Y01487301
X000344Y01516201
X000253Y01524901
X0025102Y01617581
X002456Y01646001
Y01659501
X002995Y01628501
X003028Y01614101
X003534Y015678
X00368Y01568
X0038735Y01566851
X004261Y01624501
X005058Y01672701
X004789Y01426001
X006625Y01439801
X007004Y01422801
X007007Y01392801
X006453Y01568
X008147Y01536501
X008145Y01524101
X008282
X008284Y01536501
X01170468Y01563333
X012855Y01335001
X01394Y01345801
X01486838Y01416301
X015586Y01413601
X013341Y01588369
X014082Y01874001
X014786Y01902501
X015177Y01943831
X014266Y019992
X014157Y02110401
X014626Y02089701
X000586Y02295501
X000734Y02311101
X000422Y02279701
X01225564Y02281901
X01276765
X012913
X015751Y02266201
X016041Y02244501
X016205Y02244601
X01615Y02231701
X01594Y02231801
X016263Y02266201
X016666Y02237401
Y02214901
X016756Y02223801
X016903Y02287201
X016202Y02141801
X016071Y02141901
X015938Y02142301
X017356Y02193001
X017455Y02202701
X01746Y02287201
X01764734
X01783467
X018022
X019085Y02328701
X01942
X019755
T04
X00234484Y00044601
X0025587
X00277255
X00298641
X00320027
X00341413
X00362799
X00384185
X00405571
X00426957
X00448342
X00469728
X00491114
X005125
X00533886
X00555272
X00576658
X00598043
X00619429
X00640815
X00662201
X00683587
X00704973
X00726359
X00747745
X0076913
X00790516
X00995Y00124601
X01915Y0012723
X01935
X01955
X01975
Y00105915
X01955
X01935
X01915
Y00084601
X01935
X01955
X01975
X0264Y00134601
X0266
X0268
X027
X0272
X0274
X0276
X02759835Y00156055
X02739835
X02719835
X02699835
X02679835
X02659835
X02639835
Y00177369
X02659835
X02679835
X02699835
X02719835
X02739835
X02759835
Y00198684
X02739835
X02719835
X02699835
X02679835
X02659835
X02639835
X02525166Y00193944
X02525Y00215399
Y00236713
Y00258028
Y00279342
Y00349601
Y00370915
Y0039223
Y00413544
Y00434859
Y00456173
Y00477488
Y00498802
X02615Y00459601
Y004396
Y004196
Y003996
Y00379601
Y00359601
Y00339601
Y00319601
X0264
Y00339601
Y00359601
Y00379601
Y003996
Y004196
Y004396
Y00459601
X02505Y00456173
X02485
X02465
X02445
X02425
X02405
X02385
Y00477488
X02405
X02425
X02445
X02465
X02485
X02505
Y00498802
X02485
X02465
X02445
X02425
X02405
X02385
Y00519173
X02405
Y00434859
X02425
X02445
X02465
X02485
X02505
Y00413544
X02485
X02465
X02445
X02425
X02405
X02385
Y0039223
X02405
X02425
X02445
X02465
X02485
X02505
Y00370915
X02485
X02465
X02445
X02425
X02405
X02385
Y00349601
X02405
X02425
X02445
X02465
X02485
X02505
X02495Y00322915
X02475
Y00301601
X02495
X02505Y00279342
X02485
X02465
X02445
X02425
X02405
X02385
Y00258028
X02405
X02425
X02445
X02465
X02485
X02505
Y00236713
X02485
X02465
X02445
X02425
X02405
X02385
Y00215399
X02405
X02425
X02445
X02465
X02485
X02505
X02505166Y00193944
X02485166
X02465166
X02445166
X02425166
X02405166
X02385166
X02405Y00301601
X02425
Y00322915
X02405
X02385Y00434859
X0226Y00424859
X0224
X0222
X022
X0218
X0216
X0214
Y00403544
X0216
X0218
X022
X0222
X0224
X0226
Y0038223
X0224
X0222
X022
X0218
X0216
X0214
Y00360915
X0216
X0218
X022
X0222
X0224
X0226
Y00339601
X0224
X0222
X022
X0218
X0216
X0214
Y00316915
Y00295601
Y00275399
X0216
X0218
X022
X0222
X0224
X0226
Y00254084
X0224
X0222
X022
X0218
X0216
X0214
Y0023277
X0216
X0218
X022
X0222
X0224
X0226
Y00211455
X0224
X0222
X022
X0218
X0216
X0214
X02139685Y00191142
X02159685
X02179685
X02199685
X02219685
X02239685
X02259685
X02241Y00298601
X02222
X02202
Y00319915
X02222
X02241
X0224Y00446173
X0226
Y00467488
X0224
X0222
X022
X0218
X0216
X0214
Y00446173
X0216
X0218
X022
X0222
Y00488802
X022
X0218
X0216
X0214
Y005223
X0224Y00523601
X0226
Y00488802
X0224
X02495Y00520173
X02515
X0212Y005223
Y00488802
Y00467488
Y00446173
Y00424859
Y00403544
Y0038223
Y00360915
Y00339601
Y00316915
Y00295601
Y00275399
Y00254084
Y0023277
Y00211455
X02119685Y00191142
X01975Y00191173
X01955
X01935
X01915
Y00212488
X01935
X01955
X01975
Y00233802
X01955
X01935
X01915
Y00255117
X01935
X01955
X01975
Y00276431
X01955
X01935
X01915
Y00297746
X01935
X01955
X01975
Y0031906
X01955
X01935
X01915
Y00340375
X01935
X01955
X01975
Y00361689
X01955
X01935
X01915
Y00383004
X01935
X01955
X01975
Y00404319
X01955
X01935
X01915
Y00425633
X01935
X01955
X01975
Y00446948
X01955
X01935
X01915
Y00468262
X01935
X01955
X01975
Y00489577
X01955
X01935
X01915
Y00510891
X01935
X01955
X01975
Y00532206
X01955
X01935
X01915
Y00169859
X01935
X01955
X01975
Y00148544
X01955
X01935
X01915
X01725Y00189601
X01705
X01685
X01665
X01645
Y00211028
X01665
X01685
X01705
X01725
Y00232455
X01705
X01685
X01665
X01645
Y00253882
X01665
X01685
X01705
X01725
Y00275309
X01705
X01685
X01665
X01645
Y00296736
X01665
X01685
X01705
X01725
Y00339534
X01705
X01685
X01665
X01645
Y00360117
Y00318163
X0162Y00313882
Y00292455
Y00271028
X01595Y00269601
Y00291028
Y00312455
X0162Y00335309
X01725Y00360117
X01715Y00507601
X01695
X01675
X01655
X01635
X01615
X01595
X01575
X01584Y00528601
X01604
X01624
X01644
X01145Y00252263
X01125
Y00230836
X01145
Y00209409
X01125
Y00187982
X01145
Y00166555
X01125
Y00145184
X01145
X00995
Y00166555
X00758467Y00205401
X007387
Y00225201
X00758467
Y00245001
X007387
Y002648
X00758467
X00718117
Y00245001
Y00225201
Y00205401
X00697534
Y00225201
Y00245001
Y002648
X00676367
Y00245001
Y00225201
Y00205401
X00655784
Y00225201
Y00245001
Y002648
X006352
Y00245001
Y00225201
Y00205401
X00614034
Y00225201
Y00245001
Y002648
X0059345
Y00245001
Y00225201
Y00205401
X00572484
Y00225201
Y00245001
Y002648
X0059345Y00309401
X00614034
X006352
X00655784
X00676367
X00697534
X00718117
X007387
X00758467
Y00334429
X007387
X00718117
X00697534
X00676367
X00655784
X006352
X00614034
X0059345
X00614034Y00359458
X006352
X00655784
X00676367
X00697534
X00718117
X007387
X00758467
Y00384515
X007387
X00718117
X00697534
Y00405543
X00718117
X007387
X00758467
Y00427572
X007387
X00718117
X00697534
X00676367
X00655784
X006352
X00614034
X0059345
X00572484
Y004496
X0059345
X00614034
X006352
X00655784
X00676367
X00697534
X00718117
X007387
X00758467
Y00472901
X007387
X00718117
Y00493484
X007387
X00758467
Y00516651
X007387
X00718117
X00697534
X00676367
Y00493484
Y00472901
X00697534
Y00493484
X005917Y00493467
X00572484
Y00472901
X005917
Y00516651
X00572484
X0059345Y00405543
X00614034
Y00384515
X0059345
X006352
X00655784
X00676367
Y00405543
X00655784
X006352
X004381Y00429601
X00419884
X00400634
X00378434
X00357267
X00336684
X003161
Y00404601
X00336684
X00357267
X00378434
X00400634
X00378434Y003803
X00357267
X00336684
X003161
X00294934
X0027435
X00253767
X002326
Y0035855
X00253767
X0027435
X00294934
X003161
X00336684
X00357267
X00378434
Y00335176
X00398917
Y003118
X00378434
X00357267
X00336684
X003161
X00294934
X0027435
X00253767
X002326
Y00335176
X00253767
X0027435
X00294934
X003161
X00336684
X00357267
X00357367Y002648
Y00245001
Y00225201
Y00205401
X00336784
Y00225201
Y00245001
Y002648
X003157
X003162Y00245001
Y00225201
Y00205401
X00295034
X0027545
Y00225201
X00295034
Y00245001
X0027545
Y002648
X00295034
X00253867
Y00245001
Y00225201
Y00205401
X002337
Y00225201
Y00245001
Y002648
X00378534
Y00245001
Y00225201
Y00205401
X00399117
Y00225201
Y00245001
Y002648
X00420284
Y00245001
Y00225201
Y00205401
X00419884Y00457901
X004381
Y00483467
X00419884
Y00509351
X004381
X00294934Y00404601
X0027435
X00253767
X00065Y00350117
Y00328802
Y00307488
Y00286173
Y00264859
Y00243544
Y0022223
Y00200915
Y00179601
Y00519601
Y00540915
Y0056223
Y00583544
Y00604859
Y00626173
Y00647488
Y00668802
Y00690117
X002524Y00726201
Y00747701
Y00770601
Y00793701
X00275984
Y00770601
Y00747701
Y00726201
X0030015
Y00747701
Y00770601
Y00793701
X00324317
X00346484
X00367067
X0038765
X00408817
X004294
X00449984
Y008186
X004294
X00408817
X0038765
X00367067
X00346484
X00324317
X0030015
X00275984
X002524
X00324317Y00770601
X00346484
X00367067
X0038765
X00408817
X0038765Y00747701
X00367067
X00346484
Y00726201
X00367067
X0038765
X00324317
Y00747701
X005362Y00781201
Y00803886
Y00825229
Y00846572
Y00867915
Y00889258
Y009106
Y00934601
X00556784
X00578154
X00599582
X00621009
X00642436
X00663863
X0068529
X00706717
Y009106
Y00889258
Y00867915
Y00846572
Y00825229
Y00803886
X0068529
Y00825229
Y00846572
Y00867915
Y00889258
Y009106
X00663863
Y00889258
Y00867915
Y00846572
Y00825229
Y00803886
X00642436
Y00825229
Y00846572
Y00867915
Y00889258
Y009106
X00621009
Y00889258
Y00867915
Y00846572
Y00825229
Y00803886
X00599582
Y00825229
Y00846572
Y00867915
Y00889258
Y009106
X00578154
Y00889258
Y00867915
Y00846572
Y00825229
Y00803886
X00556784
Y00825229
Y00846572
Y00867915
Y00889258
Y009106
Y00781201
X00578154
X00599582
X00621009
X00642436
X00663863
X0068529
X00706717
X00706136Y00750286
X00684709
X00663282
X00641854
X00620428
X00599
Y00727601
X00620428
X00641854
X00663282
X00684709
X00706136
X01575Y00679601
X01595
X01615
X01635
X01655
X01675
X01695
X01715
Y00658286
X01695
X01675
X01655
X01635
X01615
X01595
X01575
Y00636972
X01595
X01615
X01635
X01655
X01675
X01695
X01715
Y00615657
X01695
X01675
X01655
X01635
X01615
X01595
X01575
Y00594342
X01595
X01615
X01635
X01655
X01675
X01695
X01715
Y00573028
X01695
X01675
X01655
X01635
X01615
X01595
X01575
Y00551713
X01595
X01615
X01635
X01655
X01675
X01695
X01715
X01697Y00699286
X01677
X01657
X01637
Y00720601
X01657
X01677
X01697
X01915Y00724037
X01935
X01955
X01975
Y00702722
X01955
X01935
X01915
Y00681408
X01935
X01955
X01975
Y00660093
X01955
X01935
X01915
Y00638778
X01935
X01955
X01975
Y00617464
X01955
X01935
X01915
Y00596149
X01935
X01955
X01975
Y00574835
X01955
X01935
X01915
Y0055352
X01935
X01955
X01975
X0212Y00543614
Y00564929
Y00600657
Y00621972
Y00643286
Y00665399
Y00829601
X02119834Y00851055
Y0087237
Y00893684
Y00914999
Y00936313
X0214
X0216
X0218
X022
X0222
X02239834
X02259834
X02279835
Y00914999
X02259834
X02239834
X0222
X022
X0218
X0216
X0214
Y00893684
X0216
X0218
X022
X0222
X02239834
X02259834
X02279835
Y0087237
X02259834
X02239834
X0222
X022
X0218
X0216
X0214
Y00851055
X0216
X0218
X022
X0222
X02239834
X02259834
X02279835
Y00829601
X0226
X0224
X0222
X022
X0218
X0216
X0214
X02141Y0080837
X02161001
X02181
X02201
X02221
Y00787055
X02201
X02181
X02161001
X02141
Y00765601
X02161001
X02181
X02201
X02221
X0222Y00665399
X022
X0218
X0216
X0214
Y00643286
X0216
X0218
X022
X0222
X0224
X0226
Y00621972
X0224
X0222
X022
X0218
X0216
X0214
Y00600657
X0216
X0218
X022
X0222
X0224
X0226
Y0056623
X0224
Y00544915
X0226
Y00665399
X0228
X023
X0232
X0234
X0236
X0238
X024
X0242
X0244
X0246
X0248
X025
X0252
X02515Y00562802
X02495
Y00541488
X02515
X02405Y00540488
X02385
Y00561802
X02405
X0242Y00773601
X0244
X0246
X0248
X025
X0252
X02519835Y00795055
X02499834
X02479834
X02459834
X02439834
X02419835
X0242Y00829601
X0244
X0246
X0248
X025
X0252
X02519835Y00851055
X02499834
X02479834
X02459834
X02439834
X02419835
X02399835
X02379835
X02359834
Y0087237
X02379835
X02399835
X02419835
X02439834
X02459834
X02479834
X02499834
X02519835
Y00893684
X02499834
X02479834
X02459834
X02439834
X02419835
X02399835
X02379835
X02359834
Y00914999
X02379835
X02399835
X02419835
X02439834
X02459834
X02479834
X02499834
X02519835
Y00936313
X02499834
X02479834
X02459834
X02439834
X02419835
X02399835
X02379835
X02359834
X0236Y00829601
X0238
X024
X0224Y00665399
X0214Y00564929
Y00543614
X0254Y00665399
X0254Y00773601
X0256
X0258
X026
X0262
X0264
X02639835Y00795055
X02619835
X02599835
X02579835
X02559835
X02539835
X0254Y00829601
X0256
X0258
X026
X0262
X0264
X02639835Y00851055
X02619835
X02599835
X02579835
X02559835
X02539835
Y0087237
X02559835
X02579835
X02599835
X02619835
X02639835
Y00893684
X02619835
X02599835
X02579835
X02559835
X02539835
Y00914999
X02559835
X02579835
X02599835
X02619835
X02639835
Y00936313
X02619835
X02599835
X02579835
X02559835
X02539835
X02279835Y00959601
X0226
X0224
X0222
X022
X0218
X0216
X0214
Y00980915
X0216
X0218
X022
X0222
X0224
X0226
X02279835
Y0100223
X0226
X0224
X0222
X022
X0218
X0216
X0214
X0212
Y00980915
Y00959601
X00455517Y01054601
Y01074601
Y01094601
Y01114601
Y01134601
X0043409
Y01114601
Y01094601
Y01074601
Y01054601
X00412663
Y01074601
Y01094601
Y01114601
Y01134601
X00391236
Y01114601
Y01094601
Y01074601
Y01054601
X00369809
Y01074601
Y01094601
Y01114601
Y01134601
X00348382
Y01114601
Y01094601
Y01074601
Y01054601
X00326954
Y01074601
Y01094601
Y01114601
Y01134601
X00305584
Y01114601
Y01094601
Y01074601
Y01054601
X00285
Y01074601
Y01094601
Y01114601
Y01134601
X00279292Y013256
X00257865
X00300719
X00322146
X00343573
X00365
X0013Y01319409
X0011
X0009
Y01297982
X0011
X0013
Y01276555
X0011
X0009
Y01255184
X0011
X0013
Y01234601
X0011
X0009
Y01340836
X0011
X0013
Y01362263
X0011
X0009
X00150985
X00171569
X00192939
X00214366
X00235794
X00257221
X00278648
X00278865Y01344601
X00300292
X00300075Y01362263
X00321719Y01344601
X00343146
X00364573
X00386
X01925Y01606971
X01945
X01965
X01985
X02005
X02025
X02044834
X02064
X02084
X02104
X02124
Y01628286
X02104
X02084
X02064
X02044834
X02025
X02005
X01985
X01965
X01945
X01925
Y01649601
X01945
X01965
X01985
X02005
X02025
X02044834
X02064
X02084
X02104
X02124
X02144
X02164
X02184
X02204
X02223835
Y01628286
X02204
X02184
X02164
X02144
Y01606971
X02164
X02184
X02204
X02223835
X02415Y0158723
X02435
X02455
X02475
X02495
X02515
Y01565915
X02495
X02475
X02455
X02435
X02415
Y01544601
X02435
X02455
X02475
X02495
X02515
X02505Y0146723
X02485
X02465
X02445
X02425
X02405
Y01445915
X02425
X02445
X02465
X02485
X02505
Y01424601
X02485
X02465
X02445
X02425
X02405
X02535Y01544601
Y01565915
Y0158723
X02525Y01911713
X02545
X02565
X02585
X02605
X02625
X02645
X02665
X02685
X02705
X02725
X02745
Y01933028
X02725
X02705
X02685
X02665
X02645
X02625
X02605
X02585
X02565
X02545
X02525
Y01954342
X02545
X02565
X02585
X02605
X02625
X02645
X02665
X02685
X02705
X02725
X02745
Y01975657
X02725
X02705
X02685
X02665
X02645
X02625
X02605
X02585
X02565
X02545
X02525
Y01996971
X02545
X02565
X02585
X02605
X02625
X02645
X02665
X02685
X02705
X02725
X02745
Y02018286
X02725
X02705
X02685
X02665
X02645
X02625
X02605
X02585
X02565
X02545
X02525
Y02039601
X02545
X02565
X02585
X02605
X02625
X02645
X02665
X02685
X02705
X02725
X02745
X02625Y02061713
X02605
X02585
X02565
X02545
X02525
Y02083028
X02545
X02565
X02585
X02605
X02625
Y02104342
X02605
X02585
X02565
X02545
X02525
Y02125657
X02545
X02565
X02585
X02605
X02625
X02505Y02104342
Y02083028
X02485
Y02061713
X02505
Y02039601
X02485
X02465
Y02018286
X02485
X02505
Y01996971
X02485
X02465
Y01975657
X02485
X02505
Y01954342
X02485
X02465
Y01933028
X02485
X02505
Y01911713
X02485
X02465
X02285Y01911713
X02265
X02245
X02225
X02205
X02185
X02165
X02145
Y01933028
X02165
X02185
X02205
X02225
X02245
X02265
X02285
Y01954342
X02265
X02245
X02225
X02205
X02185
X02165
X02145
Y01975657
X02165
X02185
X02205
X02225
X02245
X02265
X02285
Y01996971
X02265
X02245
X02225
X02205
X02185
X02165
X02145
Y02018286
X02165
X02185
X02205
X02225
X02245
X02265
X02285
Y02039601
X02265
X02245
X02225
X02205
X02185
X02165
X02145
X02145Y02061971
X02165
X02185
X02205
X02225
X02245
X02265
X02285
Y02083286
X02265
X02245
X02225
X02205
X02185
X02165
X02145
X02125Y02083286
X02105
X02085
Y02061971
X02105
X02125
X02125Y02039601
X02105
X02085
Y02018286
X02105
X02125
Y01996971
X02105
X02085
Y01975657
X02065
X02045
X02025
X02005
Y01954342
X02025
X02045
X02065
X02085
X02105
X02125
Y01933028
X02105
X02085
X02065
X02045
X02025
X02005
Y01911713
X02025
X02045
X02065
X02085
X02105
X02125
Y01975657
X02105
X02545Y02146971
X02565
X02585
X02605
X02625
Y02168286
X02605
X02585
X02565
X02585Y02189601
X02605
X02625
T05
X0007532Y0004904
X0006652Y00070241
X000753Y00091441
X0009652Y0010024
X0011772Y00091441
X0012652Y00070241
X0011772Y0004904
X0009652Y00040241
X014393Y00089761
X014305Y00110961
X0143928Y00132161
X014605Y00140961
X014817Y00132161
X014905Y00110961
X014817Y00089761
X014605Y00080961
X02662401Y00070241
X0267118Y00091441
X02692401Y0010024
X027136Y00091441
X02722401Y00070241
X027136Y0004904
X02692401Y00040241
X026712Y0004904
X0262881Y00226931
X0254381
X0155194Y00267571
X0148717
X0142621
X0136144
Y00182571
X0142621
X0148717
X0155194
X0266065Y00686671
X0274565
X0271771Y00967341
X0271644Y01043541
X0270764Y01112601
X0268644Y01121401
X0267764Y01142601
X0268642Y01163801
X0270764Y01172601
X0272884Y01163801
X0273764Y01142601
X0272884Y01121401
X0263144Y01043541
X0263271Y00967341
X014052Y01219301
X011807Y01073201
X011595Y01082001
X0113828Y01073201
X011295Y01052001
X011383Y01030801
X011595Y01022001
X011807Y01030801
X011895Y01052001
X01109Y01642901
X013637Y01403201
T06
X0102235Y00190101
X0104775
X0107315
X0109855
X0109982Y00426321
X0112522
X0115062
X0117602
X0103505Y00425051
X0100965
X0098425
X0095885
X01071969Y00745091
X01097369
X0046863Y01570591
X0044323
X0132729Y01659491
X0135269
X0108966Y02156061
X0106426
T07
X018542Y0044029
X0188087
X01593641Y0044415
Y0041875
X01571645Y0043145
Y0040605
X0022613Y00400921
Y00472041
X00127051Y00704147
X0006477Y00738671
X01071969Y00663805
X01106971
X0149063Y00735421
X0150749Y0081494
X0176749Y00732881
X0259369Y01261201
X0214038Y01221341
X0204851Y01291481
Y01071481
X0176749Y00952881
X0149063Y00955421
X010848Y01233501
X00478136Y01258121
Y01283521
X0045614Y01270821
Y01245421
X00516609Y01556595
X0055161
X00769709Y01649325
X0080471
X01192221Y01664935
Y01614135
Y01588735
X01268421
Y01614135
Y01639535
Y01664935
X0127411Y01492971
X0129936
X0132461
X0132461Y01442471
X0129936Y01442471
X0127411Y01442471
X0137511
Y01492971
X0259369Y01481201
X01649131Y01994782
X0161413
Y02082406
X01649131
X0074168Y02039221
X0059168
X0054168
Y0181922
X0064168
X0069168
X0074168
X0049168
X0044168
X0035433Y01852461
X0044168Y02039221
X0049168
X015565Y02137701
Y0215604
Y0217438
Y0219272
Y0221106
Y022294
T10
X0100203Y0133242
Y01607421
T11
X0213153Y02280521
Y02305921
X0215693
Y02280521
X0218233
Y02305921
X0220773
Y02280521
X0223313
Y02305921
X0225893
Y02280521
X0228433
Y02305921
X0230973
Y02280521
X0233513
Y02305921
X0236093
Y02280521
X0238633
Y02305921
X0241173
Y02280521
X0243713
Y02305921
X0246293
Y02280521
X0248833
Y02305921
T12
X01120933Y01455021
X01145933
X01512008Y01389001
X01537008
X01552108Y01590601
X01577108
X01373729Y02105261
X01323729
X0039751Y02145019
Y02195019
X0055626
Y02145019
X01197141Y02185271
X0124714
T13
X0096393Y0005354
X0102743
X0110109
X0116332Y0005227
Y00127271
X0110109Y00128541
X0102743
X0096393
X02585891Y00378061
X02765891
X0245017Y00310751
X02175171
X01099892Y00271381
X0102489
X00601451Y00287889
X0037645
X0161063Y00707421
X0188749Y00704881
X0216851Y01043481
X02239941Y01095611
X0251494
X0247369Y01233201
X0216851Y01319481
X0188749Y00980881
X0161063Y00983421
X01039501Y01664301
X009645
X0247369Y01509201
X0135269Y01738761
Y01963761
X0130269
X0125269
X0120269
X0110269
X0105269
Y01738761
X0110269
X0115269
X0120269
X0125269
X0130269
T14
X0254207Y00311091
X0264207Y00290091
X0263652Y00491091
X0235585Y00146921
X0225585Y00167921
X005453Y00158011
X004453Y00179011
X0265752Y00591091
T15
X0167134Y00320051
X0169674
X0172214
Y0053005
X0169674
X0167134
X0059898Y01044811
X00378441Y01159521
X00353041
X00327641
X00223981Y01044811
X00327641Y0136952
X00353041
X00378441
X00678Y02157201
Y02208001
T16
X00731553Y02182035
T17
X0169545Y00125961
X0185674Y00126601
X0214122Y00125331
X0247436Y00124691
X0069913Y00155411
X0063211Y00497441
X0037211
X0029909Y00155411
X0045211Y00737441
X0055211
X0227029Y00783181
X0237029
X0245029Y00543181
X0219029
X0068326Y01006711
X0019685Y01275951
X0226539Y01631551
X0248539
X02675891Y02126851
X0242539Y01951551
X0232539
X0202438Y02049381
X0154123Y01756011
T18
X0009652Y00070241
X014605Y00110961
X02692401Y00070241
X0270764Y01142601
X011595Y01052001
M30
