G04*
G04 #@! TF.GenerationSoftware,Altium Limited,Altium Designer,25.3.3 (18)*
G04*
G04 Layer_Color=255*
%FSLAX44Y44*%
%MOMM*%
G71*
G04*
G04 #@! TF.SameCoordinates,95261EA5-16E4-4C31-8C51-D7BA18121D47*
G04*
G04*
G04 #@! TF.FilePolarity,Positive*
G04*
G01*
G75*
%ADD29R,3.5000X2.0000*%
%ADD30R,0.9500X0.9000*%
G04:AMPARAMS|DCode=31|XSize=0.9mm|YSize=1.6mm|CornerRadius=0.135mm|HoleSize=0mm|Usage=FLASHONLY|Rotation=0.000|XOffset=0mm|YOffset=0mm|HoleType=Round|Shape=RoundedRectangle|*
%AMROUNDEDRECTD31*
21,1,0.9000,1.3300,0,0,0.0*
21,1,0.6300,1.6000,0,0,0.0*
1,1,0.2700,0.3150,-0.6650*
1,1,0.2700,-0.3150,-0.6650*
1,1,0.2700,-0.3150,0.6650*
1,1,0.2700,0.3150,0.6650*
%
%ADD31ROUNDEDRECTD31*%
%ADD32R,0.9000X0.9500*%
G04:AMPARAMS|DCode=33|XSize=1.1mm|YSize=1.2mm|CornerRadius=0.165mm|HoleSize=0mm|Usage=FLASHONLY|Rotation=180.000|XOffset=0mm|YOffset=0mm|HoleType=Round|Shape=RoundedRectangle|*
%AMROUNDEDRECTD33*
21,1,1.1000,0.8700,0,0,180.0*
21,1,0.7700,1.2000,0,0,180.0*
1,1,0.3300,-0.3850,0.4350*
1,1,0.3300,0.3850,0.4350*
1,1,0.3300,0.3850,-0.4350*
1,1,0.3300,-0.3850,-0.4350*
%
%ADD33ROUNDEDRECTD33*%
G04:AMPARAMS|DCode=34|XSize=0.9mm|YSize=1.3mm|CornerRadius=0.225mm|HoleSize=0mm|Usage=FLASHONLY|Rotation=90.000|XOffset=0mm|YOffset=0mm|HoleType=Round|Shape=RoundedRectangle|*
%AMROUNDEDRECTD34*
21,1,0.9000,0.8500,0,0,90.0*
21,1,0.4500,1.3000,0,0,90.0*
1,1,0.4500,0.4250,0.2250*
1,1,0.4500,0.4250,-0.2250*
1,1,0.4500,-0.4250,-0.2250*
1,1,0.4500,-0.4250,0.2250*
%
%ADD34ROUNDEDRECTD34*%
G04:AMPARAMS|DCode=35|XSize=0.9mm|YSize=1.6mm|CornerRadius=0.135mm|HoleSize=0mm|Usage=FLASHONLY|Rotation=270.000|XOffset=0mm|YOffset=0mm|HoleType=Round|Shape=RoundedRectangle|*
%AMROUNDEDRECTD35*
21,1,0.9000,1.3300,0,0,270.0*
21,1,0.6300,1.6000,0,0,270.0*
1,1,0.2700,-0.6650,-0.3150*
1,1,0.2700,-0.6650,0.3150*
1,1,0.2700,0.6650,0.3150*
1,1,0.2700,0.6650,-0.3150*
%
%ADD35ROUNDEDRECTD35*%
G04:AMPARAMS|DCode=36|XSize=0.9mm|YSize=1.3mm|CornerRadius=0.225mm|HoleSize=0mm|Usage=FLASHONLY|Rotation=180.000|XOffset=0mm|YOffset=0mm|HoleType=Round|Shape=RoundedRectangle|*
%AMROUNDEDRECTD36*
21,1,0.9000,0.8500,0,0,180.0*
21,1,0.4500,1.3000,0,0,180.0*
1,1,0.4500,-0.2250,0.4250*
1,1,0.4500,0.2250,0.4250*
1,1,0.4500,0.2250,-0.4250*
1,1,0.4500,-0.2250,-0.4250*
%
%ADD36ROUNDEDRECTD36*%
G04:AMPARAMS|DCode=37|XSize=0.7mm|YSize=1.3mm|CornerRadius=0.105mm|HoleSize=0mm|Usage=FLASHONLY|Rotation=180.000|XOffset=0mm|YOffset=0mm|HoleType=Round|Shape=RoundedRectangle|*
%AMROUNDEDRECTD37*
21,1,0.7000,1.0900,0,0,180.0*
21,1,0.4900,1.3000,0,0,180.0*
1,1,0.2100,-0.2450,0.5450*
1,1,0.2100,0.2450,0.5450*
1,1,0.2100,0.2450,-0.5450*
1,1,0.2100,-0.2450,-0.5450*
%
%ADD37ROUNDEDRECTD37*%
G04:AMPARAMS|DCode=38|XSize=1.4mm|YSize=1.55mm|CornerRadius=0.35mm|HoleSize=0mm|Usage=FLASHONLY|Rotation=0.000|XOffset=0mm|YOffset=0mm|HoleType=Round|Shape=RoundedRectangle|*
%AMROUNDEDRECTD38*
21,1,1.4000,0.8500,0,0,0.0*
21,1,0.7000,1.5500,0,0,0.0*
1,1,0.7000,0.3500,-0.4250*
1,1,0.7000,-0.3500,-0.4250*
1,1,0.7000,-0.3500,0.4250*
1,1,0.7000,0.3500,0.4250*
%
%ADD38ROUNDEDRECTD38*%
G04:AMPARAMS|DCode=39|XSize=2.5mm|YSize=2.3mm|CornerRadius=0.575mm|HoleSize=0mm|Usage=FLASHONLY|Rotation=270.000|XOffset=0mm|YOffset=0mm|HoleType=Round|Shape=RoundedRectangle|*
%AMROUNDEDRECTD39*
21,1,2.5000,1.1500,0,0,270.0*
21,1,1.3500,2.3000,0,0,270.0*
1,1,1.1500,-0.5750,-0.6750*
1,1,1.1500,-0.5750,0.6750*
1,1,1.1500,0.5750,0.6750*
1,1,1.1500,0.5750,-0.6750*
%
%ADD39ROUNDEDRECTD39*%
G04:AMPARAMS|DCode=40|XSize=0.7mm|YSize=1.3mm|CornerRadius=0.105mm|HoleSize=0mm|Usage=FLASHONLY|Rotation=270.000|XOffset=0mm|YOffset=0mm|HoleType=Round|Shape=RoundedRectangle|*
%AMROUNDEDRECTD40*
21,1,0.7000,1.0900,0,0,270.0*
21,1,0.4900,1.3000,0,0,270.0*
1,1,0.2100,-0.5450,-0.2450*
1,1,0.2100,-0.5450,0.2450*
1,1,0.2100,0.5450,0.2450*
1,1,0.2100,0.5450,-0.2450*
%
%ADD40ROUNDEDRECTD40*%
G04:AMPARAMS|DCode=41|XSize=1.3mm|YSize=1.5mm|CornerRadius=0.195mm|HoleSize=0mm|Usage=FLASHONLY|Rotation=0.000|XOffset=0mm|YOffset=0mm|HoleType=Round|Shape=RoundedRectangle|*
%AMROUNDEDRECTD41*
21,1,1.3000,1.1100,0,0,0.0*
21,1,0.9100,1.5000,0,0,0.0*
1,1,0.3900,0.4550,-0.5550*
1,1,0.3900,-0.4550,-0.5550*
1,1,0.3900,-0.4550,0.5550*
1,1,0.3900,0.4550,0.5550*
%
%ADD41ROUNDEDRECTD41*%
%ADD42O,2.0000X0.5500*%
G04:AMPARAMS|DCode=43|XSize=0.9mm|YSize=1.6mm|CornerRadius=0.225mm|HoleSize=0mm|Usage=FLASHONLY|Rotation=180.000|XOffset=0mm|YOffset=0mm|HoleType=Round|Shape=RoundedRectangle|*
%AMROUNDEDRECTD43*
21,1,0.9000,1.1500,0,0,180.0*
21,1,0.4500,1.6000,0,0,180.0*
1,1,0.4500,-0.2250,0.5750*
1,1,0.4500,0.2250,0.5750*
1,1,0.4500,0.2250,-0.5750*
1,1,0.4500,-0.2250,-0.5750*
%
%ADD43ROUNDEDRECTD43*%
G04:AMPARAMS|DCode=44|XSize=1.3mm|YSize=3mm|CornerRadius=0.195mm|HoleSize=0mm|Usage=FLASHONLY|Rotation=270.000|XOffset=0mm|YOffset=0mm|HoleType=Round|Shape=RoundedRectangle|*
%AMROUNDEDRECTD44*
21,1,1.3000,2.6100,0,0,270.0*
21,1,0.9100,3.0000,0,0,270.0*
1,1,0.3900,-1.3050,-0.4550*
1,1,0.3900,-1.3050,0.4550*
1,1,0.3900,1.3050,0.4550*
1,1,0.3900,1.3050,-0.4550*
%
%ADD44ROUNDEDRECTD44*%
%ADD45R,0.5588X1.9812*%
G04:AMPARAMS|DCode=46|XSize=2.5mm|YSize=1.7mm|CornerRadius=0.425mm|HoleSize=0mm|Usage=FLASHONLY|Rotation=90.000|XOffset=0mm|YOffset=0mm|HoleType=Round|Shape=RoundedRectangle|*
%AMROUNDEDRECTD46*
21,1,2.5000,0.8500,0,0,90.0*
21,1,1.6500,1.7000,0,0,90.0*
1,1,0.8500,0.4250,0.8250*
1,1,0.8500,0.4250,-0.8250*
1,1,0.8500,-0.4250,-0.8250*
1,1,0.8500,-0.4250,0.8250*
%
%ADD46ROUNDEDRECTD46*%
%ADD47R,2.0000X3.5000*%
%ADD48R,3.5000X2.5000*%
%ADD49O,1.8000X0.5500*%
%ADD50R,3.3000X2.4000*%
%ADD51R,1.0000X2.4000*%
G04:AMPARAMS|DCode=52|XSize=2.5mm|YSize=1.7mm|CornerRadius=0.425mm|HoleSize=0mm|Usage=FLASHONLY|Rotation=0.000|XOffset=0mm|YOffset=0mm|HoleType=Round|Shape=RoundedRectangle|*
%AMROUNDEDRECTD52*
21,1,2.5000,0.8500,0,0,0.0*
21,1,1.6500,1.7000,0,0,0.0*
1,1,0.8500,0.8250,-0.4250*
1,1,0.8500,-0.8250,-0.4250*
1,1,0.8500,-0.8250,0.4250*
1,1,0.8500,0.8250,0.4250*
%
%ADD52ROUNDEDRECTD52*%
%ADD53R,2.5000X3.5000*%
%ADD82C,4.1000*%
%ADD118C,1.9000*%
%ADD125R,9.7500X12.2000*%
%ADD126R,12.2000X9.7500*%
%ADD132C,1.2000*%
%ADD133C,5.0000*%
%ADD134C,3.0000*%
%ADD135C,1.5240*%
%ADD136C,8.0000*%
%ADD137C,1.6050*%
%ADD138R,1.6050X1.6050*%
%ADD139C,6.0000*%
%ADD140O,5.0000X6.0000*%
%ADD141C,9.0000*%
%ADD142R,1.5000X1.5000*%
%ADD143C,1.5000*%
G04:AMPARAMS|DCode=144|XSize=4mm|YSize=4mm|CornerRadius=1mm|HoleSize=0mm|Usage=FLASHONLY|Rotation=90.000|XOffset=0mm|YOffset=0mm|HoleType=Round|Shape=RoundedRectangle|*
%AMROUNDEDRECTD144*
21,1,4.0000,2.0000,0,0,90.0*
21,1,2.0000,4.0000,0,0,90.0*
1,1,2.0000,1.0000,1.0000*
1,1,2.0000,1.0000,-1.0000*
1,1,2.0000,-1.0000,-1.0000*
1,1,2.0000,-1.0000,1.0000*
%
%ADD144ROUNDEDRECTD144*%
%ADD145C,2.0000*%
%ADD146C,1.6000*%
%ADD147C,3.0000*%
%ADD148C,2.2000*%
%ADD149C,1.8000*%
%ADD150O,1.9050X2.2860*%
%ADD151R,1.9050X2.2860*%
G04:AMPARAMS|DCode=152|XSize=1.6mm|YSize=1.6mm|CornerRadius=0.4mm|HoleSize=0mm|Usage=FLASHONLY|Rotation=90.000|XOffset=0mm|YOffset=0mm|HoleType=Round|Shape=RoundedRectangle|*
%AMROUNDEDRECTD152*
21,1,1.6000,0.8000,0,0,90.0*
21,1,0.8000,1.6000,0,0,90.0*
1,1,0.8000,0.4000,0.4000*
1,1,0.8000,0.4000,-0.4000*
1,1,0.8000,-0.4000,-0.4000*
1,1,0.8000,-0.4000,0.4000*
%
%ADD152ROUNDEDRECTD152*%
%ADD153C,1.6000*%
%ADD154C,1.7500*%
G04:AMPARAMS|DCode=155|XSize=1.75mm|YSize=1.75mm|CornerRadius=0.4375mm|HoleSize=0mm|Usage=FLASHONLY|Rotation=0.000|XOffset=0mm|YOffset=0mm|HoleType=Round|Shape=RoundedRectangle|*
%AMROUNDEDRECTD155*
21,1,1.7500,0.8750,0,0,0.0*
21,1,0.8750,1.7500,0,0,0.0*
1,1,0.8750,0.4375,-0.4375*
1,1,0.8750,-0.4375,-0.4375*
1,1,0.8750,-0.4375,0.4375*
1,1,0.8750,0.4375,0.4375*
%
%ADD155ROUNDEDRECTD155*%
%ADD156C,1.4000*%
G04:AMPARAMS|DCode=157|XSize=1.8mm|YSize=1.8mm|CornerRadius=0.45mm|HoleSize=0mm|Usage=FLASHONLY|Rotation=180.000|XOffset=0mm|YOffset=0mm|HoleType=Round|Shape=RoundedRectangle|*
%AMROUNDEDRECTD157*
21,1,1.8000,0.9000,0,0,180.0*
21,1,0.9000,1.8000,0,0,180.0*
1,1,0.9000,-0.4500,0.4500*
1,1,0.9000,0.4500,0.4500*
1,1,0.9000,0.4500,-0.4500*
1,1,0.9000,-0.4500,-0.4500*
%
%ADD157ROUNDEDRECTD157*%
%ADD158R,2.0000X2.0000*%
%ADD159C,2.0000*%
%ADD160C,2.4000*%
%ADD161R,2.0000X2.0000*%
%ADD162P,2.8284X4X275.0*%
%ADD163R,1.5000X1.5000*%
%ADD164R,2.0000X2.0000*%
%ADD165R,1.8000X1.8000*%
D29*
X1604310Y2162411D02*
D03*
Y2213211D02*
D03*
D30*
X954840Y509531D02*
D03*
X929840Y519031D02*
D03*
X954840Y528531D02*
D03*
X1114860Y508261D02*
D03*
X1089860Y517761D02*
D03*
X1114860Y527261D02*
D03*
X385600Y1745401D02*
D03*
X410600Y1754901D02*
D03*
X385600Y1764401D02*
D03*
Y1701701D02*
D03*
X410600Y1692201D02*
D03*
X385600Y1682701D02*
D03*
X435480Y1724921D02*
D03*
X460480Y1734421D02*
D03*
X435480Y1743921D02*
D03*
X285750Y1580800D02*
D03*
X260750Y1590301D02*
D03*
X285750Y1599801D02*
D03*
X1402280Y1456951D02*
D03*
X1427280Y1466451D02*
D03*
X1402280Y1475951D02*
D03*
Y1422661D02*
D03*
X1427280Y1432161D02*
D03*
X1402280Y1441661D02*
D03*
D31*
X958590Y487282D02*
D03*
X929590D02*
D03*
X1119400Y487281D02*
D03*
X1090400D02*
D03*
X1219900Y1492600D02*
D03*
X1190900D02*
D03*
X489480Y1626470D02*
D03*
X460480D02*
D03*
X85343Y1151491D02*
D03*
X56343D02*
D03*
X1219900Y1443576D02*
D03*
X1190900D02*
D03*
Y1468088D02*
D03*
X1219900D02*
D03*
X1190900Y1419064D02*
D03*
X1219900D02*
D03*
X114343Y1178160D02*
D03*
X85343D02*
D03*
X143343Y1151491D02*
D03*
X114343D02*
D03*
X143343Y1178160D02*
D03*
X172343D02*
D03*
X1175280Y487280D02*
D03*
X1146280D02*
D03*
X980650D02*
D03*
X1009650D02*
D03*
X1204490Y1542650D02*
D03*
X1175490D02*
D03*
X1222480D02*
D03*
X1251480D02*
D03*
X1270210D02*
D03*
X1299210D02*
D03*
D32*
X1049020Y486011D02*
D03*
X1039520Y511011D02*
D03*
X1030020Y486011D02*
D03*
X335940Y1743111D02*
D03*
X345440Y1718111D02*
D03*
X354940Y1743111D02*
D03*
X295300D02*
D03*
X304800Y1718111D02*
D03*
X314300Y1743111D02*
D03*
X1567180Y1518261D02*
D03*
X1576680Y1543261D02*
D03*
X1586180Y1518261D02*
D03*
D33*
X1317150Y2237341D02*
D03*
X1337150D02*
D03*
D34*
X248310Y1698251D02*
D03*
Y1717251D02*
D03*
X694692Y1249331D02*
D03*
Y1268331D02*
D03*
X1648699Y2181411D02*
D03*
Y2162411D02*
D03*
X1195070Y487281D02*
D03*
Y506281D02*
D03*
X341629Y1600411D02*
D03*
Y1581411D02*
D03*
X364489Y1600411D02*
D03*
Y1581411D02*
D03*
X410212D02*
D03*
Y1600411D02*
D03*
X285750Y1678491D02*
D03*
Y1659491D02*
D03*
X274322Y1698251D02*
D03*
Y1717251D02*
D03*
X1303589Y1334981D02*
D03*
Y1353981D02*
D03*
X1325179Y1334981D02*
D03*
Y1353981D02*
D03*
D35*
X489480Y1706201D02*
D03*
Y1735201D02*
D03*
X64770Y1017191D02*
D03*
Y1046191D02*
D03*
X91441Y988191D02*
D03*
Y1017191D02*
D03*
X90171Y1046191D02*
D03*
Y1075191D02*
D03*
X64770Y959191D02*
D03*
Y988191D02*
D03*
X1179901Y1191601D02*
D03*
Y1162601D02*
D03*
X1209961Y1331091D02*
D03*
Y1302091D02*
D03*
X1199801Y1285371D02*
D03*
Y1256371D02*
D03*
X1189501Y1239201D02*
D03*
Y1210201D02*
D03*
X318770Y1571331D02*
D03*
Y1600331D02*
D03*
X1220121Y1350351D02*
D03*
Y1379351D02*
D03*
X1160781Y1350351D02*
D03*
Y1379351D02*
D03*
X1134111Y1321351D02*
D03*
Y1350351D02*
D03*
X1111251Y1292351D02*
D03*
Y1321351D02*
D03*
X1085851Y1263351D02*
D03*
Y1292351D02*
D03*
D36*
X650500Y1327599D02*
D03*
X631500D02*
D03*
X568350Y1306429D02*
D03*
X587350D02*
D03*
X577240Y1188319D02*
D03*
X596240D02*
D03*
X1125340Y1526809D02*
D03*
X1144340D02*
D03*
X1125340Y1506489D02*
D03*
X1144340D02*
D03*
X611530Y1188319D02*
D03*
X630530D02*
D03*
X1146280Y510139D02*
D03*
X1165280D02*
D03*
X1009650Y511412D02*
D03*
X990650D02*
D03*
X302920Y1786489D02*
D03*
X321920D02*
D03*
X227480Y1702884D02*
D03*
X208480D02*
D03*
X419760Y1653139D02*
D03*
X438760D02*
D03*
X285750Y1640442D02*
D03*
X266750D02*
D03*
X1354729Y2215749D02*
D03*
X1373729D02*
D03*
X1317600Y1588369D02*
D03*
X1298600D02*
D03*
X1475240Y1377549D02*
D03*
X1456240D02*
D03*
X1475080Y1402949D02*
D03*
X1456080D02*
D03*
D37*
X568350Y1284841D02*
D03*
X587350D02*
D03*
X575920Y1258121D02*
D03*
X556920D02*
D03*
X558190Y1235311D02*
D03*
X577190D02*
D03*
X541630Y1258121D02*
D03*
X522630D02*
D03*
X541630Y1235311D02*
D03*
X522630D02*
D03*
X630530Y1209911D02*
D03*
X611530D02*
D03*
X577240D02*
D03*
X596240D02*
D03*
X470480Y1651871D02*
D03*
X489480D02*
D03*
X1473810Y1245541D02*
D03*
Y1353844D02*
D03*
Y1332183D02*
D03*
Y1310523D02*
D03*
Y1288862D02*
D03*
X1114400Y574911D02*
D03*
X1095400D02*
D03*
X1114400Y552051D02*
D03*
X1095400D02*
D03*
X928590Y572371D02*
D03*
X947590D02*
D03*
Y596501D02*
D03*
X928590D02*
D03*
Y548241D02*
D03*
X947590D02*
D03*
X796950Y1739501D02*
D03*
X815950D02*
D03*
X781660D02*
D03*
X762660D02*
D03*
X335940Y1764901D02*
D03*
X354940D02*
D03*
X385900Y1723101D02*
D03*
X404900D02*
D03*
X404470Y1653141D02*
D03*
X385470D02*
D03*
X208480Y1724897D02*
D03*
X227480D02*
D03*
X248310Y1736901D02*
D03*
X267310D02*
D03*
X285750Y1617581D02*
D03*
X266750D02*
D03*
Y1560431D02*
D03*
X285750D02*
D03*
X227600Y1652901D02*
D03*
X208600D02*
D03*
X208480Y1678331D02*
D03*
X227480D02*
D03*
X248310Y1678491D02*
D03*
X267310D02*
D03*
X470480Y1673461D02*
D03*
X489480D02*
D03*
X1373729Y2237341D02*
D03*
X1354729D02*
D03*
X1317600Y1568051D02*
D03*
X1298600D02*
D03*
X1428090Y1495661D02*
D03*
X1409090D02*
D03*
X1585570Y1474071D02*
D03*
X1566570D02*
D03*
X1454810Y1353844D02*
D03*
Y1332183D02*
D03*
Y1310523D02*
D03*
Y1288862D02*
D03*
Y1267202D02*
D03*
X1473810D02*
D03*
X1454810Y1245541D02*
D03*
Y1223881D02*
D03*
X1473810D02*
D03*
X1585570Y1496931D02*
D03*
X1566570D02*
D03*
D38*
X525210Y1284842D02*
D03*
X549210D02*
D03*
D39*
X1149350Y1669561D02*
D03*
X1149350Y1626561D02*
D03*
X1457960Y1442411D02*
D03*
X1457960Y1485411D02*
D03*
D40*
X1149350Y1579500D02*
D03*
Y1598501D02*
D03*
X387350Y1600411D02*
D03*
Y1581411D02*
D03*
X1517100Y1524401D02*
D03*
Y1543401D02*
D03*
X1539380Y1543261D02*
D03*
Y1524261D02*
D03*
X1491890Y1543261D02*
D03*
Y1524261D02*
D03*
D41*
X1013660Y539351D02*
D03*
X1038660D02*
D03*
D42*
X1413840Y1256901D02*
D03*
Y1269601D02*
D03*
Y1282301D02*
D03*
Y1295001D02*
D03*
Y1307701D02*
D03*
Y1320401D02*
D03*
Y1333101D02*
D03*
Y1345801D02*
D03*
X1359840Y1256901D02*
D03*
Y1269601D02*
D03*
Y1282301D02*
D03*
Y1295001D02*
D03*
Y1307701D02*
D03*
Y1320401D02*
D03*
Y1333101D02*
D03*
Y1345801D02*
D03*
D43*
X762750Y1712831D02*
D03*
X793750D02*
D03*
D44*
X713741Y1568041D02*
D03*
Y1535041D02*
D03*
X674371Y1568041D02*
D03*
Y1535041D02*
D03*
X751841Y1568041D02*
D03*
Y1535041D02*
D03*
X788671Y1568041D02*
D03*
Y1535041D02*
D03*
D45*
X349250Y1680319D02*
D03*
X336550D02*
D03*
X323850D02*
D03*
X311150D02*
D03*
Y1631043D02*
D03*
X323850D02*
D03*
X336550D02*
D03*
X349250D02*
D03*
D46*
X735330Y1737911D02*
D03*
X735330Y1697910D02*
D03*
D47*
X618490Y1605851D02*
D03*
X669290D02*
D03*
D48*
X1474470Y1659541D02*
D03*
Y1570540D02*
D03*
D49*
X610540Y1306431D02*
D03*
Y1293731D02*
D03*
Y1281031D02*
D03*
Y1268331D02*
D03*
Y1255631D02*
D03*
Y1242931D02*
D03*
Y1230231D02*
D03*
X664540Y1306431D02*
D03*
Y1293731D02*
D03*
Y1281031D02*
D03*
Y1268331D02*
D03*
Y1255631D02*
D03*
Y1242931D02*
D03*
Y1230231D02*
D03*
D50*
X1516380Y1439991D02*
D03*
D51*
X1493380Y1497991D02*
D03*
X1516380D02*
D03*
X1539380D02*
D03*
D52*
X1382080Y1377551D02*
D03*
X1422080Y1377551D02*
D03*
X1303340Y1377551D02*
D03*
X1343340Y1377551D02*
D03*
D53*
X1042721Y1232771D02*
D03*
X953720D02*
D03*
D82*
X2835000Y26700D02*
D03*
X2836732Y2328388D02*
D03*
X-35700Y36700D02*
D03*
X-35785Y2338388D02*
D03*
D118*
X1593641Y444150D02*
D03*
X1571645Y431450D02*
D03*
X1593641Y418750D02*
D03*
X1571645Y406050D02*
D03*
X478136Y1283521D02*
D03*
X456140Y1270821D02*
D03*
X478136Y1258121D02*
D03*
X456140Y1245421D02*
D03*
D125*
X1497010Y2187811D02*
D03*
D126*
X643890Y1713150D02*
D03*
D132*
X-57434Y88400D02*
D03*
X2853176Y78400D02*
D03*
X2825066Y2274421D02*
D03*
X-15834Y2284421D02*
D03*
D133*
X683260Y1006711D02*
D03*
X196850Y1275951D02*
D03*
X699130Y155411D02*
D03*
X1695450Y125961D02*
D03*
X1856740Y126601D02*
D03*
X2474360Y124691D02*
D03*
X299090Y155411D02*
D03*
X2024380Y2049381D02*
D03*
X2141220Y125331D02*
D03*
X2675891Y2126851D02*
D03*
X1541230Y1756011D02*
D03*
D134*
X658260Y966711D02*
D03*
Y1046711D02*
D03*
X708260Y966711D02*
D03*
Y1046711D02*
D03*
X221850Y1315951D02*
D03*
Y1235951D02*
D03*
X171850Y1315951D02*
D03*
Y1235951D02*
D03*
X739130Y130411D02*
D03*
X659130D02*
D03*
X739130Y180411D02*
D03*
X659130D02*
D03*
X1670450Y85961D02*
D03*
Y165961D02*
D03*
X1720450Y85961D02*
D03*
Y165961D02*
D03*
X1881740Y166601D02*
D03*
Y86601D02*
D03*
X1831740Y166601D02*
D03*
Y86601D02*
D03*
X2499360Y164691D02*
D03*
Y84691D02*
D03*
X2449360Y164691D02*
D03*
Y84691D02*
D03*
X259090Y180411D02*
D03*
X339090D02*
D03*
X259090Y130411D02*
D03*
X339090D02*
D03*
X2049380Y2089381D02*
D03*
Y2009381D02*
D03*
X1999380Y2089381D02*
D03*
Y2009381D02*
D03*
X2166220Y165331D02*
D03*
Y85331D02*
D03*
X2116220Y165331D02*
D03*
Y85331D02*
D03*
X2700891Y2166851D02*
D03*
Y2086851D02*
D03*
X2650891Y2166851D02*
D03*
Y2086851D02*
D03*
X1887490Y704881D02*
D03*
X1516230Y1716011D02*
D03*
Y1796011D02*
D03*
X1566230Y1716011D02*
D03*
Y1796011D02*
D03*
X1610630Y707421D02*
D03*
X2168510Y1043481D02*
D03*
X2473690Y1509201D02*
D03*
D135*
X1439300Y89761D02*
D03*
X1460500Y140961D02*
D03*
X1481700Y89761D02*
D03*
Y132161D02*
D03*
X1430500Y110961D02*
D03*
X1490500D02*
D03*
X1439280Y132161D02*
D03*
X1460500Y80961D02*
D03*
X2686440Y1121401D02*
D03*
X2707640Y1172601D02*
D03*
X2728840Y1121401D02*
D03*
Y1163801D02*
D03*
X2677640Y1142601D02*
D03*
X2737640D02*
D03*
X2686420Y1163801D02*
D03*
X2707640Y1112601D02*
D03*
X2671200Y49040D02*
D03*
X2692401Y100240D02*
D03*
X2713600Y49040D02*
D03*
Y91441D02*
D03*
X2662401Y70241D02*
D03*
X2722401D02*
D03*
X2671180Y91441D02*
D03*
X2692401Y40241D02*
D03*
X1138300Y1030801D02*
D03*
X1159500Y1082001D02*
D03*
X1180700Y1030801D02*
D03*
Y1073201D02*
D03*
X1129500Y1052001D02*
D03*
X1189500D02*
D03*
X1138280Y1073201D02*
D03*
X1159500Y1022001D02*
D03*
X75320Y49040D02*
D03*
X96520Y100240D02*
D03*
X117720Y49040D02*
D03*
Y91441D02*
D03*
X66520Y70241D02*
D03*
X126520D02*
D03*
X75300Y91441D02*
D03*
X96520Y40241D02*
D03*
D136*
X1460500Y110961D02*
D03*
D137*
X2131530Y2305921D02*
D03*
X2156930D02*
D03*
Y2280521D02*
D03*
X2182330Y2305921D02*
D03*
Y2280521D02*
D03*
X2207730Y2305921D02*
D03*
Y2280521D02*
D03*
X2233130Y2305921D02*
D03*
X2258930D02*
D03*
Y2280521D02*
D03*
X2284330Y2305921D02*
D03*
Y2280521D02*
D03*
X2309730D02*
D03*
X2335130D02*
D03*
X2309730Y2305921D02*
D03*
X2335130D02*
D03*
X2233130Y2280521D02*
D03*
X2360930Y2305921D02*
D03*
Y2280521D02*
D03*
X2386330Y2305921D02*
D03*
Y2280521D02*
D03*
X2411730Y2305921D02*
D03*
Y2280521D02*
D03*
X2437130Y2305921D02*
D03*
X2462930D02*
D03*
Y2280521D02*
D03*
X2488330Y2305921D02*
D03*
Y2280521D02*
D03*
X2437130D02*
D03*
D138*
X2131530D02*
D03*
D139*
X2265390Y1631551D02*
D03*
X2485390D02*
D03*
X2270290Y783181D02*
D03*
X2370290D02*
D03*
X2190290Y543181D02*
D03*
X2450290D02*
D03*
X632110Y497441D02*
D03*
X372110D02*
D03*
X552110Y737441D02*
D03*
X452110D02*
D03*
D140*
X2425390Y1951551D02*
D03*
X2325390D02*
D03*
D141*
X2707640Y1142601D02*
D03*
X2692401Y70241D02*
D03*
X1159500Y1052001D02*
D03*
X96520Y70241D02*
D03*
D142*
X2631440Y1043541D02*
D03*
X2543810Y226931D02*
D03*
X2717710Y967341D02*
D03*
X2660650Y686671D02*
D03*
D143*
X2716440Y1043541D02*
D03*
X2628810Y226931D02*
D03*
X1299360Y1442471D02*
D03*
X1324610Y1442471D02*
D03*
X1375110D02*
D03*
X1274110D02*
D03*
X1375110Y1492971D02*
D03*
X1324610D02*
D03*
X1299360D02*
D03*
X1274110D02*
D03*
X1487170Y182571D02*
D03*
X1426210Y267571D02*
D03*
X1551940Y182571D02*
D03*
X1361440Y267571D02*
D03*
X2632710Y967341D02*
D03*
X2745650Y686671D02*
D03*
D144*
X1887490Y980881D02*
D03*
X1610630Y983421D02*
D03*
X2168510Y1319481D02*
D03*
X2473690Y1233201D02*
D03*
D145*
X1767490Y952881D02*
D03*
Y732881D02*
D03*
X354330Y1852461D02*
D03*
X127051Y704147D02*
D03*
X1490630Y735421D02*
D03*
Y955421D02*
D03*
X441680Y1819220D02*
D03*
X741680Y2039221D02*
D03*
X591680D02*
D03*
X541680D02*
D03*
X491680D02*
D03*
X441680D02*
D03*
X741680Y1819220D02*
D03*
X691680D02*
D03*
X641680D02*
D03*
X541680D02*
D03*
X491680D02*
D03*
X2048510Y1291481D02*
D03*
Y1071481D02*
D03*
X2593690Y1261201D02*
D03*
Y1481201D02*
D03*
X1052690Y1738761D02*
D03*
X1152690D02*
D03*
X1102690D02*
D03*
X1202690D02*
D03*
X1252690D02*
D03*
X1352690D02*
D03*
X1052690Y1963761D02*
D03*
X1102690D02*
D03*
X1352690D02*
D03*
X1252690D02*
D03*
X1202690D02*
D03*
X1302690D02*
D03*
Y1738761D02*
D03*
X226130Y472041D02*
D03*
Y400921D02*
D03*
X64770Y738671D02*
D03*
D146*
X2636520Y491091D02*
D03*
X2657520Y591091D02*
D03*
X2642070Y290091D02*
D03*
X2542070Y311091D02*
D03*
X545300Y158011D02*
D03*
X445300Y179011D02*
D03*
X2355850Y146921D02*
D03*
X2255850Y167921D02*
D03*
D147*
X2450170Y310751D02*
D03*
X2175171D02*
D03*
D148*
X1722140Y530050D02*
D03*
Y320051D02*
D03*
X1696740Y530050D02*
D03*
X1671340D02*
D03*
X1696740Y320051D02*
D03*
X1671340D02*
D03*
X378441Y1369520D02*
D03*
X353041D02*
D03*
X378441Y1159521D02*
D03*
X353041D02*
D03*
X327641Y1369520D02*
D03*
Y1159521D02*
D03*
D149*
X1163320Y52270D02*
D03*
Y127271D02*
D03*
X1101090Y53540D02*
D03*
Y128541D02*
D03*
X1099892Y271381D02*
D03*
X1024890D02*
D03*
X1323729Y2105261D02*
D03*
X1247140Y2185271D02*
D03*
X556260Y2145019D02*
D03*
Y2195019D02*
D03*
X397510D02*
D03*
Y2145019D02*
D03*
X1039501Y1664301D02*
D03*
X964500D02*
D03*
X1027430Y128541D02*
D03*
Y53540D02*
D03*
X963930Y128541D02*
D03*
Y53540D02*
D03*
X1268421Y1614135D02*
D03*
Y1639535D02*
D03*
Y1664935D02*
D03*
X1192221D02*
D03*
Y1614135D02*
D03*
Y1588735D02*
D03*
X2239941Y1095611D02*
D03*
X2514940D02*
D03*
D150*
X1035050Y425051D02*
D03*
X1009650D02*
D03*
X984250D02*
D03*
X1176020Y426321D02*
D03*
X1150620D02*
D03*
X1125220D02*
D03*
X1071969Y745091D02*
D03*
X1327290Y1659491D02*
D03*
X1064260Y2156061D02*
D03*
X468630Y1570591D02*
D03*
X1098550Y190101D02*
D03*
X1073150D02*
D03*
X1047750D02*
D03*
D151*
X958850Y425051D02*
D03*
X1099820Y426321D02*
D03*
X1097369Y745091D02*
D03*
X1352690Y1659491D02*
D03*
X1089660Y2156061D02*
D03*
X443230Y1570591D02*
D03*
X1022350Y190101D02*
D03*
D152*
X1071969Y663805D02*
D03*
X769709Y1649325D02*
D03*
X516609Y1556595D02*
D03*
X1649131Y2082406D02*
D03*
Y1994782D02*
D03*
D153*
X1106971Y663805D02*
D03*
X804710Y1649325D02*
D03*
X551610Y1556595D02*
D03*
X1614130Y2082406D02*
D03*
Y1994782D02*
D03*
D154*
X1577108Y1590601D02*
D03*
X1120933Y1455021D02*
D03*
X1537008Y1389001D02*
D03*
D155*
X1552108Y1590601D02*
D03*
X1145933Y1455021D02*
D03*
X1512008Y1389001D02*
D03*
D156*
X1002030Y1607421D02*
D03*
Y1332420D02*
D03*
D157*
X1373729Y2105261D02*
D03*
X1197141Y2185271D02*
D03*
D158*
X678000Y2208001D02*
D03*
D159*
Y2157201D02*
D03*
X601451Y287889D02*
D03*
X376450D02*
D03*
X2585891Y378061D02*
D03*
X2765891D02*
D03*
X223981Y1044811D02*
D03*
X598980D02*
D03*
D160*
X731553Y2182035D02*
D03*
D161*
X354330Y2002461D02*
D03*
X64770Y888671D02*
D03*
D162*
X223470Y819054D02*
D03*
D163*
X1487170Y267571D02*
D03*
X1426210Y182571D02*
D03*
X1551940Y267571D02*
D03*
X1361440Y182571D02*
D03*
D164*
X76130Y472041D02*
D03*
Y400921D02*
D03*
D165*
X1268421Y1588735D02*
D03*
M02*
