G04*
G04 #@! TF.GenerationSoftware,Altium Limited,Altium Designer,25.3.3 (18)*
G04*
G04 Layer_Color=0*
%FSLAX44Y44*%
%MOMM*%
G71*
G04*
G04 #@! TF.SameCoordinates,95261EA5-16E4-4C31-8C51-D7BA18121D47*
G04*
G04*
G04 #@! TF.FilePolarity,Positive*
G04*
G01*
G75*
%ADD10C,0.2000*%
G36*
X1444587Y1809323D02*
X1445086Y1809295D01*
X1445558Y1809240D01*
X1445975Y1809184D01*
X1446363Y1809129D01*
X1446724Y1809045D01*
X1447057Y1808990D01*
X1447363Y1808934D01*
X1447613Y1808851D01*
X1447835Y1808795D01*
X1448001Y1808740D01*
X1448140Y1808684D01*
X1448251Y1808656D01*
X1448307Y1808629D01*
X1448335D01*
X1448945Y1808323D01*
X1449500Y1807935D01*
X1449945Y1807546D01*
X1450333Y1807130D01*
X1450639Y1806769D01*
X1450861Y1806463D01*
X1450916Y1806352D01*
X1450972Y1806269D01*
X1451027Y1806213D01*
Y1806186D01*
X1451333Y1805492D01*
X1451555Y1804770D01*
X1451721Y1804020D01*
X1451832Y1803326D01*
X1451860Y1803021D01*
X1451888Y1802715D01*
X1451916Y1802438D01*
Y1802216D01*
X1451944Y1802021D01*
Y1801772D01*
X1451888Y1800772D01*
X1451832Y1800328D01*
X1451777Y1799911D01*
X1451694Y1799495D01*
X1451610Y1799134D01*
X1451527Y1798801D01*
X1451416Y1798495D01*
X1451305Y1798218D01*
X1451222Y1797996D01*
X1451138Y1797774D01*
X1451055Y1797607D01*
X1450972Y1797468D01*
X1450944Y1797385D01*
X1450889Y1797330D01*
Y1797302D01*
X1450472Y1796691D01*
X1450000Y1796191D01*
X1449556Y1795803D01*
X1449112Y1795470D01*
X1448723Y1795220D01*
X1448418Y1795053D01*
X1448307Y1794998D01*
X1448223Y1794942D01*
X1448168Y1794914D01*
X1448140D01*
X1447807Y1794803D01*
X1447446Y1794692D01*
X1446696Y1794525D01*
X1445919Y1794415D01*
X1445170Y1794331D01*
X1444836Y1794303D01*
X1444503Y1794276D01*
X1444226D01*
X1443976Y1794248D01*
X1443781D01*
X1443643D01*
X1443532D01*
X1443504D01*
X1432399D01*
Y1796802D01*
X1443504D01*
X1444142D01*
X1444753Y1796858D01*
X1445281Y1796913D01*
X1445780Y1796996D01*
X1446225Y1797080D01*
X1446641Y1797191D01*
X1447002Y1797274D01*
X1447307Y1797385D01*
X1447557Y1797496D01*
X1447807Y1797607D01*
X1447974Y1797718D01*
X1448140Y1797802D01*
X1448251Y1797885D01*
X1448335Y1797940D01*
X1448362Y1797968D01*
X1448390Y1797996D01*
X1448612Y1798246D01*
X1448806Y1798523D01*
X1449112Y1799134D01*
X1449334Y1799773D01*
X1449473Y1800439D01*
X1449584Y1801050D01*
X1449612Y1801299D01*
Y1801549D01*
X1449639Y1801716D01*
Y1801994D01*
X1449612Y1802577D01*
X1449528Y1803104D01*
X1449445Y1803604D01*
X1449306Y1803992D01*
X1449195Y1804326D01*
X1449112Y1804576D01*
X1449028Y1804714D01*
X1449001Y1804770D01*
X1448751Y1805159D01*
X1448445Y1805492D01*
X1448140Y1805769D01*
X1447863Y1805964D01*
X1447585Y1806130D01*
X1447391Y1806269D01*
X1447252Y1806324D01*
X1447196Y1806352D01*
X1446946Y1806436D01*
X1446696Y1806491D01*
X1446113Y1806602D01*
X1445503Y1806685D01*
X1444892Y1806741D01*
X1444364Y1806769D01*
X1444115D01*
X1443920Y1806796D01*
X1443754D01*
X1443615D01*
X1443532D01*
X1443504D01*
X1432399D01*
Y1809351D01*
X1443504D01*
X1444059D01*
X1444587Y1809323D01*
D02*
G37*
G36*
X1446530Y1790972D02*
X1446974Y1790916D01*
X1447391Y1790833D01*
X1447807Y1790722D01*
X1448501Y1790444D01*
X1448834Y1790306D01*
X1449112Y1790139D01*
X1449389Y1789973D01*
X1449612Y1789834D01*
X1449806Y1789667D01*
X1449972Y1789556D01*
X1450111Y1789445D01*
X1450195Y1789362D01*
X1450250Y1789306D01*
X1450278Y1789279D01*
X1450583Y1788945D01*
X1450833Y1788584D01*
X1451055Y1788196D01*
X1451250Y1787807D01*
X1451388Y1787446D01*
X1451527Y1787057D01*
X1451721Y1786308D01*
X1451805Y1785975D01*
X1451860Y1785669D01*
X1451888Y1785392D01*
X1451916Y1785142D01*
X1451944Y1784948D01*
Y1784670D01*
X1451916Y1784142D01*
X1451860Y1783671D01*
X1451777Y1783199D01*
X1451694Y1782754D01*
X1451555Y1782366D01*
X1451416Y1781977D01*
X1451277Y1781616D01*
X1451111Y1781311D01*
X1450944Y1781033D01*
X1450805Y1780783D01*
X1450667Y1780589D01*
X1450528Y1780395D01*
X1450444Y1780256D01*
X1450361Y1780172D01*
X1450306Y1780117D01*
X1450278Y1780089D01*
X1449945Y1779784D01*
X1449612Y1779506D01*
X1449278Y1779284D01*
X1448918Y1779090D01*
X1448584Y1778895D01*
X1448223Y1778757D01*
X1447585Y1778562D01*
X1447280Y1778479D01*
X1447002Y1778423D01*
X1446752Y1778396D01*
X1446558Y1778368D01*
X1446391Y1778340D01*
X1446252D01*
X1446169D01*
X1446141D01*
X1445503Y1778368D01*
X1444920Y1778479D01*
X1444392Y1778646D01*
X1443948Y1778812D01*
X1443587Y1778979D01*
X1443309Y1779145D01*
X1443143Y1779256D01*
X1443115Y1779284D01*
X1443087D01*
X1442643Y1779673D01*
X1442254Y1780089D01*
X1441949Y1780533D01*
X1441671Y1780950D01*
X1441477Y1781339D01*
X1441338Y1781672D01*
X1441283Y1781783D01*
X1441255Y1781866D01*
X1441227Y1781922D01*
Y1781949D01*
X1441005Y1781449D01*
X1440755Y1781033D01*
X1440506Y1780672D01*
X1440256Y1780367D01*
X1440034Y1780145D01*
X1439867Y1779978D01*
X1439756Y1779867D01*
X1439700Y1779839D01*
X1439312Y1779590D01*
X1438923Y1779423D01*
X1438534Y1779284D01*
X1438146Y1779201D01*
X1437840Y1779145D01*
X1437590Y1779117D01*
X1437424D01*
X1437396D01*
X1437368D01*
X1436980Y1779145D01*
X1436619Y1779173D01*
X1435925Y1779367D01*
X1435314Y1779617D01*
X1434787Y1779895D01*
X1434370Y1780172D01*
X1434203Y1780311D01*
X1434037Y1780422D01*
X1433926Y1780533D01*
X1433843Y1780617D01*
X1433815Y1780644D01*
X1433787Y1780672D01*
X1433537Y1780978D01*
X1433287Y1781283D01*
X1433093Y1781616D01*
X1432926Y1781949D01*
X1432677Y1782616D01*
X1432510Y1783282D01*
X1432427Y1783560D01*
X1432399Y1783837D01*
X1432371Y1784087D01*
X1432343Y1784309D01*
X1432316Y1784476D01*
Y1784725D01*
X1432343Y1785170D01*
X1432371Y1785614D01*
X1432538Y1786391D01*
X1432649Y1786752D01*
X1432760Y1787085D01*
X1432899Y1787391D01*
X1433038Y1787668D01*
X1433176Y1787890D01*
X1433315Y1788112D01*
X1433426Y1788307D01*
X1433537Y1788446D01*
X1433620Y1788557D01*
X1433704Y1788640D01*
X1433732Y1788696D01*
X1433759Y1788723D01*
X1434037Y1788973D01*
X1434315Y1789223D01*
X1434620Y1789417D01*
X1434925Y1789584D01*
X1435508Y1789861D01*
X1436064Y1790028D01*
X1436535Y1790139D01*
X1436758Y1790167D01*
X1436924Y1790195D01*
X1437091Y1790222D01*
X1437202D01*
X1437257D01*
X1437285D01*
X1437785Y1790195D01*
X1438257Y1790111D01*
X1438673Y1790000D01*
X1439034Y1789861D01*
X1439312Y1789750D01*
X1439534Y1789639D01*
X1439645Y1789556D01*
X1439700Y1789528D01*
X1440034Y1789223D01*
X1440339Y1788890D01*
X1440617Y1788529D01*
X1440839Y1788168D01*
X1441005Y1787835D01*
X1441116Y1787585D01*
X1441172Y1787474D01*
X1441200Y1787391D01*
X1441227Y1787363D01*
Y1787335D01*
X1441422Y1787974D01*
X1441671Y1788501D01*
X1441977Y1788973D01*
X1442254Y1789362D01*
X1442532Y1789667D01*
X1442754Y1789889D01*
X1442893Y1790000D01*
X1442921Y1790056D01*
X1442949D01*
X1443448Y1790361D01*
X1443976Y1790611D01*
X1444476Y1790778D01*
X1444975Y1790889D01*
X1445419Y1790944D01*
X1445614Y1790972D01*
X1445780D01*
X1445891Y1791000D01*
X1446002D01*
X1446058D01*
X1446086D01*
X1446530Y1790972D01*
D02*
G37*
%LPC*%
G36*
X1437285Y1787807D02*
X1437257D01*
X1437230D01*
X1436785Y1787779D01*
X1436397Y1787668D01*
X1436036Y1787529D01*
X1435730Y1787363D01*
X1435481Y1787224D01*
X1435286Y1787085D01*
X1435175Y1786974D01*
X1435147Y1786947D01*
X1434842Y1786586D01*
X1434620Y1786225D01*
X1434481Y1785836D01*
X1434370Y1785475D01*
X1434315Y1785142D01*
X1434259Y1784892D01*
Y1784670D01*
X1434287Y1784198D01*
X1434398Y1783754D01*
X1434537Y1783393D01*
X1434703Y1783060D01*
X1434870Y1782810D01*
X1435009Y1782616D01*
X1435120Y1782477D01*
X1435147Y1782449D01*
X1435508Y1782144D01*
X1435869Y1781922D01*
X1436230Y1781755D01*
X1436563Y1781644D01*
X1436869Y1781588D01*
X1437119Y1781533D01*
X1437285D01*
X1437313D01*
X1437341D01*
X1437785Y1781561D01*
X1438201Y1781672D01*
X1438562Y1781810D01*
X1438868Y1781977D01*
X1439117Y1782144D01*
X1439284Y1782282D01*
X1439423Y1782393D01*
X1439451Y1782421D01*
X1439728Y1782754D01*
X1439950Y1783143D01*
X1440089Y1783504D01*
X1440200Y1783865D01*
X1440256Y1784198D01*
X1440283Y1784448D01*
X1440311Y1784614D01*
Y1784670D01*
X1440283Y1785170D01*
X1440172Y1785614D01*
X1440034Y1786003D01*
X1439867Y1786336D01*
X1439728Y1786586D01*
X1439589Y1786780D01*
X1439478Y1786919D01*
X1439451Y1786947D01*
X1439117Y1787224D01*
X1438729Y1787446D01*
X1438368Y1787585D01*
X1438007Y1787696D01*
X1437702Y1787752D01*
X1437452Y1787779D01*
X1437285Y1787807D01*
D02*
G37*
G36*
X1446252Y1788584D02*
X1446141D01*
X1446086D01*
X1445503Y1788529D01*
X1444975Y1788418D01*
X1444503Y1788251D01*
X1444087Y1788029D01*
X1443781Y1787835D01*
X1443532Y1787668D01*
X1443393Y1787557D01*
X1443337Y1787502D01*
X1442976Y1787085D01*
X1442699Y1786613D01*
X1442504Y1786169D01*
X1442366Y1785725D01*
X1442282Y1785336D01*
X1442254Y1785031D01*
X1442227Y1784920D01*
Y1784753D01*
X1442282Y1784142D01*
X1442393Y1783587D01*
X1442588Y1783087D01*
X1442782Y1782671D01*
X1443004Y1782338D01*
X1443199Y1782088D01*
X1443309Y1781949D01*
X1443365Y1781894D01*
X1443809Y1781505D01*
X1444281Y1781228D01*
X1444753Y1781033D01*
X1445170Y1780894D01*
X1445586Y1780811D01*
X1445891Y1780783D01*
X1446002Y1780755D01*
X1446086D01*
X1446141D01*
X1446169D01*
X1446752Y1780811D01*
X1447307Y1780922D01*
X1447779Y1781116D01*
X1448168Y1781311D01*
X1448473Y1781505D01*
X1448723Y1781699D01*
X1448862Y1781810D01*
X1448918Y1781866D01*
X1449278Y1782310D01*
X1449556Y1782754D01*
X1449723Y1783226D01*
X1449861Y1783671D01*
X1449945Y1784059D01*
X1449972Y1784392D01*
X1450000Y1784503D01*
Y1784670D01*
X1449972Y1785059D01*
X1449917Y1785447D01*
X1449834Y1785808D01*
X1449750Y1786114D01*
X1449667Y1786364D01*
X1449584Y1786558D01*
X1449528Y1786669D01*
X1449500Y1786724D01*
X1449278Y1787057D01*
X1449056Y1787335D01*
X1448806Y1787585D01*
X1448557Y1787779D01*
X1448362Y1787946D01*
X1448196Y1788057D01*
X1448057Y1788112D01*
X1448029Y1788140D01*
X1447668Y1788279D01*
X1447335Y1788390D01*
X1447002Y1788473D01*
X1446696Y1788529D01*
X1446447Y1788557D01*
X1446252Y1788584D01*
D02*
G37*
%LPD*%
D10*
X1412240Y1687177D02*
X1468628D01*
Y1812399D01*
X1412240D02*
X1468628D01*
X1412240Y1687177D02*
Y1812399D01*
M02*
