G04*
G04 #@! TF.GenerationSoftware,Altium Limited,Altium Designer,25.3.3 (18)*
G04*
G04 Layer_Physical_Order=2*
G04 Layer_Color=16711680*
%FSLAX44Y44*%
%MOMM*%
G71*
G04*
G04 #@! TF.SameCoordinates,95261EA5-16E4-4C31-8C51-D7BA18121D47*
G04*
G04*
G04 #@! TF.FilePolarity,Positive*
G04*
G01*
G75*
%ADD11C,0.5000*%
%ADD17C,0.5000*%
%ADD18C,1.0000*%
%ADD20C,0.3000*%
G04:AMPARAMS|DCode=31|XSize=0.9mm|YSize=1.6mm|CornerRadius=0.135mm|HoleSize=0mm|Usage=FLASHONLY|Rotation=0.000|XOffset=0mm|YOffset=0mm|HoleType=Round|Shape=RoundedRectangle|*
%AMROUNDEDRECTD31*
21,1,0.9000,1.3300,0,0,0.0*
21,1,0.6300,1.6000,0,0,0.0*
1,1,0.2700,0.3150,-0.6650*
1,1,0.2700,-0.3150,-0.6650*
1,1,0.2700,-0.3150,0.6650*
1,1,0.2700,0.3150,0.6650*
%
%ADD31ROUNDEDRECTD31*%
%ADD32R,0.9000X0.9500*%
G04:AMPARAMS|DCode=34|XSize=0.9mm|YSize=1.3mm|CornerRadius=0.225mm|HoleSize=0mm|Usage=FLASHONLY|Rotation=90.000|XOffset=0mm|YOffset=0mm|HoleType=Round|Shape=RoundedRectangle|*
%AMROUNDEDRECTD34*
21,1,0.9000,0.8500,0,0,90.0*
21,1,0.4500,1.3000,0,0,90.0*
1,1,0.4500,0.4250,0.2250*
1,1,0.4500,0.4250,-0.2250*
1,1,0.4500,-0.4250,-0.2250*
1,1,0.4500,-0.4250,0.2250*
%
%ADD34ROUNDEDRECTD34*%
G04:AMPARAMS|DCode=35|XSize=0.9mm|YSize=1.6mm|CornerRadius=0.135mm|HoleSize=0mm|Usage=FLASHONLY|Rotation=270.000|XOffset=0mm|YOffset=0mm|HoleType=Round|Shape=RoundedRectangle|*
%AMROUNDEDRECTD35*
21,1,0.9000,1.3300,0,0,270.0*
21,1,0.6300,1.6000,0,0,270.0*
1,1,0.2700,-0.6650,-0.3150*
1,1,0.2700,-0.6650,0.3150*
1,1,0.2700,0.6650,0.3150*
1,1,0.2700,0.6650,-0.3150*
%
%ADD35ROUNDEDRECTD35*%
G04:AMPARAMS|DCode=36|XSize=0.9mm|YSize=1.3mm|CornerRadius=0.225mm|HoleSize=0mm|Usage=FLASHONLY|Rotation=180.000|XOffset=0mm|YOffset=0mm|HoleType=Round|Shape=RoundedRectangle|*
%AMROUNDEDRECTD36*
21,1,0.9000,0.8500,0,0,180.0*
21,1,0.4500,1.3000,0,0,180.0*
1,1,0.4500,-0.2250,0.4250*
1,1,0.4500,0.2250,0.4250*
1,1,0.4500,0.2250,-0.4250*
1,1,0.4500,-0.2250,-0.4250*
%
%ADD36ROUNDEDRECTD36*%
G04:AMPARAMS|DCode=37|XSize=0.7mm|YSize=1.3mm|CornerRadius=0.105mm|HoleSize=0mm|Usage=FLASHONLY|Rotation=180.000|XOffset=0mm|YOffset=0mm|HoleType=Round|Shape=RoundedRectangle|*
%AMROUNDEDRECTD37*
21,1,0.7000,1.0900,0,0,180.0*
21,1,0.4900,1.3000,0,0,180.0*
1,1,0.2100,-0.2450,0.5450*
1,1,0.2100,0.2450,0.5450*
1,1,0.2100,0.2450,-0.5450*
1,1,0.2100,-0.2450,-0.5450*
%
%ADD37ROUNDEDRECTD37*%
G04:AMPARAMS|DCode=38|XSize=1.4mm|YSize=1.55mm|CornerRadius=0.35mm|HoleSize=0mm|Usage=FLASHONLY|Rotation=0.000|XOffset=0mm|YOffset=0mm|HoleType=Round|Shape=RoundedRectangle|*
%AMROUNDEDRECTD38*
21,1,1.4000,0.8500,0,0,0.0*
21,1,0.7000,1.5500,0,0,0.0*
1,1,0.7000,0.3500,-0.4250*
1,1,0.7000,-0.3500,-0.4250*
1,1,0.7000,-0.3500,0.4250*
1,1,0.7000,0.3500,0.4250*
%
%ADD38ROUNDEDRECTD38*%
G04:AMPARAMS|DCode=39|XSize=2.5mm|YSize=2.3mm|CornerRadius=0.575mm|HoleSize=0mm|Usage=FLASHONLY|Rotation=270.000|XOffset=0mm|YOffset=0mm|HoleType=Round|Shape=RoundedRectangle|*
%AMROUNDEDRECTD39*
21,1,2.5000,1.1500,0,0,270.0*
21,1,1.3500,2.3000,0,0,270.0*
1,1,1.1500,-0.5750,-0.6750*
1,1,1.1500,-0.5750,0.6750*
1,1,1.1500,0.5750,0.6750*
1,1,1.1500,0.5750,-0.6750*
%
%ADD39ROUNDEDRECTD39*%
G04:AMPARAMS|DCode=40|XSize=0.7mm|YSize=1.3mm|CornerRadius=0.105mm|HoleSize=0mm|Usage=FLASHONLY|Rotation=270.000|XOffset=0mm|YOffset=0mm|HoleType=Round|Shape=RoundedRectangle|*
%AMROUNDEDRECTD40*
21,1,0.7000,1.0900,0,0,270.0*
21,1,0.4900,1.3000,0,0,270.0*
1,1,0.2100,-0.5450,-0.2450*
1,1,0.2100,-0.5450,0.2450*
1,1,0.2100,0.5450,0.2450*
1,1,0.2100,0.5450,-0.2450*
%
%ADD40ROUNDEDRECTD40*%
G04:AMPARAMS|DCode=43|XSize=0.9mm|YSize=1.6mm|CornerRadius=0.225mm|HoleSize=0mm|Usage=FLASHONLY|Rotation=180.000|XOffset=0mm|YOffset=0mm|HoleType=Round|Shape=RoundedRectangle|*
%AMROUNDEDRECTD43*
21,1,0.9000,1.1500,0,0,180.0*
21,1,0.4500,1.6000,0,0,180.0*
1,1,0.4500,-0.2250,0.5750*
1,1,0.4500,0.2250,0.5750*
1,1,0.4500,0.2250,-0.5750*
1,1,0.4500,-0.2250,-0.5750*
%
%ADD43ROUNDEDRECTD43*%
G04:AMPARAMS|DCode=44|XSize=1.3mm|YSize=3mm|CornerRadius=0.195mm|HoleSize=0mm|Usage=FLASHONLY|Rotation=270.000|XOffset=0mm|YOffset=0mm|HoleType=Round|Shape=RoundedRectangle|*
%AMROUNDEDRECTD44*
21,1,1.3000,2.6100,0,0,270.0*
21,1,0.9100,3.0000,0,0,270.0*
1,1,0.3900,-1.3050,-0.4550*
1,1,0.3900,-1.3050,0.4550*
1,1,0.3900,1.3050,0.4550*
1,1,0.3900,1.3050,-0.4550*
%
%ADD44ROUNDEDRECTD44*%
G04:AMPARAMS|DCode=46|XSize=2.5mm|YSize=1.7mm|CornerRadius=0.425mm|HoleSize=0mm|Usage=FLASHONLY|Rotation=90.000|XOffset=0mm|YOffset=0mm|HoleType=Round|Shape=RoundedRectangle|*
%AMROUNDEDRECTD46*
21,1,2.5000,0.8500,0,0,90.0*
21,1,1.6500,1.7000,0,0,90.0*
1,1,0.8500,0.4250,0.8250*
1,1,0.8500,0.4250,-0.8250*
1,1,0.8500,-0.4250,-0.8250*
1,1,0.8500,-0.4250,0.8250*
%
%ADD46ROUNDEDRECTD46*%
G04:AMPARAMS|DCode=52|XSize=2.5mm|YSize=1.7mm|CornerRadius=0.425mm|HoleSize=0mm|Usage=FLASHONLY|Rotation=0.000|XOffset=0mm|YOffset=0mm|HoleType=Round|Shape=RoundedRectangle|*
%AMROUNDEDRECTD52*
21,1,2.5000,0.8500,0,0,0.0*
21,1,1.6500,1.7000,0,0,0.0*
1,1,0.8500,0.8250,-0.4250*
1,1,0.8500,-0.8250,-0.4250*
1,1,0.8500,-0.8250,0.4250*
1,1,0.8500,0.8250,0.4250*
%
%ADD52ROUNDEDRECTD52*%
%ADD53R,2.5000X3.5000*%
%ADD82C,4.1000*%
%ADD118C,1.9000*%
%ADD124C,1.2000*%
%ADD127C,0.8700*%
%ADD128C,1.5000*%
%ADD129C,1.0000*%
%ADD130C,0.8000*%
%ADD131C,0.7000*%
%ADD132C,1.2000*%
%ADD133C,5.0000*%
%ADD134C,3.0000*%
%ADD135C,1.5240*%
%ADD136C,8.0000*%
%ADD137C,1.6050*%
%ADD138R,1.6050X1.6050*%
%ADD139C,6.0000*%
%ADD140O,5.0000X6.0000*%
%ADD141C,9.0000*%
%ADD142R,1.5000X1.5000*%
%ADD143C,1.5000*%
G04:AMPARAMS|DCode=144|XSize=4mm|YSize=4mm|CornerRadius=1mm|HoleSize=0mm|Usage=FLASHONLY|Rotation=90.000|XOffset=0mm|YOffset=0mm|HoleType=Round|Shape=RoundedRectangle|*
%AMROUNDEDRECTD144*
21,1,4.0000,2.0000,0,0,90.0*
21,1,2.0000,4.0000,0,0,90.0*
1,1,2.0000,1.0000,1.0000*
1,1,2.0000,1.0000,-1.0000*
1,1,2.0000,-1.0000,-1.0000*
1,1,2.0000,-1.0000,1.0000*
%
%ADD144ROUNDEDRECTD144*%
%ADD145C,2.0000*%
%ADD146C,1.6000*%
%ADD147C,3.0000*%
%ADD148C,2.2000*%
%ADD149C,1.8000*%
%ADD150O,1.9050X2.2860*%
%ADD151R,1.9050X2.2860*%
G04:AMPARAMS|DCode=152|XSize=1.6mm|YSize=1.6mm|CornerRadius=0.4mm|HoleSize=0mm|Usage=FLASHONLY|Rotation=90.000|XOffset=0mm|YOffset=0mm|HoleType=Round|Shape=RoundedRectangle|*
%AMROUNDEDRECTD152*
21,1,1.6000,0.8000,0,0,90.0*
21,1,0.8000,1.6000,0,0,90.0*
1,1,0.8000,0.4000,0.4000*
1,1,0.8000,0.4000,-0.4000*
1,1,0.8000,-0.4000,-0.4000*
1,1,0.8000,-0.4000,0.4000*
%
%ADD152ROUNDEDRECTD152*%
%ADD153C,1.6000*%
%ADD154C,1.7500*%
G04:AMPARAMS|DCode=155|XSize=1.75mm|YSize=1.75mm|CornerRadius=0.4375mm|HoleSize=0mm|Usage=FLASHONLY|Rotation=0.000|XOffset=0mm|YOffset=0mm|HoleType=Round|Shape=RoundedRectangle|*
%AMROUNDEDRECTD155*
21,1,1.7500,0.8750,0,0,0.0*
21,1,0.8750,1.7500,0,0,0.0*
1,1,0.8750,0.4375,-0.4375*
1,1,0.8750,-0.4375,-0.4375*
1,1,0.8750,-0.4375,0.4375*
1,1,0.8750,0.4375,0.4375*
%
%ADD155ROUNDEDRECTD155*%
%ADD156C,1.4000*%
G04:AMPARAMS|DCode=157|XSize=1.8mm|YSize=1.8mm|CornerRadius=0.45mm|HoleSize=0mm|Usage=FLASHONLY|Rotation=180.000|XOffset=0mm|YOffset=0mm|HoleType=Round|Shape=RoundedRectangle|*
%AMROUNDEDRECTD157*
21,1,1.8000,0.9000,0,0,180.0*
21,1,0.9000,1.8000,0,0,180.0*
1,1,0.9000,-0.4500,0.4500*
1,1,0.9000,0.4500,0.4500*
1,1,0.9000,0.4500,-0.4500*
1,1,0.9000,-0.4500,-0.4500*
%
%ADD157ROUNDEDRECTD157*%
%ADD158R,2.0000X2.0000*%
%ADD159C,2.0000*%
%ADD160C,2.4000*%
%ADD161R,2.0000X2.0000*%
%ADD162P,2.8284X4X275.0*%
%ADD163R,1.5000X1.5000*%
%ADD164R,2.0000X2.0000*%
%ADD165R,1.8000X1.8000*%
%ADD166C,0.6000*%
%ADD167C,0.8000*%
G04:AMPARAMS|DCode=168|XSize=5.5mm|YSize=5.7mm|CornerRadius=0.6875mm|HoleSize=0mm|Usage=FLASHONLY|Rotation=270.000|XOffset=0mm|YOffset=0mm|HoleType=Round|Shape=RoundedRectangle|*
%AMROUNDEDRECTD168*
21,1,5.5000,4.3250,0,0,270.0*
21,1,4.1250,5.7000,0,0,270.0*
1,1,1.3750,-2.1625,-2.0625*
1,1,1.3750,-2.1625,2.0625*
1,1,1.3750,2.1625,2.0625*
1,1,1.3750,2.1625,-2.0625*
%
%ADD168ROUNDEDRECTD168*%
G04:AMPARAMS|DCode=169|XSize=1mm|YSize=2mm|CornerRadius=0.125mm|HoleSize=0mm|Usage=FLASHONLY|Rotation=270.000|XOffset=0mm|YOffset=0mm|HoleType=Round|Shape=RoundedRectangle|*
%AMROUNDEDRECTD169*
21,1,1.0000,1.7500,0,0,270.0*
21,1,0.7500,2.0000,0,0,270.0*
1,1,0.2500,-0.8750,-0.3750*
1,1,0.2500,-0.8750,0.3750*
1,1,0.2500,0.8750,0.3750*
1,1,0.2500,0.8750,-0.3750*
%
%ADD169ROUNDEDRECTD169*%
G04:AMPARAMS|DCode=170|XSize=1.3mm|YSize=3mm|CornerRadius=0.195mm|HoleSize=0mm|Usage=FLASHONLY|Rotation=0.000|XOffset=0mm|YOffset=0mm|HoleType=Round|Shape=RoundedRectangle|*
%AMROUNDEDRECTD170*
21,1,1.3000,2.6100,0,0,0.0*
21,1,0.9100,3.0000,0,0,0.0*
1,1,0.3900,0.4550,-1.3050*
1,1,0.3900,-0.4550,-1.3050*
1,1,0.3900,-0.4550,1.3050*
1,1,0.3900,0.4550,1.3050*
%
%ADD170ROUNDEDRECTD170*%
G04:AMPARAMS|DCode=171|XSize=0.9mm|YSize=1.6mm|CornerRadius=0.225mm|HoleSize=0mm|Usage=FLASHONLY|Rotation=270.000|XOffset=0mm|YOffset=0mm|HoleType=Round|Shape=RoundedRectangle|*
%AMROUNDEDRECTD171*
21,1,0.9000,1.1500,0,0,270.0*
21,1,0.4500,1.6000,0,0,270.0*
1,1,0.4500,-0.5750,-0.2250*
1,1,0.4500,-0.5750,0.2250*
1,1,0.4500,0.5750,0.2250*
1,1,0.4500,0.5750,-0.2250*
%
%ADD171ROUNDEDRECTD171*%
G04:AMPARAMS|DCode=172|XSize=0.9mm|YSize=2.8mm|CornerRadius=0.135mm|HoleSize=0mm|Usage=FLASHONLY|Rotation=180.000|XOffset=0mm|YOffset=0mm|HoleType=Round|Shape=RoundedRectangle|*
%AMROUNDEDRECTD172*
21,1,0.9000,2.5300,0,0,180.0*
21,1,0.6300,2.8000,0,0,180.0*
1,1,0.2700,-0.3150,1.2650*
1,1,0.2700,0.3150,1.2650*
1,1,0.2700,0.3150,-1.2650*
1,1,0.2700,-0.3150,-1.2650*
%
%ADD172ROUNDEDRECTD172*%
G04:AMPARAMS|DCode=173|XSize=0.9mm|YSize=2.8mm|CornerRadius=0.135mm|HoleSize=0mm|Usage=FLASHONLY|Rotation=90.000|XOffset=0mm|YOffset=0mm|HoleType=Round|Shape=RoundedRectangle|*
%AMROUNDEDRECTD173*
21,1,0.9000,2.5300,0,0,90.0*
21,1,0.6300,2.8000,0,0,90.0*
1,1,0.2700,1.2650,0.3150*
1,1,0.2700,1.2650,-0.3150*
1,1,0.2700,-1.2650,-0.3150*
1,1,0.2700,-1.2650,0.3150*
%
%ADD173ROUNDEDRECTD173*%
%ADD174R,1.5000X3.0000*%
%ADD175O,1.5000X3.0000*%
%ADD176R,1.9812X0.5588*%
G04:AMPARAMS|DCode=177|XSize=5.5mm|YSize=5.7mm|CornerRadius=0.6875mm|HoleSize=0mm|Usage=FLASHONLY|Rotation=180.000|XOffset=0mm|YOffset=0mm|HoleType=Round|Shape=RoundedRectangle|*
%AMROUNDEDRECTD177*
21,1,5.5000,4.3250,0,0,180.0*
21,1,4.1250,5.7000,0,0,180.0*
1,1,1.3750,-2.0625,2.1625*
1,1,1.3750,2.0625,2.1625*
1,1,1.3750,2.0625,-2.1625*
1,1,1.3750,-2.0625,-2.1625*
%
%ADD177ROUNDEDRECTD177*%
G04:AMPARAMS|DCode=178|XSize=1mm|YSize=2mm|CornerRadius=0.125mm|HoleSize=0mm|Usage=FLASHONLY|Rotation=180.000|XOffset=0mm|YOffset=0mm|HoleType=Round|Shape=RoundedRectangle|*
%AMROUNDEDRECTD178*
21,1,1.0000,1.7500,0,0,180.0*
21,1,0.7500,2.0000,0,0,180.0*
1,1,0.2500,-0.3750,0.8750*
1,1,0.2500,0.3750,0.8750*
1,1,0.2500,0.3750,-0.8750*
1,1,0.2500,-0.3750,-0.8750*
%
%ADD178ROUNDEDRECTD178*%
G04:AMPARAMS|DCode=179|XSize=2.5mm|YSize=2.3mm|CornerRadius=0.575mm|HoleSize=0mm|Usage=FLASHONLY|Rotation=180.000|XOffset=0mm|YOffset=0mm|HoleType=Round|Shape=RoundedRectangle|*
%AMROUNDEDRECTD179*
21,1,2.5000,1.1500,0,0,180.0*
21,1,1.3500,2.3000,0,0,180.0*
1,1,1.1500,-0.6750,0.5750*
1,1,1.1500,0.6750,0.5750*
1,1,1.1500,0.6750,-0.5750*
1,1,1.1500,-0.6750,-0.5750*
%
%ADD179ROUNDEDRECTD179*%
G04:AMPARAMS|DCode=180|XSize=1.1mm|YSize=1mm|CornerRadius=0.15mm|HoleSize=0mm|Usage=FLASHONLY|Rotation=270.000|XOffset=0mm|YOffset=0mm|HoleType=Round|Shape=RoundedRectangle|*
%AMROUNDEDRECTD180*
21,1,1.1000,0.7000,0,0,270.0*
21,1,0.8000,1.0000,0,0,270.0*
1,1,0.3000,-0.3500,-0.4000*
1,1,0.3000,-0.3500,0.4000*
1,1,0.3000,0.3500,0.4000*
1,1,0.3000,0.3500,-0.4000*
%
%ADD180ROUNDEDRECTD180*%
G36*
X2293300Y2333100D02*
Y2299101D01*
X2290900Y2296701D01*
X2278100D01*
X2275400Y2299400D01*
Y2317001D01*
X2260000Y2332401D01*
X2030900Y2332401D01*
X2012800Y2314301D01*
X1879400Y2314301D01*
X1861300Y2332401D01*
X128100D01*
X40700Y2245001D01*
Y1513000D01*
X37500Y1509801D01*
X30200D01*
X22000Y1518001D01*
X20200Y1520058D01*
Y2267101D01*
X99100Y2346001D01*
X2280400D01*
X2293300Y2333100D01*
D02*
G37*
G36*
X2085000Y2305612D02*
Y2268189D01*
X1733300D01*
X1731545Y2267840D01*
X1730056Y2266845D01*
X1669056Y2205845D01*
X1668062Y2204356D01*
X1667712Y2202601D01*
X1657200D01*
Y2218101D01*
X1698500Y2259401D01*
Y2291901D01*
X1703512Y2296912D01*
X1823600D01*
X1835700Y2284812D01*
Y2284507D01*
X1836614Y2282302D01*
X1838302Y2280614D01*
X1840507Y2279701D01*
X1842894D01*
X1845099Y2280614D01*
X1846787Y2282302D01*
X1847700Y2284507D01*
Y2286101D01*
X2043400D01*
X2065200Y2307901D01*
X2082712D01*
X2085000Y2305612D01*
D02*
G37*
G36*
X1418100Y2263401D02*
Y2233401D01*
X1395900D01*
X1375800Y2253501D01*
X1284000D01*
X1266400Y2235901D01*
X1135300D01*
X1128900Y2229500D01*
Y2201600D01*
X1134300Y2196201D01*
X1202100D01*
X1206900Y2191401D01*
Y2171001D01*
X1213500Y2164400D01*
X1260100D01*
X1264200Y2160300D01*
Y2107601D01*
X1260400Y2103801D01*
X1203500D01*
X1199100Y2108201D01*
X1199100Y2127500D01*
X1195200Y2131401D01*
X1165200D01*
Y2168301D01*
X1159200Y2174301D01*
X1125600D01*
X1110300Y2189601D01*
Y2256100D01*
X1121800Y2267601D01*
X1413900D01*
X1418100Y2263401D01*
D02*
G37*
G36*
X1362000Y2239500D02*
Y2179400D01*
X1358400Y2175801D01*
X1337200D01*
X1333200Y2171801D01*
Y2101400D01*
X1327800Y2096001D01*
X1319700D01*
X1313700Y2102001D01*
Y2172001D01*
X1309900Y2175801D01*
X1241100D01*
X1237500Y2179401D01*
Y2209700D01*
X1233600Y2213601D01*
X1141824D01*
X1140574Y2214118D01*
X1139618Y2215075D01*
X1139100Y2216324D01*
Y2217000D01*
Y2222501D01*
X1139100Y2222500D01*
X1139100Y2223177D01*
X1139618Y2224427D01*
X1140574Y2225383D01*
X1141824Y2225901D01*
X1142500Y2225901D01*
X1285800Y2225901D01*
X1303500Y2243601D01*
X1357900D01*
X1362000Y2239500D01*
D02*
G37*
G36*
X1627300Y2252401D02*
X1631300Y2248401D01*
Y2206400D01*
X1627300Y2202401D01*
X1589600D01*
X1585700Y2206301D01*
Y2248601D01*
X1589500Y2252401D01*
X1627300Y2252401D01*
D02*
G37*
G36*
X806700Y2168001D02*
X723600Y2168000D01*
X718200Y2173401D01*
Y2190800D01*
X713700Y2195301D01*
X656700D01*
X646800Y2185401D01*
X392200D01*
X388200Y2189400D01*
Y2215500D01*
X392300Y2219601D01*
X806700D01*
Y2168001D01*
D02*
G37*
G36*
X837600Y2140401D02*
X825600D01*
Y2236101D01*
X837600D01*
Y2140401D01*
D02*
G37*
G36*
X1631300Y2169201D02*
X1631300Y2129601D01*
X1627300Y2125600D01*
X1589800D01*
X1585800Y2129601D01*
Y2169801D01*
X1589400Y2173401D01*
X1627100D01*
X1631300Y2169201D01*
D02*
G37*
G36*
X690600Y2166501D02*
Y2147601D01*
X697200Y2141001D01*
X786700D01*
X794100Y2148401D01*
Y2158701D01*
X806700D01*
X806700Y2122201D01*
X799100Y2114601D01*
X762600Y2114601D01*
X755400Y2107401D01*
Y2032701D01*
X751200Y2028501D01*
X732700D01*
X729000Y2032201D01*
Y2105901D01*
X720300Y2114601D01*
X675600D01*
X667800Y2122401D01*
Y2166401D01*
X671800Y2170401D01*
X686700D01*
X690600Y2166501D01*
D02*
G37*
G36*
X1074000Y2190500D02*
X1074000Y2127101D01*
X1081700Y2119401D01*
X1107700Y2119400D01*
X1108277Y2119400D01*
X1109343Y2118959D01*
X1110159Y2118143D01*
X1110600Y2117077D01*
X1110600Y2116501D01*
X1110600Y2116501D01*
X1110600Y2113100D01*
X1110600Y2112504D01*
X1110144Y2111401D01*
X1109300Y2110557D01*
X1108197Y2110101D01*
X1107600Y2110101D01*
X1107600Y2110101D01*
X1024800Y2110101D01*
X1021800Y2113101D01*
Y2129801D01*
X1013900Y2137701D01*
X957300D01*
X953100Y2141900D01*
Y2151801D01*
X949500Y2155401D01*
X920100D01*
Y2189901D01*
X927300Y2197101D01*
X1067400Y2197101D01*
X1074000Y2190500D01*
D02*
G37*
G36*
X1413600Y2161400D02*
X1382700Y2130500D01*
X1382700Y2098301D01*
X1380300Y2095901D01*
X1367700D01*
X1364700Y2098901D01*
X1364700Y2132601D01*
X1401300Y2169200D01*
X1401300Y2192901D01*
X1413600D01*
Y2161400D01*
D02*
G37*
G36*
X1619200Y2090600D02*
X1619916Y2090600D01*
X1621240Y2090052D01*
X1622252Y2089040D01*
X1622800Y2087717D01*
X1622800Y2087000D01*
X1622800Y1994782D01*
X1605900D01*
Y2086801D01*
X1605900Y2086801D01*
X1605900Y2087556D01*
X1606479Y2088953D01*
X1607548Y2090022D01*
X1608945Y2090600D01*
X1609700Y2090600D01*
X1619200Y2090601D01*
X1619200Y2090600D01*
D02*
G37*
G36*
X1566100Y2241501D02*
Y2133701D01*
X1558100Y2125701D01*
X1463500D01*
X1453348Y2115548D01*
X1449000Y2105052D01*
Y2050098D01*
X1444871Y2041455D01*
X1396509Y2002401D01*
X1344840Y2002401D01*
Y2025201D01*
X1368700D01*
X1376400Y2032901D01*
Y2055501D01*
X1387200D01*
X1391700Y2051001D01*
X1429400Y2051001D01*
X1434200Y2055800D01*
Y2113792D01*
X1441207Y2130707D01*
X1459400Y2148901D01*
Y2241801D01*
X1466600Y2249001D01*
X1558600D01*
X1566100Y2241501D01*
D02*
G37*
G36*
X1661200Y2111301D02*
Y1989201D01*
X1657300Y1985301D01*
X1636700D01*
X1633000Y1989001D01*
Y2093901D01*
X1629400Y2097501D01*
X1592300D01*
X1588200Y2093401D01*
X1588200Y2021001D01*
X1584300Y2017101D01*
X1577000D01*
X1573000Y2013100D01*
Y1985401D01*
X1569200Y1981601D01*
X1548800D01*
Y2013100D01*
X1544800Y2017101D01*
X1535200D01*
X1531200Y2021101D01*
Y2070101D01*
X1535200Y2074100D01*
X1554100Y2074100D01*
X1560900Y2080901D01*
Y2111601D01*
X1564800Y2115501D01*
X1657000D01*
X1661200Y2111301D01*
D02*
G37*
G36*
X1309500Y2055701D02*
Y2037501D01*
X1315200Y2031801D01*
Y1958601D01*
X1310100Y1953501D01*
X1296800D01*
X1291500Y1958801D01*
Y1996401D01*
X1287300Y2000601D01*
Y2055601D01*
X1291100Y2059401D01*
X1305800D01*
X1309500Y2055701D01*
D02*
G37*
G36*
X1258500Y2064601D02*
Y2038401D01*
X1251900Y2031801D01*
X1223100D01*
X1213500Y2022200D01*
Y1958701D01*
X1208300Y1953501D01*
X1196700D01*
X1191600Y1958601D01*
Y2026401D01*
X1186200Y2031801D01*
X1168300D01*
X1164600Y2035500D01*
Y2059790D01*
X1186374Y2060040D01*
X1197900Y2071701D01*
X1251400D01*
X1258500Y2064601D01*
D02*
G37*
G36*
X1009200Y2063901D02*
X1065900Y2007201D01*
Y1960901D01*
X1058400Y1953401D01*
X1041400D01*
X1033800Y1961001D01*
Y1991601D01*
X998700Y2026700D01*
X980700Y2044701D01*
X927100D01*
X920100Y2051701D01*
Y2083401D01*
X943600D01*
X951900Y2091700D01*
Y2102901D01*
X1009200D01*
Y2063901D01*
D02*
G37*
G36*
X1107500Y2100201D02*
X1108249Y2100201D01*
X1109717Y2099908D01*
X1111100Y2099335D01*
X1112345Y2098504D01*
X1113404Y2097445D01*
X1114235Y2096201D01*
X1114808Y2094817D01*
X1115100Y2093349D01*
X1115100Y2092601D01*
X1115100Y1957501D01*
X1110500Y1952901D01*
X1095700D01*
X1091400Y1957200D01*
X1091400Y2020406D01*
X1023300Y2088201D01*
Y2100201D01*
X1107500D01*
Y2100201D01*
D02*
G37*
G36*
X533400Y2154801D02*
X560100Y2154801D01*
X566700Y2148201D01*
X566700Y2132000D01*
X582600Y2116101D01*
X602700D01*
X609900Y2108901D01*
Y1984801D01*
X621000Y1973701D01*
X840200Y1973701D01*
Y1952701D01*
X601400D01*
X579600Y1974501D01*
X579600Y2061201D01*
X560400Y2080401D01*
X398400Y2080401D01*
X385800Y2067800D01*
Y1994200D01*
X382000Y1990401D01*
X346200D01*
X342900Y1993701D01*
Y2144001D01*
X353700Y2154801D01*
X443700D01*
X456000Y2167101D01*
X521100D01*
X533400Y2154801D01*
D02*
G37*
G36*
X1492500Y2084701D02*
X1501500Y2075701D01*
Y1995501D01*
X1457400Y1951401D01*
X1346400D01*
X1342200Y1955601D01*
Y1970101D01*
X1346300Y1974200D01*
X1430300D01*
X1475500Y2019400D01*
Y2074700D01*
X1480500Y2084701D01*
Y2111901D01*
X1492500D01*
Y2084701D01*
D02*
G37*
G36*
X1534800Y1929200D02*
X1535397Y1929200D01*
X1536500Y1928744D01*
X1537344Y1927900D01*
X1537800Y1926797D01*
X1537800Y1926201D01*
X1537800Y1896600D01*
X1534100Y1892901D01*
X1442400D01*
Y1912401D01*
X1525400Y1912401D01*
X1529100Y1916101D01*
Y1926201D01*
X1529100Y1926797D01*
X1529557Y1927900D01*
X1530401Y1928744D01*
X1531504Y1929200D01*
X1532100Y1929200D01*
X1534800Y1929200D01*
X1534800Y1929200D01*
D02*
G37*
G36*
X2749880Y2217021D02*
X2770851Y2196051D01*
Y1894651D01*
X2749050Y1872851D01*
X2415650D01*
X2394930Y1893571D01*
Y2093430D01*
X2409100Y2107601D01*
X2476300Y2107601D01*
X2585721Y2217021D01*
X2749880Y2217021D01*
D02*
G37*
G36*
X2355850Y2093351D02*
X2355850Y1894851D01*
X2333850Y1872851D01*
X2002450D01*
X1979930Y1895370D01*
Y2092131D01*
X1995400Y2107601D01*
X2341600D01*
X2355850Y2093351D01*
D02*
G37*
G36*
X1064100Y1904400D02*
Y1862501D01*
X1060300Y1858701D01*
X1035300D01*
X1031700Y1862301D01*
Y1904901D01*
X1035300Y1908501D01*
X1060000D01*
X1064100Y1904400D01*
D02*
G37*
G36*
X369900Y1859901D02*
Y1835300D01*
X375000Y1830201D01*
X449200D01*
X457500Y1821901D01*
Y1776201D01*
X453600Y1772301D01*
X436800D01*
X427800Y1763301D01*
X358100D01*
X356400Y1765001D01*
Y1777001D01*
X352700Y1780701D01*
X332400D01*
X328800Y1777101D01*
Y1768100D01*
X327300Y1766601D01*
X319700D01*
X318300Y1768001D01*
Y1860001D01*
X322400Y1864101D01*
X365700D01*
X369900Y1859901D01*
D02*
G37*
G36*
Y1752101D02*
Y1744500D01*
X367700Y1742301D01*
X292200D01*
X289800Y1744700D01*
Y1752101D01*
X292000Y1754301D01*
X367700D01*
X369900Y1752101D01*
D02*
G37*
G36*
X1062600Y1837401D02*
Y1738761D01*
X1042800D01*
Y1811201D01*
X1038500Y1815501D01*
X975560D01*
Y1841001D01*
X1059000D01*
X1062600Y1837401D01*
D02*
G37*
G36*
X553200Y1825800D02*
X553200Y1743601D01*
X545000Y1735401D01*
X519700D01*
X516000Y1739101D01*
X516000Y1758801D01*
X531300Y1774101D01*
Y1825701D01*
X535400Y1829801D01*
X549200D01*
X553200Y1825800D01*
D02*
G37*
G36*
X338250Y1723051D02*
Y1715750D01*
X334500Y1712001D01*
X294800D01*
X291150Y1715651D01*
Y1722951D01*
X294900Y1726701D01*
X334600D01*
X338250Y1723051D01*
D02*
G37*
G36*
X498900Y1759100D02*
X502500Y1755500D01*
Y1739301D01*
X498600Y1735401D01*
X399500D01*
X391500Y1727401D01*
Y1692901D01*
X387500Y1688900D01*
X318701Y1688900D01*
X318000Y1689601D01*
Y1698601D01*
X318500Y1699101D01*
X374500D01*
X382000Y1706600D01*
Y1752201D01*
X383800Y1754001D01*
X459600Y1754001D01*
X464700Y1759101D01*
X498900Y1759100D01*
D02*
G37*
G36*
X1114500Y1744601D02*
Y1716201D01*
X1125000Y1705701D01*
X1195800D01*
X1202700Y1698801D01*
X1202700Y1661301D01*
X1196400Y1655000D01*
X1171300Y1655000D01*
X1145900Y1680401D01*
X1119599D01*
X1096399Y1703601D01*
X1004900D01*
Y1716201D01*
X1082400D01*
X1088700Y1722501D01*
Y1744601D01*
X1092400Y1748301D01*
X1110800D01*
X1114500Y1744601D01*
D02*
G37*
G36*
X988500Y1740500D02*
X978600Y1730600D01*
X978600Y1658000D01*
X974400Y1653801D01*
X956700D01*
X952500Y1658000D01*
Y1730000D01*
X970800Y1748301D01*
Y1803506D01*
X988500D01*
X988500Y1740500D01*
D02*
G37*
G36*
X812700Y1649001D02*
X796800D01*
Y1707801D01*
X812700D01*
Y1649001D01*
D02*
G37*
G36*
X779100Y1822500D02*
Y1648701D01*
X777300Y1646901D01*
X731500D01*
Y1823401D01*
X738000Y1829901D01*
X771700D01*
X779100Y1822500D01*
D02*
G37*
G36*
X2322000Y1693601D02*
Y1584601D01*
X1914000D01*
X1895000Y1603601D01*
Y1674601D01*
X1929000Y1708601D01*
X2307000D01*
X2322000Y1693601D01*
D02*
G37*
G36*
X1140071Y1644930D02*
X1151368Y1633633D01*
X1160884Y1619391D01*
X1167300Y1603901D01*
X1173500Y1597701D01*
X1192111D01*
Y1580801D01*
X1170795D01*
X1160221Y1585180D01*
X1158278Y1587123D01*
X1147553Y1603174D01*
X1139652Y1622249D01*
X1129517Y1632384D01*
X1125373Y1634101D01*
X1104300Y1634100D01*
X1099700Y1638701D01*
Y1647101D01*
X1104300Y1651701D01*
X1123725D01*
X1140071Y1644930D01*
D02*
G37*
G36*
X381743Y1667028D02*
Y1572556D01*
X380949Y1571763D01*
X379896Y1569938D01*
X379350Y1567904D01*
Y1565797D01*
X379896Y1563763D01*
X380678Y1562408D01*
X380123Y1560719D01*
X379236Y1559408D01*
X344697D01*
Y1611371D01*
X345090Y1612318D01*
Y1614705D01*
X344176Y1616910D01*
X342488Y1618598D01*
X340283Y1619511D01*
X337896D01*
X335691Y1618598D01*
X334003Y1616910D01*
X333090Y1614705D01*
Y1612318D01*
X333482Y1611371D01*
Y1556729D01*
X333909Y1554583D01*
X335124Y1552764D01*
X336480Y1551408D01*
X335238Y1548408D01*
X311623D01*
X289108Y1570923D01*
Y1617201D01*
X288681Y1619347D01*
X287466Y1621166D01*
X285200Y1623431D01*
Y1638601D01*
X268142D01*
X267600Y1638708D01*
X233593D01*
X230100Y1642201D01*
Y1666900D01*
X233800Y1670601D01*
X378170D01*
X381743Y1667028D01*
D02*
G37*
G36*
X2567305Y1697096D02*
X2567305Y1553446D01*
X2522624Y1508764D01*
Y1405894D01*
X2490470Y1373741D01*
X2016760Y1373741D01*
X1979930Y1336911D01*
X1979930Y1038420D01*
X1992420Y983547D01*
X1992420Y882420D01*
X1968771Y858772D01*
X1860929Y858772D01*
X1837690Y882011D01*
Y973121D01*
X1818708Y1018947D01*
X1787765Y1049891D01*
X1706880D01*
X1677670Y1079100D01*
Y1088076D01*
X1678441Y1106010D01*
X1679980Y1123894D01*
X1682285Y1141696D01*
X1685351Y1159382D01*
X1689174Y1176921D01*
X1693746Y1194279D01*
X1699059Y1211426D01*
X1705102Y1228328D01*
X1711865Y1244956D01*
X1719335Y1261278D01*
X1727499Y1277265D01*
X1731920Y1285075D01*
Y1285076D01*
X1821694Y1451413D01*
X1824130Y1456894D01*
X1829778Y1467478D01*
X1836174Y1477627D01*
X1843284Y1487290D01*
X1851071Y1496416D01*
X1859494Y1504958D01*
X1868510Y1512872D01*
X1878073Y1520116D01*
X1888132Y1526654D01*
X1898636Y1532450D01*
X1909529Y1537475D01*
X1920756Y1541703D01*
X1932258Y1545112D01*
X1943976Y1547685D01*
X1955848Y1549407D01*
X1967814Y1550271D01*
X1973812Y1550271D01*
X1973812Y1550271D01*
X2354580D01*
X2391410Y1587101D01*
Y1697211D01*
X2405760Y1711561D01*
X2552840D01*
X2567305Y1697096D01*
D02*
G37*
G36*
X498346Y1669613D02*
X499399Y1667789D01*
X500888Y1666299D01*
X502713Y1665246D01*
X504747Y1664701D01*
X506854D01*
X508888Y1665246D01*
X510713Y1666299D01*
X511506Y1667093D01*
X525908D01*
X564600Y1628401D01*
Y1546101D01*
X527609D01*
Y1567595D01*
X522217D01*
Y1586592D01*
X521790Y1588738D01*
X520574Y1590557D01*
X510966Y1600166D01*
X509146Y1601381D01*
X507000Y1601808D01*
X446159D01*
X444013Y1601381D01*
X442194Y1600166D01*
X439265Y1597237D01*
X438050Y1595418D01*
X437623Y1593272D01*
Y1591938D01*
X430705Y1585021D01*
Y1565873D01*
X430335Y1565626D01*
X424118Y1559408D01*
X395465D01*
X394578Y1560719D01*
X394023Y1562408D01*
X394805Y1563763D01*
X395350Y1565797D01*
Y1567904D01*
X394805Y1569938D01*
X393752Y1571763D01*
X392958Y1572556D01*
Y1669351D01*
X393984Y1670601D01*
X498081D01*
X498346Y1669613D01*
D02*
G37*
G36*
X1054200Y1669701D02*
Y1615101D01*
X1059400Y1609901D01*
X1102800Y1609901D01*
X1120200Y1592501D01*
Y1531801D01*
X1116500Y1528100D01*
X1090900D01*
X1086900Y1532101D01*
Y1576301D01*
X1078400Y1584801D01*
X997500D01*
X993600Y1588701D01*
Y1611801D01*
X997800Y1616001D01*
X1024800D01*
X1029600Y1620800D01*
Y1669801D01*
X1033700Y1673901D01*
X1050000D01*
X1054200Y1669701D01*
D02*
G37*
G36*
X836700Y1541501D02*
X836700Y1520001D01*
X832500Y1515800D01*
X806760D01*
Y1545101D01*
X833100D01*
X836700Y1541501D01*
D02*
G37*
G36*
X403860Y1371201D02*
Y1326751D01*
X389890Y1312780D01*
X298450Y1312781D01*
X283210Y1297541D01*
Y1239121D01*
X257810Y1213720D01*
X81280D01*
X71120Y1223881D01*
X71120Y1373741D01*
X83820Y1386440D01*
X388620D01*
X403860Y1371201D01*
D02*
G37*
G36*
X62522Y1497227D02*
X64874Y1494875D01*
X126948Y1432800D01*
X442000Y1432801D01*
X455800Y1419001D01*
Y1393201D01*
X455800Y1334401D01*
X645370D01*
X686800Y1292970D01*
Y1291847D01*
X687346Y1289813D01*
X688399Y1287988D01*
X689888Y1286499D01*
X691712Y1285446D01*
X693747Y1284901D01*
X695854D01*
X697888Y1285446D01*
X699713Y1286499D01*
X700557Y1287344D01*
X706900Y1281001D01*
Y1179400D01*
X697800Y1170301D01*
X538400Y1170301D01*
X518400Y1190301D01*
X492800Y1215901D01*
X455700D01*
X444400Y1227200D01*
Y1235240D01*
X447400Y1236483D01*
X448465Y1235419D01*
X451315Y1233773D01*
X454494Y1232921D01*
X457785D01*
X460965Y1233773D01*
X463815Y1235419D01*
X466142Y1237746D01*
X467788Y1240596D01*
X468640Y1243775D01*
Y1245873D01*
X468741Y1245997D01*
X471336Y1247496D01*
X471495Y1247522D01*
X473311Y1246473D01*
X476491Y1245621D01*
X479782D01*
X482961Y1246473D01*
X485811Y1248119D01*
X488139Y1250446D01*
X489784Y1253296D01*
X490636Y1256475D01*
Y1259767D01*
X489784Y1262946D01*
X488139Y1265796D01*
X485811Y1268123D01*
X483995Y1269172D01*
X483937Y1269324D01*
Y1272319D01*
X483995Y1272470D01*
X485811Y1273519D01*
X488139Y1275846D01*
X489784Y1278696D01*
X490636Y1281875D01*
Y1285167D01*
X489784Y1288346D01*
X488139Y1291196D01*
X485811Y1293524D01*
X482961Y1295169D01*
X479782Y1296021D01*
X476491D01*
X473311Y1295169D01*
X470461Y1293524D01*
X468134Y1291196D01*
X466488Y1288346D01*
X465636Y1285167D01*
Y1281875D01*
X466488Y1278696D01*
X468134Y1275846D01*
X470461Y1273519D01*
X472278Y1272470D01*
X472336Y1272319D01*
Y1269324D01*
X472278Y1269172D01*
X470461Y1268123D01*
X468134Y1265796D01*
X466488Y1262946D01*
X465636Y1259767D01*
Y1257669D01*
X465535Y1257545D01*
X462940Y1256046D01*
X462781Y1256021D01*
X460965Y1257069D01*
X457785Y1257921D01*
X454494D01*
X451315Y1257069D01*
X448465Y1255424D01*
X447400Y1254359D01*
X444400Y1255602D01*
Y1331745D01*
X444400D01*
X444400Y1417800D01*
X435500Y1426701D01*
X133048Y1426700D01*
X112200Y1426701D01*
X53100Y1485801D01*
Y1490458D01*
X56837Y1496050D01*
X60601Y1497609D01*
X62522Y1497227D01*
D02*
G37*
G36*
X482600Y1137501D02*
Y717901D01*
X467880Y703181D01*
X239820D01*
X224790Y718211D01*
Y794621D01*
X160020Y859390D01*
X160020Y1119741D01*
X175260Y1134981D01*
X237490Y1134980D01*
X248369Y1145859D01*
X248368Y1145859D01*
X251597Y1149087D01*
X258656Y1154880D01*
X266249Y1159954D01*
X274302Y1164259D01*
X282739Y1167753D01*
X291478Y1170404D01*
X300434Y1172186D01*
X309522Y1173081D01*
X314088Y1173081D01*
X447020Y1173081D01*
X482600Y1137501D01*
D02*
G37*
G36*
X2470150Y1114661D02*
X2433320D01*
Y1145141D01*
X2470150D01*
Y1114661D01*
D02*
G37*
G36*
X2413000D02*
X2377440D01*
Y1145141D01*
X2413000D01*
Y1114661D01*
D02*
G37*
G36*
X2357120D02*
X2321560D01*
Y1145141D01*
X2357120D01*
Y1114661D01*
D02*
G37*
G36*
X2555240Y1086721D02*
X2490470D01*
Y1147681D01*
X2555240D01*
Y1086721D01*
D02*
G37*
G36*
X2780031Y1180701D02*
Y963531D01*
X2773680Y957181D01*
X2712720D01*
X2707640Y962261D01*
Y1084181D01*
X2696210Y1095611D01*
X2672080D01*
X2660650Y1107041D01*
Y1180701D01*
X2669540Y1189591D01*
X2771140Y1189591D01*
X2780031Y1180701D01*
D02*
G37*
G36*
X1648900Y1002501D02*
Y959301D01*
X1641300Y951701D01*
X1581000D01*
X1573600Y959100D01*
Y1002401D01*
X1581300Y1010101D01*
X1641300D01*
X1648900Y1002501D01*
D02*
G37*
G36*
X2654301Y962261D02*
Y769221D01*
X2636520Y751441D01*
X2354580D01*
X2340610Y765411D01*
X2340610Y960991D01*
X2355850Y976230D01*
X2578100Y976230D01*
X2640331D01*
X2654301Y962261D01*
D02*
G37*
G36*
X2301240Y1084761D02*
X2324680Y1061320D01*
X2646680D01*
X2654301Y1053700D01*
X2654301Y1025760D01*
X2646680Y1018140D01*
X2325040D01*
X2301240Y994341D01*
Y767951D01*
X2284730Y751441D01*
X2118360D01*
X2098040Y771761D01*
Y985180D01*
X2117090Y1038461D01*
Y1129901D01*
X2134870Y1147681D01*
X2165350D01*
X2301240Y1147681D01*
Y1084761D01*
D02*
G37*
G36*
X698440Y1101961D02*
X725100Y1075301D01*
Y725100D01*
X703181Y703181D01*
X541920Y703181D01*
X520700Y724401D01*
X520700Y1076561D01*
X546100Y1101961D01*
X698440Y1101961D01*
D02*
G37*
G36*
X1006047Y621270D02*
Y599660D01*
X1006006Y599588D01*
X1005460Y597554D01*
Y595447D01*
X1006006Y593413D01*
X1005298Y591608D01*
X1002177Y590269D01*
X1000894Y590801D01*
X998507D01*
X996302Y589887D01*
X995938Y589524D01*
X971773D01*
X971139Y590157D01*
X968934Y591071D01*
X966547D01*
X964342Y590157D01*
X964100Y589916D01*
X961100Y591158D01*
Y662297D01*
X963872Y663445D01*
X1006047Y621270D01*
D02*
G37*
G36*
X2679700Y690101D02*
X2679700Y588101D01*
X2671590Y579991D01*
X2625810Y579991D01*
X2618741Y587061D01*
X2618741Y617160D01*
X2608920Y626981D01*
X2298180D01*
X2279650Y608451D01*
Y71051D01*
X2264080Y55481D01*
X2112020D01*
X2096770Y70731D01*
Y668891D01*
X2127250Y699371D01*
X2670430D01*
X2679700Y690101D01*
D02*
G37*
G36*
X996302Y579714D02*
X998507Y578801D01*
X1000894D01*
X1003099Y579714D01*
X1006047Y578419D01*
Y553851D01*
X967272Y515077D01*
X967193Y515055D01*
X965368Y514002D01*
X964100Y512734D01*
X963121Y512837D01*
X961100Y513700D01*
Y578983D01*
X964100Y580225D01*
X964342Y579984D01*
X966547Y579071D01*
X968934D01*
X971139Y579984D01*
X971503Y580347D01*
X995668D01*
X996302Y579714D01*
D02*
G37*
G36*
X1714500Y738741D02*
Y704451D01*
X1746250Y672701D01*
X1746250Y508871D01*
X1727200Y489821D01*
X1559560D01*
X1546860Y502521D01*
Y671431D01*
X1576070Y700640D01*
Y736200D01*
X1593850Y753981D01*
X1699260D01*
X1714500Y738741D01*
D02*
G37*
G36*
X1168960Y476256D02*
Y438595D01*
X1167087Y437159D01*
X1165080Y434542D01*
X1164944Y434214D01*
X1161697D01*
X1161561Y434542D01*
X1159553Y437159D01*
X1156937Y439166D01*
X1153890Y440428D01*
X1150620Y440859D01*
X1147351Y440428D01*
X1144304Y439166D01*
X1141687Y437159D01*
X1139680Y434542D01*
X1138418Y431495D01*
X1137987Y428226D01*
Y424416D01*
X1138418Y421146D01*
X1139680Y418099D01*
X1141290Y416001D01*
X1140760Y414123D01*
X1139994Y413001D01*
X1112345D01*
Y440751D01*
X1087295D01*
Y413001D01*
X1046835D01*
X1045355Y416001D01*
X1045991Y416829D01*
X1047253Y419876D01*
X1047683Y423146D01*
Y426956D01*
X1047253Y430225D01*
X1045991Y433272D01*
X1043983Y435888D01*
X1042111Y437325D01*
Y458956D01*
X1074894Y491739D01*
X1153477D01*
X1168960Y476256D01*
D02*
G37*
G36*
X1795780Y425050D02*
X1761490D01*
Y455530D01*
X1795780D01*
Y425050D01*
D02*
G37*
G36*
X1741170D02*
X1708150D01*
Y455530D01*
X1741170D01*
Y425050D01*
D02*
G37*
G36*
X1622781Y1423282D02*
X1538347Y1338847D01*
Y1229401D01*
X1304023Y995078D01*
Y711424D01*
X1203300Y610701D01*
Y556629D01*
X1201937Y555558D01*
X1203300Y554201D01*
Y413001D01*
X1186647D01*
X1185881Y414123D01*
X1185351Y416001D01*
X1186961Y418099D01*
X1188223Y421146D01*
X1188653Y424416D01*
Y428226D01*
X1188223Y431495D01*
X1186961Y434542D01*
X1184953Y437159D01*
X1183081Y438595D01*
Y479181D01*
X1182840Y481008D01*
X1182135Y482711D01*
X1181013Y484173D01*
X1161394Y503792D01*
X1159932Y504914D01*
X1158229Y505619D01*
X1156402Y505860D01*
X1079030D01*
Y653496D01*
X1079500Y653690D01*
X1080962Y654812D01*
X1082084Y656275D01*
X1082789Y657977D01*
X1083030Y659805D01*
Y667805D01*
X1082789Y669632D01*
X1082084Y671335D01*
X1080962Y672797D01*
X1079500Y673919D01*
X1079030Y674114D01*
Y732816D01*
X1080902Y734253D01*
X1082910Y736869D01*
X1084172Y739916D01*
X1084602Y743186D01*
Y746996D01*
X1084172Y750265D01*
X1082910Y753312D01*
X1080902Y755928D01*
X1078286Y757936D01*
X1075239Y759198D01*
X1071969Y759629D01*
X1068700Y759198D01*
X1065653Y757936D01*
X1063036Y755928D01*
X1061029Y753312D01*
X1059767Y750265D01*
X1059336Y746996D01*
Y743186D01*
X1059767Y739916D01*
X1061029Y736869D01*
X1063036Y734253D01*
X1064909Y732816D01*
Y674114D01*
X1064439Y673919D01*
X1062977Y672797D01*
X1061855Y671335D01*
X1061150Y669632D01*
X1060909Y667805D01*
Y659805D01*
X1061150Y657977D01*
X1061855Y656275D01*
X1062977Y654812D01*
X1064439Y653690D01*
X1064909Y653496D01*
Y501724D01*
X1030058Y466873D01*
X1028936Y465411D01*
X1028231Y463708D01*
X1027990Y461881D01*
Y437325D01*
X1026117Y435888D01*
X1024110Y433272D01*
X1023974Y432944D01*
X1020727D01*
X1020591Y433272D01*
X1018583Y435888D01*
X1015967Y437896D01*
X1012920Y439158D01*
X1009650Y439589D01*
X1006381Y439158D01*
X1003334Y437896D01*
X1000717Y435888D01*
X998710Y433272D01*
X997448Y430225D01*
X997017Y426956D01*
Y423146D01*
X997448Y419876D01*
X998710Y416829D01*
X999346Y416001D01*
X997866Y413001D01*
X971375D01*
Y439481D01*
X961100D01*
Y501501D01*
X963121Y502365D01*
X964100Y502467D01*
X965368Y501199D01*
X967193Y500146D01*
X969227Y499601D01*
X971334D01*
X973368Y500146D01*
X975192Y501199D01*
X976682Y502688D01*
X977735Y504513D01*
X977757Y504593D01*
X1018702Y545538D01*
X1019881Y547074D01*
X1020621Y548862D01*
X1020874Y550781D01*
Y593341D01*
X1020915Y593413D01*
X1021460Y595447D01*
Y597554D01*
X1020915Y599588D01*
X1020874Y599660D01*
Y624341D01*
X1020621Y626259D01*
X1019881Y628047D01*
X1018702Y629583D01*
X969814Y678471D01*
Y780414D01*
X989500Y800101D01*
X1269800D01*
X1288400Y818700D01*
Y1005701D01*
X1517900Y1235201D01*
Y1354500D01*
X1527500Y1364100D01*
X1527500Y1408000D01*
X1583200Y1463701D01*
X1605900Y1486400D01*
Y1534801D01*
X1568200Y1572501D01*
Y1612901D01*
X1605900Y1650600D01*
Y1991723D01*
X1622781D01*
Y1423282D01*
D02*
G37*
G36*
X1741170Y364530D02*
Y76871D01*
X1733750Y69451D01*
X1631950D01*
X1624330Y77071D01*
Y228201D01*
X1600200Y252331D01*
X1477010D01*
Y294241D01*
X1551940Y294240D01*
X1630680Y372981D01*
X1732720D01*
X1741170Y364530D01*
D02*
G37*
G36*
X2656841Y488550D02*
Y291700D01*
X2645410Y280271D01*
X2587130D01*
X2575560Y291840D01*
Y488550D01*
X2590800Y503791D01*
X2641600D01*
X2656841Y488550D01*
D02*
G37*
G36*
X1000760Y218041D02*
X999490Y216771D01*
X984250D01*
X982980Y218041D01*
Y267571D01*
X1000760D01*
X1000760Y218041D01*
D02*
G37*
G36*
X454660Y511411D02*
X454660Y411081D01*
X429260D01*
X414020Y395840D01*
Y324721D01*
X429260Y309481D01*
X454660D01*
X454660Y139300D01*
X429260Y113900D01*
X228600Y113901D01*
X203200Y139301D01*
Y407271D01*
X218440Y422510D01*
X281940D01*
X317500Y458071D01*
Y511411D01*
X339090Y533001D01*
X433070D01*
X454660Y511411D01*
D02*
G37*
G36*
X1172210Y276491D02*
Y119110D01*
X1165730Y112631D01*
X1097070D01*
X1089660Y120041D01*
Y177401D01*
X1066900D01*
X1062990Y181311D01*
Y204191D01*
X1066680Y207881D01*
X1086080D01*
X1089660Y211460D01*
Y276861D01*
X1096880Y284081D01*
X1164620D01*
X1172210Y276491D01*
D02*
G37*
G36*
X1057910Y198791D02*
X1057910Y181311D01*
X1054000Y177400D01*
X1040800D01*
X1036320Y172921D01*
Y119621D01*
X1029330Y112631D01*
X961270Y112631D01*
X953770Y120131D01*
X953770Y197871D01*
X958400Y202500D01*
X1054200Y202501D01*
X1057910Y198791D01*
D02*
G37*
G36*
X783590Y591421D02*
Y134221D01*
X760730Y111361D01*
X560070Y111361D01*
X535940Y135491D01*
X535940Y309481D01*
X558800D01*
X574040Y324720D01*
Y395841D01*
X558800Y411081D01*
X535940D01*
X535940Y554860D01*
X519701Y571101D01*
X266000Y571101D01*
X243840Y548941D01*
Y453840D01*
X236640Y446641D01*
X208560D01*
X201930Y453270D01*
X201930Y606431D01*
X216130Y620630D01*
X754380Y620631D01*
X783590Y591421D01*
D02*
G37*
G36*
X1992630Y735171D02*
X1992630Y82530D01*
X1979550Y69451D01*
X1827950D01*
X1814830Y82570D01*
Y459341D01*
X1840230Y484740D01*
Y736531D01*
X1855140Y751441D01*
X1976360D01*
X1992630Y735171D01*
D02*
G37*
G36*
X2551830Y558270D02*
Y70931D01*
X2536380Y55481D01*
X2360820D01*
X2346490Y69811D01*
X2346490Y558791D01*
X2364800Y577100D01*
X2533000D01*
X2551830Y558270D01*
D02*
G37*
G36*
X144780Y757791D02*
Y687941D01*
X130810Y673971D01*
X106680D01*
X92710Y660001D01*
Y168438D01*
Y168438D01*
X92815Y165355D01*
X93649Y159246D01*
X95303Y153306D01*
X97745Y147644D01*
X100931Y142365D01*
X104801Y137565D01*
X109286Y133334D01*
X114302Y129748D01*
X116981Y128218D01*
X120112Y126568D01*
X125871Y122452D01*
X131020Y117594D01*
X135463Y112084D01*
X139121Y106023D01*
X141924Y99523D01*
X143822Y92704D01*
X144780Y85690D01*
X144780Y82150D01*
X144780Y65641D01*
X1166660D01*
X1173480Y58821D01*
X1173480Y32181D01*
X1166300Y25001D01*
X142167Y25001D01*
X50300Y25001D01*
X35560Y39741D01*
Y759061D01*
X49530Y773031D01*
X129540D01*
X144780Y757791D01*
D02*
G37*
G36*
X2780031Y687470D02*
X2780031Y30531D01*
X2764200Y14701D01*
X2633600D01*
X2618741Y29560D01*
Y228341D01*
X2626000Y235601D01*
X2702900D01*
X2731770Y264471D01*
Y688371D01*
X2738960Y695561D01*
X2771940D01*
X2780031Y687470D01*
D02*
G37*
%LPC*%
G36*
X268232Y1666511D02*
X266389D01*
X264608Y1666033D01*
X263012Y1665112D01*
X261709Y1663809D01*
X260788Y1662213D01*
X260310Y1660432D01*
Y1658589D01*
X260788Y1656809D01*
X261709Y1655213D01*
X263012Y1653909D01*
X264608Y1652988D01*
X266389Y1652511D01*
X268232D01*
X270012Y1652988D01*
X271597Y1653903D01*
X328268D01*
X329604Y1652567D01*
X330078Y1650799D01*
X330999Y1649203D01*
X332302Y1647899D01*
X333899Y1646978D01*
X335679Y1646501D01*
X337522D01*
X339302Y1646978D01*
X340899Y1647899D01*
X342202Y1649203D01*
X343123Y1650799D01*
X343600Y1652579D01*
Y1654422D01*
X343123Y1656203D01*
X342202Y1657799D01*
X340899Y1659102D01*
X339302Y1660023D01*
X337534Y1660497D01*
X334556Y1663476D01*
X332736Y1664691D01*
X330590Y1665118D01*
X271597D01*
X270012Y1666033D01*
X268232Y1666511D01*
D02*
G37*
G36*
X1184694Y552430D02*
X1182587D01*
X1180553Y551885D01*
X1178728Y550832D01*
X1177934Y550038D01*
X1151246D01*
X1150452Y550832D01*
X1148628Y551885D01*
X1146594Y552430D01*
X1144487D01*
X1142452Y551885D01*
X1140628Y550832D01*
X1139139Y549343D01*
X1138086Y547518D01*
X1137540Y545484D01*
Y543377D01*
X1138086Y541343D01*
X1139139Y539519D01*
X1140628Y538029D01*
X1142452Y536976D01*
X1144487Y536431D01*
X1146594D01*
X1148628Y536976D01*
X1150452Y538029D01*
X1151246Y538823D01*
X1177934D01*
X1178728Y538029D01*
X1180553Y536976D01*
X1182587Y536431D01*
X1184694D01*
X1186728Y536976D01*
X1188552Y538029D01*
X1190042Y539519D01*
X1191095Y541343D01*
X1191640Y543377D01*
Y545484D01*
X1191095Y547518D01*
X1190042Y549343D01*
X1188552Y550832D01*
X1186728Y551885D01*
X1184694Y552430D01*
D02*
G37*
%LPD*%
D11*
X1666600Y2237401D02*
X1690300Y2261101D01*
Y2287201D01*
X1503395Y405147D02*
X1503680Y405432D01*
X1102833Y1544808D02*
Y1560404D01*
X1105762Y1563333D02*
X1170468D01*
X1102833Y1544808D02*
X1107530Y1540111D01*
X1102833Y1560404D02*
X1105762Y1563333D01*
X478900Y1426001D02*
X561700D01*
X694800Y1292901D01*
X1230300Y1626701D02*
X1243134Y1639535D01*
X1268421D01*
X1230300Y1582401D02*
Y1626701D01*
X1595900Y1517901D02*
X1596000Y1517801D01*
X1505100Y1517901D02*
X1595900D01*
X1314669Y1588369D02*
X1334100D01*
X1255200Y1561401D02*
X1287700D01*
X1314669Y1588369D01*
X1334100D02*
X1444269D01*
X267600Y1633101D02*
X283500Y1617201D01*
Y1568601D02*
Y1617201D01*
X227129Y1633101D02*
X267600D01*
X224200Y1636030D02*
Y1745172D01*
Y1636030D02*
X227129Y1633101D01*
X251020Y1617581D02*
X268600Y1600001D01*
Y1560501D02*
Y1600001D01*
Y1560501D02*
X299400Y1529700D01*
X645300Y1541600D02*
Y1568000D01*
X633400Y1529700D02*
X645300Y1541600D01*
X299400Y1529700D02*
X633400D01*
X309300Y1542801D02*
X462000D01*
X283500Y1568601D02*
X309300Y1542801D01*
X462000D02*
X468630Y1549431D01*
X339090Y1556729D02*
Y1613511D01*
X342019Y1553801D02*
X426440D01*
X468630Y1549431D02*
Y1570591D01*
X339090Y1556729D02*
X342019Y1553801D01*
X700400Y1422801D02*
X700550Y1422650D01*
Y1392951D02*
Y1422650D01*
Y1392951D02*
X700700Y1392801D01*
X1285500Y1335001D02*
X1285600Y1334901D01*
X1285500Y1335001D02*
Y1401600D01*
X1302600Y1418701D02*
X1404500D01*
X1285500Y1401600D02*
X1302600Y1418701D01*
X1423060Y1332466D02*
Y1345583D01*
Y1310241D02*
Y1332466D01*
Y1288016D02*
Y1310241D01*
X426440Y1553801D02*
X434300Y1561661D01*
X436205D02*
X443230Y1568686D01*
X434300Y1561661D02*
X436205D01*
X443230Y1568686D02*
Y1593272D01*
X227129Y1748101D02*
X299400D01*
X224200Y1745172D02*
X227129Y1748101D01*
X1394218Y1345583D02*
X1423060D01*
Y1354691D01*
X1478800Y1374101D02*
X1486838Y1382138D01*
X1427700Y1374101D02*
X1478800D01*
X1486838Y1382138D02*
Y1416301D01*
X1423060Y1369461D02*
X1427700Y1374101D01*
X1423060Y1354691D02*
Y1369461D01*
X1404500Y1418701D02*
X1425600Y1439801D01*
X1486838D01*
Y1499638D01*
X1505100Y1517901D01*
X1486838Y1416301D02*
Y1439801D01*
X1423060Y1265791D02*
Y1288016D01*
X1477700Y1621801D02*
Y1671801D01*
X1472890Y1676611D02*
X1477700Y1671801D01*
X1454150Y1676611D02*
X1472890D01*
X1444269Y1588369D02*
X1477700Y1621801D01*
X1248000Y1554200D02*
X1255200Y1561401D01*
X1235200Y1484401D02*
X1248000Y1497200D01*
Y1554200D01*
X1195800Y1484401D02*
X1235200D01*
X1192000Y1488201D02*
X1195800Y1484401D01*
X1192000Y1488201D02*
Y1512171D01*
X1221000Y1573100D02*
X1230300Y1582401D01*
X1221000Y1551541D02*
Y1573100D01*
X1428750Y1617064D02*
Y1657611D01*
X1268421Y1614135D02*
X1425822D01*
X1428750Y1617064D01*
Y1657611D02*
X1454150D01*
Y1676611D02*
Y1705060D01*
X1428750Y1676611D02*
Y1705060D01*
X1299360Y1442471D02*
Y1492971D01*
X1508100Y1851261D02*
X1546360D01*
X1552300Y1857201D02*
Y1900651D01*
X1546360Y1851261D02*
X1552300Y1857201D01*
Y1900651D02*
Y1922241D01*
X1508100Y1851261D02*
Y1868001D01*
X1426210Y1794261D02*
X1428750D01*
X1426210D02*
Y1828401D01*
X1407210Y1851261D02*
X1408010Y1852061D01*
Y1873811D01*
X1408200Y1874001D01*
X1407210Y1828401D02*
Y1851261D01*
X1454540Y1794261D02*
Y1828401D01*
X1454150Y1794261D02*
X1454540D01*
X1453540Y1828401D02*
Y1851261D01*
Y1828401D02*
X1454540D01*
X1472540D02*
Y1851261D01*
Y1828401D02*
X1473540D01*
X1502668Y1873433D02*
X1508100Y1868001D01*
X1502668Y1873433D02*
Y1884141D01*
X1472540Y1851261D02*
X1489100D01*
X1453392Y1884141D02*
X1453540D01*
Y1851261D02*
Y1884141D01*
X1426820Y1851261D02*
X1453540D01*
X1552300Y1922241D02*
Y1943831D01*
Y1965421D01*
X378000Y1678701D02*
X387350Y1669351D01*
X300600Y1678701D02*
X378000D01*
X387350Y1566851D02*
Y1669351D01*
X446159Y1596201D02*
X507000D01*
X516609Y1556595D02*
Y1586592D01*
X507000Y1596201D02*
X516609Y1586592D01*
X443230Y1593272D02*
X446159Y1596201D01*
X267310Y1659511D02*
X330590D01*
X336600Y1653501D01*
X286100Y1694101D02*
X322762D01*
X279300Y1700901D02*
X286100Y1694101D01*
X279300Y1700901D02*
Y1736901D01*
X361489Y1747321D02*
X363219Y1749051D01*
X528300Y1672701D02*
X551676Y1649325D01*
X769709D01*
X505800Y1672701D02*
X528300D01*
X1145540Y544431D02*
X1183640D01*
X1503395Y382156D02*
X1503680Y381871D01*
X1503395Y382156D02*
Y405147D01*
X1503110Y406002D02*
X1503680Y405432D01*
X1283121Y464411D02*
X1283971Y462411D01*
X1283121Y464411D02*
Y479670D01*
X1277621Y481671D02*
X1283121Y479670D01*
X1276771Y512671D02*
X1277621Y510671D01*
X1276771Y512671D02*
Y530471D01*
X1271271Y532471D02*
X1276771Y530471D01*
X1270421Y563471D02*
X1271271Y561471D01*
X1270421Y563471D02*
Y581270D01*
X1264921Y583271D02*
X1270421Y581270D01*
X1440180Y562001D02*
X1441031Y564001D01*
Y581270D01*
X1446531Y583271D01*
X1433830Y512471D02*
X1434680Y514471D01*
Y531001D01*
X1440180Y533001D01*
X1428751Y462411D02*
X1429234Y464411D01*
Y481470D01*
X1433830Y483471D01*
X1391071Y464411D02*
X1394461Y462411D01*
X1391071Y464411D02*
Y480941D01*
X1385571Y482941D02*
X1391071Y480941D01*
X1384721Y513941D02*
X1385571Y511941D01*
X1384721Y513941D02*
Y530471D01*
X1379221Y532471D02*
X1384721Y530471D01*
X1318261Y462411D02*
X1320381Y464411D01*
Y479670D01*
X1325881Y481671D01*
Y510671D02*
X1326730Y512671D01*
Y531001D01*
X1332230Y533001D01*
Y562001D02*
X1333081Y564001D01*
Y581270D01*
X1338581Y583271D01*
X1375410Y563471D02*
X1377410Y561471D01*
X1373410Y583271D02*
X1375410Y581270D01*
X1377410Y561471D02*
X1379221D01*
X1372871Y583271D02*
X1373410D01*
X1375410Y563471D02*
Y581270D01*
X1304290Y379331D02*
X1318261Y393301D01*
X1304290Y74531D02*
Y379331D01*
X1318261Y393301D02*
Y433411D01*
X1304290Y74531D02*
X1346200Y32621D01*
X2113510D01*
X1283971Y41510D02*
Y433411D01*
Y41510D02*
X1308100Y17381D01*
X2430780D01*
X2113510Y32621D02*
X2166220Y85331D01*
X2430780Y17381D02*
X2449360Y35961D01*
Y84691D01*
D17*
X2473000Y1497601D02*
D03*
X2480880Y1500334D02*
D03*
X2484535Y1507731D02*
D03*
X2482740Y1515713D02*
D03*
X2476270Y1520702D02*
D03*
X2468522Y1520339D02*
D03*
X2462922Y1515220D02*
D03*
X2461500Y1507717D02*
D03*
X2465405Y1500929D02*
D03*
X2168000Y1031601D02*
D03*
X2175880Y1034334D02*
D03*
X2179535Y1041731D02*
D03*
X2177740Y1049713D02*
D03*
X2171270Y1054702D02*
D03*
X2163522Y1054339D02*
D03*
X2157922Y1049220D02*
D03*
X2156500Y1041717D02*
D03*
X2160405Y1034929D02*
D03*
X2168000Y1307601D02*
D03*
X2175880Y1310334D02*
D03*
X2179535Y1317731D02*
D03*
X2177740Y1325713D02*
D03*
X2171270Y1330702D02*
D03*
X2163522Y1330339D02*
D03*
X2157922Y1325220D02*
D03*
X2156500Y1317717D02*
D03*
X2160405Y1310929D02*
D03*
X2473000Y1221601D02*
D03*
X2480880Y1224334D02*
D03*
X2484535Y1231731D02*
D03*
X2482740Y1239713D02*
D03*
X2476270Y1244702D02*
D03*
X2468522Y1244339D02*
D03*
X2462922Y1239220D02*
D03*
X2461500Y1231717D02*
D03*
X2465405Y1224929D02*
D03*
X1611000Y695601D02*
D03*
X1618880Y698334D02*
D03*
X1622535Y705731D02*
D03*
X1620740Y713713D02*
D03*
X1614270Y718702D02*
D03*
X1606522Y718339D02*
D03*
X1600922Y713220D02*
D03*
X1599500Y705716D02*
D03*
X1603405Y698929D02*
D03*
X1610000Y971601D02*
D03*
X1617880Y974334D02*
D03*
X1621535Y981731D02*
D03*
X1619740Y989713D02*
D03*
X1613271Y994702D02*
D03*
X1605522Y994339D02*
D03*
X1599922Y989220D02*
D03*
X1598500Y981717D02*
D03*
X1602405Y974929D02*
D03*
X1887000Y968601D02*
D03*
X1894880Y971334D02*
D03*
X1898535Y978731D02*
D03*
X1896740Y986713D02*
D03*
X1890271Y991702D02*
D03*
X1882522Y991339D02*
D03*
X1876922Y986220D02*
D03*
X1875500Y978717D02*
D03*
X1879405Y971929D02*
D03*
X1887000Y693601D02*
D03*
X1894880Y696334D02*
D03*
X1898535Y703731D02*
D03*
X1896740Y711713D02*
D03*
X1890271Y716702D02*
D03*
X1882522Y716339D02*
D03*
X1876922Y711220D02*
D03*
X1875500Y703717D02*
D03*
X1879405Y696929D02*
D03*
X2449851Y299018D02*
D03*
X2457731Y301751D02*
D03*
X2461386Y309148D02*
D03*
X2459591Y317130D02*
D03*
X2453121Y322119D02*
D03*
X2445372Y321756D02*
D03*
X2439773Y316637D02*
D03*
X2438351Y309133D02*
D03*
X2442256Y302346D02*
D03*
X2174936Y298955D02*
D03*
X2182816Y301688D02*
D03*
X2186471Y309085D02*
D03*
X2184676Y317067D02*
D03*
X2178206Y322056D02*
D03*
X2170458Y321693D02*
D03*
X2164858Y316574D02*
D03*
X2163436Y309071D02*
D03*
X2167341Y302283D02*
D03*
D18*
X1802200Y2287201D02*
D03*
X1783467D02*
D03*
X1764734D02*
D03*
X1746000D02*
D03*
X1675600Y2223801D02*
D03*
X1666600Y2214901D02*
D03*
X1975500Y2328701D02*
D03*
X1942000D02*
D03*
X1908500D02*
D03*
X1690300Y2287201D02*
D03*
X90171Y1099871D02*
D03*
X56200Y1172900D02*
D03*
X1626300Y2266201D02*
D03*
X1575100D02*
D03*
X1735600Y2193001D02*
D03*
X1745500Y2202701D02*
D03*
X1462600Y2089701D02*
D03*
X1517700Y1943831D02*
D03*
X1276765Y2281901D02*
D03*
X1291300D02*
D03*
X1225564D02*
D03*
X1492100Y431801D02*
D03*
X1302100Y654301D02*
D03*
X1492960Y454260D02*
D03*
X1301700Y637501D02*
D03*
X694800Y1292901D02*
D03*
X1170468Y1563333D02*
D03*
X828400Y1536501D02*
D03*
X828200Y1524101D02*
D03*
X814500D02*
D03*
X814700Y1536501D02*
D03*
X251020Y1617581D02*
D03*
X426100Y1624501D02*
D03*
X368000Y1568000D02*
D03*
X353400Y1567800D02*
D03*
X1558600Y1413601D02*
D03*
X34400Y1516201D02*
D03*
X25300Y1524901D02*
D03*
X70800Y1477601D02*
D03*
X62400Y1487301D02*
D03*
X662500Y1439801D02*
D03*
X900100Y1075500D02*
D03*
X700700Y1392801D02*
D03*
X700400Y1422801D02*
D03*
X478900Y1426001D02*
D03*
X962400Y1144401D02*
D03*
X970280Y507601D02*
D03*
X691400Y1226901D02*
D03*
X638600Y1225501D02*
D03*
X663600Y1194101D02*
D03*
X678600D02*
D03*
X552600Y1211301D02*
D03*
Y1196301D02*
D03*
X506900Y1323001D02*
D03*
Y1308001D02*
D03*
X546700Y1310701D02*
D03*
Y1325701D02*
D03*
X245600Y1646001D02*
D03*
X302800Y1614101D02*
D03*
X299500Y1628501D02*
D03*
X245600Y1659501D02*
D03*
X1478600Y1902501D02*
D03*
X1394000Y1345801D02*
D03*
X1285500Y1335001D02*
D03*
X1426600Y1999200D02*
D03*
X1334100Y1588369D02*
D03*
X1415700Y2110401D02*
D03*
X1620200Y2141801D02*
D03*
X1607100Y2141901D02*
D03*
X1593800Y2142301D02*
D03*
X1615000Y2231701D02*
D03*
X1620500Y2244601D02*
D03*
X1594000Y2231801D02*
D03*
X1604100Y2244501D02*
D03*
X1408200Y1874001D02*
D03*
X645300Y1568000D02*
D03*
X387350Y1566851D02*
D03*
X505800Y1672701D02*
D03*
X1145540Y544431D02*
D03*
X1183640D02*
D03*
X1503680Y381871D02*
D03*
X1013460Y596501D02*
D03*
D20*
X2136700Y2251400D02*
X2144400Y2259101D01*
X1740500Y2251400D02*
X2136700D01*
X2144400Y2259101D02*
Y2293391D01*
X2159500Y2245401D02*
X2169455Y2255356D01*
Y2293046D01*
X1743700Y2245401D02*
X2159500D01*
X1653500Y1932901D02*
X1696800Y1976201D01*
X1653500Y1409071D02*
Y1932901D01*
X1696800Y1976201D02*
Y2189701D01*
X1659500Y1929801D02*
X1703000Y1973300D01*
X1659500Y1406586D02*
Y1929801D01*
X1703000Y1973300D02*
Y2186901D01*
X1665500Y1404100D02*
Y1925401D01*
X1709900Y1969801D01*
Y2184401D01*
X1629500Y1942986D02*
X1672300Y1985786D01*
Y2202601D01*
X1733300Y2263601D01*
X1684300Y2195201D02*
X1740500Y2251400D01*
X1684300Y1980815D02*
Y2195201D01*
X1690300Y2192000D02*
X1743700Y2245401D01*
X1690300Y1978330D02*
Y2192000D01*
X1678300Y2198201D02*
X1737700Y2257601D01*
X1678300Y1983301D02*
Y2198201D01*
X1737700Y2257601D02*
X2121000D01*
X1746500Y2239400D02*
X2168300D01*
X1696800Y2189701D02*
X1746500Y2239400D01*
X1703000Y2186901D02*
X1749500Y2233401D01*
X2177400D01*
X1709900Y2184401D02*
X1752900Y2227401D01*
X2187000D01*
X1647500Y1935530D02*
X1690300Y1978330D01*
X1635500Y1940501D02*
X1678300Y1983301D01*
X1641501Y1938015D02*
X1684300Y1980815D01*
X2085500Y2315901D02*
X2091600Y2309801D01*
X2050000Y2315901D02*
X2085500D01*
X2091600Y2275201D02*
Y2309801D01*
X2030900Y2296801D02*
X2050000Y2315901D01*
X2024100Y2302800D02*
X2043200Y2321901D01*
X2236855Y2327901D02*
X2245655Y2319101D01*
X2037900Y2327901D02*
X2236855D01*
X2227400Y2321901D02*
X2232613Y2316688D01*
X2043200Y2321901D02*
X2227400D01*
X2018800Y2308801D02*
X2037900Y2327901D01*
X1733300Y2263601D02*
X2098900D01*
X1670190Y2257111D02*
Y2292111D01*
X1666800Y2295501D02*
X1670190Y2292111D01*
X1841300Y2285701D02*
X1841700D01*
X1825500Y2301501D02*
X1841300Y2285701D01*
X21700Y1168342D02*
X90171Y1099871D01*
X21700Y1484301D02*
X47000Y1509601D01*
X21700Y1168342D02*
Y1484301D01*
X47000Y1509601D02*
Y2242086D01*
X72100Y2232460D02*
X141141Y2301501D01*
X1825500D01*
X65200Y2234045D02*
X138956Y2307801D01*
X1838400D02*
X1855400Y2290800D01*
X138956Y2307801D02*
X1838400D01*
X132815Y2327901D02*
X1855300D01*
X138071Y2315401D02*
X1843200D01*
X135300Y2321901D02*
X1848400D01*
X1855300Y2327901D02*
X1874400Y2308801D01*
X1867500Y2302800D02*
X2024100D01*
X1843200Y2315401D02*
X1861800Y2296801D01*
X2030900D01*
X1874400Y2308801D02*
X2018800D01*
X2039600Y2290800D02*
X2056700Y2307901D01*
X1855400Y2290800D02*
X2039600D01*
X1848400Y2321901D02*
X1867500Y2302800D01*
X2232613Y2306438D02*
Y2316688D01*
Y2306438D02*
X2233130Y2305921D01*
X2245655Y2293046D02*
Y2319101D01*
X2233130Y2280521D02*
X2245655Y2293046D01*
X47000Y2242086D02*
X132815Y2327901D01*
X53000Y2239601D02*
X135300Y2321901D01*
X29900Y1480000D02*
X53000Y1503100D01*
Y2239601D01*
X29900Y1199201D02*
Y1480000D01*
Y1199201D02*
X56200Y1172900D01*
X59200Y2236530D02*
X138071Y2315401D01*
X78100Y2229974D02*
X143627Y2295501D01*
X1666800D01*
X2187000Y2227401D02*
X2207730Y2248131D01*
X2177400Y2233401D02*
X2194855Y2250856D01*
X2168300Y2239400D02*
X2179833Y2250934D01*
X2121000Y2257601D02*
X2131530Y2268131D01*
X2098900Y2263601D02*
X2106200Y2270901D01*
X149000Y1456401D02*
X593992D01*
X78100Y1527301D02*
X149000Y1456401D01*
X780600Y1210701D02*
Y1269792D01*
X593992Y1456401D02*
X780600Y1269792D01*
X78100Y1527301D02*
Y2229974D01*
X1629500Y1419012D02*
Y1942986D01*
X1551500Y1332527D02*
X1635500Y1416527D01*
X1559600Y1332142D02*
X1641501Y1414042D01*
X1586100Y1324701D02*
X1665500Y1404100D01*
X1647500Y1411556D02*
Y1935530D01*
X1568000Y1332056D02*
X1647500Y1411556D01*
X1545500Y1335012D02*
X1629500Y1419012D01*
X1635500Y1416527D02*
Y1940501D01*
X1574100Y1329671D02*
X1653500Y1409071D01*
X1580100Y1327186D02*
X1659500Y1406586D01*
X1641501Y1414042D02*
Y1938015D01*
X1580100Y1280530D02*
Y1327186D01*
X1545500Y1225501D02*
Y1335012D01*
X1559600Y1290800D02*
Y1332142D01*
X1568000Y1285401D02*
Y1332056D01*
X1574100Y1283015D02*
Y1329671D01*
X1586100Y1278045D02*
Y1324701D01*
X1551500Y1222001D02*
Y1332527D01*
X1564000Y1272915D02*
X1574100Y1283015D01*
X1570000Y1270430D02*
X1580100Y1280530D01*
X1558000Y1275401D02*
X1568000Y1285401D01*
X1570000Y1213986D02*
Y1270430D01*
X1558000Y1220001D02*
Y1275401D01*
X1576000Y1211500D02*
Y1267945D01*
X1564000Y1217501D02*
Y1272915D01*
X1576000Y1267945D02*
X1586100Y1278045D01*
X1559500Y1290701D02*
X1559600Y1290800D01*
X1313300Y993301D02*
X1545500Y1225501D01*
X1322400Y992901D02*
X1551500Y1222001D01*
X1355900Y991401D02*
X1576000Y1211500D01*
X1329400Y991401D02*
X1558000Y1220001D01*
X1347100Y991086D02*
X1570000Y1213986D01*
X1338581Y992081D02*
X1564000Y1217501D01*
X1313300Y697101D02*
Y993301D01*
X1322400Y690900D02*
Y992901D01*
X1329400Y642201D02*
Y991401D01*
X761100Y1205101D02*
Y1269386D01*
X580086Y1450401D02*
X761100Y1269386D01*
X72100Y1524815D02*
Y2232460D01*
X146515Y1450401D02*
X580086D01*
X72100Y1524815D02*
X146515Y1450401D01*
X2106200Y2270901D02*
Y2299801D01*
X2112320Y2305921D01*
X2131530D01*
Y2268131D02*
Y2280521D01*
X1302100Y670601D02*
X1322400Y690900D01*
X1302100Y654301D02*
Y670601D01*
X1293600Y637501D02*
X1301700D01*
X1286800Y644301D02*
Y670601D01*
Y644301D02*
X1293600Y637501D01*
X1286800Y670601D02*
X1313300Y697101D01*
X1299470Y612271D02*
X1329400Y642201D01*
X1347100Y657901D02*
Y991086D01*
Y657901D02*
X1372871Y632130D01*
X1355900Y668201D02*
X1385000Y639101D01*
X1355900Y668201D02*
Y991401D01*
X1338581Y612271D02*
Y992081D01*
X1385000Y639101D02*
X1438900D01*
X1492100Y431801D02*
X1492276Y431625D01*
X1509245D02*
X1509420Y431450D01*
X1492276Y431625D02*
X1509245D01*
X1492960Y454260D02*
X1509420D01*
X1264921Y612271D02*
X1299470D01*
X2179833Y2250934D02*
Y2278024D01*
X2169455Y2293046D02*
X2182330Y2305921D01*
X2144400Y2293391D02*
X2156930Y2305921D01*
X2194855Y2250856D02*
Y2293046D01*
X2207730Y2305921D01*
Y2248131D02*
Y2280521D01*
X2179833Y2278024D02*
X2182330Y2280521D01*
X137500Y1444401D02*
X577600D01*
X764900Y1186801D02*
X780500D01*
X746400Y1205301D02*
Y1275601D01*
Y1205301D02*
X764900Y1186801D01*
X68300Y1513601D02*
X137500Y1444401D01*
X65200Y1519115D02*
Y2234045D01*
Y1519115D02*
X68300Y1516015D01*
X577600Y1444401D02*
X746400Y1275601D01*
X68300Y1513601D02*
Y1516015D01*
X780800Y1198700D02*
X781200Y1199100D01*
X767500Y1198700D02*
X780800D01*
X999565Y584936D02*
X999700Y584801D01*
X967875Y584936D02*
X999565D01*
X967740Y585071D02*
X967875Y584936D01*
X761100Y1205101D02*
X767500Y1198700D01*
X568800Y1438401D02*
X732300Y1274901D01*
X132400Y1438401D02*
X568800D01*
X732300Y1209701D02*
Y1274901D01*
X1442850Y1353901D02*
X1485500D01*
X1442060Y1354691D02*
X1442850Y1353901D01*
X59200Y1511601D02*
Y2236530D01*
Y1511601D02*
X132400Y1438401D01*
X1446531Y612271D02*
Y631470D01*
X1438900Y639101D02*
X1446531Y631470D01*
X1372871Y612271D02*
Y632130D01*
X1297800Y1179100D02*
X1417800D01*
X1441300Y1202601D02*
X1452500D01*
X1417800Y1179100D02*
X1441300Y1202601D01*
X495400Y1414400D02*
X560100D01*
X582900Y1391601D01*
X1442060Y1249241D02*
Y1265791D01*
X1446244Y1245057D02*
X1485500D01*
X1442060Y1249241D02*
X1446244Y1245057D01*
X1442169Y1332357D02*
X1485500D01*
X1442060Y1332466D02*
X1442169Y1332357D01*
X1442535Y1310715D02*
X1485500D01*
X1442060Y1310241D02*
X1442535Y1310715D01*
X1442902Y1288857D02*
X1485500D01*
X1442060Y1288016D02*
X1442902Y1288857D01*
X1430900Y1387701D02*
X1436800Y1393600D01*
X1378900Y1378701D02*
X1387900Y1387701D01*
X1430900D01*
X1436800Y1393600D02*
Y1422701D01*
X1378900Y1332501D02*
Y1378701D01*
D31*
X1382290Y2046841D02*
D03*
X1353290D02*
D03*
X1240130Y1180390D02*
D03*
X1211130D02*
D03*
X1268800Y1206000D02*
D03*
X1239800D02*
D03*
X1297800Y1179100D02*
D03*
X1268800D02*
D03*
X1537440Y2103991D02*
D03*
X1566440D02*
D03*
D32*
X322762Y1694101D02*
D03*
X332262Y1719101D02*
D03*
X341762Y1694101D02*
D03*
X342240Y1772321D02*
D03*
X332740Y1747321D02*
D03*
X323240Y1772321D02*
D03*
D34*
X1399929Y2046231D02*
D03*
Y2065231D02*
D03*
X1417709Y2046231D02*
D03*
Y2065231D02*
D03*
X363219Y1749051D02*
D03*
Y1768051D02*
D03*
X388619Y1749051D02*
D03*
Y1768051D02*
D03*
X412749Y1749131D02*
D03*
Y1768131D02*
D03*
X1454150Y1676611D02*
D03*
Y1657611D02*
D03*
X1168145Y2240491D02*
D03*
Y2221491D02*
D03*
X1189481Y2240491D02*
D03*
Y2221491D02*
D03*
X1210818Y2240491D02*
D03*
Y2221491D02*
D03*
X1146809Y2240491D02*
D03*
Y2221491D02*
D03*
X1232154Y2240491D02*
D03*
Y2221491D02*
D03*
X1065529Y2114761D02*
D03*
Y2095761D02*
D03*
X1029969Y2114761D02*
D03*
Y2095761D02*
D03*
X1047749Y2114761D02*
D03*
Y2095761D02*
D03*
X1083309Y2114761D02*
D03*
Y2095761D02*
D03*
X1253490Y2240431D02*
D03*
Y2221431D02*
D03*
D35*
X1338581Y583271D02*
D03*
Y612271D02*
D03*
X1173480Y2135901D02*
D03*
Y2106901D02*
D03*
X299400Y1748101D02*
D03*
Y1719101D02*
D03*
X1446531Y612271D02*
D03*
Y583271D02*
D03*
X1440180Y562001D02*
D03*
Y533001D02*
D03*
X1433830Y512471D02*
D03*
Y483471D02*
D03*
X1428751Y462411D02*
D03*
Y433411D02*
D03*
X1372871Y612271D02*
D03*
Y583271D02*
D03*
X1379221Y561471D02*
D03*
Y532471D02*
D03*
X1385571Y511941D02*
D03*
Y482941D02*
D03*
X1394461Y462411D02*
D03*
Y433411D02*
D03*
X1264921Y612271D02*
D03*
Y583271D02*
D03*
X1271271Y561471D02*
D03*
Y532471D02*
D03*
X1277621Y510671D02*
D03*
Y481671D02*
D03*
X1283971Y462411D02*
D03*
Y433411D02*
D03*
X1332230Y562001D02*
D03*
Y533001D02*
D03*
X1325881Y510671D02*
D03*
Y481671D02*
D03*
X1318261Y462411D02*
D03*
Y433411D02*
D03*
X928370Y2159871D02*
D03*
Y2130871D02*
D03*
X509270Y2162119D02*
D03*
Y2191119D02*
D03*
X991870Y290431D02*
D03*
Y261431D02*
D03*
D36*
X1637330Y2029059D02*
D03*
X1618330D02*
D03*
X1637330Y2049379D02*
D03*
X1618330D02*
D03*
X1473540Y1828401D02*
D03*
X1454540D02*
D03*
X1489100Y1851261D02*
D03*
X1508100D02*
D03*
D37*
X1472540D02*
D03*
X1453540D02*
D03*
X1552300Y1943831D02*
D03*
X1533300D02*
D03*
Y1965421D02*
D03*
X1552300D02*
D03*
X1533300Y1900651D02*
D03*
X1552300D02*
D03*
X1533300Y1922241D02*
D03*
X1552300D02*
D03*
X1407820Y1851261D02*
D03*
X1426820D02*
D03*
X1407210Y1828401D02*
D03*
X1426210D02*
D03*
X1442060Y1310241D02*
D03*
X1423060D02*
D03*
X1442060Y1265791D02*
D03*
X1423060D02*
D03*
X1442060Y1332466D02*
D03*
X1423060D02*
D03*
X1442060Y1288016D02*
D03*
X1423060D02*
D03*
X1442060Y1354691D02*
D03*
X1423060D02*
D03*
X1533300Y1988281D02*
D03*
X1552300D02*
D03*
D38*
X1503110Y406002D02*
D03*
X1527110D02*
D03*
D39*
X1050290Y1828401D02*
D03*
X1050290Y1871401D02*
D03*
D40*
X1428750Y1657611D02*
D03*
Y1676611D02*
D03*
X1101090Y2114761D02*
D03*
Y2095761D02*
D03*
D43*
X1304030Y2046841D02*
D03*
X1335030D02*
D03*
X831200Y2149701D02*
D03*
X800200D02*
D03*
X804710Y1697591D02*
D03*
X773710D02*
D03*
X1516640Y2103991D02*
D03*
X1485640D02*
D03*
D44*
X1681481Y365371D02*
D03*
Y398371D02*
D03*
D46*
X991870Y190101D02*
D03*
X991870Y230101D02*
D03*
D52*
X489270Y1749661D02*
D03*
X529270Y1749660D02*
D03*
X1004900Y1710201D02*
D03*
X964900Y1710201D02*
D03*
D53*
X929201Y1963401D02*
D03*
X840200D02*
D03*
X1193851Y1333101D02*
D03*
X1104850D02*
D03*
D82*
X2835000Y26700D02*
D03*
X2836732Y2328388D02*
D03*
X-35700Y36700D02*
D03*
X-35785Y2338388D02*
D03*
D118*
X1593641Y444150D02*
D03*
X1571645Y431450D02*
D03*
X1593641Y418750D02*
D03*
X1571645Y406050D02*
D03*
X478136Y1283521D02*
D03*
X456140Y1270821D02*
D03*
X478136Y1258121D02*
D03*
X456140Y1245421D02*
D03*
D124*
X1681481Y398371D02*
X1681490D01*
Y440290D01*
X1734830D02*
X1734850D01*
X1681481Y439020D02*
X1681490D01*
X1671340Y320051D02*
X1672600D01*
D127*
X1575100Y2266201D02*
X1626300D01*
X962400Y675400D02*
Y1143800D01*
X962400Y1143800D02*
Y1144400D01*
Y1143800D02*
X962400Y1143800D01*
Y675400D02*
X1013460Y624341D01*
Y596501D02*
Y624341D01*
Y550781D02*
Y596501D01*
X970280Y507601D02*
X1013460Y550781D01*
D128*
X835100Y1147601D02*
X865300Y1177801D01*
Y1301201D01*
X769709Y1396792D02*
X865300Y1301201D01*
X835100Y717001D02*
Y1147601D01*
X872600Y366521D02*
Y679501D01*
X835100Y717001D02*
X872600Y679501D01*
X856900Y1884301D02*
X924201Y1951601D01*
X856900Y1727101D02*
Y1884301D01*
Y1727101D02*
X903900Y1680101D01*
Y1540701D02*
Y1680101D01*
Y1540701D02*
X989580Y1455021D01*
X899400Y1158401D02*
Y1315401D01*
X863400Y737901D02*
Y1122401D01*
X899400Y1158401D01*
Y403221D02*
Y701901D01*
X863400Y737901D02*
X899400Y701901D01*
X769709Y1396792D02*
Y1649325D01*
X804710Y1410090D02*
Y1649325D01*
Y1410090D02*
X899400Y1315401D01*
X872600Y366521D02*
X948690Y290431D01*
X899400Y403221D02*
X965200Y337421D01*
X1079500D01*
X1302690Y1684091D02*
Y1738761D01*
Y1684091D02*
X1327290Y1659491D01*
X1352690D02*
Y1738761D01*
X1108200Y1455021D02*
X1120633D01*
X1104170Y1332420D02*
X1104850Y1333101D01*
X1002030Y1332420D02*
X1104170D01*
X924201Y1951601D02*
Y1958401D01*
X929201Y1963401D01*
X989580Y1455021D02*
X1108200D01*
X948690Y290431D02*
X991870D01*
X1079500Y337421D02*
X1099892Y317029D01*
Y271381D02*
Y317029D01*
X1073150Y190101D02*
X1098550D01*
X1022350D02*
X1047750D01*
X991870D02*
X1022350D01*
D129*
X1649131Y2082406D02*
Y2275869D01*
X1291300Y2281901D02*
X1643100D01*
X1649131Y2275869D01*
X1276765Y2281901D02*
X1291300D01*
X147200D02*
X1225564D01*
X89700Y2224401D02*
X147200Y2281901D01*
X89700Y1534501D02*
Y2224401D01*
Y1534501D02*
X155600Y1468601D01*
X1129600Y1278301D02*
X1187993D01*
X1193851Y1284158D02*
Y1333101D01*
X1084800Y1233501D02*
X1129600Y1278301D01*
X1187993D02*
X1193851Y1284158D01*
X946600Y1233501D02*
X1084800D01*
X155600Y1468601D02*
X605900D01*
X634700Y1439801D01*
X662500D01*
X900100Y1075500D02*
X933400Y1108801D01*
Y1220301D01*
X946600Y1233501D01*
D130*
X2560107Y1294671D02*
G03*
X2555307Y1296271I-4800J-6400D01*
G01*
X2374404D02*
G03*
X2369604Y1294671I0J-8000D01*
G01*
X2297647Y1222941D02*
G03*
X2298496Y1223677I-4800J6400D01*
G01*
X2292847Y1221341D02*
G03*
X2297647Y1222941I0J8000D01*
G01*
X2355354Y1321671D02*
G03*
X2350554Y1320070I0J-8000D01*
G01*
D02*
G03*
X2349704Y1319335I4800J-6400D01*
G01*
X2283245Y1252875D02*
G03*
X2283253Y1252883I-5634J5680D01*
G01*
X2277607Y1250551D02*
G03*
X2282407Y1252151I0J8000D01*
G01*
X2101354Y1250551D02*
G03*
X2096554Y1248951I0J-8000D01*
G01*
D02*
G03*
X2095704Y1248215I4800J-6400D01*
G01*
X2050846Y1203356D02*
G03*
X2050110Y1202507I5664J-5650D01*
G01*
D02*
G03*
X2048510Y1197707I6400J-4800D01*
G01*
X2560964Y1293927D02*
G03*
X2560107Y1294671I-5657J-5657D01*
G01*
X2369604D02*
G03*
X2368747Y1293927I4800J-6400D01*
G01*
X2282407Y1252151D02*
G03*
X2283245Y1252875I-4800J6400D01*
G01*
X532661Y361551D02*
X549380D01*
X503660D02*
X503660Y361550D01*
X485671Y361551D02*
X503660D01*
X485670Y361551D02*
X485671Y361551D01*
X456670D02*
X456670Y361551D01*
X438681Y361551D02*
X456670D01*
X438680Y361550D02*
X438681Y361551D01*
X2374404Y1296271D02*
X2555307D01*
X2298496Y1223677D02*
X2368747Y1293927D01*
X2298496Y1223677D02*
X2298496Y1223677D01*
X2140380Y1221341D02*
X2292847D01*
X2335130Y2230531D02*
Y2280521D01*
X1757800Y2215000D02*
X2319600D01*
X2335130Y2230531D01*
X1745500Y2202701D02*
X1757800Y2215000D01*
X1735700Y2192901D02*
X1745500Y2202701D01*
X1517700Y1943831D02*
X1533300D01*
X1490630Y831801D02*
Y955421D01*
Y831801D02*
X1507490Y814940D01*
X1738630D01*
X1516230Y1608031D02*
Y1716011D01*
X1442300Y1534101D02*
X1516230Y1608031D01*
X1171390Y1180390D02*
X1211130D01*
X1159500Y1082001D02*
Y1168501D01*
X1171390Y1180390D01*
X1268800Y1179100D02*
Y1206000D01*
X1239800Y1180720D02*
Y1206000D01*
X1404700Y1218801D02*
X1405200Y1219301D01*
X1375800Y1218801D02*
X1404700D01*
X1176020Y426321D02*
Y479181D01*
X1156402Y498799D02*
X1176020Y479181D01*
X1071969Y498799D02*
X1156402D01*
X1035050Y425051D02*
Y461881D01*
X1363700Y1230901D02*
X1375800Y1218801D01*
X1363700Y1230901D02*
Y1403201D01*
X1192111Y1512282D02*
Y1588625D01*
X1184700Y1463301D02*
X1244440D01*
X1274110Y1492971D01*
Y1522911D01*
X1150530Y1497471D02*
Y1540110D01*
Y1497471D02*
X1184700Y1463301D01*
X1221000Y1512171D02*
Y1551541D01*
X1285300Y1534101D02*
X1442300D01*
X1274110Y1522911D02*
X1285300Y1534101D01*
X1541801Y1756923D02*
X1566230Y1796011D01*
X1516230Y1716011D02*
X1541801Y1756923D01*
X1539928Y1758094D02*
X1566230Y1716011D01*
X1516230Y1796011D02*
X1539928Y1758094D01*
X1399929Y2065231D02*
X1417709D01*
X1397929D02*
X1399929D01*
X1615000Y2231701D02*
Y2232001D01*
X1399429Y2065731D02*
X1399929Y2065231D01*
X1382900Y2076401D02*
X1393570Y2065731D01*
X1399429D01*
X1328415Y2076401D02*
X1382900D01*
X1323729Y2081087D02*
Y2105261D01*
Y2081087D02*
X1328415Y2076401D01*
X947090Y1760291D02*
Y1788921D01*
X940500Y1753701D02*
X947090Y1760291D01*
X928200Y1753701D02*
X940500D01*
X927700Y1753201D02*
X928200Y1753701D01*
X927700Y1751901D02*
Y1753201D01*
X898700Y1751901D02*
Y1790601D01*
X927700D02*
Y1828101D01*
X898700D02*
Y1867700D01*
X946560Y1828290D02*
Y1863013D01*
X941874Y1867700D02*
X946560Y1863013D01*
X927700Y1867700D02*
X941874D01*
X1537440Y2103991D02*
Y2103991D01*
X1516640Y2103991D02*
X1537440D01*
X1353290Y2046841D02*
Y2046841D01*
X1335030Y2046841D02*
X1353290D01*
X1173480Y2086101D02*
Y2106901D01*
Y2086101D02*
X1173480D01*
X928370Y2109331D02*
Y2130871D01*
X1192000Y1512171D02*
X1192111Y1512282D01*
Y1588625D02*
X1192221Y1588735D01*
X802100Y2182701D02*
X802200D01*
X1767490Y843801D02*
Y952881D01*
X1738630Y814940D02*
X1767490Y843801D01*
X1528420Y431450D02*
X1571645D01*
X1528420Y454260D02*
X1580554D01*
X1590664Y444150D01*
X1593641D01*
X1527110Y406002D02*
X1527134Y406026D01*
X1571621D01*
X1571645Y406050D01*
X1071969Y663805D02*
Y745091D01*
Y498799D02*
Y663805D01*
X1035050Y461881D02*
X1071969Y498799D01*
X1487170Y267571D02*
Y289161D01*
X1428751Y347580D02*
Y433411D01*
Y347580D02*
X1487170Y289161D01*
X1426210Y267571D02*
Y306941D01*
X1394461Y338690D02*
X1426210Y306941D01*
X1394461Y338690D02*
Y433411D01*
X2355354Y1321671D02*
X2560008D01*
X2283253Y1252883D02*
X2349704Y1319335D01*
X2283253Y1252883D02*
X2283253Y1252883D01*
X2101354Y1250551D02*
X2277607D01*
X2050846Y1203356D02*
X2095704Y1248215D01*
X2050846Y1203356D02*
X2050846Y1203356D01*
X2048510Y1071481D02*
Y1197707D01*
X2560008Y1321671D02*
X2593690Y1355353D01*
Y1481201D01*
X2560964Y1293927D02*
X2593690Y1261201D01*
D131*
X1462600Y2035201D02*
Y2089701D01*
X1412330Y2238601D02*
X1436500Y2214431D01*
X1416100Y2134101D02*
X1436500Y2154501D01*
Y2214431D01*
X1426600Y1999200D02*
X1462600Y2035201D01*
X1415700Y2110401D02*
X1416100Y2110801D01*
Y2134101D01*
X1407330Y2238601D02*
X1412330D01*
X1533300Y1965421D02*
Y1988281D01*
D132*
X-57434Y88400D02*
D03*
X2853176Y78400D02*
D03*
X2825066Y2274421D02*
D03*
X-15834Y2284421D02*
D03*
X2445000Y236713D02*
D03*
X1697000Y720601D02*
D03*
Y699286D02*
D03*
X1677000Y720601D02*
D03*
Y699286D02*
D03*
X1657000Y720601D02*
D03*
Y699286D02*
D03*
X1637000D02*
D03*
Y720601D02*
D03*
X2241000Y319915D02*
D03*
Y298601D02*
D03*
X2495000Y520173D02*
D03*
Y541488D02*
D03*
Y562802D02*
D03*
X2515000Y520173D02*
D03*
Y541488D02*
D03*
Y562802D02*
D03*
X2385000Y519173D02*
D03*
Y540488D02*
D03*
Y561802D02*
D03*
X2405000Y519173D02*
D03*
Y540488D02*
D03*
Y561802D02*
D03*
X2140000Y543614D02*
D03*
Y522300D02*
D03*
Y564929D02*
D03*
X2120000Y522300D02*
D03*
Y543614D02*
D03*
Y564929D02*
D03*
Y488802D02*
D03*
Y600657D02*
D03*
X2240000Y523601D02*
D03*
Y544915D02*
D03*
Y566230D02*
D03*
X2260000Y523601D02*
D03*
Y544915D02*
D03*
Y566230D02*
D03*
X2201000Y808370D02*
D03*
Y787055D02*
D03*
X2221000Y808370D02*
D03*
Y787055D02*
D03*
X2181000Y808370D02*
D03*
Y787055D02*
D03*
X2161001Y808370D02*
D03*
Y787055D02*
D03*
X2141000Y808370D02*
D03*
Y787055D02*
D03*
X2201000Y765601D02*
D03*
X2221000D02*
D03*
X2181000D02*
D03*
X2161001D02*
D03*
X2141000D02*
D03*
X2420000Y773601D02*
D03*
X2500000D02*
D03*
X2480000D02*
D03*
X2460000D02*
D03*
X2440000D02*
D03*
X2419835Y795055D02*
D03*
X2499834D02*
D03*
X2479834D02*
D03*
X2459834D02*
D03*
X2439834D02*
D03*
X2520000Y773601D02*
D03*
X2540000D02*
D03*
X2560000D02*
D03*
X2640000D02*
D03*
X2620000D02*
D03*
X2600000D02*
D03*
X2580000D02*
D03*
X2519835Y795055D02*
D03*
X2539835D02*
D03*
X2559835D02*
D03*
X2639835D02*
D03*
X2619835D02*
D03*
X2599835D02*
D03*
X2579835D02*
D03*
X706136Y750286D02*
D03*
Y727601D02*
D03*
X684709Y750286D02*
D03*
Y727601D02*
D03*
X641854Y750286D02*
D03*
Y727601D02*
D03*
X620428Y750286D02*
D03*
Y727601D02*
D03*
X599000Y750286D02*
D03*
Y727601D02*
D03*
X663282D02*
D03*
Y750286D02*
D03*
X1945000Y1628286D02*
D03*
Y1649601D02*
D03*
X1925000Y1628286D02*
D03*
Y1649601D02*
D03*
X1965000Y1628286D02*
D03*
Y1649601D02*
D03*
X1985000Y1628286D02*
D03*
Y1649601D02*
D03*
X2005000Y1628286D02*
D03*
Y1649601D02*
D03*
X2044834Y1628286D02*
D03*
Y1649601D02*
D03*
X2025000Y1628286D02*
D03*
Y1649601D02*
D03*
X1945000Y1606971D02*
D03*
X2025000D02*
D03*
X2005000D02*
D03*
X1985000D02*
D03*
X1965000D02*
D03*
X2044834D02*
D03*
X1925000D02*
D03*
X2124000Y1628286D02*
D03*
Y1649601D02*
D03*
X2104000Y1628286D02*
D03*
Y1649601D02*
D03*
X2084000Y1628286D02*
D03*
Y1649601D02*
D03*
X2064000Y1628286D02*
D03*
Y1649601D02*
D03*
X2144000Y1628286D02*
D03*
Y1649601D02*
D03*
X2164000Y1628286D02*
D03*
Y1649601D02*
D03*
X2184000Y1628286D02*
D03*
Y1649601D02*
D03*
X2223835Y1628286D02*
D03*
Y1649601D02*
D03*
X2204000Y1628286D02*
D03*
Y1649601D02*
D03*
X2064000Y1606971D02*
D03*
X2124000D02*
D03*
X2204000D02*
D03*
X2184000D02*
D03*
X2164000D02*
D03*
X2144000D02*
D03*
X2223835D02*
D03*
X2104000D02*
D03*
X2084000D02*
D03*
X2475000Y301601D02*
D03*
Y322915D02*
D03*
X2495000Y301601D02*
D03*
Y322915D02*
D03*
X2405000Y301601D02*
D03*
Y322915D02*
D03*
X2425000Y301601D02*
D03*
Y322915D02*
D03*
X2202000Y298601D02*
D03*
Y319915D02*
D03*
X2222000Y298601D02*
D03*
Y319915D02*
D03*
X2120000Y295601D02*
D03*
Y316915D02*
D03*
X2140000Y295601D02*
D03*
Y316915D02*
D03*
X285000Y1114601D02*
D03*
Y1094601D02*
D03*
Y1074601D02*
D03*
Y1054601D02*
D03*
X572484Y427572D02*
D03*
X419884Y429601D02*
D03*
X438100Y457901D02*
D03*
X316100Y429601D02*
D03*
Y380300D02*
D03*
Y404601D02*
D03*
X253767Y380300D02*
D03*
X279292Y1325600D02*
D03*
X257865D02*
D03*
X343573D02*
D03*
X322146D02*
D03*
X300719D02*
D03*
X365000D02*
D03*
X364573Y1344601D02*
D03*
X278865D02*
D03*
X300292D02*
D03*
X321719D02*
D03*
X343146D02*
D03*
X386000D02*
D03*
X1644000Y528601D02*
D03*
X1624000D02*
D03*
X1604000D02*
D03*
X1584000D02*
D03*
X1715000Y507601D02*
D03*
X1695000D02*
D03*
X1675000D02*
D03*
X1655000D02*
D03*
X1575000D02*
D03*
X1595000D02*
D03*
X1615000D02*
D03*
X1635000D02*
D03*
X1915000Y681408D02*
D03*
Y702722D02*
D03*
Y724037D02*
D03*
X2285000Y2061971D02*
D03*
Y2083286D02*
D03*
X2265000Y2061971D02*
D03*
Y2083286D02*
D03*
X2245000Y2061971D02*
D03*
Y2083286D02*
D03*
X2225000Y2061971D02*
D03*
Y2083286D02*
D03*
X2145000Y2061971D02*
D03*
Y2083286D02*
D03*
X2165000Y2061971D02*
D03*
Y2083286D02*
D03*
X2185000Y2061971D02*
D03*
Y2083286D02*
D03*
X2205000Y2061971D02*
D03*
Y2083286D02*
D03*
X2125000Y2061971D02*
D03*
Y2083286D02*
D03*
X2105000Y2061971D02*
D03*
Y2083286D02*
D03*
X2085000Y2061971D02*
D03*
Y2083286D02*
D03*
X2545000Y2061713D02*
D03*
Y2083028D02*
D03*
Y2146971D02*
D03*
Y2125657D02*
D03*
Y2104342D02*
D03*
X2525000Y2061713D02*
D03*
Y2083028D02*
D03*
Y2125657D02*
D03*
Y2104342D02*
D03*
X2505000Y2061713D02*
D03*
Y2083028D02*
D03*
Y2104342D02*
D03*
X2485000Y2061713D02*
D03*
Y2083028D02*
D03*
X2565000Y2168286D02*
D03*
Y2146971D02*
D03*
Y2061713D02*
D03*
Y2083028D02*
D03*
Y2104342D02*
D03*
Y2125657D02*
D03*
X2585000Y2168286D02*
D03*
Y2189601D02*
D03*
Y2146971D02*
D03*
Y2061713D02*
D03*
Y2083028D02*
D03*
Y2104342D02*
D03*
Y2125657D02*
D03*
X2605000Y2168286D02*
D03*
Y2189601D02*
D03*
Y2146971D02*
D03*
Y2061713D02*
D03*
Y2083028D02*
D03*
Y2104342D02*
D03*
Y2125657D02*
D03*
X2625000Y2168286D02*
D03*
Y2189601D02*
D03*
Y2146971D02*
D03*
Y2061713D02*
D03*
Y2083028D02*
D03*
Y2104342D02*
D03*
Y2125657D02*
D03*
X2045000Y1911713D02*
D03*
Y1933028D02*
D03*
Y1975657D02*
D03*
Y1954342D02*
D03*
X2025000Y1911713D02*
D03*
Y1933028D02*
D03*
Y1975657D02*
D03*
Y1954342D02*
D03*
X2005000Y1911713D02*
D03*
Y1933028D02*
D03*
Y1975657D02*
D03*
Y1954342D02*
D03*
X2065000Y1911713D02*
D03*
Y1933028D02*
D03*
Y1954342D02*
D03*
Y1975657D02*
D03*
X2085000Y2018286D02*
D03*
Y2039601D02*
D03*
Y1996971D02*
D03*
Y1911713D02*
D03*
Y1933028D02*
D03*
Y1954342D02*
D03*
Y1975657D02*
D03*
X2105000Y2018286D02*
D03*
Y2039601D02*
D03*
Y1996971D02*
D03*
Y1911713D02*
D03*
Y1933028D02*
D03*
Y1954342D02*
D03*
Y1975657D02*
D03*
X2125000Y2018286D02*
D03*
Y2039601D02*
D03*
Y1996971D02*
D03*
Y1911713D02*
D03*
Y1933028D02*
D03*
Y1954342D02*
D03*
Y1975657D02*
D03*
X2685000Y1911713D02*
D03*
Y1933028D02*
D03*
Y2039601D02*
D03*
Y2018286D02*
D03*
Y1996971D02*
D03*
Y1975657D02*
D03*
Y1954342D02*
D03*
X2665000Y1911713D02*
D03*
Y1933028D02*
D03*
Y2039601D02*
D03*
Y2018286D02*
D03*
Y1996971D02*
D03*
Y1975657D02*
D03*
Y1954342D02*
D03*
X2645000Y1911713D02*
D03*
Y1933028D02*
D03*
Y2039601D02*
D03*
Y2018286D02*
D03*
Y1996971D02*
D03*
Y1975657D02*
D03*
Y1954342D02*
D03*
X2625000Y1911713D02*
D03*
Y1933028D02*
D03*
Y2039601D02*
D03*
Y2018286D02*
D03*
Y1996971D02*
D03*
Y1975657D02*
D03*
Y1954342D02*
D03*
X2705000Y2018286D02*
D03*
Y2039601D02*
D03*
Y1996971D02*
D03*
Y1911713D02*
D03*
Y1933028D02*
D03*
Y1954342D02*
D03*
Y1975657D02*
D03*
X2725000Y2018286D02*
D03*
Y2039601D02*
D03*
Y1996971D02*
D03*
Y1911713D02*
D03*
Y1933028D02*
D03*
Y1954342D02*
D03*
Y1975657D02*
D03*
X2745000Y2018286D02*
D03*
Y2039601D02*
D03*
Y1996971D02*
D03*
Y1911713D02*
D03*
Y1933028D02*
D03*
Y1954342D02*
D03*
Y1975657D02*
D03*
X2525000Y1911713D02*
D03*
Y1933028D02*
D03*
Y2039601D02*
D03*
Y2018286D02*
D03*
Y1996971D02*
D03*
Y1975657D02*
D03*
Y1954342D02*
D03*
X2505000Y1911713D02*
D03*
Y1933028D02*
D03*
Y2039601D02*
D03*
Y2018286D02*
D03*
Y1996971D02*
D03*
Y1975657D02*
D03*
Y1954342D02*
D03*
X2485000Y1911713D02*
D03*
Y1933028D02*
D03*
Y2039601D02*
D03*
Y2018286D02*
D03*
Y1996971D02*
D03*
Y1975657D02*
D03*
Y1954342D02*
D03*
X2465000Y1911713D02*
D03*
Y1933028D02*
D03*
Y2039601D02*
D03*
Y2018286D02*
D03*
Y1996971D02*
D03*
Y1975657D02*
D03*
Y1954342D02*
D03*
X2545000Y2018286D02*
D03*
Y2039601D02*
D03*
Y1996971D02*
D03*
Y1911713D02*
D03*
Y1933028D02*
D03*
Y1954342D02*
D03*
Y1975657D02*
D03*
X2565000Y2018286D02*
D03*
Y2039601D02*
D03*
Y1996971D02*
D03*
Y1911713D02*
D03*
Y1933028D02*
D03*
Y1954342D02*
D03*
Y1975657D02*
D03*
X2585000Y2018286D02*
D03*
Y2039601D02*
D03*
Y1996971D02*
D03*
Y1911713D02*
D03*
Y1933028D02*
D03*
Y1954342D02*
D03*
Y1975657D02*
D03*
X2605000Y2018286D02*
D03*
Y2039601D02*
D03*
Y1996971D02*
D03*
Y1911713D02*
D03*
Y1933028D02*
D03*
Y1954342D02*
D03*
Y1975657D02*
D03*
X2205000Y1911713D02*
D03*
Y1933028D02*
D03*
Y2039601D02*
D03*
Y2018286D02*
D03*
Y1996971D02*
D03*
Y1975657D02*
D03*
Y1954342D02*
D03*
X2185000Y1911713D02*
D03*
Y1933028D02*
D03*
Y2039601D02*
D03*
Y2018286D02*
D03*
Y1996971D02*
D03*
Y1975657D02*
D03*
Y1954342D02*
D03*
X2165000Y1911713D02*
D03*
Y1933028D02*
D03*
Y2039601D02*
D03*
Y2018286D02*
D03*
Y1996971D02*
D03*
Y1975657D02*
D03*
Y1954342D02*
D03*
X2145000Y1911713D02*
D03*
Y1933028D02*
D03*
Y2039601D02*
D03*
Y2018286D02*
D03*
Y1996971D02*
D03*
Y1975657D02*
D03*
Y1954342D02*
D03*
X2225000Y2018286D02*
D03*
Y2039601D02*
D03*
Y1996971D02*
D03*
Y1911713D02*
D03*
Y1933028D02*
D03*
Y1954342D02*
D03*
Y1975657D02*
D03*
X2245000Y2018286D02*
D03*
Y2039601D02*
D03*
Y1996971D02*
D03*
Y1911713D02*
D03*
Y1933028D02*
D03*
Y1954342D02*
D03*
Y1975657D02*
D03*
X2265000Y2018286D02*
D03*
Y2039601D02*
D03*
Y1996971D02*
D03*
Y1911713D02*
D03*
Y1933028D02*
D03*
Y1954342D02*
D03*
Y1975657D02*
D03*
X2285000Y2018286D02*
D03*
Y2039601D02*
D03*
Y1996971D02*
D03*
Y1911713D02*
D03*
Y1933028D02*
D03*
Y1954342D02*
D03*
Y1975657D02*
D03*
X1635000Y551713D02*
D03*
Y573028D02*
D03*
Y679601D02*
D03*
Y658286D02*
D03*
Y636972D02*
D03*
Y615657D02*
D03*
Y594342D02*
D03*
X1615000Y551713D02*
D03*
Y573028D02*
D03*
Y679601D02*
D03*
Y658286D02*
D03*
Y636972D02*
D03*
Y615657D02*
D03*
Y594342D02*
D03*
X1595000Y551713D02*
D03*
Y573028D02*
D03*
Y679601D02*
D03*
Y658286D02*
D03*
Y636972D02*
D03*
Y615657D02*
D03*
Y594342D02*
D03*
X1575000Y551713D02*
D03*
Y573028D02*
D03*
Y679601D02*
D03*
Y658286D02*
D03*
Y636972D02*
D03*
Y615657D02*
D03*
Y594342D02*
D03*
X1655000Y658286D02*
D03*
Y679601D02*
D03*
Y636972D02*
D03*
Y551713D02*
D03*
Y573028D02*
D03*
Y594342D02*
D03*
Y615657D02*
D03*
X1675000Y658286D02*
D03*
Y679601D02*
D03*
Y636972D02*
D03*
Y551713D02*
D03*
Y573028D02*
D03*
Y594342D02*
D03*
Y615657D02*
D03*
X1695000Y658286D02*
D03*
Y679601D02*
D03*
Y636972D02*
D03*
Y551713D02*
D03*
Y573028D02*
D03*
Y594342D02*
D03*
Y615657D02*
D03*
X1715000Y658286D02*
D03*
Y679601D02*
D03*
Y636972D02*
D03*
Y551713D02*
D03*
Y573028D02*
D03*
Y594342D02*
D03*
Y615657D02*
D03*
X2425000Y1424601D02*
D03*
X2445000D02*
D03*
X2485000D02*
D03*
X2505000D02*
D03*
X2465000D02*
D03*
X2405000D02*
D03*
X2505000Y1467230D02*
D03*
Y1445915D02*
D03*
X2485000Y1467230D02*
D03*
Y1445915D02*
D03*
X2405000Y1467230D02*
D03*
Y1445915D02*
D03*
X2425000Y1467230D02*
D03*
Y1445915D02*
D03*
X2445000Y1467230D02*
D03*
Y1445915D02*
D03*
X2465000Y1467230D02*
D03*
Y1445915D02*
D03*
X2435000Y1544601D02*
D03*
X2455000D02*
D03*
X2495000D02*
D03*
X2515000D02*
D03*
X2535000D02*
D03*
X2475000D02*
D03*
X2415000D02*
D03*
X2535000Y1587230D02*
D03*
Y1565915D02*
D03*
X2515000Y1587230D02*
D03*
Y1565915D02*
D03*
X2495000Y1587230D02*
D03*
Y1565915D02*
D03*
X2415000Y1587230D02*
D03*
Y1565915D02*
D03*
X2435000Y1587230D02*
D03*
Y1565915D02*
D03*
X2455000Y1587230D02*
D03*
Y1565915D02*
D03*
X2475000Y1587230D02*
D03*
Y1565915D02*
D03*
X2119834Y936313D02*
D03*
Y893684D02*
D03*
Y914999D02*
D03*
Y851055D02*
D03*
Y872370D02*
D03*
X2140000Y959601D02*
D03*
X2160000D02*
D03*
X2279835D02*
D03*
X2200000D02*
D03*
X2220000D02*
D03*
X2240000D02*
D03*
X2260000D02*
D03*
X2180000D02*
D03*
X2120000D02*
D03*
X2260000Y1002230D02*
D03*
Y980915D02*
D03*
X2279835Y1002230D02*
D03*
Y980915D02*
D03*
X2240000Y1002230D02*
D03*
Y980915D02*
D03*
X2220000Y1002230D02*
D03*
Y980915D02*
D03*
X2200000Y1002230D02*
D03*
Y980915D02*
D03*
X2120000Y1002230D02*
D03*
Y980915D02*
D03*
X2140000Y1002230D02*
D03*
Y980915D02*
D03*
X2160000Y1002230D02*
D03*
Y980915D02*
D03*
X2180000Y1002230D02*
D03*
Y980915D02*
D03*
X2120000Y829601D02*
D03*
X2140000D02*
D03*
X2160000D02*
D03*
X2180000D02*
D03*
X2260000D02*
D03*
X2240000D02*
D03*
X2220000D02*
D03*
X2200000D02*
D03*
X2140000Y851055D02*
D03*
Y872370D02*
D03*
X2160000Y851055D02*
D03*
Y872370D02*
D03*
X2180000Y851055D02*
D03*
Y872370D02*
D03*
X2259834Y851055D02*
D03*
Y872370D02*
D03*
X2239834Y851055D02*
D03*
Y872370D02*
D03*
X2220000Y851055D02*
D03*
Y872370D02*
D03*
X2200000Y851055D02*
D03*
Y872370D02*
D03*
X2279835Y829601D02*
D03*
Y851055D02*
D03*
Y872370D02*
D03*
X2180000Y914999D02*
D03*
Y936313D02*
D03*
X2160000Y914999D02*
D03*
Y936313D02*
D03*
X2140000Y914999D02*
D03*
Y936313D02*
D03*
X2200000Y914999D02*
D03*
Y936313D02*
D03*
X2220000Y914999D02*
D03*
Y936313D02*
D03*
X2239834Y914999D02*
D03*
Y936313D02*
D03*
X2279835Y914999D02*
D03*
Y936313D02*
D03*
X2259834Y914999D02*
D03*
Y936313D02*
D03*
X2180000Y893684D02*
D03*
X2259834D02*
D03*
X2239834D02*
D03*
X2220000D02*
D03*
X2200000D02*
D03*
X2279835D02*
D03*
X2160000D02*
D03*
X2140000D02*
D03*
X2379835D02*
D03*
X2399835D02*
D03*
X2579835D02*
D03*
X2599835D02*
D03*
X2619835D02*
D03*
X2639835D02*
D03*
X2559835D02*
D03*
X2539835D02*
D03*
X2519835D02*
D03*
X2439834D02*
D03*
X2459834D02*
D03*
X2479834D02*
D03*
X2499834D02*
D03*
X2419835D02*
D03*
X2359834D02*
D03*
X2639835Y936313D02*
D03*
Y914999D02*
D03*
X2619835Y936313D02*
D03*
Y914999D02*
D03*
X2599835Y936313D02*
D03*
Y914999D02*
D03*
X2579835Y936313D02*
D03*
Y914999D02*
D03*
X2499834Y936313D02*
D03*
Y914999D02*
D03*
X2519835Y936313D02*
D03*
Y914999D02*
D03*
X2539835Y936313D02*
D03*
Y914999D02*
D03*
X2559835Y936313D02*
D03*
Y914999D02*
D03*
X2479834Y936313D02*
D03*
Y914999D02*
D03*
X2459834Y936313D02*
D03*
Y914999D02*
D03*
X2439834Y936313D02*
D03*
Y914999D02*
D03*
X2359834Y936313D02*
D03*
Y914999D02*
D03*
X2379835Y936313D02*
D03*
Y914999D02*
D03*
X2399835Y936313D02*
D03*
Y914999D02*
D03*
X2419835Y936313D02*
D03*
Y914999D02*
D03*
X2579835Y872370D02*
D03*
Y851055D02*
D03*
X2599835Y872370D02*
D03*
Y851055D02*
D03*
X2619835Y872370D02*
D03*
Y851055D02*
D03*
X2639835Y872370D02*
D03*
Y851055D02*
D03*
X2559835Y872370D02*
D03*
Y851055D02*
D03*
X2539835Y872370D02*
D03*
Y851055D02*
D03*
X2519835Y872370D02*
D03*
Y851055D02*
D03*
X2580000Y829601D02*
D03*
X2600000D02*
D03*
X2620000D02*
D03*
X2640000D02*
D03*
X2560000D02*
D03*
X2540000D02*
D03*
X2520000D02*
D03*
X2439834Y872370D02*
D03*
Y851055D02*
D03*
X2459834Y872370D02*
D03*
Y851055D02*
D03*
X2479834Y872370D02*
D03*
Y851055D02*
D03*
X2499834Y872370D02*
D03*
Y851055D02*
D03*
X2419835Y872370D02*
D03*
Y851055D02*
D03*
X2399835Y872370D02*
D03*
Y851055D02*
D03*
X2379835Y872370D02*
D03*
Y851055D02*
D03*
X2359834Y872370D02*
D03*
Y851055D02*
D03*
X2440000Y829601D02*
D03*
X2460000D02*
D03*
X2480000D02*
D03*
X2500000D02*
D03*
X2420000D02*
D03*
X2400000D02*
D03*
X2380000D02*
D03*
X2360000D02*
D03*
X2719835Y198684D02*
D03*
Y177369D02*
D03*
Y156055D02*
D03*
X2739835Y198684D02*
D03*
Y177369D02*
D03*
Y156055D02*
D03*
X2759835Y198684D02*
D03*
Y177369D02*
D03*
Y156055D02*
D03*
X2699835Y198684D02*
D03*
Y177369D02*
D03*
Y156055D02*
D03*
X2679835Y198684D02*
D03*
Y177369D02*
D03*
Y156055D02*
D03*
X2659835Y198684D02*
D03*
Y177369D02*
D03*
Y156055D02*
D03*
X2639835Y198684D02*
D03*
Y177369D02*
D03*
Y156055D02*
D03*
X2720000Y134601D02*
D03*
X2740000D02*
D03*
X2760000D02*
D03*
X2700000D02*
D03*
X2680000D02*
D03*
X2660000D02*
D03*
X2640000D02*
D03*
Y399600D02*
D03*
Y419600D02*
D03*
Y439600D02*
D03*
Y459601D02*
D03*
Y379601D02*
D03*
Y359601D02*
D03*
Y339601D02*
D03*
Y319601D02*
D03*
X2615000Y399600D02*
D03*
Y419600D02*
D03*
Y439600D02*
D03*
Y459601D02*
D03*
Y379601D02*
D03*
Y359601D02*
D03*
Y339601D02*
D03*
Y319601D02*
D03*
X2385166Y193944D02*
D03*
X2405166D02*
D03*
X2425166D02*
D03*
X2445166D02*
D03*
X2525166D02*
D03*
X2505166D02*
D03*
X2485166D02*
D03*
X2465166D02*
D03*
X2119685Y191142D02*
D03*
X2139685D02*
D03*
X2159685D02*
D03*
X2179685D02*
D03*
X2259685D02*
D03*
X2239685D02*
D03*
X2219685D02*
D03*
X2199685D02*
D03*
X2385000Y215399D02*
D03*
Y236713D02*
D03*
Y258028D02*
D03*
Y279342D02*
D03*
X2405000Y215399D02*
D03*
Y236713D02*
D03*
Y258028D02*
D03*
Y279342D02*
D03*
X2425000Y215399D02*
D03*
Y236713D02*
D03*
Y258028D02*
D03*
Y279342D02*
D03*
X2445000Y215399D02*
D03*
Y258028D02*
D03*
Y279342D02*
D03*
X2525000Y215399D02*
D03*
Y236713D02*
D03*
Y279342D02*
D03*
Y258028D02*
D03*
X2505000Y215399D02*
D03*
Y236713D02*
D03*
Y279342D02*
D03*
Y258028D02*
D03*
X2485000Y215399D02*
D03*
Y236713D02*
D03*
Y279342D02*
D03*
Y258028D02*
D03*
X2465000Y215399D02*
D03*
Y236713D02*
D03*
Y279342D02*
D03*
Y258028D02*
D03*
X2445000Y370915D02*
D03*
Y349601D02*
D03*
Y392230D02*
D03*
Y498802D02*
D03*
Y477488D02*
D03*
Y456173D02*
D03*
Y434859D02*
D03*
Y413544D02*
D03*
X2425000Y370915D02*
D03*
Y349601D02*
D03*
Y392230D02*
D03*
Y498802D02*
D03*
Y477488D02*
D03*
Y456173D02*
D03*
Y434859D02*
D03*
Y413544D02*
D03*
X2405000Y370915D02*
D03*
Y349601D02*
D03*
Y392230D02*
D03*
Y498802D02*
D03*
Y477488D02*
D03*
Y456173D02*
D03*
Y434859D02*
D03*
Y413544D02*
D03*
X2385000Y370915D02*
D03*
Y349601D02*
D03*
Y392230D02*
D03*
Y498802D02*
D03*
Y477488D02*
D03*
Y456173D02*
D03*
Y434859D02*
D03*
Y413544D02*
D03*
X2465000Y477488D02*
D03*
Y498802D02*
D03*
Y456173D02*
D03*
Y349601D02*
D03*
Y370915D02*
D03*
Y392230D02*
D03*
Y413544D02*
D03*
Y434859D02*
D03*
X2485000Y477488D02*
D03*
Y498802D02*
D03*
Y456173D02*
D03*
Y349601D02*
D03*
Y370915D02*
D03*
Y392230D02*
D03*
Y413544D02*
D03*
Y434859D02*
D03*
X2505000Y477488D02*
D03*
Y498802D02*
D03*
Y456173D02*
D03*
Y349601D02*
D03*
Y370915D02*
D03*
Y392230D02*
D03*
Y413544D02*
D03*
Y434859D02*
D03*
X2525000Y477488D02*
D03*
Y498802D02*
D03*
Y456173D02*
D03*
Y349601D02*
D03*
Y370915D02*
D03*
Y392230D02*
D03*
Y413544D02*
D03*
Y434859D02*
D03*
X2540000Y665399D02*
D03*
X2520000D02*
D03*
X2500000D02*
D03*
X2480000D02*
D03*
X2420000D02*
D03*
X2440000D02*
D03*
X2460000D02*
D03*
X2400000D02*
D03*
X2380000D02*
D03*
X2360000D02*
D03*
X2340000D02*
D03*
X2280000D02*
D03*
X2300000D02*
D03*
X2320000D02*
D03*
X2200000Y643286D02*
D03*
Y665399D02*
D03*
Y621972D02*
D03*
Y600657D02*
D03*
X2220000Y643286D02*
D03*
Y665399D02*
D03*
Y621972D02*
D03*
Y600657D02*
D03*
X2240000Y643286D02*
D03*
Y665399D02*
D03*
Y621972D02*
D03*
Y600657D02*
D03*
X2260000Y643286D02*
D03*
Y665399D02*
D03*
Y621972D02*
D03*
Y600657D02*
D03*
X2180000Y665399D02*
D03*
Y643286D02*
D03*
Y621972D02*
D03*
Y600657D02*
D03*
X2160000Y665399D02*
D03*
Y643286D02*
D03*
Y621972D02*
D03*
Y600657D02*
D03*
X2140000Y665399D02*
D03*
Y643286D02*
D03*
Y621972D02*
D03*
Y600657D02*
D03*
X2120000Y665399D02*
D03*
Y643286D02*
D03*
Y621972D02*
D03*
X2200000Y254084D02*
D03*
Y275399D02*
D03*
Y232770D02*
D03*
Y211455D02*
D03*
X2220000Y254084D02*
D03*
Y275399D02*
D03*
Y232770D02*
D03*
Y211455D02*
D03*
X2240000Y254084D02*
D03*
Y275399D02*
D03*
Y232770D02*
D03*
Y211455D02*
D03*
X2260000Y254084D02*
D03*
Y275399D02*
D03*
Y232770D02*
D03*
Y211455D02*
D03*
X2180000Y275399D02*
D03*
Y254084D02*
D03*
Y232770D02*
D03*
Y211455D02*
D03*
X2160000Y275399D02*
D03*
Y254084D02*
D03*
Y232770D02*
D03*
Y211455D02*
D03*
X2140000Y275399D02*
D03*
Y254084D02*
D03*
Y232770D02*
D03*
Y211455D02*
D03*
X2120000Y275399D02*
D03*
Y254084D02*
D03*
Y232770D02*
D03*
Y211455D02*
D03*
X2260000Y424859D02*
D03*
Y403544D02*
D03*
Y382230D02*
D03*
Y360915D02*
D03*
Y339601D02*
D03*
Y446173D02*
D03*
Y488802D02*
D03*
Y467488D02*
D03*
X2240000Y424859D02*
D03*
Y403544D02*
D03*
Y382230D02*
D03*
Y360915D02*
D03*
Y339601D02*
D03*
Y446173D02*
D03*
Y488802D02*
D03*
Y467488D02*
D03*
X2220000Y424859D02*
D03*
Y403544D02*
D03*
Y382230D02*
D03*
Y360915D02*
D03*
Y339601D02*
D03*
Y446173D02*
D03*
Y488802D02*
D03*
Y467488D02*
D03*
X2200000Y424859D02*
D03*
Y403544D02*
D03*
Y382230D02*
D03*
Y360915D02*
D03*
Y339601D02*
D03*
Y446173D02*
D03*
Y488802D02*
D03*
Y467488D02*
D03*
X2120000Y403544D02*
D03*
Y424859D02*
D03*
Y446173D02*
D03*
Y467488D02*
D03*
Y382230D02*
D03*
Y339601D02*
D03*
Y360915D02*
D03*
X2140000Y403544D02*
D03*
Y424859D02*
D03*
Y446173D02*
D03*
Y467488D02*
D03*
Y488802D02*
D03*
Y382230D02*
D03*
Y339601D02*
D03*
Y360915D02*
D03*
X2160000Y403544D02*
D03*
Y424859D02*
D03*
Y446173D02*
D03*
Y467488D02*
D03*
Y488802D02*
D03*
Y382230D02*
D03*
Y339601D02*
D03*
Y360915D02*
D03*
X2180000Y403544D02*
D03*
Y424859D02*
D03*
Y446173D02*
D03*
Y467488D02*
D03*
Y488802D02*
D03*
Y382230D02*
D03*
Y339601D02*
D03*
Y360915D02*
D03*
X1915000Y638778D02*
D03*
Y660093D02*
D03*
Y617464D02*
D03*
Y446948D02*
D03*
Y489577D02*
D03*
Y510891D02*
D03*
Y532206D02*
D03*
Y553520D02*
D03*
Y574835D02*
D03*
Y596149D02*
D03*
Y468262D02*
D03*
X1935000Y638778D02*
D03*
Y724037D02*
D03*
Y702722D02*
D03*
Y681408D02*
D03*
Y660093D02*
D03*
Y617464D02*
D03*
Y446948D02*
D03*
Y489577D02*
D03*
Y510891D02*
D03*
Y532206D02*
D03*
Y553520D02*
D03*
Y574835D02*
D03*
Y596149D02*
D03*
Y468262D02*
D03*
X1955000Y638778D02*
D03*
Y724037D02*
D03*
Y702722D02*
D03*
Y681408D02*
D03*
Y660093D02*
D03*
Y617464D02*
D03*
Y446948D02*
D03*
Y489577D02*
D03*
Y510891D02*
D03*
Y532206D02*
D03*
Y553520D02*
D03*
Y574835D02*
D03*
Y596149D02*
D03*
Y468262D02*
D03*
X1975000Y638778D02*
D03*
Y724037D02*
D03*
Y702722D02*
D03*
Y681408D02*
D03*
Y660093D02*
D03*
Y617464D02*
D03*
Y446948D02*
D03*
Y489577D02*
D03*
Y510891D02*
D03*
Y532206D02*
D03*
Y553520D02*
D03*
Y574835D02*
D03*
Y596149D02*
D03*
Y468262D02*
D03*
Y127230D02*
D03*
Y255117D02*
D03*
Y233802D02*
D03*
Y212488D02*
D03*
Y191173D02*
D03*
Y169859D02*
D03*
Y148544D02*
D03*
Y105915D02*
D03*
Y84601D02*
D03*
Y276431D02*
D03*
Y319060D02*
D03*
Y340375D02*
D03*
Y361689D02*
D03*
Y383004D02*
D03*
Y404319D02*
D03*
Y425633D02*
D03*
Y297746D02*
D03*
X1955000Y127230D02*
D03*
Y255117D02*
D03*
Y233802D02*
D03*
Y212488D02*
D03*
Y191173D02*
D03*
Y169859D02*
D03*
Y148544D02*
D03*
Y105915D02*
D03*
Y84601D02*
D03*
Y276431D02*
D03*
Y319060D02*
D03*
Y340375D02*
D03*
Y361689D02*
D03*
Y383004D02*
D03*
Y404319D02*
D03*
Y425633D02*
D03*
Y297746D02*
D03*
X1935000Y127230D02*
D03*
Y255117D02*
D03*
Y233802D02*
D03*
Y212488D02*
D03*
Y191173D02*
D03*
Y169859D02*
D03*
Y148544D02*
D03*
Y105915D02*
D03*
Y84601D02*
D03*
Y276431D02*
D03*
Y319060D02*
D03*
Y340375D02*
D03*
Y361689D02*
D03*
Y383004D02*
D03*
Y404319D02*
D03*
Y425633D02*
D03*
Y297746D02*
D03*
X1915000Y127230D02*
D03*
Y255117D02*
D03*
Y233802D02*
D03*
Y212488D02*
D03*
Y191173D02*
D03*
Y169859D02*
D03*
Y148544D02*
D03*
Y105915D02*
D03*
Y84601D02*
D03*
Y276431D02*
D03*
Y319060D02*
D03*
Y340375D02*
D03*
Y361689D02*
D03*
Y383004D02*
D03*
Y404319D02*
D03*
Y425633D02*
D03*
Y297746D02*
D03*
X1595000Y312455D02*
D03*
Y291028D02*
D03*
Y269601D02*
D03*
X1620000Y292455D02*
D03*
Y335309D02*
D03*
Y313882D02*
D03*
Y271028D02*
D03*
X1725000Y232455D02*
D03*
Y360117D02*
D03*
Y339534D02*
D03*
Y296736D02*
D03*
Y275309D02*
D03*
Y253882D02*
D03*
Y211028D02*
D03*
Y189601D02*
D03*
X1705000Y232455D02*
D03*
Y339534D02*
D03*
Y296736D02*
D03*
Y275309D02*
D03*
Y253882D02*
D03*
Y211028D02*
D03*
Y189601D02*
D03*
X1685000Y232455D02*
D03*
Y339534D02*
D03*
Y296736D02*
D03*
Y275309D02*
D03*
Y253882D02*
D03*
Y211028D02*
D03*
Y189601D02*
D03*
X1665000Y232455D02*
D03*
Y339534D02*
D03*
Y296736D02*
D03*
Y275309D02*
D03*
Y253882D02*
D03*
Y211028D02*
D03*
Y189601D02*
D03*
X1645000Y232455D02*
D03*
Y360117D02*
D03*
Y339534D02*
D03*
Y318163D02*
D03*
Y296736D02*
D03*
Y275309D02*
D03*
Y253882D02*
D03*
Y211028D02*
D03*
Y189601D02*
D03*
X1145000Y230836D02*
D03*
Y209409D02*
D03*
Y187982D02*
D03*
Y166555D02*
D03*
Y145184D02*
D03*
Y252263D02*
D03*
X1125000Y230836D02*
D03*
Y209409D02*
D03*
Y187982D02*
D03*
Y166555D02*
D03*
Y145184D02*
D03*
Y252263D02*
D03*
X995000Y166555D02*
D03*
Y145184D02*
D03*
Y124601D02*
D03*
X790516Y44601D02*
D03*
X769130D02*
D03*
X726359D02*
D03*
X704973D02*
D03*
X683587D02*
D03*
X662201D02*
D03*
X640815D02*
D03*
X619429D02*
D03*
X747745D02*
D03*
X598043D02*
D03*
X576658D02*
D03*
X533886D02*
D03*
X512500D02*
D03*
X491114D02*
D03*
X469728D02*
D03*
X448342D02*
D03*
X426957D02*
D03*
X555272D02*
D03*
X234484D02*
D03*
X255870D02*
D03*
X298641D02*
D03*
X320027D02*
D03*
X341413D02*
D03*
X362799D02*
D03*
X384185D02*
D03*
X405571D02*
D03*
X277255D02*
D03*
X65000Y690117D02*
D03*
Y668802D02*
D03*
Y626173D02*
D03*
Y604859D02*
D03*
Y583544D02*
D03*
Y562230D02*
D03*
Y540915D02*
D03*
Y519601D02*
D03*
Y647488D02*
D03*
Y350117D02*
D03*
Y328802D02*
D03*
Y286173D02*
D03*
Y264859D02*
D03*
Y243544D02*
D03*
Y222230D02*
D03*
Y200915D02*
D03*
Y179601D02*
D03*
Y307488D02*
D03*
X300075Y1362263D02*
D03*
X257221D02*
D03*
X235794D02*
D03*
X214366D02*
D03*
X192939D02*
D03*
X171569D02*
D03*
X150985D02*
D03*
X278648D02*
D03*
X130000Y1340836D02*
D03*
Y1319409D02*
D03*
Y1297982D02*
D03*
Y1276555D02*
D03*
Y1255184D02*
D03*
Y1234601D02*
D03*
Y1362263D02*
D03*
X110000Y1340836D02*
D03*
Y1319409D02*
D03*
Y1297982D02*
D03*
Y1276555D02*
D03*
Y1255184D02*
D03*
Y1234601D02*
D03*
Y1362263D02*
D03*
X90000Y1340836D02*
D03*
Y1319409D02*
D03*
Y1297982D02*
D03*
Y1276555D02*
D03*
Y1255184D02*
D03*
Y1234601D02*
D03*
Y1362263D02*
D03*
X455517Y1054601D02*
D03*
X434090D02*
D03*
X391236D02*
D03*
X369809D02*
D03*
X348382D02*
D03*
X326954D02*
D03*
X305584D02*
D03*
X412663D02*
D03*
X455517Y1074601D02*
D03*
X434090D02*
D03*
X391236D02*
D03*
X369809D02*
D03*
X348382D02*
D03*
X326954D02*
D03*
X305584D02*
D03*
X412663D02*
D03*
X455517Y1094601D02*
D03*
X434090D02*
D03*
X391236D02*
D03*
X369809D02*
D03*
X348382D02*
D03*
X326954D02*
D03*
X305584D02*
D03*
X412663D02*
D03*
X455517Y1114601D02*
D03*
X434090D02*
D03*
X391236D02*
D03*
X369809D02*
D03*
X348382D02*
D03*
X326954D02*
D03*
X305584D02*
D03*
X412663D02*
D03*
Y1134601D02*
D03*
X285000D02*
D03*
X305584D02*
D03*
X326954D02*
D03*
X348382D02*
D03*
X369809D02*
D03*
X391236D02*
D03*
X434090D02*
D03*
X455517D02*
D03*
X642436Y910600D02*
D03*
X578154D02*
D03*
X663863D02*
D03*
X685290D02*
D03*
X536200D02*
D03*
X621009D02*
D03*
X599582D02*
D03*
X556784D02*
D03*
X706717D02*
D03*
Y934601D02*
D03*
X685290D02*
D03*
X642436D02*
D03*
X621009D02*
D03*
X599582D02*
D03*
X578154D02*
D03*
X556784D02*
D03*
X536200D02*
D03*
X663863D02*
D03*
X357267Y429601D02*
D03*
X378434D02*
D03*
X400634D02*
D03*
X336684D02*
D03*
X438100D02*
D03*
X294934Y404601D02*
D03*
X253767D02*
D03*
X336684D02*
D03*
X357267D02*
D03*
X400634D02*
D03*
X274350D02*
D03*
X378434D02*
D03*
X572484Y245001D02*
D03*
X593450Y264800D02*
D03*
X635200D02*
D03*
X655784D02*
D03*
X738700Y245001D02*
D03*
X718117D02*
D03*
X697534D02*
D03*
X676367D02*
D03*
X758467D02*
D03*
X614034D02*
D03*
Y309401D02*
D03*
Y225201D02*
D03*
Y205401D02*
D03*
Y264800D02*
D03*
X758467Y205401D02*
D03*
Y225201D02*
D03*
Y309401D02*
D03*
X676367Y449600D02*
D03*
X758467Y334429D02*
D03*
X233700Y245001D02*
D03*
X253867D02*
D03*
X275450D02*
D03*
X295034D02*
D03*
X316200D02*
D03*
X399117D02*
D03*
X378534D02*
D03*
X357367D02*
D03*
X336784D02*
D03*
X420284D02*
D03*
Y225201D02*
D03*
X253867D02*
D03*
X275450D02*
D03*
X295034D02*
D03*
X233700D02*
D03*
X316200D02*
D03*
X336784D02*
D03*
X378534D02*
D03*
X357367D02*
D03*
X399117D02*
D03*
X252400Y747701D02*
D03*
Y770601D02*
D03*
Y793701D02*
D03*
Y818600D02*
D03*
X275984Y726201D02*
D03*
Y747701D02*
D03*
Y770601D02*
D03*
Y793701D02*
D03*
Y818600D02*
D03*
X300150Y726201D02*
D03*
Y747701D02*
D03*
Y770601D02*
D03*
Y793701D02*
D03*
Y818600D02*
D03*
X324317Y726201D02*
D03*
Y747701D02*
D03*
Y770601D02*
D03*
Y793701D02*
D03*
Y818600D02*
D03*
X346484Y726201D02*
D03*
Y747701D02*
D03*
Y770601D02*
D03*
Y793701D02*
D03*
Y818600D02*
D03*
X367067Y726201D02*
D03*
Y747701D02*
D03*
Y770601D02*
D03*
Y793701D02*
D03*
Y818600D02*
D03*
X387650Y726201D02*
D03*
Y747701D02*
D03*
Y770601D02*
D03*
Y793701D02*
D03*
Y818600D02*
D03*
X408817Y770601D02*
D03*
Y793701D02*
D03*
Y818600D02*
D03*
X429400Y793701D02*
D03*
Y818600D02*
D03*
X449984Y793701D02*
D03*
Y818600D02*
D03*
X663863Y889258D02*
D03*
Y867915D02*
D03*
Y846572D02*
D03*
Y825229D02*
D03*
Y803886D02*
D03*
Y781201D02*
D03*
X536200Y889258D02*
D03*
Y867915D02*
D03*
Y825229D02*
D03*
Y781201D02*
D03*
Y846572D02*
D03*
Y803886D02*
D03*
X556784Y889258D02*
D03*
Y867915D02*
D03*
Y825229D02*
D03*
Y781201D02*
D03*
Y846572D02*
D03*
Y803886D02*
D03*
X578154Y889258D02*
D03*
Y867915D02*
D03*
Y825229D02*
D03*
Y781201D02*
D03*
Y846572D02*
D03*
Y803886D02*
D03*
X599582Y889258D02*
D03*
Y867915D02*
D03*
Y825229D02*
D03*
Y781201D02*
D03*
Y846572D02*
D03*
Y803886D02*
D03*
X621009Y889258D02*
D03*
Y867915D02*
D03*
Y825229D02*
D03*
Y781201D02*
D03*
Y846572D02*
D03*
Y803886D02*
D03*
X642436Y889258D02*
D03*
Y867915D02*
D03*
Y825229D02*
D03*
Y781201D02*
D03*
Y846572D02*
D03*
Y803886D02*
D03*
X685290Y889258D02*
D03*
Y867915D02*
D03*
Y825229D02*
D03*
Y781201D02*
D03*
Y846572D02*
D03*
Y803886D02*
D03*
X706717Y889258D02*
D03*
Y867915D02*
D03*
Y825229D02*
D03*
Y781201D02*
D03*
Y846572D02*
D03*
Y803886D02*
D03*
X232600Y311800D02*
D03*
Y335176D02*
D03*
Y358550D02*
D03*
Y380300D02*
D03*
X253767Y335176D02*
D03*
Y311800D02*
D03*
Y358550D02*
D03*
X274350Y311800D02*
D03*
Y335176D02*
D03*
Y380300D02*
D03*
Y358550D02*
D03*
X294934Y335176D02*
D03*
Y311800D02*
D03*
Y358550D02*
D03*
Y380300D02*
D03*
X316100Y311800D02*
D03*
Y335176D02*
D03*
Y358550D02*
D03*
X336684Y335176D02*
D03*
Y311800D02*
D03*
Y380300D02*
D03*
Y358550D02*
D03*
X357267Y335176D02*
D03*
Y311800D02*
D03*
Y358550D02*
D03*
Y380300D02*
D03*
X378434Y335176D02*
D03*
Y311800D02*
D03*
Y358550D02*
D03*
Y380300D02*
D03*
X398917Y335176D02*
D03*
Y311800D02*
D03*
X316200Y205401D02*
D03*
X399117D02*
D03*
X253867D02*
D03*
X233700D02*
D03*
X275450D02*
D03*
X420284D02*
D03*
X378534D02*
D03*
X336784D02*
D03*
X295034D02*
D03*
X357367D02*
D03*
X591700Y516651D02*
D03*
Y472901D02*
D03*
Y493467D02*
D03*
X718117Y472901D02*
D03*
Y516651D02*
D03*
Y493484D02*
D03*
X738700Y472901D02*
D03*
Y516651D02*
D03*
Y493484D02*
D03*
X758467Y516651D02*
D03*
Y493484D02*
D03*
Y472901D02*
D03*
X697534Y427572D02*
D03*
X758467D02*
D03*
X593450D02*
D03*
X718117D02*
D03*
X738700D02*
D03*
X676367D02*
D03*
X655784D02*
D03*
X635200D02*
D03*
X614034D02*
D03*
Y405543D02*
D03*
X655784D02*
D03*
X738700D02*
D03*
X635200D02*
D03*
X718117D02*
D03*
X758467D02*
D03*
X593450D02*
D03*
X697534D02*
D03*
X676367D02*
D03*
Y384515D02*
D03*
X738700D02*
D03*
X635200D02*
D03*
X718117D02*
D03*
X758467D02*
D03*
X593450D02*
D03*
X697534D02*
D03*
X614034D02*
D03*
X655784D02*
D03*
Y334429D02*
D03*
X718117D02*
D03*
X593450D02*
D03*
X738700D02*
D03*
X614034D02*
D03*
X697534D02*
D03*
X635200D02*
D03*
X676367D02*
D03*
X758467Y359458D02*
D03*
X738700D02*
D03*
X718117D02*
D03*
X697534D02*
D03*
X614034D02*
D03*
X676367D02*
D03*
X635200D02*
D03*
X655784D02*
D03*
X572484Y225201D02*
D03*
X697534D02*
D03*
X593450D02*
D03*
X655784D02*
D03*
X738700D02*
D03*
X676367D02*
D03*
X718117D02*
D03*
X635200D02*
D03*
X252400Y726201D02*
D03*
X572484Y472901D02*
D03*
Y493467D02*
D03*
Y516651D02*
D03*
X697534Y472901D02*
D03*
Y493484D02*
D03*
Y516651D02*
D03*
X676367Y472901D02*
D03*
Y493484D02*
D03*
Y516651D02*
D03*
X758467Y449600D02*
D03*
X697534D02*
D03*
X718117D02*
D03*
X738700D02*
D03*
X655784D02*
D03*
X635200D02*
D03*
X614034D02*
D03*
X593450D02*
D03*
X572484D02*
D03*
X676367Y309401D02*
D03*
X697534D02*
D03*
X718117D02*
D03*
X738700D02*
D03*
X655784D02*
D03*
X635200D02*
D03*
X593450D02*
D03*
X758467Y264800D02*
D03*
X676367D02*
D03*
X697534D02*
D03*
X718117D02*
D03*
X738700D02*
D03*
X655784Y245001D02*
D03*
X635200D02*
D03*
X593450D02*
D03*
X572484Y264800D02*
D03*
X676367Y205401D02*
D03*
X697534D02*
D03*
X718117D02*
D03*
X738700D02*
D03*
X655784D02*
D03*
X635200D02*
D03*
X593450D02*
D03*
X572484D02*
D03*
X438100Y509351D02*
D03*
Y483467D02*
D03*
X419884Y509351D02*
D03*
Y483467D02*
D03*
Y457901D02*
D03*
X233700Y264800D02*
D03*
X253867D02*
D03*
X275450D02*
D03*
X295034D02*
D03*
X315700D02*
D03*
X399117D02*
D03*
X378534D02*
D03*
X357367D02*
D03*
X336784D02*
D03*
X420284D02*
D03*
D133*
X683260Y1006711D02*
D03*
X196850Y1275951D02*
D03*
X699130Y155411D02*
D03*
X1695450Y125961D02*
D03*
X1856740Y126601D02*
D03*
X2474360Y124691D02*
D03*
X299090Y155411D02*
D03*
X2024380Y2049381D02*
D03*
X2141220Y125331D02*
D03*
X2675891Y2126851D02*
D03*
X1541230Y1756011D02*
D03*
D134*
X658260Y966711D02*
D03*
Y1046711D02*
D03*
X708260Y966711D02*
D03*
Y1046711D02*
D03*
X221850Y1315951D02*
D03*
Y1235951D02*
D03*
X171850Y1315951D02*
D03*
Y1235951D02*
D03*
X739130Y130411D02*
D03*
X659130D02*
D03*
X739130Y180411D02*
D03*
X659130D02*
D03*
X1670450Y85961D02*
D03*
Y165961D02*
D03*
X1720450Y85961D02*
D03*
Y165961D02*
D03*
X1881740Y166601D02*
D03*
Y86601D02*
D03*
X1831740Y166601D02*
D03*
Y86601D02*
D03*
X2499360Y164691D02*
D03*
Y84691D02*
D03*
X2449360Y164691D02*
D03*
Y84691D02*
D03*
X259090Y180411D02*
D03*
X339090D02*
D03*
X259090Y130411D02*
D03*
X339090D02*
D03*
X2049380Y2089381D02*
D03*
Y2009381D02*
D03*
X1999380Y2089381D02*
D03*
Y2009381D02*
D03*
X2166220Y165331D02*
D03*
Y85331D02*
D03*
X2116220Y165331D02*
D03*
Y85331D02*
D03*
X2700891Y2166851D02*
D03*
Y2086851D02*
D03*
X2650891Y2166851D02*
D03*
Y2086851D02*
D03*
X1887490Y704881D02*
D03*
X1516230Y1716011D02*
D03*
Y1796011D02*
D03*
X1566230Y1716011D02*
D03*
Y1796011D02*
D03*
X1610630Y707421D02*
D03*
X2168510Y1043481D02*
D03*
X2473690Y1509201D02*
D03*
D135*
X1439300Y89761D02*
D03*
X1460500Y140961D02*
D03*
X1481700Y89761D02*
D03*
Y132161D02*
D03*
X1430500Y110961D02*
D03*
X1490500D02*
D03*
X1439280Y132161D02*
D03*
X1460500Y80961D02*
D03*
X2686440Y1121401D02*
D03*
X2707640Y1172601D02*
D03*
X2728840Y1121401D02*
D03*
Y1163801D02*
D03*
X2677640Y1142601D02*
D03*
X2737640D02*
D03*
X2686420Y1163801D02*
D03*
X2707640Y1112601D02*
D03*
X2671200Y49040D02*
D03*
X2692401Y100240D02*
D03*
X2713600Y49040D02*
D03*
Y91441D02*
D03*
X2662401Y70241D02*
D03*
X2722401D02*
D03*
X2671180Y91441D02*
D03*
X2692401Y40241D02*
D03*
X1138300Y1030801D02*
D03*
X1159500Y1082001D02*
D03*
X1180700Y1030801D02*
D03*
Y1073201D02*
D03*
X1129500Y1052001D02*
D03*
X1189500D02*
D03*
X1138280Y1073201D02*
D03*
X1159500Y1022001D02*
D03*
X75320Y49040D02*
D03*
X96520Y100240D02*
D03*
X117720Y49040D02*
D03*
Y91441D02*
D03*
X66520Y70241D02*
D03*
X126520D02*
D03*
X75300Y91441D02*
D03*
X96520Y40241D02*
D03*
D136*
X1460500Y110961D02*
D03*
D137*
X2131530Y2305921D02*
D03*
X2156930D02*
D03*
Y2280521D02*
D03*
X2182330Y2305921D02*
D03*
Y2280521D02*
D03*
X2207730Y2305921D02*
D03*
Y2280521D02*
D03*
X2233130Y2305921D02*
D03*
X2258930D02*
D03*
Y2280521D02*
D03*
X2284330Y2305921D02*
D03*
Y2280521D02*
D03*
X2309730D02*
D03*
X2335130D02*
D03*
X2309730Y2305921D02*
D03*
X2335130D02*
D03*
X2233130Y2280521D02*
D03*
X2360930Y2305921D02*
D03*
Y2280521D02*
D03*
X2386330Y2305921D02*
D03*
Y2280521D02*
D03*
X2411730Y2305921D02*
D03*
Y2280521D02*
D03*
X2437130Y2305921D02*
D03*
X2462930D02*
D03*
Y2280521D02*
D03*
X2488330Y2305921D02*
D03*
Y2280521D02*
D03*
X2437130D02*
D03*
D138*
X2131530D02*
D03*
D139*
X2265390Y1631551D02*
D03*
X2485390D02*
D03*
X2270290Y783181D02*
D03*
X2370290D02*
D03*
X2190290Y543181D02*
D03*
X2450290D02*
D03*
X632110Y497441D02*
D03*
X372110D02*
D03*
X552110Y737441D02*
D03*
X452110D02*
D03*
D140*
X2425390Y1951551D02*
D03*
X2325390D02*
D03*
D141*
X2707640Y1142601D02*
D03*
X2692401Y70241D02*
D03*
X1159500Y1052001D02*
D03*
X96520Y70241D02*
D03*
D142*
X2631440Y1043541D02*
D03*
X2543810Y226931D02*
D03*
X2717710Y967341D02*
D03*
X2660650Y686671D02*
D03*
D143*
X2716440Y1043541D02*
D03*
X2628810Y226931D02*
D03*
X1299360Y1442471D02*
D03*
X1324610Y1442471D02*
D03*
X1375110D02*
D03*
X1274110D02*
D03*
X1375110Y1492971D02*
D03*
X1324610D02*
D03*
X1299360D02*
D03*
X1274110D02*
D03*
X1487170Y182571D02*
D03*
X1426210Y267571D02*
D03*
X1551940Y182571D02*
D03*
X1361440Y267571D02*
D03*
X2632710Y967341D02*
D03*
X2745650Y686671D02*
D03*
X1109000Y1642901D02*
D03*
X1084800Y1233501D02*
D03*
X1405200Y1219301D02*
D03*
X1363700Y1403201D02*
D03*
X1556500Y2137701D02*
D03*
Y2156040D02*
D03*
Y2174380D02*
D03*
Y2192720D02*
D03*
Y2211060D02*
D03*
Y2229400D02*
D03*
X1880870Y440290D02*
D03*
X1854200D02*
D03*
D144*
X1887490Y980881D02*
D03*
X1610630Y983421D02*
D03*
X2168510Y1319481D02*
D03*
X2473690Y1233201D02*
D03*
D145*
X1767490Y952881D02*
D03*
Y732881D02*
D03*
X354330Y1852461D02*
D03*
X127051Y704147D02*
D03*
X1490630Y735421D02*
D03*
Y955421D02*
D03*
X441680Y1819220D02*
D03*
X741680Y2039221D02*
D03*
X591680D02*
D03*
X541680D02*
D03*
X491680D02*
D03*
X441680D02*
D03*
X741680Y1819220D02*
D03*
X691680D02*
D03*
X641680D02*
D03*
X541680D02*
D03*
X491680D02*
D03*
X2048510Y1291481D02*
D03*
Y1071481D02*
D03*
X2593690Y1261201D02*
D03*
Y1481201D02*
D03*
X1052690Y1738761D02*
D03*
X1152690D02*
D03*
X1102690D02*
D03*
X1202690D02*
D03*
X1252690D02*
D03*
X1352690D02*
D03*
X1052690Y1963761D02*
D03*
X1102690D02*
D03*
X1352690D02*
D03*
X1252690D02*
D03*
X1202690D02*
D03*
X1302690D02*
D03*
Y1738761D02*
D03*
X226130Y472041D02*
D03*
Y400921D02*
D03*
X64770Y738671D02*
D03*
X1507490Y814940D02*
D03*
X2140380Y1221341D02*
D03*
D146*
X2636520Y491091D02*
D03*
X2657520Y591091D02*
D03*
X2642070Y290091D02*
D03*
X2542070Y311091D02*
D03*
X545300Y158011D02*
D03*
X445300Y179011D02*
D03*
X2355850Y146921D02*
D03*
X2255850Y167921D02*
D03*
D147*
X2450170Y310751D02*
D03*
X2175171D02*
D03*
D148*
X1722140Y530050D02*
D03*
Y320051D02*
D03*
X1696740Y530050D02*
D03*
X1671340D02*
D03*
X1696740Y320051D02*
D03*
X1671340D02*
D03*
X378441Y1369520D02*
D03*
X353041D02*
D03*
X378441Y1159521D02*
D03*
X353041D02*
D03*
X327641Y1369520D02*
D03*
Y1159521D02*
D03*
D149*
X1163320Y52270D02*
D03*
Y127271D02*
D03*
X1101090Y53540D02*
D03*
Y128541D02*
D03*
X1099892Y271381D02*
D03*
X1024890D02*
D03*
X1323729Y2105261D02*
D03*
X1247140Y2185271D02*
D03*
X556260Y2145019D02*
D03*
Y2195019D02*
D03*
X397510D02*
D03*
Y2145019D02*
D03*
X1039501Y1664301D02*
D03*
X964500D02*
D03*
X1027430Y128541D02*
D03*
Y53540D02*
D03*
X963930Y128541D02*
D03*
Y53540D02*
D03*
X1268421Y1614135D02*
D03*
Y1639535D02*
D03*
Y1664935D02*
D03*
X1192221D02*
D03*
Y1614135D02*
D03*
Y1588735D02*
D03*
X2239941Y1095611D02*
D03*
X2514940D02*
D03*
D150*
X1035050Y425051D02*
D03*
X1009650D02*
D03*
X984250D02*
D03*
X1176020Y426321D02*
D03*
X1150620D02*
D03*
X1125220D02*
D03*
X1071969Y745091D02*
D03*
X1327290Y1659491D02*
D03*
X1064260Y2156061D02*
D03*
X468630Y1570591D02*
D03*
X1098550Y190101D02*
D03*
X1073150D02*
D03*
X1047750D02*
D03*
D151*
X958850Y425051D02*
D03*
X1099820Y426321D02*
D03*
X1097369Y745091D02*
D03*
X1352690Y1659491D02*
D03*
X1089660Y2156061D02*
D03*
X443230Y1570591D02*
D03*
X1022350Y190101D02*
D03*
D152*
X1071969Y663805D02*
D03*
X769709Y1649325D02*
D03*
X516609Y1556595D02*
D03*
X1649131Y2082406D02*
D03*
Y1994782D02*
D03*
D153*
X1106971Y663805D02*
D03*
X804710Y1649325D02*
D03*
X551610Y1556595D02*
D03*
X1614130Y2082406D02*
D03*
Y1994782D02*
D03*
D154*
X1577108Y1590601D02*
D03*
X1120933Y1455021D02*
D03*
X1537008Y1389001D02*
D03*
D155*
X1552108Y1590601D02*
D03*
X1145933Y1455021D02*
D03*
X1512008Y1389001D02*
D03*
D156*
X1002030Y1607421D02*
D03*
Y1332420D02*
D03*
D157*
X1373729Y2105261D02*
D03*
X1197141Y2185271D02*
D03*
D158*
X678000Y2208001D02*
D03*
D159*
Y2157201D02*
D03*
X601451Y287889D02*
D03*
X376450D02*
D03*
X2585891Y378061D02*
D03*
X2765891D02*
D03*
X223981Y1044811D02*
D03*
X598980D02*
D03*
D160*
X731553Y2182035D02*
D03*
D161*
X354330Y2002461D02*
D03*
X64770Y888671D02*
D03*
D162*
X223470Y819054D02*
D03*
D163*
X1487170Y267571D02*
D03*
X1426210Y182571D02*
D03*
X1551940Y267571D02*
D03*
X1361440Y182571D02*
D03*
D164*
X76130Y472041D02*
D03*
Y400921D02*
D03*
D165*
X1268421Y1588735D02*
D03*
D166*
X2445000Y1945601D02*
D03*
X2446000Y1956601D02*
D03*
X2406000Y1961600D02*
D03*
X2249000Y1649601D02*
D03*
X2243000Y1641601D02*
D03*
X2241000Y1631601D02*
D03*
X2243000Y1622601D02*
D03*
X2248000Y1614601D02*
D03*
X2256000Y1609601D02*
D03*
X2266000Y1607601D02*
D03*
X2276000Y1610601D02*
D03*
X2284000Y1616601D02*
D03*
X2288000Y1625601D02*
D03*
Y1635601D02*
D03*
X2284000Y1644601D02*
D03*
X2277000Y1651601D02*
D03*
X2268000Y1654601D02*
D03*
X2258000Y1653601D02*
D03*
X2470000Y1649601D02*
D03*
X2464000Y1641601D02*
D03*
X2462000Y1631601D02*
D03*
X2464000Y1622601D02*
D03*
X2469000Y1614601D02*
D03*
X2477000Y1609601D02*
D03*
X2487000Y1607601D02*
D03*
X2497000Y1610601D02*
D03*
X2505000Y1616601D02*
D03*
X2509000Y1625601D02*
D03*
Y1635601D02*
D03*
X2505000Y1644601D02*
D03*
X2498000Y1651601D02*
D03*
X2489000Y1654601D02*
D03*
X2479000Y1653601D02*
D03*
X2410000Y1970601D02*
D03*
X2404000Y1943601D02*
D03*
X2409000Y1935600D02*
D03*
X2417000Y1930601D02*
D03*
X2427000Y1928601D02*
D03*
X2437000Y1931601D02*
D03*
X2445000Y1937601D02*
D03*
Y1965601D02*
D03*
X2438000Y1972601D02*
D03*
X2429000Y1975601D02*
D03*
X2419000Y1974601D02*
D03*
X2309000Y1970601D02*
D03*
X2308000Y1935600D02*
D03*
X2316000Y1930601D02*
D03*
X2326000Y1928601D02*
D03*
X2336000Y1931601D02*
D03*
X2344000Y1937601D02*
D03*
Y1965601D02*
D03*
X2337000Y1972601D02*
D03*
X2328000Y1975601D02*
D03*
X2318000Y1974601D02*
D03*
X536000Y755601D02*
D03*
X530000Y747601D02*
D03*
X528000Y737601D02*
D03*
X530000Y728600D02*
D03*
X535000Y720601D02*
D03*
X543000Y715601D02*
D03*
X553000Y713601D02*
D03*
X563000Y716600D02*
D03*
X571000Y722601D02*
D03*
X575000Y731600D02*
D03*
Y741600D02*
D03*
X571000Y750601D02*
D03*
X564000Y757600D02*
D03*
X555000Y760601D02*
D03*
X545000Y759601D02*
D03*
X436000Y755601D02*
D03*
X430000Y747601D02*
D03*
X428000Y737601D02*
D03*
X430000Y728600D02*
D03*
X435000Y720601D02*
D03*
X443000Y715601D02*
D03*
X453000Y713601D02*
D03*
X463000Y716600D02*
D03*
X471000Y722601D02*
D03*
X475000Y731600D02*
D03*
Y741600D02*
D03*
X471000Y750601D02*
D03*
X464000Y757600D02*
D03*
X455000Y760601D02*
D03*
X445000Y759601D02*
D03*
X357000Y515601D02*
D03*
X351000Y507601D02*
D03*
X349000Y497601D02*
D03*
X351000Y488601D02*
D03*
X356000Y480601D02*
D03*
X364000Y475601D02*
D03*
X374000Y473601D02*
D03*
X384000Y476600D02*
D03*
X392000Y482601D02*
D03*
X396000Y491600D02*
D03*
Y501600D02*
D03*
X392000Y510601D02*
D03*
X385000Y517601D02*
D03*
X376000Y520601D02*
D03*
X366000Y519601D02*
D03*
X616000Y515601D02*
D03*
X610000Y507601D02*
D03*
X608000Y497601D02*
D03*
X610000Y488601D02*
D03*
X615000Y480601D02*
D03*
X623000Y475601D02*
D03*
X633000Y473601D02*
D03*
X643000Y476600D02*
D03*
X651000Y482601D02*
D03*
X655000Y491600D02*
D03*
Y501600D02*
D03*
X651000Y510601D02*
D03*
X644000Y517601D02*
D03*
X635000Y520601D02*
D03*
X625000Y519601D02*
D03*
X2354000Y800601D02*
D03*
X2348000Y792601D02*
D03*
X2346000Y782601D02*
D03*
X2348000Y773601D02*
D03*
X2353000Y765601D02*
D03*
X2361000Y760601D02*
D03*
X2371000Y758601D02*
D03*
X2381000Y761601D02*
D03*
X2389000Y767601D02*
D03*
X2393000Y776601D02*
D03*
Y786601D02*
D03*
X2389000Y795601D02*
D03*
X2382000Y802601D02*
D03*
X2373000Y805601D02*
D03*
X2363000Y804601D02*
D03*
X2254000Y801601D02*
D03*
X2248000Y793601D02*
D03*
X2246000Y783601D02*
D03*
X2248000Y774601D02*
D03*
X2253000Y766600D02*
D03*
X2261000Y761601D02*
D03*
X2271000Y759601D02*
D03*
X2281000Y762601D02*
D03*
X2289000Y768601D02*
D03*
X2293000Y777601D02*
D03*
Y787601D02*
D03*
X2289000Y796601D02*
D03*
X2282000Y803601D02*
D03*
X2273000Y806601D02*
D03*
X2263000Y805601D02*
D03*
X2434000Y561601D02*
D03*
X2428000Y553601D02*
D03*
X2426000Y543601D02*
D03*
X2428000Y534601D02*
D03*
X2433000Y526600D02*
D03*
X2441000Y521601D02*
D03*
X2451000Y519601D02*
D03*
X2461000Y522601D02*
D03*
X2469000Y528601D02*
D03*
X2473000Y537601D02*
D03*
Y547601D02*
D03*
X2469000Y556601D02*
D03*
X2462000Y563601D02*
D03*
X2453000Y566601D02*
D03*
X2443000Y565601D02*
D03*
X2181000Y521601D02*
D03*
X2191000Y519601D02*
D03*
X2201000Y522601D02*
D03*
X2209000Y528601D02*
D03*
X2213000Y537601D02*
D03*
Y547601D02*
D03*
X2209000Y556601D02*
D03*
X2202000Y563601D02*
D03*
X2193000Y566601D02*
D03*
X2183000Y565601D02*
D03*
X1670190Y2257111D02*
D03*
X1841700Y2285701D02*
D03*
X2056700Y2307901D02*
D03*
X2091600Y2275201D02*
D03*
X1559500Y1290701D02*
D03*
X999700Y584801D02*
D03*
X967740Y585071D02*
D03*
X1485500Y1353901D02*
D03*
X1596000Y1517801D02*
D03*
X1452500Y1202601D02*
D03*
X495400Y1414400D02*
D03*
X582900Y1391601D02*
D03*
X339090Y1613511D02*
D03*
X1485500Y1245057D02*
D03*
Y1288857D02*
D03*
Y1310715D02*
D03*
Y1332357D02*
D03*
X1378900Y1332501D02*
D03*
X1436800Y1422701D02*
D03*
D167*
X1666600Y2237401D02*
D03*
X781200Y1199100D02*
D03*
X780600Y1210701D02*
D03*
X780500Y1186801D02*
D03*
X732300Y1209701D02*
D03*
X58600Y2295501D02*
D03*
X42200Y2279701D02*
D03*
X73400Y2311101D02*
D03*
X1486838Y1416301D02*
D03*
X1041000Y1890501D02*
D03*
X1053900D02*
D03*
Y1901601D02*
D03*
X1041000D02*
D03*
X300600Y1678701D02*
D03*
X267310Y1659511D02*
D03*
X336600Y1653501D02*
D03*
X279300Y1736901D02*
D03*
D168*
X1333330Y2215751D02*
D03*
X1559730Y2045571D02*
D03*
D169*
X1407330Y2192901D02*
D03*
X1407330Y2238601D02*
D03*
X1485730Y2068421D02*
D03*
X1485730Y2022721D02*
D03*
D170*
X1681490Y440290D02*
D03*
X1714490D02*
D03*
X1767830D02*
D03*
X1734830D02*
D03*
X2406660Y1129901D02*
D03*
X2439660D02*
D03*
X2463810D02*
D03*
X2496810D02*
D03*
X2350780D02*
D03*
X2383780D02*
D03*
X1822380Y440290D02*
D03*
X1789380D02*
D03*
X2327900Y1129901D02*
D03*
X2294900D02*
D03*
D171*
X1173480Y2055101D02*
D03*
Y2086101D02*
D03*
X928370Y2078331D02*
D03*
Y2109331D02*
D03*
X469900Y2191119D02*
D03*
Y2160119D02*
D03*
D172*
X831100Y2182701D02*
D03*
X802100D02*
D03*
X1192000Y1512171D02*
D03*
X1221000D02*
D03*
X1192000Y1551541D02*
D03*
X1221000D02*
D03*
X802200Y2220951D02*
D03*
X831200D02*
D03*
X549380Y361551D02*
D03*
X578380D02*
D03*
X532660Y361550D02*
D03*
X503660D02*
D03*
X456670Y361551D02*
D03*
X485670D02*
D03*
X438680Y361550D02*
D03*
X409680D02*
D03*
X947090Y1788921D02*
D03*
X976090D02*
D03*
X898700Y1751901D02*
D03*
X927700D02*
D03*
Y1790601D02*
D03*
X898700D02*
D03*
Y1828101D02*
D03*
X927700D02*
D03*
X975560Y1828290D02*
D03*
X946560D02*
D03*
X927700Y1867700D02*
D03*
X898700D02*
D03*
D173*
X440691Y1749131D02*
D03*
Y1778131D02*
D03*
D174*
X1428750Y1794261D02*
D03*
D175*
X1454150Y1705060D02*
D03*
X1428750D02*
D03*
X1454150Y1794261D02*
D03*
D176*
X1453392Y1884141D02*
D03*
Y1896841D02*
D03*
Y1909541D02*
D03*
Y1922241D02*
D03*
X1502668D02*
D03*
Y1909541D02*
D03*
Y1896841D02*
D03*
Y1884141D02*
D03*
D177*
X1226820Y2134641D02*
D03*
X980440Y2166391D02*
D03*
D178*
X1203970Y2060641D02*
D03*
X1249670Y2060641D02*
D03*
X957590Y2092391D02*
D03*
X1003290Y2092391D02*
D03*
D179*
X1107530Y1540111D02*
D03*
X1150530Y1540110D02*
D03*
X1301840Y2013821D02*
D03*
X1344840Y2013820D02*
D03*
D180*
X1509420Y454260D02*
D03*
X1528420D02*
D03*
X1509420Y431450D02*
D03*
X1528420D02*
D03*
M02*
