G04*
G04 #@! TF.GenerationSoftware,Altium Limited,Altium Designer,25.3.3 (18)*
G04*
G04 Layer_Color=128*
%FSLAX44Y44*%
%MOMM*%
G71*
G04*
G04 #@! TF.SameCoordinates,95261EA5-16E4-4C31-8C51-D7BA18121D47*
G04*
G04*
G04 #@! TF.FilePolarity,Positive*
G04*
G01*
G75*
%ADD19C,0.1270*%
D19*
X2814500Y26700D02*
X2855500D01*
X2835000Y6200D02*
Y47200D01*
X2816232Y2328388D02*
X2857232D01*
X2836732Y2307888D02*
Y2348888D01*
X-56200Y36700D02*
X-15200D01*
X-35700Y16200D02*
Y57200D01*
X-56285Y2338388D02*
X-15285D01*
X-35785Y2317888D02*
Y2358888D01*
X668260Y1006711D02*
X698260D01*
X683260Y991711D02*
Y1021711D01*
X653260Y966711D02*
X663260D01*
X658260Y961711D02*
Y971711D01*
X653260Y1046711D02*
X663260D01*
X658260Y1041711D02*
Y1051711D01*
X703260Y966711D02*
X713260D01*
X708260Y961711D02*
Y971711D01*
X703260Y1046711D02*
X713260D01*
X708260Y1041711D02*
Y1051711D01*
X181850Y1275951D02*
X211850D01*
X196850Y1260951D02*
Y1290951D01*
X216850Y1315951D02*
X226850D01*
X221850Y1310951D02*
Y1320950D01*
X216850Y1235951D02*
X226850D01*
X221850Y1230951D02*
Y1240951D01*
X166850Y1315951D02*
X176850D01*
X171850Y1310951D02*
Y1320950D01*
X166850Y1235951D02*
X176850D01*
X171850Y1230951D02*
Y1240951D01*
X684130Y155411D02*
X714130D01*
X699130Y140411D02*
Y170411D01*
X734130Y130411D02*
X744130D01*
X739130Y125411D02*
Y135410D01*
X654130Y130411D02*
X664130D01*
X659130Y125411D02*
Y135410D01*
X734130Y180411D02*
X744130D01*
X739130Y175411D02*
Y185411D01*
X654130Y180411D02*
X664130D01*
X659130Y175411D02*
Y185411D01*
X1435300Y89761D02*
X1443300D01*
X1439300Y85761D02*
Y93760D01*
X1456500Y140961D02*
X1464500D01*
X1460500Y136961D02*
Y144960D01*
X1477700Y89761D02*
X1485700D01*
X1481700Y85761D02*
Y93760D01*
X1477700Y132161D02*
X1485700D01*
X1481700Y128161D02*
Y136161D01*
X1426500Y110961D02*
X1434500D01*
X1430500Y106961D02*
Y114961D01*
X1486500Y110961D02*
X1494500D01*
X1490500Y106961D02*
Y114961D01*
X1435280Y132161D02*
X1443280D01*
X1439280Y128161D02*
Y136161D01*
X1456500Y80961D02*
X1464500D01*
X1460500Y76961D02*
Y84961D01*
X1443000Y110961D02*
X1478000D01*
X1460500Y93461D02*
Y128461D01*
X1680450Y125961D02*
X1710450D01*
X1695450Y110961D02*
Y140961D01*
X1665450Y85961D02*
X1675450D01*
X1670450Y80961D02*
Y90961D01*
X1665450Y165961D02*
X1675450D01*
X1670450Y160961D02*
Y170961D01*
X1715450Y85961D02*
X1725450D01*
X1720450Y80961D02*
Y90961D01*
X1715450Y165961D02*
X1725450D01*
X1720450Y160961D02*
Y170961D01*
X1841740Y126601D02*
X1871740D01*
X1856740Y111601D02*
Y141601D01*
X1876740Y166601D02*
X1886740D01*
X1881740Y161601D02*
Y171600D01*
X1876740Y86601D02*
X1886740D01*
X1881740Y81601D02*
Y91601D01*
X1826740Y166601D02*
X1836740D01*
X1831740Y161601D02*
Y171600D01*
X1826740Y86601D02*
X1836740D01*
X1831740Y81601D02*
Y91601D01*
X2494360Y164691D02*
X2504360D01*
X2499360Y159691D02*
Y169690D01*
X2494360Y84691D02*
X2504360D01*
X2499360Y79691D02*
Y89691D01*
X2444360Y164691D02*
X2454360D01*
X2449360Y159691D02*
Y169690D01*
X2444360Y84691D02*
X2454360D01*
X2449360Y79691D02*
Y89691D01*
X2459360Y124691D02*
X2489360D01*
X2474360Y109691D02*
Y139691D01*
X254090Y180411D02*
X264090D01*
X259090Y175411D02*
Y185411D01*
X334090Y180411D02*
X344090D01*
X339090Y175411D02*
Y185411D01*
X254090Y130411D02*
X264090D01*
X259090Y125411D02*
Y135410D01*
X334090Y130411D02*
X344090D01*
X339090Y125411D02*
Y135410D01*
X284090Y155411D02*
X314090D01*
X299090Y140411D02*
Y170411D01*
X2044380Y2089381D02*
X2054380D01*
X2049380Y2084381D02*
Y2094380D01*
X2044380Y2009381D02*
X2054380D01*
X2049380Y2004381D02*
Y2014381D01*
X1994380Y2089381D02*
X2004380D01*
X1999380Y2084381D02*
Y2094380D01*
X1994380Y2009381D02*
X2004380D01*
X1999380Y2004381D02*
Y2014381D01*
X2009380Y2049381D02*
X2039380D01*
X2024380Y2034381D02*
Y2064381D01*
X2126220Y125331D02*
X2156220D01*
X2141220Y110331D02*
Y140331D01*
X2161220Y165331D02*
X2171220D01*
X2166220Y160331D02*
Y170331D01*
X2161220Y85331D02*
X2171220D01*
X2166220Y80331D02*
Y90331D01*
X2111220Y165331D02*
X2121220D01*
X2116220Y160331D02*
Y170331D01*
X2111220Y85331D02*
X2121220D01*
X2116220Y80331D02*
Y90331D01*
X2695891Y2166851D02*
X2705891D01*
X2700891Y2161851D02*
Y2171850D01*
X2695891Y2086851D02*
X2705891D01*
X2700891Y2081851D02*
Y2091851D01*
X2645891Y2166851D02*
X2655891D01*
X2650891Y2161851D02*
Y2171850D01*
X2645891Y2086851D02*
X2655891D01*
X2650891Y2081851D02*
Y2091851D01*
X2660891Y2126851D02*
X2690891D01*
X2675891Y2111851D02*
Y2141851D01*
X2126180Y2305921D02*
X2136880D01*
X2131530Y2300571D02*
Y2311271D01*
X2126180Y2280521D02*
X2136880D01*
X2131530Y2275171D02*
Y2285871D01*
X2151580Y2305921D02*
X2162280D01*
X2156930Y2300571D02*
Y2311271D01*
X2151580Y2280521D02*
X2162280D01*
X2156930Y2275171D02*
Y2285871D01*
X2176980Y2305921D02*
X2187680D01*
X2182330Y2300571D02*
Y2311271D01*
X2176980Y2280521D02*
X2187680D01*
X2182330Y2275171D02*
Y2285871D01*
X2202380Y2305921D02*
X2213080D01*
X2207730Y2300571D02*
Y2311271D01*
X2202380Y2280521D02*
X2213080D01*
X2207730Y2275171D02*
Y2285871D01*
X2227780Y2305921D02*
X2238480D01*
X2233130Y2300571D02*
Y2311271D01*
X2253580Y2305921D02*
X2264280D01*
X2258930Y2300571D02*
Y2311271D01*
X2253580Y2280521D02*
X2264280D01*
X2258930Y2275171D02*
Y2285871D01*
X2278980Y2305921D02*
X2289680D01*
X2284330Y2300571D02*
Y2311271D01*
X2278980Y2280521D02*
X2289680D01*
X2284330Y2275171D02*
Y2285871D01*
X2304380Y2280521D02*
X2315080D01*
X2309730Y2275171D02*
Y2285871D01*
X2329780Y2280521D02*
X2340480D01*
X2335130Y2275171D02*
Y2285871D01*
X2304380Y2305921D02*
X2315080D01*
X2309730Y2300571D02*
Y2311271D01*
X2329780Y2305921D02*
X2340480D01*
X2335130Y2300571D02*
Y2311271D01*
X2227780Y2280521D02*
X2238480D01*
X2233130Y2275171D02*
Y2285871D01*
X2355580Y2305921D02*
X2366280D01*
X2360930Y2300571D02*
Y2311271D01*
X2355580Y2280521D02*
X2366280D01*
X2360930Y2275171D02*
Y2285871D01*
X2380980Y2305921D02*
X2391680D01*
X2386330Y2300571D02*
Y2311271D01*
X2380980Y2280521D02*
X2391680D01*
X2386330Y2275171D02*
Y2285871D01*
X2406380Y2305921D02*
X2417080D01*
X2411730Y2300571D02*
Y2311271D01*
X2406380Y2280521D02*
X2417080D01*
X2411730Y2275171D02*
Y2285871D01*
X2431780Y2305921D02*
X2442480D01*
X2437130Y2300571D02*
Y2311271D01*
X2457580Y2305921D02*
X2468280D01*
X2462930Y2300571D02*
Y2311271D01*
X2457580Y2280521D02*
X2468280D01*
X2462930Y2275171D02*
Y2285871D01*
X2482980Y2305921D02*
X2493680D01*
X2488330Y2300571D02*
Y2311271D01*
X2482980Y2280521D02*
X2493680D01*
X2488330Y2275171D02*
Y2285871D01*
X2431780Y2280521D02*
X2442480D01*
X2437130Y2275171D02*
Y2285871D01*
X2250390Y1631551D02*
X2280390D01*
X2265390Y1616551D02*
Y1646551D01*
X2470390Y1631551D02*
X2500390D01*
X2485390Y1616551D02*
Y1646551D01*
X2410390Y1951551D02*
X2440390D01*
X2425390Y1936551D02*
Y1966550D01*
X2310390Y1951551D02*
X2340390D01*
X2325390Y1936551D02*
Y1966550D01*
X2682440Y1121401D02*
X2690440D01*
X2686440Y1117401D02*
Y1125400D01*
X2703640Y1172601D02*
X2711640D01*
X2707640Y1168601D02*
Y1176600D01*
X2724840Y1121401D02*
X2732840D01*
X2728840Y1117401D02*
Y1125400D01*
X2724840Y1163801D02*
X2732840D01*
X2728840Y1159801D02*
Y1167801D01*
X2673640Y1142601D02*
X2681640D01*
X2677640Y1138601D02*
Y1146601D01*
X2733640Y1142601D02*
X2741640D01*
X2737640Y1138601D02*
Y1146601D01*
X2682420Y1163801D02*
X2690421D01*
X2686420Y1159801D02*
Y1167801D01*
X2703640Y1112601D02*
X2711640D01*
X2707640Y1108601D02*
Y1116601D01*
X2690140Y1142601D02*
X2725140D01*
X2707640Y1125101D02*
Y1160101D01*
X2627440Y1043541D02*
X2635440D01*
X2631440Y1039541D02*
Y1047541D01*
X2712440Y1043541D02*
X2720440D01*
X2716440Y1039541D02*
Y1047541D01*
X1881490Y980881D02*
X1893490D01*
X1887490Y974881D02*
Y986881D01*
X1762490Y952881D02*
X1772490D01*
X1767490Y947881D02*
Y957881D01*
X1762490Y732881D02*
X1772490D01*
X1767490Y727881D02*
Y737880D01*
X1881490Y704881D02*
X1893490D01*
X1887490Y698881D02*
Y710881D01*
X2255290Y783181D02*
X2285290D01*
X2270290Y768181D02*
Y798180D01*
X2355290Y783181D02*
X2385290D01*
X2370290Y768181D02*
Y798180D01*
X2175290Y543181D02*
X2205290D01*
X2190290Y528181D02*
Y558181D01*
X2435290Y543181D02*
X2465290D01*
X2450290Y528181D02*
Y558181D01*
X2630270Y491091D02*
X2642770D01*
X2636520Y484841D02*
Y497341D01*
X2651270Y591091D02*
X2663770D01*
X2657520Y584841D02*
Y597341D01*
X2635820Y290091D02*
X2648320D01*
X2642070Y283841D02*
Y296341D01*
X2535820Y311091D02*
X2548320D01*
X2542070Y304841D02*
Y317341D01*
X2539810Y226931D02*
X2547810D01*
X2543810Y222931D02*
Y230931D01*
X2624810Y226931D02*
X2632810D01*
X2628810Y222931D02*
Y230931D01*
X2444170Y310751D02*
X2456170D01*
X2450170Y304751D02*
Y316751D01*
X2169171Y310751D02*
X2181171D01*
X2175171Y304751D02*
Y316751D01*
X2667200Y49040D02*
X2675201D01*
X2671200Y45040D02*
Y53040D01*
X2688400Y100240D02*
X2696400D01*
X2692401Y96241D02*
Y104241D01*
X2709601Y49040D02*
X2717600D01*
X2713600Y45040D02*
Y53040D01*
X2709601Y91441D02*
X2717600D01*
X2713600Y87441D02*
Y95441D01*
X2658400Y70241D02*
X2666400D01*
X2662401Y66241D02*
Y74240D01*
X2718400Y70241D02*
X2726400D01*
X2722401Y66241D02*
Y74240D01*
X2667180Y91441D02*
X2675180D01*
X2671180Y87441D02*
Y95441D01*
X2688400Y40241D02*
X2696400D01*
X2692401Y36241D02*
Y44241D01*
X2674901Y70241D02*
X2709901D01*
X2692401Y52741D02*
Y87740D01*
X1588641Y444150D02*
X1598641D01*
X1593641Y439150D02*
Y449150D01*
X1715639Y530050D02*
X1728640D01*
X1722140Y523550D02*
Y536550D01*
X1715639Y320051D02*
X1728640D01*
X1722140Y313551D02*
Y326551D01*
X1690240Y530050D02*
X1703240D01*
X1696740Y523550D02*
Y536550D01*
X1664839Y530050D02*
X1677840D01*
X1671340Y523550D02*
Y536550D01*
X1690240Y320051D02*
X1703240D01*
X1696740Y313551D02*
Y326551D01*
X1664839Y320051D02*
X1677840D01*
X1671340Y313551D02*
Y326551D01*
X1566645Y431450D02*
X1576645D01*
X1571645Y426450D02*
Y436450D01*
X1588641Y418750D02*
X1598641D01*
X1593641Y413750D02*
Y423750D01*
X1566645Y406050D02*
X1576645D01*
X1571645Y401050D02*
Y411050D01*
X1157320Y52270D02*
X1169320D01*
X1163320Y46270D02*
Y58270D01*
X1157320Y127271D02*
X1169320D01*
X1163320Y121271D02*
Y133271D01*
X1095090Y53540D02*
X1107090D01*
X1101090Y47540D02*
Y59540D01*
X1095090Y128541D02*
X1107090D01*
X1101090Y122541D02*
Y134541D01*
X1093892Y271381D02*
X1105891D01*
X1099892Y265381D02*
Y277381D01*
X1018890Y271381D02*
X1030890D01*
X1024890Y265381D02*
Y277381D01*
X1030732Y425051D02*
X1039368D01*
X1035050Y420733D02*
Y429369D01*
X1005332Y425051D02*
X1013968D01*
X1009650Y420733D02*
Y429369D01*
X979932Y425051D02*
X988568D01*
X984250Y420733D02*
Y429369D01*
X954532Y425051D02*
X963168D01*
X958850Y420733D02*
Y429369D01*
X1171702Y426321D02*
X1180338D01*
X1176020Y422003D02*
Y430639D01*
X1146302Y426321D02*
X1154938D01*
X1150620Y422003D02*
Y430639D01*
X1120902Y426321D02*
X1129538D01*
X1125220Y422003D02*
Y430639D01*
X1095502Y426321D02*
X1104138D01*
X1099820Y422003D02*
Y430639D01*
X1066969Y663805D02*
X1076969D01*
X1071969Y658805D02*
Y668805D01*
X1101971Y663805D02*
X1111971D01*
X1106971Y658805D02*
Y668805D01*
X1067651Y745091D02*
X1076287D01*
X1071969Y740773D02*
Y749409D01*
X1093051Y745091D02*
X1101687D01*
X1097369Y740773D02*
Y749409D01*
X1511230Y1716011D02*
X1521230D01*
X1516230Y1711011D02*
Y1721011D01*
X1511230Y1796011D02*
X1521230D01*
X1516230Y1791011D02*
Y1801010D01*
X1561230Y1716011D02*
X1571230D01*
X1566230Y1711011D02*
Y1721011D01*
X1561230Y1796011D02*
X1571230D01*
X1566230Y1791011D02*
Y1801010D01*
X1526230Y1756011D02*
X1556230D01*
X1541230Y1741011D02*
Y1771011D01*
X1322972Y1659491D02*
X1331608D01*
X1327290Y1655173D02*
Y1663809D01*
X1348372Y1659491D02*
X1357008D01*
X1352690Y1655173D02*
Y1663809D01*
X1571608Y1590601D02*
X1582608D01*
X1577108Y1585100D02*
Y1596101D01*
X1546607Y1590601D02*
X1557608D01*
X1552108Y1585100D02*
Y1596101D01*
X1294360Y1442471D02*
X1304360D01*
X1299360Y1437471D02*
Y1447471D01*
X1319610Y1442471D02*
X1329610D01*
X1324610Y1437471D02*
Y1447471D01*
X1370110Y1442471D02*
X1380110D01*
X1375110Y1437471D02*
Y1447471D01*
X1269110Y1442471D02*
X1279110D01*
X1274110Y1437471D02*
Y1447471D01*
X1370110Y1492971D02*
X1380110D01*
X1375110Y1487971D02*
Y1497971D01*
X1319610Y1492971D02*
X1329610D01*
X1324610Y1487971D02*
Y1497971D01*
X1294360Y1492971D02*
X1304360D01*
X1299360Y1487971D02*
Y1497971D01*
X1269110Y1492971D02*
X1279110D01*
X1274110Y1487971D02*
Y1497971D01*
X1134300Y1030801D02*
X1142300D01*
X1138300Y1026801D02*
Y1034800D01*
X1155500Y1082001D02*
X1163500D01*
X1159500Y1078001D02*
Y1086001D01*
X1176700Y1030801D02*
X1184700D01*
X1180700Y1026801D02*
Y1034800D01*
X1176700Y1073201D02*
X1184700D01*
X1180700Y1069201D02*
Y1077201D01*
X1125500Y1052001D02*
X1133500D01*
X1129500Y1048001D02*
Y1056001D01*
X1185500Y1052001D02*
X1193500D01*
X1189500Y1048001D02*
Y1056001D01*
X1134280Y1073201D02*
X1142280D01*
X1138280Y1069201D02*
Y1077201D01*
X1155500Y1022001D02*
X1163500D01*
X1159500Y1018001D02*
Y1026001D01*
X1142000Y1052001D02*
X1177000D01*
X1159500Y1034501D02*
Y1069501D01*
X996780Y1607421D02*
X1007280D01*
X1002030Y1602171D02*
Y1612670D01*
X996780Y1332420D02*
X1007280D01*
X1002030Y1327170D02*
Y1337670D01*
X1368229Y2105261D02*
X1379229D01*
X1373729Y2099760D02*
Y2110761D01*
X1318229Y2105261D02*
X1329229D01*
X1323729Y2099760D02*
Y2110761D01*
X1191640Y2185271D02*
X1202641D01*
X1197141Y2179770D02*
Y2190771D01*
X1241640Y2185271D02*
X1252641D01*
X1247140Y2179770D02*
Y2190771D01*
X1059942Y2156061D02*
X1068578D01*
X1064260Y2151743D02*
Y2160379D01*
X1085342Y2156061D02*
X1093978D01*
X1089660Y2151743D02*
Y2160379D01*
X671500Y2208001D02*
X684501D01*
X678000Y2201500D02*
Y2214501D01*
X671500Y2157201D02*
X684501D01*
X678000Y2150700D02*
Y2163701D01*
X723553Y2182035D02*
X739554D01*
X731553Y2174035D02*
Y2190035D01*
X550760Y2145019D02*
X561760D01*
X556260Y2139519D02*
Y2150519D01*
X550760Y2195019D02*
X561760D01*
X556260Y2189519D02*
Y2200519D01*
X392010Y2195019D02*
X403010D01*
X397510Y2189519D02*
Y2200519D01*
X392010Y2145019D02*
X403010D01*
X397510Y2139519D02*
Y2150519D01*
X349330Y1852461D02*
X359330D01*
X354330Y1847461D02*
Y1857460D01*
X349330Y2002461D02*
X359330D01*
X354330Y1997461D02*
Y2007461D01*
X438912Y1570591D02*
X447548D01*
X443230Y1566273D02*
Y1574909D01*
X464312Y1570591D02*
X472948D01*
X468630Y1566273D02*
Y1574909D01*
X122051Y704147D02*
X132051D01*
X127051Y699147D02*
Y709147D01*
X218470Y819054D02*
X228470D01*
X223470Y814054D02*
Y824054D01*
X617110Y497441D02*
X647110D01*
X632110Y482441D02*
Y512441D01*
X357110Y497441D02*
X387110D01*
X372110Y482441D02*
Y512441D01*
X537110Y737441D02*
X567110D01*
X552110Y722441D02*
Y752441D01*
X437110Y737441D02*
X467110D01*
X452110Y722441D02*
Y752441D01*
X71320Y49040D02*
X79320D01*
X75320Y45040D02*
Y53040D01*
X92520Y100240D02*
X100520D01*
X96520Y96241D02*
Y104241D01*
X113720Y49040D02*
X121720D01*
X117720Y45040D02*
Y53040D01*
X113720Y91441D02*
X121720D01*
X117720Y87441D02*
Y95441D01*
X62520Y70241D02*
X70520D01*
X66520Y66241D02*
Y74240D01*
X122520Y70241D02*
X130520D01*
X126520Y66241D02*
Y74240D01*
X71300Y91441D02*
X79300D01*
X75300Y87441D02*
Y95441D01*
X92520Y40241D02*
X100520D01*
X96520Y36241D02*
Y44241D01*
X79020Y70241D02*
X114020D01*
X96520Y52741D02*
Y87740D01*
X595451Y287889D02*
X607451D01*
X601451Y281889D02*
Y293889D01*
X370450Y287889D02*
X382450D01*
X376450Y281889D02*
Y293889D01*
X1140433Y1455021D02*
X1151433D01*
X1145933Y1449520D02*
Y1460521D01*
X1115433Y1455021D02*
X1126433D01*
X1120933Y1449520D02*
Y1460521D01*
X799710Y1649325D02*
X809710D01*
X804710Y1644325D02*
Y1654325D01*
X764709Y1649325D02*
X774709D01*
X769709Y1644325D02*
Y1654325D01*
X1604630Y707421D02*
X1616630D01*
X1610630Y701421D02*
Y713420D01*
X1485630Y735421D02*
X1495630D01*
X1490630Y730421D02*
Y740421D01*
X1485630Y955421D02*
X1495630D01*
X1490630Y950421D02*
Y960421D01*
X1604630Y983421D02*
X1616630D01*
X1610630Y977421D02*
Y989421D01*
X2579890Y378061D02*
X2591890D01*
X2585891Y372061D02*
Y384061D01*
X2759890Y378061D02*
X2771890D01*
X2765891Y372061D02*
Y384061D01*
X436680Y1819220D02*
X446680D01*
X441680Y1814221D02*
Y1824220D01*
X736680Y2039221D02*
X746680D01*
X741680Y2034221D02*
Y2044220D01*
X586680Y2039221D02*
X596680D01*
X591680Y2034221D02*
Y2044220D01*
X536680Y2039221D02*
X546680D01*
X541680Y2034221D02*
Y2044220D01*
X486680Y2039221D02*
X496680D01*
X491680Y2034221D02*
Y2044220D01*
X436680Y2039221D02*
X446680D01*
X441680Y2034221D02*
Y2044220D01*
X736680Y1819220D02*
X746680D01*
X741680Y1814221D02*
Y1824220D01*
X686680Y1819220D02*
X696680D01*
X691680Y1814221D02*
Y1824220D01*
X636680Y1819220D02*
X646680D01*
X641680Y1814221D02*
Y1824220D01*
X536680Y1819220D02*
X546680D01*
X541680Y1814221D02*
Y1824220D01*
X486680Y1819220D02*
X496680D01*
X491680Y1814221D02*
Y1824220D01*
X546610Y1556595D02*
X556610D01*
X551610Y1551595D02*
Y1561595D01*
X511609Y1556595D02*
X521609D01*
X516609Y1551595D02*
Y1561595D01*
X1033502Y1664301D02*
X1045501D01*
X1039501Y1658301D02*
Y1670300D01*
X958500Y1664301D02*
X970500D01*
X964500Y1658301D02*
Y1670300D01*
X2162510Y1319481D02*
X2174510D01*
X2168510Y1313481D02*
Y1325481D01*
X2043510Y1291481D02*
X2053510D01*
X2048510Y1286481D02*
Y1296481D01*
X2043510Y1071481D02*
X2053510D01*
X2048510Y1066481D02*
Y1076480D01*
X2162510Y1043481D02*
X2174510D01*
X2168510Y1037481D02*
Y1049481D01*
X2467690Y1233201D02*
X2479690D01*
X2473690Y1227201D02*
Y1239201D01*
X2588690Y1261201D02*
X2598690D01*
X2593690Y1256201D02*
Y1266200D01*
X2588690Y1481201D02*
X2598690D01*
X2593690Y1476201D02*
Y1486201D01*
X2467690Y1509201D02*
X2479690D01*
X2473690Y1503201D02*
Y1515201D01*
X1021430Y128541D02*
X1033430D01*
X1027430Y122541D02*
Y134541D01*
X1021430Y53540D02*
X1033430D01*
X1027430Y47540D02*
Y59540D01*
X957930Y128541D02*
X969930D01*
X963930Y122541D02*
Y134541D01*
X957930Y53540D02*
X969930D01*
X963930Y47540D02*
Y59540D01*
X1094232Y190101D02*
X1102868D01*
X1098550Y185783D02*
Y194419D01*
X1068832Y190101D02*
X1077468D01*
X1073150Y185783D02*
Y194419D01*
X1043432Y190101D02*
X1052068D01*
X1047750Y185783D02*
Y194419D01*
X1018032Y190101D02*
X1026668D01*
X1022350Y185783D02*
Y194419D01*
X1483170Y182571D02*
X1491170D01*
X1487170Y178571D02*
Y186570D01*
X1483170Y267571D02*
X1491170D01*
X1487170Y263571D02*
Y271571D01*
X473136Y1283521D02*
X483136D01*
X478136Y1278521D02*
Y1288521D01*
X451140Y1270821D02*
X461140D01*
X456140Y1265821D02*
Y1275821D01*
X473136Y1258121D02*
X483136D01*
X478136Y1253121D02*
Y1263121D01*
X371941Y1369520D02*
X384941D01*
X378441Y1363020D02*
Y1376021D01*
X346541Y1369520D02*
X359541D01*
X353041Y1363020D02*
Y1376021D01*
X371941Y1159521D02*
X384941D01*
X378441Y1153021D02*
Y1166021D01*
X346541Y1159521D02*
X359541D01*
X353041Y1153021D02*
Y1166021D01*
X321141Y1369520D02*
X334141D01*
X327641Y1363020D02*
Y1376021D01*
X321141Y1159521D02*
X334141D01*
X327641Y1153021D02*
Y1166021D01*
X451140Y1245421D02*
X461140D01*
X456140Y1240421D02*
Y1250421D01*
X217481Y1044811D02*
X230481D01*
X223981Y1038310D02*
Y1051311D01*
X592480Y1044811D02*
X605480D01*
X598980Y1038310D02*
Y1051311D01*
X1422210Y267571D02*
X1430210D01*
X1426210Y263571D02*
Y271571D01*
X1422210Y182571D02*
X1430210D01*
X1426210Y178571D02*
Y186570D01*
X1547940Y182571D02*
X1555940D01*
X1551940Y178571D02*
Y186570D01*
X1547940Y267571D02*
X1555940D01*
X1551940Y263571D02*
Y271571D01*
X1357440Y267571D02*
X1365440D01*
X1361440Y263571D02*
Y271571D01*
X1357440Y182571D02*
X1365440D01*
X1361440Y178571D02*
Y186570D01*
X2628710Y967341D02*
X2636711D01*
X2632710Y963341D02*
Y971341D01*
X2713710Y967341D02*
X2721711D01*
X2717710Y963341D02*
Y971341D01*
X2741650Y686671D02*
X2749650D01*
X2745650Y682671D02*
Y690671D01*
X2656650Y686671D02*
X2664650D01*
X2660650Y682671D02*
Y690671D01*
X1046690Y1738761D02*
X1058690D01*
X1052690Y1732761D02*
Y1744760D01*
X1146690Y1738761D02*
X1158690D01*
X1152690Y1732761D02*
Y1744760D01*
X1096690Y1738761D02*
X1108690D01*
X1102690Y1732761D02*
Y1744760D01*
X1196690Y1738761D02*
X1208690D01*
X1202690Y1732761D02*
Y1744760D01*
X1246690Y1738761D02*
X1258690D01*
X1252690Y1732761D02*
Y1744760D01*
X1346690Y1738761D02*
X1358690D01*
X1352690Y1732761D02*
Y1744760D01*
X1046690Y1963761D02*
X1058690D01*
X1052690Y1957761D02*
Y1969761D01*
X1096690Y1963761D02*
X1108690D01*
X1102690Y1957761D02*
Y1969761D01*
X1346690Y1963761D02*
X1358690D01*
X1352690Y1957761D02*
Y1969761D01*
X1246690Y1963761D02*
X1258690D01*
X1252690Y1957761D02*
Y1969761D01*
X1196690Y1963761D02*
X1208690D01*
X1202690Y1957761D02*
Y1969761D01*
X1296690Y1963761D02*
X1308690D01*
X1302690Y1957761D02*
Y1969761D01*
X1296690Y1738761D02*
X1308690D01*
X1302690Y1732761D02*
Y1744760D01*
X1506508Y1389001D02*
X1517508D01*
X1512008Y1383500D02*
Y1394501D01*
X1531508Y1389001D02*
X1542508D01*
X1537008Y1383500D02*
Y1394501D01*
X221130Y472041D02*
X231130D01*
X226130Y467041D02*
Y477040D01*
X71130Y472041D02*
X81130D01*
X76130Y467041D02*
Y477040D01*
X221130Y400921D02*
X231130D01*
X226130Y395921D02*
Y405920D01*
X71130Y400921D02*
X81130D01*
X76130Y395921D02*
Y405920D01*
X59770Y738671D02*
X69770D01*
X64770Y733671D02*
Y743671D01*
X59770Y888671D02*
X69770D01*
X64770Y883671D02*
Y893671D01*
X539050Y158011D02*
X551550D01*
X545300Y151761D02*
Y164261D01*
X439050Y179011D02*
X451550D01*
X445300Y172761D02*
Y185261D01*
X2349600Y146921D02*
X2362100D01*
X2355850Y140671D02*
Y153171D01*
X2249600Y167921D02*
X2262100D01*
X2255850Y161671D02*
Y174171D01*
X1263421Y1588735D02*
X1273421D01*
X1268421Y1583735D02*
Y1593735D01*
X1263421Y1614135D02*
X1273421D01*
X1268421Y1609135D02*
Y1619135D01*
X1263421Y1639535D02*
X1273421D01*
X1268421Y1634535D02*
Y1644535D01*
X1263421Y1664935D02*
X1273421D01*
X1268421Y1659935D02*
Y1669935D01*
X1187221Y1664935D02*
X1197221D01*
X1192221Y1659935D02*
Y1669935D01*
X1187221Y1614135D02*
X1197221D01*
X1192221Y1609135D02*
Y1619135D01*
X1187221Y1588735D02*
X1197221D01*
X1192221Y1583735D02*
Y1593735D01*
X2233941Y1095611D02*
X2245941D01*
X2239941Y1089611D02*
Y1101610D01*
X2508940Y1095611D02*
X2520940D01*
X2514940Y1089611D02*
Y1101610D01*
X1609130Y2082406D02*
X1619130D01*
X1614130Y2077406D02*
Y2087406D01*
X1644131Y2082406D02*
X1654131D01*
X1649131Y2077406D02*
Y2087406D01*
X1609130Y1994782D02*
X1619130D01*
X1614130Y1989782D02*
Y1999782D01*
X1644131Y1994782D02*
X1654131D01*
X1649131Y1989782D02*
Y1999782D01*
X1105000Y1642901D02*
X1113000D01*
X1109000Y1638901D02*
Y1646900D01*
X2442000Y236713D02*
X2448000D01*
X2445000Y233713D02*
Y239713D01*
X1694000Y720601D02*
X1700000D01*
X1697000Y717601D02*
Y723601D01*
X1694000Y699286D02*
X1700000D01*
X1697000Y696286D02*
Y702286D01*
X1674000Y720601D02*
X1680000D01*
X1677000Y717601D02*
Y723601D01*
X1674000Y699286D02*
X1680000D01*
X1677000Y696286D02*
Y702286D01*
X1654000Y720601D02*
X1660000D01*
X1657000Y717601D02*
Y723601D01*
X1654000Y699286D02*
X1660000D01*
X1657000Y696286D02*
Y702286D01*
X1634000Y699286D02*
X1640000D01*
X1637000Y696286D02*
Y702286D01*
X1634000Y720601D02*
X1640000D01*
X1637000Y717601D02*
Y723601D01*
X2238000Y319915D02*
X2244000D01*
X2241000Y316915D02*
Y322915D01*
X2238000Y298601D02*
X2244000D01*
X2241000Y295601D02*
Y301601D01*
X2492000Y520173D02*
X2498000D01*
X2495000Y517173D02*
Y523173D01*
X2492000Y541488D02*
X2498000D01*
X2495000Y538488D02*
Y544488D01*
X2492000Y562802D02*
X2498000D01*
X2495000Y559802D02*
Y565802D01*
X2512000Y520173D02*
X2518000D01*
X2515000Y517173D02*
Y523173D01*
X2512000Y541488D02*
X2518000D01*
X2515000Y538488D02*
Y544488D01*
X2512000Y562802D02*
X2518000D01*
X2515000Y559802D02*
Y565802D01*
X2382000Y519173D02*
X2388000D01*
X2385000Y516173D02*
Y522173D01*
X2382000Y540488D02*
X2388000D01*
X2385000Y537488D02*
Y543488D01*
X2382000Y561802D02*
X2388000D01*
X2385000Y558802D02*
Y564802D01*
X2402000Y519173D02*
X2408000D01*
X2405000Y516173D02*
Y522173D01*
X2402000Y540488D02*
X2408000D01*
X2405000Y537488D02*
Y543488D01*
X2402000Y561802D02*
X2408000D01*
X2405000Y558802D02*
Y564802D01*
X2137000Y543614D02*
X2143000D01*
X2140000Y540614D02*
Y546614D01*
X2137000Y522300D02*
X2143000D01*
X2140000Y519300D02*
Y525300D01*
X2137000Y564929D02*
X2143000D01*
X2140000Y561929D02*
Y567929D01*
X2117000Y522300D02*
X2123000D01*
X2120000Y519300D02*
Y525300D01*
X2117000Y543614D02*
X2123000D01*
X2120000Y540614D02*
Y546614D01*
X2117000Y564929D02*
X2123000D01*
X2120000Y561929D02*
Y567929D01*
X2117000Y488802D02*
X2123000D01*
X2120000Y485802D02*
Y491802D01*
X2117000Y600657D02*
X2123000D01*
X2120000Y597657D02*
Y603657D01*
X2237000Y523601D02*
X2243000D01*
X2240000Y520601D02*
Y526600D01*
X2237000Y544915D02*
X2243000D01*
X2240000Y541915D02*
Y547915D01*
X2237000Y566230D02*
X2243000D01*
X2240000Y563230D02*
Y569230D01*
X2257000Y523601D02*
X2263000D01*
X2260000Y520601D02*
Y526600D01*
X2257000Y544915D02*
X2263000D01*
X2260000Y541915D02*
Y547915D01*
X2257000Y566230D02*
X2263000D01*
X2260000Y563230D02*
Y569230D01*
X2198000Y808370D02*
X2204000D01*
X2201000Y805369D02*
Y811369D01*
X2198000Y787055D02*
X2204000D01*
X2201000Y784055D02*
Y790055D01*
X2218000Y808370D02*
X2224000D01*
X2221000Y805369D02*
Y811369D01*
X2218000Y787055D02*
X2224000D01*
X2221000Y784055D02*
Y790055D01*
X2178000Y808370D02*
X2184000D01*
X2181000Y805369D02*
Y811369D01*
X2178000Y787055D02*
X2184000D01*
X2181000Y784055D02*
Y790055D01*
X2158000Y808370D02*
X2164000D01*
X2161001Y805369D02*
Y811369D01*
X2158000Y787055D02*
X2164000D01*
X2161001Y784055D02*
Y790055D01*
X2138000Y808370D02*
X2144000D01*
X2141000Y805369D02*
Y811369D01*
X2138000Y787055D02*
X2144000D01*
X2141000Y784055D02*
Y790055D01*
X2198000Y765601D02*
X2204000D01*
X2201000Y762601D02*
Y768600D01*
X2218000Y765601D02*
X2224000D01*
X2221000Y762601D02*
Y768600D01*
X2178000Y765601D02*
X2184000D01*
X2181000Y762601D02*
Y768600D01*
X2158000Y765601D02*
X2164000D01*
X2161001Y762601D02*
Y768600D01*
X2138000Y765601D02*
X2144000D01*
X2141000Y762601D02*
Y768600D01*
X2417000Y773601D02*
X2423000D01*
X2420000Y770601D02*
Y776601D01*
X2497000Y773601D02*
X2503000D01*
X2500000Y770601D02*
Y776601D01*
X2477000Y773601D02*
X2483000D01*
X2480000Y770601D02*
Y776601D01*
X2457000Y773601D02*
X2463000D01*
X2460000Y770601D02*
Y776601D01*
X2437000Y773601D02*
X2443000D01*
X2440000Y770601D02*
Y776601D01*
X2416835Y795055D02*
X2422834D01*
X2419835Y792055D02*
Y798055D01*
X2496835Y795055D02*
X2502834D01*
X2499834Y792055D02*
Y798055D01*
X2476835Y795055D02*
X2482834D01*
X2479834Y792055D02*
Y798055D01*
X2456835Y795055D02*
X2462834D01*
X2459834Y792055D02*
Y798055D01*
X2436835Y795055D02*
X2442834D01*
X2439834Y792055D02*
Y798055D01*
X2517000Y773601D02*
X2523000D01*
X2520000Y770601D02*
Y776601D01*
X2537000Y773601D02*
X2543000D01*
X2540000Y770601D02*
Y776601D01*
X2557000Y773601D02*
X2563000D01*
X2560000Y770601D02*
Y776601D01*
X2637000Y773601D02*
X2643000D01*
X2640000Y770601D02*
Y776601D01*
X2617000Y773601D02*
X2623000D01*
X2620000Y770601D02*
Y776601D01*
X2597000Y773601D02*
X2603000D01*
X2600000Y770601D02*
Y776601D01*
X2577000Y773601D02*
X2583000D01*
X2580000Y770601D02*
Y776601D01*
X2516835Y795055D02*
X2522835D01*
X2519835Y792055D02*
Y798055D01*
X2536835Y795055D02*
X2542835D01*
X2539835Y792055D02*
Y798055D01*
X2556835Y795055D02*
X2562834D01*
X2559835Y792055D02*
Y798055D01*
X2636835Y795055D02*
X2642834D01*
X2639835Y792055D02*
Y798055D01*
X2616834Y795055D02*
X2622834D01*
X2619835Y792055D02*
Y798055D01*
X2596834Y795055D02*
X2602834D01*
X2599835Y792055D02*
Y798055D01*
X2576834Y795055D02*
X2582834D01*
X2579835Y792055D02*
Y798055D01*
X703136Y750286D02*
X709136D01*
X706136Y747286D02*
Y753286D01*
X703136Y727601D02*
X709136D01*
X706136Y724601D02*
Y730601D01*
X681709Y750286D02*
X687709D01*
X684709Y747286D02*
Y753286D01*
X681709Y727601D02*
X687709D01*
X684709Y724601D02*
Y730601D01*
X638854Y750286D02*
X644855D01*
X641854Y747286D02*
Y753286D01*
X638854Y727601D02*
X644855D01*
X641854Y724601D02*
Y730601D01*
X617427Y750286D02*
X623428D01*
X620428Y747286D02*
Y753286D01*
X617427Y727601D02*
X623428D01*
X620428Y724601D02*
Y730601D01*
X596000Y750286D02*
X602000D01*
X599000Y747286D02*
Y753286D01*
X596000Y727601D02*
X602000D01*
X599000Y724601D02*
Y730601D01*
X660282Y727601D02*
X666282D01*
X663282Y724601D02*
Y730601D01*
X660282Y750286D02*
X666282D01*
X663282Y747286D02*
Y753286D01*
X1942000Y1628286D02*
X1948000D01*
X1945000Y1625286D02*
Y1631286D01*
X1942000Y1649601D02*
X1948000D01*
X1945000Y1646601D02*
Y1652601D01*
X1922000Y1628286D02*
X1928000D01*
X1925000Y1625286D02*
Y1631286D01*
X1922000Y1649601D02*
X1928000D01*
X1925000Y1646601D02*
Y1652601D01*
X1962000Y1628286D02*
X1968000D01*
X1965000Y1625286D02*
Y1631286D01*
X1962000Y1649601D02*
X1968000D01*
X1965000Y1646601D02*
Y1652601D01*
X1982000Y1628286D02*
X1988000D01*
X1985000Y1625286D02*
Y1631286D01*
X1982000Y1649601D02*
X1988000D01*
X1985000Y1646601D02*
Y1652601D01*
X2002000Y1628286D02*
X2008000D01*
X2005000Y1625286D02*
Y1631286D01*
X2002000Y1649601D02*
X2008000D01*
X2005000Y1646601D02*
Y1652601D01*
X2041835Y1628286D02*
X2047834D01*
X2044834Y1625286D02*
Y1631286D01*
X2041835Y1649601D02*
X2047834D01*
X2044834Y1646601D02*
Y1652601D01*
X2022000Y1628286D02*
X2028000D01*
X2025000Y1625286D02*
Y1631286D01*
X2022000Y1649601D02*
X2028000D01*
X2025000Y1646601D02*
Y1652601D01*
X1942000Y1606971D02*
X1948000D01*
X1945000Y1603972D02*
Y1609971D01*
X2022000Y1606971D02*
X2028000D01*
X2025000Y1603972D02*
Y1609971D01*
X2002000Y1606971D02*
X2008000D01*
X2005000Y1603972D02*
Y1609971D01*
X1982000Y1606971D02*
X1988000D01*
X1985000Y1603972D02*
Y1609971D01*
X1962000Y1606971D02*
X1968000D01*
X1965000Y1603972D02*
Y1609971D01*
X2041835Y1606971D02*
X2047834D01*
X2044834Y1603972D02*
Y1609971D01*
X1922000Y1606971D02*
X1928000D01*
X1925000Y1603972D02*
Y1609971D01*
X2121000Y1628286D02*
X2127000D01*
X2124000Y1625286D02*
Y1631286D01*
X2121000Y1649601D02*
X2127000D01*
X2124000Y1646601D02*
Y1652601D01*
X2101000Y1628286D02*
X2107000D01*
X2104000Y1625286D02*
Y1631286D01*
X2101000Y1649601D02*
X2107000D01*
X2104000Y1646601D02*
Y1652601D01*
X2081000Y1628286D02*
X2087000D01*
X2084000Y1625286D02*
Y1631286D01*
X2081000Y1649601D02*
X2087000D01*
X2084000Y1646601D02*
Y1652601D01*
X2061000Y1628286D02*
X2067000D01*
X2064000Y1625286D02*
Y1631286D01*
X2061000Y1649601D02*
X2067000D01*
X2064000Y1646601D02*
Y1652601D01*
X2141000Y1628286D02*
X2147000D01*
X2144000Y1625286D02*
Y1631286D01*
X2141000Y1649601D02*
X2147000D01*
X2144000Y1646601D02*
Y1652601D01*
X2161000Y1628286D02*
X2167000D01*
X2164000Y1625286D02*
Y1631286D01*
X2161000Y1649601D02*
X2167000D01*
X2164000Y1646601D02*
Y1652601D01*
X2181000Y1628286D02*
X2187000D01*
X2184000Y1625286D02*
Y1631286D01*
X2181000Y1649601D02*
X2187000D01*
X2184000Y1646601D02*
Y1652601D01*
X2220835Y1628286D02*
X2226835D01*
X2223835Y1625286D02*
Y1631286D01*
X2220835Y1649601D02*
X2226835D01*
X2223835Y1646601D02*
Y1652601D01*
X2201000Y1628286D02*
X2207000D01*
X2204000Y1625286D02*
Y1631286D01*
X2201000Y1649601D02*
X2207000D01*
X2204000Y1646601D02*
Y1652601D01*
X2061000Y1606971D02*
X2067000D01*
X2064000Y1603972D02*
Y1609971D01*
X2121000Y1606971D02*
X2127000D01*
X2124000Y1603972D02*
Y1609971D01*
X2201000Y1606971D02*
X2207000D01*
X2204000Y1603972D02*
Y1609971D01*
X2181000Y1606971D02*
X2187000D01*
X2184000Y1603972D02*
Y1609971D01*
X2161000Y1606971D02*
X2167000D01*
X2164000Y1603972D02*
Y1609971D01*
X2141000Y1606971D02*
X2147000D01*
X2144000Y1603972D02*
Y1609971D01*
X2220835Y1606971D02*
X2226835D01*
X2223835Y1603972D02*
Y1609971D01*
X2101000Y1606971D02*
X2107000D01*
X2104000Y1603972D02*
Y1609971D01*
X2081000Y1606971D02*
X2087000D01*
X2084000Y1603972D02*
Y1609971D01*
X2472000Y301601D02*
X2478000D01*
X2475000Y298601D02*
Y304601D01*
X2472000Y322915D02*
X2478000D01*
X2475000Y319915D02*
Y325915D01*
X2492000Y301601D02*
X2498000D01*
X2495000Y298601D02*
Y304601D01*
X2492000Y322915D02*
X2498000D01*
X2495000Y319915D02*
Y325915D01*
X2402000Y301601D02*
X2408000D01*
X2405000Y298601D02*
Y304601D01*
X2402000Y322915D02*
X2408000D01*
X2405000Y319915D02*
Y325915D01*
X2422000Y301601D02*
X2428000D01*
X2425000Y298601D02*
Y304601D01*
X2422000Y322915D02*
X2428000D01*
X2425000Y319915D02*
Y325915D01*
X2199000Y298601D02*
X2205000D01*
X2202000Y295601D02*
Y301601D01*
X2199000Y319915D02*
X2205000D01*
X2202000Y316915D02*
Y322915D01*
X2219000Y298601D02*
X2225000D01*
X2222000Y295601D02*
Y301601D01*
X2219000Y319915D02*
X2225000D01*
X2222000Y316915D02*
Y322915D01*
X2117000Y295601D02*
X2123000D01*
X2120000Y292601D02*
Y298601D01*
X2117000Y316915D02*
X2123000D01*
X2120000Y313915D02*
Y319915D01*
X2137000Y295601D02*
X2143000D01*
X2140000Y292601D02*
Y298601D01*
X2137000Y316915D02*
X2143000D01*
X2140000Y313915D02*
Y319915D01*
X282000Y1114601D02*
X288000D01*
X285000Y1111601D02*
Y1117601D01*
X282000Y1094601D02*
X288000D01*
X285000Y1091601D02*
Y1097600D01*
X282000Y1074601D02*
X288000D01*
X285000Y1071601D02*
Y1077601D01*
X282000Y1054601D02*
X288000D01*
X285000Y1051601D02*
Y1057601D01*
X569484Y427572D02*
X575484D01*
X572484Y424572D02*
Y430572D01*
X416884Y429601D02*
X422884D01*
X419884Y426601D02*
Y432601D01*
X435100Y457901D02*
X441100D01*
X438100Y454901D02*
Y460901D01*
X313100Y429601D02*
X319100D01*
X316100Y426601D02*
Y432601D01*
X313100Y380300D02*
X319100D01*
X316100Y377300D02*
Y383301D01*
X313100Y404601D02*
X319100D01*
X316100Y401601D02*
Y407601D01*
X250767Y380300D02*
X256767D01*
X253767Y377300D02*
Y383301D01*
X276292Y1325600D02*
X282292D01*
X279292Y1322601D02*
Y1328600D01*
X254865Y1325600D02*
X260865D01*
X257865Y1322601D02*
Y1328600D01*
X340573Y1325600D02*
X346573D01*
X343573Y1322601D02*
Y1328600D01*
X319146Y1325600D02*
X325146D01*
X322146Y1322601D02*
Y1328600D01*
X297719Y1325600D02*
X303719D01*
X300719Y1322601D02*
Y1328600D01*
X362000Y1325600D02*
X368000D01*
X365000Y1322601D02*
Y1328600D01*
X361573Y1344601D02*
X367573D01*
X364573Y1341601D02*
Y1347601D01*
X275865Y1344601D02*
X281865D01*
X278865Y1341601D02*
Y1347601D01*
X297292Y1344601D02*
X303292D01*
X300292Y1341601D02*
Y1347601D01*
X318719Y1344601D02*
X324719D01*
X321719Y1341601D02*
Y1347601D01*
X340146Y1344601D02*
X346146D01*
X343146Y1341601D02*
Y1347601D01*
X383000Y1344601D02*
X389000D01*
X386000Y1341601D02*
Y1347601D01*
X1641000Y528601D02*
X1647000D01*
X1644000Y525601D02*
Y531601D01*
X1621000Y528601D02*
X1627000D01*
X1624000Y525601D02*
Y531601D01*
X1601000Y528601D02*
X1607000D01*
X1604000Y525601D02*
Y531601D01*
X1581000Y528601D02*
X1587000D01*
X1584000Y525601D02*
Y531601D01*
X1712000Y507601D02*
X1718000D01*
X1715000Y504601D02*
Y510601D01*
X1692000Y507601D02*
X1698000D01*
X1695000Y504601D02*
Y510601D01*
X1672000Y507601D02*
X1678000D01*
X1675000Y504601D02*
Y510601D01*
X1652000Y507601D02*
X1658000D01*
X1655000Y504601D02*
Y510601D01*
X1572000Y507601D02*
X1578000D01*
X1575000Y504601D02*
Y510601D01*
X1592000Y507601D02*
X1598000D01*
X1595000Y504601D02*
Y510601D01*
X1612000Y507601D02*
X1618000D01*
X1615000Y504601D02*
Y510601D01*
X1632000Y507601D02*
X1638000D01*
X1635000Y504601D02*
Y510601D01*
X2471500Y1497601D02*
X2474500D01*
X2473000Y1496101D02*
Y1499101D01*
X2479380Y1500334D02*
X2482380D01*
X2480880Y1498834D02*
Y1501834D01*
X2483035Y1507731D02*
X2486035D01*
X2484535Y1506231D02*
Y1509231D01*
X2481240Y1515713D02*
X2484240D01*
X2482740Y1514213D02*
Y1517213D01*
X2474771Y1520702D02*
X2477771D01*
X2476270Y1519202D02*
Y1522202D01*
X2467022Y1520339D02*
X2470022D01*
X2468522Y1518839D02*
Y1521839D01*
X2461422Y1515220D02*
X2464422D01*
X2462922Y1513720D02*
Y1516720D01*
X2460000Y1507717D02*
X2463000D01*
X2461500Y1506216D02*
Y1509216D01*
X2463905Y1500929D02*
X2466905D01*
X2465405Y1499429D02*
Y1502429D01*
X2166500Y1031601D02*
X2169500D01*
X2168000Y1030101D02*
Y1033101D01*
X2174380Y1034334D02*
X2177380D01*
X2175880Y1032834D02*
Y1035834D01*
X2178035Y1041731D02*
X2181035D01*
X2179535Y1040231D02*
Y1043231D01*
X2176240Y1049713D02*
X2179240D01*
X2177740Y1048213D02*
Y1051213D01*
X2169771Y1054702D02*
X2172771D01*
X2171270Y1053202D02*
Y1056202D01*
X2162022Y1054339D02*
X2165022D01*
X2163522Y1052839D02*
Y1055839D01*
X2156422Y1049220D02*
X2159422D01*
X2157922Y1047720D02*
Y1050720D01*
X2155000Y1041717D02*
X2158000D01*
X2156500Y1040217D02*
Y1043216D01*
X2158905Y1034929D02*
X2161905D01*
X2160405Y1033429D02*
Y1036429D01*
X2166500Y1307601D02*
X2169500D01*
X2168000Y1306101D02*
Y1309101D01*
X2174380Y1310334D02*
X2177380D01*
X2175880Y1308834D02*
Y1311834D01*
X2178035Y1317731D02*
X2181035D01*
X2179535Y1316231D02*
Y1319231D01*
X2176240Y1325713D02*
X2179240D01*
X2177740Y1324213D02*
Y1327213D01*
X2169771Y1330702D02*
X2172771D01*
X2171270Y1329202D02*
Y1332202D01*
X2162022Y1330339D02*
X2165022D01*
X2163522Y1328839D02*
Y1331839D01*
X2156422Y1325220D02*
X2159422D01*
X2157922Y1323720D02*
Y1326720D01*
X2155000Y1317717D02*
X2158000D01*
X2156500Y1316216D02*
Y1319216D01*
X2158905Y1310929D02*
X2161905D01*
X2160405Y1309429D02*
Y1312429D01*
X2471500Y1221601D02*
X2474500D01*
X2473000Y1220101D02*
Y1223101D01*
X2479380Y1224334D02*
X2482380D01*
X2480880Y1222834D02*
Y1225834D01*
X2483035Y1231731D02*
X2486035D01*
X2484535Y1230231D02*
Y1233231D01*
X2481240Y1239713D02*
X2484240D01*
X2482740Y1238213D02*
Y1241213D01*
X2474771Y1244702D02*
X2477771D01*
X2476270Y1243202D02*
Y1246202D01*
X2467022Y1244339D02*
X2470022D01*
X2468522Y1242839D02*
Y1245839D01*
X2461422Y1239220D02*
X2464422D01*
X2462922Y1237720D02*
Y1240720D01*
X2460000Y1231717D02*
X2463000D01*
X2461500Y1230217D02*
Y1233216D01*
X2463905Y1224929D02*
X2466905D01*
X2465405Y1223429D02*
Y1226429D01*
X1609500Y695601D02*
X1612500D01*
X1611000Y694101D02*
Y697101D01*
X1617380Y698334D02*
X1620380D01*
X1618880Y696834D02*
Y699834D01*
X1621035Y705731D02*
X1624035D01*
X1622535Y704231D02*
Y707231D01*
X1619240Y713713D02*
X1622240D01*
X1620740Y712213D02*
Y715213D01*
X1612771Y718702D02*
X1615771D01*
X1614270Y717202D02*
Y720202D01*
X1605022Y718339D02*
X1608022D01*
X1606522Y716839D02*
Y719839D01*
X1599422Y713220D02*
X1602422D01*
X1600922Y711720D02*
Y714720D01*
X1598000Y705716D02*
X1601000D01*
X1599500Y704217D02*
Y707216D01*
X1601905Y698929D02*
X1604905D01*
X1603405Y697429D02*
Y700429D01*
X1608500Y971601D02*
X1611500D01*
X1610000Y970101D02*
Y973101D01*
X1616380Y974334D02*
X1619380D01*
X1617880Y972834D02*
Y975834D01*
X1620035Y981731D02*
X1623035D01*
X1621535Y980231D02*
Y983231D01*
X1618240Y989713D02*
X1621240D01*
X1619740Y988213D02*
Y991213D01*
X1611770Y994702D02*
X1614771D01*
X1613271Y993202D02*
Y996202D01*
X1604022Y994339D02*
X1607022D01*
X1605522Y992839D02*
Y995839D01*
X1598422Y989220D02*
X1601422D01*
X1599922Y987720D02*
Y990720D01*
X1597000Y981717D02*
X1600000D01*
X1598500Y980217D02*
Y983216D01*
X1600905Y974929D02*
X1603905D01*
X1602405Y973429D02*
Y976429D01*
X1885500Y968601D02*
X1888500D01*
X1887000Y967101D02*
Y970100D01*
X1893380Y971334D02*
X1896380D01*
X1894880Y969834D02*
Y972834D01*
X1897035Y978731D02*
X1900035D01*
X1898535Y977231D02*
Y980231D01*
X1895240Y986713D02*
X1898240D01*
X1896740Y985213D02*
Y988213D01*
X1888770Y991702D02*
X1891770D01*
X1890271Y990202D02*
Y993202D01*
X1881022Y991339D02*
X1884022D01*
X1882522Y989839D02*
Y992839D01*
X1875422Y986220D02*
X1878422D01*
X1876922Y984720D02*
Y987720D01*
X1874000Y978717D02*
X1877000D01*
X1875500Y977216D02*
Y980217D01*
X1877905Y971929D02*
X1880905D01*
X1879405Y970429D02*
Y973429D01*
X1885500Y693601D02*
X1888500D01*
X1887000Y692101D02*
Y695101D01*
X1893380Y696334D02*
X1896380D01*
X1894880Y694834D02*
Y697834D01*
X1897035Y703731D02*
X1900035D01*
X1898535Y702231D02*
Y705231D01*
X1895240Y711713D02*
X1898240D01*
X1896740Y710213D02*
Y713213D01*
X1888770Y716702D02*
X1891770D01*
X1890271Y715202D02*
Y718202D01*
X1881022Y716339D02*
X1884022D01*
X1882522Y714839D02*
Y717839D01*
X1875422Y711220D02*
X1878422D01*
X1876922Y709720D02*
Y712720D01*
X1874000Y703717D02*
X1877000D01*
X1875500Y702216D02*
Y705217D01*
X1877905Y696929D02*
X1880905D01*
X1879405Y695429D02*
Y698429D01*
X1912000Y681408D02*
X1918000D01*
X1915000Y678408D02*
Y684408D01*
X1912000Y702722D02*
X1918000D01*
X1915000Y699722D02*
Y705722D01*
X1912000Y724037D02*
X1918000D01*
X1915000Y721037D02*
Y727037D01*
X2443000Y1945601D02*
X2447000D01*
X2445000Y1943601D02*
Y1947601D01*
X2444000Y1956601D02*
X2448000D01*
X2446000Y1954601D02*
Y1958601D01*
X2404000Y1961600D02*
X2408000D01*
X2406000Y1959601D02*
Y1963600D01*
X2247000Y1649601D02*
X2251000D01*
X2249000Y1647601D02*
Y1651601D01*
X2241000Y1641601D02*
X2245000D01*
X2243000Y1639601D02*
Y1643601D01*
X2239000Y1631601D02*
X2243000D01*
X2241000Y1629601D02*
Y1633601D01*
Y1622601D02*
X2245000D01*
X2243000Y1620601D02*
Y1624601D01*
X2246000Y1614601D02*
X2250000D01*
X2248000Y1612601D02*
Y1616601D01*
X2254000Y1609601D02*
X2258000D01*
X2256000Y1607601D02*
Y1611601D01*
X2264000Y1607601D02*
X2268000D01*
X2266000Y1605601D02*
Y1609601D01*
X2274000Y1610601D02*
X2278000D01*
X2276000Y1608601D02*
Y1612601D01*
X2282000Y1616601D02*
X2286000D01*
X2284000Y1614601D02*
Y1618601D01*
X2286000Y1625601D02*
X2290000D01*
X2288000Y1623601D02*
Y1627601D01*
X2286000Y1635601D02*
X2290000D01*
X2288000Y1633601D02*
Y1637601D01*
X2282000Y1644601D02*
X2286000D01*
X2284000Y1642601D02*
Y1646601D01*
X2275000Y1651601D02*
X2279000D01*
X2277000Y1649601D02*
Y1653601D01*
X2266000Y1654601D02*
X2270000D01*
X2268000Y1652601D02*
Y1656601D01*
X2256000Y1653601D02*
X2260000D01*
X2258000Y1651601D02*
Y1655601D01*
X2468000Y1649601D02*
X2472000D01*
X2470000Y1647601D02*
Y1651601D01*
X2462000Y1641601D02*
X2466000D01*
X2464000Y1639601D02*
Y1643601D01*
X2460000Y1631601D02*
X2464000D01*
X2462000Y1629601D02*
Y1633601D01*
Y1622601D02*
X2466000D01*
X2464000Y1620601D02*
Y1624601D01*
X2467000Y1614601D02*
X2471000D01*
X2469000Y1612601D02*
Y1616601D01*
X2475000Y1609601D02*
X2479000D01*
X2477000Y1607601D02*
Y1611601D01*
X2485000Y1607601D02*
X2489000D01*
X2487000Y1605601D02*
Y1609601D01*
X2495000Y1610601D02*
X2499000D01*
X2497000Y1608601D02*
Y1612601D01*
X2503000Y1616601D02*
X2507000D01*
X2505000Y1614601D02*
Y1618601D01*
X2507000Y1625601D02*
X2511000D01*
X2509000Y1623601D02*
Y1627601D01*
X2507000Y1635601D02*
X2511000D01*
X2509000Y1633601D02*
Y1637601D01*
X2503000Y1644601D02*
X2507000D01*
X2505000Y1642601D02*
Y1646601D01*
X2496000Y1651601D02*
X2500000D01*
X2498000Y1649601D02*
Y1653601D01*
X2487000Y1654601D02*
X2491000D01*
X2489000Y1652601D02*
Y1656601D01*
X2477000Y1653601D02*
X2481000D01*
X2479000Y1651601D02*
Y1655601D01*
X2408000Y1970601D02*
X2412000D01*
X2410000Y1968601D02*
Y1972601D01*
X2402000Y1943601D02*
X2406000D01*
X2404000Y1941601D02*
Y1945601D01*
X2407000Y1935600D02*
X2411000D01*
X2409000Y1933601D02*
Y1937601D01*
X2415000Y1930601D02*
X2419000D01*
X2417000Y1928601D02*
Y1932601D01*
X2425000Y1928601D02*
X2429000D01*
X2427000Y1926601D02*
Y1930601D01*
X2435000Y1931601D02*
X2439000D01*
X2437000Y1929601D02*
Y1933601D01*
X2443000Y1937601D02*
X2447000D01*
X2445000Y1935601D02*
Y1939601D01*
X2443000Y1965601D02*
X2447000D01*
X2445000Y1963601D02*
Y1967601D01*
X2436000Y1972601D02*
X2440000D01*
X2438000Y1970601D02*
Y1974601D01*
X2427000Y1975601D02*
X2431000D01*
X2429000Y1973601D02*
Y1977601D01*
X2417000Y1974601D02*
X2421000D01*
X2419000Y1972601D02*
Y1976601D01*
X2307000Y1970601D02*
X2311000D01*
X2309000Y1968601D02*
Y1972601D01*
X2306000Y1935600D02*
X2310000D01*
X2308000Y1933601D02*
Y1937601D01*
X2314000Y1930601D02*
X2318000D01*
X2316000Y1928601D02*
Y1932601D01*
X2324000Y1928601D02*
X2328000D01*
X2326000Y1926601D02*
Y1930601D01*
X2334000Y1931601D02*
X2338000D01*
X2336000Y1929601D02*
Y1933601D01*
X2342000Y1937601D02*
X2346000D01*
X2344000Y1935601D02*
Y1939601D01*
X2342000Y1965601D02*
X2346000D01*
X2344000Y1963601D02*
Y1967601D01*
X2335000Y1972601D02*
X2339000D01*
X2337000Y1970601D02*
Y1974601D01*
X2326000Y1975601D02*
X2330000D01*
X2328000Y1973601D02*
Y1977601D01*
X2316000Y1974601D02*
X2320000D01*
X2318000Y1972601D02*
Y1976601D01*
X534000Y755601D02*
X538000D01*
X536000Y753601D02*
Y757600D01*
X528000Y747601D02*
X532000D01*
X530000Y745601D02*
Y749601D01*
X526000Y737601D02*
X530000D01*
X528000Y735601D02*
Y739601D01*
Y728600D02*
X532000D01*
X530000Y726601D02*
Y730601D01*
X533000Y720601D02*
X537000D01*
X535000Y718600D02*
Y722600D01*
X541000Y715601D02*
X545000D01*
X543000Y713601D02*
Y717600D01*
X551000Y713601D02*
X555000D01*
X553000Y711601D02*
Y715601D01*
X561000Y716600D02*
X565000D01*
X563000Y714601D02*
Y718600D01*
X569000Y722601D02*
X573000D01*
X571000Y720601D02*
Y724601D01*
X573000Y731600D02*
X577000D01*
X575000Y729601D02*
Y733600D01*
X573000Y741600D02*
X577000D01*
X575000Y739601D02*
Y743600D01*
X569000Y750601D02*
X573000D01*
X571000Y748601D02*
Y752601D01*
X562000Y757600D02*
X566000D01*
X564000Y755601D02*
Y759601D01*
X553000Y760601D02*
X557000D01*
X555000Y758601D02*
Y762601D01*
X543000Y759601D02*
X547000D01*
X545000Y757601D02*
Y761601D01*
X434000Y755601D02*
X438000D01*
X436000Y753601D02*
Y757600D01*
X428000Y747601D02*
X432000D01*
X430000Y745601D02*
Y749601D01*
X426000Y737601D02*
X430000D01*
X428000Y735601D02*
Y739601D01*
Y728600D02*
X432000D01*
X430000Y726601D02*
Y730601D01*
X433000Y720601D02*
X437000D01*
X435000Y718600D02*
Y722600D01*
X441000Y715601D02*
X445000D01*
X443000Y713601D02*
Y717600D01*
X451000Y713601D02*
X455000D01*
X453000Y711601D02*
Y715601D01*
X461000Y716600D02*
X465000D01*
X463000Y714601D02*
Y718600D01*
X469000Y722601D02*
X473000D01*
X471000Y720601D02*
Y724601D01*
X473000Y731600D02*
X477000D01*
X475000Y729601D02*
Y733600D01*
X473000Y741600D02*
X477000D01*
X475000Y739601D02*
Y743600D01*
X469000Y750601D02*
X473000D01*
X471000Y748601D02*
Y752601D01*
X462000Y757600D02*
X466000D01*
X464000Y755601D02*
Y759601D01*
X453000Y760601D02*
X457000D01*
X455000Y758601D02*
Y762601D01*
X443000Y759601D02*
X447000D01*
X445000Y757601D02*
Y761601D01*
X355000Y515601D02*
X359000D01*
X357000Y513601D02*
Y517601D01*
X349000Y507601D02*
X353000D01*
X351000Y505601D02*
Y509601D01*
X347000Y497601D02*
X351000D01*
X349000Y495601D02*
Y499601D01*
Y488601D02*
X353000D01*
X351000Y486601D02*
Y490601D01*
X354000Y480601D02*
X358000D01*
X356000Y478601D02*
Y482601D01*
X362000Y475601D02*
X366000D01*
X364000Y473601D02*
Y477601D01*
X372000Y473601D02*
X376000D01*
X374000Y471601D02*
Y475601D01*
X382000Y476600D02*
X386000D01*
X384000Y474600D02*
Y478601D01*
X390000Y482601D02*
X394000D01*
X392000Y480601D02*
Y484601D01*
X394000Y491600D02*
X398000D01*
X396000Y489600D02*
Y493601D01*
X394000Y501600D02*
X398000D01*
X396000Y499601D02*
Y503601D01*
X390000Y510601D02*
X394000D01*
X392000Y508601D02*
Y512601D01*
X383000Y517601D02*
X387000D01*
X385000Y515601D02*
Y519600D01*
X374000Y520601D02*
X378000D01*
X376000Y518601D02*
Y522601D01*
X364000Y519601D02*
X368000D01*
X366000Y517601D02*
Y521601D01*
X614000Y515601D02*
X618000D01*
X616000Y513601D02*
Y517601D01*
X608000Y507601D02*
X612000D01*
X610000Y505601D02*
Y509601D01*
X606000Y497601D02*
X610000D01*
X608000Y495601D02*
Y499601D01*
Y488601D02*
X612000D01*
X610000Y486601D02*
Y490601D01*
X613000Y480601D02*
X617000D01*
X615000Y478601D02*
Y482601D01*
X621000Y475601D02*
X625000D01*
X623000Y473601D02*
Y477601D01*
X631000Y473601D02*
X635000D01*
X633000Y471601D02*
Y475601D01*
X641000Y476600D02*
X645000D01*
X643000Y474600D02*
Y478601D01*
X649000Y482601D02*
X653000D01*
X651000Y480601D02*
Y484601D01*
X653000Y491600D02*
X657000D01*
X655000Y489600D02*
Y493601D01*
X653000Y501600D02*
X657000D01*
X655000Y499601D02*
Y503601D01*
X649000Y510601D02*
X653000D01*
X651000Y508601D02*
Y512601D01*
X642000Y517601D02*
X646000D01*
X644000Y515601D02*
Y519600D01*
X633000Y520601D02*
X637000D01*
X635000Y518601D02*
Y522601D01*
X623000Y519601D02*
X627000D01*
X625000Y517601D02*
Y521601D01*
X2352000Y800601D02*
X2356000D01*
X2354000Y798601D02*
Y802601D01*
X2346000Y792601D02*
X2350000D01*
X2348000Y790601D02*
Y794601D01*
X2344000Y782601D02*
X2348000D01*
X2346000Y780601D02*
Y784601D01*
Y773601D02*
X2350000D01*
X2348000Y771601D02*
Y775601D01*
X2351000Y765601D02*
X2355000D01*
X2353000Y763601D02*
Y767600D01*
X2359000Y760601D02*
X2363000D01*
X2361000Y758601D02*
Y762601D01*
X2369000Y758601D02*
X2373000D01*
X2371000Y756601D02*
Y760601D01*
X2379000Y761601D02*
X2383000D01*
X2381000Y759601D02*
Y763601D01*
X2387000Y767601D02*
X2391000D01*
X2389000Y765601D02*
Y769601D01*
X2391000Y776601D02*
X2395000D01*
X2393000Y774601D02*
Y778601D01*
X2391000Y786601D02*
X2395000D01*
X2393000Y784601D02*
Y788601D01*
X2387000Y795601D02*
X2391000D01*
X2389000Y793601D02*
Y797601D01*
X2380000Y802601D02*
X2384000D01*
X2382000Y800601D02*
Y804601D01*
X2371000Y805601D02*
X2375000D01*
X2373000Y803601D02*
Y807601D01*
X2361000Y804601D02*
X2365000D01*
X2363000Y802601D02*
Y806601D01*
X2252000Y801601D02*
X2256000D01*
X2254000Y799601D02*
Y803601D01*
X2246000Y793601D02*
X2250000D01*
X2248000Y791601D02*
Y795601D01*
X2244000Y783601D02*
X2248000D01*
X2246000Y781601D02*
Y785601D01*
Y774601D02*
X2250000D01*
X2248000Y772601D02*
Y776601D01*
X2251000Y766600D02*
X2255000D01*
X2253000Y764601D02*
Y768600D01*
X2259000Y761601D02*
X2263000D01*
X2261000Y759601D02*
Y763601D01*
X2269000Y759601D02*
X2273000D01*
X2271000Y757601D02*
Y761601D01*
X2279000Y762601D02*
X2283000D01*
X2281000Y760601D02*
Y764601D01*
X2287000Y768601D02*
X2291000D01*
X2289000Y766601D02*
Y770601D01*
X2291000Y777601D02*
X2295000D01*
X2293000Y775601D02*
Y779601D01*
X2291000Y787601D02*
X2295000D01*
X2293000Y785601D02*
Y789601D01*
X2287000Y796601D02*
X2291000D01*
X2289000Y794601D02*
Y798601D01*
X2280000Y803601D02*
X2284000D01*
X2282000Y801601D02*
Y805601D01*
X2271000Y806601D02*
X2275000D01*
X2273000Y804601D02*
Y808601D01*
X2261000Y805601D02*
X2265000D01*
X2263000Y803601D02*
Y807601D01*
X2432000Y561601D02*
X2436000D01*
X2434000Y559601D02*
Y563601D01*
X2426000Y553601D02*
X2430000D01*
X2428000Y551601D02*
Y555601D01*
X2424000Y543601D02*
X2428000D01*
X2426000Y541601D02*
Y545601D01*
Y534601D02*
X2430000D01*
X2428000Y532601D02*
Y536601D01*
X2431000Y526600D02*
X2435000D01*
X2433000Y524601D02*
Y528601D01*
X2439000Y521601D02*
X2443000D01*
X2441000Y519601D02*
Y523601D01*
X2449000Y519601D02*
X2453000D01*
X2451000Y517601D02*
Y521601D01*
X2459000Y522601D02*
X2463000D01*
X2461000Y520601D02*
Y524601D01*
X2467000Y528601D02*
X2471000D01*
X2469000Y526601D02*
Y530601D01*
X2471000Y537601D02*
X2475000D01*
X2473000Y535601D02*
Y539600D01*
X2471000Y547601D02*
X2475000D01*
X2473000Y545601D02*
Y549601D01*
X2467000Y556601D02*
X2471000D01*
X2469000Y554601D02*
Y558601D01*
X2460000Y563601D02*
X2464000D01*
X2462000Y561601D02*
Y565601D01*
X2451000Y566601D02*
X2455000D01*
X2453000Y564601D02*
Y568601D01*
X2441000Y565601D02*
X2445000D01*
X2443000Y563601D02*
Y567601D01*
X2179000Y521601D02*
X2183000D01*
X2181000Y519601D02*
Y523601D01*
X2189000Y519601D02*
X2193000D01*
X2191000Y517601D02*
Y521601D01*
X2199000Y522601D02*
X2203000D01*
X2201000Y520601D02*
Y524601D01*
X2207000Y528601D02*
X2211000D01*
X2209000Y526601D02*
Y530601D01*
X2211000Y537601D02*
X2215000D01*
X2213000Y535601D02*
Y539600D01*
X2211000Y547601D02*
X2215000D01*
X2213000Y545601D02*
Y549601D01*
X2207000Y556601D02*
X2211000D01*
X2209000Y554601D02*
Y558601D01*
X2200000Y563601D02*
X2204000D01*
X2202000Y561601D02*
Y565601D01*
X2191000Y566601D02*
X2195000D01*
X2193000Y564601D02*
Y568601D01*
X2181000Y565601D02*
X2185000D01*
X2183000Y563601D02*
Y567601D01*
X2448351Y299018D02*
X2451351D01*
X2449851Y297518D02*
Y300518D01*
X2456231Y301751D02*
X2459231D01*
X2457731Y300251D02*
Y303251D01*
X2459886Y309148D02*
X2462886D01*
X2461386Y307648D02*
Y310648D01*
X2458091Y317130D02*
X2461091D01*
X2459591Y315630D02*
Y318630D01*
X2451621Y322119D02*
X2454621D01*
X2453121Y320619D02*
Y323619D01*
X2443872Y321756D02*
X2446872D01*
X2445372Y320256D02*
Y323256D01*
X2438273Y316637D02*
X2441273D01*
X2439773Y315137D02*
Y318137D01*
X2436851Y309133D02*
X2439851D01*
X2438351Y307633D02*
Y310634D01*
X2440756Y302346D02*
X2443756D01*
X2442256Y300846D02*
Y303846D01*
X2173436Y298955D02*
X2176436D01*
X2174936Y297455D02*
Y300455D01*
X2181316Y301688D02*
X2184316D01*
X2182816Y300188D02*
Y303188D01*
X2184971Y309085D02*
X2187971D01*
X2186471Y307585D02*
Y310585D01*
X2183176Y317067D02*
X2186176D01*
X2184676Y315567D02*
Y318567D01*
X2176707Y322056D02*
X2179707D01*
X2178206Y320556D02*
Y323556D01*
X2168958Y321693D02*
X2171958D01*
X2170458Y320193D02*
Y323193D01*
X2163358Y316574D02*
X2166358D01*
X2164858Y315074D02*
Y318074D01*
X2161936Y309071D02*
X2164936D01*
X2163436Y307571D02*
Y310571D01*
X2165841Y302283D02*
X2168841D01*
X2167341Y300783D02*
Y303783D01*
X2282000Y2061971D02*
X2288000D01*
X2285000Y2058972D02*
Y2064971D01*
X2282000Y2083286D02*
X2288000D01*
X2285000Y2080286D02*
Y2086286D01*
X2262000Y2061971D02*
X2268000D01*
X2265000Y2058972D02*
Y2064971D01*
X2262000Y2083286D02*
X2268000D01*
X2265000Y2080286D02*
Y2086286D01*
X2242000Y2061971D02*
X2248000D01*
X2245000Y2058972D02*
Y2064971D01*
X2242000Y2083286D02*
X2248000D01*
X2245000Y2080286D02*
Y2086286D01*
X2222000Y2061971D02*
X2228000D01*
X2225000Y2058972D02*
Y2064971D01*
X2222000Y2083286D02*
X2228000D01*
X2225000Y2080286D02*
Y2086286D01*
X2142000Y2061971D02*
X2148000D01*
X2145000Y2058972D02*
Y2064971D01*
X2142000Y2083286D02*
X2148000D01*
X2145000Y2080286D02*
Y2086286D01*
X2162000Y2061971D02*
X2168000D01*
X2165000Y2058972D02*
Y2064971D01*
X2162000Y2083286D02*
X2168000D01*
X2165000Y2080286D02*
Y2086286D01*
X2182000Y2061971D02*
X2188000D01*
X2185000Y2058972D02*
Y2064971D01*
X2182000Y2083286D02*
X2188000D01*
X2185000Y2080286D02*
Y2086286D01*
X2202000Y2061971D02*
X2208000D01*
X2205000Y2058972D02*
Y2064971D01*
X2202000Y2083286D02*
X2208000D01*
X2205000Y2080286D02*
Y2086286D01*
X2122000Y2061971D02*
X2128000D01*
X2125000Y2058972D02*
Y2064971D01*
X2122000Y2083286D02*
X2128000D01*
X2125000Y2080286D02*
Y2086286D01*
X2102000Y2061971D02*
X2108000D01*
X2105000Y2058972D02*
Y2064971D01*
X2102000Y2083286D02*
X2108000D01*
X2105000Y2080286D02*
Y2086286D01*
X2082000Y2061971D02*
X2088000D01*
X2085000Y2058972D02*
Y2064971D01*
X2082000Y2083286D02*
X2088000D01*
X2085000Y2080286D02*
Y2086286D01*
X2542000Y2061713D02*
X2548000D01*
X2545000Y2058713D02*
Y2064713D01*
X2542000Y2083028D02*
X2548000D01*
X2545000Y2080028D02*
Y2086028D01*
X2542000Y2146971D02*
X2548000D01*
X2545000Y2143972D02*
Y2149971D01*
X2542000Y2125657D02*
X2548000D01*
X2545000Y2122657D02*
Y2128657D01*
X2542000Y2104342D02*
X2548000D01*
X2545000Y2101342D02*
Y2107342D01*
X2522000Y2061713D02*
X2528000D01*
X2525000Y2058713D02*
Y2064713D01*
X2522000Y2083028D02*
X2528000D01*
X2525000Y2080028D02*
Y2086028D01*
X2522000Y2125657D02*
X2528000D01*
X2525000Y2122657D02*
Y2128657D01*
X2522000Y2104342D02*
X2528000D01*
X2525000Y2101342D02*
Y2107342D01*
X2502000Y2061713D02*
X2508000D01*
X2505000Y2058713D02*
Y2064713D01*
X2502000Y2083028D02*
X2508000D01*
X2505000Y2080028D02*
Y2086028D01*
X2502000Y2104342D02*
X2508000D01*
X2505000Y2101342D02*
Y2107342D01*
X2482000Y2061713D02*
X2488000D01*
X2485000Y2058713D02*
Y2064713D01*
X2482000Y2083028D02*
X2488000D01*
X2485000Y2080028D02*
Y2086028D01*
X2562000Y2168286D02*
X2568000D01*
X2565000Y2165286D02*
Y2171286D01*
X2562000Y2146971D02*
X2568000D01*
X2565000Y2143972D02*
Y2149971D01*
X2562000Y2061713D02*
X2568000D01*
X2565000Y2058713D02*
Y2064713D01*
X2562000Y2083028D02*
X2568000D01*
X2565000Y2080028D02*
Y2086028D01*
X2562000Y2104342D02*
X2568000D01*
X2565000Y2101342D02*
Y2107342D01*
X2562000Y2125657D02*
X2568000D01*
X2565000Y2122657D02*
Y2128657D01*
X2582000Y2168286D02*
X2588000D01*
X2585000Y2165286D02*
Y2171286D01*
X2582000Y2189601D02*
X2588000D01*
X2585000Y2186601D02*
Y2192601D01*
X2582000Y2146971D02*
X2588000D01*
X2585000Y2143972D02*
Y2149971D01*
X2582000Y2061713D02*
X2588000D01*
X2585000Y2058713D02*
Y2064713D01*
X2582000Y2083028D02*
X2588000D01*
X2585000Y2080028D02*
Y2086028D01*
X2582000Y2104342D02*
X2588000D01*
X2585000Y2101342D02*
Y2107342D01*
X2582000Y2125657D02*
X2588000D01*
X2585000Y2122657D02*
Y2128657D01*
X2602000Y2168286D02*
X2608000D01*
X2605000Y2165286D02*
Y2171286D01*
X2602000Y2189601D02*
X2608000D01*
X2605000Y2186601D02*
Y2192601D01*
X2602000Y2146971D02*
X2608000D01*
X2605000Y2143972D02*
Y2149971D01*
X2602000Y2061713D02*
X2608000D01*
X2605000Y2058713D02*
Y2064713D01*
X2602000Y2083028D02*
X2608000D01*
X2605000Y2080028D02*
Y2086028D01*
X2602000Y2104342D02*
X2608000D01*
X2605000Y2101342D02*
Y2107342D01*
X2602000Y2125657D02*
X2608000D01*
X2605000Y2122657D02*
Y2128657D01*
X2622000Y2168286D02*
X2628000D01*
X2625000Y2165286D02*
Y2171286D01*
X2622000Y2189601D02*
X2628000D01*
X2625000Y2186601D02*
Y2192601D01*
X2622000Y2146971D02*
X2628000D01*
X2625000Y2143972D02*
Y2149971D01*
X2622000Y2061713D02*
X2628000D01*
X2625000Y2058713D02*
Y2064713D01*
X2622000Y2083028D02*
X2628000D01*
X2625000Y2080028D02*
Y2086028D01*
X2622000Y2104342D02*
X2628000D01*
X2625000Y2101342D02*
Y2107342D01*
X2622000Y2125657D02*
X2628000D01*
X2625000Y2122657D02*
Y2128657D01*
X2042000Y1911713D02*
X2048000D01*
X2045000Y1908713D02*
Y1914713D01*
X2042000Y1933028D02*
X2048000D01*
X2045000Y1930028D02*
Y1936028D01*
X2042000Y1975657D02*
X2048000D01*
X2045000Y1972657D02*
Y1978657D01*
X2042000Y1954342D02*
X2048000D01*
X2045000Y1951342D02*
Y1957342D01*
X2022000Y1911713D02*
X2028000D01*
X2025000Y1908713D02*
Y1914713D01*
X2022000Y1933028D02*
X2028000D01*
X2025000Y1930028D02*
Y1936028D01*
X2022000Y1975657D02*
X2028000D01*
X2025000Y1972657D02*
Y1978657D01*
X2022000Y1954342D02*
X2028000D01*
X2025000Y1951342D02*
Y1957342D01*
X2002000Y1911713D02*
X2008000D01*
X2005000Y1908713D02*
Y1914713D01*
X2002000Y1933028D02*
X2008000D01*
X2005000Y1930028D02*
Y1936028D01*
X2002000Y1975657D02*
X2008000D01*
X2005000Y1972657D02*
Y1978657D01*
X2002000Y1954342D02*
X2008000D01*
X2005000Y1951342D02*
Y1957342D01*
X2062000Y1911713D02*
X2068000D01*
X2065000Y1908713D02*
Y1914713D01*
X2062000Y1933028D02*
X2068000D01*
X2065000Y1930028D02*
Y1936028D01*
X2062000Y1954342D02*
X2068000D01*
X2065000Y1951342D02*
Y1957342D01*
X2062000Y1975657D02*
X2068000D01*
X2065000Y1972657D02*
Y1978657D01*
X2082000Y2018286D02*
X2088000D01*
X2085000Y2015286D02*
Y2021286D01*
X2082000Y2039601D02*
X2088000D01*
X2085000Y2036601D02*
Y2042601D01*
X2082000Y1996971D02*
X2088000D01*
X2085000Y1993972D02*
Y1999971D01*
X2082000Y1911713D02*
X2088000D01*
X2085000Y1908713D02*
Y1914713D01*
X2082000Y1933028D02*
X2088000D01*
X2085000Y1930028D02*
Y1936028D01*
X2082000Y1954342D02*
X2088000D01*
X2085000Y1951342D02*
Y1957342D01*
X2082000Y1975657D02*
X2088000D01*
X2085000Y1972657D02*
Y1978657D01*
X2102000Y2018286D02*
X2108000D01*
X2105000Y2015286D02*
Y2021286D01*
X2102000Y2039601D02*
X2108000D01*
X2105000Y2036601D02*
Y2042601D01*
X2102000Y1996971D02*
X2108000D01*
X2105000Y1993972D02*
Y1999971D01*
X2102000Y1911713D02*
X2108000D01*
X2105000Y1908713D02*
Y1914713D01*
X2102000Y1933028D02*
X2108000D01*
X2105000Y1930028D02*
Y1936028D01*
X2102000Y1954342D02*
X2108000D01*
X2105000Y1951342D02*
Y1957342D01*
X2102000Y1975657D02*
X2108000D01*
X2105000Y1972657D02*
Y1978657D01*
X2122000Y2018286D02*
X2128000D01*
X2125000Y2015286D02*
Y2021286D01*
X2122000Y2039601D02*
X2128000D01*
X2125000Y2036601D02*
Y2042601D01*
X2122000Y1996971D02*
X2128000D01*
X2125000Y1993972D02*
Y1999971D01*
X2122000Y1911713D02*
X2128000D01*
X2125000Y1908713D02*
Y1914713D01*
X2122000Y1933028D02*
X2128000D01*
X2125000Y1930028D02*
Y1936028D01*
X2122000Y1954342D02*
X2128000D01*
X2125000Y1951342D02*
Y1957342D01*
X2122000Y1975657D02*
X2128000D01*
X2125000Y1972657D02*
Y1978657D01*
X2682000Y1911713D02*
X2688000D01*
X2685000Y1908713D02*
Y1914713D01*
X2682000Y1933028D02*
X2688000D01*
X2685000Y1930028D02*
Y1936028D01*
X2682000Y2039601D02*
X2688000D01*
X2685000Y2036601D02*
Y2042601D01*
X2682000Y2018286D02*
X2688000D01*
X2685000Y2015286D02*
Y2021286D01*
X2682000Y1996971D02*
X2688000D01*
X2685000Y1993972D02*
Y1999971D01*
X2682000Y1975657D02*
X2688000D01*
X2685000Y1972657D02*
Y1978657D01*
X2682000Y1954342D02*
X2688000D01*
X2685000Y1951342D02*
Y1957342D01*
X2662000Y1911713D02*
X2668000D01*
X2665000Y1908713D02*
Y1914713D01*
X2662000Y1933028D02*
X2668000D01*
X2665000Y1930028D02*
Y1936028D01*
X2662000Y2039601D02*
X2668000D01*
X2665000Y2036601D02*
Y2042601D01*
X2662000Y2018286D02*
X2668000D01*
X2665000Y2015286D02*
Y2021286D01*
X2662000Y1996971D02*
X2668000D01*
X2665000Y1993972D02*
Y1999971D01*
X2662000Y1975657D02*
X2668000D01*
X2665000Y1972657D02*
Y1978657D01*
X2662000Y1954342D02*
X2668000D01*
X2665000Y1951342D02*
Y1957342D01*
X2642000Y1911713D02*
X2648000D01*
X2645000Y1908713D02*
Y1914713D01*
X2642000Y1933028D02*
X2648000D01*
X2645000Y1930028D02*
Y1936028D01*
X2642000Y2039601D02*
X2648000D01*
X2645000Y2036601D02*
Y2042601D01*
X2642000Y2018286D02*
X2648000D01*
X2645000Y2015286D02*
Y2021286D01*
X2642000Y1996971D02*
X2648000D01*
X2645000Y1993972D02*
Y1999971D01*
X2642000Y1975657D02*
X2648000D01*
X2645000Y1972657D02*
Y1978657D01*
X2642000Y1954342D02*
X2648000D01*
X2645000Y1951342D02*
Y1957342D01*
X2622000Y1911713D02*
X2628000D01*
X2625000Y1908713D02*
Y1914713D01*
X2622000Y1933028D02*
X2628000D01*
X2625000Y1930028D02*
Y1936028D01*
X2622000Y2039601D02*
X2628000D01*
X2625000Y2036601D02*
Y2042601D01*
X2622000Y2018286D02*
X2628000D01*
X2625000Y2015286D02*
Y2021286D01*
X2622000Y1996971D02*
X2628000D01*
X2625000Y1993972D02*
Y1999971D01*
X2622000Y1975657D02*
X2628000D01*
X2625000Y1972657D02*
Y1978657D01*
X2622000Y1954342D02*
X2628000D01*
X2625000Y1951342D02*
Y1957342D01*
X2702000Y2018286D02*
X2708000D01*
X2705000Y2015286D02*
Y2021286D01*
X2702000Y2039601D02*
X2708000D01*
X2705000Y2036601D02*
Y2042601D01*
X2702000Y1996971D02*
X2708000D01*
X2705000Y1993972D02*
Y1999971D01*
X2702000Y1911713D02*
X2708000D01*
X2705000Y1908713D02*
Y1914713D01*
X2702000Y1933028D02*
X2708000D01*
X2705000Y1930028D02*
Y1936028D01*
X2702000Y1954342D02*
X2708000D01*
X2705000Y1951342D02*
Y1957342D01*
X2702000Y1975657D02*
X2708000D01*
X2705000Y1972657D02*
Y1978657D01*
X2722000Y2018286D02*
X2728000D01*
X2725000Y2015286D02*
Y2021286D01*
X2722000Y2039601D02*
X2728000D01*
X2725000Y2036601D02*
Y2042601D01*
X2722000Y1996971D02*
X2728000D01*
X2725000Y1993972D02*
Y1999971D01*
X2722000Y1911713D02*
X2728000D01*
X2725000Y1908713D02*
Y1914713D01*
X2722000Y1933028D02*
X2728000D01*
X2725000Y1930028D02*
Y1936028D01*
X2722000Y1954342D02*
X2728000D01*
X2725000Y1951342D02*
Y1957342D01*
X2722000Y1975657D02*
X2728000D01*
X2725000Y1972657D02*
Y1978657D01*
X2742000Y2018286D02*
X2748000D01*
X2745000Y2015286D02*
Y2021286D01*
X2742000Y2039601D02*
X2748000D01*
X2745000Y2036601D02*
Y2042601D01*
X2742000Y1996971D02*
X2748000D01*
X2745000Y1993972D02*
Y1999971D01*
X2742000Y1911713D02*
X2748000D01*
X2745000Y1908713D02*
Y1914713D01*
X2742000Y1933028D02*
X2748000D01*
X2745000Y1930028D02*
Y1936028D01*
X2742000Y1954342D02*
X2748000D01*
X2745000Y1951342D02*
Y1957342D01*
X2742000Y1975657D02*
X2748000D01*
X2745000Y1972657D02*
Y1978657D01*
X2522000Y1911713D02*
X2528000D01*
X2525000Y1908713D02*
Y1914713D01*
X2522000Y1933028D02*
X2528000D01*
X2525000Y1930028D02*
Y1936028D01*
X2522000Y2039601D02*
X2528000D01*
X2525000Y2036601D02*
Y2042601D01*
X2522000Y2018286D02*
X2528000D01*
X2525000Y2015286D02*
Y2021286D01*
X2522000Y1996971D02*
X2528000D01*
X2525000Y1993972D02*
Y1999971D01*
X2522000Y1975657D02*
X2528000D01*
X2525000Y1972657D02*
Y1978657D01*
X2522000Y1954342D02*
X2528000D01*
X2525000Y1951342D02*
Y1957342D01*
X2502000Y1911713D02*
X2508000D01*
X2505000Y1908713D02*
Y1914713D01*
X2502000Y1933028D02*
X2508000D01*
X2505000Y1930028D02*
Y1936028D01*
X2502000Y2039601D02*
X2508000D01*
X2505000Y2036601D02*
Y2042601D01*
X2502000Y2018286D02*
X2508000D01*
X2505000Y2015286D02*
Y2021286D01*
X2502000Y1996971D02*
X2508000D01*
X2505000Y1993972D02*
Y1999971D01*
X2502000Y1975657D02*
X2508000D01*
X2505000Y1972657D02*
Y1978657D01*
X2502000Y1954342D02*
X2508000D01*
X2505000Y1951342D02*
Y1957342D01*
X2482000Y1911713D02*
X2488000D01*
X2485000Y1908713D02*
Y1914713D01*
X2482000Y1933028D02*
X2488000D01*
X2485000Y1930028D02*
Y1936028D01*
X2482000Y2039601D02*
X2488000D01*
X2485000Y2036601D02*
Y2042601D01*
X2482000Y2018286D02*
X2488000D01*
X2485000Y2015286D02*
Y2021286D01*
X2482000Y1996971D02*
X2488000D01*
X2485000Y1993972D02*
Y1999971D01*
X2482000Y1975657D02*
X2488000D01*
X2485000Y1972657D02*
Y1978657D01*
X2482000Y1954342D02*
X2488000D01*
X2485000Y1951342D02*
Y1957342D01*
X2462000Y1911713D02*
X2468000D01*
X2465000Y1908713D02*
Y1914713D01*
X2462000Y1933028D02*
X2468000D01*
X2465000Y1930028D02*
Y1936028D01*
X2462000Y2039601D02*
X2468000D01*
X2465000Y2036601D02*
Y2042601D01*
X2462000Y2018286D02*
X2468000D01*
X2465000Y2015286D02*
Y2021286D01*
X2462000Y1996971D02*
X2468000D01*
X2465000Y1993972D02*
Y1999971D01*
X2462000Y1975657D02*
X2468000D01*
X2465000Y1972657D02*
Y1978657D01*
X2462000Y1954342D02*
X2468000D01*
X2465000Y1951342D02*
Y1957342D01*
X2542000Y2018286D02*
X2548000D01*
X2545000Y2015286D02*
Y2021286D01*
X2542000Y2039601D02*
X2548000D01*
X2545000Y2036601D02*
Y2042601D01*
X2542000Y1996971D02*
X2548000D01*
X2545000Y1993972D02*
Y1999971D01*
X2542000Y1911713D02*
X2548000D01*
X2545000Y1908713D02*
Y1914713D01*
X2542000Y1933028D02*
X2548000D01*
X2545000Y1930028D02*
Y1936028D01*
X2542000Y1954342D02*
X2548000D01*
X2545000Y1951342D02*
Y1957342D01*
X2542000Y1975657D02*
X2548000D01*
X2545000Y1972657D02*
Y1978657D01*
X2562000Y2018286D02*
X2568000D01*
X2565000Y2015286D02*
Y2021286D01*
X2562000Y2039601D02*
X2568000D01*
X2565000Y2036601D02*
Y2042601D01*
X2562000Y1996971D02*
X2568000D01*
X2565000Y1993972D02*
Y1999971D01*
X2562000Y1911713D02*
X2568000D01*
X2565000Y1908713D02*
Y1914713D01*
X2562000Y1933028D02*
X2568000D01*
X2565000Y1930028D02*
Y1936028D01*
X2562000Y1954342D02*
X2568000D01*
X2565000Y1951342D02*
Y1957342D01*
X2562000Y1975657D02*
X2568000D01*
X2565000Y1972657D02*
Y1978657D01*
X2582000Y2018286D02*
X2588000D01*
X2585000Y2015286D02*
Y2021286D01*
X2582000Y2039601D02*
X2588000D01*
X2585000Y2036601D02*
Y2042601D01*
X2582000Y1996971D02*
X2588000D01*
X2585000Y1993972D02*
Y1999971D01*
X2582000Y1911713D02*
X2588000D01*
X2585000Y1908713D02*
Y1914713D01*
X2582000Y1933028D02*
X2588000D01*
X2585000Y1930028D02*
Y1936028D01*
X2582000Y1954342D02*
X2588000D01*
X2585000Y1951342D02*
Y1957342D01*
X2582000Y1975657D02*
X2588000D01*
X2585000Y1972657D02*
Y1978657D01*
X2602000Y2018286D02*
X2608000D01*
X2605000Y2015286D02*
Y2021286D01*
X2602000Y2039601D02*
X2608000D01*
X2605000Y2036601D02*
Y2042601D01*
X2602000Y1996971D02*
X2608000D01*
X2605000Y1993972D02*
Y1999971D01*
X2602000Y1911713D02*
X2608000D01*
X2605000Y1908713D02*
Y1914713D01*
X2602000Y1933028D02*
X2608000D01*
X2605000Y1930028D02*
Y1936028D01*
X2602000Y1954342D02*
X2608000D01*
X2605000Y1951342D02*
Y1957342D01*
X2602000Y1975657D02*
X2608000D01*
X2605000Y1972657D02*
Y1978657D01*
X2202000Y1911713D02*
X2208000D01*
X2205000Y1908713D02*
Y1914713D01*
X2202000Y1933028D02*
X2208000D01*
X2205000Y1930028D02*
Y1936028D01*
X2202000Y2039601D02*
X2208000D01*
X2205000Y2036601D02*
Y2042601D01*
X2202000Y2018286D02*
X2208000D01*
X2205000Y2015286D02*
Y2021286D01*
X2202000Y1996971D02*
X2208000D01*
X2205000Y1993972D02*
Y1999971D01*
X2202000Y1975657D02*
X2208000D01*
X2205000Y1972657D02*
Y1978657D01*
X2202000Y1954342D02*
X2208000D01*
X2205000Y1951342D02*
Y1957342D01*
X2182000Y1911713D02*
X2188000D01*
X2185000Y1908713D02*
Y1914713D01*
X2182000Y1933028D02*
X2188000D01*
X2185000Y1930028D02*
Y1936028D01*
X2182000Y2039601D02*
X2188000D01*
X2185000Y2036601D02*
Y2042601D01*
X2182000Y2018286D02*
X2188000D01*
X2185000Y2015286D02*
Y2021286D01*
X2182000Y1996971D02*
X2188000D01*
X2185000Y1993972D02*
Y1999971D01*
X2182000Y1975657D02*
X2188000D01*
X2185000Y1972657D02*
Y1978657D01*
X2182000Y1954342D02*
X2188000D01*
X2185000Y1951342D02*
Y1957342D01*
X2162000Y1911713D02*
X2168000D01*
X2165000Y1908713D02*
Y1914713D01*
X2162000Y1933028D02*
X2168000D01*
X2165000Y1930028D02*
Y1936028D01*
X2162000Y2039601D02*
X2168000D01*
X2165000Y2036601D02*
Y2042601D01*
X2162000Y2018286D02*
X2168000D01*
X2165000Y2015286D02*
Y2021286D01*
X2162000Y1996971D02*
X2168000D01*
X2165000Y1993972D02*
Y1999971D01*
X2162000Y1975657D02*
X2168000D01*
X2165000Y1972657D02*
Y1978657D01*
X2162000Y1954342D02*
X2168000D01*
X2165000Y1951342D02*
Y1957342D01*
X2142000Y1911713D02*
X2148000D01*
X2145000Y1908713D02*
Y1914713D01*
X2142000Y1933028D02*
X2148000D01*
X2145000Y1930028D02*
Y1936028D01*
X2142000Y2039601D02*
X2148000D01*
X2145000Y2036601D02*
Y2042601D01*
X2142000Y2018286D02*
X2148000D01*
X2145000Y2015286D02*
Y2021286D01*
X2142000Y1996971D02*
X2148000D01*
X2145000Y1993972D02*
Y1999971D01*
X2142000Y1975657D02*
X2148000D01*
X2145000Y1972657D02*
Y1978657D01*
X2142000Y1954342D02*
X2148000D01*
X2145000Y1951342D02*
Y1957342D01*
X2222000Y2018286D02*
X2228000D01*
X2225000Y2015286D02*
Y2021286D01*
X2222000Y2039601D02*
X2228000D01*
X2225000Y2036601D02*
Y2042601D01*
X2222000Y1996971D02*
X2228000D01*
X2225000Y1993972D02*
Y1999971D01*
X2222000Y1911713D02*
X2228000D01*
X2225000Y1908713D02*
Y1914713D01*
X2222000Y1933028D02*
X2228000D01*
X2225000Y1930028D02*
Y1936028D01*
X2222000Y1954342D02*
X2228000D01*
X2225000Y1951342D02*
Y1957342D01*
X2222000Y1975657D02*
X2228000D01*
X2225000Y1972657D02*
Y1978657D01*
X2242000Y2018286D02*
X2248000D01*
X2245000Y2015286D02*
Y2021286D01*
X2242000Y2039601D02*
X2248000D01*
X2245000Y2036601D02*
Y2042601D01*
X2242000Y1996971D02*
X2248000D01*
X2245000Y1993972D02*
Y1999971D01*
X2242000Y1911713D02*
X2248000D01*
X2245000Y1908713D02*
Y1914713D01*
X2242000Y1933028D02*
X2248000D01*
X2245000Y1930028D02*
Y1936028D01*
X2242000Y1954342D02*
X2248000D01*
X2245000Y1951342D02*
Y1957342D01*
X2242000Y1975657D02*
X2248000D01*
X2245000Y1972657D02*
Y1978657D01*
X2262000Y2018286D02*
X2268000D01*
X2265000Y2015286D02*
Y2021286D01*
X2262000Y2039601D02*
X2268000D01*
X2265000Y2036601D02*
Y2042601D01*
X2262000Y1996971D02*
X2268000D01*
X2265000Y1993972D02*
Y1999971D01*
X2262000Y1911713D02*
X2268000D01*
X2265000Y1908713D02*
Y1914713D01*
X2262000Y1933028D02*
X2268000D01*
X2265000Y1930028D02*
Y1936028D01*
X2262000Y1954342D02*
X2268000D01*
X2265000Y1951342D02*
Y1957342D01*
X2262000Y1975657D02*
X2268000D01*
X2265000Y1972657D02*
Y1978657D01*
X2282000Y2018286D02*
X2288000D01*
X2285000Y2015286D02*
Y2021286D01*
X2282000Y2039601D02*
X2288000D01*
X2285000Y2036601D02*
Y2042601D01*
X2282000Y1996971D02*
X2288000D01*
X2285000Y1993972D02*
Y1999971D01*
X2282000Y1911713D02*
X2288000D01*
X2285000Y1908713D02*
Y1914713D01*
X2282000Y1933028D02*
X2288000D01*
X2285000Y1930028D02*
Y1936028D01*
X2282000Y1954342D02*
X2288000D01*
X2285000Y1951342D02*
Y1957342D01*
X2282000Y1975657D02*
X2288000D01*
X2285000Y1972657D02*
Y1978657D01*
X1632000Y551713D02*
X1638000D01*
X1635000Y548713D02*
Y554713D01*
X1632000Y573028D02*
X1638000D01*
X1635000Y570028D02*
Y576028D01*
X1632000Y679601D02*
X1638000D01*
X1635000Y676601D02*
Y682601D01*
X1632000Y658286D02*
X1638000D01*
X1635000Y655286D02*
Y661286D01*
X1632000Y636972D02*
X1638000D01*
X1635000Y633971D02*
Y639972D01*
X1632000Y615657D02*
X1638000D01*
X1635000Y612657D02*
Y618657D01*
X1632000Y594342D02*
X1638000D01*
X1635000Y591342D02*
Y597342D01*
X1612000Y551713D02*
X1618000D01*
X1615000Y548713D02*
Y554713D01*
X1612000Y573028D02*
X1618000D01*
X1615000Y570028D02*
Y576028D01*
X1612000Y679601D02*
X1618000D01*
X1615000Y676601D02*
Y682601D01*
X1612000Y658286D02*
X1618000D01*
X1615000Y655286D02*
Y661286D01*
X1612000Y636972D02*
X1618000D01*
X1615000Y633971D02*
Y639972D01*
X1612000Y615657D02*
X1618000D01*
X1615000Y612657D02*
Y618657D01*
X1612000Y594342D02*
X1618000D01*
X1615000Y591342D02*
Y597342D01*
X1592000Y551713D02*
X1598000D01*
X1595000Y548713D02*
Y554713D01*
X1592000Y573028D02*
X1598000D01*
X1595000Y570028D02*
Y576028D01*
X1592000Y679601D02*
X1598000D01*
X1595000Y676601D02*
Y682601D01*
X1592000Y658286D02*
X1598000D01*
X1595000Y655286D02*
Y661286D01*
X1592000Y636972D02*
X1598000D01*
X1595000Y633971D02*
Y639972D01*
X1592000Y615657D02*
X1598000D01*
X1595000Y612657D02*
Y618657D01*
X1592000Y594342D02*
X1598000D01*
X1595000Y591342D02*
Y597342D01*
X1572000Y551713D02*
X1578000D01*
X1575000Y548713D02*
Y554713D01*
X1572000Y573028D02*
X1578000D01*
X1575000Y570028D02*
Y576028D01*
X1572000Y679601D02*
X1578000D01*
X1575000Y676601D02*
Y682601D01*
X1572000Y658286D02*
X1578000D01*
X1575000Y655286D02*
Y661286D01*
X1572000Y636972D02*
X1578000D01*
X1575000Y633971D02*
Y639972D01*
X1572000Y615657D02*
X1578000D01*
X1575000Y612657D02*
Y618657D01*
X1572000Y594342D02*
X1578000D01*
X1575000Y591342D02*
Y597342D01*
X1652000Y658286D02*
X1658000D01*
X1655000Y655286D02*
Y661286D01*
X1652000Y679601D02*
X1658000D01*
X1655000Y676601D02*
Y682601D01*
X1652000Y636972D02*
X1658000D01*
X1655000Y633971D02*
Y639972D01*
X1652000Y551713D02*
X1658000D01*
X1655000Y548713D02*
Y554713D01*
X1652000Y573028D02*
X1658000D01*
X1655000Y570028D02*
Y576028D01*
X1652000Y594342D02*
X1658000D01*
X1655000Y591342D02*
Y597342D01*
X1652000Y615657D02*
X1658000D01*
X1655000Y612657D02*
Y618657D01*
X1672000Y658286D02*
X1678000D01*
X1675000Y655286D02*
Y661286D01*
X1672000Y679601D02*
X1678000D01*
X1675000Y676601D02*
Y682601D01*
X1672000Y636972D02*
X1678000D01*
X1675000Y633971D02*
Y639972D01*
X1672000Y551713D02*
X1678000D01*
X1675000Y548713D02*
Y554713D01*
X1672000Y573028D02*
X1678000D01*
X1675000Y570028D02*
Y576028D01*
X1672000Y594342D02*
X1678000D01*
X1675000Y591342D02*
Y597342D01*
X1672000Y615657D02*
X1678000D01*
X1675000Y612657D02*
Y618657D01*
X1692000Y658286D02*
X1698000D01*
X1695000Y655286D02*
Y661286D01*
X1692000Y679601D02*
X1698000D01*
X1695000Y676601D02*
Y682601D01*
X1692000Y636972D02*
X1698000D01*
X1695000Y633971D02*
Y639972D01*
X1692000Y551713D02*
X1698000D01*
X1695000Y548713D02*
Y554713D01*
X1692000Y573028D02*
X1698000D01*
X1695000Y570028D02*
Y576028D01*
X1692000Y594342D02*
X1698000D01*
X1695000Y591342D02*
Y597342D01*
X1692000Y615657D02*
X1698000D01*
X1695000Y612657D02*
Y618657D01*
X1712000Y658286D02*
X1718000D01*
X1715000Y655286D02*
Y661286D01*
X1712000Y679601D02*
X1718000D01*
X1715000Y676601D02*
Y682601D01*
X1712000Y636972D02*
X1718000D01*
X1715000Y633971D02*
Y639972D01*
X1712000Y551713D02*
X1718000D01*
X1715000Y548713D02*
Y554713D01*
X1712000Y573028D02*
X1718000D01*
X1715000Y570028D02*
Y576028D01*
X1712000Y594342D02*
X1718000D01*
X1715000Y591342D02*
Y597342D01*
X1712000Y615657D02*
X1718000D01*
X1715000Y612657D02*
Y618657D01*
X2422000Y1424601D02*
X2428000D01*
X2425000Y1421601D02*
Y1427601D01*
X2442000Y1424601D02*
X2448000D01*
X2445000Y1421601D02*
Y1427601D01*
X2482000Y1424601D02*
X2488000D01*
X2485000Y1421601D02*
Y1427601D01*
X2502000Y1424601D02*
X2508000D01*
X2505000Y1421601D02*
Y1427601D01*
X2462000Y1424601D02*
X2468000D01*
X2465000Y1421601D02*
Y1427601D01*
X2402000Y1424601D02*
X2408000D01*
X2405000Y1421601D02*
Y1427601D01*
X2502000Y1467230D02*
X2508000D01*
X2505000Y1464230D02*
Y1470230D01*
X2502000Y1445915D02*
X2508000D01*
X2505000Y1442915D02*
Y1448915D01*
X2482000Y1467230D02*
X2488000D01*
X2485000Y1464230D02*
Y1470230D01*
X2482000Y1445915D02*
X2488000D01*
X2485000Y1442915D02*
Y1448915D01*
X2402000Y1467230D02*
X2408000D01*
X2405000Y1464230D02*
Y1470230D01*
X2402000Y1445915D02*
X2408000D01*
X2405000Y1442915D02*
Y1448915D01*
X2422000Y1467230D02*
X2428000D01*
X2425000Y1464230D02*
Y1470230D01*
X2422000Y1445915D02*
X2428000D01*
X2425000Y1442915D02*
Y1448915D01*
X2442000Y1467230D02*
X2448000D01*
X2445000Y1464230D02*
Y1470230D01*
X2442000Y1445915D02*
X2448000D01*
X2445000Y1442915D02*
Y1448915D01*
X2462000Y1467230D02*
X2468000D01*
X2465000Y1464230D02*
Y1470230D01*
X2462000Y1445915D02*
X2468000D01*
X2465000Y1442915D02*
Y1448915D01*
X2432000Y1544601D02*
X2438000D01*
X2435000Y1541601D02*
Y1547601D01*
X2452000Y1544601D02*
X2458000D01*
X2455000Y1541601D02*
Y1547601D01*
X2492000Y1544601D02*
X2498000D01*
X2495000Y1541601D02*
Y1547601D01*
X2512000Y1544601D02*
X2518000D01*
X2515000Y1541601D02*
Y1547601D01*
X2532000Y1544601D02*
X2538000D01*
X2535000Y1541601D02*
Y1547601D01*
X2472000Y1544601D02*
X2478000D01*
X2475000Y1541601D02*
Y1547601D01*
X2412000Y1544601D02*
X2418000D01*
X2415000Y1541601D02*
Y1547601D01*
X2532000Y1587230D02*
X2538000D01*
X2535000Y1584230D02*
Y1590230D01*
X2532000Y1565915D02*
X2538000D01*
X2535000Y1562915D02*
Y1568915D01*
X2512000Y1587230D02*
X2518000D01*
X2515000Y1584230D02*
Y1590230D01*
X2512000Y1565915D02*
X2518000D01*
X2515000Y1562915D02*
Y1568915D01*
X2492000Y1587230D02*
X2498000D01*
X2495000Y1584230D02*
Y1590230D01*
X2492000Y1565915D02*
X2498000D01*
X2495000Y1562915D02*
Y1568915D01*
X2412000Y1587230D02*
X2418000D01*
X2415000Y1584230D02*
Y1590230D01*
X2412000Y1565915D02*
X2418000D01*
X2415000Y1562915D02*
Y1568915D01*
X2432000Y1587230D02*
X2438000D01*
X2435000Y1584230D02*
Y1590230D01*
X2432000Y1565915D02*
X2438000D01*
X2435000Y1562915D02*
Y1568915D01*
X2452000Y1587230D02*
X2458000D01*
X2455000Y1584230D02*
Y1590230D01*
X2452000Y1565915D02*
X2458000D01*
X2455000Y1562915D02*
Y1568915D01*
X2472000Y1587230D02*
X2478000D01*
X2475000Y1584230D02*
Y1590230D01*
X2472000Y1565915D02*
X2478000D01*
X2475000Y1562915D02*
Y1568915D01*
X2116835Y936313D02*
X2122834D01*
X2119834Y933313D02*
Y939313D01*
X2116835Y893684D02*
X2122834D01*
X2119834Y890684D02*
Y896684D01*
X2116835Y914999D02*
X2122834D01*
X2119834Y911999D02*
Y917999D01*
X2116835Y851055D02*
X2122834D01*
X2119834Y848055D02*
Y854055D01*
X2116835Y872370D02*
X2122834D01*
X2119834Y869370D02*
Y875369D01*
X2137000Y959601D02*
X2143000D01*
X2140000Y956601D02*
Y962601D01*
X2157000Y959601D02*
X2163000D01*
X2160000Y956601D02*
Y962601D01*
X2276835Y959601D02*
X2282835D01*
X2279835Y956601D02*
Y962601D01*
X2197000Y959601D02*
X2203000D01*
X2200000Y956601D02*
Y962601D01*
X2217000Y959601D02*
X2223000D01*
X2220000Y956601D02*
Y962601D01*
X2237000Y959601D02*
X2243000D01*
X2240000Y956601D02*
Y962601D01*
X2257000Y959601D02*
X2263000D01*
X2260000Y956601D02*
Y962601D01*
X2177000Y959601D02*
X2183000D01*
X2180000Y956601D02*
Y962601D01*
X2117000Y959601D02*
X2123000D01*
X2120000Y956601D02*
Y962601D01*
X2257000Y1002230D02*
X2263000D01*
X2260000Y999230D02*
Y1005230D01*
X2257000Y980915D02*
X2263000D01*
X2260000Y977915D02*
Y983915D01*
X2276835Y1002230D02*
X2282835D01*
X2279835Y999230D02*
Y1005230D01*
X2276835Y980915D02*
X2282835D01*
X2279835Y977915D02*
Y983915D01*
X2237000Y1002230D02*
X2243000D01*
X2240000Y999230D02*
Y1005230D01*
X2237000Y980915D02*
X2243000D01*
X2240000Y977915D02*
Y983915D01*
X2217000Y1002230D02*
X2223000D01*
X2220000Y999230D02*
Y1005230D01*
X2217000Y980915D02*
X2223000D01*
X2220000Y977915D02*
Y983915D01*
X2197000Y1002230D02*
X2203000D01*
X2200000Y999230D02*
Y1005230D01*
X2197000Y980915D02*
X2203000D01*
X2200000Y977915D02*
Y983915D01*
X2117000Y1002230D02*
X2123000D01*
X2120000Y999230D02*
Y1005230D01*
X2117000Y980915D02*
X2123000D01*
X2120000Y977915D02*
Y983915D01*
X2137000Y1002230D02*
X2143000D01*
X2140000Y999230D02*
Y1005230D01*
X2137000Y980915D02*
X2143000D01*
X2140000Y977915D02*
Y983915D01*
X2157000Y1002230D02*
X2163000D01*
X2160000Y999230D02*
Y1005230D01*
X2157000Y980915D02*
X2163000D01*
X2160000Y977915D02*
Y983915D01*
X2177000Y1002230D02*
X2183000D01*
X2180000Y999230D02*
Y1005230D01*
X2177000Y980915D02*
X2183000D01*
X2180000Y977915D02*
Y983915D01*
X2117000Y829601D02*
X2123000D01*
X2120000Y826601D02*
Y832600D01*
X2137000Y829601D02*
X2143000D01*
X2140000Y826601D02*
Y832600D01*
X2157000Y829601D02*
X2163000D01*
X2160000Y826601D02*
Y832600D01*
X2177000Y829601D02*
X2183000D01*
X2180000Y826601D02*
Y832600D01*
X2257000Y829601D02*
X2263000D01*
X2260000Y826601D02*
Y832600D01*
X2237000Y829601D02*
X2243000D01*
X2240000Y826601D02*
Y832600D01*
X2217000Y829601D02*
X2223000D01*
X2220000Y826601D02*
Y832600D01*
X2197000Y829601D02*
X2203000D01*
X2200000Y826601D02*
Y832600D01*
X2137000Y851055D02*
X2143000D01*
X2140000Y848055D02*
Y854055D01*
X2137000Y872370D02*
X2143000D01*
X2140000Y869370D02*
Y875369D01*
X2157000Y851055D02*
X2163000D01*
X2160000Y848055D02*
Y854055D01*
X2157000Y872370D02*
X2163000D01*
X2160000Y869370D02*
Y875369D01*
X2177000Y851055D02*
X2183000D01*
X2180000Y848055D02*
Y854055D01*
X2177000Y872370D02*
X2183000D01*
X2180000Y869370D02*
Y875369D01*
X2256835Y851055D02*
X2262834D01*
X2259834Y848055D02*
Y854055D01*
X2256835Y872370D02*
X2262834D01*
X2259834Y869370D02*
Y875369D01*
X2236835Y851055D02*
X2242834D01*
X2239834Y848055D02*
Y854055D01*
X2236835Y872370D02*
X2242834D01*
X2239834Y869370D02*
Y875369D01*
X2217000Y851055D02*
X2223000D01*
X2220000Y848055D02*
Y854055D01*
X2217000Y872370D02*
X2223000D01*
X2220000Y869370D02*
Y875369D01*
X2197000Y851055D02*
X2203000D01*
X2200000Y848055D02*
Y854055D01*
X2197000Y872370D02*
X2203000D01*
X2200000Y869370D02*
Y875369D01*
X2276835Y829601D02*
X2282835D01*
X2279835Y826601D02*
Y832600D01*
X2276835Y851055D02*
X2282835D01*
X2279835Y848055D02*
Y854055D01*
X2276835Y872370D02*
X2282835D01*
X2279835Y869370D02*
Y875369D01*
X2177000Y914999D02*
X2183000D01*
X2180000Y911999D02*
Y917999D01*
X2177000Y936313D02*
X2183000D01*
X2180000Y933313D02*
Y939313D01*
X2157000Y914999D02*
X2163000D01*
X2160000Y911999D02*
Y917999D01*
X2157000Y936313D02*
X2163000D01*
X2160000Y933313D02*
Y939313D01*
X2137000Y914999D02*
X2143000D01*
X2140000Y911999D02*
Y917999D01*
X2137000Y936313D02*
X2143000D01*
X2140000Y933313D02*
Y939313D01*
X2197000Y914999D02*
X2203000D01*
X2200000Y911999D02*
Y917999D01*
X2197000Y936313D02*
X2203000D01*
X2200000Y933313D02*
Y939313D01*
X2217000Y914999D02*
X2223000D01*
X2220000Y911999D02*
Y917999D01*
X2217000Y936313D02*
X2223000D01*
X2220000Y933313D02*
Y939313D01*
X2236835Y914999D02*
X2242834D01*
X2239834Y911999D02*
Y917999D01*
X2236835Y936313D02*
X2242834D01*
X2239834Y933313D02*
Y939313D01*
X2276835Y914999D02*
X2282835D01*
X2279835Y911999D02*
Y917999D01*
X2276835Y936313D02*
X2282835D01*
X2279835Y933313D02*
Y939313D01*
X2256835Y914999D02*
X2262834D01*
X2259834Y911999D02*
Y917999D01*
X2256835Y936313D02*
X2262834D01*
X2259834Y933313D02*
Y939313D01*
X2177000Y893684D02*
X2183000D01*
X2180000Y890684D02*
Y896684D01*
X2256835Y893684D02*
X2262834D01*
X2259834Y890684D02*
Y896684D01*
X2236835Y893684D02*
X2242834D01*
X2239834Y890684D02*
Y896684D01*
X2217000Y893684D02*
X2223000D01*
X2220000Y890684D02*
Y896684D01*
X2197000Y893684D02*
X2203000D01*
X2200000Y890684D02*
Y896684D01*
X2276835Y893684D02*
X2282835D01*
X2279835Y890684D02*
Y896684D01*
X2157000Y893684D02*
X2163000D01*
X2160000Y890684D02*
Y896684D01*
X2137000Y893684D02*
X2143000D01*
X2140000Y890684D02*
Y896684D01*
X2376835Y893684D02*
X2382835D01*
X2379835Y890684D02*
Y896684D01*
X2396835Y893684D02*
X2402835D01*
X2399835Y890684D02*
Y896684D01*
X2576834Y893684D02*
X2582834D01*
X2579835Y890684D02*
Y896684D01*
X2596834Y893684D02*
X2602834D01*
X2599835Y890684D02*
Y896684D01*
X2616834Y893684D02*
X2622834D01*
X2619835Y890684D02*
Y896684D01*
X2636835Y893684D02*
X2642834D01*
X2639835Y890684D02*
Y896684D01*
X2556835Y893684D02*
X2562834D01*
X2559835Y890684D02*
Y896684D01*
X2536835Y893684D02*
X2542835D01*
X2539835Y890684D02*
Y896684D01*
X2516835Y893684D02*
X2522835D01*
X2519835Y890684D02*
Y896684D01*
X2436835Y893684D02*
X2442834D01*
X2439834Y890684D02*
Y896684D01*
X2456835Y893684D02*
X2462834D01*
X2459834Y890684D02*
Y896684D01*
X2476835Y893684D02*
X2482834D01*
X2479834Y890684D02*
Y896684D01*
X2496835Y893684D02*
X2502834D01*
X2499834Y890684D02*
Y896684D01*
X2416835Y893684D02*
X2422834D01*
X2419835Y890684D02*
Y896684D01*
X2356835Y893684D02*
X2362834D01*
X2359834Y890684D02*
Y896684D01*
X2636835Y936313D02*
X2642834D01*
X2639835Y933313D02*
Y939313D01*
X2636835Y914999D02*
X2642834D01*
X2639835Y911999D02*
Y917999D01*
X2616834Y936313D02*
X2622834D01*
X2619835Y933313D02*
Y939313D01*
X2616834Y914999D02*
X2622834D01*
X2619835Y911999D02*
Y917999D01*
X2596834Y936313D02*
X2602834D01*
X2599835Y933313D02*
Y939313D01*
X2596834Y914999D02*
X2602834D01*
X2599835Y911999D02*
Y917999D01*
X2576834Y936313D02*
X2582834D01*
X2579835Y933313D02*
Y939313D01*
X2576834Y914999D02*
X2582834D01*
X2579835Y911999D02*
Y917999D01*
X2496835Y936313D02*
X2502834D01*
X2499834Y933313D02*
Y939313D01*
X2496835Y914999D02*
X2502834D01*
X2499834Y911999D02*
Y917999D01*
X2516835Y936313D02*
X2522835D01*
X2519835Y933313D02*
Y939313D01*
X2516835Y914999D02*
X2522835D01*
X2519835Y911999D02*
Y917999D01*
X2536835Y936313D02*
X2542835D01*
X2539835Y933313D02*
Y939313D01*
X2536835Y914999D02*
X2542835D01*
X2539835Y911999D02*
Y917999D01*
X2556835Y936313D02*
X2562834D01*
X2559835Y933313D02*
Y939313D01*
X2556835Y914999D02*
X2562834D01*
X2559835Y911999D02*
Y917999D01*
X2476835Y936313D02*
X2482834D01*
X2479834Y933313D02*
Y939313D01*
X2476835Y914999D02*
X2482834D01*
X2479834Y911999D02*
Y917999D01*
X2456835Y936313D02*
X2462834D01*
X2459834Y933313D02*
Y939313D01*
X2456835Y914999D02*
X2462834D01*
X2459834Y911999D02*
Y917999D01*
X2436835Y936313D02*
X2442834D01*
X2439834Y933313D02*
Y939313D01*
X2436835Y914999D02*
X2442834D01*
X2439834Y911999D02*
Y917999D01*
X2356835Y936313D02*
X2362834D01*
X2359834Y933313D02*
Y939313D01*
X2356835Y914999D02*
X2362834D01*
X2359834Y911999D02*
Y917999D01*
X2376835Y936313D02*
X2382835D01*
X2379835Y933313D02*
Y939313D01*
X2376835Y914999D02*
X2382835D01*
X2379835Y911999D02*
Y917999D01*
X2396835Y936313D02*
X2402835D01*
X2399835Y933313D02*
Y939313D01*
X2396835Y914999D02*
X2402835D01*
X2399835Y911999D02*
Y917999D01*
X2416835Y936313D02*
X2422834D01*
X2419835Y933313D02*
Y939313D01*
X2416835Y914999D02*
X2422834D01*
X2419835Y911999D02*
Y917999D01*
X2576834Y872370D02*
X2582834D01*
X2579835Y869370D02*
Y875369D01*
X2576834Y851055D02*
X2582834D01*
X2579835Y848055D02*
Y854055D01*
X2596834Y872370D02*
X2602834D01*
X2599835Y869370D02*
Y875369D01*
X2596834Y851055D02*
X2602834D01*
X2599835Y848055D02*
Y854055D01*
X2616834Y872370D02*
X2622834D01*
X2619835Y869370D02*
Y875369D01*
X2616834Y851055D02*
X2622834D01*
X2619835Y848055D02*
Y854055D01*
X2636835Y872370D02*
X2642834D01*
X2639835Y869370D02*
Y875369D01*
X2636835Y851055D02*
X2642834D01*
X2639835Y848055D02*
Y854055D01*
X2556835Y872370D02*
X2562834D01*
X2559835Y869370D02*
Y875369D01*
X2556835Y851055D02*
X2562834D01*
X2559835Y848055D02*
Y854055D01*
X2536835Y872370D02*
X2542835D01*
X2539835Y869370D02*
Y875369D01*
X2536835Y851055D02*
X2542835D01*
X2539835Y848055D02*
Y854055D01*
X2516835Y872370D02*
X2522835D01*
X2519835Y869370D02*
Y875369D01*
X2516835Y851055D02*
X2522835D01*
X2519835Y848055D02*
Y854055D01*
X2577000Y829601D02*
X2583000D01*
X2580000Y826601D02*
Y832600D01*
X2597000Y829601D02*
X2603000D01*
X2600000Y826601D02*
Y832600D01*
X2617000Y829601D02*
X2623000D01*
X2620000Y826601D02*
Y832600D01*
X2637000Y829601D02*
X2643000D01*
X2640000Y826601D02*
Y832600D01*
X2557000Y829601D02*
X2563000D01*
X2560000Y826601D02*
Y832600D01*
X2537000Y829601D02*
X2543000D01*
X2540000Y826601D02*
Y832600D01*
X2517000Y829601D02*
X2523000D01*
X2520000Y826601D02*
Y832600D01*
X2436835Y872370D02*
X2442834D01*
X2439834Y869370D02*
Y875369D01*
X2436835Y851055D02*
X2442834D01*
X2439834Y848055D02*
Y854055D01*
X2456835Y872370D02*
X2462834D01*
X2459834Y869370D02*
Y875369D01*
X2456835Y851055D02*
X2462834D01*
X2459834Y848055D02*
Y854055D01*
X2476835Y872370D02*
X2482834D01*
X2479834Y869370D02*
Y875369D01*
X2476835Y851055D02*
X2482834D01*
X2479834Y848055D02*
Y854055D01*
X2496835Y872370D02*
X2502834D01*
X2499834Y869370D02*
Y875369D01*
X2496835Y851055D02*
X2502834D01*
X2499834Y848055D02*
Y854055D01*
X2416835Y872370D02*
X2422834D01*
X2419835Y869370D02*
Y875369D01*
X2416835Y851055D02*
X2422834D01*
X2419835Y848055D02*
Y854055D01*
X2396835Y872370D02*
X2402835D01*
X2399835Y869370D02*
Y875369D01*
X2396835Y851055D02*
X2402835D01*
X2399835Y848055D02*
Y854055D01*
X2376835Y872370D02*
X2382835D01*
X2379835Y869370D02*
Y875369D01*
X2376835Y851055D02*
X2382835D01*
X2379835Y848055D02*
Y854055D01*
X2356835Y872370D02*
X2362834D01*
X2359834Y869370D02*
Y875369D01*
X2356835Y851055D02*
X2362834D01*
X2359834Y848055D02*
Y854055D01*
X2437000Y829601D02*
X2443000D01*
X2440000Y826601D02*
Y832600D01*
X2457000Y829601D02*
X2463000D01*
X2460000Y826601D02*
Y832600D01*
X2477000Y829601D02*
X2483000D01*
X2480000Y826601D02*
Y832600D01*
X2497000Y829601D02*
X2503000D01*
X2500000Y826601D02*
Y832600D01*
X2417000Y829601D02*
X2423000D01*
X2420000Y826601D02*
Y832600D01*
X2397000Y829601D02*
X2403000D01*
X2400000Y826601D02*
Y832600D01*
X2377000Y829601D02*
X2383000D01*
X2380000Y826601D02*
Y832600D01*
X2357000Y829601D02*
X2363000D01*
X2360000Y826601D02*
Y832600D01*
X2716834Y198684D02*
X2722834D01*
X2719835Y195684D02*
Y201684D01*
X2716834Y177369D02*
X2722834D01*
X2719835Y174370D02*
Y180369D01*
X2716834Y156055D02*
X2722834D01*
X2719835Y153055D02*
Y159055D01*
X2736834Y198684D02*
X2742834D01*
X2739835Y195684D02*
Y201684D01*
X2736834Y177369D02*
X2742834D01*
X2739835Y174370D02*
Y180369D01*
X2736834Y156055D02*
X2742834D01*
X2739835Y153055D02*
Y159055D01*
X2756834Y198684D02*
X2762834D01*
X2759835Y195684D02*
Y201684D01*
X2756834Y177369D02*
X2762834D01*
X2759835Y174370D02*
Y180369D01*
X2756834Y156055D02*
X2762834D01*
X2759835Y153055D02*
Y159055D01*
X2696835Y198684D02*
X2702834D01*
X2699835Y195684D02*
Y201684D01*
X2696835Y177369D02*
X2702834D01*
X2699835Y174370D02*
Y180369D01*
X2696835Y156055D02*
X2702834D01*
X2699835Y153055D02*
Y159055D01*
X2676835Y198684D02*
X2682834D01*
X2679835Y195684D02*
Y201684D01*
X2676835Y177369D02*
X2682834D01*
X2679835Y174370D02*
Y180369D01*
X2676835Y156055D02*
X2682834D01*
X2679835Y153055D02*
Y159055D01*
X2656835Y198684D02*
X2662834D01*
X2659835Y195684D02*
Y201684D01*
X2656835Y177369D02*
X2662834D01*
X2659835Y174370D02*
Y180369D01*
X2656835Y156055D02*
X2662834D01*
X2659835Y153055D02*
Y159055D01*
X2636835Y198684D02*
X2642834D01*
X2639835Y195684D02*
Y201684D01*
X2636835Y177369D02*
X2642834D01*
X2639835Y174370D02*
Y180369D01*
X2636835Y156055D02*
X2642834D01*
X2639835Y153055D02*
Y159055D01*
X2717000Y134601D02*
X2723000D01*
X2720000Y131601D02*
Y137601D01*
X2737000Y134601D02*
X2743000D01*
X2740000Y131601D02*
Y137601D01*
X2757000Y134601D02*
X2763000D01*
X2760000Y131601D02*
Y137601D01*
X2697000Y134601D02*
X2703000D01*
X2700000Y131601D02*
Y137601D01*
X2677000Y134601D02*
X2683000D01*
X2680000Y131601D02*
Y137601D01*
X2657000Y134601D02*
X2663000D01*
X2660000Y131601D02*
Y137601D01*
X2637000Y134601D02*
X2643000D01*
X2640000Y131601D02*
Y137601D01*
X2637000Y399600D02*
X2643000D01*
X2640000Y396601D02*
Y402601D01*
X2637000Y419600D02*
X2643000D01*
X2640000Y416600D02*
Y422601D01*
X2637000Y439600D02*
X2643000D01*
X2640000Y436600D02*
Y442601D01*
X2637000Y459601D02*
X2643000D01*
X2640000Y456601D02*
Y462601D01*
X2637000Y379601D02*
X2643000D01*
X2640000Y376601D02*
Y382601D01*
X2637000Y359601D02*
X2643000D01*
X2640000Y356601D02*
Y362601D01*
X2637000Y339601D02*
X2643000D01*
X2640000Y336601D02*
Y342601D01*
X2637000Y319601D02*
X2643000D01*
X2640000Y316601D02*
Y322601D01*
X2612000Y399600D02*
X2618000D01*
X2615000Y396601D02*
Y402601D01*
X2612000Y419600D02*
X2618000D01*
X2615000Y416600D02*
Y422601D01*
X2612000Y439600D02*
X2618000D01*
X2615000Y436600D02*
Y442601D01*
X2612000Y459601D02*
X2618000D01*
X2615000Y456601D02*
Y462601D01*
X2612000Y379601D02*
X2618000D01*
X2615000Y376601D02*
Y382601D01*
X2612000Y359601D02*
X2618000D01*
X2615000Y356601D02*
Y362601D01*
X2612000Y339601D02*
X2618000D01*
X2615000Y336601D02*
Y342601D01*
X2612000Y319601D02*
X2618000D01*
X2615000Y316601D02*
Y322601D01*
X2382166Y193944D02*
X2388166D01*
X2385166Y190944D02*
Y196944D01*
X2402166Y193944D02*
X2408166D01*
X2405166Y190944D02*
Y196944D01*
X2422166Y193944D02*
X2428166D01*
X2425166Y190944D02*
Y196944D01*
X2442166Y193944D02*
X2448166D01*
X2445166Y190944D02*
Y196944D01*
X2522166Y193944D02*
X2528166D01*
X2525166Y190944D02*
Y196944D01*
X2502166Y193944D02*
X2508166D01*
X2505166Y190944D02*
Y196944D01*
X2482166Y193944D02*
X2488166D01*
X2485166Y190944D02*
Y196944D01*
X2462166Y193944D02*
X2468166D01*
X2465166Y190944D02*
Y196944D01*
X2116685Y191142D02*
X2122685D01*
X2119685Y188142D02*
Y194142D01*
X2136685Y191142D02*
X2142685D01*
X2139685Y188142D02*
Y194142D01*
X2156685Y191142D02*
X2162685D01*
X2159685Y188142D02*
Y194142D01*
X2176685Y191142D02*
X2182685D01*
X2179685Y188142D02*
Y194142D01*
X2256685Y191142D02*
X2262685D01*
X2259685Y188142D02*
Y194142D01*
X2236685Y191142D02*
X2242685D01*
X2239685Y188142D02*
Y194142D01*
X2216685Y191142D02*
X2222685D01*
X2219685Y188142D02*
Y194142D01*
X2196685Y191142D02*
X2202685D01*
X2199685Y188142D02*
Y194142D01*
X2382000Y215399D02*
X2388000D01*
X2385000Y212399D02*
Y218399D01*
X2382000Y236713D02*
X2388000D01*
X2385000Y233713D02*
Y239713D01*
X2382000Y258028D02*
X2388000D01*
X2385000Y255028D02*
Y261028D01*
X2382000Y279342D02*
X2388000D01*
X2385000Y276342D02*
Y282342D01*
X2402000Y215399D02*
X2408000D01*
X2405000Y212399D02*
Y218399D01*
X2402000Y236713D02*
X2408000D01*
X2405000Y233713D02*
Y239713D01*
X2402000Y258028D02*
X2408000D01*
X2405000Y255028D02*
Y261028D01*
X2402000Y279342D02*
X2408000D01*
X2405000Y276342D02*
Y282342D01*
X2422000Y215399D02*
X2428000D01*
X2425000Y212399D02*
Y218399D01*
X2422000Y236713D02*
X2428000D01*
X2425000Y233713D02*
Y239713D01*
X2422000Y258028D02*
X2428000D01*
X2425000Y255028D02*
Y261028D01*
X2422000Y279342D02*
X2428000D01*
X2425000Y276342D02*
Y282342D01*
X2442000Y215399D02*
X2448000D01*
X2445000Y212399D02*
Y218399D01*
X2442000Y258028D02*
X2448000D01*
X2445000Y255028D02*
Y261028D01*
X2442000Y279342D02*
X2448000D01*
X2445000Y276342D02*
Y282342D01*
X2522000Y215399D02*
X2528000D01*
X2525000Y212399D02*
Y218399D01*
X2522000Y236713D02*
X2528000D01*
X2525000Y233713D02*
Y239713D01*
X2522000Y279342D02*
X2528000D01*
X2525000Y276342D02*
Y282342D01*
X2522000Y258028D02*
X2528000D01*
X2525000Y255028D02*
Y261028D01*
X2502000Y215399D02*
X2508000D01*
X2505000Y212399D02*
Y218399D01*
X2502000Y236713D02*
X2508000D01*
X2505000Y233713D02*
Y239713D01*
X2502000Y279342D02*
X2508000D01*
X2505000Y276342D02*
Y282342D01*
X2502000Y258028D02*
X2508000D01*
X2505000Y255028D02*
Y261028D01*
X2482000Y215399D02*
X2488000D01*
X2485000Y212399D02*
Y218399D01*
X2482000Y236713D02*
X2488000D01*
X2485000Y233713D02*
Y239713D01*
X2482000Y279342D02*
X2488000D01*
X2485000Y276342D02*
Y282342D01*
X2482000Y258028D02*
X2488000D01*
X2485000Y255028D02*
Y261028D01*
X2462000Y215399D02*
X2468000D01*
X2465000Y212399D02*
Y218399D01*
X2462000Y236713D02*
X2468000D01*
X2465000Y233713D02*
Y239713D01*
X2462000Y279342D02*
X2468000D01*
X2465000Y276342D02*
Y282342D01*
X2462000Y258028D02*
X2468000D01*
X2465000Y255028D02*
Y261028D01*
X2442000Y370915D02*
X2448000D01*
X2445000Y367915D02*
Y373915D01*
X2442000Y349601D02*
X2448000D01*
X2445000Y346601D02*
Y352601D01*
X2442000Y392230D02*
X2448000D01*
X2445000Y389230D02*
Y395230D01*
X2442000Y498802D02*
X2448000D01*
X2445000Y495802D02*
Y501802D01*
X2442000Y477488D02*
X2448000D01*
X2445000Y474488D02*
Y480488D01*
X2442000Y456173D02*
X2448000D01*
X2445000Y453173D02*
Y459173D01*
X2442000Y434859D02*
X2448000D01*
X2445000Y431859D02*
Y437859D01*
X2442000Y413544D02*
X2448000D01*
X2445000Y410544D02*
Y416544D01*
X2422000Y370915D02*
X2428000D01*
X2425000Y367915D02*
Y373915D01*
X2422000Y349601D02*
X2428000D01*
X2425000Y346601D02*
Y352601D01*
X2422000Y392230D02*
X2428000D01*
X2425000Y389230D02*
Y395230D01*
X2422000Y498802D02*
X2428000D01*
X2425000Y495802D02*
Y501802D01*
X2422000Y477488D02*
X2428000D01*
X2425000Y474488D02*
Y480488D01*
X2422000Y456173D02*
X2428000D01*
X2425000Y453173D02*
Y459173D01*
X2422000Y434859D02*
X2428000D01*
X2425000Y431859D02*
Y437859D01*
X2422000Y413544D02*
X2428000D01*
X2425000Y410544D02*
Y416544D01*
X2402000Y370915D02*
X2408000D01*
X2405000Y367915D02*
Y373915D01*
X2402000Y349601D02*
X2408000D01*
X2405000Y346601D02*
Y352601D01*
X2402000Y392230D02*
X2408000D01*
X2405000Y389230D02*
Y395230D01*
X2402000Y498802D02*
X2408000D01*
X2405000Y495802D02*
Y501802D01*
X2402000Y477488D02*
X2408000D01*
X2405000Y474488D02*
Y480488D01*
X2402000Y456173D02*
X2408000D01*
X2405000Y453173D02*
Y459173D01*
X2402000Y434859D02*
X2408000D01*
X2405000Y431859D02*
Y437859D01*
X2402000Y413544D02*
X2408000D01*
X2405000Y410544D02*
Y416544D01*
X2382000Y370915D02*
X2388000D01*
X2385000Y367915D02*
Y373915D01*
X2382000Y349601D02*
X2388000D01*
X2385000Y346601D02*
Y352601D01*
X2382000Y392230D02*
X2388000D01*
X2385000Y389230D02*
Y395230D01*
X2382000Y498802D02*
X2388000D01*
X2385000Y495802D02*
Y501802D01*
X2382000Y477488D02*
X2388000D01*
X2385000Y474488D02*
Y480488D01*
X2382000Y456173D02*
X2388000D01*
X2385000Y453173D02*
Y459173D01*
X2382000Y434859D02*
X2388000D01*
X2385000Y431859D02*
Y437859D01*
X2382000Y413544D02*
X2388000D01*
X2385000Y410544D02*
Y416544D01*
X2462000Y477488D02*
X2468000D01*
X2465000Y474488D02*
Y480488D01*
X2462000Y498802D02*
X2468000D01*
X2465000Y495802D02*
Y501802D01*
X2462000Y456173D02*
X2468000D01*
X2465000Y453173D02*
Y459173D01*
X2462000Y349601D02*
X2468000D01*
X2465000Y346601D02*
Y352601D01*
X2462000Y370915D02*
X2468000D01*
X2465000Y367915D02*
Y373915D01*
X2462000Y392230D02*
X2468000D01*
X2465000Y389230D02*
Y395230D01*
X2462000Y413544D02*
X2468000D01*
X2465000Y410544D02*
Y416544D01*
X2462000Y434859D02*
X2468000D01*
X2465000Y431859D02*
Y437859D01*
X2482000Y477488D02*
X2488000D01*
X2485000Y474488D02*
Y480488D01*
X2482000Y498802D02*
X2488000D01*
X2485000Y495802D02*
Y501802D01*
X2482000Y456173D02*
X2488000D01*
X2485000Y453173D02*
Y459173D01*
X2482000Y349601D02*
X2488000D01*
X2485000Y346601D02*
Y352601D01*
X2482000Y370915D02*
X2488000D01*
X2485000Y367915D02*
Y373915D01*
X2482000Y392230D02*
X2488000D01*
X2485000Y389230D02*
Y395230D01*
X2482000Y413544D02*
X2488000D01*
X2485000Y410544D02*
Y416544D01*
X2482000Y434859D02*
X2488000D01*
X2485000Y431859D02*
Y437859D01*
X2502000Y477488D02*
X2508000D01*
X2505000Y474488D02*
Y480488D01*
X2502000Y498802D02*
X2508000D01*
X2505000Y495802D02*
Y501802D01*
X2502000Y456173D02*
X2508000D01*
X2505000Y453173D02*
Y459173D01*
X2502000Y349601D02*
X2508000D01*
X2505000Y346601D02*
Y352601D01*
X2502000Y370915D02*
X2508000D01*
X2505000Y367915D02*
Y373915D01*
X2502000Y392230D02*
X2508000D01*
X2505000Y389230D02*
Y395230D01*
X2502000Y413544D02*
X2508000D01*
X2505000Y410544D02*
Y416544D01*
X2502000Y434859D02*
X2508000D01*
X2505000Y431859D02*
Y437859D01*
X2522000Y477488D02*
X2528000D01*
X2525000Y474488D02*
Y480488D01*
X2522000Y498802D02*
X2528000D01*
X2525000Y495802D02*
Y501802D01*
X2522000Y456173D02*
X2528000D01*
X2525000Y453173D02*
Y459173D01*
X2522000Y349601D02*
X2528000D01*
X2525000Y346601D02*
Y352601D01*
X2522000Y370915D02*
X2528000D01*
X2525000Y367915D02*
Y373915D01*
X2522000Y392230D02*
X2528000D01*
X2525000Y389230D02*
Y395230D01*
X2522000Y413544D02*
X2528000D01*
X2525000Y410544D02*
Y416544D01*
X2522000Y434859D02*
X2528000D01*
X2525000Y431859D02*
Y437859D01*
X2537000Y665399D02*
X2543000D01*
X2540000Y662399D02*
Y668399D01*
X2517000Y665399D02*
X2523000D01*
X2520000Y662399D02*
Y668399D01*
X2497000Y665399D02*
X2503000D01*
X2500000Y662399D02*
Y668399D01*
X2477000Y665399D02*
X2483000D01*
X2480000Y662399D02*
Y668399D01*
X2417000Y665399D02*
X2423000D01*
X2420000Y662399D02*
Y668399D01*
X2437000Y665399D02*
X2443000D01*
X2440000Y662399D02*
Y668399D01*
X2457000Y665399D02*
X2463000D01*
X2460000Y662399D02*
Y668399D01*
X2397000Y665399D02*
X2403000D01*
X2400000Y662399D02*
Y668399D01*
X2377000Y665399D02*
X2383000D01*
X2380000Y662399D02*
Y668399D01*
X2357000Y665399D02*
X2363000D01*
X2360000Y662399D02*
Y668399D01*
X2337000Y665399D02*
X2343000D01*
X2340000Y662399D02*
Y668399D01*
X2277000Y665399D02*
X2283000D01*
X2280000Y662399D02*
Y668399D01*
X2297000Y665399D02*
X2303000D01*
X2300000Y662399D02*
Y668399D01*
X2317000Y665399D02*
X2323000D01*
X2320000Y662399D02*
Y668399D01*
X2197000Y643286D02*
X2203000D01*
X2200000Y640286D02*
Y646286D01*
X2197000Y665399D02*
X2203000D01*
X2200000Y662399D02*
Y668399D01*
X2197000Y621972D02*
X2203000D01*
X2200000Y618971D02*
Y624972D01*
X2197000Y600657D02*
X2203000D01*
X2200000Y597657D02*
Y603657D01*
X2217000Y643286D02*
X2223000D01*
X2220000Y640286D02*
Y646286D01*
X2217000Y665399D02*
X2223000D01*
X2220000Y662399D02*
Y668399D01*
X2217000Y621972D02*
X2223000D01*
X2220000Y618971D02*
Y624972D01*
X2217000Y600657D02*
X2223000D01*
X2220000Y597657D02*
Y603657D01*
X2237000Y643286D02*
X2243000D01*
X2240000Y640286D02*
Y646286D01*
X2237000Y665399D02*
X2243000D01*
X2240000Y662399D02*
Y668399D01*
X2237000Y621972D02*
X2243000D01*
X2240000Y618971D02*
Y624972D01*
X2237000Y600657D02*
X2243000D01*
X2240000Y597657D02*
Y603657D01*
X2257000Y643286D02*
X2263000D01*
X2260000Y640286D02*
Y646286D01*
X2257000Y665399D02*
X2263000D01*
X2260000Y662399D02*
Y668399D01*
X2257000Y621972D02*
X2263000D01*
X2260000Y618971D02*
Y624972D01*
X2257000Y600657D02*
X2263000D01*
X2260000Y597657D02*
Y603657D01*
X2177000Y665399D02*
X2183000D01*
X2180000Y662399D02*
Y668399D01*
X2177000Y643286D02*
X2183000D01*
X2180000Y640286D02*
Y646286D01*
X2177000Y621972D02*
X2183000D01*
X2180000Y618971D02*
Y624972D01*
X2177000Y600657D02*
X2183000D01*
X2180000Y597657D02*
Y603657D01*
X2157000Y665399D02*
X2163000D01*
X2160000Y662399D02*
Y668399D01*
X2157000Y643286D02*
X2163000D01*
X2160000Y640286D02*
Y646286D01*
X2157000Y621972D02*
X2163000D01*
X2160000Y618971D02*
Y624972D01*
X2157000Y600657D02*
X2163000D01*
X2160000Y597657D02*
Y603657D01*
X2137000Y665399D02*
X2143000D01*
X2140000Y662399D02*
Y668399D01*
X2137000Y643286D02*
X2143000D01*
X2140000Y640286D02*
Y646286D01*
X2137000Y621972D02*
X2143000D01*
X2140000Y618971D02*
Y624972D01*
X2137000Y600657D02*
X2143000D01*
X2140000Y597657D02*
Y603657D01*
X2117000Y665399D02*
X2123000D01*
X2120000Y662399D02*
Y668399D01*
X2117000Y643286D02*
X2123000D01*
X2120000Y640286D02*
Y646286D01*
X2117000Y621972D02*
X2123000D01*
X2120000Y618971D02*
Y624972D01*
X2197000Y254084D02*
X2203000D01*
X2200000Y251084D02*
Y257084D01*
X2197000Y275399D02*
X2203000D01*
X2200000Y272399D02*
Y278399D01*
X2197000Y232770D02*
X2203000D01*
X2200000Y229770D02*
Y235770D01*
X2197000Y211455D02*
X2203000D01*
X2200000Y208455D02*
Y214455D01*
X2217000Y254084D02*
X2223000D01*
X2220000Y251084D02*
Y257084D01*
X2217000Y275399D02*
X2223000D01*
X2220000Y272399D02*
Y278399D01*
X2217000Y232770D02*
X2223000D01*
X2220000Y229770D02*
Y235770D01*
X2217000Y211455D02*
X2223000D01*
X2220000Y208455D02*
Y214455D01*
X2237000Y254084D02*
X2243000D01*
X2240000Y251084D02*
Y257084D01*
X2237000Y275399D02*
X2243000D01*
X2240000Y272399D02*
Y278399D01*
X2237000Y232770D02*
X2243000D01*
X2240000Y229770D02*
Y235770D01*
X2237000Y211455D02*
X2243000D01*
X2240000Y208455D02*
Y214455D01*
X2257000Y254084D02*
X2263000D01*
X2260000Y251084D02*
Y257084D01*
X2257000Y275399D02*
X2263000D01*
X2260000Y272399D02*
Y278399D01*
X2257000Y232770D02*
X2263000D01*
X2260000Y229770D02*
Y235770D01*
X2257000Y211455D02*
X2263000D01*
X2260000Y208455D02*
Y214455D01*
X2177000Y275399D02*
X2183000D01*
X2180000Y272399D02*
Y278399D01*
X2177000Y254084D02*
X2183000D01*
X2180000Y251084D02*
Y257084D01*
X2177000Y232770D02*
X2183000D01*
X2180000Y229770D02*
Y235770D01*
X2177000Y211455D02*
X2183000D01*
X2180000Y208455D02*
Y214455D01*
X2157000Y275399D02*
X2163000D01*
X2160000Y272399D02*
Y278399D01*
X2157000Y254084D02*
X2163000D01*
X2160000Y251084D02*
Y257084D01*
X2157000Y232770D02*
X2163000D01*
X2160000Y229770D02*
Y235770D01*
X2157000Y211455D02*
X2163000D01*
X2160000Y208455D02*
Y214455D01*
X2137000Y275399D02*
X2143000D01*
X2140000Y272399D02*
Y278399D01*
X2137000Y254084D02*
X2143000D01*
X2140000Y251084D02*
Y257084D01*
X2137000Y232770D02*
X2143000D01*
X2140000Y229770D02*
Y235770D01*
X2137000Y211455D02*
X2143000D01*
X2140000Y208455D02*
Y214455D01*
X2117000Y275399D02*
X2123000D01*
X2120000Y272399D02*
Y278399D01*
X2117000Y254084D02*
X2123000D01*
X2120000Y251084D02*
Y257084D01*
X2117000Y232770D02*
X2123000D01*
X2120000Y229770D02*
Y235770D01*
X2117000Y211455D02*
X2123000D01*
X2120000Y208455D02*
Y214455D01*
X2257000Y424859D02*
X2263000D01*
X2260000Y421859D02*
Y427859D01*
X2257000Y403544D02*
X2263000D01*
X2260000Y400544D02*
Y406544D01*
X2257000Y382230D02*
X2263000D01*
X2260000Y379230D02*
Y385230D01*
X2257000Y360915D02*
X2263000D01*
X2260000Y357915D02*
Y363915D01*
X2257000Y339601D02*
X2263000D01*
X2260000Y336601D02*
Y342601D01*
X2257000Y446173D02*
X2263000D01*
X2260000Y443173D02*
Y449173D01*
X2257000Y488802D02*
X2263000D01*
X2260000Y485802D02*
Y491802D01*
X2257000Y467488D02*
X2263000D01*
X2260000Y464488D02*
Y470488D01*
X2237000Y424859D02*
X2243000D01*
X2240000Y421859D02*
Y427859D01*
X2237000Y403544D02*
X2243000D01*
X2240000Y400544D02*
Y406544D01*
X2237000Y382230D02*
X2243000D01*
X2240000Y379230D02*
Y385230D01*
X2237000Y360915D02*
X2243000D01*
X2240000Y357915D02*
Y363915D01*
X2237000Y339601D02*
X2243000D01*
X2240000Y336601D02*
Y342601D01*
X2237000Y446173D02*
X2243000D01*
X2240000Y443173D02*
Y449173D01*
X2237000Y488802D02*
X2243000D01*
X2240000Y485802D02*
Y491802D01*
X2237000Y467488D02*
X2243000D01*
X2240000Y464488D02*
Y470488D01*
X2217000Y424859D02*
X2223000D01*
X2220000Y421859D02*
Y427859D01*
X2217000Y403544D02*
X2223000D01*
X2220000Y400544D02*
Y406544D01*
X2217000Y382230D02*
X2223000D01*
X2220000Y379230D02*
Y385230D01*
X2217000Y360915D02*
X2223000D01*
X2220000Y357915D02*
Y363915D01*
X2217000Y339601D02*
X2223000D01*
X2220000Y336601D02*
Y342601D01*
X2217000Y446173D02*
X2223000D01*
X2220000Y443173D02*
Y449173D01*
X2217000Y488802D02*
X2223000D01*
X2220000Y485802D02*
Y491802D01*
X2217000Y467488D02*
X2223000D01*
X2220000Y464488D02*
Y470488D01*
X2197000Y424859D02*
X2203000D01*
X2200000Y421859D02*
Y427859D01*
X2197000Y403544D02*
X2203000D01*
X2200000Y400544D02*
Y406544D01*
X2197000Y382230D02*
X2203000D01*
X2200000Y379230D02*
Y385230D01*
X2197000Y360915D02*
X2203000D01*
X2200000Y357915D02*
Y363915D01*
X2197000Y339601D02*
X2203000D01*
X2200000Y336601D02*
Y342601D01*
X2197000Y446173D02*
X2203000D01*
X2200000Y443173D02*
Y449173D01*
X2197000Y488802D02*
X2203000D01*
X2200000Y485802D02*
Y491802D01*
X2197000Y467488D02*
X2203000D01*
X2200000Y464488D02*
Y470488D01*
X2117000Y403544D02*
X2123000D01*
X2120000Y400544D02*
Y406544D01*
X2117000Y424859D02*
X2123000D01*
X2120000Y421859D02*
Y427859D01*
X2117000Y446173D02*
X2123000D01*
X2120000Y443173D02*
Y449173D01*
X2117000Y467488D02*
X2123000D01*
X2120000Y464488D02*
Y470488D01*
X2117000Y382230D02*
X2123000D01*
X2120000Y379230D02*
Y385230D01*
X2117000Y339601D02*
X2123000D01*
X2120000Y336601D02*
Y342601D01*
X2117000Y360915D02*
X2123000D01*
X2120000Y357915D02*
Y363915D01*
X2137000Y403544D02*
X2143000D01*
X2140000Y400544D02*
Y406544D01*
X2137000Y424859D02*
X2143000D01*
X2140000Y421859D02*
Y427859D01*
X2137000Y446173D02*
X2143000D01*
X2140000Y443173D02*
Y449173D01*
X2137000Y467488D02*
X2143000D01*
X2140000Y464488D02*
Y470488D01*
X2137000Y488802D02*
X2143000D01*
X2140000Y485802D02*
Y491802D01*
X2137000Y382230D02*
X2143000D01*
X2140000Y379230D02*
Y385230D01*
X2137000Y339601D02*
X2143000D01*
X2140000Y336601D02*
Y342601D01*
X2137000Y360915D02*
X2143000D01*
X2140000Y357915D02*
Y363915D01*
X2157000Y403544D02*
X2163000D01*
X2160000Y400544D02*
Y406544D01*
X2157000Y424859D02*
X2163000D01*
X2160000Y421859D02*
Y427859D01*
X2157000Y446173D02*
X2163000D01*
X2160000Y443173D02*
Y449173D01*
X2157000Y467488D02*
X2163000D01*
X2160000Y464488D02*
Y470488D01*
X2157000Y488802D02*
X2163000D01*
X2160000Y485802D02*
Y491802D01*
X2157000Y382230D02*
X2163000D01*
X2160000Y379230D02*
Y385230D01*
X2157000Y339601D02*
X2163000D01*
X2160000Y336601D02*
Y342601D01*
X2157000Y360915D02*
X2163000D01*
X2160000Y357915D02*
Y363915D01*
X2177000Y403544D02*
X2183000D01*
X2180000Y400544D02*
Y406544D01*
X2177000Y424859D02*
X2183000D01*
X2180000Y421859D02*
Y427859D01*
X2177000Y446173D02*
X2183000D01*
X2180000Y443173D02*
Y449173D01*
X2177000Y467488D02*
X2183000D01*
X2180000Y464488D02*
Y470488D01*
X2177000Y488802D02*
X2183000D01*
X2180000Y485802D02*
Y491802D01*
X2177000Y382230D02*
X2183000D01*
X2180000Y379230D02*
Y385230D01*
X2177000Y339601D02*
X2183000D01*
X2180000Y336601D02*
Y342601D01*
X2177000Y360915D02*
X2183000D01*
X2180000Y357915D02*
Y363915D01*
X1912000Y638778D02*
X1918000D01*
X1915000Y635779D02*
Y641778D01*
X1912000Y660093D02*
X1918000D01*
X1915000Y657093D02*
Y663093D01*
X1912000Y617464D02*
X1918000D01*
X1915000Y614464D02*
Y620464D01*
X1912000Y446948D02*
X1918000D01*
X1915000Y443948D02*
Y449948D01*
X1912000Y489577D02*
X1918000D01*
X1915000Y486577D02*
Y492577D01*
X1912000Y510891D02*
X1918000D01*
X1915000Y507891D02*
Y513891D01*
X1912000Y532206D02*
X1918000D01*
X1915000Y529206D02*
Y535206D01*
X1912000Y553520D02*
X1918000D01*
X1915000Y550520D02*
Y556520D01*
X1912000Y574835D02*
X1918000D01*
X1915000Y571835D02*
Y577835D01*
X1912000Y596149D02*
X1918000D01*
X1915000Y593149D02*
Y599149D01*
X1912000Y468262D02*
X1918000D01*
X1915000Y465262D02*
Y471262D01*
X1932000Y638778D02*
X1938000D01*
X1935000Y635779D02*
Y641778D01*
X1932000Y724037D02*
X1938000D01*
X1935000Y721037D02*
Y727037D01*
X1932000Y702722D02*
X1938000D01*
X1935000Y699722D02*
Y705722D01*
X1932000Y681408D02*
X1938000D01*
X1935000Y678408D02*
Y684408D01*
X1932000Y660093D02*
X1938000D01*
X1935000Y657093D02*
Y663093D01*
X1932000Y617464D02*
X1938000D01*
X1935000Y614464D02*
Y620464D01*
X1932000Y446948D02*
X1938000D01*
X1935000Y443948D02*
Y449948D01*
X1932000Y489577D02*
X1938000D01*
X1935000Y486577D02*
Y492577D01*
X1932000Y510891D02*
X1938000D01*
X1935000Y507891D02*
Y513891D01*
X1932000Y532206D02*
X1938000D01*
X1935000Y529206D02*
Y535206D01*
X1932000Y553520D02*
X1938000D01*
X1935000Y550520D02*
Y556520D01*
X1932000Y574835D02*
X1938000D01*
X1935000Y571835D02*
Y577835D01*
X1932000Y596149D02*
X1938000D01*
X1935000Y593149D02*
Y599149D01*
X1932000Y468262D02*
X1938000D01*
X1935000Y465262D02*
Y471262D01*
X1952000Y638778D02*
X1958000D01*
X1955000Y635779D02*
Y641778D01*
X1952000Y724037D02*
X1958000D01*
X1955000Y721037D02*
Y727037D01*
X1952000Y702722D02*
X1958000D01*
X1955000Y699722D02*
Y705722D01*
X1952000Y681408D02*
X1958000D01*
X1955000Y678408D02*
Y684408D01*
X1952000Y660093D02*
X1958000D01*
X1955000Y657093D02*
Y663093D01*
X1952000Y617464D02*
X1958000D01*
X1955000Y614464D02*
Y620464D01*
X1952000Y446948D02*
X1958000D01*
X1955000Y443948D02*
Y449948D01*
X1952000Y489577D02*
X1958000D01*
X1955000Y486577D02*
Y492577D01*
X1952000Y510891D02*
X1958000D01*
X1955000Y507891D02*
Y513891D01*
X1952000Y532206D02*
X1958000D01*
X1955000Y529206D02*
Y535206D01*
X1952000Y553520D02*
X1958000D01*
X1955000Y550520D02*
Y556520D01*
X1952000Y574835D02*
X1958000D01*
X1955000Y571835D02*
Y577835D01*
X1952000Y596149D02*
X1958000D01*
X1955000Y593149D02*
Y599149D01*
X1952000Y468262D02*
X1958000D01*
X1955000Y465262D02*
Y471262D01*
X1972000Y638778D02*
X1978000D01*
X1975000Y635779D02*
Y641778D01*
X1972000Y724037D02*
X1978000D01*
X1975000Y721037D02*
Y727037D01*
X1972000Y702722D02*
X1978000D01*
X1975000Y699722D02*
Y705722D01*
X1972000Y681408D02*
X1978000D01*
X1975000Y678408D02*
Y684408D01*
X1972000Y660093D02*
X1978000D01*
X1975000Y657093D02*
Y663093D01*
X1972000Y617464D02*
X1978000D01*
X1975000Y614464D02*
Y620464D01*
X1972000Y446948D02*
X1978000D01*
X1975000Y443948D02*
Y449948D01*
X1972000Y489577D02*
X1978000D01*
X1975000Y486577D02*
Y492577D01*
X1972000Y510891D02*
X1978000D01*
X1975000Y507891D02*
Y513891D01*
X1972000Y532206D02*
X1978000D01*
X1975000Y529206D02*
Y535206D01*
X1972000Y553520D02*
X1978000D01*
X1975000Y550520D02*
Y556520D01*
X1972000Y574835D02*
X1978000D01*
X1975000Y571835D02*
Y577835D01*
X1972000Y596149D02*
X1978000D01*
X1975000Y593149D02*
Y599149D01*
X1972000Y468262D02*
X1978000D01*
X1975000Y465262D02*
Y471262D01*
X1972000Y127230D02*
X1978000D01*
X1975000Y124230D02*
Y130230D01*
X1972000Y255117D02*
X1978000D01*
X1975000Y252117D02*
Y258117D01*
X1972000Y233802D02*
X1978000D01*
X1975000Y230802D02*
Y236802D01*
X1972000Y212488D02*
X1978000D01*
X1975000Y209488D02*
Y215488D01*
X1972000Y191173D02*
X1978000D01*
X1975000Y188173D02*
Y194173D01*
X1972000Y169859D02*
X1978000D01*
X1975000Y166859D02*
Y172859D01*
X1972000Y148544D02*
X1978000D01*
X1975000Y145544D02*
Y151544D01*
X1972000Y105915D02*
X1978000D01*
X1975000Y102915D02*
Y108915D01*
X1972000Y84601D02*
X1978000D01*
X1975000Y81601D02*
Y87601D01*
X1972000Y276431D02*
X1978000D01*
X1975000Y273431D02*
Y279431D01*
X1972000Y319060D02*
X1978000D01*
X1975000Y316061D02*
Y322061D01*
X1972000Y340375D02*
X1978000D01*
X1975000Y337375D02*
Y343375D01*
X1972000Y361689D02*
X1978000D01*
X1975000Y358690D02*
Y364689D01*
X1972000Y383004D02*
X1978000D01*
X1975000Y380004D02*
Y386004D01*
X1972000Y404319D02*
X1978000D01*
X1975000Y401319D02*
Y407319D01*
X1972000Y425633D02*
X1978000D01*
X1975000Y422633D02*
Y428633D01*
X1972000Y297746D02*
X1978000D01*
X1975000Y294746D02*
Y300746D01*
X1952000Y127230D02*
X1958000D01*
X1955000Y124230D02*
Y130230D01*
X1952000Y255117D02*
X1958000D01*
X1955000Y252117D02*
Y258117D01*
X1952000Y233802D02*
X1958000D01*
X1955000Y230802D02*
Y236802D01*
X1952000Y212488D02*
X1958000D01*
X1955000Y209488D02*
Y215488D01*
X1952000Y191173D02*
X1958000D01*
X1955000Y188173D02*
Y194173D01*
X1952000Y169859D02*
X1958000D01*
X1955000Y166859D02*
Y172859D01*
X1952000Y148544D02*
X1958000D01*
X1955000Y145544D02*
Y151544D01*
X1952000Y105915D02*
X1958000D01*
X1955000Y102915D02*
Y108915D01*
X1952000Y84601D02*
X1958000D01*
X1955000Y81601D02*
Y87601D01*
X1952000Y276431D02*
X1958000D01*
X1955000Y273431D02*
Y279431D01*
X1952000Y319060D02*
X1958000D01*
X1955000Y316061D02*
Y322061D01*
X1952000Y340375D02*
X1958000D01*
X1955000Y337375D02*
Y343375D01*
X1952000Y361689D02*
X1958000D01*
X1955000Y358690D02*
Y364689D01*
X1952000Y383004D02*
X1958000D01*
X1955000Y380004D02*
Y386004D01*
X1952000Y404319D02*
X1958000D01*
X1955000Y401319D02*
Y407319D01*
X1952000Y425633D02*
X1958000D01*
X1955000Y422633D02*
Y428633D01*
X1952000Y297746D02*
X1958000D01*
X1955000Y294746D02*
Y300746D01*
X1932000Y127230D02*
X1938000D01*
X1935000Y124230D02*
Y130230D01*
X1932000Y255117D02*
X1938000D01*
X1935000Y252117D02*
Y258117D01*
X1932000Y233802D02*
X1938000D01*
X1935000Y230802D02*
Y236802D01*
X1932000Y212488D02*
X1938000D01*
X1935000Y209488D02*
Y215488D01*
X1932000Y191173D02*
X1938000D01*
X1935000Y188173D02*
Y194173D01*
X1932000Y169859D02*
X1938000D01*
X1935000Y166859D02*
Y172859D01*
X1932000Y148544D02*
X1938000D01*
X1935000Y145544D02*
Y151544D01*
X1932000Y105915D02*
X1938000D01*
X1935000Y102915D02*
Y108915D01*
X1932000Y84601D02*
X1938000D01*
X1935000Y81601D02*
Y87601D01*
X1932000Y276431D02*
X1938000D01*
X1935000Y273431D02*
Y279431D01*
X1932000Y319060D02*
X1938000D01*
X1935000Y316061D02*
Y322061D01*
X1932000Y340375D02*
X1938000D01*
X1935000Y337375D02*
Y343375D01*
X1932000Y361689D02*
X1938000D01*
X1935000Y358690D02*
Y364689D01*
X1932000Y383004D02*
X1938000D01*
X1935000Y380004D02*
Y386004D01*
X1932000Y404319D02*
X1938000D01*
X1935000Y401319D02*
Y407319D01*
X1932000Y425633D02*
X1938000D01*
X1935000Y422633D02*
Y428633D01*
X1932000Y297746D02*
X1938000D01*
X1935000Y294746D02*
Y300746D01*
X1912000Y127230D02*
X1918000D01*
X1915000Y124230D02*
Y130230D01*
X1912000Y255117D02*
X1918000D01*
X1915000Y252117D02*
Y258117D01*
X1912000Y233802D02*
X1918000D01*
X1915000Y230802D02*
Y236802D01*
X1912000Y212488D02*
X1918000D01*
X1915000Y209488D02*
Y215488D01*
X1912000Y191173D02*
X1918000D01*
X1915000Y188173D02*
Y194173D01*
X1912000Y169859D02*
X1918000D01*
X1915000Y166859D02*
Y172859D01*
X1912000Y148544D02*
X1918000D01*
X1915000Y145544D02*
Y151544D01*
X1912000Y105915D02*
X1918000D01*
X1915000Y102915D02*
Y108915D01*
X1912000Y84601D02*
X1918000D01*
X1915000Y81601D02*
Y87601D01*
X1912000Y276431D02*
X1918000D01*
X1915000Y273431D02*
Y279431D01*
X1912000Y319060D02*
X1918000D01*
X1915000Y316061D02*
Y322061D01*
X1912000Y340375D02*
X1918000D01*
X1915000Y337375D02*
Y343375D01*
X1912000Y361689D02*
X1918000D01*
X1915000Y358690D02*
Y364689D01*
X1912000Y383004D02*
X1918000D01*
X1915000Y380004D02*
Y386004D01*
X1912000Y404319D02*
X1918000D01*
X1915000Y401319D02*
Y407319D01*
X1912000Y425633D02*
X1918000D01*
X1915000Y422633D02*
Y428633D01*
X1912000Y297746D02*
X1918000D01*
X1915000Y294746D02*
Y300746D01*
X1592000Y312455D02*
X1598000D01*
X1595000Y309455D02*
Y315455D01*
X1592000Y291028D02*
X1598000D01*
X1595000Y288028D02*
Y294028D01*
X1592000Y269601D02*
X1598000D01*
X1595000Y266601D02*
Y272600D01*
X1617000Y292455D02*
X1623000D01*
X1620000Y289455D02*
Y295455D01*
X1617000Y335309D02*
X1623000D01*
X1620000Y332309D02*
Y338309D01*
X1617000Y313882D02*
X1623000D01*
X1620000Y310882D02*
Y316882D01*
X1617000Y271028D02*
X1623000D01*
X1620000Y268028D02*
Y274028D01*
X1722000Y232455D02*
X1728000D01*
X1725000Y229455D02*
Y235455D01*
X1722000Y360117D02*
X1728000D01*
X1725000Y357117D02*
Y363117D01*
X1722000Y339534D02*
X1728000D01*
X1725000Y336534D02*
Y342534D01*
X1722000Y296736D02*
X1728000D01*
X1725000Y293736D02*
Y299736D01*
X1722000Y275309D02*
X1728000D01*
X1725000Y272309D02*
Y278309D01*
X1722000Y253882D02*
X1728000D01*
X1725000Y250882D02*
Y256882D01*
X1722000Y211028D02*
X1728000D01*
X1725000Y208028D02*
Y214028D01*
X1722000Y189601D02*
X1728000D01*
X1725000Y186601D02*
Y192601D01*
X1702000Y232455D02*
X1708000D01*
X1705000Y229455D02*
Y235455D01*
X1702000Y339534D02*
X1708000D01*
X1705000Y336534D02*
Y342534D01*
X1702000Y296736D02*
X1708000D01*
X1705000Y293736D02*
Y299736D01*
X1702000Y275309D02*
X1708000D01*
X1705000Y272309D02*
Y278309D01*
X1702000Y253882D02*
X1708000D01*
X1705000Y250882D02*
Y256882D01*
X1702000Y211028D02*
X1708000D01*
X1705000Y208028D02*
Y214028D01*
X1702000Y189601D02*
X1708000D01*
X1705000Y186601D02*
Y192601D01*
X1682000Y232455D02*
X1688000D01*
X1685000Y229455D02*
Y235455D01*
X1682000Y339534D02*
X1688000D01*
X1685000Y336534D02*
Y342534D01*
X1682000Y296736D02*
X1688000D01*
X1685000Y293736D02*
Y299736D01*
X1682000Y275309D02*
X1688000D01*
X1685000Y272309D02*
Y278309D01*
X1682000Y253882D02*
X1688000D01*
X1685000Y250882D02*
Y256882D01*
X1682000Y211028D02*
X1688000D01*
X1685000Y208028D02*
Y214028D01*
X1682000Y189601D02*
X1688000D01*
X1685000Y186601D02*
Y192601D01*
X1662000Y232455D02*
X1668000D01*
X1665000Y229455D02*
Y235455D01*
X1662000Y339534D02*
X1668000D01*
X1665000Y336534D02*
Y342534D01*
X1662000Y296736D02*
X1668000D01*
X1665000Y293736D02*
Y299736D01*
X1662000Y275309D02*
X1668000D01*
X1665000Y272309D02*
Y278309D01*
X1662000Y253882D02*
X1668000D01*
X1665000Y250882D02*
Y256882D01*
X1662000Y211028D02*
X1668000D01*
X1665000Y208028D02*
Y214028D01*
X1662000Y189601D02*
X1668000D01*
X1665000Y186601D02*
Y192601D01*
X1642000Y232455D02*
X1648000D01*
X1645000Y229455D02*
Y235455D01*
X1642000Y360117D02*
X1648000D01*
X1645000Y357117D02*
Y363117D01*
X1642000Y339534D02*
X1648000D01*
X1645000Y336534D02*
Y342534D01*
X1642000Y318163D02*
X1648000D01*
X1645000Y315163D02*
Y321163D01*
X1642000Y296736D02*
X1648000D01*
X1645000Y293736D02*
Y299736D01*
X1642000Y275309D02*
X1648000D01*
X1645000Y272309D02*
Y278309D01*
X1642000Y253882D02*
X1648000D01*
X1645000Y250882D02*
Y256882D01*
X1642000Y211028D02*
X1648000D01*
X1645000Y208028D02*
Y214028D01*
X1642000Y189601D02*
X1648000D01*
X1645000Y186601D02*
Y192601D01*
X1142000Y230836D02*
X1148000D01*
X1145000Y227836D02*
Y233836D01*
X1142000Y209409D02*
X1148000D01*
X1145000Y206409D02*
Y212409D01*
X1142000Y187982D02*
X1148000D01*
X1145000Y184982D02*
Y190982D01*
X1142000Y166555D02*
X1148000D01*
X1145000Y163555D02*
Y169555D01*
X1142000Y145184D02*
X1148000D01*
X1145000Y142184D02*
Y148184D01*
X1142000Y252263D02*
X1148000D01*
X1145000Y249263D02*
Y255263D01*
X1122000Y230836D02*
X1128000D01*
X1125000Y227836D02*
Y233836D01*
X1122000Y209409D02*
X1128000D01*
X1125000Y206409D02*
Y212409D01*
X1122000Y187982D02*
X1128000D01*
X1125000Y184982D02*
Y190982D01*
X1122000Y166555D02*
X1128000D01*
X1125000Y163555D02*
Y169555D01*
X1122000Y145184D02*
X1128000D01*
X1125000Y142184D02*
Y148184D01*
X1122000Y252263D02*
X1128000D01*
X1125000Y249263D02*
Y255263D01*
X992000Y166555D02*
X998000D01*
X995000Y163555D02*
Y169555D01*
X992000Y145184D02*
X998000D01*
X995000Y142184D02*
Y148184D01*
X992000Y124601D02*
X998000D01*
X995000Y121601D02*
Y127601D01*
X787516Y44601D02*
X793516D01*
X790516Y41601D02*
Y47601D01*
X766130Y44601D02*
X772130D01*
X769130Y41601D02*
Y47601D01*
X723359Y44601D02*
X729359D01*
X726359Y41601D02*
Y47601D01*
X701973Y44601D02*
X707973D01*
X704973Y41601D02*
Y47601D01*
X680587Y44601D02*
X686587D01*
X683587Y41601D02*
Y47601D01*
X659201Y44601D02*
X665201D01*
X662201Y41601D02*
Y47601D01*
X637815Y44601D02*
X643815D01*
X640815Y41601D02*
Y47601D01*
X616429Y44601D02*
X622429D01*
X619429Y41601D02*
Y47601D01*
X744744Y44601D02*
X750744D01*
X747745Y41601D02*
Y47601D01*
X595043Y44601D02*
X601043D01*
X598043Y41601D02*
Y47601D01*
X573658Y44601D02*
X579658D01*
X576658Y41601D02*
Y47601D01*
X530886Y44601D02*
X536886D01*
X533886Y41601D02*
Y47601D01*
X509500Y44601D02*
X515500D01*
X512500Y41601D02*
Y47601D01*
X488114Y44601D02*
X494114D01*
X491114Y41601D02*
Y47601D01*
X466728Y44601D02*
X472728D01*
X469728Y41601D02*
Y47601D01*
X445342Y44601D02*
X451342D01*
X448342Y41601D02*
Y47601D01*
X423957Y44601D02*
X429957D01*
X426957Y41601D02*
Y47601D01*
X552272Y44601D02*
X558272D01*
X555272Y41601D02*
Y47601D01*
X231484Y44601D02*
X237484D01*
X234484Y41601D02*
Y47601D01*
X252870Y44601D02*
X258870D01*
X255870Y41601D02*
Y47601D01*
X295641Y44601D02*
X301641D01*
X298641Y41601D02*
Y47601D01*
X317027Y44601D02*
X323027D01*
X320027Y41601D02*
Y47601D01*
X338413Y44601D02*
X344413D01*
X341413Y41601D02*
Y47601D01*
X359799Y44601D02*
X365799D01*
X362799Y41601D02*
Y47601D01*
X381185Y44601D02*
X387185D01*
X384185Y41601D02*
Y47601D01*
X402571Y44601D02*
X408571D01*
X405571Y41601D02*
Y47601D01*
X274256Y44601D02*
X280256D01*
X277255Y41601D02*
Y47601D01*
X62000Y690117D02*
X68000D01*
X65000Y687117D02*
Y693117D01*
X62000Y668802D02*
X68000D01*
X65000Y665802D02*
Y671802D01*
X62000Y626173D02*
X68000D01*
X65000Y623173D02*
Y629173D01*
X62000Y604859D02*
X68000D01*
X65000Y601859D02*
Y607859D01*
X62000Y583544D02*
X68000D01*
X65000Y580544D02*
Y586544D01*
X62000Y562230D02*
X68000D01*
X65000Y559230D02*
Y565230D01*
X62000Y540915D02*
X68000D01*
X65000Y537915D02*
Y543915D01*
X62000Y519601D02*
X68000D01*
X65000Y516601D02*
Y522601D01*
X62000Y647488D02*
X68000D01*
X65000Y644488D02*
Y650488D01*
X62000Y350117D02*
X68000D01*
X65000Y347117D02*
Y353117D01*
X62000Y328802D02*
X68000D01*
X65000Y325802D02*
Y331802D01*
X62000Y286173D02*
X68000D01*
X65000Y283173D02*
Y289173D01*
X62000Y264859D02*
X68000D01*
X65000Y261859D02*
Y267859D01*
X62000Y243544D02*
X68000D01*
X65000Y240544D02*
Y246544D01*
X62000Y222230D02*
X68000D01*
X65000Y219230D02*
Y225230D01*
X62000Y200915D02*
X68000D01*
X65000Y197915D02*
Y203915D01*
X62000Y179601D02*
X68000D01*
X65000Y176601D02*
Y182600D01*
X62000Y307488D02*
X68000D01*
X65000Y304488D02*
Y310488D01*
X297075Y1362263D02*
X303075D01*
X300075Y1359263D02*
Y1365263D01*
X254221Y1362263D02*
X260221D01*
X257221Y1359263D02*
Y1365263D01*
X232794Y1362263D02*
X238794D01*
X235794Y1359263D02*
Y1365263D01*
X211367Y1362263D02*
X217367D01*
X214366Y1359263D02*
Y1365263D01*
X189939Y1362263D02*
X195939D01*
X192939Y1359263D02*
Y1365263D01*
X168569Y1362263D02*
X174569D01*
X171569Y1359263D02*
Y1365263D01*
X147985Y1362263D02*
X153985D01*
X150985Y1359263D02*
Y1365263D01*
X275648Y1362263D02*
X281648D01*
X278648Y1359263D02*
Y1365263D01*
X127000Y1340836D02*
X133000D01*
X130000Y1337836D02*
Y1343836D01*
X127000Y1319409D02*
X133000D01*
X130000Y1316409D02*
Y1322409D01*
X127000Y1297982D02*
X133000D01*
X130000Y1294982D02*
Y1300982D01*
X127000Y1276555D02*
X133000D01*
X130000Y1273555D02*
Y1279555D01*
X127000Y1255184D02*
X133000D01*
X130000Y1252184D02*
Y1258184D01*
X127000Y1234601D02*
X133000D01*
X130000Y1231601D02*
Y1237600D01*
X127000Y1362263D02*
X133000D01*
X130000Y1359263D02*
Y1365263D01*
X107000Y1340836D02*
X113000D01*
X110000Y1337836D02*
Y1343836D01*
X107000Y1319409D02*
X113000D01*
X110000Y1316409D02*
Y1322409D01*
X107000Y1297982D02*
X113000D01*
X110000Y1294982D02*
Y1300982D01*
X107000Y1276555D02*
X113000D01*
X110000Y1273555D02*
Y1279555D01*
X107000Y1255184D02*
X113000D01*
X110000Y1252184D02*
Y1258184D01*
X107000Y1234601D02*
X113000D01*
X110000Y1231601D02*
Y1237600D01*
X107000Y1362263D02*
X113000D01*
X110000Y1359263D02*
Y1365263D01*
X87000Y1340836D02*
X93000D01*
X90000Y1337836D02*
Y1343836D01*
X87000Y1319409D02*
X93000D01*
X90000Y1316409D02*
Y1322409D01*
X87000Y1297982D02*
X93000D01*
X90000Y1294982D02*
Y1300982D01*
X87000Y1276555D02*
X93000D01*
X90000Y1273555D02*
Y1279555D01*
X87000Y1255184D02*
X93000D01*
X90000Y1252184D02*
Y1258184D01*
X87000Y1234601D02*
X93000D01*
X90000Y1231601D02*
Y1237600D01*
X87000Y1362263D02*
X93000D01*
X90000Y1359263D02*
Y1365263D01*
X452517Y1054601D02*
X458517D01*
X455517Y1051601D02*
Y1057601D01*
X431090Y1054601D02*
X437090D01*
X434090Y1051601D02*
Y1057601D01*
X388236Y1054601D02*
X394236D01*
X391236Y1051601D02*
Y1057601D01*
X366809Y1054601D02*
X372809D01*
X369809Y1051601D02*
Y1057601D01*
X345382Y1054601D02*
X351382D01*
X348382Y1051601D02*
Y1057601D01*
X323955Y1054601D02*
X329954D01*
X326954Y1051601D02*
Y1057601D01*
X302584Y1054601D02*
X308584D01*
X305584Y1051601D02*
Y1057601D01*
X409663Y1054601D02*
X415663D01*
X412663Y1051601D02*
Y1057601D01*
X452517Y1074601D02*
X458517D01*
X455517Y1071601D02*
Y1077601D01*
X431090Y1074601D02*
X437090D01*
X434090Y1071601D02*
Y1077601D01*
X388236Y1074601D02*
X394236D01*
X391236Y1071601D02*
Y1077601D01*
X366809Y1074601D02*
X372809D01*
X369809Y1071601D02*
Y1077601D01*
X345382Y1074601D02*
X351382D01*
X348382Y1071601D02*
Y1077601D01*
X323955Y1074601D02*
X329954D01*
X326954Y1071601D02*
Y1077601D01*
X302584Y1074601D02*
X308584D01*
X305584Y1071601D02*
Y1077601D01*
X409663Y1074601D02*
X415663D01*
X412663Y1071601D02*
Y1077601D01*
X452517Y1094601D02*
X458517D01*
X455517Y1091601D02*
Y1097600D01*
X431090Y1094601D02*
X437090D01*
X434090Y1091601D02*
Y1097600D01*
X388236Y1094601D02*
X394236D01*
X391236Y1091601D02*
Y1097600D01*
X366809Y1094601D02*
X372809D01*
X369809Y1091601D02*
Y1097600D01*
X345382Y1094601D02*
X351382D01*
X348382Y1091601D02*
Y1097600D01*
X323955Y1094601D02*
X329954D01*
X326954Y1091601D02*
Y1097600D01*
X302584Y1094601D02*
X308584D01*
X305584Y1091601D02*
Y1097600D01*
X409663Y1094601D02*
X415663D01*
X412663Y1091601D02*
Y1097600D01*
X452517Y1114601D02*
X458517D01*
X455517Y1111601D02*
Y1117601D01*
X431090Y1114601D02*
X437090D01*
X434090Y1111601D02*
Y1117601D01*
X388236Y1114601D02*
X394236D01*
X391236Y1111601D02*
Y1117601D01*
X366809Y1114601D02*
X372809D01*
X369809Y1111601D02*
Y1117601D01*
X345382Y1114601D02*
X351382D01*
X348382Y1111601D02*
Y1117601D01*
X323955Y1114601D02*
X329954D01*
X326954Y1111601D02*
Y1117601D01*
X302584Y1114601D02*
X308584D01*
X305584Y1111601D02*
Y1117601D01*
X409663Y1114601D02*
X415663D01*
X412663Y1111601D02*
Y1117601D01*
X409663Y1134601D02*
X415663D01*
X412663Y1131601D02*
Y1137600D01*
X282000Y1134601D02*
X288000D01*
X285000Y1131601D02*
Y1137600D01*
X302584Y1134601D02*
X308584D01*
X305584Y1131601D02*
Y1137600D01*
X323955Y1134601D02*
X329954D01*
X326954Y1131601D02*
Y1137600D01*
X345382Y1134601D02*
X351382D01*
X348382Y1131601D02*
Y1137600D01*
X366809Y1134601D02*
X372809D01*
X369809Y1131601D02*
Y1137600D01*
X388236Y1134601D02*
X394236D01*
X391236Y1131601D02*
Y1137600D01*
X431090Y1134601D02*
X437090D01*
X434090Y1131601D02*
Y1137600D01*
X452517Y1134601D02*
X458517D01*
X455517Y1131601D02*
Y1137600D01*
X639436Y910600D02*
X645436D01*
X642436Y907600D02*
Y913600D01*
X575155Y910600D02*
X581155D01*
X578154Y907600D02*
Y913600D01*
X660863Y910600D02*
X666863D01*
X663863Y907600D02*
Y913600D01*
X682290Y910600D02*
X688290D01*
X685290Y907600D02*
Y913600D01*
X533200Y910600D02*
X539200D01*
X536200Y907600D02*
Y913600D01*
X618009Y910600D02*
X624009D01*
X621009Y907600D02*
Y913600D01*
X596582Y910600D02*
X602582D01*
X599582Y907600D02*
Y913600D01*
X553784Y910600D02*
X559784D01*
X556784Y907600D02*
Y913600D01*
X703717Y910600D02*
X709717D01*
X706717Y907600D02*
Y913600D01*
X703717Y934601D02*
X709717D01*
X706717Y931600D02*
Y937600D01*
X682290Y934601D02*
X688290D01*
X685290Y931600D02*
Y937600D01*
X639436Y934601D02*
X645436D01*
X642436Y931600D02*
Y937600D01*
X618009Y934601D02*
X624009D01*
X621009Y931600D02*
Y937600D01*
X596582Y934601D02*
X602582D01*
X599582Y931600D02*
Y937600D01*
X575155Y934601D02*
X581155D01*
X578154Y931600D02*
Y937600D01*
X553784Y934601D02*
X559784D01*
X556784Y931600D02*
Y937600D01*
X533200Y934601D02*
X539200D01*
X536200Y931600D02*
Y937600D01*
X660863Y934601D02*
X666863D01*
X663863Y931600D02*
Y937600D01*
X354267Y429601D02*
X360267D01*
X357267Y426601D02*
Y432601D01*
X375434Y429601D02*
X381434D01*
X378434Y426601D02*
Y432601D01*
X397634Y429601D02*
X403634D01*
X400634Y426601D02*
Y432601D01*
X333684Y429601D02*
X339684D01*
X336684Y426601D02*
Y432601D01*
X435100Y429601D02*
X441100D01*
X438100Y426601D02*
Y432601D01*
X291934Y404601D02*
X297934D01*
X294934Y401601D02*
Y407601D01*
X250767Y404601D02*
X256767D01*
X253767Y401601D02*
Y407601D01*
X333684Y404601D02*
X339684D01*
X336684Y401601D02*
Y407601D01*
X354267Y404601D02*
X360267D01*
X357267Y401601D02*
Y407601D01*
X397634Y404601D02*
X403634D01*
X400634Y401601D02*
Y407601D01*
X271350Y404601D02*
X277350D01*
X274350Y401601D02*
Y407601D01*
X375434Y404601D02*
X381434D01*
X378434Y401601D02*
Y407601D01*
X569484Y245001D02*
X575484D01*
X572484Y242001D02*
Y248001D01*
X590450Y264800D02*
X596450D01*
X593450Y261800D02*
Y267801D01*
X632200Y264800D02*
X638200D01*
X635200Y261800D02*
Y267801D01*
X652784Y264800D02*
X658784D01*
X655784Y261800D02*
Y267801D01*
X735700Y245001D02*
X741700D01*
X738700Y242001D02*
Y248001D01*
X715117Y245001D02*
X721117D01*
X718117Y242001D02*
Y248001D01*
X694534Y245001D02*
X700534D01*
X697534Y242001D02*
Y248001D01*
X673367Y245001D02*
X679367D01*
X676367Y242001D02*
Y248001D01*
X755467Y245001D02*
X761467D01*
X758467Y242001D02*
Y248001D01*
X611034Y245001D02*
X617034D01*
X614034Y242001D02*
Y248001D01*
X611034Y309401D02*
X617034D01*
X614034Y306401D02*
Y312400D01*
X611034Y225201D02*
X617034D01*
X614034Y222201D02*
Y228201D01*
X611034Y205401D02*
X617034D01*
X614034Y202401D02*
Y208401D01*
X611034Y264800D02*
X617034D01*
X614034Y261800D02*
Y267801D01*
X755467Y205401D02*
X761467D01*
X758467Y202401D02*
Y208401D01*
X755467Y225201D02*
X761467D01*
X758467Y222201D02*
Y228201D01*
X755467Y309401D02*
X761467D01*
X758467Y306401D02*
Y312400D01*
X673367Y449600D02*
X679367D01*
X676367Y446600D02*
Y452601D01*
X755467Y334429D02*
X761467D01*
X758467Y331429D02*
Y337429D01*
X230700Y245001D02*
X236700D01*
X233700Y242001D02*
Y248001D01*
X250867Y245001D02*
X256867D01*
X253867Y242001D02*
Y248001D01*
X272450Y245001D02*
X278450D01*
X275450Y242001D02*
Y248001D01*
X292034Y245001D02*
X298034D01*
X295034Y242001D02*
Y248001D01*
X313200Y245001D02*
X319200D01*
X316200Y242001D02*
Y248001D01*
X396117Y245001D02*
X402117D01*
X399117Y242001D02*
Y248001D01*
X375534Y245001D02*
X381534D01*
X378534Y242001D02*
Y248001D01*
X354367Y245001D02*
X360367D01*
X357367Y242001D02*
Y248001D01*
X333784Y245001D02*
X339784D01*
X336784Y242001D02*
Y248001D01*
X417284Y245001D02*
X423284D01*
X420284Y242001D02*
Y248001D01*
X417284Y225201D02*
X423284D01*
X420284Y222201D02*
Y228201D01*
X250867Y225201D02*
X256867D01*
X253867Y222201D02*
Y228201D01*
X272450Y225201D02*
X278450D01*
X275450Y222201D02*
Y228201D01*
X292034Y225201D02*
X298034D01*
X295034Y222201D02*
Y228201D01*
X230700Y225201D02*
X236700D01*
X233700Y222201D02*
Y228201D01*
X313200Y225201D02*
X319200D01*
X316200Y222201D02*
Y228201D01*
X333784Y225201D02*
X339784D01*
X336784Y222201D02*
Y228201D01*
X375534Y225201D02*
X381534D01*
X378534Y222201D02*
Y228201D01*
X354367Y225201D02*
X360367D01*
X357367Y222201D02*
Y228201D01*
X396117Y225201D02*
X402117D01*
X399117Y222201D02*
Y228201D01*
X249400Y747701D02*
X255400D01*
X252400Y744701D02*
Y750701D01*
X249400Y770601D02*
X255400D01*
X252400Y767601D02*
Y773601D01*
X249400Y793701D02*
X255400D01*
X252400Y790701D02*
Y796701D01*
X249400Y818600D02*
X255400D01*
X252400Y815601D02*
Y821600D01*
X272984Y726201D02*
X278984D01*
X275984Y723201D02*
Y729201D01*
X272984Y747701D02*
X278984D01*
X275984Y744701D02*
Y750701D01*
X272984Y770601D02*
X278984D01*
X275984Y767601D02*
Y773601D01*
X272984Y793701D02*
X278984D01*
X275984Y790701D02*
Y796701D01*
X272984Y818600D02*
X278984D01*
X275984Y815601D02*
Y821600D01*
X297150Y726201D02*
X303150D01*
X300150Y723201D02*
Y729201D01*
X297150Y747701D02*
X303150D01*
X300150Y744701D02*
Y750701D01*
X297150Y770601D02*
X303150D01*
X300150Y767601D02*
Y773601D01*
X297150Y793701D02*
X303150D01*
X300150Y790701D02*
Y796701D01*
X297150Y818600D02*
X303150D01*
X300150Y815601D02*
Y821600D01*
X321317Y726201D02*
X327317D01*
X324317Y723201D02*
Y729201D01*
X321317Y747701D02*
X327317D01*
X324317Y744701D02*
Y750701D01*
X321317Y770601D02*
X327317D01*
X324317Y767601D02*
Y773601D01*
X321317Y793701D02*
X327317D01*
X324317Y790701D02*
Y796701D01*
X321317Y818600D02*
X327317D01*
X324317Y815601D02*
Y821600D01*
X343484Y726201D02*
X349484D01*
X346484Y723201D02*
Y729201D01*
X343484Y747701D02*
X349484D01*
X346484Y744701D02*
Y750701D01*
X343484Y770601D02*
X349484D01*
X346484Y767601D02*
Y773601D01*
X343484Y793701D02*
X349484D01*
X346484Y790701D02*
Y796701D01*
X343484Y818600D02*
X349484D01*
X346484Y815601D02*
Y821600D01*
X364067Y726201D02*
X370067D01*
X367067Y723201D02*
Y729201D01*
X364067Y747701D02*
X370067D01*
X367067Y744701D02*
Y750701D01*
X364067Y770601D02*
X370067D01*
X367067Y767601D02*
Y773601D01*
X364067Y793701D02*
X370067D01*
X367067Y790701D02*
Y796701D01*
X364067Y818600D02*
X370067D01*
X367067Y815601D02*
Y821600D01*
X384650Y726201D02*
X390650D01*
X387650Y723201D02*
Y729201D01*
X384650Y747701D02*
X390650D01*
X387650Y744701D02*
Y750701D01*
X384650Y770601D02*
X390650D01*
X387650Y767601D02*
Y773601D01*
X384650Y793701D02*
X390650D01*
X387650Y790701D02*
Y796701D01*
X384650Y818600D02*
X390650D01*
X387650Y815601D02*
Y821600D01*
X405817Y770601D02*
X411817D01*
X408817Y767601D02*
Y773601D01*
X405817Y793701D02*
X411817D01*
X408817Y790701D02*
Y796701D01*
X405817Y818600D02*
X411817D01*
X408817Y815601D02*
Y821600D01*
X426400Y793701D02*
X432400D01*
X429400Y790701D02*
Y796701D01*
X426400Y818600D02*
X432400D01*
X429400Y815601D02*
Y821600D01*
X446984Y793701D02*
X452984D01*
X449984Y790701D02*
Y796701D01*
X446984Y818600D02*
X452984D01*
X449984Y815601D02*
Y821600D01*
X660863Y889258D02*
X666863D01*
X663863Y886258D02*
Y892258D01*
X660863Y867915D02*
X666863D01*
X663863Y864915D02*
Y870915D01*
X660863Y846572D02*
X666863D01*
X663863Y843572D02*
Y849572D01*
X660863Y825229D02*
X666863D01*
X663863Y822229D02*
Y828229D01*
X660863Y803886D02*
X666863D01*
X663863Y800886D02*
Y806886D01*
X660863Y781201D02*
X666863D01*
X663863Y778201D02*
Y784201D01*
X533200Y889258D02*
X539200D01*
X536200Y886258D02*
Y892258D01*
X533200Y867915D02*
X539200D01*
X536200Y864915D02*
Y870915D01*
X533200Y825229D02*
X539200D01*
X536200Y822229D02*
Y828229D01*
X533200Y781201D02*
X539200D01*
X536200Y778201D02*
Y784201D01*
X533200Y846572D02*
X539200D01*
X536200Y843572D02*
Y849572D01*
X533200Y803886D02*
X539200D01*
X536200Y800886D02*
Y806886D01*
X553784Y889258D02*
X559784D01*
X556784Y886258D02*
Y892258D01*
X553784Y867915D02*
X559784D01*
X556784Y864915D02*
Y870915D01*
X553784Y825229D02*
X559784D01*
X556784Y822229D02*
Y828229D01*
X553784Y781201D02*
X559784D01*
X556784Y778201D02*
Y784201D01*
X553784Y846572D02*
X559784D01*
X556784Y843572D02*
Y849572D01*
X553784Y803886D02*
X559784D01*
X556784Y800886D02*
Y806886D01*
X575155Y889258D02*
X581155D01*
X578154Y886258D02*
Y892258D01*
X575155Y867915D02*
X581155D01*
X578154Y864915D02*
Y870915D01*
X575155Y825229D02*
X581155D01*
X578154Y822229D02*
Y828229D01*
X575155Y781201D02*
X581155D01*
X578154Y778201D02*
Y784201D01*
X575155Y846572D02*
X581155D01*
X578154Y843572D02*
Y849572D01*
X575155Y803886D02*
X581155D01*
X578154Y800886D02*
Y806886D01*
X596582Y889258D02*
X602582D01*
X599582Y886258D02*
Y892258D01*
X596582Y867915D02*
X602582D01*
X599582Y864915D02*
Y870915D01*
X596582Y825229D02*
X602582D01*
X599582Y822229D02*
Y828229D01*
X596582Y781201D02*
X602582D01*
X599582Y778201D02*
Y784201D01*
X596582Y846572D02*
X602582D01*
X599582Y843572D02*
Y849572D01*
X596582Y803886D02*
X602582D01*
X599582Y800886D02*
Y806886D01*
X618009Y889258D02*
X624009D01*
X621009Y886258D02*
Y892258D01*
X618009Y867915D02*
X624009D01*
X621009Y864915D02*
Y870915D01*
X618009Y825229D02*
X624009D01*
X621009Y822229D02*
Y828229D01*
X618009Y781201D02*
X624009D01*
X621009Y778201D02*
Y784201D01*
X618009Y846572D02*
X624009D01*
X621009Y843572D02*
Y849572D01*
X618009Y803886D02*
X624009D01*
X621009Y800886D02*
Y806886D01*
X639436Y889258D02*
X645436D01*
X642436Y886258D02*
Y892258D01*
X639436Y867915D02*
X645436D01*
X642436Y864915D02*
Y870915D01*
X639436Y825229D02*
X645436D01*
X642436Y822229D02*
Y828229D01*
X639436Y781201D02*
X645436D01*
X642436Y778201D02*
Y784201D01*
X639436Y846572D02*
X645436D01*
X642436Y843572D02*
Y849572D01*
X639436Y803886D02*
X645436D01*
X642436Y800886D02*
Y806886D01*
X682290Y889258D02*
X688290D01*
X685290Y886258D02*
Y892258D01*
X682290Y867915D02*
X688290D01*
X685290Y864915D02*
Y870915D01*
X682290Y825229D02*
X688290D01*
X685290Y822229D02*
Y828229D01*
X682290Y781201D02*
X688290D01*
X685290Y778201D02*
Y784201D01*
X682290Y846572D02*
X688290D01*
X685290Y843572D02*
Y849572D01*
X682290Y803886D02*
X688290D01*
X685290Y800886D02*
Y806886D01*
X703717Y889258D02*
X709717D01*
X706717Y886258D02*
Y892258D01*
X703717Y867915D02*
X709717D01*
X706717Y864915D02*
Y870915D01*
X703717Y825229D02*
X709717D01*
X706717Y822229D02*
Y828229D01*
X703717Y781201D02*
X709717D01*
X706717Y778201D02*
Y784201D01*
X703717Y846572D02*
X709717D01*
X706717Y843572D02*
Y849572D01*
X703717Y803886D02*
X709717D01*
X706717Y800886D02*
Y806886D01*
X229600Y311800D02*
X235600D01*
X232600Y308801D02*
Y314800D01*
X229600Y335176D02*
X235600D01*
X232600Y332175D02*
Y338176D01*
X229600Y358550D02*
X235600D01*
X232600Y355550D02*
Y361550D01*
X229600Y380300D02*
X235600D01*
X232600Y377300D02*
Y383301D01*
X250767Y335176D02*
X256767D01*
X253767Y332175D02*
Y338176D01*
X250767Y311800D02*
X256767D01*
X253767Y308801D02*
Y314800D01*
X250767Y358550D02*
X256767D01*
X253767Y355550D02*
Y361550D01*
X271350Y311800D02*
X277350D01*
X274350Y308801D02*
Y314800D01*
X271350Y335176D02*
X277350D01*
X274350Y332175D02*
Y338176D01*
X271350Y380300D02*
X277350D01*
X274350Y377300D02*
Y383301D01*
X271350Y358550D02*
X277350D01*
X274350Y355550D02*
Y361550D01*
X291934Y335176D02*
X297934D01*
X294934Y332175D02*
Y338176D01*
X291934Y311800D02*
X297934D01*
X294934Y308801D02*
Y314800D01*
X291934Y358550D02*
X297934D01*
X294934Y355550D02*
Y361550D01*
X291934Y380300D02*
X297934D01*
X294934Y377300D02*
Y383301D01*
X313100Y311800D02*
X319100D01*
X316100Y308801D02*
Y314800D01*
X313100Y335176D02*
X319100D01*
X316100Y332175D02*
Y338176D01*
X313100Y358550D02*
X319100D01*
X316100Y355550D02*
Y361550D01*
X333684Y335176D02*
X339684D01*
X336684Y332175D02*
Y338176D01*
X333684Y311800D02*
X339684D01*
X336684Y308801D02*
Y314800D01*
X333684Y380300D02*
X339684D01*
X336684Y377300D02*
Y383301D01*
X333684Y358550D02*
X339684D01*
X336684Y355550D02*
Y361550D01*
X354267Y335176D02*
X360267D01*
X357267Y332175D02*
Y338176D01*
X354267Y311800D02*
X360267D01*
X357267Y308801D02*
Y314800D01*
X354267Y358550D02*
X360267D01*
X357267Y355550D02*
Y361550D01*
X354267Y380300D02*
X360267D01*
X357267Y377300D02*
Y383301D01*
X375434Y335176D02*
X381434D01*
X378434Y332175D02*
Y338176D01*
X375434Y311800D02*
X381434D01*
X378434Y308801D02*
Y314800D01*
X375434Y358550D02*
X381434D01*
X378434Y355550D02*
Y361550D01*
X375434Y380300D02*
X381434D01*
X378434Y377300D02*
Y383301D01*
X395917Y335176D02*
X401917D01*
X398917Y332175D02*
Y338176D01*
X395917Y311800D02*
X401917D01*
X398917Y308801D02*
Y314800D01*
X313200Y205401D02*
X319200D01*
X316200Y202401D02*
Y208401D01*
X396117Y205401D02*
X402117D01*
X399117Y202401D02*
Y208401D01*
X250867Y205401D02*
X256867D01*
X253867Y202401D02*
Y208401D01*
X230700Y205401D02*
X236700D01*
X233700Y202401D02*
Y208401D01*
X272450Y205401D02*
X278450D01*
X275450Y202401D02*
Y208401D01*
X417284Y205401D02*
X423284D01*
X420284Y202401D02*
Y208401D01*
X375534Y205401D02*
X381534D01*
X378534Y202401D02*
Y208401D01*
X333784Y205401D02*
X339784D01*
X336784Y202401D02*
Y208401D01*
X292034Y205401D02*
X298034D01*
X295034Y202401D02*
Y208401D01*
X354367Y205401D02*
X360367D01*
X357367Y202401D02*
Y208401D01*
X588700Y516651D02*
X594700D01*
X591700Y513651D02*
Y519650D01*
X588700Y472901D02*
X594700D01*
X591700Y469901D02*
Y475900D01*
X588700Y493467D02*
X594700D01*
X591700Y490467D02*
Y496467D01*
X715117Y472901D02*
X721117D01*
X718117Y469901D02*
Y475900D01*
X715117Y516651D02*
X721117D01*
X718117Y513651D02*
Y519650D01*
X715117Y493484D02*
X721117D01*
X718117Y490484D02*
Y496484D01*
X735700Y472901D02*
X741700D01*
X738700Y469901D02*
Y475900D01*
X735700Y516651D02*
X741700D01*
X738700Y513651D02*
Y519650D01*
X735700Y493484D02*
X741700D01*
X738700Y490484D02*
Y496484D01*
X755467Y516651D02*
X761467D01*
X758467Y513651D02*
Y519650D01*
X755467Y493484D02*
X761467D01*
X758467Y490484D02*
Y496484D01*
X755467Y472901D02*
X761467D01*
X758467Y469901D02*
Y475900D01*
X694534Y427572D02*
X700534D01*
X697534Y424572D02*
Y430572D01*
X755467Y427572D02*
X761467D01*
X758467Y424572D02*
Y430572D01*
X590450Y427572D02*
X596450D01*
X593450Y424572D02*
Y430572D01*
X715117Y427572D02*
X721117D01*
X718117Y424572D02*
Y430572D01*
X735700Y427572D02*
X741700D01*
X738700Y424572D02*
Y430572D01*
X673367Y427572D02*
X679367D01*
X676367Y424572D02*
Y430572D01*
X652784Y427572D02*
X658784D01*
X655784Y424572D02*
Y430572D01*
X632200Y427572D02*
X638200D01*
X635200Y424572D02*
Y430572D01*
X611034Y427572D02*
X617034D01*
X614034Y424572D02*
Y430572D01*
X611034Y405543D02*
X617034D01*
X614034Y402543D02*
Y408543D01*
X652784Y405543D02*
X658784D01*
X655784Y402543D02*
Y408543D01*
X735700Y405543D02*
X741700D01*
X738700Y402543D02*
Y408543D01*
X632200Y405543D02*
X638200D01*
X635200Y402543D02*
Y408543D01*
X715117Y405543D02*
X721117D01*
X718117Y402543D02*
Y408543D01*
X755467Y405543D02*
X761467D01*
X758467Y402543D02*
Y408543D01*
X590450Y405543D02*
X596450D01*
X593450Y402543D02*
Y408543D01*
X694534Y405543D02*
X700534D01*
X697534Y402543D02*
Y408543D01*
X673367Y405543D02*
X679367D01*
X676367Y402543D02*
Y408543D01*
X673367Y384515D02*
X679367D01*
X676367Y381515D02*
Y387515D01*
X735700Y384515D02*
X741700D01*
X738700Y381515D02*
Y387515D01*
X632200Y384515D02*
X638200D01*
X635200Y381515D02*
Y387515D01*
X715117Y384515D02*
X721117D01*
X718117Y381515D02*
Y387515D01*
X755467Y384515D02*
X761467D01*
X758467Y381515D02*
Y387515D01*
X590450Y384515D02*
X596450D01*
X593450Y381515D02*
Y387515D01*
X694534Y384515D02*
X700534D01*
X697534Y381515D02*
Y387515D01*
X611034Y384515D02*
X617034D01*
X614034Y381515D02*
Y387515D01*
X652784Y384515D02*
X658784D01*
X655784Y381515D02*
Y387515D01*
X652784Y334429D02*
X658784D01*
X655784Y331429D02*
Y337429D01*
X715117Y334429D02*
X721117D01*
X718117Y331429D02*
Y337429D01*
X590450Y334429D02*
X596450D01*
X593450Y331429D02*
Y337429D01*
X735700Y334429D02*
X741700D01*
X738700Y331429D02*
Y337429D01*
X611034Y334429D02*
X617034D01*
X614034Y331429D02*
Y337429D01*
X694534Y334429D02*
X700534D01*
X697534Y331429D02*
Y337429D01*
X632200Y334429D02*
X638200D01*
X635200Y331429D02*
Y337429D01*
X673367Y334429D02*
X679367D01*
X676367Y331429D02*
Y337429D01*
X755467Y359458D02*
X761467D01*
X758467Y356458D02*
Y362458D01*
X735700Y359458D02*
X741700D01*
X738700Y356458D02*
Y362458D01*
X715117Y359458D02*
X721117D01*
X718117Y356458D02*
Y362458D01*
X694534Y359458D02*
X700534D01*
X697534Y356458D02*
Y362458D01*
X611034Y359458D02*
X617034D01*
X614034Y356458D02*
Y362458D01*
X673367Y359458D02*
X679367D01*
X676367Y356458D02*
Y362458D01*
X632200Y359458D02*
X638200D01*
X635200Y356458D02*
Y362458D01*
X652784Y359458D02*
X658784D01*
X655784Y356458D02*
Y362458D01*
X569484Y225201D02*
X575484D01*
X572484Y222201D02*
Y228201D01*
X694534Y225201D02*
X700534D01*
X697534Y222201D02*
Y228201D01*
X590450Y225201D02*
X596450D01*
X593450Y222201D02*
Y228201D01*
X652784Y225201D02*
X658784D01*
X655784Y222201D02*
Y228201D01*
X735700Y225201D02*
X741700D01*
X738700Y222201D02*
Y228201D01*
X673367Y225201D02*
X679367D01*
X676367Y222201D02*
Y228201D01*
X715117Y225201D02*
X721117D01*
X718117Y222201D02*
Y228201D01*
X632200Y225201D02*
X638200D01*
X635200Y222201D02*
Y228201D01*
X249400Y726201D02*
X255400D01*
X252400Y723201D02*
Y729201D01*
X569484Y472901D02*
X575484D01*
X572484Y469901D02*
Y475900D01*
X569484Y493467D02*
X575484D01*
X572484Y490467D02*
Y496467D01*
X569484Y516651D02*
X575484D01*
X572484Y513651D02*
Y519650D01*
X694534Y472901D02*
X700534D01*
X697534Y469901D02*
Y475900D01*
X694534Y493484D02*
X700534D01*
X697534Y490484D02*
Y496484D01*
X694534Y516651D02*
X700534D01*
X697534Y513651D02*
Y519650D01*
X673367Y472901D02*
X679367D01*
X676367Y469901D02*
Y475900D01*
X673367Y493484D02*
X679367D01*
X676367Y490484D02*
Y496484D01*
X673367Y516651D02*
X679367D01*
X676367Y513651D02*
Y519650D01*
X755467Y449600D02*
X761467D01*
X758467Y446600D02*
Y452601D01*
X694534Y449600D02*
X700534D01*
X697534Y446600D02*
Y452601D01*
X715117Y449600D02*
X721117D01*
X718117Y446600D02*
Y452601D01*
X735700Y449600D02*
X741700D01*
X738700Y446600D02*
Y452601D01*
X652784Y449600D02*
X658784D01*
X655784Y446600D02*
Y452601D01*
X632200Y449600D02*
X638200D01*
X635200Y446600D02*
Y452601D01*
X611034Y449600D02*
X617034D01*
X614034Y446600D02*
Y452601D01*
X590450Y449600D02*
X596450D01*
X593450Y446600D02*
Y452601D01*
X569484Y449600D02*
X575484D01*
X572484Y446600D02*
Y452601D01*
X673367Y309401D02*
X679367D01*
X676367Y306401D02*
Y312400D01*
X694534Y309401D02*
X700534D01*
X697534Y306401D02*
Y312400D01*
X715117Y309401D02*
X721117D01*
X718117Y306401D02*
Y312400D01*
X735700Y309401D02*
X741700D01*
X738700Y306401D02*
Y312400D01*
X652784Y309401D02*
X658784D01*
X655784Y306401D02*
Y312400D01*
X632200Y309401D02*
X638200D01*
X635200Y306401D02*
Y312400D01*
X590450Y309401D02*
X596450D01*
X593450Y306401D02*
Y312400D01*
X755467Y264800D02*
X761467D01*
X758467Y261800D02*
Y267801D01*
X673367Y264800D02*
X679367D01*
X676367Y261800D02*
Y267801D01*
X694534Y264800D02*
X700534D01*
X697534Y261800D02*
Y267801D01*
X715117Y264800D02*
X721117D01*
X718117Y261800D02*
Y267801D01*
X735700Y264800D02*
X741700D01*
X738700Y261800D02*
Y267801D01*
X652784Y245001D02*
X658784D01*
X655784Y242001D02*
Y248001D01*
X632200Y245001D02*
X638200D01*
X635200Y242001D02*
Y248001D01*
X590450Y245001D02*
X596450D01*
X593450Y242001D02*
Y248001D01*
X569484Y264800D02*
X575484D01*
X572484Y261800D02*
Y267801D01*
X673367Y205401D02*
X679367D01*
X676367Y202401D02*
Y208401D01*
X694534Y205401D02*
X700534D01*
X697534Y202401D02*
Y208401D01*
X715117Y205401D02*
X721117D01*
X718117Y202401D02*
Y208401D01*
X735700Y205401D02*
X741700D01*
X738700Y202401D02*
Y208401D01*
X652784Y205401D02*
X658784D01*
X655784Y202401D02*
Y208401D01*
X632200Y205401D02*
X638200D01*
X635200Y202401D02*
Y208401D01*
X590450Y205401D02*
X596450D01*
X593450Y202401D02*
Y208401D01*
X569484Y205401D02*
X575484D01*
X572484Y202401D02*
Y208401D01*
X435100Y509351D02*
X441100D01*
X438100Y506351D02*
Y512351D01*
X435100Y483467D02*
X441100D01*
X438100Y480467D02*
Y486467D01*
X416884Y509351D02*
X422884D01*
X419884Y506351D02*
Y512351D01*
X416884Y483467D02*
X422884D01*
X419884Y480467D02*
Y486467D01*
X416884Y457901D02*
X422884D01*
X419884Y454901D02*
Y460901D01*
X230700Y264800D02*
X236700D01*
X233700Y261800D02*
Y267801D01*
X250867Y264800D02*
X256867D01*
X253867Y261800D02*
Y267801D01*
X272450Y264800D02*
X278450D01*
X275450Y261800D02*
Y267801D01*
X292034Y264800D02*
X298034D01*
X295034Y261800D02*
Y267801D01*
X312700Y264800D02*
X318700D01*
X315700Y261800D02*
Y267801D01*
X396117Y264800D02*
X402117D01*
X399117Y261800D02*
Y267801D01*
X375534Y264800D02*
X381534D01*
X378534Y261800D02*
Y267801D01*
X354367Y264800D02*
X360367D01*
X357367Y261800D02*
Y267801D01*
X333784Y264800D02*
X339784D01*
X336784Y261800D02*
Y267801D01*
X417284Y264800D02*
X423284D01*
X420284Y261800D02*
Y267801D01*
X1799700Y2287201D02*
X1804700D01*
X1802200Y2284701D02*
Y2289701D01*
X1780967Y2287201D02*
X1785967D01*
X1783467Y2284701D02*
Y2289701D01*
X1762234Y2287201D02*
X1767234D01*
X1764734Y2284701D02*
Y2289701D01*
X1743500Y2287201D02*
X1748500D01*
X1746000Y2284701D02*
Y2289701D01*
X1673100Y2223801D02*
X1678100D01*
X1675600Y2221301D02*
Y2226301D01*
X1664100Y2214901D02*
X1669100D01*
X1666600Y2212401D02*
Y2217401D01*
X1973000Y2328701D02*
X1978000D01*
X1975500Y2326201D02*
Y2331201D01*
X1939500Y2328701D02*
X1944500D01*
X1942000Y2326201D02*
Y2331201D01*
X1906000Y2328701D02*
X1911000D01*
X1908500Y2326201D02*
Y2331201D01*
X1664100Y2237401D02*
X1669100D01*
X1666600Y2234901D02*
Y2239901D01*
X1668690Y2257111D02*
X1671690D01*
X1670190Y2255611D02*
Y2258611D01*
X1687800Y2287201D02*
X1692800D01*
X1690300Y2284701D02*
Y2289701D01*
X1840200Y2285701D02*
X1843200D01*
X1841700Y2284201D02*
Y2287201D01*
X2055200Y2307901D02*
X2058200D01*
X2056700Y2306401D02*
Y2309401D01*
X87671Y1099871D02*
X92671D01*
X90171Y1097371D02*
Y1102371D01*
X53700Y1172900D02*
X58700D01*
X56200Y1170401D02*
Y1175400D01*
X1623800Y2266201D02*
X1628800D01*
X1626300Y2263701D02*
Y2268701D01*
X1572600Y2266201D02*
X1577600D01*
X1575100Y2263701D02*
Y2268701D01*
X1733100Y2193001D02*
X1738100D01*
X1735600Y2190501D02*
Y2195501D01*
X1743000Y2202701D02*
X1748000D01*
X1745500Y2200201D02*
Y2205201D01*
X2090100Y2275201D02*
X2093100D01*
X2091600Y2273701D02*
Y2276701D01*
X1460100Y2089701D02*
X1465100D01*
X1462600Y2087201D02*
Y2092201D01*
X1515200Y1943831D02*
X1520200D01*
X1517700Y1941331D02*
Y1946331D01*
X1558000Y1290701D02*
X1561000D01*
X1559500Y1289201D02*
Y1292201D01*
X1274265Y2281901D02*
X1279265D01*
X1276765Y2279401D02*
Y2284401D01*
X1288800Y2281901D02*
X1293800D01*
X1291300Y2279401D02*
Y2284401D01*
X1223064Y2281901D02*
X1228064D01*
X1225564Y2279401D02*
Y2284401D01*
X1489600Y431801D02*
X1494600D01*
X1492100Y429301D02*
Y434301D01*
X1299600Y654301D02*
X1304600D01*
X1302100Y651801D02*
Y656801D01*
X1490460Y454260D02*
X1495460D01*
X1492960Y451760D02*
Y456760D01*
X1299200Y637501D02*
X1304200D01*
X1301700Y635001D02*
Y640001D01*
X779200Y1199100D02*
X783200D01*
X781200Y1197101D02*
Y1201100D01*
X998200Y584801D02*
X1001200D01*
X999700Y583301D02*
Y586301D01*
X966240Y585071D02*
X969240D01*
X967740Y583571D02*
Y586571D01*
X778600Y1210701D02*
X782600D01*
X780600Y1208701D02*
Y1212701D01*
X692300Y1292901D02*
X697300D01*
X694800Y1290401D02*
Y1295401D01*
X1484000Y1353901D02*
X1487000D01*
X1485500Y1352401D02*
Y1355401D01*
X1167968Y1563333D02*
X1172968D01*
X1170468Y1560833D02*
Y1565833D01*
X778500Y1186801D02*
X782500D01*
X780500Y1184801D02*
Y1188801D01*
X730300Y1209701D02*
X734300D01*
X732300Y1207701D02*
Y1211701D01*
X825900Y1536501D02*
X830900D01*
X828400Y1534001D02*
Y1539001D01*
X825700Y1524101D02*
X830700D01*
X828200Y1521601D02*
Y1526601D01*
X812000Y1524101D02*
X817000D01*
X814500Y1521601D02*
Y1526601D01*
X812200Y1536501D02*
X817200D01*
X814700Y1534001D02*
Y1539001D01*
X1594500Y1517801D02*
X1597500D01*
X1596000Y1516301D02*
Y1519301D01*
X248520Y1617581D02*
X253520D01*
X251020Y1615081D02*
Y1620081D01*
X423600Y1624501D02*
X428600D01*
X426100Y1622001D02*
Y1627001D01*
X365500Y1568000D02*
X370500D01*
X368000Y1565501D02*
Y1570500D01*
X350900Y1567800D02*
X355900D01*
X353400Y1565301D02*
Y1570300D01*
X56100Y2295501D02*
X61100D01*
X58600Y2293001D02*
Y2298001D01*
X39700Y2279701D02*
X44700D01*
X42200Y2277201D02*
Y2282201D01*
X70900Y2311101D02*
X75900D01*
X73400Y2308601D02*
Y2313601D01*
X1451000Y1202601D02*
X1454000D01*
X1452500Y1201101D02*
Y1204101D01*
X1556100Y1413601D02*
X1561100D01*
X1558600Y1411101D02*
Y1416100D01*
X31900Y1516201D02*
X36900D01*
X34400Y1513701D02*
Y1518701D01*
X22800Y1524901D02*
X27800D01*
X25300Y1522401D02*
Y1527401D01*
X68300Y1477601D02*
X73300D01*
X70800Y1475101D02*
Y1480101D01*
X59900Y1487301D02*
X64900D01*
X62400Y1484801D02*
Y1489801D01*
X493900Y1414400D02*
X496900D01*
X495400Y1412901D02*
Y1415901D01*
X660000Y1439801D02*
X665000D01*
X662500Y1437301D02*
Y1442301D01*
X581400Y1391601D02*
X584400D01*
X582900Y1390101D02*
Y1393101D01*
X897600Y1075500D02*
X902600D01*
X900100Y1073000D02*
Y1078000D01*
X698200Y1392801D02*
X703200D01*
X700700Y1390301D02*
Y1395301D01*
X697900Y1422801D02*
X702900D01*
X700400Y1420301D02*
Y1425301D01*
X476400Y1426001D02*
X481400D01*
X478900Y1423501D02*
Y1428501D01*
X959900Y1144401D02*
X964900D01*
X962400Y1141901D02*
Y1146901D01*
X1079800Y1233501D02*
X1089800D01*
X1084800Y1228501D02*
Y1238501D01*
X967780Y507601D02*
X972780D01*
X970280Y505101D02*
Y510101D01*
X1401200Y1219301D02*
X1409200D01*
X1405200Y1215301D02*
Y1223301D01*
X688900Y1226901D02*
X693900D01*
X691400Y1224401D02*
Y1229401D01*
X636100Y1225501D02*
X641100D01*
X638600Y1223001D02*
Y1228001D01*
X661100Y1194101D02*
X666100D01*
X663600Y1191601D02*
Y1196601D01*
X676100Y1194101D02*
X681100D01*
X678600Y1191601D02*
Y1196601D01*
X550100Y1211301D02*
X555100D01*
X552600Y1208801D02*
Y1213801D01*
X550100Y1196301D02*
X555100D01*
X552600Y1193801D02*
Y1198801D01*
X504400Y1323001D02*
X509400D01*
X506900Y1320501D02*
Y1325500D01*
X504400Y1308001D02*
X509400D01*
X506900Y1305501D02*
Y1310501D01*
X544200Y1310701D02*
X549200D01*
X546700Y1308201D02*
Y1313201D01*
X544200Y1325701D02*
X549200D01*
X546700Y1323201D02*
Y1328201D01*
X337590Y1613511D02*
X340590D01*
X339090Y1612011D02*
Y1615011D01*
X243100Y1646001D02*
X248100D01*
X245600Y1643501D02*
Y1648501D01*
X300300Y1614101D02*
X305300D01*
X302800Y1611601D02*
Y1616601D01*
X297000Y1628501D02*
X302000D01*
X299500Y1626001D02*
Y1631001D01*
X243100Y1659501D02*
X248100D01*
X245600Y1657001D02*
Y1662001D01*
X1476100Y1902501D02*
X1481100D01*
X1478600Y1900001D02*
Y1905001D01*
X1484000Y1245057D02*
X1487000D01*
X1485500Y1243557D02*
Y1246557D01*
X1484000Y1288857D02*
X1487000D01*
X1485500Y1287357D02*
Y1290357D01*
X1484000Y1310715D02*
X1487000D01*
X1485500Y1309215D02*
Y1312215D01*
X1484000Y1332357D02*
X1487000D01*
X1485500Y1330857D02*
Y1333857D01*
X1377400Y1332501D02*
X1380400D01*
X1378900Y1331001D02*
Y1334001D01*
X1391500Y1345801D02*
X1396500D01*
X1394000Y1343301D02*
Y1348301D01*
X1359700Y1403201D02*
X1367700D01*
X1363700Y1399201D02*
Y1407201D01*
X1484338Y1416301D02*
X1489338D01*
X1486838Y1413801D02*
Y1418801D01*
X1435300Y1422701D02*
X1438300D01*
X1436800Y1421201D02*
Y1424201D01*
X1283000Y1335001D02*
X1288000D01*
X1285500Y1332501D02*
Y1337501D01*
X1424100Y1999200D02*
X1429100D01*
X1426600Y1996701D02*
Y2001700D01*
X1331600Y1588369D02*
X1336600D01*
X1334100Y1585869D02*
Y1590869D01*
X1413200Y2110401D02*
X1418200D01*
X1415700Y2107901D02*
Y2112901D01*
X1617700Y2141801D02*
X1622700D01*
X1620200Y2139301D02*
Y2144301D01*
X1604600Y2141901D02*
X1609600D01*
X1607100Y2139401D02*
Y2144401D01*
X1591300Y2142301D02*
X1596300D01*
X1593800Y2139801D02*
Y2144801D01*
X1612500Y2231701D02*
X1617500D01*
X1615000Y2229201D02*
Y2234201D01*
X1618000Y2244601D02*
X1623000D01*
X1620500Y2242101D02*
Y2247101D01*
X1591500Y2231801D02*
X1596500D01*
X1594000Y2229301D02*
Y2234301D01*
X1551500Y2137701D02*
X1561500D01*
X1556500Y2132701D02*
Y2142701D01*
X1551500Y2156040D02*
X1561500D01*
X1556500Y2151041D02*
Y2161040D01*
X1551500Y2174380D02*
X1561500D01*
X1556500Y2169380D02*
Y2179380D01*
X1551500Y2192720D02*
X1561500D01*
X1556500Y2187720D02*
Y2197720D01*
X1551500Y2211060D02*
X1561500D01*
X1556500Y2206060D02*
Y2216060D01*
X1551500Y2229400D02*
X1561500D01*
X1556500Y2224400D02*
Y2234400D01*
X1601600Y2244501D02*
X1606600D01*
X1604100Y2242001D02*
Y2247001D01*
X1405700Y1874001D02*
X1410700D01*
X1408200Y1871501D02*
Y1876501D01*
X1039000Y1890501D02*
X1043000D01*
X1041000Y1888501D02*
Y1892501D01*
X1051900Y1890501D02*
X1055900D01*
X1053900Y1888501D02*
Y1892501D01*
X1051900Y1901601D02*
X1055900D01*
X1053900Y1899601D02*
Y1903601D01*
X1039000Y1901601D02*
X1043000D01*
X1041000Y1899601D02*
Y1903601D01*
X298600Y1678701D02*
X302600D01*
X300600Y1676701D02*
Y1680701D01*
X265310Y1659511D02*
X269310D01*
X267310Y1657511D02*
Y1661511D01*
X334600Y1653501D02*
X338600D01*
X336600Y1651501D02*
Y1655500D01*
X642800Y1568000D02*
X647800D01*
X645300Y1565501D02*
Y1570500D01*
X384850Y1566851D02*
X389850D01*
X387350Y1564351D02*
Y1569351D01*
X277300Y1736901D02*
X281300D01*
X279300Y1734901D02*
Y1738901D01*
X503300Y1672701D02*
X508300D01*
X505800Y1670201D02*
Y1675201D01*
X1143040Y544431D02*
X1148040D01*
X1145540Y541931D02*
Y546931D01*
X1181140Y544431D02*
X1186140D01*
X1183640Y541931D02*
Y546931D01*
X1501180Y381871D02*
X1506180D01*
X1503680Y379371D02*
Y384371D01*
X1010960Y596501D02*
X1015960D01*
X1013460Y594001D02*
Y599001D01*
X1502490Y814940D02*
X1512490D01*
X1507490Y809940D02*
Y819940D01*
X2135380Y1221341D02*
X2145380D01*
X2140380Y1216341D02*
Y1226340D01*
X1875870Y440290D02*
X1885870D01*
X1880870Y435290D02*
Y445290D01*
X1849200Y440290D02*
X1859200D01*
X1854200Y435290D02*
Y445290D01*
M02*
